<svg xmlns="http://www.w3.org/2000/svg" width="682.667" height="682.667"><path d="M49.17 19.963h566.86v645.689H49.17z" style="fill:#f1b100;fill-opacity:1;stroke:#fb0000;stroke-width:2"/><path d="M0 341.333V0h682.667v682.667H0Zm243.719 301.683c-4.188-.263-11.388-.266-16-.005s-1.186.477 7.614.48 12.574-.211 8.386-.475m133.128-5.419c-.343-1.245-1.008-5.1-1.479-8.566-.47-3.466-1.381-6.627-2.024-7.024s-.871-2.662-.508-5.031c.363-2.37-1.177-14.81-3.423-27.643-6.513-37.207-9.877-58.649-9.29-59.203 1.288-1.217 60.3-6.241 61.32-5.22 1.89 1.89 12.836 59.922 11.546 61.212-.315.315-3.112-.323-6.215-1.417l-5.642-1.991.713 3.643c.393 2.004 1.113 7.136 1.6 11.406.743 6.506 1.394 7.955 4.024 8.955 2.211.84 3.564 2.888 4.583 6.937 1.253 4.974 2.106 5.953 6.364 7.304 4.3 1.363 5.237 1.245 7.457-.943 2.39-2.356 2.44-3.232.852-14.926-.928-6.833-2.482-15.723-3.453-19.757-.972-4.033-4.25-21.133-7.285-38-3.035-16.866-7.6-41.466-10.144-54.666-2.543-13.2-6.347-33.9-8.452-46-2.106-12.1-6.892-37.9-10.637-57.334-11.104-57.625-14.544-75.961-16.76-89.333-2.035-12.278-14.14-75.296-22.026-114.667-2.13-10.633-6.023-30.733-8.651-44.666l-7.422-39.334c-1.453-7.7-3.074-16.357-3.602-19.239-.782-4.266-1.768-5.568-5.316-7.013-4.112-1.674-4.437-1.595-5.815 1.429-1.165 2.557-.596 6.875 2.825 21.433 2.356 10.027 3.986 18.528 3.623 18.892-.364.363-14.674 1.013-31.802 1.444l-31.141.784-3.937-21.56c-3.924-21.486-3.952-21.567-8.413-24.2-4.289-2.53-4.611-2.543-7.688-.305-3.928 2.856-3.972 4.237-.671 21.002 33.23 168.764 61.279 318.128 84.753 451.333 5.621 31.9 11.016 59.915 11.988 62.256 1.066 2.57 1.253 4.427.47 4.688-.822.274-.697 4.092.34 10.411 1.446 8.822 2.26 10.622 7.018 15.53 5.238 5.405 5.482 5.501 9.162 3.598 2.504-1.295 3.57-2.719 3.158-4.219M356 516.502c0-.624-2.742-16.35-6.093-34.947s-5.901-33.994-5.667-34.216c.577-.544 51.189-4.68 57.215-4.676 4.696.004 4.816.137 6.282 7.004.822 3.85 3.581 16.6 6.133 28.333 2.55 11.733 5.025 24.072 5.498 27.42l.86 6.086-26.447 2.289c-14.546 1.259-28.998 2.638-32.114 3.065-3.117.427-5.667.266-5.667-.358M412.64 501c-4.8-24.859-10.218-49.993-11.28-52.333-1.665-3.666-1.122-.351 5.317 32.436C409.605 496.01 412 508.46 412 508.77s.506.563 1.124.563.4-3.75-.484-8.333m-71.3-67.333c.004-.55-2.74-15.906-6.098-34.124s-5.911-33.293-5.674-33.5c.238-.208 13.561-1.21 29.608-2.229 19.781-1.255 29.703-1.416 30.815-.5 2.14 1.765 16.064 65.715 14.626 67.173-.588.597-48.16 4.039-56.95 4.12-3.484.033-6.33-.39-6.327-.94m54.014-24.632c-7.904-37.02-9.24-42.708-9.709-41.303-.46 1.381 9.536 53.827 11.36 59.601.732 2.315.909 2.364 1.343.37.275-1.265-1.072-9.665-2.994-18.668m-68.065-55.774c-.87-1.408-12.976-65.352-12.466-65.846.781-.757 41.667-3.415 52.533-3.415h9.61l1.479 7c6.132 29.008 12.128 58.866 11.868 59.098-.803.715-62.62 3.818-63.024 3.163m51.398-33.548c-5.043-24.779-7.697-35.052-7.93-30.687-.084 1.57 6.939 36.84 10.68 53.64.898 4.034 1.885 6.605 2.194 5.713.308-.891-1.916-13.791-4.944-28.666m-67.22-46.524c-.754-2.352-9.808-49.348-10.916-56.661l-.83-5.472 11.14-.825c6.126-.454 20.166-1.22 31.2-1.701l20.06-.877 5.548 27.174c3.052 14.945 5.923 29.328 6.382 31.962l.833 4.789-22.442.91c-12.343.5-26.478 1.28-31.411 1.732-7.028.646-9.099.422-9.565-1.031m51.238-35.074c-5.164-25.564-6.705-31.29-6.705-24.907 0 2.153 8.535 46.232 10.848 56.023.1.423.416-.431.701-1.898.286-1.466-1.894-14.614-4.844-29.218M294.281 187c-4.288-20.395-10.606-55.119-10.115-55.595.275-.267 14.45-.924 31.5-1.46 25.987-.817 31.012-.675 31.07.874.04 1.016 2.952 15.948 6.474 33.181l6.403 31.333-13.473.837c-7.41.46-21.621.91-31.58 1l-18.106.163zm58.4 2.667c-.516-2.017-2.347-11.167-4.068-20.334-4.172-22.231-7.212-36.376-7.982-37.147-1.317-1.316-.473 4 4.702 29.649 2.934 14.536 5.334 27.57 5.334 28.964s.665 2.534 1.478 2.534c.95 0 1.142-1.306.537-3.666m136.541 453.85c-.305-.265-24.855-.789-54.555-1.163-29.7-.375-51.6-.243-48.667.293 5.281.965 104.292 1.8 103.222.87M321 641.67c-12.283-.22-32.383-.22-44.667 0s-2.233.4 22.334.4c24.566 0 34.616-.18 22.333-.4m35.972.192c-.443-.443-1.593-.49-2.555-.105-1.064.425-.748.741.805.805 1.406.058 2.193-.257 1.75-.7m-9.224-4.073c9.96-.775 10.875-1.07 9.037-2.908-1.764-1.764-8.962-2.05-52.415-2.085-27.704-.022-74.67.587-104.37 1.354l-54 1.396 32.667.4c17.966.221 48.566.813 68 1.315 51.141 1.32 88.396 1.516 101.081.528m205.585-2.822 22-.96-34-.815c-18.7-.448-62.593-.899-97.541-1.003-63.133-.187-63.538-.17-62.838 2.504.698 2.672 1.282 2.687 75.542 1.963 41.16-.401 84.737-1.161 96.837-1.69m-200.531-7.942c-.537-.537-12.187-1.08-25.89-1.207-13.701-.127-45.612-.536-70.912-.909l-46-.678 42.399 1.062c23.32.584 42.77 1.432 43.222 1.885.453.453 13.723.823 29.49.823s28.228-.44 27.69-.976m68.937-2.684c-7.477-.238-20.077-.238-28-.002s-1.806.43 13.594.43c15.4.002 21.883-.191 14.406-.428m67.928-.001c-7.517-.238-19.817-.238-27.334 0s-1.366.432 13.667.432 21.183-.194 13.667-.432m-305.334-1.315c-3.116-.281-8.216-.281-11.333 0-3.117.28-.567.51 5.667.51 6.233 0 8.783-.23 5.666-.51M425.95 575c-3.451-20.62-9.262-48.558-9.681-46.546-.412 1.976 6.676 43.571 8.499 49.88 1.088 3.764 1.96 1.308 1.183-3.334M173.334 196v-6.667h-20v-75.561c0-68.44-.208-75.792-2.206-78-1.214-1.341-2.694-2.439-3.29-2.439-2.12 0-33.844 23.697-34.216 25.559-.208 1.043 1.274 4.016 3.293 6.606l3.672 4.71 7.712-5.988c4.241-3.294 8.107-5.592 8.592-5.108.484.484 1.164 29.982 1.511 65.55l.632 64.671H116v13.334h57.333zm47.669-30.085c11.811-5.885 18.416-18.996 17.423-34.586-.692-10.87-5.4-20.084-13.196-25.823l-6.104-4.495 6.564-6.14c9.388-8.781 12.16-14.783 12.101-26.204-.08-15.583-5.452-24.385-18.367-30.098-12.109-5.356-24.733-1.883-38.217 10.516l-7.079 6.509 5.25 6.035 5.25 6.035 5.182-5.888c5.595-6.356 13.58-11.138 18.471-11.062 8.432.13 14.365 7.87 14.378 18.753.007 6.121-.684 8.422-3.836 12.774-3.92 5.41-10.02 9.132-17.382 10.604-4.064.813-4.107.91-4.107 9.197v8.374l6.653.915c3.658.504 8.547 2.21 10.864 3.792 12.231 8.354 12.133 28.137-.183 36.544-2.417 1.65-5.903 3-7.747 3-4.958 0-14.116-5.887-18.56-11.931l-3.901-5.304-5.833 5.942-5.832 5.943 4.603 4.802c14.193 14.808 29.34 18.905 43.605 11.796m114.309-65.542c-2.34-12.773-4.514-19.76-4.604-14.79-.022 1.239.801 6.039 1.83 10.668s2.266 10.727 2.752 13.552 1.226 4.793 1.646 4.373-.311-6.631-1.624-13.803" style="fill:#3c4553;fill-opacity:1"/></svg>