<svg class="twenty-logo" style="max-width:100px" xmlns="http://www.w3.org/2000/svg" viewBox="0 0 81 35"><defs><linearGradient id="a" x1="-234.72" y1="-2361.62" x2="-212.414" y2="-2378.064" gradientTransform="matrix(1 0 0 -1 264 -2351)" gradientUnits="userSpaceOnUse"><stop offset=".005" stop-color="#fa6a35"/><stop offset="1" stop-color="#ffca34"/></linearGradient><linearGradient id="b" x1="-226.795" y1="-2353.993" x2="-201.842" y2="-2383.656" gradientTransform="matrix(1 0 0 -1 264 -2351)" gradientUnits="userSpaceOnUse"><stop offset="0" stop-color="#fa6a35"/><stop offset="1" stop-color="#ffca34"/></linearGradient><style>.c{fill:#fff}</style></defs><path d="M40.867 30.053a12.452 12.452 0 010-23.994 2.504 2.504 0 10-1.344-4.825 17.453 17.453 0 000 33.64 2.529 2.529 0 00.67.09 2.503 2.503 0 00.674-4.911z" fill="url(#a)"/><path d="M49 1.234a2.466 2.466 0 00-.671-.091 2.503 2.503 0 00-.666 4.914 12.452 12.452 0 010 23.994A2.503 2.503 0 0049 34.875a17.542 17.542 0 0011.69-21.822A17.809 17.809 0 0049 1.233z" fill="url(#b)"/><path class="c" d="M2.634 34.938a3.1 3.1 0 01-2.503-2.224 4.121 4.121 0 011.665-4.007l1.334-1.2c.56-.496 1.118-1.034 1.696-1.5l8.276-7.064 1.233-1.036a30.778 30.778 0 002.41-2.068 6.74 6.74 0 002.003-4.913 4.35 4.35 0 00-1.518-3.22 6.781 6.781 0 00-5.06-1.524 10.085 10.085 0 00-6.66 3.631 2.498 2.498 0 01-3.848-3.185 15.171 15.171 0 0110.054-5.42 11.632 11.632 0 018.72 2.667 9.307 9.307 0 013.31 6.827 11.726 11.726 0 01-3.403 8.659 35.6 35.6 0 01-2.792 2.44l-1.159.925-8.476 7.244H21.25a2.497 2.497 0 012.496 2.496v.002a2.466 2.466 0 01-2.465 2.466h-.031z"/><circle class="c" cx="68.556" cy="3.649" r="2.514"/><path class="c" d="M68.578 34.93a2.494 2.494 0 01-2.494-2.494v-18.37a2.498 2.498 0 114.997 0v18.359a2.494 2.494 0 01-2.483 2.504h-.02zM80.92 2.746a2.763 2.763 0 11-5.524.146v-.13a2.728 2.728 0 012.693-2.76h.073A2.694 2.694 0 0180.92 2.63q.002.058 0 .117zm-.462 0A2.249 2.249 0 0078.278.43h-.116a2.282 2.282 0 00-2.312 2.252v.08a2.312 2.312 0 004.624-.017h-.016zm-1.502.502l.689 1.054h-.666l-.609-.937h-.696v.937H77V1.22h1.284c.812 0 1.298.422 1.298 1.079a.962.962 0 01-.618.949zm-.718-.408c.436 0 .689-.204.689-.548s-.253-.537-.69-.537h-.579v1.078z"/></svg>