<svg xmlns="http://www.w3.org/2000/svg" xml:space="preserve" id="Layer_1" x="0" y="0" version="1.1" viewBox="0 0 80 80"><style>.st8{fill:#fff}.st30{fill:#1e76c0}</style><path d="M2.7 2.7h74.5v74.5H2.7z" style="fill:#161616"/><path id="path22_00000018939988860264547770000013518922912127550885_" d="M18.7 37.9c.5 0 1-.2 1.5-.4s.8-.5 1.1-.8c.3-.4.4-.9.4-1.5q0-1.35-.9-2.1c-.6-.5-1.3-.7-2.1-.7-1.1 0-1.9.4-2.5 1.1s-.8 1.6-.8 2.8h-4.2q0-1.65.6-3c.4-.9.9-1.7 1.5-2.3.6-.7 1.4-1.2 2.3-1.5.9-.4 1.9-.5 3-.5.9 0 1.7.1 2.6.4s1.6.6 2.3 1.2c.7.5 1.2 1.1 1.7 1.9.4.7.6 1.6.6 2.6s-.3 2-.8 2.8-1.2 1.3-2.2 1.6v.1c1.2.3 2.1.8 2.8 1.7s1 1.9 1 3.2c0 1.1-.2 2.1-.7 3-.4.9-1 1.6-1.8 2.2-.7.6-1.6 1-2.6 1.4-1 .3-2 .5-3 .5-1.2 0-2.3-.2-3.3-.5-1-.4-1.8-.9-2.5-1.5-.7-.7-1.2-1.5-1.6-2.4-.4-1-.6-2.1-.5-3.3h4.2c0 .6.1 1.1.3 1.6s.4 1 .7 1.4q.45.6 1.2.9c.5.2 1 .3 1.6.3 1 0 1.8-.3 2.5-.9s1-1.4 1-2.5c0-.8-.2-1.4-.5-1.9q-.45-.6-1.2-.9c-.5-.2-1-.3-1.6-.3h-1.7v-3.1c.6-.5 1.1-.5 1.6-.6" class="st30"/><path id="path26_00000117667547818394905460000012268102485416748476_" d="M39.4 31.6c2.4 0 4.8 1 6.6 2.7l.5.5v-3.7l-.1-.1c-2-1.4-4.2-2.1-6.8-2.1-6.6 0-11.9 5-11.9 11.2 0 6.1 5.3 11 11.9 11 2.4 0 4.8-.7 6.8-2.1l.1-.1v-3.7l-.5.5c-1.8 1.7-4.2 2.7-6.6 2.7-4.8 0-8.8-3.8-8.8-8.4.1-4.5 4.1-8.4 8.8-8.4" class="st8"/><path id="path30_00000049903698212031666970000012054173676327941044_" d="M46.5 35.8v8.6l3.8-4.5z" class="st30"/><path id="path34_00000052814313168180727790000000624399697029535414_" d="m69.2 51-8.8-10.8 8.8-10.8h-4.7L58 37.3l-6.5-7.9h-4.7l8.8 10.8L46.9 51h4.6l6.5-8 6.5 8z" class="st8"/></svg>