<svg xmlns="http://www.w3.org/2000/svg" viewBox="0 0 283 162"><style>.B{stroke:#000}.C{filter:url(#B)}.D{stroke-width:1}.E{fill-rule:evenodd}.F{stroke-width:10}.G{stroke:#fff}</style><defs><clipPath id="A"><path fill="#fff" d="M49.91 52.76h168.6v51.02c-43.95 52.89-71.73 113.9-74.31 187.4H86.52c2.27-63.39 8.836-125.7 57.68-177.5H49.92v-61z" class="B D E"/></clipPath><clipPath id="C"><path d="M415.9 112.7v175.2h36.59V112.7zM285 113.794v39.94h56.56l-58.78 96.5v38.81h107.6v-38.81H321.6l71-100.9v-35.5H285zm200.7.063v176.2h39.94v-62.06h26.59c42.59-.146 43.72-115.5-2.25-114.2H485.7zm37.72 37.72h15.59c17.35-.595 17.71 38.94 0 36.5l-14.41 1.219-1.188-37.72z" class="B D E"/></clipPath><clipPath id="D"><path d="M0-.062v345.6h603.39v-268.8h-334.5V-.042H.09z" class="B D"/></clipPath><clipPath id="E"><path fill="#fff" d="M598.4 80.59v261.1H262.7V80.59z" class="B D"/></clipPath><filter id="B" width="4" height="2" x="-.5" y="-.5"><feGaussianBlur stdDeviation="4"/></filter><filter id="F" width="2" height="2" x="-.5" y="-.5"><feGaussianBlur stdDeviation="4"/></filter></defs><g class="B"><path d="M0-.062v345.6h603.39v-268.8h-334.5V-.042H.09z" transform="matrix(.4697 0 0 .4682 .026 .221)"/><path fill="#fff" d="M49.91 52.76h168.6v51.02c-43.95 52.89-71.73 113.9-74.31 187.4H86.52c2.27-63.39 8.836-125.7 57.68-177.5H49.92v-61z" class="E" transform="matrix(.4697 0 0 .4682 .026 .221)"/></g><g fill="none" class="F" clip-path="url(#A)" transform="matrix(.4697 0 0 .4682 .026 .221)"><path d="M49.91 52.76h168.6v51.02c-43.95 52.89-71.73 113.9-74.31 187.4" class="C G"/><path d="M144.2 291.2H86.52c2.27-63.39 8.836-125.7 57.68-177.5H49.92v-61" class="B C"/></g><g fill="none" class="F" clip-path="url(#D)" transform="matrix(.4697 0 0 .4682 .026 .221)"><path d="M603.4 345.6V76.8H268.9V.02H.1" class="C G"/><path d="M0-.062v345.6h603.39" class="B C"/></g><g class="B"><path fill="#fff" d="M80.59-598.4h261.1v335.7H80.59z" transform="matrix(0 .4613 -.467 0 .737 2.591)"/><path d="M415.9 112.7v175.2h36.59V112.7zM285 113.794v39.94h56.56l-58.78 96.5v38.81h107.6v-38.81H321.6l71-100.9v-35.5H285zm200.7.063v176.2h39.94v-62.06h26.59c42.59-.146 43.72-115.5-2.25-114.2H485.7zm37.72 37.72h15.59c17.35-.595 17.71 38.94 0 36.5l-14.41 1.219-1.188-37.72z" class="E" transform="matrix(.467 0 0 .4613 .737 2.591)"/></g><g fill="none" class="F" clip-path="url(#C)" transform="matrix(.467 0 0 .4613 .737 2.591)"><path d="M452.5 287.9V112.7h-36.59M390.41 289v-38.81h-68.78l71-100.9v-35.5h-107.6m240.7 176.3v-62.06m26.59 0c42.59-.145 43.72-115.5-2.25-114.2h-64.28m53.31 74.22-14.41 1.219-1.188-37.72" class="C G"/><path d="M415.9 112.7v175.2h36.59m-167.5-174.2v39.94h56.56l-58.78 96.5v38.81h107.6m95.34-175.2v176.2h39.94m0-62.06h26.59m-28.81-76.44h15.59c17.35-.594 17.71 38.94 0 36.5" class="B C"/></g><g class="F" clip-path="url(#E)" transform="matrix(.467 0 0 .4613 .737 2.591)"><g fill="none"><path d="M80.59-598.4h261.1M80.59-262.7v-335.7" class="G" filter="url(#F)" transform="rotate(90)"/><path d="M341.7-598.4v335.7H80.6" class="B" filter="url(#F)" transform="rotate(90)"/></g></g></svg>