<?xml version="1.0" encoding="UTF-8" standalone="no"?>
<!-- Created with Inkscape (http://www.inkscape.org/) -->

<svg
   width="99.132973mm"
   height="99.032715mm"
   viewBox="0 0 99.132972 99.032715"
   version="1.1"
   id="svg1"
   xml:space="preserve"
   xmlns:xlink="http://www.w3.org/1999/xlink"
   xmlns="http://www.w3.org/2000/svg"
   xmlns:svg="http://www.w3.org/2000/svg"><defs
     id="defs1"><linearGradient
       id="linearGradient1"><stop
         style="stop-color:#0186f2;stop-opacity:1;"
         offset="0"
         id="stop3" /><stop
         style="stop-color:#01549c;stop-opacity:1;"
         offset="1"
         id="stop4" /></linearGradient><linearGradient
       xlink:href="#linearGradient1"
       id="linearGradient2"
       x1="81.964554"
       y1="99.033531"
       x2="126.65492"
       y2="197.96648"
       gradientUnits="userSpaceOnUse"
       gradientTransform="matrix(1.0000044,0,0,1.0010108,-55.433966,-99.133641)" /></defs><path
     id="path1"
     clip-path="none"
     style="display:inline;fill:url(#linearGradient2);fill-opacity:1;stroke:none;stroke-width:0.752775;stroke-linecap:round;stroke-linejoin:round"
     d="M 49.56648,0 A 49.566502,49.516468 0 0 0 0,49.516362 49.566502,49.516468 0 0 0 49.56648,99.032712 49.566502,49.516468 0 0 0 99.13297,49.516362 49.566502,49.516468 0 0 0 49.56648,0 Z M 28.130582,29.662792 h 4.450892 c 1.018262,0.0527 1.957141,0.34201 2.817399,0.86868 0.912926,0.5618 1.544879,1.378 1.896008,2.44894 0.316008,1.05338 0.351215,2.12475 0.10542,3.21324 l -1.791105,7.08433 c -0.298458,1.12359 -0.851224,2.20325 -1.658814,3.23908 -0.561798,0.68469 -1.193759,1.27213 -1.896008,1.76371 0.438904,0.47402 0.772226,1.04489 1.000456,1.71204 0.316012,1.03582 0.342929,2.10668 0.07958,3.21273 l -2.607076,10.42882 c -0.298458,1.1236 -0.869336,2.21153 -1.71204,3.26491 -0.8427,1.07093 -1.870085,1.89698 -3.081466,2.47634 -1.228942,0.59692 -2.404865,0.89452 -3.528466,0.89452 h -4.450891 c -1.053378,-0.0527 -2.001052,-0.35029 -2.843755,-0.89452 -0.930484,-0.57936 -1.562957,-1.40541 -1.896525,-2.47634 -0.280905,-1.05338 -0.298494,-2.14131 -0.05271,-3.26491 l 2.607593,-10.42882 c 0.316016,-1.10605 0.886895,-2.17691 1.71204,-3.21273 0.544246,-0.66715 1.158599,-1.23802 1.843299,-1.71204 -0.456468,-0.49158 -0.790296,-1.07902 -1.000973,-1.76371 -0.298457,-1.03583 -0.324855,-2.11549 -0.07906,-3.23908 l 1.791105,-7.08433 c 0.298455,-1.08849 0.860024,-2.15986 1.685169,-3.21324 0.877816,-1.07094 1.922275,-1.88714 3.133659,-2.44894 1.228942,-0.57936 2.38778,-0.86868 3.476273,-0.86868 z m 22.823928,0 h 4.45038 c 1.10605,0 2.1153,0.28932 3.02824,0.86868 0.91292,0.5618 1.54488,1.378 1.896,2.44894 0.31601,1.05338 0.35123,2.12475 0.10542,3.21324 l -1.79058,7.08433 c -0.316,1.1236 -0.86928,2.20325 -1.65933,3.23908 -0.56178,0.68468 -1.19375,1.27213 -1.89601,1.76371 0.43892,0.47402 0.77274,1.04489 1.00097,1.71204 0.31595,1.03583 0.34239,2.10669 0.0791,3.21273 l -2.60707,10.42882 c -0.29847,1.1236 -0.86934,2.21153 -1.71204,3.26491 -0.84271,1.07093 -1.86957,1.89698 -3.08095,2.47634 -1.22894,0.59692 -2.40537,0.89452 -3.52898,0.89452 h -4.450379 c -1.053377,-0.0527 -2.00157,-0.3503 -2.844271,-0.89452 -0.930486,-0.57936 -1.562437,-1.40541 -1.896008,-2.47634 -0.280899,-1.05338 -0.298494,-2.14131 -0.05271,-3.26491 l 2.659786,-10.6655 h 7.083802 l -2.791041,11.1926 c -0.05266,0.19311 -0.05266,0.40325 0,0.63148 0.08778,0.21068 0.219244,0.36858 0.394808,0.47388 0.158006,0.0878 0.482521,0.14938 0.974101,0.18448 0.491572,0 0.860602,-0.0616 1.106392,-0.18448 0.21067,-0.10533 0.41252,-0.2632 0.60565,-0.47388 0.15799,-0.22823 0.26314,-0.43837 0.31574,-0.63148 l 3.26595,-13.03642 c 0.0526,-0.19312 0.0526,-0.39497 0,-0.60565 -0.0527,-0.22822 -0.18466,-0.39441 -0.39532,-0.49971 -0.158,-0.0702 -0.49132,-0.10542 -1.00046,-0.10542 h -5.109248 l 0.816488,-3.26595 h 5.1878 c 0.47401,-0.0176 0.80785,-0.0704 1.00097,-0.15813 0.21067,-0.10534 0.42133,-0.27199 0.632,-0.50022 0.15801,-0.21068 0.25429,-0.41252 0.28939,-0.60565 l 2.42311,-9.66505 c 0.0526,-0.19311 0.0526,-0.39497 0,-0.60564 -0.0527,-0.22824 -0.17587,-0.39492 -0.36897,-0.50023 -0.19312,-0.10532 -0.53523,-0.15761 -1.02681,-0.15761 -0.49158,0.0176 -0.84301,0.0699 -1.05368,0.15761 -0.26335,0.10534 -0.474,0.27199 -0.63201,0.50023 -0.15801,0.21067 -0.26314,0.41253 -0.31574,0.60564 l -1.92236,7.66414 h -7.084326 l 1.81746,-7.18975 c 0.298458,-1.08849 0.860013,-2.15986 1.685169,-3.21324 0.877817,-1.07094 1.922267,-1.88714 3.133657,-2.44894 1.1236,-0.5267 2.21258,-0.81608 3.26595,-0.86868 z m 18.36684,0 h 3.40961 a 1.4345002,1.4345002 0 0 1 1.39165,1.7818 l -9.22166,36.91196 a 2.3523782,2.3523782 0 0 1 -2.28203,1.7818 h -3.41065 a 1.4344795,1.4344795 0 0 1 -1.39164,-1.7818 l 9.22269,-36.91196 a 2.3524122,2.3524122 0 0 1 2.28203,-1.7818 z m 12.24731,0 h 4.02198 a 1.1954168,1.1954168 0 0 1 1.15962,1.48518 l -9.36997,37.5052 a 1.9603153,1.9603153 0 0 1 -1.90221,1.48518 h -4.02249 a 1.1954006,1.1954006 0 0 1 -1.15962,-1.48518 l 9.37048,-37.5052 a 1.9603419,1.9603419 0 0 1 1.90221,-1.48518 z m -52.516687,4.79299 c -0.491572,0 -0.85129,0.0523 -1.07952,0.15761 -0.263345,0.10534 -0.473999,0.2725 -0.632003,0.50074 -0.158009,0.21067 -0.26358,0.41201 -0.31626,0.60513 l -2.211751,8.87492 c -0.05266,0.19313 -0.05266,0.39496 0,0.60564 0.08778,0.22823 0.21096,0.39545 0.368969,0.50075 0.175562,0.0877 0.517676,0.14053 1.026811,0.15813 0.509134,-0.0176 0.860566,-0.0704 1.053683,-0.15813 0.228232,-0.10533 0.438882,-0.27252 0.632002,-0.50075 0.158009,-0.21068 0.263073,-0.41251 0.315743,-0.60564 l 2.211752,-8.87492 c 0.05266,-0.19312 0.05266,-0.39446 0,-0.60513 -0.05266,-0.22824 -0.175331,-0.39543 -0.368453,-0.50074 -0.158009,-0.0877 -0.491835,-0.14001 -1.000973,-0.15761 z m -4.081921,16.2481 v 5.2e-4 c -0.491575,0 -0.841974,0.0352 -1.052649,0.10542 -0.263345,0.10534 -0.473999,0.27198 -0.632003,0.50022 -0.158009,0.21067 -0.264106,0.41202 -0.316776,0.60514 l -3.054078,12.24524 c -0.05266,0.19312 -0.05266,0.40429 0,0.63252 0.08778,0.21069 0.218729,0.36858 0.394292,0.47388 0.158006,0.0878 0.483559,0.14938 0.975134,0.18448 0.491575,0 0.859572,-0.0616 1.105359,-0.18448 0.210678,-0.10533 0.412529,-0.26319 0.605648,-0.47388 0.158006,-0.22823 0.263589,-0.4394 0.316259,-0.63252 l 3.054594,-12.24524 c 0.05266,-0.19312 0.05266,-0.39498 0,-0.60565 -0.05267,-0.22824 -0.175331,-0.39493 -0.368453,-0.50023 -0.158006,-0.0702 -0.491841,-0.10542 -1.000972,-0.10542 z" /></svg>
