<svg fill="none" xmlns="http://www.w3.org/2000/svg" viewBox="1.25 0.75 64.5 64.5">
<g filter="url(#filter0_d_214_21266)">
<rect x="1.5" y="1" width="64" height="64" rx="14.0625" fill="url(#paint0_linear_214_21266)"/>
<rect x="1.75" y="1.25" width="63.5" height="63.5" rx="13.8125" stroke="url(#paint1_linear_214_21266)" stroke-opacity="0.1" stroke-width="0.5"/>
<rect x="1.75" y="1.25" width="63.5" height="63.5" rx="13.8125" stroke="url(#paint2_linear_214_21266)" stroke-opacity="0.2" stroke-width="0.5"/>
<g style="mix-blend-mode:hard-light" filter="url(#filter1_ddiii_214_21266)">
<mask id="path-3-inside-1_214_21266" fill="white">
<path fill-rule="evenodd" clip-rule="evenodd" d="M30.2782 9.50771C29.4312 9.56693 28.7926 10.3016 28.8518 11.1486L29.1199 14.9818C27.1455 22.7583 19.3023 33.2599 14.7673 38.8685C13.5884 40.3265 14.7196 42.5634 16.5903 42.436L30.9718 41.4568L31.2271 45.1069L12.9043 46.3981C11.3949 46.5045 10.3722 47.9808 10.8035 49.4308L13.3569 55.9399C13.8354 55.9273 14.3771 55.9116 15.3428 55.5256C16.0738 55.2335 16.8378 54.7784 17.6113 54.3176L17.6114 54.3176C18.4111 53.8412 19.2208 53.3588 20.0145 53.0443C22.1086 52.2147 24.2614 52.2279 26.3473 53.0793C27.1577 53.4101 27.9752 53.9198 28.7661 54.4129L28.7661 54.4129C29.4624 54.847 30.1379 55.2682 30.7698 55.5431C32.2807 56.2004 33.8714 56.2052 35.3792 55.5431C36.0005 55.2703 36.6657 54.8534 37.3528 54.4228L37.3529 54.4227L37.3529 54.4227L37.353 54.4226C38.1446 53.9265 38.9652 53.4123 39.781 53.0793C41.8704 52.2264 44.0377 52.2137 46.1345 53.0443C46.9384 53.3629 47.7655 53.8537 48.5784 54.3361L48.5784 54.3361C49.2491 54.7342 49.91 55.1264 50.5402 55.4113L56.5464 47.2261C57.7381 45.602 56.4828 43.3271 54.4729 43.4687L34.2943 44.8907L34.0393 41.2449L40.4363 40.7977C52.172 39.7999 57.0287 25.6829 31.9275 11.0531L31.9192 10.9342C31.8599 10.0871 31.1253 9.4485 30.2782 9.50771ZM37.0591 26.8116C37.4979 33.0851 34.9897 36.1429 33.7599 37.2497L32.2 14.9484C33.6357 16.5467 36.623 20.5757 37.0591 26.8116Z"/>
</mask>
<path fill-rule="evenodd" clip-rule="evenodd" d="M30.2782 9.50771C29.4312 9.56693 28.7926 10.3016 28.8518 11.1486L29.1199 14.9818C27.1455 22.7583 19.3023 33.2599 14.7673 38.8685C13.5884 40.3265 14.7196 42.5634 16.5903 42.436L30.9718 41.4568L31.2271 45.1069L12.9043 46.3981C11.3949 46.5045 10.3722 47.9808 10.8035 49.4308L13.3569 55.9399C13.8354 55.9273 14.3771 55.9116 15.3428 55.5256C16.0738 55.2335 16.8378 54.7784 17.6113 54.3176L17.6114 54.3176C18.4111 53.8412 19.2208 53.3588 20.0145 53.0443C22.1086 52.2147 24.2614 52.2279 26.3473 53.0793C27.1577 53.4101 27.9752 53.9198 28.7661 54.4129L28.7661 54.4129C29.4624 54.847 30.1379 55.2682 30.7698 55.5431C32.2807 56.2004 33.8714 56.2052 35.3792 55.5431C36.0005 55.2703 36.6657 54.8534 37.3528 54.4228L37.3529 54.4227L37.3529 54.4227L37.353 54.4226C38.1446 53.9265 38.9652 53.4123 39.781 53.0793C41.8704 52.2264 44.0377 52.2137 46.1345 53.0443C46.9384 53.3629 47.7655 53.8537 48.5784 54.3361L48.5784 54.3361C49.2491 54.7342 49.91 55.1264 50.5402 55.4113L56.5464 47.2261C57.7381 45.602 56.4828 43.3271 54.4729 43.4687L34.2943 44.8907L34.0393 41.2449L40.4363 40.7977C52.172 39.7999 57.0287 25.6829 31.9275 11.0531L31.9192 10.9342C31.8599 10.0871 31.1253 9.4485 30.2782 9.50771ZM37.0591 26.8116C37.4979 33.0851 34.9897 36.1429 33.7599 37.2497L32.2 14.9484C33.6357 16.5467 36.623 20.5757 37.0591 26.8116Z" fill="url(#paint3_linear_214_21266)"/>
<path d="M28.8518 11.1486L28.7895 11.153V11.153L28.8518 11.1486ZM30.2782 9.50771L30.2739 9.44536L30.2782 9.50771ZM29.1199 14.9818L29.1805 14.9972L29.183 14.9875L29.1823 14.9774L29.1199 14.9818ZM14.7673 38.8685L14.7187 38.8292H14.7187L14.7673 38.8685ZM16.5903 42.436L16.5945 42.4983L16.5903 42.436ZM30.9718 41.4568L31.0341 41.4524L31.0298 41.3902L30.9675 41.3944L30.9718 41.4568ZM31.2271 45.1069L31.2315 45.1692L31.2938 45.1648L31.2895 45.1025L31.2271 45.1069ZM12.9043 46.3981L12.8999 46.3357L12.9043 46.3981ZM10.8035 49.4308L10.7434 49.4487L10.7453 49.4536L10.8035 49.4308ZM13.3569 55.9399L13.2987 55.9627L13.3147 56.0035L13.3586 56.0023L13.3569 55.9399ZM15.3428 55.5256L15.366 55.5837H15.366L15.3428 55.5256ZM17.6113 54.3176L17.6434 54.3713L17.646 54.3696L17.6113 54.3176ZM17.6114 54.3176L17.5793 54.2638L17.5767 54.2655L17.6114 54.3176ZM20.0145 53.0443L19.9915 52.9862L20.0145 53.0443ZM26.3473 53.0793L26.3236 53.1372L26.3473 53.0793ZM28.7661 54.4129L28.733 54.466L28.7351 54.4672L28.7661 54.4129ZM28.7661 54.4129L28.7992 54.3598L28.7971 54.3586L28.7661 54.4129ZM30.7698 55.5431L30.7449 55.6004L30.7698 55.5431ZM35.3792 55.5431L35.4043 55.6003L35.3792 55.5431ZM37.3528 54.4228L37.386 54.4757L37.3875 54.4748L37.3528 54.4228ZM37.353 54.4226L37.3198 54.3696L37.3184 54.3706L37.353 54.4226ZM39.781 53.0793L39.8046 53.1372H39.8046L39.781 53.0793ZM46.1345 53.0443L46.1575 52.9862L46.1345 53.0443ZM48.5784 54.3361L48.6131 54.284L48.6102 54.2823L48.5784 54.3361ZM48.5784 54.3361L48.5437 54.3882L48.5465 54.3899L48.5784 54.3361ZM50.5402 55.4113L50.5145 55.4683L50.5606 55.4891L50.5906 55.4483L50.5402 55.4113ZM56.5464 47.2261L56.5968 47.2631L56.5464 47.2261ZM54.4729 43.4687L54.4773 43.5311L54.4729 43.4687ZM34.2943 44.8907L34.232 44.8951L34.2364 44.9575L34.2987 44.9531L34.2943 44.8907ZM34.0393 41.2449L34.035 41.1826L33.9726 41.1869L33.977 41.2493L34.0393 41.2449ZM40.4363 40.7977L40.4406 40.8601L40.4416 40.86L40.4363 40.7977ZM31.9275 11.0531L31.8652 11.0575L31.8675 11.0905L31.896 11.1071L31.9275 11.0531ZM31.9192 10.9342L31.9815 10.9298V10.9298L31.9192 10.9342ZM33.7599 37.2497L33.6975 37.254L33.7065 37.3818L33.8017 37.2961L33.7599 37.2497ZM37.0591 26.8116L37.1215 26.8073L37.0591 26.8116ZM32.2 14.9484L32.2465 14.9066L32.1249 14.7713L32.1376 14.9527L32.2 14.9484ZM28.9142 11.1442C28.8573 10.3316 29.47 9.62687 30.2826 9.57006L30.2739 9.44536C29.3924 9.50698 28.7278 10.2715 28.7895 11.153L28.9142 11.1442ZM29.1823 14.9774L28.9142 11.1442L28.7895 11.153L29.0576 14.9862L29.1823 14.9774ZM29.0594 14.9664C28.0748 18.8445 25.625 23.407 22.8513 27.7042C20.0785 32.0002 16.9855 36.0259 14.7187 38.8292L14.8159 38.9078C17.0842 36.1026 20.1802 32.0731 22.9564 27.772C25.7317 23.4722 28.1907 18.8957 29.1805 14.9972L29.0594 14.9664ZM14.7187 38.8292C13.5067 40.3282 14.6676 42.6295 16.5945 42.4983L16.5861 42.3736C14.7716 42.4972 13.6702 40.3248 14.8159 38.9078L14.7187 38.8292ZM16.5945 42.4983L30.976 41.5191L30.9675 41.3944L16.5861 42.3736L16.5945 42.4983ZM31.2895 45.1025L31.0341 41.4524L30.9094 41.4611L31.1648 45.1112L31.2895 45.1025ZM12.9087 46.4604L31.2315 45.1692L31.2227 45.0445L12.8999 46.3357L12.9087 46.4604ZM10.8634 49.413C10.4435 48.0014 11.4391 46.564 12.9087 46.4604L12.8999 46.3357C11.3506 46.4449 10.3009 47.9603 10.7436 49.4486L10.8634 49.413ZM13.4151 55.917L10.8617 49.408L10.7453 49.4536L13.2987 55.9627L13.4151 55.917ZM15.3196 55.4676C14.3632 55.8498 13.8296 55.865 13.3553 55.8774L13.3586 56.0023C13.8412 55.9897 14.3909 55.9734 15.366 55.5837L15.3196 55.4676ZM17.5794 54.2639C16.8047 54.7253 16.0451 55.1777 15.3196 55.4676L15.366 55.5837C16.1024 55.2894 16.8709 54.8314 17.6433 54.3713L17.5794 54.2639ZM17.5767 54.2655L17.5767 54.2656L17.646 54.3696L17.646 54.3696L17.5767 54.2655ZM19.9915 52.9862C19.1923 53.3029 18.378 53.7881 17.5794 54.2639L17.6434 54.3712C18.4441 53.8942 19.2494 53.4147 20.0375 53.1024L19.9915 52.9862ZM26.3709 53.0214C24.2701 52.1639 22.1006 52.1507 19.9915 52.9862L20.0375 53.1024C22.1166 52.2788 24.2527 52.2918 26.3236 53.1372L26.3709 53.0214ZM28.7991 54.3599C28.0094 53.8674 27.1872 53.3546 26.3709 53.0214L26.3236 53.1372C27.1283 53.4656 27.9411 53.9722 28.733 54.4659L28.7991 54.3599ZM28.7971 54.3586L28.7971 54.3586L28.7351 54.4672L28.7351 54.4672L28.7971 54.3586ZM30.7947 55.4858C30.1679 55.2131 29.4965 54.7947 28.7992 54.3599L28.7331 54.466C29.4282 54.8994 30.1079 55.3233 30.7449 55.6004L30.7947 55.4858ZM35.3541 55.4859C33.8624 56.1409 32.2899 56.1362 30.7947 55.4858L30.7449 55.6004C32.2715 56.2646 33.8803 56.2695 35.4043 55.6003L35.3541 55.4859ZM37.3196 54.3698C36.6314 54.8011 35.9703 55.2153 35.3541 55.4859L35.4043 55.6003C36.0307 55.3253 36.7 54.9056 37.386 54.4757L37.3196 54.3698ZM37.3182 54.3707L37.3181 54.3708L37.3875 54.4748L37.3875 54.4747L37.3182 54.3707ZM37.3183 54.3707L37.3182 54.3707L37.3875 54.4747L37.3876 54.4747L37.3183 54.3707ZM37.3184 54.3706L37.3183 54.3707L37.3876 54.4747L37.3877 54.4746L37.3184 54.3706ZM39.7573 53.0214C38.9356 53.3568 38.1103 53.8742 37.3198 54.3697L37.3862 54.4756C38.1788 53.9788 38.9947 53.4677 39.8046 53.1372L39.7573 53.0214ZM46.1575 52.9862C44.0457 52.1496 41.8616 52.1625 39.7573 53.0214L39.8046 53.1372C41.8791 52.2904 44.0297 52.2777 46.1114 53.1024L46.1575 52.9862ZM48.6102 54.2823C47.7985 53.8006 46.9669 53.3069 46.1575 52.9862L46.1114 53.1024C46.9099 53.4188 47.7326 53.9068 48.5465 54.3898L48.6102 54.2823ZM48.6131 54.2841L48.613 54.2841L48.5437 54.3881L48.5437 54.3881L48.6131 54.2841ZM50.566 55.3543C49.9395 55.0712 49.2817 54.6809 48.6103 54.2824L48.5465 54.3899C49.2164 54.7875 49.8805 55.1817 50.5145 55.4683L50.566 55.3543ZM56.496 47.1891L50.4898 55.3743L50.5906 55.4483L56.5968 47.2631L56.496 47.1891ZM54.4773 43.5311C56.4341 43.3932 57.6562 45.608 56.496 47.1891L56.5968 47.2631C57.82 45.596 56.5314 43.261 54.4685 43.4064L54.4773 43.5311ZM34.2987 44.9531L54.4773 43.5311L54.4685 43.4064L34.29 44.8284L34.2987 44.9531ZM33.977 41.2493L34.232 44.8951L34.3567 44.8864L34.1017 41.2406L33.977 41.2493ZM40.4319 40.7354L34.035 41.1826L34.0437 41.3073L40.4406 40.8601L40.4319 40.7354ZM31.896 11.1071C44.4421 18.4194 49.4796 25.5917 49.9335 31.0426C50.1602 33.7657 49.2439 36.0628 47.5437 37.742C45.8426 39.4222 43.3533 40.487 40.431 40.7355L40.4416 40.86C43.3871 40.6096 45.9058 39.5355 47.6316 37.831C49.3583 36.1255 50.2878 33.7919 50.058 31.0322C49.5989 25.5178 44.5141 18.3167 31.959 10.9991L31.896 11.1071ZM31.8568 10.9385L31.8652 11.0575L31.9899 11.0488L31.9815 10.9298L31.8568 10.9385ZM30.2826 9.57006C31.0952 9.51325 31.8 10.1259 31.8568 10.9385L31.9815 10.9298C31.9199 10.0484 31.1553 9.38374 30.2739 9.44536L30.2826 9.57006ZM33.8017 37.2961C35.0443 36.1779 37.5618 33.102 37.1215 26.8073L36.9968 26.816C37.4341 33.0683 34.9352 36.1079 33.7181 37.2032L33.8017 37.2961ZM32.1376 14.9527L33.6975 37.254L33.8222 37.2453L32.2623 14.944L32.1376 14.9527ZM37.1215 26.8073C36.684 20.5528 33.6878 16.5111 32.2465 14.9066L32.1535 14.9901C33.5835 16.5822 36.5619 20.5986 36.9968 26.816L37.1215 26.8073Z" fill="white" style="mix-blend-mode:overlay" mask="url(#path-3-inside-1_214_21266)"/>
</g>
</g>
<defs>
<filter id="filter0_d_214_21266" x="0.5" y="0" width="66" height="66" filterUnits="userSpaceOnUse" color-interpolation-filters="sRGB">
<feFlood flood-opacity="0" result="BackgroundImageFix"/>
<feColorMatrix in="SourceAlpha" type="matrix" values="0 0 0 0 0 0 0 0 0 0 0 0 0 0 0 0 0 0 127 0" result="hardAlpha"/>
<feOffset/>
<feGaussianBlur stdDeviation="0.5"/>
<feComposite in2="hardAlpha" operator="out"/>
<feColorMatrix type="matrix" values="0 0 0 0 0 0 0 0 0 0 0 0 0 0 0 0 0 0 0.25 0"/>
<feBlend mode="normal" in2="BackgroundImageFix" result="effect1_dropShadow_214_21266"/>
<feBlend mode="normal" in="SourceGraphic" in2="effect1_dropShadow_214_21266" result="shape"/>
</filter>
<filter id="filter1_ddiii_214_21266" x="6.64886" y="5.44867" width="54.4161" height="54.6447" filterUnits="userSpaceOnUse" color-interpolation-filters="sRGB">
<feFlood flood-opacity="0" result="BackgroundImageFix"/>
<feColorMatrix in="SourceAlpha" type="matrix" values="0 0 0 0 0 0 0 0 0 0 0 0 0 0 0 0 0 0 127 0" result="hardAlpha"/>
<feOffset dy="0.675874"/>
<feGaussianBlur stdDeviation="0.675874"/>
<feColorMatrix type="matrix" values="0 0 0 0 0 0 0 0 0 0 0 0 0 0 0 0 0 0 0.2 0"/>
<feBlend mode="normal" in2="BackgroundImageFix" result="effect1_dropShadow_214_21266"/>
<feColorMatrix in="SourceAlpha" type="matrix" values="0 0 0 0 0 0 0 0 0 0 0 0 0 0 0 0 0 0 127 0" result="hardAlpha"/>
<feOffset/>
<feGaussianBlur stdDeviation="2.02762"/>
<feColorMatrix type="matrix" values="0 0 0 0 0.117647 0 0 0 0 0.243137 0 0 0 0 0.494118 0 0 0 0.2 0"/>
<feBlend mode="normal" in2="effect1_dropShadow_214_21266" result="effect2_dropShadow_214_21266"/>
<feBlend mode="normal" in="SourceGraphic" in2="effect2_dropShadow_214_21266" result="shape"/>
<feColorMatrix in="SourceAlpha" type="matrix" values="0 0 0 0 0 0 0 0 0 0 0 0 0 0 0 0 0 0 127 0" result="hardAlpha"/>
<feOffset/>
<feGaussianBlur stdDeviation="1.35175"/>
<feComposite in2="hardAlpha" operator="arithmetic" k2="-1" k3="1"/>
<feColorMatrix type="matrix" values="0 0 0 0 1 0 0 0 0 1 0 0 0 0 1 0 0 0 0.25 0"/>
<feBlend mode="normal" in2="shape" result="effect3_innerShadow_214_21266"/>
<feColorMatrix in="SourceAlpha" type="matrix" values="0 0 0 0 0 0 0 0 0 0 0 0 0 0 0 0 0 0 127 0" result="hardAlpha"/>
<feOffset dy="0.675874"/>
<feGaussianBlur stdDeviation="0.337937"/>
<feComposite in2="hardAlpha" operator="arithmetic" k2="-1" k3="1"/>
<feColorMatrix type="matrix" values="0 0 0 0 1 0 0 0 0 1 0 0 0 0 1 0 0 0 0.35 0"/>
<feBlend mode="normal" in2="effect3_innerShadow_214_21266" result="effect4_innerShadow_214_21266"/>
<feColorMatrix in="SourceAlpha" type="matrix" values="0 0 0 0 0 0 0 0 0 0 0 0 0 0 0 0 0 0 127 0" result="hardAlpha"/>
<feOffset dy="-0.588125"/>
<feGaussianBlur stdDeviation="0.525312"/>
<feComposite in2="hardAlpha" operator="arithmetic" k2="-1" k3="1"/>
<feColorMatrix type="matrix" values="0 0 0 0 0 0 0 0 0 0 0 0 0 0 0 0 0 0 0.2 0"/>
<feBlend mode="normal" in2="effect4_innerShadow_214_21266" result="effect5_innerShadow_214_21266"/>
</filter>
<linearGradient id="paint0_linear_214_21266" x1="33.5" y1="1" x2="33.5" y2="65" gradientUnits="userSpaceOnUse">
<stop stop-color="#0181EA"/>
<stop offset="1" stop-color="#52D1FA"/>
</linearGradient>
<linearGradient id="paint1_linear_214_21266" x1="33.5" y1="1" x2="33.5" y2="65" gradientUnits="userSpaceOnUse">
<stop stop-opacity="0"/>
<stop offset="1"/>
</linearGradient>
<linearGradient id="paint2_linear_214_21266" x1="33.5" y1="1" x2="33.5" y2="11.375" gradientUnits="userSpaceOnUse">
<stop stop-color="white"/>
<stop offset="1" stop-color="white" stop-opacity="0"/>
</linearGradient>
<linearGradient id="paint3_linear_214_21266" x1="31.501" y1="9.49121" x2="33.876" y2="41.0225" gradientUnits="userSpaceOnUse">
<stop stop-color="white"/>
<stop offset="1" stop-color="white" stop-opacity="0.8"/>
</linearGradient>
</defs>
</svg>