<svg xmlns="http://www.w3.org/2000/svg" fill="none" class="cursor-pointer" viewBox="0 0.89 300 52.77"><path d="M7.55552 20.4268L0 53.6441H14.1096L21.7443 20.4268C22.4911 17.6797 25.6276 12.1855 32.1992 12.1855C38.7709 12.1855 40.8268 15.9315 40.08 20.4268L38.4469 27.9225H30.3719L19.3371 39.4091H35.8209L32.7124 53.6441H47.3017C48.7953 46.6515 52.8981 29.4172 54.6904 20.4268C56.9307 9.18864 48.6284 0.198154 30.7057 0.947361C16.3675 1.54673 9.04908 12.9347 7.55552 20.4268Z" fill="#2BABE4"/><path d="M84.8202 15.9247H100.641L97.8823 28.1164C97.8823 28.1164 85.5469 27.8889 81.614 28.3098C77.6812 28.7308 73.5974 31.196 73.0187 34.8678C72.44 38.5396 74.7711 41.6131 78.154 41.6131H94.8724L92.1977 53.644H75.8136C66.9312 53.644 58.5223 45.6455 59.6927 36.2999C61.1841 24.3897 72.4659 15.9247 84.8202 15.9247Z" fill="#2BABE4"/><path d="M105.34 34.9513L113.123 0.903702H127.81C127.81 0.903702 127.011 4.4086 125.843 9.4156C125.297 11.7523 124.849 13.2421 125.175 14.2557C125.548 15.414 126.822 15.9247 128.228 15.9247H134.987L132.15 28.1918H121.635L120.361 33.9499C118.844 41.5438 125.035 41.7107 129.124 41.7107L126.392 53.6441C126.392 53.6441 117.954 53.6441 115.354 53.0599C106.175 50.9971 104.005 40.5146 105.34 34.9513Z" fill="#2BABE4"/><path d="M135.523 53.6441L144.034 16.0081H158.722L150.21 53.6441H135.523Z" fill="#2BABE4"/><path d="M159.501 12.8565L147.539 0.903702H162.227L159.501 12.8565Z" fill="#2BABE4"/><path fill-rule="evenodd" clip-rule="evenodd" d="M191.044 52.6997C204.199 49.4747 212.862 38.8367 210.392 28.939C207.923 19.0414 195.256 13.6321 182.101 16.8572C168.946 20.0822 160.283 30.7202 162.753 40.6178C165.222 50.5155 177.889 55.9248 191.044 52.6997ZM188.141 41.4637C193.502 40.1496 197.121 36.173 196.225 32.5816C195.329 28.9903 190.257 27.1442 184.897 28.4583C179.536 29.7724 175.917 33.749 176.813 37.3403C177.709 40.9317 182.781 42.7777 188.141 41.4637Z" fill="#2BABE4"/><path d="M219.223 32.7988C218.168 36.0361 214.299 53.5898 214.299 53.5898H229.988L233.493 38.235C233.493 38.235 235.162 27.4653 245.343 28.1376C254.188 28.4422 252.352 37.2629 252.186 38.235C252.019 39.2072 248.597 53.5898 248.597 53.5898H264.202C264.202 53.5898 268.19 37.7051 268.19 34.1168C268.19 23.9032 262.533 16.3945 246.761 15.9247C230.989 15.4549 221.59 25.5344 219.223 32.7988Z" fill="#2BABE4"/><path d="M288.059 53.6441L300 0.886719H279.01L272.145 12.837H278.483C281.402 12.837 281.859 15.1296 281.409 17.2285L273.463 53.6603L288.059 53.6441Z" fill="#2BABE4"/></svg>