<svg xmlns="http://www.w3.org/2000/svg" xml:space="preserve" id="Layer_1" x="0" y="0" version="1.1" viewBox="0 0 512 512"><style>.st1{fill:#fff}</style><path d="M378.5 512h-245C59.8 512 0 452.2 0 378.5v-245C0 59.8 59.8 0 133.5 0h245C452.2 0 512 59.8 512 133.5v245c0 73.7-59.8 133.5-133.5 133.5" style="fill:#805ad5"/><path d="M112.2 405.6 256.5 99.2c.6-1.2 1.7-1.9 3-1.9h6.3c1.3 0 2.4.7 3 1.9L362 290.3l29.2-11.2c1.7-.7 3.7.2 4.3 1.9l7.8 20.2c.7 1.7-.2 3.7-1.9 4.3l-26.9 10.4 33.2 68.2c.8 1.7.1 3.7-1.5 4.5l-19.5 9.5c-1.7.8-3.7.1-4.5-1.6l-34.3-70.4-229.8 88.3c-1.7.7-3.7-.2-4.3-1.9v-.1l-1.6-4.3c-.4-.8-.3-1.7 0-2.5M263 151.8 161.5 367.4l173.8-66.8z" class="st1"/><path d="m328 239.8 9.7 26.6L116 347.7c-1.7.6-3.7-.2-4.3-2l-7.4-20.3c-.6-1.7.2-3.7 2-4.3z" class="st1"/></svg>