<svg xmlns="http://www.w3.org/2000/svg" id="Layer_1" data-name="Layer 1" viewBox="-0.06 0.04 120.3 89.84"><defs><style>.cls-1{fill:#00174a;}</style></defs><path class="cls-1" d="M260.25,450.75c-4.65,2.7-10.29,7-16.31,1.93-5.68-4.76-8.45-23.13-8.45-23.13s10.21-17.79,13.34-27.87c3.73-12,4.6-22.24,1.93-22.83-1.24-.28-5.17-.08-7.56-.15-5.19-.15-2.59,8.85-3.56,18.38a56.05,56.05,0,0,1-6.78,21.05,92.48,92.48,0,0,0-4-13c-2.38-5.64-8.16-28.65-34.84-29.44-5.86-.17-14.53.68-22.54,6.46-10.22,7.38-16.21,18.68-17.93,26.39-.26,1.15-.53,2.63-.77,4.33h-.16a5.12,5.12,0,0,0-4,1.1c-2.06,1.86-2.81,7-2.81,7H152c-.06,2-.06,4.07,0,6.22h-1.52a5.11,5.11,0,0,0-4,1.09c-2.06,1.87-2.81,7-2.81,7H153a37.38,37.38,0,0,0,6.3,15.63c11.72,15.71,24.81,14.68,29.09,14.53s14.44.34,25.18-9.05c8.46-7.39,9.63-9.63,9.63-9.63s3,8,6.11,12c2.65,3.39,6.64,6.44,14.06,6.71,0,0,7.13-.32,11.27-3s9.26-5.75,9.33-9.63C264,450.31,261.68,449.92,260.25,450.75Zm-52.06.55c-7.69,5.76-26.82,11.31-33.91-4.11a45.21,45.21,0,0,1-3.42-11.92l9.82,0a5.08,5.08,0,0,0,4-1.1c2.06-1.86,2.81-7,2.81-7H170.12c-.08-2.09-.06-4.17,0-6.2h14.7a5.12,5.12,0,0,0,4-1.1c2.06-1.86,2.81-7,2.81-7H170.83c.91-7.73,7-33.38,25.81-31,7.26.91,11.89,2.73,17.65,29.5,3,14,3,14,5.11,24.5.43,2.12.82,3.78.82,3.78S213.36,447.44,208.19,451.3Z" transform="translate(-143.73 -375.63)"/></svg>