<svg xmlns="http://www.w3.org/2000/svg" xmlns:svg="http://www.w3.org/2000/svg" version="1.1" id="svg1" xml:space="preserve" viewBox="0 0 266.38 260.88"><defs id="defs1"/><g id="g1" transform="translate(222.57003,-465.70935)"><path style="fill:#f97316;fill-opacity:1;stroke-width:0.379386" d="m -66.271752,726.20693 c -4.404304,-1.31967 -4.87819,-3.04998 -4.875074,-17.80058 0.0039,-16.30591 1.359678,-18.57234 13.382519,-22.36392 40.478924,-12.76561 70.419572,-52.09145 75.704871,-99.43533 4.563017,-40.87401 -15.3315041,-81.8028 -51.624217,-106.20597 -7.913059,-5.32072 -4.795538,-5.78139 5.263143,-0.77773 87.423668,43.48869 97.632065,163.94288 18.8761527,222.72949 -19.7776047,14.7628 -47.7759187,26.53618 -56.7273947,23.85404 z M -208.23433,660.13211 c -3.25047,-1.3237 -6.63781,-9.01526 -11.10524,-25.21648 -3.11734,-11.30509 -2.1905,-12.72532 8.76952,-13.43791 66.03972,-4.29373 121.914827,-66.86213 123.068324,-137.81074 0.280988,-17.28236 0.540947,-17.95763 6.91311,-17.95763 18.945262,0 41.285587,15.76577 57.765956,40.76596 32.0385693,48.60144 14.9369107,116.13569 -35.919402,141.8453 -12.375588,6.25629 -16.335375,0.83412 -15.823516,-21.66729 0.315746,-13.88003 0.124517,-13.35811 6.074116,-16.57835 43.306448,-23.43981 46.995257,-97.6705 6.516574,-131.13462 -8.664545,-7.16306 -9.734069,-6.75582 -7.964138,3.03248 11.235004,62.13324 -17.293964,123.79876 -71.270404,154.05135 -22.6655,12.70352 -61.09071,26.52453 -67.0249,24.10793 z m -12.6462,-71.08536 c -3.16949,-2.16263 -1.92667,-11.65535 4.12747,-31.52592 14.28051,-46.87069 54.59144,-82.22957 102.6271,-90.01972 14.549058,-2.35948 15.636288,-0.43411 10.69978,18.94802 -9.3165,36.57925 -28.12252,64.13679 -57.001,83.52684 -18.12201,12.16775 -53.98816,23.4822 -60.45335,19.07078 z" id="path1"/></g></svg>