<svg xmlns="http://www.w3.org/2000/svg" viewBox="344.42 285.18 1201.81 489.75">
  <defs>
    <style>
      .cls-1 {
        fill: #00a4eb;
      }

      .cls-2 {
        fill: #fff;
      }

      .cls-3 {
        fill: #002f6c;
      }
    </style>
  </defs>
  <g id="Layer_1" data-name="Layer 1">
    
  </g>
  <g id="Blue_on_white" data-name="Blue on white">
    <g>
      <g>
        <path class="cls-1" d="M592.85,764.11c-100.8-30.77-174.12-123.92-174.12-234.05s74.88-205.29,177.4-235.02c10.48-3.06,7.73-9.86-4.91-9.86-136.28,0-246.8,109.69-246.8,244.89s110.51,244.86,246.8,244.86c12.63,0,13.14-7.3,1.63-10.81Z"/>
        <path class="cls-1" d="M465.48,587.42c-.68-6.58-1.01-13.23-1.01-19.94,0-107.36,87.05-194.39,194.43-194.39,101.52,0,132,45.31,135.78,42.35,4.12-3.26-36.84-93.07-156.05-93.07-107.39,0-194.44,87.03-194.44,194.39,0,24.84,4.65,48.52,13.13,70.31,3.58,9.14,9.08,9.22,8.17.35Z"/>
        <path class="cls-1" d="M546.92,447.31c50.53-22.03,114.01-22.7,176.42-.89,41.91,14.62,66.2,35.5,68.19,34.64,3.31-1.43-24.38-45.28-74.36-64.24-60.51-22.93-125.69-10.93-173.18,26.32-5.22,4.11-3.25,6.87,2.93,4.17Z"/>
      </g>
      <g>
        <path class="cls-1" d="M1546.23,538.76c0,14.11-11.44,25.52-25.51,25.52s-25.52-11.41-25.52-25.52,11.42-25.49,25.52-25.49,25.51,11.42,25.51,25.49Z"/>
        <g>
          <path class="cls-3" d="M710.44,643.53h-49.24l42.38-85.89h.49l6.37,85.89h0ZM712.82,682.16l3.01,34.07h53.95l-18.16-198.26h-80.34l-101.57,198.26h54.96l17.05-34.07h71.11Z"/>
          <polygon class="cls-3" points="845 629.54 852.9 629.54 891.51 577.43 941.5 577.43 888.16 644.07 920.88 716.23 867.8 716.23 846.48 659.89 838.53 659.89 826.53 716.23 781.12 716.23 823.22 517.97 868.71 517.97 845 629.54 845 629.54"/>
          <path class="cls-3" d="M999.69,658.87c14.82,0,24.6,1.02,22.14,12.67-3.12,14.53-9.4,16.95-28.43,16.95-6.93,0-19.8,0-16.63-15.07,2.71-12.75,11.76-14.54,22.91-14.54h0ZM1012.36,716.23h45.45l18.42-86.69c10.1-47.88-8.21-53.69-54.69-53.69-32.46,0-63.87-.28-73.07,42.83h45.5c2.58-12.46,10.28-15.04,21.68-15.04,19.78,0,18.91,8.21,16.11,21.09l-4.62,21.99h-2.11c-1.72-15.87-21.61-15.64-34.52-15.64-32.82,0-52.37,10.32-59.51,43.67-7.49,35.37,9.36,43.06,41.06,43.06,15.9,0,37.15-3.14,44.66-22.26h1.56l-5.92,20.68h0Z"/>
          <path class="cls-3" d="M1149.57,577.43l-4.16,19.56h1.86c9.02-16.39,26.97-21.14,42.55-21.14,19.58,0,38.9,3.41,36.21,27.24h2.12c6.66-19.79,26.94-27.24,44.39-27.24,32.03,0,45.59,13.23,38.75,45.53l-20.23,94.86h-45.42l17.1-80.38c2.23-14.48,4.82-25.1-12.92-25.1s-23.62,11.8-26.77,26.67l-16.78,78.81h-45.45l17.87-84.06c2.19-12.71,3.23-21.42-12.63-21.42-18.77,0-24.34,10.05-27.8,26.67l-16.82,78.81h-45.47l29.57-138.8h44.06Z"/>
          <path class="cls-3" d="M1382.84,658.87c14.72,0,24.57,1.02,22.13,12.67-3.06,14.53-9.38,16.95-28.47,16.95-6.88,0-19.82,0-16.62-15.07,2.72-12.75,11.8-14.54,22.95-14.54h0ZM1395.43,716.23h45.45l18.44-86.69c10.15-47.88-8.11-53.69-54.6-53.69-32.59,0-64.04-.28-73.11,42.83h45.49c2.58-12.46,10.36-15.04,21.6-15.04,19.88,0,18.89,8.21,16.28,21.09l-4.74,21.99h-2.12c-1.7-15.87-21.56-15.64-34.47-15.64-32.79,0-52.43,10.32-59.5,43.67-7.5,35.37,9.34,43.06,41.06,43.06,15.88,0,37.14-3.14,44.68-22.26h1.56l-5.99,20.68h0Z"/>
          <path class="cls-3" d="M1506.4,716.23h-45.39l29.41-138.8h45.5l-29.53,138.8h0Z"/>
        </g>
      </g>
    </g>
  </g>
</svg>