<svg viewBox="0 0 512 512" version="1.1" xmlns="http://www.w3.org/2000/svg" xml:space="preserve">
    <path d="M256,0C114.6,0 0,114.6 0,256C0,397.4 114.6,512 256,512C397.4,512 512,397.4 512,256C512,114.6 397.4,0 256,0" style="fill:white"/>
    <path d="M256,479.1C215.8,479.1 183.2,452.2 183.2,419.1L328.9,419.1C328.8,452.2 296.2,479.1 256,479.1M376.3,399.2L135.7,399.2L135.7,355.6L376.3,355.6L376.3,399.2ZM375.4,333.2L136.4,333.2C135.6,332.3 134.8,331.4 134,330.4C109.4,300.5 103.6,284.9 97.9,269C97.8,268.5 127.8,275.1 149,279.9C149,279.9 159.9,282.4 175.9,285.3C160.6,267.3 151.4,244.4 151.4,221.1C151.4,169.8 190.8,124.9 176.6,88.7C190.4,89.8 205.2,117.9 206.2,161.7C220.9,141.4 227,104.3 227,81.6C227,58.1 242.5,30.7 258,29.8C244.2,52.6 261.6,72.1 277.1,120.6C282.9,138.8 282.2,169.4 286.6,188.9C288.1,148.5 295,89.7 320.6,69.3C309.3,94.9 322.3,126.9 331.1,142.3C345.4,167.1 354.1,186 354.1,221.6C354.1,245.5 345.3,267.9 330.4,285.5C347.3,282.3 359,279.5 359,279.5L413.9,268.8C414.1,268.8 406.1,301.6 375.4,333.2" style="fill:#e6522c"/>
</svg>
