<svg xmlns="http://www.w3.org/2000/svg" xml:space="preserve" id="Livello_1" x="0" y="0" version="1.1" viewBox="0 0 512 512"><style>.st2{fill:#b72025}</style><path d="M469.3 470.8H42.7C18.5 470.8 0 452.3 0 428.1V42.7C0 18.5 18.5 0 42.7 0h426.7C493.5 0 512 18.5 512 42.7v385.4c0 22.7-18.5 42.7-42.7 42.7" style="fill:#f78f1e"/><path d="M469.3 512H42.7C18.5 512 0 493.5 0 469.3V113.8c0-24.2 18.5-42.7 42.7-42.7h426.7c24.2 0 42.7 18.5 42.7 42.7v355.6c-.1 24.1-18.6 42.6-42.8 42.6" style="fill:#dc3326"/><circle cx="128" cy="156.4" r="28.4" class="st2"/><circle cx="384" cy="156.4" r="28.4" class="st2"/><path d="M256 298.7c-78.2 0-142.2-64-142.2-142.2 0-8.5 5.7-14.2 14.2-14.2s14.2 5.7 14.2 14.2c0 62.6 51.2 113.8 113.8 113.8S369.8 219 369.8 156.4c0-8.5 5.7-14.2 14.2-14.2s14.2 5.7 14.2 14.2c0 78.3-64 142.3-142.2 142.3" style="fill:#fff"/></svg>