<svg xmlns="http://www.w3.org/2000/svg" xml:space="preserve" id="Layer_1" x="0" y="0" version="1.1" viewBox="0 0 512 512"><style>.st0{fill:#f90}.st1{fill-rule:evenodd;clip-rule:evenodd}</style><path fill="#fff" d="M443.4 421.5C232.1 522 100.9 437.9 16.9 386.8c-5.2-3.2-14 .8-6.4 9.6C38.6 430.3 130.2 512 249.9 512s191-65.3 199.9-76.7c8.8-11.3 2.5-17.6-6.4-13.8m59.3-32.8c-5.7-7.4-34.5-8.8-52.7-6.5-18.2 2.2-45.5 13.3-43.1 19.9 1.2 2.5 3.7 1.4 16.2.3 12.5-1.2 47.6-5.7 54.9 3.9s-11.2 55.4-14.6 62.8c-3.3 7.4 1.2 9.3 7.4 4.4 6.1-4.9 17-17.7 24.4-35.7 7.4-18.2 11.8-43.5 7.5-49.1" class="st0"/><path fill="#fff" d="M301.3 216.3c0 26.4.7 48.4-12.7 71.8-10.8 19.1-27.8 30.8-46.9 30.8-26 0-41.2-19.8-41.2-49.1 0-57.7 51.7-68.2 100.7-68.2v14.7zm68.3 165.1c-4.5 4-11 4.3-16 1.6-22.5-18.7-26.5-27.3-38.9-45.2-37.2 37.9-63.4 49.3-111.7 49.3-57 0-101.4-35.2-101.4-105.6 0-55 29.8-92.4 72.2-110.7 36.8-16.2 88.1-19.1 127.4-23.5v-8.8c0-16.1 1.2-35.2-8.2-49.1-8.3-12.5-24.1-17.6-38-17.6-25.8 0-48.9 13.2-54.5 40.7-1.1 6.1-5.6 12.1-11.7 12.4l-65.7-7c-5.5-1.2-11.6-5.7-10.1-14.2C128.2 24 200.1 0 264.5 0c33 0 76 8.8 102 33.7 33 30.8 29.8 71.8 29.8 116.5v105.6c0 31.7 13.1 45.6 25.5 62.8 4.4 6.1 5.3 13.4-.2 18-13.8 11.5-38.4 33-51.9 45z" class="st1"/><path fill="#fff" d="M443.4 421.5C232.1 522 100.9 437.9 16.9 386.8c-5.2-3.2-14 .8-6.4 9.6C38.6 430.3 130.2 512 249.9 512s191-65.3 199.9-76.7c8.8-11.3 2.5-17.6-6.4-13.8m59.3-32.8c-5.7-7.4-34.5-8.8-52.7-6.5-18.2 2.2-45.5 13.3-43.1 19.9 1.2 2.5 3.7 1.4 16.2.3 12.5-1.2 47.6-5.7 54.9 3.9s-11.2 55.4-14.6 62.8c-3.3 7.4 1.2 9.3 7.4 4.4 6.1-4.9 17-17.7 24.4-35.7 7.4-18.2 11.8-43.5 7.5-49.1" class="st0"/><path fill="#fff" d="M301.3 216.3c0 26.4.7 48.4-12.7 71.8-10.8 19.1-27.8 30.8-46.9 30.8-26 0-41.2-19.8-41.2-49.1 0-57.7 51.7-68.2 100.7-68.2v14.7zm68.3 165.1c-4.5 4-11 4.3-16 1.6-22.5-18.7-26.5-27.3-38.9-45.2-37.2 37.9-63.4 49.3-111.7 49.3-57 0-101.4-35.2-101.4-105.6 0-55 29.8-92.4 72.2-110.7 36.8-16.2 88.1-19.1 127.4-23.5v-8.8c0-16.1 1.2-35.2-8.2-49.1-8.3-12.5-24.1-17.6-38-17.6-25.8 0-48.9 13.2-54.5 40.7-1.1 6.1-5.6 12.1-11.7 12.4l-65.7-7c-5.5-1.2-11.6-5.7-10.1-14.2C128.2 24 200.1 0 264.5 0c33 0 76 8.8 102 33.7 33 30.8 29.8 71.8 29.8 116.5v105.6c0 31.7 13.1 45.6 25.5 62.8 4.4 6.1 5.3 13.4-.2 18-13.8 11.5-38.4 33-51.9 45z" class="st1"/></svg>