<svg xmlns="http://www.w3.org/2000/svg" version="1.1" viewBox="1 26.61 511 458.78">
<path d="M0 0 C1.17235907 -0.00384115 2.34471814 -0.00768229 3.55260324 -0.01163983 C5.47849354 -0.01034011 5.47849354 -0.01034011 7.44329071 -0.00901413 C8.82427475 -0.01159881 10.20525804 -0.01461226 11.58624029 -0.01801753 C15.38077813 -0.02607897 19.17529705 -0.02787663 22.96984243 -0.028615 C27.06275279 -0.0304671 31.15565336 -0.03801534 35.24855804 -0.04475021 C44.19926125 -0.05832907 53.14995998 -0.06435786 62.10067177 -0.06876087 C67.69210785 -0.07152466 73.2835422 -0.07576232 78.87497711 -0.08026505 C94.36252229 -0.09245828 109.85006609 -0.10275674 125.33761597 -0.10614014 C126.32878743 -0.1063597 127.3199589 -0.10657927 128.34116587 -0.10680549 C129.33468692 -0.10702377 130.32820798 -0.10724204 131.35183573 -0.10746694 C133.36502743 -0.1079104 135.37821913 -0.10835696 137.39141083 -0.10880661 C138.88932436 -0.10913875 138.88932436 -0.10913875 140.41749877 -0.10947761 C156.58766859 -0.11342308 172.75779328 -0.13086918 188.92794567 -0.15416613 C205.53822081 -0.1779035 222.14847333 -0.19034311 238.7587657 -0.19150805 C248.08124976 -0.1924236 257.40367505 -0.19814524 266.72614288 -0.21632767 C274.66702862 -0.23176102 282.60783743 -0.23683016 290.54873532 -0.22858956 C294.59692123 -0.22469418 298.64495238 -0.22555792 302.69311905 -0.23964691 C306.40687182 -0.2524532 310.12035459 -0.25112994 313.83410734 -0.2390562 C315.79765723 -0.23619665 317.76121208 -0.24798392 319.72472429 -0.26047826 C340.45864831 -0.14597028 356.90955016 7.17052497 371.86113739 21.31892776 C378.41280289 28.03954739 383.08965699 35.69932894 387.17363739 44.13142776 C394.88213602 40.01737381 394.88213602 40.01737381 402.36113739 35.50642776 C407.05359551 32.51329605 411.88564316 29.89409251 417.17363739 28.13142776 C415.32558905 38.36330519 401.93094234 47.56775404 393.98613739 53.25642776 C393.05801239 53.87517776 392.12988739 54.49392776 391.17363739 55.13142776 C391.24419554 55.69642038 391.3147537 56.261413 391.38744998 56.8435266 C392.21451839 64.12631211 392.31922352 71.32980301 392.31407928 78.65394974 C392.31666819 80.00141317 392.3196828 81.34887583 392.32308269 82.69633746 C392.33109389 86.37503392 392.33293894 90.05371081 392.33368015 93.73241496 C392.33554096 97.70937283 392.34309323 101.68632079 392.34981537 105.66327286 C392.36335588 114.34722667 392.3694163 123.03117583 392.37382603 131.71513844 C392.3765949 137.14295232 392.38083334 142.57076443 392.3853302 147.99857712 C392.39751574 163.04367969 392.40781746 178.08878085 392.41120529 193.13388824 C392.41142486 194.09542405 392.41164442 195.05695985 392.41187064 196.0476331 C392.41208892 197.01138366 392.4123072 197.97513422 392.41253209 198.96808934 C392.41297555 200.92081022 392.41342211 202.8735311 392.41387177 204.82625198 C392.41409319 205.79485565 392.41431462 206.76345932 392.41454276 207.76141462 C392.41849062 223.45530191 392.43594746 239.14914277 392.45923129 254.84301212 C392.48297492 270.97771521 392.49540846 287.11239502 392.49657321 303.24711585 C392.49748811 312.29736728 392.50319405 321.34755813 392.52139282 330.39779282 C392.53683431 338.10357153 392.54189035 345.80927093 392.53365472 353.51506218 C392.52976293 357.44189257 392.53060547 361.36856343 392.54471207 365.29537392 C392.55753933 368.89919037 392.55617718 372.50272886 392.54412135 376.10654542 C392.54126879 378.0084755 392.55303266 379.9104108 392.56554341 381.81230187 C392.44091215 403.76566289 384.96833346 421.94389734 369.98613739 437.81892776 C353.95633985 453.23388375 334.68100795 458.28698588 313.01860809 458.27186966 C311.67444652 458.27445611 310.3302857 458.27747005 308.98612595 458.28087306 C305.30258207 458.28891361 301.61905772 458.29073099 297.93550611 458.29147053 C293.95847635 458.29332626 289.98145661 458.30087627 286.00443268 458.30760574 C277.31196988 458.32116932 268.61951171 458.32721089 259.9270401 458.3316164 C254.49471184 458.33438254 249.06238535 458.33862061 243.63005829 458.34312057 C228.57650108 458.35531137 213.52294528 458.3656106 198.46938324 458.36899567 C197.02504884 458.36932502 197.02504884 458.36932502 195.55153596 458.36966102 C194.58639656 458.3698793 193.62125716 458.37009757 192.62687111 458.37032247 C190.67126846 458.37076593 188.71566582 458.37121249 186.76006317 458.37166214 C185.79002531 458.37188357 184.81998744 458.372105 183.82055449 458.37233314 C168.11421898 458.37627834 152.40792993 458.39372474 136.70161235 458.41702166 C120.55908933 458.44077141 104.41658958 458.45319919 88.27404881 458.45436358 C79.21757284 458.45527838 70.16115741 458.46098132 61.10469818 458.4791832 C53.39045787 458.49463325 45.6762968 458.49967589 37.96204394 458.49144509 C34.03106003 458.48755569 30.10023546 458.48838377 26.16927147 458.50250244 C22.56034873 458.51534505 18.95170339 458.51395442 15.34278047 458.50191173 C13.44045267 458.49906402 11.5381196 458.51081156 9.63583088 458.52333379 C-9.06876529 458.4174963 -24.68732298 453.18182165 -39.82636261 442.13142776 C-40.47218292 441.67252151 -41.11800323 441.21361526 -41.78339386 440.74080276 C-55.76841905 429.86720004 -63.04710498 413.1594634 -65.82636261 396.13142776 C-66.22506038 391.51512133 -66.31288203 386.92744072 -66.33808136 382.29549026 C-66.36500816 380.42744232 -66.36500816 380.42744232 -66.39247894 378.52165604 C-66.44603989 374.59994628 -66.48030266 370.67835432 -66.51386261 366.75642776 C-66.54550248 364.07409688 -66.58138738 361.39182835 -66.61737823 358.70955276 C-66.70173449 352.18361697 -66.77031016 345.65766484 -66.82636261 339.13142776 C-67.80693634 340.41726761 -67.80693634 340.41726761 -68.80731964 341.72908401 C-73.32152293 347.63334378 -77.83597055 353.50952657 -82.70136261 359.13142776 C-85.20438246 362.04679482 -87.68850652 364.95089025 -90.02167511 368.00642776 C-90.61722198 368.70767776 -91.21276886 369.40892776 -91.82636261 370.13142776 C-92.48636261 370.13142776 -93.14636261 370.13142776 -93.82636261 370.13142776 C-93.25542324 365.33562853 -91.77713762 361.39255969 -89.70136261 357.08064651 C-89.07085132 355.72857421 -88.44065278 354.37635602 -87.81073761 353.02400589 C-86.82139678 350.92214639 -85.82800781 348.82237874 -84.82831573 346.72542191 C-80.90769101 338.47173049 -77.82636261 331.44634689 -77.82636261 322.13142776 C-78.48636261 322.13142776 -79.14636261 322.13142776 -79.82636261 322.13142776 C-79.59473308 316.5246433 -78.30015316 314.10212856 -74.5413112 310.02163404 C-64.96899079 299.46328485 -65.16773055 289.37363269 -65.41986847 275.70540237 C-65.41829909 273.38257306 -65.41139371 271.05974222 -65.3996048 268.73694229 C-65.38234492 262.47162437 -65.43799868 256.20885988 -65.50650096 249.94397426 C-65.55897237 244.0321035 -65.55379021 238.12051374 -65.54848654 232.20845444 C-65.5395666 220.49321698 -65.58165901 208.77876852 -65.658638 197.06380081 C-65.73294658 185.73210609 -65.79070105 174.4005885 -65.82074738 163.06868362 C-65.82260927 162.3704633 -65.82447117 161.67224298 -65.82638948 160.95286446 C-65.84626283 153.31423185 -65.86122281 145.67559634 -65.87239933 138.0369463 C-65.87340302 137.363775 -65.87440672 136.69060371 -65.87544082 135.99703329 C-65.88366138 130.46432998 -65.88366138 130.46432998 -65.88696439 127.91914839 C-65.8982284 119.43802883 -65.93101468 110.95739188 -65.98743522 102.47645366 C-66.017792 97.60395581 -66.03630668 92.73145554 -66.05256653 87.85889244 C-66.06287261 85.61240527 -66.07843415 83.36593459 -66.09985542 81.11952591 C-66.32749282 56.81236046 -62.66786785 37.61008637 -45.31024933 19.57429886 C-33.29887831 7.8949302 -16.93765976 0.02086771 0 0 Z " fill="#229F4D" transform="translate(94.82636260986328,26.868572235107422)"/>
<path d="M0 0 C1.17235907 -0.00384115 2.34471814 -0.00768229 3.55260324 -0.01163983 C5.47849354 -0.01034011 5.47849354 -0.01034011 7.44329071 -0.00901413 C8.82427475 -0.01159881 10.20525804 -0.01461226 11.58624029 -0.01801753 C15.38077813 -0.02607897 19.17529705 -0.02787663 22.96984243 -0.028615 C27.06275279 -0.0304671 31.15565336 -0.03801534 35.24855804 -0.04475021 C44.19926125 -0.05832907 53.14995998 -0.06435786 62.10067177 -0.06876087 C67.69210785 -0.07152466 73.2835422 -0.07576232 78.87497711 -0.08026505 C94.36252229 -0.09245828 109.85006609 -0.10275674 125.33761597 -0.10614014 C126.32878743 -0.1063597 127.3199589 -0.10657927 128.34116587 -0.10680549 C129.33468692 -0.10702377 130.32820798 -0.10724204 131.35183573 -0.10746694 C133.36502743 -0.1079104 135.37821913 -0.10835696 137.39141083 -0.10880661 C138.88932436 -0.10913875 138.88932436 -0.10913875 140.41749877 -0.10947761 C156.58766859 -0.11342308 172.75779328 -0.13086918 188.92794567 -0.15416613 C205.53822081 -0.1779035 222.14847333 -0.19034311 238.7587657 -0.19150805 C248.08124976 -0.1924236 257.40367505 -0.19814524 266.72614288 -0.21632767 C274.66702862 -0.23176102 282.60783743 -0.23683016 290.54873532 -0.22858956 C294.59692123 -0.22469418 298.64495238 -0.22555792 302.69311905 -0.23964691 C306.40687182 -0.2524532 310.12035459 -0.25112994 313.83410734 -0.2390562 C315.79765723 -0.23619665 317.76121208 -0.24798392 319.72472429 -0.26047826 C340.45864831 -0.14597028 356.90955016 7.17052497 371.86113739 21.31892776 C378.41280289 28.03954739 383.08965699 35.69932894 387.17363739 44.13142776 C394.88213602 40.01737381 394.88213602 40.01737381 402.36113739 35.50642776 C407.05359551 32.51329605 411.88564316 29.89409251 417.17363739 28.13142776 C415.34304418 38.26666335 402.14582834 47.38057101 394.29863739 53.06892776 C392.45554162 54.28537097 390.58805548 55.46813737 388.67363739 56.56892776 C381.94688961 60.77314513 377.59001054 65.95516897 373.06816864 72.44783401 C371.19126454 75.106459 369.31514568 77.67955596 367.17363739 80.13142776 C366.51363739 80.13142776 365.85363739 80.13142776 365.17363739 80.13142776 C365.17363739 79.47142776 365.17363739 78.81142776 365.17363739 78.13142776 C359.49488793 82.76106162 354.8968982 87.6211104 350.54863739 93.50642776 C349.9874118 94.25013626 349.42618622 94.99384476 348.8479538 95.76008987 C345.45164712 100.29295587 342.21558758 104.88559449 339.32207489 109.76033401 C338.94309052 110.21279495 338.56410614 110.66525589 338.17363739 111.13142776 C337.18363739 111.13142776 336.19363739 111.13142776 335.17363739 111.13142776 C334.51363739 110.14142776 333.85363739 109.15142776 333.17363739 108.13142776 C330.54819168 108.4902197 329.39971481 108.88884835 327.56816864 110.85408401 C323.50699447 116.86061075 319.87570821 123.02995641 316.45806122 129.42073441 C314.0904402 133.77959093 311.46374639 137.4141818 308.17363739 141.13142776 C305.50697072 140.4647611 302.84030406 139.79809443 300.17363739 139.13142776 C295.41781355 144.8585114 291.26400661 150.92307007 287.17363739 157.13142776 C279.92618682 168.08115017 272.97302789 178.14545241 261.74394989 185.38533401 C261.1537204 185.77011917 260.56349091 186.15490433 259.95537567 186.55134964 C258.25113265 187.64423226 256.5252665 188.70317337 254.79863739 189.76033401 C251.40698877 192.82392138 251.67762845 194.68670657 251.17363739 199.13142776 C248.26105384 203.83811737 244.23339331 209.83021484 238.97832489 212.06502151 C238.32090302 212.16943558 237.66348114 212.27384964 236.98613739 212.38142776 C232.2542209 213.31229658 230.85388931 214.8372303 227.90410614 218.50252151 C225.0706371 222.80709186 222.91343009 227.38538046 220.75176239 232.05720901 C218.38016672 236.67712434 218.38016672 236.67712434 216.17363739 238.13142776 C213.63188909 237.8495482 212.48347093 237.4703115 210.74150848 235.56502151 C210.3143454 234.90631058 209.88718231 234.24759964 209.44707489 233.56892776 C208.97269989 232.85478714 208.49832489 232.14064651 208.00957489 231.40486526 C207.28641083 230.2795137 207.28641083 230.2795137 206.54863739 229.13142776 C205.58118873 227.64970376 204.61001018 226.17040632 203.63457489 224.69392776 C203.20966766 224.03521683 202.78476044 223.37650589 202.34697723 222.69783401 C201.24196076 220.97902733 201.24196076 220.97902733 199.17363739 220.13142776 C199.60530102 215.25722591 202.02422275 212.50999345 205.17363739 209.00642776 C206.18487595 207.84829073 207.19528129 206.68942567 208.20488739 205.52986526 C208.70891083 204.95591019 209.21293427 204.38195511 209.73223114 203.79060745 C211.76737172 201.44798967 213.72145513 199.0433631 215.67363739 196.63142776 C219.41984584 192.0289431 223.23886526 187.49420366 227.08330536 182.97395706 C230.03322643 179.49899753 232.93028145 175.98689704 235.79863739 172.44392776 C240.08937845 167.1794015 244.58979388 162.14096819 249.17363739 157.13142776 C250.38600067 155.77984573 250.38600067 155.77984573 251.62285614 154.40095901 C257.05245186 148.38701218 262.64269923 142.55928583 268.36113739 136.81892776 C269.01412811 136.16134476 269.66711884 135.50376175 270.33989716 134.82625198 C274.23548133 130.94292887 278.24728231 127.2526101 282.41265106 123.6604805 C283.78816276 122.46613283 285.13045163 121.2334944 286.45879364 119.98689651 C289.60659682 117.0328043 291.5396232 115.29539695 295.79863739 114.19392776 C300.05253117 112.85473898 301.59045489 111.04445021 304.08379364 107.44002151 C305.85681705 103.68426224 305.68021981 100.18408714 305.17363739 96.13142776 C304.25324677 96.2642012 303.33285614 96.39697464 302.38457489 96.53377151 C300.48578583 96.79867386 300.48578583 96.79867386 298.54863739 97.06892776 C297.31887177 97.2429512 296.08910614 97.41697464 294.82207489 97.59627151 C280.81164468 99.29649072 266.81274329 99.34904354 252.7175827 99.37166214 C249.0777002 99.38135041 245.43838771 99.41244884 241.79863739 99.44392776 C227.96739353 99.50463756 214.76930012 98.72424364 201.17363739 96.13142776 C201.78591889 101.58455987 202.72069562 103.92315498 206.17363739 108.13142776 C208.60270916 119.31462183 207.74993369 129.08840432 202.17363739 139.13142776 C200.07485637 142.35774539 197.69252339 145.22502084 195.17363739 148.13142776 C194.27403751 149.20076347 193.37569084 150.2711542 192.47832489 151.34236526 C187.04121962 157.79457764 181.43779235 164.06562616 175.67925262 170.23152542 C171.50346894 174.72244975 167.51273552 179.35452541 163.54399872 184.02840042 C159.59351654 188.67120833 155.52784717 193.18844019 151.40801239 197.68220901 C148.87274947 200.46124722 146.39824787 203.28783547 143.93144989 206.12752151 C141.97360154 208.35946864 139.98113838 210.55763636 137.98613739 212.75642776 C134.18712219 216.98193 130.41103382 221.22637139 126.67363739 225.50642776 C126.14488007 226.10149124 125.61612274 226.69655472 125.07134247 227.30965042 C121.97525355 230.88061825 120.17363739 233.37486457 120.17363739 238.13142776 C119.57551239 238.19330276 118.97738739 238.25517776 118.36113739 238.31892776 C114.74805286 239.66093059 113.81846902 242.84176451 112.17363739 246.13142776 C113.16363739 246.79142776 114.15363739 247.45142776 115.17363739 248.13142776 C114.86113739 251.00642776 114.86113739 251.00642776 114.17363739 254.13142776 C113.18363739 254.79142776 112.19363739 255.45142776 111.17363739 256.13142776 C109.59393628 254.55172666 110.04636733 252.95834003 110.04424286 250.76692581 C110.0410907 249.83893677 110.03793854 248.91094772 110.03469086 247.9548378 C110.0377272 246.43930061 110.0377272 246.43930061 110.04082489 244.89314651 C110.03986816 243.86083405 110.03891144 242.82852158 110.03792572 241.76492691 C110.03724358 239.57500015 110.0391002 237.38507138 110.0432663 235.19514847 C110.04859785 231.84378367 110.04333084 228.4925539 110.03691864 225.14119339 C110.03757974 223.01684414 110.03886155 220.89249496 110.04082489 218.76814651 C110.03880066 217.76386108 110.03677643 216.75957565 110.03469086 215.72485733 C110.0394191 214.31868904 110.0394191 214.31868904 110.04424286 212.88411331 C110.04503845 212.06106201 110.04583405 211.23801071 110.04665375 210.39001846 C110.17153983 208.16873596 110.59693751 206.27316254 111.17363739 204.13142776 C111.43317805 201.72708421 111.65623959 199.31871585 111.85723114 196.90877151 C111.98148185 195.46800783 112.10583419 194.02725291 112.23027802 192.58650589 C112.42067743 190.33803752 112.60943525 188.08945012 112.79595184 185.84065628 C113.45308544 177.97159023 114.15224879 170.18864461 115.76055145 162.44270706 C116.20531788 159.95417053 116.37027317 157.53014283 116.48613739 155.00642776 C116.93314448 149.22016934 118.58428683 143.9748844 120.30791473 138.46760941 C121.59826232 134.29046906 122.55269582 130.29511831 123.11113739 125.94392776 C124.00684461 119.62128854 126.57573894 109.72932621 131.17363739 105.13142776 C131.40556604 103.61673328 131.58578977 102.09388215 131.73613739 100.56892776 C131.81992645 99.7426387 131.90371552 98.91634964 131.99004364 98.06502151 C132.05062958 97.42693558 132.11121552 96.78884964 132.17363739 96.13142776 C131.42082489 96.2642012 130.66801239 96.39697464 129.89238739 96.53377151 C112.22908597 99.47050974 94.4890313 99.34746174 76.63091278 99.37166214 C73.87654593 99.376042 71.12249317 99.38994287 68.36821747 99.41267776 C52.0502866 99.54479631 36.25333397 99.11202155 20.17363739 96.13142776 C20.04171887 100.50415835 20.18368858 104.01244414 21.71269989 108.11580276 C22.04294159 109.03595169 22.37318329 109.95610062 22.71343231 110.90413284 C23.07154999 111.88664017 23.42966766 112.86914749 23.79863739 113.88142776 C37.9170001 154.67371284 41.32069228 198.63025884 41.36113739 241.50642776 C41.36231567 242.47046524 41.36349396 243.43450272 41.36470795 244.42775345 C41.36260962 259.55154602 40.85176414 274.44562132 38.73613739 289.44392776 C37.60394708 297.57063463 37.60394708 297.57063463 36.74394989 305.72908401 C35.95019791 314.80742972 34.41215766 323.60931082 32.42363739 332.50642776 C32.08175385 334.14007278 32.08175385 334.14007278 31.73296356 335.80672073 C29.89457192 343.59609969 29.89457192 343.59609969 26.29082489 346.27205276 C25.26215302 346.88564651 24.23348114 347.49924026 23.17363739 348.13142776 C21.13606738 351.09162944 19.61005388 354.2752315 18.04863739 357.50642776 C10.38030604 372.93805432 10.38030604 372.93805432 5.17363739 375.69392776 C1.55959157 377.62094829 -0.37308888 379.85257817 -2.82636261 383.13142776 C-3.5933548 384.12400589 -4.36034698 385.11658401 -5.15058136 386.13924026 C-5.93046417 387.16791214 -6.71034698 388.19658401 -7.51386261 389.25642776 C-8.69528839 390.80716995 -8.69528839 390.80716995 -9.90058136 392.38924026 C-11.95265767 395.03292195 -11.95265767 395.03292195 -12.82636261 398.13142776 C-13.48636261 398.13142776 -14.14636261 398.13142776 -14.82636261 398.13142776 C-14.82636261 399.12142776 -14.82636261 400.11142776 -14.82636261 401.13142776 C-15.8107648 402.14678599 -16.81519048 403.14272613 -17.82636261 404.13142776 C-19.23618408 406.28296254 -20.6035517 408.44204396 -21.95136261 410.63142776 C-25.50344335 416.28299751 -29.36211518 421.46914258 -33.67401886 426.57674026 C-36.84232625 430.33730839 -39.83196541 434.2319716 -42.82636261 438.13142776 C-50.81334172 435.13170981 -56.69980983 423.96495273 -60.26386261 416.69392776 C-64.91344976 405.51187152 -66.27266443 394.31993596 -66.33808136 382.29549026 C-66.36500816 380.42744232 -66.36500816 380.42744232 -66.39247894 378.52165604 C-66.44603989 374.59994628 -66.48030266 370.67835432 -66.51386261 366.75642776 C-66.54550248 364.07409688 -66.58138738 361.39182835 -66.61737823 358.70955276 C-66.70173449 352.18361697 -66.77031016 345.65766484 -66.82636261 339.13142776 C-67.80693634 340.41726761 -67.80693634 340.41726761 -68.80731964 341.72908401 C-73.32152293 347.63334378 -77.83597055 353.50952657 -82.70136261 359.13142776 C-85.20438246 362.04679482 -87.68850652 364.95089025 -90.02167511 368.00642776 C-90.61722198 368.70767776 -91.21276886 369.40892776 -91.82636261 370.13142776 C-92.48636261 370.13142776 -93.14636261 370.13142776 -93.82636261 370.13142776 C-93.25542324 365.33562853 -91.77713762 361.39255969 -89.70136261 357.08064651 C-89.07085132 355.72857421 -88.44065278 354.37635602 -87.81073761 353.02400589 C-86.82139678 350.92214639 -85.82800781 348.82237874 -84.82831573 346.72542191 C-80.90769101 338.47173049 -77.82636261 331.44634689 -77.82636261 322.13142776 C-78.48636261 322.13142776 -79.14636261 322.13142776 -79.82636261 322.13142776 C-79.59473308 316.5246433 -78.30015316 314.10212856 -74.5413112 310.02163404 C-64.96899079 299.46328485 -65.16773055 289.37363269 -65.41986847 275.70540237 C-65.41829909 273.38257306 -65.41139371 271.05974222 -65.3996048 268.73694229 C-65.38234492 262.47162437 -65.43799868 256.20885988 -65.50650096 249.94397426 C-65.55897237 244.0321035 -65.55379021 238.12051374 -65.54848654 232.20845444 C-65.5395666 220.49321698 -65.58165901 208.77876852 -65.658638 197.06380081 C-65.73294658 185.73210609 -65.79070105 174.4005885 -65.82074738 163.06868362 C-65.82260927 162.3704633 -65.82447117 161.67224298 -65.82638948 160.95286446 C-65.84626283 153.31423185 -65.86122281 145.67559634 -65.87239933 138.0369463 C-65.87340302 137.363775 -65.87440672 136.69060371 -65.87544082 135.99703329 C-65.88366138 130.46432998 -65.88366138 130.46432998 -65.88696439 127.91914839 C-65.8982284 119.43802883 -65.93101468 110.95739188 -65.98743522 102.47645366 C-66.017792 97.60395581 -66.03630668 92.73145554 -66.05256653 87.85889244 C-66.06287261 85.61240527 -66.07843415 83.36593459 -66.09985542 81.11952591 C-66.32749282 56.81236046 -62.66786785 37.61008637 -45.31024933 19.57429886 C-33.29887831 7.8949302 -16.93765976 0.02086771 0 0 Z " fill="#37AB58" transform="translate(94.82636260986328,26.868572235107422)"/>
<path d="M0 0 C1.13123291 0.14147461 2.26246582 0.28294922 3.42797852 0.42871094 C17.94472576 2.1248725 32.33521228 2.31188203 46.9375 2.25 C48.74578781 2.24734131 48.74578781 2.24734131 50.59060669 2.24462891 C68.46267327 2.21376152 86.21066104 1.82529443 104 0 C105.60745059 3.21490118 105.40305242 5.4301071 105 9 C102.62254951 13.17558552 100.00005826 16.3332945 96 19 C94.6696875 19.3403125 94.6696875 19.3403125 93.3125 19.6875 C90.17524729 20.93056239 88.72119717 21.93801227 86.26953125 24.140625 C85.56626709 24.77057373 84.86300293 25.40052246 84.13842773 26.04956055 C70.55629885 38.43769021 56.88764092 50.94649489 45 65 C44.02902044 66.10954246 43.05617164 67.21745036 42.08203125 68.32421875 C36.14139094 75.09046529 30.39642781 81.94723536 24.89038086 89.07177734 C21.49374976 93.44163199 17.8756599 97.54981893 14.12890625 101.625 C11.2055944 104.88623598 8.49711798 108.2985803 5.79296875 111.7421875 C4.26261728 113.66929676 2.68431526 115.52548002 1.0625 117.375 C-0.79679458 119.74137492 -1.66029684 121.05590592 -2 124 C-0.515 124.495 -0.515 124.495 1 125 C2.8046875 127.30859375 2.8046875 127.30859375 4.875 130.4375 C5.67916094 131.63274276 6.48526125 132.82668228 7.29296875 134.01953125 C7.72786621 134.6635791 8.16276367 135.30762695 8.61083984 135.97119141 C11.07340019 139.56765475 13.63046111 143.09537104 16.1875 146.625 C16.73801025 147.38506348 17.28852051 148.14512695 17.85571289 148.92822266 C35.37349472 173.06897963 52.99914134 197.25290044 72.3984375 219.9296875 C74.74257701 222.67734045 76.99883316 225.48800228 79.25 228.3125 C83.79384058 233.90998477 88.71428989 239.12623031 93.68457031 244.34301758 C96.42292598 247.22173731 99.12357464 250.0923374 101.640625 253.16796875 C105.06493461 257.27827416 108.86606058 260.88125694 112.8046875 264.48828125 C114.16185505 265.76259846 115.51861824 267.03734643 116.875 268.3125 C117.926875 269.25125977 117.926875 269.25125977 119 270.20898438 C119.65742188 270.83740234 120.31484375 271.46582031 120.9921875 272.11328125 C121.89493408 272.94533081 121.89493408 272.94533081 122.81591797 273.79418945 C124.67143789 277.25081265 123.5692117 280.17011528 123 284 C121.35282738 283.78806 121.35282738 283.78806 119.67237854 283.57183838 C108.95530072 282.25131072 98.44308222 281.70111093 87.65234375 281.734375 C86.05969687 281.73302069 84.4670504 281.73107388 82.87440491 281.72857666 C79.56946802 281.72566213 76.26464073 281.72980305 72.9597168 281.73925781 C68.77599595 281.75065954 64.59253169 281.74406459 60.40882015 281.73211288 C57.13035737 281.72480173 53.85195301 281.7272239 50.57348824 281.73236847 C49.03290334 281.73367907 47.4923127 281.73215112 45.95173454 281.72740936 C35.16318432 281.70146492 24.68807633 282.53021862 14 284 C13.52691406 282.8960791 13.05382812 281.7921582 12.56640625 280.65478516 C9.3710487 272.84162047 9.3710487 272.84162047 5.375 265.4375 C3.47447793 262.06839269 2.83142306 258.7733816 2 255 C1.34 255 0.68 255 0 255 C-0.39316406 254.01773438 -0.78632813 253.03546875 -1.19140625 252.0234375 C-3.06900305 247.65443527 -5.44256154 243.66569144 -7.9375 239.625 C-8.65885132 238.45251709 -8.65885132 238.45251709 -9.39477539 237.25634766 C-17.66525579 223.96960916 -27.04980499 211.46464677 -36.49121094 198.99707031 C-38.53781071 196.28814051 -40.56963282 193.56827111 -42.60229492 190.84887695 C-47.16426788 184.74796041 -51.76501964 178.68000769 -56.42236328 172.65161133 C-59.89068412 168.15757678 -63.29412955 163.61715841 -66.6875 159.06640625 C-68.35844718 156.85070771 -70.04258243 154.65202663 -71.75 152.46484375 C-72.20826172 151.87638672 -72.66652344 151.28792969 -73.13867188 150.68164062 C-74.02705047 149.54344538 -74.91883031 148.40789436 -75.81445312 147.27539062 C-77.71152986 144.8423821 -79.01497985 142.95506044 -80 140 C-80.66 140 -81.32 140 -82 140 C-81.47403544 135.83124387 -79.19493533 133.73180473 -76.375 130.75 C-75.45512457 129.76618996 -74.53585589 128.78181225 -73.6171875 127.796875 C-72.75351563 126.87390625 -71.88984375 125.9509375 -71 125 C-69.82569984 123.67338475 -68.65801242 122.34085649 -67.5 121 C-64.71185902 117.79100756 -61.86471815 114.64083556 -59 111.5 C-54.00311022 106.01542578 -49.09686934 100.46731169 -44.2890625 94.81640625 C-37.68153645 87.057397 -30.9185123 79.48201104 -24 72 C-2.30602109 49.75930685 -2.30602109 49.75930685 5.26171875 20.9921875 C4.86304168 16.43417802 4.341657 12.65127015 1.375 9 C-0.63592918 6.0750121 -0.08830253 3.46788106 0 0 Z " fill="#1A2418" transform="translate(296,123)"/>
<path d="M0 0 C2.18771244 0.14261094 4.37516282 0.28924461 6.5625 0.4375 C7.78066406 0.51871094 8.99882813 0.59992188 10.25390625 0.68359375 C14 1 14 1 16.9074707 1.50927734 C22.64237259 2.33979849 28.44490227 2.16273393 34.2265625 2.16796875 C36.17276993 2.17296135 36.17276993 2.17296135 38.15829468 2.17805481 C40.91364366 2.18403307 43.6689614 2.18589694 46.42431641 2.18530273 C49.18545262 2.18522274 51.94641843 2.19195776 54.70751953 2.20581055 C73.90308954 2.30082201 92.8626253 1.60894004 112 0 C112.04765165 1.41763673 112.08137464 2.83574527 112.109375 4.25390625 C112.12967773 5.0435376 112.14998047 5.83316895 112.17089844 6.64672852 C111.93562756 9.88640848 110.71169432 12.10940769 109.15234375 14.90625 C106.36908855 19.96328317 103.96586973 25.25845784 103.5625 31.0625 C103.2440742 35.59210696 101.92548846 39.69747882 100.5625 44 C98.14514688 51.82114991 97.00869169 59.35016562 96.25341797 67.47851562 C95.85171968 71.4753749 95.34247772 75.45835301 94.84765625 79.44458008 C93.76505165 88.16921324 92.71954487 96.86499928 92.2109375 105.64453125 C92 108 92 108 91.49688721 109.83502197 C90.93572537 112.28004981 90.85851766 114.48652255 90.83886719 116.99511719 C90.82939056 117.99376297 90.81991394 118.99240875 90.81015015 120.02131653 C90.80576935 121.10225082 90.80138855 122.18318512 90.796875 123.296875 C90.78999664 124.42626999 90.78311829 125.55566498 90.77603149 126.71928406 C90.75876378 130.39622173 90.75256171 134.07302379 90.75 137.75 C90.74832825 138.99596954 90.74665649 140.24193909 90.74493408 141.52566528 C90.74337168 160.89426278 91.55442549 179.78247628 94 199 C94.17245838 200.57764068 94.34099075 202.15572033 94.50390625 203.734375 C95.51525955 212.95500152 97.2600665 222.01193635 99.0546875 231.10546875 C100.00795445 235.95854891 100.80332383 240.82717884 101.5078125 245.72265625 C101.8979493 248.01367923 101.8979493 248.01367923 103.015625 249.94921875 C104.27563968 252.57424934 104.41821616 254.85502627 104.625 257.75 C104.73714844 259.22726562 104.73714844 259.22726562 104.8515625 260.734375 C104.90054688 261.48203125 104.94953125 262.2296875 105 263 C105.66 263 106.32 263 107 263 C107.68124706 264.99508067 108.34427209 266.99638693 109 269 C109.37125 270.11375 109.7425 271.2275 110.125 272.375 C111.11226886 276.46511384 111.06078406 279.80590016 111 284 C109.94635254 283.85852539 108.89270508 283.71705078 107.80712891 283.57128906 C92.51278733 281.69856436 77.23479699 281.69164281 61.85449219 281.73925781 C58.11872593 281.75067251 54.38324422 281.74388236 50.64748764 281.73235321 C29.94648094 281.66554875 29.94648094 281.66554875 9.35009766 283.57128906 C6.18903455 283.97580931 3.18219234 284.0769442 0 284 C-2.02676975 279.9464605 -1.27390787 275.83046536 0.1015625 271.66015625 C0.60429688 270.47292969 1.10703125 269.28570312 1.625 268.0625 C5.55985527 258.2920643 7.90170429 248.1468293 10.29492188 237.91040039 C10.75442274 236.01368646 11.24398719 234.12392768 11.76757812 232.24389648 C14.27033089 223.12256044 15.1790417 213.94372514 16.125 204.5625 C16.37751309 202.12644873 16.63246517 199.69067747 16.88961792 197.25511169 C17.04751722 195.75288874 17.2024169 194.25034635 17.35379028 192.74745178 C17.64346507 189.93970534 17.96465379 187.1762994 18.51977539 184.4074707 C21.03422598 171.80198149 20.20312979 158.1628415 20.1875 145.375 C20.18656342 144.38211975 20.18562683 143.3892395 20.18466187 142.36627197 C20.09771149 99.6766364 16.48631262 55.07708175 1.4519043 14.77270508 C-0.52551685 9.31628398 -1.45067918 5.67725259 0 0 Z " fill="#1A2318" transform="translate(115,123)"/>
<path d="M0 0 C0.66 0 1.32 0 2 0 C3.90934172 5.81590281 4.57361104 11.4122696 5.0625 17.5 C5.14048828 18.39203125 5.21847656 19.2840625 5.29882812 20.203125 C5.54930139 23.13428316 5.7754316 26.06674854 6 29 C6.09120117 30.07958984 6.18240234 31.15917969 6.27636719 32.27148438 C7.08420995 42.69581835 7.15284614 53.08279662 7.13037109 63.53369141 C7.12500875 66.49516924 7.13034999 69.45649547 7.13671875 72.41796875 C7.14297513 86.84072356 6.57981052 101.01118654 4.5625 115.3125 C3.43030969 123.43920687 3.43030969 123.43920687 2.5703125 131.59765625 C1.77656052 140.67600196 0.23852027 149.47788305 -1.75 158.375 C-1.97792236 159.46409668 -2.20584473 160.55319336 -2.44067383 161.67529297 C-4.27906547 169.46467192 -4.27906547 169.46467192 -7.8828125 172.140625 C-8.91148438 172.75421875 -9.94015625 173.3678125 -11 174 C-13.03757001 176.96020168 -14.56358351 180.14380373 -16.125 183.375 C-23.79333135 198.80662655 -23.79333135 198.80662655 -29 201.5625 C-32.61404582 203.48952052 -34.54672627 205.72115041 -37 209 C-37.76699219 209.99257813 -38.53398438 210.98515625 -39.32421875 212.0078125 C-40.10410156 213.03648437 -40.88398437 214.06515625 -41.6875 215.125 C-42.47511719 216.15882813 -43.26273437 217.19265625 -44.07421875 218.2578125 C-46.12629506 220.90149418 -46.12629506 220.90149418 -47 224 C-47.66 224 -48.32 224 -49 224 C-49 224.99 -49 225.98 -49 227 C-49.98440219 228.01535823 -50.98882787 229.01129836 -52 230 C-53.40982147 232.15153478 -54.77718909 234.31061619 -56.125 236.5 C-59.67708074 242.15156974 -63.53575257 247.33771482 -67.84765625 252.4453125 C-71.01596364 256.20588062 -74.0056028 260.10054384 -77 264 C-84.98697911 261.00028204 -90.87344722 249.83352497 -94.4375 242.5625 C-99.08708715 231.38044376 -100.44630182 220.1885082 -100.51171875 208.1640625 C-100.53864555 206.29601456 -100.53864555 206.29601456 -100.56611633 204.39022827 C-100.61967728 200.46851852 -100.65394005 196.54692656 -100.6875 192.625 C-100.71913987 189.94266911 -100.75502478 187.26040058 -100.79101562 184.578125 C-100.87537188 178.05218921 -100.94394755 171.52623708 -101 165 C-101.65371582 165.85722656 -102.30743164 166.71445312 -102.98095703 167.59765625 C-107.49516032 173.50191601 -112.00960794 179.37809881 -116.875 185 C-119.37801986 187.91536706 -121.86214391 190.81946249 -124.1953125 193.875 C-124.79085937 194.57625 -125.38640625 195.2775 -126 196 C-126.66 196 -127.32 196 -128 196 C-127.42906063 191.20420077 -125.95077501 187.26113193 -123.875 182.94921875 C-123.24448871 181.59714645 -122.61429017 180.24492826 -121.984375 178.89257812 C-120.99503417 176.79071862 -120.0016452 174.69095098 -119.00195312 172.59399414 C-115.0813284 164.34030272 -112 157.31491913 -112 148 C-112.66 148 -113.32 148 -114 148 C-113.66884736 141.60047522 -111.45681287 138.23337579 -107.5 133.3125 C-106.39184965 131.88677893 -105.28377721 130.4609973 -104.17578125 129.03515625 C-103.63002441 128.34309082 -103.08426758 127.65102539 -102.52197266 126.93798828 C-100.53417656 124.4068485 -98.6084699 121.83210677 -96.6875 119.25 C-93.90644964 115.53683935 -91.11703349 111.83028231 -88.3203125 108.12890625 C-86.98436376 106.35677931 -85.64842632 104.58464385 -84.3125 102.8125 C-83.68239014 101.98073242 -83.05228027 101.14896484 -82.40307617 100.29199219 C-78.40508434 94.98241453 -74.62219344 89.57279865 -71 84 C-71.99 83.67 -72.98 83.34 -74 83 C-74 79.60381181 -73.52578122 77.57893712 -71.22265625 75.04296875 C-65.54289715 70 -65.54289715 70 -63 70 C-63 69.34 -63 68.68 -63 68 C-61.49609375 66.5546875 -61.49609375 66.5546875 -59.4375 64.875 C-55.7727863 61.76810113 -52.64721267 58.45910074 -49.54296875 54.80078125 C-47.79436686 52.7600079 -45.93831989 50.86078709 -44 49 C-45.485 48.505 -45.485 48.505 -47 48 C-47 46.68 -47 45.36 -47 44 C-46.34 44 -45.68 44 -45 44 C-44.75636719 43.26007813 -44.51273437 42.52015625 -44.26171875 41.7578125 C-40.84203367 34.28320672 -32.03628865 29.21325892 -25.5 24.5 C-16.31197568 17.86841373 -8.39048351 11.02161407 -1.59375 1.87109375 C-1.0678125 1.25363281 -0.541875 0.63617188 0 0 Z " fill="#49B563" transform="translate(129,201)"/>
<path d="M0 0 C0.66 0 1.32 0 2 0 C0.16940679 10.13523558 -13.02780905 19.24914324 -20.875 24.9375 C-22.71809577 26.15394321 -24.58558191 27.3367096 -26.5 28.4375 C-33.22674778 32.64171737 -37.58362685 37.82374121 -42.10546875 44.31640625 C-43.98237285 46.97503123 -45.85849171 49.54812819 -48 52 C-48.66 52 -49.32 52 -50 52 C-50 51.34 -50 50.68 -50 50 C-55.67874946 54.62963385 -60.27673919 59.48968263 -64.625 65.375 C-65.18622559 66.1187085 -65.74745117 66.86241699 -66.32568359 67.62866211 C-69.72199027 72.1615281 -72.95804981 76.75416672 -75.8515625 81.62890625 C-76.23054687 82.08136719 -76.60953125 82.53382813 -77 83 C-77.99 83 -78.98 83 -80 83 C-80.66 82.01 -81.32 81.02 -82 80 C-84.62544571 80.35879193 -85.77392258 80.75742058 -87.60546875 82.72265625 C-91.66664292 88.72918298 -95.29792918 94.89852865 -98.71557617 101.28930664 C-101.08319719 105.64816316 -103.709891 109.28275404 -107 113 C-109.66666667 112.33333333 -112.33333333 111.66666667 -115 111 C-119.75582384 116.72708364 -123.90963078 122.7916423 -128 129 C-135.24745057 139.9497224 -142.2006095 150.01402465 -153.4296875 157.25390625 C-154.01991699 157.63869141 -154.61014648 158.02347656 -155.21826172 158.41992188 C-156.92250474 159.5128045 -158.64837089 160.5717456 -160.375 161.62890625 C-163.76664862 164.69249362 -163.49600894 166.55527881 -164 171 C-166.91258355 175.7066896 -170.94024408 181.69878707 -176.1953125 183.93359375 C-176.85273438 184.03800781 -177.51015625 184.14242187 -178.1875 184.25 C-182.9194165 185.18086882 -184.31974808 186.70580254 -187.26953125 190.37109375 C-190.10300029 194.67566409 -192.2602073 199.2539527 -194.421875 203.92578125 C-196.79347067 208.54569658 -196.79347067 208.54569658 -199 210 C-201.5417483 209.71812044 -202.69016646 209.33888374 -204.43212891 207.43359375 C-204.85929199 206.77488281 -205.28645508 206.11617187 -205.7265625 205.4375 C-206.2009375 204.72335937 -206.6753125 204.00921875 -207.1640625 203.2734375 C-207.64617187 202.52320313 -208.12828125 201.77296875 -208.625 201 C-209.59244866 199.51827599 -210.56362721 198.03897856 -211.5390625 196.5625 C-211.96396973 195.90378906 -212.38887695 195.24507812 -212.82666016 194.56640625 C-213.93167663 192.84759957 -213.93167663 192.84759957 -216 192 C-215.56833637 187.12579814 -213.14941464 184.37856569 -210 180.875 C-208.98876144 179.71686297 -207.97835611 178.5579979 -206.96875 177.3984375 C-206.46472656 176.82448242 -205.96070313 176.25052734 -205.44140625 175.65917969 C-203.40626567 173.31656191 -201.45218226 170.91193533 -199.5 168.5 C-195.75379155 163.89751534 -191.93477213 159.36277589 -188.09033203 154.8425293 C-185.14041096 151.36756977 -182.24335594 147.85546927 -179.375 144.3125 C-175.08425894 139.04797373 -170.58384351 134.00954042 -166 129 C-165.19175781 128.09894531 -164.38351562 127.19789063 -163.55078125 126.26953125 C-158.12118553 120.25558442 -152.53093816 114.42785806 -146.8125 108.6875 C-145.83301392 107.70112549 -145.83301392 107.70112549 -144.83374023 106.69482422 C-140.93815606 102.8115011 -136.92635508 99.12118233 -132.76098633 95.52905273 C-131.38547463 94.33470506 -130.04318576 93.10206664 -128.71484375 91.85546875 C-125.56704057 88.90137654 -123.63401419 87.16396919 -119.375 86.0625 C-112.8744074 84.01601715 -110.28395317 77.51680423 -107.0625 71.875 C-102.91512652 64.91295659 -98.75930825 61.55722502 -91.1875 58.6875 C-85.58723293 56.51311416 -81.8263812 53.64983982 -77.546875 49.4765625 C-71.33288677 43.43412609 -65.05516508 38.4957213 -57.5625 34.125 C-56.70011719 33.61324219 -55.83773437 33.10148437 -54.94921875 32.57421875 C-48.54241149 28.80716639 -42.03059451 25.26242616 -35.38110352 21.94189453 C-31.59822797 20.01795461 -28.94002102 18.01692298 -26 15 C-23.82767193 13.63295533 -21.68207085 12.35735543 -19.4375 11.125 C-18.51964722 10.61054321 -18.51964722 10.61054321 -17.58325195 10.08569336 C-12.75213252 7.38626381 -7.88978695 4.7424114 -3.01171875 2.12890625 C-1.06631247 1.15651476 -1.06631247 1.15651476 0 0 Z " fill="#A0D194" transform="translate(510,55)"/>
<path d="M0 0 C0.66 0 1.32 0 2 0 C4.27062638 7.16156373 4.74285365 14.15306196 5.07250977 21.61499023 C5.14913588 23.1626426 5.24549141 24.70944462 5.36157227 26.25463867 C6.31882385 39.07200594 6.31882385 39.07200594 3.09985352 43.77783203 C-0.87187351 47.36318855 -6.43465201 52 -12 52 C-11.7525 52.721875 -11.505 53.44375 -11.25 54.1875 C-11 57 -11 57 -12.625 59.1875 C-13.40875 60.115625 -14.1925 61.04375 -15 62 C-16.3634415 64.56456853 -17.61457201 67.16534883 -18.8515625 69.79296875 C-20 72 -20 72 -22 74 C-23.051875 73.979375 -24.10375 73.95875 -25.1875 73.9375 C-29.80464861 75.22424633 -30.19448977 76.27715286 -32.625 80.25 C-33.15351562 81.20390625 -33.68203125 82.1578125 -34.2265625 83.140625 C-37.46977336 88.36976673 -41.88319246 91.79592218 -46.8125 95.375 C-48.87584794 96.91553161 -50.93839405 98.45713796 -53 100 C-53.79792969 100.58910156 -54.59585938 101.17820312 -55.41796875 101.78515625 C-60.7936032 106.05137271 -63.0047147 110.47594215 -65 117 C-64.01 117.33 -63.02 117.66 -62 118 C-62 118.66 -62 119.32 -62 120 C-62.763125 120.7425 -63.52625 121.485 -64.3125 122.25 C-67.02633951 125.02695205 -68.44202297 127.47405199 -70 131 C-72.97 131 -75.94 131 -79 131 C-79.50789063 132.07121094 -80.01578125 133.14242187 -80.5390625 134.24609375 C-81.23322563 135.64380059 -81.92860195 137.04090536 -82.625 138.4375 C-82.95628906 139.14455078 -83.28757813 139.85160156 -83.62890625 140.58007812 C-84.63436728 142.56254374 -85.56697992 144.29835935 -87 146 C-90.1484375 146.66015625 -90.1484375 146.66015625 -93 147 C-94.28599376 149.14730655 -94.28599376 149.14730655 -95 152 C-99.59030402 162.14930529 -104.54712545 170.62625957 -112 179 C-113.78556924 181.11282362 -115.54803447 183.24454701 -117.3125 185.375 C-118.11300781 186.33148438 -118.91351563 187.28796875 -119.73828125 188.2734375 C-121.25417541 190.10088849 -122.73096435 191.9614486 -124.16796875 193.8515625 C-124.77253906 194.56054688 -125.37710938 195.26953125 -126 196 C-126.66 196 -127.32 196 -128 196 C-127.42906063 191.20420077 -125.95077501 187.26113193 -123.875 182.94921875 C-123.24448871 181.59714645 -122.61429017 180.24492826 -121.984375 178.89257812 C-120.99503417 176.79071862 -120.0016452 174.69095098 -119.00195312 172.59399414 C-115.0813284 164.34030272 -112 157.31491913 -112 148 C-112.66 148 -113.32 148 -114 148 C-113.66884736 141.60047522 -111.45681287 138.23337579 -107.5 133.3125 C-106.39184965 131.88677893 -105.28377721 130.4609973 -104.17578125 129.03515625 C-103.63002441 128.34309082 -103.08426758 127.65102539 -102.52197266 126.93798828 C-100.53417656 124.4068485 -98.6084699 121.83210677 -96.6875 119.25 C-93.90644964 115.53683935 -91.11703349 111.83028231 -88.3203125 108.12890625 C-86.98436376 106.35677931 -85.64842632 104.58464385 -84.3125 102.8125 C-83.68239014 101.98073242 -83.05228027 101.14896484 -82.40307617 100.29199219 C-78.40508434 94.98241453 -74.62219344 89.57279865 -71 84 C-71.99 83.67 -72.98 83.34 -74 83 C-74 79.60381181 -73.52578122 77.57893712 -71.22265625 75.04296875 C-65.54289715 70 -65.54289715 70 -63 70 C-63 69.34 -63 68.68 -63 68 C-61.49609375 66.5546875 -61.49609375 66.5546875 -59.4375 64.875 C-55.7727863 61.76810113 -52.64721267 58.45910074 -49.54296875 54.80078125 C-47.79436686 52.7600079 -45.93831989 50.86078709 -44 49 C-45.485 48.505 -45.485 48.505 -47 48 C-47 46.68 -47 45.36 -47 44 C-46.34 44 -45.68 44 -45 44 C-44.75636719 43.26007813 -44.51273437 42.52015625 -44.26171875 41.7578125 C-40.84203367 34.28320672 -32.03628865 29.21325892 -25.5 24.5 C-16.31197568 17.86841373 -8.39048351 11.02161407 -1.59375 1.87109375 C-1.0678125 1.25363281 -0.541875 0.63617188 0 0 Z " fill="#A0D294" transform="translate(129,201)"/>
<path d="M0 0 C1.90625 0.83984375 1.90625 0.83984375 3.90625 3.83984375 C6.30827711 15.03890521 5.49217693 24.77947535 -0.09375 34.83984375 C-2.19253102 38.06616138 -4.574864 40.93343683 -7.09375 43.83984375 C-7.99334988 44.90917945 -8.89169655 45.97957019 -9.7890625 47.05078125 C-15.22616777 53.50299362 -20.82959504 59.77404215 -26.58813477 65.93994141 C-30.76391845 70.43086574 -34.75465187 75.06294139 -38.72338867 79.73681641 C-42.67387085 84.37962432 -46.73954022 88.89685618 -50.859375 93.390625 C-53.39463792 96.1696632 -55.86913952 98.99625146 -58.3359375 101.8359375 C-60.29378585 104.06788462 -62.28624902 106.26605234 -64.28125 108.46484375 C-68.0802652 112.69034598 -71.85635357 116.93478738 -75.59375 121.21484375 C-76.12250732 121.80990723 -76.65126465 122.4049707 -77.19604492 123.01806641 C-80.29213384 126.58903424 -82.09375 129.08328055 -82.09375 133.83984375 C-82.691875 133.90171875 -83.29 133.96359375 -83.90625 134.02734375 C-87.51933453 135.36934658 -88.44891837 138.5501805 -90.09375 141.83984375 C-89.10375 142.49984375 -88.11375 143.15984375 -87.09375 143.83984375 C-87.40625 146.71484375 -87.40625 146.71484375 -88.09375 149.83984375 C-89.57875 150.82984375 -89.57875 150.82984375 -91.09375 151.83984375 C-92.67345111 150.26014264 -92.22102006 148.66675602 -92.22314453 146.4753418 C-92.22629669 145.54735275 -92.22944885 144.61936371 -92.23269653 143.66325378 C-92.2306723 142.65289566 -92.22864807 141.64253754 -92.2265625 140.6015625 C-92.22751923 139.56925003 -92.22847595 138.53693756 -92.22946167 137.4733429 C-92.23014381 135.28341613 -92.22828719 133.09348736 -92.22412109 130.90356445 C-92.21878954 127.55219966 -92.22405655 124.20096988 -92.23046875 120.84960938 C-92.22980765 118.72526012 -92.22852584 116.60091095 -92.2265625 114.4765625 C-92.22858673 113.47227707 -92.23061096 112.46799164 -92.23269653 111.43327332 C-92.22954437 110.49582779 -92.22639221 109.55838226 -92.22314453 108.5925293 C-92.22234894 107.769478 -92.22155334 106.9464267 -92.22073364 106.09843445 C-92.09605917 103.88091577 -91.65727211 101.98050358 -91.09375 99.83984375 C-91.04405549 97.77752156 -91.00325042 95.71497607 -90.96875 93.65234375 C-90.44865514 86.37101567 -87.83474305 83.10444045 -83.09375 77.83984375 C-81.98843473 76.27177688 -80.90556115 74.68769 -79.84375 73.08984375 C-75.76565735 67.19215371 -71.10181282 61.84443117 -66.43408203 56.4140625 C-64.47016689 54.10744596 -62.56339221 51.75598568 -60.65625 49.40234375 C-57.0608458 45.00219204 -53.44201622 40.62321767 -49.78125 36.27734375 C-49.27730713 35.66898682 -48.77336426 35.06062988 -48.25415039 34.43383789 C-45.78838715 31.52642081 -43.7331702 29.1624834 -40.09375 27.83984375 C-39.5059375 28.82984375 -39.5059375 28.82984375 -38.90625 29.83984375 C-37.27538721 32.06477081 -37.27538721 32.06477081 -34.765625 32.18359375 C-28.73317682 31.40748931 -24.23844344 25.53240063 -20.59326172 20.95605469 C-18.50675057 18.1957259 -16.46854285 15.40202912 -14.43334961 12.60375977 C-4.90884137 -0.37548973 -4.90884137 -0.37548973 0 0 Z " fill="#A0D194" transform="translate(297.09375,131.16015625)"/>
<path d="M0 0 C0.66 0 1.32 0 2 0 C2.29936961 9.45445056 1.41740334 18.7445966 0.375 28.125 C0.28796814 28.91092529 0.20093628 29.69685059 0.11126709 30.5065918 C-1.06913232 40.94921845 -2.53531055 51.24515811 -4.875 61.5 C-5.09494629 62.51852051 -5.31489258 63.53704102 -5.54150391 64.58642578 C-7.07716947 70.76654331 -8.48971989 72.59740203 -14 76 C-16.03509421 78.96213569 -17.56347086 82.14357062 -19.125 85.375 C-26.79333135 100.80662655 -26.79333135 100.80662655 -32 103.5625 C-35.61404582 105.48952052 -37.54672627 107.72115041 -40 111 C-40.76699219 111.99257813 -41.53398438 112.98515625 -42.32421875 114.0078125 C-43.10410156 115.03648437 -43.88398437 116.06515625 -44.6875 117.125 C-45.47511719 118.15882813 -46.26273438 119.19265625 -47.07421875 120.2578125 C-49.12629506 122.90149418 -49.12629506 122.90149418 -50 126 C-50.66 126 -51.32 126 -52 126 C-52 126.99 -52 127.98 -52 129 C-52.98440219 130.01535823 -53.98882787 131.01129836 -55 132 C-56.40982147 134.15153478 -57.77718909 136.31061619 -59.125 138.5 C-62.67708074 144.15156974 -66.53575257 149.33771482 -70.84765625 154.4453125 C-74.01596364 158.20588062 -77.0056028 162.10054384 -80 166 C-81.32 165.34 -82.64 164.68 -84 164 C-82.66617575 160.61762731 -81.2619161 157.27934991 -79.78515625 153.95703125 C-79.13426025 152.4879834 -79.13426025 152.4879834 -78.47021484 150.98925781 C-78.00566895 149.94092773 -77.54112305 148.89259766 -77.0625 147.8125 C-72.94665405 138.48103858 -68.87585182 129.13137644 -64.875 119.75 C-64.40199463 118.65018799 -63.92898926 117.55037598 -63.44165039 116.41723633 C-63.00457764 115.38751709 -62.56750488 114.35779785 -62.1171875 113.296875 C-61.73159668 112.39291992 -61.34600586 111.48896484 -60.94873047 110.55761719 C-60.01606472 108.04330776 -59.44752144 105.63996048 -59 103 C-60.32 102.01 -61.64 101.02 -63 100 C-61.75383339 94.67853175 -59.84858442 90.77039147 -56.5625 86.375 C-56.12292969 85.77381348 -55.68335937 85.17262695 -55.23046875 84.55322266 C-49.6974599 77.08795894 -43.59604553 70.0954963 -37.46875 63.1171875 C-30.94132324 55.53628364 -25.60312046 47.47968258 -20.28417969 39.02587891 C-18.39827304 36.05073568 -16.45396253 33.1184438 -14.5 30.1875 C-13.8915625 29.27355469 -13.283125 28.35960937 -12.65625 27.41796875 C-11.58606218 25.85559549 -10.47717304 24.31874063 -9.32421875 22.81640625 C-7.90602481 20.87109598 -7.41992405 19.35157468 -7 17 C-7.99 17 -8.98 17 -10 17 C-9.46481267 12.85046537 -8.21342356 10.5825624 -5.5625 7.375 C-3.58063933 4.95042724 -1.74009999 2.61014998 0 0 Z " fill="#9FD193" transform="translate(132,299)"/>
<path d="M0 0 C0.99 0.495 0.99 0.495 2 1 C-25.86033024 30.93838701 -25.86033024 30.93838701 -37.6328125 40.0703125 C-43.1466381 44.56508122 -47.78949322 49.99753372 -52.5390625 55.27148438 C-55.49975129 58.51685478 -58.53923534 61.27464783 -62 64 C-62.33 64.66 -62.66 65.32 -63 66 C-64.65 65.67 -66.3 65.34 -68 65 C-68.66 65.99 -69.32 66.98 -70 68 C-72.50819204 68.28000921 -74.766356 68.37241117 -77.2734375 68.328125 C-78.35366684 68.32531525 -78.35366684 68.32531525 -79.45571899 68.32244873 C-80.98061748 68.31572175 -82.50549852 68.30179434 -84.03027344 68.28125 C-86.35888806 68.25021474 -88.68682445 68.24029067 -91.015625 68.234375 C-92.49740404 68.22519965 -93.97917622 68.21482219 -95.4609375 68.203125 C-96.15585297 68.19887512 -96.85076843 68.19462524 -97.56674194 68.19024658 C-100.84816066 68.14203576 -103.86007369 68.00084524 -107 67 C-101.74075386 54.58929218 -84.26767766 46.17013974 -72.84375 40.20703125 C-71.89645523 39.71052063 -71.89645523 39.71052063 -70.93002319 39.20397949 C-67.72777434 37.52996267 -64.51577113 35.8808137 -61.28369141 34.26513672 C-60.08732671 33.6498774 -58.89119028 33.03417396 -57.6953125 32.41796875 C-56.62297363 31.87938232 -55.55063477 31.3407959 -54.44580078 30.78588867 C-51.76820896 29.21773491 -51.76820896 29.21773491 -51.26538086 26.36987305 C-51.17780518 25.58781494 -51.09022949 24.80575684 -51 24 C-49.05859375 22.6640625 -49.05859375 22.6640625 -46.4375 21.625 C-45.45136719 21.21378906 -44.46523438 20.80257812 -43.44921875 20.37890625 C-41.74185547 19.69634766 -41.74185547 19.69634766 -40 19 C-37.24107985 17.8747318 -34.49211125 16.7281273 -31.75 15.5625 C-31.05302002 15.26649902 -30.35604004 14.97049805 -29.63793945 14.66552734 C-25.27086404 12.7440351 -22.04437841 10.64425566 -18.6328125 7.27734375 C-15.89800719 5.13791471 -12.75911878 4.50575128 -9.4375 3.66015625 C-7.15000532 3.04062644 -5.14465696 2.24637188 -3 1.25 C-2.01 0.8375 -1.02 0.425 0 0 Z " fill="#9FD193" transform="translate(419,58)"/>
<path d="M0 0 C-5.13809375 10.81335185 -15.78684151 17.31052587 -25.07421875 24.3203125 C-32.31181858 29.95292157 -37.33560521 36.25148067 -42.25 43.9609375 C-44.0067584 46.46187828 -45.45778714 47.85220327 -48.421875 48.66015625 C-50.17044972 48.96085046 -51.92993008 49.20573767 -53.6953125 49.3828125 C-56.65154096 50.17448046 -57.4310314 51.44658052 -59 54 C-58.65120827 49.81449926 -58.04245173 46.81029335 -56 43.125 C-53.68477391 38.84686483 -53.2226711 34.80969579 -53 30 C-54.65 30 -56.3 30 -58 30 C-56.47091642 26.94183284 -53.53838249 26.16331498 -50.5625 24.75 C-42.8312642 20.98533453 -35.25189483 16.96351257 -27.6875 12.875 C-26.603479 12.28944336 -25.51945801 11.70388672 -24.40258789 11.10058594 C-23.34547607 10.52856445 -22.28836426 9.95654297 -21.19921875 9.3671875 C-20.16716309 8.80999023 -19.13510742 8.25279297 -18.07177734 7.67871094 C-16.00477237 6.54910307 -13.94783583 5.40089471 -11.90087891 4.23535156 C-10.92940918 3.68588867 -9.95793945 3.13642578 -8.95703125 2.5703125 C-8.09698486 2.07547363 -7.23693848 1.58063477 -6.35083008 1.07080078 C-4 0 -4 0 0 0 Z " fill="#9DD092" transform="translate(280,93)"/>
<path d="M0 0 C4.78707396 2.16451187 7.68412661 7.45500401 10.08203125 11.94140625 C10.45359857 15.12202255 10.02298591 16.82449393 9.08203125 19.94140625 C8.42203125 19.94140625 7.76203125 19.94140625 7.08203125 19.94140625 C6.89640625 20.74578125 6.71078125 21.55015625 6.51953125 22.37890625 C4.14990384 28.25146113 0.51971436 33.49869584 -4.98046875 36.75390625 C-9.07913445 39.80610411 -10.51481159 43.58346501 -12.62109375 48.1640625 C-13.91796875 50.94140625 -13.91796875 50.94140625 -15.91796875 53.94140625 C-16.90796875 53.94140625 -17.89796875 53.94140625 -18.91796875 53.94140625 C-18.30805984 50.38360429 -17.33960065 47.25854735 -15.91796875 43.94140625 C-15.25796875 43.94140625 -14.59796875 43.94140625 -13.91796875 43.94140625 C-13.39209912 40.8959352 -12.90775351 37.85988658 -12.5234375 34.79296875 C-11.42134028 26.28519024 -9.93725117 18.55683219 -2.91796875 12.94140625 C-2.25796875 12.94140625 -1.59796875 12.94140625 -0.91796875 12.94140625 C-2.22692595 9.81943147 -2.22692595 9.81943147 -4.91796875 7.94140625 C-5.10546875 5.06640625 -5.10546875 5.06640625 -4.91796875 1.94140625 C-1.91796875 -0.05859375 -1.91796875 -0.05859375 0 0 Z " fill="#9ACD8F" transform="translate(248.91796875,308.05859375)"/>
<path d="M0 0 C0 3 0 3 -1.44262695 4.8033905 C-2.45522583 5.80599663 -2.45522583 5.80599663 -3.48828125 6.82885742 C-4.62946411 7.96970039 -4.62946411 7.96970039 -5.79370117 9.1335907 C-6.62490479 9.94931046 -7.4561084 10.76503021 -8.3125 11.60546875 C-9.15594971 12.44467361 -9.99939941 13.28387848 -10.8684082 14.14851379 C-13.57200158 16.8352738 -16.28582468 19.51143435 -19 22.1875 C-20.8314109 24.00387017 -22.66214909 25.8209189 -24.4921875 27.63867188 C-28.98700658 32.1003598 -33.49027501 36.55338177 -38 41 C-38.66 40.67 -39.32 40.34 -40 40 C-14.81382159 12.78381021 -14.81382159 12.78381021 -3.41796875 3.19921875 C-1.85892049 1.91444826 -1.85892049 1.91444826 0 0 Z " fill="#8CB781" transform="translate(381,147)"/>
<path d="M0 0 C-1 2 -2 4 -3 6 C-2.01 6.66 -1.02 7.32 0 8 C-0.3125 10.875 -0.3125 10.875 -1 14 C-1.99 14.66 -2.98 15.32 -4 16 C-5.80271782 14.19728218 -5.21502284 11.55591251 -5.25 9.125 C-5.27578125 8.05507813 -5.3015625 6.98515625 -5.328125 5.8828125 C-5 3 -5 3 -3.609375 1.1171875 C-2 0 -2 0 0 0 Z " fill="#5EAC68" transform="translate(210,267)"/>
<path d="M0 0 C0.66 0.33 1.32 0.66 2 1 C1.06862408 2.29608947 0.1296434 3.58671632 -0.8125 4.875 C-1.33457031 5.59429687 -1.85664063 6.31359375 -2.39453125 7.0546875 C-4 9 -4 9 -7 11 C-9.6875 11.125 -9.6875 11.125 -12 11 C-8.19588166 7.08060535 -4.18423892 3.50897269 0 0 Z " fill="#269247" transform="translate(399,131)"/>
<path d="M0 0 C0.66 0.33 1.32 0.66 2 1 C0.66786942 4.5865054 -0.76916059 7.87682483 -3 11 C-3.99 11 -4.98 11 -6 11 C-5.39147692 7.45028204 -4.61653196 4.23306391 -3 1 C-2.01 0.67 -1.02 0.34 0 0 Z " fill="#81C681" transform="translate(236,351)"/>
<path d="M0 0 C-0.33 0.66 -0.66 1.32 -1 2 C-1.99 2 -2.98 2 -4 2 C-6.58618137 4.22068712 -6.58618137 4.22068712 -9.1875 7 C-10.53908203 8.3921875 -10.53908203 8.3921875 -11.91796875 9.8125 C-12.60503906 10.534375 -13.29210937 11.25625 -14 12 C-14.66 11.67 -15.32 11.34 -16 11 C-14.37860535 9.18415766 -12.75313264 7.3722838 -11.125 5.5625 C-10.66480469 5.04623047 -10.20460938 4.52996094 -9.73046875 3.99804688 C-4.8201196 -1.44603588 -4.8201196 -1.44603588 0 0 Z " fill="#8AC484" transform="translate(299,132)"/>
<path d="M0 0 C0.73476563 0.47566406 0.73476563 0.47566406 1.484375 0.9609375 C5.001677 2.41373615 8.49665393 2.46584752 12.25 2.625 C12.99507813 2.66367188 13.74015625 2.70234375 14.5078125 2.7421875 C16.3381524 2.83605108 18.16904143 2.91909718 20 3 C20 3.33 20 3.66 20 4 C12.74 4 5.48 4 -2 4 C-1.34 2.68 -0.68 1.36 0 0 Z " fill="#298F4A" transform="translate(351,122)"/>
<path d="M0 0 C-1.38188453 3.21043882 -2.92421903 5.04936365 -5.625 7.25 C-6.57246094 8.03117188 -6.57246094 8.03117188 -7.5390625 8.828125 C-8.02117187 9.21484375 -8.50328125 9.6015625 -9 10 C-7.6834994 5.81113445 -4.97532335 0 0 0 Z " fill="#86C985" transform="translate(93,235)"/>
<path d="M0 0 C0.66 0.33 1.32 0.66 2 1 C-1.63 4.63 -5.26 8.26 -9 12 C-9 8.00102358 -7.64683965 6.93298448 -5 4 C-3.36643049 2.62631655 -1.7074998 1.28062485 0 0 Z " fill="#2FA455" transform="translate(381,97)"/>
<path d="M0 0 C-1.50223584 4.20626034 -4.28550034 5.73900021 -8 8 C-5.18918919 0 -5.18918919 0 0 0 Z " fill="#58B669" transform="translate(123,372)"/>
<path d="M0 0 C1.32 0.33 2.64 0.66 4 1 C4 2.32 4 3.64 4 5 C2.02 5.99 2.02 5.99 0 7 C0 4.69 0 2.38 0 0 Z " fill="#8AC886" transform="translate(206,274)"/>
<path d="M0 0 C0.66 0.33 1.32 0.66 2 1 C0.7934375 2.0828125 0.7934375 2.0828125 -0.4375 3.1875 C-3.02292072 6.02515689 -3.68042813 7.27166147 -4 11 C-4.33 11 -4.66 11 -5 11 C-5.3125 7.75 -5.3125 7.75 -5 4 C-2.5 1.5625 -2.5 1.5625 0 0 Z " fill="#38A759" transform="translate(351,215)"/>
<path d="M0 0 C0.66 0.33 1.32 0.66 2 1 C0.38405168 3.04119788 -1.2856382 5.04072937 -3 7 C-3.66 7 -4.32 7 -5 7 C-3.70700306 4.11562221 -2.34058637 2.12780579 0 0 Z " fill="#7EC781" transform="translate(61,273)"/>
</svg>