<svg xmlns="http://www.w3.org/2000/svg" viewBox="0 0 132.14 92.1" fill="#4f62d0"
  style="filter: drop-shadow(0 0 4px rgba(0, 0, 0, 0.2))">
  <path
    d="M39.08 79l-.08-.71-2.2-14.93-.55-3.21-.84 3.21c-.23.86-.45 1.71-.66 2.57-.5 1.94-1 3.95-1.58 5.89l-.22.78a42.05 42.05 0 01-2.22 6.4 16.73 16.73 0 01-12.34 10A16 16 0 01.48 79.73a5.71 5.71 0 012.8-7.5 5.83 5.83 0 012.38-.52A5.61 5.61 0 0110.73 75c.94 2 2.35 3 4.19 3a5.24 5.24 0 004.7-2.26 16.4 16.4 0 002-4.81l.22-.72c2.05-6.88 3.55-13.83 4.74-19.72.15-.74.29-1.48.43-2.22.3-1.6.61-3.25 1-4.82C29 39.53 31.33 37 34.87 36a8.82 8.82 0 012.49-.36 9.48 9.48 0 018.23 5.17 11.71 11.71 0 011.34 4.7c.18 2 .4 4.09.62 6.13.1.9.33 3.1.33 3.1.12 1.24.25 2.48.37 3.73s1 1.3 1.23 1.3a1.73 1.73 0 00.55-.11 17.92 17.92 0 015.67-1 16.71 16.71 0 017.87 2 2 2 0 00.34.14l1 .39.37-1L68 50.3l7.81-29c1.2-4.48 2.4-9 3.64-13.42 1.09-3.95 3.34-6.39 6.87-7.48a8.81 8.81 0 012.6-.4 9.65 9.65 0 018.37 5.19 12.5 12.5 0 011.46 6.48c-.2 7.38-.11 14.66.09 23.3.12 4.7.27 8.84.49 12.65a170.51 170.51 0 001.8 18.27l.06.39a20.14 20.14 0 001.52 5.72c1.61 3.27 4 5.2 7.17 5.71a21.94 21.94 0 003.54.27c1 0 2-.06 3.13-.16a18.33 18.33 0 007.36-2.34 5.27 5.27 0 012.6-.67 5.67 5.67 0 012.89 10.52 25.63 25.63 0 01-9.71 3.5 40.22 40.22 0 01-6.1.47 35.31 35.31 0 01-4.75-.31A20.47 20.47 0 0194 79.46a27 27 0 01-3.82-10.41c-.77-4.22-1.19-8.5-1.56-12.53-.52-5.78-.76-11.63-.94-17.09 0-1-.07-2.1-.1-3.16 0-1.51-.09-3-.15-4.54 0-1.15 0-6.68-1.15-6.81l-.91 4.59-.37 1.16c-.22.77-.43 1.55-.64 2.32L75.73 65c-.37 1.37-.73 2.75-1.1 4.12-1 3.61-1.95 7.33-3 11a16.79 16.79 0 01-16 12c-.49 0-1 0-1.46-.07a16.49 16.49 0 01-14.96-12.59zm16.46-11.28a7.76 7.76 0 00-7.6 7.67A7.52 7.52 0 0055.48 83h.16a7.6 7.6 0 007.6-7.41 7.64 7.64 0 00-7.58-7.9z" />
</svg>
