<svg xmlns="http://www.w3.org/2000/svg" xml:space="preserve" width="150.668" height="150.572"><linearGradient id="a" x1="-328.666" x2="-328.666" y1="295.072" y2="145.5" gradientTransform="matrix(1 0 0 -1 404 295.572)" gradientUnits="userSpaceOnUse"><stop offset="0" style="stop-color:#169a84"/><stop offset="1" style="stop-color:#169a84"/></linearGradient><path fill="url(#a)" stroke="#0B4F43" stroke-miterlimit="10" d="M127.761 150.072H22.906C10.552 150.072.5 140.316.5 128.323V22.249C.5 10.258 10.552.5 22.906.5h104.855c12.354 0 22.406 9.756 22.406 21.749v106.074c.001 11.991-10.051 21.749-22.406 21.749z"/><path fill="#FFF" stroke="#0B4F43" d="M56.78 147.937c13.162-15.952 12.829-35.575 12.829-35.575.24-20.721-33.349-18.773-42.98-17.928l-4.782.256a7.41 7.41 0 0 1-7.047 5.055c-4.141 0-7.565-3.401-7.565-7.533 0-4.161 3.422-7.567 7.565-7.567 3.133 0 5.812 1.945 6.913 4.67l4.242-.155c19.817-.95 16.369-17.048 12.047-23.504l-7.251-14.605a6 6 0 0 1-1.268.146 7.524 7.524 0 0 1-7.538-7.527 7.52 7.52 0 0 1 7.538-7.527 7.52 7.52 0 0 1 7.531 7.527c0 1.768-.636 3.375-1.616 4.656l7.175 15.332c1.842 3.785 12.122 23.147 22.32 19.835 0 0 19.697-11.726-18.018-50.319l-4.676-5.154c-.76.22-1.569.386-2.427.386a7.524 7.524 0 0 1-7.533-7.533 7.52 7.52 0 0 1 7.533-7.524 7.52 7.52 0 0 1 7.533 7.524c0 1.252-.294 2.487-.845 3.493l8.374 9.019c2.862 2.96 9.241 10.554 13.675 9.987 0 0 4.649.764 11.755-9.732l5.024-7.372c-1.421-1.367-2.328-3.258-2.328-5.394 0-4.163 3.424-7.524 7.561-7.524s7.569 3.361 7.569 7.524c0 4.168-3.431 7.533-7.569 7.533-.078 0-.202-.033-.329-.04l-5.161 6.671c-3.46 4.092-16.365 20.965-8.307 35.62 0 0 12.997 15.634 24.718-20.306-.004-.078.056-.027.033-.099l3.847-13.839a7.67 7.67 0 0 1-2.113-5.253c0-4.161 3.364-7.527 7.533-7.527s7.534 3.366 7.534 7.527a7.52 7.52 0 0 1-7.534 7.527c-.233 0-.361-.049-.589-.065l-2.451 8.876c-1.764 6.595-6.507 16.577-1.891 19.445 0 0 4.136 2.756 25.083.258l.184-.009c.76-3.24 3.713-5.709 7.247-5.709a7.52 7.52 0 0 1 7.531 7.525 7.52 7.52 0 0 1-7.531 7.529c-3.07 0-5.806-1.862-6.937-4.542l-6.7.461c-.009-.009-38.981.688-37.524 16.317 0 0 1.618 10.352 24.113 4.818l13.404-3.783c.592-3.57 3.697-6.274 7.39-6.274a7.523 7.523 0 0 1 7.531 7.527 7.524 7.524 0 0 1-7.531 7.531 7.57 7.57 0 0 1-6.306-3.39l-13.23 3.594c-9.183 2.566-24.389 7.737-25.868 22.786 0 0-2.992 15.258 4.555 26.354"/><path fill="#169A84" stroke="#169A84" stroke-miterlimit="10" d="M42.197 20.676c0 1.326-1.071 2.452-2.393 2.452-1.326 0-2.429-1.127-2.429-2.452 0-1.322 1.103-2.36 2.429-2.36 1.321 0 2.393 1.038 2.393 2.36zM31.94 43.59c0 1.326-1.071 2.452-2.393 2.452-1.326 0-2.429-1.127-2.429-2.452 0-1.322 1.103-2.36 2.429-2.36 1.322-.002 2.393 1.038 2.393 2.36zM17.265 92.211c0 1.326-1.071 2.452-2.393 2.452-1.326 0-2.429-1.127-2.429-2.452 0-1.322 1.103-2.36 2.429-2.36 1.322-.002 2.393 1.038 2.393 2.36zm123.822-23.197c0 1.326-1.071 2.452-2.393 2.452-1.326 0-2.429-1.127-2.429-2.452 0-1.322 1.103-2.36 2.429-2.36 1.322 0 2.393 1.038 2.393 2.36zm-6.526 22.096c0 1.326-1.071 2.452-2.393 2.452-1.326 0-2.429-1.127-2.429-2.452 0-1.322 1.103-2.36 2.429-2.36 1.322-.001 2.393 1.038 2.393 2.36zm-21.229-60.265c0 1.326-1.071 2.452-2.393 2.452-1.326 0-2.429-1.127-2.429-2.452 0-1.322 1.103-2.36 2.429-2.36 1.322 0 2.393 1.038 2.393 2.36zM93.067 20.806c0 1.326-1.071 2.452-2.393 2.452-1.326 0-2.429-1.127-2.429-2.452 0-1.322 1.103-2.36 2.429-2.36 1.322-.002 2.393 1.038 2.393 2.36z"/></svg>