<svg xmlns="http://www.w3.org/2000/svg" xml:space="preserve" id="Layer_1" x="0" y="0" version="1.1" viewBox="0 0 512 512"><style>.st1{fill:#22b573}.st2{fill:none}.st3{fill:#ef8031}.st8{fill:#1d995e}.st13{fill:#91be4a}</style><path d="M257.5 496.4C124.7 496.4 17.1 388.7 17.1 256c0-132.8 107.7-240.4 240.5-240.3S497.9 123.3 497.9 256c0 63.8-25.4 124.9-70.5 170-44.9 45.2-106.1 70.6-169.9 70.4" style="fill:#f2f2f2"/><path d="M257.5 23.7c127.9.2 231.4 104 231.3 231.8s-104 231.4-231.9 231.2S25.4 382.8 25.6 254.9C25.7 162 81.4 78.1 167 41.9c28.6-12.1 59.4-18.3 90.5-18.2m0-16.1C120.3 7.6 9 118.8 9 256s111.3 248.4 248.5 248.4S506 393.2 506 256 394.7 7.6 257.5 7.6" class="st1"/><path d="m323.4 212.3.4.3 134.4 32.5z" class="st2"/><path d="M254.8 9.6c-61.6-.1-121 22.9-166.5 64.4l22.7 82.5 112.8-84.1 134.6 23 42.7 39.4 57.1 110.4-81.3 80.9 5-65.6-43.2 9-36.1-21.4 79.3 12.4-92.2-14.4 22.7 184.2-26.5 72.1C407.8 487.1 502 383.1 502 257.1 502.1 120.3 391.4 9.6 254.8 9.6" class="st2"/><path d="m323.4 212.3 134.8 32.8-57.1-110.4z" class="st3"/><path d="m323.7 212.6 58.2 47.7 76.3-15.2z" style="fill:#f7931e"/><path d="m381.9 260.3-5 65.6 81.3-80.8z" style="fill:#f15a24"/><path d="m323.7 212.6-.4-.3-33.7 33.6 92.2 14.4-58.6-47.8z" class="st3"/><path d="m323.7 212.6-.5-.1 58.6 47.8z" class="st3"/><path d="m302.6 247.9 36.1 21.4 43.2-9z" style="fill:#8c6239"/><path d="M115.8 461.4c13.6 9.3 28.1 17.1 43.3 23.5l153.4-54.8-22.7-184.2L153.4 326z" style="fill:#25c77e"/><path d="m87.5 209.2-44.8-79.5C19.6 168.1 7.4 212.1 7.5 256.8c0 84.9 42.8 159.8 108.1 204.4l37.8-135.3-67.3-113.6z" class="st1"/><path d="m115.8 461.4 37.5-135.5-37.8 135.3z" class="st1"/><path d="m42.7 129.6 44.8 79.5 23.6-52.7L88.4 74c-17.9 16.2-33.2 34.9-45.7 55.6" class="st8"/><path d="m87.5 209.2-44.7-79.6-.1.1z" class="st8"/><path d="m153.3 325.9 136.4-80.1-178.6-89.4zM87.5 209.2l-1.4 3.1L153.3 326zm0-.1 65.8 116.8-42.2-169.5zm0 .1 65.9 116.7z" style="fill:#39b54a"/><path d="M159.1 484.9c30.3 12.7 62.8 19.2 95.7 19.2 10.4 0 20.8-.6 31.2-1.9l26.5-72.1z" style="fill:#2ce58c"/><path d="m289.7 245.9 33.7-33.6 77.7-77.6-88-2zm28-92.1 10.4-3.5 8.2 7.2-2.1 10.7-10.4 3.5-8.2-7.2z"/><path d="m289.7 245.9 23.4-113.1-89.3-60.4z" style="fill:#fde92b"/><path d="m358.4 95.3-134.6-23 89.3 60.4 87.9 1.9z" class="st13"/><path d="M289.7 245.9 223.8 72.3l-112.7 84.1z" class="st13"/><path d="m323.8 171.8 10.4-3.5 2.1-10.7-8.2-7.2-10.4 3.5-2.1 10.7z" style="fill:#fff"/></svg>