<svg xmlns="http://www.w3.org/2000/svg" id="Layer_1" data-name="Layer 1" viewBox="24.79 9.73 309.67 340.38"><defs><style>.cls-2{fill:#417598}</style></defs><path d="m308.817 81.557-108.16-61.715a42.19 42.19 0 0 0-42.056-.004L50.339 81.65a42.11 42.11 0 0 0-21.057 36.41v123.62a42.48 42.48 0 0 0 21.154 36.503l108.16 61.806a42.07 42.07 0 0 0 42.058.001l108.259-61.81a42.24 42.24 0 0 0 21.058-36.41V118.06a42.49 42.49 0 0 0-21.154-36.504M169.735 320.52l-108.059-61.8a19.82 19.82 0 0 1-9.845-17.041V118.06a19.77 19.77 0 0 1 9.739-17.033l108.274-61.73a19.7 19.7 0 0 1 9.795-2.63 18.8 18.8 0 0 1 9.883 2.554l108.143 61.796a19.82 19.82 0 0 1 9.846 17.043v123.618a19.76 19.76 0 0 1-9.738 17.032l-108.274 61.82a19.9 19.9 0 0 1-9.905 2.638 19.55 19.55 0 0 1-9.859-2.65" style="fill:#fff"/><path d="M334.463 118.048A47 47 0 0 0 311.05 77.66L202.897 15.947a46.69 46.69 0 0 0-46.53-.006L48.106 77.753A46.62 46.62 0 0 0 24.79 118.06v123.63a47 47 0 0 0 23.41 40.39l108.163 61.806a46.57 46.57 0 0 0 46.52.002l108.268-61.815a46.75 46.75 0 0 0 23.31-40.305Zm-4.492 123.72a42.24 42.24 0 0 1-21.058 36.41L200.654 339.99a42.07 42.07 0 0 1-42.059-.001l-108.16-61.806a42.48 42.48 0 0 1-21.153-36.503V118.06a42.11 42.11 0 0 1 21.057-36.41l108.262-61.812a42.19 42.19 0 0 1 42.057.004l108.16 61.715a42.49 42.49 0 0 1 21.153 36.504Z" class="cls-2"/><path d="M297.773 258.711a19.76 19.76 0 0 0 9.738-17.032V118.06a19.82 19.82 0 0 0-9.846-17.043L189.522 39.222a18.8 18.8 0 0 0-9.883-2.555 19.7 19.7 0 0 0-9.795 2.63L61.57 101.028a19.77 19.77 0 0 0-9.74 17.034V241.68a19.82 19.82 0 0 0 9.846 17.042l108.059 61.799a19.55 19.55 0 0 0 9.859 2.65 19.9 19.9 0 0 0 9.905-2.64Z" class="cls-2"/></svg>