<svg xmlns="http://www.w3.org/2000/svg" id="LOGO" viewBox="239 215.58 772 271.84"><defs><style>.cls-1{fill:#001a70}.cls-2{fill:#76bc21;fill-rule:evenodd}</style></defs><path d="M239.725 446.63h179.778v2.562H239.725zm590.777 0h179.778v2.562H830.502z" class="cls-1"/><path d="M887.585 249.231v23.75h-16.3a94 94 0 0 0-19.773 1.726 44.5 44.5 0 0 0-14.159 5.659c-7.935 4.968-11.948 11.1-11.948 18.387q0 10.273 11.468 17.666a44.5 44.5 0 0 0 14.959 6.109 104.6 104.6 0 0 0 21.344 1.777h14.41v23.75h-21.745q-29.359 0-48.142-6.874c-15.77-5.814-26.838-14.24-33.332-25.207a33.15 33.15 0 0 1-4.963-17q0-11.378 8.275-22.1a57.9 57.9 0 0 1 16.541-14.329c9.987-5.949 21.915-9.8 35.713-11.668a207 207 0 0 1 27.558-1.65Zm45.169-33.653v57.093l.331 1.14c14.789 1.907 30.76-1.74 38.154-15.064a32.8 32.8 0 0 0 4.774-9.516h32.687c5.764 16.935-8.826 31.825-23.455 37.679 23.535 15.525 26.567 32.436 25.6 61.145H972c.6-23-3.032-49.783-39.316-47.6l.07 47.6h-40.736V215.578ZM402.377 348.986h74.559l5.943-.175c24.787-.731 41.388-20.2 41.578-41.437.22-23.676-21.5-38.3-46.491-38.3h-44.249c-6.754 0-11.287-5.749-11.677-11.492A12.93 12.93 0 0 1 434.748 244H517.5v-28.2h-84.193c-32.151 0-45.87 17.936-46.491 39.521-.61 21.073 16.591 41.787 41.378 41.787h45.88l5.123.345a11.125 11.125 0 0 1 10.447 10.442c.45 6.619-6.144 12.713-13.929 12.713l-91.47.365.621-105.358-56.247-.02c-17.612-.271-26.8 10.441-33.363 25.386L239 348.641v.17l44.839-.366 44.119-91.494c5.6-9.732 8.746-11.183 18.933-10.072l-.031 102.107ZM592.9 215.578c10.868.351 19.373-.645 26.418 1.446 15 4.183 23.1 10.833 27.048 18.993a31.46 31.46 0 0 1 2.942 14.249c0 9.141-2.712 16.966-8.826 22.825a30 30 0 0 1-9 6.224 73.2 73.2 0 0 1-14.64 4.408c24.467 13.639 30.88 28.764 30.88 64H605.29c-.07-35.778-14.28-49.8-44.309-49.448v49.783H529.19v-132.48Zm-31.92 51.414h29.94c7.125 0 11.378-1.351 13.509-3.552a9.5 9.5 0 0 0 2.6-6.605 7.94 7.94 0 0 0-3.572-7.139c-2.4-1.541-6.395-2.682-11.548-2.682l-30.93.025zm151.11 10.802c12.358 0 22.434 9.361 22.434 20.849s-10.076 20.844-22.434 20.844-22.435-9.362-22.435-20.844 10.077-20.849 22.435-20.849" class="cls-2"/><path d="M712.09 249.231c35.913 0 65.192 22.2 65.192 49.412S748 348.055 712.09 348.055s-65.193-22.2-65.193-49.412 29.279-49.412 65.193-49.412m0 21.574c16.5 0 29.959 12.5 29.959 27.838s-13.459 27.833-29.959 27.833-29.95-12.5-29.95-27.833 13.449-27.838 29.95-27.838m280.903-49.047a8.646 8.646 0 1 1-8.645 8.64 8.67 8.67 0 0 1 8.645-8.64m0-2.052a10.7 10.7 0 1 1-10.706 10.694 10.71 10.71 0 0 1 10.706-10.692Z" class="cls-2"/><path d="M988.631 235.867V224.93h4.653a7.9 7.9 0 0 1 2.542.3 2.52 2.52 0 0 1 1.27 1.051 3.1 3.1 0 0 1 .481 1.715 2.9 2.9 0 0 1-.731 2.042 3.46 3.46 0 0 1-2.151 1.006 5.4 5.4 0 0 1 1.18.92 15 15 0 0 1 1.261 1.776l1.321 2.127h-2.631l-1.6-2.372a15 15 0 0 0-1.161-1.606 1.7 1.7 0 0 0-.661-.46 3.6 3.6 0 0 0-1.11-.125h-.451v4.563Zm2.211-6.3h1.621a8.8 8.8 0 0 0 2-.136 1.15 1.15 0 0 0 .611-.465 1.4 1.4 0 0 0 .23-.821 1.3 1.3 0 0 0-.3-.89 1.36 1.36 0 0 0-.84-.425c-.171-.025-.711-.045-1.6-.045h-1.722z" class="cls-2"/><path d="M716.758 413.313v17.812h-12.223a70.8 70.8 0 0 0-14.83 1.29 33.5 33.5 0 0 0-10.617 4.248c-5.949 3.723-8.956 8.321-8.956 13.784q0 7.709 8.591 13.249a33.5 33.5 0 0 0 11.222 4.583 78.5 78.5 0 0 0 16.01 1.331h10.8v17.812h-16.308q-22 0-36.094-5.159c-11.832-4.358-20.128-10.677-25-18.9a24.86 24.86 0 0 1-3.722-12.749q0-8.526 6.209-16.566a43.4 43.4 0 0 1 12.4-10.747c7.485-4.458 16.431-7.349 26.777-8.75a156 156 0 0 1 20.669-1.236Zm35.083-25.237v42.813l.245.856c11.082 1.431 23.065-1.306 28.614-11.3a24.7 24.7 0 0 0 3.577-7.135h24.506c4.333 12.7-6.609 23.865-17.582 28.254 17.652 11.642 19.924 24.325 19.2 45.855H781.27c.45-17.252-2.277-37.335-29.484-35.7l.055 35.7h-30.55v-99.343Zm-256.624 0c8.151.266 14.535-.48 19.819 1.086 11.247 3.137 17.316 8.125 20.273 14.244a23.55 23.55 0 0 1 2.216 10.682c0 6.855-2.036 12.724-6.629 17.117a22.4 22.4 0 0 1-6.735 4.667 55 55 0 0 1-10.982 3.308c18.347 10.226 23.161 21.82 23.161 48.242h-31.826c-.05-26.833-10.707-37.6-33.227-37.335v37.335h-23.846v-99.346Zm-23.93 38.555h22.454c5.334 0 8.531-1.01 10.127-2.661a7.12 7.12 0 0 0 1.947-4.953 5.95 5.95 0 0 0-2.672-5.354 16.5 16.5 0 0 0-8.661-2.011l-23.2.02v14.959Z" style="fill:#001a70;fill-rule:evenodd"/><path d="m631.1 411.272-40.812-.015c-10.066-.155-15.31 5.963-19.048 14.5l-33.216 61.666h29.956c8.4-17.417 16.786-31.046 25.192-48.452 3.187-5.554 3.9-6.389 9.711-5.749l-.015 54.2H631.1Z" class="cls-1"/></svg>