<svg xmlns="http://www.w3.org/2000/svg" xml:space="preserve" id="Layer_1" x="0" y="0" version="1.1" viewBox="0 0 340.2 171.5"><style>.st0{fill:#1ca07a}</style><g id="Page-1"><g id="logo"><g id="Group-23"><path id="Fill-22" d="M38.6 52.1c1.2-5 6-8.9 14-11.7 7.8-2.7 18.3-4.2 31.3-4.5 4.1-.1 11.4-.1 17.4.1-10 14-15.9 31.2-15.9 49.8q0 4.95.6 9.9-8.1-3.9-15-7.8C59.6 81.4 51 75.1 45.4 69c-5.8-6.3-8.1-12-6.8-16.9m202.8 82.6c9.7-13.9 15.3-30.8 15.3-49 0-3.7-.2-7.3-.7-10.8 5.3 2.6 11.7 6 15.3 8 11.3 6.4 19.9 12.8 25.5 18.8 5.8 6.3 8.1 12 6.8 17-1.2 5-6 8.9-14 11.7-7.8 2.7-18.3 4.2-31.3 4.5-5.3.2-11 .1-16.9-.2M9.2 68.1c7.1 7.7 18.1 15.9 32.6 24.1 13.9 7.9 30.4 15.5 48.6 22.6 11.9 33.1 43.5 56.7 80.6 56.7 16 0 30.9-4.4 43.7-12 0 0-42.7-7.1-66-25.8 3.2.9 6.4 1.7 9.6 2.5 45.4 11.4 89.2 17.2 123.5 16.4 16.7-.4 30.2-2.3 40.1-5.8 10.3-3.6 16.3-8.6 17.9-14.9s-1.4-13.6-8.7-21.6c-7.1-7.7-18.1-15.9-32.6-24.1-11.6-6.6-28.9-14.5-44.3-20.8C245.1 27.9 211.3 0 170.9 0c-25.1 0-47.7 10.8-63.3 28-11.5-.8-36.1-2.5-49.3-2.2-16.7.4-30.2 2.3-40.1 5.8C8 35.2 2 40.2.4 46.5s1.4 13.6 8.8 21.6" class="st0"/><path id="Fill-24" d="M69.5 138.4c0 7.7-6.3 14-14 14s-14-6.3-14-14 6.3-14 14-14c7.8 0 14 6.3 14 14" class="st0"/><path id="Fill-25" d="M287.2 43.9c0 4.6-3.8 8.4-8.4 8.4s-8.4-3.8-8.4-8.4 3.8-8.4 8.4-8.4 8.4 3.7 8.4 8.4" class="st0"/><path id="Fill-26" d="M88.1 152.4c0 2.9-2.3 5.2-5.2 5.2s-5.2-2.3-5.2-5.2 2.3-5.2 5.2-5.2 5.2 2.3 5.2 5.2" class="st0"/></g></g></g></svg>