<svg xmlns="http://www.w3.org/2000/svg" xmlns:xlink="http://www.w3.org/1999/xlink" xmlns:inkscape="http://www.inkscape.org/namespaces/inkscape" version="1.1" viewBox="26.74 31.33 696.52 687.34">
<defs>
<clipPath id="clip_0">
<path transform="matrix(1,0,0,-1,0,750)" d="M0 750H750V0H0Z"/>
</clipPath>
</defs>
<g inkscape:groupmode="layer" inkscape:label="Layer 1">
<g clip-path="url(#clip_0)">
<path transform="matrix(1,0,0,-1,428.0068,520.00686)" d="M0 0C64.61-31.36 129.221-62.722 193.453-94.46L110.328 65.366-8.69 4.912C-5.668 3.022-3.023 1.511 0 0M-295.848-89.17C-296.226-89.548-296.226-90.304-296.604-90.682L76.323 131.487-52.52 379.35C-54.031 377.083-56.298 373.304-57.432 370.659-133.755 221.413-211.59 72.923-289.425-75.568-292.069-80.102-293.958-84.636-295.848-89.17M217.635-193.075C121.663-142.445 25.692-92.948-70.278-43.074-155.67-93.704-239.928-145.846-326.453-194.587-338.543-201.388-357.813-198.743-369.904-193.453-388.418-185.896-400.887-165.871-401.265-146.224-401.265-137.911-400.131-129.221-396.353-121.664-294.714 74.057-192.698 269.776-91.438 465.875-81.614 485.145-58.188 493.079-38.162 486.278-27.583 482.877-19.271 474.943-14.358 465.875 88.791 269.776 190.43 72.545 291.69-124.309 295.469-131.488 295.469-141.312 295.091-148.868 292.824-175.317 271.287-196.099 244.839-197.987 235.393-198.743 226.325-197.231 217.635-193.075" fill="#1982ff"/>
</g>
</g>
</svg>