<svg xmlns="http://www.w3.org/2000/svg" style="display:inline" version="1.0" viewBox="0 6.88 128 114.12"><defs><clipPath id="a"><path d="m30 94 2 2 3 10 1-12 3 15V90l2 5 3 14V90l2 2 3 17 3-23 6.616 25.92L59 96l2-6 2 25 6-25 2 21 5-22 5 24 1-18 3-6 1 23 5-22 3 10 1-9 3 6V78l-3 8-1-17-2 13-2-4-1-14-5 19-1-4-3-30-3 26-2 8-4-27-4 23-2 6-1-41.305L58 90l-6-42-3 36-2-4-2-24-1 24-3 7-2-24-2 19-3-5v14l-4-15z" style="fill:none;stroke:#000;stroke-width:1px;stroke-linecap:butt;stroke-linejoin:miter;stroke-opacity:1"/></clipPath><clipPath id="b"><path d="M64 6.875c-13.263 0-25.359 4.14-34.281 11.094C20.796 24.922 15 34.87 15 45.938v4C6.141 54.426 0 66.2 0 80c0 17.664 10.05 32 23 32V45.938c0-8.289 4.29-15.916 11.656-21.657S52.425 14.875 64 14.875s21.977 3.666 29.344 9.406C100.71 30.021 105 37.65 105 45.938V112c12.95 0 23-14.336 23-32 0-13.8-6.141-25.574-15-30.062v-4c0-11.068-5.796-21.016-14.719-27.97C89.36 11.017 77.263 6.876 64 6.876M26 49v63c2 0 4-1 5-3V51c-1-1-3-2-5-2m76 0c-2 0-4 1-5 2v58c1 2 3 3 5 3z" style="fill:#000;fill-opacity:1;fill-rule:nonzero;stroke:none;stroke-width:18.98999977;marker:none;visibility:visible;display:inline;overflow:visible"/></clipPath></defs><path d="M61.156 42.522c-2.294 5.742-4.504 15.245-7.173 4.313-2.002-7.765-6.279 4.865-9.39 7.03-6.272 4.77-9.744 11.489-12.53 18.688-7.378-6.273-4.61 3.795-5.063 8.719.402 7.38-.8 15.452.594 22.406 5.854 5.102 10.09 13.154 18.802 13.05 5.96 2.071 5.213-6.94 10.616.538 4.973 6.816 8.044 2.83 11.29-.523 4.744 7.261 6.197-8.687 10.198-1.534 6.184 2.407 11.73 3.552 12.744-4.61 1.27-6.446 12.353-6.577 9.756-14.327-.362-8.041.72-16.656-.531-24.344-4.198-3.276-7.436-10.841-12.219-11.5-5.918 2.872-3.637-9.79-6.073-13.516-.796-9.786-2.892-5.361-5.17 1.35-1.262 9.66-6.562 5.055-9.27-1.268-2.408-2.025-5.153-12.723-6.58-4.472" style="fill:#f3e517;fill-opacity:1;fill-rule:evenodd;stroke:none"/><g clip-path="url(#a)" transform="translate(0 .272)"><path d="M28 116V43h72v73z" style="fill:#ff7901;fill-opacity:1;fill-rule:evenodd;stroke:none"/><path d="m29 80 8 5 3-9 5 6 6-10 2 12 2-8 3 6 1-6s3 8 3 7 4-15 4-15l4 13 6-12 3 13 5-9 3 9 5-5 6 6v8l-4 3-6-2-4-2-1 10-2-10-4 9-6-9-2 9-4-6-5 13-3-15-6 3-4-6-2 10-4-5-4 5-2-3-6 1z" style="fill:#ff0101;fill-opacity:1;fill-rule:evenodd;stroke:none"/></g><g clip-path="url(#b)" style="fill:#00c;fill-opacity:1" transform="translate(0 .272)"><path d="M64 6.875c-13.263 0-25.359 4.14-34.281 11.094C20.796 24.922 15 34.87 15 45.938v4C6.141 54.426 0 66.2 0 80c0 17.664 10.05 32 23 32V45.938c0-8.289 4.29-15.916 11.656-21.657S52.425 14.875 64 14.875s21.977 3.666 29.344 9.406C100.71 30.021 105 37.65 105 45.938V112c12.95 0 23-14.336 23-32 0-13.8-6.141-25.574-15-30.062v-4c0-11.068-5.796-21.016-14.719-27.97C89.36 11.017 77.263 6.876 64 6.876M26 49v63c2 0 4-1 5-3V51c-1-1-3-2-5-2m76 0c-2 0-4 1-5 2v58c1 2 3 3 5 3z" style="fill:#00c;fill-opacity:1;fill-rule:nonzero;stroke:none;stroke-width:18.98999977;marker:none;visibility:visible;display:inline;overflow:visible"/></g></svg>