<svg xmlns="http://www.w3.org/2000/svg" xmlns:svg="http://www.w3.org/2000/svg" fill="none" version="1.1" id="svg1" viewBox="0 9.2 55.17 36.78">
  <defs id="defs1"/>
  <g id="g2" transform="matrix(1.26246,0,0,1.26246,-18.77461,52.545894)">
    <path id="path14" d="m -1.85731,0 h -10.196516 c -1.233348,0 -2.734678,0.86495452 -3.353314,1.93193 l -13.950185,24.06019 c -0.51455,0.887455 -0.100071,1.60688 0.925765,1.60688 h 10.197421 c 1.233329,0 2.734611,-0.864955 3.353209,-1.93193 L -0.93156633,1.6067933 C -0.41707645,0.71938585 -0.83154601,0 -1.85731,0 Z" style="fill:#ffffff;fill-opacity:1;fill-rule:nonzero;stroke:none" transform="matrix(1.0555702,0,0,-1.0555702,59.3183,-5.20133)"/>
    <path id="path15" d="m 1.85731,0 h 11.721788 a 1.1540802,1.1540802 31.524546 0 1 1.028742,0.63102 l 1.235193,2.4293471 A 3.5938175,3.5938175 92.293376 0 1 15.70252,6.56896 l -5.682485,9.259307 A 1.4178308,1.4178308 2.9523013 0 1 7.53333,15.70002 L 0.80348345,1.6745193 A 1.1688624,1.1688624 122.18347 0 1 1.85731,0 Z" style="fill:#926dff;fill-opacity:1;fill-rule:nonzero;stroke:none" transform="matrix(1.0555702,0,0,-1.0555702,14.144745,-5.20133)"/>
  </g>
</svg>