<svg xmlns="http://www.w3.org/2000/svg" xml:space="preserve" id="Layer_1" x="0" y="0" version="1.1" viewBox="63.7 0 384.4 512"><style>.st0{fill:#f7f8f8}.st1{fill:#001d2e}</style><g id="a8fc1823-fed6-43dd-bcc9-4ad73cf572a5"><g id="a6265a28-3f94-4d66-8ba3-5c739f8705cb"><g id="ee8ddf76-bc83-4fcd-8f15-7391e59c7355"><path id="b95ee492-9081-4d55-8383-af696650044f" d="M256 502.7c-41.2 0-79.5-15.9-108-35S73.1 387.1 73.1 334V112.7c0-16.9 12.6-22 18.4-25.6s73.1-39 164.5-39 158.7 35.4 164.5 39 18.4 8.7 18.4 25.6V334c0 53.1-46.5 114.5-74.9 133.7s-66.7 35-108 35" class="st0"/><path id="a78e7d40-3673-4f5b-8941-b05c653b4706" d="M256 48.1c91.5 0 158.7 35.4 164.5 39s18.4 8.7 18.4 25.6V334c0 53.1-46.5 114.5-74.9 133.7s-66.8 35-108 35-79.5-15.9-108-35S73.1 387.1 73.1 334V112.7c0-16.9 12.6-22 18.4-25.6s73-39 164.5-39m0-9.3c-38.8 0-79.3 6.4-117.2 18.6-29.5 9.4-48.7 19.6-52.3 21.8-.5.3-1.2.7-2 1.1-6.8 3.9-20.8 12-20.8 32.3V334c0 17.9 4.9 47 28.2 84.5 15 24.1 34.5 45.9 50.8 56.9 20.3 13.7 62 36.6 113.2 36.6s92.9-22.9 113.2-36.6c16.4-11 35.9-32.8 50.8-56.9 23.3-37.4 28.2-66.6 28.2-84.5V112.7c0-20.4-14-28.4-20.8-32.3-.7-.4-1.4-.8-2-1.1-3.5-2.2-22.8-12.4-52.2-21.9-37.7-12.2-78.3-18.6-117.1-18.6" class="st1"/><path id="af7a376b-4984-4e58-b8c5-e8d9777f2ee6" d="M256 475.4c-35.8 0-69-14-93.7-31.1s-65-71.5-65-118.6V129.4c0-15 10.9-19.5 16-22.7 5.1-3.3 63.4-34.6 142.7-34.6s137.7 31.4 142.7 34.6 16 7.7 16 22.7v196.3c0 47.1-40.3 101.6-65 118.6s-57.9 31.1-93.7 31.1" style="fill:#feb203"/><linearGradient id="a17f28a3-d26f-4c14-9bb0-74338e4cba58_00000018237182410799234240000004265982764575529903_" x1="256.017" x2="256.017" y1="420.615" y2="211.477" gradientTransform="matrix(1 0 0 -1 0 512)" gradientUnits="userSpaceOnUse"><stop offset="0" style="stop-color:#f9d546"/><stop offset="1" style="stop-color:#feb203"/></linearGradient><path id="a17f28a3-d26f-4c14-9bb0-74338e4cba58" d="M256 454.7c-31.2 0-60.2-12.6-81.7-27.9s-56.7-64.2-56.7-106.4V144.2c0-13.5 9.5-17.5 13.9-20.4S186.8 92.7 256 92.7s120.1 28.2 124.5 31.1 13.9 6.9 13.9 20.4v176.2c0 42.3-35.2 91.2-56.7 106.4-21.5 15.3-50.5 27.9-81.7 27.9" style="fill:url(#a17f28a3-d26f-4c14-9bb0-74338e4cba58_00000018237182410799234240000004265982764575529903_)"/></g><g id="ee0afe21-807b-4051-bbe8-92e219e2c4c0"><linearGradient id="SVGID_1_" x1="256.017" x2="256.017" y1="272.83" y2="-89.206" gradientTransform="matrix(1 0 0 -1 0 512)" gradientUnits="userSpaceOnUse"><stop offset="0" style="stop-color:#f9d546"/><stop offset=".77" style="stop-color:#feb203"/></linearGradient><path d="m258.1 193.4-140.5 49.7v77.3c0 42.3 35.2 91.2 56.7 106.4s50.5 27.9 81.7 27.9 60.2-12.6 81.7-27.9 56.7-64.2 56.7-106.4v-78.2z" style="fill:url(#SVGID_1_)"/><path d="m315.8 225.3-36.5 133.3-13.9-66.4s9-5.3 9.7-15.3-5.6-12.9-7.8-14.4-9.3-2.2-9.3-2.2-7.1.7-9.3 2.2-8.5 4.4-7.8 14.4 9.7 15.3 9.7 15.3l-13.9 66.4-36.5-133.3.7-3.9 1.8-2.3c5.2 5.2 10.9 10 17 14.2 20.6 14.5 36.7 13.5 36.7 13.5s16 1 36.7-13.5c8.8-6.2 14.7-11.7 18.7-16l3.2 4.1z" class="st0"/><path d="M373.5 317.4c0 1-1 3.2-1 3.2l-28.7 28-12.6-11.4 21.4-18.7 2.2-3.9-32.9-59.8-57.2 204.6-6.6 2.7-6.6-2.7-57.2-204.6-32.9 59.8 2.3 3.9 21.4 18.7-12.6 11.4-28.7-28s-1-2.2-1-3.2 1-2.7 1-2.7l42.8-86.1s3.2-11.4 4.4-13.6c.5-1 2.3-3.4 4.1-5.8 2.2-3 4.5-5.9 4.5-5.9l7.5 10.5-4.1 5.3-1.7 2.3-.8 3.9L237 358.6l13.9-66.4s-9-5.3-9.7-15.3 5.6-12.9 7.8-14.4 9.3-2.2 9.3-2.2 7.1.7 9.3 2.2 8.5 4.4 7.8 14.4-9.7 15.3-9.7 15.3l13.9 66.4 36.5-133.3-.7-3.9-3.2-4.1-2.7-3.5 7.5-10.5 2.1 2.8c2.3 3 5.6 7.5 6.4 8.9 1.2 2.2 4.4 13.6 4.4 13.6l42.8 86.1c-.2.1.8 1.8.8 2.7" class="st1"/></g><g id="fb6e4dfc-d5e1-4499-b9dd-e0c43255ce0e"><path d="M335.1 146.2c-3 6-15.2 13.7-15.2 13.7l-.9 46.2v1.9s-1.7 3.5-7 9.3c-3.9 4.3-9.9 9.8-18.7 16-20.6 14.5-36.7 13.5-36.7 13.5s-16 1-36.7-13.5c-6.1-4.2-11.8-9-17-14.2-3-3-5.7-6.3-7.9-9.8-.5-.8-.7-1.2-.7-1.2l-1-48.1s-12.2-7.8-15.2-13.7c.2-3-.5-30.3 0-31.9s5.9-7.4 5.9-7.4-.7-45.3.2-53.4c1-8.1 4.6-22.3 24.5-38.6S254.2.6 256.6 0c2.4.6 28-1.5 47.9 14.9S328 45.5 329 53.5c1 8.1.2 53.4.2 53.4s5.4 5.8 5.9 7.4-.2 28.9 0 31.9" class="st1"/><linearGradient id="SVGID_00000045600394594230377640000002633415610385566871_" x1="166.504" x2="313.921" y1="341.606" y2="341.606" gradientTransform="matrix(1 0 0 -1 0 512)" gradientUnits="userSpaceOnUse"><stop offset=".02" style="stop-color:#f7f8f8"/><stop offset=".18" style="stop-color:#d8e7e4"/><stop offset=".39" style="stop-color:#b3d3cc"/><stop offset=".5" style="stop-color:#a5cbc3"/></linearGradient><path d="M258.1 229.3c-9 0-16.5-2.3-20.5-4.5s-11.6-6.2-21-20.1c-9.5-13.8-11.2-93.3-11.2-93.3l52.8 29.3 52.7-29.3s-1.7 79.4-11.2 93.3-17 17.9-21 20.1c-4.1 2.2-11.5 4.5-20.6 4.5" style="fill:url(#SVGID_00000045600394594230377640000002633415610385566871_)"/><path d="M258.1 138.9s15.1.2 22.9 0 20.4-4.1 20.4-4.1.2 27.1-5.5 48.5-11.9 26.4-19.1 30.8-10.3 4.4-18.8 4.4-17.2-.7-23.3-5.1-13.9-16.3-17.5-26.3-9.2-29.4-9.5-42.3 0-17 0-17 13.4 6.3 22.4 8.5c9.1 2.1 28 2.6 28 2.6" class="st0"/><path d="M249.3 130.1H266V180h-16.7zm0 59.6H266v3.9h-16.7z" class="st1"/></g><g id="aa29bb24-ad97-4cbe-a279-dc1b39b42476"><path d="M258.1 75.3c3.1 0-8.8-.7-17.2 1.6s-37 16.9-37 16.9-2.6 1.7-2.6-.9-.1-30.5.5-35.3 2.1-18.9 19.7-32.9 36.6-12.1 36.6-12.1 18.9-1.8 36.6 12.1 19.1 28.1 19.7 32.9.5 32.6.5 35.3c0 2.6-2.6.9-2.6.9s-28.6-14.6-37-17c-8.4-2.3-20.3-1.5-17.2-1.5" class="st0"/><linearGradient id="SVGID_00000159468889233323132340000002303251467591923134_" x1="258.149" x2="258.149" y1="483.011" y2="431.457" gradientTransform="matrix(1 0 0 -1 0 512)" gradientUnits="userSpaceOnUse"><stop offset="0" style="stop-color:#f9d546"/><stop offset=".54" style="stop-color:#feb203"/></linearGradient><path d="M258.1 24.7c-1.5-.1-22.6-.5-36.5 9.6s-19.5 22.5-20.1 27.2-.2 28.7-.2 31.3 2.6.9 2.6.9 28.6-14.6 37-16.9c5.6-1.4 11.4-2 17.2-1.6 5.8-.4 11.6.1 17.3 1.6 8.4 2.3 37 16.9 37 16.9s2.6 1.7 2.6-.9.4-26.6-.2-31.3-6.2-17.2-20.1-27.2-35.1-9.6-36.6-9.6" style="fill:url(#SVGID_00000159468889233323132340000002303251467591923134_)"/><circle cx="258.1" cy="52.3" r="16.7" class="st0"/><linearGradient id="SVGID_00000180359093725727545450000007728368955281374604_" x1="-3507.919" x2="-3507.919" y1="402.762" y2="419.927" gradientTransform="rotate(180 -1624.895 256)" gradientUnits="userSpaceOnUse"><stop offset="0" style="stop-color:#f9d546"/><stop offset=".54" style="stop-color:#feb203"/></linearGradient><path d="M258.1 124.1c-1.6.1-3.3-.3-4.8-1l-38.2-19.2s27.8-12.7 30.9-13.6c3.2-1 12.1-1.7 12.1-1.7s8.9.7 12.1 1.7 30.9 13.6 30.9 13.6l-38.2 19.2c-1.5.7-3.1 1-4.8 1" style="fill:url(#SVGID_00000180359093725727545450000007728368955281374604_)"/></g><g id="bec46b13-6bbe-4bad-ad86-36a6f0986c9b"><path d="M328.4 357.1h46.5c4.4 0 8 3.6 8 8v28.5c0 4.4-3.6 8-8 8h-46.5c-4.4 0-8-3.6-8-8v-28.5c0-4.4 3.6-8 8-8" class="st1"/><path d="M333.4 368.7h37.8c.7 0 1.3.6 1.3 1.3v18.4c0 .7-.6 1.3-1.3 1.3h-37.8c-.7 0-1.3-.6-1.3-1.3V370c-.1-.7.5-1.3 1.3-1.3" class="st0"/><path d="M337.3 374.9h28.5c.4 0 .7.3.7.7v7.9c0 .4-.3.7-.7.7h-28.5c-.4 0-.7-.3-.7-.7v-7.9c.1-.4.4-.7.7-.7" class="st1"/></g></g></g></svg>