<svg xmlns="http://www.w3.org/2000/svg" xmlns:xlink="http://www.w3.org/1999/xlink" viewBox="55.04 50.75 901.51 905.03"><defs><linearGradient xlink:href="#a" id="e" x1="97.533" x2="-434.618" y1="214.18" y2="-567.382" gradientUnits="userSpaceOnUse"/><linearGradient id="a"><stop offset="0" style="stop-color:#3e8b3b;stop-opacity:1"/><stop offset="1" style="stop-color:#3e8b3b;stop-opacity:0"/></linearGradient><linearGradient xlink:href="#b" id="f" x1="18.312" x2="15.686" y1="99.168" y2="-15.969" gradientUnits="userSpaceOnUse"/><linearGradient id="b"><stop offset="0" style="stop-color:#e7762d;stop-opacity:1"/><stop offset="1" style="stop-color:#e7762d;stop-opacity:0"/></linearGradient><linearGradient xlink:href="#c" id="g" x1="84.856" x2="321.579" y1="73.138" y2="289.475" gradientUnits="userSpaceOnUse"/><linearGradient id="c"><stop offset="0" style="stop-color:#02518b;stop-opacity:1"/><stop offset="1" style="stop-color:#02518b;stop-opacity:0"/></linearGradient><linearGradient xlink:href="#d" id="h" x1="103.96" x2="414.757" y1="150.818" y2="268.084" gradientUnits="userSpaceOnUse"/><linearGradient id="d"><stop offset="0" style="stop-color:#b20f1e;stop-opacity:1"/><stop offset="1" style="stop-color:#b20f1e;stop-opacity:0"/></linearGradient></defs><g style="opacity:1"><path d="M12.565 136.85h5.88c-.082 1.741.158 2.684 1.362 4.09 1.302 1.214 2.277 1.044 2.277 1.044l79.932.974 19.859 80.747c-.175 2.87-1.566 3.477-3.082 3.876l-106.002-.615-2.882-2.267c-1.424-1.75-1.283-4.931-.473-6.804.987-.792.977-2.165 3.307-2.173l26.08-2.835-27.402-3.024-1.607-1.984c-1.596-3.066-1.185-7.221.614-10.914l2.693-2.41 25.514-1.89-25.494-3.492-2.57-1.752c-2.89-3.418-1.466-8.269-.662-10.3.692-1.06 1.594-1.858 2.882-2.174l24.899-2.315-25.507-3.464c-1.24-.51-1.896-1.418-2.369-2.253-1.297-2.897-1.223-7.518-.094-9.827.87-1.223 1.677-2.093 3.506-2.48l25.22-2.386s-24.19-2.457-24.947-2.646-2.998-2.033-2.998-2.033c-2.734-2.252-1.679-6.399.189-9.163z" style="fill:url(#e);fill-opacity:1;stroke:none;stroke-width:.264583px;stroke-linecap:butt;stroke-linejoin:miter;stroke-opacity:1" transform="translate(11.5 -222.654)scale(4.9375)"/><path d="m102.017 142.962-17.16-69.82 3.023-4.913 22.65.088-.066-9.443c-.205-1.347-.932-2.432-2.646-3.024l-6.142-.284c-1.685.322-2.193 1.675-3.07 2.623l-.999 10.078-4.156-.016-.846-9.566c-.38-1.42-.762-2.835-2.74-3.024l-9.072-.095c-1.744.388-3.13 1.1-3.496 2.74l-2.457 26.46-2.646-25.042c.143-1.92-.841-3.231-2.837-3.994l-9.555.066c-1.085.433-2.24.512-3.073 2.205l-2.673 27.061-2.807-26.196c-.668-1.602-1.51-2.488-2.54-3.207h-9.287c-1.29.127-2.064 1.999-3.18 3.511l-2.508 25.686-2.645-25.041c-1.09-1.457-1.091-2.732-3.686-4.441l-5.102.094c-1.908.66-2.722 2.05-3.591 3.402l-.265 77.98c.014 1.229-.46 2.426.915 3.745.666.751 1.36 1.433 2.726 1.4z" style="fill:url(#f);fill-opacity:1;stroke:none;stroke-width:.264583px;stroke-linecap:butt;stroke-linejoin:miter;stroke-opacity:1" transform="translate(11.5 -222.654)scale(4.9375)"/><path d="m103.947 150.812 75.214-18.71c3.227-.115 4.075 1.187 4.453 2.268l.066 25.015 4.286-.134c2.394-.45 3.187-1.826 3.274-3.608l-.2-5.546c.06-1.337.142-2.691-2.228-3.073l-5.143-.464-.035-4.97 3.722-.138c1.709-.373 3.22-.932 3.608-2.539l-.267-10.022c-.827-1.043.003-2.362-3.208-3.007l-25.457-1.804 25.524-2.806c2.215-.094 2.459-1.634 3.475-2.606l.334-8.687c.34-2.8-1.58-3.146-3.207-3.808l-26.995-2.54 25.992-2.672c2.59-.326 3.21-1.586 3.431-3.034l.311-8.592c-.005-2.102-1.236-2.642-2.606-3.007l-26.393-2.673 25.124-2.606c2.18-.35 3.407-1.432 4.076-2.94l.066-5.278c.156-3.461-1.932-3.78-3.942-4.21l-99.343-.396c-1.634.712-3.378 1.261-3.023 4.913z" style="fill:url(#g);fill-opacity:1;stroke:none;stroke-width:.264583px;stroke-linecap:butt;stroke-linejoin:miter;stroke-opacity:1" transform="translate(11.5 -222.654)scale(4.9375)"/><path d="m103.947 150.812 17.928 72.893c-.2 3.298-2.041 3.497-3.083 3.876l-25.492-.149-.023 7.632c.6.881.196 1.679 2.138 2.672l6.816.668c1.485-.613 3.34-.8 3.272-3.208l.022-7.694 4.79.03.385 6.719c-.152 1.516.385 2.742 2.504 3.496l9.355.472c1.833-.85 2.763-2.111 3.213-3.59l2.456-25.325 2.868 25.76 2.806 3.207 8.686.4c2.186-.64 3.182-1.961 3.608-3.608l2.005-25.925 2.94 24.188c-.127 2.905 1.335 4.022 3.207 4.677l10.09-.334c3.073-.142 2.068-2.48 2.071-4.276l1.403-24.99 3.274 25.926c-.112 2.212 1.387 3.158 3.007 4.009l6.28-.2c3.264-.66 3.188-2.522 3.408-4.277l-.267-99.491c-.623-1.868-2.325-2.344-4.453-2.267z" style="fill:url(#h);fill-opacity:1;stroke:none;stroke-width:.264583px;stroke-linecap:butt;stroke-linejoin:miter;stroke-opacity:1" transform="translate(11.5 -222.654)scale(4.9375)"/></g></svg>