<svg xmlns="http://www.w3.org/2000/svg" width="191" height="191" fill="none"><g clip-path="url(#a)"><circle cx="96.152" cy="95.166" r="95.166" fill="#1E40AF"/><path fill="#fff" fill-rule="evenodd" d="M108.775 53.227a75.3 75.3 0 0 1 34.176-8.174c1.85.001 3.35 1.5 3.351 3.351a75.29 75.29 0 0 1-29.239 59.63 32.16 32.16 0 0 1-6.518 25.177 32.17 32.17 0 0 1-25.233 12.208 3.353 3.353 0 0 1-3.354-3.354V122.09a3 3 0 0 1-.224-.163 75.8 75.8 0 0 1-12.301-12.302 3 3 0 0 1-.166-.228H49.29a3.354 3.354 0 0 1-3.355-3.354 32.172 32.172 0 0 1 37.39-31.752 75.3 75.3 0 0 1 25.45-21.064m-29.836 27.36a25.464 25.464 0 0 0-26.074 22.102h16.79a75 75 0 0 1 9.284-22.102m-3.293 26.051a69 69 0 0 0 9.07 9.071 68.3 68.3 0 0 0 26.666-11.797l.005-.004a68.6 68.6 0 0 0 28.124-52.064 68.6 68.6 0 0 0-52.06 28.124l-.003.005a68.35 68.35 0 0 0-11.802 26.665m13.02 15.063a75 75 0 0 0 22.101-9.28 25.463 25.463 0 0 1-22.1 26.069zm21.862-44.724a3.851 3.851 0 1 0 0 7.702 3.851 3.851 0 0 0 0-7.703m-7.466-3.616a10.559 10.559 0 1 1 14.932 14.933 10.559 10.559 0 0 1-14.932-14.933m-38.78 42.16a3.353 3.353 0 0 1-.69 4.692 18.23 18.23 0 0 0-7.349 14.898 18.22 18.22 0 0 0 14.898-7.352 3.355 3.355 0 0 1 5.384 4.002 24.93 24.93 0 0 1-23.896 9.756 3.355 3.355 0 0 1-2.79-2.79 24.93 24.93 0 0 1 9.75-23.896 3.353 3.353 0 0 1 4.692.69" clip-rule="evenodd"/></g><defs><clipPath id="a"><path fill="#fff" d="M0 0h190.649v190.649H0z"/></clipPath></defs></svg>