<svg xmlns="http://www.w3.org/2000/svg" xmlns:xlink="http://www.w3.org/1999/xlink" xml:space="preserve" id="Layer_1" x="0" y="0" version="1.1" viewBox="0 0 512 512"><style>.st0{fill:#0b1b64;fill-rule:evenodd;clip-rule:evenodd}.st4{fill:#1f8df5}</style><path d="M256.015.05 477.76 128.01v256.023l-221.745 127.96L34.27 384.033V128.01z" class="st0"/><path d="m257.297 26.438 198.463 114.54V370.06L257.297 484.7 58.934 370.16V140.979z" class="st0"/><g transform="translate(-28.803 -13.716)scale(1.00386)"><defs><path id="SVGID_1_" d="m285 40 197.7 114.1v228.3L285 496.5 87.4 382.4V154.1z"/></defs><clipPath id="SVGID_00000140728964524564752000000014929550898083432362_"><use xlink:href="#SVGID_1_" style="overflow:visible"/></clipPath><g style="clip-path:url(#SVGID_00000140728964524564752000000014929550898083432362_)"><g transform="translate(24.257 24.526)scale(.99615)"><linearGradient id="SVGID_00000038380929061360578930000007690705763142279602_" x1="-45.491" x2="-44.6" y1="641.082" y2="641.082" gradientTransform="scale(-511.4198 511.4198)rotate(-89.932 -343.465 298.495)" gradientUnits="userSpaceOnUse"><stop offset="0" style="stop-color:#236be9"/><stop offset="1" style="stop-color:#236be9"/></linearGradient><path d="M-3.2-14.6h543.1v578.3H-3.2z" style="fill-rule:evenodd;clip-rule:evenodd;fill:url(#SVGID_00000038380929061360578930000007690705763142279602_)"/></g><path d="m361.59 87.543-114.387 28.75-8.183-32.557 114.386-28.75zM149.111 121.48l-85.61 81.128-23.092-24.368 85.61-81.128z" style="fill-rule:evenodd;clip-rule:evenodd;fill:#1f8df5"/><path d="M372.582 209.35c-25.945.276-52.668 7.002-76.748 20.905s-43.267 33.682-56.479 56.013c-8.955 15.672-1.097 36.04 16.332 41.28l2.485.667c12.554 3.554 26.136-.987 33.05-11.88 8.349-14.122 19.738-26.099 35.041-34.934 15.078-8.706 31.37-12.71 47.775-12.88 13.15-.09 24.004-9.358 26.813-22.682l.666-2.485c3.05-17.064-10.434-34.184-28.935-34.005" class="st4"/><path d="M396.67 110.225c-50.69-4.641-103.244 6.197-150.73 33.612-47.484 27.416-82.697 67.25-104.473 113.729-7.44 15.698.54 34.196 17.258 39.246l2.035.926c14.009 4.514 28.871-1.966 34.71-15.24 16.862-35.24 43.767-66.076 80.225-87.125s76.616-28.931 115.115-25.654c14.415 1.58 27.328-8.276 30.553-22.44l.216-2.225c4.245-16.554-7.915-32.938-24.91-34.829" class="st4"/><path d="M418.861 12.496c-74.723-9.37-152.694 4.74-222.683 45.149S75.113 158.748 45.735 227.919c-6.28 15.629 1.44 33.677 17.448 38.537l2.485.666c14.269 4.964 29.511-2.936 35.22-16.434 24.145-57.449 66.982-107.986 125.044-141.508s122.667-45.316 185.07-37.536c14.675 2.03 29.008-7.446 31.843-22.285l.666-2.485c3.215-16.26-7.975-32.003-24.65-34.378" class="st4"/></g></g><path d="M138.9 31.9c-1.8-1.5-4.2-1.8-6.4-1.3L86 42.4c-3.3.9-5.6 3.8-5.6 7.1v55.3c-2.5-1.1-5.5-1.6-8.7-1.6-10 0-17.8 6.2-17.8 13.8s7.8 13.8 17.8 13.8 17.8-6.2 17.8-13.8V65.4l42.9-10.9v36.9c-2.5-1.1-5.5-1.6-8.7-1.6-10 0-17.8 6.2-17.8 13.8s7.8 13.8 17.8 13.8 17.8-6.2 17.8-13.8V37.7c.3-2.3-.8-4.5-2.6-5.8" style="fill:#0b1b64" transform="translate(-160.672 -94.206)scale(4.21541)"/></svg>