<svg xmlns="http://www.w3.org/2000/svg" xmlns:svg="http://www.w3.org/2000/svg" version="1.1" id="svg10" viewBox="7.6 2.83 287.41 265.07" style="&#10;">
  <defs id="defs14"/>
  <path fill="black" stroke="none" d="m 165.00049,3.833234 c 24.62921,3.19183 46.85461,12.043873 66.68644,27.219491 16.76726,12.830587 29.37227,28.844969 38.52135,47.664224 6.44855,13.264382 10.14954,27.317291 11.93054,42.030781 1.57868,13.04216 0.95005,25.87532 -1.23419,38.68986 -0.61395,3.60205 0.719,5.34439 3.64032,6.69907 2.62488,1.21722 5.15482,2.63817 7.77079,3.87593 2.8182,1.33343 3.86453,2.82387 0.95871,5.23436 -4.53016,3.75793 -8.9192,7.68764 -13.4863,11.399 -10.10224,8.2093 -20.25397,16.3584 -30.45101,24.44948 -1.45726,1.15628 -3.27914,1.85304 -4.93226,2.76248 -0.4683,-1.81177 -1.33371,-3.62137 -1.34357,-5.43562 -0.10028,-18.49227 -0.073,-36.98531 -0.0538,-55.47809 0.005,-5.23512 1.50417,-6.15621 6.23181,-3.91718 2.03771,0.96508 4.049,1.98616 6.09322,2.93682 0.26391,0.12272 0.65381,-0.0255 1.39969,-0.0766 3.14303,-18.46717 0.94388,-36.4562 -5.35832,-54.02257 -5.0366,-14.038613 -12.94558,-26.512673 -23.29417,-37.056843 -14.63879,-14.915497 -32.18353,-25.473106 -52.8772,-29.665655 -9.06585,-1.836748 -18.4768,-3.212608 -27.67013,-2.915108 -18.26405,0.591032 -35.67173,5.160341 -51.410241,15.030073 -1.612335,1.011105 -3.934593,1.45168 -5.796264,1.197254 -0.646362,-0.08834 -1.218315,-3.074829 -1.266594,-4.753669 -0.157982,-5.493321 -0.0021,-10.994839 -0.08084,-16.491572 -0.04691,-3.273319 1.14579,-5.561435 4.262047,-6.910171 C 105.36958,11.049436 117.52899,6.1924449 130.75815,4.6090199 142.1072,2.4969511 154.55173,2.3096328 165.00049,3.833234 Z" id="path2"/>
  <path fill="black" stroke="none" d="M 7.857121,101.35173 C 7.717343,99.717041 7.282811,97.709419 8.012016,97.104408 23.437153,84.306244 38.98505,71.655823 54.548244,59.024929 c 0.784665,-0.636822 1.922852,-0.838043 3.264634,-1.394894 v 66.850185 c -3.536354,-1.24835 -6.859997,-2.12331 -9.904675,-3.58095 -2.998592,-1.43559 -3.781807,-0.4975 -3.928818,2.4229 -1.132236,22.49256 1.394177,44.18216 12.892144,64.19043 15.875328,27.62554 39.174003,45.29813 70.195581,52.35091 8.36624,1.90208 17.15117,3.22168 25.67494,2.91186 18.21994,-0.66223 34.85756,-5.72228 51.6515,-13.9012 2.39287,-1.16537 4.29732,-2.45509 7.12197,-3.65139 1.15276,8.6599 0.89219,16.57972 0.41292,24.70401 -0.0954,1.61718 -1.97757,3.285 -3.46933,4.11117 -11.67003,6.46317 -24.25827,10.25666 -37.45114,11.91513 -7.46343,0.93824 -15.02523,2.21894 -22.48041,1.89798 C 120.30423,266.63599 94.444817,258.43179 71.56115,241.21686 54.924183,228.70122 41.962887,213.20271 32.587864,194.88116 25.914766,181.84 20.995626,167.94058 20.055735,153.08334 19.41922,143.0217 19.040033,132.92279 19.124386,122.84541 c 0.04173,-4.98498 1.390724,-9.95902 2.145193,-14.91793 -4.575235,-2.18783 -8.870243,-4.24166 -13.412458,-6.57575 z" id="path4"/>
  <path fill="black" stroke="none" d="m 149.60216,54.923996 c 2.5271,-1.700632 4.55211,-1.016488 5.84733,0.287239 18.60575,18.727741 36.32776,36.643631 54.68029,55.619195 1.60968,1.66432 2.7299,4.55603 2.74896,6.8885 0.19725,24.13471 0.0685,48.2719 0.17155,72.40779 0.0179,4.17775 -1.42083,6.13153 -5.76989,5.91735 -4.15137,-0.20444 -8.32811,-0.19922 -12.48009,-0.001 -4.26808,0.20374 -5.87778,-1.56943 -5.85437,-5.83557 0.11778,-21.47238 -0.008,-42.94614 0.12411,-64.41834 0.0188,-3.0544 -0.78238,-5.1951 -3.0235,-7.31378 -9.86514,-9.32625 -18.89832,-19.691738 -29.01723,-29.580212 -2.47752,-2.31634 -3.47145,-4.48457 -6.52322,-4.067377 -2.46643,0.522579 -3.84388,2.058472 -4.97648,3.183617 -9.78975,9.725418 -19.45368,19.579192 -29.34288,29.201732 -3.058,2.97555 -4.22733,6.28063 -4.221,10.41373 0.0343,22.44353 -0.0422,44.88724 -0.0805,67.33089 -7.30889,0.019 -14.617793,0.0381 -22.401912,-0.43471 -0.439743,-27.48814 -0.218351,-51.88188 -0.182859,-78.87821 0.481423,-4.43933 2.821851,-5.71836 3.452855,-6.58686 C 112.56946,89.025243 139.67001,63.078462 146.46988,57.201396 Z" id="path6"/>
  <path fill="black" stroke="none" d=" M163.000000,141.003998   C163.000000,156.994003 162.968033,172.485016 163.013763,187.975800   C163.035934,195.487350 161.504883,196.542313 154.826019,196.048126   C151.181442,195.778488 147.500015,195.961792 143.836166,196.011215   C140.563614,196.055344 138.985214,194.549561 138.988678,191.237671   C139.011215,169.750290 139.011032,148.262863 138.988800,126.775482   C138.985382,123.474022 140.549179,121.956131 143.822998,121.988907   C148.319916,122.033920 152.831848,122.222343 157.310883,121.935822   C161.559723,121.664032 162.862122,123.984322 162.968414,127.513428   C163.098724,131.840302 162.999802,136.174103 163.000000,141.003998  z" id="path8"/>
</svg>