<?xml version="1.0" encoding="UTF-8"?>
<svg version="1.1" xmlns="http://www.w3.org/2000/svg" width="512" height="512">
<path d="M0 0 C168.96 0 337.92 0 512 0 C512 165.99 512 331.98 512 503 C343.04 503 174.08 503 0 503 C0 337.01 0 171.02 0 0 Z " fill="#25262B" transform="translate(0,0)"/>
<path d="M0 0 C73.92 0 147.84 0 224 0 C221.525 1.98 221.525 1.98 219 4 C213.79125944 9.8040252 212.7019645 14.57508453 212.73828697 22.25213337 C212.73429091 23.08351732 212.73029485 23.91490128 212.72617769 24.77147868 C212.71517049 27.56958011 212.71840935 30.36748487 212.7215271 33.16560364 C212.71652611 35.18694857 212.7106509 37.20829151 212.70397437 39.2296316 C212.68813654 44.79371464 212.6847416 50.35774723 212.68332577 55.92185009 C212.67963832 61.91842461 212.66448614 67.91497124 212.65071106 73.91152954 C212.62841379 84.30416772 212.61334602 94.69680026 212.60334396 105.08945656 C212.59282278 115.99011077 212.57819198 126.89074668 212.55806351 137.79138756 C212.55681464 138.46896744 212.55556577 139.14654731 212.55427906 139.84465991 C212.54791537 143.28569719 212.54147818 146.72673433 212.53501268 150.16777142 C212.48934095 174.54535044 212.45289718 198.92293541 212.421875 223.30053711 C212.39171488 246.98413971 212.35737813 270.66773023 212.31738281 294.35131836 C212.31615181 295.08125407 212.31492081 295.81118978 212.3136525 296.56324475 C212.30128572 303.89350935 212.28883399 311.2237738 212.27632002 318.55403814 C212.25082917 333.48684554 212.22590539 348.41965385 212.20132446 363.35246277 C212.20019355 364.0390604 212.19906264 364.72565804 212.19789747 365.43306166 C212.12243272 411.2886949 212.061461 457.14434539 212 503 C142.04 503 72.08 503 0 503 C0 337.01 0 171.02 0 0 Z " fill="#1964AB" transform="translate(0,0)"/>
<path d="M0 0 C75.57 0 151.14 0 229 0 C229 111.87 229 223.74 229 339 C207.51690897 346.67253251 192.11444818 346.22957359 171.47265625 337.40234375 C157.16677845 331.62527949 140.52725094 332.0462767 126.21484375 337.62890625 C125.15394531 338.08136719 124.09304688 338.53382813 123 339 C113.88458775 342.58062132 105.1752745 345.06109339 95.30517578 345.01855469 C94.49799103 345.01587585 93.69080627 345.01319702 92.85916138 345.01043701 C92.24563812 345.0069928 91.63211487 345.00354858 91 345 C83.74644225 316.34030323 76.80123066 287.61343178 69.98152161 258.84769821 C68.6174685 253.09667316 67.25056045 247.3463268 65.88378906 241.59594727 C64.20577512 234.5356253 62.52785687 227.47528087 60.85098267 220.41468811 C55.66632169 198.58521512 50.46134691 176.76061546 45.25 154.9375 C45.04009933 154.05850666 44.83019867 153.17951332 44.61393738 152.27388382 C44.1910708 150.50306204 43.76820334 148.73224047 43.34533501 146.96141911 C42.50006766 143.42168726 41.65484251 139.88194533 40.80965042 136.34219551 C40.38787038 134.5757465 39.96607428 132.80930133 39.54426193 131.04286003 C36.57271564 118.59821182 33.60687563 106.15221413 30.64480591 93.70530701 C28.9464107 86.56848629 27.24671872 79.43197458 25.54676247 72.29552555 C24.16490746 66.49392742 22.78476075 60.69192654 21.40593243 54.88960838 C20.55416871 51.30716773 19.7007069 47.72513314 18.84679604 44.14320374 C18.45485092 42.49758209 18.06359244 40.85179672 17.67311668 39.20582581 C16.63295234 34.82201855 15.58033502 30.44166625 14.50495529 26.06635666 C14.16337243 24.66854574 13.8263713 23.26960852 13.49357986 21.8696785 C13.00321996 19.81351956 12.49597677 17.76220534 11.98461914 15.71118164 C11.69808975 14.53600479 11.41156036 13.36082794 11.11634827 12.15003967 C9.39769935 7.30046679 7.22887554 4.68533444 2.75 2.1875 C1.8425 1.795625 0.935 1.40375 0 1 C0 0.67 0 0.34 0 0 Z " fill="#FEF7FA" transform="translate(283,0)"/>
<path d="M0 0 C73.92 0 147.84 0 224 0 C221.525 1.98 221.525 1.98 219 4 C214.2139566 9.33301978 212.7549072 13.57567757 212.7215271 20.7134552 C212.7128385 21.70604128 212.7128385 21.70604128 212.70397437 22.71867961 C212.68701704 24.92814424 212.68410161 27.13739946 212.68115234 29.34692383 C212.67185121 30.93385325 212.66168226 32.52077778 212.65071106 34.10769653 C212.62341789 38.41097186 212.60826367 42.71421446 212.59528303 47.01755357 C212.57964953 51.51659793 212.55285999 56.01557549 212.5272522 60.51457214 C212.48046832 69.03192064 212.44372231 77.5492817 212.41057932 86.06669301 C212.37235519 95.76436827 212.32294578 105.46197643 212.27259517 115.15959513 C212.16928113 135.10634721 212.08001898 155.05314176 212 175 C210.42151877 175.64295203 208.84185958 176.28301252 207.26171875 176.921875 C205.94240356 177.45699707 205.94240356 177.45699707 204.59643555 178.00292969 C188.50007596 184.18417393 172.01484512 180.91701043 156.5625 174.375 C155.67691406 173.97023437 154.79132813 173.56546875 153.87890625 173.1484375 C139.70514908 167.49431999 122.98384007 168.37569269 109 174 C106.90350547 174.80015354 104.80344528 175.59031587 102.70239258 176.37841797 C101.31564935 176.90273823 99.9323749 177.43636457 98.5534668 177.98095703 C82.43386211 184.25866684 66.01495944 180.91705883 50.5625 174.375 C49.67691406 173.97023437 48.79132812 173.56546875 47.87890625 173.1484375 C40.82053888 170.33275228 34.34242029 169.61331825 26.8125 169.625 C25.89355957 169.62443604 24.97461914 169.62387207 24.02783203 169.62329102 C16.40270702 169.74575879 10.09470628 171.12283084 3 174 C2.01 174.33 1.02 174.66 0 175 C0 117.25 0 59.5 0 0 Z " fill="#FEF7FA" transform="translate(0,0)"/>
<path d="M0 0 C1.00377686 0.00354492 2.00755371 0.00708984 3.04174805 0.01074219 C11.8086681 0.20479704 18.78824797 2.00989782 26.8125 5.5 C45.5136742 13.34757665 60.5449998 12.00500006 79.8125 6.5 C79.8125 60.62 79.8125 114.74 79.8125 170.5 C46.8125 170.5 13.8125 170.5 -20.1875 170.5 C-24.68042453 155.89799528 -24.68042453 155.89799528 -25.828125 150.57421875 C-26.08996582 149.3816748 -26.35180664 148.18913086 -26.62158203 146.96044922 C-26.89083496 145.71537598 -27.16008789 144.47030273 -27.4375 143.1875 C-29.89035898 132.03767483 -32.51535479 120.94337294 -35.3125 109.875 C-35.65725468 108.50847063 -36.00198144 107.14193422 -36.34667969 105.77539062 C-37.00214999 103.17753911 -37.65778682 100.57972974 -38.31347656 97.98193359 C-41.04107246 87.1157401 -43.57689239 76.20583881 -46.05859375 65.28125 C-46.2258194 64.54537659 -46.39304504 63.80950317 -46.56533813 63.05133057 C-46.73520233 62.30381531 -46.90506653 61.55630005 -47.08007812 60.78613281 C-47.33833374 59.64972351 -47.33833374 59.64972351 -47.60180664 58.49035645 C-47.94903749 56.962006 -48.29604475 55.43360474 -48.64282227 53.90515137 C-51.10961062 43.04298597 -53.68667009 32.21906678 -56.46069336 21.43041992 C-56.69022705 20.53427979 -56.91976074 19.63813965 -57.15625 18.71484375 C-57.45692383 17.55650024 -57.45692383 17.55650024 -57.76367188 16.37475586 C-58.1875 14.5 -58.1875 14.5 -58.1875 12.5 C-57.63513672 12.44054199 -57.08277344 12.38108398 -56.51367188 12.31982422 C-45.38820061 11.06855436 -35.27546232 9.34347271 -24.92578125 5 C-16.5961578 1.56529059 -9.0289573 -0.05794146 0 0 Z " fill="#278AEA" transform="translate(432.1875,332.5)"/>
<path d="M0 0 C6.03779701 2.46518094 11.39678065 2.45277954 17.859375 2.45703125 C19.30570312 2.47540039 19.30570312 2.47540039 20.78125 2.49414062 C26.62362786 2.50604765 31.50674802 1.91227681 37.109375 0.26953125 C39.749375 -0.39046875 42.389375 -1.05046875 45.109375 -1.73046875 C45.109375 25.32953125 45.109375 52.38953125 45.109375 80.26953125 C-24.850625 80.26953125 -94.810625 80.26953125 -166.890625 80.26953125 C-166.890625 52.87953125 -166.890625 25.48953125 -166.890625 -2.73046875 C-151.73201042 -8.79391458 -134.22568538 -10.68419188 -118.5390625 -4.87890625 C-112.01344947 -2.04921564 -112.01344947 -2.04921564 -109.28125 -0.66015625 C-93.54006402 5.46141608 -76.21228944 3.18490795 -60.890625 -2.73046875 C-58.33245066 -3.65949667 -55.76732554 -4.56810279 -53.203125 -5.48046875 C-52.10613281 -5.8878125 -51.00914063 -6.29515625 -49.87890625 -6.71484375 C-32.88307932 -12.49120323 -15.7489073 -6.67469784 0 0 Z " fill="#1964AB" transform="translate(166.890625,422.73046875)"/>
<path d="M0 0 C12.8264914 5.43185935 30.40398534 5.00600491 43.36328125 0.1484375 C44.29785156 -0.25375 45.23242188 -0.6559375 46.1953125 -1.0703125 C47.28457031 -1.51375 48.37382813 -1.9571875 49.49609375 -2.4140625 C51.55196648 -3.26103282 53.60021015 -4.12700442 55.63671875 -5.01953125 C67.4839451 -9.88503337 84.76205247 -8.63362949 96.58203125 -4.21875 C103.40055984 -1.22226659 103.40055984 -1.22226659 105.8046875 0 C113.00808117 2.80131976 120.28048541 3.31540379 127.9453125 3.3046875 C129.38632324 3.30662109 129.38632324 3.30662109 130.85644531 3.30859375 C138.65062959 3.19316322 144.91435578 1.7416432 152.1953125 -1.0703125 C152.8553125 -1.0703125 153.5153125 -1.0703125 154.1953125 -1.0703125 C154.1953125 25.9896875 154.1953125 53.0496875 154.1953125 80.9296875 C138.00440819 87.40604922 120.80388069 88.62309714 104.2890625 82.31640625 C102.22982706 81.39339036 100.19675532 80.40960563 98.1953125 79.3671875 C84.93707018 73.01427972 68.89106576 73.31906746 55.1953125 77.9296875 C51.37053451 79.37419985 47.59817355 80.92717192 43.8359375 82.52734375 C36.34675197 85.41212659 29.84533765 86.2925559 21.8828125 86.2421875 C20.95001465 86.23654785 20.0172168 86.2309082 19.05615234 86.22509766 C12.33734685 86.10652359 6.48200708 85.41512489 0.1953125 82.9296875 C-0.40539063 82.69378906 -1.00609375 82.45789063 -1.625 82.21484375 C-4.29033961 81.16438637 -6.95254202 80.11064894 -9.59326172 78.99951172 C-23.8358253 73.04007323 -41.67557476 74.38691823 -55.8046875 79.9296875 C-56.4646875 79.9296875 -57.1246875 79.9296875 -57.8046875 79.9296875 C-57.8046875 52.8696875 -57.8046875 25.8096875 -57.8046875 -2.0703125 C-38.33107181 -9.85975877 -18.87265714 -9.24530978 0 0 Z " fill="#268AEA" transform="translate(57.8046875,340.0703125)"/>
<path d="M0 0 C16.93827478 6.51703125 33.60244699 2.03820436 49.5625 -4.75 C69.19616826 -12.31275419 87.34675271 -7.62806636 106 0 C119.8867501 5.34295172 133.45814376 3.09920945 147.203125 -1.15234375 C148.523125 -1.48234375 149.843125 -1.81234375 151.203125 -2.15234375 C151.203125 24.90765625 151.203125 51.96765625 151.203125 79.84765625 C134.98645438 85.74462738 117.48069434 88.22990005 101.1171875 81.22265625 C100.15554687 80.76890625 99.19390625 80.31515625 98.203125 79.84765625 C96.37453615 79.08616171 94.54151264 78.33518049 92.703125 77.59765625 C91.9709375 77.283125 91.23875 76.96859375 90.484375 76.64453125 C78.62591803 72.50219354 61.77486417 73.33964743 50.203125 77.84765625 C49.11515625 78.25757813 48.0271875 78.6675 46.90625 79.08984375 C44.71143779 79.92903665 42.52299871 80.78524487 40.34375 81.6640625 C33.19653164 84.35760375 27.09241551 85.20544103 19.515625 85.16015625 C18.53464844 85.1545166 17.55367188 85.14887695 16.54296875 85.14306641 C5.00596165 84.94989039 -4.17220418 81.9569869 -14.5703125 77.15234375 C-26.72106788 72.23908431 -44.77812923 72.92444635 -56.78515625 77.97265625 C-57.44902344 78.26140625 -58.11289062 78.55015625 -58.796875 78.84765625 C-59.456875 78.84765625 -60.116875 78.84765625 -60.796875 78.84765625 C-60.796875 52.11765625 -60.796875 25.38765625 -60.796875 -2.15234375 C-39.80425212 -12.64865519 -20.788176 -8.50112495 0 0 Z " fill="#278BEA" transform="translate(60.796875,177.15234375)"/>
<path d="M0 0 C7.48570831 3.14898914 14.07619911 4.04178829 22.140625 4.03125 C23.15801758 4.03253906 24.17541016 4.03382813 25.22363281 4.03515625 C32.27229322 3.93635375 38.08187425 3.07459254 44.6875 0.53125 C47.015625 -0.34375 47.015625 -0.34375 50.015625 -0.34375 C50.015625 26.71625 50.015625 53.77625 50.015625 81.65625 C17.015625 81.65625 -15.984375 81.65625 -49.984375 81.65625 C-54.47729953 67.05424528 -54.47729953 67.05424528 -55.625 61.73046875 C-55.88724365 60.53639404 -56.1494873 59.34231934 -56.41967773 58.11206055 C-56.68852783 56.86851807 -56.95737793 55.62497559 -57.234375 54.34375 C-60.081209 41.37836284 -63.21184454 28.49882655 -66.49511719 15.63745117 C-66.8202832 14.35845947 -67.14544922 13.07946777 -67.48046875 11.76171875 C-67.77107178 10.62887451 -68.0616748 9.49603027 -68.36108398 8.32885742 C-68.984375 5.65625 -68.984375 5.65625 -68.984375 3.65625 C-44.17049107 -6.70004904 -25.37017136 -11.0482046 0 0 Z " fill="#1963AA" transform="translate(461.984375,421.34375)"/>
</svg>
