<svg xmlns="http://www.w3.org/2000/svg" xml:space="preserve" id="Warstwa_1" x="0" y="0" version="1.1" viewBox="0 0 512 512"><style>.st0{fill:#4d68c4}.st2{fill:#2bc3f1}</style><path d="M291.8 512H27.5C12.3 512 0 499.7 0 484.5V413c0-15.2 12.3-27.5 27.5-27.5h264.2c15.2 0 27.5 12.3 27.5 27.5v71.5c.1 15.2-12.2 27.5-27.4 27.5" class="st0"/><path d="M484.5 319.3h-457C12.3 319.3 0 307 0 291.8v-71.5c0-15.2 12.3-27.5 27.5-27.5h457c15.2 0 27.5 12.3 27.5 27.5v71.5c0 15.2-12.3 27.5-27.5 27.5" style="fill:#5190ef"/><path d="M484.5 126.6H220.2c-15.2 0-27.5-12.3-27.5-27.5V27.5C192.7 12.3 205 0 220.2 0h264.2C499.7 0 512 12.3 512 27.5V99c0 15.3-12.3 27.6-27.5 27.6" class="st2"/><path d="M484.5 512H413c-15.2 0-27.5-12.3-27.5-27.5V413c0-15.2 12.3-27.5 27.5-27.5h71.5c15.2 0 27.5 12.3 27.5 27.5v71.5c0 15.2-12.3 27.5-27.5 27.5" class="st0"/><path d="M27.5 0H99c15.2 0 27.5 12.3 27.5 27.5V99c0 15.2-12.3 27.5-27.5 27.5H27.5C12.3 126.6 0 114.3 0 99.1V27.5C0 12.3 12.3 0 27.5 0" class="st2"/></svg>