<svg xmlns="http://www.w3.org/2000/svg" xml:space="preserve" id="Layer_1" x="0" y="0" version="1.1" viewBox="51.3 2.7 272.3 369.5"><style>.st0{fill:none;stroke:#000;stroke-width:32;stroke-linecap:round;stroke-linejoin:round;stroke-miterlimit:8;stroke-opacity:.9}</style><path d="M165.8 173.1c-19.1-11.3-29.2-67.1 9.7-52 6.1 2.4 8.6 10.8 13.8 10.8 1.3 0 33.5-32 40.7 3.1.6 2.8.8 7.2 0 10.1-6.5 22-26.9 19.5-39.4 31.5-7.5 7.2 0 43.9 0 71.1" class="st0"/><path d="M67.3 218.3c71 51.8 165.4 53.4 240.3 9.6" class="st0"/><path d="M131.4 256.8c6.6 76.2-9.8 99.8 32.5 99.4h17.2c.2.1 4.8-97.1 10.4-97.1 5.8 0 4.9 97.3 7.2 97.1 52.8-2.7 51.2 7.5 52.4-26 .4-12.3-2.3-56.3 0-73.5M125.9 52.8c.2-9.9.8-19.6.8-29.5M249.4 55c-.8-12.3 1.2-24.2 1.2-36.3" class="st0"/></svg>