<svg xmlns="http://www.w3.org/2000/svg" fill="none" viewBox="0 0.01 56.45 56.44">
<g clip-path="url(#clip0_9403_1119)">

<path d="M28.2199 0.0100098C26.5799 0.0100098 24.9799 0.16001 23.4299 0.42001L17.8799 16.55H45.9099C46.2299 16.55 46.4499 16.83 46.3399 17.13L32.9499 56.04C46.2899 53.79 56.4499 42.2 56.4499 28.22C56.4399 12.64 43.7999 0.0100098 28.2199 0.0100098Z" fill="#23A96A"/>
<path d="M17.87 16.5601L10.03 39.3201C9.92997 39.6201 10.15 39.9301 10.47 39.9301H38.49L46.34 17.1401C46.44 16.8401 46.22 16.5601 45.91 16.5601H17.88H17.87Z" fill="white"/>
<path d="M10.03 39.32L23.42 0.420044C10.16 2.73004 0 14.3 0 28.23C0 43.81 12.63 56.45 28.22 56.45C29.83 56.45 31.41 56.31 32.94 56.05L38.49 39.93H10.47C10.15 39.93 9.93 39.62 10.03 39.32Z" fill="#075033"/>
</g>
<defs>
<clipPath id="clip0_9403_1119">
<rect width="283.46" height="56.44" fill="white" transform="translate(0 0.0100098)"/>
</clipPath>
</defs>
</svg>