<?xml version="1.0" encoding="UTF-8" standalone="no"?><!DOCTYPE svg PUBLIC "-//W3C//DTD SVG 1.1//EN" "http://www.w3.org/Graphics/SVG/1.1/DTD/svg11.dtd"><svg width="100%" height="100%" viewBox="0 0 1080 1080" version="1.1" xmlns="http://www.w3.org/2000/svg" xmlns:xlink="http://www.w3.org/1999/xlink" xml:space="preserve" xmlns:serif="http://www.serif.com/" style="fill-rule:evenodd;clip-rule:evenodd;stroke-linejoin:round;stroke-miterlimit:2;"><circle cx="540" cy="540" r="534.247" style="fill:#1d63f7;"/><path d="M481.568,519.218c98.275,11.068 92.159,169.252 16.984,212.144c-45.083,25.723 -60.415,22.103 -271.96,22.086c-2.923,-0 -34.525,-0.003 -36.281,-4.339c-1.888,-4.66 -0.321,-389.796 -0.822,-412.577c-0.567,-25.763 11.11,-18.646 37.103,-18.647c207.131,-0.008 278.715,-12.971 307.577,79.759c6.342,20.376 11.5,85.436 -32.077,108.777c-15.284,8.186 -26.826,2.054 -20.525,12.798Z" style="fill:#f6f6f7;"/><path d="M890.317,595.105c-0.114,4.958 3.504,22.314 -10.692,22.581c-203.922,3.835 -216.501,-9.109 -215.233,8.075c6.77,91.738 126.379,74.868 140.738,39.486c1.731,-4.266 3.076,-8.682 4.802,-12.95c3.918,-9.689 73.1,-8.612 75.731,-0.966c12.77,37.112 -49.434,139.752 -202.965,104.384c-185.344,-42.696 -132.976,-379.923 104.447,-320.962c6.312,1.567 42.939,10.663 68.669,43.513c37.496,47.872 34.481,116.182 34.503,116.839Z" style="fill:#f6f6f6;"/><path d="M461.186,608.465c0.004,78.24 -32.433,67.299 -155.712,67.289c-13.82,-0.001 -16.346,-1.234 -16.451,-14.921c-0.714,-93.743 -2.685,-95.284 3.668,-100.177c2.263,-1.743 120.87,-3.508 134.868,1.257c30.23,10.291 32.811,43.708 33.626,46.552Z" style="fill:#1d63f8;"/><path d="M314.242,395.972c94.412,-0 105.758,-0.891 113.176,3.383c3.228,1.86 19.101,11.004 19.366,42.356c0.529,62.805 -51.015,50.899 -62.422,50.912c-83.82,0.098 -93.961,1.954 -95.196,-7.266c-0.313,-2.339 -0.089,-81.28 0.064,-82.854c0.618,-6.338 22.944,-6.515 25.012,-6.531Z" style="fill:#1d63f7;"/><path d="M644.78,371.593c0.696,-19.541 -3.979,-27.675 15.675,-27.885c12.28,-0.131 119.673,-1.277 153.511,0.025c17.472,0.672 11.615,52.292 4.057,53.368c-5.536,0.788 -164.01,0.307 -166.232,0.211c-10.868,-0.472 -5.618,-6.009 -7.011,-25.72Z" style="fill:#f6f6f6;"/><path d="M802.235,537.659c2.026,14.353 8.515,21.399 -5.972,21.579c-10.141,0.126 -120.559,1.497 -126.77,-0.145c-21.218,-5.608 33.817,-94.129 104.032,-58.736c17.528,8.835 27.333,33.797 28.71,37.302Z" style="fill:#1d63f8;"/></svg>