<svg xmlns="http://www.w3.org/2000/svg" xmlns:xlink="http://www.w3.org/1999/xlink" class="iconLeft" viewBox="9.97 23.43 60.07 33.15"><defs><linearGradient xlink:href="#a" id="c" x1="0" x2="74.266" y1="0" y2="0" gradientTransform="scale(1.34652 .74266)" gradientUnits="userSpaceOnUse"/><linearGradient xlink:href="#a" id="b" x1="0" x2="74.266" y1="0" y2="0" gradientTransform="scale(1.34652 .74266)" gradientUnits="userSpaceOnUse"/></defs><defs><linearGradient id="a" x1="0" x2="1" y1="0" y2="0" gradientTransform="rotate(25)"><stop offset="0%" stop-color="#51A4FB"/><stop offset="100%" stop-color="#51A4FB"/></linearGradient></defs><g style="fill:url(#b)"><path fill="url(#a)" d="M77.959 55.154H11.282C5.061 55.154 0 50.093 0 43.873c0-5.278 3.643-9.721 8.546-10.946 2.188-5.469 7.248-9.386 13.149-10.089C22.317 10.14 32.843 0 45.693 0c9.417 0 17.822 5.536 21.723 13.756a21.94 21.94 0 0 1 10.543-2.682c12.153 0 22.041 9.887 22.041 22.04s-9.887 22.04-22.041 22.04m-66.75-14.782a3.507 3.507 0 0 0-3.429 3.501 3.504 3.504 0 0 0 3.501 3.501h66.678c7.863 0 14.26-6.397 14.26-14.26s-6.396-14.259-14.26-14.259c-3.683 0-7.18 1.404-9.847 3.952l-5.096 4.871-1.404-6.908c-1.529-7.527-8.224-12.99-15.919-12.99-8.958 0-16.247 7.288-16.247 16.246 0 .728.054 1.483.159 2.246l.73 5.287-5.256-.923a8.6 8.6 0 0 0-1.474-.132c-4.002 0-7.479 2.842-8.267 6.757l-.65 3.227-3.29-.106z" style="fill:url(#c)" transform="matrix(.60063 0 0 .60063 9.969 23.436)"/></g></svg>