<svg xmlns="http://www.w3.org/2000/svg" xml:space="preserve" viewBox="0 121.7 512 268.6"><path d="M512 390.3h-82.1l-39.5-67.5h75.1zm-177.4-.8h-32.8v-88.4 44.1l72.4-44.4V350c0 21.8-17.8 39.5-39.6 39.5m-32.8-88.4h-44l12.7-36.1c4.7-13.4 17.2-22.6 31.3-23.2v-120h92.7c18.3 0 34.2 2.2 47.6 6.5 11.3 3.6 20.9 8.9 28.7 15.6 16.9 14.8 25.4 35.8 25.4 63 0 10.3-1 19.7-3.1 28.4-4 16.6-11.7 30.2-23.3 40.9-2.7 2.5-5.5 4.7-8.5 6.8-15.9 11.1-36.7 17-62.2 17.6h-.4l-22.8.1h-1.6zm72.4-106-72.4 46.7h87.3c8.1 0 16.1-2.5 22.3-7.7.6-.4 1.1-.9 1.6-1.4l.2-.2c6.4-6.1 9.6-14.5 9.6-25.3 0-18.1-10-27.1-30.1-27.1H374v15"/><path d="m301.8 241.8 72.4-46.7v46.7zm0 103.3V301h1.6l70.8-.3zm-57.3-156.8q0 20.85-9.9 36h-64.1v-18.5q.3-3.15 0-6.9c-1.1-15-11.3-22.5-34-22.5h-20.3v42.7H43.9v-97.4h93.3c36.4 0 63.3 5.4 80.9 16.2q26.4 16.2 26.4 50.4M148 389.1H43.9v-82.3H0l12.6-36.1c4.9-13.9 18-23.2 32.8-23.2h145.1c4.2 0 8.2.4 12.1 1.3v.2c7.1 1.9 13.4 4.3 18.9 7.3l.2.1c11.2 7 19.9 17.5 24.5 30 .3.8.6 1.7.8 2.6v.2c1.5 5.4 2.3 11.2 2.6 17.6.1 1.3.1 2.6.1 4 0 24.3-9.1 43.4-27.4 57.3-18 14-42.9 21-74.3 21M43.9 306.8v47.3l72.3-47.3v26.5h25.4c21.7 0 33-8.8 33.7-26.5z"/><path d="M43.9 354.1v-47.3h72.3z"/></svg>