<svg xmlns="http://www.w3.org/2000/svg" xml:space="preserve" viewBox="0 25.8 511.9 460.3"><path d="M202.5 330.9h106.9l25.8-150.6H174.1z" style="fill:none"/><path d="M16.6 25.8C7.6 25.7.1 32.9 0 42c0 1 .1 1.9.2 2.8l69.6 422.7c1.8 10.7 11 18.5 21.8 18.6h334.1c8.1.1 15.1-5.8 16.4-13.8l69.6-427.5c1.4-8.9-4.6-17.4-13.6-18.8-.9-.2-1.9-.2-2.8-.2zm293.2 305.5H203.2l-28.9-150.8h161.3z" style="fill:#2684ff"/><linearGradient id="a" x1="-703.576" x2="-703.703" y1="796.173" y2="796.039" gradientTransform="matrix(1996.6343 0 0 -1480.3047 1405309.125 1178801.625)" gradientUnits="userSpaceOnUse"><stop offset=".18" style="stop-color:#0052cc"/><stop offset="1" style="stop-color:#2684ff"/></linearGradient><path d="M489.2 180.3H335.4L309.6 331H203L77.2 480.3c4 3.4 9.1 5.4 14.3 5.4h333.9c8.1.1 15.1-5.8 16.4-13.8z" style="fill:url(#a)"/></svg>