<svg xmlns="http://www.w3.org/2000/svg" fill="none" viewBox="0 0 24 24">
<g clip-path="url(#clip0_2382_46104)">
<path d="M3.99376 20.9942C1.33125 18.4234 0 15.4905 0 12.1954C0 5.15452 5.46125 -6.10352e-05 11.9588 -6.10352e-05C18.5237 -6.10352e-05 24 5.15452 24 12.1954C24 18.8504 18.1285 23.9999 13.0005 23.9999C10.8765 23.9999 9.34224 23.1967 8.53988 21.9459C8.25591 21.5033 8.00277 20.7896 7.95165 20.3571C7.91756 20.0687 7.91756 19.112 7.95165 17.487C7.95165 16.5402 7.95165 15.3303 7.95165 13.8573C7.98186 11.665 8.2158 8.76447 7.34655 9.43307C7.08877 9.68183 6.98502 9.94045 6.43303 9.9641C5.88064 9.9238 5.7253 9.33192 5.81658 9.0135C6.14428 7.87066 7.10793 6.95518 8.63893 7.12044C10.1699 7.28569 10.7588 8.29929 10.7992 9.66767C10.7992 11.3223 10.7588 13.1276 10.7588 13.3374V13.5146C10.7663 13.679 10.7425 13.812 10.9361 13.7018C11.1341 13.5671 11.3049 13.4505 11.4484 13.3518C12.4963 12.5576 15.0678 11.7199 17.0635 13.7018C17.823 14.456 18.7581 16.0937 18.2136 18.6207C18.1261 18.8856 18.1962 18.9206 18.4238 18.7259C18.6118 18.5386 21.1881 16.2177 21.1881 11.8257C21.1881 6.90254 16.8715 2.79252 11.9588 2.79252C7.67786 2.79252 2.77877 6.20048 2.77877 12.1954C2.77877 14.058 3.44627 16.3617 5.08043 18.1608C5.34737 18.4674 5.5497 18.6828 5.6874 18.8069C6.43303 19.4482 6.53115 20.2553 6.03573 20.8418C5.39886 21.4844 4.71821 21.5352 3.99376 20.9942ZM13.0316 21.2665C15.2555 21.2306 15.6142 18.9198 15.6261 17.6148C15.6261 15.6871 14.6457 15.0047 13.175 15.304C11.9913 15.5435 10.7957 16.7767 10.6642 18.4888C10.6403 18.7761 10.6283 19.2431 10.6522 19.6861C10.712 20.8594 11.6924 21.2904 13.0316 21.2665Z" fill="#FFFDF8"/>
</g>
<defs>
<clipPath id="clip0_2382_46104">
<rect width="24" height="24" fill="white"/>
</clipPath>
</defs>
</svg>