<svg xmlns="http://www.w3.org/2000/svg" fill="none" viewBox="0 0 24 24"><g clip-path="url(#a)"><path d="M3.994 20.994Q0 17.14 0 12.195C0 5.155 5.461 0 11.959 0 18.524 0 24 5.155 24 12.195 24 18.85 18.128 24 13 24c-2.123 0-3.658-.803-4.46-2.054-.284-.443-.537-1.156-.588-1.589q-.051-.432 0-2.87v-3.63c.03-2.192.264-5.093-.605-4.424-.258.249-.362.507-.914.531-.552-.04-.708-.632-.616-.95.327-1.143 1.29-2.059 2.822-1.894 1.53.166 2.12 1.18 2.16 2.548 0 1.654-.04 3.46-.04 3.67v.177c.007.164-.017.297.177.187l.512-.35c1.048-.794 3.62-1.632 5.616.35.759.754 1.694 2.392 1.15 4.919q-.132.398.21.105c.188-.187 2.764-2.508 2.764-6.9 0-4.923-4.316-9.033-9.23-9.033-4.28 0-9.18 3.407-9.18 9.402 0 1.863.668 4.167 2.302 5.966q.401.46.607.646c.746.641.844 1.448.349 2.035q-.956.963-2.042.152m9.038.273c2.223-.036 2.582-2.347 2.594-3.652 0-1.928-.98-2.61-2.451-2.311-1.184.24-2.38 1.473-2.51 3.185a10 10 0 0 0-.013 1.197c.06 1.173 1.04 1.604 2.38 1.58" fill="#ee6123"/></g><defs><clipPath id="a"><path fill="#fff" d="M0 0h24v24H0z"/></clipPath></defs></svg>