<svg width="571" height="141" viewBox="0 0 571 141" fill="none" xmlns="http://www.w3.org/2000/svg">
<path d="M406.639 89.0503H415.219V96.4595H406.639V110.76C406.639 112.233 407.051 113.338 407.874 114.075C408.697 114.811 409.976 115.18 411.709 115.18C412.359 115.18 412.966 115.115 413.529 114.985C414.092 114.855 414.656 114.703 415.219 114.53V121.94C414.656 122.243 413.854 122.481 412.814 122.655C411.818 122.828 410.691 122.915 409.434 122.915C405.188 122.915 402.024 121.897 399.944 119.86C397.907 117.78 396.889 114.638 396.889 110.435V96.4595H390.715V89.0503H396.889V81.6401L406.639 77.9995V89.0503ZM279.374 88.3999C283.057 88.3999 286.264 89.1145 288.994 90.5444C291.767 91.9744 293.913 93.9682 295.429 96.5249C296.946 99.0815 297.704 102.071 297.704 105.495C297.704 108.918 296.924 111.952 295.364 114.595C293.847 117.195 291.702 119.231 288.929 120.705C286.199 122.135 283.014 122.85 279.374 122.85C275.734 122.85 272.527 122.135 269.754 120.705C267.024 119.231 264.879 117.195 263.319 114.595C261.802 111.952 261.044 108.918 261.044 105.495C261.044 102.071 261.802 99.0815 263.319 96.5249C264.879 93.9683 267.024 91.9744 269.754 90.5444C272.527 89.1145 275.734 88.3999 279.374 88.3999ZM341.125 88.3999C344.548 88.4 347.516 89.0934 350.029 90.48C352.542 91.8666 354.493 93.7951 355.88 96.2651C357.266 98.7351 357.96 101.639 357.96 104.975C357.96 105.668 357.938 106.319 357.894 106.925C357.851 107.488 357.786 108.03 357.699 108.55H333.112C333.398 110.589 334.031 112.192 335.014 113.36C336.444 115.007 338.568 115.83 341.385 115.83C342.944 115.83 344.288 115.57 345.415 115.05C346.541 114.53 347.386 113.685 347.949 112.515H357.114C356.031 115.722 354.167 118.256 351.524 120.12C348.924 121.94 345.566 122.85 341.449 122.85C337.766 122.85 334.56 122.134 331.83 120.705C329.1 119.231 326.976 117.195 325.46 114.595C323.986 111.995 323.25 109.005 323.25 105.625C323.25 102.201 323.986 99.2114 325.46 96.6548C326.976 94.0549 329.078 92.0398 331.764 90.6099C334.451 89.1365 337.571 88.3999 341.125 88.3999ZM374.959 88.3999C379.335 88.3999 382.825 89.2883 385.425 91.0649C388.024 92.7983 389.454 95.2254 389.714 98.3452H381.004C380.83 97.2186 380.224 96.3734 379.184 95.8101C378.144 95.2034 376.671 94.8999 374.764 94.8999C373.031 94.8999 371.731 95.1602 370.864 95.6802C370.041 96.1568 369.629 96.8503 369.629 97.7603C369.629 98.54 369.976 99.1684 370.669 99.645C371.362 100.078 372.511 100.468 374.114 100.815L380.094 102.05C383.431 102.744 385.945 104.043 387.635 105.95C389.368 107.813 390.234 110.023 390.234 112.58C390.234 115.83 388.956 118.365 386.399 120.185C383.886 121.962 380.311 122.85 375.675 122.85C370.821 122.85 366.964 121.875 364.104 119.925C361.244 117.975 359.685 115.288 359.425 111.865H368.135C368.351 113.338 369.088 114.465 370.344 115.245C371.644 115.981 373.421 116.35 375.675 116.35C377.711 116.35 379.185 116.069 380.094 115.505C381.048 114.899 381.524 114.053 381.524 112.97C381.524 112.147 381.243 111.518 380.679 111.084C380.159 110.608 379.184 110.218 377.754 109.915L372.425 108.81C368.481 107.987 365.577 106.752 363.714 105.105C361.85 103.415 360.919 101.248 360.919 98.605C360.919 95.3985 362.154 92.907 364.624 91.1304C367.094 89.3104 370.539 88.3999 374.959 88.3999ZM481.587 88.3999C486.353 88.4 489.993 89.4612 492.507 91.5845C495.02 93.7077 496.276 96.763 496.276 100.75V115.375C496.276 116.458 496.341 117.563 496.471 118.69C496.645 119.773 496.904 120.943 497.251 122.2H487.501C487.241 121.246 487.046 120.228 486.916 119.145C486.859 118.432 486.823 117.644 486.803 116.782C485.881 118.564 484.641 119.96 483.081 120.965C481.131 122.222 478.748 122.85 475.931 122.85C472.638 122.85 470.016 122.027 468.066 120.38C466.116 118.69 465.141 116.458 465.141 113.685C465.141 110.608 466.29 108.138 468.587 106.275C470.927 104.368 474.177 103.133 478.337 102.57L486.526 101.415V99.7095C486.526 98.3664 486.071 97.3269 485.161 96.5903C484.294 95.8104 482.995 95.4195 481.261 95.4194C479.615 95.4194 478.293 95.7019 477.297 96.2651C476.343 96.8285 475.714 97.6515 475.411 98.7349H466.116C466.549 95.7449 468.088 93.2747 470.731 91.3247C473.375 89.3748 476.993 88.3999 481.587 88.3999ZM512.313 94.3521C512.971 92.8135 514.031 91.5433 515.498 90.5444C517.578 89.1144 520.179 88.3999 523.299 88.3999C526.288 88.4 528.866 89.1146 531.033 90.5444C533.243 91.931 534.933 93.9029 536.103 96.4595C537.317 99.0161 537.924 102.028 537.924 105.495C537.924 109.005 537.294 112.06 536.038 114.66C534.781 117.26 533.026 119.275 530.773 120.705C528.52 122.135 525.855 122.85 522.778 122.85C519.615 122.85 517.036 122.113 515.043 120.64C513.669 119.602 512.696 118.295 512.118 116.719V122.2H502.563V75.3999H512.313V94.3521ZM555.037 88.3999C559.413 88.3999 562.902 89.2884 565.502 91.0649C568.102 92.7983 569.532 95.2252 569.792 98.3452H561.082C560.908 97.2187 560.302 96.3734 559.262 95.8101C558.223 95.2034 556.749 94.9 554.843 94.8999C553.109 94.8999 551.809 95.1602 550.942 95.6802C550.119 96.1568 549.707 96.8503 549.707 97.7603C549.707 98.5401 550.054 99.1684 550.747 99.645C551.44 100.078 552.589 100.468 554.192 100.815L560.172 102.05C563.508 102.744 566.022 104.043 567.712 105.95C569.445 107.813 570.312 110.023 570.312 112.58C570.312 115.83 569.034 118.365 566.477 120.185C563.964 121.962 560.388 122.85 555.752 122.85C550.899 122.85 547.042 121.875 544.182 119.925C541.322 117.975 539.762 115.288 539.502 111.865H548.212C548.428 113.338 549.165 114.465 550.422 115.245C551.722 115.981 553.499 116.35 555.752 116.35C557.788 116.35 559.262 116.069 560.172 115.505C561.125 114.899 561.602 114.053 561.602 112.97C561.602 112.147 561.32 111.518 560.757 111.084C560.236 110.608 559.261 110.218 557.832 109.915L552.502 108.81C548.559 107.987 545.655 106.752 543.792 105.105C541.929 103.415 540.997 101.248 540.997 98.605C540.997 95.3984 542.232 92.907 544.702 91.1304C547.172 89.3104 550.617 88.3999 555.037 88.3999ZM259.833 83.0698H236.823V96.395H258.339V104.065H236.823V122.2H226.813V75.3999H259.833V83.0698ZM321.036 88.3999C321.859 88.3999 322.465 88.4865 322.855 88.6597V97.7603C322.639 97.6737 322.336 97.6304 321.946 97.6304C321.556 97.587 321.079 97.5649 320.515 97.5649C317.396 97.565 315.099 98.1287 313.626 99.2554C312.153 100.339 311.416 102.223 311.416 104.91V122.2H301.666V89.0503H311.22V95.1294C311.995 93.2355 313.057 91.7288 314.406 90.6099C316.183 89.1367 318.393 88.3999 321.036 88.3999ZM440.386 114.53H462.877V122.2H430.377V75.3999H440.386V114.53ZM479.962 108.095C478.228 108.355 476.949 108.832 476.126 109.525C475.303 110.218 474.891 111.172 474.891 112.385C474.891 113.468 475.281 114.292 476.061 114.855C476.841 115.418 477.881 115.7 479.181 115.7C481.218 115.7 482.952 115.158 484.382 114.075C485.811 112.948 486.526 111.648 486.526 110.175V107.088L479.962 108.095ZM279.374 96.0698C277.077 96.0699 275.127 96.8931 273.524 98.5396C271.964 100.186 271.184 102.484 271.184 105.43C271.184 107.467 271.552 109.222 272.289 110.695C273.025 112.125 274 113.23 275.214 114.01C276.47 114.79 277.857 115.18 279.374 115.18C280.89 115.18 282.256 114.79 283.469 114.01C284.726 113.23 285.722 112.125 286.459 110.695C287.195 109.222 287.564 107.467 287.564 105.43C287.564 102.44 286.762 100.143 285.159 98.5396C283.599 96.893 281.67 96.0698 279.374 96.0698ZM519.918 96.1997C517.665 96.1998 515.801 97.023 514.328 98.6694C512.898 100.273 512.183 102.591 512.183 105.625C512.183 108.658 512.898 110.998 514.328 112.645C515.801 114.248 517.709 115.05 520.049 115.05C522.345 115.05 524.209 114.226 525.638 112.58C527.068 110.933 527.783 108.593 527.783 105.56C527.783 102.527 527.046 100.208 525.573 98.605C524.143 97.0016 522.258 96.1997 519.918 96.1997ZM340.994 95.4194C338.437 95.4195 336.444 96.2868 335.014 98.02C334.176 99.068 333.594 100.433 333.262 102.115H348.097C347.93 100.018 347.297 98.4362 346.194 97.3696C344.937 96.0698 343.204 95.4194 340.994 95.4194ZM299.731 31.3999C304.498 31.3999 308.138 32.4612 310.651 34.5845C313.164 36.7077 314.421 39.763 314.421 43.7495V58.3745C314.421 59.4578 314.486 60.5633 314.616 61.6899C314.789 62.7732 315.05 63.9431 315.396 65.1997H305.646C305.386 64.2464 305.191 63.2283 305.061 62.145C305.004 61.4323 304.968 60.6445 304.948 59.7817C304.026 61.5642 302.787 62.9597 301.226 63.9653C299.276 65.222 296.893 65.8501 294.076 65.8501C290.783 65.8501 288.161 65.027 286.211 63.3804C284.261 61.6904 283.286 59.4583 283.286 56.6851C283.286 53.6084 284.435 51.1382 286.731 49.2749C289.071 47.3683 292.321 46.1331 296.481 45.5698L304.671 44.4146V42.7095C304.671 41.3663 304.215 40.3269 303.305 39.5903C302.439 38.8104 301.139 38.4195 299.406 38.4194C297.759 38.4194 296.438 38.7018 295.441 39.2651C294.488 39.8285 293.859 40.6515 293.555 41.7349H284.26C284.694 38.7449 286.232 36.2747 288.876 34.3247C291.519 32.3747 295.138 31.3999 299.731 31.3999ZM334.961 31.3999C337.864 31.3999 340.465 31.9416 342.761 33.0249C345.101 34.0649 347.008 35.5171 348.481 37.3804C349.998 39.2436 350.973 41.4317 351.406 43.9448H341.981C341.505 42.3415 340.637 41.1285 339.381 40.3052C338.167 39.4819 336.737 39.0698 335.091 39.0698C333.531 39.0699 332.166 39.4598 330.996 40.2397C329.869 41.0197 329.003 42.1252 328.396 43.5552C327.79 44.985 327.486 46.6748 327.486 48.6245C327.486 50.5745 327.79 52.2648 328.396 53.6948C329.003 55.1248 329.869 56.2303 330.996 57.0103C332.166 57.7902 333.531 58.1801 335.091 58.1802C336.737 58.1802 338.167 57.768 339.381 56.9448C340.637 56.1215 341.505 54.9084 341.981 53.3052H351.406C350.973 55.8183 349.998 58.0064 348.481 59.8696C347.008 61.7328 345.101 63.2062 342.761 64.2896C340.465 65.3296 337.864 65.8501 334.961 65.8501C331.494 65.85 328.439 65.1134 325.796 63.6401C323.152 62.1668 321.073 60.1297 319.556 57.5298C318.083 54.9298 317.346 51.9612 317.346 48.6245C317.346 45.288 318.083 42.3201 319.556 39.7202C321.073 37.1203 323.152 35.0832 325.796 33.6099C328.439 32.1366 331.494 31.4 334.961 31.3999ZM248.589 18.3999C252.748 18.4 256.106 19.4615 258.663 21.5845C261.22 23.7078 262.498 26.59 262.498 30.23C262.498 32.5266 261.956 34.4984 260.873 36.145C259.79 37.7915 258.338 39.0479 256.518 39.9146C256.058 40.1338 255.584 40.325 255.095 40.4888C255.861 40.7286 256.595 41.0347 257.299 41.4097C259.292 42.4497 260.874 43.923 262.044 45.8296C263.214 47.6928 263.799 49.903 263.799 52.4595C263.799 55.0161 263.192 57.2702 261.978 59.2202C260.808 61.1268 259.14 62.6002 256.973 63.6401C254.85 64.6801 252.337 65.1997 249.433 65.1997H226.813V18.3999H248.589ZM278.219 65.1997H268.469V18.3999H278.219V65.1997ZM364.988 45.2827L376.168 32.0503H387.413L373.194 47.731L388.063 65.1997H376.493L364.988 50.8179V65.1997H355.238V18.3999H364.988V45.2827ZM298.106 51.0952C296.373 51.3552 295.095 51.8317 294.271 52.5249C293.448 53.2182 293.036 54.1719 293.036 55.3853C293.036 56.4684 293.426 57.2917 294.206 57.855C294.986 58.4183 296.026 58.6997 297.326 58.6997C299.363 58.6997 301.096 58.158 302.526 57.0747C303.956 55.9482 304.671 54.6484 304.671 53.1753V50.0884L298.106 51.0952ZM236.823 58.0503H247.094C249.26 58.0502 250.885 57.4644 251.969 56.2944C253.095 55.0811 253.658 53.4127 253.658 51.2896C253.658 49.1231 253.052 47.4114 251.839 46.1548C250.669 44.8981 248.978 44.27 246.768 44.27H236.823V58.0503ZM236.823 37.1196H246.248C248.284 37.1196 249.823 36.6432 250.863 35.6899C251.946 34.6933 252.488 33.2411 252.488 31.3345C252.488 29.428 251.968 27.9977 250.928 27.0444C249.932 26.0478 248.436 25.5503 246.443 25.5503H236.823V37.1196Z" fill="white"/>
<g clip-path="url(#clip0_24_978)">
<path d="M140.651 60.0381H119.806L98.9601 30.6709L33.9327 122.182H54.8224L98.9591 60.04H119.805L75.6681 122.182H96.6163L140.651 60.0381L196.895 139.225H181.162V139.226H163.987V122.248L140.651 89.4053L117.445 122.186V139.225H63.5626L63.5616 139.227H42.7159L42.7169 139.225H0.894653L98.9601 1.17285L140.651 60.0381Z" fill="white"/>
</g>
<defs>
<clipPath id="clip0_24_978">
<rect width="196" height="140" fill="white" transform="translate(0.894775 0.199219)"/>
</clipPath>
</defs>
</svg>
