<svg width="570" height="140" viewBox="0 0 570 140" fill="none" xmlns="http://www.w3.org/2000/svg"><path d="M406.037 88.8511h8.58v7.4092h-8.58v14.3007c0 1.473.411 2.578 1.234 3.314.824.737 2.102 1.106 3.835 1.106.65 0 1.257-.065 1.821-.195.563-.13 1.127-.282 1.69-.455v7.41c-.563.303-1.365.541-2.405.715-.997.173-2.123.259-3.38.259-4.247 0-7.41-1.018-9.49-3.054-2.037-2.08-3.055-5.222-3.055-9.425V96.2603h-6.175v-7.4092h6.175v-7.4102l9.75-3.6406v11.0508Zm-127.266-.6504c3.684 0 6.891.7146 9.621 2.1445 2.773 1.43 4.918 3.4238 6.435 5.9805 1.517 2.5565 2.275 5.5463 2.275 8.9693 0 3.424-.78 6.458-2.34 9.101-1.517 2.6-3.662 4.636-6.435 6.109-2.73 1.43-5.916 2.146-9.556 2.146-3.639 0-6.846-.716-9.62-2.146-2.729-1.473-4.874-3.509-6.434-6.109-1.517-2.643-2.276-5.677-2.276-9.101 0-3.423.759-6.4127 2.276-8.9693 1.56-2.5566 3.704-4.5505 6.434-5.9805 2.774-1.43 5.981-2.1445 9.62-2.1445Zm61.751 0c3.424 0 6.392.6935 8.905 2.0801 2.513 1.3866 4.464 3.3151 5.85 5.7851 1.387 2.47 2.08 5.3731 2.08 8.7101 0 .693-.022 1.343-.065 1.95-.043.563-.109 1.105-.195 1.625H332.51c.286 2.039.919 3.642 1.902 4.81 1.43 1.646 3.554 2.469 6.37 2.469 1.56 0 2.904-.259 4.03-.779 1.127-.52 1.971-1.365 2.535-2.535h9.165c-1.084 3.206-2.947 5.741-5.59 7.604-2.6 1.82-5.959 2.731-10.075 2.731-3.683 0-6.89-.716-9.619-2.146-2.73-1.473-4.854-3.509-6.371-6.109-1.473-2.6-2.21-5.591-2.21-8.971.001-3.423.737-6.4129 2.21-8.9694 1.517-2.5999 3.619-4.615 6.305-6.045 2.687-1.4733 5.807-2.2099 9.36-2.2099Zm33.834 0c4.377 0 7.866.8884 10.466 2.665 2.6 1.7333 4.029 4.1604 4.289 7.2803h-8.71c-.173-1.1266-.779-1.9718-1.819-2.5352-1.04-.6066-2.513-.9101-4.42-.9101-1.733 0-3.034.2603-3.9.7803-.824.4766-1.236 1.1701-1.236 2.08 0 .7798.347 1.4082 1.04 1.8848.694.4333 1.842.8232 3.446 1.1702l5.98 1.235c3.337.693 5.85 1.993 7.54 3.899 1.733 1.864 2.6 4.074 2.6 6.63 0 3.25-1.278 5.786-3.835 7.606-2.513 1.776-6.088 2.665-10.725 2.665-4.853 0-8.71-.975-11.57-2.925-2.86-1.95-4.42-4.637-4.68-8.06h8.71c.217 1.473.954 2.599 2.21 3.379 1.3.737 3.077 1.106 5.33 1.106 2.037 0 3.51-.282 4.42-.845.953-.606 1.43-1.452 1.43-2.535 0-.823-.282-1.452-.845-1.886-.52-.476-1.496-.866-2.926-1.17l-5.329-1.104c-3.943-.823-6.847-2.059-8.711-3.705-1.863-1.69-2.795-3.857-2.795-6.5002 0-3.2065 1.236-5.698 3.705-7.4746 2.47-1.82 5.916-2.7305 10.335-2.7305Zm106.628 0c4.767.0001 8.407 1.0613 10.92 3.1846 2.514 2.1232 3.77 5.1785 3.77 9.1647v14.625c0 1.084.065 2.189.195 3.316.173 1.083.433 2.253.779 3.509h-9.75c-.26-.953-.455-1.971-.585-3.054-.057-.713-.092-1.501-.112-2.363-.922 1.782-2.162 3.177-3.722 4.183-1.95 1.257-4.334 1.885-7.15 1.885-3.293 0-5.915-.823-7.865-2.47-1.95-1.69-2.925-3.922-2.925-6.695 0-3.077 1.149-5.547 3.445-7.41 2.34-1.907 5.591-3.142 9.75-3.705l8.19-1.156v-1.7047c0-1.3432-.456-2.3826-1.365-3.1192-.867-.7799-2.167-1.1708-3.9-1.1709-1.646 0-2.968.2825-3.965.8457-.953.5633-1.582 1.3864-1.885 2.4697h-9.295c.433-2.99 1.972-5.4601 4.615-7.4101 2.643-1.95 6.262-2.9248 10.855-2.9248Zm30.727 5.9521c.658-1.5385 1.717-2.8087 3.185-3.8076 2.079-1.43 4.68-2.1445 7.8-2.1445 2.99.0001 5.568.7147 7.735 2.1445 2.21 1.3866 3.9 3.3585 5.07 5.9151 1.213 2.5566 1.82 5.5687 1.82 9.0347 0 3.51-.629 6.565-1.885 9.165-1.257 2.6-3.012 4.615-5.265 6.045-2.253 1.43-4.919 2.146-7.995 2.146-3.164 0-5.742-.737-7.736-2.21-1.373-1.038-2.346-2.346-2.924-3.921V122h-9.555V75.2007h9.75v18.9521Zm42.724-5.9521c4.376 0 7.864.8884 10.464 2.665 2.6 1.7334 4.03 4.1603 4.29 7.2803h-8.71c-.173-1.1265-.779-1.9718-1.819-2.5352-1.04-.6066-2.513-.9101-4.42-.9101-1.733 0-3.033.2603-3.9.7803-.823.4766-1.236 1.1701-1.236 2.08.001.7798.347 1.4082 1.041 1.8848.693.4333 1.842.8232 3.445 1.1702l5.979 1.235c3.337.693 5.85 1.993 7.54 3.899 1.734 1.864 2.601 4.074 2.601 6.63 0 3.25-1.278 5.786-3.835 7.606-2.513 1.777-6.089 2.665-10.726 2.665-4.853 0-8.709-.975-11.569-2.925-2.86-1.95-4.421-4.637-4.681-8.06h8.71c.217 1.473.954 2.599 2.21 3.379 1.3.737 3.077 1.106 5.33 1.106 2.037 0 3.51-.282 4.42-.845.954-.606 1.431-1.452 1.431-2.535 0-.823-.282-1.452-.846-1.886-.52-.476-1.495-.866-2.925-1.17l-5.33-1.104c-3.943-.823-6.846-2.059-8.71-3.705-1.863-1.69-2.794-3.857-2.794-6.5002 0-3.2066 1.235-5.698 3.705-7.4746 2.47-1.82 5.915-2.7305 10.335-2.7305ZM259.23 82.8706h-23.009v13.3252h21.515v7.6702h-21.515V122h-10.01V75.2007h33.019v7.6699Zm61.204 5.3301c.822 0 1.429.0866 1.819.2597v9.1006c-.217-.0865-.52-.1298-.909-.1298-.39-.0434-.868-.0655-1.431-.0655-3.12.0001-5.416.5638-6.89 1.6905-1.473 1.0828-2.209 2.9678-2.21 5.6538V122h-9.75V88.8511h9.555v6.0791c.775-1.8939 1.836-3.4006 3.186-4.5196 1.776-1.4732 3.986-2.2099 6.63-2.2099Zm119.35 26.1303h22.49V122h-32.5V75.2007h10.01v39.1303Zm39.575-6.435c-1.733.26-3.012.736-3.836 1.43-.823.693-1.234 1.647-1.234 2.86 0 1.083.39 1.906 1.17 2.47.78.563 1.82.844 3.12.844 2.037 0 3.77-.541 5.2-1.625 1.43-1.126 2.145-2.426 2.145-3.899v-3.087l-6.565 1.007ZM278.771 95.8706c-2.296.0001-4.246.8233-5.849 2.4697-1.56 1.6467-2.34 3.9437-2.34 6.8907 0 2.036.368 3.791 1.105 5.265.736 1.43 1.711 2.535 2.924 3.315 1.257.78 2.644 1.17 4.16 1.17 1.517 0 2.883-.39 4.096-1.17 1.257-.78 2.253-1.885 2.989-3.315.737-1.474 1.106-3.228 1.106-5.265 0-2.99-.802-5.2873-2.405-6.8907-1.56-1.6465-3.489-2.4697-5.786-2.4697Zm240.544.1299c-2.253.0001-4.116.8232-5.589 2.4697-1.43 1.6028-2.145 3.9218-2.145 6.9548 0 3.034.715 5.374 2.145 7.021 1.473 1.603 3.38 2.405 5.72 2.405 2.297 0 4.16-.824 5.59-2.471 1.43-1.646 2.145-3.986 2.145-7.019s-.737-5.352-2.21-6.9552c-1.43-1.6034-3.316-2.4053-5.656-2.4053Zm-178.923-.7803c-2.557.0001-4.55.8674-5.98 2.6006-.838 1.048-1.42 2.4132-1.752 4.0952h14.835c-.167-2.097-.8-3.6791-1.903-4.7456-1.257-1.2998-2.991-1.9502-5.2-1.9502Zm-41.263-64.0195c4.766 0 8.407 1.0613 10.92 3.1846 2.513 2.1232 3.769 5.1785 3.769 9.165v14.625c0 1.0833.066 2.1888.196 3.3154.173 1.0833.433 2.2532.78 3.5098h-9.75c-.26-.9533-.455-1.9715-.585-3.0547-.057-.7127-.094-1.5006-.113-2.3633-.922 1.7825-2.162 3.178-3.722 4.1836-1.95 1.2567-4.334 1.8848-7.15 1.8848-3.294 0-5.916-.8231-7.866-2.4697-1.95-1.69-2.924-3.9221-2.924-6.6954 0-3.0766 1.148-5.5468 3.445-7.4101 2.34-1.9066 5.59-3.1418 9.75-3.7051l8.189-1.1553v-1.705c0-1.3432-.455-2.3826-1.365-3.1192-.867-.7799-2.166-1.1709-3.899-1.1709-1.647 0-2.968.2824-3.965.8457-.953.5634-1.583 1.3864-1.886 2.4697h-9.295c.434-2.99 1.972-5.4601 4.615-7.4101 2.644-1.95 6.263-2.9248 10.856-2.9248Zm35.229 0c2.904 0 5.505.5416 7.801 1.625 2.34 1.04 4.247 2.4922 5.72 4.3555 1.516 1.8632 2.491 4.0513 2.925 6.5644h-9.425c-.477-1.6033-1.344-2.8163-2.601-3.6396-1.213-.8233-2.643-1.2354-4.29-1.2354-1.56.0001-2.925.39-4.094 1.1699-1.127.78-1.993 1.8855-2.6 3.3155-.607 1.4298-.91 3.1195-.91 5.0693 0 1.95.303 3.6403.91 5.0703.607 1.43 1.473 2.5354 2.6 3.3154 1.169.7799 2.534 1.1699 4.094 1.17 1.647 0 3.077-.4122 4.29-1.2354 1.257-.8233 2.124-2.0364 2.601-3.6396h9.425c-.434 2.5131-1.409 4.7012-2.925 6.5644-1.473 1.8632-3.38 3.3366-5.72 4.4199-2.296 1.04-4.897 1.5606-7.801 1.5606-3.466-.0001-6.521-.7367-9.165-2.21-2.643-1.4733-4.722-3.5104-6.239-6.1103-1.473-2.6-2.21-5.5686-2.21-8.9053 0-3.3365.737-6.3044 2.21-8.9043 1.517-2.5999 3.596-4.637 6.239-6.1104 2.644-1.4732 5.699-2.2099 9.165-2.2099Zm-86.372-13c4.16 0 7.518 1.0615 10.075 3.1846 2.556 2.1233 3.835 5.0055 3.835 8.6455-.001 2.2966-.542 4.2684-1.625 5.915-1.084 1.6465-2.535 2.9029-4.355 3.7695-.46.2192-.935.4105-1.423.5743.765.2397 1.5.5458 2.203.9208 1.994 1.04 3.575 2.5134 4.745 4.42 1.17 1.8632 1.755 4.0734 1.755 6.6299 0 2.5566-.607 4.8107-1.82 6.7607-1.17 1.9066-2.838 3.38-5.005 4.4199-2.123 1.04-4.637 1.5596-7.54 1.5596h-22.62V18.2007h21.775Zm29.63 46.7998h-9.75V18.2007h9.75v46.7998Zm86.77-19.917 11.179-13.2324h11.246l-14.219 15.6806 14.869 17.4688h-11.57l-11.505-14.3818v14.3818h-9.75V18.2007h9.75v26.8828Zm-66.882 5.8125c-1.733.26-3.012.7364-3.835 1.4297-.823.6933-1.235 1.647-1.235 2.8603 0 1.0832.39 1.9065 1.17 2.4698.78.5633 1.82.8447 3.12.8447 2.036 0 3.77-.5417 5.2-1.625 1.43-1.1265 2.144-2.4263 2.144-3.8994v-3.0869l-6.564 1.0068Zm-61.283 6.9551h10.27c2.167-.0001 3.792-.5859 4.875-1.7559 1.127-1.2133 1.69-2.8818 1.69-5.0049 0-2.1664-.606-3.8781-1.82-5.1347-1.17-1.2567-2.86-1.8848-5.07-1.8848h-9.945v13.7803Zm0-20.9307h9.425c2.036 0 3.575-.4764 4.615-1.4297 1.083-.9966 1.625-2.4488 1.625-4.3554 0-1.9065-.52-3.3368-1.56-4.2901-.996-.9966-2.492-1.4941-4.485-1.4941h-9.62v11.5693Z" fill="#07130E"/><g clip-path="url(#clip0_4813_2174)"><path d="M140.05 59.8387h-20.846L98.3584 30.4716 33.3311 121.982h20.8896l44.1367-62.1413h20.8456L75.0664 121.982h20.9482L140.05 59.8387l56.243 79.1863h-15.732v.001h-17.175v-16.977L140.05 89.2059l-23.206 32.7801v17.039H62.9609l-.0009.002H42.1143l.0009-.002H.292969L98.3584.973511 140.05 59.8387Z" fill="#07130E"/></g><defs><clipPath id="clip0_4813_2174"><path fill="#fff" d="M.292969 0h196v140h-196z"/></clipPath></defs></svg>