<svg xmlns="http://www.w3.org/2000/svg" xml:space="preserve" id="Layer_1" x="0" y="0" version="1.1" viewBox="22.06 -8.95 473.05 522.91"><style>.st0{fill:#394655}.st1{fill:#e1d6b9}.st2{fill:#96d6ff}.st4{fill:#fff}.st5{fill:#394455}.st6{fill:#b3b3b3}.st7{fill:#aeece6}.st8{fill:#d3f5f1}.st9{fill:#616161}</style><g id="layer5" transform="translate(-187.257 -224.407)"><g id="g4640" transform="matrix(-.20409 .3611 .80609 .48598 306.561 186.468)"><path id="path4642" d="M794.1 426.8c12.6 9 36.1 12.8 50.8 17.7 14.7 4.8 20.6 10.6 25.1 15.2s6.8 8.1 5.4 10.8-6.3 4.5-15.9 5.5-18.1.1-26.1-2c-8.1-2.1-15.7-5.5-24.7-9.8-9-4.2-19.7-9.1-29.3-16.1s-20-15.8-26.3-27.4-6.6-24.2-6.1-35.1 1.7-19.9 3.1-27c1.4-7 3.1-12.1 5.4-15.5s5.3-5.1 8.8-5.1 6.5 2.1 8.7 6.2c2.2 4.2 3.5 10.5 3.7 19 .3 8.5-.8 19.4.4 30.9s4.4 23.7 17 32.7" class="st0"/><path id="path4644" d="M786.7 427.1c9.5 8.2 26.6 12.9 41.9 16.9 15.4 4 24.7 8.5 30 12.8s8 7.9 7.8 10.5-3.5 4.4-11.4 5.2-14.9-.2-21.8-2.5c-6.9-2.2-13.6-5.8-22.3-9.8-8.6-4.1-19.2-8.7-28.4-15-9.1-6.4-18-14.4-23.7-24.1-5.8-9.8-6.8-20.2-6.8-29.4s1.1-17.2 2.1-23.5c1.1-6.3 2.3-10.9 3.8-14 1.6-3.1 3.4-4.6 5.7-4.6 2.3.1 4.1 2.1 5.2 6 1.2 3.9 1.6 9.7 1.7 17.2 0 7.5-.5 16.8 1 26.4 1.8 9.8 5.7 19.7 15.2 27.9" class="st1"/></g><g id="g4404" transform="matrix(-.3288 .17362 .20143 .28339 180.573 285.477)"><path id="path4406" d="M-718.2 387.4c2.5 12.3.4 24.8-4.4 35.7s-12 20.3-20.1 27.6-17.3 12.6-27.9 15.5c-10.6 2.8-23.8 5.1-35.9 2.3s-20.5-10.5-27.4-18.1c-6.8-7.6-14-16.4-26.1-25.1-12-8.6-23.7-17.7-28.6-26.6-4.9-8.8-8-17.8-8.9-26.6s.4-16.5 3.5-23.3 8.1-12.6 14.5-17.5 14.3-8.8 23.4-11.6 19.4-4.6 30.8-5 22.8.7 33.8 3.3 21.6 6.7 31.2 12.5 18.1 13.3 24.5 22.3c6.8 8.9 15.1 22.2 17.6 34.6" class="st2"/><path id="path4408" d="M-834.5 308.6c-8.8 1-17 2.8-24.5 5.3-10 3.3-18.6 7.6-25.7 13s-12.6 11.7-16.2 19.2c-3.6 7.4-5.1 15.9-4.3 25.5s4 19.4 9.1 29.1 15.6 19.7 28.9 29 21.3 19 28.7 27.2c7.3 8.2 17.8 13.4 31.8 14.6 1.6.1 1.9-4.8.5-5.2-12.3-3.2-19.8-11.3-27-17.5-6.7-7.3-13.7-16-25.5-24.3-11.8-8.4-23.2-17.2-28-25.8s-7.8-17.3-8.7-25.8.4-16.1 3.4-22.7c3.1-6.6 7.9-12.3 14.2-17.1s14-8.6 22.9-11.4c4.5-1.4 9.2-2.5 14.3-3.4 5-.8 10.3-1.4 15.9-1.6 11.1-.4 22.3.6 33 3.1 10.8 2.5 21.2 6.5 30.5 12.2 9.3 5.6 17.6 12.9 23.9 21.7s14.5 21.6 17 33.6c2 9.8 1.2 19.8-2.1 28.8-.6 1.7 7.8 4.6 9.9-.2 3.8-9 3.7-19.5 1.6-29.5-2.8-13.5-10.9-27.8-17.9-37.8s-16.2-18.1-26.6-24.4c-10.3-6.3-21.8-10.7-33.7-13.4s-24.2-3.6-36.6-3c-2.9.2-5.9.5-8.8.8" class="st0"/><path id="path4365-1-2" d="M-862.6 399.5c-.2-3 2.5-5.6 8.2-7 8.7-2.2 22.8 2.1 31.7 6.4 4.9 2.4 10.1 4.4 14.4 8.2 1.5 1.3 2.9 2.6 3.8 5-1.9.7-4.7-1-6.7-2.4-7.9-5.4-16.7-9.2-25.8-10.4-7.6-1-10.1-3.5-16.8-2.9-4.1.4-5.5 2.4-8.8 3.1" class="st0"/><path id="path4367-9-2" d="M-824.5 398c.3-2.6 1 4.4-.4 6.2-5.1 6.6-9.3 14-14.1 20.9-1.6 2.2-3.7 0-2.8-2.4 1-2.5 2.3-4.5 3.8-6.6 1.4-1.9 3.2-3.5 4.4-5.5 2.3-3.9 2.7-7.5 4.8-11.6.9-1.5 4.1.4 4.3-1" class="st0"/></g><g id="g4198" transform="matrix(.69027 0 0 .73815 662.658 219.876)"><path id="path4188" d="M-82.2 412.5C-92.8 493.9-111.5 573-177.5 627c-83.3 68.1-211.8 69.5-320.1 4.8-31.3-18.7-56.2-70.6-60.2-104.2-8.3-70.2-2-110.1-9.2-174.8-5.7-51.6-33.7-94.2-31-155.6 1.8-41.2 12.6-89.1 46-114.6 43.8-33.4 95-52.5 153-51.1 82.6 1.9 171.7 7.2 241 56.7 49.5 35.4 77.8 93.7 82.8 153.7 5.1 61.5-.3 118.6-7 170.6" class="st0"/><path id="ellipse4190" d="M-102.9 487.7c-17.7 74.9-66.4 144.7-152.7 172.3-80.2 25.7-161.1 12-239.2-36.7-29.7-18.5-52.3-69.8-55.6-101.6-6.9-67-2.9-108.4-9.4-170.2-5.4-51.6-31.8-89-31-150.2.5-40 10.2-87.4 43-112.2 41.5-31.4 89-51.4 143.6-51.1 86.6.4 184.2 6.3 253.1 64.4 63 53.1 72 146.6 69.1 219.5-2.4 60.2-8.7 114.3-20.9 165.8" style="fill:#8dc9f0"/></g><g id="g4376" transform="rotate(-18.86 374.97 -1457.614)scale(.42416)"><path id="path4398" d="M-603 359.3c2.6 12.9.4 25.4-4.4 36.4s-12 20.3-20.1 27.6-17.3 12.6-27.9 15.5c-10.6 2.8-23.8 5.1-35.9 2.1s-20.5-11.1-27.4-19.6c-6.9-8.4-14.1-18.8-26.2-28.8s-23.8-20.2-28.7-30.5-8.1-20.9-9.1-31.3.3-19.7 3.4-27.9 8-15.3 14.4-21.1 14.3-10.2 23.4-13 19.5-4 30.9-3 22.9 3.9 34 8.7c11.1 4.7 21.8 11.3 31.5 19.2s18.2 17.3 24.8 27.7c6.3 10.4 14.7 25.1 17.3 38" class="st2"/><path id="path4369" d="M-720.3 258.8c-8.9.2-17.1 1.7-24.5 4.1-10 3.3-18.6 8.3-25.7 14.7s-12.5 14.2-16 23.2-5 19.2-4.1 30.5 4.1 22.8 9.3 33.9 15.7 22.3 29 32.8c13.4 10.4 21.4 21.5 28.8 30.5 7.4 8.9 17.9 14.3 31.9 15.6 1.6.1 1.9-4.9.5-5.3-12.3-3.4-19.8-12.2-27.1-19.1-6.7-8.2-13.8-18.3-25.7-28.1-11.8-9.7-23.3-19.7-28.1-29.8s-7.9-20.3-8.9-30.5c-1-10.1.3-19.2 3.3-27.2s7.8-14.9 14-20.6c6.3-5.6 14-10 22.9-12.7 4.5-1.4 9.2-2.4 14.3-2.9 5-.5 10.4-.6 16-.1 11.2.9 22.4 3.8 33.3 8.5 10.8 4.6 21.3 11 30.8 18.7 9.4 7.7 17.8 16.9 24.1 27 6.4 10.2 14.6 24.5 17.1 37.1 2.1 10.3 1.2 20.4-2.1 29.6-.6 1.7 7.8 4.8 9.9 0 3.8-9 3.7-19.6 1.6-29.9-2.8-13.9-10.9-29.4-18-40.7s-16.4-21.4-26.8-29.9-22-15.4-34-20.4-24.4-8.1-36.8-8.9c-3-.2-6-.2-9-.1" class="st0"/><path id="path4365-1" d="M-720.8 338c2.1-3.1 7.2-4.1 15-1.8 12 3.5 25.5 17 32.9 27.3 4.1 5.7 8.7 11.1 11 17.7.8 2.3 1.4 4.5.8 7.6-2.7-.6-4.8-4.1-6.1-6.8-5.3-10.7-12.9-20.3-22.8-27.4-8.3-6-9.3-10.2-17.7-13.9-5.4-2.4-8.6-1.2-13.1-2.7" class="st0"/><path id="path4367-9" d="M-674.3 361.4c2.4-2.5-2.2 5.2-5.1 6.1-11 3.5-21.6 8.2-32.5 12.1-3.5 1.3-4.5-2.4-1.5-4.2 3-1.9 6.2-3.1 9.5-4.3 3.1-1.1 6.4-1.5 9.4-2.8 5.7-2.5 8.9-5.9 14.5-8.7 2-1 4.5 3.1 5.7 1.8" class="st0"/></g><g id="g4634" transform="matrix(.13059 -.42795 -.6087 -.11093 657.596 910.81)"><path id="path4636" d="M360.6 548.1c0 5-1.4 8.6-3.8 11.2-2.5 2.5-6.1 4-10.4 5s-9.4 1.6-14.8 2.1-11.2.9-17 1.2-11.3.4-16.4.1-9.7-.9-13.6-1.9-7.2-2.5-9.5-4.6-3.6-4.9-3.7-8.5 1.1-6.2 3.3-8 5.4-2.8 9.2-3.2 8.4-.3 13.4-.2 10.5.3 16.3-.1 11.7-1.7 17.2-2.9 10.8-2.3 15.3-2.6c4.5-.2 8.2.4 10.7 2.3 2.5 1.8 3.8 5.1 3.8 10.1" class="st1"/><path id="path4638" d="M347.4 533c-4.3 0-9.2.6-14.5 1.5-6.1 1-12.6 2.2-19.3 2.6-6.7.5-13 .4-18.7.5-5.7 0-10.9.2-15.3 1s-8.1 2.2-10.7 4.5-4.1 5.4-4.1 9.3c-.1 3.9 1.4 7.2 4 9.7 2.6 2.6 6.5 4.5 11.1 6 4.6 1.4 10.1 2.4 16 3 5.9.5 12.3.6 19 .3q10.05-.6 18.9-1.5c5.8-.6 11.1-1.4 15.6-2.7 1.7-.5 3.3-1.1 4.7-1.7 2.9-1.4 2.3-7-.1-5.2-2.3 1.7-4.7 1.9-8.1 2.7-4.2.9-9.3 1.1-14.3 1.5s-10 2-15.1 2.4c-5.2.3-10.1.4-14.7.1s-8.9-.9-12.6-1.9-6.8-2.4-9-4.3c-2.1-2-3.3-4.5-3.4-7.7s1-5.5 3-6.9c2-1.5 6.4-.7 9.9-.8s7.8-.6 12.3-.5c4.4.1 7.4-.5 12.5-1.4 5.1-.8 10.4-2.7 15.8-4.2 5.4-1.6 10.5-2.7 14.8-2.9.5 0 1.1 0 1.6-.1 1.3 0 2.6.1 3.7.3 1.3.3 2.6-3.2-1-3.3-.8-.2-1.4-.3-2-.3" class="st0"/></g></g><g id="layer2" transform="translate(-187.257 -224.407)"><g id="g4818" transform="matrix(-.6561 0 0 .6561 666.993 177.202)"><path id="path4812" d="M539.2 307.2c-.5 16.8-4.7 33-11.8 48s-17.1 28.9-29.3 40.9-26.5 22.2-42.2 29.6c-15.7 7.5-32.8 12.3-50.5 13.5-17.8 1.2-34.6-1.3-49.8-7s-28.8-14.5-40.1-25.9-20.3-25.2-26.4-40.8-9.2-32.9-8.7-51.1 4.6-35.5 11.5-51.2 16.7-29.6 28.6-41.2 25.9-20.7 41.4-26.9 32.5-9.4 50.2-9.1c17.8.2 34.7 3.9 50.1 10.2s29.2 15.1 40.8 26 20.9 23.8 27.1 38.1c6.4 14.3 9.6 30.1 9.1 46.9" class="st0"/><path id="ellipse4814" d="M530.4 303.3c0 15.8-3.4 31.3-9.7 45.8-6.2 14.6-15.3 28.2-26.6 40-11.2 11.9-24.7 22-39.5 29.4-14.9 7.4-31.1 12.2-48.1 13.4s-33-1.3-47.5-6.7c-14.5-5.5-27.4-14-38.2-24.7-10.8-10.8-19.4-23.9-25.3-38.6-5.8-14.7-8.9-30.9-8.5-47.9s4.1-33.1 10.5-47.5c6.4-14.5 15.5-27.4 26.6-38 11.1-10.7 24.2-19.1 38.6-24.9 14.5-5.8 30.3-8.9 46.9-9s32.4 2.9 46.9 8.2c14.4 5.4 27.4 13.1 38.4 22.8s19.9 21.2 26 34.3c6.1 13 9.5 27.6 9.5 43.4" class="st4"/><circle id="path4828" cx="352.8" cy="296.8" r="35" class="st5"/><circle id="circle4830" cx="337.3" cy="280.8" r="17.2" class="st4"/></g><g id="g4822" transform="matrix(-.49822 -.256 -.256 .49822 861.528 319.816)"><path id="path4824" d="M503.4 276.5c-6.8 14-17.3 27.5-29.4 40.8s-25.8 26.4-39.2 38.9c-13.4 12.4-26.4 24-38.9 33.3-12.4 9.3-24.4 16.1-36.4 19.3-12 3.1-23.1 2.3-33.3-1.9s-23.4-8.8-31.4-19-14.6-22.9-18.7-37.5c-4.2-14.6-5.9-31-4.5-48.5 1.5-17.5 6.1-34.4 13.4-49.7s17.4-29.1 29.5-40.6c12.2-11.5 32.3-23 48-29.4 15.7-6.3 32.7-9.8 50.2-10s33.6 2.9 47.6 8.4 25.8 13.5 34.5 23.1c8.7 9.7 14.3 21 16 33.3 1.7 12.2-.6 25.5-7.4 39.5" class="st0"/><path id="path4826" d="M496.5 275c-5.9 13.2-15.1 26.2-26.1 39.1-11 12.8-23.8 25.5-36.7 37.2-13 11.7-26 22.4-38.5 30.8-12.4 8.4-24.3 14.6-35.9 17.4s-21.9 2-31.3-1.9-21.7-7.9-28.8-17.2-12.8-21.1-16.2-34.5c-3.5-13.4-4.8-28.6-3.1-44.8s6.3-31.7 13.3-45.9 16.5-27 27.9-37.6c11.4-10.7 30.7-21.6 45.2-27.6 14.6-5.9 30.4-9.3 46.6-9.6 16.1-.3 31.1 2.3 43.9 7.2s23.6 12 31.5 20.6c7.9 8.7 13 18.9 14.6 30.1 1.5 11.2-.5 23.5-6.4 36.7" class="st4"/><circle id="path4828-0" cx="335.9" cy="257.8" r="17.6" class="st5" transform="rotate(-72.266 335.849 257.788)"/><circle id="circle4830-3" cx="330" cy="241.4" r="8.7" class="st4" transform="rotate(-72.266 329.984 241.438)"/></g></g><g id="layer14" transform="translate(-50.232 -102.512)"><path id="rect4964" d="M154 472.9h62.5v18.9H154z" class="st6" transform="rotate(-29.39 185.252 482.36)"/><path id="path4949" d="m209.4 453.1 14.3 25.6 172-84 34.8-33.3-50 11.6z" class="st7"/><path id="path4974" d="M430.6 361.5 380.5 373l-171.1 80 1.3 2.4 169.9-80.6 44.2-10.2-29.8 28.7-172.5 83.1 1 1.8.3.4 171.9-83.9z" class="st8"/><path id="path4972" d="M214.6 457.8 383.1 379l31.1-9.1-24.8 17.8-169.6 80.9z" class="st8"/><path id="path4953" d="m194.9 449.6 1.4-8.7 10.1 1.8 25.3 43.4-3.3 8.3-9.8-5.1z" class="st9"/><path id="path4955" d="m205.1 444.1-7.2-.9 25.8 43.9 7.5-.8-5.2-2.6-23.4-38z" style="fill:#7d7d7d"/><path id="path4966" d="m151.2 479.3-2.4 13.2 10.5 16.9 12.4.8-.9-6.8-12-21.1z" class="st6"/><path id="path4968" d="M152.2 482.2c.2 1.7 10.4 18.1 10.4 18.1l-2.1 6.6-10-15.2z" class="st9"/><path id="path4970" d="m202.1 445.6 23.3 38.6 1.3.8.4-1.2-22.9-37.8z" class="st6"/></g><g id="layer7" transform="translate(-187.257 -224.407)"><path id="rect4659" d="m529.3 437.8-7.2.1-4.2-.1c-1.3 0-2.5.6-3.4 1.5s-1.3 2.2-1.5 3.7l-1.2 8-1.6 8.1c-.3 1.5.1 2.7.8 3.7.7.9 1.8 1.5 3.1 1.5l4.3.1 8.4-.2c1.6 0 3.1-.7 4.2-1.6 1.1-1 1.7-2.3 1.9-3.7l.7-8 .6-8c.1-1.4-.5-2.7-1.4-3.6-1-1-2.2-1.5-3.5-1.5" style="fill:#2e3436"/><path id="rect4661" d="m528 440.2-5.9.1-2.8-.1c-1.1 0-2.1.5-2.8 1.3s-1.2 1.8-1.4 3l-1.1 6.6-1.4 6.6c-.3 1.2 0 2.2.6 3s1.4 1.2 2.5 1.2l2.9.1 6.7-.1c1.3 0 2.5-.5 3.4-1.3s1.5-1.9 1.6-3l.8-6.6.7-6.5c.1-1.2-.3-2.2-1-3-.8-.8-1.8-1.3-2.8-1.3" class="st4"/><path id="ellipse4650" d="M495.1 431c.2 2.6 1.8 4.9 4 7 2.3 2.1 5.4 4 9 5.5s7.7 2.7 11.8 3.3 8.3.7 12.4.2 7.8-1.5 11-2.7 5.9-2.7 8-4.3 3.7-3.4 4.7-5.4 1.4-4.2 1-6.5c-.4-2.4-1.5-4.7-3.2-6.8s-4-4-6.7-5.7c-2.7-1.6-5.8-2.9-9.2-3.7s-7.2-1.2-11.3-1.1-8.2.8-12.1 1.9-7.6 2.6-10.6 4.4c-3.1 1.8-5.6 4-7 6.4-1.5 2.5-2 5.3-1.8 7.5" class="st0"/><path id="ellipse4652" d="M503.7 430.4c.4 2 1.6 4 3.4 5.7s4.3 3.2 7.1 4.4 6 2.1 9.2 2.6 6.5.5 9.7.1 6.1-1.2 8.6-2.2 4.6-2.2 6.2-3.5q2.4-1.95 3.6-4.5c.7-1.6.9-3.4.6-5.3-.4-1.9-1.3-3.7-2.7-5.3s-3.2-3.1-5.3-4.3-4.6-2.2-7.3-2.8-5.6-.9-8.8-.8-6.3.7-9.3 1.5c-3 .9-5.8 2-8.1 3.5-2.4 1.4-4.3 3.1-5.5 5-1.2 1.8-1.7 3.8-1.4 5.9" style="fill:#e1d0cb"/><path id="path4648" d="M515.1 417.9c.5 1.5 1.6 2.8 3.2 3.9 1.5 1.1 3.5 2 5.6 2.7s4.4 1.2 6.7 1.4c2.2.3 4.4.3 6.5.1s3.8-.7 5.3-1.3 2.7-1.5 3.6-2.4c.9-1 1.6-2.1 2-3.3s.5-2.6.2-4-.9-2.8-1.9-4.1c-1-1.2-2.3-2.4-3.8-3.3-1.6-.9-3.4-1.6-5.4-2s-4.3-.5-6.6-.3q-3.6.3-6.6 1.5c-2 .8-3.9 1.8-5.3 3-1.5 1.2-2.6 2.5-3.2 3.9-.6 1.2-.8 2.7-.3 4.2" class="st0"/></g><g id="layer12" transform="translate(-187.257 -224.407)"><g id="g4533" transform="matrix(-.18128 -.40906 -.53288 .31442 696.303 549.414)"><path id="ellipse4523" d="M385.5 584.2c0 5-1.4 8.6-3.8 11.2-2.5 2.5-6.1 4-10.4 5s-9.4 1.6-14.8 2.1-11.2.9-17 1.2c-5.8.4-11.3.4-16.4.1s-9.7-.9-13.6-1.9-7.2-2.5-9.5-4.6-3.6-4.9-3.7-8.5 1.1-6.2 3.3-8 5.4-2.8 9.2-3.2 8.4-.3 13.4-.2 10.5.3 16.3-.1 11.7-1.7 17.2-2.9c5.6-1.2 10.8-2.3 15.3-2.6 4.5-.2 8.2.4 10.7 2.3 2.5 1.8 3.8 5.1 3.8 10.1" class="st1"/><path id="path4521" d="M372.3 569.1c-4.3 0-9.2.6-14.5 1.5-6.1 1-12.6 2.2-19.3 2.6-6.7.5-13 .4-18.7.5s-10.9.2-15.3 1-8.1 2.2-10.7 4.5-4.1 5.4-4.1 9.3c-.1 3.9 1.4 7.2 4 9.7 2.6 2.6 6.5 4.5 11.1 6 4.6 1.4 10.1 2.4 16 3 5.9.5 12.3.6 19 .3s13-.9 18.9-1.5 11.1-1.4 15.6-2.7c1.7-.5 3.3-1.1 4.7-1.7 2.9-1.4 2.3-7-.1-5.2-2.3 1.7-5.2 2.8-8.6 3.6-4.2 1-9 1.5-14.3 2-5.2.5-10.8.9-16.3 1.2-5.6.3-10.9.4-15.7.1-4.9-.3-9.3-.9-13.1-1.9s-6.9-2.4-9.1-4.5-3.5-4.7-3.6-8.2 1.1-6 3.2-7.7 5.1-2.7 8.8-3.1 8.1-.3 12.9-.2 10.1.3 15.7-.1 11.2-1.6 16.6-2.8c5.3-1.2 10.4-2.2 14.7-2.5.5 0 1.1 0 1.6-.1 1.3 0 2.6.1 3.7.3 1.3.3 2.6-3.2-1-3.3-.8-.1-1.4-.1-2.1-.1" class="st0"/></g></g><g id="layer13" transform="translate(-50.232 -102.512)"><path id="path4926" d="M401.1 418.6c30.4-12.5 57.1-27.6 74.5-49.3 20.7 22.3 36.1 26.4 56.5 29.7 3.1 34.7-6.1 138.5-73.2 170.3-73.5-46.5-53.8-100.2-57.8-150.7" style="fill:#1f8179"/><path id="path4912" d="M408.1 419.9c28.2-11.5 52.9-25.6 69.1-45.7 19.2 20.7 33.5 24.5 52.4 27.6 2.9 32.1-5.7 128.4-67.9 157.9-68.1-43.1-49.9-92.9-53.6-139.8" style="fill:#30cabd"/><path id="path4378" d="m438.1 427.9-6.4 4.8-3.8 7.2 4.4 9.9-2.7 23 43.8 31.9 43.8-49.6-2.7-21.9 4.4-11.7-3.8-5.7-6.4-2.2-10.4 10.3-24.8.1-24.8 10z" class="st8"/><path id="path4938" d="m440.1 431-5.9 4.4-3.5 6.6 4.1 9.2-2.5 21.2 40.4 29.5 40.4-45.8-2.5-20.2 4.1-10.8-3.5-5.2-5.9-2-9.6 9.5-22.9.1-22.9 9.2z" class="st7"/><path id="path4940" d="M477.2 374.2c-.6.8-1.3 1.6-2 2.4l-.4.4c-.7.8-1.3 1.5-2 2.3l3.6 7.7c16.1 7.4 31.7 16.5 49.1 18.9 3 5.2 3.2 17.4 2.5 37.8 2.2-17 2.4-31.8 1.6-41.3-.1-.2-.1-.4-.2-.6-1.2-.2-2.3-.4-3.5-.6-1.1-.2-2.3-.4-3.4-.6h-.2c-1-.2-2.1-.4-3.1-.7-1.1-.2-2.2-.5-3.2-.8-.1 0-.3-.1-.4-.1-.9-.2-1.9-.5-2.8-.8-.2-.1-.4-.1-.7-.2-.8-.3-1.7-.5-2.5-.8-.1 0-.2-.1-.3-.1-.9-.3-1.9-.7-2.8-1.1-.3-.1-.6-.2-.8-.4-.8-.3-1.5-.7-2.3-1-.1 0-.1-.1-.2-.1-1-.5-1.9-.9-2.9-1.5-.3-.2-.6-.3-.9-.5-.8-.4-1.5-.8-2.3-1.3-.3-.2-.5-.3-.8-.5-.8-.5-1.6-1-2.4-1.6-1.1-.7-2.1-1.5-3.2-2.3l-.1-.1c-1-.8-2.1-1.7-3.2-2.6q-1.65-1.35-3.3-3c-1.1-1-2.3-2.1-3.4-3.3-1.2-1.1-2.3-2.3-3.5-3.6" class="st8"/><path id="path4928" d="M477.2 374.2c-16.2 20.2-40.9 34.2-69.1 45.7 3.7 46.9-14.5 96.6 53.6 139.8-.2-.2-.4-.4-.6-.7-46-34-51.6-93.5-46.9-135.6 14.2-4.9 62.9-35.9 62.9-35.9s.5-7.4.2-11c-.5-.5.4-1.8-.1-2.3" style="fill:#27a49a"/></g></svg>