<svg version="1.2" baseProfile="tiny-ps" xmlns="http://www.w3.org/2000/svg" viewBox="0 0 1558 1282" width="1558" height="1282">
	<title>Boeing_full_logo-svg</title>
	<style>
		tspan { white-space:pre }
		.shp0 { fill: #0033a1 } 
	</style>
	<path id="Layer" fill-rule="evenodd" class="shp0" d="M1558.78 906.55C1558.78 906.55 976.45 922.1 781.35 937.97L765.48 908.21C727.89 945.31 684.03 975.46 635.94 997.28C587.84 1019.1 536.27 1032.23 483.59 1036.08C430.92 1039.93 377.99 1034.43 327.23 1019.83C276.48 1005.24 228.7 981.78 186.12 950.54C140.82 1071.57 140.82 1156.23 196.04 1177.07C285.66 1210.8 449.01 1063.64 449.01 1063.64C342.2 1222.7 166.28 1320.59 85.26 1266.69C11.19 1216.42 24.75 1067.61 110.4 882.08C42.58 803.15 4.37 703.05 2.34 599C0.3 494.95 34.58 393.44 99.27 311.92C163.95 230.4 255.02 173.96 356.8 152.3C458.59 130.64 564.74 145.11 657.01 193.23C678.25 175.27 699.86 157.76 721.82 140.69C743.79 123.63 766.1 107.02 788.75 90.88C811.4 74.74 834.39 59.07 857.69 43.88C880.98 28.69 904.59 13.98 928.5 -0.23C846.49 69.55 768.78 142.63 697.02 216.38C741.33 245.76 780.04 282.81 811.35 325.77C842.67 368.73 866.08 416.92 880.5 468.09C894.92 519.26 900.11 572.59 895.83 625.58C891.55 678.57 877.86 730.38 855.42 778.57C1171.88 905.56 1557.46 879.11 1558.78 906.55ZM55.83 589.74C55.79 611.16 57.5 632.55 60.95 653.69C64.4 674.84 69.57 695.66 76.42 715.96C83.27 736.25 91.77 755.95 101.84 774.86C111.91 793.77 123.5 811.82 136.52 828.84C166.9 772.46 199.78 717.46 235.08 664.02C270.37 610.58 308.04 558.75 347.97 508.67C387.9 458.6 430.05 410.34 474.29 364.03C518.53 317.73 564.83 273.43 613.03 231.26C553.02 204 487.14 192.22 421.4 197C355.66 201.79 292.17 222.98 236.74 258.64C181.31 294.3 135.71 343.3 104.1 401.14C72.5 458.98 55.9 523.83 55.83 589.74ZM449.67 983.61C476.6 983.62 503.46 980.86 529.82 975.37C556.18 969.88 581.9 961.7 606.59 950.94C631.28 940.19 654.79 926.92 676.76 911.35C698.73 895.78 719.04 878 737.37 858.27L618.65 635.38C632.54 647.9 646.91 659.87 661.73 671.27C676.55 682.67 691.81 693.49 707.47 703.7C723.13 713.91 739.19 723.51 755.6 732.47C772.01 741.43 788.76 749.75 805.82 757.41C826.12 714.27 838.42 667.8 842.12 620.26C845.82 572.72 840.86 524.91 827.48 479.15C814.1 433.38 792.52 390.43 763.8 352.38C735.07 314.32 699.67 281.8 659.33 256.39C442.73 487.22 284 723.34 205.96 899.28C223.16 912.85 241.47 924.96 260.69 935.48C279.91 946 299.98 954.88 320.69 962.05C341.4 969.21 362.67 974.63 384.28 978.24C405.89 981.85 427.76 983.65 449.67 983.61Z" />
</svg>