<svg xmlns="http://www.w3.org/2000/svg" xml:space="preserve" id="svg10" x="0" y="0" version="1.1" viewBox="0.02 49.8 512 412.3"><style>.st0{fill:#292929}</style><g id="layer2" transform="translate(-131.582 -166.501)"><path id="rect959" fill="#000" d="M171.5 269.4h433.7c15.1 0 27.3 12.2 27.3 27.3v261.9c0 15.1-12.2 27.3-27.3 27.3H171.5c-15.1 0-27.3-12.2-27.3-27.3V296.8c0-15.1 12.2-27.4 27.3-27.4" class="st0"/><path id="rect961" fill="#000" d="m189.8 225.6 138.5 9.5 29.5-12.3 32.1 29.3 61.6-35.8 130.4 9.2v59H189.8z" class="st0"/></g><g id="layer1" transform="translate(-131.582 -166.501)"><g id="g1074"><path id="path4" d="M226.5 296.8h113.6v19.4H226.5zm0 42.9h113.6v18.7H226.5zm0 42.3h113.6v19.4H226.5zM435 296.8h113.6v19.4H435zm0 42.9h113.6v18.7H435zm0 42.3h113.6v19.4H435z" style="fill:#0891b2"/><path id="path8" d="M340.1 472.3c0 5.2-4.2 9.5-9.5 9.5H236c-5.2 0-9.5-4.2-9.5-9.5v-37.9c0-5.2 4.2-9.5 9.5-9.5h94.7c5.2 0 9.5 4.2 9.5 9.5v37.9zm208.6 0c0 5.2-4.2 9.5-9.5 9.5h-94.7c-5.2 0-9.5-4.2-9.5-9.5v-37.9c0-5.2 4.2-9.5 9.5-9.5h94.7c5.2 0 9.5 4.2 9.5 9.5z" style="fill:#e0e0e0"/><path id="path6" d="M612.7 259.3h-12v-3.4c0-20.9-14.5-39.6-35.4-39.6H451.5c-26.3 0-49.3 14.4-61.6 35.8-12.3-21.3-35.3-35.8-61.6-35.8H214.6c-20.9 0-40 18.7-40 39.6v3.4h-7.4c-18.3 0-35.6 18.4-35.6 39.3v255.9c0 26.1 22.6 45.7 47.4 45.7h173c15.7 0 28.4 13.9 28.4 28.4h19c0-14.5 12.8-28.4 28.4-28.4h173c24.8 0 42.8-19.6 42.8-45.7V298.6c0-20.9-12.7-39.3-30.9-39.3m-161.2-24.2h113.7c10.5 0 16.7 10.4 16.7 20.9v270.1c0 10.5-6.2 17.3-16.7 17.3H451.5c-20.6 0-40 10.5-54.6 24.6V289.1c0-28.7 25.9-54 54.6-54m-258.3 20.8c0-10.5 10.9-20.9 21.3-20.9h113.7c28.7 0 49.9 25.3 49.9 54v278.7c-9.7-14-29.3-24.4-49.9-24.4H214.6c-10.5 0-21.3-6.9-21.3-17.3zM179 581.5c-14.4 0-28.7-11.3-28.7-27V298.6c0-10.3 9.2-20.5 16.9-20.5h7.4v248c0 20.9 19.1 36 40 36h113.7c18.1 0 34 9.5 43.4 23.5-6-2.8-12.7-4.1-19.7-4.1zm445.2-27c0 15.7-9 27-23.4 27h-173c-7 0-13.7 1.4-19.7 4.1 9.4-14 25.3-23.5 43.4-23.5h113.7c20.9 0 35.4-15.1 35.4-36V278h12c7.7 0 11.5 10.3 11.5 20.5z" style="fill:#fff"/></g></g></svg>