<svg xmlns="http://www.w3.org/2000/svg" xmlns:xlink="http://www.w3.org/1999/xlink" viewBox="0.3 0.79 118.3 127.51"><g id="brightmove_logo" stroke="none" stroke-width="1" fill="none" fill-rule="evenodd"><g fill-rule="nonzero"><g id="Group" fill="#F3CA2F"><g transform="translate(21.000000, 20.000000)"><path d="M28.6,108.3 C27.3,108.3 26.2,107.2 26.2,105.9 C26.2,104.6 27.3,103.5 28.6,103.5 C29.8,103.5 32.3,103.5 35.5,103.5 C40.4,103.5 46.6,103.4 51.1,103.4 C53,103.4 53.6,102.5 53.6,101.7 C53.6,100.9 52.9,100 51.1,100 C48.8,100 45.4,100 41.8,100.1 C37.7,100.1 33.2,100.2 29.7,100.2 C27.1,100.2 25.5,99.2 24.6,98.3 C23.4,97.1 22.8,95.6 22.8,93.9 C22.8,90.7 25.2,87.4 29.7,87.4 C31.8,87.4 35.2,87.4 38.8,87.3 C43.1,87.3 47.9,87.2 51.4,87.2 C52.2,87.2 52.8,87 53.2,86.7 C53.5,86.4 53.6,86 53.6,85.8 C53.6,85.2 53.2,83.9 51.5,83.9 C47.5,83.9 43.6,84 40.1,84.1 C29.1,84.4 25.2,84.4 23.4,82.7 C22.8,82.1 22.5,81.4 22.5,80.6 L22.5,74.6 C22.5,73 20.5,70.8 16.5,68 C16.2,67.8 16,67.6 15.8,67.5 C6.3,60.4 0.9,49.5 0.9,37.7 C0.9,17.1 17.7,0.3 38.3,0.3 C58.9,0.3 75.7,17.1 75.7,37.7 C75.7,49.7 69.9,61.1 60.1,68.1 C58.7,69.1 56.1,70.5 54.1,71.3 C48.7,73.5 40.4,75.3 31.2,66.1 C21.4,56.3 15.6,43.3 14.3,37.4 C13.8,35.2 14.7,34.2 15.5,33.7 C17.4,32.6 18.9,34 21.8,36.8 C25.7,40.6 32.2,46.9 38.5,47 C38.6,47 38.7,47 38.8,47 C47.2,47 54.2,38.6 56.9,35.4 C58.1,34 58.6,33.4 59.8,33.4 L61.4,33.4 L62.1,35 C63.2,37.8 59,51.1 45.5,64.6 C44.6,65.5 43.1,65.5 42.1,64.6 C41.2,63.7 41.2,62.2 42.1,61.2 C48.3,55 52.1,49.2 54.4,44.8 C50.3,48.4 44.7,51.9 38.2,51.8 C31.6,51.7 25.5,46.9 21,42.8 C23.7,48.9 28.3,56.6 34.4,62.7 C41.5,69.8 47.3,68.8 52.1,66.8 C53.8,66.1 56.1,64.8 57.1,64.2 C65.7,58.1 70.8,48.2 70.8,37.6 C70.8,19.6 56.2,5 38.2,5 C20.2,5 5.6,19.6 5.6,37.6 C5.6,47.9 10.3,57.4 18.6,63.7 L19.2,64.1 C21.6,65.8 27.2,69.7 27.2,74.6 L27.2,79.4 C29.4,79.7 35,79.6 40,79.5 C43.6,79.4 47.5,79.3 51.5,79.3 C55.8,79.3 58.4,82.7 58.4,85.9 C58.4,87.6 57.8,89.1 56.6,90.2 C55.7,91 54.1,92 51.5,92 C48,92 43.2,92 38.9,92.1 C35.2,92.1 31.9,92.2 29.8,92.2 C28.2,92.2 27.6,93.2 27.6,94 C27.6,94.2 27.7,94.7 28,95 C28.4,95.4 29,95.5 29.8,95.5 C33.3,95.5 37.8,95.5 41.9,95.4 C45.5,95.4 48.9,95.3 51.2,95.3 C56,95.3 58.4,98.5 58.4,101.7 C58.4,104.9 55.9,108.1 51.2,108.1 C46.7,108.1 40.5,108.2 35.6,108.2 C32.4,108.3 29.8,108.3 28.6,108.3 Z" id="Path"/><circle id="Oval" cx="39.1" cy="36.8" r="7.2"/></g><g id="Path"><g transform="translate(11.000000, 21.000000)"><path d="M2.9,72.4 C2.2,72.4 1.4,72.1 1,71.4 C0.2,70.3 0.5,68.8 1.5,68.1 L10,61.9 C11.1,61.1 12.6,61.4 13.3,62.4 C14.1,63.5 13.8,65 12.8,65.7 L4.3,71.9 C3.9,72.2 3.4,72.4 2.9,72.4 Z"/><path d="M85.4,12.5 C84.7,12.5 83.9,12.2 83.5,11.5 C82.7,10.4 83,8.9 84,8.2 L93.4,1.4 C94.5,0.6 96,0.9 96.7,1.9 C97.5,3 97.2,4.5 96.2,5.2 L86.8,12 C86.4,12.3 85.9,12.5 85.4,12.5 Z"/></g><g transform="translate(0.000000, 55.000000)"><path d="M13.7,5.3 L2.7,5.3 C1.4,5.3 0.3,4.2 0.3,2.9 C0.3,1.6 1.4,0.5 2.7,0.5 L13.7,0.5 C15,0.5 16.1,1.6 16.1,2.9 C16.1,4.2 15.1,5.3 13.7,5.3 Z"/><path d="M116.2,5.3 L105.2,5.3 C103.9,5.3 102.8,4.2 102.8,2.9 C102.8,1.6 103.9,0.5 105.2,0.5 L116.2,0.5 C117.5,0.5 118.6,1.6 118.6,2.9 C118.6,4.2 117.5,5.3 116.2,5.3 Z"/></g><g transform="translate(10.000000, 21.000000)"><path d="M12.5,12.5 C12,12.5 11.5,12.4 11.1,12 L1.7,5.2 C0.6,4.4 0.4,2.9 1.2,1.9 C2,0.8 3.5,0.6 4.5,1.4 L13.9,8.2 C15,9 15.2,10.5 14.4,11.5 C13.9,12.1 13.2,12.5 12.5,12.5 Z"/><path d="M94.9,72.4 C94.4,72.4 93.9,72.3 93.5,71.9 L85,65.7 C83.9,64.9 83.7,63.4 84.5,62.4 C85.3,61.3 86.8,61.1 87.8,61.9 L96.3,68.1 C97.4,68.9 97.6,70.4 96.8,71.4 C96.4,72.1 95.7,72.4 94.9,72.4 Z"/></g><path d="M45.3,16.9 C44.3,16.9 43.4,16.3 43,15.2 L39.3,3.9 C38.9,2.6 39.6,1.3 40.8,0.9 C42.1,0.5 43.4,1.2 43.8,2.4 L47.5,13.7 C47.9,15 47.2,16.3 46,16.7 C45.8,16.8 45.5,16.9 45.3,16.9 Z"/><path d="M73.6,16.9 C73.4,16.9 73.1,16.9 72.9,16.8 C71.6,16.4 71,15 71.4,13.8 L75.1,2.5 C75.5,1.2 76.9,0.6 78.1,1 C79.4,1.4 80,2.8 79.6,4 L75.9,15.3 C75.5,16.2 74.6,16.9 73.6,16.9 Z"/><g transform="translate(11.000000, 21.000000)"><path d="M85.4,12.5 C84.7,12.5 83.9,12.2 83.5,11.5 C82.7,10.4 83,8.9 84,8.2 L93.4,1.4 C94.5,0.6 96,0.9 96.7,1.9 C97.5,3 97.2,4.5 96.2,5.2 L86.8,12 C86.4,12.3 85.9,12.5 85.4,12.5 Z"/><path d="M2.9,72.4 C2.2,72.4 1.4,72.1 1,71.4 C0.2,70.3 0.5,68.8 1.5,68.1 L10,61.9 C11.1,61.1 12.6,61.4 13.3,62.4 C14.1,63.5 13.8,65 12.8,65.7 L4.3,71.9 C3.9,72.2 3.4,72.4 2.9,72.4 Z"/></g><g transform="translate(0.000000, 55.000000)"><path d="M116.2,5.3 L105.2,5.3 C103.9,5.3 102.8,4.2 102.8,2.9 C102.8,1.6 103.9,0.5 105.2,0.5 L116.2,0.5 C117.5,0.5 118.6,1.6 118.6,2.9 C118.6,4.2 117.5,5.3 116.2,5.3 Z"/><path d="M13.7,5.3 L2.7,5.3 C1.4,5.3 0.3,4.2 0.3,2.9 C0.3,1.6 1.4,0.5 2.7,0.5 L13.7,0.5 C15,0.5 16.1,1.6 16.1,2.9 C16.1,4.2 15.1,5.3 13.7,5.3 Z"/></g></g></g></g></g></svg>