<svg xmlns="http://www.w3.org/2000/svg" viewBox="0.28 0.26 32.47 32.47"><ellipse cx="16.52" cy="16.497" rx="16.236" ry="16.235" fill="#cc092f"/><path d="M30.825 20.883c-1.857-.74-3.557-.492-5.26.541 0 0-.622.38-.808.496-.794.498-1.543.97-2.263.97-.687 0-1.363-.184-1.649-1.513-.446-2.073-1.534-7.167-2.009-9.69-.279-1.483-.432-2.282-.59-2.825-.28-.954-.793-1.473-1.52-1.556 0 0-.114-.016-.207-.016s-.218.018-.218.018c-.72.086-1.229.605-1.507 1.554-.159.543-.312 1.342-.59 2.825-.476 2.523-1.564 7.617-2.01 9.69-.286 1.33-.962 1.513-1.649 1.513-.72 0-1.469-.472-2.263-.97l-.808-.496c-1.703-1.033-3.404-1.28-5.26-.54-.4.16-.796.338-1.172.52.257.805.577 1.599.95 2.344.411-.202.842-.403 1.282-.533.634-.187 1.284-.197 1.914.014.612.205 1.157.568 1.7.91 1.023.642 2.182 1.371 3.657 1.371 2.186 0 3.72-1.305 4.21-3.58.38-1.765 1.222-5.703 1.763-8.419 0 0 1.386 6.654 1.765 8.418.49 2.276 2.025 3.581 4.211 3.581 1.475 0 2.634-.729 3.657-1.372.543-.34 1.088-.704 1.7-.909.63-.21 1.28-.2 1.914-.014.44.13.87.33 1.282.533a16 16 0 0 0 .95-2.345 19 19 0 0 0-1.172-.52" fill="#fff"/></svg>