<?xml version="1.0" encoding="UTF-8" standalone="no"?>
<!DOCTYPE svg PUBLIC "-//W3C//DTD SVG 1.1//EN" "http://www.w3.org/Graphics/SVG/1.1/DTD/svg11.dtd">
<svg width="100%" height="100%" viewBox="0 0 39 43" version="1.1" xmlns="http://www.w3.org/2000/svg" xmlns:xlink="http://www.w3.org/1999/xlink" xml:space="preserve" xmlns:serif="http://www.serif.com/" style="fill-rule:evenodd;clip-rule:evenodd;stroke-linejoin:round;stroke-miterlimit:2;">
    <g id="Layer_2">
        <g id="Layer_1-2">
            <path d="M21,6.85L30.87,12.21L21.75,0C20.278,1.976 19.99,4.603 21,6.85Z" style="fill:url(#_Linear1);fill-rule:nonzero;"/>
            <path d="M16.54,26.73C17.774,26.73 18.79,27.746 18.79,28.98C18.79,30.214 17.774,31.23 16.54,31.23C15.313,31.23 14.301,30.227 14.29,29C14.29,28.993 14.29,28.987 14.29,28.98C14.29,27.746 15.306,26.73 16.54,26.73C16.54,26.73 16.54,26.73 16.54,26.73Z" style="fill:url(#_Linear2);fill-rule:nonzero;"/>
            <path d="M9.67,1.79L37.31,16.79C37.77,17.014 38.064,17.483 38.064,17.995C38.064,18.507 37.77,18.976 37.31,19.2C35.22,20.458 32.93,21.351 30.54,21.84L24.79,33.64C24.79,33.64 22.97,37.78 17.96,36.19C20.06,34.09 22.6,32.19 22.6,28.96C22.6,25.63 19.86,22.89 16.53,22.89C13.2,22.89 10.46,25.63 10.46,28.96C10.46,33.18 14.62,34.96 16.93,37.89C17.966,39.357 17.828,41.369 16.6,42.68C13.73,39.84 8.18,35.05 5.9,31.91C4.654,30.327 3.968,28.374 3.95,26.36C4.174,21.978 7.134,18.183 11.33,16.9C12.589,16.533 13.9,16.374 15.21,16.43C17.037,16.568 18.812,17.104 20.41,18C22.86,19.44 24.05,19.06 25.74,17.64C26.74,16.82 27.83,14.15 26.14,13.53C25.587,13.35 25.023,13.209 24.45,13.11C21.31,12.5 15.82,11.92 13.8,10.77C10.59,9 8.43,5.35 9.67,1.79Z" style="fill:url(#_Linear3);fill-rule:nonzero;"/>
            <path d="M22.55,28.99C23.83,22.26 17,15.84 11.76,16.8L12.11,16.72C11.83,16.78 11.56,16.85 11.3,16.93C7.104,18.213 4.144,22.008 3.92,26.39C3.952,28.41 4.656,30.364 5.92,31.94C8.2,35.08 13.75,39.87 16.62,42.71C17.848,41.399 17.986,39.387 16.95,37.92C14.59,35 10.43,33.21 10.43,29C10.43,25.67 13.17,22.93 16.5,22.93C19.83,22.93 22.57,25.67 22.57,29L22.55,28.99Z" style="fill:url(#_Linear4);fill-rule:nonzero;"/>
            <path d="M9.67,1.79L30.67,13.23L31.27,13.56C31.77,13.95 32.27,14.73 31.62,16.17C30.62,18.32 26.62,20.4 22.01,18.77C23.45,19.19 24.43,18.71 25.69,17.65C26.69,16.83 27.78,14.16 26.09,13.54C25.537,13.36 24.973,13.219 24.4,13.12C21.26,12.51 15.77,11.93 13.75,10.78C10.59,9 8.43,5.35 9.67,1.79Z" style="fill:url(#_Linear5);fill-rule:nonzero;"/>
            <path d="M9.67,1.79C11.84,9.79 25.05,10.45 31.67,13.79L9.67,1.79Z" style="fill:url(#_Linear6);fill-rule:nonzero;"/>
            <path d="M16.9,37.92C14.59,35 10.43,33.21 10.43,29C10.442,25.961 12.734,23.375 15.75,23C10.956,23.016 7.016,26.956 7,31.75C6.999,32.341 7.059,32.931 7.18,33.51C9.09,35.67 11.85,38.22 14.18,40.38C15.09,41.23 15.93,42.03 16.62,42.71C17.194,42.045 17.544,41.215 17.62,40.34C17.675,39.474 17.419,38.616 16.9,37.92Z" style="fill:url(#_Linear7);fill-rule:nonzero;"/>
            <path d="M22.52,29.71C22.552,29.471 22.568,29.231 22.57,28.99C23.83,22.26 17,15.84 11.76,16.8C12.879,16.53 14.03,16.415 15.18,16.46C22.05,16.74 23.97,24.08 22.52,29.71Z" style="fill:url(#_Linear8);fill-rule:nonzero;"/>
            <path d="M2.26,14.84C3.502,14.845 4.52,15.868 4.52,17.11L4.52,19.37L2.26,19.37C1.02,19.37 0,18.35 0,17.11C-0,15.868 1.018,14.845 2.26,14.84Z" style="fill:url(#_Linear9);fill-rule:nonzero;"/>
        </g>
    </g>
    <defs>
        <linearGradient id="_Linear1" x1="0" y1="0" x2="1" y2="0" gradientUnits="userSpaceOnUse" gradientTransform="matrix(19.64,0,0,19.64,16.85,6.11)"><stop offset="0" style="stop-color:rgb(251,170,25);stop-opacity:1"/><stop offset="1" style="stop-color:rgb(239,62,35);stop-opacity:1"/></linearGradient>
        <linearGradient id="_Linear2" x1="0" y1="0" x2="1" y2="0" gradientUnits="userSpaceOnUse" gradientTransform="matrix(1.54,-4.21,4.21,1.54,15.77,31.08)"><stop offset="0" style="stop-color:rgb(247,141,30);stop-opacity:1"/><stop offset="1" style="stop-color:rgb(243,113,33);stop-opacity:1"/></linearGradient>
        <linearGradient id="_Linear3" x1="0" y1="0" x2="1" y2="0" gradientUnits="userSpaceOnUse" gradientTransform="matrix(23.93,-25.65,25.65,23.93,3.56,32.53)"><stop offset="0" style="stop-color:rgb(254,190,45);stop-opacity:1"/><stop offset="1" style="stop-color:rgb(240,78,35);stop-opacity:1"/></linearGradient>
        <linearGradient id="_Linear4" x1="0" y1="0" x2="1" y2="0" gradientUnits="userSpaceOnUse" gradientTransform="matrix(-13.24,20.38,-20.38,-13.24,20.47,17.54)"><stop offset="0" style="stop-color:rgb(234,68,37);stop-opacity:1"/><stop offset="1" style="stop-color:rgb(253,187,39);stop-opacity:1"/></linearGradient>
        <linearGradient id="_Linear5" x1="0" y1="0" x2="1" y2="0" gradientUnits="userSpaceOnUse" gradientTransform="matrix(41.8,0,0,41.8,0.24,10.57)"><stop offset="0" style="stop-color:rgb(244,121,32);stop-opacity:1"/><stop offset="1" style="stop-color:rgb(233,56,37);stop-opacity:1"/></linearGradient>
        <linearGradient id="_Linear6" x1="0" y1="0" x2="1" y2="0" gradientUnits="userSpaceOnUse" gradientTransform="matrix(85.05,0,0,85.05,-21.84,7.78)"><stop offset="0" style="stop-color:rgb(253,202,11);stop-opacity:1"/><stop offset="1" style="stop-color:rgb(245,132,31);stop-opacity:1"/></linearGradient>
        <linearGradient id="_Linear7" x1="0" y1="0" x2="1" y2="0" gradientUnits="userSpaceOnUse" gradientTransform="matrix(8.85,30.87,-30.87,8.85,8.54,18.07)"><stop offset="0" style="stop-color:rgb(231,60,37);stop-opacity:1"/><stop offset="1" style="stop-color:rgb(250,162,27);stop-opacity:1"/></linearGradient>
        <linearGradient id="_Linear8" x1="0" y1="0" x2="1" y2="0" gradientUnits="userSpaceOnUse" gradientTransform="matrix(126.25,0,0,126.25,-51.37,23.08)"><stop offset="0" style="stop-color:rgb(253,186,18);stop-opacity:1"/><stop offset="1" style="stop-color:rgb(247,146,30);stop-opacity:1"/></linearGradient>
        <linearGradient id="_Linear9" x1="0" y1="0" x2="1" y2="0" gradientUnits="userSpaceOnUse" gradientTransform="matrix(21.3796,3.8052,-3.8052,21.3796,0.3616,90.5816)"><stop offset="0" style="stop-color:rgb(254,190,45);stop-opacity:1"/><stop offset="1" style="stop-color:rgb(240,78,35);stop-opacity:1"/></linearGradient>
    </defs>
</svg>
