<svg xmlns="http://www.w3.org/2000/svg" viewBox="81.75 17.26 496.39 625.48"><path fill="#2563EB" d="m0 0 1.998-.009c2.22-.009 4.438-.01 6.657-.012l4.81-.015q6.623-.02 13.243-.028 5.678-.011 11.354-.027Q56.771-.139 75.48-.164l9.747-.015a85969 85969 0 0 1 74.59-.086l3.523-.003c18.809-.017 37.617-.058 56.425-.11q28.983-.077 57.964-.087c10.843-.005 21.687-.02 32.53-.06q13.86-.053 27.72-.036c4.71.006 9.418.002 14.127-.028 25.836-.157 47.007.47 67.096 18.854 13.003 13.759 16.83 30.594 16.992 48.988l.086 4.879c.093 5.669.136 11.338.172 17.008l.022 3.278c.114 17.64.12 35.279.105 52.918q-.002 5.991.003 11.981c.015 17.275-.01 34.549-.13 51.823l-.02 2.959a1190 1190 0 0 1-.197 15.175c-.039 2.05-.061 4.1-.082 6.15-.465 17.916-6.122 33.105-18.783 45.985-14.821 13.87-33.352 17.042-52.945 17.002q-2.043.006-4.085.016-4.357.017-8.716.018c-4.598.002-9.196.02-13.794.04-11.41.05-22.82.08-34.23.102-8.893.016-17.784.04-26.676.083q-6.852.032-13.704.027-4.26.005-8.52.034a737 737 0 0 1-5.814-.006c-9.481.08-14.502 2.395-21.81 8.352q-1.841 1.47-3.687 2.938l-1.937 1.543a671 671 0 0 1-10.375 8.02l-1.943 1.501c-9.087 6.873-16.09 9.344-27.682 8.06-6.616-1.65-11.897-6.86-17.145-10.991-4.561-3.58-9.201-7.05-13.855-10.508l-2.464-1.853c-.775-.575-1.55-1.15-2.349-1.74l-2.082-1.554c-4.242-2.727-7.845-3.603-12.865-3.618l-3.487-.025-3.798.003-4.023-.021q-4.325-.022-8.651-.028c-4.57-.006-9.14-.028-13.71-.052-9.71-.05-19.422-.081-29.134-.112-10.462-.033-20.923-.07-31.385-.124q-6.798-.035-13.596-.044-4.253-.01-8.507-.036c-1.918-.009-3.836-.008-5.754-.006-18.876-.134-36.23-4.836-50.383-17.915-16.465-17.613-17.966-38.465-17.958-61.374l-.01-5.08c-.009-4.57-.01-9.14-.012-13.711q0-4.295-.005-8.588-.014-15.012-.013-30.024 0-13.944-.025-27.887-.02-12.015-.018-24.03.001-7.156-.013-14.313-.014-6.735-.003-13.472.002-2.456-.007-4.912c-.073-20.846 2.45-40.827 17.44-56.672C-31.273 7.99-15.469.038 0 0m-6.548 54.14c-3.002 4.425-3.377 8.05-3.382 13.325l-.014 2.168a799 799 0 0 0 .007 7.157l-.016 5.146c-.014 4.65-.009 9.301 0 13.952.008 4.87.001 9.74-.003 14.61q-.008 12.266.016 24.533c.016 9.451.01 18.902-.006 28.353q-.02 12.177-.008 24.355.01 7.27-.004 14.54-.012 6.837.014 13.672.006 2.506-.003 5.014a652 652 0 0 0 .017 6.85l.003 3.87c.51 4.66 1.878 8.096 5.378 11.267 3.718 2.208 6.746 2.314 10.981 2.32l3.789.011 4.165-.001 4.381.01q4.722.012 9.444.016c4.985.006 9.97.023 14.956.042l5.124.019 2.592.01c11.605.041 23.21.074 34.816.087q11.742.011 23.484.07c4.139.019 8.278.031 12.417.026q5.85-.005 11.701.037 2.136.01 4.272 0c13.55-.062 22.733 2.826 33.128 11.478q3.337 2.705 6.685 5.398 1.996 1.607 3.957 3.255c2.835 2.252 4.563 3.4 8.233 3.468 3.293-1.212 5.254-2.665 7.875-4.996 4.26-3.623 8.56-7.118 13.062-10.437l1.639-1.262c9.097-6.627 19.124-6.8 30.016-6.748l4.38-.016q4.685-.017 9.37-.01c4.943.007 9.885-.009 14.828-.028 11.377-.041 22.753-.053 34.13-.064 10.444-.01 20.887-.027 31.331-.068q7.365-.026 14.732-.015c3.054.002 6.108-.01 9.162-.023a562 562 0 0 1 4.24.003c1.933.009 3.866-.003 5.799-.016l3.273-.002c4.433-.55 7.837-2.052 10.85-5.376 2.375-4 2.317-7.364 2.328-11.926l.01-2.148q.011-3.573.01-7.144l.016-5.115q.019-6.955.024-13.91l.011-8.688q.022-13.59.028-27.18.007-15.69.05-31.382.032-12.127.034-24.253 0-7.244.024-14.487.025-6.815.01-13.63 0-2.5.014-4.999c.012-2.277.007-4.554-.004-6.831l.005-3.86c-.486-4.5-1.994-7.782-4.872-11.26-3.301-2.613-6.735-2.314-10.756-2.319l-3.997-.011-4.418.002q-2.337-.003-4.672-.009-6.438-.011-12.875-.01-6.935-.005-13.871-.016-15.173-.02-30.347-.024l-18.94-.012a103929 103929 0 0 0-52.415-.026h-3.39l-3.398-.001-6.817-.001-3.416-.001c-18.27-.004-36.54-.022-54.81-.045q-28.12-.035-56.241-.037-15.795 0-31.59-.025-13.45-.023-26.897-.012c-4.576.004-9.152.003-13.728-.011q-6.28-.019-12.563 0a648 648 0 0 1-4.548-.01 551 551 0 0 0-6.178.009l-3.468-.002c-3.648.43-6.04 1.467-9.165 3.374" style="--darkreader-inline-fill:#1043b2" transform="translate(141.548 17.86)"/><path fill="#2563EB" d="m0 0 3.387-.012 3.721.003 3.953-.009q5.436-.011 10.872-.01 5.861-.005 11.723-.017 12.817-.019 25.636-.024L75.299-.08q22.158-.02 44.316-.026h2.865l2.872-.001 5.762-.002H134a37625 37625 0 0 0 46.31-.045q23.771-.035 47.542-.038 13.347.002 26.694-.024 11.366-.024 22.731-.013 5.797.008 11.596-.01c4.192-.016 8.384-.008 12.576.003l3.694-.024c9.377.054 16.12 1.54 23.124 8.048 7.273 7.524 13.857 15.72 20.344 23.922 3.585 4.518 7.262 8.962 10.922 13.421q3.24 3.952 6.472 7.91 2.88 3.52 5.774 7.024c18.373 22.329 18.373 22.329 18.058 35.191-.718 6.781-3.033 12.092-7.992 16.813-6.008 4.735-12.659 6.882-20.312 6.062-9.988-1.742-16.247-8.803-22.66-16.165l-1.899-2.178-1.441-1.657-.011 3.53a9021 9021 0 0 1-.173 33.14 4067 4067 0 0 0-.087 17.032q-.025 8.238-.098 16.476a940 940 0 0 0-.023 6.246c-.019 22.282-2.843 41.405-18.944 58.139-7.453 6.82-16.203 11.08-25.664 14.437l-2.123.787c-7.129 2.427-13.887 2.763-21.377 2.776l-3.512.111c-8.896.045-15-2.109-21.6-8.148-5.737-6.33-6.917-12.328-6.67-20.596.707-7.363 3.725-13.02 9.282-17.93 7.718-4.994 15.38-5.231 24.318-5.341 5.324-.192 8.462-1.122 12.682-4.659 2.2-3.3 2.287-4.49 2.414-8.347l.117-3.25c.03-1.144.062-2.287.094-3.465l.115-3.52c.288-9.473.37-18.94.26-28.418l-2.287.639c-8.904 2.292-17.417 2.834-26.55 2.873q-2.375.026-4.751.055c-4.347.049-8.693.078-13.04.104q-4.148.027-8.297.064a8641 8641 0 0 1-41.361.25l-11.597.049q-26.53.108-53.06.144-7.387.011-14.775.031-10.106.026-20.213.02-3.724.003-7.45.013c-18.894.055-37.915-.304-56.62-3.242a3268 3268 0 0 0-.11 15.851q-.015 2.693-.04 5.386c-.025 2.59-.036 5.178-.045 7.767l-.031 2.41c-.001 4.91.513 8.964 2.227 13.586 3.697 3.513 6.23 5.122 11.273 5.138l2.718.017 2.991.003 3.144.016q3.39.015 6.78.026 5.373.017 10.746.053c10.187.061 20.374.115 30.56.149 6.227.02 12.454.056 18.681.1q3.555.022 7.11.027c3.326.005 6.652.028 9.979.055l2.942-.01c9.593.117 17.429 1.932 24.45 8.657 5.703 6.21 5.995 12.305 5.895 20.445-.644 7.945-4.021 12.733-9.976 17.817-6.847 4.502-12.505 4.954-20.543 4.943l-3.373.03c-3.674.03-7.348.035-11.022.038l-7.71.03q-8.086.027-16.173.022c-6.185-.001-12.37.03-18.555.078-5.992.044-11.984.054-17.977.053q-3.792.004-7.583.04c-23.784.199-42.207-3.59-60.072-20.352-11.861-12.327-16.563-27.615-16.604-44.414l-.03-2.872c-.031-3.094-.048-6.189-.065-9.284l-.06-6.481q-.073-8.488-.127-16.976c-.04-5.785-.091-11.57-.142-17.355q-.143-16.997-.257-33.993h-2a125 125 0 0 0-4.063 5.125c-5.61 6.998-11.817 12.46-20.937 13.875-7.522.181-13.222-1.068-19-6-4.637-4.523-7.65-8.628-8.336-15.234l-.04-3.516-.085-3.484c1.048-8.564 5.494-14.588 11.023-20.953q1.89-2.232 3.777-4.469l1.883-2.219c2.546-3.044 4.978-6.17 7.403-9.312 4.209-5.421 8.607-10.65 13.099-15.838a369 369 0 0 0 10.334-12.53c2.913-3.668 5.89-7.282 8.863-10.902a154 154 0 0 0 4.063-5.195c2.053-2.391 3.747-3.638 6.516-5.098l2.28-1.234C-7.745.343-4.318.006 0 0m23.533 51.131c-1.578 22.531-1.578 22.531 7 42 7.559 6.061 15.688 7.306 25.108 7.254l2.676.01c2.942.008 5.883.002 8.825-.005l6.349.01c5.735.01 11.47.006 17.206 0 6.007-.005 12.015 0 18.022.003q15.132.004 30.263-.01c11.656-.012 23.312-.008 34.968.003q15.023.013 30.044.005 8.968-.006 17.935.003 8.431.008 16.862-.01 3.092-.004 6.183.003a1543 1543 0 0 0 8.45-.012l2.46.014c9.517-.065 17.628-2.247 24.461-9.08 7.991-11.644 4.188-26.978 4.188-40.188z" style="--darkreader-inline-fill:#1043b2" transform="translate(175.467 391.869)"/><path fill="#2563EB" d="M0 0c8.669 6.824 16.322 15.028 24.137 22.787q2.55 2.526 5.117 5.035a1291 1291 0 0 1 7.445 7.354l2.298 2.23c5.835 5.858 10.245 12.066 11.632 20.352-.383 19.439-15.787 30.616-28.727 43.635a837 837 0 0 0-3.934 3.996C-1.24 125.024-1.24 125.024-14.187 125.313c-7.14-.088-11.438-1.292-16.747-6.043-5.323-5.546-7.526-11.1-8.503-18.645C-38.152 89.975-33.454 83.382-26 76l3.922-3.96C-18.406 68.338-14.71 64.661-11 61c-5.226-6.313-10.958-11.957-16.898-17.596-6.852-6.687-10.607-12.968-11.352-22.654.536-8.042 3.2-14.333 9.25-19.75 9.453-6.731 20.121-6.88 30-1" style="--darkreader-inline-fill:#388fed" transform="translate(440 104)"/><path fill="#2563EB" d="M0 0c6.32 3.372 10.552 8.146 12.809 14.965 1.297 9.556.378 16.96-5 25C4.253 44.075.418 47.833-3.504 51.59a1889 1889 0 0 0-3.111 3.043q-3.77 3.685-7.576 7.332c3.152 3.803 6.345 7.41 9.91 10.832l2.06 1.982q2.087 1.994 4.196 3.961c5.743 5.57 10.673 11.977 11.462 20.201-.155 8.568-.468 14.663-6.5 20.985-6.9 6.391-12.34 7.525-21.695 7.34-14.394-1.261-26.376-18.029-36.012-27.64-2.24-2.23-4.49-4.448-6.74-6.667l-4.326-4.31-2.014-1.977c-6.857-6.89-12.133-14.128-12.408-24.117.59-11.58 7.774-18.901 15.68-26.735l2.813-2.825q2.932-2.94 5.883-5.861c2.505-2.482 4.991-4.982 7.473-7.487 2.392-2.41 4.8-4.805 7.206-7.202l2.677-2.702C-24.888.25-13.402-5.852 0 0" style="--darkreader-inline-fill:#388fed" transform="translate(245.191 102.035)"/><path fill="#2563EB" d="M0 0c6.215 3.759 9.695 9.106 11.883 15.918 1.284 7.732-.305 14.105-2.492 21.496l-.943 3.267c-1.037 3.573-2.094 7.14-3.155 10.706l-1.118 3.772a2320 2320 0 0 1-7.198 23.736 1342 1342 0 0 0-2.498 8.2Q-7.05 92.161-8.62 97.217a683 683 0 0 0-1.691 5.603c-2.8 8.932-6.414 16.244-14.397 21.566-6.754 3.247-14.786 3.21-21.926 1.16-7.158-3.226-11.056-8.032-14.449-14.973-1.718-8.762-.39-16.57 2.27-24.969l.919-3.031a1371 1371 0 0 1 2.998-9.687q1.033-3.356 2.063-6.71 2.066-6.723 4.158-13.438 2.264-7.291 4.445-14.61 1.445-4.829 2.914-9.65.662-2.19 1.31-4.385C-37.271 14.85-34.456 5.462-25.52.449l1.98-1.152C-16.09-4.403-7.38-3.344 0 0" style="--darkreader-inline-fill:#388fed" transform="translate(354.707 102.613)"/></svg>