<?xml version="1.0" encoding="UTF-8"?>
<svg id="Layer_1" xmlns="http://www.w3.org/2000/svg" version="1.1" viewBox="0 0 512 512">
  <!-- Generator: Adobe Illustrator 29.3.1, SVG Export Plug-In . SVG Version: 2.1.0 Build 151)  -->
  <defs>
    <style>
      .st0 {
        fill: #662a79;
      }

      .st1 {
        fill: #953880;
      }

      .st2 {
        fill: #231f20;
      }

      .st3 {
        fill: #3f2769;
      }

      .st4 {
        fill: #a762a8;
      }

      .st5 {
        fill: #703f98;
      }

      .st6 {
        fill: #c886b6;
      }

      .st7 {
        fill: #4b853d;
      }

      .st8 {
        fill: #592e89;
      }

      .st9 {
        fill: #294e25;
      }
    </style>
  </defs>
  <path class="st2" d="M394.9,122.5l37.9,27.8c4.8,4.2,21.8,22.5,24,27.6,4.6,10.5-5.8,17.3-14.6,19.8,4.1,5.2,11.9,8,16.4,12,19.3,17.1,51.1,66.5,53.1,92.1,1.5,19.1-2.4,26.7-22.7,24.8-3.6-.3-6.3-2-9.4-2.2-8.7-.6-18,.4-26.8,0,7.5,9.5,18.4,20.7,23.9,31.3,10.4,19.8,18.4,67,14.5,88.7s-11.2,24-20,31.6c-11.3,9.8-28,1.9-39.2-4.1-14.3-7.6-33.2-19.7-45.1-30.7-2.3-2.1-10.8-12.7-12.6-12.7-21.8,43.6-79.1,56.1-117.8,26.4-25.3,38.8-77.2,48.9-114.8,21-32.3,45.4-102.4,43.6-130.9-5-20.9-35.6-10.7-79.7,21.8-104.1-27.2-36.4-17.9-90.2,21.2-113.6-2.7-5.7-6.7-10.9-9.4-16.9-15.4-35-3.9-76.9,28.4-97.6s10.7-5.1,15.7-8.5l-22.7-20.5c-4.2-8.4-12.5-14.4-16.7-23.3-7.5-16.1,6.5-23,19.6-26.5,24.2-6.6,70.3-2.2,94,6.6s18.7,9.2,19.4,8.4c1.2-6.4-1.6-12.4-2.1-18.4-1.3-15.6,2.9-39.2,14.7-50.5,6.7-6.5,18.9-1.6,26.6,1.9,17.9,8.1,38,25.7,47.3,43.2,6.5,12.1,11.5,28.2,15.5,41.3,11.3-2.2,22.5-5.1,34.2-3.7,4.3.5,10.2,3.8,14.8,3.1,1.5-.2,14.5-12.4,18-14.7,5.6-3.7,15.8-9.1,22.1-11.6,11.1-4.4,31.7-8.3,40.9-13.8,8.3-4.9,17.5-20.3,26-24.5,2.8-1.4,14.5-5.2,17.5-5.6,28.1-4.4,47.4,25.1,29.7,47.6-17.7,22.5-33.5,32.3-60.2,41.9-10.8,3.9-22.6,4.9-32.4,11.3Z"/>
  <g>
    <path class="st7" d="M391,423.2c-14.7-12.6-12.3-29.9-15.8-46.9s-7.8-21.3-10.8-32.2c.3-4.4,15.2-13.3,19.3-18.6,13.3-17.1,17.6-52,11.5-72.3-1.1-3.7-10.7-22.5-13-24.9-5.9-6-28.8-20.8-36.8-23.2s-17.4,0-17.8-7.5c-.4-6.4,14.3-23.2,18.3-29,5.3-7.6,10.1-14.8,15.6-22.3,7.6-10.4,5.4-16.4,20.8-8.7,14.4,7.2,25.9,18.5,39.3,27,3.4,5.5,11.7,7.1,8.9,14.9-.8,2.3-6.9,3.9-8.6,12.4-2.3,11.1.8,13.6,8.8,20.4,7,6,13.2,9.6,20,16.8,19.9,20.9,33.5,45.5,45.3,71.6,1.4,15.4-20.8,6.9-29.2,5.9-15-1.7-28.8-2.4-43.9-1-17.3,13.9,10.2,27,19.3,35s7.9,7.7,9.4,9.5c14.9,17.5,29.8,85.5,15.8,104.2-7.6,10.1-17.4,6.7-27.3,2.1s-38-23.9-49.2-33.5Z"/>
    <path class="st7" d="M205.1,23.8c9.4-1.6,29.4,12.8,35.5,19.8,6.7,7.7,25,39.9,26.6,49.2,1.6,9.2-.3,17.3-10.8,17.2-9.1-.1-18.8-2-28.4-1.1s-36.3,10.4-45.5,16.6-12.6,14.4-15.1,15.4c-7.4,3.2-11.5-2.7-17.1-4.9-12.9-5.1-24.9-5.6-38.1-7.1-6.9-.8-5.8-5.1-9.4-9.5-8.7-10.6-21.6-17.9-30.6-28.4-4.2-4.8-6.1-13,1.6-15.4s22.9-.8,29-.5c12.7.6,29.5,2.5,41.8,5.6,19,4.7,36.6,16.7,56.7,14,1.6-1.1,1.1-17.9,1-21.2-.4-12.1-4.3-29.7-3.2-41,.4-3.7,1.8-8,6-8.8Z"/>
    <path class="st8" d="M293.8,336.2c28-.6,43.3,33.4,35.2,58.3-11.4,35.2-60.4,52.5-79.4,16.5-4.4-8.2-2.5-31.3.5-40,5.2-14.8,27.6-34.1,43.7-34.7Z"/>
    <path class="st0" d="M285.4,284.6l2.8-.5c41.9,20,78.2-18.9,53.9-60.1l.2-3.6c10.2,1.6,23.2,11.9,30,20,6.9,8.3,13.8,23.4,13.1,34.2-1,17.4-9.2,39.4-23.2,50.4-2.5,1.9-8,5.9-10.9,5.9-5.8,0-17.9-7.5-25.6-9.2s-12.1-2.2-16.5-2.4c-6.1-.4-18.9,2.1-23,.9-1.5-.5-2.7-1.8-2.8-3.4-.2-4.2,3.1-14.5,3.2-20.1,0-4-1.8-7.9-1.1-12.1Z"/>
    <path class="st8" d="M134.9,435.1c-11.6-26.8,1.7-58.6,26.3-72.6,4.9-2,9.9-1.3,15.2,2.1,6.6,4.1,13.5,7.2,20.9,9.7,20.3,26.3,14.7,71.8-24.6,73.6-14,.6-29.8-.2-37.8-12.8Z"/>
    <path class="st3" d="M249.6,410.9c.4.7,10.1,10.8,11.1,11.6,11.8,9.1,36.6,6.4,47.9-2.6,26.6-21.1,29-58.6-.5-78.4-4.2-2.8-9.3-5.4-14.2-5.2,7.2-1.8,18.3-1.2,25.5.2,13.6,2.8,33.4,20,38.7,32.9,8.7,21.3,6.2,47.5-10,64.8s-14.3,11.9-16.6,12.8c-7.9,3.3-28.5,6-37,4.9-7.7-1-24-9.1-30.1-14.1-5.5-4.5-14.6-19.5-14.7-26.9Z"/>
    <path class="st8" d="M82.3,393c29.8,16.9,15.5,63.9-15.8,70.9-10,2.2-31.8-1.3-39.8-7.4-11-8.3-8.1-38.9-3.3-50.9,4.6-9.1,8.7-11.4,15.7-17.5,4.6-4.1,5-9.7,13.8-7.3,8.6,2.4,20.1,10.8,29.4,12.1Z"/>
    <path class="st9" d="M440.8,54.8c2.2-2,4.2-5.9,7.2-8,8.5-6.2,29.2-9.3,25.6,6.6-.9,4-3.7,3.9-5.5,6.1-15.5,19.3-21.7,23.9-45.3,32.6-37.8,13.8-56.3,16.6-81,51.6-8.4,11.9-14.6,28-23.8,38.3-13.2,14.8-8.4.5-9.5-9.4s-4.4-12.6-2.9-17.8,4.8-4.4,6.1-6.5c13.5-20.9,23.9-35.7,44.7-51.1,20.6-15.2,42.8-17.2,65-26.6s15.6-12.5,19.4-15.9Z"/>
    <path class="st3" d="M134.9,435.1c4.6-.6,5.3,4.1,8,6.2,5.5,4.1,28.3,5,35.5,4.2,21.4-2.3,30.9-27.6,28-46.6s-9.5-23.5-12.6-25.2c-1.5-.9-3.8-.9-5.6-1.8-8.3-4.2-17.8-11.8-27-9.3.8-.5,1.2-1.6,2.8-1.9,7.6-1.6,18,7.6,25.3,10.1,9.3,3.2,23.5,3.7,33.2,2.1s4.3-3.8,8.2-.4.3,10.1,0,14.8c-.8,10.2.7,24.9,4.4,34.5,2.8,7.2,9,9.6,6.6,18.7-4.2,16-28.7,34.4-45.3,33.7-27.2-1.2-50.4-13.1-61.5-39Z"/>
    <path class="st5" d="M342.2,220.4c8.6,12.7,11.4,26,8.2,41.3-2.9,13.6-14,25.5-27.8,28-12.1,2.2-27.3,3-37.2-5.1-2.9-8-7.6-15.7-10.7-23.5s1.9-17.7,9.1-25c15.9-16,36.9-19.2,58.4-15.8Z"/>
    <path class="st3" d="M23.3,405.6c-3.5,16.1-5.9,31.1.2,47.1,19.2,9.7,42.2,16.6,59.8-.2,13.4-12.8,17.2-34.4,7.4-50.6-2-3.3-7.4-4.7-8.5-8.9,9.3,1.3,20.3-1.4,29-1.2,9,.3,4.8,6.8,4.7,12.2-.3,14.6-.7,27.7,5.1,41.3s8.9,11.6,6,19.3c-5.1,3.6-8.4,9.2-13.2,13.2-31.6,26.6-86.9,4.9-94.5-35-2.2-11.4-1.3-26.8,3.9-37.1Z"/>
    <path class="st7" d="M307.3,107c4.5-.4,10.3,0,8.4,6.4s-5.2,5.5-6.8,8c-2.9,4.6-3,9.4-8.4,12.6-9.2,5.5-12-2.1-17.2-7.8-1.2-1.3-4.1-2.2-4.8-3.6-5.3-10.3,22.9-15,28.8-15.5Z"/>
    <g>
      <path class="st1" d="M108.4,147c48.5-5.5,77.1,40.5,60,84.2-6.5,16.5-34,30-50.8,31.3-72.9,5.3-82-107.2-9.1-115.4Z"/>
      <path class="st6" d="M118.8,168.1c.9.9,2.4,5.1,2.4,6.5-.5,8.7-18.1,17.2-24.2,23.2-5,4.9-5.4,12.2-14.1,11-17.2-2.3-1-24.8,5.7-31,5.5-5.1,23.5-16.1,30.3-9.7Z"/>
    </g>
    <g>
      <path class="st1" d="M226.2,123.8c40.4-5.4,65.8,27.6,63.5,65.6-1.2,18.7-12.8,35.8-29.2,44.5-10.5,5.6-12.2,0-20.4-3.5s-25.4-7.6-37.2-6.8c-8.9.6-16.3,10.6-15.4-7.9.8-14.7,5.6-19.7-.3-35.5s-13.3-17.4-5-28.7c9.8-13.3,27.2-25.4,43.9-27.6Z"/>
      <path class="st6" d="M228.3,142.8c15.8-2.1,17.4,7.4,4.8,15.3-6.9,4.3-15.1,6.9-21.7,12-6.4,2.4-12.6-5-8.1-11.3,4.8-6.7,16.7-14.9,25-16Z"/>
    </g>
    <g>
      <path class="st5" d="M69.4,266.9c6.4-.9,13.1,4.8,18.9,6.9,14.8,5.5,28.4,5.1,43.9,3.4,8.4,3,2.6,12.1,2.6,18.4,0,5.9,1.4,16.7,2.9,22.4,3.1,11.6,13.1,21.2,6.7,33.4-30.5,57.4-126.9,15.5-105-50.3,3.6-11,17.7-32.5,30-34.3Z"/>
      <path class="st4" d="M70.5,293.3c11.1-.6,1.6,17.4.5,23.7s.6,21.7-7,21.3-8-23.2-6.8-29.9c1.4-7.7,4.6-14.7,13.4-15.1Z"/>
    </g>
    <g>
      <path class="st0" d="M155.8,319.4c7.9-.7,10.1,6.7,16,8.9,32.9,12.1,73.7-7.6,69.5-46.3s-6.7-27.2-14.4-37.1-2-1.5-3.4-2.5c27.2,6.2,46.1,30.8,45.3,58.6-.9,27.9-21.3,51.2-48.8,55.7-27.5,4.5-54.3-11.1-64-37.2Z"/>
      <g>
        <path class="st5" d="M223.3,242.4c12.5,4.8,18.3,25.6,19.8,38.1,5,41.3-36.9,62.5-72.2,49.8-5.2-3.6-10.3-7.2-15.2-10.8-7.4-20.1-3.3-42.6,10.8-58.7,14.1-16.1,35.9-23.1,56.7-18.4Z"/>
        <path class="st4" d="M198.8,261.7c3.1-.6,4.9-.2,6.5,2.6,4.8,8.4-5.5,15.3-9.5,21.8-3.1,4.9-7.2,19.8-11.9,20.7-6.2,1.2-7.9-1.2-7.9-6.8-.1-11.7,10.2-35.7,23-38.2Z"/>
      </g>
    </g>
  </g>
</svg>