<svg xmlns="http://www.w3.org/2000/svg" xml:space="preserve" style="enable-background:new 0 0 512 512" viewBox="0 0 512 512"><filter id="h" width="1.222" height="1.077" x="-.08" y="-.026" color-interpolation-filters="sRGB"><feFlood flood-opacity=".498" result="flood"/><feComposite in="flood" in2="SourceGraphic" operator="in" result="composite1"/><feGaussianBlur in="composite1" result="blur" stdDeviation="3"/><feOffset dx="6" dy="6" result="offset"/><feComposite in="SourceGraphic" in2="offset" result="composite2"/></filter><path d="M2643.2 1182.4h1816.2c80.7 0 146.1 65.4 146.1 146.1v8309.7c0 80.7-65.4 146.1-146.1 146.1H2643.2c-80.7 0-146.1-65.4-146.1-146.1V1328.5c0-80.7 65.4-146.1 146.1-146.1" style="fill-rule:evenodd;clip-rule:evenodd;fill:#5b757b" transform="translate(-3.015 -1.381)scale(.05212)"/><path d="M269.8 287.9h1976.1c110.2 0 199.6 89.4 199.6 199.6v9097.3c0 110.2-89.4 199.6-199.6 199.6H269.8c-110.2 0-199.6-89.4-199.6-199.6V487.5c0-110.3 89.4-199.6 199.6-199.6" style="fill-rule:evenodd;clip-rule:evenodd;fill:#4d1e00" transform="translate(-3.015 -1.381)scale(.05212)"/><g transform="translate(-3.015 -1.381)scale(.05212)"><linearGradient id="a" x1="-211492.25" x2="-204651.609" y1="-29913.104" y2="-29897.637" gradientTransform="matrix(-.00006 -.05304 -.05121 .00006 -281.244 -2694.377)" gradientUnits="userSpaceOnUse"><stop offset="0" style="stop-color:#ffa900"/><stop offset="1" style="stop-color:#ffeda0"/></linearGradient><path d="m985.6 7662.7 4.6 31.9L788 7753c-15.8 65.9-23.7 125.6-23.7 179.3.1 130.1 44.1 232.3 131.9 306.6 87.8 74.2 201.7 111.3 341.6 111.1 149.7-.2 269.2-42.8 358.3-127.9q133.65-127.65 133.5-353.1c-.1-84.4-15.8-173.4-47.2-266.8l34.6-8.8c69.9 104.5 104.8 222.9 105 355.2.2 171.5-50.2 310-151.1 415.2-100.9 105.3-233.9 158-399 158.2-175.9.2-315.2-57.5-417.9-173.2s-154.1-267-154.3-453.9c-.1-89.8 10.3-181.6 31.2-275.7l6.1-5.6zm-285.4-780.5 940.3-354.8c35.4-13.3 59.5-25.3 72.3-35.9 12.3-11.2 21.5-26.9 27.6-47l21.5-74.9 33.1-1.6c-1.5 69.6-2.2 134.1-2.1 193.6.1 60.5.9 132 2.5 214.3l-33.1 3.2-21.6-75.6c-3.6-10.6-7.5-18.1-11.6-22.3-4.6-4.8-11.6-7.2-20.8-7.1-10.3 0-23.6 2.9-40 8.8-16.9 5.3-39.2 13.1-66.9 23.2l-206.1 75.1.4 384 205.5 83.4c28.7 11.1 51.6 19.8 68.5 26.2s30.3 9.5 40 9.5c8.7 0 15.4-2.4 20-7.2 4.1-5.3 7.7-13 10.7-23.1l20.7-74.1 34.6-1.6q-2.25 113.1-2.1 184.8c.1 47.8.9 101.2 2.5 160.1l-33.1 4-23.9-80.4c-6.2-20.2-15.7-35-28.5-44.6q-19.2-14.25-60-31.8l-938.9-406zm625.6 253.5-.4-328.2-423.7 155.8zm-396.6-1162 625.4-.7c56.9-.1 113.1-.7 168.4-1.8l-.4-388-203.9-101.7-5.4-35.8 275.4 17.2 5.4 4.8c-1.4 137.6-2 264.8-1.9 381.6l.2 200c.1 64.3.9 130.1 2.5 197.6l-33.1 3.2-28.6-97.9c-3.6-13.3-11.6-20.4-23.9-21.5-20.5-.5-43.3-.7-68.5-.7-25.6-.5-53.9-.7-84.6-.7l-623.8.7q-39.15 0-70.8.9c-21 0-40 .3-56.9.9-13.3.6-22.1 6.9-26.1 19.1l-29.9 98.8-33.1 1.6c2-68.5 2.9-134.4 2.9-197.6-.1-63.7-1.2-129.6-3.3-197.6l33.1-3.2 28.6 98.8c3.1 12.7 11 19.6 23.9 20.7 17.9.5 44.1 1 78.5 1.5zm625.9-963.2 83.8-.1c25.1-.6 47.9-1.1 68.5-1.7q19.2-.75 26.1-27.9l26.8-90.1 33.1-1.6c-1.5 68.5-2.2 134.4-2.1 197.6.1 64.3.9 130.1 2.5 197.6l-33.1 3.2-28.6-97.9c-3.6-13.3-11.6-20.4-23.9-21.5-20.5-.5-43.3-.7-68.5-.7-25.6-.5-53.8-.7-84.6-.7l-623.8.7c-26.2 0-49.7.3-70.8.9-21 0-40 .3-56.9.9-13.3.5-22 6.9-26.1 19.1l-29.9 98.8-33.1 1.6c2-68.5 2.9-134.4 2.9-197.6-.1-63.7-1.2-129.6-3.3-197.6l33.1-3.2 28.6 98.8c3.1 12.7 11 19.6 23.9 20.7 18 .5 37.7 1 59.2 1.5l69.2-.1zM714 4679.9c2-68.5 2.9-135.2 2.9-200-1.1-24.4-2.6-64-4.7-118.7s-3.2-91.6-3.2-110.7c-.1-114.7 20.8-201.3 62.8-259.8 41.5-59 101.4-88.5 179.9-88.6 126.1-.1 212.1 70.1 257.9 210.8 13.2-82.3 42.7-146.9 88.3-193.7 45.6-47.3 103.8-71 174.5-71.1 102.6-.1 182.1 38.3 238.6 115.2 56 77 84 183.7 84.2 320.2 0 27.1-.7 56.6-2.2 88.4-1.5 31.3-2.2 66.7-2.2 106 .1 64.3.9 130.1 2.5 197.6l-33.1 3.2-28.6-98c-3.6-13.3-11.6-20.4-23.9-21.5-20.5-.5-43.3-.8-68.5-.7-25.6-.5-53.8-.7-84.6-.7l-623.8.7c-26.2 0-49.7.3-70.8.9-21 0-40 .3-56.9.9-13.3.5-22 6.9-26.1 19.1l-29.9 98.8zm541.2-276.2 466.9-.5c5.6-15.9 9.2-34.3 10.7-55 1.5-21.2 2.3-40.6 2.2-58.2q-.15-132.3-63.3-200.7c-42.1-46.2-103.2-69.2-183.1-69.1-80 .1-139.2 23.5-177.6 70.3-38.9 46.2-58.3 121.2-58.2 224.7q0 45.45 2.4 88.5m-61.5.1c.5-32.9.7-66.4.7-100.4-.1-78.6-18.4-137.8-54.8-177.6-37-40.3-90.3-60.4-160.1-60.4-73.3.1-125.9 20.9-157.6 62.3-32.3 40.9-48.3 100.2-48.3 177.7 0 13.8.5 28.9 1.6 45.4q.75 24.75 3.9 53.4zm359.6-1031.4 83.1-.1c24.6-.6 46.9-1.1 66.9-1.7 15.9-.5 25.9-7.5 30-20.7l25.3-88.5 33.1-2.4q-2.25 94.8-2.1 189.6c.1 64.3.9 130.1 2.5 197.6l-33.1 3.2-28.6-98c-3.6-13.3-11.6-20.4-23.9-21.5-20.5-.5-43.3-.7-68.4-.7-25.6-.5-53.9-.7-84.6-.7l-623.8.7c-26.2 0-49.7.3-70.8.9-21 0-40 .3-56.9.9-13.3.5-22 6.9-26.1 19.1l-29.9 98.8-33.1 1.6c2-68.5 2.9-135.2 2.9-200 0-12.7-.3-28.9-.8-48.6-1-19.6-2.1-43.5-3.1-71.7q-1.65-43.05-2.4-71.7c-.5-19.1-.8-34.3-.8-45.4-.1-121.1 21.8-211.9 65.9-272.5 44-60.6 108.4-90.9 193-91 76.4-.1 138.5 20.6 186.2 61.9 47.2 41.4 83.7 104.5 109.4 189.5 49.2-33.5 96.8-64.4 143-92.6 45.6-28.2 87.6-54.3 126.1-78.2 37.9-24.5 71.5-46.8 100.7-67s52.3-39.1 69.2-56.6c8.7-9 16.4-18.1 23-27.1 6.1-9 11.3-18.3 15.4-27.9 4.1-10.1 7.7-20.5 10.7-31.1 3.1-11.1 6.1-23.4 9.2-36.7l33.9-2.4c4.7 38.2 7 70.4 7 96.4 0 21.8-.5 40.9-1.5 57.4s-3 31.1-6.1 43.8-6.9 24.4-11.5 35.1q-7.65 15.15-19.2 30.3c-15.9 21.8-38.7 43.3-68.4 64.6-30.2 20.7-64.3 42.6-102.2 65.4-37.9 22.4-78.2 45.8-120.7 70.2-43 24.5-85.1 50.3-126.1 77.4-12.3 8-22 14.9-29.2 20.7-7.2 5.3-12.8 11.4-16.9 18.3q-6.15 9.6-8.4 23.1c-1.5 8.5-2.5 19.7-3 33.5l-1.5 55zm-324.6.4c1.5-32.4 2.2-62.4 2.2-90-.1-91.9-18.9-159-56.4-201.5-38-43-97.2-64.4-177.8-64.3q-116.85.15-170.7 61.5c-53.85 61.35-53.7 105-53.6 192.1 0 14.9.5 30.8 1.6 47.8 1 17 2.6 35.3 4.7 55zM714.5 2369.4l-.2-193.6c-.1-119-1.3-244.6-3.5-376.8l6.2-4.8 237.7 45.9 5.4 31.9-177.6 49.6.4 368 423.1-.5-.1-72.5c-.1-55.2-.6-116.8-1.7-184.8-.5-13.8-7.2-22.8-20-27.1l-103.9-27.8-1.6-43c71.8 1.5 124.9 2.2 159.2 2.2 33.3 0 85.6-.9 156.9-2.6l3.1 43-105.4 28.8c-13.3 4.3-20.2 12.5-20.7 24.7-1 69-1.4 131.4-1.3 187.2l.1 71.7 280-.3c56.9-.1 113.1-.7 168.4-1.8l-.4-382.4-195.5-97-6.2-35.8 267.7 17.2 5.4 5.6c-1.4 137.6-2 264.5-1.9 380.8l.2 189.6c.1 64.3.9 130.1 2.5 197.6l-33.1 3.2-28.6-98c-3.6-13.3-11.6-20.4-23.9-21.5-20.5-.5-43.3-.8-68.5-.7-25.6-.5-53.8-.7-84.6-.7l-623.8.7c-26.2 0-49.7.3-70.8.9-21 0-40 .3-56.9.9-13.3.5-22.1 6.9-26.1 19.1l-29.9 98.8-33.1 1.6c2.1-68.2 3.1-134.1 3-197.3" style="fill:url(#a)"/></g><g transform="translate(-3.015 -1.381)scale(.05212)"><linearGradient id="b" x1="40851.078" x2="40851.078" y1="-63177.035" y2="-62811.27" gradientTransform="matrix(.05269 0 0 -.05197 -894.82 -2042.312)" gradientUnits="userSpaceOnUse"><stop offset="0" style="stop-color:#000001;stop-opacity:0"/><stop offset=".5" style="stop-color:#000"/><stop offset="1" style="stop-color:#000;stop-opacity:0"/></linearGradient><path d="M59.8 869h2395.5v379.9H59.8z" style="fill-rule:evenodd;clip-rule:evenodd;fill:url(#b)"/><linearGradient id="c" x1="41010.742" x2="41010.742" y1="-199834.438" y2="-199468.672" gradientTransform="matrix(.05212 0 0 -.05212 -894.867 -1303.052)" gradientUnits="userSpaceOnUse"><stop offset="0" style="stop-color:#000001;stop-opacity:0"/><stop offset=".5" style="stop-color:#000"/><stop offset="1" style="stop-color:#000;stop-opacity:0"/></linearGradient><path d="M57.8 8739.1h2369.5v381H57.8z" style="fill-rule:evenodd;clip-rule:evenodd;fill:url(#c)"/><radialGradient id="d" cx="51589.621" cy="-976010.063" r="1192.094" gradientTransform="matrix(.09099 -.00023 0 -.00466 -1162.043 -2405.852)" gradientUnits="userSpaceOnUse"><stop offset="0" style="stop-color:#fff"/><stop offset="1" style="stop-color:#5b757b;stop-opacity:0"/></radialGradient><path d="M2488.3 2026.6h2125.8v213.3H2488.3z" style="fill-rule:evenodd;clip-rule:evenodd;fill:url(#d)"/><radialGradient id="e" cx="51626.727" cy="-2286594" r="1192.098" gradientTransform="matrix(.09033 -.00023 0 -.00466 -1157.688 -1773.712)" gradientUnits="userSpaceOnUse"><stop offset="0" style="stop-color:#fff"/><stop offset="1" style="stop-color:#5b757b;stop-opacity:0"/></radialGradient><path d="M2496 8769.5h2110.5v213.3H2496z" style="fill-rule:evenodd;clip-rule:evenodd;fill:url(#e)"/></g><g transform="translate(-3.015 -1.381)scale(.05212)"><radialGradient id="f" cx="-146725.266" cy="-119819.711" r="2185.528" gradientTransform="matrix(.0006 -.06228 -.0335 -.00033 -372.824 -2777.919)" gradientUnits="userSpaceOnUse"><stop offset="0" style="stop-color:#fff"/><stop offset="1" style="stop-color:#fff;stop-opacity:.392"/></radialGradient><path d="M3839.8 7856.2c54.7 37.1 70.6 56.8 71.4 89.5.8 33.6-26.2 67.9-76.4 97-51.1 29.1-85.4 43.4-219.5 95.7-54.2 21.5-84.7 32.8-145.5 57.4-128.4-143.8-157.3-185.3-158.3-227.5-.4-17.3 2.1-29.8 13-57l-71.9-33.8c-9 24.2-11.6 36.8-11.2 54.1.6 24 6.8 40.2 23.6 62.8 10 14.2 10 14.2 111.8 134.6l83 94c3 2.8 11.9 14.1 24.7 30.1l-201.8-45c-8.4-27.6-13.3-35.2-31-49.2-1.8 43.3-2.3 64.4-1.7 88.4 1.9 75.8 13.9 136 35.1 177.8 37.3 71.1 94.9 109.1 164 107.4 24.9-.6 40.2-4.8 71.6-18.1l-35.5-77.9c-37.1 16.3-59.9 22.6-90.7 23.4-67.2 1.7-104.8-45.4-107-134.7-.2-9.6.3-25.9 1.7-46.1l37.7 8.7c241.3 51.7 289.7 64.9 355.7 93 61.2 30.2 87.1 66 85.6 120.8l.9 36.5 42.3 41.2-3.3-131.5c-1.7-67.2-1.7-71-9.9-89.1-9.1-19-21.2-39.8-35.1-61.5l2.9 116.1c-120-114.2-145.3-128.9-266-156.7l20.9-7.2c16.2-6.2 17.1-6.2 52.4-18.6l57.2-18.7c133.3-44.6 198.9-75 237.3-110.5 46.9-43.4 70.5-102.6 68.7-173.6-.8-31.7-4.1-48.9-18.4-84.1z" style="fill:url(#f)"/><radialGradient id="g" cx="-146725.266" cy="-119819.711" r="2185.528" gradientTransform="matrix(.0006 -.06228 -.0335 -.00033 -372.824 -2777.919)" gradientUnits="userSpaceOnUse"><stop offset="0" style="stop-color:#fff"/><stop offset="1" style="stop-color:#fff;stop-opacity:.392"/></radialGradient><path d="M3396.1 7736.3c.9 38.4 30.3 99.1 73.9 154.7 47.6 60.3 148.5 101 244.4 98.6 57.6-1.4 94.2-35 93-85.8-.7-26.9-10.9-54.5-35.1-97.1-28.1-47.3-52.8-78.4-75.3-95.1-53.7-37.1-148.5-65.5-214.8-63.8-51.8 1.2-87.4 37.6-86.1 88.5m46.3 48.8c-.9-38.4 34.9-63.3 93.5-64.7 41.3-1 90.6 11.2 138.1 33.1 55.4 26.5 86 60.3 86.9 96.8 1 39.4-33.9 65.2-88.6 66.5-111.3 2.7-228.2-64.5-229.9-131.7m138.2-198.6c-87.1-25.7-95.9-32.2-98.7-67.7-2.3-53.7-3.6-68.1-9.9-91.9 64.7 55.1 84.3 70 106.7 82.8 46.8 26.7 101.9 41.7 148.9 40.5 44.1-1.1 70.5-21.9 69.7-53.6-1.9-75.8-84-173.7-198.9-237.1-65.2-36.8-140.7-59.9-188.7-58.7-23 .6-35.3 7.6-51.2 26.2 7.3 22.9 11.4 33.3 27.5 63.6 25.6-12.2 39.9-16.4 66.8-17 58.6-1.4 119.4 14.3 175.9 45.6 64.3 35.9 111.6 87.5 112.5 123 .5 22.1-24 39-56.6 39.8-44.1 1.1-97.3-13-146-38.7-35-18.3-61.4-36.9-113.4-79.8l-6.7.2c-1.9 0-5.8.1-10.5 1.2l.2 9.6c13.7 10.2 16.8 20.7 17.6 50.5.3 12.5.6 24-.6 53.8-.4 24-.9 40.4-.8 47.1.5 19.2 3.6 27.8 11.4 33.3 15.7 12.1 55.4 26.5 125 44zm-399.5-581.9c21.8 26.3 39.6 48 51.5 65 20-7.2 36.1-16.3 66.3-38.1-24.7-26.3-27.6-29.1-53.4-61.1-5.7 3-9.5 5-21.8 13-11.4 6-11.4 7-30.4 15.2zm479-48.4 9 16.1c38.1 65.3 43.2 76.7 43.5 88.2.3 10.6-10.1 17.5-26.5 17.9-16.3.4-16.3.4-143.8-28.1-146.8-31.9-146.8-31.9-154.4-31.7-5.8.1-9.5 5-9.3 11.8.4 16.3 33.5 72.2 88.2 149.5l26.9 1.2c-33.1-57.8-34.1-60.6-34.4-69.2-.2-7.7 5.5-11.7 16-11.9 13.4-.3 26.9 2.2 82 15.3 168.1 41 168.1 41 193.1 40.4 23-.6 38.2-9.6 37.8-24-.4-16.3-13.5-41.9-47.4-92-12-17.9-23.9-35.9-36.9-53.8-5-8.5-10-15.1-17-26.5zm-24.6-408.6 17.9 26.5c16.9 23.6 28.8 39.6 31.8 44.3 13 19.8 22.1 37.9 22.2 42.7.2 7.7-10.2 13.7-24.6 14-31.7.8-381.1-70.3-441.1-89.9-58.1-19.7-80.7-40.3-81.6-74.8-.3-13.4 1.4-22.1 6.6-44.3l-54.6-32.3c-2.5 14.5-3.3 21.2-3.1 30.8.6 23 4.7 36.4 17.7 57.2 14 23.7 39.8 55.7 65.4 81.9 46.3 45.9 53.1 48.6 152.5 71.1 3.9.9 17.4 3.4 30.9 6.9-3.4 17.4-5 30.8-4.8 39.5.7 29.8 54.6 111 97.8 148.4 38.2 31.7 174.6 71.6 240.8 69.9 36.5-.9 73.4-21 73-38.3-.5-18.2-28.4-61.7-102.8-158.8 26 4.2 51 6.4 69.3 6 19.2-.5 29.6-7.5 29.2-21.8-.4-15.4-53.3-97.6-112.9-175.8zm8.5 188c59.6 80.2 72.6 101 72.9 114.4s-12.9 20.5-41.7 21.2c-31.7.8-67.3-4.1-110.8-14.5-97.6-24.5-146.5-61.7-147.7-110.6-.4-18.2 6-30.9 24.7-50.6zM3513.3 5835l-.5-20.2-28-43.5c-2 37.5-1.9 118.2.5 216.1l31.2 57.8 7.7-.2c-3.9-46.6-7-93.3-9.2-140l139.1 31.1c39.4 40.3 66.7 96.3 67.8 140.5 1.8 71-52.8 116.5-140.2 118.7-187.1 4.6-364.9-116.8-368.3-252.1-1-39.4 14.5-73.3 42.9-92.3 18.9-12.9 35.1-18.2 75.2-24.9l-81.4-69c-54.3 19.6-74.5 54.7-72.7 128.6 2.6 105.6 48.1 198.6 132.5 273.3 85.4 75.7 203.7 121.7 305.4 119.2 93.1-2.3 149.4-54.6 147.4-137.1-1.5-59.5-17.1-109.1-63.4-194.3 57.9 13 120.7 28.7 142.1 36.8 52.3 17.9 74.1 45.2 75.4 96.1.7 27.8-2 74-6.1 103.9l64.3 38.8c3-34.6 3.6-49.1 3.1-69.2-1.9-76.8-38.1-141.2-112.6-202.7-49-40.1-89.7-56.4-201.8-81.4zm-173-357.4c.9 38.4 30.3 99.1 73.9 154.7 47.6 60.3 148.5 101 244.4 98.6 57.6-1.4 94.2-35 93-85.8-.7-26.9-10.9-54.5-35.1-97.1-28.1-47.3-52.8-78.4-75.3-95.1-53.7-37.1-148.5-65.5-214.8-63.8-51.8 1.2-87.4 37.6-86.1 88.5m46.3 48.8c-.9-38.4 34.9-63.3 93.5-64.7 41.3-1 90.6 11.2 138.1 33.1 55.4 26.5 86 60.3 86.9 96.8 1 39.4-33.9 65.2-88.6 66.5-111.3 2.7-228.2-64.5-229.9-131.7m578-122c3.1-30.8 5-71.2 4.1-105.7-1.7-67.2-20.8-104.2-80.7-158.4-61.8-54.2-71.5-57.8-228.8-87.5-154.4-29.8-225.8-46.3-335.1-76.2 7 12.3 13 22.7 15.1 26.5l17.2 33.2c4.1 8.5 7.1 14.2 11.1 20.9l34.8 7.8 79.2 18.2 79.2 17.2 41.5 9.5c61.9 94.5 64.9 99.2 65.3 116.5.3 11.5-12 20.5-30.2 20.9-26.9.7-61.6-6.2-189.1-36.6-96.5-20.7-96.5-20.7-103.3-20.5-6.7.2-11.4 5.1-11.3 10.8.3 10.6 33.4 70.2 83.4 150.6l26 2.2c-25.2-47.4-28.2-55-28.5-65.6-.2-9.6 4.4-14.5 14-14.8 17.3-.4 45.3 5.6 131.3 26.5 87.9 21.8 104.3 25.3 130.3 24.6 31.7-.8 53.4-15.7 52.9-34.9-.3-11.5-7.3-24.8-28.3-56.9-53.9-81.3-53.9-81.3-83.6-120.9l51.1 9.3c138 25.4 155.3 29.8 180.6 40.7 34 15.5 49.1 44.9 50.4 98.6.7 28.8-2.6 50-14.6 107zm-378.1-844.6c49.7 68.9 59.7 85 59.9 94.6.2 6.7-7.4 11.7-18.9 12-25.9.6-127.2-18.9-259.6-51.2-15.6-10.2-17.6-12.1-35.2-27-9.4 46.3-12.4 79.1-11.4 121.3 1 39.4 5.3 58.5 21.2 82.1 21 34.1 51.8 73.6 65.5 85.8 41.2 35.5 171.7 71.6 249.5 69.7 46.1-1.1 76.4-17.2 75.8-41.2-.5-21.1-20.5-52.3-109.8-170.1 49.2 9.3 73.3 12.6 85.8 12.3 13.4-.3 20-6.3 19.8-15.9-.3-12.5-4.3-20.1-51.1-87.1-22.9-32.1-35.8-50-62.6-84.9zm-2.6 169.1c25.8 33 38.7 49.9 39.7 50.9 20.9 31.2 34 55.8 34.3 68.3.4 16.3-16.7 25.4-47.4 26.1-49 1.2-112.6-11.6-168.9-35.2-53.4-21.7-74-42.3-74.8-75-.4-17.3 3.6-50 10.5-81.9 69.6 17.5 95.7 23.6 100.5 24.4 24.1 5.2 48.2 9.4 73.3 14.5 4.8.9 16.4 3.5 32.8 7.9m-1.1-394.6c12 19.9 12 19.9 38.9 60.5 18 27.4 26 43.5 26.3 54.1.2 9.6-11.1 17.6-24.5 17.9l-17.3.4c-17.3.4-204.5-38.2-340.7-70.3-143-33.9-159.5-42.2-160.5-84.4-.4-14.4.4-24 5.6-47.2l-51.9-40c-4.3 20.3-5 29.9-4.7 43.3.9 38.4 16.1 67.8 59.5 113.8 38.5 41.3 54.1 51.5 89 63.1 23.2 7.1 101.5 26.3 143.9 34.9l302.1 61.7c5.8.8 11.6 1.6 17.3 1.5 29.7-.7 58.1-17.8 57.8-33.1l-.1-5.8-.1-2.9c2.7-5.8-19.1-36-119.4-168z" style="fill:url(#g)"/></g><g transform="translate(-3.015 -1.381)scale(.05212)"><path d="m6495.6 3568 2036.7-366.3c78.1-14 154 37.7 169.4 115.5l1176.8 5932.1c15.4 77.9-35.4 152.4-113.5 166.4L7728.4 9782c-78.1 14-154-37.7-169.4-115.5L6382.1 3734.4c-15.4-77.8 35.4-152.3 113.5-166.4" style="fill-rule:evenodd;clip-rule:evenodd;fill:#79abff"/><g style="filter:url(#h)"><path d="m7817.9 6506.1 196.7-428.7 327.2 338.9-527.2-3076.6-523.9 89.8z" style="fill-rule:evenodd;clip-rule:evenodd;fill:#0c13ba"/><path d="m7817.9 6506.1 196.7-428.7 327.2 338.9-527.2-3076.6-523.9 89.8z" style="fill:none;stroke:#000;stroke-width:5.868712e-02;stroke-miterlimit:10"/></g><path d="M5780.4 92.5c-8.9-.7-18-.4-27.3.8l-1131.8 145c-73.4 9.2-125.5 76.3-116.2 149.7 0 .2 0 .4.1.6l1189 9278.5c9.3 73.4 76.3 125.5 149.7 116.2.2 0 .4 0 .6-.1l1131.8-145c73.4-9.2 125.5-76.3 116.2-149.7 0-.2 0-.4-.1-.6l-1189-9278.5c-7.9-63.3-59.4-112.2-123-116.9" style="fill-rule:evenodd;clip-rule:evenodd;fill:#d6b865"/><radialGradient id="i" cx="18976.625" cy="-317295.969" r="438.204" gradientTransform="matrix(.6202 -.0907 -.00565 -.03863 -7177.134 -1094.714)" gradientUnits="userSpaceOnUse"><stop offset="0" style="stop-color:#601a22"/><stop offset=".867" style="stop-color:#45181d"/><stop offset="1" style="stop-color:#a13642;stop-opacity:0"/></radialGradient><path d="M5780.4 92.5c-8.9-.7-18-.4-27.3.8l-1131.8 145c-73.4 9.2-125.5 76.3-116.2 149.7 0 .2 0 .4.1.6l1189 9278.5c9.3 73.4 76.3 125.5 149.7 116.2.2 0 .4 0 .6-.1l1131.8-145c73.4-9.2 125.5-76.3 116.2-149.7 0-.2 0-.4-.1-.6l-1189-9278.5c-7.9-63.3-59.4-112.2-123-116.9" style="fill-rule:evenodd;clip-rule:evenodd;fill:url(#i)"/><radialGradient id="j" cx="19985.396" cy="-84408.789" r="438.204" gradientTransform="matrix(.5681 -.08172 -.00556 -.03864 -6583.612 -1196.33)" gradientUnits="userSpaceOnUse"><stop offset="0" style="stop-color:#601a22"/><stop offset=".867" style="stop-color:#45181d"/><stop offset="1" style="stop-color:#a13642;stop-opacity:0"/></radialGradient><path d="M5780.4 92.5c-8.9-.7-18-.4-27.3.8l-1131.8 145c-73.4 9.2-125.5 76.3-116.2 149.7 0 .2 0 .4.1.6l1189 9278.5c9.3 73.4 76.3 125.5 149.7 116.2.2 0 .4 0 .6-.1l1131.8-145c73.4-9.2 125.5-76.3 116.2-149.7 0-.2 0-.4-.1-.6l-1189-9278.5c-7.9-63.3-59.4-112.2-123-116.9" style="fill-rule:evenodd;clip-rule:evenodd;fill:url(#j)"/></g></svg>