<svg xmlns="http://www.w3.org/2000/svg" xml:space="preserve" viewBox="0 0 512 512"><g transform="translate(46.982 -18.106)scale(.77085)"><circle cx="272.5" cy="356.4" r="325" style="fill:#fffffa;stroke:#de6a0b;stroke-width:7.3135;stroke-miterlimit:8.7403"/><path d="M244.8 681.8c.8-.3 2-.3 2.8 0s.1.6-1.4.6c-1.6-.1-2.2-.3-1.4-.6m-12.2-1.1c.8-.3 1.8-.3 2.1.1.4.4-.3.6-1.5.6-1.2-.1-1.5-.4-.6-.7m-8.8-1.2c.8-.3 1.8-.3 2.1.1.4.4-.3.6-1.5.6-1.3 0-1.5-.3-.6-.7m-7.8-1.1c.8-.3 1.8-.3 2.1.1.4.4-.3.6-1.5.6s-1.5-.3-.6-.7m14.6-52.9c0-.3 3.4-5.2 7.4-10.9 17.6-24.4 23.5-36.3 28.6-57.8 5.1-21.6 6.5-48.3 3.3-65.1-6.2-32.9-27.2-68-64.7-108.2-41.7-44.8-74.4-90.1-92.8-128.4-7.3-15.3-11-26.2-13.3-39-2.1-12.3-2.1-17.4 0-28.1 5.4-26.3 22.3-42.6 52.6-50.7 23.4-6.2 28.6-6.6 84.3-6.7 56-.1 57.8-.2 58.6-6 .9-6.3-16.9-19.7-45.9-34.6-9.8-5-18-9.4-18.3-9.7-1.4-1.3 53.5 6.6 67.8 9.8 29.6 6.6 69.1 23.6 95.9 41.3 17.6 11.6 35.4 29.9 41.9 43 4.9 9.8 5.6 21.4 1.7 28.9-4.4 8.5-12.9 12.2-27.9 12.2-15.5 0-43.7-6.2-73.5-16.1-52.2-17.3-69.8-21.6-89-21.6-14.2 0-21.2 1.5-27.8 5.9-17 11.5-16.2 45 2 78.4 7.3 13.5 14.4 23.7 26.8 38.5 18.9 22.6 48.9 64.4 60.4 84.1 6.4 11 11.9 23.7 15.7 36.6 5.5 18.4 6.3 24.6 6.3 50.5 0 21.4-.3 24.9-2.6 33.8-10 38-38.6 74.5-90.3 114.8-3.8 3.1-7.2 5.5-7.2 5.1" style="fill:#ed5b26"/><path d="M331.1 546.1c.6-1.2 3.7-7.7 6.8-14.4 13.5-28.4 16.4-36.5 20.7-57.6 2.7-13.2 3-16.9 3-41.1.1-25.8 0-27-3-37.5-5.2-18.8-16.1-38.8-31.2-57.3-3.7-4.6-15.5-17.3-26.3-28.3-35.4-36.3-45.8-50.8-51.1-71.3-4-15.6-2.2-23.6 7-32.1 6.5-6 11.7-7.4 25.8-6.8 12.9.5 17.6 2.5 31.6 12.8 35.6 26.4 69.4 81.1 80.1 129.6 3.5 16 3.5 45.1 0 65.8-5.5 32.4-14 59.5-25.5 81.7-6.5 12.5-29.5 48-35.6 54.9-1.8 2.1-2.9 2.9-2.3 1.6" style="fill:#f59120"/><path d="M416.5 382.8c2.1-7.2 4.3-28.6 4.3-41.3 0-11.1-.5-16.5-2.3-23.3-3.3-12.4-14.1-33.3-24.7-47.7-15.7-21.3-19.1-28.9-15.9-35 1-2 3.4-4.1 5.7-5.1 3.6-1.5 4.3-1.4 9.8 1.1 11.2 5.1 22 13.3 27 20.5 6.3 9 13.9 25.4 16.4 35.6 2.8 11.1 2.7 32 0 42.2-2.8 10.3-13.8 42.8-16.8 49.7-2.7 5.9-4.8 8-3.5 3.3" style="fill:#f2e713"/></g></svg>