<svg xmlns="http://www.w3.org/2000/svg" xml:space="preserve" id="Layer_1" x="0" y="0" version="1.1" viewBox="0 86.4 512 339.2"><style>.st0{fill:#009486}.st1{fill:#e7f9e4}</style><path d="M477.7 425.6h-89.3s-3.3-6.8-6.9-13.4-12.1-6.3-12.1-6.3H142s-8.2-1.1-12.4 6.3c-2.6 4.3-5 8.8-7.1 13.4H34.6C15.7 425.6 0 410.3 0 391.4V120.9C0 102 15.4 86.4 34.3 86.4h443.1c18.9 0 34.6 15.3 34.6 34.2v270.5c.3 18.9-15.4 34.5-34.3 34.5" class="st0"/><path d="M372.7 159.7H139c-40.1 0-72.8 32.8-72.8 72.8S98.9 305 139 305h233.8c40.1 0 72.8-32.5 72.8-72.5.4-39.8-31.7-72.4-71.5-72.8zm-207.1 93.6s-10.7-7.9-25.8-7.9c-11.3 0-24.4 6.8-24.4 6.8-3.7-5.3-5.7-11.6-5.8-18.1 0-17.3 14-31.2 31.3-31.2s31.3 13.9 31.3 31.2c0 7.4-2.4 14-6.6 19.2m90.4 18c-34.3 0-33-26.3-33-26.3-.5-4.9 5.8-6.6 8-3.6 1.1 1.6 1.1 1.6 1.9 4.6 4.7 16.1 23.1 15.3 23.1 15.3s18.4 1.1 23.1-15.3c.8-2.7.8-3 1.9-4.6 2.2-2.7 8.5-1.4 8 3.6 0 .1 1.3 26.3-33 26.3m140.4-18.9s-13.2-6.8-24.5-6.8c-15.1 0-25.8 7.9-25.8 7.9-4.3-5.4-6.6-12.2-6.6-19.1 0-17.3 14-31.2 31.3-31.2s31.3 13.9 31.3 31.2c.2 6.5-1.8 12.9-5.7 18" class="st1"/><path d="M371.1 203.2c-17.3 0-31.3 13.9-31.3 31.2 0 7.1 2.5 13.7 6.6 19.1 0 0 10.7-7.9 25.8-7.9 11.3 0 24.4 6.8 24.4 6.8 3.6-5.2 5.8-11.2 5.8-18.1 0-17.2-14-31.1-31.3-31.1m-230.2 0c-17.3 0-31.3 13.9-31.3 31.2 0 6.8 2.2 12.9 5.8 18.1 0 0 13.2-6.8 24.4-6.8 15.1 0 25.8 7.9 25.8 7.9 4.1-5.2 6.6-11.8 6.6-19.1 0-17.4-14-31.3-31.3-31.3" class="st0"/><path d="M107.4 129.1c-17.3-4.6-32.1 5.7-40.4 20-1.9 3.3-.6 6 1.4 7.1 2.8.8 4.7.3 7.7-4.1 6-10.7 16.2-16.7 27.7-14.5 0 0 8 2.5 9.1-2.7.8-3.4-2.2-5-5.5-5.8M417.2 140c-.3 5.2 8 5.2 8 5.2 11.5 1.1 18.7 6.3 21.4 18.3 1.6 5.2 3.3 6 6.3 6 2.2-.3 4.4-2.7 3.3-6.6-3.8-15.9-14-26.8-32.1-27.1-3.3-.2-6.6.7-6.9 4.2" class="st1"/></svg>