<?xml version="1.0" encoding="UTF-8"?>
<svg version="1.1" xmlns="http://www.w3.org/2000/svg" width="1024" height="1024">
<path d="M0 0 C337.92 0 675.84 0 1024 0 C1024 337.92 1024 675.84 1024 1024 C686.08 1024 348.16 1024 0 1024 C0 686.08 0 348.16 0 0 Z " fill="#FAA87E" transform="translate(0,0)"/>
<path d="M0 0 C13.95761278 12.82284751 18.85237345 35.46886673 23 53.125 C23.29777344 54.38441406 23.59554687 55.64382812 23.90234375 56.94140625 C27.77109611 74.16794041 29.19860337 91.37118556 29.1875 109 C29.18756042 109.66842926 29.18762085 110.33685852 29.18768311 111.02554321 C29.16782819 126.57771624 28.51389948 142.25368789 25.3671875 157.52734375 C24.09919705 164.11957475 24.09919705 164.11957475 26.390625 170.04272461 C28.36751392 172.01987255 30.41857292 173.83052359 32.5625 175.625 C33.98400533 176.86052613 35.401994 178.1001101 36.81640625 179.34375 C37.51878418 179.96064697 38.22116211 180.57754395 38.94482422 181.21313477 C42.24277869 184.28111784 45.10348565 187.68306934 48 191.125 C48.97146642 192.23265924 49.94530659 193.33824255 50.921875 194.44140625 C58.11517033 202.663927 64.72999269 211.18022678 71 220.125 C71.41459473 220.7132959 71.82918945 221.3015918 72.25634766 221.90771484 C89.95616365 247.19817725 103.39887763 274.82777788 113 304.125 C113.43868408 305.45797119 113.43868408 305.45797119 113.88623047 306.81787109 C136.39316655 376.59335177 127.3360358 450.79291138 94.44140625 515.40576172 C84.25608552 534.62054869 70.99111341 552.42468221 56 568.125 C54.7410227 569.55464416 53.48996369 570.99133393 52.25 572.4375 C46.65139573 578.87390016 40.53105386 584.64599788 34 590.125 C33.26644287 590.7452002 33.26644287 590.7452002 32.51806641 591.37792969 C15.83524057 605.39652078 -2.50676389 617.37838194 -22 627.125 C-21.46180652 634.2104176 -20.28612617 640.9580292 -18.6875 647.875 C-16.9501597 655.64452693 -15.30769501 663.41821865 -13.875 671.25 C-13.72893311 672.03342773 -13.58286621 672.81685547 -13.43237305 673.62402344 C-10.36911946 690.64776216 -8.35761766 707.85811804 -6.32006836 725.02783203 C-5.93695597 728.2545821 -5.54981057 731.48082964 -5.16210938 734.70703125 C-4.90861755 736.82809674 -4.65535462 738.94918959 -4.40234375 741.0703125 C-4.29083481 742.0000589 -4.17932587 742.9298053 -4.06443787 743.88772583 C-2.24479392 759.26152808 -0.71975812 774.62200911 0.2890625 790.0703125 C0.39807313 791.70313034 0.50732126 793.33593234 0.61679077 794.96871948 C0.84255858 798.34813736 1.06581566 801.72770815 1.28710938 805.10742188 C1.569422 809.41656056 1.85774936 813.72527226 2.1478672 818.03389168 C2.37314385 821.38820913 2.59550016 824.74271527 2.81696701 828.09728622 C2.92217901 829.68640569 3.028221 831.27547046 3.13515091 832.86447525 C3.2839446 835.08280863 3.4288416 837.30136479 3.57275391 839.52001953 C3.69694199 841.40262985 3.69694199 841.40262985 3.82363892 843.32327271 C4.02140122 847.58633545 4 851.85735265 4 856.125 C-161.33 856.125 -326.66 856.125 -497 856.125 C-497 848.97862472 -496.8632952 842.33411265 -496.01171875 835.3125 C-495.85592094 833.97179443 -495.85592094 833.97179443 -495.69697571 832.60400391 C-495.47719717 830.72474139 -495.25435939 828.84583429 -495.02856445 826.96728516 C-494.69170272 824.16002371 -494.36555247 821.3516787 -494.04101562 818.54296875 C-492.91554364 808.93499769 -491.62735368 799.37425502 -490.07250977 789.82621765 C-489.09071112 783.7901148 -488.26352874 777.74669433 -487.47412109 771.68212891 C-483.53132239 742.10098727 -477.55241642 712.89052568 -470.375 683.9375 C-470.19304077 683.19795074 -470.01108154 682.45840149 -469.8236084 681.69644165 C-467.6290244 672.8211397 -465.12785092 664.13724769 -462.14746094 655.49267578 C-460.98365587 652.07703172 -459.91594223 648.64236485 -458.875 645.1875 C-457.42610558 640.4167501 -455.82005168 635.76613177 -454 631.125 C-454.82757813 630.88652344 -455.65515625 630.64804687 -456.5078125 630.40234375 C-460.6072579 628.90288218 -464.1390467 626.92200431 -467.875 624.6875 C-468.61532471 624.24720459 -469.35564941 623.80690918 -470.1184082 623.35327148 C-486.38704064 613.55823862 -501.63786365 602.32356538 -515.546875 589.390625 C-517.69558551 587.40614714 -519.88880045 585.50904214 -522.125 583.625 C-525.98733809 580.26610313 -529.3511184 576.54904697 -532.7265625 572.70703125 C-534.17763549 571.0589913 -535.64979757 569.42912587 -537.1484375 567.82421875 C-568.95420995 533.66458949 -588.47130138 489.64474044 -597 444.125 C-597.15839355 443.28646484 -597.31678711 442.44792969 -597.47998047 441.58398438 C-597.9179362 439.22496342 -598.33964217 436.8639679 -598.75 434.5 C-598.92366089 433.50830811 -598.92366089 433.50830811 -599.10083008 432.49658203 C-601.29425745 419.0157607 -601.24155745 405.36883147 -601.25 391.75 C-601.25101212 390.27868622 -601.25101212 390.27868622 -601.25204468 388.77764893 C-601.23731348 375.28855309 -600.97325115 362.07191636 -598.49169922 348.77294922 C-597.95202355 345.86663228 -597.47840387 342.95279242 -597.00390625 340.03515625 C-590.87783727 303.96277426 -577.84332662 269.97991323 -560 238.125 C-559.37931641 237.01584229 -559.37931641 237.01584229 -558.74609375 235.88427734 C-554.30727979 228.04127397 -549.45386169 220.80856878 -543.65234375 213.90625 C-541.4347567 210.17357392 -541.45800473 208.46096212 -542 204.125 C-542.88371262 200.93349586 -543.87823675 197.79131505 -544.89941406 194.64111328 C-546.71034515 188.85561428 -548.04391158 182.97392763 -549.375 177.0625 C-549.59511246 176.09028 -549.59511246 176.09028 -549.81967163 175.09841919 C-553.46890448 158.87914368 -556.17880442 142.49213113 -558.69927979 126.06414795 C-558.98245584 124.23813084 -559.27864317 122.41414511 -559.57568359 120.59033203 C-561.87906671 105.8125902 -562.20254794 90.8810026 -562.24023438 75.94775391 C-562.25000013 73.62496896 -562.28123917 71.30305096 -562.3125 68.98046875 C-562.42180806 53.43267489 -561.75145514 34.62053255 -551.5 22.0625 C-541.62964626 14.41297585 -530.08659545 15.08237633 -518.10205078 16.45751953 C-469.81914018 23.37339536 -417.95258234 43.61653369 -384.16015625 80.1328125 C-383.30292969 81.05835938 -382.44570313 81.98390625 -381.5625 82.9375 C-380.84191406 83.76894531 -380.12132812 84.60039062 -379.37890625 85.45703125 C-377.04689622 87.44218313 -377.04689622 87.44218313 -373.796875 87.0546875 C-369.38203786 85.97368828 -365.03786034 84.75135045 -360.6875 83.4375 C-344.32306829 78.6429005 -327.64747769 74.26302001 -310.66015625 72.44921875 C-307.90054529 72.2024757 -307.90054529 72.2024757 -305 71.125 C-302.41684524 70.76085484 -299.84029852 70.42751662 -297.25 70.125 C-295.85930165 69.95894647 -294.46867584 69.79228431 -293.078125 69.625 C-292.04631104 69.50209595 -292.04631104 69.50209595 -290.99365234 69.37670898 C-289.17658559 69.14729485 -287.36509525 68.87475948 -285.5546875 68.59765625 C-270.31067772 66.5707055 -254.63580889 67.00240851 -239.28448486 66.94876099 C-237.33341983 66.94136831 -235.38236374 66.93079072 -233.43133545 66.91671753 C-220.15161302 66.8299808 -207.18433122 67.55056026 -194 69.125 C-192.30242554 69.31364624 -192.30242554 69.31364624 -190.57055664 69.50610352 C-159.14303442 73.05348279 -159.14303442 73.05348279 -151 77.125 C-147.61623197 77.68816045 -147.61623197 77.68816045 -144 77.125 C-142.00976223 75.1848311 -140.74017665 73.64858929 -139.25 71.375 C-138.3928122 70.16975501 -137.53068962 68.96800688 -136.6640625 67.76953125 C-136.22610352 67.15803223 -135.78814453 66.5465332 -135.33691406 65.91650391 C-132.05045857 61.51255752 -128.20402852 57.57162415 -124.41210938 53.60449219 C-123.4756544 52.6233516 -122.54457769 51.63704753 -121.61914062 50.64550781 C-104.86391022 32.72048347 -84.13658982 19.43563575 -62 9.125 C-61.33468262 8.81433594 -60.66936523 8.50367188 -59.98388672 8.18359375 C-50.52020597 3.8076427 -40.97038564 0.18178889 -31 -2.875 C-30.24332031 -3.1225 -29.48664062 -3.37 -28.70703125 -3.625 C-18.52731909 -6.64743 -8.88040434 -5.55025271 0 0 Z " fill="#33334A" transform="translate(753,167.875)"/>
<path d="M0 0 C0 258.06 0 516.12 0 782 C-88.11 782 -176.22 782 -267 782 C-269.28059147 756.91349383 -269.28059147 756.91349383 -269.9296875 745.51953125 C-270.08408515 742.94560495 -270.239053 740.37171281 -270.39453125 737.79785156 C-270.47268066 736.49271606 -270.55083008 735.18758057 -270.63134766 733.84289551 C-271.97901112 711.45759841 -273.60152686 689.17734417 -276.5 666.93212891 C-277.03658799 662.7122626 -277.52516888 658.48887811 -278 654.26171875 C-281.03701615 627.30548501 -285.29482928 600.69432461 -290.4140625 574.05859375 C-290.5525914 573.33512253 -290.6911203 572.61165131 -290.83384705 571.86625671 C-291.55823172 568.12595182 -292.3626346 564.42155346 -293.2734375 560.72265625 C-294.4025578 554.93743237 -294.4025578 554.93743237 -293 552 C-290.79176106 550.5206943 -288.82085602 549.42546685 -286.4375 548.3125 C-285.05752041 547.62060301 -283.67998771 546.92380849 -282.3046875 546.22265625 C-281.23492676 545.67955811 -281.23492676 545.67955811 -280.14355469 545.12548828 C-267.93104521 538.71322533 -256.83899501 530.47058478 -246 522 C-245.03578125 521.25105469 -244.0715625 520.50210938 -243.078125 519.73046875 C-226.30852495 506.35944149 -211.98291982 491.01580318 -199 474 C-198.00226563 472.71416016 -198.00226563 472.71416016 -196.984375 471.40234375 C-173.89759712 440.79781257 -158.9355705 405.32806429 -151 368 C-150.68029512 366.58319609 -150.36005584 365.16651255 -150.0390625 363.75 C-140.60851312 318.93154749 -145.85518391 270.15963177 -160 227 C-160.28681641 226.10716309 -160.57363281 225.21432617 -160.86914062 224.29443359 C-166.34909814 207.46181013 -174.09391658 191.794137 -182 176 C-182.55840576 174.88302734 -183.11681152 173.76605469 -183.69213867 172.61523438 C-184.12373291 171.75220703 -184.55532715 170.88917969 -185 170 C-181.64758812 166.60530545 -178.21933624 163.33212711 -174.6875 160.125 C-169.81710028 155.68486118 -164.99159848 151.19926101 -160.1875 146.6875 C-159.17502197 145.73677612 -159.17502197 145.73677612 -158.14208984 144.7668457 C-156.77144871 143.47969292 -155.40084324 142.19250217 -154.03027344 140.90527344 C-139.16913313 126.95910474 -124.19936031 113.13129046 -109.14453125 99.39453125 C-102.68881756 93.49639607 -96.29481595 87.5363597 -89.92285156 81.54785156 C-85.0259835 76.94988627 -80.08556065 72.40420755 -75.125 67.875 C-71.38692953 64.4484354 -67.69507339 60.97278723 -64 57.5 C-58.38981153 52.22762365 -52.7437755 47.00008265 -47.05859375 41.80859375 C-43.51537175 38.56443698 -40.00833315 35.28178925 -36.5 32 C-31.07596568 26.92656606 -25.62194613 21.88975744 -20.1328125 16.88671875 C-17.72895544 14.68462239 -15.35722996 12.45074647 -12.9921875 10.20703125 C-12.30898438 9.56121094 -11.62578125 8.91539062 -10.921875 8.25 C-9.5767976 6.97679696 -8.23552278 5.69956235 -6.8984375 4.41796875 C-6.29 3.84304687 -5.6815625 3.268125 -5.0546875 2.67578125 C-4.24233643 1.9010144 -4.24233643 1.9010144 -3.41357422 1.1105957 C-2 0 -2 0 0 0 Z " fill="#BF8EF1" transform="translate(1024,242)"/>
<path d="M0 0 C3.61108848 3.7641007 4.01263606 7.9932801 4.875 12.9375 C5.21158934 14.7362891 5.55154857 16.53445024 5.89453125 18.33203125 C6.07193848 19.26225098 6.2493457 20.1924707 6.43212891 21.15087891 C7.36575436 25.83506162 8.45308083 30.47977891 9.5625 35.125 C9.76020996 35.96409912 9.95791992 36.80319824 10.16162109 37.66772461 C11.17830458 41.89915623 12.31899345 46.03652627 13.65234375 50.1796875 C14.87857931 54.28343041 15.62743175 57.69026385 15 62 C13.53778483 64.35744895 12.1386834 66.27356428 10.375 68.375 C-15.70128988 101.68847388 -31.26506751 145.79982486 -39.3125 186.875 C-39.55516602 188.10951904 -39.79783203 189.34403809 -40.04785156 190.6159668 C-43.07915094 206.81112318 -44.3349108 222.64903096 -44.26074219 239.11303711 C-44.25002207 241.93169719 -44.26071115 244.74971839 -44.2734375 247.56835938 C-44.2829904 259.49714212 -43.56181034 271.17437082 -42 283 C-41.85933105 284.06758545 -41.71866211 285.1351709 -41.57373047 286.23510742 C-37.58186373 314.04837767 -29.17562759 341.29361042 -15.98681641 366.12792969 C-15.00333174 367.99367942 -14.05180144 369.87298831 -13.10546875 371.7578125 C-3.48945226 390.6767888 9.62393674 407.58454499 24.16015625 422.96875 C26.70628542 425.66375074 29.13566706 428.44681329 31.5625 431.25 C35.46834253 435.61493795 39.74395737 439.23903247 44.3359375 442.86328125 C46.70409519 444.76266872 48.91055835 446.73913281 51.125 448.8125 C66.18140302 462.33088336 84.40552445 472.24285823 102 482 C100.5654553 487.71301134 98.91966921 493.32150736 96.9987793 498.88793945 C79.0114292 551.12573772 70.31695399 607.43765568 64.12915039 662.15429688 C63.15922852 670.71970814 62.10765533 679.2728468 61.00195312 687.82177734 C60.18544191 694.21515041 59.58446214 700.57091649 59 707 C-25.48 707 -109.96 707 -197 707 C-197.44416507 574.70610778 -197.44416507 574.70610778 -197.5298146 524.05314028 C-197.55226798 510.80773142 -197.57523518 497.56232361 -197.59978593 484.31691846 C-197.60275418 482.71477721 -197.60570626 481.11263593 -197.60864197 479.51049463 C-197.65558015 453.96756088 -197.73812352 428.42489491 -197.83926943 402.88212303 C-197.94303171 376.63095783 -198.01074063 350.37994071 -198.03306489 324.1285739 C-198.03623461 320.42104716 -198.03981661 316.71352091 -198.04364967 313.0059948 C-198.04439133 312.27629815 -198.04513298 311.5466015 -198.04589711 310.79479284 C-198.05889782 299.04698399 -198.10992046 287.29963296 -198.17515237 275.55201083 C-198.23991676 263.74252039 -198.26375632 251.93352414 -198.24851515 240.12386263 C-198.24145597 233.72440342 -198.25241951 227.32628817 -198.31126022 220.9270668 C-198.36472987 215.06929182 -198.36753927 209.21376628 -198.32988784 203.35588848 C-198.3252337 201.23591249 -198.33924639 199.11579707 -198.37371501 196.9960962 C-198.61671036 181.13141681 -198.61671036 181.13141681 -194.60986674 175.84892833 C-191.84507485 173.57397693 -189.07916218 171.81148614 -186 170 C-184.56159399 168.66960012 -183.15678761 167.30043555 -181.8125 165.875 C-178.77922809 162.75611155 -175.6292955 159.88239219 -172.33203125 157.046875 C-169.33730058 154.41833418 -166.42021338 151.71076417 -163.5 149 C-160.0804457 145.82763657 -156.6615853 142.66738997 -153.125 139.625 C-148.55962245 135.67604473 -144.18140713 131.52739495 -139.77661133 127.40161133 C-133.89105786 121.88988287 -127.95296866 116.43881212 -122 111 C-119.99926336 109.16746979 -117.99966394 107.33370058 -116 105.5 C-115.00261094 104.58593011 -114.00521511 103.67186761 -113.0078125 102.7578125 C-110.98063231 100.89967405 -108.9547301 99.04015521 -106.9296875 97.1796875 C-102.39129398 93.01201151 -97.84609537 88.85420556 -93.25 84.75 C-88.77027005 80.73269378 -84.38253754 76.62253068 -80 72.5 C-74.06834915 66.92091535 -68.0836701 61.41352399 -62 56 C-55.4270831 50.14128799 -48.96191489 44.17805549 -42.53515625 38.16015625 C-38.2175668 34.1222487 -33.85599647 30.13982494 -29.44921875 26.19921875 C-26.65770369 23.69264303 -23.88905255 21.16174852 -21.125 18.625 C-20.6285498 18.1697998 -20.13209961 17.71459961 -19.62060547 17.24560547 C-16.96723305 14.81113841 -14.31903317 12.37123355 -11.67578125 9.92578125 C-10.86246338 9.17530518 -10.86246338 9.17530518 -10.03271484 8.40966797 C-8.99368385 7.45078261 -7.95616896 6.49025098 -6.92041016 5.52783203 C-4.6871424 3.46912205 -2.53605959 1.6907064 0 0 Z " fill="#F9A87E" transform="translate(197,317)"/>
<path d="M0 0 C177.54 0 355.08 0 538 0 C536.78679449 3.63961652 535.53197196 4.35102103 532.5 6.625 C528.0367396 10.09006683 524.0909069 13.80135829 520.15234375 17.84375 C517.53941111 20.46142481 514.77098295 22.84785026 511.96484375 25.25390625 C509.89179676 27.09615675 507.94564198 29.02401662 506 31 C503.55336563 33.47963329 501.07892226 35.85440376 498.4375 38.125 C494.39645917 41.6001357 490.51198073 45.22993356 486.625 48.875 C482.4715578 52.76891555 478.31207291 56.64811773 474.0625 60.4375 C469.64028209 64.38722719 465.31799021 68.4372408 461 72.5 C455.92733542 77.27282571 450.81886081 81.99211236 445.62109375 86.62890625 C442.21082418 89.7139042 438.85610185 92.85629916 435.5 96 C431.38792046 99.85183421 427.26728443 103.6865203 423.0625 107.4375 C416.62594091 113.19203958 410.3653335 119.13543088 404.07568359 125.04931641 C395.94897641 132.68662414 387.81608282 140.3103246 379.50390625 147.74609375 C372.96911117 153.62842879 366.53466871 159.62299263 360.1171875 165.6328125 C359.46258545 166.24552002 358.8079834 166.85822754 358.13354492 167.48950195 C356.87992142 168.66385983 355.62739314 169.8393885 354.3762207 171.01635742 C351.31223156 173.88771192 348.21338971 176.70336475 345.04296875 179.45703125 C340.9732138 182.99639699 337.04244522 186.6686717 333.125 190.375 C327.74908522 195.44069354 322.33876159 200.45279689 316.8203125 205.36328125 C315.51291587 206.53881599 314.24321516 207.75678484 313 209 C311.3603125 208.27296875 311.3603125 208.27296875 309.6875 207.53125 C296.71233333 201.8727781 283.51164859 197.20858696 270 193 C269.2889209 192.77828125 268.5778418 192.5565625 267.84521484 192.328125 C252.97887244 187.79509657 237.12429729 184.68043943 221.5625 184.5625 C220.81258789 184.55250977 220.06267578 184.54251953 219.29003906 184.53222656 C213.9510623 184.61666587 209.91773658 185.93297275 205 188 C204.01 188.33 203.02 188.66 202 189 C200.88853391 190.78341118 200.88853391 190.78341118 200 193 C199.60941406 193.78632813 199.21882812 194.57265625 198.81640625 195.3828125 C192.21899949 209.81078616 191.48866853 225.35371491 191.6875 241 C191.6934317 241.79914825 191.6993634 242.59829651 191.70547485 243.42166138 C191.86449712 264.69187907 193.5605091 285.38075954 197.41088867 306.30639648 C197.73923706 308.11539429 197.73923706 308.11539429 198.07421875 309.9609375 C198.27619873 311.03134277 198.47817871 312.10174805 198.6862793 313.20458984 C198.98338087 315.85191514 198.85712959 317.50700952 198 320 C197.67 319.34 197.34 318.68 197 318 C190.4070163 323.65681985 184.04271607 329.55084477 177.67138672 335.45361328 C171.50688635 341.15708178 165.31492125 346.83048997 159.0625 352.4375 C152.40209513 358.41696891 145.84436883 364.50794891 139.28125 370.59375 C128.28866906 380.7868705 128.28866906 380.7868705 124.125 384.375 C118.90790228 388.88916244 113.91749136 393.65221044 108.8828125 398.3671875 C100.85809247 405.88214864 92.77232041 413.32546035 84.5859375 420.6640625 C81.01727615 423.88771732 77.48723504 427.15232356 73.95703125 430.41796875 C70.31354558 433.78840631 66.66121437 437.14883223 63 440.5 C58.82400319 444.32328972 54.65856584 448.15775947 50.5 452 C32.99651203 468.16410882 32.99651203 468.16410882 28.0625 472.4375 C24.49317909 475.53091146 21.02667119 478.72763903 17.5625 481.9375 C9.00993747 489.84652049 9.00993747 489.84652049 5.8125 492.75 C5.11769531 493.38421875 4.42289062 494.0184375 3.70703125 494.671875 C2 496 2 496 0 496 C0 332.32 0 168.64 0 0 Z " fill="#F47EA2" transform="translate(0,0)"/>
<path d="M0 0 C3.76522638 3.07365419 7.14964718 6.06655313 10.25 9.8125 C13.83659659 14.03439061 17.9351248 17.35782872 22.265625 20.79296875 C24.65283263 22.71978634 26.88699196 24.71762038 29.125 26.8125 C44.18140302 40.33088336 62.40552445 50.24285823 80 60 C78.5654553 65.71301134 76.91966921 71.32150736 74.9987793 76.88793945 C57.0114292 129.12573772 48.31695399 185.43765568 42.12915039 240.15429688 C41.15922852 248.71970814 40.10765533 257.2728468 39.00195312 265.82177734 C38.18544191 272.21515041 37.58446214 278.57091649 37 285 C-47.48 285 -131.96 285 -219 285 C-219 256.62 -219 228.24 -219 199 C-209.44366197 189.44366197 -209.44366197 189.44366197 -204.4296875 185.14453125 C-201.05455839 182.16551858 -197.7823237 179.08056288 -194.5 176 C-190.06667 171.84270651 -185.61763782 167.72820437 -181.01171875 163.76171875 C-177.81120646 160.95894003 -174.69235428 158.06702469 -171.56176758 155.18676758 C-167.59071952 151.53515025 -163.58600437 147.92281421 -159.5703125 144.3203125 C-156.65571553 141.68920217 -153.76460776 139.03347525 -150.875 136.375 C-147.63786909 133.3977736 -144.38862144 130.44047034 -141.0625 127.5625 C-136.92614348 123.97880907 -132.92122782 120.25679808 -128.91821289 116.52563477 C-126.01834644 113.83081392 -123.08319668 111.18908017 -120.09375 108.59375 C-115.96398676 104.99749684 -111.97515867 101.26553116 -108 97.5 C-102.76714963 92.54310072 -97.44498369 87.72276607 -92 83 C-86.07838488 77.76055494 -80.27197639 72.40303108 -74.5 67 C-67.54095423 60.48577713 -60.52889498 54.04203755 -53.3125 47.8125 C-48.5909261 43.70636546 -44.05764644 39.39827989 -39.49389648 35.11889648 C-35.75167154 31.61596455 -31.97212518 28.17907712 -28.0859375 24.8359375 C-25.17636443 22.27507731 -22.34166349 19.6357575 -19.5 17 C-13.16613575 11.13034109 -6.80970686 5.32008348 0 0 Z " fill="#A2DF9A" transform="translate(219,739)"/>
<path d="M0 0 C0.18252704 30.32791277 0.32409059 60.65576875 0.40852264 90.98410529 C0.41852821 94.56516941 0.4288828 98.14623243 0.43945312 101.72729492 C0.44155161 102.44021568 0.44365009 103.15313644 0.44581217 103.88766085 C0.48061655 115.42908428 0.54368934 126.97018871 0.61722237 138.51142294 C0.69205261 150.35509681 0.73647391 162.19860369 0.75270796 174.04250425 C0.76269717 180.69462884 0.78770116 187.34615998 0.84584045 193.99806404 C0.90011449 200.25841271 0.91689767 206.51773966 0.90486145 212.77830124 C0.90706355 215.0765367 0.92299364 217.37480608 0.9536438 219.67283821 C0.99345397 222.81143268 0.98388465 225.94617045 0.96203613 229.08485413 C0.98533886 229.99440088 1.0086416 230.90394763 1.03265047 231.84105641 C0.96025662 235.68822174 0.78996195 238.05923323 -1.73644352 241.06793296 C-3.75335984 242.84401965 -5.82256262 244.42765233 -8 246 C-9.04616745 246.92360534 -10.08180904 247.85955328 -11.09765625 248.81640625 C-11.58113525 249.26314697 -12.06461426 249.7098877 -12.56274414 250.17016602 C-13.05766357 250.62963623 -13.55258301 251.08910645 -14.0625 251.5625 C-14.60704834 252.06644287 -15.15159668 252.57038574 -15.71264648 253.08959961 C-20.65018625 257.66372526 -25.5660314 262.26109713 -30.48266602 266.85766602 C-35.2621887 271.32212296 -40.07858634 275.74386924 -44.90625 280.15625 C-49.11107114 284.01066938 -53.27015611 287.91414401 -57.43579102 291.81079102 C-61.24978632 295.37542282 -65.08249527 298.91725824 -68.9375 302.4375 C-74.36258348 307.39528154 -79.72266625 312.41982227 -85.07788086 317.45288086 C-89.97187127 322.04803727 -94.9090078 326.59132865 -99.8671875 331.1171875 C-103.65149198 334.58592783 -107.38555932 338.10805712 -111.125 341.625 C-116.208578 346.40412228 -121.32758114 351.13263915 -126.53125 355.78125 C-138.16174839 366.23397641 -149.52054406 376.99500246 -160.93359375 387.68359375 C-164.61527812 391.13008113 -168.30496602 394.56783278 -172 398 C-172.5259375 398.49000488 -173.051875 398.98000977 -173.59375 399.48486328 C-174.99492283 400.78706004 -176.4034423 402.08133927 -177.8125 403.375 C-178.58207031 404.08398438 -179.35164062 404.79296875 -180.14453125 405.5234375 C-182 407 -182 407 -184 407 C-184.33 407.66 -184.66 408.32 -185 409 C-185.83333333 407.75 -186.66666667 406.5 -187.5 405.25 C-188.05171875 404.42371094 -188.6034375 403.59742188 -189.171875 402.74609375 C-190.39543424 400.90814045 -191.61415478 399.06695716 -192.828125 397.22265625 C-201.22264722 384.51143866 -209.98349914 372.4785367 -220 361 C-220.60328125 360.29617188 -221.2065625 359.59234375 -221.828125 358.8671875 C-225.45626166 354.65784449 -229.19276583 350.54311666 -232.9375 346.4375 C-233.71130005 345.5863562 -233.71130005 345.5863562 -234.50073242 344.71801758 C-237.40550902 341.57044819 -240.35429322 338.81721253 -243.75 336.1875 C-246.66986034 333.70380137 -246.94452306 333.32731393 -247.625 329.3125 C-247.40625 327.2421875 -247.40625 327.2421875 -247 325 C-246.8659375 324.21882813 -246.731875 323.43765625 -246.59375 322.6328125 C-246.25542813 320.68746176 -245.91685529 318.74215466 -245.578125 316.796875 C-243.40992534 302.55707723 -242.81119963 288.25988731 -242.8125 273.875 C-242.81169434 272.59584717 -242.81088867 271.31669434 -242.81005859 269.9987793 C-242.8790517 258.2032577 -243.74888287 246.71900097 -245.6953125 235.09375 C-246.00576044 231.94150942 -246.07196281 229.97445536 -245 227 C-242.80078125 224.5234375 -242.80078125 224.5234375 -240 222 C-239.06542969 221.12601563 -238.13085938 220.25203125 -237.16796875 219.3515625 C-236.1757196 218.44135424 -235.18219398 217.53253586 -234.1875 216.625 C-233.66051514 216.14240723 -233.13353027 215.65981445 -232.59057617 215.16259766 C-229.70012989 212.52336016 -226.78117487 209.92639126 -223.8125 207.375 C-220.09722218 204.15970781 -216.67559916 200.6917586 -213.2265625 197.1953125 C-210.55366826 194.55993257 -207.74631697 192.12233511 -204.8984375 189.6796875 C-202.41040974 187.47834607 -200.10805923 185.11911485 -197.78125 182.75 C-195.28103815 180.29365151 -192.62319484 178.03690632 -189.96875 175.75 C-188.06976929 174.06201714 -186.27994012 172.31230266 -184.5 170.5 C-181.46167583 167.40643357 -178.2523468 164.57894493 -174.96875 161.75 C-173.06976929 160.06201714 -171.27994012 158.31230266 -169.5 156.5 C-167.10946833 154.06610268 -164.64953738 151.78644441 -162.0625 149.5625 C-159.25423653 147.14382221 -156.60029407 144.64100317 -154 142 C-150.7784145 138.72797872 -147.41407855 135.70683945 -143.93359375 132.71484375 C-142.04505403 131.03995701 -140.26844352 129.30052413 -138.5 127.5 C-136.20162967 125.1655566 -133.85385707 122.954274 -131.375 120.8125 C-121.79921572 112.53667879 -112.65907156 103.75468748 -103.45068359 95.07568359 C-94.37072162 86.51795713 -85.27361984 77.97912972 -76.0625 69.5625 C-71.36110543 65.26552647 -66.70461649 60.92340925 -62.0625 56.5625 C-54.56211076 49.51646468 -47.00965655 42.52918432 -39.43652344 35.56152344 C-32.88502408 29.531861 -26.36372042 23.47222562 -19.875 17.375 C-15.12440608 12.91542117 -10.36859407 8.46230903 -5.5625 4.0625 C-4.69753906 3.26972656 -3.83257813 2.47695312 -2.94140625 1.66015625 C-1 0 -1 0 0 0 Z " fill="#A1DF9A" transform="translate(1024,3)"/>
<path d="M0 0 C2.45464484 0.00254048 4.90929651 0.00111012 7.36393738 -0.00398254 C12.63595044 -0.00602725 17.90672073 0.01937453 23.17840958 0.070158 C30.80000929 0.14353066 38.4211252 0.16676391 46.04303978 0.17804993 C58.4109677 0.19771218 70.77835918 0.25750906 83.14599609 0.34277344 C95.15475799 0.42547722 107.16337381 0.48913725 119.17236328 0.52734375 C119.91349795 0.52970826 120.65463261 0.53207277 121.4182259 0.53450894 C125.13655238 0.5462549 128.85487989 0.55762812 132.57320809 0.56881607 C163.38497013 0.66200612 194.19606545 0.82109893 225.00732422 1.02172852 C224.24660237 4.54659215 223.32629116 6.03199015 220.64794922 8.49047852 C219.95113037 9.13766846 219.25431152 9.7848584 218.53637695 10.45166016 C217.40824585 11.47634399 217.40824585 11.47634399 216.25732422 12.52172852 C215.48525635 13.23514404 214.71318848 13.94855957 213.91772461 14.68359375 C211.62087273 16.80363675 209.31475106 18.91320894 207.00732422 21.02172852 C205.32872349 22.56874497 203.65265455 24.11846023 201.97680664 25.66845703 C200.95070149 26.61672536 199.92350921 27.56381862 198.89526367 28.50976562 C194.55157756 32.5061184 190.24614673 36.54236372 185.94482422 40.58422852 C180.35119677 45.83916897 174.72065119 51.04847306 169.05419922 56.22485352 C162.99328785 61.77469989 157.00871288 67.40772147 151.00732422 73.02172852 C136.83951855 86.27502126 136.83951855 86.27502126 130.06982422 92.45922852 C121.19822579 100.57074354 112.4608727 108.82683317 103.71044922 117.06860352 C102.65422363 118.0619873 102.65422363 118.0619873 101.57666016 119.07543945 C100.24545051 120.3274927 98.91528589 121.58065845 97.58642578 122.83520508 C93.74491669 126.44682858 89.83170404 129.95490971 85.83544922 133.39477539 C83.98621325 135.04051637 82.24069549 136.75498808 80.50732422 138.52172852 C78.11679255 140.95562584 75.65686159 143.23528411 73.06982422 145.45922852 C70.26156075 147.8779063 67.60761829 150.38072534 65.00732422 153.02172852 C61.78573872 156.2937498 58.42140276 159.31488906 54.94091797 162.30688477 C52.44300866 164.52220231 50.12707433 166.89071022 47.78857422 169.27172852 C45.28836237 171.728077 42.63051906 173.98482219 39.97607422 176.27172852 C38.07709351 177.95971137 36.28726433 179.70942585 34.50732422 181.52172852 C31.46900005 184.61529495 28.25967102 187.44278358 24.97607422 190.27172852 C23.07709351 191.95971137 21.28726433 193.70942585 19.50732422 195.52172852 C17.13690064 197.93505568 14.69996114 200.19444705 12.13232422 202.39672852 C9.12264892 204.98807057 6.29643806 207.69427634 3.50732422 210.52172852 C-1.29830352 215.38535521 -6.31691611 219.90601156 -11.68017578 224.14672852 C-14.13231791 226.06110394 -14.13231791 226.06110394 -16.61767578 228.70922852 C-18.99267578 231.02172852 -18.99267578 231.02172852 -21.99267578 232.02172852 C-22.10224609 231.4402002 -22.21181641 230.85867187 -22.32470703 230.25952148 C-28.9429551 195.18078871 -28.9429551 195.18078871 -50.05517578 167.77172852 C-57.599757 163.27708439 -66.67553798 164.26128183 -74.9453125 166.25244141 C-119.55202768 178.19869925 -159.57282668 206.08383827 -186.99267578 243.02172852 C-187.44126953 243.81192383 -187.88986328 244.60211914 -188.35205078 245.41625977 C-189.99267578 247.02172852 -189.99267578 247.02172852 -193.22705078 247.38500977 C-197.08515072 247.01280718 -200.51128315 246.25136432 -204.24267578 245.20922852 C-212.53754699 242.99765533 -220.88511934 241.60636856 -229.37792969 240.39916992 C-231.29356768 240.12264552 -233.20705671 239.83112211 -235.11914062 239.53100586 C-244.19517302 238.14451519 -253.21248765 237.42474666 -262.36767578 236.89672852 C-263.79739498 236.81000997 -265.22708281 236.72277273 -266.65673828 236.63500977 C-270.10171189 236.42463398 -273.54704963 236.22116826 -276.99267578 236.02172852 C-276.99267578 235.36172852 -276.99267578 234.70172852 -276.99267578 234.02172852 C-275.41634193 232.63119827 -273.77862663 231.31000064 -272.11767578 230.02172852 C-267.26609549 226.14793783 -262.88293088 222.05817603 -258.57470703 217.57641602 C-255.84368432 214.87431488 -252.98949224 212.37476262 -250.0871582 209.86010742 C-246.72870233 206.91230782 -243.48949373 203.84132281 -240.24267578 200.77172852 C-234.50453241 195.36935947 -228.73332169 190.00912937 -222.91455078 184.69360352 C-218.13507991 180.32307133 -213.38171381 175.92431842 -208.625 171.52905273 C-207.02072217 170.04762717 -205.41513213 168.56763859 -203.80908203 167.08813477 C-198.01851986 161.75222185 -192.24578424 156.39801831 -186.49267578 151.02172852 C-169.40561848 135.05729066 -169.40561848 135.05729066 -161.18017578 127.70922852 C-156.04846378 123.11154834 -151.03555719 118.39099513 -146.0168457 113.67089844 C-142.03320829 109.92679389 -138.03042499 106.2074124 -133.99267578 102.52172852 C-129.28900266 98.22707045 -124.63398777 93.88366692 -119.99267578 89.52172852 C-111.82391757 81.84746123 -103.60019713 74.24074261 -95.24267578 66.77172852 C-90.09451128 62.15327869 -85.0619164 57.41521407 -80.02368164 52.67773438 C-75.01922163 47.97489691 -69.97648568 43.31825562 -64.90673828 38.68579102 C-61.82425191 35.86775388 -58.74978004 33.04128178 -55.68017578 30.20922852 C-54.88063477 29.4715625 -54.88063477 29.4715625 -54.06494141 28.71899414 C-51.09747482 25.9773514 -48.13870062 23.22671078 -45.18798828 20.46704102 C-44.54128174 19.862229 -43.8945752 19.25741699 -43.22827148 18.63427734 C-41.99937026 17.48400583 -40.77126308 16.33288501 -39.54418945 15.18066406 C-38.38373818 14.09400526 -37.20803493 13.02339299 -36.01727104 11.97003841 C-33.93216864 10.06634737 -33.93216864 10.06634737 -32.27749825 7.74519444 C-23.82218801 -2.20130853 -12.01597408 -0.17380893 0 0 Z " fill="#FCE1B0" transform="translate(798.99267578125,-1.021728515625)"/>
<path d="M0 0 C2.20787993 3.65444213 2.68399482 7.45219533 3.26171875 11.60546875 C3.49115231 13.14986944 3.72149526 14.69413525 3.95263672 16.23828125 C4.07185486 17.04604004 4.191073 17.85379883 4.31390381 18.68603516 C8.63193638 47.59801796 16.24587211 75.20430367 30.01318359 101.12792969 C30.99666826 102.99367942 31.94819856 104.87298831 32.89453125 106.7578125 C41.7297628 124.14063796 53.60049459 140.26751173 66.85546875 154.546875 C68 156 68 156 68 158 C66.70703125 159.3046875 66.70703125 159.3046875 64.8125 160.875 C60.94766182 164.15633686 57.2113955 167.54801173 53.5 171 C50.03764988 174.2121249 46.57348907 177.41105182 43 180.5 C38.88639854 184.05817847 34.90904725 187.7584212 30.92016602 191.45483398 C26.8255749 195.24651647 22.69158422 198.99095463 18.53515625 202.71484375 C15.63086792 205.33273077 12.75225619 207.97749353 9.875 210.625 C6.68132681 213.56301955 3.47604604 216.48049831 0.1875 219.3125 C-4.4180182 223.30394911 -8.83732598 227.49420752 -13.28466797 231.65966797 C-20.05679925 237.99935584 -26.8650103 244.29773242 -33.875 250.375 C-39.70637775 255.44627963 -45.33489505 260.74480654 -51 266 C-63.84634151 277.91681539 -63.84634151 277.91681539 -69.91015625 283.16015625 C-73.18269483 286.04121358 -76.37825543 289.00615642 -79.58496094 291.95996094 C-82.2945317 294.45126546 -85.02260333 296.91160853 -87.8125 299.3125 C-91.80640862 302.77053828 -95.64683061 306.38712571 -99.5 310 C-103.93355521 314.15706553 -108.38234998 318.27178512 -112.98828125 322.23828125 C-116.18957021 325.04174012 -119.30925762 327.93428259 -122.44042969 330.81542969 C-126.3781069 334.43670848 -130.35115907 338.01651057 -134.3359375 341.5859375 C-136.39633459 343.45298354 -138.44101894 345.33269897 -140.4765625 347.2265625 C-141.36807007 348.05522827 -141.36807007 348.05522827 -142.27758789 348.90063477 C-143.45329325 349.99529026 -144.62701283 351.09208305 -145.79858398 352.19116211 C-149.89006306 356 -149.89006306 356 -151 356 C-151.2336478 327.47120536 -151.40996655 298.94255419 -151.51812172 270.41299534 C-151.56967602 257.16603669 -151.6399567 243.91967267 -151.75439453 230.6730957 C-151.85409646 219.12674195 -151.9185892 207.58081884 -151.94088495 196.03404659 C-151.95391738 189.92037992 -151.98452218 183.80794517 -152.05730057 177.69467354 C-152.12527615 171.93808671 -152.14609663 166.18323676 -152.13107681 160.4262867 C-152.13382364 158.31590834 -152.1536605 156.20547078 -152.19205475 154.09543991 C-152.46796588 138.14735275 -152.46796588 138.14735275 -148.81415939 132.8025341 C-146.31735037 130.52852824 -143.86971689 128.76422747 -141 127 C-139.86712045 126.01626385 -138.75596558 125.00629791 -137.6796875 123.9609375 C-132.8777894 119.5335607 -128.05187694 115.14664847 -123.1171875 110.8671875 C-119.89111482 108.02205329 -116.7326456 105.10367121 -113.56689453 102.19189453 C-108.74415109 97.75776372 -103.8765888 93.3748176 -99 89 C-97.33307353 87.50028872 -95.66640851 86.00028679 -94 84.5 C-87.33333333 78.5 -80.66666667 72.5 -74 66.5 C-73.16984375 65.75234375 -72.3396875 65.0046875 -71.484375 64.234375 C-69.8718747 62.78413888 -68.25740393 61.3360896 -66.640625 59.890625 C-61.66820467 55.43819634 -56.75711055 50.92585683 -51.875 46.375 C-47.65438182 42.44136144 -43.40557384 38.56098506 -39.0390625 34.7890625 C-34.81647432 31.08418628 -30.70584127 27.25289789 -26.57324219 23.44824219 C-20.21201623 17.59243952 -13.84143655 11.74658613 -7.4375 5.9375 C-6.25994141 4.86822266 -6.25994141 4.86822266 -5.05859375 3.77734375 C-3 2 -3 2 0 0 Z " fill="#FCE2AF" transform="translate(151,582)"/>
<path d="M0 0 C0.18253984 28.79917386 0.32409712 57.59827946 0.40852264 86.39791805 C0.41852817 89.79872692 0.42888276 93.19953464 0.43945312 96.6003418 C0.44155161 97.27737518 0.44365009 97.95440856 0.44581217 98.6519581 C0.48061349 109.61140319 0.54368452 120.57051224 0.61722237 131.52975804 C0.6920612 142.77677404 0.73587696 154.02362229 0.75270796 165.27089971 C0.76314327 171.58774017 0.78768981 177.90381872 0.84584045 184.22041512 C0.90012862 190.16560014 0.91689495 196.10970922 0.90486145 202.05511856 C0.90706293 204.2372529 0.92298498 206.41942309 0.9536438 208.60134315 C0.9934774 211.58235638 0.98387773 214.55931272 0.96203613 217.54042053 C0.98533886 218.40327591 1.0086416 219.26613128 1.03265047 220.15513378 C0.95850469 223.90082031 0.74267487 226.12671326 -1.73424625 229.03924263 C-3.75390461 230.81775663 -5.82672346 232.41533087 -8 234 C-9.06690339 234.93267572 -10.12152468 235.87969019 -11.16015625 236.84375 C-12.11792969 237.7203125 -13.07570313 238.596875 -14.0625 239.5 C-17.88736013 243.00432777 -21.61959383 246.57555711 -25.25 250.28100586 C-27.01219194 252.01197593 -28.83491475 253.62724627 -30.70703125 255.23828125 C-34.88238285 258.87105685 -38.92086019 262.63088057 -42.9375 266.4375 C-44.43486485 267.85159531 -45.93226159 269.26565685 -47.4296875 270.6796875 C-48.18733398 271.39608398 -48.94498047 272.11248047 -49.72558594 272.85058594 C-55.43818499 278.24922506 -61.16618051 283.63156783 -66.89160156 289.01660156 C-68.30792543 290.34895626 -69.7239365 291.68164354 -71.13964844 293.01464844 C-78.16291692 299.62648517 -85.19413273 306.21691042 -92.390625 312.640625 C-96.39355089 316.26003703 -100.32650688 319.9535628 -104.26635742 323.64135742 C-108.28653636 327.40363238 -112.3224226 331.14767264 -116.375 334.875 C-121.56862212 339.65883515 -126.7285219 344.47799719 -131.875 349.3125 C-132.5767334 349.97040527 -133.2784668 350.62831055 -134.00146484 351.30615234 C-137.95565235 355.02713212 -141.812281 358.80831052 -145.55908203 362.73901367 C-147 364 -147 364 -149 364 C-149.33 364.66 -149.66 365.32 -150 366 C-149.43233246 360.60715836 -148.75662639 355.24478878 -148 349.875 C-142.52567429 308.57243808 -147.05066127 266.51190935 -160 227 C-160.28681641 226.10716309 -160.57363281 225.21432617 -160.86914062 224.29443359 C-166.34909814 207.46181013 -174.09391658 191.794137 -182 176 C-182.55840576 174.88302734 -183.11681152 173.76605469 -183.69213867 172.61523438 C-184.12373291 171.75220703 -184.55532715 170.88917969 -185 170 C-181.64758812 166.60530545 -178.21933624 163.33212711 -174.6875 160.125 C-169.81710028 155.68486118 -164.99159848 151.19926101 -160.1875 146.6875 C-159.51251465 146.05368408 -158.8375293 145.41986816 -158.14208984 144.7668457 C-156.77144871 143.47969292 -155.40084324 142.19250217 -154.03027344 140.90527344 C-139.16913313 126.95910474 -124.19936031 113.13129046 -109.14453125 99.39453125 C-102.68881756 93.49639607 -96.29481595 87.5363597 -89.92285156 81.54785156 C-85.0259835 76.94988627 -80.08556065 72.40420755 -75.125 67.875 C-71.38692953 64.4484354 -67.69507339 60.97278723 -64 57.5 C-58.38981153 52.22762365 -52.7437755 47.00008265 -47.05859375 41.80859375 C-43.51537175 38.56443698 -40.00833315 35.28178925 -36.5 32 C-31.07596568 26.92656606 -25.62194613 21.88975744 -20.1328125 16.88671875 C-17.72895544 14.68462239 -15.35722996 12.45074647 -12.9921875 10.20703125 C-11.96738281 9.23830078 -11.96738281 9.23830078 -10.921875 8.25 C-9.5767976 6.97679696 -8.23552278 5.69956235 -6.8984375 4.41796875 C-6.29 3.84304687 -5.6815625 3.268125 -5.0546875 2.67578125 C-4.24233643 1.9010144 -4.24233643 1.9010144 -3.41357422 1.1105957 C-2 0 -2 0 0 0 Z " fill="#71B8E5" transform="translate(1024,242)"/>
<path d="M0 0 C21.75165406 -0.29493768 49.57345107 14.10980063 66.19921875 27.3515625 C68.08153458 28.63477271 68.08153458 28.63477271 70.11328125 28.4296875 C73.02525478 27.07553724 75.05012876 25.12231713 77.4296875 22.96875 C88.08334329 13.73045112 102.32968798 4.96139702 116.6796875 3.90625 C120.1796875 4.46875 120.1796875 4.46875 122.234375 6.5546875 C124.43351694 9.84898447 125.59396373 12.88738408 126.8046875 16.65625 C127.20945312 17.88730469 127.61421875 19.11835937 128.03125 20.38671875 C130.85593518 30.06405693 131.54460287 39.20166376 131.5546875 49.28125 C131.57917969 50.55806641 131.60367188 51.83488281 131.62890625 53.15039062 C131.65563282 61.9033435 131.2484679 72.02873498 125.78662109 79.33129883 C123.23683725 81.13613671 120.80713995 80.48490869 117.859375 80.0234375 C101.98738481 76.7379818 86.67847053 69.35033835 73.1796875 60.46875 C70.24020491 63.31915736 67.47835383 66.24157281 64.8046875 69.34375 C63.59802674 70.72021803 62.38973278 72.09525633 61.1796875 73.46875 C60.68082031 74.04753906 60.18195313 74.62632812 59.66796875 75.22265625 C51.27713694 84.33209834 39.70442558 90.3456756 28.1796875 94.46875 C26.66568359 95.01208984 26.66568359 95.01208984 25.12109375 95.56640625 C22.5104834 96.36727078 20.3323383 96.85217823 17.6171875 96.96875 C16.89402344 97.0203125 16.17085937 97.071875 15.42578125 97.125 C10.9540891 95.81848821 8.69133192 91.30196791 6.37109375 87.5234375 C2.84130551 80.63315542 0.11191478 73.75897942 -2.1328125 66.34375 C-2.37507568 65.54565918 -2.61733887 64.74756836 -2.86694336 63.92529297 C-6.02831914 52.94696083 -7.17334835 42.28710378 -7.13598633 30.86816406 C-7.13280451 28.83865596 -7.15646948 26.81058173 -7.18164062 24.78125 C-7.19290241 1.85224955 -7.19290241 1.85224955 0 0 Z " fill="#F17D9E" transform="translate(532.8203125,800.53125)"/>
<path d="M0 0 C0.90363281 0.71671875 1.80726563 1.4334375 2.73828125 2.171875 C16.01808174 13.36672803 29.70277347 32.73050817 31.3125 50.4375 C31 54 31 54 29.5 56.9375 C26.69434142 59.25216833 24.7732651 59.85360443 21.125 59.60546875 C17.73054393 58.63829836 15.74317824 56.53748331 13.23828125 54.125 C-5.092017 36.72241318 -27.87083744 28.24720192 -52.921875 28.75 C-74.48547187 29.56249423 -93.39038556 38.18521741 -109 53 C-111.4292772 55.8526298 -113.77623393 58.7787327 -115.9453125 61.83447266 C-117.70344195 64.13140579 -119.14085629 65.82552332 -122.04370117 66.41503906 C-125.1230437 66.47470414 -127.3812969 66.43907962 -129.9375 64.625 C-133.10359607 59.78273542 -132.52714737 54.60636733 -132 49 C-127.11763535 27.46996271 -114.17974157 7.56108357 -96 -5 C-95.22398437 -5.54011719 -94.44796875 -6.08023437 -93.6484375 -6.63671875 C-65.09805064 -25.09682231 -25.84003197 -21.22165107 0 0 Z " fill="#CBCAEC" transform="translate(515,407)"/>
<path d="M0 0 C2.75710317 2.16656925 5.32805717 4.41878282 7.87109375 6.83203125 C8.64839844 7.56808594 9.42570313 8.30414063 10.2265625 9.0625 C17.4828625 16.51862926 26.88446486 29.04812219 27.18359375 39.76953125 C27.23966797 41.08244141 27.23966797 41.08244141 27.296875 42.421875 C26.87109375 44.83203125 26.87109375 44.83203125 25.2265625 46.6484375 C22.07629802 48.23140622 20.36800459 48.39032518 16.87109375 47.83203125 C14.50923961 46.21556425 12.49866462 44.64694288 10.37109375 42.76953125 C-7.05716759 28.29442426 -27.81916771 23.27356473 -50.12890625 24.83203125 C-70.24790288 27.30412819 -87.59470873 38.44951074 -100.2512207 53.93457031 C-102.50608556 56.57757828 -103.93584863 57.77605877 -107.30859375 58.75390625 C-110.12890625 58.83203125 -110.12890625 58.83203125 -112.44140625 57.58203125 C-115.47082236 54.44041455 -115.53037171 50.83388535 -115.46875 46.609375 C-113.62911707 31.57513343 -104.69712566 17.25670948 -94.12890625 6.83203125 C-93.44183594 6.13464844 -92.75476563 5.43726563 -92.046875 4.71875 C-66.28433703 -19.89666198 -28.42733842 -19.69684498 0 0 Z " fill="#CBCAEC" transform="translate(735.12890625,394.16796875)"/>
<path d="M0 0 C1.26400164 3.79200493 0.5938345 6.76512057 -0.0390625 10.609375 C-0.29061127 12.22658025 -0.54172931 13.84385253 -0.79248047 15.46118164 C-0.92829529 16.3219632 -1.06411011 17.18274475 -1.20404053 18.0696106 C-5.0101016 42.30407124 -7.52275218 66.59182295 -10 91 C-39.37 91 -68.74 91 -99 91 C-96.1033974 88.1033974 -93.2287483 85.23691096 -90.25 82.43359375 C-89.22362427 81.46715942 -89.22362427 81.46715942 -88.17651367 80.48120117 C-87.0991394 79.46956909 -87.0991394 79.46956909 -86 78.4375 C-85.24887939 77.73149658 -84.49775879 77.02549316 -83.72387695 76.2980957 C-77.69178537 70.63511968 -71.62965442 65.00587196 -65.53515625 59.41015625 C-63.9593467 57.96265689 -62.38581027 56.51271509 -60.8125 55.0625 C-59.77092893 54.10406277 -58.72926577 53.1457256 -57.6875 52.1875 C-56.78386719 51.35605469 -55.88023437 50.52460937 -54.94921875 49.66796875 C-52.70040073 47.63360755 -50.43383713 45.63239232 -48.14453125 43.64453125 C-43.99972368 40.02941155 -39.99240094 36.28186418 -36 32.5 C-31.37533766 28.11921634 -26.69890241 23.8278838 -21.88818359 19.65185547 C-18.63638464 16.80705696 -15.47864414 13.86134064 -12.31445312 10.91992188 C-9.30652363 8.14184734 -6.21221177 5.53742423 -3 3 C-1.9826127 2.01769502 -0.97403883 1.02530403 0 0 Z " fill="#6FB6E3" transform="translate(266,933)"/>
<path d="M0 0 C3.875 0.875 3.875 0.875 5 2 C6.5725234 13.7714609 1.92585075 24.44111194 -5.0625 33.71875 C-11.33378534 41.10268274 -19.06009797 48.10322729 -29.07080078 49.23388672 C-36.53015103 49.6896548 -43.57400528 49.572383 -50.75 47.375 C-54.46301425 46.52827256 -56.35211213 46.98781827 -59.49609375 48.953125 C-62.58979174 51.107672 -65.52822528 53.44679054 -68.46386719 55.81005859 C-76.52267532 62.05268905 -86.74270107 64.56220154 -96.75 64.4375 C-97.62398437 64.42847656 -98.49796875 64.41945313 -99.3984375 64.41015625 C-116.11136639 63.96645017 -129.5723453 55.96860877 -141 44 C-144.23831275 40.0644108 -146.71590648 36.70456112 -147.5625 31.625 C-147 29 -147 29 -145.9375 27.0625 C-142.8086884 25.34670009 -140.42015952 26.27461781 -137 27 C-134.57103112 28.22133046 -132.35030998 29.43900679 -130.0625 30.875 C-122.26307522 35.69774737 -115.54148243 38.56522143 -106.25 38.4375 C-105.07256226 38.42505249 -105.07256226 38.42505249 -103.87133789 38.41235352 C-92.79820225 38.09357971 -83.99434144 34.74244676 -76 27 C-74.98743228 25.89327945 -73.98417581 24.77799765 -72.98828125 23.65625 C-72.46234375 23.06577881 -71.93640625 22.47530762 -71.39453125 21.86694336 C-70.35661295 20.68310784 -69.33622788 19.48361833 -68.3359375 18.26782227 C-66.00674375 15.56897159 -64.55951242 14.11043971 -61.01171875 13.41015625 C-57.42142225 14.11331419 -55.08042275 15.40962611 -52 17.375 C-43.74270039 22.60032241 -36.18047564 24.53707057 -26.5 22.46484375 C-17.35388851 19.63758293 -12.0466941 14.15045572 -6 7 C-4.83350793 5.64568293 -3.66686107 4.29149916 -2.5 2.9375 C-1.675 1.968125 -0.85 0.99875 0 0 Z " fill="#CDCBEC" transform="translate(680,561)"/>
<path d="M0 0 C2.84721669 3.33811612 3.02074142 5.41503814 3.125 9.75 C3.18107422 11.25433594 3.18107422 11.25433594 3.23828125 12.7890625 C2.24580936 20.56494318 -2.62688819 26.37509865 -7.5 32.25 C-8.04333984 32.92675781 -8.58667969 33.60351562 -9.14648438 34.30078125 C-15.001318 41.44824048 -20.79748401 47.49195374 -30.1875 49.125 C-45.80714215 50.61494997 -60.72355732 38.34436851 -72.1875 29.125 C-72.82026855 28.62000977 -73.45303711 28.11501953 -74.10498047 27.59472656 C-74.72904785 27.08135742 -75.35311523 26.56798828 -75.99609375 26.0390625 C-76.84192017 25.34611084 -76.84192017 25.34611084 -77.70483398 24.63916016 C-80.88837001 21.38800086 -81.53934994 18.13817464 -81.6875 13.6875 C-81.7390625 12.76066406 -81.790625 11.83382812 -81.84375 10.87890625 C-81.08761564 7.70584241 -79.92630539 6.09593184 -77.30224609 4.1496582 C-72.62190071 1.88188984 -67.36365672 1.83091052 -62.25 1.4375 C-60.98615479 1.3243042 -59.72230957 1.2111084 -58.42016602 1.09448242 C-54.34436896 0.74125168 -50.26736604 0.42634697 -46.1875 0.125 C-45.49555542 0.07279297 -44.80361084 0.02058594 -44.09069824 -0.03320312 C-5.05671673 -2.97453925 -5.05671673 -2.97453925 0 0 Z " fill="#CBCAEC" transform="translate(645.1875,509.875)"/>
<path d="M0 0 C0 3 0 3 -2.046875 5.375 C-3.38492188 6.674375 -3.38492188 6.674375 -4.75 8 C-5.63171875 8.86625 -6.5134375 9.7325 -7.421875 10.625 C-9.54248511 12.57853174 -11.65298304 14.33295991 -14 16 C-14.66 15.67 -15.32 15.34 -16 15 C-10.86877855 9.74595676 -5.5930976 4.76008307 0 0 Z " fill="#AE97F0" transform="translate(931,554)"/>
<path d="M0 0 C0.66 0.33 1.32 0.66 2 1 C-1.63 4.63 -5.26 8.26 -9 12 C-9.66 11.67 -10.32 11.34 -11 11 C-9.54540569 9.35086118 -8.08620743 7.70578218 -6.625 6.0625 C-5.81289063 5.14597656 -5.00078125 4.22945313 -4.1640625 3.28515625 C-2 1 -2 1 0 0 Z " fill="#C3C1E1" transform="translate(413,407)"/>
<path d="M0 0 C0.66 0.33 1.32 0.66 2 1 C-1.45663464 5.39935317 -5.16729426 10.0568593 -10 13 C-10.99 12.67 -11.98 12.34 -13 12 C-12.14535156 11.21753906 -11.29070312 10.43507813 -10.41015625 9.62890625 C-9.29425993 8.60678273 -8.17837511 7.58464667 -7.0625 6.5625 C-6.21655273 5.7880957 -6.21655273 5.7880957 -5.35351562 4.99804688 C-2.64001674 2.53775333 -2.64001674 2.53775333 0 0 Z " fill="#74BCD9" transform="translate(238,958)"/>
<path d="M0 0 C0.33 0.99 0.66 1.98 1 3 C-2.63 5.97 -6.26 8.94 -10 12 C-10.66 11.67 -11.32 11.34 -12 11 C-8.17426612 7.07503959 -4.38002676 3.31820209 0 0 Z " fill="#3E3D57" transform="translate(414,452)"/>
<path d="M0 0 C0.33 0.99 0.66 1.98 1 3 C-3.455 6.96 -3.455 6.96 -8 11 C-8.99 10.67 -9.98 10.34 -11 10 C-5.555 5.05 -5.555 5.05 0 0 Z " fill="#3C3C4F" transform="translate(648,203)"/>
<path d="M0 0 C0 3 0 3 -2.40625 5.48046875 C-3.43005231 6.39125392 -4.46167034 7.29331192 -5.5 8.1875 C-6.02464844 8.65091797 -6.54929687 9.11433594 -7.08984375 9.59179688 C-8.38666224 10.735355 -9.69249867 11.86867174 -11 13 C-11.66 12.67 -12.32 12.34 -13 12 C-8.84792208 7.7373638 -4.63678779 3.73204871 0 0 Z " fill="#74C0DB" transform="translate(896,359)"/>
<path d="M0 0 C0.66 0.33 1.32 0.66 2 1 C-0.97 4.3 -3.94 7.6 -7 11 C-7.33 10.01 -7.66 9.02 -8 8 C-5.36 5.36 -2.72 2.72 0 0 Z " fill="#76BEDB" transform="translate(984,277)"/>
</svg>
