<svg xmlns="http://www.w3.org/2000/svg" xml:space="preserve" viewBox="1.35 1.78 431.75 209.06"><path style="fill:#fff;fill-opacity:1;fill-rule:nonzero;stroke:none" d="M2918.96 1381.57c-.24-9.2-.54-16.77-.85-19.48-2.36-20.75 0-30.56-59.82-30.56-59.83 0-57.47 9.81-59.83 30.56-.77 6.75-1.48 43.7-1.41 60.98.08 17.29.64 54.23 1.41 60.99 2.36 20.75 0 30.56 59.83 30.56 59.82 0 57.46-9.81 59.82-30.56.32-2.83.61-10.97.84-20.74h81.84c-.53 18.55-1.41 34.05-2.32 42.13-4.72 41.49 11.63 81.23-140.09 81.23s-135.37-39.74-140.09-81.23c-1.53-13.52-2.95-47.81-2.81-82.38.15-34.57 1.28-68.86 2.81-82.36 4.72-41.5-11.63-81.24 140.09-81.24s135.37 39.74 140.09 81.24c.89 7.89 1.65 22.87 2.16 40.86zm-970.4 196.81-79.85-233.27-79.85 233.27-119.47.62v-313.12h79.86v233.28l79.84-233.28h79.86l79.23 233.28v-233.28h79.84V1579zm1070.15.62h229.5v-79.84h-74.83v-233.28h-79.84v233.28h-74.83zm-615.55-313.12 91.59 313.43h119.04l91.8-313.43h-79.85l-18.86 64.77H2502.1l14.84 50.92h74.85l-37.11 127.64-71.68-243.33zm-926.07 248.74c59.82 0 57.46-9.81 59.82-30.56.77-6.76 1.34-43.7 1.41-60.99.07-17.28-.64-54.23-1.41-60.98-2.36-20.75 0-30.56-59.82-30.56-59.83 0-57.47 9.81-59.83 30.56-.76 6.75-1.47 43.7-1.4 60.98.07 17.29.64 54.23 1.4 60.99 2.36 20.75 0 30.56 59.83 30.56l.09 72.06c-151.72 0-135.37-39.74-140.09-81.23-1.53-13.52-2.95-47.81-2.8-82.38.14-34.57 1.27-68.86 2.8-82.36 4.72-41.5-11.63-81.24 140.09-81.24s135.37 39.74 140.09 81.24c1.53 13.5 2.66 47.79 2.81 82.36s-1.28 68.86-2.81 82.38c-4.72 41.49 11.63 81.23-140.09 81.23zm-269.61-133.05c-.25-9.2-.54-16.77-.85-19.48-2.36-20.75 0-30.56-59.83-30.56-59.82 0-57.46 9.81-59.82 30.56-.77 6.75-1.48 43.7-1.41 60.98.08 17.29.64 54.23 1.41 60.99 2.36 20.75 0 30.56 59.82 30.56 59.83 0 57.47-9.81 59.83-30.56.32-2.83.61-10.97.83-20.74h81.84c-.52 18.55-1.4 34.05-2.32 42.13-4.71 41.49 11.63 81.23-140.08 81.23-151.72 0-135.37-39.74-140.09-81.23-1.54-13.52-2.96-47.81-2.81-82.38s1.27-68.86 2.81-82.36c4.72-41.5-11.63-81.24 140.09-81.24 151.71 0 135.37 39.74 140.08 81.24.9 7.89 1.66 22.87 2.16 40.86zm1054.97-44.07-48.45.02v71.43l48.44.29c59.83 0 57.97 9.81 60.33 30.56.77 6.75.61 1.2.53 18.49-.07 17.28.24 11.35-.53 18.1-2.36 20.75-.5 30.56-60.33 30.56l-48.46-.13.08-240.63h-80.01V1579l128.4.01c151.72 0 135.09-39.85 140.68-81.24.66-4.9.66-27.54.66-39.74 0-9.8 0-32.44-.66-39.62-3.84-41.59 11.04-80.91-140.68-80.91M709.547 86.844l-499.824.582c-72.321 0-130.942 58.629-130.942 130.941v760.801c0 72.322 58.621 130.942 130.942 130.942l312.82.35c37.566 0 68.027 30.45 68.027 68.03l.918 304.19c0 15.74 12.766 28.51 28.508 28.51h183.387c15.746 0 28.519-12.77 28.519-28.51l1.883-1367.43c0-15.742-12.765-28.52-28.512-28.52zl-2.328-67.946 125.086.04c37.566 0 68.027 30.449 68.027 68.023V1511.73c0 37.56-30.461 68.02-68.027 68.02H591.707c-37.562 0-68.027-30.46-68.027-68.02l.343-304.95c0-15.74-12.765-28.52-28.519-28.52l-285.781.52c-110.246 0-199.621-89.36-199.621-199.612V218.367c0-110.238 89.375-199.613 199.621-199.613l497.496.144z" transform="matrix(.13333 0 0 -.13333 0 213.333)"/><path style="fill:#fff;fill-opacity:1;fill-rule:nonzero;stroke:none" d="M523.672 366.879v492.199c0 41.246-33.442 74.688-74.699 74.688-41.246 0-74.684-33.442-74.684-74.688V327.773c0-41.246 33.438-74.699 74.684-74.699 41.257 0 74.699 33.453 74.699 74.699zl67.894-2.328v-36.778c0-78.742-63.839-142.585-142.593-142.585-78.739 0-142.582 63.843-142.582 142.585v531.305c0 78.742 63.843 142.582 142.582 142.582 78.754 0 142.593-63.84 142.593-142.582V364.551zM1184.61 86.848l-93.55-.008c-15.75 0-28.52 12.781-28.52 28.523l1.15 965.617c0 15.76 12.76 28.52 28.52 28.52h183.39c15.75 0 28.52-12.76 28.52-28.52l1.88-965.605c0-15.754-12.77-28.523-28.51-28.523zV19.18l119.91-.125c37.57 0 68.03 30.453 68.03 68.02V1110.04c0 37.57-30.46 68.03-68.03 68.03h-240.61c-37.56 0-68.015-30.46-68.015-68.03l-.141-1022.704c0-37.574 30.216-68.027 67.786-68.027l121.07-.13zm863.96 832.66-201.47.273c-61.99 0-112.26-50.269-112.26-112.261 0-62 50.27-112.262 112.26-112.262l276.03-.754c72.32 0 130.94-58.629 130.94-130.941l-.92-343.637c0-72.321-58.63-130.942-130.94-130.942l-547.95-.996c-15.74 0-28.52 12.778-28.52 28.52v133.086c0 15.754 12.78 28.523 28.52 28.523l373.44 1.215c62.01 0 112.28 50.262 112.28 112.262s-50.27 112.261-112.28 112.261l-270.36 1.067c-72.31 0-130.95 58.629-130.95 130.941v343.305c0 72.322 58.64 130.942 130.95 130.942l507.93 2.37c15.74 0 28.5-12.77 28.5-28.52l.02-136.12c0-15.742-12.77-28.52-28.52-28.52zl-2.32-66.926 167.05-.055c37.57 0 68.03 30.223 68.03 67.786l.25 190.687c0 37.57-30.45 68.02-68.03 68.02l-536.21-.24c-110.24 0-199.61-89.36-199.61-199.612V635.863c0-110.238 89.37-199.613 199.61-199.613l270.36.465c24.93 0 45.14-20.203 45.14-45.121 0-24.93-20.21-45.129-45.14-45.129l-402.49.078c-37.57 0-68.02-30.449-68.02-68.023V88.219c0-37.575 30.45-68.024 68.02-68.024l577 .117c110.24 0 199.61 89.364 199.61 199.614l.93 343.637c0 110.238-89.37 199.613-199.62 199.613l-276.03-.785c-24.92 0-45.12 20.199-45.12 45.129 0 24.921 20.2 45.121 45.12 45.121l199.15-.059zm1015.34-188.785h86.52c15.76 0 28.53 12.765 28.53 28.519l-.37 219.926c0 72.322-58.62 130.942-130.94 130.942h-432.89c-72.32 0-130.95-58.62-130.95-130.942V218.367c0-72.312 58.63-130.941 130.95-130.941h432.89c72.32 0 130.94 58.629 130.94 130.941l.37 209.11c0 15.757-12.77 28.523-28.53 28.523h-163.3c-15.74 0-28.51-12.766-28.51-28.523l.92-99.704c0-78.742-49.59-142.585-128.33-142.585-78.75 0-128.33 63.843-128.33 142.585v531.305c0 78.742 49.58 142.582 128.33 142.582 78.74 0 128.33-63.84 128.33-142.582l-.92-99.836c0-15.754 12.77-28.519 28.51-28.519zl-2.33-68.563h-102.74c-37.57 0-68.03 30.465-68.03 68.028l.83 128.89c0 41.246-19.19 74.688-60.43 74.688-41.26 0-60.44-33.442-60.44-74.688V327.773c0-41.246 19.18-74.699 60.44-74.699 41.24 0 60.43 33.453 60.43 74.699l-.83 128.758c0 37.567 30.46 68.028 68.03 68.028h220.52c37.57 0 68.03-30.461 68.03-68.028l-.12-238.164c0-110.238-89.37-199.613-199.62-199.613h-432.89c-110.24 0-199.62 89.375-199.62 199.613v760.801c0 110.252 89.38 199.612 199.62 199.612h432.89c110.25 0 199.62-89.36 199.62-199.612l.12-248.98c0-37.563-30.46-68.028-68.03-68.028h-117.78z" transform="matrix(.13333 0 0 -.13333 0 213.333)"/></svg>