<svg xmlns:dc="http://purl.org/dc/elements/1.1/" xmlns:cc="http://creativecommons.org/ns#" xmlns:rdf="http://www.w3.org/1999/02/22-rdf-syntax-ns#" xmlns:svg="http://www.w3.org/2000/svg" xmlns="http://www.w3.org/2000/svg" xml:space="preserve" id="svg2" version="1.1" viewBox="1.35 1.78 431.75 209.06"><metadata id="metadata8"><rdf:RDF><cc:Work rdf:about=""><dc:format>image/svg+xml</dc:format><dc:type rdf:resource="http://purl.org/dc/dcmitype/StillImage"/></cc:Work></rdf:RDF></metadata><defs id="defs6"/><g transform="matrix(1.3333333,0,0,-1.3333333,0,213.33333)" id="g10"><g transform="scale(0.1)" id="g12"><path id="path14" style="fill:#000000;fill-opacity:1;fill-rule:nonzero;stroke:none" d="m 2918.96,1381.57 c -0.24,-9.2 -0.54,-16.77 -0.85,-19.48 -2.36,-20.75 0,-30.56 -59.82,-30.56 -59.83,0 -57.47,9.81 -59.83,30.56 -0.77,6.75 -1.48,43.7 -1.41,60.98 0.08,17.29 0.64,54.23 1.41,60.99 2.36,20.75 0,30.56 59.83,30.56 59.82,0 57.46,-9.81 59.82,-30.56 0.32,-2.83 0.61,-10.97 0.84,-20.74 h 81.84 c -0.53,18.55 -1.41,34.05 -2.32,42.13 -4.72,41.49 11.63,81.23 -140.09,81.23 -151.72,0 -135.37,-39.74 -140.09,-81.23 -1.53,-13.52 -2.95,-47.81 -2.81,-82.38 0.15,-34.57 1.28,-68.86 2.81,-82.36 4.72,-41.5 -11.63,-81.24 140.09,-81.24 151.72,0 135.37,39.74 140.09,81.24 0.89,7.89 1.65,22.87 2.16,40.86 h -81.67"/><path id="path16" style="fill:#000000;fill-opacity:1;fill-rule:nonzero;stroke:none" d="m 1948.56,1578.38 -79.85,-233.27 -79.85,233.27 -119.47,0.62 v -313.12 h 79.86 v 233.28 l 79.84,-233.28 h 79.86 l 79.23,233.28 v -233.28 h 79.84 V 1579 l -119.46,-0.62"/><path id="path18" style="fill:#000000;fill-opacity:1;fill-rule:nonzero;stroke:none" d="m 3018.71,1579 h 229.5 v -79.84 h -74.83 v -233.28 h -79.84 v 233.28 h -74.83 V 1579"/><path id="path20" style="fill:#000000;fill-opacity:1;fill-rule:nonzero;stroke:none" d="m 2403.16,1265.88 91.59,313.43 h 119.04 l 91.8,-313.43 h -79.85 l -18.86,64.77 H 2502.1 l 14.84,50.92 h 74.85 l -37.11,127.64 -71.68,-243.33 h -79.84"/><path id="path22" style="fill:#000000;fill-opacity:1;fill-rule:nonzero;stroke:none" d="m 1477.09,1514.62 c 59.82,0 57.46,-9.81 59.82,-30.56 0.77,-6.76 1.34,-43.7 1.41,-60.99 0.07,-17.28 -0.64,-54.23 -1.41,-60.98 -2.36,-20.75 0,-30.56 -59.82,-30.56 -59.83,0 -57.47,9.81 -59.83,30.56 -0.76,6.75 -1.47,43.7 -1.4,60.98 0.07,17.29 0.64,54.23 1.4,60.99 2.36,20.75 0,30.56 59.83,30.56 l 0.09,72.06 c -151.72,0 -135.37,-39.74 -140.09,-81.23 -1.53,-13.52 -2.95,-47.81 -2.8,-82.38 0.14,-34.57 1.27,-68.86 2.8,-82.36 4.72,-41.5 -11.63,-81.24 140.09,-81.24 151.72,0 135.37,39.74 140.09,81.24 1.53,13.5 2.66,47.79 2.81,82.36 0.15,34.57 -1.28,68.86 -2.81,82.38 -4.72,41.49 11.63,81.23 -140.09,81.23 l -0.09,-72.06"/><path id="path24" style="fill:#000000;fill-opacity:1;fill-rule:nonzero;stroke:none" d="m 1207.48,1381.57 c -0.25,-9.2 -0.54,-16.77 -0.85,-19.48 -2.36,-20.75 0,-30.56 -59.83,-30.56 -59.82,0 -57.46,9.81 -59.82,30.56 -0.77,6.75 -1.48,43.7 -1.41,60.98 0.08,17.29 0.64,54.23 1.41,60.99 2.36,20.75 0,30.56 59.82,30.56 59.83,0 57.47,-9.81 59.83,-30.56 0.32,-2.83 0.61,-10.97 0.83,-20.74 h 81.84 c -0.52,18.55 -1.4,34.05 -2.32,42.13 -4.71,41.49 11.63,81.23 -140.08,81.23 -151.72,0 -135.37,-39.74 -140.09,-81.23 -1.54,-13.52 -2.96,-47.81 -2.81,-82.38 0.15,-34.57 1.27,-68.86 2.81,-82.36 4.72,-41.5 -11.63,-81.24 140.09,-81.24 151.71,0 135.37,39.74 140.08,81.24 0.9,7.89 1.66,22.87 2.16,40.86 h -81.66"/><path id="path26" style="fill:#000000;fill-opacity:1;fill-rule:nonzero;stroke:none" d="m 2262.45,1337.5 -48.45,0.02 v 71.43 l 48.44,0.29 c 59.83,0 57.97,9.81 60.33,30.56 0.77,6.75 0.61,1.2 0.53,18.49 -0.07,17.28 0.24,11.35 -0.53,18.1 -2.36,20.75 -0.5,30.56 -60.33,30.56 l -48.46,-0.13 0.08,-240.63 h -80.01 V 1579 l 128.4,0.01 c 151.72,0 135.09,-39.85 140.68,-81.24 0.66,-4.9 0.66,-27.54 0.66,-39.74 0,-9.8 0,-32.44 -0.66,-39.62 -3.84,-41.59 11.04,-80.91 -140.68,-80.91"/><path id="path28" style="fill:#000000;fill-opacity:1;fill-rule:nonzero;stroke:none" d="m 709.547,86.8438 -499.824,0.582 c -72.321,0 -130.9417,58.6292 -130.9417,130.9412 v 760.801 c 0,72.322 58.6207,130.942 130.9417,130.942 l 312.82,0.35 c 37.566,0 68.027,30.45 68.027,68.03 l 0.918,304.19 c 0,15.74 12.766,28.51 28.508,28.51 h 183.387 c 15.746,0 28.519,-12.77 28.519,-28.51 l 1.883,-1367.43 c 0,-15.7422 -12.765,-28.5195 -28.512,-28.5195 l -95.726,0.1133 -2.328,-67.9454 125.086,0.0391 c 37.566,0 68.027,30.4492 68.027,68.0234 V 1511.73 c 0,37.56 -30.461,68.02 -68.027,68.02 H 591.707 c -37.562,0 -68.027,-30.46 -68.027,-68.02 l 0.343,-304.95 c 0,-15.74 -12.765,-28.52 -28.519,-28.52 l -285.781,0.52 C 99.4766,1178.78 10.1016,1089.42 10.1016,979.168 V 218.367 c 0,-110.238 89.375,-199.6131 199.6214,-199.6131 l 497.496,0.1445 2.328,67.9454"/><path id="path30" style="fill:#000000;fill-opacity:1;fill-rule:nonzero;stroke:none" d="m 523.672,366.879 v 492.199 c 0,41.246 -33.442,74.688 -74.699,74.688 -41.246,0 -74.684,-33.442 -74.684,-74.688 V 327.773 c 0,-41.246 33.438,-74.699 74.684,-74.699 41.257,0 74.699,33.453 74.699,74.699 v 39.106 l 67.894,-2.328 v -36.778 c 0,-78.742 -63.839,-142.585 -142.593,-142.585 -78.739,0 -142.582,63.843 -142.582,142.585 v 531.305 c 0,78.742 63.843,142.582 142.582,142.582 78.754,0 142.593,-63.84 142.593,-142.582 V 364.551 l -67.894,2.328"/><path id="path32" style="fill:#000000;fill-opacity:1;fill-rule:nonzero;stroke:none" d="m 1184.61,86.8477 -93.55,-0.0079 c -15.75,0 -28.52,12.7813 -28.52,28.5232 l 1.15,965.617 c 0,15.76 12.76,28.52 28.52,28.52 h 183.39 c 15.75,0 28.52,-12.76 28.52,-28.52 L 1306,115.375 c 0,-15.7539 -12.77,-28.5234 -28.51,-28.5234 l -92.88,-0.0039 v -67.668 l 119.91,-0.125 c 37.57,0 68.03,30.4531 68.03,68.0195 V 1110.04 c 0,37.57 -30.46,68.03 -68.03,68.03 h -240.61 c -37.56,0 -68.015,-30.46 -68.015,-68.03 L 995.754,87.3359 c 0,-37.5742 30.216,-68.0273 67.786,-68.0273 l 121.07,-0.1289 v 67.668"/><path id="path34" style="fill:#000000;fill-opacity:1;fill-rule:nonzero;stroke:none" d="m 2048.57,919.508 -201.47,0.273 c -61.99,0 -112.26,-50.269 -112.26,-112.261 0,-62 50.27,-112.262 112.26,-112.262 l 276.03,-0.754 c 72.32,0 130.94,-58.629 130.94,-130.941 l -0.92,-343.637 c 0,-72.321 -58.63,-130.9416 -130.94,-130.9416 l -547.95,-0.9961 c -15.74,0 -28.52,12.7777 -28.52,28.5197 v 133.086 c 0,15.754 12.78,28.523 28.52,28.523 l 373.44,1.215 c 62.01,0 112.28,50.262 112.28,112.262 0,62 -50.27,112.261 -112.28,112.261 l -270.36,1.067 c -72.31,0 -130.95,58.629 -130.95,130.941 v 343.305 c 0,72.322 58.64,130.942 130.95,130.942 l 507.93,2.37 c 15.74,0 28.5,-12.77 28.5,-28.52 l 0.02,-136.12 c 0,-15.742 -12.77,-28.52 -28.52,-28.52 l -136.7,0.188 -2.32,-66.926 167.05,-0.055 c 37.57,0 68.03,30.223 68.03,67.786 l 0.25,190.687 c 0,37.57 -30.45,68.02 -68.03,68.02 l -536.21,-0.24 c -110.24,0 -199.61,-89.36 -199.61,-199.612 V 635.863 c 0,-110.238 89.37,-199.613 199.61,-199.613 l 270.36,0.465 c 24.93,0 45.14,-20.203 45.14,-45.121 0,-24.93 -20.21,-45.129 -45.14,-45.129 l -402.49,0.078 c -37.57,0 -68.02,-30.449 -68.02,-68.023 V 88.2188 c 0,-37.5743 30.45,-68.0235 68.02,-68.0235 l 577,0.1172 c 110.24,0 199.61,89.3635 199.61,199.6135 l 0.93,343.637 c 0,110.238 -89.37,199.613 -199.62,199.613 l -276.03,-0.785 c -24.92,0 -45.12,20.199 -45.12,45.129 0,24.921 20.2,45.121 45.12,45.121 l 199.15,-0.059 2.32,66.926"/><path id="path36" style="fill:#000000;fill-opacity:1;fill-rule:nonzero;stroke:none" d="m 3063.91,730.723 h 86.52 c 15.76,0 28.53,12.765 28.53,28.519 l -0.37,219.926 c 0,72.322 -58.62,130.942 -130.94,130.942 h -432.89 c -72.32,0 -130.95,-58.62 -130.95,-130.942 V 218.367 c 0,-72.312 58.63,-130.9412 130.95,-130.9412 h 432.89 c 72.32,0 130.94,58.6292 130.94,130.9412 l 0.37,209.11 c 0,15.757 -12.77,28.523 -28.53,28.523 h -163.3 c -15.74,0 -28.51,-12.766 -28.51,-28.523 l 0.92,-99.704 c 0,-78.742 -49.59,-142.585 -128.33,-142.585 -78.75,0 -128.33,63.843 -128.33,142.585 v 531.305 c 0,78.742 49.58,142.582 128.33,142.582 78.74,0 128.33,-63.84 128.33,-142.582 l -0.92,-99.836 c 0,-15.754 12.77,-28.519 28.51,-28.519 h 76.78 l -2.33,-68.563 h -102.74 c -37.57,0 -68.03,30.465 -68.03,68.028 l 0.83,128.89 c 0,41.246 -19.19,74.688 -60.43,74.688 -41.26,0 -60.44,-33.442 -60.44,-74.688 V 327.773 c 0,-41.246 19.18,-74.699 60.44,-74.699 41.24,0 60.43,33.453 60.43,74.699 l -0.83,128.758 c 0,37.567 30.46,68.028 68.03,68.028 h 220.52 c 37.57,0 68.03,-30.461 68.03,-68.028 l -0.12,-238.164 c 0,-110.238 -89.37,-199.6131 -199.62,-199.6131 h -432.89 c -110.24,0 -199.62,89.3751 -199.62,199.6131 v 760.801 c 0,110.252 89.38,199.612 199.62,199.612 h 432.89 c 110.25,0 199.62,-89.36 199.62,-199.612 l 0.12,-248.98 c 0,-37.563 -30.46,-68.028 -68.03,-68.028 h -117.78 l 2.33,68.563"/></g></g></svg>