<svg xmlns="http://www.w3.org/2000/svg" width="512" height="512"><path fill="#121314" fill-rule="evenodd" d="M265 37.357v28.356l-17.75.579c-29.877.973-52.74 6.495-77.25 18.657-24.682 12.248-44.275 27.58-61.764 48.334-30.957 36.735-46.854 85.568-43.261 132.892 1.297 17.084 4.032 31.02 8.994 45.825 4.199 12.532 10.51 27 11.777 27 .437 0 4.771-3.994 9.63-8.876l8.835-8.875-3.61-9.129c-8.296-20.98-11.041-37.863-10.355-63.676.525-19.7 2.208-29.74 7.789-46.444 15.663-46.886 54.777-86.389 100.965-101.97 17.932-6.049 28.889-8.028 48.25-8.712L265 90.69v28.239c0 18.08.354 28.118.984 27.904C267.163 146.434 335 78.804 335 78.028 335 77.191 266.585 9 265.745 9c-.41 0-.745 12.76-.745 28.357M244.056 151.09c-2.444.48-7.745 2.44-11.78 4.356-9.816 4.662-16.854 11.775-21.869 22.106l-3.859 7.948-.381 15.25-.381 15.25-6.143.044c-10.5.075-15.968 2.934-19.999 10.456-2.112 3.941-2.144 4.761-2.144 55.5v51.5l2.342 4.086c3.047 5.317 9.02 9.134 15.518 9.917 2.827.341 30.79.48 62.14.309 54.902-.301 57.125-.386 60.394-2.312 1.867-1.1 4.792-3.729 6.5-5.842l3.106-3.842.304-51.658c.2-34.053-.055-52.887-.747-55.265-1.261-4.324-6.683-9.888-11.25-11.543-1.819-.659-6.069-1.232-9.446-1.274l-6.139-.076-.475-14.25c-.527-15.816-1.881-21.59-6.808-29.028-11.091-16.745-30.347-25.266-48.883-21.632m166.237 26.16c-8.832 8.911-9.118 9.342-7.831 11.75 2.629 4.916 8.379 22.805 10.627 33.061 1.987 9.064 2.29 13.271 2.299 31.939.01 20.055-.177 22.305-2.791 33.484-7.798 33.348-20.81 56.89-44.527 80.558-15.098 15.067-25.385 22.609-42.57 31.215-23.342 11.688-43.701 16.507-71 16.806l-14 .154-.5-28.098-.5-28.097-34.568 34.527-34.568 34.527 34.568 34.417L239.5 497.91l.265-27.817.266-27.816 16.234-.724c19.819-.884 35.764-3.384 50.971-7.994 29.182-8.845 53.876-23.31 76.154-44.608 30.911-29.551 49.778-66.557 56.199-110.227 1.274-8.668 1.53-15.551 1.125-30.224-.603-21.783-2.641-34.129-8.666-52.476C428.206 184.325 421.241 168 420.091 168c-.347 0-4.756 4.162-9.798 9.25M245.5 170.293c-8.694 2.636-14.906 7.933-18.421 15.707-1.7 3.759-2.039 6.6-2.057 17.25L225 216h56.196l-.356-13.25c-.315-11.695-.646-13.818-2.822-18.093-5.863-11.518-20.532-17.998-32.518-14.364M196 282v47h113v-94H196zm49.5-17.11c-16.093 7.428-14.698 29.799 2.164 34.701 5.851 1.701 10.316.982 16.141-2.597 3.423-2.104 8.167-10.575 8.185-14.618.016-3.389-2.861-10.605-5.274-13.229-2.973-3.234-9.421-6.103-13.716-6.103-1.925 0-5.3.831-7.5 1.846"/><path fill="#2bb3f3" fill-rule="evenodd" d="M78.905 1.954c-18.072 3.813-36.928 14.017-49.931 27.02C15.963 41.984 5.751 60.862 1.963 78.905.266 86.985.154 97.562.088 255.5.021 416.437.097 423.884 1.906 432.627c8.03 38.822 38.665 69.455 77.467 77.463 8.727 1.801 16.474 1.884 176.627 1.884s167.9-.083 176.627-1.884c18.464-3.811 37.214-13.879 50.399-27.064 12.984-12.983 23.336-32.098 26.889-49.646.925-4.571 2.002-8.63 2.392-9.021.39-.39.698-76.748.684-169.684s-.328-168.672-.698-168.302-1.435-3.093-2.366-7.695c-7.673-37.896-38.816-68.826-77.3-76.768C423.893.107 416.267.029 255.5.083 97.218.137 87.003.246 78.905 1.954M265 37.357v28.356l-17.75.579c-29.877.973-52.74 6.495-77.25 18.657-24.682 12.248-44.275 27.58-61.764 48.334-30.957 36.735-46.854 85.568-43.261 132.892 1.297 17.084 4.032 31.02 8.994 45.825 4.199 12.532 10.51 27 11.777 27 .437 0 4.771-3.994 9.63-8.876l8.835-8.875-3.61-9.129c-8.296-20.98-11.041-37.863-10.355-63.676.525-19.7 2.208-29.74 7.789-46.444 15.663-46.886 54.777-86.389 100.965-101.97 17.932-6.049 28.889-8.028 48.25-8.712L265 90.69v28.239c0 18.08.354 28.118.984 27.904C267.163 146.434 335 78.804 335 78.028 335 77.191 266.585 9 265.745 9c-.41 0-.745 12.76-.745 28.357M.488 257.5c0 92.4.118 130.052.262 83.671s.144-121.981 0-168S.488 165.1.488 257.5m243.568-106.41c-2.444.48-7.745 2.44-11.78 4.356-9.816 4.662-16.854 11.775-21.869 22.106l-3.859 7.948-.381 15.25-.381 15.25-6.143.044c-10.5.075-15.968 2.934-19.999 10.456-2.112 3.941-2.144 4.761-2.144 55.5v51.5l2.342 4.086c3.047 5.317 9.02 9.134 15.518 9.917 2.827.341 30.79.48 62.14.309 54.902-.301 57.125-.386 60.394-2.312 1.867-1.1 4.792-3.729 6.5-5.842l3.106-3.842.304-51.658c.2-34.053-.055-52.887-.747-55.265-1.261-4.324-6.683-9.888-11.25-11.543-1.819-.659-6.069-1.232-9.446-1.274l-6.139-.076-.475-14.25c-.527-15.816-1.881-21.59-6.808-29.028-11.091-16.745-30.347-25.266-48.883-21.632m166.237 26.16c-8.832 8.911-9.118 9.342-7.831 11.75 2.629 4.916 8.379 22.805 10.627 33.061 1.987 9.064 2.29 13.271 2.299 31.939.01 20.055-.177 22.305-2.791 33.484-7.798 33.348-20.81 56.89-44.527 80.558-15.098 15.067-25.385 22.609-42.57 31.215-23.342 11.688-43.701 16.507-71 16.806l-14 .154-.5-28.098-.5-28.097-34.568 34.527-34.568 34.527 34.568 34.417L239.5 497.91l.265-27.817.266-27.816 16.234-.724c19.819-.884 35.764-3.384 50.971-7.994 29.182-8.845 53.876-23.31 76.154-44.608 30.911-29.551 49.778-66.557 56.199-110.227 1.274-8.668 1.53-15.551 1.125-30.224-.603-21.783-2.641-34.129-8.666-52.476C428.206 184.325 421.241 168 420.091 168c-.347 0-4.756 4.162-9.798 9.25M245.5 170.293c-8.694 2.636-14.906 7.933-18.421 15.707-1.7 3.759-2.039 6.6-2.057 17.25L225 216h56.196l-.356-13.25c-.315-11.695-.646-13.818-2.822-18.093-5.863-11.518-20.532-17.998-32.518-14.364M196 282v47h113v-94H196zm49.5-17.11c-16.093 7.428-14.698 29.799 2.164 34.701 5.851 1.701 10.316.982 16.141-2.597 3.423-2.104 8.167-10.575 8.185-14.618.016-3.389-2.861-10.605-5.274-13.229-2.973-3.234-9.421-6.103-13.716-6.103-1.925 0-5.3.831-7.5 1.846"/></svg>