<svg xmlns="http://www.w3.org/2000/svg" xmlns:xlink="http://www.w3.org/1999/xlink" xml:space="preserve" id="Layer_1" x="0" y="0" version="1.1" viewBox="5.1 84.81 501.9 342.29"><style>.st2{fill:#7592ca}.st6{fill:#e46d62}</style><defs><path id="SVGID_1_" d="M5.1 84.9h501.8v342.2H5.1z"/></defs><clipPath id="SVGID_00000106860413325755931990000010594802091348501919_"><use xlink:href="#SVGID_1_" style="overflow:visible"/></clipPath><g style="clip-path:url(#SVGID_00000106860413325755931990000010594802091348501919_)"><path d="M101.1 158.2H21.6v223.5h79.6V158.2z" style="fill:#edda6f"/><path d="M101.1 380.7H21.6v30.8h79.6v-30.8z" class="st2"/><path d="M180.3 158.2h-79.6v223.5h79.6z" style="fill:#a4c45e"/><path d="M180.3 380.7h-79.6v30.8h79.6z" style="fill:#4851a3"/><path d="M259.4 158.2h-79.6v223.5h79.6z" style="fill:#65bbc5"/><path d="M259.4 380.7h-79.6v30.8h79.6z" class="st6"/><path d="M338.6 158.2H259v223.5h79.6z" style="fill:#c683a0"/><path d="M338.6 380.7H259v30.8h79.6z" style="fill:#544a9e"/><path d="M417.7 158.2h-79.6v223.5h79.6z" class="st6"/><path d="M417.7 380.7h-79.6v30.8h79.6z" style="fill:#65bac4"/><path d="M496.9 158.2h-79.6v223.5h79.6z" class="st2"/><path d="M496.9 380.7h-79.6v30.8h79.6z" style="fill:#60429a"/><path d="M498.5 142.4H288c13.5-14.2 41.2-43.1 44.8-47.1 2.7-3.1 1.9-6.5-.2-8.5-2.3-2.1-6.2-2.9-8.5-.6-2.5 2.5-54.2 50.6-60.2 56.2h-15.2c-6-5.6-57.9-53.7-60.2-56.2-2.3-2.3-6.2-1.5-8.5.6-2.1 2.1-2.9 5.4-.2 8.3 3.5 3.7 31.2 32.9 44.8 47.1h-211c-4.6 0-8.3 3.7-8.3 8.3v268.1c0 4.6 3.7 8.3 8.3 8.3h485.1c4.6 0 8.3-3.7 8.3-8.3V150.7c-.1-4.6-3.9-8.3-8.5-8.3m-8.3 268H21.8V159h468.4z" style="fill:#fff"/></g></svg>