<svg xmlns="http://www.w3.org/2000/svg" xml:space="preserve" id="Layer_1" x="0" y="0" version="1.1" viewBox="0 0 512 512"><style>.st0{fill:#3056d3}</style><path d="M255.945.009C114.607.009-.033 114.649-.033 255.986s114.64 255.978 255.978 255.978 255.977-114.64 255.977-255.978S397.4.01 255.945.01m0 27.635c126.115 0 228.342 102.227 228.342 228.342S382.06 484.33 255.945 484.33 27.602 382.102 27.602 255.986 129.83 27.644 255.945 27.644" class="st0"/><path d="M74.457 155.29c.899-.124 5.236-.34 5.236-.34h65.682s8.148.836 9.45 1.362c6.444 2.696 10.255 4.865 15.553 9.171 1.859 1.487 10.595 10.317 10.595 10.317l132.944 147.66s4.152 4.245 5.081 4.988c3.098 2.51 6.382 5.05 10.255 5.98 1.301.31 7.002.526 7.002.526h70.298l-22.71-23.267s-3.377-4.245-3.718-4.988c-1.146-2.386-1.518-6.661-.34-9.047.898-1.766 3.749-4.802 5.731-5.08 2.665-.373 5.453-.992 7.777.37.836.528 4.213 3.409 4.213 3.409l45.017 45.017s3.47 2.819 4.12 4.12c.435.868.744 2.107.373 3.036-.434 1.085-3.656 4.183-3.656 4.183l-2.417 2.51-40.37 42.135s-3.717 3.594-4.616 4.307c-1.952 1.549-5.112 2.292-7.621 2.323-2.665 0-6.754-2.85-8.396-4.926-1.55-1.952-2.82-5.7-1.983-8.055.403-1.147 3.284-4.771 3.284-4.771l29.216-29.062-75.844-.061-4.337.216s-10.69-1.704-13.54-2.664c-4.182-1.456-8.86-4.678-12.207-7.529-.99-.836-4.616-4.926-4.616-4.926L166.94 189.711s-5.143-5.298-6.259-6.258c-3.532-3.006-5.143-4.183-9.666-6.01-1.146-.466-8.892-1.426-8.892-1.426l-62.088-.558s-5.731-.372-6.723-.557c-2.788-.527-5.546-2.758-7.219-4.71-2.045-2.354-1.518-7.87.155-10.534 1.456-2.292 5.515-3.903 8.21-4.275z" class="st0"/><path d="m211.057 271.782-44.087 50.563s-5.143 5.298-6.259 6.258c-3.532 3.005-5.143 4.183-9.666 6.01-1.146.465-8.892 1.426-8.892 1.426l-62.088.557s-5.732.372-6.723.558c-2.788.527-5.546 2.758-7.219 4.71-2.045 2.354-1.518 7.869.155 10.533 1.456 2.293 5.515 3.904 8.21 4.276.899.124 5.236.34 5.236.34h65.682s8.148-.836 9.45-1.363c6.444-2.695 10.255-4.864 15.553-9.17 1.858-1.487 10.595-10.317 10.595-10.317l44.707-49.664zm235.99-108.312c-.434-1.085-3.656-4.183-3.656-4.183l-2.417-2.51-40.37-42.135s-3.717-3.594-4.616-4.307c-1.952-1.549-5.112-2.293-7.621-2.324-2.665 0-6.754 2.85-8.396 4.927-1.55 1.951-2.82 5.7-1.983 8.055.403 1.146 3.284 4.771 3.284 4.771l29.216 29.061-75.844.062-4.338-.217s-10.688 1.704-13.539 2.665c-4.182 1.456-8.86 4.678-12.207 7.528-.99.837-4.616 4.927-4.616 4.927l-48.61 55.798 15.398 15.398 47.309-52.514s4.152-4.245 5.081-4.988c3.098-2.51 6.382-5.05 10.255-5.98 1.301-.31 7.002-.527 7.002-.527h70.298l-22.71 23.268s-3.377 4.244-3.718 4.988c-1.146 2.386-1.518 6.661-.34 9.047.898 1.766 3.748 4.802 5.731 5.08 2.665.372 5.453.992 7.777-.371.836-.527 4.213-3.408 4.213-3.408l45.017-45.017s3.47-2.82 4.12-4.12c.434-.868.744-2.107.372-3.037z" class="st0"/></svg>