<svg xmlns="http://www.w3.org/2000/svg" width="256" height="256" fill="none"><path fill="url(#a)" d="M0 0h256v256H0z"/><path fill="url(#b)" fill-rule="evenodd" d="M210.108 83.479a37.6 37.6 0 0 0-11.013-26.587 37.6 37.6 0 0 0-26.587-11.013H83.494a37.6 37.6 0 0 0-37.613 37.6v89.042a37.6 37.6 0 0 0 37.6 37.599h93.984a32.63 32.63 0 0 0 23.096-9.56 32.65 32.65 0 0 0 9.561-23.096V83.479zm-114.77 61.342V61.708H83.48a21.77 21.77 0 0 0-21.77 21.771v61.342h33.642zM61.723 160.65h83.114v33.642H83.48a21.77 21.77 0 0 1-21.77-21.771V160.65zm132.571-65.3h-83.128V61.708h61.356c12.013 0 21.757 9.745 21.757 21.771V95.35zm-33.629 98.928v-83.099h33.629v66.285c0 9.294-7.52 16.828-16.815 16.828h-16.828z" clip-rule="evenodd"/><defs><linearGradient id="a" x1="128" x2="128" y1="0" y2="256" gradientUnits="userSpaceOnUse"><stop stop-color="#36D687"/><stop offset="1" stop-color="#24B177"/></linearGradient><linearGradient id="b" x1="128.001" x2="128.001" y1="45.879" y2="210.12" gradientUnits="userSpaceOnUse"><stop stop-color="#EAFDEF"/><stop offset="1" stop-color="#97EEAF"/></linearGradient></defs></svg>