<?xml version="1.0" encoding="UTF-8"?><svg xmlns="http://www.w3.org/2000/svg" version="1.1" viewBox="0 0 205 44"><path fill="#231f20" d="M46.7,29.9h0c0-4.3,3.2-7.8,7.7-7.8s4.4.9,5.8,2.3l-2.1,2.4c-1.1-1-2.3-1.7-3.8-1.7-2.5,0-4.3,2.1-4.3,4.6h0c0,2.6,1.7,4.7,4.3,4.7s2.7-.7,3.9-1.7l2.1,2.1c-1.5,1.6-3.2,2.7-6,2.7-4.3,0-7.5-3.4-7.5-7.7Z"/><path fill="#231f20" d="M62.9,22.4h3.2v5.9h6v-5.9h3.2v14.9h-3.2v-6h-6v6h-3.2v-14.9Z"/><path fill="#231f20" d="M79.2,22.4h11.1v2.9h-7.9v3h6.9v2.9h-6.9v3.1h8v2.9h-11.2v-14.9Z"/><path fill="#231f20" d="M92.7,29.9h0c0-4.3,3.2-7.8,7.7-7.8s4.4.9,5.8,2.3l-2.1,2.4c-1.1-1-2.3-1.7-3.8-1.7-2.5,0-4.3,2.1-4.3,4.6h0c0,2.6,1.7,4.7,4.3,4.7s2.7-.7,3.9-1.7l2.1,2.1c-1.5,1.6-3.2,2.7-6,2.7-4.3,0-7.5-3.4-7.5-7.7Z"/><path fill="#231f20" d="M108.8,22.4h3.2v6.5l6-6.5h3.9l-6,6.3,6.3,8.6h-3.9l-4.6-6.4-1.7,1.8v4.6h-3.2v-14.9h0Z"/><path fill="#231f20" d="M130.8,22.4h6c3.5,0,5.6,2.1,5.6,5.2h0c0,3.5-2.6,5.3-6,5.3h-2.5v4.5h-3.2v-14.9h0ZM136.6,29.9c1.6,0,2.6-1,2.6-2.3h0c0-1.5-1-2.3-2.6-2.3h-2.5v4.6h2.6,0Z"/><path fill="#231f20" d="M144.5,29.9h0c0-4.3,3.3-7.8,7.8-7.8s7.8,3.4,7.8,7.7h0c0,4.3-3.3,7.8-7.8,7.8s-7.8-3.4-7.8-7.7ZM156.8,29.9h0c0-2.6-1.8-4.7-4.5-4.7s-4.4,2.1-4.4,4.6h0c0,2.6,1.8,4.7,4.5,4.7s4.4-2.1,4.4-4.6Z"/><path fill="#231f20" d="M163.3,22.4h3.2v14.9h-3.2v-14.9Z"/><path fill="#231f20" d="M170.6,22.4h3l6.9,9.2v-9.2h3.2v14.9h-2.8l-7.1-9.5v9.5h-3.2v-14.9Z"/><path fill="#231f20" d="M191,25.4h-4.5v-3h12.2v3h-4.5v11.9h-3.2v-11.9h0Z"/><path fill="#231f20" d="M201.8,24.4h-.4v-1.7h-.6v-.3h1.6v.3h-.6v1.7h0Z"/><path fill="#231f20" d="M204,23.9h0l-.6-1v1.5h-.4v-2.1h.4l.6,1,.6-1h.4v2.1h-.3v-1.5l-.6,1h0Z"/><polygon points="27.9 11 27.9 11 27.9 11 27.9 11"/><polygon points="35.2 21.7 35.2 21.7 35.2 21.7 35.2 21.7"/><path fill="#231f20" d="M44.2,11.2c-2.3,2.9-6.5,3.4-9.4,1-2.9-2.3-3.3-6.6-1-9.5,2.3-2.9,6.5-3.4,9.4-1,2.9,2.3,3.3,6.6,1,9.5Z"/><path fill="#ee0c5d" d="M35.2,21.7c-1.8.9-4.1.8-6-.2l-5.2,7.1c.7.8,1,1.7,1.1,2.7,0,.9-.2,1.8-.7,2.6-1.3,2.1-4,2.7-6.1,1.3-.2-.1-.4-.3-.6-.5,0,0-.1-.1-.2-.2-.1-.1-.2-.3-.3-.4,0,0,0-.1-.1-.2-.1-.2-.2-.4-.3-.6,0,0,0-.1,0-.2,0-.2-.1-.3-.2-.5,0,0,0-.1,0-.2,0-.2,0-.4-.1-.7v-.2c0-.2,0-.4,0-.6h0c0-.4,0-.6.1-.8,0,0,0-.1,0-.2,0-.2.2-.5.3-.7l-4.2-3.2-1.3,1.8-4.8-3.7,3.6-4.9,4.8,3.7-1.3,1.8,4.3,3.3c1.3-1.1,3.2-1.4,4.8-.5l5.2-7c-2.1-2.1-2.6-5.4-1.1-8.1.3-.5.7-1,1.1-1.4-2.8-2-6.3-3.1-10-3.1C8,7.8,0,15.9,0,25.9c0,10,7.9,18.1,17.8,18.1,9.8,0,17.8-8,17.9-18,0-1.5-.2-2.9-.5-4.2Z"/></svg>