<svg xmlns="http://www.w3.org/2000/svg" xmlns:xlink="http://www.w3.org/1999/xlink" zoomAndPan="magnify" preserveAspectRatio="xMidYMid meet" version="1.2" viewBox="203.39 81 403.21 442.28"><defs><clipPath id="227d831e04"><path d="M 203 81 L 607 81 L 607 523.5 L 203 523.5 Z M 203 81 "/></clipPath></defs><g id="c50c8766b7"><g clip-rule="nonzero" clip-path="url(#227d831e04)"><path style=" stroke:none;fill-rule:nonzero;fill:#02c37e;fill-opacity:1;" d="M 578.480469 186.59375 C 561.003906 165.101562 539.324219 148 513.441406 135.292969 C 487.558594 122.582031 459.523438 116.230469 429.339844 116.230469 C 403.082031 116.230469 378.320312 121.089844 355.050781 130.804688 C 331.875 140.523438 311.597656 153.886719 294.3125 170.707031 C 277.023438 187.621094 263.382812 207.246094 253.476562 229.671875 C 243.570312 252.097656 238.523438 276.019531 238.523438 301.4375 C 238.523438 326.855469 243.476562 350.777344 253.476562 373.203125 C 263.382812 395.632812 277.023438 415.253906 294.3125 431.886719 C 311.597656 448.613281 331.875 461.789062 355.144531 471.507812 C 378.414062 481.226562 403.175781 486.085938 429.433594 486.085938 C 459.617188 486.085938 487.648438 479.730469 513.535156 467.023438 C 539.417969 454.316406 561.003906 437.214844 578.574219 415.722656 L 606.046875 437.214844 L 606.605469 437.214844 C 585.953125 463.472656 560.257812 484.402344 529.699219 499.917969 C 499.050781 515.519531 465.691406 523.277344 429.527344 523.277344 C 398.503906 523.277344 369.253906 517.390625 341.875 505.710938 C 314.402344 494.027344 290.480469 477.957031 270.015625 457.679688 C 249.550781 437.402344 233.292969 413.851562 221.425781 387.035156 C 209.371094 360.402344 203.390625 331.902344 203.390625 301.625 C 203.390625 271.441406 209.371094 242.847656 221.332031 216.027344 C 233.292969 189.210938 249.457031 165.753906 269.921875 145.664062 C 290.386719 125.574219 314.308594 109.78125 341.78125 98.289062 C 369.160156 86.792969 398.410156 81 429.433594 81 C 465.597656 81 499.050781 88.570312 529.605469 103.707031 C 560.257812 118.84375 585.859375 139.308594 606.511719 165.101562 L 605.953125 165.660156 Z M 429.246094 183.042969 C 412.519531 183.042969 396.726562 186.125 381.871094 192.292969 C 366.917969 198.460938 353.929688 206.871094 342.808594 217.617188 C 331.691406 228.363281 322.90625 240.980469 316.550781 255.460938 C 310.195312 269.945312 307.019531 285.363281 307.019531 301.71875 C 307.019531 318.070312 310.195312 333.304688 316.550781 347.691406 C 322.90625 361.992188 331.691406 374.511719 342.808594 385.257812 C 353.929688 396.003906 366.917969 404.414062 381.871094 410.582031 C 396.820312 416.75 412.613281 419.832031 429.246094 419.832031 C 448.683594 419.832031 466.71875 415.722656 483.257812 407.59375 C 499.796875 399.460938 513.535156 388.621094 524.746094 375.074219 L 552.78125 396.566406 C 538.484375 414.507812 520.542969 428.710938 499.144531 439.175781 C 477.652344 449.734375 454.382812 454.96875 429.339844 454.96875 C 407.472656 454.96875 387.007812 450.949219 367.945312 443.007812 C 348.882812 435.066406 332.15625 424.132812 317.859375 410.207031 C 303.375 396.472656 292.164062 380.117188 284.03125 361.429688 C 275.902344 342.742188 271.792969 322.835938 271.792969 301.8125 C 271.792969 280.785156 275.902344 260.882812 284.03125 242.195312 C 292.164062 223.503906 303.46875 207.246094 317.765625 193.320312 C 332.0625 179.398438 348.789062 168.371094 367.851562 160.242188 C 386.914062 152.113281 407.378906 148 429.246094 148 C 454.289062 148 477.558594 153.234375 499.050781 163.792969 C 520.542969 174.351562 538.390625 188.554688 552.6875 206.402344 L 524.65625 228.457031 C 513.160156 214.535156 499.238281 203.507812 482.882812 195.378906 C 466.625 187.152344 448.683594 183.042969 429.246094 183.042969 Z M 429.246094 183.042969 "/></g></g></svg>