<svg xmlns="http://www.w3.org/2000/svg" viewBox="0 0.17 45.69 43.83"><path fill="#231f20" d="M44.2 11.2c-2.3 2.9-6.5 3.4-9.4 1-2.9-2.3-3.3-6.6-1-9.5s6.5-3.4 9.4-1c2.9 2.3 3.3 6.6 1 9.5"/><path fill="#ee0c5d" d="M35.2 21.7c-1.8.9-4.1.8-6-.2L24 28.6c.7.8 1 1.7 1.1 2.7 0 .9-.2 1.8-.7 2.6-1.3 2.1-4 2.7-6.1 1.3-.2-.1-.4-.3-.6-.5l-.2-.2c-.1-.1-.2-.3-.3-.4 0 0 0-.1-.1-.2l-.3-.6v-.2c0-.2-.1-.3-.2-.5v-.2c0-.2 0-.4-.1-.7v-.8c0-.4 0-.6.1-.8v-.2c0-.2.2-.5.3-.7L12.7 26l-1.3 1.8-4.8-3.7 3.6-4.9 4.8 3.7-1.3 1.8L18 28c1.3-1.1 3.2-1.4 4.8-.5l5.2-7c-2.1-2.1-2.6-5.4-1.1-8.1.3-.5.7-1 1.1-1.4-2.8-2-6.3-3.1-10-3.1-10-.1-18 8-18 18S7.9 44 17.8 44c9.8 0 17.8-8 17.9-18 0-1.5-.2-2.9-.5-4.2Z"/></svg>