<svg xmlns="http://www.w3.org/2000/svg" fill="none" viewBox="162.23 11.48 307.11 573.52">
<path d="M218.252 79.2667L218.045 78.4143C218.712 77.617 219.642 77.5282 220.615 77.4361C224.829 77.0374 243.307 76.7077 246.676 77.418C248.299 77.76 249.661 78.5248 250.932 79.5734C254.845 82.8003 259.018 88.0302 262.403 91.9284C263.57 93.2734 264.805 95.1623 266.183 96.2584C268.203 99.7185 274.532 101.602 278.167 102.623C278.397 102.688 278.631 102.741 278.863 102.797C274.983 106.185 272.016 110.321 268.272 113.745C272.574 124.188 286.689 184.953 289.397 187.986C290.165 188.212 290.291 188.048 291.045 187.739C290.627 188.446 290.337 189.3 289.588 189.656L288.963 188.533C286.703 188.347 273.044 195.497 269.836 196.808C267.39 197.808 264.851 198.458 262.414 199.405C261.197 196.797 260.413 193.923 259.329 191.244C254.43 179.142 250.091 166.843 245.71 154.552C240.241 139.206 234.226 124.026 228.882 108.642C226.389 101.466 223.549 94.5009 220.953 87.3749C220.026 84.8301 219.72 81.4795 218.252 79.2667Z" fill="#3158B7"/>
<path d="M218.252 79.2667L218.045 78.4143C218.712 77.617 219.642 77.5282 220.615 77.4361C224.829 77.0374 243.307 76.7077 246.676 77.418C248.299 77.76 249.661 78.5248 250.932 79.5734C254.845 82.8003 259.018 88.0302 262.403 91.9284C263.57 93.2734 264.805 95.1623 266.183 96.2584C268.203 99.7185 274.532 101.602 278.167 102.623C278.397 102.688 278.631 102.741 278.863 102.797C274.983 106.185 272.016 110.321 268.272 113.745C266.08 111.774 263.588 110.159 261.208 108.427C256.477 104.982 251.692 101.649 246.906 98.282L233.54 88.9767C228.729 85.5908 223.823 81.3267 218.252 79.2667Z" fill="#73E4FA"/>
<path d="M299.595 19.4005C302.177 17.8183 305.226 16.8946 307.955 15.5556C310.387 14.3626 312.673 12.8604 315.15 11.7619C315.624 11.5519 315.886 11.4697 316.398 11.4844C315.732 13.7848 316.431 26.6622 316.441 30.2652C316.474 42.2192 316.084 54.2432 316.385 66.1867C316.416 67.4343 316.377 68.6301 316.847 69.8026C316.457 79.0631 316.718 88.4086 316.651 97.6808L316.423 172.062C316.376 177.75 316.385 183.438 316.448 189.125C316.469 192.585 316.902 196.888 316.126 200.243C316.055 199.033 315.728 197.334 316.025 196.183C315.86 197.435 315.463 198.762 315.391 200.002C315.283 201.847 315.798 203.719 315.391 205.559C314.431 204.554 313.43 203.906 312.592 202.729C308.228 196.602 310.556 194.07 301.963 190.683C299.704 189.793 293.054 186.88 291.045 187.739C290.291 188.048 290.165 188.212 289.397 187.986C286.689 184.953 272.574 124.188 268.272 113.745C272.016 110.321 274.983 106.185 278.863 102.797C278.631 102.741 278.397 102.688 278.167 102.623C274.532 101.602 268.203 99.7184 266.183 96.2583C269.435 97.3504 272.901 97.5882 276.304 97.6583C280.306 97.7408 283.403 97.3026 286.383 94.3544C288.086 92.669 289.516 90.6569 291.136 88.8839C293.303 86.512 296.041 84.1801 297.633 81.3777C300.012 77.1924 299.115 62.4967 299.219 57.0841C296.538 56.7086 293.912 56.806 291.218 56.6995C288.184 56.5796 285.396 56.0507 283.294 53.6585C280.886 50.9188 280.696 47.3466 281.035 43.8756C282.423 29.6657 295.122 37.239 298.804 33.8184C299.712 32.9739 299.469 21.618 299.595 19.4005Z" fill="#3D7ECD"/>
<path d="M362.288 269.421L362.773 270.062C364.332 274.37 365.193 279.073 366.359 283.516C368.419 291.371 370.61 299.194 372.793 307.015L395.769 388.039L411.304 442.863L415.766 458.213C416.528 460.836 417.569 463.467 417.96 466.175C417.89 466.842 418.03 466.869 417.485 467.324C413.349 466.406 409.11 465.92 404.942 465.147C396.892 463.653 388.881 461.984 380.817 460.552C380.516 459.221 380.489 457.712 380.305 456.347C379.896 453.327 379.359 450.33 378.694 447.356C376.712 438.738 374.16 430.227 372.075 421.626L351.327 334.35C349.071 324.725 347.019 314.981 344.607 305.405C342.561 297.284 340.078 289.201 338.622 280.946C339.912 280.649 340.991 280.35 342.142 279.684C345.072 278.136 348.264 277.064 351.221 275.536C354.9 273.636 358.345 270.649 362.288 269.421Z" fill="#73E4FA"/>
<path d="M316.398 11.4845C316.949 11.6168 317.496 11.7682 318.021 11.982C320.527 13.0022 322.595 14.8975 325.025 16.0401C326.641 16.7993 328.506 17.0278 330.066 17.9189C330.615 18.2326 331.175 18.6401 331.516 19.1833C333.638 22.5617 329.941 33.143 334.144 34.5595C335.071 34.872 336.309 34.7269 337.278 34.6636C342.517 34.3216 346.04 34.3235 349.065 39.1827C350.891 42.117 351.841 45.3207 350.982 48.7564C350.164 52.0314 347.831 55.4635 344.902 57.2399C344.309 57.5993 343.657 57.8308 343.003 58.0488C342.382 58.2541 341.729 58.4831 341.176 58.8402C339.34 60.0257 337.705 61.6472 335.85 62.8819C335.083 63.3916 333.536 63.9343 333.114 64.7163C333.015 64.8989 332.938 65.0921 332.849 65.2797C331.994 71.778 330.942 74.7954 335.242 80.4525C338.105 84.2196 345.676 93.407 349.248 96.0711C350.329 96.8768 351.548 97.3899 352.858 97.674C354.638 97.679 356.567 97.8353 358.319 97.4932C366.986 95.8002 372.945 85.6789 379.155 80.1412C380.557 78.8916 382.117 77.8947 383.974 77.4926C387.385 76.754 391.296 77.2429 394.773 77.2627C400.744 77.2966 406.631 77.1509 412.603 77.4939C413.066 77.8038 413.08 77.6663 413.16 78.1487C413.385 79.5036 412.832 81.0938 412.41 82.377C409.805 90.2864 406.49 98.1119 403.607 105.936L387.525 150.29C383.617 161.269 379.569 172.195 375.381 183.07C373.017 189.241 370.826 195.663 367.756 201.518C366.906 200.846 366.105 200.384 365.115 199.946C357.118 196.547 349.468 191.947 341.757 187.926C341.211 187.423 341.102 187.207 340.301 187.318C338.422 187.579 336.346 188.419 334.502 188.929C330.434 190.055 321.796 191.764 319.469 195.652C318.572 197.151 317.692 200.22 316.337 201.245C316.225 200.886 316.145 200.621 316.126 200.243C316.902 196.888 316.469 192.585 316.448 189.125C316.385 183.438 316.377 177.75 316.423 172.062L316.651 97.6809C316.718 88.4087 316.457 79.0632 316.847 69.8027C316.377 68.6302 316.416 67.4344 316.385 66.1868C316.084 54.2433 316.474 42.2193 316.441 30.2653C316.431 26.6623 315.732 13.7849 316.398 11.4845Z" fill="#73E4FA"/>
<path d="M332.127 57.4141C335.751 57.5106 339.378 57.8905 343.003 58.0488C342.382 58.2541 341.729 58.4831 341.176 58.8402C339.34 60.0257 337.705 61.6472 335.85 62.8819C335.083 63.3916 333.536 63.9343 333.114 64.7163C333.015 64.8989 332.938 65.0921 332.849 65.2797C332.684 62.6459 332.422 60.0356 332.127 57.4141Z" fill="black"/>
<path d="M352.858 97.674C354.638 97.679 356.567 97.8353 358.319 97.4932C366.986 95.8002 372.945 85.6789 379.155 80.1412C380.557 78.8916 382.117 77.8947 383.974 77.4926C387.385 76.754 391.296 77.2429 394.773 77.2627C400.744 77.2966 406.631 77.1509 412.603 77.4939C412.123 77.5931 411.776 77.6589 411.35 77.9133C409.284 79.1482 407.188 81.3404 405.081 82.7802C394.559 89.9716 384.283 97.4873 373.787 104.715C371.042 106.605 368.398 108.696 365.587 110.481C363.016 106.042 360.879 102.667 356.684 99.576C355.908 99.004 354.963 98.1848 354.042 97.8844C353.777 97.7979 353.467 97.7915 353.199 97.7482C353.084 97.7297 352.972 97.6988 352.858 97.674Z" fill="#4F91E0"/>
<path d="M316.847 69.8027C321.242 72.4105 326.84 79.7356 330.518 83.5726C335.063 88.3145 340.305 92.4625 345.078 96.9857C348.754 100.47 359.102 112.197 362.531 113.979C362.884 116.416 347.596 173.131 345.411 179.979C344.657 182.345 343.764 185.35 342.254 187.338C342.099 187.543 341.927 187.734 341.757 187.926C341.211 187.423 341.102 187.207 340.301 187.318C338.422 187.579 336.346 188.419 334.502 188.929C330.434 190.055 321.796 191.764 319.469 195.652C318.572 197.151 317.692 200.22 316.337 201.245C316.225 200.886 316.145 200.621 316.126 200.243C316.902 196.888 316.469 192.585 316.448 189.125C316.385 183.438 316.376 177.75 316.423 172.062L316.651 97.6809C316.718 88.4087 316.457 79.0632 316.847 69.8027Z" fill="#5BBFFC"/>
<path d="M316.126 200.243C316.145 200.621 316.225 200.886 316.337 201.245C317.692 200.22 318.572 197.151 319.469 195.652C321.796 191.764 330.434 190.055 334.502 188.929C336.346 188.419 338.422 187.579 340.301 187.318C341.102 187.207 341.211 187.423 341.757 187.926C349.468 191.947 357.118 196.547 365.115 199.946C366.105 200.384 366.906 200.846 367.756 201.518C367.27 202.637 366.763 203.747 366.234 204.848C365.063 207.595 364.344 210.137 363.459 212.952C367.613 213.364 371.797 213.297 375.966 213.194C386.171 213.341 399.134 211.56 407.006 219.438C408.262 220.694 409.583 222.077 410.315 223.707C411.447 228.7 410.939 234.09 410.692 239.173C410.661 239.285 410.628 239.397 410.599 239.511C410.317 240.612 410.264 241.816 409.76 242.846C408.269 245.89 403.918 248.67 401.099 250.509L397.101 250.535C392.229 251.156 386.936 250.764 382.02 250.742C380.258 252.242 379.572 253.4 379.015 255.621C375.623 257.067 372.349 258.186 368.836 259.31C366.357 260.996 362.191 264.345 361.869 267.495C361.803 268.145 361.893 268.578 362.175 269.155L362.288 269.421C358.345 270.649 354.9 273.636 351.221 275.536C348.264 277.064 345.072 278.136 342.142 279.684C340.991 280.35 339.912 280.649 338.622 280.946L338.374 280.965L337.631 281.175C336.996 280.978 336.122 280.707 335.64 280.22C335.013 279.586 332.112 273.818 330.826 272.131C327.237 267.42 322.458 264.909 316.638 264.129L316.192 264.037C314.993 265.535 316.083 270.149 315.579 272.213C315.076 269.916 316.559 267.352 315.272 265.334C314.562 264.951 314 264.949 313.234 265.15C310.643 265.828 308.244 267.144 305.601 267.663L305.359 267.78C304.526 268.174 303.726 268.445 302.836 268.679L302.422 268.516C302.97 267.994 303.581 267.707 304.249 267.371C303.346 267.089 302.592 267.405 301.795 267.828C300.798 268.358 299.724 269.109 298.638 269.418C296.45 270.04 293.748 268.782 292.771 271.723C291.539 275.429 292.836 276.598 289.342 279.245L289.264 279.106L289.746 279.665C289.922 279.642 290.098 279.617 290.274 279.596C290.788 279.534 291.072 279.562 291.552 279.784C283.761 280.886 276.08 271.943 269.481 268.727C269.532 267.685 269.414 267.036 268.848 266.155C266.793 262.951 261.551 259.21 258.011 257.869C256.773 257.4 255.382 257.17 254.087 256.899C250.725 256.497 247.482 255.358 244.173 254.665C241.651 254.137 239.029 253.962 236.466 253.728C236.969 252.907 236.631 251.749 236.978 250.742C234.444 250.731 231.884 250.523 229.351 250.403C226.903 249.086 224.175 246.485 222.644 244.15C220.166 240.368 220.112 229.455 221.195 225.05C221.962 221.93 223.946 219.508 226.648 217.845C227.525 217.021 228.391 216.267 229.547 215.874C232.606 214.832 236.233 214.827 239.433 214.547C243.327 214.206 247.238 213.733 251.141 213.538C256.502 213.269 261.883 213.36 267.25 213.257C267.293 213.167 267.345 213.08 267.378 212.986C268.103 210.948 263.421 201.839 262.414 199.405C264.851 198.458 267.39 197.808 269.836 196.808C273.044 195.497 286.703 188.347 288.963 188.533L289.588 189.656C290.337 189.3 290.627 188.446 291.045 187.739C293.054 186.88 299.704 189.793 301.963 190.683C310.556 194.07 308.228 196.602 312.592 202.729C313.43 203.906 314.431 204.554 315.391 205.559C315.798 203.719 315.283 201.847 315.391 200.002C315.463 198.762 315.86 197.435 316.025 196.183C315.728 197.334 316.055 199.033 316.126 200.243Z" fill="#73E4FA"/>
<path d="M226.648 217.845C227.525 217.021 228.391 216.267 229.547 215.874C232.606 214.832 236.233 214.827 239.433 214.547C243.327 214.206 247.238 213.733 251.141 213.538C256.502 213.269 261.883 213.36 267.25 213.257C273.5 213.971 279.834 213.445 286.108 213.605C286.028 213.626 285.948 213.648 285.867 213.666C283.762 214.153 281.367 213.997 279.208 214.037C272.251 214.165 265.326 213.83 258.375 213.88C253.031 213.919 247.886 214.67 242.578 215.017C240.895 215.127 236.024 214.805 235.01 216.105C234.814 216.356 234.778 216.499 234.672 216.773C235.26 217.358 235.736 217.319 236.534 217.341C240.179 217.439 243.921 217.212 247.585 217.238C254.057 217.283 260.516 217.54 266.99 217.551C270.978 217.557 278.548 217.235 282.283 217.919C273.611 218.558 264.721 217.948 256.023 218.03C249.71 217.873 243.396 217.847 237.081 217.954C233.732 217.991 229.946 218.398 226.648 217.845Z" fill="#4F91E0"/>
<path d="M321 196.5C321.019 196.878 320.86 194.141 320.972 194.5C322.327 193.475 318.572 197.151 319.469 195.652C321.796 191.764 330.434 190.055 334.502 188.929C336.346 188.419 338.422 187.579 340.301 187.318C341.102 187.207 341.211 187.423 341.757 187.926C349.468 191.947 357.118 196.547 365.115 199.946C366.105 200.384 366.906 200.846 367.756 201.518C367.27 202.637 366.763 203.747 366.234 204.848C365.063 207.595 364.344 210.137 363.459 212.952L361.76 212.951C346.809 213.807 331.759 213.014 316.787 213.074L315.391 205.559C315.798 203.719 315.283 201.847 315.391 200.002C315.463 198.762 315.835 196.752 316 195.5C315.5 195 323.374 191.757 321 196.5Z" fill="#3158B7"/>
<path d="M291.045 187.739C293.054 186.88 299.704 189.793 301.963 190.683C310.556 194.07 305.5 191.5 312.5 194.5C314 195 315.54 193.995 316.5 195L316.787 213.074C306.586 212.996 296.304 213.296 286.108 213.605C279.834 213.445 273.5 213.971 267.25 213.257C267.293 213.167 267.345 213.08 267.378 212.986C268.103 210.948 263.421 201.839 262.414 199.405C264.851 198.458 267.39 197.808 269.836 196.808C273.044 195.497 286.703 188.347 288.963 188.533L289.5 188.5C290.249 188.144 290.627 188.446 291.045 187.739Z" fill="#15337C"/>
<path d="M316.158 217.961C333.626 218.066 351.372 216.648 368.745 218.663C369.093 229.235 368.662 239.88 368.76 250.467L387.46 250.44C390.609 250.437 393.982 250.193 397.101 250.535C392.229 251.156 386.936 250.764 382.02 250.742L316.217 250.777C316.034 247.101 316.2 243.334 316.205 239.649C316.23 232.42 316.215 225.19 316.158 217.961Z" fill="#5BBFFC"/>
<path d="M229.351 250.403C226.903 249.086 224.175 246.485 222.644 244.15C220.166 240.368 220.112 229.455 221.195 225.05C221.962 221.93 223.946 219.508 226.648 217.845C229.946 218.398 233.732 217.991 237.081 217.954C243.396 217.847 249.71 217.873 256.023 218.03C264.721 217.948 273.611 218.558 282.283 217.919L316.158 217.961C316.215 225.19 316.23 232.42 316.205 239.649C316.2 243.334 316.034 247.101 316.217 250.777L382.02 250.742C380.258 252.242 379.572 253.4 379.015 255.621C375.623 257.067 372.349 258.186 368.836 259.31C366.357 260.996 362.191 264.345 361.869 267.495C361.803 268.145 361.893 268.578 362.175 269.155L362.288 269.421C358.345 270.649 354.9 273.636 351.221 275.536C348.264 277.064 345.072 278.136 342.142 279.684C340.991 280.35 339.912 280.649 338.622 280.946L338.374 280.965L337.631 281.175C336.996 280.978 336.122 280.707 335.64 280.22C335.013 279.586 332.112 273.818 330.826 272.131C327.237 267.42 322.458 264.909 316.638 264.129L316.192 264.037C314.993 265.535 316.083 270.149 315.579 272.213C315.076 269.916 316.559 267.352 315.272 265.334C314.562 264.951 314 264.949 313.234 265.15C310.643 265.828 308.244 267.144 305.601 267.663L305.359 267.78C304.526 268.174 303.726 268.445 302.836 268.679L302.422 268.516C302.97 267.994 303.581 267.707 304.249 267.371C303.346 267.089 302.592 267.405 301.795 267.828C300.798 268.358 299.724 269.109 298.638 269.418C296.45 270.04 293.748 268.782 292.771 271.723C291.539 275.429 292.836 276.598 289.342 279.245L289.264 279.106L289.746 279.665C289.922 279.642 290.098 279.617 290.274 279.596C290.788 279.534 291.072 279.562 291.552 279.784C283.761 280.886 276.08 271.943 269.481 268.727C269.532 267.685 269.414 267.036 268.848 266.155C266.793 262.951 261.551 259.21 258.011 257.869C256.773 257.4 255.382 257.17 254.087 256.899C250.725 256.497 247.482 255.358 244.173 254.665C241.651 254.137 239.029 253.962 236.466 253.728C236.969 252.907 236.631 251.749 236.978 250.742C234.444 250.731 231.884 250.523 229.351 250.403Z" fill="#3D7ECD"/>
<path d="M229.5 250.5C227.052 249.183 224.175 246.485 222.644 244.15C220.166 240.368 220.112 229.455 221.195 225.05C221.962 221.93 223.946 219.508 226.648 217.845C229.946 218.398 233.732 217.991 237.081 217.954C243.396 217.847 249.71 217.873 256.023 218.03C258.057 218.243 260.081 218.239 262.124 218.245C262.036 228.982 261.779 239.713 261.935 250.452C267.117 250.445 282.096 249.873 286.095 250.724C281.121 250.989 276.017 250.759 271.029 250.75C261.584 250.723 252.14 250.748 242.696 250.824C240.816 250.676 238.867 250.759 236.978 250.742C234.444 250.731 232.033 250.62 229.5 250.5Z" fill="#3158B7"/>
<path d="M242.696 250.824C252.14 250.748 261.584 250.723 271.029 250.75C276.017 250.759 281.121 250.989 286.095 250.724C296.126 250.796 306.188 250.976 316.217 250.777L382.02 250.742C380.258 252.242 379.572 253.4 379.015 255.621C375.623 257.067 372.349 258.186 368.836 259.31C366.357 260.996 362.191 264.345 361.869 267.495C361.803 268.145 361.893 268.578 362.175 269.155L362.288 269.421C358.345 270.649 354.9 273.636 351.221 275.536C348.264 277.064 345.072 278.136 342.142 279.684C340.991 280.35 339.912 280.649 338.622 280.946L338.374 280.965L337.631 281.175C336.996 280.978 336.122 280.707 335.64 280.22C335.013 279.586 332.112 273.818 330.826 272.131C327.237 267.42 322.458 264.909 316.638 264.129L316.192 264.037C314.993 265.535 316.083 270.149 315.579 272.213C315.076 269.916 316.559 267.352 315.272 265.334C314.562 264.951 314 264.949 313.234 265.15C310.643 265.828 308.244 267.144 305.601 267.663L305.359 267.78C304.526 268.174 303.726 268.445 302.836 268.679L302.422 268.516C302.97 267.994 303.581 267.707 304.249 267.371C303.346 267.089 302.592 267.405 301.795 267.828C300.798 268.358 299.724 269.109 298.638 269.418C296.45 270.04 293.748 268.782 292.771 271.723C291.539 275.429 292.836 276.598 289.342 279.245L289.264 279.106L289.746 279.665C289.922 279.642 290.098 279.617 290.274 279.596C290.788 279.534 291.072 279.562 291.552 279.784C283.761 280.886 276.08 271.943 269.481 268.727C269.532 267.685 269.414 267.036 268.848 266.155C266.793 262.951 261.551 259.21 258.011 257.869C256.773 257.4 255.382 257.17 254.087 256.899C250.725 256.497 247.482 255.358 244.173 254.665C241.651 254.137 239.029 253.962 236.466 253.728C236.969 252.907 236.631 251.749 236.978 250.742C238.867 250.759 240.816 250.676 242.696 250.824Z" fill="url(#paint0_linear_4222_6997)"/>
<path d="M236.978 250.742C238.867 250.759 240.816 250.676 242.696 250.824C242.881 250.874 243.066 250.928 243.252 250.974C245.298 251.479 247.92 251.212 250.051 251.224C248.443 251.53 247.073 251.291 245.943 252.702C245.85 253.55 245.913 253.633 246.31 254.399C248.336 255.702 252.778 255.161 254.087 256.899C250.725 256.497 247.482 255.358 244.173 254.665C241.651 254.137 239.029 253.962 236.466 253.728C236.969 252.907 236.631 251.749 236.978 250.742Z" fill="#15337C"/>
<path d="M315.839 263.948C315.537 262.501 315.708 261.013 315.229 259.629C314.46 258.966 313.976 259.049 312.984 258.933C313.102 258.884 313.213 258.814 313.338 258.787C315.769 258.246 325.519 258.983 328.801 258.983L357.499 259.017C359.803 259.006 366.156 258.505 368.097 258.96C368.485 259.051 368.546 259.119 368.836 259.31C366.357 260.996 362.191 264.345 361.869 267.495C361.803 268.145 361.893 268.578 362.175 269.155L362.288 269.421C358.345 270.649 354.9 273.636 351.221 275.536C348.264 277.064 345.072 278.136 342.142 279.684C340.991 280.35 339.912 280.649 338.622 280.946L338.374 280.965L337.631 281.175C336.996 280.978 336.122 280.707 335.64 280.22C335.013 279.586 332.112 273.818 330.826 272.131C327.237 267.42 322.458 264.909 316.638 264.129L316.192 264.037C314.993 265.535 316.083 270.149 315.579 272.213C315.076 269.916 316.559 267.352 315.272 265.334C314.562 264.951 314 264.949 313.234 265.15C310.643 265.828 308.244 267.144 305.601 267.663C307.941 265.704 312.848 264.583 315.839 263.948Z" fill="url(#paint1_linear_4222_6997)"/>
<path d="M334.406 268.36C340.718 267.927 347.148 267.514 353.456 268.191C355.699 268.431 360.368 269.793 362.175 269.155L362.288 269.421C358.345 270.649 354.9 273.636 351.221 275.536C348.264 277.064 345.072 278.136 342.142 279.684C340.991 280.35 339.912 280.649 338.622 280.946L338.374 280.965C338.013 279.917 337.843 278.75 337.605 277.665C336.155 274.684 336.233 271.392 334.406 268.36Z" fill="#4F91E0"/>
<path d="M337.605 277.665C338.101 277.244 338.105 277.263 338.759 277.253C340.026 277.925 341.077 278.732 342.142 279.684C340.991 280.35 339.912 280.649 338.622 280.946L338.374 280.965C338.013 279.917 337.843 278.75 337.605 277.665Z" fill="#5BBFFC"/>
<path d="M162.994 506.672C163.51 506.136 164.063 505.686 164.643 505.225C167.325 506.032 178.659 505.485 182.142 505.49L221.176 505.555C226.755 505.582 232.376 505.443 237.949 505.628C269.102 506.183 300.329 505.731 331.491 505.742L372.011 505.764C380.199 505.77 388.457 505.962 396.635 505.618C396.442 517.711 396.022 529.884 396.433 541.975C409.395 542.082 422.357 542.091 435.32 542.002C441.062 542.005 447.41 541.469 453.076 542.23C457.801 542.254 462.724 542.135 467.419 542.679C465.179 543.78 463.234 548.572 462.043 550.796V551.298L462.794 551.648C454.827 551.784 446.872 552.172 438.929 552.813C436.511 552.995 434.06 552.553 431.644 552.413C428.22 552.214 424.779 552.237 421.352 552.25C402.933 552.322 384.531 552.526 366.11 552.346L227.563 552.274C215.642 552.277 203.672 552.344 191.757 552.13C182.178 551.958 172.491 551.389 162.923 551.866C164.053 549.046 163.345 544.905 162.658 542.024C162.018 536.512 162.277 530.737 162.288 525.186C162.299 519.081 161.931 512.699 162.994 506.672Z" fill="#15337C"/>
<path d="M162.994 506.672C163.51 506.136 164.063 505.686 164.643 505.225C167.325 506.032 178.659 505.485 182.142 505.49L221.176 505.555C226.755 505.582 232.376 505.443 237.949 505.628C237.694 517.722 237.219 529.932 237.571 542.021L396.433 541.975C409.395 542.082 422.357 542.091 435.32 542.002C441.062 542.005 447.41 541.469 453.076 542.23C445.432 542.447 437.752 542.287 430.104 542.288L384.066 542.238L236.646 542.27L181.968 542.237C175.536 542.231 169.083 541.914 162.658 542.024C162.018 536.512 162.277 530.737 162.288 525.186C162.299 519.081 161.931 512.699 162.994 506.672Z" fill="#3158B7"/>
<path d="M237.949 505.628C269.102 506.183 300.329 505.731 331.491 505.742L372.011 505.764C380.199 505.77 388.457 505.962 396.635 505.618C396.442 517.711 396.022 529.884 396.433 541.975L237.571 542.021C237.219 529.932 237.694 517.722 237.949 505.628Z" fill="#3D7ECD"/>
<path d="M316.173 450.214L316.356 450.171C327.599 451.012 338.68 453.515 349.747 455.526C360.085 457.318 370.442 458.993 380.817 460.552C388.881 461.984 396.892 463.653 404.942 465.147C409.11 465.92 413.349 466.406 417.485 467.324C418.03 466.869 417.89 466.842 417.96 466.175C418.868 471.139 419.01 474.417 418.882 479.505C424.212 480.991 428.904 484.71 433.752 487.295L467.07 504.914C467.988 505.502 468.749 505.944 468.955 507.111C469.514 510.282 469.469 539.486 468.739 541.824C468.292 542.267 468.021 542.487 467.419 542.679C462.724 542.135 457.801 542.254 453.076 542.23C447.41 541.469 441.062 542.005 435.32 542.002C422.357 542.091 409.395 542.082 396.433 541.975C396.022 529.884 396.442 517.711 396.635 505.618C388.457 505.962 380.199 505.77 372.011 505.764L331.491 505.742C300.329 505.731 269.102 506.183 237.949 505.628C232.376 505.443 226.755 505.582 221.176 505.555L182.142 505.49C178.659 505.485 167.325 506.032 164.643 505.225C166.684 503.613 169.31 502.543 171.632 501.378C176.276 499.048 181.007 496.831 185.604 494.419C192.121 490.999 198.566 487.372 204.999 483.795C207.005 482.679 208.919 481.328 210.961 480.297C211.664 479.943 212.437 479.729 213.192 479.519C213.447 477.939 213.28 476.121 213.292 474.511C213.314 471.755 213.495 469.182 213.961 466.462C214.147 466.81 214.01 466.597 214.452 467.044C227.245 465.759 239.827 462.451 252.483 460.143C260.461 458.819 268.511 457.946 276.475 456.519L300.283 452.407C305.401 451.522 310.98 450.069 316.173 450.214Z" fill="#73E4FA"/>
<path d="M316.173 450.214L316.356 450.171C327.599 451.012 338.68 453.515 349.747 455.526C360.085 457.318 370.442 458.993 380.817 460.552C388.881 461.984 396.892 463.653 404.942 465.147C409.11 465.92 413.349 466.406 417.485 467.324C418.03 466.869 417.89 466.842 417.96 466.175C418.868 471.139 419.01 474.417 418.882 479.505C407.542 478.716 395.89 479.365 384.514 479.436C370.443 479.525 356.374 479.202 342.302 479.225L326.141 479.166C322.94 479.164 319.619 479.396 316.441 479.069C316.286 469.43 316.022 459.862 316.173 450.214Z" fill="#3D7ECD"/>
<path d="M467.07 504.914C467.988 505.502 468.749 505.944 468.955 507.111C469.514 510.282 469.469 539.486 468.739 541.824C468.292 542.267 468.021 542.487 467.419 542.679C462.724 542.135 457.801 542.254 453.076 542.23C447.41 541.469 441.062 542.005 435.32 542.002C422.357 542.091 409.395 542.082 396.433 541.975C396.022 529.884 396.442 517.711 396.635 505.618C399.774 505.933 403.063 505.785 406.221 505.786L422.299 505.784C435.31 505.785 448.476 506.228 461.464 505.68C463.339 505.6 465.314 505.634 467.07 504.914Z" fill="#5BBFFC"/>
<path d="M252.483 460.143C260.461 458.819 268.511 457.946 276.475 456.519L300.283 452.407C305.401 451.522 310.98 450.069 316.173 450.214C316.022 459.862 316.286 469.43 316.441 479.069C313.41 479.108 310.372 479.425 307.371 479.847C292.468 483.6 277.556 488.899 263.025 493.906C257.708 495.738 251.924 497.128 246.801 499.408C243.673 500.8 240.545 502.657 238.239 505.216L351.838 505.253L382.181 505.431C386.77 505.429 392.191 504.724 396.635 505.618C388.457 505.962 380.199 505.77 372.011 505.764L331.491 505.742C300.329 505.731 269.102 506.183 237.949 505.628C232.376 505.443 226.755 505.582 221.176 505.555L182.142 505.49C178.659 505.485 167.325 506.032 164.643 505.225C166.684 503.613 169.31 502.543 171.632 501.378C176.276 499.048 181.007 496.831 185.604 494.419C192.121 490.999 198.566 487.372 204.999 483.795C207.005 482.679 208.919 481.328 210.961 480.297C211.664 479.943 212.437 479.729 213.192 479.519C213.447 477.939 213.28 476.121 213.292 474.511C213.314 471.755 213.495 469.182 213.961 466.462C214.147 466.81 214.01 466.597 214.452 467.044C227.245 465.759 239.827 462.451 252.483 460.143Z" fill="url(#paint2_linear_4222_6997)"/>
<path d="M252.483 460.143C260.461 458.819 268.511 457.946 276.475 456.519L300.283 452.407C305.401 451.522 310.98 450.069 316.173 450.214C316.022 459.862 316.286 469.43 316.441 479.069C313.41 479.108 310.372 479.425 307.371 479.847C280.73 478.905 253.933 479.206 227.271 479.298C222.578 479.314 217.879 479.538 213.192 479.519C213.447 477.939 213.28 476.121 213.292 474.511C213.314 471.755 213.495 469.182 213.961 466.462C214.147 466.81 214.01 466.597 214.452 467.044C227.245 465.759 239.827 462.451 252.483 460.143Z" fill="#15337C"/>
<path d="M305.601 267.663C308.244 267.144 310.643 265.828 313.234 265.15C314 264.949 314.562 264.951 315.272 265.334C316.559 267.352 315.076 269.916 315.579 272.213C316.083 270.149 314.993 265.535 316.192 264.037L316.638 264.129C322.458 264.909 327.237 267.42 330.826 272.131C332.112 273.818 335.013 279.586 335.64 280.22C336.122 280.707 336.996 280.978 337.631 281.175L338.374 280.965L338.622 280.946C340.078 289.201 342.561 297.284 344.607 305.405C347.019 314.981 349.071 324.725 351.327 334.35L372.075 421.626C374.16 430.227 376.712 438.738 378.694 447.356C379.359 450.33 379.896 453.327 380.305 456.347C380.489 457.712 380.516 459.221 380.817 460.552C370.442 458.993 360.085 457.318 349.747 455.526C338.68 453.515 327.599 451.012 316.356 450.171L316.173 450.214C310.98 450.069 305.401 451.522 300.283 452.407L276.475 456.519C268.511 457.946 260.461 458.819 252.483 460.143C239.827 462.451 227.245 465.759 214.452 467.044C214.01 466.597 214.147 466.81 213.961 466.462C217.335 455.731 219.76 444.734 222.73 433.889L237.945 379.405L269.481 268.727C276.08 271.943 283.761 280.886 291.552 279.784C291.072 279.562 290.788 279.534 290.274 279.596C290.098 279.617 289.922 279.642 289.746 279.665L289.264 279.106L289.342 279.245C292.836 276.598 291.539 275.429 292.771 271.723C293.748 268.782 296.45 270.04 298.638 269.418C299.724 269.109 300.798 268.358 301.795 267.828C302.592 267.405 303.346 267.089 304.249 267.371C303.581 267.707 302.97 267.994 302.422 268.516L302.836 268.679C303.726 268.445 304.526 268.174 305.359 267.78L305.601 267.663Z" fill="#3D7ECD"/>
<path d="M213.961 466.462C217.335 455.731 219.76 444.734 222.73 433.889L237.945 379.405L269.481 268.727C276.08 271.943 283.761 280.886 291.552 279.784C294.318 279.786 297.526 280.103 300.239 279.671C302.32 279.34 293.35 281.165 295.5 281C292.765 282.129 294.815 282.321 291.94 282.461C291.8 282.468 291.66 282.481 291.519 282.489C291.435 282.494 291.35 282.496 291.266 282.5C290.329 287.67 289.473 292.882 288.349 298.015L265.21 399.097L256.243 437.602C255.364 441.302 250.844 457.078 251.4 459.744C251.766 459.902 252.097 460.037 252.483 460.143C239.827 462.451 227.245 465.759 214.452 467.044C214.01 466.597 214.147 466.81 213.961 466.462Z" fill="#3158B7"/>
<path d="M316.638 264.129C322.458 264.909 327.237 267.42 330.826 272.131C332.112 273.818 335.013 279.586 335.64 280.22C336.122 280.707 336.996 280.978 337.631 281.175L338.374 280.965L338.622 280.946C340.078 289.201 342.561 297.284 344.607 305.405C347.019 314.981 349.071 324.725 351.327 334.35L372.075 421.626C374.16 430.227 376.712 438.738 378.694 447.356C379.359 450.33 379.896 453.327 380.305 456.347C380.489 457.712 380.516 459.221 380.817 460.552C370.442 458.993 360.085 457.318 349.747 455.526C338.68 453.515 327.599 451.012 316.356 450.171L316.124 267.318C316.132 266.225 316.016 265.039 316.638 264.129Z" fill="#5BBFFC"/>
<path d="M162.602 542.012C222.681 542.667 282.903 542.133 343 542.146L421.144 542.172C436.934 542.179 452.86 542.406 468.631 542C468.259 556.284 468.631 576.5 466.168 585H164.5C162.602 574 162.11 556.297 162.602 542.012Z" fill="#2E57AB"/>
<path d="M263.193 261.724L235.532 253.517L232.5 252.5L229.5 250.5L402 250L377.5 261.724L364 275.5L339.134 284H289.345L269.731 271.69L263.193 261.724Z" fill="#2950B6"/>
<defs>
<linearGradient id="paint0_linear_4222_6997" x1="313.33" y1="251.065" x2="313.326" y2="279.202" gradientUnits="userSpaceOnUse">
<stop stop-color="#122869"/>
<stop offset="1" stop-color="#2950B6"/>
</linearGradient>
<linearGradient id="paint1_linear_4222_6997" x1="342.025" y1="256.698" x2="339.592" y2="280.614" gradientUnits="userSpaceOnUse">
<stop stop-color="#3052A7"/>
<stop offset="1" stop-color="#2671CE"/>
</linearGradient>
<linearGradient id="paint2_linear_4222_6997" x1="233.914" y1="479.018" x2="235.081" y2="504.885" gradientUnits="userSpaceOnUse">
<stop stop-color="#486DC9"/>
<stop offset="1" stop-color="#599BEA"/>
</linearGradient>
</defs>
</svg>