<svg xmlns:dc="http://purl.org/dc/elements/1.1/" xmlns:cc="http://creativecommons.org/ns#" xmlns:rdf="http://www.w3.org/1999/02/22-rdf-syntax-ns#" xmlns:svg="http://www.w3.org/2000/svg" xmlns="http://www.w3.org/2000/svg" xmlns:sodipodi="http://sodipodi.sourceforge.net/DTD/sodipodi-0.dtd" xmlns:inkscape="http://www.inkscape.org/namespaces/inkscape" id="svg2" version="1.1" inkscape:version="0.92.3 (2405546, 2018-03-11)" xml:space="preserve" sodipodi:docname="logo_no_subtext_white.svg" inkscape:export-filename="/home/martijn/Downloads/test.png" inkscape:export-xdpi="30" inkscape:export-ydpi="30" viewBox="0 0 143.79 143.8"><metadata id="metadata8"><rdf:RDF><cc:Work rdf:about=""><dc:format>image/svg+xml</dc:format><dc:type rdf:resource="http://purl.org/dc/dcmitype/StillImage"/><dc:title/></cc:Work></rdf:RDF></metadata><defs id="defs6"/><sodipodi:namedview pagecolor="#ffffff" bordercolor="#666666" borderopacity="1" objecttolerance="10" gridtolerance="10" guidetolerance="10" inkscape:pageopacity="0" inkscape:pageshadow="2" inkscape:window-width="1920" inkscape:window-height="1151" id="namedview4" showgrid="false" inkscape:zoom="1.2875561" inkscape:cx="373.81405" inkscape:cy="64.228485" inkscape:window-x="1920" inkscape:window-y="25" inkscape:window-maximized="1" inkscape:current-layer="g10" fit-margin-top="0" fit-margin-left="0" fit-margin-right="0" fit-margin-bottom="0" inkscape:pagecheckerboard="true"/><g inkscape:groupmode="layer" id="layer1" inkscape:label="transparent" style="display:inline"/><g id="g10" inkscape:groupmode="layer" inkscape:label="ink_ext_XXXXXX" transform="matrix(1.25,0,0,-1.25,0,152.91625)"><path inkscape:connector-curvature="0" id="path64" style="fill:#39bb8c;fill-opacity:1;fill-rule:evenodd;stroke:none" d="M 91.0195,18.057 C 81.5844,11.2859 70.016,7.29688 57.5172,7.29688 25.7512,7.29688 0,33.0492 0,64.8148 0,96.582 25.7512,122.333 57.5172,122.333 c 31.7664,0 57.5178,-25.751 57.5178,-57.5182 0,-4.8925 -0.823,-11.2539 -1.769,-14.1738 -3.061,-9.4414 -11.363,-14.2344 -26.4726,-13.9726 -1.4399,0.0254 -29.7793,0 -29.7793,0 -17.5895,0 -28.3946,12.3125 -28.3946,27.7656 0,15.4531 11.1825,27.5156 28.7715,27.5156 17.5895,0 29.1485,-12.0625 29.0227,-27.5156 l -14.5742,0.1152 c 0.1257,7.0332 -4.2715,14.3203 -14.5739,14.3203 -10.3027,0 -14.0715,-7.2871 -14.0715,-14.3203 0,-7.0371 4.6481,-13.8222 14.9508,-13.8222 0,0 36.5184,-1.5704 38.743,0 2.2242,1.5722 2.4422,9.1425 2.4422,14.0859 0,23.0937 -18.7207,41.8141 -41.8129,41.8141 -23.093,0 -41.8137,-18.7204 -41.8137,-41.8141 0,-23.0938 18.7207,-41.8125 41.8137,-41.8125 7.5621,0 14.6558,2.0059 20.7758,5.5176 10.1949,-8.152 12.7414,-10.4782 12.7265,-10.461" inkscape:export-filename="/home/martijn/workspace/djigzo-documentation/ciphermail-logo/path14.png" inkscape:export-xdpi="30.681381" inkscape:export-ydpi="30.681381"/></g></svg>