<svg version="1.1" id="Layer_1" xmlns="http://www.w3.org/2000/svg" xmlns:xlink="http://www.w3.org/1999/xlink" x="0px" y="0px" viewBox="0 0 358 111.3" style="enable-background:new 0 0 358 111.3;" xml:space="preserve">
 <style type="text/css">
  .st0{fill:#FFFFFF;}
 </style>
 <g>
  <path class="st0" d="M0,68.7c0-25.1,16.8-42.6,40.8-42.6c16.2,0,29.4,8.1,34.6,20.7c0.6,1.3,0.8,2.4,0.8,3.7c0,2.9-2.2,4.8-5.1,4.8
		c-2.2,0-4.1-1.3-5.1-3.8C62,41.2,52.6,35.3,40.8,35.3c-18,0-30.5,13.7-30.5,33.4c0,19.5,12.4,33.2,30.5,33.2
		c11.8,0,20.7-5.7,25.4-17.6c1-2.4,2.5-3.8,4.9-3.8c2.9,0,5.1,2.2,5.1,5.1c0,1.1-0.2,1.9-0.6,3.3c-5.1,13.7-18.1,22.4-34.8,22.4
		C16.7,111.3,0,93.8,0,68.7z">
  </path>
  <g>
   <path class="st0" d="M136.3,104.3c0,3.5-1.9,5.7-5.2,5.7c-3.3,0-5.1-2.2-5.1-5.7l0-98.6c0-3.7,1.9-5.7,5.2-5.7s5.1,2.1,5.1,5.7
			v22.4h17.8c3.2,0,5.1,1.7,5.1,4.6c0,2.9-1.9,4.6-5.1,4.6h-17.8L136.3,104.3z">
   </path>
  </g>
  <path class="st0" d="M215.9,33.7c0,2.9-2.1,4.9-5.1,4.9c-1.1,0-2.2-0.3-3.8-1.1c-2.4-1.1-4.9-1.7-8.3-1.7c-11,0-18.1,9.5-18.1,21.6
		v46.9c0,3.6-1.7,5.7-5.1,5.7s-5.2-2.1-5.2-5.7V33.1c0-3.7,1.9-5.7,5.2-5.7s5.1,2.1,5.1,5.7v2.1c4.5-5.9,11.4-9.1,19.2-9.1
		c6,0,10.3,1.3,13.3,3.2C214.9,30.4,215.9,31.8,215.9,33.7z">
  </path>
  <path class="st0" d="M226.4,33.1c0-3.7,1.9-5.7,5.2-5.7s5.1,2.1,5.1,5.7v71.2c0,3.5-1.9,5.7-5.2,5.7c-3.3,0-5.1-2.2-5.1-5.7V33.1z">
  </path>
  <g>
   <path class="st0" d="M94.4,33.1c0-3.7,1.9-5.7,5.2-5.7s5.1,2.1,5.1,5.7v71.2c0,3.5-1.9,5.7-5.2,5.7c-3.3,0-5.1-2.2-5.1-5.7V33.1z">
   </path>
   <circle class="st0" cx="99.6" cy="8.1" r="8.1">
   </circle>
  </g>
  <path class="st0" d="M290.4,75l-28.1,32.9c-1.1,1.4-2.5,2.1-4.1,2.1c-2.9,0-4.9-2.2-4.9-4.8c0-1.1,0.3-2.4,1.4-3.7l29.4-33.2
		L255.8,36c-1.1-1.3-1.7-2.4-1.7-3.8c0-2.5,2.1-4.8,5.1-4.8c1.6,0,2.7,0.6,4,2.1l27.3,32.1l27.3-32.1c1.3-1.4,2.4-2.1,4-2.1
		c3,0,5.1,2.2,5.1,4.8c0,1.4-0.6,2.5-1.7,3.8l-28.3,32.4l29.4,33.2c1.1,1.3,1.4,2.5,1.4,3.7c0,2.5-2.1,4.8-4.9,4.8
		c-1.6,0-3-0.6-4.1-2.1L290.4,75z">
  </path>
  <g>
   <path class="st0" d="M347.3,101.3h-3v7.9h-1.2v-7.9h-3v-0.9h7.2V101.3z M358,100.4v8.8h-1.2v-5.6l0.1-1.7h0l-0.2,0.7l-2.7,6.6H353
			l-2.7-6.6L350,102h0l0.1,1.7v5.6H349v-8.8h1.5l2.6,6.3l0.4,1.1h0l0.4-1.1l2.7-6.3H358z">
   </path>
  </g>
  <circle class="st0" cx="290.4" cy="8.1" r="8.1">
  </circle>
 </g>
</svg>