<svg xmlns="http://www.w3.org/2000/svg" xmlns:xlink="http://www.w3.org/1999/xlink" version="1.1" id="Layer_1" x="0px" y="0px" enable-background="new 0 0 209 181" xml:space="preserve" viewBox="19.48 10.46 152.87 152.04"><g><radialGradient id="SVGID_1_" cx="1459.7881" cy="784.5996" r="220.3186" fx="1459.7081" fy="597.5968" gradientTransform="matrix(0.3317 0 0 0.3317 -388.2039 -173.9325)" gradientUnits="userSpaceOnUse"><stop offset="0.2" style="stop-color:#E03C3B"/><stop offset="0.652" style="stop-color:#E03C3B"/><stop offset="0.722" style="stop-color:#DD3C3B"/><stop offset="0.775" style="stop-color:#D33B3A"/><stop offset="0.822" style="stop-color:#C33938"/><stop offset="0.866" style="stop-color:#AC3736"/><stop offset="0.908" style="stop-color:#8E3434"/><stop offset="0.949" style="stop-color:#6A3030"/><stop offset="0.987" style="stop-color:#3F2C2C"/><stop offset="1" style="stop-color:#2F2A2B"/></radialGradient><path fill="url(#SVGID_1_)" d="M24.239,90.006c0-39.674,32.164-71.836,71.836-71.836c39.673,0,71.836,32.162,71.836,71.836 c0,39.674-32.162,71.836-71.836,71.836C56.405,161.842,24.239,129.682,24.239,90.006z"/><path fill="#232323" d="M43.887,108.732c-1.199-7.593,1.846-12.896,4.862-15.854c1.369-1.342,2.987-2.572,4.442-2.52 c2.148-0.167,13.354,7.999,28.322,17.122c7.79,5.631,11.433,6.314,11.411,8.805v-0.393c-0.981,6.258-6.126,13.838-13.265,15.605 C62.478,136.689,47.455,125.93,43.887,108.732L43.887,108.732z"/><path fill="#232323" d="M96.074,162.502c-19.365,0-37.571-7.54-51.265-21.234c-13.694-13.693-21.236-31.899-21.236-51.265 c0-19.364,7.541-37.57,21.235-51.265c13.693-13.693,31.899-21.235,51.265-21.235c19.366,0,37.57,7.541,51.265,21.235 c13.693,13.692,21.235,31.898,21.235,51.265s-7.542,37.573-21.235,51.265C133.645,154.961,115.438,162.502,96.074,162.502 L96.074,162.502z M96.074,18.83c-39.246,0-71.173,31.928-71.173,71.173c0,39.246,31.927,71.173,71.173,71.173 c19.011,0,36.883-7.402,50.325-20.846s20.847-31.316,20.847-50.326c0-39.246-31.929-71.173-71.173-71.173L96.074,18.83z"/><path fill="#232323" d="M148.264,108.732c1.199-7.593-1.846-12.896-4.862-15.854c-1.369-1.342-2.987-2.572-4.442-2.52 c-2.148-0.167-13.354,7.999-28.322,17.122c-7.789,5.631-11.432,6.314-11.411,8.805v-0.393c0.981,6.258,6.127,13.838,13.265,15.605 C129.672,136.689,144.695,125.93,148.264,108.732L148.264,108.732z"/><path fill="#FFFFFF" d="M101.404,114.167c-1.256,0.675-1.501,1.278-1.105,2.626c1.041,3.563,2.581,6.371,4.555,8.527 c4.779,5.222,12.098,6.623,21.049,5.637c7.629-1.236,11.338-3.568,17.03-10.646c2.503-4.976,5.804-12.081,2.054-20.343 c-1.043-2.3-2.671-4.186-4.578-5.834c-0.707-0.609-1.273-0.639-2.089-0.187c-3.485,1.946-30.073,16.544-36.913,20.219H101.404z"/><path fill="#DADADA" d="M126.408,123.293c-12.236,3.579-23.719-0.9-23.719-0.9s5.373,9.535,18.559,9.472 c15.168-1.169,21.056-9.581,23.668-15.069c2.609-5.489,1.905-10.553,1.484-12.482C145.979,102.381,144.377,118.142,126.408,123.293 z"/><path fill="#FFFFFF" d="M90.905,114.167c1.256,0.675,1.501,1.278,1.107,2.626c-1.042,3.563-2.582,6.371-4.555,8.527 c-4.779,5.222-12.098,6.623-21.048,5.637c-7.629-1.236-11.338-3.568-17.031-10.646c-2.504-4.976-5.804-12.081-2.055-20.343 c1.045-2.3,2.671-4.186,4.579-5.834c0.707-0.609,1.273-0.639,2.088-0.187c3.487,1.946,30.074,16.544,36.914,20.219H90.905z"/><path fill="#DADADA" d="M65.905,123.293c12.236,3.579,23.718-0.9,23.718-0.9s-5.372,9.535-18.558,9.472 c-15.167-1.169-21.056-9.581-23.667-15.069c-2.61-5.489-1.907-10.553-1.484-12.482C46.334,102.381,47.937,118.142,65.905,123.293 L65.905,123.293z"/><path fill="#020202" d="M125.064,114.441c1.535,7.05,1.311,15.639,1.311,15.639c0.008,0.439,0.008,0.439,0.311,1.422 c2.238-4.229,3.486-8.68,3.957-13.35c0.607-6.021-0.279-10.992-3.117-18.295c-1.889-3.441-3.779-6.852-6.441-9.813 c-4.033-4.488-5.771-3.136-10.41-0.569c-0.449,0.339-1.364,1.24-1.364,1.24C114.377,93.949,121.508,99.135,125.064,114.441z"/><path fill="#E03A36" d="M52.618,64.362c2.181-1.38,4.529-3.885,5.903-8.007c2.082-6.64,0.361-9.791,0.361-9.791 s-1.853,1.447-6.625,0.054c-4.969-1.452-7.208-1.7-16.037-10.321C25.912,25.801,21.004,14.309,21.004,14.309s0,2.992,0.402,5.986 c0,0,2.167,13.15,11.485,25.115c6.06,7.781,12.333,12.736,15.143,14.478C51.405,61.976,52.618,62.459,52.618,64.362"/><path fill="#232323" d="M21.408,20.296c-0.194-1.991-0.328-3.987-0.402-5.986c5.908,12.803,15.89,24.14,24.266,29.614 c2.171,1.418,4.833,2.152,6.987,2.695c4.75,1.197,6.591,0.209,7.018-0.492c0.39-0.641,0.308-1.508-0.246-2.579 c-0.711-1.375-2.019-2.042-4-2.042c-1.578,0-3.387,0.436-4.987,0.806c-3.39,0.784-3.814,0.369-3.814,0.369 c-7.356-4.799-17.64-14.057-24.912-30.928c-0.458-1.063-0.597-1.382-1.158-1.268c-0.561,0.113-0.538,0.675-0.538,0.675 c-0.78,8.043,1.383,30.677,13.496,48.037c0.81,1.161,1.479,2.071,1.777,2.905c1.033,2.887-0.724,5.975-0.724,5.975 c-2.141,4.293-0.54,14.038,3.615,14.366c2.411,0.19,3.892-3.653,5.032-5.429c1.139-1.776,5.151-6.376,7.618-9.048 c2.466-2.672,3.146-4.496,0.519-6.331c-1.549-1.083-2.918-1.746-2.918-1.746s-7.645-4.638-15.4-14.797 C23.575,33.221,21.408,20.295,21.408,20.296L21.408,20.296z"/><path fill="#E03A36" d="M139.214,64.362c-2.181-1.38-4.528-3.885-5.903-8.007c-2.082-6.64-0.361-9.791-0.361-9.791 s1.854,1.447,6.625,0.054c4.969-1.452,7.209-1.7,16.037-10.321c10.309-10.496,15.217-21.987,15.217-21.987s0,2.992-0.402,5.986 c0,0-2.167,13.15-11.485,25.115c-6.06,7.781-12.333,12.736-15.144,14.478C140.427,61.976,139.214,62.459,139.214,64.362"/><path fill="#232323" d="M170.425,20.296c0.193-1.991,0.327-3.987,0.401-5.986c-5.908,12.803-15.89,24.14-24.267,29.614 c-2.171,1.418-4.833,2.152-6.985,2.695c-4.751,1.197-6.592,0.209-7.019-0.492c-0.39-0.641-0.308-1.508,0.245-2.579 c0.711-1.375,2.02-2.042,4-2.042c1.578,0,3.387,0.436,4.987,0.806c3.39,0.784,3.814,0.369,3.814,0.369 c7.356-4.799,17.641-14.057,24.912-30.927c0.459-1.063,0.597-1.382,1.158-1.269c0.561,0.113,0.538,0.676,0.538,0.676 c0.778,8.043-1.384,30.677-13.496,48.037c-0.811,1.161-1.479,2.07-1.777,2.905c-1.033,2.887,0.725,5.975,0.725,5.975 c2.141,4.293,0.54,14.038-3.615,14.366c-2.41,0.19-3.893-3.652-5.031-5.429c-1.14-1.776-5.151-6.376-7.619-9.048 c-2.467-2.672-3.146-4.496-0.518-6.332c1.549-1.083,2.917-1.746,2.917-1.746s7.646-4.638,15.401-14.797 C168.258,33.221,170.425,20.295,170.425,20.296L170.425,20.296z"/><path fill="#020202" d="M67.083,114.441c-1.534,7.05-1.311,15.639-1.311,15.639c-0.007,0.439-0.007,0.439-0.31,1.422 c-2.237-4.229-3.486-8.68-3.956-13.35c-0.606-6.021,0.28-10.992,3.118-18.295c1.888-3.441,3.778-6.852,6.441-9.813 c4.034-4.488,5.771-3.136,10.412-0.569c0.449,0.339,1.364,1.24,1.364,1.24C77.771,93.949,70.639,99.135,67.083,114.441z"/></g></svg>