<svg xmlns="http://www.w3.org/2000/svg" viewBox="0 6.8 16.79 15.21"><path fill="#006ad0" d="M15.676 13.634a4.96 4.96 0 0 0-2.363-1.649v-.06c0-2.823-2.208-5.124-4.93-5.124-2.724 0-4.933 2.296-4.933 5.125v.07C1.456 12.649 0 14.591 0 16.882c0 2.823 2.21 5.125 4.932 5.125a4.83 4.83 0 0 0 3.465-1.475 4.82 4.82 0 0 0 3.461 1.475c2.717 0 4.933-2.296 4.933-5.125 0-1.18-.4-2.334-1.115-3.248m-3.818 7.077c-2.031 0-3.685-1.718-3.685-3.83a.637.637 0 0 0-.623-.646.634.634 0 0 0-.624.647c0 .957.257 1.855.696 2.622a3.6 3.6 0 0 1-2.69 1.213c-2.032 0-3.687-1.719-3.687-3.83s1.655-3.829 3.687-3.829c.44 0 .868.082 1.278.234.005 0 .009.005.014.005.142.05.342.147.404.201a.6.6 0 0 0 .874-.07.66.66 0 0 0-.068-.91c-.272-.239-.696-.402-.8-.44a4.8 4.8 0 0 0-1.697-.31q-.118-.001-.236.005c.084-2.04 1.702-3.671 3.687-3.671 2.031 0 3.685 1.718 3.685 3.83a3.9 3.9 0 0 1-1.55 3.122.663.663 0 0 0-.147.898c.12.174.315.272.509.272.125 0 .25-.038.361-.12a5.16 5.16 0 0 0 1.895-2.812c1.424.549 2.413 1.979 2.413 3.595-.005 2.106-1.659 3.824-3.696 3.824"/></svg>