<svg xmlns="http://www.w3.org/2000/svg" xml:space="preserve" viewBox="6.09 71.33 347.93 216.83"><path fill="#fff" d="M174 81.741v27.509C161.913 104 133.5 93.5 109.789 94.6c-23.859 1.107-42.172 7.301-54.859 21.902q-19.033 21.903-19.033 63.326 0 41.285 19.033 63.186 19.031 21.903 54.859 21.901c12.127 0 41.461-5.665 64.211-19.115v29.528c-8.75 2.672-33.75 12.422-65.891 12.818-31.625.39-56.538-9.678-74.731-29.039q-27.29-29.036-27.29-79.28 0-50.38 27.29-79.42c18.193-19.358 43.113-28.252 74.731-29.039C133 70.75 155.808 77.431 174 81.741m167.423.264v27.569q-16.094-7.696-30.368-11.476c-14.274-3.78-18.707-3.778-27.569-3.778q-23.093.001-35.616 8.957-12.527 8.958-12.525 25.47-.001 13.856 8.327 20.922 8.325 7.069 31.558 11.406l17.073 3.499q31.627 6.02 46.673 21.202 15.042 15.186 15.044 40.654 0 30.37-20.362 46.043-20.363 15.674-59.688 15.674-14.835 0-31.558-3.358-16.724-3.358-34.637-9.937v-29.109q17.213 9.657 33.727 14.555 16.513 4.9 32.468 4.898 24.21.001 37.366-9.517 13.154-9.517 13.155-27.149 0-15.392-9.447-24.071-9.447-8.675-30.998-13.015l-17.213-3.358q-31.63-6.298-45.763-19.733-14.136-13.435-14.135-37.366 0-27.709 19.522-43.664 19.521-15.954 53.81-15.954 14.694.001 29.948 2.659 15.253 2.66 31.208 7.977"/><path fill="#fff" d="M86.199 153.037q0-4.47 3.074-7.544 3.072-3.072 7.544-3.073 4.55 0 7.584 3.034t3.034 7.584c0 4.55-1.012 5.563-3.034 7.584q-3.035 3.034-7.584 3.034-4.472 0-7.544-3.074-3.075-3.073-3.074-7.545m0 52.052q0-4.47 3.074-7.584 3.072-3.113 7.544-3.113 4.47 0 7.544 3.113t3.074 7.584-3.034 7.545q-3.034 3.072-7.584 3.073c-4.55.001-5.562-1.025-7.584-3.073q-3.035-3.073-3.034-7.545m54.936-52.052q0-4.47 3.074-7.544 3.072-3.072 7.544-3.073 4.55 0 7.584 3.034t3.034 7.584c0 4.55-1.012 5.563-3.034 7.584q-3.035 3.034-7.584 3.034-4.472 0-7.544-3.074-3.075-3.073-3.074-7.545m0 52.052q0-4.47 3.074-7.584 3.072-3.113 7.544-3.113 4.47 0 7.544 3.113t3.074 7.584-3.034 7.545q-3.034 3.072-7.584 3.073c-4.55.001-5.563-1.025-7.584-3.073q-3.034-3.073-3.034-7.545"/></svg>