<svg xmlns="http://www.w3.org/2000/svg" class="transform-gpu" overflow="visible" fill="none" viewBox="0.87 0.68 43.35 20">
  <path d="M13.323 0.679688C20.534 0.679688 24.5771 4.05833 24.7136 9.03125L18.4861 9.21973C18.322 6.46321 15.8495 4.65298 13.323 4.70703C9.85421 4.77471 7.28687 7.0582 7.28687 10.6797C7.28692 14.3011 9.85425 16.5438 13.323 16.5439C15.8496 16.5439 18.2676 14.8143 18.5408 12.0576L24.7683 12.1934C24.6043 17.2472 20.3153 20.6797 13.323 20.6797C6.3307 20.6796 0.867989 16.7606 0.86792 10.6797C0.86792 4.57172 6.11215 0.679781 13.323 0.679688Z" fill="#000"/>
  <path id="cursor" class="!origin-bottom [transform:translateY(0%)_scaleY(1)_scaleX(1)]" d="M44.2228 1.21875V20.1377H27.8341V1.21875H44.2228Z" fill="#000"/>
</svg>