<svg xmlns="http://www.w3.org/2000/svg" xml:space="preserve" width="146.25" height="67.214"><g style="stroke:none;stroke-width:1.26897"><path d="m2.099 16.566 1.02-1.027 16.972 17.082L3.12 49.703 2.1 48.674l15.95-16.053Z" style="fill:#fff;stroke:none;stroke-width:1.26898px;stroke-linecap:butt;stroke-linejoin:miter;stroke-opacity:1" transform="matrix(.79058 0 0 .7855 7.69 7.984)"/><path d="M-49.05 19.441v25.221l12.61-12.61Z" style="fill:#c8c8c8;fill-opacity:1;stroke:none;stroke-width:1px;stroke-linecap:butt;stroke-linejoin:miter;stroke-opacity:1" transform="translate(58.4 1.555)"/><path d="m-37.621 8.01-10.623 10.625 13.418 13.418-13.418 13.418 10.623 10.623 24.043-24.041Z" style="fill:#5c2983;fill-opacity:1;stroke:none;stroke-width:6.00001;stroke-linejoin:round;paint-order:stroke fill markers" transform="translate(58.4 1.555)"/><path d="m-38.115 35.342-8.874 8.866 13.09-2.89z" style="fill:#2d0b47;fill-opacity:1;stroke:none;stroke-width:1.68107" transform="translate(58.4 1.555)"/></g><g style="fill:#5c2983;fill-opacity:1"><g style="font-size:17.9798px;line-height:1.25;font-family:&quot;Segoe UI&quot;;-inkscape-font-specification:&quot;Segoe UI&quot;;letter-spacing:0;word-spacing:0;fill:#5c2983;fill-opacity:1;stroke-width:1"><path d="M59.367 36.434q1.097 0 1.888-.36.79-.377 1.654-1.186l1.366 1.402q-1.995 2.212-4.854 2.212-2.841 0-4.729-1.834-1.87-1.834-1.87-4.639t1.906-4.675q1.924-1.87 4.837-1.87 2.93 0 4.89 2.158l-1.348 1.474q-.9-.863-1.708-1.204-.792-.342-1.87-.342-1.906 0-3.2 1.24-1.295 1.223-1.295 3.147 0 1.906 1.276 3.2 1.295 1.277 3.057 1.277m9.169-.594q.863.864 2.176.864t2.158-.863q.863-.881.863-2.266 0-1.384-.863-2.247-.845-.881-2.158-.881t-2.176.88q-.845.864-.845 2.248t.845 2.266m5.772 1.241q-1.438 1.42-3.596 1.42t-3.596-1.42q-1.438-1.438-1.438-3.506t1.438-3.488q1.438-1.438 3.596-1.438t3.596 1.438q1.438 1.42 1.438 3.488t-1.438 3.506m5.735 1.276H78.03V25.017h2.013zm4.927 0h-2.014V25.017h2.014zm10.662 0h-1.834v-1.277q-1.187 1.42-3.182 1.42-1.493 0-2.482-.844-.97-.845-.97-2.248 0-1.42 1.042-2.121t2.823-.701h2.607v-.36q0-1.906-2.121-1.906-1.331 0-2.77.971l-.898-1.259q1.744-1.384 3.955-1.384 1.69 0 2.751.863 1.079.845 1.079 2.679zm-2.014-3.56v-.81h-2.265q-2.176 0-2.176 1.367 0 .702.54 1.08.539.359 1.492.359.97 0 1.69-.54.72-.539.72-1.456m9.942-6.149q1.924 0 3.29 1.33t1.367 3.542-1.367 3.596q-1.348 1.385-3.164 1.385-1.798 0-3.237-1.582v1.438h-2.013V25.017h2.013v5.448q1.187-1.816 3.111-1.816m-3.146 4.944q0 1.367.827 2.248.827.863 2.013.863 1.187 0 2.068-.863t.881-2.23q0-1.384-.863-2.283-.863-.917-2.068-.917-1.204 0-2.031.917-.827.899-.827 2.265m12.334 2.247q.863.864 2.175.864 1.313 0 2.158-.863.863-.881.863-2.266 0-1.384-.863-2.247-.845-.881-2.158-.881t-2.175.88q-.845.864-.845 2.248t.845 2.266m5.771 1.241q-1.438 1.42-3.596 1.42-2.157 0-3.596-1.42-1.438-1.438-1.438-3.506t1.438-3.488q1.439-1.438 3.596-1.438t3.596 1.438q1.439 1.42 1.439 3.488t-1.439 3.506m8.738-6.402q-1.492 0-2.247.972-.755.97-.755 2.607v4.099h-2.014v-9.565h2.014v1.924q.485-.9 1.312-1.475.845-.575 1.78-.593l.018 2.032zm9.782 7.678h-1.835v-1.277q-1.186 1.42-3.182 1.42-1.492 0-2.481-.844-.971-.845-.971-2.248 0-1.42 1.043-2.121t2.822-.701h2.608v-.36q0-1.906-2.122-1.906-1.33 0-2.769.971l-.899-1.259q1.744-1.384 3.956-1.384 1.69 0 2.75.863 1.08.845 1.08 2.679zm-2.014-3.56v-.81h-2.266q-2.175 0-2.175 1.367 0 .702.539 1.08.54.359 1.492.359.971 0 1.69-.54.72-.539.72-1.456" aria-label="Collabora" style="font-style:normal;font-variant:normal;font-weight:400;font-stretch:normal;font-family:Montserrat;-inkscape-font-specification:Montserrat;fill:#5c2983;fill-opacity:1;stroke-width:1" transform="translate(0 -7.81)"/></g><g style="font-size:17.9798px;line-height:1.25;font-family:&quot;Segoe UI&quot;;-inkscape-font-specification:&quot;Segoe UI&quot;;letter-spacing:0;word-spacing:0;fill:#5c2983;fill-opacity:1;stroke-width:1"><path d="M62.585 48.072q-1.276-1.33-3.146-1.33t-3.165 1.33q-1.276 1.33-1.276 3.237 0 1.888 1.276 3.218 1.295 1.33 3.165 1.33t3.146-1.33q1.295-1.33 1.295-3.218 0-1.906-1.295-3.237m1.564 7.876q-1.905 1.851-4.71 1.851t-4.711-1.851q-1.906-1.87-1.906-4.64 0-2.786 1.906-4.638 1.906-1.87 4.71-1.87 2.806 0 4.711 1.87 1.906 1.852 1.906 4.639 0 2.769-1.906 4.639m6.221-3.453v5.179h-2.013v-9.566h2.013v1.744q.486-.88 1.33-1.384.864-.503 1.853-.503 1.618 0 2.607.988 1.007.99 1.007 2.86v5.86h-2.014v-5.25q0-2.643-2.194-2.643-1.042 0-1.815.702-.774.683-.774 2.013m11.615 5.179h-2.013V44.333h2.013zm4.927 0h-2.014v-9.566h2.014zm-1.888-11.472q-.378-.377-.378-.898 0-.522.378-.9.377-.377.899-.377.521 0 .899.378.377.377.377.899 0 .52-.377.898-.378.378-.9.378-.52 0-.898-.378m6.814 6.293v5.179h-2.014v-9.566h2.014v1.744q.486-.88 1.33-1.384.864-.503 1.853-.503 1.618 0 2.607.988 1.007.99 1.007 2.86v5.86H96.62v-5.25q0-2.643-2.194-2.643-1.043 0-1.816.702-.773.683-.773 2.013m18.503 1.277h-7.498q.072 1.043.953 1.69.88.63 2.014.63 1.797 0 2.732-1.133l1.151 1.258q-1.546 1.6-4.027 1.6-2.014 0-3.434-1.33-1.403-1.349-1.403-3.596 0-2.265 1.438-3.596 1.439-1.33 3.38-1.33 1.96 0 3.327 1.186 1.366 1.169 1.366 3.237zm-7.498-1.582h5.484q0-1.205-.755-1.852-.756-.647-1.87-.647-1.097 0-1.978.683-.881.665-.881 1.816" aria-label="Online" style="font-style:normal;font-variant:normal;font-weight:400;font-stretch:normal;font-family:Montserrat;-inkscape-font-specification:Montserrat;fill:#5c2983;fill-opacity:1;stroke-width:1" transform="translate(0 -7.81)"/></g></g></svg>