<svg xmlns="http://www.w3.org/2000/svg" xml:space="preserve" viewBox="0 0 512 512"><circle xmlns:name="monogram_container_inversefill" cx="121.2" cy="121.2" r="121.2" style="fill:#fff" transform="scale(2.113)"/><path xmlns:name="monogram_symbolfill" d="M169.5 247.4v1.1c-.4.7-.4 1.5-.4 2.2 0 1.1.4 1.8.4 2.5v2.5s0 1.5.4 2.5c0 .7 0 1.5.4 2.5 0 .7 0 1.5.4 1.8 0 1.1.4 1.8.4 2.5s.4 1.5.7 2.2c.4 1.5.7 2.9 1.1 4.7l1.1 2.2c0 .7.4 1.1.7 1.8.4 1.5 1.1 2.9 1.8 4.4.4.7.7 1.5 1.5 2.5.4.7.7 1.5 1.1 1.8.7 1.5 1.8 2.9 2.5 4.4l1.5 1.5c.4.7.7 1.5 1.1 1.8 1.1 1.1 2.2 2.5 3.3 3.6l3.3 3.3c1.5 1.5 2.5 2.2 4 3.3 1.1 1.1 2.2 2.2 3.6 2.9 2.5 1.8 5.1 3.6 8 4.7.7.4 1.5.7 1.8 1.1 1.1.4 1.8.7 2.9 1.1.7.4 1.1.4 1.8.7.7.4 1.5.7 2.2.7 1.8.7 3.3 1.1 4.7 1.5 1.5.4 3.3.7 4.7 1.1 1.5.4 3.3.4 4.7.7 1.5 0 2.9.4 4.4.4h5.1c1.5 0 3.3 0 5.1-.4 2.9-.4 6.2-.7 9.1-1.5 2.9-.7 5.8-1.8 8.7-2.9.7-.4 1.5-.4 2.2-.7s1.5-.7 2.5-1.1h24c-.4 0-.7.4-.7.7-.4 0-.7.4-1.1.7-2.2 1.8-4.7 3.6-7.3 5.5-1.1.7-2.5 1.5-4 2.2-1.5 1.1-2.9 1.8-4.4 2.5-.4.4-1.1.4-1.8.7l-2.2 1.1c-1.5.7-2.9 1.1-4.4 1.8-1.5.4-2.9 1.1-4.4 1.5-1.1.4-1.8.4-2.5.7-.7 0-1.5.4-2.2.4-.7.4-1.5.4-2.5.7h-.8c-.7.4-1.1.4-1.8.4-1.5.4-2.9.4-4.7.7-2.9.4-6.2.4-9.5.4h-4.4c-1.5 0-3.3-.4-4.7-.4-1.8-.4-3.3-.7-5.1-.7l-4.4-1.1c-1.8-.4-3.3-1.1-5.1-1.5-1.1-.4-2.5-1.1-4-1.5-2.9-1.1-5.8-2.5-8.7-3.6-1.5-.7-2.9-1.5-4-2.5-1.5-.7-2.9-1.5-4-2.5-.7-.4-1.5-.7-1.8-1.1-.7-.4-1.5-1.1-1.8-1.5-.7-.4-1.1-.7-1.8-1.1l-1.8-1.8c-2.5-1.8-4.7-4-6.9-6.5-.4-.4-1.1-1.1-1.5-1.8-.7-.4-1.1-1.1-1.8-1.8-1.1-1.1-1.8-2.5-2.9-3.6-.4-.7-1.1-1.5-1.5-2.2s-.7-1.1-1.1-1.8c-.4-.4-.7-1.1-1.1-1.8-.7-.7-1.1-1.5-1.5-2.2-.7-1.5-1.5-2.5-2.2-4s-1.5-2.9-1.8-4.4c-.7-1.8-1.5-3.3-1.8-4.7-.4-.7-.7-1.5-.7-2.2-.4-.7-.4-1.5-.7-2.2-.4-1.5-.7-2.9-1.1-4.7l-1.1-4.4c0-.7 0-1.5-.4-2.2v-1.5s-.4-.7-.4-1.1V254c-.4-3.3-.4-6.5 0-9.8s.7-6.2 1.1-9.5l1.1-4.4s1.1-3.3 1.5-4.7c0-.7.4-1.1.7-1.8.4-1.1.4-1.8.7-2.5.7-1.5 1.1-2.9 1.8-4l2.2-4.4c.4-.7.7-1.8 1.1-2.5s.7-1.5 1.5-1.8l1.1-2.2s.7-1.1 1.1-1.8 1.1-1.5 1.5-2.2c.7-.4 1.1-1.1 1.5-1.8 1.8-2.5 4-4.7 6.2-6.9 1.1-1.1 2.2-2.5 3.6-3.3 1.1-1.1 2.2-2.2 3.6-3.3.4-.4 1.1-.7 1.8-1.5.4-.4 1.1-.7 1.5-1.1.7-.4 1.5-1.1 2.2-1.5.4-.4 1.1-.7 1.8-1.1 2.5-1.8 5.5-3.3 8.4-4.7l2.2-1.1c.4 0 1.1-.4 1.8-.7 1.5-.7 3.3-1.1 4.7-1.8 1.5-.4 2.9-1.1 4.7-1.5.7 0 1.5-.4 2.2-.4.7-.4 1.5-.4 2.2-.7 1.5-.4 2.9-.7 4.7-.7.7 0 1.5-.4 2.2-.4 1.1 0 1.8-.4 2.5-.4 3.3-.4 6.2-.4 9.5-.4 1.8 0 3.3.4 5.1.4 1.5 0 3.3.4 4.7.7 1.5 0 2.9.4 4.4.7 1.1 0 1.8.4 2.5.4.7.4 1.5.4 2.2.4 2.9 1.1 5.8 1.8 8.7 2.9.7.4 1.8.7 2.5 1.1l2.2 1.1s1.5.7 1.8 1.1l6.5 3.3c1.1.7 2.5 1.8 3.6 2.5.7.4 1.5 1.1 1.8 1.5.4 0 .7.4 1.1.7.4 0 .7.4.7.7.7.4 1.5.7 1.8 1.1.7.7 1.5 1.1 1.8 1.8h-23.6c-.4 0-.4 0-.7-.4-1.5-.4-2.9-1.1-4.4-1.8-.7-.4-1.5-.7-2.5-.7-.7-.4-1.5-.7-2.2-.7-1.5-.7-2.9-1.1-4.4-1.5s-3.3-.4-4.7-.7c-3.3-.7-6.5-.7-9.8-1.1-2.9 0-6.2 0-9.1.7-3.3.4-6.5.7-9.5 1.8-1.8.4-3.3.7-4.7 1.5-.7 0-1.5.4-2.2.7-.7 0-1.1.4-1.8.7-1.1.4-1.8.7-2.9 1.1-.4.4-1.1.7-1.8 1.1-1.5.7-2.9 1.5-4.4 2.5-1.1.7-2.5 1.5-3.6 2.2-1.1 1.1-2.5 1.8-3.6 2.9-.7.4-1.1 1.1-1.8 1.5-.7.7-1.5 1.1-1.8 1.8-1.5 1.1-2.5 2.2-3.6 3.6-1.1 1.1-1.8 2.2-2.9 3.3-.4.7-.7 1.1-1.5 1.8-.4.7-.7 1.1-1.5 1.8l-1.1 2.2c-.4.4-.7 1.1-1.1 1.8s-1.1 1.1-1.5 1.8c-.4 1.1-.7 1.8-1.1 2.9-.4.4-.7 1.1-.7 1.5-.4.7-1.1 1.5-1.1 2.5-.7 1.5-1.5 2.9-1.8 4.4-.4 1.5-1.1 2.9-1.5 4.7 0 .7-.4 1.1-.4 1.8-.4.7-.4 1.8-.4 2.5-.4.7-.4 1.5-.4 2.2-.4 1.1-.4 1.8-.4 2.5zM309.1 311h48s-.4.7-.4 1.1c-.7 1.1-1.5 2.5-2.2 3.6-.7 1.5-1.5 2.9-2.2 4-.4.7-1.1 1.5-1.5 2.2-.4.4-.7 1.1-1.1 1.8s-.7 1.1-1.1 1.8c-.7.7-1.1 1.1-1.5 1.8s-.7 1.5-1.5 1.8c0 .4-.4.7-.4 1.1-.4 0-.4.4-.4.4l-.4.4c0 .4-.4.4-.4.4 0 .4-.4.4-.4.7l-.7.7c-.4.7-1.1 1.5-1.5 2.2-2.2 2.2-4 4.7-6.2 6.9-1.1 1.1-2.2 2.2-2.9 3.3-1.5 1.1-2.5 2.2-4 3.6-2.2 1.8-4.4 4-6.9 5.8-2.2 1.8-4.7 4-7.3 5.5-.7.7-1.8 1.5-2.5 2.2-.4 0-1.1.4-1.5.7-1.5 1.1-2.9 1.8-4.4 2.9-2.9 1.5-5.8 3.3-8.7 4.7-2.9 1.5-5.8 2.5-8.7 4-2.5 1.1-5.5 2.2-8.4 3.3-2.9.7-6.2 1.8-9.1 2.5-1.8.4-3.3.7-5.1 1.5-.7 0-1.5.4-2.2.4-1.1 0-1.8.4-2.9.4-2.9.7-6.2 1.1-9.5 1.5-2.9.4-6.2.7-9.1.7-3.3.4-6.2.4-9.5.4-1.5-.4-3.3-.4-4.7-.4-1.8 0-3.6-.4-5.5-.4-.7 0-1.5-.4-2.2-.4s-1.8-.4-2.5-.4c-1.8 0-3.3-.4-5.1-.7-2.9-.4-6.2-1.1-9.1-1.8s-5.8-1.8-8.7-2.5c-1.5-.7-2.9-1.1-4.4-1.5-1.8-.7-3.3-1.5-4.7-1.8-1.5-.7-3.3-1.5-4.7-2.2-.7-.4-1.5-.4-1.8-.7-1.1-.7-1.8-1.1-2.9-1.5-2.9-1.5-5.5-2.9-8.4-4.4-2.5-1.8-5.1-3.3-7.6-5.1l-7.6-5.5c-1.1-1.1-2.5-2.2-4-3.3-1.1-1.1-2.2-2.2-3.6-3.3-1.1-1.1-2.5-2.2-3.6-3.6-1.1-.7-1.8-1.8-2.9-2.9-2.2-2.2-4.4-4.7-6.2-6.9-1.1-1.5-2.2-2.5-2.9-3.6-1.1-1.1-1.8-2.5-2.9-3.6-.7-1.1-1.5-2.5-2.5-4-.4-.4-.7-1.1-1.1-1.8s-1.1-1.5-1.5-2.2c-.7-1.1-1.5-2.2-2.2-3.6-.4-.7-.7-1.1-1.1-1.8s-.7-1.5-1.1-1.8c-1.5-2.9-2.9-5.8-4-8.4l-1.1-2.2c0-.7-.7-1.8-.7-2.5l-1.1-2.2c0-.7-.4-1.5-.7-2.2-1.1-2.9-1.8-5.8-2.9-8.7l-1.1-4.4c-.4-1.8-.7-3.3-1.1-4.7s-.7-3.3-1.1-5.1c0-1.5-.4-2.9-.7-4.4-.4-3.3-.7-6.5-.7-9.8-.4-2.9-.4-6.2-.4-9.1 0-3.3 0-6.5.4-9.8 0-1.5.4-3.3.4-4.7.4-1.5.4-3.3.7-4.7s.4-3.3.7-4.7c0-.7.4-1.1.4-1.8 0-1.1.4-1.8.4-2.5.4-.4.4-.7.4-1.1s.4-.7.4-1.5.4-1.5.4-1.8c.4-1.8 1.1-3.3 1.5-4.7.7-3.3 1.8-6.5 2.9-9.5 1.1-2.9 2.2-5.8 3.6-8.4l1.1-2.2c0-.4.4-.7.4-1.5.4 0 .4 0 .4-.4l.4-.4v-.7s.4 0 .4-.4.4-.7.7-1.1c.4-.7.4-1.5.7-1.8.7-1.5 1.5-2.5 2.2-4s1.8-2.5 2.5-4c.4-.7.7-1.1 1.1-1.8.7-.7 1.1-1.5 1.5-2.2s1.1-1.1 1.5-1.8.7-1.1 1.1-1.8c1.1-1.1 1.8-2.5 2.9-3.6.7-1.1 1.8-2.2 2.9-3.6.7-1.1 1.8-2.2 2.9-3.3 1.1-1.5 2.2-2.5 3.3-3.6l1.5-1.5c.4-.7 1.1-1.1 1.5-1.5 1.1-1.1 2.2-2.2 3.6-3.3l7.6-6.5c1.1-1.1 2.5-1.8 4-2.9 1.1-1.1 2.5-1.8 4-2.9 2.5-1.8 5.5-3.3 8-4.7 2.5-1.8 5.5-2.9 8-4.4 1.5-.7 2.9-1.5 4.4-1.8 1.5-.7 2.9-1.5 4.7-2.2 1.5-.7 2.9-1.1 4.7-1.8 1.5-.4 2.9-1.1 4.7-1.5 2.9-1.1 6.2-1.8 9.5-2.5 2.9-.7 5.8-1.5 8.7-1.8 3.3-.7 6.2-1.1 9.5-1.5 1.5 0 3.3-.4 5.1-.4H244c1.5.4 2.9.4 4.7.4 1.5.4 2.9.4 4.4.7 2.9.4 6.2.7 9.1 1.5 3.3.4 6.5 1.1 9.8 2.2.7 0 1.5.4 2.2.4.7.4 1.5.7 2.2.7 1.8.7 3.6 1.1 5.1 1.8.4 0 1.1.4 1.5.4l3.3 1.1c1.5.7 2.5 1.5 4 1.8 2.9 1.5 5.5 2.5 8.4 4 2.5 1.5 5.5 2.9 8.4 4.7 1.5.7 2.9 1.8 4.4 2.9 1.1.7 2.5 1.8 4 2.5.4.4 1.1.7 1.5 1.1 1.1.7 1.8 1.5 2.5 2.2 1.5.7 2.5 1.8 3.6 2.9 2.5 1.8 4.7 4 6.9 5.8.7.7 1.5 1.5 1.8 2.2.7.4 1.1.7 1.5 1.5 1.1.7 2.2 1.8 3.3 2.9 1.1 1.5 2.2 2.5 2.9 3.6 1.1 1.5 2.2 2.5 3.3 4 .7 1.1 1.8 2.2 2.5 3.3 1.1 1.5 1.8 2.5 2.9 3.6 1.5 2.9 3.3 5.5 4.7 8 .7 1.5 1.8 2.5 2.2 4 .4.7.7 1.1 1.1 1.8.4.4.4.7.7 1.1 0 .4.4.7.4 1.1h-48l-1.5-1.5c-.4-.7-.7-1.1-1.5-1.8-.7-1.1-1.8-2.2-2.9-3.3-2.2-1.8-4.7-4-6.9-6.2-.7-.4-1.1-.7-1.8-1.5-.7-.4-1.1-.7-1.8-1.1-1.5-1.1-2.5-1.8-4-2.9-.7-.4-1.1-.7-1.8-1.1s-1.1-.7-1.8-1.1c-1.5-.7-2.9-1.8-4.4-2.5-2.9-1.5-5.5-2.9-8.4-4-1.5-.4-2.9-1.1-4.4-1.5-1.8-.7-3.3-1.1-4.7-1.5-1.5-.7-2.9-1.1-4.7-1.5-1.5-.4-3.3-.7-4.7-1.1l-9.8-1.1s-6.5-.4-9.5-.4c-1.8 0-3.3.4-4.7.4-1.5 0-2.9.4-4.7.4-2.9.4-6.2.7-9.1 1.5s-6.2 1.5-9.1 2.5c-2.9 1.1-6.2 2.2-9.1 3.6l-8.7 4.4c-.4.4-.7.4-1.1.7 0 0-.4.4-.7.4-.4.4-1.1.7-1.8 1.5-.7.4-1.5.7-1.8 1.1-.7.4-1.5.7-1.8 1.5-2.5 1.8-5.1 3.6-7.6 5.8-2.2 1.8-4.4 4-6.2 6.2-2.2 2.2-4.4 4.7-6.2 7.3-1.8 2.2-3.6 4.7-5.1 7.3-1.8 2.9-3.6 5.8-4.7 8.7l-2.2 4.4c-.4.7-.7 1.5-.7 2.2l-1.1 2.2c-.7 2.9-1.8 5.5-2.5 8.7-.7 2.9-1.5 6.2-2.2 9.5-.4 2.9-.7 6.2-.7 9.5-.4 1.8-.4 3.3-.4 4.7 0 1.5 0 2.9.4 4.7 0 2.9.4 6.2.7 9.5s1.1 6.2 1.8 9.5 1.8 6.2 2.9 9.1c.4.7.7 1.5.7 2.2l1.1 2.2c.4 1.5 1.1 2.9 1.8 4.4l1.1 2.2s.7 1.1 1.1 1.8c.7 1.5 1.5 2.9 2.2 4 1.8 2.9 3.6 5.5 5.5 8s4 4.7 6.2 6.9c.7 1.1 1.8 2.2 2.9 3.3l1.5 1.5c.7.7 1.5 1.1 1.8 1.8 1.1 1.1 2.5 1.8 3.6 2.9s2.5 1.8 3.6 2.9c2.5 1.5 4.7 3.3 7.3 4.7 2.9 1.5 5.8 3.3 8.7 4.4 2.9 1.5 5.8 2.5 9.1 3.6 2.9 1.1 5.8 1.8 9.1 2.5 1.5.7 3.3.7 5.1 1.1 1.5.4 2.9.7 4.4.7 1.8.4 3.3.4 4.7.7H244c1.5-.4 3.3-.4 4.7-.7 1.5 0 2.9-.4 4.7-.4 2.9-.7 6.2-1.5 9.1-2.2 1.8-.7 3.3-1.1 4.7-1.5.7-.4 1.8-.7 2.5-1.1.7 0 1.5-.4 2.2-.7 1.5-.7 2.9-1.1 4.4-1.8l4.4-2.2c2.9-1.5 5.5-2.9 8-4.7 1.5-.7 2.5-1.8 4-2.5.4-.4 1.1-1.1 1.8-1.5.4-.4 1.1-1.1 1.8-1.5 2.2-1.8 4.7-4 6.9-6.2 1.9-2.1 3.7-4.3 5.9-6.5" style="fill:#1f1f1f" transform="translate(26.5 5.65)"/></svg>