<svg xmlns="http://www.w3.org/2000/svg" xmlns:xlink="http://www.w3.org/1999/xlink" version="1.1" viewBox="2.34 2.34 123.32 123.32">
<g id="surface1">
<path style="fill-rule:nonzero;fill:rgb(21.176471%,25.490198%,29.803923%);fill-opacity:1;stroke-width:3;stroke-linecap:butt;stroke-linejoin:miter;stroke:rgb(46.27451%,46.27451%,46.27451%);stroke-opacity:1;stroke-miterlimit:4;" d="M 97.000121 50 C 97.000121 50.769043 96.98181 51.538086 96.945189 52.307129 C 96.905516 53.07312 96.847533 53.842163 96.774291 54.608154 C 96.697997 55.371094 96.603392 56.134033 96.490477 56.896973 C 96.377562 57.65686 96.246337 58.413696 96.096801 59.16748 C 95.947264 59.924316 95.779418 60.675049 95.590209 61.419678 C 95.404052 62.167358 95.199584 62.905884 94.976805 63.644409 C 94.754027 64.379883 94.512938 65.109253 94.253539 65.83252 C 93.994139 66.558838 93.716429 67.276001 93.420409 67.987061 C 93.12744 68.69812 92.816161 69.400024 92.486571 70.095825 C 92.156981 70.791626 91.812133 71.478271 91.448973 72.155762 C 91.088866 72.833252 90.707396 73.504639 90.31372 74.163818 C 89.916991 74.822998 89.505004 75.473022 89.077758 76.11084 C 88.653563 76.751709 88.208007 77.380371 87.750243 77.996826 C 87.292479 78.616333 86.819457 79.220581 86.331176 79.815674 C 85.842894 80.410767 85.342406 80.993652 84.823607 81.564331 C 84.30786 82.131958 83.776854 82.69043 83.233641 83.233643 C 82.690428 83.776855 82.131957 84.307861 81.56433 84.823608 C 80.993651 85.342407 80.410765 85.842896 79.815673 86.331177 C 79.22058 86.819458 78.616332 87.29248 77.996825 87.750244 C 77.38037 88.208008 76.751708 88.653564 76.110839 89.077759 C 75.473021 89.505005 74.822997 89.916992 74.163817 90.313721 C 73.504637 90.707397 72.833251 91.088867 72.155761 91.448975 C 71.47827 91.812134 70.791625 92.156982 70.095824 92.486572 C 69.400023 92.816162 68.698119 93.127441 67.987059 93.42041 C 67.276 93.716431 66.558837 93.994141 65.832518 94.25354 C 65.109252 94.512939 64.379882 94.754028 63.644408 94.976807 C 62.905883 95.199585 62.167357 95.404053 61.419677 95.59021 C 60.675048 95.779419 59.924315 95.947266 59.167479 96.096802 C 58.413695 96.246338 57.656859 96.377563 56.896971 96.490479 C 56.134032 96.603394 55.371093 96.697998 54.608153 96.774292 C 53.842162 96.847534 53.073119 96.905518 52.307128 96.94519 C 51.538085 96.981812 50.769042 97.000122 49.999999 97.000122 C 49.230956 97.000122 48.461913 96.981812 47.69287 96.94519 C 46.926879 96.905518 46.157836 96.847534 45.391845 96.774292 C 44.628905 96.697998 43.865966 96.603394 43.103026 96.490479 C 42.343138 96.377563 41.586303 96.246338 40.832518 96.096802 C 40.075682 95.947266 39.32495 95.779419 38.580321 95.59021 C 37.83264 95.404053 37.094115 95.199585 36.35559 94.976807 C 35.620116 94.754028 34.890746 94.512939 34.167479 94.25354 C 33.441161 93.994141 32.723998 93.716431 32.012938 93.42041 C 31.301879 93.127441 30.599974 92.816162 29.904174 92.486572 C 29.208373 92.156982 28.521727 91.812134 27.844237 91.448975 C 27.166747 91.088867 26.49536 90.707397 25.83618 90.313721 C 25.177001 89.916992 24.526976 89.505005 23.889159 89.077759 C 23.24829 88.653564 22.619628 88.208008 22.003173 87.750244 C 21.383666 87.29248 20.779418 86.819458 20.184325 86.331177 C 19.589232 85.842896 19.006346 85.342407 18.435668 84.823608 C 17.868041 84.307861 17.309569 83.776855 16.766356 83.233643 C 16.223143 82.69043 15.692137 82.131958 15.17639 81.564331 C 14.657592 80.993652 14.157103 80.410767 13.668822 79.815674 C 13.180541 79.220581 12.707518 78.616333 12.249755 77.996826 C 11.791991 77.380371 11.346434 76.751709 10.92224 76.11084 C 10.494994 75.473022 10.083007 74.822998 9.686278 74.163818 C 9.292601 73.504639 8.911132 72.833252 8.551024 72.155762 C 8.187865 71.478271 7.843016 70.791626 7.513427 70.095825 C 7.183837 69.400024 6.872557 68.69812 6.579589 67.987061 C 6.283568 67.276001 6.005858 66.558838 5.746459 65.83252 C 5.487059 65.109253 5.24597 64.379883 5.023192 63.644409 C 4.800414 62.905884 4.595946 62.167358 4.409789 61.419678 C 4.22058 60.675049 4.052733 59.924316 3.903197 59.16748 C 3.753661 58.413696 3.622435 57.65686 3.50952 56.896973 C 3.396605 56.134033 3.302001 55.371094 3.225707 54.608154 C 3.152465 53.842163 3.094481 53.07312 3.054808 52.307129 C 3.018187 51.538086 2.999877 50.769043 2.999877 50 C 2.999877 49.230957 3.018187 48.461914 3.054808 47.692871 C 3.094481 46.92688 3.152465 46.157837 3.225707 45.391846 C 3.302001 44.628906 3.396605 43.865967 3.50952 43.103027 C 3.622435 42.34314 3.753661 41.586304 3.903197 40.83252 C 4.052733 40.075684 4.22058 39.324951 4.409789 38.580322 C 4.595946 37.832642 4.800414 37.094116 5.023192 36.355591 C 5.24597 35.620117 5.487059 34.890747 5.746459 34.16748 C 6.005858 33.441162 6.283568 32.723999 6.579589 32.012939 C 6.872557 31.30188 7.183837 30.599976 7.513427 29.904175 C 7.843016 29.208374 8.187865 28.521729 8.551024 27.844238 C 8.911132 27.166748 9.292601 26.495361 9.686278 25.836182 C 10.083007 25.177002 10.494994 24.526978 10.92224 23.88916 C 11.346434 23.248291 11.791991 22.619629 12.249755 22.003174 C 12.707518 21.383667 13.180541 20.779419 13.668822 20.184326 C 14.157103 19.589233 14.657592 19.006348 15.17639 18.435669 C 15.692137 17.868042 16.223143 17.30957 16.766356 16.766357 C 17.309569 16.223145 17.868041 15.692139 18.435668 15.176392 C 19.006346 14.657593 19.589232 14.157104 20.184325 13.668823 C 20.779418 13.180542 21.383666 12.70752 22.003173 12.249756 C 22.619628 11.791992 23.24829 11.346436 23.889159 10.922241 C 24.526976 10.494995 25.177001 10.083008 25.83618 9.686279 C 26.49536 9.292603 27.166747 8.911133 27.844237 8.551025 C 28.521727 8.187866 29.208373 7.843018 29.904174 7.513428 C 30.599974 7.183838 31.301879 6.872559 32.012938 6.57959 C 32.723998 6.283569 33.441161 6.005859 34.167479 5.74646 C 34.890746 5.487061 35.620116 5.245972 36.35559 5.023193 C 37.094115 4.800415 37.83264 4.595947 38.580321 4.40979 C 39.32495 4.220581 40.075682 4.052734 40.832518 3.903198 C 41.586303 3.753662 42.343138 3.622437 43.103026 3.509521 C 43.865966 3.396606 44.628905 3.302002 45.391845 3.225708 C 46.157836 3.152466 46.926879 3.094482 47.69287 3.05481 C 48.461913 3.018188 49.230956 2.999878 49.999999 2.999878 C 50.769042 2.999878 51.538085 3.018188 52.307128 3.05481 C 53.073119 3.094482 53.842162 3.152466 54.608153 3.225708 C 55.371093 3.302002 56.134032 3.396606 56.896971 3.509521 C 57.656859 3.622437 58.413695 3.753662 59.167479 3.903198 C 59.924315 4.052734 60.675048 4.220581 61.419677 4.40979 C 62.167357 4.595947 62.905883 4.800415 63.644408 5.023193 C 64.379882 5.245972 65.109252 5.487061 65.832518 5.74646 C 66.558837 6.005859 67.276 6.283569 67.987059 6.57959 C 68.698119 6.872559 69.400023 7.183838 70.095824 7.513428 C 70.791625 7.843018 71.47827 8.187866 72.155761 8.551025 C 72.833251 8.911133 73.504637 9.292603 74.163817 9.686279 C 74.822997 10.083008 75.473021 10.494995 76.110839 10.922241 C 76.751708 11.346436 77.38037 11.791992 77.996825 12.249756 C 78.616332 12.70752 79.22058 13.180542 79.815673 13.668823 C 80.410765 14.157104 80.993651 14.657593 81.56433 15.176392 C 82.131957 15.692139 82.690428 16.223145 83.233641 16.766357 C 83.776854 17.30957 84.30786 17.868042 84.823607 18.435669 C 85.342406 19.006348 85.842894 19.589233 86.331176 20.184326 C 86.819457 20.779419 87.292479 21.383667 87.750243 22.003174 C 88.208007 22.619629 88.653563 23.248291 89.077758 23.88916 C 89.505004 24.526978 89.916991 25.177002 90.31372 25.836182 C 90.707396 26.495361 91.088866 27.166748 91.448973 27.844238 C 91.812133 28.521729 92.156981 29.208374 92.486571 29.904175 C 92.816161 30.599976 93.12744 31.30188 93.420409 32.012939 C 93.716429 32.723999 93.994139 33.441162 94.253539 34.16748 C 94.512938 34.890747 94.754027 35.620117 94.976805 36.355591 C 95.199584 37.094116 95.404052 37.832642 95.590209 38.580322 C 95.779418 39.324951 95.947264 40.075684 96.096801 40.83252 C 96.246337 41.586304 96.377562 42.34314 96.490477 43.103027 C 96.603392 43.865967 96.697997 44.628906 96.774291 45.391846 C 96.847533 46.157837 96.905516 46.92688 96.945189 47.692871 C 96.98181 48.461914 97.000121 49.230957 97.000121 50 Z M 97.000121 50 " transform="matrix(1.28,0,0,1.28,0.000001536,0)"/>
<path style=" stroke:none;fill-rule:nonzero;fill:rgb(85.09804%,85.09804%,85.09804%);fill-opacity:1;" d="M 47.734375 100.761719 L 47.734375 99.019531 C 47.734375 98.011719 47.230469 97.507812 46.230469 97.507812 L 44.484375 97.507812 C 43.480469 97.507812 42.976562 97.007812 42.976562 96.003906 L 42.976562 94.261719 C 42.976562 93.257812 42.472656 92.753906 41.464844 92.753906 L 39.722656 92.753906 C 38.714844 92.753906 38.214844 92.25 38.214844 91.242188 L 38.214844 39.039062 C 38.214844 38.035156 38.714844 37.53125 39.722656 37.53125 L 41.464844 37.53125 C 42.472656 37.53125 42.976562 37.03125 42.976562 36.027344 L 42.976562 34.277344 C 42.976562 33.273438 43.480469 32.773438 44.484375 32.773438 L 46.230469 32.773438 C 47.230469 32.773438 47.734375 32.269531 47.734375 31.265625 L 47.734375 29.519531 C 47.734375 28.515625 48.234375 28.011719 49.242188 28.011719 L 83.039062 28.011719 C 84.097656 28.011719 84.628906 28.542969 84.628906 29.601562 L 84.628906 31.183594 C 84.628906 32.242188 85.15625 32.773438 86.214844 32.773438 L 88.992188 32.773438 C 90.046875 32.773438 90.574219 33.300781 90.574219 34.355469 L 90.574219 47.84375 C 90.574219 48.90625 90.046875 49.433594 88.992188 49.433594 L 75.503906 49.433594 C 74.449219 49.433594 73.921875 48.90625 73.921875 47.84375 L 73.921875 46.179688 C 73.921875 45.175781 73.414062 44.671875 72.410156 44.671875 L 70.742188 44.671875 C 69.683594 44.671875 69.15625 44.144531 69.15625 43.082031 L 69.15625 34.277344 C 69.15625 33.273438 68.652344 32.773438 67.648438 32.773438 L 65.902344 32.773438 C 64.898438 32.773438 64.394531 33.273438 64.394531 34.277344 L 64.394531 36.027344 C 64.394531 37.03125 63.894531 37.53125 62.890625 37.53125 L 61.140625 37.53125 C 60.136719 37.53125 59.636719 38.035156 59.636719 39.039062 L 59.636719 91.242188 C 59.636719 92.25 60.136719 92.753906 61.140625 92.753906 L 62.890625 92.753906 C 63.894531 92.753906 64.394531 93.257812 64.394531 94.261719 L 64.394531 96.003906 C 64.394531 97.007812 64.898438 97.507812 65.902344 97.507812 L 67.648438 97.507812 C 68.652344 97.507812 69.15625 97.007812 69.15625 96.003906 L 69.15625 82.4375 C 69.15625 81.378906 69.683594 80.847656 70.742188 80.847656 L 88.992188 80.847656 C 90.046875 80.847656 90.574219 81.378906 90.574219 82.4375 L 90.574219 95.925781 C 90.574219 96.980469 90.046875 97.507812 88.992188 97.507812 L 87.402344 97.507812 C 86.347656 97.507812 85.820312 98.039062 85.820312 99.097656 L 85.820312 100.683594 C 85.820312 101.742188 85.289062 102.273438 84.230469 102.273438 L 49.242188 102.273438 C 48.234375 102.273438 47.734375 101.769531 47.734375 100.761719 Z M 47.734375 100.761719 "/>
</g>
</svg>