<svg xmlns="http://www.w3.org/2000/svg" xml:space="preserve" viewBox="0 0 512 512"><path d="M311.5 145.9c0 26.5-41.3 26.5-41 0-.3-26.5 41-26.5 41 0"/><path d="M253 5.8C116.7 5.8 6.2 116.3 6.2 252.7S116.7 499.5 253 499.5 499.9 389 499.9 252.7 389.4 5.8 253 5.8m-57.3 372.1c-.3-25.1 38.8-25.1 38.8 0 0 25-39.2 25.1-38.8 0m111.8-141.3c-6 3.3-12.4 6-18.9 8.1-3.6 1.2-6.7 3.5-8.8 6.5l-44.1 61c-.6.9-1.8 1-2.7.4-.5-.4-.8-.9-.8-1.5v-50.4c0-2-1.6-3.6-3.6-3.6-.2 0-.4 0-.7.1-21.7 4.2-42.5 10.8-60.1 28-54.6 53.5-41.4 148.7 22.6 187.3-52.9-15-98.6-48.6-128.7-94.6C-5.4 256.4 48.5 66.5 194.6 36.1c66-13.7 166.3 7.3 174 88.4 4.4 45.2-21.8 90.6-61.1 112.1"/></svg>