<svg xmlns="http://www.w3.org/2000/svg" id="Layer_1" data-name="Layer 1" viewBox="0 0 125 120"><defs><style>.cls-1{fill:#faf7ef}</style></defs><path d="M19.734 42.631c-.282.237-.577.48-.787.777-5.54 7.838-5.964 16.057-1.791 24.602.144.296.174.895.637.75.447-.142.323-.697.264-1.09-.21-1.395-.4-2.794-.675-4.176-1.17-5.895-.685-11.592 1.914-17.064.397-.835.698-1.717 1.02-2.586.146-.39.178-.798-.059-1.145-.178-.193-.377-.19-.523-.068M77.313 7.816c.833.257 1.665.526 2.509.743 3.6.927 6.647 2.725 9 5.64.36.445.771.85 1.17 1.263.178.185.397.312.654.273.155-.047.207-.16.178-.273-.057-.22-.113-.45-.223-.647-2.885-5.19-7.354-7.629-13.236-7.593-.204.001-.547-.143-.59.154-.04.287.302.367.538.44m28.692 51.718c.164-21.712-15.235-40.885-36.175-45.252-23.321-4.865-42.465 8.485-49.303 22.142 1.496-1.844 2.75-3.609 4.22-5.168 12.161-12.883 29.567-17.536 45.57-13.614 6.893 1.69 13.527 4.96 19.368 9.866 10.47 8.795 15.773 22.215 14.623 35.353a39.7 39.7 0 0 1-2.493 10.813c-7.616 19.795-28.798 31.48-50.545 27.796-11.997-2.032-21.763-7.901-29.348-17.453 6.734 12.66 25.422 24.22 45.797 20.545 22.327-4.027 38.118-22.684 38.286-45.028" class="cls-1"/><path d="M105.878 83.02c-.428-.192-.703.306-.92.64-.769 1.182-1.554 2.356-2.265 3.573-3.034 5.188-7.176 9.13-12.75 11.5-.851.362-1.662.822-2.48 1.258-.367.196-.661.48-.714.897.005.262.156.392.346.397.368.01.75.024 1.105-.06 9.344-2.19 15.113-8.06 17.658-17.222.088-.317.463-.786.02-.983" class="cls-1"/><path d="M109.942 38.982c-7.1-6.089-7.907-9.55-10.355-19.016C96.926 9.672 82.657.736 72.207 2.97c-8 1.71-15.812 2.159-23.76.264-.84-.2-1.732-.223-2.603-.262-4.226-.191-7.663 1.347-10.286 4.7a39 39 0 0 0-4.111 6.434c-3.05 6.018-7.724 10.29-13.654 13.362-2.71 1.404-5.386 2.923-7.893 4.656-3.861 2.67-7.016 5.962-7.62 10.941-.44 3.628.673 6.976 2.379 10.049 3.135 5.648 4.677 11.585 4.057 17.443 0 2.42-.065 4.244.012 6.062.265 6.259 1.73 11.986 7.25 15.851 2.095 1.469 4.321 2.74 6.675 3.698 6.898 2.81 12.455 7.145 16.245 13.645.506.869 1.244 1.614 1.937 2.36 3.146 3.388 7.006 5.095 11.668 4.942 3.474-.114 6.794-.942 9.924-2.357 9.367-4.235 18.844-7.889 29.124-9.538 7.275-1.167 12.018-6.128 14.537-13.107.824-2.282 1.23-4.647 1.578-7.017.692-4.716 2.985-8.284 7.15-10.644.947-.538 1.317-1.16 2.2-1.8 3.165-2.296 5.046-5.388 5.611-9.261.588-4.03-.229-7.817-2.02-11.432-2.621-5.287-6.295-9.23-10.665-12.977M77.365 7.222c5.882-.036 10.351 2.403 13.236 7.593.11.196.166.426.223.647.029.114-.023.226-.178.273-.257.04-.476-.088-.655-.273-.398-.413-.809-.818-1.168-1.262-2.354-2.916-5.4-4.714-9.001-5.641-.844-.217-1.676-.486-2.51-.743-.235-.073-.577-.153-.536-.44.042-.297.385-.153.589-.154M20.317 43.844c-.323.869-.624 1.75-1.02 2.586-2.6 5.472-3.086 11.169-1.915 17.064.275 1.382.466 2.781.675 4.175.059.394.183.949-.264 1.09-.463.146-.493-.453-.637-.75-4.173-8.544-3.75-16.763 1.79-24.6.21-.298.506-.541.788-.778.146-.122.345-.125.523.068.237.347.205.754.06 1.145m1.605 40.173c7.585 9.552 17.351 15.42 29.348 17.453 21.747 3.683 42.93-8.001 50.545-27.796a39.7 39.7 0 0 0 2.493-10.813c1.15-13.138-4.153-26.558-14.623-35.353-5.84-4.906-12.475-8.177-19.369-9.866-16.002-3.922-33.408.73-45.568 13.614-1.471 1.56-2.725 3.324-4.221 5.168C27.365 22.767 46.509 9.417 69.83 14.282c20.94 4.367 36.339 23.54 36.175 45.252-.168 22.344-15.959 41.001-38.286 45.028-20.375 3.676-39.063-7.886-45.797-20.545m53.945-24.273-1.414.943c-.943.707-2.357.47-3.064-.472L57.719 41.36c-.708-.943-.472-2.357.47-3.064l1.415-.943c.943-.707 2.357-.471 3.064.472l13.67 18.856c.708.943.472 2.357-.47 3.064m4.243 4.007c.707-.472 1.414-.236 1.414.707l.471 4.714c0 .943-.707 1.414-1.414.943l-4.242-2.121c-.708-.472-.708-1.179 0-1.65zm-12.257 1.886c1.179.47 1.65 2.12 1.179 3.3-.707 1.414-2.357 1.885-3.536 1.178-4.95-2.593-8.25-1.414-12.256-.236-1.886.707-3.536 1.178-5.657 1.414H46.17q-2.828.001-6.365-1.414c-1.178-.471-1.885-1.885-1.414-3.3.472-1.178 1.886-1.885 3.3-1.414 2.122.707 4.007 1.179 5.421.943 1.65-.236 3.065-.707 4.714-1.179 4.48-1.178 9.429-2.828 16.028.708m38.005 18.366c-2.545 9.162-8.314 15.032-17.658 17.223-.354.083-.737.069-1.105.059-.19-.005-.341-.135-.346-.397.053-.417.347-.7.714-.897.818-.436 1.629-.896 2.48-1.258 5.574-2.37 9.716-6.312 12.75-11.5.71-1.217 1.496-2.39 2.265-3.573.217-.334.492-.832.92-.64.443.197.068.666-.02.983" style="fill:#5a9ecc"/><path d="M62.668 37.824c-.707-.943-2.121-1.18-3.064-.472l-1.414.943c-.943.707-1.18 2.121-.472 3.064l13.67 18.856c.708.943 2.122 1.179 3.065.472l1.414-.943c.943-.707 1.179-2.121.472-3.064zM47.111 66.108c-1.414.236-3.3-.236-5.42-.943-1.415-.471-2.83.236-3.3 1.414-.472 1.415.235 2.829 1.413 3.3q3.537 1.414 6.365 1.414h1.414c2.121-.236 3.771-.707 5.657-1.414 4.007-1.178 7.307-2.357 12.256.236 1.179.707 2.829.236 3.536-1.179.471-1.178 0-2.828-1.179-3.3-6.6-3.535-11.549-1.885-16.028-.707-1.65.472-3.064.943-4.714 1.179m29.228 1.886 4.242 2.12c.707.472 1.414 0 1.414-.942l-.47-4.714c0-.943-.708-1.179-1.415-.707l-3.771 2.593c-.708.471-.708 1.178 0 1.65" class="cls-1"/></svg>