<svg xmlns="http://www.w3.org/2000/svg" viewBox="19.33 27 483.4 460.15"><path fill="#297EF1" fill-rule="evenodd" d="M349.38 318H170.62C115.125 318 70 272.575 70 216.736c0-26.628 10.187-51.781 28.697-70.815 16.215-16.656 37.22-27.025 59.942-29.722 2.684-22.87 12.977-44.011 29.541-60.324C207.094 37.239 232.082 27 258.544 27c26.455 0 51.45 10.239 70.364 28.867 16.496 16.244 26.76 37.272 29.511 60.018 51.26 4.623 91.581 48.092 91.581 100.86C450 272.574 404.844 318 349.373 318zm.426-18.85h.77c44.435 0 80.581-36.586 80.581-81.56 0-44.965-36.146-81.552-80.58-81.552h-.81c-5.8 0-10.554-4.672-10.685-10.56-1.001-43.922-37.131-79.636-80.55-79.636s-79.563 35.73-80.557 79.652c-.131 5.778-4.73 10.435-10.446 10.568-43.388 1.012-78.686 37.583-78.686 81.536 0 44.974 36.146 81.56 80.58 81.56h.656l.254-.015c.23 0 .462 0 .693.015h178.757zm-39.683-88.847v-.015c1.728 1.13 2.215 3.467 1.088 5.208a3.76 3.76 0 0 1-3.136 1.71c-.7 0-1.416-.199-2.04-.61a20.7 20.7 0 0 1-4.225-3.666c-12.613 11.43-28.56 17.142-44.508 17.142-15.91 0-31.82-5.689-44.41-17.066a20.5 20.5 0 0 1-4.156 3.59c-.632.411-1.34.61-2.04.61a3.73 3.73 0 0 1-3.136-1.703 3.77 3.77 0 0 1 1.088-5.207c6.372-4.162 6.676-11.835 6.676-12.14.069-2.062 1.797-3.727 3.83-3.666a3.753 3.753 0 0 1 3.653 3.818c0 .275-.114 3.925-1.865 8.216 22.67 21.402 58.218 21.372 80.841-.13-1.705-4.23-1.811-7.819-1.826-8.094a3.75 3.75 0 0 1 3.676-3.818 3.745 3.745 0 0 1 3.806 3.68c.016.337.328 7.98 6.684 12.141M84.189 387.195q-.68.935-1.36 1.445t-1.955.51-2.763-1.062-3.782-2.338q-2.295-1.276-5.568-2.337-3.272-1.063-8.032-1.063-6.29 0-11.135 2.252a21.6 21.6 0 0 0-8.118 6.503q-3.272 4.25-4.93 10.285-1.657 6.034-1.657 13.515 0 7.82 1.785 13.898t5.015 10.2 7.862 6.29q4.633 2.167 10.413 2.167 5.525 0 9.095-1.317 3.57-1.318 5.95-2.933t3.91-2.933 3.06-1.317q1.954 0 2.89 1.445l4.25 5.525q-5.61 6.885-14.025 10.072-8.415 3.188-17.765 3.188-8.075 0-15.003-2.975-6.927-2.976-12.027-8.627-5.1-5.653-8.033-13.898t-2.932-18.785q0-9.605 2.677-17.765t7.82-14.067 12.708-9.223 17.34-3.315q9.01 0 15.98 2.932a38.3 38.3 0 0 1 12.325 8.288zm54.442-16.66q9.435 0 17.043 3.145t12.92 8.925 8.16 13.982q2.847 8.204 2.847 18.318 0 10.2-2.847 18.36t-8.16 13.94-12.92 8.882-17.043 3.103q-9.434 0-17.042-3.103-7.608-3.102-12.963-8.882t-8.245-13.94-2.89-18.36q0-10.115 2.89-18.317t8.245-13.983 12.963-8.925 17.042-3.145m0 76.84q12.75 0 19.04-8.543t6.29-23.842q0-15.385-6.29-23.97t-19.04-8.585q-6.459 0-11.22 2.21a21 21 0 0 0-7.947 6.375q-3.188 4.164-4.76 10.243-1.573 6.077-1.573 13.727t1.573 13.685 4.76 10.157q3.188 4.123 7.947 6.333 4.761 2.21 11.22 2.21m118.703-69.02q0 1.615-.595 3.102a10.8 10.8 0 0 1-1.53 2.678l-46.58 62.05h47.005V458h-64.855v-6.29q0-1.105.552-2.592a11.3 11.3 0 0 1 1.573-2.848l46.835-62.475h-46.325v-11.9h63.92zm42.627 105.06q-.765 1.7-1.912 2.72t-3.528 1.02h-11.22l15.725-34.17-35.53-81.09h13.09q1.956 0 3.06.978 1.105.977 1.615 2.167l23.035 54.23q.765 1.87 1.318 3.74.552 1.87.977 3.825.596-1.954 1.19-3.825.595-1.87 1.36-3.825l22.355-54.145q.51-1.36 1.743-2.252 1.232-.894 2.677-.893h12.07zm44.583-34.765q0-2.21.807-4.165a10.7 10.7 0 0 1 2.21-3.4q1.402-1.445 3.358-2.295a10.3 10.3 0 0 1 4.165-.85q2.21 0 4.165.85a10.9 10.9 0 0 1 3.4 2.295 10.3 10.3 0 0 1 2.252 3.4q.808 1.955.808 4.165 0 2.295-.808 4.208a10.5 10.5 0 0 1-2.252 3.357 10.3 10.3 0 0 1-3.4 2.252 10.8 10.8 0 0 1-4.165.808q-2.21 0-4.165-.808a9.9 9.9 0 0 1-3.358-2.252 10.8 10.8 0 0 1-2.21-3.357q-.807-1.913-.807-4.208m56.737-76.755V458h-15.13v-86.105zm3.4-27.03q0 2.21-.892 4.123a11.9 11.9 0 0 1-2.38 3.4q-1.488 1.486-3.443 2.337-1.954.85-4.165.85-2.21 0-4.122-.85a11.2 11.2 0 0 1-3.4-2.338 11.2 11.2 0 0 1-2.338-3.4q-.85-1.912-.85-4.122t.85-4.207a10.9 10.9 0 0 1 2.338-3.486 11.2 11.2 0 0 1 3.4-2.337q1.912-.85 4.122-.85t4.165.85a11.1 11.1 0 0 1 3.443 2.338 11.5 11.5 0 0 1 2.38 3.485 10.2 10.2 0 0 1 .892 4.207m57.078 25.67q9.435 0 17.042 3.145t12.92 8.925 8.16 13.982q2.848 8.204 2.848 18.318 0 10.2-2.848 18.36t-8.16 13.94-12.92 8.882-17.042 3.103-17.043-3.103-12.962-8.882q-5.356-5.78-8.245-13.94-2.89-8.16-2.89-18.36 0-10.115 2.89-18.317t8.245-13.983 12.962-8.925 17.043-3.145m0 76.84q12.75 0 19.04-8.543t6.29-23.842q0-15.385-6.29-23.97t-19.04-8.585q-6.46 0-11.22 2.21a21 21 0 0 0-7.948 6.375q-3.187 4.164-4.76 10.243-1.572 6.077-1.572 13.727t1.572 13.685 4.76 10.157q3.187 4.123 7.948 6.333 4.76 2.21 11.22 2.21"/></svg>