<svg xmlns="http://www.w3.org/2000/svg" viewBox="0 0 425 425"><rect width="425" height="425" rx="105" ry="105" style="fill:#22283a"/><path fill="hsl(160, 59%, 45%)" d="m162.5 182.5 38-15q0-40-40-40h-95q-40 0-40 40v90q0 40 40 40h95q40 0 40-40l-38-20v28h-100v-108h100z"/><path fill="hsl(192, 99%, 45%)" d="m262.5 182.5-38-15q0-40 40-40h95q40 0 40 40v90q0 40-40 40h-95q-40 0-40-40l38-20v28h100v-108h-100z"/><path fill="hsl(266, 71%, 57%)" d="M142.5 191.5q-10 0-10 10v19q0 10 10 10h140q10 0 10-10v-19q0-10-10-10z"/></svg>