<?xml version="1.0" encoding="UTF-8"?>
<svg version="1.1" xmlns="http://www.w3.org/2000/svg" width="598" height="598">
    <style>
        .color-1 {
            fill: #46425F;
        }
        .color-2 {
            fill: #646178ff;
        }
        .color-3 {
            fill: #C6C7D5;
        }
    </style>
    <path class="color-1" d="M0 0 C197.34 0 394.68 0 598 0 C598 197.34 598 394.68 598 598 C400.66 598 203.32 598 0 598 C0 400.66 0 203.32 0 0 Z " transform="translate(0,0)"/>
    <path class="color-2" d="M0 0 C2.74 1.09 3.85 2.64 5.77 4.87 C12.56 11.05 20.96 9.92 29.58 9.78 C31.45 9.78 33.32 9.78 35.19 9.79 C39.2 9.79 43.22 9.77 47.23 9.73 C53.58 9.67 59.93 9.67 66.28 9.68 C77.47 9.68 88.66 9.63 99.84 9.58 C116.69 9.49 133.53 9.44 150.38 9.44 C156.69 9.44 163 9.41 169.31 9.36 C173.23 9.34 177.16 9.33 181.09 9.33 C182.91 9.33 184.72 9.31 186.54 9.29 C197.1 9.16 204.06 9.29 212.21 16.74 C212.67 17.29 213.12 17.85 213.59 18.42 C214.3 19.26 214.3 19.26 215.02 20.11 C217.32 23.66 217.28 27.29 217.27 31.42 C217.27 33.12 217.27 33.12 217.28 34.86 C217.27 36.1 217.27 37.34 217.27 38.61 C217.27 39.92 217.27 41.23 217.27 42.57 C217.27 46.16 217.26 49.74 217.25 53.32 C217.25 57.07 217.25 60.81 217.25 64.56 C217.24 71.65 217.23 78.74 217.22 85.83 C217.21 93.9 217.21 101.97 217.2 110.04 C217.19 126.65 217.17 143.25 217.15 159.86 C218.09 160.14 219.03 160.43 220 160.72 C223.88 162.12 225.18 163.23 227.15 166.86 C227.5 169.79 227.39 172.16 226.15 174.86 C223.44 177.9 221.68 179.58 217.62 180.32 C214.43 180.49 211.27 180.51 208.08 180.47 C206.86 180.48 205.65 180.48 204.4 180.49 C201.09 180.5 197.78 180.49 194.47 180.46 C191 180.44 187.52 180.45 184.05 180.45 C178.22 180.45 172.4 180.43 166.57 180.4 C159.84 180.36 153.1 180.35 146.37 180.36 C139.89 180.37 133.4 180.36 126.92 180.34 C124.16 180.33 121.4 180.32 118.65 180.33 C114.8 180.33 110.95 180.3 107.1 180.28 C105.39 180.28 105.39 180.28 103.64 180.29 C102.07 180.27 102.07 180.27 100.46 180.25 C99.55 180.25 98.64 180.24 97.7 180.24 C93.69 179.64 91.03 177.83 88.34 174.86 C87.15 172.86 87.15 172.86 87.15 169.86 C77.4 169.8 67.64 169.79 57.89 169.83 C53.36 169.85 48.83 169.86 44.3 169.83 C39.92 169.8 35.55 169.81 31.17 169.85 C29.51 169.85 27.84 169.85 26.18 169.83 C15.15 169.54 15.15 169.54 5.79 174.84 C5.16 175.56 4.52 176.28 3.87 177.03 C2.15 178.86 2.15 178.86 -1.6 180.04 C-6.22 179.78 -8.37 178.19 -11.72 175.17 C-13.1 172.33 -13.18 170.07 -12.7 166.96 C-11.61 164.26 -10.11 163.22 -7.84 161.41 C-3.32 157.03 -2.89 153.59 -2.76 147.45 C-2.78 146.23 -2.8 145.02 -2.81 143.77 C-2.8 142.48 -2.78 141.18 -2.77 139.85 C-2.73 136.32 -2.75 132.78 -2.77 129.25 C-2.79 125.54 -2.77 121.83 -2.76 118.12 C-2.75 111.9 -2.77 105.67 -2.81 99.44 C-2.85 92.26 -2.83 85.07 -2.79 77.89 C-2.75 71.7 -2.75 65.52 -2.77 59.33 C-2.78 55.65 -2.78 51.96 -2.76 48.27 C-2.73 44.16 -2.77 40.05 -2.81 35.94 C-2.79 34.12 -2.79 34.12 -2.76 32.27 C-2.89 26.11 -3.34 22.67 -7.84 18.27 C-8.56 17.69 -9.28 17.11 -10.02 16.51 C-11.85 14.86 -11.85 14.86 -13.04 11.17 C-12.77 6.51 -11.21 4.37 -8.16 0.98 C-5.33 -0.4 -3.1 -0.47 0 0 Z " transform="translate(191.84810733795166,210.14348888397217)"/>
    <path class="color-2" d="M0 0 C3.14 1.57 4.76 2.5 7.17 4.79 C7.75 5.34 8.33 5.88 8.92 6.44 C9.53 7.02 10.13 7.59 10.75 8.19 C12.01 9.37 13.27 10.56 14.53 11.75 C15.13 12.31 15.74 12.88 16.36 13.46 C18.87 15.82 21.47 18.08 24.08 20.33 C26.41 22.36 28.71 24.43 31 26.5 C33.98 29.19 36.97 31.86 40 34.5 C43.9 37.89 47.73 41.35 51.56 44.81 C54.32 47.29 57.12 49.73 59.92 52.17 C63.25 55.1 66.52 58.09 69.8 61.08 C72.05 63.13 72.05 63.13 75 65 C73.9 68.29 73.15 68.97 70.56 71.12 C67.33 73.87 64.14 76.65 61 79.5 C57.38 82.77 53.73 86 50.05 89.2 C47.74 91.23 45.46 93.3 43.19 95.38 C39.81 98.43 36.37 101.34 32.81 104.19 C26.76 109.08 21.14 114.41 15.47 119.74 C12.78 122.28 10.07 124.79 7.31 127.25 C6.75 127.75 6.19 128.25 5.61 128.77 C4 130 4 130 0 132 C0 88.44 0 44.88 0 0 Z " transform="translate(189,234)"/>
    <path class="color-3" d="M0 0 C5.27 2.4 9.2 7.02 13.27 11.04 C14.61 12.24 15.97 13.42 17.33 14.6 C20.34 17.21 23.31 19.86 26.27 22.54 C29.25 25.22 32.24 27.9 35.27 30.54 C39.16 33.93 43 37.39 46.83 40.85 C48.96 42.76 51.11 44.65 53.27 46.54 C57.16 49.93 61 53.39 64.83 56.85 C66.96 58.76 69.11 60.65 71.27 62.54 C75.16 65.92 78.98 69.37 82.81 72.83 C85.06 74.85 87.35 76.82 89.64 78.79 C97.1 85.4 97.1 85.4 97.64 90.72 C96.49 97.04 90.84 100.99 86.27 105.04 C85.58 105.65 84.89 106.27 84.18 106.91 C82.91 108.04 81.62 109.15 80.33 110.26 C77.94 112.31 75.61 114.42 73.27 116.54 C69.65 119.8 66.01 123.02 62.33 126.22 C59.96 128.31 57.61 130.42 55.27 132.54 C51.65 135.8 48.01 139.02 44.33 142.22 C41.96 144.31 39.61 146.42 37.27 148.54 C33.65 151.8 30.01 155.02 26.33 158.22 C23.96 160.31 21.61 162.42 19.27 164.54 C17.6 166.04 15.94 167.54 14.27 169.04 C13.54 169.69 12.82 170.35 12.07 171.02 C1.52 180.42 1.52 180.42 -3.79 180.16 C-7.12 179.51 -8.02 178.79 -10.79 176.47 C-12.68 173.12 -13.52 171.07 -12.76 167.24 C-10.4 162.2 -5.83 158.67 -1.73 155.04 C-0.7 154.11 -0.7 154.11 0.36 153.16 C1.63 152.03 2.92 150.92 4.21 149.81 C6.59 147.76 8.93 145.65 11.27 143.54 C16.59 138.74 21.96 133.99 27.42 129.36 C34 123.76 40.47 118.08 46.79 112.19 C50.24 108.98 53.73 105.84 57.29 102.77 C60.63 99.85 63.89 96.85 67.17 93.86 C69.27 92.04 69.27 92.04 71.27 91.04 C71.5 88.94 71.5 88.94 69.87 87.62 C68.89 86.81 68.89 86.81 67.89 85.97 C64.64 83.21 61.44 80.4 58.27 77.54 C55.29 74.85 52.3 72.17 49.27 69.54 C45.37 66.14 41.54 62.68 37.71 59.22 C35.58 57.31 33.43 55.42 31.27 53.54 C27.37 50.14 23.54 46.68 19.71 43.22 C17.58 41.31 15.43 39.42 13.27 37.54 C9.38 34.15 5.55 30.7 1.73 27.24 C-0.52 25.22 -2.81 23.25 -5.11 21.29 C-12.54 14.7 -12.54 14.7 -12.95 11.12 C-12.76 6.97 -11.9 5.23 -9.17 1.97 C-5.83 0.09 -3.81 -0.75 0 0 Z " transform="translate(191.73046875,209.96484375)"/>
    <path class="color-3" d="M0 0 C2.16 1.4 2.16 1.4 4 4 C4.56 7.34 4.46 10.64 4.39 14.02 C4.38 14.99 4.38 15.96 4.37 16.96 C4.35 20.06 4.3 23.15 4.25 26.25 C4.23 28.35 4.21 30.45 4.2 32.55 C4.15 37.7 4.08 42.85 4 48 C10.13 44.78 16.1 41.38 21.95 37.7 C22.55 37.32 23.14 36.95 23.76 36.57 C26.21 35.03 28.67 33.49 31.11 31.93 C32.93 30.78 34.75 29.64 36.58 28.51 C38.18 27.5 38.18 27.5 39.81 26.47 C43.5 24.77 45.99 24.65 50 25 C52.44 26.06 52.44 26.06 54 28 C54.56 31.38 54.56 31.38 54 35 C50.43 39.19 46.38 41.84 41.69 44.57 C41 44.98 40.3 45.39 39.59 45.82 C38.14 46.68 36.68 47.53 35.23 48.39 C33 49.69 30.79 51 28.57 52.31 C27.15 53.15 25.73 53.99 24.31 54.82 C23.32 55.41 23.32 55.41 22.32 56 C18.96 57.96 15.66 59.68 12 61 C12 61.66 12 62.32 12 63 C13.01 63.37 13.01 63.37 14.04 63.74 C17.64 65.27 20.95 67.19 24.31 69.18 C25.35 69.79 25.35 69.79 26.41 70.41 C27.86 71.27 29.32 72.13 30.77 72.99 C32.99 74.31 35.21 75.61 37.43 76.9 C38.85 77.74 40.27 78.58 41.69 79.43 C42.35 79.81 43 80.19 43.68 80.59 C47.66 82.97 50.94 85.45 54 89 C54.56 92.4 54.34 94.24 52.94 97.38 C51 99 51 99 47.62 99.38 C44.31 99.03 41.97 98.44 39 97 L 4 76 C4.03 77.97 4.03 77.97 4.06 79.98 C4.14 84.84 4.18 89.71 4.22 94.58 C4.24 96.69 4.27 98.79 4.3 100.9 C4.35 103.93 4.37 106.96 4.39 109.98 C4.41 110.93 4.43 111.87 4.45 112.84 C4.46 119.36 4.46 119.36 2.16 122.59 C-0.8 124.52 -2.53 124.58 -6 124 C-8.16 122.59 -8.16 122.59 -10 120 C-10.56 116.66 -10.46 113.36 -10.39 109.98 C-10.38 109.01 -10.38 108.04 -10.37 107.04 C-10.35 103.94 -10.3 100.85 -10.25 97.75 C-10.23 95.65 -10.21 93.55 -10.2 91.45 C-10.15 86.3 -10.08 81.15 -10 76 C-16.13 79.22 -22.1 82.62 -27.95 86.3 C-28.55 86.68 -29.14 87.05 -29.76 87.43 C-32.21 88.97 -34.67 90.51 -37.11 92.07 C-38.93 93.22 -40.75 94.36 -42.58 95.49 C-43.64 96.17 -44.71 96.84 -45.81 97.53 C-49.5 99.23 -51.99 99.35 -56 99 C-58.44 97.94 -58.44 97.94 -60 96 C-60.56 92.62 -60.56 92.62 -60 89 C-56.43 84.81 -52.38 82.16 -47.69 79.43 C-47 79.02 -46.3 78.61 -45.59 78.18 C-44.14 77.32 -42.68 76.47 -41.23 75.61 C-39 74.31 -36.79 73 -34.57 71.69 C-33.15 70.85 -31.73 70.01 -30.31 69.18 C-29.65 68.79 -29 68.4 -28.32 68 C-24.96 66.04 -21.66 64.32 -18 63 L -60 36 C-60.2 32.51 -60.35 29.8 -58.94 26.56 C-55.97 24.17 -53.73 24.69 -50 25 C-46.67 26.48 -46.67 26.48 -43.25 28.54 C-42.64 28.91 -42.02 29.27 -41.39 29.65 C-39.44 30.82 -37.5 32 -35.56 33.19 C-34.27 33.97 -32.97 34.74 -31.67 35.52 C-26.5 38.61 -21.36 41.76 -16.28 44.99 C-13.16 47.07 -13.16 47.07 -10 48 C-10.01 47.44 -10.02 46.89 -10.03 46.31 C-10.12 40.52 -10.18 34.73 -10.22 28.94 C-10.24 26.78 -10.27 24.61 -10.3 22.45 C-10.35 19.35 -10.37 16.24 -10.39 13.14 C-10.41 12.17 -10.43 11.2 -10.45 10.2 C-10.45 9.3 -10.45 8.4 -10.45 7.47 C-10.46 6.68 -10.47 5.89 -10.48 5.07 C-10 3 -10 3 -8.16 1.25 C-5.2 -0.46 -3.36 -0.49 0 0 Z " transform="translate(473,67)"/>
    <path class="color-3" d="M0 0 C1.21 -0.01 2.42 -0.01 3.67 -0.02 C6.99 -0.03 10.3 -0.01 13.61 0.01 C17.08 0.03 20.55 0.02 24.02 0.02 C29.85 0.02 35.68 0.04 41.51 0.07 C48.24 0.11 54.97 0.12 61.7 0.11 C68.19 0.11 74.67 0.12 81.16 0.14 C83.92 0.14 86.67 0.15 89.43 0.15 C93.28 0.14 97.13 0.17 100.98 0.2 C102.12 0.19 103.26 0.19 104.44 0.19 C106.01 0.2 106.01 0.2 107.62 0.22 C108.53 0.22 109.44 0.23 110.37 0.23 C114.27 0.82 116.91 2.7 119.8 5.3 C121.17 8.12 121.07 10.43 120.83 13.52 C119.36 16.92 117.14 18.92 113.92 20.62 C109.9 21.35 105.93 21.28 101.85 21.23 C100.64 21.24 99.42 21.24 98.17 21.25 C94.86 21.26 91.55 21.24 88.24 21.22 C84.77 21.2 81.3 21.21 77.82 21.21 C72 21.21 66.17 21.19 60.34 21.16 C53.61 21.12 46.88 21.11 40.14 21.12 C33.66 21.12 27.17 21.11 20.69 21.09 C17.93 21.09 15.17 21.08 12.42 21.09 C8.57 21.09 4.72 21.06 0.87 21.04 C-0.84 21.04 -0.84 21.04 -2.59 21.04 C-4.16 21.03 -4.16 21.03 -5.77 21.01 C-6.68 21.01 -7.59 21 -8.53 21 C-12.42 20.41 -15.06 18.53 -17.95 15.93 C-19.32 13.11 -19.23 10.8 -18.99 7.71 C-15.36 -0.63 -7.86 -0.09 0 0 Z " transform="translate(298.076416015625,369.384765625)"/>
</svg>
