<?xml version="1.0" encoding="utf-8"?>
<svg xmlns="http://www.w3.org/2000/svg" viewBox="0 102.697 500 500">
  <g transform="matrix(0.052438, 0, 0, -0.054367, -20.712961, 631.611511)" fill="#000000" stroke="none" style="">
    <path d="M4730 9723 c-916 -52 -1805 -381 -2532 -935 -359 -274 -723 -653 -986 -1028 -374 -534 -646 -1194 -756 -1840 -52 -303 -61 -411 -61 -790 0 -371 8 -480 56 -765 281 -1682 1485 -3082 3104 -3608 453 -147 846 -213 1330 -224 745 -16 1442 133 2098 450 335 162 728 413 839 535 124 137 144 374 45 536 -39 64 -125 142 -191 175 -164 81 -342 59 -497 -62 -92 -71 -297 -202 -434 -276 -1033 -563 -2284 -595 -3349 -86 -524 250 -1002 643 -1352 1110 -668 889 -899 2021 -633 3095 69 280 147 492 280 760 527 1060 1528 1801 2694 1994 172 29 261 37 490 46 246 9 295 18 381 73 61 38 132 121 167 195 31 64 32 72 32 193 0 124 0 126 -37 200 -62 126 -163 210 -293 244 -56 14 -226 18 -395 8z" style="fill: rgb(63, 126, 213);"/>
    <path d="M7295 9421 c-22 -10 -49 -29 -61 -42 -31 -35 -675 -1157 -692 -1204 -28 -81 12 -176 90 -214 73 -35 154 -22 207 33 16 17 182 294 368 616 l338 585 0 66 c0 57 -4 71 -29 103 -53 70 -143 93 -221 57z" style="fill: rgb(63, 126, 213);"/>
    <path d="M9045 7686 c-80 -35 -1184 -680 -1207 -706 -79 -86 -50 -228 57 -280 90 -44 79 -48 700 309 308 178 581 337 607 353 124 78 115 260 -16 319 -48 22 -99 24 -141 5z" style="fill: rgb(63, 126, 213);"/>
    <path d="M6115 7591 c-33 -16 -76 -46 -96 -67 -37 -39 -1332 -2214 -1371 -2300 -29 -68 -23 -188 14 -264 15 -30 256 -359 535 -730 l508 -675 69 -35 c61 -31 77 -35 145 -34 56 0 89 6 126 23 58 25 128 90 155 141 43 83 43 205 2 286 -11 22 -214 297 -451 613 l-431 574 609 1026 c335 565 614 1045 620 1066 17 63 13 148 -10 210 -61 164 -264 243 -424 166z" style="fill: rgb(129, 129, 129);"/>
    <path d="M2637 6472 c-21 -23 -22 -75 -3 -92 8 -6 405 -241 882 -521 558 -327 877 -509 894 -509 15 0 34 8 43 18 22 24 22 75 0 94 -10 9 -406 244 -880 522 -595 349 -872 506 -891 506 -16 0 -36 -8 -45 -18z" style="fill: rgb(129, 129, 129);"/>
    <path d="M8377 5306 c-141 -51 -159 -247 -29 -324 l47 -27 670 -2 c418 -2 688 1 719 7 91 19 146 85 146 174 0 81 -33 134 -105 167 -38 17 -80 19 -725 18 -552 0 -692 -3 -723 -13z" style="fill: rgb(63, 126, 213);"/>
    <path d="M7892 3559 c-104 -53 -132 -195 -54 -279 32 -35 1181 -700 1232 -714 67 -17 147 14 193 76 32 44 35 136 6 187 -28 51 4 31 -674 422 -498 287 -566 323 -610 326 -37 3 -61 -2 -93 -18z" style="fill: rgb(63, 126, 213);"/>
  </g>
</svg>