<svg xmlns:dc="http://purl.org/dc/elements/1.1/" xmlns:cc="http://creativecommons.org/ns#" xmlns:rdf="http://www.w3.org/1999/02/22-rdf-syntax-ns#" xmlns:svg="http://www.w3.org/2000/svg" xmlns="http://www.w3.org/2000/svg" xmlns:sodipodi="http://sodipodi.sourceforge.net/DTD/sodipodi-0.dtd" xmlns:inkscape="http://www.inkscape.org/namespaces/inkscape" id="svg2" version="1.1" inkscape:version="0.91 r13725" viewBox="20.15 2 210.75 208.03">  
  <g inkscape:label="Calque 1" inkscape:groupmode="layer" id="layer1" transform="translate(-289.50849,319.17136)">
    <g id="g4406" transform="matrix(0.4419355,0,0,0.4419355,-115.1012,-96.127872)">
      <path id="path4379" d="m 1176.6123,-29.967468 c -8.009,-0.7461 -29.0806,-4.396821 -36.897,-6.392511 -67.5741,-17.253211 -124.8006,-63.525585 -155.0844,-125.398661 -16.602,-33.91969 -23.521,-64.2537 -23.4937,-103.00001 0.027,-38.79338 7.0526,-69.73501 23.3858,-103 12.2333,-24.91498 26.3042,-44.43274 46.2801,-64.19516 37.3662,-36.9669 84.697,-59.85104 138.3092,-66.87154 17.5275,-2.29521 54.6301,-1.5484 71,1.42912 34.044,6.19227 64.6093,18.35433 92,36.60722 56.9065,37.92192 93.817,95.91793 103.4396,162.53036 2.0602,14.26155 3.2527,43.94053 1.8651,46.41995 -0.7568,1.35238 -1.1502,-0.0645 -1.6458,-5.9267 -2.4567,-29.06251 -15.0282,-64.20412 -32.3729,-90.49325 -52.7188,-79.90524 -151.0781,-113.80564 -242.1459,-83.45777 -70.2905,23.42393 -123.1187,82.8524 -137.618,154.81167 -7.1694,35.58155 -5.018,70.45861 6.4702,104.89047 20.26,60.72247 68.7499,109.233259 130.2437,130.299931 14.5024,4.96828 33.1269,9.108241 45.4086,10.093731 14.7058,1.18 10.9996,2.30228 -7.1446,2.16348 -9.9,-0.0757 -19.8,-0.30538 -22,-0.51033 z" style="fill:#f78b24;fill-opacity:1" inkscape:connector-curvature="0"/>
      <path id="path4375" d="m 1227.1123,-59.32484 c -76.0142,-5.536521 -138.9957,-62.21443 -152.1394,-136.9122 -2.3924,-13.59664 -2.8534,-39.01314 -0.9344,-51.5216 11.3957,-74.28153 68.5344,-130.63625 143.0738,-141.11091 15.1081,-2.12306 42.0304,-1.37887 56.5,1.56178 12.5864,2.55794 26.5391,7.09857 37.5,12.20362 l 8.5,3.9589 -8,3.778 c -28.8694,13.63355 -46.6877,45.52332 -42.505,76.07193 4.1886,30.59164 25.3438,54.60279 55.7135,63.23456 10.9335,3.10756 27.6526,3.10665 38.5907,-0.002 14.1429,-4.0196 25.2344,-10.59356 35.3287,-20.93938 3.4078,-3.49268 6.4155,-5.99171 6.6838,-5.55337 0.2683,0.43833 1.0472,5.2538 1.7309,10.70103 1.6868,13.43899 0.6963,39.00754 -2.0056,51.77306 -8.6054,40.65625 -30.2885,74.78176 -63.537,99.995987 -31.4692,23.864872 -73.0995,35.776123 -114.5,32.760703 z" style="fill:#f78b24;fill-opacity:1" inkscape:connector-curvature="0"/>
    </g>
  </g>
</svg>