<svg xmlns="http://www.w3.org/2000/svg" xml:space="preserve" id="Layer_1" x="0" y="0" version="1.1" viewBox="0 0 512 512"><style>.st0{fill:#fff}.st4{fill:#0087ff}</style><path d="M63.78 15.91h254.9l128.7 119.6v143c0 150.3-123 185.1-190.2 220.6-73.6-33.9-188.4-70.8-190.2-220.6z" class="st0"/><path d="M63.78 15.91h254.9l128.7 119.6v143c0 150.3-123 185.1-190.2 220.6-73.6-33.9-188.4-70.8-190.2-220.6z" class="st0"/><path d="m63.82 15.951 3.2 227.7h190.4v-227.7zm193.6 227.7v252.4c73.7-33.8 188.2-98.1 190.3-247.9l.1-4.5z" style="fill-opacity:.3961;fill:#0087ff"/><path d="M189.2 42.4h254.9L572.9 162v143c0 150.3-123 185.1-190.2 220.6-73.6-33.9-188.4-70.8-190.2-220.6z" style="fill:none;stroke:#0087ff;stroke-width:20.0019;stroke-miterlimit:15.118" transform="translate(-125.38 -26.449)"/><path d="M432.4 39.2v132.3h141.2" style="fill:none;stroke:#0087ff;stroke-width:20;stroke-miterlimit:15.118" transform="translate(-125.38 -26.449)"/><path d="M307.17 240.06c0 28.655-23.213 51.758-51.758 51.758-28.656 0-51.759-23.214-51.759-51.759s23.214-51.758 51.76-51.758c28.544 0 51.758 23.213 51.758 51.758" class="st4"/><path d="M241.862 239.615h26.99l26.99 142.614h-80.97z" class="st4"/></svg>