<svg xmlns="http://www.w3.org/2000/svg" xml:space="preserve" id="svg4819" x="0" y="0" style="enable-background:new 0 0 512 512" version="1.1" viewBox="-0.04 32.75 511.99 446.5"><style>.st3{fill:#ccc}.st4{fill:#e6e6e6}</style><filter id="filter4682" style="color-interpolation-filters:sRGB"><feFlood id="feFlood4684" flood-color="#000" flood-opacity=".498" result="flood"/><feComposite id="feComposite4686" in="flood" in2="SourceGraphic" operator="in" result="composite1"/><feGaussianBlur id="feGaussianBlur4688" in="composite1" result="blur" stdDeviation="5"/><feOffset id="feOffset4690" dx="0" dy=".7" result="offset"/><feComposite id="feComposite4692" in="SourceGraphic" in2="offset" operator="over" result="composite2"/></filter><g id="layer1" transform="translate(-61.813 -579.37)"><g id="g4673" style="filter:url(#filter4682)" transform="translate(5.177 2.02)"><path id="rect5513_00000009577296160720408050000012299069017901198774_" d="M287.7 989v49.9h152.8V989z" style="fill:gray"/><path id="path5516_00000023993831347713664670000016381420833678626202_" d="M287.7 989H134.9v49.9h152.8z" style="fill:#b3b3b3"/><path id="path5432_00000111875906202437826970000014422903456263522711_" d="M301.3 610.1c-4.6 0-9.1.4-13.7.9v385.1H448v-80.5c.5-3.4 1-6.9 1.3-9.6l1.2-11 10-4 10-4 14.6 11.8c8 6.5 16.1 11.8 18 11.8 4.8 0 38.8-35.1 38.8-40 0-2.1-5.2-10.4-11.5-18.6l-11.5-14.8 3.6-8.5c2-4.7 4.2-9.1 4.8-9.8s10.1-2.8 20.9-4.6L568 811l.5-27.2c.3-16.3-.2-28-1.3-29-1-1-10.4-3.1-20.8-4.7l-19.1-2.9-4.2-10.5-4.2-10.5 11.5-14.9c6.3-8.2 11.5-16.1 11.5-17.6 0-3.2-35.7-40.5-38.8-40.5-1.1 0-9.1 5.4-17.8 12l-15.7 12-9.6-4-9.3-3.9c-.1 0-.2-.1-.3-.1l-3-19.2c-1.6-10.6-3.8-20.3-4.9-21.6-1.5-1.8-14.2-2.7-26.8-2.6-12.7.1-25.3 1.1-26.9 2.9-1.1 1.3-3 9.2-4.4 18.2-21.3-23.3-51.5-36.7-83.1-36.8" class="st3"/><path id="path5490_00000018199263273366371360000013499692473267959976_" d="M287.7 1030.2v26.4H448v-26.4z" class="st3"/><path id="path5488_00000023255143700853136200000008369493140482104482_" d="M287.7 611.1c-31.4 3.9-59.7 20.7-78.4 46.6-12.4-4.6-25.5-7-38.7-7-63 0-114 51.7-114 115.6 0 46.6 27.6 88.6 70 106.6v123.3h161z" class="st4"/><path id="path5492_00000107564739733608024550000002597578398940449720_" d="M287.7 1030.2h-161v26.4h161z" class="st4"/></g></g></svg>