<svg width="2500" height="2496" viewBox="0 0 2500 2496" fill="none" xmlns="http://www.w3.org/2000/svg">
<g clip-path="url(#clip0_108_2)">
<path d="M878.592 990.527C979.634 990.527 1061.73 1044.47 1103.83 1138.14L1106.99 1145.51L1276.44 1087.89L1273.02 1079.2C1207.5 919.219 1056.2 820.019 878.592 820.019C753.605 820.019 652.037 860.015 568.098 942.374C484.686 1024.21 442.585 1127.09 442.585 1248.13C442.585 1368.38 484.949 1470.74 568.098 1552.31C652.037 1634.67 753.605 1674.67 878.592 1674.67C1056.2 1674.67 1207.24 1575.2 1273.02 1415.48L1276.44 1406.8L1106.73 1349.17L1103.83 1356.8C1065.94 1449.16 981.739 1504.16 878.592 1504.16C808.336 1504.16 748.868 1479.69 702.031 1431.27C654.405 1382.33 630.46 1320.49 630.46 1248.13C630.46 1175.24 653.878 1114.72 702.031 1063.41C749.132 1015 808.336 990.527 878.592 990.527Z" fill="white"/>
<path d="M1614.3 2441.95L1563.78 2275.39C2019.52 2136.99 2325.81 1724.13 2325.81 1248.13C2325.81 1116.83 2302.39 988.422 2256.08 866.856L2418.69 805.02C2472.63 946.584 2500 1095.52 2500 1248.39C2499.74 1801.23 2143.98 2280.92 1614.3 2441.95Z" fill="url(#paint0_linear_108_2)"/>
<path d="M2278.71 933.428C2139.51 479.265 1726.13 174.297 1249.87 174.297C1185.14 174.297 1120.41 180.086 1057.26 191.401L1026.47 20.1029C1099.62 6.94637 1174.88 0.10498 1249.87 0.10498C1802.97 0.10498 2283.18 354.541 2445.01 882.117L2278.71 933.428Z" fill="#69D3A7"/>
<path d="M79.9916 1688.09C26.8393 1547.57 0 1399.43 0 1248.13C0 603.463 483.896 69.5714 1125.67 6.42017L1142.77 179.56C590.464 234.028 173.929 693.453 173.929 1248.13C173.929 1378.38 197.085 1506 242.606 1626.78L79.9916 1688.09Z" fill="url(#paint1_linear_108_2)"/>
<path d="M1939.8 835.807L1698.51 1447.32L1455.37 835.807H1256.45L1597.46 1670.46L1349.07 2273.02L1523 2307.76L2127.67 835.807H1939.8Z" fill="white"/>
<path d="M1380.38 2197.24L1343.81 2285.92C1335.39 2306.18 1316.18 2320.12 1294.6 2320.91C1279.6 2321.44 1264.87 2321.97 1249.61 2321.97C772.024 2321.97 346.806 2002.26 215.504 1544.42L48.1528 1592.31C200.768 2124.09 694.664 2495.63 1249.34 2495.89H1249.61C1266.97 2495.89 1284.34 2495.63 1301.71 2494.84C1390.91 2491.16 1470.63 2435.11 1504.84 2352.23L1554.31 2231.98L1380.38 2197.24Z" fill="url(#paint2_linear_108_2)"/>
</g>
<defs>
<linearGradient id="paint0_linear_108_2" x1="2595.76" y1="1256.03" x2="1479.77" y2="1978.59" gradientUnits="userSpaceOnUse">
<stop offset="0.081" stop-color="#69D3A7"/>
<stop offset="1" stop-color="#69D3A7" stop-opacity="0"/>
</linearGradient>
<linearGradient id="paint1_linear_108_2" x1="833.817" y1="15.8823" x2="132.712" y2="1502.85" gradientUnits="userSpaceOnUse">
<stop stop-color="#69D3A7"/>
<stop offset="0.823" stop-color="#2AB586"/>
<stop offset="1" stop-color="#1CAE7F"/>
</linearGradient>
<linearGradient id="paint2_linear_108_2" x1="-1.76823" y1="1819.51" x2="1836.63" y2="2396.47" gradientUnits="userSpaceOnUse">
<stop offset="0.077" stop-color="#1CAE7F"/>
<stop offset="0.164" stop-color="#1CA379"/>
<stop offset="0.316" stop-color="#1C8568"/>
<stop offset="0.516" stop-color="#1B554D"/>
<stop offset="0.719" stop-color="white"/>
</linearGradient>
<clipPath id="clip0_108_2">
<rect width="2500" height="2496" fill="white"/>
</clipPath>
</defs>
</svg>
