<svg xmlns="http://www.w3.org/2000/svg" xml:space="preserve" id="Layer_1" x="0" y="0" style="enable-background:new 0 0 512 512" version="1.1" viewBox="0 0 512 512"><style>.st0{fill:#f6f5f4}.st5{filter:url(#a)}.st6{opacity:.104}.st12{fill:#deddda}.st13{fill:#c0bfbc}.st14{fill:#9a9996}</style><filter id="a" width="100%" height="100%" x="0%" y="0%"><feColorMatrix in="SourceGraphic" values="0 0 0 0 1 0 0 0 0 1 0 0 0 0 1 0 0 0 1 0"/></filter><path d="M201.2 253.5H241v159.1h-39.8z" class="st0"/><linearGradient id="SVGID_1_" x1="1521.513" x2="-263.417" y1="-1129.518" y2="-1129.518" gradientTransform="matrix(.1838 0 0 -.1834 55.767 73.438)" gradientUnits="userSpaceOnUse"><stop offset="0" style="stop-color:#9a9996"/><stop offset=".036" style="stop-color:#f6f5f4"/><stop offset=".106" style="stop-color:#c0bfbc"/><stop offset=".894" style="stop-color:#c0bfbc"/><stop offset=".939" style="stop-color:#deddda"/><stop offset="1" style="stop-color:#9a9996"/></linearGradient><path d="m41.6 77 182.3-27.8L330.5 159v323.1c0 17.2-9.6 29.8-25.8 29.8H41.6c-16.2 0-29.2-13.9-29.2-31.1V108.1C12.3 90.9 25.4 77 41.6 77" style="fill:url(#SVGID_1_)"/><linearGradient id="SVGID_00000004525188417819599660000005475977619341643670_" x1="-236.373" x2="1494.469" y1="-671.114" y2="-671.114" gradientTransform="matrix(.1838 0 0 -.1834 55.767 73.438)" gradientUnits="userSpaceOnUse"><stop offset="0" style="stop-color:#c0bfbc"/><stop offset=".895" style="stop-color:#c0bfbc"/><stop offset=".942" style="stop-color:#deddda"/><stop offset="1" style="stop-color:#9a9996"/></linearGradient><path d="M234.4 316.9h51.2v14.6h-51.2zm0-36.5h51.2V295h-51.2zm0-36.4h51.2v14.6h-51.2zm0-36.5h51.2v14.6h-51.2zm0-36.5h51.2v14.6h-51.2zM66.3 134.5h219.3v14.6H66.3zm0-36.4h138.9v14.6H66.3zm0-36.5h138.9v14.6H66.3z" style="fill:url(#SVGID_00000004525188417819599660000005475977619341643670_)"/><linearGradient id="SVGID_00000072270120857039147320000012969458337053462693_" x1="-236.373" x2="1494.469" y1="2334.692" y2="2334.692" gradientTransform="matrix(.1838 0 0 .1834 55.767 -166.128)" gradientUnits="userSpaceOnUse"><stop offset="0" style="stop-color:#c0bfbc"/><stop offset=".895" style="stop-color:#c0bfbc"/><stop offset=".942" style="stop-color:#deddda"/><stop offset="1" style="stop-color:#9a9996"/></linearGradient><path d="M66.3 353.4h153.5V170.9H66.3z" style="fill:url(#SVGID_00000072270120857039147320000012969458337053462693_)"/><linearGradient id="SVGID_00000000913397844114778320000005430802384345341625_" x1="-236.373" x2="1494.469" y1="2334.692" y2="2334.692" gradientTransform="matrix(.1838 0 0 .1834 55.767 -166.128)" gradientUnits="userSpaceOnUse"><stop offset="0" style="stop-color:#c0bfbc"/><stop offset=".895" style="stop-color:#c0bfbc"/><stop offset=".942" style="stop-color:#deddda"/><stop offset="1" style="stop-color:#9a9996"/></linearGradient><path d="M66.3 353.4h153.5V170.9H66.3z" style="fill:url(#SVGID_00000000913397844114778320000005430802384345341625_)"/><defs><filter id="Adobe_OpacityMaskFilter" width="318.1" height="45.7" x="12.3" y="422.5" filterUnits="userSpaceOnUse"><feColorMatrix values="1 0 0 0 0 0 1 0 0 0 0 0 1 0 0 0 0 0 1 0"/></filter></defs><mask id="k_00000108284265726524986450000011440074620691340978_" width="318.1" height="45.7" x="12.3" y="422.5" maskUnits="userSpaceOnUse"><g class="st5"><path d="M192 192h128v128H192z" class="st6"/></g></mask><g style="mask:url(#k_00000108284265726524986450000011440074620691340978_)" transform="translate(-8 -16)"><radialGradient id="SVGID_00000179644239340942988790000007148295592227318951_" cx="225.309" cy="-870.59" r="159.068" gradientTransform="matrix(1.3125 -.03125 -.00967 -.4061 -5.448 136.726)" gradientUnits="userSpaceOnUse"><stop offset="0" style="stop-color:#000"/><stop offset="1" style="stop-color:#000;stop-opacity:0"/></radialGradient><path d="M47.2 483.5c-9.9-2-21.4-1.6-24.2-10.8-.9-2.9-2.7-6.2-2.7-20.4v-6.5l3.6 11.6c2 6.6 10.2 11.3 17.3 13.2 7.2 1.9 272.1 1.9 277.9-.1 6.8-2.3 11.8-6.8 15.4-13.8l4-18.3v24.9c-3.2 12.8-8.7 16.7-17.3 20.7l-134.8.2c-71.6.1-132.5-.2-138.7-.7-.3.1-.4 0-.5 0" style="fill:url(#SVGID_00000179644239340942988790000007148295592227318951_)"/></g><linearGradient id="SVGID_00000054257687706189530450000001214865263515951027_" x1="-236.373" x2="1494.469" y1="-671.114" y2="-671.114" gradientTransform="matrix(.1838 0 0 -.1834 55.767 73.438)" gradientUnits="userSpaceOnUse"><stop offset="0" style="stop-color:#000"/><stop offset="1" style="stop-color:#000;stop-opacity:0"/></linearGradient><path d="M234.4 316.9h51.2v14.6h-51.2zm0-36.5h51.2V295h-51.2zm0-36.4h51.2v14.6h-51.2zm0-36.5h51.2v14.6h-51.2zm0-36.5h51.2v14.6h-51.2zM66.3 134.5h219.3v14.6H66.3zm0-36.4h138.9v14.6H66.3zm0-36.5h138.9v14.6H66.3z" style="fill:url(#SVGID_00000054257687706189530450000001214865263515951027_)"/><linearGradient id="SVGID_00000013890647872592503120000016558041328063640469_" x1="-236.373" x2="1494.469" y1="2334.692" y2="2334.692" gradientTransform="matrix(.1838 0 0 .1834 55.767 -166.128)" gradientUnits="userSpaceOnUse"><stop offset="0" style="stop-color:#000"/><stop offset="1" style="stop-color:#000;stop-opacity:0"/></linearGradient><path d="M66.3 353.4h153.5V170.9H66.3z" style="fill:url(#SVGID_00000013890647872592503120000016558041328063640469_)"/><linearGradient id="SVGID_00000004506930352800559790000008659505925452100779_" x1="-236.373" x2="1494.469" y1="2334.692" y2="2334.692" gradientTransform="matrix(.1838 0 0 .1834 55.767 -166.128)" gradientUnits="userSpaceOnUse"><stop offset="0" style="stop-color:#000"/><stop offset="1" style="stop-color:#000;stop-opacity:0"/></linearGradient><path d="M66.3 353.4h153.5V170.9H66.3z" style="fill:url(#SVGID_00000004506930352800559790000008659505925452100779_)"/><path d="M223.9 49.3v80.3c0 16.2 13.2 28.9 29.3 28.9h80.3z" class="st12"/><path d="M41.5 49.3h182.4l106.6 109.8v268.4c0 16.2-10.2 30.3-26.3 30.3H41.5c-16.2 0-29.2-13-29.2-29.2V78.4c0-16.1 13-29.1 29.2-29.1" class="st12"/><path d="M62 382.8h109.4v19.9H62zm0-39.8h238.6v19.9H62zm0-39.8h238.6v19.9H62z" class="st13"/><path d="M181.3 193.9h79.5v19.9h-79.5z" class="st14"/><path d="M62 94.4h109.4v19.9H62zm0 39.8h119.3v19.9H62z" class="st13"/><path d="M181.3 233.6h109.4v19.9H181.3z" class="st14"/><path d="M207.7 0c-16.2 0-26.4 13.7-26.4 29.8v382.8h29.8V253.5H241v119.3h29.8V253.5h29.8v59.7h29.8v-59.7h24.9v159.1h29.8V253.5H410v188.9h29.8V253.5h29.8v159.1h29.8V253.5l.2-144.4L390.1 0z" class="st0"/><path d="M390.1 0v80.2c0 16.2 13.2 28.9 29.3 28.9h80.2z" class="st12"/><path d="M410 253.5h29.8v159.1H410z" class="st0"/><linearGradient id="SVGID_00000083047515832390970400000015322467841010903468_" x1="62.029" x2="161.447" y1="340.019" y2="270.427" gradientTransform="matrix(1 0 0 -1 0 514)" gradientUnits="userSpaceOnUse"><stop offset="0" style="stop-color:#9141ac"/><stop offset="1" style="stop-color:#1c71d8"/></linearGradient><path d="M62 174h99.4v69.6H62z" style="fill:url(#SVGID_00000083047515832390970400000015322467841010903468_)"/><path d="M221.1 34.8h109.4v19.9H221.1zm0 39.8h129.2v19.9H221.1zM340.4 164h119.3v19.9H340.4zm0-39.7h79.5v19.9h-79.5zM62 263.5h119.3v19.9H62zm159.1-59.7h238.6v19.9H221.1z" class="st13"/><defs><filter id="Adobe_OpacityMaskFilter_00000119804471159932097450000015969052371896999095_" width="318.1" height="45.7" x="12.3" y="442.4" filterUnits="userSpaceOnUse"><feColorMatrix values="1 0 0 0 0 0 1 0 0 0 0 0 1 0 0 0 0 0 1 0"/></filter></defs><mask id="q_00000017484493083678120980000002679859168726325157_" width="318.1" height="45.7" x="12.3" y="442.4" maskUnits="userSpaceOnUse"><g class="st5"><path d="M192 192h128v128H192z" class="st6"/></g></mask><g style="mask:url(#q_00000017484493083678120980000002679859168726325157_)" transform="translate(-8 -16)"><radialGradient id="SVGID_00000090257184123351409290000005576101364732815284_" cx="225.021" cy="-909.676" r="159.068" gradientTransform="matrix(1.3125 -.03125 -.00967 -.4061 -5.448 140.726)" gradientUnits="userSpaceOnUse"><stop offset="0" style="stop-color:#000"/><stop offset="1" style="stop-color:#000;stop-opacity:0"/></radialGradient><path d="M47.2 503.4c-9.9-2-21.4-1.6-24.2-10.8-.9-2.9-2.7-6.2-2.7-20.4v-6.5l3.6 11.6c2 6.6 10.2 11.3 17.3 13.2 7.2 1.9 266.3 3.1 272.4 2.6 9.2-.8 18.5-6 20.8-16.5l4-18.3v24.9c-3.2 12.8-8.7 16.7-17.3 20.7l-134.8.2c-71.6.1-132.5-.2-138.7-.7z" style="fill:url(#SVGID_00000090257184123351409290000005576101364732815284_)"/></g><path d="M410 422.5h29.8v19.9H410zm59.6-29.8h29.8v19.9h-29.8zm-114.3 0h29.8v19.9h-29.8zm-54.7-99.4h29.8v19.9h-29.8zM241 352.9h29.8v19.9H241zm-59.7 39.8h29.8v19.9h-29.8z" class="st13"/><linearGradient id="SVGID_00000053542024090613280210000017558487748073690262_" x1="221.097" x2="320.515" y1="399.67" y2="330.078" gradientTransform="matrix(1 0 0 -1 0 514)" gradientUnits="userSpaceOnUse"><stop offset="0" style="stop-color:#c061cb"/><stop offset="1" style="stop-color:#3584e4"/></linearGradient><path d="M221.1 114.3h99.4v69.6h-99.4z" style="fill:url(#SVGID_00000053542024090613280210000017558487748073690262_)"/></svg>