<svg xmlns="http://www.w3.org/2000/svg" xml:space="preserve" id="svg974" x="0" y="0" version="1.1" viewBox="25.74 0.03 460.5 511.95"><style>.st0{fill:#774b85}</style><g id="layer1" transform="translate(-464.656 15.775)"><path id="path1916" d="M720.7 496.2c-11 0-21.9-2.9-31.5-8.4l-167.3-96.6c-19.4-11.3-31.4-32-31.5-54.4V143.5c0-22.5 12-43.2 31.5-54.4L689.2-7.5c19.5-11 43.4-11 62.9 0l167.3 96.6c19.4 11.3 31.4 32 31.5 54.4v193.2c0 22.4-12 43.2-31.5 54.4l-167.2 96.6c-9.6 5.6-20.5 8.5-31.5 8.5" class="st0"/><path id="path2" d="M720.7 16.8c-5.3 0-10.5 1.4-15.1 4.1l-167.3 96.5c-9.3 5.4-15.1 15.3-15.1 26.1v193.2c0 10.8 5.8 20.7 15.1 26.1l167.3 96.6c9.3 5.3 20.8 5.3 30.1 0L903 362.8c9.3-5.4 15.1-15.3 15.1-26.1V143.5c0-10.8-5.8-20.7-15.1-26.1L735.8 20.8c-4.6-2.6-9.8-4.1-15.1-4" style="fill:#fff"/></g><g id="layer10"><path id="path1881" d="M228.8 113.1c-9 0-16.3 7.3-16.3 16.3v54.4c0 9 7.3 16.3 16.3 16.3h16.3v32.6h-87c-11.9 0-21.8 9.9-21.8 21.8v32.6H120c-9 0-16.3 7.3-16.3 16.3V358c0 9 7.3 16.3 16.3 16.3h54.4c9 0 16.3-7.3 16.3-16.3v-54.4c0-9-7.3-16.3-16.3-16.3h-16.3v-32.6h87v32.6h-16.3c-9 0-16.3 7.3-16.3 16.3V358c0 9 7.3 16.3 16.3 16.3h54.4c9 0 16.3-7.3 16.3-16.3v-54.4c0-9-7.3-16.3-16.3-16.3h-16.3v-32.6h87v32.6h-16.3c-9 0-16.3 7.3-16.3 16.3V358c0 9 7.3 16.3 16.3 16.3H392c9 0 16.3-7.3 16.3-16.3v-54.4c0-9-7.3-16.3-16.3-16.3h-16.3v-32.6c0-11.9-9.9-21.8-21.8-21.8h-87v-32.6h16.3c9 0 16.3-7.3 16.3-16.3v-54.4c0-9-7.3-16.3-16.3-16.3h-54.4z" style="fill:#ab90b4"/></g><g id="layer9"><path id="path1877-9" d="M375.7 287.2h-38.1c-9 0-16.3 7.3-16.3 16.3V358c0 9 7.3 16.3 16.3 16.3H392c9 0 16.3-7.3 16.3-16.3v-54.4c0-9-7.3-16.3-16.3-16.3h-16.3z" class="st0"/></g></svg>