<svg xmlns="http://www.w3.org/2000/svg" xml:space="preserve" id="Layer_1" x="0" y="0" version="1.1" viewBox="94.2 0.12 323.76 511.98"><style>.st44{fill:#87a3bd}</style><path d="M303.4 237.8v-5.9c0-3.1 0-6.2-.1-9.3v-9c0-3.2-.1-6.3-.2-9.5-1.5-1.4-1.5-1.4-2.3-4-.4-1.1-.7-2.2-1.1-3.3-.5-1.7-.5-1.7-1.1-3.3-.3-.9-.5-1.7-.8-2.5h-2.6c0-5.3 0-5.3-3.1-9.1-1.2-1.3-2.3-2.7-3.4-4-1.7-4.2-2.8-6.8-5.7-10.3-1.9-2.1-3.5-4.1-4.9-6.6-1.2-2.3-2.5-4.5-3.8-6.7-1.3-.4-2.6-.9-3.9-1.3v-2.6c-2.7-1.8-2.7-1.8-6.6-3.9-3.2-1.6-6.3-3.2-9.2-5.3-3.4-4.7-4.3-6.3-10.1-7.9-3.2-.6-5.4-1.2-8.2-2.8-7.2-4.7-13.1-5.9-21.6-6.2h-4.4c-12.6-.3-27.2-2.1-38.9 3.1-3.5 2.3-3.5 2.3-8.5 2.9-1.4.1-2.7.3-4.1.4-.4 1.3-.9 2.6-1.3 3.9-7.9 0-12.8 4-18.4 9.2-2.2 2.2-4.3 4.4-6.6 6.6-1.3.4-2.6.9-3.9 1.3-.4.9-.9 1.8-1.3 2.6-3.4 1.5-5 2.1-6.9 5.4-.3.8-.7 1.6-1 2.5h-2.6c-2.7 3-4 5.4-5.3 9.2-.4 1.3-.9 2.6-1.3 3.9-2.6 3.5-4.7 6.7-6.5 10.7-.9 2.1-1.8 4.3-2.7 6.4-4.5 9.1-5.9 16.7-5.8 26.8 0 1.6.1 3.2.1 4.8 0 5.7 0 11.3.4 17 1.6 1.3 1.6 1.3 1.8 4.1 1 6.5 2.2 12.4 4.7 18.5 1.3 3 2.5 5.9 3.5 9 .6 2.2 1.2 4.3 1.8 6.5.9 1.3 1.8 2.6 2.6 3.9 1.2 3 2.4 6.1 3.9 9 1.9 3.6 3.7 6.8 4.4 10.8.4 4.9.8 7.7 3.4 11.9 2.9 3.7 2.9 3.7 4.2 8.1.6 1.8.6 1.8 1.1 3.5.9.4 1.8.9 2.6 1.3 2 6.6 4.9 11.9 8.5 17.8.7 1.1 1.4 2.2 2 3.2l3.9 6.6c3.7 5.4 6.8 9.8 7.6 16.4.1 1.6.2 3.1.2 4.6h2.6c.5 3.9.5 3.9 1.3 7.9.9.4 1.8.9 2.6 1.3.4 1.3.9 2.6 1.3 3.9.9.4 1.8.9 2.6 1.3.4 2.2.9 4.4 1.3 6.6.9.4 1.8.9 2.6 1.3.8 2.4.8 2.4 1.2 5.3.5 2.9.5 2.9 1.4 5.3 1.3.4 2.6.9 3.9 1.3.4.9.9 1.8 1.3 2.6 1 3.6 2.1 7 4 10.2 4.4 6.7 7.5 13.5 10.5 20.9.6 1.6.6 1.6 1.2 3.1h3.9c.7 3.3.7 3.3 1.3 6.6h6.6c1.3-2.7 2.6-5.3 3.9-7.9 3.1-4.7 6-9.3 8.7-14.2 1-1.9 2-3.7 3.1-5.5.9-.4 1.8-.9 2.6-1.3.4-1.6.9-3.1 1.3-4.6.4-1.6.9-3.1 1.3-4.6.9-.4 1.8-.9 2.6-1.3.2-1.1.4-2.2.7-3.3.2-1.1.4-2.2.7-3.3.9-.4 1.8-.9 2.6-1.3.8-4.4 1.6-7.1 3.9-11.1 1.3-2.1 1.3-2.1 2.7-4.7 1.4-4.1 2.7-8.1 4.5-12 .7-1.4 1.4-2.8 2.1-4.1q1.8-3.75 3.9-7.5c.9-.4 1.8-.9 2.6-1.3.2-1.1.4-2.1.7-3.2.2-1.1.4-2.3.7-3.4 5.4-5.4 8.5-13.3 10.6-20.5 2.1-7.4 5.7-13.8 9.8-20.3 2.1-3.2 4-6.4 5.9-9.8 1.4-2.5 2.8-4.9 4.3-7.2 2.7-4.1 4.8-7.7 6.4-12.4.4-1.1.7-2.3 1.1-3.4 1.3-.7 1.3-.7 2.6-1.3.3-1.4.5-2.7.8-4 .2-1.9.2-1.9.5-3.9h2.6c.1-1.5.1-1.5.2-3.1.1-1.4.2-2.7.3-4 .2-3.9.2-3.9.8-7.4 2.6-2.6 2.6-2.6 3.3-7.2.2-1.6.4-3.1.7-4.6 2.9-2.9 2.9-2.9 3-9.5.5-.9.4-1.8.4-2.8m-72.5-.8c-2 4.9-4.4 9.2-7.9 13.1h-2.6v2.6c-6.7 5.9-12.7 6.3-21.4 6.2h-3.7c-7.4-.2-12.2-1-17.9-6.1-4.2-4.7-4.2-4.7-4.2-8h-2.6v-2.6H168c-3.4-5.1-3-10.5-3-16.4v-3c0-7.5.9-11.1 5.9-16.6 1.2-1.1 2.4-2.2 3.6-3.4 1.2-1.1 2.4-2.3 3.6-3.4 10.8-8.8 26.4-10 38.4-3.1.7 2 .7 2 1.3 3.9 1.3.4 2.6.9 3.9 1.3 1.7 2.2 1.7 2.2 3.4 4.9.5.9 1.1 1.8 1.6 2.7 4.9 9.2 5.5 17.7 4.2 27.9" style="fill:#508ac7"/><path d="M241.4 348.7h2.6c-2.6 5.3-2.6 5.3-3.9 7.6-1.5 3.1-1.5 3.1-2.6 7.6-1.3 4.4-1.3 4.4-3.9 7.1-.2.9-.4 1.8-.7 2.7-.2.8-.4 1.7-.7 2.5-.9.4-1.7.9-2.6 1.3-2.4 4.1-3.9 7.4-4.6 12.1-.7 4.1-1.4 5-4.6 7.6l-2.9 2.9-2.4 2.4c2.5-7.6 2.5-7.6 3.9-10.5h2.6l.3-3.3c.8-3.8 1.6-6.1 3.3-9.5l1.4-2.8c.5-.9 1-1.9 1.5-2.9.9-1.8 1.8-3.7 2.7-5.5 1.3-2.7 1.3-2.7 2.7-5.4.5-.9.9-1.8 1.4-2.8 2.1-3.8 4.1-7.5 6.5-11.1" style="fill:#487bb6"/><path d="M292.6 192.4c.4.8.7 1.5 1.1 2.3 1.4 2.9 1.4 2.9 3.2 5.5 6.8 11 5.7 23.1 4.9 35.6l-1.3 1.3c-.7 4.7-1.3 9.4-1.8 14.2-.8 4.2-.8 4.2-3.4 6.9-.1 1.5-.3 3-.4 4.6-.6 6.1-3.1 10.5-5.9 15.8-1.4 2.9-2.2 5.2-2.8 8.4-2 9.4-7.3 18.8-14.5 25h-2.6c.1 1.2.2 2.4.2 3.7-.2 4.2-.2 4.2-2 6.2-.7.7-1.5 1.3-2.2 2-2.6 4.6-4.3 9-5.7 14-1.5 4.7-1.8 5.4-6.2 8.1-1.3.5-2.5 1-3.9 1.5-.9 1.3-1.7 2.6-2.6 3.9l-2.7 1.2c-2.8 1.2-2.8 1.2-3.5 4.2-.1.8-.2 1.6-.3 2.5.9-1.7 1.7-3.5 2.6-5.3h3.9v6.6c-.9.4-1.7.9-2.6 1.3-.2 1.1-.4 2.2-.7 3.3-.2 1.1-.4 2.2-.7 3.3-.9.4-1.7.9-2.6 1.3-.9 4-.9 4-1.3 7.9h-3.9c.1 1.3.2 2.5.3 3.9 0 5.4-1.8 9.4-4.2 14.3-1.5 2.9-1.5 2.9-2.7 6.2-1.4 3.3-2.9 5.8-5 8.7-4.6 6.7-8.4 13.7-12.1 20.8h-2.6l-.6 2.4c-.6 2.3-1.3 4.6-2.1 6.8H202c-.4 2.6-.9 5.2-1.3 7.9h-3.9c-.4-2.6-.9-5.2-1.3-7.9h-2.6c-1.5-5.6-1-10.1 0-15.8l6.6 6.6c.4-.9.9-1.8 1.4-2.7 6.1-12.2 12.2-24.5 18.3-36.7h2.6l.3-3.3c.8-3.8 1.6-6.1 3.3-9.5.5-.9.9-1.8 1.4-2.8.5-.9 1-1.9 1.5-2.9.9-1.8 1.8-3.7 2.7-5.5l2.7-5.4c.5-.9.9-1.8 1.4-2.8 1.9-3.9 3.9-7.6 6.3-11.2h2.6c.5-1.3.5-1.3 1-2.7 1.9-4.6 4.2-8.9 6.5-13.3.5-.9.9-1.7 1.4-2.6 2.7-4.9 5.4-9.8 8.4-14.6 6.5-10.7 11.1-21.4 15.2-33.2 1.9-5.1 4.2-9.7 6.8-14.5 8.3-17.8 9.1-39 8-58.3l-1.3-1.3c-.2-3.5-.1-7 0-10.5h2.6z" style="fill:#47739e"/><path d="M123.2 296.1c2.1 2 2.1 2 3.9 5.3 0 3.6-.7 6.9-1.3 10.5h2.6c.4 3 .9 6.1 1.3 9.2 1.3.4 2.6.9 3.9 1.3v6.6h3.9v3.9h2.6c.4-1.3.9-2.6 1.3-3.9 10.5 16.4 10.5 16.4 14.4 22.7 1.2 1.9 2.4 3.8 3.7 5.7 1.9 3.7 2.5 6.9 3 11-4.2-2.1-4.9-6.3-6.6-10.5-1.1-2.9-1.1-2.9-3.9-4-.2 4.5-.2 4.5 0 9.2l2.6 2.6v3.9h2.6c.5 1.7 1 3.3 1.6 5 4.1 13.6 4.1 13.6 12.9 23.9.9 2.2 1.8 4.4 2.6 6.6 1.3 1.3 2.6 2.7 3.9 3.9v2.6h2.6V405h2.6v2.6h2.6c3.9 7.4 3.9 7.4 3.9 11.8h2.6c1.1 7.4 1.4 13.7 0 21h2.6c.4 2.6.9 5.2 1.3 7.9h3.9c.4-2.6.9-5.2 1.3-7.9h3.9l.6-2.4c.6-2.3 1.3-4.6 2.1-6.8h2.6c.4-1.2.7-2.3 1.1-3.5 1.8-5.1 4.3-9.1 7.3-13.6 8-11.7 13.5-22.5 15.3-36.7h3.9v-7.9c1.3-.4 2.6-.9 3.9-1.3v-6.6c1.3-.4 2.6-.9 3.9-1.3-1.3-2.6-1.3-2.6-2.6-5.3l-6.6 6.6c2.3-7.6 2.3-7.6 5.3-10.5h3.9c.3-.8.6-1.6.9-2.5 1.7-2.8 1.7-2.8 4.9-3.8 3.6-1.3 3.6-1.3 5-4.7.4-1.2.7-2.5 1.1-3.8 1.9-5.9 4.3-10.3 7.8-15.4.4-1.6.9-3.1 1.3-4.8 1.4-4.7 2.8-6.6 6.6-9.7 1.3.7 1.3.7 2.6 1.3-1.3 2.4-2.5 4.7-3.8 7.1-.7 1.3-1.4 2.6-2.1 4-2 3.4-2 3.4-4.6 6-2.1 4.5-3.8 8.7-5.1 13.5-2.2 7.3-5.2 15.2-10.7 20.6-.2 1.1-.4 2.2-.7 3.4-.2 1.1-.4 2.1-.7 3.2-1.3.7-1.3.7-2.6 1.3q-2.1 3.6-3.9 7.5c-1 2-1 2-2.1 4.1-1.8 4-3.1 7.9-4.5 12-1.4 2.5-1.4 2.5-2.7 4.7-2.3 4-3.1 6.7-3.9 11.1-1.3.7-1.3.7-2.6 1.3-.2 1.1-.4 2.2-.7 3.3-.2 1.1-.4 2.2-.7 3.3-1.3.7-1.3.7-2.6 1.3-.4 1.5-.9 3-1.3 4.6-.4 1.5-.9 3-1.3 4.6-1.3.7-1.3.7-2.6 1.3-1.1 1.8-2.1 3.6-3.1 5.5-2.7 4.9-5.6 9.5-8.7 14.2-1.4 2.6-2.7 5.2-3.9 7.9h-6.6c-.4-2.2-.9-4.3-1.3-6.6h-3.9c-.4-1-.8-2-1.2-3.1-3-7.4-6.1-14.2-10.5-20.9-2-3.2-3-6.6-4-10.2-.4-.9-.9-1.7-1.3-2.6-1.3-.4-2.6-.9-3.9-1.3-.9-2.4-.9-2.4-1.4-5.3-.5-2.8-.5-2.8-1.2-5.3-1.3-.7-1.3-.7-2.6-1.3-.4-2.2-.9-4.4-1.3-6.6-1.3-.7-1.3-.7-2.6-1.3-.4-1.3-.9-2.6-1.3-3.9-.9-.4-1.7-.9-2.6-1.3-.8-4-.8-4-1.3-7.9h-2.6c-.1-1.5-.2-3-.2-4.6-.8-6.6-3.9-11-7.6-16.4l-3.9-6.6c-.7-1.1-1.3-2.1-2-3.2-3.6-5.9-6.5-11.2-8.5-17.8-.9-.4-1.7-.9-2.6-1.3-.4-1.2-.8-2.3-1.1-3.5-1.3-4.5-1.3-4.5-4.3-8.3-2.8-4.4-2.9-6.7-2.5-11.8h2.6c.5-1.9 1-4 1.4-6.3" style="fill:#436e99"/><path d="M200 182.9c1.7 0 3.4 0 5.2-.1 4.4.3 7.4 1 11.3 2.9v2.6c1.4.2 2.7.5 4.1.7 6.2 1.8 9.7 5.6 13 11.1 1.3 4.9 1.3 4.9 1.3 9.2-.9 1.3-1.7 2.6-2.6 3.9-2.6-2.6-2.6-2.6-2.8-6.1.1-1 .1-2.1.2-3.1-1.3-.4-2.6-.9-3.9-1.3-.7-1.3-.7-1.3-1.3-2.6-1.1-.7-2.2-1.3-3.4-2-1.1-.7-2.1-1.3-3.2-2v-2.6c-6.3-2.5-12-3.1-18.6-3-.9 0-1.9 0-2.8-.1-5.3-.1-5.3-.1-9.8 2.3-.5.7-1.1 1.4-1.6 2.1-1.5.8-2.9 1.5-4.4 2.3-5.4 2.9-8.3 6.9-11.3 12.1-.5.7-1 1.5-1.5 2.2-1.8 4.6-1.5 9.3-1.4 14.2v3c0 4.7.3 8.9 1.6 13.4h2.6v2.6h2.6c1.9 2.2 1.9 2.2 3.9 5 1 1.4 1 1.4 2.1 2.8l4.5 6.6c3 .5 6.1 1 9.2 1.3l1.3 1.3c2 .1 3.9.2 5.9.2h3.2c2.7.1 2.7.1 4-1.5 1.4-.2 2.9-.3 4.4-.5 4.8-.8 6.5-1.7 10.1-4.8h2.6c.2-1.2.2-1.2.5-2.5.8-2.8.8-2.8 3.4-5.4.8-2.7.8-2.7 1.3-5.3h3.9c-.1-1.6-.2-3.1-.2-4.8 0-5.5 1.7-8.7 4.2-13.6.7-3.9 1.1-7.8 1.3-11.8h1.3c1.2 7.1 1.5 13.8 1.3 21v4.4c-2.9 10.4-10.9 19.7-19.7 25.8h-2.6v2.6c-.8.3-1.7.5-2.5.8-1.1.4-2.2.7-3.3 1.1s-2.2.7-3.3 1.1c-2.7.8-2.7.8-4 2.3-7 .4-11.8-.2-18.4-2.6-3.1-.5-6.1-.9-9.2-1.3v-3.9c-1.2-.6-1.2-.6-2.4-1.1-2.9-1.5-2.9-1.5-6.8-4.1v-2.6h-2.6c-1.3-2.6-2.6-5.2-3.9-7.9-1.3.7-1.3.7-2.6 1.3l-.6-4.5c-.2-4.4-.2-4.4-2.1-6-.8-11.6-.8-23.3 3.9-34.1 1.3-1.3 2.6-2.7 3.9-3.9.4-1.3.9-2.6 1.3-3.9 3.1-3.8 6.8-5.8 11.1-8 1.9-1 1.9-1 3.8-2.1 6.2-2.8 11.4-3 18.5-3.1" style="fill:#4e7ca8"/><path d="M210.5 124.3c2.2 0 2.2 0 4.5.1 13.9.5 13.9.5 19.8 6.2v3.9l3.6.4c4.3.9 6.3 2 9.5 4.8h-2.6c-.4 1.7-.9 3.5-1.3 5.3v-2.6c-2.6-.4-5.2-.9-7.9-1.3v-3.9l-4.6-.6q-5.4-.6-10.8-1.5c-15.6-2.2-30.6-1.7-46.3-.6v1.3c.9.4 1.7.9 2.6 1.3-3.2 1.8-6.1 2.9-9.7 3.9-8 2.3-14.4 6.3-20.9 11.4-.7.6-1.5 1.2-2.2 1.7-10.6 8.4-19.2 17.3-26.2 28.9-1.3-2.6-1.3-2.6-.6-5.2.4-.9.8-1.9 1.2-2.9s.8-1.9 1.1-2.9c.3-.7.6-1.5.9-2.2h-1.3l-2.6 2.6h-3.9l-.3 2.1c-1.3 4.3-3.6 7.4-6.2 11-1.3.7-1.3.7-2.6 1.3 1.2-3.4 2.4-6.2 4.6-9.1 2.2-2.7 2.2-2.7 3.3-6.6 1.3-3.8 2.5-6.2 5.3-9.2h2.6c.3-.8.7-1.6 1-2.5 1.9-3.3 3.5-3.9 6.9-5.4.4-.9.9-1.7 1.3-2.6 1.3-.4 2.6-.9 3.9-1.3l6.6-6.6c5.6-5.2 10.5-9.2 18.4-9.2.4-1.3.9-2.6 1.3-3.9 1.4-.1 2.7-.3 4.1-.4 5-.6 5-.6 8.5-2.9 11.6-5 26.3-3.1 39-2.8" style="fill:#5789b8"/><path d="M295.3 411.7c.9.4 1.7.9 2.6 1.3 1.1 3.3 1.3 5.7 1.3 9.2-2.7 2.5-5.4 4.7-8.3 7l-2.7 2.1c-11.1 8.6-22.4 16.9-33.7 25.1l-3.3 2.4c-3.2 2.3-6.4 4.7-9.7 7-1 .7-2 1.4-3 2.2-10.1 7.3-10.1 7.3-14.3 9.4-3-1.1-3-1.1-5.3-2.6 2.6-.7 2.6-.7 5.3-1.3v-4c1-6.9 5.9-9.9 11.2-13.9l3-2.4 9.3-7.2 2.7-2.1c6-4.6 12.1-9.2 18.3-13.7 1-.8 2.1-1.5 3.2-2.3 3.3-2.4 6.5-4.8 9.8-7.1 1.5-1.1 1.5-1.1 3.1-2.2 1.4-1 1.4-1 2.9-2.1.8-.6 1.7-1.2 2.6-1.8 2.3-1.7 2.3-1.7 5-3" style="fill:#4176be"/><path d="M121.9 166.1c0 5.1-1.9 7.6-4.4 12-3.9 6.9-6.1 13.1-7.4 20.8-.8 3.1-1.7 6.1-2.6 9.2h-2.6c-1 20.2-1 20.2 3.8 39.6 2.3 5.9 3.3 12.1 4.6 18.3.7 3.9.7 3.9 2.1 7.8-.6 2.9-.6 2.9-1.3 5.3-1.7-.4-3.5-.9-5.3-1.3v-6.6c-1.3-.4-2.6-.9-3.9-1.3-4.4-7.6-6.1-16.2-7.4-24.8-.2-2.8-.2-2.8-1.8-4.1-.4-5.7-.4-11.3-.4-17 0-1.6-.1-3.2-.1-4.8-.1-16.4 5.2-27.5 14.9-40.4 1.7-2.3 1.7-2.3 2.7-6.1q3.15-2.1 6.6-3.9c.8-.9 1.6-1.8 2.5-2.7" style="fill:#5583ad"/><path d="m415.4 324.1-3.3-3c-4.7-4.8-8.8-9.5-15.8-10.4-1.3 0-2.6-.1-3.9-.1V308h3.9l2.6-2.6c1.5-8.7 1.5-8.7 1.5-42.5v-13.2c0-17.7-.3-35.4-1.3-53.1-.6-10.3-2.6-20.2 3.7-29 1.4-1.7 2.7-3.5 4-5.3 2.3-6.4 1.5-12.3-1.1-18.4-3.2-5.4-7.5-10.8-13.6-12.7-.8-.1-1.6-.3-2.3-.4v-5.3c-7.8-3.7-15.6-7.1-23.7-9.9-52.3-18-100.3-47.6-147-76.7 1.7-8.1 4.2-16.1.7-23.9-1.7-1.9-1.7-1.9-3.4-3.7-3.1-4-6-6.8-10.5-9.2-8.1-2-16.8-3.4-24.6.5-5.6 4.7-10.4 10.4-11.4 17.9 0 1.4 0 2.7.1 4 0 4 0 4 .4 7.9 2.8 8.5 7.7 17.9 15.8 22.3 6.4 1.2 11.6.5 17.4-2.5 3.8-2.2 7-3.5 11.5-4 1.1 4.3 1.8 7.2 5.2 10.1 1.2.6 2.3 1.3 3.5 1.9 2.3 1.2 4.5 2.5 6.8 3.6 1 .5 1.9 1 2.9 1.5 22.5 11.6 45.4 22.5 68.2 33.4 2.5 1.2 5 2.4 7.6 3.6 1.3.6 2.5 1.2 3.7 1.8 10.8 5.1 21.5 10.4 32.2 15.8 6.3 3.2 12.5 6.5 19.2 8.9l3 .9c-1.3 2-1.3 2-2.6 3.9-6.7 8.1-10.3 13.6-9.6 24.4 1 7.3 3 12.6 8.7 17.7l3.4 2.4c3.7 2.7 5.8 4.1 10.4 4.4 1-.1 1.9-.2 2.9-.3 0 2.1 0 4.3-.1 6.4v2.7c0 5.4 0 10.7.4 16.1 1.4 28.1 1.4 28.1 1.7 56.3.1 5 .1 10 .2 15 .2 10.7.3 21.5.4 32.2-3.9 0-3.9 0-7.9 2.6-5.9 5.9-8.3 11.7-8.6 19.9v2.8c0 3.5.2 6.6.7 10.1 2 3.5 3.3 4.9 6.8 6.9.8.3 1.6.7 2.4 1v2.6c-2.9 0-2.9 0-8.7 3.8-.9.6-1.7 1.1-2.5 1.7-9.9 6.6-19.5 13.6-29.1 20.5-10.3 7.5-20.6 15-31.2 22-11.3 7.5-22.4 15.3-33.4 23.4-1 .7-1.9 1.4-2.9 2.1-6.1 4.5-12.2 9-18.3 13.7l-2.7 2.1c-3.1 2.4-6.3 4.8-9.3 7.2l-3 2.4c-5.3 4-10.2 7-11.2 13.9v4h-6.6c-.7-2.8-.7-2.8-2.6-6.6-4.8-5-9.5-8.4-16.6-8.8-5 .4-8 1.9-11.7 5.5-1.9 2-1.9 2-4.3 3.8-5.4 4.3-9.9 8.5-12.1 15.2-1.1 7.7-.9 13.3 3.9 19.7 8.6 6.1 17.6 8.8 28 9.7 4.7-.7 6.7-2.5 10.1-5.8 7-8.4 10.3-15.3 9.5-26.2l-.3-2.7h3.9c2.4-2.6 2.4-2.6 4.8-4.2.9-.6 1.7-1.2 2.6-1.7 1-.7 2-1.3 3-2 13.1-8.8 25.7-18.1 38.2-27.8 5.1-3.9 10.2-7.8 15.3-11.6 5.3-4 10.7-7.9 15.9-12.1 22.6-18.4 47.9-33.5 73.9-46.7 3.6-1.8 7-3.6 10.5-5.6.4-1.3.9-2.6 1.3-3.9 5.5.6 10.8 1.1 15.9-1.3 4.7-3.6 7.1-7.3 9-12.8 2-7.9 3.6-16.3-.5-23.6M208.2 35c-3.1 4.3-5.7 7.3-10.1 10.3-3.8.6-3.8.6-7.9 0-5.1-4-8.3-8.3-10.5-14.4.1-7.4 2.2-12.5 6.6-18.4 4.8-1.6 8.4-1.7 13.1 0l4.8 1.6c4.4 2.3 4.4 2.3 6.4 5.3 1 5.9.7 10.4-2.4 15.6M206 499.7c-4.5 3-6.5 2.8-11.6 2-6.3-1.6-11-4.4-14.6-9.9-.7-5-.2-7.5 2.1-12 6.2-7.5 10.5-10.3 19.9-7.6 4.8 2 7.4 3.7 10.8 7.7.2 7.2-2.7 13.9-6.6 19.8m173.3-327c-6.8-2.1-9.9-5.7-13.3-11.7-2.2-5.2-2-9.7-.1-15 2.4-3.4 4.9-4.7 8.9-5.7 5.4-.6 10.8-.6 16.3-.5.5 1.1.5 1.1 1.1 2.3.5 1 1 1.9 1.4 2.9.5 1 .9 1.9 1.4 2.9 1.1 2.4 1.1 2.4 2.6 3.7 0 7.8-2.7 12-8 17.6-3.4 3-5.7 3.8-10.3 3.5m25.8 175.5c-2.6 3.1-3.9 4.3-8 4.9-7.9-.6-13.6-2.6-18.9-8.5-2.5-6.5-1.6-13.5 1.1-19.9 3.9-6.3 13.6-3.4 19.8-2.3 4.1 1.8 7.1 3.8 9.2 7.9 1 6.7.4 12-3.2 17.9" style="fill:#4076be"/><path d="M292.6 192.4c.5 1.1.5 1.1 1.1 2.3 1.4 2.9 1.4 2.9 3.2 5.5 6.8 11 5.7 23.1 4.9 35.6l-1.3 1.3c-.7 4.7-1.3 9.4-1.8 14.2-.8 4.2-.8 4.2-3.4 6.9l-.4 4.6c-.6 6.1-3.1 10.5-5.9 15.8-1.4 2.9-2.2 5.3-2.9 8.5-1.4 6.7-4.7 12.4-7.9 18.4-1.3-3.5-1.5-4.8 0-8.3.9-1.6.9-1.6 1.9-3.3 3.1-5.8 4.1-9.5 3.4-16-.9-.4-1.7-.9-2.6-1.3.7-4.9 1.1-7.6 3.9-11.8 5.8-18.3 7.6-36.1 6.6-55.2l-1.3-1.3c-.2-3.5-.1-7 0-10.5h2.6c-.1-1.9-.1-3.6-.1-5.4" style="fill:#5883aa"/><path d="M123.2 296.1c2.1 2 2.1 2 3.9 5.3 0 3.6-.7 6.9-1.3 10.5h2.6c.4 3 .9 6.1 1.3 9.2 1.3.4 2.6.9 3.9 1.3v6.6h3.9v3.9h2.6c.4-1.3.9-2.6 1.3-3.9 10.5 16.4 10.5 16.4 14.4 22.7 1.2 1.9 2.4 3.8 3.7 5.7 1.9 3.7 2.5 6.9 3 11-4.2-2.1-4.9-6.3-6.6-10.5-1.1-2.9-1.1-2.9-3.9-4-.2 4.5-.2 4.5 0 9.2l2.6 2.6v3.9h2.6c.4 2.6.9 5.2 1.3 7.9-4.5-4-6.6-7.7-9.2-13.1-4.3-8.3-8.9-16.1-14.4-23.6-3-4.5-4.2-7.9-5.3-13.1-.9-.4-1.7-.9-2.6-1.3-.4-1.2-.8-2.3-1.1-3.5-1.3-4.5-1.3-4.5-4.3-8.3-2.8-4.4-2.9-6.7-2.5-11.8h2.6c.6-2.3 1.1-4.4 1.5-6.7" style="fill:#4e79a3"/><path d="M199 189.4c.9 0 1.9-.1 2.8-.1 6.3 0 10.5.9 16 4.4.9 1.3 1.7 2.6 2.6 3.9 1.7.9 3.5 1.8 5.3 2.6 4.2 3.2 5.1 6.9 6.6 11.8l1.3 1.3c.1 2.1.1 4.3.1 6.4v12.2c0 3.4 0 6.8-.1 10.2h-3.9c-.2 1.4-.2 1.4-.4 2.9-1.5 6-3.7 9.3-8.5 13.2-4.6 2.5-8.3 3.1-13.5 3.6l-1.3 1.3c-2 .1-3.9.2-5.9.2h-3.2c-2.7-.2-2.7-.2-4-1.5-1.5-.1-2.9-.2-4.4-.3-4.8-1-4.8-1-7.3-4.4-.5-1.1-.9-2.1-1.4-3.2.7.4 1.5.9 2.2 1.3 5.4 2.4 11 1.8 16.8 1.7 1.2 0 2.5 0 3.8.1h6.9c3.7-.6 5.4-2.1 8.3-4.4h2.6V250c.8-.8 1.6-1.5 2.4-2.3 5.8-5.9 7.4-11.7 7.4-19.9-.2-8.1-1.6-13.1-5.8-19.9-.7-1.9-.7-1.9-1.3-3.9-.7-1.3-.7-1.3-1.3-2.7-2.7-.9-2.7-.9-5.3-1.3-.7-2-.7-2-1.3-3.9-7.7-3.7-16.4-3.9-24.5-1.6-8.8 3.3-14.9 8-21.4 14.8 2.2-8.2 8.7-12.5 15.6-16.8.9-.5 1.8-1 2.8-1.6 2.5-2.5 7.7-1.4 11.3-1.5" style="fill:#9bb5cd"/><path d="M152.1 353.9c2.4.7 2.4.7 5.3 2.6 1.2 2.6 2 5.3 2.9 8 1.4 3.3 3.4 4.5 6.3 6.4v5.3h2.6v3.9h2.6c.4 2.6.9 5.2 1.3 7.9h2.6c.4 2.6.9 5.2 1.3 7.9h2.6c1.9 5.8 3.1 9.8 1.3 15.8h-2.6c-4.1-4.4-6.6-7.2-7.9-13.1-1.3-.9-2.6-1.7-3.9-2.6-5.2-8.4-8.8-16.4-9.2-26.3h-2.6c-3.4-4.2-4-6.1-3.5-11.6z" style="fill:#4774a1"/><path d="M115.3 276.4c2.4.8 2.4.8 5.3 2.6 1.8 3.7 1.8 3.7 3.4 8.1.6 1.5 1.1 3.1 1.7 4.7.5 1.4 1 2.8 1.5 4.3.7 1.8 1.5 3.5 2.2 5.3 1.1 2.5 2.1 5.1 3 7.6 1.2 3.3 1.2 3.3 5.3 5.5 1.5 3 1.5 3 2.8 6.5.4 1.1.9 2.3 1.3 3.5.8 2.4 1.7 4.7 2.5 7.1h2.6c.4 2.2.9 4.3 1.3 6.6l-6.6-6.6c-2 .7-2 .7-3.9 1.3V329h-3.9l-.4-3c-.6-3.6-.6-3.6-3-5.5-1.9-2-1.9-2-2.1-5.5.1-1 .2-2 .2-3h-2.6c.1-4 .1-4 .1-8 0-2.7 0-2.7-1.4-5.2-.9 1.3-1.7 2.6-2.6 3.9h-2.6c-3-4.5-3.2-7.8-3.9-13.1l-1.3-1.3q.15-3 .6-6c.1-1.1.3-2.2.4-3.3-.1-.9 0-1.7.1-2.6" style="fill:#4a78a6"/><path d="M238.8 212.1h1.3c1.2 7.1 1.5 13.8 1.3 21v4.4c-2.5 9-9.1 18.1-17.1 23.1-4.3.9-4.3.9-7.9 1.3-.4 1.3-.9 2.6-1.3 3.9-5.3 1.3-10.1 1.4-15.5 1.4h-8.1c3.5-2.4 5.4-3.1 9.4-4 4.8-.7 4.8-.7 6.4-2.5 1.4-.2 2.9-.3 4.4-.5 4.8-.8 6.5-1.7 10.1-4.8h2.6c.2-.8.3-1.6.5-2.5.8-2.8.8-2.8 3.4-5.4.8-2.7.8-2.7 1.3-5.3h3.9c-.1-1.6-.2-3.1-.2-4.8 0-5.5 1.7-8.7 4.2-13.6.7-3.8 1-7.7 1.3-11.7" style="fill:#4776a2"/><path d="M292.6 192.4c.4.8.8 1.7 1.2 2.5 1.2 2.6 1.2 2.6 2.7 4 .1 4 .2 7.9.1 11.9v22.9c0 6.4 0 12.7-.1 19.1h-2.6c-.4 4.3-.9 8.7-1.3 13.1-2.2.9-4.3 1.7-6.6 2.6.2-1.4.2-1.4.5-2.7 3.3-18.8 6.1-37.2 4.8-56.4l-1.3-1.3c-.2-3.5-.1-7 0-10.5h2.6z" style="fill:#4e7fae"/><path d="M241.4 348.7h2.6c-2.6 5.3-2.6 5.3-3.9 7.6-1.5 3.1-1.5 3.1-2.6 7.6-1.3 4.4-1.3 4.4-3.9 7.1-.2.9-.4 1.8-.7 2.7-.2.8-.4 1.7-.7 2.5-.9.4-1.7.9-2.6 1.3-3.1 5.3-4.3 9.8-5.3 15.8-1.3.7-1.3.7-2.6 1.3-.9 2.6-1.8 5.2-2.6 7.9-2.1 4.5-4.4 8.7-7.1 12.8-3.3 5.1-5.4 10.3-7.4 16-1.2 2.8-1.2 2.8-3.8 5.4-2.6-.1-2.6-.1-5.3-1.3-1.7-3.1-1.7-3.1-2.6-6.6.4-1.3.9-2.6 1.3-3.9 1.7 2.2 3.5 4.3 5.3 6.6.4-.9.9-1.8 1.4-2.7 6.1-12.2 12.2-24.5 18.3-36.7h2.6l.3-3.3c.8-3.8 1.6-6.1 3.3-9.5.5-.9.9-1.8 1.4-2.8.5-.9 1-1.9 1.5-2.9.9-1.8 1.8-3.7 2.7-5.5l2.7-5.4c.5-.9.9-1.8 1.4-2.8 1.9-3.9 3.9-7.6 6.3-11.2" style="fill:#4375ae"/><path d="M274.2 306.6c.9.4 1.7.9 2.6 1.3-1.3 2.4-2.5 4.7-3.8 7.1-.7 1.3-1.4 2.6-2.1 4-2 3.4-2 3.4-4.6 6-2.1 4.5-3.8 8.7-5.1 13.5-2.9 9.6-7.2 17.5-14.1 24.9-3.2 3.9-5 8.2-7.1 12.8h-1.3v-6.6c2-.7 2-.7 3.9-1.3v-6.6c2-.7 2-.7 3.9-1.3-.9-1.7-1.7-3.5-2.6-5.3l-6.6 6.6c2.3-7.6 2.3-7.6 5.3-10.5h3.9c.3-.8.6-1.6.9-2.5 1.7-2.8 1.7-2.8 4.9-3.8 3.6-1.3 3.6-1.3 5-4.7.4-1.2.7-2.5 1.1-3.8 1.9-5.9 4.3-10.3 7.8-15.4.4-1.6.9-3.1 1.3-4.8 1.6-4.6 3-6.5 6.7-9.6" style="fill:#527ca4"/><path d="M220.4 402.5c.8 2.5.8 2.5 1.3 5.3l-2.6 2.6c-.8 2.7-.8 2.7-1.3 5.3h-2.6c-.1.8-.1 1.6-.2 2.4-.1 1.1-.2 2.1-.3 3.2s-.2 2.1-.3 3.2c-.5 3-.5 3-3.2 6.9h-2.6l-.6 2.4c-.6 2.3-1.3 4.6-2.1 6.8H202c-.4 2.6-.9 5.2-1.3 7.9h-3.9c-.4-2.6-.9-5.2-1.3-7.9h-2.6c-1.5-6.2-1.5-6.2 0-9.2h2.6c.4 1.3.9 2.6 1.3 3.9 2.5-.2 2.5-.2 5.3-1.3 1.8-2.9 1.8-2.9 3.1-6.5 3.7-9 7.9-18.3 15.2-25" style="fill:#416d98"/><path d="M295.3 191.1h2.6c.3.8.5 1.7.8 2.5.5 1.6.5 1.6 1.1 3.3.4 1.1.7 2.2 1.1 3.3.8 2.7.8 2.7 2.3 4 .1 3.2.2 6.3.2 9.5v9c0 3.1 0 6.2.1 9.3v8.7c0 6.6 0 6.6-3 9.5-.2 1.5-.4 3-.7 4.6-.7 4.6-.7 4.6-3.3 7.2-.6 3.5-.6 3.5-.8 7.4-.1 1.3-.2 2.6-.3 4-.1 1-.1 2-.2 3.1h-2.6c-.2 1.3-.3 2.5-.5 3.9-.3 1.3-.5 2.7-.8 4-1.3.7-1.3.7-2.6 1.3-.4 1.1-.7 2.2-1.1 3.4-1.9 5.6-4.9 10.1-8.1 15 0-4.1.5-5.4 2.5-8.9 2.5-4.8 3.9-9.5 5.4-14.8.9-2 1.8-3.9 2.7-5.8 1.9-4 2.9-7.4 3.4-11.8.5-4.7.5-4.7 3.1-7.3.6-3.1 1-6.2 1.4-9.3 1.1-9 1.1-9 2.5-10.4.3-4.1.2-8.2.2-12.2v-9.9c-.4-3.2-1.4-5.3-2.9-8.1-.6-2.5-1.1-5-1.5-7.6-.2-1.3-.4-2.6-.7-3.9 0-1-.2-2-.3-3" style="fill:#9eb7cc"/><path d="M207 122.1c5.3 1.3 10.9 1.2 16.4 1.4 7.2.4 7.2.4 10.1 3.3 1.4.1 2.8.3 4.2.4 5.5 1 7.9 2.6 12.1 5.9 2.1 1.7 2.1 1.7 5 3 2.3 1.2 2.3 1.2 4.2 3.9 1.9 2.9 1.9 2.9 5.3 3.9 4.3 1.8 6 4.2 8.6 8-.9.4-1.7.9-2.6 1.3v-2.6c-.7-.1-1.5-.2-2.2-.3-4-1.3-6.4-3.6-9.6-6.2-1.1-.7-2.2-1.3-3.4-2-3.2-2-3.2-2-5.7-4.7-3.7-3.4-7.2-3.9-12-5.2-2.2-1.3-2.2-1.3-4.5-2.6-7.3-3.7-14.6-3.6-22.6-3.7-1.5 0-3-.1-4.6-.1-12.4-.3-24.4-.1-36.5 2.5 2.6-3.9 2.6-3.9 6.1-4.9 23.3-3.5 23.3-3.5 31.7-1.3" style="fill:#b0c8de"/><path d="M248 360.5c.7 2.6.7 2.6 1.3 5.3-.9.4-1.7.9-2.6 1.3q-2.1 3.6-3.9 7.5c-1 2-1 2-2.1 4.1-1.8 4-3.1 7.9-4.5 12-1.4 2.5-1.4 2.5-2.7 4.7-2.3 4-3.1 6.7-3.9 11.1-1.3.7-1.3.7-2.6 1.3-.2 1.1-.4 2.2-.7 3.3-.2 1.1-.4 2.2-.7 3.3-1.3.7-1.3.7-2.6 1.3-.4 1.5-.9 3-1.3 4.6-.4 1.5-.9 3-1.3 4.6-1.3.7-1.3.7-2.6 1.3-1.1 1.8-2.1 3.6-3.1 5.5-7.3 13.5-7.3 13.5-11.3 15.5.4-.7.7-1.4 1.1-2.1 2.7-5.6 5-11.4 7.4-17.1 2.7-6 6.1-11.3 9.8-16.7 7.1-10.7 11.7-20.9 13.2-33.7 1.3-.4 2.6-.9 3.9-1.3 1.8-2.6 1.8-2.6 3.4-5.7 1.8-3.6 3.6-6.8 5.8-10.1" style="fill:#c8d5e1"/><path d="M169.2 202.9c-.8 3.9-1.6 5.8-3.9 9.2-.4 3.2-.4 3.2-.3 6.9v4c0 1.4 0 2.8.1 4.2v4.2c0 2.6.1 5.2.1 7.7.1 7 .1 7-1.3 9.7H160l-.6-4.5c-.2-4.4-.2-4.4-2.1-6-1.6-24.7-1.6-24.7 5.8-33.8 2.1-1.6 2.1-1.6 6.1-1.6" style="fill:#4978a5"/><path d="M200.1 182.9h2.7c4.9 0 6.9.2 11 2.9-2.2 0-2.2 0-4.4-.1-1.9 0-3.8 0-5.8-.1-1 0-1.9 0-2.9-.1-5 0-8.9 0-13.2 2.9v3.9c-3 2.5-3 2.5-7 5.3-6.1 4.2-6.1 4.2-11.4 9.2v-3.9c-2.6 1.3-5.2 2.6-7.9 3.9.9-1.8 1.8-3.5 2.6-5.3l1.2-2.7c2.9-5.3 7.2-7.7 12.5-10.6 1.2-.7 2.5-1.4 3.8-2.1 6.5-3 11.7-3.1 18.8-3.2" style="fill:#5283b0"/><path d="M97 201.6c0 4 0 7.9-.1 11.8 0 3.2 0 6.4-.1 9.7 0 1.6 0 3.2-.1 4.9v9c.3 4 1.3 6.8 2.9 10.5.1 1.4.3 2.7.4 4.1 1.1 5.9 3.3 10.6 5.9 16 1.4 3.2 2.4 6.2 3.1 9.6.7 4.6.7 4.6 3.7 7.1 1 2.3 1.9 4.7 2.8 7.1.5 1.3.9 2.5 1.4 3.9 1.1 3.5 1.1 3.5 1.1 7.4-3.9-6.1-3.9-6.1-3.9-10.5h-2.6q-2.1-3.15-3.9-6.6l-1.3-1.3-.6-4.5c-.3-4.7-.3-4.7-3.4-7.3-.8-2.7-1.3-5.4-1.9-8.2-.2-.8-.5-1.5-.7-2.3-.9-.4-1.7-.9-2.6-1.3v-9.2h-2.6c-.1-6.7-.1-13.4-.1-20.1 0-2.3 0-4.6-.1-6.8 0-3.3 0-6.5-.1-9.8v-3.1q0-3.75.3-7.5c.7-.9 1.6-1.7 2.5-2.6" style="fill:#bdcedd"/><path d="M100.9 234.4c.4.8.8 1.6 1.2 2.5l2.7 5.1c1.6 3.6 2.4 7.1 3.2 11 .7 2.9.7 2.9 3.4 6.4.8 2.4 1.5 4.7 2.2 7.1.4 1.2.7 2.5 1.1 3.8.6 3.5.5 5.5-.7 8.8-1.7-.4-3.5-.9-5.3-1.3v-6.6c-1.3-.4-2.6-.9-3.9-1.3-.2-.9-.3-1.9-.5-2.8-.2-1.2-.5-2.4-.7-3.7-.2-1.2-.5-2.4-.7-3.6-.4-2.9-.4-2.9-2-4.3-.1-3.5-.1-7-.1-10.6v-3c.1-2.6.1-5 .1-7.5" style="fill:#49759f"/><path d="M123.2 296.1c2.1 2 2.1 2 3.9 5.3 0 3.6-.7 6.9-1.3 10.5h2.6c.4 3 .9 6.1 1.3 9.2 1.3.4 2.6.9 3.9 1.3.2 1.5.3 2.9.5 4.4.4 4.8.4 4.8 3.4 7.4 1.1 2.9 1.9 5.9 2.8 8.9 1.2 3.1 2.7 4.5 5.1 6.8-.4 2.9-.4 2.9-1.3 5.3-.6-.9-1.1-1.9-1.7-2.9l-4.2-6.9c-3.6-5.9-6.5-11.2-8.5-17.8-.9-.4-1.7-.9-2.6-1.3-.4-1.2-.8-2.3-1.1-3.5-1.3-4.5-1.3-4.5-4.3-8.3-2.8-4.4-2.9-6.7-2.5-11.8h2.6c.5-2.2 1-4.3 1.4-6.6" style="fill:#4f779e"/><path d="M152.1 369.7c6.2 7.5 10.8 14.7 14.4 23.7 1.3 3 1.3 3 5.3 5.2.9 2.2 1.8 4.4 2.6 6.6 1.7 2.2 3.5 4.4 5.3 6.6 2.1 3.6 3.2 7 4 11.1.2 1 .4 2.1.7 3.1.2 1 .4 1.9.6 2.9.3 1.3.5 2.7.8 4 .2.8.3 1.7.5 2.5-4-5-6.7-10.3-9.2-16.2-.4-1.1-.9-2.1-1.3-3.2-.6-1.5-.6-1.5-1.2-3.1-1.3-2.9-1.3-2.9-5.3-3.7-.9-2.4-.9-2.4-1.4-5.3-.5-2.8-.5-2.8-1.2-5.3-.9-.4-1.7-.9-2.6-1.3-.4-2.2-.9-4.4-1.3-6.6-.9-.4-1.7-.9-2.6-1.3-.4-1.3-.9-2.6-1.3-3.9-.9-.4-1.7-.9-2.6-1.3-.8-4-.8-4-1.3-7.9h-2.6c-.3-2.2-.3-4.4-.3-6.6" style="fill:#bfcedc"/><path d="M296.6 248.9h1.3c.2 3.1.2 3.1 0 6.6l-2.6 2.6-.4 4.6c-.6 6.1-3.1 10.5-5.9 15.8-1.4 2.9-2.2 5.3-2.9 8.5-1.4 6.7-4.7 12.4-7.9 18.4-1.3-3.5-1.5-4.8 0-8.3.6-1.1 1.2-2.1 1.9-3.3 3.1-5.8 4.1-9.5 3.4-16-.9-.4-1.7-.9-2.6-1.3.7-4.9 1.1-7.6 3.9-11.8.9-3 1.8-6.1 2.6-9.2 2 4 .7 7.5 0 11.8 1.7-.4 3.5-.9 5.3-1.3 0-1.4-.1-2.9-.1-4.4.1-4.8.1-4.8 1.4-8.8h2.6z" style="fill:#4f7aa4"/><path d="M177.1 200.3c.9.4 1.7.9 2.6 1.3-1 1.1-2.1 2.1-3.1 3.2-3.7 4.4-4.7 8.5-5.6 14.1-.5 2.4-.5 2.4-1.8 3.7-.2 3.3-.2 3.3 0 6.6l1.3 1.3c.2 3.5.1 7 0 10.5h3.9c.4 2.6.9 5.2 1.3 7.9-.9-.4-1.7-.9-2.6-1.3V245h-2.6v-2.6h-2.6c-3.4-5.1-3-10.5-3-16.4v-3c0-7.8 1-11.3 6.3-16.8 1.1-1 2.2-2.1 3.3-3.1.8-1.1 1.7-1.9 2.6-2.8" style="fill:#d7e1eb"/><path d="M224.3 251.5v3.9c-5.5 4.6-10 5.9-17.1 6.6l-1.3 1.3c-2 .1-3.9.2-5.9.2h-3.2c-2.7-.2-2.7-.2-4-1.5-1.5-.1-2.9-.2-4.4-.3-4.8-1-4.8-1-7.3-4.4-.5-1.1-.9-2.1-1.4-3.2.7.4 1.5.9 2.2 1.3 5.4 2.4 11 1.8 16.8 1.7 1.2 0 2.5 0 3.8.1h6.9c3.7-.6 5.4-2.1 8.3-4.4 4-1.3 4-1.3 6.6-1.3" style="fill:#7899b7"/><path d="M199 189.4c.9 0 1.9-.1 2.8-.1 6.3 0 10.5.9 16 4.4.9 1.3 1.7 2.6 2.6 3.9 1.7.9 3.5 1.8 5.3 2.6 2.4 1.8 2.4 1.8 3.9 3.9-.4 2.9-.4 2.9-1.3 5.3v-2.6c-1.3-.4-2.6-.9-3.9-1.3-.7-2-.7-2-1.3-3.9-2.9-2.1-2.9-2.1-6.6-3.9-1.4-.7-2.8-1.5-4.2-2.2-8.4-3.4-16.7-2.6-25.1.6-7.3 3.2-12.5 7.7-18 13.5 2.2-8.2 8.7-12.5 15.6-16.8.9-.5 1.8-1 2.8-1.6 2.6-2.8 7.8-1.7 11.4-1.8" style="fill:#608bb2"/><path d="M169.2 129.4c-1.3 1.3-1.3 1.3-5.9 1.9-1.5.2-3 .5-4.6.7-.4.9-.9 1.7-1.3 2.6-1.8.8-3.6 1.6-5.4 2.3-5.5 2.3-9.4 5.2-13.7 9.3-1.9 1.5-1.9 1.5-4.5 1.5-.4 1.3-.9 2.6-1.3 3.9h-3.9c-.4 1.3-.9 2.6-1.3 3.9-.9-.4-1.7-.9-2.6-1.3.9-2.2 1.7-4.3 2.6-6.6h2.6V145h5.3c.4-1.7.9-3.5 1.3-5.3h2.6v-2.6c2.6-.4 5.2-.9 7.9-1.3.4-1.3.9-2.6 1.3-3.9 3.4-1.3 3.4-1.3 7.6-2.3 1.4-.3 2.8-.7 4.2-1 3.6-.5 5.6-.5 9.1.8" style="fill:#c6d7e6"/><path d="M208.6 431.4h2.6c-1.3 3.5-2.6 6.5-4.6 9.7-2.3 4.1-3.4 8.1-4.6 12.6h-6.6c-.4-2.2-.9-4.3-1.3-6.6h-3.9c-1.3-3.9-2.6-7.8-3.9-11.8 1.7.4 3.5.9 5.3 1.3v3.9h3.9c.4 2.6.9 5.2 1.3 7.9h3.9c.4-2.6.9-5.2 1.3-7.9h3.9l.6-2.4c.6-2.2 1.3-4.5 2.1-6.7" style="fill:#6e90ae"/><path d="M152.1 353.9c3.4 1.3 5 2.2 6.9 5.4.4 1 .8 2.1 1.3 3.2.4 1 .8 2.1 1.3 3.2.5 1.4.5 1.4 1.1 2.7.4.9.9 1.7 1.3 2.6.1 2.6.1 5.3 0 7.9-1.7-.4-3.5-.9-5.3-1.3-.4-2.6-.9-5.2-1.3-7.9h-2.6c-3.4-4.2-4-6.1-3.5-11.6.2-1.4.5-2.8.8-4.2" style="fill:#45719a"/><path d="M274.2 306.6c.9.4 1.7.9 2.6 1.3-1.3 2.4-2.5 4.7-3.8 7.1-.7 1.3-1.4 2.6-2.1 4-2 3.4-2 3.4-4.6 6-2.1 4.5-3.8 8.7-5.1 13.5-2.4 7.8-5.1 16-12 20.6 1.7-5.8 3.5-11.4 6.6-16.6 2.7-4.3 2.7-4.3 3.9-9.1 1.4-4.9 3.7-8.1 6.6-12.4.7-2.4.7-2.4 1.3-4.8 1.5-4.6 2.9-6.5 6.6-9.6" style="fill:#7999b5"/><path d="M295.3 233.1h1.3v19.7H294c-.4 4.3-.9 8.7-1.3 13.1-2.2.9-4.3 1.7-6.6 2.6 1.4-8.5 3.6-16.2 6.7-24.3 1.3-3.6 2-7.2 2.5-11.1" style="fill:#44729e"/><path d="M210.6 124.4c1.5 0 3 .1 4.6.1l4.4.2c1.3 0 2.6.1 3.9.1 3.9.7 5.8 1.9 8.7 4.5-2.6.1-5.3.1-7.9 0L223 128c-3.2-.1-6.3-.2-9.5-.2h-8.9c-3.1 0-6.2 0-9.3-.1h-8.7c-4.8 0-6.8.2-11 3-4.2.2-4.2.2-7.9 0 5.4-5.9 11.4-5.9 19-6.4 8.1-.4 16-.1 23.9.1" style="fill:#78a1c7"/><path d="M127.2 305.3c.4.9.9 1.7 1.3 2.6h2.6c.3.9.6 1.7.9 2.6 1.5 3.4 3.1 6 5.2 9.1 3 4.6 3.8 7.7 3.1 13.2h-2.6v-3.9h-3.9c-.1-1-.3-2-.4-3-.6-3.6-.6-3.6-3-5.5-1.9-2-1.9-2-2.1-5.5.1-1 .2-2 .2-3h-2.6c.4-2.2.8-4.3 1.3-6.6" style="fill:#436f99"/><path d="M242.7 353.9h3.9v6.6c-1.3.7-1.3.7-2.6 1.3-.2 1.1-.4 2.2-.7 3.3-.2 1.1-.4 2.2-.7 3.3-1.3.7-1.3.7-2.6 1.3-.9 4-.9 4-1.3 7.9h-5.3c1.4-8.3 4.3-17 9.3-23.7m-13.1 25c1.3.7 1.3.7 2.6 1.3-1.3.7-1.3.7-2.6 1.3z" style="fill:#426f99"/><path d="M219.1 260.7c2 .7 2 .7 3.9 1.3-1.3.4-2.6.9-3.9 1.3v2.6c-1.3.4-1.3.4-2.5.8-1.1.4-2.2.7-3.3 1.1-1.6.5-1.6.5-3.3 1.1-2.7.8-2.7.8-4 2.3-7 .4-11.8-.2-18.4-2.6-3.1-.5-6.1-.9-9.2-1.3v-3.9h2.6v2.6c4.5 0 8.9.1 13.4.1h10.9c6.6-.3 6.6-.3 12.2-3.5.5-.7 1.1-1.3 1.6-1.9" style="fill:#4f81b2"/><path d="M216.5 196.3v1.3c-6.8.1-13-.1-19.7-1.3l-1.3 1.3c-2 .1-4 .1-6 .1h-5.8v2.6c-1.3-.4-2.6-.9-3.9-1.3 11.9-7.8 23.9-9.3 36.7-2.7" style="fill:#d1dde9"/><path d="M237.5 128c5.2.8 8.8 2.3 13.3 5 1.1.7 2.2 1.3 3.4 2 3.1 2.2 4.8 4.4 7 7.4 1.1.4 2.1.8 3.2 1.2 4.3 1.8 6 4.2 8.6 8-.9.4-1.7.9-2.6 1.3v-2.6c-.7-.1-1.5-.2-2.2-.3-4-1.3-6.4-3.6-9.6-6.2-1.1-.7-2.2-1.3-3.4-2-3.2-2-3.2-2-5.8-4.7-2.9-2.8-5.5-3.7-9.2-5.2-1-1.2-1.8-2.5-2.7-3.9" style="fill:#dde7f1"/><path d="M272.9 153c2.5 1 2.5 1 5.3 2.6.5 1.7.9 3.5 1.3 5.3 1.3.4 2.6.9 3.9 1.3.2.8.4 1.6.6 2.5.5 3 .5 3 3.3 4.6 3.6 2.8 4 5.7 5.3 10 .9.4 1.7.9 2.6 1.3-.4 1.7-.9 3.5-1.3 5.3-1.3-1.4-2.5-2.8-3.8-4.2l-2.1-2.4c-2-2.7-2-2.7-3.3-5.9-2-4.8-5.2-8.3-8.5-12.3-1.9-2.8-2.7-4.7-3.3-8.1" style="fill:#c8d8e6"/><path d="M169.2 397.2c2.6 1.3 2.6 1.3 3.8 4.3 1.7 4.1 4 6.8 6.7 10.2 2.1 3.6 3.2 7 4 11.1.3 1.5.3 1.5.7 3.1.3 1.4.3 1.4.6 2.9.3 1.3.5 2.7.8 4 .2.8.3 1.7.5 2.5-8.6-10.6-13.8-24.9-17.1-38.1" class="st44"/><path d="M292.6 268.6h2.6v7.9h-2.6c-.2 1.3-.3 2.5-.5 3.9-.3 1.3-.5 2.7-.8 4-1.3.7-1.3.7-2.6 1.3-.5 1.7-.5 1.7-1.1 3.4-1.9 5.6-4.9 10.1-8.1 15 0-4.1.5-5.4 2.5-8.9 2.5-4.8 3.9-9.5 5.4-14.8 1.6-4 3.4-7.9 5.2-11.8" style="fill:#c8d5e2"/><path d="M276.9 305.3h1.3c.7 5.6-1 8.8-3.9 13.5-1.5 2.3-1.5 2.3-2.5 5.6-1.9 4.4-4.8 7.4-8 11.1-.9 1.3-1.7 2.6-2.6 3.9 1.4-9 5.4-16.2 10.2-23.7 2-3.3 3.8-6.8 5.5-10.4" style="fill:#c9d6e2"/><path d="M102.2 262c3.8 5.7 5.7 10.6 7.1 17.3.6 2.7.6 2.7 3.4 5 1 2.3 1.9 4.7 2.8 7.1.5 1.3.9 2.5 1.4 3.9 1.1 3.5 1.1 3.5 1.1 7.4-3.9-6.1-3.9-6.1-3.9-10.5h-2.6q-2.1-3.15-3.9-6.6l-1.3-1.3-.6-4.5c-.3-4.7-.3-4.7-3.4-7.3-.4-3.5-.2-7-.1-10.5" style="fill:#b2c5d6"/><path d="M189 119.6h24c4 .6 5.2 1.3 7.6 4.4-1.6 0-3.3.1-4.9.1h-2.8c-2.8-.1-2.8-.1-5.3-.8-9.6-2.3-20.6-.6-30.3.7 3.2-4.5 6.2-4.3 11.7-4.4" style="fill:#dee8f1"/><path d="M230.9 392c.4.9.9 1.7 1.3 2.6-3.1 7.1-7 13.3-11.3 19.6-2 3-3.9 6.1-5.8 9.3-1.5-4.9-1.5-4.9 0-7.9h2.6c.1-.9.3-1.9.4-2.9 1-4.1 2.4-6.9 4.8-10.3h2.6l.4-3.8c1.1-4 1.1-4 5-6.6" style="fill:#6085a7"/><path d="M190.2 183.2c-1.1.5-1.1.5-2.3 1.1-3.8 2-7.4 4.4-11 6.8-2.5 1.3-2.5 1.3-6.4 1.3-.4 1.3-.9 2.6-1.3 3.9h-2.6c-.2.8-.3 1.5-.5 2.3-.9 3.1-2.1 4.9-4.1 7.5-2.4 3.2-4.4 6.2-6 9.8-.6-8 3.3-12.2 7.9-18.4 1.3-1.8 1.3-1.8 2.5-3.7 3.6-3.8 7.2-5.7 11.9-8.1.9-.5 1.8-1.1 2.8-1.6 3.2-1.2 5.8-1.1 9.1-.9" style="fill:#5d91c2"/><path d="M108.8 187.1c1.3 3.9 1.3 3.9.2 6.5l-1.5 2.7c-.5 1.9-.9 3.8-1.3 5.7q-1.65 7.8-3.9 15.3H101c-.1-2.8-.1-5.6-.2-8.4 0-1.6-.1-3.1-.1-4.7.3-4 .3-4 2.9-6.6.4-1.3.9-2.6 1.3-3.9 1.3-3.9 1.3-3.9 3.9-6.6" style="fill:#4879a6"/><path d="M182.3 422.2c2 1.3 2 1.3 3.9 2.6v2.6h2.6c.4-1.3.9-2.6 1.3-3.9.9.4 1.7.9 2.6 1.3 1.8 5.5 1 10.2 0 15.8-.9-1.3-1.7-2.6-2.6-3.9-1.3-.4-2.6-.9-3.9-1.3-1.2-3-1.2-3-2.2-6.6-.3-1.2-.7-2.4-1-3.7-.2-1-.4-1.9-.7-2.9" style="fill:#44709b"/><path d="M123.2 155.6c0 5.8-2.8 9.1-6.4 13.5-3.1 4.1-5.4 8.3-7.7 12.8-1.6 2.6-1.6 2.6-5.6 5.2 1.2-3.4 2.4-6.2 4.6-9.1 2.2-2.7 2.2-2.7 3.3-6.6 1.3-3.8 2.5-6.2 5.3-9.2h2.6c.4-.8.8-1.7 1.2-2.5 1.4-2.8 1.4-2.8 2.7-4.1" style="fill:#8faecb"/><path d="M127.2 321.1c7.2 6.8 10.6 12.8 13.3 22.2 1.2 3 2.8 4.4 5 6.7-.4 2.9-.4 2.9-1.3 5.3-.6-.9-1.1-1.9-1.7-2.9l-4.2-6.9c-3.6-5.9-6.5-11.2-8.5-17.8-.9-.4-1.7-.9-2.6-1.3z" style="fill:#aec1d3"/><path d="M104.8 208.1h1.3c0 1.4-.1 2.9-.1 4.3 0 1.9 0 3.8-.1 5.7 0 1.4 0 1.4-.1 2.8-.1 5.9.8 10.4 2.9 16 .3 3.4.3 3.4.2 6.4 0 1 0 2.1-.1 3.1 0 1.1 0 1.1-.1 2.3-4.6-8.5-5.6-15.7-5.5-25.2v-3.2c.1-4.4.2-7.8 1.6-12.2" style="fill:#5588ba"/><path d="M198.5 190.8c1.5 0 1.5 0 2.9.1 2.4 0 4.8.1 7.1.2.4.9.9 1.7 1.3 2.6l-3-.2c-11.5-.4-20.2 1.4-29.7 8.1-2.7 2.6-5.4 5.2-8 7.9 1.8-6.9 6.3-10.4 11.8-14.4 1-.7 1.9-1.4 2.9-2.2 5-2.4 9.4-2.3 14.7-2.1" style="fill:#8eadc9"/><path d="M110.1 166.1c1.3.4 2.6.9 3.9 1.3-2.1 5.2-4.4 10.1-7.2 15-3 5.4-5.2 10.7-7.2 16.5h-1.3c-.9-7.1 1.5-11.5 4.8-17.6 2.5-4.9 4.8-10 7-15.2" style="fill:#d1deea"/><path d="M219.1 414.3c.8 2.4.8 2.4 1.3 5.3-1.3 2-1.3 2-2.6 3.9-.3 1.1-.7 2.2-1 3.4-2.8 7.7-6.6 15.7-13.5 20.3.4-.7.7-1.4 1.1-2.1 2.7-5.6 5-11.4 7.4-17.1 1.8-3.9 3.7-7.4 6-11 .4-.9.8-1.8 1.3-2.7" style="fill:#a7bbcf"/><path d="M175.8 248.9h5.3c.7 1.1 1.4 2.1 2.2 3.2 3.5 3.8 4.2 3.9 9.1 4.3 2.3.1 4.6.1 6.8.1 1.7 0 1.7 0 3.5.1 2.9.1 5.7.1 8.6.1v-2.6c2.2-.4 4.3-.9 6.6-1.3-2.3 3.3-4.1 5-8.1 5.8-3.6.2-7.1.3-10.7.3-1.2 0-2.4.1-3.7.1-8 0-12.3-1.4-18-7-1.6-1.8-1.6-1.8-1.6-3.1" style="fill:#cedae6"/><path d="M248 360.5c.4 1.7.9 3.5 1.3 5.3-1.3.7-1.3.7-2.6 1.3-1.3 2.5-2.6 4.9-3.8 7.5-2.8 5.7-5.6 11-9.4 16.2 0-4.5.6-8.7 1.3-13.1 1.3-.4 2.6-.9 3.9-1.3 1.8-2.6 1.8-2.6 3.4-5.7 1.9-3.7 3.7-6.9 5.9-10.2" style="fill:#a5bacd"/><path d="M302.6 410c3.2 1.7 3.2 1.7 4.3 4.5.1.8.2 1.6.2 2.5-3.3 2-3.3 2-6.6 3.9-2-1.6-2-1.6-3.9-3.9-.2-3.5-.2-3.5 0-6.6 2.6-1.3 2.6-1.3 6-.4" style="fill:#818cdf"/><path d="M102.2 188.4h1.3c.3 7.4.3 7.4-2.6 11.8-.6 3.5-.6 3.5-.7 7.3-.4 6.9-.4 6.9-1.9 9.8h-2.6c-.6-9.7 1.3-16.2 5.3-25 .3-1.2.8-2.5 1.2-3.9" style="fill:#83a4c2"/><path d="M142.9 138.5c.9.4 1.7.9 2.6 1.3-1.5 1.3-2.9 2.6-4.4 3.9-1.2 1.1-1.2 1.1-2.5 2.2-2.3 1.7-2.3 1.7-4.9 1.7-.4 1.3-.9 2.6-1.3 3.9h-3.9c-.4 1.3-.9 2.6-1.3 3.9-.9-.4-1.7-.9-2.6-1.3.9-2.2 1.7-4.3 2.6-6.6h2.6v-2.6c1.2-.4 2.4-.7 3.6-1.1 3.9-1.2 6.4-2.6 9.5-5.3" style="fill:#b7ccdf"/><path d="M222.5 465.4c1 .1 2.1.1 3.1.2.1 2.6.1 5.3 0 7.9-1.3 1.3-1.3 1.3-4.7 1.4-1.6 0-1.6 0-3.2-.1-.8-3.1-.8-3.1-1.3-6.6 2.7-2.7 2.7-2.7 6.1-2.8" style="fill:#d2d7ef"/><path d="M182.3 405.1c.4.9.9 1.7 1.3 2.6h2.6c3.9 7.4 3.9 7.4 3.9 11.8h2.6v5.3c-3.6-1.3-5-2.2-6.9-5.6-.6-1.7-.6-1.7-1.3-3.5-.4-1.1-.9-2.3-1.3-3.5-.9-3.1-.9-3.1-.9-7.1" style="fill:#4376ae"/><path d="M167.9 209.5h1.3l-.3 4.5c-.1 2-.3 4-.4 6l-.2 3c-.4 6.7-.1 12.8 1 19.4-3.5-3.5-4-5.4-4.4-10.5 0-2 0-4 .1-6v-3c-.1-5.1 0-9.2 2.9-13.4" style="fill:#a2bbd1"/><path d="M295.3 191.1h2.6c.3.8.5 1.7.8 2.5.4 1.1.7 2.2 1.1 3.3s.7 2.2 1.1 3.3c.8 2.7.8 2.7 2.3 4 .1 2.9.1 5.7.1 8.6v8.5H302c-.3-2.6-.5-5.1-.8-7.7-.4-2.8-.4-2.8-1.8-5.3-1.7-3.4-2.2-6.6-2.8-10.3-.2-1.3-.4-2.6-.7-3.9q-.45-1.5-.6-3" style="fill:#a8bfd3"/><path d="M107.5 271.2h1.3v6.6c2.6.7 2.6.7 5.3 1.3.4-1.7.9-3.5 1.3-5.3v10.6c.1 3.6.6 6.9 1.4 10.4-3.1-3.8-4.8-7.3-6.6-11.8-.9-1.3-1.7-2.6-2.6-3.9-.3-4.2-.3-4.2-.1-7.9" style="fill:#5980a3"/><path d="M167.9 206.8c.4.9.9 1.7 1.3 2.6-.6 1-.6 1-1.2 2.1-2.1 4.7-1.7 9.3-1.7 14.3v3c0 4.7.3 8.9 1.6 13.4h-2.6c-1.9-5.6-1.6-11.1-1.6-17 0-1.2-.1-2.4-.1-3.6v-6.7c.4-3.5 1.9-5.3 4.3-8.1" style="fill:#688fb2"/><path d="M213.8 418.3c.5 8.6.5 8.6-2 11.7-.7.5-1.3.9-2 1.4-.4-1.3-.9-2.6-1.3-3.9-1.3.9-2.6 1.7-3.9 2.6 1.9-8.7 1.9-8.7 5.3-11.1 2.6-.7 2.6-.7 3.9-.7" style="fill:#48739c"/><path d="M145.5 355.2c4.9 3.3 7.1 6.6 8.8 12.2.1.7.3 1.5.4 2.2h2.6c.4 2.6.9 5.2 1.3 7.9-4.4-4-6.7-7.8-9.2-13.1l-2.2-3.6c-1.7-2.9-1.7-2.9-1.7-5.6" class="st44"/><path d="M251.9 138.5c9 2.8 15.5 5.3 21 13.1-1.3.7-1.3.7-2.6 1.3v-2.6c-.7-.1-1.5-.2-2.2-.3-4-1.3-6.4-3.6-9.6-6.2-1.2-.7-2.4-1.5-3.7-2.2-.9-.6-1.9-1.1-2.9-1.7z" style="fill:#c2d4e4"/><path d="M234.8 130.7c2.4.6 4.7 1.1 7.1 1.7 1.3.3 2.6.6 4 1 3.4 1.2 3.4 1.2 6 5.2-6.9.5-11-1-17.1-3.9z" style="fill:#87abcb"/><path d="M139 347.3c4.5 2.9 6.5 5.7 8.9 10.5.6 1.1 1.1 2.3 1.7 3.4 1.3 3.1 1.3 3.1 1.3 7.1-1.3-.9-2.6-1.7-3.9-2.6v-5.3c-1.3-.4-2.6-.9-3.9-1.3-2-3.8-3.2-7.6-4.1-11.8" style="fill:#d6e0e9"/><path d="M379.3 355.2c2.2.4 4.3.9 6.6 1.3-.4 2.2-.9 4.3-1.3 6.6-2.2-.4-4.3-.9-6.6-1.3.4-2.2.9-4.3 1.3-6.6" style="fill:#dee4f5"/><path d="M215.1 124.1c15.1-1.4 15.1-1.4 22 3.9 1.5 1.3 2.9 2.6 4.3 3.9-4.2 0-5.2-.5-8.7-2.5-5.8-3-11.1-3.7-17.6-4z" style="fill:#c6d8e7"/><path d="M211.2 436.6c.8 2.5.8 2.5 1.3 5.3l-2.6 2.6c-.4 1.1-.8 2.2-1.2 3.4-.5 1.1-.9 2.1-1.4 3.2-1.3.4-2.6.9-3.9 1.3.5-6.6 3.9-10.7 7.8-15.8" style="fill:#e2e9ef"/><path d="M259.8 339.5c0 4.5-1 6.6-3 10.6-.6 1.2-1.1 2.3-1.7 3.5-1.8 3-1.8 3-5.8 5.6 2.2-8.1 4.7-13.6 10.5-19.7" style="fill:#afc2d3"/><path d="M296.6 248.9h1.3c.2 3.1.2 3.1 0 6.6l-2.6 2.6c-.3 2.5-.6 5.1-.9 7.6-.7 4.4-2.5 8-4.4 12-.8-2.3-.8-2.3-1.3-5.3.4-.8.8-1.5 1.2-2.3 1.7-3.5 2.3-6.7 2.9-10.5.2-1.3.4-2.6.7-3.9.2-1 .3-2 .5-3h2.6z" style="fill:#6a8eaf"/><path d="M186.3 435.3c1.7.4 3.5.9 5.3 1.3 4.1 7.6 4.1 7.6 3.5 12.4l-.9 2.1v-3.9h-3.9c-1.4-4-2.7-7.9-4-11.9" style="fill:#9ab2c8"/><path d="M192.8 447.1c2.6 3.9 2.6 3.9 2.6 6.6 2.6-.4 5.2-.9 7.9-1.3v5.3h-7.9c-2.3-4.1-2.6-5.6-2.6-10.6" style="fill:#d0dce5"/><path d="M244 360.5h3.9c-2.6 5.3-5.3 10.5-7.9 15.8h-1.3v-6.6c1.3-.4 2.6-.9 3.9-1.3 0-1.1-.1-2.1-.1-3.2.2-3.4.2-3.4 1.5-4.7" style="fill:#6387a8"/><path d="M290 181.9c3.1 1.6 4.9 3.1 6.2 6.4 1.3 5 1.9 8.3.3 13.3-2.9-6.5-4.9-12.7-6.5-19.7" style="fill:#7ca0c0"/><path d="M119.3 302.7c5.1 5.5 6.4 9.9 7.9 17.1-4.3-2.9-5.7-4.6-7.9-9.2-.3-4.4-.3-4.4 0-7.9" style="fill:#a9bdd0"/><path d="M284.8 284.3c1.6 3.9 1.3 5.2-.3 9.2-1.1 2.1-1.1 2.1-2.3 4.2-.7 1.4-1.5 2.8-2.3 4.3l-1.8 3.3c-1.6-3.9-1.3-5.2.3-9.2.7-1.4 1.5-2.8 2.3-4.2.7-1.4 1.5-2.8 2.3-4.3.6-1.1 1.1-2.2 1.8-3.3" style="fill:#88a4bd"/><path d="M110.1 288.2c.4 1.3.9 2.6 1.3 3.9h2.6c3.8 8.7 3.8 8.7 5.3 13.1-2.5-.2-2.5-.2-5.3-1.3-2.2-5-3.1-10.2-3.9-15.7" style="fill:#dae3ec"/><path d="M179.7 254.1c2.6 1.3 2.6 1.3 5.3 2.6v2.6c6.5.4 13 .9 19.7 1.3v1.3c-14.8.3-14.8.3-21-1.3-2.6-3.3-2.6-3.3-4-6.5" style="fill:#6b8fb1"/><path d="m263.7 147.7 6.6 2.6v2.6c1.3.4 2.6.9 3.9 1.3.9 2.7.9 2.7 1.3 5.3-1.3-.4-2.6-.9-3.9-1.3v-2.6c-1.1-.3-2.1-.7-3.2-1-3.4-1.6-3.4-1.6-4.4-4.4-.1-.8-.2-1.6-.3-2.5" style="fill:#86a9c9"/><path d="M215.1 195c1.8.9 3.5 1.8 5.3 2.6l2.7 1.2c2.8 1.5 4.6 2.8 6.5 5.3-.4 2.9-.4 2.9-1.3 5.3v-2.6c-1.3-.4-2.6-.9-3.9-1.3-.4-1.3-.9-2.6-1.3-3.9q-3.3-2.1-6.6-3.9c-.5-.9-.9-1.8-1.4-2.7" style="fill:#7b9fc0"/><path d="M182.3 422.2c2 1.3 2 1.3 3.9 2.6v2.6h2.6c.4 2.6.9 5.2 1.3 7.9h-3.9c-1.2-4.3-2.5-8.6-3.9-13.1" style="fill:#6689aa"/><path d="M241.4 348.7h2.6c-3.1 6.1-6.1 12.3-9.2 18.4-.4-.9-.9-1.7-1.3-2.6 1.6-3.7 1.6-3.7 3.9-8 .7-1.4 1.5-2.9 2.3-4.4.5-1.2 1.1-2.3 1.7-3.4" style="fill:#4d81bc"/><path d="M209.9 125.4c2.7-.1 5.5-.2 8.2-.2 2.3-.1 2.3-.1 4.6-.1 4.5.4 6.2 1.2 9.5 4.3-2.6.1-5.3.1-7.9 0l-1.3-1.3c-2.2-.3-4.4-.5-6.6-.7-1.2-.1-2.4-.2-3.7-.3l-2.8-.2z" style="fill:#90b2d0"/><path d="M230.9 392c.4.9.9 1.7 1.3 2.6-.9 2.5-.9 2.5-2.4 5.3-.5.9-.9 1.9-1.4 2.8-1.5 2.3-1.5 2.3-4.1 3.6.3-1.9.7-3.8 1.1-5.7.2-1.1.4-2.1.6-3.2 1-2.8 1-2.8 4.9-5.4" style="fill:#819fb9"/><path d="m286.1 171.4 5.3 5.3c.8.7 1.6 1.3 2.4 2 .5.7 1 1.3 1.6 2-.6 2.7-.6 2.7-1.3 5.3-1.3-1.4-2.6-2.8-3.9-4.3-.7-.8-1.5-1.6-2.2-2.4-1.9-2.7-1.9-2.7-1.9-7.9" style="fill:#b4cadd"/><path d="M111.4 260.7c5.6 8.4 5.6 8.4 5.3 14.4h2.6v2.6c-3.9-1.3-3.9-1.3-5.2-3.6-.3-.9-.6-1.8-1-2.8-.3-.9-.7-1.8-1-2.7-.7-2.7-.7-2.7-.7-7.9" style="fill:#4f82b4"/><path d="M103.5 181.9c.9.4 1.7.9 2.6 1.3-3.3 7.8-3.3 7.8-6.6 15.8h-1.3c-.6-7.4 1.5-11.1 5.3-17.1" style="fill:#c4d6e4"/><path d="M190.2 120.2c-.4.9-.9 1.7-1.3 2.6-2.7.5-2.7.5-6 .8l-3.3.3c-1.3.1-1.3.1-2.5.2 4-4.7 7-4.3 13.1-3.9" style="fill:#e6edf5"/><path d="M173.1 410.4c4.1 3.3 5.1 6.8 6.6 11.8.4 1.3.9 2.6 1.3 3.9-1.3-.4-2.6-.9-3.9-1.3-.4-3-.9-6.1-1.3-9.2h-2.6c-.1-1.7-.1-3.4-.1-5.2" style="fill:#d8e1ea"/><path d="M125.9 315.8h2.6c.1.8.3 1.7.4 2.5l.9 2.7c1.3.4 2.6.9 3.9 1.3-.4 1.7-.9 3.5-1.3 5.3-5.8-6.7-5.8-6.7-6.5-11.8" style="fill:#7394b1"/><path d="M265.1 332.9c1.3 3.9 1.3 3.9.3 6.3-1.4 2.3-2.8 4.5-4.2 6.8h-2.6c1.6-4.7 3.8-8.8 6.5-13.1" style="fill:#eaeff5"/><path d="M102.2 188.4h1.3c.5 6.4-.8 10.2-3.9 15.8-1.5-4.3-1.2-6.6.6-10.8.4-.9.8-1.9 1.1-2.8.3-.7.6-1.4.9-2.2" style="fill:#8cabc8"/><path d="M179.7 126.7c-1.5 2-1.5 2-3.9 3.9-4.2.2-4.2.2-7.9 0 3.4-4.5 6.3-4.2 11.8-3.9" style="fill:#719cc2"/><path d="M234.8 377.5h3.9c-.6 1.9-1.2 3.9-1.8 5.8-.3 1.1-.7 2.2-1 3.3-1.1 2.7-1.1 2.7-3.7 4 .9-4.3 1.8-8.6 2.6-13.1" style="fill:#7898b4"/><path d="M158.7 377.5c3.9 1.3 3.9 1.3 5.6 4.4 1 3.4 1 3.4-.3 7.4-5.3-8.8-5.3-8.8-5.3-11.8" style="fill:#668aaa"/><path d="M107.5 272.2h1.3v6.6c1.3.4 2.6.9 3.9 1.3-.4 1.7-.9 3.5-1.3 5.3-3.1-3.3-3.9-4.9-4.2-9.5.1-1.3.2-2.5.3-3.7" style="fill:#7697b4"/></svg>