<svg xmlns="http://www.w3.org/2000/svg" xml:space="preserve" id="Layer_1" x="0" y="0" version="1.1" viewBox="-0.02 0 277.13 277.12"><style id="style2" type="text/css">.st0{fill:#a238ff}</style><g id="g10" transform="translate(-13.9)"><path id="path4" d="M21.9 115.7c4.4 0 8-14.5 8-32.4s-3.6-32.4-8-32.4-8 14.5-8 32.4 3.6 32.4 8 32.4" class="st0"/><path id="path6" d="M256.8 18c-4.2 0-7.9 9.3-10.5 24.2C242.1 16.7 235.4 0 227.8 0c-9 0-16.9 23.5-20.6 57.7C203.5 32.9 198 17 191.9 17c-8.6 0-16 31.2-18.7 74.7-5.1-22.3-12.5-36.3-20.7-36.3s-15.6 14-20.7 36.3C129 48.2 121.7 17 113 17c-6.2 0-11.7 15.9-15.3 40.8C94 23.5 86.2 0 77.1 0c-7.6 0-14.4 16.7-18.5 42.3C56 27.4 52.3 18 48.1 18 40.3 18 34 50.5 34 90.5s6.3 72.4 14.1 72.4c3.2 0 6.2-5.5 8.5-14.7 3.7 33.8 11.5 57 20.5 57 7 0 13.2-13.9 17.4-35.9 2.9 41.8 10.1 71.5 18.5 71.5 5.3 0 10.1-11.8 13.7-30.9 4.3 39.5 14.2 67.2 25.8 67.2s21.5-27.7 25.8-67.2c3.6 19.1 8.4 30.9 13.7 30.9 8.4 0 15.6-29.7 18.5-71.5 4.2 22 10.4 35.9 17.4 35.9 9 0 16.8-23.2 20.5-57 2.4 9.2 5.3 14.7 8.5 14.7 7.8 0 14.1-32.4 14.1-72.4-.2-40-6.5-72.5-14.2-72.5" class="st0"/><path id="path8" d="M283 115.7c4.4 0 8-14.5 8-32.4s-3.6-32.4-8-32.4-8 14.5-8 32.4 3.6 32.4 8 32.4" class="st0"/></g></svg>