<svg xmlns="http://www.w3.org/2000/svg" xml:space="preserve" viewBox="5.41 5.08 101.31 22.46"><path d="m44.936 13.024 14.328 14.274V5.765h-3.288v13.423L41.621 5.243v21.562h3.288V13.161zM25.951 26.805V5.765h11.78v3.282l-8.493.002v4.941l6.575-.002v3.283h-6.575v6.25h.007l8.431-.001v3.285zm66.33-13.814 14.431 14.224V5.765h-3.287v13.589l-.021-.063-14.443-14.06v21.574h3.335V13.072z"/><path fill="#020202" d="M5.405 5.765v21.039h6.986s9.862-.821 9.862-10.602c0-10.081-9.89-10.438-9.89-10.438zm3.287 17.918V8.806h2.904s7.41-.138 7.41 7.52c0 6.994-6.725 7.355-6.725 7.355z"/><path d="M66.153 16.395c0-4.408 3.539-7.981 7.904-7.981s8.068 3.051 8.068 7.981c0 4.408-3.703 7.98-8.068 7.98s-7.904-3.572-7.904-7.98m7.904 11.147c6.465.084 11.477-5.575 11.477-10.765 0-5.588-4.026-11.696-11.313-11.696-5.424 0-11.422 4.409-11.422 11.313 0 5.188 3.96 11.054 11.258 11.148"/></svg>