<svg xmlns="http://www.w3.org/2000/svg" xmlns:xlink="http://www.w3.org/1999/xlink" viewBox="599.32 0 134.81 139.54"><defs><clipPath id="clip1"><path d="M 103 101 L 191 101 L 191 197.828125 L 103 197.828125 Z M 103 101 "/></clipPath><clipPath id="clip2"><path d="M 304 101 L 395 101 L 395 197.828125 L 304 197.828125 Z M 304 101 "/></clipPath><clipPath id="clip3"><path d="M 405 55 L 496 55 L 496 197.828125 L 405 197.828125 Z M 405 55 "/></clipPath><clipPath id="clip4"><path d="M 0 55 L 90 55 L 90 197.828125 L 0 197.828125 Z M 0 55 "/></clipPath><clipPath id="clip5"><path d="M 510 100 L 600 100 L 600 197.828125 L 510 197.828125 Z M 510 100 "/></clipPath><clipPath id="clip6"><path d="M 696 78 L 734.128906 78 L 734.128906 117 L 696 117 Z M 696 78 "/></clipPath><clipPath id="clip7"><path d="M 696 22 L 734.128906 22 L 734.128906 61 L 696 61 Z M 696 22 "/></clipPath></defs><g id="surface1"><path style=" stroke:none;fill-rule:nonzero;fill:rgb(94.099426%,32.499695%,28.999329%);fill-opacity:1;" d="M 623.488281 78.648438 L 637.441406 102.789063 L 613.273438 116.734375 L 599.320313 92.570313 L 623.488281 78.648438 "/><path style=" stroke:none;fill-rule:nonzero;fill:rgb(94.099426%,32.499695%,28.999329%);fill-opacity:1;" d="M 652.769531 111.625 L 680.683594 111.625 L 680.683594 139.539063 L 652.769531 139.539063 L 652.769531 111.625 "/><g clip-path="url(#clip6)" clip-rule="nonzero"><path style=" stroke:none;fill-rule:nonzero;fill:rgb(94.099426%,32.499695%,28.999329%);fill-opacity:1;" d="M 696.003906 102.785156 L 709.964844 78.648438 L 734.132813 92.574219 L 720.171875 116.730469 L 696.003906 102.785156 "/></g><g clip-path="url(#clip7)" clip-rule="nonzero"><path style=" stroke:none;fill-rule:nonzero;fill:rgb(94.099426%,32.499695%,28.999329%);fill-opacity:1;" d="M 709.964844 60.925781 L 696.007813 36.757813 L 720.167969 22.800781 L 734.132813 46.972656 L 709.964844 60.925781 "/></g><path style=" stroke:none;fill-rule:nonzero;fill:rgb(13.699341%,12.199402%,12.89978%);fill-opacity:1;" d="M 680.683594 83.742188 L 652.773438 83.742188 L 652.773438 55.820313 L 680.683594 55.820313 L 680.683594 83.742188 "/><path style=" stroke:none;fill-rule:nonzero;fill:rgb(94.099426%,32.499695%,28.999329%);fill-opacity:1;" d="M 680.683594 27.910156 L 652.773438 27.910156 L 652.773438 -0.00390625 L 680.683594 0 L 680.683594 27.910156 "/><path style=" stroke:none;fill-rule:nonzero;fill:rgb(94.099426%,32.499695%,28.999329%);fill-opacity:1;" d="M 637.441406 36.757813 L 623.488281 60.929688 L 599.320313 46.976563 L 613.273438 22.804688 L 637.441406 36.757813 "/></g></svg>