<svg xmlns="http://www.w3.org/2000/svg" width="512" height="512"><path fill="#1D284B" d="M99.553-.388c1.41 0 2.82-.01 4.23-.02 3.84-.01 7.67-.01 11.51 0 4.15.01 8.3-.01 12.45-.02 8.12-.01 16.24-.02 24.36-.01h22.67c1.91-.01 3.83-.01 5.74-.01q26.895-.015 53.79 0c16.37.01 32.75 0 49.12-.02 16.85-.03 33.69-.04 50.54-.03 9.44 0 18.89 0 28.33-.02 8.04-.01 16.08-.01 24.12.01 4.1 0 8.19.01 12.29-.01 31.56-.11 31.56-.11 45.3 4.52l2.53.83c25.6 9.27 45.77 28.6 57.35 53.03 6.12 13.54 8.57 26.84 8.5 41.69.01 1.41.01 2.82.02 4.23.02 3.84.01 7.67 0 11.51 0 4.15.01 8.3.02 12.45.02 8.12.02 16.24.01 24.36 0 6.6 0 13.21.01 19.81v8.6c.02 17.93.01 35.86 0 53.79-.01 16.37 0 32.75.03 49.12.02 16.85.03 33.69.03 50.54-.01 9.44-.01 18.89.01 28.33q.03 12.06 0 24.12c-.01 4.1-.01 8.19 0 12.29.11 31.56.11 31.56-4.51 45.3-.28.83-.55 1.67-.84 2.53-9.26 25.6-28.59 45.77-53.03 57.35-13.53 6.12-26.84 8.58-41.69 8.51-1.41 0-2.82.01-4.23.01-3.83.02-7.67.01-11.5 0-4.15 0-8.31.01-12.46.02-8.12.02-16.24.02-24.35.02-6.61-.01-13.21-.01-19.82 0h-8.6c-17.93.02-35.86.01-53.79 0-16.37-.01-32.74 0-49.12.03-16.84.02-33.69.03-50.53.03-9.45-.01-18.89-.01-28.34.01q-12.06.03-24.12 0c-4.09-.01-8.19-.01-12.28 0-31.56.12-31.56.12-45.3-4.51-.84-.28-1.68-.55-2.54-.84-25.6-9.26-45.77-28.59-57.35-53.03-6.11-13.53-8.57-26.84-8.5-41.69 0-1.41-.01-2.82-.02-4.23-.01-3.83-.01-7.67 0-11.5.01-4.15-.01-8.31-.02-12.46-.01-8.12-.02-16.24-.01-24.35v-19.81c0-.95 0-1.89-.01-2.86v-5.75c-.01-17.92-.01-35.85 0-53.78.01-16.38 0-32.75-.02-49.13-.03-16.84-.04-33.69-.03-50.53 0-9.45 0-18.89-.02-28.34q-.015-12.06 0-24.12c.01-4.09.02-8.19 0-12.28-.11-31.56-.11-31.56 4.52-45.3.41-1.26.41-1.26.83-2.54 9.27-25.6 28.6-45.76 53.03-57.35 13.54-6.11 26.84-8.57 41.69-8.5"/><path fill="#F9A51A" d="M331.77 136.473c31.08 4.54 60.21 21.35 79.28 46.42 19.72 27.18 26.94 57.72 23.26 90.98-5.12 31.66-22.17 60.58-48.13 79.61-13.25 9.27-27.64 15.26-43.18 19.52-.65.18-1.3.36-1.97.54-4.55 1.2-9.01 1.96-13.72 2.39-1.26.14-2.52.27-3.82.41-3.49-.34-3.49-.34-6.17-2.09-3.55-4.97-3.02-9.66-2.95-15.63 0-1.21 0-2.41-.01-3.65.01-2.54.02-5.09.04-7.63.04-3.89.02-7.79 0-11.68l.03-7.42c0-1.16-.01-2.33-.01-3.53.02-1.63.02-1.63.05-3.29 0-.95.01-1.91.02-2.89.66-3.26 1.96-4.46 4.51-6.53 2.12-.65 2.12-.65 4.44-.94 13.74-2.35 26.75-9.08 35.56-20.06 7.45-11 11.76-21.53 11.56-34.88l-.03-3.19c-.22-8.26-1.43-14.64-5.53-21.93-.53-.97-1.06-1.94-1.61-2.94-6.77-11.43-16.67-20.83-29.62-24.73-3.01-.76-6.02-1.43-9.08-1.97-4.53-.83-6.83-1.75-9.69-5.36-.51-2.58-.51-2.58-.52-5.53-.01-1.11-.02-2.22-.04-3.36l.03-3.61c0-1.23-.01-2.46-.01-3.72-.01-2.6 0-5.19.02-7.79.02-3.98 0-7.95-.03-11.93.01-2.52.01-5.04.02-7.56l-.03-3.61c.02-1.11.03-2.22.04-3.36.01-.98.01-1.95.01-2.95 1.77-8.97 10.34-6.98 17.28-6.11M37 136c33.31-.09 66.62-.16 99.93-.2 3.93-.01 7.86-.01 11.79-.02h2.37c12.68-.02 25.36-.05 38.03-.09 13.01-.04 26.01-.06 39.02-.07 8.02 0 16.05-.02 24.08-.05 6.15-.03 12.3-.03 18.45-.02 2.53 0 5.05-.01 7.58-.03 3.44-.02 6.88-.01 10.32 0l3.06-.04c6.73.06 6.73.06 9.99 2.39 1.75 2.7 1.88 4.37 1.88 7.57.02 1.63.02 1.63.03 3.3-.02 1.75-.02 1.75-.03 3.54v3.65q0 3.825-.03 7.65c-.03 3.91-.02 7.81-.01 11.71l-.03 7.43c.01 1.17.01 2.34.01 3.54-.01 1.09-.02 2.18-.04 3.3 0 .96-.01 1.91-.01 2.9-.48 3.1-1.18 4.31-3.39 6.54-2.72.5-2.72.5-6.07.51l-3.85.03c-1.41-.01-2.82-.01-4.23-.02-1.49 0-2.97.01-4.45.02-4.04.02-8.07.01-12.1 0-4.21-.01-8.43 0-12.64 0-7.08.01-14.16 0-21.24-.02-8.18-.02-16.37-.01-24.56.01-7.03.02-14.05.02-21.08.01-4.19-.01-8.39-.01-12.59.01-3.95.01-7.89 0-11.84-.02q-2.175-.015-4.35 0c-1.97.01-3.95 0-5.93-.02-1.66 0-1.66 0-3.35-.01C149 199 149 199 146 195v-35h74v-12H37z"/><path fill="#F5A31B" d="M72 224c28.85-.09 57.7-.16 86.55-.2 3.41-.01 6.81-.01 10.22-.02h2.05q16.47-.03 32.94-.09c11.27-.04 22.53-.06 33.79-.07 6.33 0 12.66-.01 18.99-.04q8.925-.045 17.85-.03 3.285 0 6.57-.03c2.98-.02 5.96-.01 8.94 0 .87-.01 1.74-.02 2.64-.04 5.84.06 5.84.06 9 2.39 1.86 2.72 1.97 4.38 1.98 7.66.01 1.11.02 2.22.04 3.36l-.03 3.61c.01 1.23.01 2.46.01 3.72.01 2.6 0 5.19-.02 7.79-.02 3.97 0 7.95.03 11.93-.01 2.52-.01 5.04-.02 7.56l.03 3.61-.04 3.36c-.01.97-.01 1.95-.01 2.95-.67 3.4-1.81 4.43-4.51 6.58-2.81.5-2.81.5-6.11.51l-3.8.03c-1.39-.01-2.77-.01-4.16-.02-1.46 0-2.92.01-4.38.02-3.97.02-7.94.01-11.91 0-4.15-.01-8.31 0-12.46 0-6.97.01-13.95 0-20.92-.02-8.07-.02-16.13-.01-24.19.01-6.93.02-13.85.02-20.77.01-4.14-.01-8.27-.01-12.41.01-3.88.01-7.77 0-11.66-.02-1.42-.01-2.85-.01-4.28 0-1.95.01-3.89 0-5.84-.02-1.63 0-1.63 0-3.3-.01C150 288 150 288 146 284v-36h74v-11H72z"/><path fill="#F5A31A" d="M112.105 311.852h2.23c.78 0 1.56-.01 2.36-.01 2.62-.01 5.25-.02 7.87-.02 1.88-.01 3.75-.01 5.62-.02 5.11-.02 10.21-.03 15.32-.04 3.19 0 6.37-.01 9.56-.01 9.97-.02 19.93-.04 29.9-.04 11.51-.01 23.03-.04 34.54-.08 8.9-.03 17.79-.05 26.68-.05 5.32 0 10.63-.01 15.94-.04 5-.02 10-.02 15.01-.01 1.83 0 3.67-.01 5.5-.02 2.51-.02 5.01-.01 7.52 0 1.09-.02 1.09-.02 2.21-.03 3.57.04 5.53.45 8.59 2.39 2.58 2.69 2.67 3.97 2.68 7.66l.03 3.36c-.01 1.19-.02 2.38-.04 3.61.01 1.23.01 2.45.01 3.72 0 2.59-.01 5.19-.04 7.79-.03 3.97-.02 7.95 0 11.93l-.03 7.56c.01 1.19.01 2.38.02 3.61-.02 1.11-.04 2.21-.05 3.36l-.02 2.95c-.68 3.4-1.82 4.43-4.51 6.58-2.81.5-2.81.5-6.12.51l-3.79.03c-1.39-.01-2.78-.02-4.16-.02-1.47 0-2.93.01-4.39.02q-5.955.015-11.91 0c-4.15-.02-8.3-.01-12.45 0-6.98.01-13.95 0-20.93-.02-8.06-.02-16.12-.02-24.19.01-6.92.01-13.84.02-20.77.01-4.13-.01-8.27-.01-12.4 0-3.89.01-7.77.01-11.66-.02-1.43 0-2.86 0-4.28.01-1.95.01-3.9-.01-5.84-.02-1.09-.01-2.18-.01-3.31-.01-2.8-.5-2.8-.5-6.8-4.5v-36h74v-11h-114c0-13.11 0-13.11 6.1-13.15"/><path fill="#222B4A" d="M278.313 244.625c3.8 3.36 5.38 6.31 6.12 11.31-.57 4.04-1.86 6.9-4.43 10.07-3.77 2.65-7.32 3.65-11.97 3.49-3.82-.93-6.55-3.54-9.03-6.49-1.37-4.1-1.77-7.73-1-12 4.58-7.84 12.01-10.45 20.31-6.38"/><path fill="#212A4A" d="M275 155c4.92 2.37 7.15 4.87 9 10 .57 3.9.2 5.61-1.62 9.12-3.51 4.25-6.35 6.59-11.88 7.38-5.12-.73-8.04-2.8-11.38-6.69-1.61-4.03-2.05-7.54-1.12-11.81 4.33-7.12 8.87-8.97 17-8m1 177c3.79 2.15 6.4 4.94 8 9 .24 4.47-.46 8.1-2.75 11.94-3.96 3.63-7.77 4.63-13.18 4.52-3.86-.86-6.58-3.49-9.07-6.46-1.36-4.07-1.65-7.74-1-12 4.01-7.61 10.2-9.11 18-7"/></svg>