<svg xmlns="http://www.w3.org/2000/svg" viewBox="0 0 512 512" width="512" height="512">
  <rect width="512" height="512" rx="96" fill="#0a0a0a"/>
  <path d="M80 80 L210 80 Q230 80 230 100 L230 412 Q230 432 210 432 L80 432 Z" fill="none" stroke="#e0e0e0" stroke-width="16"/>
  <path d="M430 155 L432 100 Q432 80 412 80 L302 80 Q282 80 282 100 L282 210 Q282 230 302 230 L430 230" fill="none" stroke="#e0e0e0" stroke-width="16" stroke-linecap="round"/>
  <line x1="400" y1="155" x2="428" y2="155" stroke="#e0e0e0" stroke-width="18" stroke-linecap="round"/>
  <path d="M432 380 L432 302 Q432 282 412 282 L302 282 Q282 282 282 302 L282 412 Q282 432 302 432 L380 432" fill="none" stroke="#2ed573" stroke-width="16" stroke-linecap="round"/>
  <line x1="405" y1="405" x2="435" y2="435" stroke="#2ed573" stroke-width="16" stroke-linecap="round"/>
</svg>
