<svg xmlns="http://www.w3.org/2000/svg" xml:space="preserve" viewBox="0 0 512 512"><path d="M1528.8 1160.5H382.7C171.3 1160.5 0 1056.5 0 928.2V232.3C0 104 171.3 0 382.7 0h1146.1c211.3 0 382.7 104 382.7 232.3v695.9c0 128.3-171.4 232.3-382.7 232.3" style="fill:#1a1d29" transform="scale(.26786 .44118)"/><g transform="translate(-95.61 11.412)scale(.25593)"><path d="M1722.6 1090.6c-23.3 5.4-84.8 8.4-84.8 8.4l-7.8 24.3s30.6-2.6 53-.3c0 0 7.3-.8 8.1 8.3.3 8.4-.6 17.5-.6 17.5s-.5 5.5-8.3 6.8c-8.4 1.5-66.2 3.6-66.2 3.6l-9.4 31.6s-3.4 7.3 4.4 5.2c7.3-1.9 67.8-13.3 75.7-11.7 8.4 2.1 17.8 13.3 15.1 23.7-3.2 12.6-63.6 51.2-100.4 48.5 0 0-19.3 1.3-35.7-24.8-15.2-24.8 5.8-72 5.8-72s-9.6-22.1-2.6-29.3c0 0 4.2-3.7 16.2-4.7l14.8-30.6s-16.9 1.1-26.9-11.2c-9.4-11.8-10.1-17.2-2.9-20.4 7.6-3.7 77.8-16.5 126.1-14.9 0 0 16.9-1.6 31.3 27.6 0-.2 7.1 11.6-4.9 14.4m-181.7 117.7c-6.2 14.6-22.5 30.2-42.8 20.4-20.1-9.7-52-75.1-52-75.1s-12.2-24.3-14.4-23.8c0 0-2.6-4.7-4.2 21.9s.3 78.3-10.2 86.4c-10.1 8.1-22.2 4.9-28.5-4.7-5.7-9.4-8.1-31.8-5-71 3.7-39.2 12.8-81.1 24.5-94.2 11.7-13 21.1-3.6 24.6-.2 0 0 15.6 14.1 41.3 55.6l4.5 7.6s23.3 39.2 25.8 39.1c0 0 1.9 1.8 3.6.5 2.4-.6 1.5-13.3 1.5-13.3s-4.9-42.6-26.1-115c0 0-3.2-9.1-1-17.5 2.1-8.6 10.7-4.5 10.7-4.5s33.1 16.5 49 70.4c15.5 54.3 4.8 102.8-1.3 117.4M1378.4 1070c-2.8 5.5-4.4 13.5-18.3 15.6 0 0-133.4 9.1-139.8 18.5 0 0-4.7 5.5 2.6 7.1 7.3 1.5 37.5 5.5 52 6.3 15.6.2 68.1.6 86.9 24.2 0 0 11.2 11.2 10.7 36.5-.5 25.9-5 35-15.1 44.4-10.5 8.8-101 49.3-159.4-13 0 0-26.9-30 9.2-52.7 0 0 26.1-15.7 92.4 2.8 0 0 20.1 7.3 19.1 14.6-1.1 7.8-16.5 16.1-38.9 15.6-21.7-.6-37.6-11-34.5-9.4 2.9 1.1-23.3-12.6-31.5-3.2-8.1 8.6-6.2 13.9 1.8 19.3 20.3 11.5 98.6 7.5 121.9-18.5 0 0 9.2-10.5-4.9-19.1-14.1-8.1-54.5-13-70.2-13.8-15.1-.8-71.2.2-79.3-14.8 0 0-8.1-10.1.8-38.6 9.4-29.8 74.7-41.3 103-43.9 0 0 77.7-2.8 91.9 13.1.1-.1 2.1 3.6-.4 9m-220.5 174.9c-9.4 7-29.3 3.9-35-3.9-5.7-7-7.6-34.7-6.5-78.1 1.1-43.9 2.1-98.4 11.5-107 10.1-8.8 16.2-1.1 20.1 4.9 4.2 5.8 9.2 12.3 10.4 26.1 1 13.8 4.2 86.1 4.2 86.1s4.2 65.1-4.7 71.9m20.3-233.1c-27.4 9.1-46.2 6-62.1-.8-7 12.2-11 15.9-16.4 16.7-7.8.8-14.8-11.7-16.1-15.7-1.3-3.1-5-8.3-.5-20.6-15.6-13.9-16.7-32.8-14.1-45.4 3.9-14.6 30.2-70 110.1-76.5 0 0 39.1-2.9 45.7 18h1.1s37.9.2 37.1 33.9c-.3 33.8-42 75.9-84.8 90.4m-74.6-75.1c-8.1 13-8.4 20.8-4.7 26.1 9.2-14.1 26.1-36.3 50.9-53.2-19.1 1.6-35.2 9.9-46.2 27.1M1214 915c-25.1 3.7-64 37.5-82.5 65 28.4 5.2 78.5 3.2 100.7-42-.2 0 10.5-28-18.2-23m682.3 261.2c-15.1 26.3-57.4 81.1-113.8 68.3-18.6 45.2-34.2 90.8-43.1 159.2 0 0-1.9 13.3-13 8.6-10.9-3.9-29-22.1-32.6-47.2-3.9-33.1 10.9-89 40.9-153.1-8.8-14.3-14.8-34.7-9.6-63.7 0 0 7.6-53.8 61.6-102.5 0 0 6.5-5.7 10.2-3.9 4.2 1.8 2.3 19.3-1.1 27.7s-27.6 50.3-27.6 50.3-15.1 28.2-10.9 50.4c28.4-43.6 92.9-131.7 132.9-103.9 13.5 9.6 19.6 30.5 19.6 53-.1 20-4.8 41-13.5 56.8m-11.7-69.1s-2.3-17.3-19.1 1.8c-14.6 16.1-40.9 46.4-62.1 87.4 22.2-2.4 43.6-14.6 50.1-20.8 10.5-9.4 35-34.7 31.1-68.4m-787.1 22.1c-3.1 39.2-18.2 105.2-125 137.8-70.5 21.2-137.2 11-173.5 1.8-.8 14.4-2.4 20.6-4.7 23-3.1 3.1-26.1 16.4-38.7-2.4-5.7-8.9-8.6-25.1-10.2-39.6-81.7-37.6-119.3-91.8-120.8-94.2-1.8-1.8-20.4-21.2-1.8-45.1 17.5-21.6 74.7-43.1 126.3-51.9 1.8-44.1 7-77.3 13.1-92.6 7.5-17.7 16.9-1.8 25 10.2 6.8 8.9 10.9 47.3 11.2 78 33.7-1.6 53.7.8 91.3 7.6 49 8.9 81.7 33.9 78.8 62.3-2.1 27.9-27.7 39.4-37.5 40.2-10.2.8-26.1-6.5-26.1-6.5-10.9-5.2-.8-9.7 12.3-15.4 14.3-7 11-14.1 11-14.1-5.4-15.6-68.9-26.4-132.1-26.4-.3 34.9 1.5 92.7 2.3 126.5 44.3 8.4 77.3 6.8 77.3 6.8s161.5-4.5 166.3-107.7c5-103.3-161-202.3-283.7-233.8-122.6-32.1-192-9.7-198-6.6-6.5 3.2-.5 4.2-.5 4.2s6.6 1 18.2 4.9c12.2 3.9 2.8 10.2 2.8 10.2-20.9 6.6-44.4 2.4-49-7.1-4.5-9.6 3.1-18.2 11.8-30.5 8.8-13 18.3-12.5 18.3-12.5 151.6-52.5 336.3 42.5 336.3 42.5 173 87.7 202.5 190.5 199.3 230.4m-457.6-5.4c-17.2 8.4-5.4 20.6-5.4 20.6 32.3 34.7 72 56.4 109.8 69.9 4.4-59.8 3.7-80.9 4.2-111.1-59 4.1-93 13.5-108.6 20.6m1577.4-12.3v21.4c0 4.7-3.7 8.4-8.4 8.4h-102c0 5.4.2 10.1.2 14.4 0 31.6-1.3 57.4-4.4 86.4-.5 4.4-4.1 7.6-8.3 7.6h-22.1c-2.3 0-4.4-1-5.8-2.6s-2.3-3.9-1.9-6.2c3.1-28.9 4.5-54.3 4.5-85.3 0-4.5 0-9.2-.2-14.4h-100.8c-4.7 0-8.4-3.7-8.4-8.4v-21.4c0-4.7 3.7-8.4 8.4-8.4h99.4c-2.1-34.9-6.3-68.4-13.1-102.5-.3-2.1.2-4.2 1.5-5.8s3.2-2.6 5.4-2.6h23.8c3.7 0 6.8 2.6 7.6 6.3 6.6 35.2 10.9 69.4 13 104.6H2209c4.4.1 8.3 3.9 8.3 8.5" style="fill:#fff"/><path d="M854.3 828.9h-.2m-1.1.1c-.5 0-1-.2-1.5-.2.5.2 1 .2 1.5.2h.5zm0 0c-.5 0-1-.2-1.5-.2.5.2 1 .2 1.5.2h.5z" style="fill:none"/><radialGradient id="a" cx="177.767" cy="2503.001" r=".795" gradientTransform="matrix(396.8546 0 0 -396.8548 -68489.953 994279.25)" gradientUnits="userSpaceOnUse"><stop offset="0" style="stop-color:#fff"/><stop offset=".01" style="stop-color:#fff"/><stop offset=".03" style="stop-color:#cbffff"/><stop offset=".06" style="stop-color:#96ffff"/><stop offset=".08" style="stop-color:#68ffff"/><stop offset=".11" style="stop-color:#43ffff"/><stop offset=".14" style="stop-color:#25ffff"/><stop offset=".16" style="stop-color:#1ff"/><stop offset=".19" style="stop-color:#04ffff"/><stop offset=".22" style="stop-color:#0ff"/><stop offset="1" style="stop-color:#00f;stop-opacity:0"/></radialGradient><path d="M2078.5 941.7c-52.7-129.5-141.7-240-257.5-319.4-118.5-81.2-257.5-124.2-401.8-124.2-238.7 0-460.1 118.5-592.3 317.1-1.5 2.1-1.8 4.9-1 7.3.8 2.6 2.8 4.4 5.2 5.2l18.5 6.3c1.1.3 2.3.5 3.2.5 3.4 0 6.6-1.8 8.6-4.5 60.6-89.2 142.7-163.3 237.4-214.5 97.8-52.9 208.5-80.9 320.2-80.9 135.1 0 265.3 39.9 376.8 115.1 108.8 73.4 193.3 176.1 244.3 296.5 1.5 3.6 5 6 8.9 6h22.1c2.6 0 5-1.3 6.3-3.4 1.8-2 2.1-4.6 1.1-7.1M853 829c-.5 0-1-.2-1.5-.3q.75.3 1.5.3h.3zm1191.6 120.4c.5.3 1 .6 1.5.8-.5-.4-1-.5-1.5-.8" style="fill:url(#a)"/></g></svg>