<svg xmlns="http://www.w3.org/2000/svg" fill="none" viewBox="6.84 2.05 86.41 95.93">
<g clip-path="url(#clip0_12_1828)">
<path d="M17.1193 17.1819L17.8539 86.9621C11.9776 87.6967 7.57051 84.7585 7.57051 78.8823L6.83594 20.8545C6.83594 2.49131 23.7301 -1.91582 34.0135 5.42939L86.165 35.5451C93.5104 40.6868 94.9794 50.2356 91.3067 56.8464C90.5723 51.7047 88.3687 48.7666 83.9614 45.8285L25.1991 12.7747C20.792 9.83662 17.1193 10.5711 17.1193 17.1819Z" fill="#3E464E"/>
<path d="M12.7119 90.6348C17.1191 92.1038 21.5263 91.3693 25.1989 89.1657L85.4303 53.9083C89.1029 59.05 88.3685 64.1917 83.9612 67.1298L33.2787 96.511C25.9334 100.184 16.3846 96.511 12.7119 90.6348Z" fill="#14917E"/>
<path d="M30.3408 70.0679L66.3327 49.5011L31.0754 29.6688L30.3408 70.0679Z" fill="#14917E"/>
</g>
<defs>
<clipPath id="clip0_12_1828">
<rect width="100" height="100" fill="white"/>
</clipPath>
</defs>
</svg>