<svg xmlns="http://www.w3.org/2000/svg" id="Layer_1" data-name="Layer 1" viewBox="17.49 23.24 528.77 486.86"><defs><style>.cls-1{fill:#416ba9;}.cls-2{fill:#74c3d5;}</style></defs><g id="F1L4Xu"><path class="cls-2" d="M461.28162,365.26377c14.626-14.99573,31.51073-27.88581,43.901-45.3001,23.6055-33.17709,21.5881-53.98611-9.08528-79.89549-5.54727-4.68571-8.18237-7.96252-5.187-15.251,2.57641-6.26934,3.76528-13.21711,4.83156-19.981,5.90314-37.44659-11.00082-60.70078-48.64828-63.33267-13.137-.91842-16.45015-5.43062-19.21754-16.935-9.30387-38.67663-34.59038-53.67167-74.13662-44.585-10.18443,2.3401-17.05741,2.2529-24.8593-6.77926-30.175-34.93317-59.58084-35.22646-91.95222-.348-9.64337,10.39025-15.6225,11.83918-28.62783,5.4055-32.90341-16.27713-59.8387-3.10046-69.78437,35.47712-4.6848,18.17164-11.36854,26.3489-30.24471,30.1582-31.33028,6.32259-44.78933,33.5759-35.57532,69.531,3.76252,14.68215,4.6826,23.43655-10.28992,33.26423-22.74913,14.93216-25.22052,35.33713-11.0953,59.39875a163.06863,163.06863,0,0,0,18.46085,24.68707c6.40258,7.28037,13.94521,13.55817,19.80434,21.482C65.25053,338.04809,43.116,321.28746,27.8598,297.29993c-17.05057-26.80876-13.40609-48.15088,13.33187-65.26212,13.64688-8.73344,14.87507-15.92347,10.65871-30.93464-12.7269-45.31048,5.12054-71.29348,52.09339-78.34017,9.12234-1.36851,13.24368-4.37134,14.93358-13.09156a120.37358,120.37358,0,0,1,6.91928-23.66458C140.26672,51.59355,166.89048,40.64934,200.93587,56.76c12.995,6.14933,20.16447,5.77862,30.68022-5.2998C268.21035,12.90788,301.23887,13.957,336.089,53.95609c7.03437,8.07364,13.32723,7.58749,21.51782,5.54845,49.26567-12.26462,82.34232,9.66738,86.80352,52.02378.85563,8.12375,4.89151,12.49189,13.59822,11.06745a9.08058,9.08058,0,0,1,2.06083.01162c48.42775,3.32745,67.90447,29.37216,55.65225,76.28488-3.68675,14.11627-5.266,23.35647,9.83168,33.3918,24.025,15.96919,26.43605,40.908,10.89058,67.22194C523.519,321.384,492.3391,349.49056,461.28162,365.26377Z"/><path class="cls-2" d="M222.21166,412.15994c-43.3335,8.71069-88.628,7.98395-130.77907,28.38523,94.59324,34.57588,265.86321,39.32494,381.28659.87883-20.80256-13.03877-43.25235-15.46757-64.96771-19.52875-21.46582-4.01455-43.21049-6.53754-65.22855-9.773,2.32155-9.0906,5.71941-13.26155,14.6818-11.53506,34.9755,6.73747,70.6065,10.43856,104.30053,22.96341,8.18218,3.04152,18.89124,4.40911,19.86455,15.15614,1.09622,12.10448-6.10692,24.09739-16.79915,25.67409-30.25013,4.46064-56.38559,26.36212-84.9133,26.506-28.47048.14371-52.82989-.52977-79.492,14.17476-20.18156,11.13047-46.332,2.83194-64.16335-15.45408-6.83775-7.01216-11.13794-6.37864-19.02114-2.85829-23.91278,10.67842-47.24546,8.5124-67.31614-8.79886-7.10279-6.12627-13.27536-7.629-22.06165-6.68907a44.08867,44.08867,0,0,1-27.74743-5.86122C89.8179,459.38315,82.0507,451.437,82.898,439.18832c.77048-11.13889,11.49627-12.35089,19.55689-15.40536,33.62848-12.74306,69.18754-16.82889,104.26785-23.14551C215.75685,399.01074,219.15407,403.38339,222.21166,412.15994Z"/></g><rect class="cls-1" x="157.9184" y="278.28554" width="63.75238" height="63.75238"/><rect class="cls-1" x="241.008" y="278.28554" width="63.75238" height="63.75238"/><rect class="cls-1" x="157.9184" y="361.37514" width="63.75238" height="63.75238"/><rect class="cls-1" x="367.09657" y="153.06724" width="63.75176" height="63.75177" transform="translate(-13.91822 336.28471) rotate(-45)"/><polygon class="cls-1" points="239.799 221.785 239.799 222.389 296.3 250.79 325.004 193.987 268.201 165.284 239.799 221.785"/><rect class="cls-1" x="341.49858" y="264.8759" width="63.75384" height="63.75383" transform="translate(-59.8512 496.2174) rotate(-63.19922)"/><rect class="cls-1" x="157.9184" y="195.19594" width="63.75238" height="63.75238"/><rect class="cls-1" x="241.008" y="361.37514" width="63.75238" height="63.75238"/><rect class="cls-1" x="324.39973" y="361.37514" width="63.75238" height="63.75238"/></svg>