<svg xmlns="http://www.w3.org/2000/svg" xml:space="preserve" viewBox="0 0 512 512"><path d="M128 0h256c70.7 0 128 57.3 128 128v256c0 70.7-57.3 128-128 128H128C57.3 512 0 454.7 0 384V128C0 57.3 57.3 0 128 0" style="fill:#168cb0"/><path d="M143.36 151.81c-32 7.42-59.65 28.16-73.22 54.78-7.42 14.59-7.42 15.36-8.19 65.28l-1.02 50.69H211.2c125.18 0 151.3-.51 157.18-3.58 8.96-4.86 28.42-28.42 41.73-50.69 7.68-12.8 12.03-17.92 17.15-18.94 15.62-3.33 24.83-8.19 30.21-15.87 6.91-10.5 9.73-26.62 5.89-33.79-2.56-4.86-4.35-5.38-13.57-3.84-16.64 2.82-27.14 8.7-32.26 18.69l-4.61 8.7-5.38-9.22c-6.66-11.01-22.27-18.69-40.7-19.97l-12.29-.77.51 8.96c1.02 20.22 6.14 28.93 22.53 38.4 12.54 7.42 14.08 9.22 9.22 9.73-11.01 1.79-31.49-8.45-57.34-28.42-53.76-41.22-59.65-45.31-74.5-53.25-8.19-4.61-22.02-10.24-30.72-13.06-19.96-6.14-61.69-8.18-80.89-3.83m-8.19 102.14c1.79 1.79 3.07 6.14 3.07 9.73 0 8.45-4.35 12.8-12.8 12.8s-12.8-4.35-12.8-12.8c0-3.58 1.28-7.94 3.07-9.73 3.84-3.84 15.62-3.84 19.46 0m-73.73 80.39c0 4.35 11.26 19.2 19.2 25.09 17.41 13.31 24.06 14.34 102.14 14.34 39.42 0 79.36-1.28 88.58-2.56 16.64-2.82 60.42-22.27 74.24-33.28 6.4-5.12 6.14-5.12-138.75-5.12-80.13-.01-145.41.76-145.41 1.53" style="fill:#fff"/></svg>