<svg xmlns="http://www.w3.org/2000/svg" xml:space="preserve" id="svg8" x="0" y="0" version="1.1" viewBox="0 0 512 512"><style>.st2{fill:#9c0011}</style><g id="layer1" transform="translate(-36.018 -22.72)"><path id="path4746" d="M540.2 216.2c34.5 137-48.6 276.1-185.6 310.7S78.5 478.4 43.9 341.4 92.3 65.2 229.3 30.6c137-34.7 276.2 48.3 310.9 185.3" style="fill:#1c2d61"/><path id="path4746-6" d="M473.5 233.2c25.1 99.7-35.3 200.8-135 225.9s-200.8-35.3-226-134.9 35.2-200.8 134.8-226C347 73 448.3 133.4 473.5 233" style="fill:#f0f8ff"/><g id="g4744" transform="translate(8.557 109.2)"><path id="path4677-7-3-9" d="M408.8 136.3c17.7 73.3-24.8 147.8-95 166.2s-141.3-25.9-159-99.3 24.8-147.8 94.8-166.3 141.3 25.8 159 99.1" class="st2"/><path id="rect4736-4" d="m418.2-57.9 7.8.9c13.5 1.6 23.1 13.8 21.3 27.4l-41.9 320c-1.8 13.5-14.2 23.2-27.7 21.6l-7.8-.9c-13.5-1.6-23.1-13.8-21.3-27.4l41.9-320c1.7-13.5 14.2-23.1 27.7-21.6" class="st2"/></g></g></svg>