<svg xmlns="http://www.w3.org/2000/svg" xml:space="preserve" id="Layer_1" x="0" y="0" version="1.1" viewBox="-0.03 24 512.07 464"><style>.st0{fill:#aa968c}.st2{fill:#464655}</style><path d="M504 248c0 128.1-111 240-248 240S8 376.1 8 248 119 24 256 24s248 95.9 248 224" class="st0"/><path d="M256 24C119 24 8 119.9 8 248c0 24.6 4.1 48.6 11.7 71.4C45.3 353.7 86 376 132 376c53.9 0 100.6-30.5 124-75.1 23.4 44.6 70.1 75.1 124 75.1 46 0 86.7-22.3 112.3-56.6 7.6-22.8 11.7-46.8 11.7-71.4 0-128.1-111-224-248-224" class="st0"/><circle cx="256" cy="352" r="136" style="fill:#c8af9b"/><circle cx="132" cy="204" r="28" class="st2"/><circle cx="380" cy="204" r="28" class="st2"/><path d="M269.9 284.5c-7.7 10.7-20.2 10.7-27.9 0l-12.1-16.9c-7.7-10.7-3.2-19.5 10.1-19.5h32c13.2 0 17.7 8.8 10.1 19.5z" class="st2"/><path d="M351 400c-34.3 0-51.9-48-95.1-48-43.1 0-60.7 48-95.1 48-15.4 0-29.1-5.9-40.2-25.2C131.6 439 187.9 488 255.9 488s124.3-49 135.3-113.2C380 394.1 366.4 400 351 400" class="st0"/><path d="M32 424c-3.2 0-6.2-1.9-7.4-5-1.6-4.1.4-8.8 4.5-10.4l160-64c4.1-1.6 8.8.4 10.4 4.5s-.4 8.8-4.5 10.4l-160 64c-1 .3-2 .5-3 .5m-16-48c-3.5 0-6.8-2.4-7.7-6-1.1-4.3 1.4-8.6 5.7-9.8l152-40c4.3-1.1 8.6 1.4 9.8 5.7 1.1 4.3-1.4 8.6-5.7 9.8l-152 40q-1.05.3-2.1.3m-8-40c-3.8 0-7.2-2.7-7.9-6.6-.8-4.4 2.1-8.5 6.5-9.3l136-24c4.3-.8 8.5 2.1 9.3 6.5s-2.1 8.5-6.5 9.3l-136 24c-.5.1-.9.1-1.4.1m472 88c3.2 0 6.2-1.9 7.4-5 1.6-4.1-.4-8.8-4.5-10.4l-160-64c-4.1-1.6-8.8.4-10.4 4.5s.4 8.8 4.5 10.4l160 64c1 .3 2 .5 3 .5m16-48c3.5 0 6.8-2.4 7.7-6 1.1-4.3-1.4-8.6-5.7-9.8l-152-40c-4.3-1.1-8.6 1.4-9.8 5.7-1.1 4.3 1.4 8.6 5.7 9.8l152 40q1.05.3 2.1.3m8-40c3.8 0 7.2-2.7 7.9-6.6.8-4.4-2.1-8.5-6.5-9.3l-136-24c-4.3-.8-8.5 2.1-9.3 6.5s2.1 8.5 6.5 9.3l136 24c.5.1.9.1 1.4.1" style="fill:#8c7873"/></svg>