<svg xmlns="http://www.w3.org/2000/svg" xml:space="preserve" id="Layer_1" x="0" y="0" version="1.1" viewBox="0 38.28 512.1 435.93"><style>.st1{fill-rule:evenodd;clip-rule:evenodd;fill:#3ecc5f}.st2{fill:#44d860}.st2,.st3{fill-rule:evenodd;clip-rule:evenodd}</style><path d="M252.1 129.7h220.6V219H252.1z" style="fill-rule:evenodd;clip-rule:evenodd;fill:#fff"/><path d="M52.5 421.1c-19.4 0-36.3-10.6-45.4-26.3-4.6 8-7.1 17-7.1 26.3 0 29 23.5 52.5 52.5 52.5H105v-52.5z" class="st1"/><path d="m288.8 143.8 183.8-11.5V106c0-29-23.5-52.5-52.5-52.5H183.8l-6.6-11.4c-2.9-5.1-10.2-5.1-13.1 0l-6.6 11.4-6.5-11.3c-2.9-5.1-10.2-5.1-13.1 0l-6.6 11.4-6.6-11.4c-2.9-5.1-10.2-5.1-13.1 0L105 53.5h-.2L94 42.7c-4.1-4.1-11.2-2.2-12.7 3.4l-3.6 13.4-13.6-3.7c-5.6-1.5-10.8 3.6-9.3 9.3l3.6 13.6L45 82.3c-5.6 1.5-7.5 8.6-3.4 12.7l10.9 10.9v.2l-11.4 6.6c-5.1 2.9-5.1 10.2 0 13.1l11.4 6.6-11.4 6.6c-5.1 2.9-5.1 10.2 0 13.1l11.4 6.6-11.4 6.6c-5.1 2.9-5.1 10.2 0 13.1l11.4 6.6-11.4 6.6c-5.1 2.9-5.1 10.2 0 13.1l11.4 6.6-11.4 6.6c-5.1 2.9-5.1 10.2 0 13.1l11.4 6.6-11.4 6.6c-5.1 2.9-5.1 10.2 0 13.1l11.4 6.6-11.4 6.6c-5.1 2.9-5.1 10.2 0 13.1l11.4 6.6-11.4 6.6c-5.1 2.9-5.1 10.2 0 13.1l11.4 6.6-11.4 6.6c-5.1 2.9-5.1 10.2 0 13.1l11.4 6.6-11.4 6.6c-5.1 2.9-5.1 10.2 0 13.1l11.4 6.6-11.4 6.6c-5.1 2.9-5.1 10.2 0 13.1l11.4 6.6-11.4 6.6c-5.1 2.9-5.1 10.2 0 13.1l11.4 6.6c0 29 23.5 52.5 52.5 52.5h315.1c29 0 52.5-23.5 52.5-52.5V211.1l-183.8-11.5c-14.7-.9-26.2-13.1-26.2-27.9s11.4-27 26.2-27.9" class="st1"/><path d="M367.6 473.6h78.8v-105h-78.8z" class="st1"/><path d="M498.9 408c-.6 0-1.1.1-1.7.2l-.3-1.2c6.7-2.8 9.8-10.5 7-17.2-2-4.9-6.8-8.1-12.1-8.1-2.9 0-5.7 1-7.9 2.7l-.9-.9c1.7-2.3 2.6-5 2.7-7.8 0-7.3-5.9-13.1-13.1-13.1-5.3 0-10 3.1-12.1 8l-1.2-.3c.1-.6.2-1.1.2-1.7 0-7.3-5.9-13.1-13.1-13.1s-13.1 5.9-13.1 13.1c0 .6.1 1.1.2 1.7l-1.2.3c-2.8-6.7-10.5-9.8-17.2-7-4.9 2.1-8 6.8-8 12.1 0 3 1 5.6 2.7 7.8C400 393 394 406.3 394 421c0 29 23.5 52.5 52.5 52.5 24.5 0 45.1-16.8 50.8-39.6.6.1 1.1.2 1.7.2 7.3 0 13.1-5.9 13.1-13.1s-6-13-13.2-13" class="st2"/><path d="M393.8 316.1h78.8v-52.5h-78.8z" class="st1"/><path d="M498.9 296.4c3.6 0 6.6-2.9 6.6-6.6 0-3.6-2.9-6.6-6.6-6.6-.3 0-.6 0-.8.1-.1-.2-.1-.4-.2-.6 3.3-1.4 4.9-5.3 3.5-8.6-1-2.4-3.4-4-6-4-1.5 0-2.9.5-4 1.4l-.4-.4c.8-1.1 1.3-2.4 1.3-3.9 0-3.6-2.9-6.6-6.6-6.6-2.6 0-5 1.6-6 4-2.3-.7-4.7-1-7.1-1-14.5 0-26.3 11.8-26.3 26.3s11.8 26.3 26.3 26.3c2.5 0 4.8-.4 7.1-1 1.4 3.3 5.3 4.9 8.6 3.5 2.4-1 4-3.4 4-6 0-1.5-.5-2.8-1.3-3.9l.4-.4c1.1.8 2.5 1.4 4 1.4 3.6 0 6.6-2.9 6.6-6.6 0-2.6-1.6-5-4-6.1.1-.2.1-.4.2-.6.1-.1.4-.1.7-.1" class="st2"/><path d="M157.5 138.9c-3.6 0-6.6-2.9-6.6-6.6 0-10.9-8.8-19.7-19.7-19.7s-19.7 8.8-19.7 19.7c0 3.6-2.9 6.6-6.6 6.6s-6.6-2.9-6.6-6.6c0-18.1 14.7-32.8 32.8-32.8s32.8 14.7 32.8 32.8c.2 3.6-2.7 6.6-6.4 6.6" class="st3"/><path d="M262.6 473.6h157.5c29 0 52.5-23.5 52.5-52.5V237.3H315.1c-29 0-52.5 23.5-52.5 52.5z" style="fill-rule:evenodd;clip-rule:evenodd;fill:#ffff50"/><path d="M433.3 318.7H301.9c-1.5 0-2.6-1.2-2.6-2.6 0-1.5 1.2-2.6 2.6-2.6h131.4c1.5 0 2.6 1.2 2.6 2.6s-1.2 2.6-2.6 2.6m0 52.5H301.9c-1.5 0-2.6-1.2-2.6-2.6 0-1.5 1.2-2.6 2.6-2.6h131.4c1.5 0 2.6 1.2 2.6 2.6 0 1.5-1.2 2.6-2.6 2.6m0 52.5H301.9c-1.5 0-2.6-1.2-2.6-2.6 0-1.5 1.2-2.6 2.6-2.6h131.4c1.5 0 2.6 1.2 2.6 2.6 0 1.5-1.2 2.6-2.6 2.6m0-130.7H301.9c-1.5 0-2.6-1.2-2.6-2.6 0-1.5 1.2-2.6 2.6-2.6h131.4c1.5 0 2.6 1.2 2.6 2.6s-1.2 2.6-2.6 2.6m0 52H301.9c-1.5 0-2.6-1.2-2.6-2.6 0-1.5 1.2-2.6 2.6-2.6h131.4c1.5 0 2.6 1.2 2.6 2.6s-1.2 2.6-2.6 2.6m0 52.5H301.9c-1.5 0-2.6-1.2-2.6-2.6s1.2-2.6 2.6-2.6h131.4c1.5 0 2.6 1.2 2.6 2.6s-1.2 2.6-2.6 2.6m39.3-242.6c-8.2.3-12 8.4-15.4 15.5-3.5 7.5-6.3 12.3-10.7 12.2-5-.2-7.8-5.8-10.8-11.7-3.5-6.8-7.4-14.5-15.7-14.2-8 .3-11.8 7.3-15.2 13.6-3.6 6.6-6.1 10.7-10.8 10.5-5.1-.2-7.7-4.7-10.9-10-3.5-5.9-7.5-12.5-15.6-12.2-7.9.3-11.7 6.3-15.1 11.6-3.6 5.6-6.1 9-10.9 8.8-5.2-.2-7.9-4-11-8.3-3.5-4.9-7.4-10.5-15.5-10.2-7.7.3-11.6 5.2-15 9.5-3.2 4.1-5.8 7.4-11.1 7.2-1.5-.1-2.7 1.1-2.7 2.5-.1 1.5 1.1 2.7 2.5 2.7 7.9.3 11.9-4.7 15.4-9.2 3.1-3.9 5.8-7.3 11-7.5 5.1-.2 7.4 2.9 11 8 3.4 4.8 7.3 10.3 15 10.6 8.1.3 12.1-5.8 15.5-11.2 3.1-4.8 5.8-9 10.9-9.1 4.7-.2 7.3 3.5 10.9 9.7 3.4 5.8 7.3 12.3 15.2 12.6 8.2.3 12.2-6.9 15.6-13.2 3-5.5 5.8-10.7 10.8-10.8 4.7-.1 7.2 4.2 10.8 11.4 3.4 6.7 7.2 14.3 15.3 14.6h.4c8 0 11.9-8.1 15.2-15.2 3-6.3 5.8-12.3 10.7-12.5.2-.4.2-5.7.2-5.7" class="st3"/><path d="M210.1 473.6h105v-105h-105z" class="st1"/><path d="M367.6 408c-.6 0-1.1.1-1.7.2l-.3-1.2c6.7-2.8 9.8-10.5 7-17.2-2-4.9-6.8-8.1-12.1-8.1-2.9 0-5.7 1-7.9 2.7l-.9-.9c1.7-2.3 2.6-5 2.7-7.8 0-7.3-5.9-13.1-13.1-13.1-5.3 0-10 3.1-12.1 8l-1.2-.3c.1-.6.2-1.1.2-1.7 0-7.3-5.9-13.1-13.1-13.1-7.3 0-13.1 5.9-13.1 13.1 0 .6.1 1.1.2 1.7l-1.2.3c-2.8-6.7-10.5-9.8-17.2-7-4.9 2.1-8 6.8-8 12.1 0 3 1 5.6 2.7 7.8-9.8 9.5-15.8 22.8-15.8 37.5 0 29 23.5 52.5 52.5 52.5 24.5 0 45.1-16.8 50.8-39.6.6.1 1.1.2 1.7.2 7.3 0 13.1-5.9 13.1-13.1s-6-13-13.2-13" class="st2"/><path d="M210.1 316.1h105v-52.5h-105z" class="st1"/><path d="M341.3 296.4c3.6 0 6.6-2.9 6.6-6.6 0-3.6-2.9-6.6-6.6-6.6-.3 0-.6 0-.8.1-.1-.2-.1-.4-.2-.6 3.3-1.4 4.9-5.3 3.5-8.6-1-2.4-3.4-4-6-4-1.5 0-2.9.5-4 1.4l-.4-.4c.8-1.1 1.3-2.4 1.3-3.9 0-3.6-2.9-6.6-6.6-6.6-2.6 0-5 1.6-6 4-2.3-.7-4.7-1-7.1-1-14.5 0-26.3 11.8-26.3 26.3s11.8 26.3 26.3 26.3c2.5 0 4.8-.4 7.1-1 1.4 3.3 5.3 4.9 8.6 3.5 2.4-1 4-3.4 4-6 0-1.5-.5-2.8-1.3-3.9l.4-.4c1.1.8 2.5 1.4 4 1.4 3.6 0 6.6-2.9 6.6-6.6 0-2.6-1.6-5-4-6.1.1-.2.1-.4.2-.6.2-.1.4-.1.7-.1" class="st2"/><path d="M367.6 102.8c-.4 0-.9-.1-1.3-.1-.4-.1-.8-.2-1.2-.4s-.8-.4-1.1-.6-.7-.5-1-.8-.6-.6-.8-1-.4-.7-.6-1.1c-.3-.8-.5-1.7-.5-2.5 0-.4.1-.9.1-1.3.1-.4.2-.8.4-1.2s.4-.8.6-1.1.5-.7.8-1 .7-.6 1-.8c.4-.2.7-.4 1.1-.6s.8-.3 1.2-.4c.8-.2 1.7-.2 2.6 0 .4.1.8.2 1.2.4s.8.4 1.1.6.7.5 1 .8.6.7.8 1c.2.4.4.7.6 1.1s.3.8.4 1.2.1.9.1 1.3c0 1.7-.7 3.4-1.9 4.6-.3.3-.7.6-1 .8-.4.2-.7.4-1.1.6-.8.3-1.6.5-2.5.5m52.5-3.3c-1.7 0-3.4-.7-4.6-1.9-.3-.3-.6-.6-.8-1s-.4-.7-.6-1.1c-.3-.8-.5-1.7-.5-2.5 0-1.7.7-3.4 1.9-4.6.3-.3.7-.6 1-.8.4-.2.7-.4 1.1-.6s.8-.3 1.2-.4c.8-.2 1.7-.2 2.6 0 .4.1.8.2 1.2.4s.8.4 1.1.6.7.5 1 .8c1.2 1.2 1.9 2.9 1.9 4.6 0 .4-.1.9-.1 1.3-.1.4-.2.8-.4 1.2s-.4.8-.6 1.1-.5.7-.8 1-.7.6-1 .8c-.4.2-.7.4-1.1.6-.8.3-1.6.5-2.5.5" class="st3"/></svg>