<svg xmlns="http://www.w3.org/2000/svg" xml:space="preserve" viewBox="0 0 512 512"><linearGradient id="a" x1="225.429" x2="209.287" y1="-166.381" y2="266.963" gradientTransform="matrix(.9899 -.1407 -.2011 -.9756 -27.302 333.375)" gradientUnits="userSpaceOnUse"><stop offset="0" style="stop-color:#fbf6f0"/><stop offset="1" style="stop-color:#e9dac7"/></linearGradient><path d="M.8 66 282 22.8l78.5 428.6-284.8 42z" style="fill-rule:evenodd;clip-rule:evenodd;fill:url(#a);stroke:#000;stroke-width:.722"/><linearGradient id="b" x1="648.856" x2="245.908" y1="-85.128" y2="276.139" gradientTransform="matrix(.9999 0 0 -.996 -158.098 353.561)" gradientUnits="userSpaceOnUse"><stop offset="0" style="stop-color:#fbfaf9"/><stop offset="1" style="stop-color:#e9dac7"/></linearGradient><path d="m83.8 92.5 320.6-78.1 106.9 406.8L180 507.6z" style="fill-rule:evenodd;clip-rule:evenodd;fill:url(#b);stroke:#000"/><linearGradient id="c" x1="208.125" x2="521.69" y1="291.234" y2="-128.417" gradientTransform="matrix(.9956 -.09253 -.08102 -.9927 -105.406 346.877)" gradientUnits="userSpaceOnUse"><stop offset="0" style="stop-color:#ede1ae"/><stop offset="1" style="stop-color:#fefdfa"/></linearGradient><path d="M59.1 29.7 401.4 0l35.9 440.3-338.7 21.4z" style="fill-rule:evenodd;clip-rule:evenodd;fill:url(#c);stroke:#000;stroke-width:1.004"/><path d="M116 152.3 108.3 72l21.4-2 .9 9.4-9.9.9 5.9 61.5 9.9-.9.9 9.5zm29.4-2.8-7.7-80.4 21.4-2 .9 9.5-9.9.9L156 139l9.9-.9.9 9.5zm21.7-83.2 23.2-2.2c5.2-.5 9.3-.5 12.1.1 3.8.7 7.1 2.4 10 4.9s5.2 5.7 7 9.6 2.9 8.7 3.5 14.6q.75 7.8-.6 13.5-1.65 7.05-5.7 11.7c-2 2.3-4.8 4.3-8.4 5.9q-4.05 1.8-11.1 2.4l-23.9 2.3zm13.7 9.4 4 41.5 9.5-.9c3.5-.3 6.1-.8 7.6-1.3 2-.7 3.6-1.7 4.9-3.1s2.2-3.5 2.8-6.4.6-6.8.2-11.6c-.5-4.8-1.3-8.5-2.4-11q-1.65-3.75-4.2-5.7c-1.7-1.3-3.7-2.1-6.2-2.4-1.8-.2-5.3-.1-10.5.4zm64.8 46.4-21.1-61.3 13-1.2 13.6 42.2 7.4-44.2 15.1-1.4 15.2 42.7 5.4-44.7L307 53l-9.3 64.2-13.5 1.3-17-45.7-8 48.1zm85-71.4 7.7 80.4-21.4 2-.9-9.5 9.9-.9-5.9-61.5-9.9.9-.9-9.4zm29.3-2.8 7.7 80.4-21.4 2-.9-9.5 9.9-.9-5.9-61.5-9.9.9-.9-9.4z" style="fill:#6184a3"/><linearGradient id="d" x1="272.873" x2="287.489" y1="121.01" y2="167.951" gradientTransform="matrix(.9999 0 0 -.996 -158.098 353.561)" gradientUnits="userSpaceOnUse"><stop offset="0" style="stop-color:#e32525;stop-opacity:.816"/><stop offset="1" style="stop-color:#e32525;stop-opacity:.571"/></linearGradient><path d="M66 170.6c-24.3 9.9-40.8 17.7-51.7 25.4s-12.8 18.4-13 25.1c-.1 3.3.3 7.1 2.5 9.8 2.2 2.6 7.3 7.5 11.1 9.5 7.6 4.1 30.3 9.7 42.2 12.3 47.8 10.3 107.6 6.7 107.6 6.7 6.8 5 11.4 11.3 13.1 17.1 18.4-7.5 47.4-26.3 52.8-34.3-21.9-16.8-43.4-25.3-66.3-33.2-6.4-2.9-11.6-4.9-2.9 10.2 4 9.9 3.4 20.2 2.3 29.7 0 0-66.4 1.6-113.4-8.5-11.8-2.5-22-3.8-29-7.6-3.5-1.9-6-3.3-7.7-5.4s-.9-5.2-.8-7.4c.1-4.5 1-6.7 11.5-14.1s22.7-13.4 46.8-23.2c-.3-5.3-1.1-10.2-5.1-12.1" style="fill-rule:evenodd;clip-rule:evenodd;fill:url(#d)"/><linearGradient id="e" x1="440.654" x2="452.781" y1="62.835" y2="148.765" gradientTransform="matrix(.9999 0 0 -.996 -158.098 353.561)" gradientUnits="userSpaceOnUse"><stop offset="0" style="stop-color:#25901b;stop-opacity:.837"/><stop offset="1" style="stop-color:#25901b;stop-opacity:.378"/></linearGradient><path d="M446.9 247.2c-5.8-.6-10.4 1.2-10.3 6 3.8 3.4 5.4 9.7 6 12.6.5 2.8.1 4.9-2 7.6-4.2 5.4-12.5 6.3-26.1 10.9-27.1 9.2-67.8 10.1-112.1 15.4-88.4 10.6-156.7 15-156.7 15 8-18.6 25.4-17.6 25.5-32.8 1.1-3.6-12.6-5.3-20.5-.4-17.1 14.8-30.5 27-42.9 42l7.6 12.3s104.9-11.6 193.5-22.1c44.3-5.3 84.1-8 111.7-17.3 13.8-4.7 23.9-6 30.7-14.1 2.5-3 5.4-12.2 4.3-18.9-.9-5.4-4.6-12.6-8.7-16.2" style="fill-rule:evenodd;clip-rule:evenodd;fill:url(#e)"/><linearGradient id="f" x1="608.075" x2="527.606" y1="-29.648" y2="105.351" gradientTransform="matrix(.9999 0 0 -.996 -158.098 353.561)" gradientUnits="userSpaceOnUse"><stop offset="0" style="stop-color:#3a9030;stop-opacity:.837"/><stop offset="1" style="stop-color:#3d9c32;stop-opacity:.796"/></linearGradient><path d="M385.6 245.5c-27.5 13-28.7 34.4-23.9 51.2s21.1 35 37.4 49.6c32.6 29.2 48.4 37.3 48.4 37.3-14.9-.4-31.7-5.6-32.7 2-3.8 11.9 46.1 13.9 70 10.8-5.6-30.3-15.2-52.9-31-59.6-6.8-.6 1.3 18.9 3.1 37.6 0 0-14.6-6.9-46.6-35.6-16-14.3-29.6-29.4-34-44.8s.3-24.5 19.9-38.1c3.7-4-5.2-9.9-10.6-10.4" style="fill-rule:evenodd;clip-rule:evenodd;fill:url(#f)"/><linearGradient id="g" x1="384.313" x2="508.068" y1="111.45" y2="-70.569" gradientTransform="matrix(.9999 0 0 -.996 -158.098 353.561)" gradientUnits="userSpaceOnUse"><stop offset="0" style="stop-color:#000;stop-opacity:.173"/><stop offset="1" style="stop-color:#c7cec2;stop-opacity:0"/></linearGradient><path d="m223.4 302.5 8.8-57.7 61.1 24.3 86.3 119.8-81.9 36.9z" style="fill:url(#g)"/><radialGradient id="h" cx="423.463" cy="133.911" r="34.858" gradientTransform="matrix(.9999 0 0 -.9802 -158.098 346.626)" gradientUnits="userSpaceOnUse"><stop offset="0" style="stop-color:#d69c00"/><stop offset="1" style="stop-color:#ffe658"/></radialGradient><path d="m298.1 242.3-64 1.3 12.4-60.6z" style="fill-rule:evenodd;clip-rule:evenodd;fill:url(#h);stroke:#000;stroke-linejoin:round"/><path d="m254.1 241.3-17.7.3 3.4-15.9z" style="fill-rule:evenodd;clip-rule:evenodd;fill:#812310"/><linearGradient id="i" x1="402.582" x2="671.696" y1="232.682" y2="232.682" gradientTransform="matrix(.9999 0 0 -.996 -158.098 353.561)" gradientUnits="userSpaceOnUse"><stop offset="0" style="stop-color:#8f2a15"/><stop offset="1" style="stop-color:#c8381b"/></linearGradient><path d="m446.1 1.3.4 35.7 32.4 34.9L510 75 298 242.3l-26.8-13.2-20.4-22.5-4.4-23.6z" style="fill-rule:evenodd;clip-rule:evenodd;fill:url(#i);stroke:#000;stroke-linejoin:round"/><linearGradient id="j" x1="404.389" x2="638.167" y1="221.937" y2="221.937" gradientTransform="matrix(.9999 0 0 -.996 -158.098 353.561)" gradientUnits="userSpaceOnUse"><stop offset="0" style="stop-color:#ce411e"/><stop offset="1" style="stop-color:#ecad8d"/></linearGradient><path d="m444.2 37.5 33.5 35.3-205.2 154.7-19.8-21.8z" style="fill-rule:evenodd;clip-rule:evenodd;fill:url(#j)"/><path d="m510 75.1-32.8-3.5-31.1-34.7.1-36.6 33.6 3 28.9 38.3z" style="fill-rule:evenodd;clip-rule:evenodd;fill:#ffe965;stroke:#000;stroke-linejoin:round"/><path d="m491.4 38 .7 16.2-15.3-2.9-11.5-12.8-1.1-14.1 15.5-.7c-.1.1 11.7 14.3 11.7 14.3" style="fill-rule:evenodd;clip-rule:evenodd;fill:#cb391c"/><linearGradient id="k" x1="267.823" x2="429.885" y1="26.683" y2="-238.334" gradientTransform="matrix(.9999 0 0 -.996 -158.098 353.561)" gradientUnits="userSpaceOnUse"><stop offset="0" style="stop-color:#000;stop-opacity:.173"/><stop offset="1" style="stop-color:#c7cec2;stop-opacity:0"/></linearGradient><path d="m102.6 391.4 4-65.2L176 360l104.6 152-117.6-4.5z" style="fill:url(#k)"/><linearGradient id="l" x1="261.481" x2="331.108" y1="4.092" y2="4.092" gradientTransform="matrix(.9999 0 0 -.996 -158.098 353.561)" gradientUnits="userSpaceOnUse"><stop offset="0" style="stop-color:#d69c00"/><stop offset="1" style="stop-color:#ffe658"/></linearGradient><path d="M171 317.9 138.7 381l-28.3-54.3z" style="fill:url(#l);stroke:#000;stroke-linejoin:round"/><linearGradient id="m" x1="293.483" x2="581.108" y1="-59.817" y2="-59.817" gradientTransform="matrix(.9999 0 0 -.996 -158.098 353.561)" gradientUnits="userSpaceOnUse"><stop offset="0" style="stop-color:#00a423"/><stop offset="1" style="stop-color:#00b427"/></linearGradient><path d="M171.5 318.3 420.9 418l-31.7 12.9-17.5 37.2 4.7 39.8-238-126.9-2-29.5 12.4-23.3z" style="fill:url(#m);stroke:#000;stroke-linejoin:round"/><radialGradient id="n" cx="555.986" cy="79.261" r="28.678" gradientTransform="matrix(.9999 0 0 -1.6248 -158.098 591.492)" gradientUnits="userSpaceOnUse"><stop offset="0" style="stop-color:#d69c00"/><stop offset="1" style="stop-color:#ffe658"/></radialGradient><path d="m389.3 430.3 31.8-12.2 3.4 41-15.7 33.2-32.3 15.1-5.4-38.5z" style="fill:url(#n);stroke:#000;stroke-linejoin:round"/><linearGradient id="o" x1="292.319" x2="548.945" y1="-45.553" y2="-45.553" gradientTransform="matrix(.9999 0 0 -.996 -158.098 353.561)" gradientUnits="userSpaceOnUse"><stop offset="0" style="stop-color:#00b62b"/><stop offset="1" style="stop-color:#a1d784"/></linearGradient><path d="M150.3 329.8 387.7 429l-18.5 39-230.8-116z" style="fill:url(#o)"/><path d="m388.2 465 8.4-16.4 11.9-4.3 2.8 13.5-7.1 15.4-12.7 5.5z" style="fill:#00b527"/><path d="m113.4 328.1 14.3-1.9-8.1 14.2c-.1 0-6.2-12.3-6.2-12.3" style="fill:#258209"/></svg>