<svg xmlns="http://www.w3.org/2000/svg" xml:space="preserve" id="Layer_1" x="0" y="0" version="1.1" viewBox="0 0 512 512"><style>.st2{fill:#fff}</style><g id="Artboards"><g id="V5-START-grid-veiw" transform="translate(-247 -114)"><g id="draw.io-logo" transform="translate(247 114)"><path id="Rectangle-path" d="M21.2 0h469.6c11.2 0 20.3 9.1 20.3 20.3v471.3c0 11.2-9.1 20.3-20.3 20.3H21.2C10 511.9.9 502.8.9 491.6V20.3C.9 9.1 10 0 21.2 0" style="fill:#f08705"/><path id="Shape" d="m271.7 131.1 55-58.3 184.4 184.9v233.8c0 11.3-9.1 20.5-20.4 20.5H170.6l-98.1-98.9z" style="fill-rule:evenodd;clip-rule:evenodd;fill:#df6c0c"/><path id="Rectangle-path_00000054257497843400707670000014441641413783004800_" d="M301.9 163.8h30.6v153.6h-30.6z" class="st2" transform="rotate(-30 317.218 240.652)"/><path id="Rectangle-path_00000099627492899002864360000000092642711622040492_" d="M118.2 225.3h153.1V256H118.2z" class="st2" transform="rotate(-60 194.768 240.647)"/><path id="Rectangle-path_00000147916641047701857300000010343826229984575634_" d="M199.8 66.6h112.4c11.2 0 20.3 9.1 20.3 20.3v87.3c0 11.2-9.1 20.3-20.3 20.3H199.8c-11.2 0-20.3-9.1-20.3-20.3V86.9c0-11.2 9.1-20.3 20.3-20.3" class="st2"/><path id="Rectangle-path_00000141424660612894820370000009760164049374884795_" d="M312 291.8h112.4c11.2 0 20.3 9.1 20.3 20.3v87.3c0 11.2-9.1 20.3-20.3 20.3H312c-11.2 0-20.3-9.1-20.3-20.3v-87.3c0-11.2 9.1-20.3 20.3-20.3" class="st2"/><path id="Rectangle-path_00000009586975259441275320000007900314243478313906_" d="M87.5 291.8H200c11.2 0 20.3 9.1 20.3 20.3v87.3c0 11.2-9.1 20.3-20.3 20.3H87.5c-11.2 0-20.3-9.1-20.3-20.3v-87.3c0-11.2 9.1-20.3 20.3-20.3" class="st2"/></g></g></g></svg>