<svg xmlns="http://www.w3.org/2000/svg" class="h-auto w-[194px] false" alt="The DreamHost Logo" enable-background="new 0 0 471.3 89.3" viewBox="17.99 14.6 60.81 60.2"><g fill="#fff"><path d="m77.3 60c-4.9 2.7-10.5 4.2-16.5 4.1-17.8-.4-31.8-14.7-31.5-32.1.1-5.9 1.9-11.4 4.9-16-9.5 5.3-16 15.2-16.2 26.7-.4 17.3 13.7 31.7 31.4 32.1 11.8.2 22.1-5.7 27.9-14.8"/></g><path d="m51.3 14.6c-4.8 0-9.3 1.2-13.3 3.4-2.5 4.1-3.9 8.8-4.1 13.6-.3 15.1 12 27.6 27.3 27.9 4.6 0 9.8-1.1 13.8-3.3 2.4-4.1 3.8-8.9 3.8-14 .2-15.2-12.2-27.6-27.5-27.6z" fill="#0073ec"/></svg>