<svg xmlns="http://www.w3.org/2000/svg" xml:space="preserve" id="Layer_1" x="0" y="0" version="1.1" viewBox="0 0 512 512"><style>.st1{fill:#fff}</style><path d="M240 440c-27.2 0-48-20.8-48-48v-80c0-27.2 20.8-48 48-48h128c27.2 0 48 20.8 48 48v80c0 27.2-20.8 48-48 48z" style="fill:#65b1dd"/><path d="M368 280c17.6 0 32 14.4 32 32v80c0 17.6-14.4 32-32 32H240c-17.6 0-32-14.4-32-32v-80c0-17.6 14.4-32 32-32zm0-32H240c-35.2 0-64 28.8-64 64v80c0 35.2 28.8 64 64 64h128c35.2 0 64-28.8 64-64v-80c0-35.2-28.8-64-64-64" class="st1"/><path d="M64 472c-27.2 0-48-20.8-48-48V312c0-27.2 20.8-48 48-48h160c27.2 0 48 20.8 48 48v112c0 27.2-20.8 48-48 48z" style="fill:#336697"/><path d="M224 280c17.6 0 32 14.4 32 32v112c0 17.6-14.4 32-32 32H64c-17.6 0-32-14.4-32-32V312c0-17.6 14.4-32 32-32zm0-32H64c-35.2 0-64 28.8-64 64v112c0 35.2 28.8 64 64 64h160c35.2 0 64-28.8 64-64V312c0-35.2-28.8-64-64-64" class="st1"/><path d="M192 328c-27.2 0-48-20.8-48-48V88c0-27.2 20.8-48 48-48h256c27.2 0 48 20.8 48 48v192c0 27.2-20.8 48-48 48z" style="fill:#1d4775"/><path d="M448 56c17.6 0 32 14.4 32 32v192c0 17.6-14.4 32-32 32H192c-17.6 0-32-14.4-32-32V88c0-17.6 14.4-32 32-32zm0-32H192c-35.2 0-64 28.8-64 64v192c0 35.2 28.8 64 64 64h256c35.2 0 64-28.8 64-64V88c0-35.2-28.8-64-64-64" class="st1"/></svg>