<svg xmlns="http://www.w3.org/2000/svg" viewBox="-0.01 -0.01 1058.34 465.85"><path fill="#fff" d="M91.053 0 77.334 57.707l102.28.04h24c65.747 0 105.91 26.44 94.746 73.4-12.147 51.132-69.613 73.4-130.67 73.4h-22.947l29.787-125.45H72.26l-43.521 183.2h145.05c109.07 0 212.76-57.574 231.01-131.15 3.347-13.508 2.88-47.254-5.36-67.36-.212-.787-.425-1.4-1.185-3-.293-.653-.56-3.641 1.147-4.281.947-.36 2.707 1.494 2.933 2.04.853 2.24 1.506 3.907 1.506 3.907l92.293 260.6 234.97-265.21 99.535-.09h24c65.76 0 106.25 26.44 95.092 73.4-12.147 51.133-69.947 73.4-131 73.4h-22.959l29.8-125.47H723.3l-43.534 183.21h145.07c109.05 0 213.48-57.4 231-131.15S996.73-.007 887.147-.007h-216.4s-57.319 67.88-67.959 80.693c-57.12 68.787-67.24 87.226-68.96 91.986.24-4.8-1.815-23.412-26.175-92.959-6.48-18.52-27.359-79.72-27.359-79.72H91.044zm408.77 324.16c-276.04 0-499.83 31.72-499.83 70.84s223.79 70.84 499.83 70.84 499.83-31.72 499.83-70.84-223.79-70.84-499.83-70.84m-18.094 48.627c63.04 0 114.13 10.573 114.13 23.613s-51.095 23.613-114.13 23.613c-63.027 0-114.13-10.573-114.13-23.613s51.106-23.613 114.13-23.613"/></svg>