<svg xmlns="http://www.w3.org/2000/svg" viewBox="0 0 100 110"><defs><filter id="a"><feGaussianBlur in="SourceAlpha" result="blur" stdDeviation="1.7"/><feOffset dx="3" dy="3" in="blur" result="offsetBlur"/><feFlood flood-color="#3D4574" flood-opacity=".4" result="offsetColor"/><feComposite in="offsetColor" in2="offsetBlur" operator="in" result="offsetBlur"/><feBlend in="SourceGraphic" in2="offsetBlur"/></filter></defs><g filter="url(#a)" pointer-events="all"><path fill="#1a1a1a" d="m50 0 50 24.01v61.98L50 110 0 85.99V24.01Z"/><path fill-opacity=".2" d="m50 48.02 50-24.01v61.98L50 110Z"/><path fill="#fff" fill-opacity=".2" d="M50 48.02 0 24.01v61.98L50 110Z"/><path fill="none" d="M61.29 83.72h-3.22v-5.33h-1.62v5.33h-3.22v-5.33l-1.62.01v5.32l-3.22-.01V78.4l-1.62-.01v5.32l-3.22.01v-5.33h-1.62v5.33h-3.22V78.4l-2.8-.01c-3.8 0-7.29-3.17-7.29-7.24v-4.86h-7.34v-3.23h7.34v-1.61h-7.34v-3.22h7.34v-1.62h-7.34v-3.23h7.34v-1.61h-7.34v-3.23h7.34v-1.61h-7.34V43.7h7.34v-2.87c0-3.55 3.02-7.2 7.31-7.2h2.78v-7.35l3.22.01v7.34h1.62v-7.35l3.22.01v7.34h1.62v-7.34l3.22-.01v7.35h1.62v-7.35l3.22.01v7.34h1.62v-7.35l3.22.01v7.34h2.83c3.66 0 7.25 3.04 7.25 7.34v2.73h7.35v3.23h-7.35v1.61h7.35v3.23h-7.35v1.61l7.35.01v3.22h-7.35v1.62h7.35v3.22h-7.35v1.61h7.35v3.23h-7.35v4.85c0 3.68-3.09 7.26-7.32 7.26l-2.76-.01Z"/><path fill="none" d="m38.71 78.4-2.8-.01c-3.8 0-7.29-3.18-7.29-7.24V69.3c0 3.13 2.76 7.07 7.37 7.07h2.72Zm3.22-.01v-2.02l1.62.02v2Zm4.84 0v-2.02h1.62v2.03Zm4.84.01v-2.03h1.62v2.02Zm4.84-.01v-2.02h1.62v2.02Zm4.84 0v-2.02h2.91c3.77 0 7.17-3.3 7.17-7.14v1.91c0 3.69-3.09 7.26-7.32 7.26ZM49.95 54.76c-2.94 0-5.27-2.42-5.27-5.25 0-3.3 2.87-5.24 5.15-5.24 2.92 0 5.33 2.24 5.33 5.26 0 2.72-2.26 5.23-5.21 5.23m-.08 1.61c4.09 0 6.91-3.26 6.91-6.81 0-3.79-2.98-6.9-6.94-6.9-3.55 0-6.78 2.95-6.78 6.77 0 4.09 3.25 6.94 6.81 6.94m-2.29 12.26h4.75l-1.36-5.58c.69-.33 1.29-1.1 1.29-2.07 0-1.34-1.08-2.35-2.32-2.35-1.28 0-2.36 1-2.36 2.35 0 .98.61 1.76 1.31 2.08Zm-4.72 3.07c-.74 0-1.57-.67-1.57-1.6V42.15c0-.85.72-1.59 1.6-1.59h14.3c.82 0 1.61.66 1.61 1.64v27.88c0 .8-.78 1.62-1.64 1.62Z"/><path fill="none" stroke="#f33" stroke-linecap="round" stroke-linejoin="round" stroke-miterlimit="10" stroke-width="3.5" d="M21.06 43.95q0 0 0 0m0 0q0 0 0 0m9.98 31.2C42.4 60.23 56.67 45.6 64.5 36.66M31.04 75.15c8.73-9.01 16.61-18.21 33.46-38.49m-5.11 48.56c1.64-1.87 3.3-2.9 3.94-4.53m-3.94 4.53c1.55-1.57 3.02-3.8 3.94-4.53m0 0c5.08-5.88 8.9-9.16 10.49-12.08M63.33 80.69c2.11-3.63 5.7-5.81 10.49-12.08m0 0c.54-.87 1.03-1.5 1.97-2.26m-1.97 2.26c.55-.43.76-.83 1.97-2.26"/><path fill="none" stroke="#000" stroke-linecap="round" stroke-linejoin="round" stroke-miterlimit="10" stroke-opacity=".3" stroke-width="3.5" d="M28.74 69.17q0 0 0 0m0 0q0 0 0 0m13.05 7.37q0 0 0 0m0 0q0 0 0 0m4.72.13q0 0 0 0m0 0q0 0 0 0m5.38-.62q0 0 0 0m0 0q0 0 0 0m4.73.13q0 0 0 0m0 0q0 0 0 0m4.72.13q0 0 0 0m0 0q0 0 0 0"/><path fill="none" stroke="#fff" stroke-linecap="round" stroke-linejoin="round" stroke-miterlimit="10" stroke-width="7" d="M21.28 26.28q0 0 0 0m0 0q0 0 0 0m0 0q0 0 0 0m0 0q0 0 0 0m0 0q0 0 0 0m0 0q0 0 0 0m0 0q0 0 0 0m0 0q0 0 0 0"/><path fill="none" stroke="#fff" stroke-linecap="round" stroke-linejoin="round" stroke-miterlimit="10" stroke-width="3.5" d="M46.18 45.91q0 0 0 0m0 0q0 0 0 0m-1.25-1.09q0 0 0 0m0 0q0 0 0 0m2.95 15.81q0 0 0 0m0 0q0 0 0 0m-5.97-19.76q0 0 0 0m0 0q0 0 0 0m6.04 35.73c6.28-8.87 12.11-16.04 22.31-25.67M47.95 76.6c5.52-5.07 8.89-10.04 22.31-25.67"/></g></svg>