<svg xmlns="http://www.w3.org/2000/svg" data-name="Ebene 1" viewBox="0 0 30.37 30.82"><path d="M30.37 2.8c0-1.55-1.26-2.8-2.81-2.8H2.81C1.26 0 0 1.26 0 2.81v25.21c0 1.55 1.26 2.8 2.81 2.8h24.75a2.81 2.81 0 0 0 2.81-2.8V2.81" style="fill:#ea5a0a"/><path d="M24.96 13.76h-1.29c-.9-3.85-4.31-6.86-8.4-6.86-4.76 0-8.63 3.87-8.63 8.7s3.86 8.8 8.63 8.8c4.11 0 7.55-2.93 8.42-6.78h-2.48c-.79 2.2-3.17 4.39-5.98 4.39-3.46 0-6.26-2.89-6.26-6.4s2.8-6.25 6.26-6.25c2.75 0 5.08 2.2 5.93 4.4h-1.49c-.66 0-1.21.43-1.21 1.1s.54 1.1 1.21 1.1h5.3c.66 0 1.2-.43 1.2-1.1s-.54-1.1-1.2-1.1" style="fill:#fff"/></svg>