<svg xmlns="http://www.w3.org/2000/svg" xml:space="preserve" viewBox="3.42 46.22 505.37 419.48"><path d="M158.9 400.6c-4 0-6-5.3-6-16V120.4c0-5.1-1-7.5-3.1-7.2l-19.1 4.8c-3.5.3-5.2-3.2-5.2-10.5v-23c0-6.3 1.9-9.9 5.7-10.7l63.1-16.2c.5-.1 1.2-.2 2.1-.2 3.5 0 5.2 3.7 5.2 11.2v316.1c0 10.7-2.1 16-6.2 16zm163.5.5c-6.4 0-11.9-.4-16.6-1.3q-7.05-1.35-14.7-6c-5.1-3.1-9.3-7.4-12.6-12.8s-5.9-13-8-22.7c-2-9.7-3.1-21.3-3.1-34.7V201c0-3.2-.9-4.8-2.6-4.8H250c-4 0-6-3.8-6-11.5v-12.9q0-11.7 6-11.7h14.8c1.7 0 2.6-2.1 2.6-6.4l4.3-93c.5-8.4 2.5-12.7 6.2-12.7h23.9c4 0 6 4.2 6 12.7v93c0 4.3.9 6.4 2.9 6.4h30.5q6 0 6 11.7v12.9c0 7.6-2 11.5-6 11.5h-30.6c-1.1 0-1.9.3-2.3.8s-.6 1.9-.6 4v123.4c0 9.2.6 17 1.8 23.1s2.9 10.7 5.2 13.5 4.6 4.8 6.9 5.7c2.3 1 5.1 1.4 8.5 1.4h17c4.3 0 6.4 3 6.4 8.8v14.3c0 6.5-2.3 9.8-6.9 9.8zm91.7 28.7c3.6 0 6.8-3 9.5-9s4.1-14.5 4.1-25.5c0-2.6-1.6-11.4-4.8-26.5L376.1 174c-.3-2.2-.5-4-.5-5.3 0-5.7 1.2-8.6 3.6-8.6h28.9c2.2 0 4 .8 5.5 2.3s2.6 4.6 3.3 9.2L448.1 336c.6 1.9 1 2.9 1.2 2.9.6 0 1-.9 1-2.6l24.4-164c.6-4.8 1.6-8 3-9.7s3.1-2.5 5.1-2.5h20.1c2.7 0 4.1 3.1 4.1 9.3 0 1.4-.2 3.3-.5 5.5l-42.6 221.6c-3.3 18.3-7 32.4-11 42.1s-8.4 16.3-13.4 19.8c-5.8 3.8-12.7 5.7-19.6 5.5h-2.4c-12.9 0-21.7-3.4-26.3-10.3-1.3-1.4-1.9-5.1-1.9-11q0-17.7 5.7-17.7c.3 0 3.2.8 8.6 2.4 5.4 1.7 8.9 2.5 10.5 2.5zM38.6 401.1c-4 0-6-5.3-6-16V120.9c0-5.1-1-7.5-3.1-7.2l-19.1 4.8c-3.5.3-5.2-3.2-5.2-10.5V85c0-6.3 1.9-9.9 5.7-10.7L74 58c.5-.1 1.2-.2 2.1-.2 3.5 0 5.2 3.7 5.2 11.2v316.1c0 10.7-2.1 16-6.2 16z" style="fill:#231f20;stroke:#231f20;stroke-width:3.5682;stroke-miterlimit:10"/></svg>