<svg width="401" height="401" viewBox="0 0 401 401" fill="none" xmlns="http://www.w3.org/2000/svg">
<g clip-path="url(#clip0_1123_12332)">
<rect width="400" height="400" transform="translate(0.150391 0.220703)" fill="#0B35F1"/>
<path d="M123.811 -145.323C125.634 -145.74 127.524 -145.576 129.376 -145.614C144.239 -145.508 159.102 -145.731 173.945 -145.508C176.495 -145.643 176.243 -142.938 176.437 -141.154C184.658 -141.174 192.88 -141.251 201.102 -141.145C203.768 -141.436 203.69 -138.294 203.807 -136.52C209.362 -136.413 214.917 -136.714 220.463 -136.443C222.227 -135.686 221.801 -133.359 222.16 -131.799C226.125 -131.721 230.119 -132.022 234.085 -131.653C236.014 -131.227 235.481 -128.88 235.743 -127.426C239.698 -127.378 243.664 -127.639 247.61 -127.3C249.675 -126.902 249.045 -124.479 249.432 -123.005C254.842 -122.908 260.281 -123.238 265.682 -122.869C267.776 -122.375 266.826 -119.67 267.349 -118.128C270.035 -118.089 272.779 -118.458 275.425 -117.857C276.783 -117.101 276.278 -115.249 276.724 -113.998C277.898 -113.794 279.1 -113.639 280.254 -113.271C280.893 -112.001 280.855 -110.537 281.087 -109.16C286.439 -109.131 291.801 -109.344 297.152 -109.092C299.537 -109.005 299.091 -106.077 299.334 -104.439C301.796 -104.458 304.278 -104.613 306.751 -104.332C308.486 -103.663 308.079 -101.54 308.428 -100.085C311.046 -100.056 313.702 -100.347 316.291 -99.843C317.726 -99.0286 317.377 -97.2156 317.745 -95.8486C319.025 -95.548 320.896 -95.9068 321.555 -94.4137C321.759 -93.289 321.914 -92.1547 322.001 -91.001C323.436 -90.6325 325.889 -91.3112 326.422 -89.3818C326.519 -88.6547 326.713 -87.2101 326.81 -86.483C329.195 -86.4636 331.609 -86.6575 333.985 -86.2406C336.001 -85.6977 335.352 -83.2932 335.73 -81.7323C338.57 -81.616 341.537 -82.1783 344.281 -81.2185C344.62 -80.0356 344.804 -78.8237 345.027 -77.6215C345.541 -77.1852 346.579 -76.332 347.093 -75.8958C347.48 -73.7531 344.921 -73.9761 343.612 -73.5883C343.602 -71.9692 343.602 -70.3501 343.612 -68.731C345.134 -68.7213 346.666 -68.7019 348.208 -68.6825C348.266 -70.6409 348.886 -73.3653 351.475 -72.8612C353.976 -72.9387 353.986 -70.2919 354.102 -68.4692C355.363 -68.285 356.652 -68.1299 357.893 -67.7614C358.358 -66.4138 358.494 -64.9789 358.698 -63.5731C359.939 -63.2725 361.577 -63.7282 362.508 -62.6424C363.439 -60.81 363.439 -58.1729 361.626 -56.8737C359.997 -55.6909 360.928 -53.4222 360.656 -51.7449C363.158 -51.5898 365.95 -52.0939 368.015 -50.31C369.198 -50.0482 370.41 -49.8446 371.583 -49.4568C372.659 -46.8488 372.077 -43.9014 372.194 -41.148C373.57 -40.7699 375.626 -41.2837 376.256 -39.6064C376.43 -38.5012 376.556 -37.3959 376.634 -36.281C378.117 -35.8738 380.367 -36.5524 381.113 -34.8073C381.559 -32.4223 381.288 -29.9694 381.336 -27.5649C382.79 -27.2547 385.04 -27.6813 385.621 -25.8586C386.058 -23.3766 385.825 -20.8461 385.864 -18.3448C387.211 -17.957 389.412 -18.4223 389.994 -16.6966C390.295 -14.1661 390.12 -11.5969 390.149 -9.04703C391.652 -8.63983 394.531 -9.16338 394.657 -6.92377C394.919 -3.11354 394.706 0.70639 394.725 4.52632C396.199 4.97229 398.332 4.48753 399.272 6.02908C399.689 8.54015 399.437 11.1094 399.476 13.6496C400.891 13.9986 402.995 13.6205 403.674 15.3171C403.994 18.5457 403.975 21.8323 403.684 25.0609C402.869 26.2049 401.386 26.5733 400.319 27.3974C402.801 28.1245 405.836 27.029 407.969 28.716C408.531 32.8073 408.085 36.9763 408.192 41.0968C409.889 41.3295 413.282 40.932 413.049 43.5885C413.214 50.2491 413.088 56.9194 413.088 63.5801C414.533 63.9097 417.218 63.6285 417.306 65.7615C417.606 70.9485 417.364 76.1645 417.325 81.3611C421.048 80.6922 425.227 80.188 428.823 81.3999C430.065 83.785 429.25 86.7323 429.463 89.3597C432.12 89.8736 436.289 88.0606 437.869 90.9498C438.121 94.1298 438.218 97.368 437.782 100.538C435.61 102.584 432.149 101.362 429.463 101.711C429.454 103.292 429.454 104.882 429.463 106.472C432.052 106.608 434.796 106.055 437.287 107.005C438.587 108.741 437.821 111.213 438.063 113.249C437.83 115.004 438.654 117.961 436.405 118.62C433.186 118.94 429.793 119.134 426.632 118.484C424.722 116.274 425.886 113.026 425.585 110.36C422.841 110.369 420.069 110.476 417.402 109.768C417.364 115.314 417.878 120.957 416.976 126.434C415.716 126.88 414.378 127.045 413.078 127.258C413.069 132.581 413.243 137.904 413.03 143.227C412.904 145.408 410.17 145.078 408.657 145.486C408.609 148.19 408.997 151.012 408.173 153.639C407.096 154.696 405.38 154.26 404.023 154.57C403.674 155.927 404.072 157.798 402.578 158.545C401.793 158.681 400.242 158.952 399.457 159.078C399.418 161.638 399.757 164.255 399.204 166.776C398.351 168.405 396.306 167.794 394.861 168.027C394.56 169.375 394.968 171.091 393.911 172.186C392.709 172.4 391.516 172.574 390.324 172.681C389.946 173.922 390.343 175.628 389.17 176.481C388.084 176.724 386.988 176.898 385.893 177.014C385.796 185.391 385.98 193.778 385.815 202.154C385.786 204.471 382.887 204.064 381.336 204.355C381.259 207.118 381.637 209.949 381.026 212.674C379.892 213.827 378.04 213.372 376.595 213.711C376.401 216.484 376.896 219.412 375.955 222.097C373.483 223.154 370.701 222.553 368.102 222.698C367.656 224.036 368.005 226.509 366.086 226.751C360.52 227.73 354.829 227.061 349.225 227.207C349.167 229.592 349.322 231.987 349.051 234.362C348.867 236.369 346.375 235.894 344.979 236.272C344.64 258.348 344.96 280.424 344.824 302.49C348.847 303.382 347.199 308.055 347.442 311.032C350.021 311.565 352.774 311.148 355.304 311.924C356.807 314.231 355.712 317.266 356.002 319.874C357.544 319.864 359.095 319.864 360.656 319.874C361.073 317.256 359.59 313.708 361.849 311.759C365.174 311.245 368.655 311.274 371.99 311.74C374.162 313.785 372.736 317.237 373.144 319.884C375.49 319.913 377.894 319.661 380.231 320.087C382.325 321.066 381.375 323.8 381.656 325.643C381.336 327.756 382.461 330.83 380.241 332.129C376.915 332.4 373.309 332.836 370.109 331.848C368.48 329.53 369.586 326.36 369.304 323.713C367.685 323.704 366.095 323.713 364.505 323.723C364.224 326.399 365.252 329.589 363.681 331.915C360.443 332.749 356.933 332.439 353.627 332.138C351.077 330.277 352.551 326.418 352.144 323.713C350.563 323.713 348.973 323.713 347.403 323.723C347.393 325.255 347.393 326.806 347.403 328.348C347.839 328.774 348.721 329.608 349.167 330.035C349.206 340.021 349.206 350.016 349.167 360.012C350.699 360.264 352.629 359.857 353.734 361.253C354.141 363.299 353.937 365.403 354.015 367.487C357.214 369.349 355.537 373.363 355.915 376.368C357.515 376.339 359.124 376.32 360.734 376.3C361.17 373.624 359.425 369.775 362.004 367.953C365.455 367.72 369.072 367.361 372.455 368.273C373.696 371.53 373.241 375.457 372.795 378.889C370.846 381.274 367.171 379.723 364.495 380.12C364.379 382.583 364.971 385.171 364.224 387.556C362.906 389.263 360.385 388.361 358.543 388.681C358.552 391.367 358.552 394.052 358.552 396.748C359.018 396.728 359.939 396.709 360.394 396.689C362.217 394.392 365.32 395.196 367.879 395.041C369.692 395.167 372.921 394.615 373.037 397.261C373.115 400.412 373.57 403.738 372.64 406.792C369.566 408.169 366.008 407.218 362.75 407.471C362.75 409.061 362.76 410.651 362.76 412.25C365.833 412.338 368.975 411.892 372.009 412.57C373.948 415.392 372.766 419.308 372.911 422.585C372.62 425.009 369.527 424.263 367.85 424.612C367.84 425.804 367.84 427.006 367.85 428.209C369.266 428.616 372.038 428.024 372.106 430.216C372.378 435.616 372.135 441.026 372.203 446.436C373.609 446.843 375.742 446.329 376.295 448.113C376.779 451.981 376.285 455.908 376.615 459.805C379.116 461.958 377.885 465.448 378.166 468.308C381.104 468.434 381.772 470.965 381.433 473.495C382.771 473.883 384.264 473.999 385.428 474.862C385.874 476.714 386.62 479.603 384.38 480.631C382.306 480.902 380.211 480.786 378.127 480.805C378.137 482.386 378.156 483.985 378.175 485.585C379.63 485.566 381.094 485.546 382.567 485.546C383.498 482.851 386.397 482.58 388.831 483.287C391.022 484.441 390.091 487.447 390.072 489.454C389.975 491.199 387.939 491.102 386.736 491.664C386.746 492.284 386.766 493.526 386.766 494.136C389.393 494.253 392.166 493.729 394.677 494.708C395.714 497.21 395.152 499.992 395.268 502.639C397.818 502.649 400.407 502.397 402.918 502.949C404.43 506.43 403.926 510.696 403.306 514.341C400.242 515.854 396.373 514.952 393.019 514.942C390.042 513.391 391.943 509.145 391.419 506.478C388.802 506.178 385.728 507.225 383.43 505.683C382.471 503.269 383.062 500.535 382.916 497.995C380.367 497.85 377.681 498.431 375.238 497.588C373.609 495.242 374.627 492.062 374.356 489.386C372.814 489.386 371.272 489.386 369.75 489.395C369.595 492.052 370.206 494.902 369.14 497.433C365.756 498.519 361.955 498.044 358.455 497.801C356.225 495.852 357.66 492.12 357.263 489.463C354.616 489.037 350.98 490.462 349.061 488.096C348.644 485.682 348.896 483.219 348.876 480.796C347.267 480.786 345.677 480.786 344.077 480.786C343.777 482.793 344.814 486.642 341.77 486.719C336.796 486.942 331.803 486.758 326.83 486.778C326.558 488.145 326.655 489.686 325.753 490.85C322.428 491.441 318.986 491.237 315.632 491.014C313.537 490.85 314.129 488.368 313.751 486.942C312.102 486.622 309.349 487.098 309.475 484.645C309.204 475.24 309.485 465.826 309.359 456.422C309.378 455.54 309.058 454.793 308.399 454.182C308.118 456.897 308.399 459.631 308.079 462.336C306.877 464.789 303.619 463.48 301.496 463.877C301.292 466.485 302.048 469.384 300.895 471.779C298.568 473.175 295.533 472.196 292.935 472.487C292.935 473.941 292.935 475.405 292.935 476.879C295.475 476.937 298.083 476.617 300.575 477.247C302.242 480.582 301.467 484.8 301.186 488.436C298.791 490.433 295.097 489.104 292.188 489.424C287.428 489.929 289.202 483.927 288.902 481.038C286.245 480.621 282.706 481.882 280.777 479.574C280.089 477.276 280.409 474.833 280.331 472.477C277.694 472.012 273.69 473.708 272.071 471.042C272.148 467.474 270.965 463.267 272.875 460.106C275.416 459.679 278.004 459.912 280.573 459.932C280.554 458.351 280.554 456.771 280.554 455.2C279.022 455.21 277.5 455.22 275.978 455.229C275.629 456.606 275.91 459.185 273.932 459.33C266.496 459.534 259.021 459.98 251.604 459.398C249.617 459.33 249.936 456.742 249.549 455.423C248.24 455.026 246.184 455.365 245.923 453.562C245.069 447.677 246.097 441.685 245.273 435.8C244.342 437.332 244.594 439.271 243.635 440.774C242.442 441.191 241.201 441.423 239.921 441.481C239.902 443.857 240.057 446.261 239.718 448.636C239.369 450.488 237.11 450.188 235.743 450.508C235.665 451.594 235.529 452.679 235.335 453.765C234.628 455.346 232.64 454.938 231.273 455.278C230.924 456.625 231.254 459.175 229.276 459.301C223.759 459.699 218.223 459.359 212.707 459.466C212.435 460.891 212.765 462.704 211.379 463.664C205.862 464.071 200.316 463.732 194.8 463.81C194.499 465.312 194.741 467.106 193.694 468.395C188.895 468.958 183.999 468.696 179.181 468.56C177.028 468.172 177.387 465.574 177.164 463.974C175.671 463.664 173.625 464.188 172.801 462.53C172.326 460.145 172.588 457.682 172.539 455.268C171.066 454.861 168.574 455.617 168.128 453.562C167.663 449.558 167.963 445.515 167.944 441.491C165.103 441.85 163.61 439.853 162.893 437.419C162.737 448.317 162.931 459.214 162.805 470.112C162.941 471.653 161.574 472.69 160.934 473.951C162.951 474.242 166.761 473.049 167.236 475.929C167.488 488.843 167.275 501.776 167.343 514.7C168.622 514.923 170.057 514.836 171.201 515.602C171.87 517.463 171.676 519.528 171.512 521.487C171.347 523.523 168.894 523.251 167.459 523.571C167.333 524.783 167.149 525.985 166.916 527.187C164.938 528.322 162.447 527.779 160.333 527.381C158.462 527.158 158.927 524.861 158.501 523.59C156.998 523.241 154.516 523.678 154.419 521.496C154.002 515.35 154.128 509.164 154.4 503.017C154.981 500.904 157.502 501.64 159.092 501.262C159.005 495.397 159.315 489.512 158.908 483.656C157.056 485.634 158.84 488.833 157.027 490.859C154.739 491.257 149.882 492.197 150.056 488.571C149.92 483.481 148.408 478.43 149.348 473.33C151.316 470.897 155.069 472.39 157.783 471.992C157.696 470.48 157.638 468.977 157.599 467.484C156.474 466.912 154.186 467.067 154.273 465.283C154.012 456.034 154.225 446.775 154.186 437.526C151.103 435.897 147.69 436.052 144.365 436.653C144.084 446.833 144.627 457.023 144.152 467.203C143.512 468.929 141.485 468.541 140.06 468.851C140.06 469.588 140.06 471.071 140.06 471.818C141.524 472.244 144.055 471.634 144.278 473.776C144.365 476.753 144.404 479.749 144.22 482.735C143.551 484.499 141.534 484.121 140.06 484.412C140.051 485.886 140.051 487.388 140.06 488.881C141.292 489.434 143.841 488.746 144.045 490.559C144.355 493.923 144.792 497.559 143.657 500.807C141.146 501.747 138.402 501.233 135.785 501.35C135.416 504.113 136.948 507.933 134.282 509.833C131.984 510.085 129.667 509.969 127.369 509.988C127.369 511.53 127.369 513.081 127.379 514.642C129.997 515.097 133.836 513.459 135.591 516.038C135.804 519.383 136.289 523.057 135.3 526.276C132.227 527.924 128.203 526.984 124.8 526.887C122.473 524.89 123.83 521.215 123.472 518.53C120.796 518.151 117.315 519.489 115.173 517.482C114.727 514.971 114.833 512.402 114.436 509.881C112.041 509.794 109.598 510.075 107.242 509.552C106.33 507.293 106.311 504.724 104.517 502.843C104.236 493.865 104.479 484.858 104.411 475.87C104.265 473.214 104.944 470.344 103.558 467.93C102.937 473.485 103.558 479.099 103.218 484.674C103.354 486.981 100.542 486.603 99.03 487.02C99.0106 489.618 99.2336 492.265 98.7682 494.844C97.4496 496.861 94.5799 495.93 92.5826 495.94C90.1394 495.862 90.566 493.089 90.4885 491.393C90.663 487.582 90.1879 483.724 90.7405 479.952C91.9137 478.634 93.8333 478.731 95.3943 478.256C95.4815 471.314 95.1616 464.352 95.5397 457.42C95.6366 455.472 98.3513 456.063 99.6311 455.607C99.6892 448.792 99.476 441.966 99.7184 435.15C99.5923 432.63 102.646 432.785 104.411 432.63C104.421 416.991 104.343 401.353 104.45 385.724C104.168 383.058 107.222 383.145 109.006 382.67C109.016 358.228 108.958 333.787 109.035 309.355C107.3 309.044 104.411 309.519 104.469 306.97C104.294 287.928 104.459 268.877 104.391 249.835C102.898 249.38 100.184 250.107 99.7765 248.003C99.3984 241.09 99.728 234.149 99.6311 227.226C94.6283 227.207 89.6256 227.323 84.6325 227.032C86.591 227.701 90.12 227.565 89.645 230.571C89.6547 237.998 89.8292 245.434 89.548 252.86C89.5189 254.867 86.6491 254.257 85.3597 254.732C85.3597 256.341 85.3597 257.95 85.3694 259.569C86.7655 259.977 89.325 259.473 89.4801 261.567C89.9358 271.281 89.5383 281.015 89.6934 290.74C89.5189 292.242 90.1104 294.327 88.5009 295.238C87.7059 295.364 86.1256 295.626 85.3403 295.752C85.3791 300.367 85.3791 304.982 85.3403 309.597C86.9012 309.907 89.6159 309.684 89.548 312.001C89.8098 317.828 89.6935 323.674 89.6159 329.511C89.8389 331.877 86.9303 331.712 85.3985 331.964C85.3015 355.591 85.4663 379.228 85.2918 402.856C85.2433 405.153 82.3056 404.649 80.7835 404.969C80.7641 411.164 80.8514 417.35 80.7544 423.545C80.5702 424.951 81.0744 427.414 78.9899 427.52C78.2531 427.617 76.7988 427.811 76.0716 427.908C75.9456 431.873 76.3819 435.887 75.8292 439.833C75.4996 441.734 73.1049 441.094 71.7379 441.491C71.7281 443.915 71.8639 446.368 71.5052 448.792C70.8071 450.769 68.4415 450.11 66.8514 450.469C66.8127 452.941 67.0551 455.452 66.6575 457.925C66.1146 459.679 63.9622 459.321 62.5467 459.631C62.2462 460.882 62.4401 462.404 61.5287 463.441C60.3847 463.684 59.231 463.878 58.0773 464.013C58.0288 466.65 58.339 469.346 57.8058 471.954C56.8266 473.35 54.9651 472.972 53.5205 473.292C53.8889 476.22 51.6396 477.877 48.8958 477.625C48.6438 479.341 48.7795 481.629 46.7338 482.298C42.9623 482.851 39.1133 482.279 35.3225 482.434C31.3087 482.279 27.2367 482.929 23.2713 482.24C22.0012 481.164 22.4957 479.215 22.1273 477.761C18.0747 476.695 19.6259 472.06 19.3447 468.977C17.7644 468.987 16.1841 468.997 14.6134 469.006C14.1966 471.692 15.8157 475.657 12.9846 477.344C10.1342 477.635 7.25476 477.587 4.40436 477.412C3.24092 477.344 2.17445 476.142 2.27141 474.988C2.19385 472.128 1.95146 469.2 2.4944 466.379C4.511 464.091 8.03038 465.448 10.716 465.099C10.9486 462.404 10.0276 459.359 11.4819 456.936C14.0317 456.189 16.727 456.577 19.3447 456.499C19.3447 454.919 19.3544 453.339 19.3641 451.768C17.8517 451.758 16.3392 451.758 14.8364 451.768C14.7298 455.646 10.7451 455.268 7.95282 455.142C7.62318 456.538 7.94312 458.506 6.38219 459.282C3.85172 459.631 1.29218 459.447 -1.23828 459.418C-1.54854 460.853 -1.21889 462.918 -2.87677 463.625C-6.9003 464.11 -10.9917 463.693 -15.0346 463.858C-15.3739 465.37 -14.8116 467.562 -16.4598 468.483C-20.4349 468.938 -24.4584 468.58 -28.4431 468.667C-28.8988 470.082 -28.3947 472.933 -30.5664 473.049C-37.4016 473.33 -44.2464 473.088 -51.0912 473.146C-51.2755 474.911 -51.1591 477.819 -53.7768 477.412C-62.7643 477.334 -71.7518 477.761 -80.7393 477.538C-82.6202 476.452 -82.116 473.873 -82.3002 472.051C-82.6493 469.588 -79.8183 469.443 -78.1216 469.316C-78.0925 469.152 -78.044 468.841 -78.0149 468.677C-80.623 468.657 -83.2504 468.803 -85.8487 468.492C-87.526 467.6 -87.0218 465.516 -87.2739 463.994C-88.7088 463.606 -90.9581 464.168 -91.375 462.258C-91.821 457.75 -91.6465 453.184 -91.5107 448.666C-91.375 446.407 -88.7379 446.746 -87.1285 446.474C-87.1576 444.739 -87.1576 443.013 -87.1479 441.297C-88.8154 441.307 -90.483 441.317 -92.1409 441.326C-92.17 443.808 -91.9858 446.319 -92.3445 448.792C-93.0523 450.488 -95.2919 449.955 -96.7171 450.391C-96.9692 451.914 -96.9788 453.678 -98.2198 454.812C-100.052 455.258 -102.02 455.278 -103.862 454.9C-105.569 454.076 -105.016 451.807 -105.404 450.314C-108.313 450.042 -111.861 451.041 -114.246 448.937C-114.682 445.796 -114.556 442.596 -114.362 439.455C-113.946 437.051 -110.775 437.807 -109.059 437.148C-110.61 436.643 -112.22 436.372 -113.771 435.887C-114.624 434.947 -114.353 433.541 -114.634 432.407C-115.952 432.038 -117.717 432.397 -118.58 431.078C-118.774 429.954 -118.939 428.829 -119.055 427.714C-121.799 427.578 -124.756 428.257 -127.354 427.22C-128.033 425.901 -127.955 424.379 -128.188 422.973C-130.553 422.964 -132.929 423.119 -135.285 422.828C-136.981 422.275 -136.662 420.103 -137.098 418.746C-138.775 418.397 -141.238 418.678 -141.606 416.458C-141.974 412.9 -141.839 409.293 -141.587 405.745C-144.447 405.599 -147.443 406.152 -150.225 405.444C-152.319 403.292 -151.059 399.928 -151.389 397.261C-153.968 397.194 -156.614 397.513 -159.154 396.912C-160.648 394.44 -159.756 391.357 -159.979 388.623C-162.635 388.274 -166.009 389.515 -168.152 387.566C-168.85 384.435 -168.549 381.129 -168.346 377.958C-166.891 374.982 -162.616 376.833 -159.979 376.31C-159.494 373.634 -161.21 369.727 -158.602 367.943C-155.15 367.817 -151.34 367.158 -148.083 368.428C-146.871 370.822 -147.724 373.731 -147.491 376.32C-145.959 376.31 -144.418 376.31 -142.886 376.32C-142.828 373.77 -143.157 371.162 -142.576 368.66C-139.24 366.993 -135.101 367.807 -131.475 368.03C-129.312 370.832 -130.922 374.991 -130.447 378.336C-128.673 378.075 -127.102 377.25 -125.638 376.262C-125.657 374.788 -125.677 373.334 -125.696 371.889C-127.635 371.016 -128.498 369.339 -128.072 367.264C-128.459 364.162 -124.659 364.598 -122.71 363.842C-127.005 362.136 -125.483 357.249 -125.638 353.652C-125.657 349.231 -119.908 351.16 -117.116 350.763C-117.058 348.174 -117.465 345.547 -116.922 343.007C-116.03 342.386 -115.06 341.931 -114.004 341.63C-113.839 335.793 -114.508 329.87 -113.655 324.091C-112.346 323.607 -110.959 323.461 -109.592 323.248C-109.602 319.234 -109.97 315.162 -109.272 311.187C-108.691 309.578 -106.538 310.053 -105.23 309.607C-105.094 304.274 -105.511 298.913 -105.026 293.6C-104.735 291.37 -102.146 292.078 -100.576 291.67C-100.585 286.193 -100.886 280.686 -100.411 275.227C-100.236 272.997 -97.4248 273.385 -95.8542 273.046C-95.8251 267.597 -96.0869 262.129 -95.7379 256.69C-95.1464 254.877 -93.0523 255.304 -91.6077 254.993C-91.4913 248.11 -91.8307 241.207 -91.4526 234.342C-89.6395 231.667 -85.7033 233.383 -82.9983 232.946C-83.008 231.318 -83.008 229.708 -83.0177 228.108C-85.6645 227.808 -88.9415 228.903 -91.1811 227.284C-92.044 224.308 -91.5592 221.05 -91.5107 217.977C-91.3944 215.563 -88.5149 215.98 -86.8279 215.689C-86.5758 213.866 -87.2157 211.636 -85.8487 210.172C-84.6465 209.93 -83.4346 209.746 -82.2033 209.62C-82.2615 203.686 -82.213 197.743 -82.2518 191.809C-82.2227 190.278 -82.3584 188.658 -81.5537 187.282C-80.3418 186.923 -79.0911 186.797 -77.8501 186.622C-77.8695 184.538 -77.8695 182.453 -77.8598 180.379C-79.4692 180.03 -81.6507 180.67 -82.7074 179.05C-83.2795 176.675 -82.9498 174.213 -82.9886 171.798C-84.5883 171.847 -86.1783 171.886 -87.7781 171.924C-88.1174 174.552 -86.8473 177.897 -88.8542 180.02C-91.3653 180.611 -93.983 180.311 -96.5329 180.34C-97.8223 180.253 -99.5675 180.437 -100.023 178.886C-100.401 175.609 -100.421 172.235 -99.9553 168.967C-97.5606 167.242 -94.3902 168.095 -91.6271 167.862C-91.6562 166.292 -91.6755 164.721 -91.7143 163.16C-94.4387 162.956 -97.5896 163.945 -99.965 162.249C-100.139 158.69 -101.07 154.541 -99.3639 151.293C-95.9802 150.508 -92.296 150.605 -88.893 151.148C-86.8279 153.222 -88.1368 156.684 -87.7587 159.321C-85.1119 159.553 -81.99 158.613 -79.7213 160.339C-78.8681 162.772 -79.2559 165.429 -79.1881 167.959C-77.6174 167.959 -76.0565 167.969 -74.4762 167.978C-74.9319 163.887 -73.9429 159.961 -72.8183 156.082C-71.7809 154.948 -69.9 155.413 -68.5136 155.084C-68.4263 147.929 -68.7269 140.764 -68.3779 133.618C-67.6216 131.98 -65.6923 132.261 -64.2186 131.941C-64.2477 117.311 -64.2089 102.681 -64.238 88.0606C-64.1992 86.4027 -64.2477 84.7351 -63.8502 83.116C-62.9679 81.8071 -61.087 82.2337 -59.7491 81.875C-59.7976 72.2961 -59.7297 62.7075 -59.7685 53.1286C-60.2242 50.2297 -56.8017 50.2782 -54.853 50.0552C-54.9499 42.6965 -54.853 35.3378 -54.9112 27.9791C-54.8239 26.4764 -55.0954 24.8379 -54.3585 23.4611C-53.166 22.9085 -51.8281 22.86 -50.558 22.637C-50.6065 18.6911 -50.6259 14.7354 -50.5192 10.7894C-54.2325 11.187 -58.2076 11.7687 -61.8239 10.741C-63.1909 8.33655 -62.3668 5.3795 -62.5801 2.74239C-65.2172 2.54849 -68.1549 3.29503 -70.5981 2.09282C-71.7712 -0.020752 -71.141 -2.66756 -71.3058 -4.99442C-71.1313 -6.59413 -71.6742 -9.48332 -69.3571 -9.66753C-66.0898 -9.77417 -62.4541 -10.4335 -59.371 -9.21185C-58.0815 -6.78804 -58.9153 -3.79221 -58.6923 -1.13571C-57.1605 -1.13571 -55.6189 -1.13571 -54.0774 -1.13571C-53.9998 -3.67586 -54.3876 -6.30327 -53.6799 -8.78526C-51.6245 -10.5692 -48.5996 -9.43483 -46.1176 -9.76447C-45.9237 -10.8697 -45.6619 -11.9459 -45.342 -13.0124C-44.0428 -13.5456 -42.6176 -13.5941 -41.2409 -13.7977C-41.1245 -17.6661 -41.5414 -21.5733 -40.9985 -25.4126C-40.7173 -27.3032 -38.4486 -26.8184 -37.1107 -27.1481C-37.0137 -28.2436 -36.8683 -29.3295 -36.6453 -30.396C-35.9376 -32.0442 -33.9306 -31.7048 -32.5152 -32.0635C-32.2825 -33.576 -32.0401 -35.0788 -31.7977 -36.5815C-32.709 -38.8405 -32.7866 -41.3516 -32.3018 -43.7172C-31.9819 -45.9181 -29.3351 -45.2588 -27.7742 -45.5496C-28.5692 -48.9818 -28.6952 -52.5787 -28.2008 -56.0496C-27.5415 -58.0274 -24.9722 -57.1064 -23.4016 -57.5427C-22.2479 -59.1521 -20.2603 -59.1424 -18.4861 -59.4041C-18.4473 -62.0122 -18.6994 -64.6493 -18.2922 -67.2282C-17.3421 -68.634 -15.5485 -68.2268 -14.1136 -68.4207C-14.1136 -69.7296 -13.8906 -70.9803 -13.4446 -72.1728C-12.3781 -72.8127 -11.0596 -72.7448 -9.86705 -73.0066C-9.73131 -74.2379 -9.45984 -75.4304 -9.06235 -76.5938C-7.82135 -77.1852 -6.40584 -77.0786 -5.07759 -77.2725C-4.92247 -80.0647 -5.57207 -83.0121 -4.60254 -85.6977C-3.34215 -86.4151 -1.84908 -86.386 -0.462662 -86.6381C-0.23967 -87.9276 -0.31723 -89.3528 0.458389 -90.4871C1.60242 -90.7101 2.75616 -90.8846 3.9196 -91.001C4.01654 -92.0771 4.15228 -93.1436 4.3268 -94.2101C4.98607 -95.994 7.18689 -95.5093 8.66057 -95.8486C8.98051 -97.2544 8.55392 -99.1837 10.1439 -99.9206C12.5677 -100.27 15.0303 -100.095 17.4735 -100.085C17.8323 -101.423 17.5511 -103.149 18.6467 -104.177C19.7907 -104.4 20.9444 -104.545 22.1079 -104.632C22.4666 -106.048 21.9043 -108.171 23.5234 -108.957C24.648 -109.141 25.7824 -109.267 26.9264 -109.335C27.2851 -110.808 26.558 -113.213 28.6037 -113.649C31.0857 -113.959 33.5871 -113.785 36.0787 -113.756C36.5053 -115.123 35.7782 -117.488 37.6397 -117.944C40.0053 -118.38 42.4291 -118.119 44.8238 -118.148C45.231 -119.709 44.5912 -122.404 46.9277 -122.491C49.3127 -122.704 51.6978 -122.598 54.0925 -122.637C54.3155 -124.071 54.2864 -125.623 54.9942 -126.941C57.5828 -127.93 60.4914 -127.281 63.2254 -127.436C63.4872 -128.735 63.6617 -130.082 64.1659 -131.323C68.267 -132.39 72.6395 -131.566 76.8472 -131.789C77.2157 -133.359 76.7697 -136.249 79.0384 -136.433C84.4192 -136.656 89.8195 -136.481 95.21 -136.481C95.5203 -138.042 95.0161 -140.786 97.2363 -141.077C105.613 -141.319 114.019 -141.145 122.405 -141.145C122.783 -142.541 122.328 -144.509 123.811 -145.323ZM124.577 -143.636C124.558 -142.153 124.548 -140.679 124.538 -139.196C115.492 -139.206 106.437 -139.196 97.3914 -139.196C97.3721 -137.635 97.3624 -136.074 97.343 -134.504C91.235 -134.455 85.1173 -134.513 79.0093 -134.465C78.9899 -132.904 78.9705 -131.333 78.9608 -129.763C74.4622 -129.743 69.9539 -129.753 65.4553 -129.753C65.5038 -128.386 65.562 -127.019 65.6201 -125.652C62.508 -125.4 59.3958 -125.351 56.2739 -125.38C56.2836 -123.916 56.2933 -122.443 56.3127 -120.969C53.2296 -120.436 50.0981 -120.494 46.9859 -120.542C46.9762 -119.069 46.9762 -117.595 46.9762 -116.121C44.0773 -116.112 41.1687 -116.112 38.2699 -116.112C38.2408 -114.667 38.2214 -113.222 38.202 -111.778C35.148 -111.739 32.094 -111.739 29.0497 -111.749C29.04 -110.236 29.04 -108.714 29.0303 -107.202C27.4209 -107.202 25.8115 -107.211 24.2117 -107.211C24.202 -105.631 24.2021 -104.051 24.2021 -102.47C22.7187 -102.47 21.2353 -102.47 19.7616 -102.461C19.7519 -101.016 19.7422 -99.5619 19.7325 -98.1173C16.7755 -98.0979 13.8087 -98.1076 10.842 -98.0979C10.8517 -96.6436 10.8711 -95.1893 10.8905 -93.7253C9.31015 -93.7253 7.72983 -93.7253 6.14951 -93.7253C6.12042 -92.1159 6.11073 -90.5065 6.09134 -88.8971C4.62735 -88.8874 3.16336 -88.8777 1.69937 -88.8583C1.75755 -87.4428 1.81572 -86.0273 1.88359 -84.6118C0.235397 -84.5439 -1.40309 -84.4954 -3.03189 -84.4373C-3.03189 -81.3154 -3.03191 -78.2032 -3.0416 -75.0814C-4.59283 -75.0814 -6.14407 -75.0814 -7.69531 -75.091C-7.705 -73.6562 -7.705 -72.231 -7.71471 -70.7961C-8.77148 -70.8251 -10.8851 -70.8639 -11.9321 -70.893C-11.9321 -69.3805 -11.9321 -67.8681 -11.9224 -66.3556C-13.464 -66.3072 -14.9958 -66.2684 -16.5277 -66.2393C-16.518 -63.3307 -16.5277 -60.4318 -16.4792 -57.5233C-18.3019 -57.0288 -21.1717 -57.882 -21.7728 -55.4582C-23.3144 -55.4388 -24.8462 -55.4291 -26.3781 -55.4194C-26.5429 -51.4056 -26.1745 -47.4111 -25.4861 -43.4555C-27.1537 -43.4264 -28.8116 -43.407 -30.4695 -43.3876C-30.5179 -41.7685 -30.5567 -40.1494 -30.5955 -38.5303C-29.2672 -38.4624 -27.9487 -38.3752 -26.6301 -38.2976C-26.6107 -35.6508 -26.6883 -33.0137 -26.4653 -30.3766C-23.7119 -30.1633 -20.9584 -30.1633 -18.1953 -30.173C-18.1953 -33.0137 -18.1953 -35.8447 -18.1953 -38.6854C-15.2285 -38.6951 -12.2618 -38.6951 -9.28532 -38.6757C-9.28532 -35.7187 -9.28534 -32.7616 -9.29503 -29.8046C-12.1842 -29.7658 -15.0734 -29.7658 -17.9626 -29.8142C-17.9723 -26.9735 -17.9723 -24.1328 -17.9723 -21.2921C-20.9487 -21.1952 -23.9252 -21.1079 -26.9016 -21.3212C-26.8725 -24.1328 -26.7659 -26.9638 -27.0276 -29.7658C-29.6647 -29.8336 -32.2921 -29.7949 -34.9196 -29.7755C-34.9487 -28.166 -34.9778 -26.5566 -35.0068 -24.9472C-36.4417 -24.9375 -37.8766 -24.9278 -39.3018 -24.9278C-39.3018 -20.4777 -39.3018 -16.0179 -39.3018 -11.5678C-40.7658 -11.5775 -42.2298 -11.5872 -43.6938 -11.5969C-44.0234 -8.92099 -44.6051 -6.21602 -43.7519 -3.55952C-43.7519 -5.06229 -43.7907 -6.56503 -43.8295 -8.06781C-40.8821 -7.8739 -37.9154 -7.91269 -34.9584 -7.91269C-34.9487 -5.00412 -34.9487 -2.10522 -34.9584 0.803345C-37.7894 0.803345 -40.6204 0.813034 -43.4417 0.783951C-43.6162 3.54709 -43.6356 6.31993 -43.3738 9.08308C-45.0705 9.52905 -46.835 9.54846 -48.5705 9.62602C-48.5414 14.7063 -48.5414 19.7963 -48.5705 24.8766C-50.0151 24.8863 -51.45 24.8863 -52.8946 24.896C-52.8849 33.9708 -52.8946 43.0358 -52.8849 52.1106C-54.5137 52.1688 -56.1425 52.2366 -57.7616 52.3239C-57.7228 62.9014 -57.7422 73.4886 -57.7713 84.0661C-59.2256 84.0855 -60.6701 84.0952 -62.1147 84.1243C-62.2505 100.781 -62.1244 117.437 -62.1826 134.094C-63.6175 134.103 -65.0524 134.103 -66.4873 134.123C-66.4873 141.801 -66.4873 149.49 -66.4873 157.178C-68.0967 157.226 -69.6964 157.275 -71.2961 157.323C-71.2961 158.516 -71.3058 159.708 -71.2961 160.911C-71.5967 161.231 -72.1784 161.87 -72.4693 162.2C-72.4305 164.411 -72.4111 166.621 -72.3141 168.841C-74.9125 170.538 -78.0731 169.869 -81.0011 169.976C-81.0108 172.729 -81.0108 175.483 -81.0108 178.236C-79.285 178.236 -77.569 178.236 -75.8432 178.246C-75.7947 181.775 -75.8044 185.314 -75.8432 188.843C-77.2878 188.843 -78.7324 188.852 -80.177 188.852C-80.1673 196.483 -80.1867 204.113 -80.1673 211.743C-81.7088 211.762 -83.2504 211.801 -84.7919 211.84C-84.7822 213.798 -84.7531 215.766 -84.695 217.734C-86.3335 217.822 -87.9817 217.899 -89.6299 217.977C-89.6299 220.692 -89.6202 223.416 -89.6299 226.14C-86.4789 226.043 -83.3279 226.257 -80.177 226.295C-81.8252 228.758 -80.7005 232.083 -81.0205 234.924C-83.8903 234.934 -86.7601 234.924 -89.6299 234.934C-89.6492 242.37 -89.5717 249.806 -89.6686 257.243C-91.0647 257.214 -92.4609 257.194 -93.8473 257.175C-93.8473 263.166 -93.857 269.168 -93.8473 275.159C-95.3888 275.179 -96.9304 275.189 -98.4719 275.227C-98.6949 281.403 -98.5398 287.598 -98.5398 293.784C-100.12 293.823 -101.7 293.881 -103.271 293.959C-103.31 299.921 -103.271 305.884 -103.3 311.856C-104.716 311.856 -106.141 311.866 -107.556 311.875C-107.731 316.413 -107.644 320.96 -107.663 325.507C-109.117 325.507 -110.572 325.507 -112.036 325.517C-112.036 331.654 -112.026 337.8 -112.036 343.947C-112.821 343.957 -114.401 343.986 -115.187 343.996C-115.08 346.895 -115.06 349.803 -115.08 352.721C-117.94 352.731 -120.8 352.731 -123.67 352.77C-123.67 355.504 -123.67 358.248 -123.66 360.982C-123.059 360.991 -121.847 361.011 -121.236 361.021C-121.236 362.785 -121.227 364.569 -121.227 366.343C-122.855 366.392 -124.484 366.469 -126.113 366.566C-126.094 367.536 -126.065 368.515 -126.045 369.494C-125.454 369.533 -124.271 369.591 -123.68 369.62C-123.66 372.442 -123.67 375.273 -123.66 378.104C-124.921 378.307 -126.152 378.676 -126.54 380.072C-127.858 380.091 -129.167 380.111 -130.476 380.12C-130.476 384.706 -130.476 389.292 -130.476 393.878C-131.93 393.887 -133.375 393.897 -134.819 393.917C-134.81 396.961 -134.81 399.995 -134.829 403.049C-136.39 403.098 -137.951 403.156 -139.512 403.224C-139.56 407.587 -139.803 411.979 -139.551 416.332C-138.077 416.516 -136.584 416.506 -135.091 416.584C-134.965 418.058 -134.858 419.512 -134.742 421.005C-131.853 420.995 -128.963 420.995 -126.084 420.995C-126.074 422.566 -126.074 424.127 -126.065 425.717C-123.011 425.707 -119.947 425.707 -116.893 425.727C-116.883 427.21 -116.883 428.703 -116.874 430.216C-115.419 430.206 -113.965 430.206 -112.501 430.216C-112.501 431.602 -112.501 433.008 -112.501 434.404C-110.892 434.462 -109.272 434.549 -107.653 434.617C-107.663 436.236 -107.673 437.865 -107.673 439.494C-109.282 439.513 -110.892 439.533 -112.491 439.571C-112.501 442.402 -112.511 445.243 -112.491 448.084C-109.447 448.307 -106.383 448.287 -103.329 448.287C-103.29 449.907 -103.252 451.535 -103.203 453.174C-101.856 452.873 -100.052 453.63 -99.0342 452.456C-98.8888 451.089 -98.9082 449.713 -98.8597 448.355C-97.2697 448.278 -95.6797 448.191 -94.08 448.123C-94.0897 445.166 -94.0897 442.228 -94.0897 439.29C-91.1035 439.281 -88.1174 439.281 -85.1312 439.29C-85.1312 442.412 -85.1216 445.544 -85.1409 448.675C-86.634 448.675 -88.1271 448.675 -89.6202 448.685C-89.6202 453.058 -89.6783 457.43 -89.5523 461.803C-88.0786 461.812 -86.6049 461.822 -85.1312 461.851C-85.1312 463.441 -85.1312 465.051 -85.1312 466.66C-82.0676 466.67 -79.0136 466.67 -75.9499 466.679C-75.8917 468.269 -75.8335 469.869 -75.7753 471.469C-77.3072 471.469 -78.8196 471.479 -80.3418 471.508C-80.2352 472.865 -80.1285 474.232 -80.0219 475.609C-71.1119 475.58 -62.202 475.308 -53.2921 475.434C-53.2727 473.98 -53.263 472.535 -53.2339 471.11C-45.7104 471.1 -38.1869 471.1 -30.6633 471.11C-30.673 469.627 -30.673 468.143 -30.6633 466.67C-26.1938 466.67 -21.7146 466.67 -17.2354 466.679C-17.2258 465.07 -17.2257 463.47 -17.216 461.89C-12.6496 461.803 -8.07343 461.783 -3.50697 461.88C-3.4585 460.397 -3.41 458.923 -3.36153 457.459C-0.31723 457.459 2.73677 457.459 5.78108 457.459C5.78108 455.995 5.78108 454.551 5.79077 453.106C8.04007 453.096 10.2991 453.096 12.5581 453.106C12.5678 451.972 12.5871 450.847 12.6065 449.732C15.4278 449.722 18.2492 449.722 21.0705 449.742C21.0608 446.901 21.0608 444.06 21.0705 441.229C23.6106 441.22 26.1605 441.22 28.7103 441.229C28.72 440.735 28.7297 439.756 28.7297 439.271C30.1355 439.271 31.5414 439.281 32.9472 439.3C32.9666 437.662 33.0053 436.042 33.0344 434.423C34.5081 434.491 35.9818 434.559 37.4651 434.627C37.4361 433.192 37.407 431.767 37.3876 430.342C39.0552 430.274 40.7227 430.216 42.3903 430.177C42.3903 428.674 42.4 427.181 42.4097 425.698C43.7961 425.707 45.202 425.717 46.5981 425.746C46.6562 422.673 46.6659 419.609 46.6562 416.545C48.2172 416.487 49.7878 416.458 51.3584 416.409C51.3584 413.307 51.3584 410.214 51.3778 407.122C52.9485 407.112 54.5288 407.112 56.0994 407.122C56.0994 402.574 56.1091 398.037 56.0994 393.5C57.5828 393.49 59.0661 393.49 60.5495 393.5C60.5689 399.753 60.5592 405.997 60.5592 412.25C59.1437 412.26 57.7379 412.289 56.3321 412.318C56.2836 415.275 56.2836 418.242 56.303 421.199C54.7809 421.189 53.2587 421.17 51.7462 421.18C51.7462 424.243 51.7462 427.317 51.7462 430.39C50.1562 430.39 48.5759 430.39 47.0053 430.419C46.9859 431.864 46.9762 433.318 46.9665 434.782C45.5607 434.753 44.1743 434.734 42.7782 434.714C42.7103 436.285 42.6327 437.855 42.5745 439.445C41.0621 439.688 39.2491 439.087 37.9305 440.037C37.756 441.414 37.7463 442.81 37.6881 444.206C35.0995 444.196 32.5109 444.206 29.9222 444.206C29.961 445.544 30.0095 446.901 30.058 448.268C34.0815 448.288 38.1244 448.258 42.1577 448.297C42.2934 446.824 42.4194 445.36 42.5551 443.905C43.9222 443.876 45.2892 443.866 46.666 443.857C46.6562 442.325 46.6465 440.803 46.6465 439.29C48.2172 439.281 49.7878 439.271 51.3584 439.281C51.3584 437.71 51.3584 436.139 51.3584 434.578C53.0066 434.569 54.6548 434.559 56.303 434.559C56.2836 437.768 56.2836 440.997 56.2933 444.215C54.7712 444.206 53.2587 444.196 51.7462 444.206C51.756 447.289 51.756 450.382 51.659 453.474C50.0981 453.474 48.5371 453.474 46.9859 453.494C46.9762 454.929 46.9762 456.383 46.9762 457.837C45.5607 457.837 44.1452 457.837 42.7297 457.847C42.7103 460.911 42.6327 463.965 42.5842 467.038C41.2172 467.048 39.8599 467.057 38.4928 467.087C38.4832 469.985 38.4832 472.875 38.4734 475.783C35.5067 475.773 32.54 475.803 29.5732 475.841C29.5635 472.884 29.5635 469.937 29.5926 466.999C26.8004 467.193 24.076 467.823 21.2935 468.085C21.2935 470.509 21.2935 472.933 21.3129 475.366C22.0303 475.386 23.4749 475.405 24.1924 475.415C24.2117 477.102 24.2311 478.789 24.2602 480.505C31.4929 480.35 38.7255 480.427 45.9582 480.437C47.2186 479.206 46.4236 477.189 46.7338 475.648C48.2656 475.521 49.8169 475.415 51.3681 475.328C51.3584 473.931 51.3584 472.545 51.3681 471.168C52.9581 471.091 54.5482 471.042 56.1479 470.965C56.0897 467.92 56.0994 464.866 56.0994 461.822C57.5052 461.822 58.911 461.822 60.3266 461.832C60.3362 460.368 60.3362 458.914 60.3556 457.469C61.8681 457.459 63.3708 457.459 64.8833 457.459C64.9221 454.425 64.9124 451.39 64.9318 448.365C66.5412 448.317 68.1409 448.258 69.7503 448.229C69.7697 445.243 69.7697 442.267 69.7697 439.29C71.2143 439.281 72.6686 439.281 74.1326 439.29C74.1229 434.753 74.1229 430.225 74.1326 425.707C75.6353 425.707 77.1284 425.717 78.6312 425.727C78.8736 418.077 78.699 410.418 78.7572 402.759C80.289 402.749 81.8209 402.749 83.3528 402.759C83.3819 378.394 83.2849 354.04 83.4206 329.685C84.8458 329.695 86.271 329.724 87.7059 329.744C87.7156 323.791 87.7156 317.828 87.7059 311.875C86.2516 311.856 84.807 311.856 83.3624 311.866C83.3624 305.767 83.3334 299.669 83.3819 293.571C84.8167 293.58 86.2419 293.58 87.6768 293.59C87.7447 283.003 87.6962 272.416 87.7059 261.838C86.2516 261.828 84.807 261.819 83.3624 261.819C83.3527 258.707 83.3527 255.594 83.3624 252.492C84.807 252.482 86.2516 252.473 87.7059 252.482C87.7059 244.871 87.7253 237.27 87.6962 229.669C86.2419 229.698 84.7974 229.737 83.3528 229.776C83.3528 228.264 83.3527 226.761 83.3624 225.258C89.4705 225.239 95.5688 225.248 101.677 225.258C101.677 232.636 101.686 240.024 101.667 247.402C103.286 247.547 104.896 247.77 106.495 248.11C106.408 267.801 106.486 287.482 106.457 307.173C107.959 307.183 109.452 307.183 110.965 307.202C110.984 333.011 110.955 358.82 110.975 384.629C109.462 384.793 107.959 384.987 106.457 385.191C106.457 401.682 106.457 418.164 106.457 434.656C104.876 434.704 103.286 434.734 101.716 434.792C101.628 442.47 101.716 450.149 101.667 457.828C100.232 457.828 98.8167 457.837 97.3914 457.857C97.3818 465.293 97.3818 472.739 97.3914 480.185C95.7627 480.369 94.1339 480.582 92.5148 480.815C92.5439 485.188 92.5148 489.55 92.5342 493.923C93.9981 493.962 95.4718 494.02 96.9455 494.088C96.994 490.976 96.994 487.863 97.0327 484.761C98.4482 484.732 99.8734 484.742 101.299 484.742C101.289 478.721 101.289 472.71 101.299 466.689C103.005 466.67 104.721 466.67 106.437 466.679C106.476 478.702 106.466 490.724 106.437 502.755C106.951 502.775 107.979 502.814 108.493 502.833C108.493 504.501 108.512 506.197 108.522 507.884C111.275 507.865 114.048 507.865 116.811 507.884C116.733 505.121 116.675 502.358 116.724 499.614C119.526 499.197 122.366 499.149 125.188 498.887C125.188 496.221 125.188 493.555 125.188 490.888C128.145 490.888 131.112 490.888 134.078 490.898C134.107 493.719 134.166 496.541 134.078 499.372C136.793 499.265 139.527 499.275 142.261 499.285C142.251 496.56 142.251 493.836 142.261 491.121C140.875 491.111 139.498 491.121 138.121 491.131C138.112 488.135 138.102 485.149 138.16 482.172C139.546 482.192 140.943 482.211 142.339 482.24C142.242 479.467 142.242 476.695 142.368 473.931C140.943 473.922 139.527 473.922 138.112 473.931C138.112 471.508 138.121 469.084 138.141 466.67C139.508 466.66 140.875 466.67 142.251 466.679C142.474 455.966 142.077 445.263 142.407 434.549C143.89 434.559 145.373 434.559 146.866 434.578C146.876 416.351 146.828 398.134 146.895 379.907C148.485 379.888 150.075 379.868 151.675 379.858C151.724 358.771 151.685 337.694 151.695 316.616C150.095 316.607 148.495 316.597 146.905 316.597C146.847 312.476 146.866 308.366 146.837 304.245C146.866 302.199 146.585 300.028 147.739 298.205C149.057 301.298 149.852 304.585 151.19 307.677C151.762 306.078 151.656 304.352 151.762 302.704C152.548 303.576 153.343 304.458 154.138 305.341C155.01 307.454 155.728 309.771 157.58 311.284C158.462 313.155 159.267 315.046 159.897 317.023C163.397 319.36 164.124 324.77 168.797 325.594C169.737 327.174 170.455 329.094 172.2 329.996C174.963 331.499 176.834 334.116 179.336 335.987C179.685 336.879 180.043 337.791 180.412 338.702C180.906 338.731 181.895 338.789 182.39 338.818C183.33 340.263 184.271 341.717 185.056 343.259C189.632 344.209 187.664 349.386 188.023 352.712C186.568 352.731 185.124 352.751 183.679 352.78C183.582 357.327 183.592 361.864 183.621 366.411C182.176 366.401 180.742 366.401 179.307 366.401C179.316 370.968 179.316 375.525 179.307 380.091C177.717 380.091 176.127 380.111 174.546 380.13C174.42 386.335 174.507 392.53 174.478 398.745C172.966 398.735 171.463 398.754 169.96 398.764C169.97 404.746 169.951 410.718 169.97 416.7C168.545 416.72 167.129 416.739 165.714 416.778C165.704 424.282 165.714 431.776 165.714 439.281C167.12 439.281 168.535 439.29 169.951 439.3C169.98 443.896 169.912 448.501 170.038 453.106C171.512 453.096 172.995 453.096 174.478 453.096C174.478 455.995 174.478 458.894 174.498 461.803C176.097 461.812 177.688 461.812 179.287 461.841C179.297 463.441 179.316 465.051 179.336 466.66C183.708 466.679 188.071 466.65 192.444 466.699C192.541 465.06 192.628 463.431 192.744 461.822C198.658 461.832 204.582 461.812 210.496 461.832C210.496 460.368 210.506 458.914 210.516 457.469C216.691 457.459 222.858 457.469 229.024 457.459C229.024 455.995 229.034 454.551 229.043 453.106C230.556 453.087 232.088 453.096 233.61 453.096C233.619 451.487 233.629 449.878 233.648 448.287C235.054 448.278 236.47 448.278 237.895 448.287C237.982 445.282 237.992 442.276 237.992 439.281C239.407 439.281 240.842 439.281 242.277 439.3C242.374 437.681 242.471 436.081 242.684 434.491C244.333 434.53 245.981 434.569 247.639 434.607C247.658 440.812 247.551 447.027 247.697 453.232C249.045 453.213 250.402 453.203 251.759 453.203C251.759 454.657 251.759 456.102 251.779 457.576C259.108 457.634 266.428 457.498 273.767 457.459C273.758 456.15 273.758 454.841 273.767 453.542C270.946 453.445 268.125 453.436 265.313 453.436C265.303 450.556 265.303 447.686 265.313 444.817C268.105 444.817 270.898 444.846 273.7 444.739C273.864 441.908 273.826 439.067 273.797 436.236C276.676 436.236 279.565 436.236 282.454 436.256C282.454 439.106 282.454 441.966 282.454 444.836C279.672 444.817 276.889 444.807 274.116 445.078C273.787 447.764 273.845 450.479 274.049 453.174C276.88 453.164 279.711 453.164 282.551 453.184C282.396 456.654 283.201 460.348 281.708 463.625C283.143 460.426 287.593 461.851 290.278 462.433C291.364 464.721 290.569 467.494 290.501 469.966C290.841 469.326 291.209 468.696 291.597 468.095C290.705 466.175 291.258 464.168 291.82 462.287C290.569 459.408 290.753 456.247 290.821 453.174C293.759 453.164 296.706 453.164 299.654 453.174C299.566 456.063 299.479 458.962 299.886 461.832C302.019 461.832 304.162 461.812 306.305 461.803C306.217 458.71 306.246 455.617 306.382 452.534C308.05 452.65 309.717 452.815 311.385 453.038C311.433 463.616 311.395 474.183 311.404 484.761C312.897 484.742 314.4 484.732 315.903 484.722C315.922 486.186 315.932 487.631 315.961 489.124C318.86 489.104 321.769 489.104 324.677 489.114C324.658 487.65 324.648 486.196 324.648 484.751C330.426 484.742 336.195 484.742 341.973 484.751C341.973 482.764 341.973 480.776 341.993 478.808C344.824 478.789 347.655 478.789 350.486 478.798C350.185 476.113 351.271 472.933 349.652 470.635C352.629 470.451 355.586 470.257 358.572 470.17C359.861 472.865 359.299 475.909 359.396 478.798C362.217 478.789 365.048 478.789 367.879 478.798C367.889 481.668 367.889 484.538 367.908 487.408C370.642 487.418 373.367 487.408 376.101 487.359C375.975 487.563 375.703 487.99 375.577 488.203L377.846 487.776C377.235 487.418 376.634 487.059 376.043 486.7C376.169 484.063 376.159 481.426 376.178 478.798C378.757 478.789 381.346 478.789 383.934 478.798C383.896 478.081 383.828 476.656 383.789 475.948C382.286 475.87 380.803 475.812 379.32 475.774C379.3 474.038 379.3 472.312 379.31 470.587C378.525 470.577 376.944 470.538 376.149 470.528C376.14 467.882 376.14 465.245 376.207 462.607C375.79 462.404 374.947 461.977 374.53 461.764C374.501 457.401 374.423 453.038 374.462 448.685C373.086 448.675 371.728 448.675 370.371 448.675C370.128 442.587 370.235 436.479 370.254 430.39C368.781 430.38 367.317 430.38 365.863 430.4C365.863 427.772 365.862 425.164 365.872 422.547C367.559 422.537 369.256 422.537 370.962 422.537C370.953 419.774 370.953 417.02 370.962 414.267C368.248 414.257 365.533 414.257 362.838 414.267C362.799 414.955 362.731 416.342 362.692 417.03C362.275 416.885 361.451 416.584 361.044 416.439C360.356 410.573 361.005 404.639 360.307 398.764C359.037 398.745 357.786 398.725 356.536 398.716C356.507 395.235 356.526 391.755 356.516 388.274C356.022 387.314 355.547 386.364 355.081 385.404C353.007 388.439 348.479 386.248 345.377 386.887C345.367 383.921 345.367 380.964 345.396 378.007C347.49 378.016 349.584 378.026 351.688 378.055C352.406 377.396 353.123 376.746 353.86 376.106C353.87 374.003 353.889 371.899 353.928 369.804C353.424 369.804 352.435 369.795 351.93 369.785C351.94 367.245 351.94 364.705 351.94 362.165C350.35 362.165 348.76 362.174 347.18 362.194C347.102 351.771 347.122 341.339 347.18 330.917C346.753 330.723 345.9 330.335 345.483 330.141C345.231 327.446 345.396 324.731 345.396 322.026C342.681 322.046 339.976 322.046 337.271 322.046C337.271 324.838 337.271 327.64 337.262 330.442C334.275 330.442 331.289 330.442 328.313 330.432C328.293 327.523 328.293 324.625 328.313 321.726C331.163 321.716 334.023 321.716 336.883 321.716C336.874 318.963 336.874 316.209 336.903 313.465C334.033 313.456 331.173 313.465 328.313 313.436C328.293 310.499 328.293 307.571 328.293 304.652C331.289 304.652 334.285 304.652 337.281 304.652C337.271 307.483 337.271 310.324 337.271 313.165C340.005 313.145 342.739 313.126 345.493 313.078C345.464 310.314 345.503 307.551 345.512 304.798C344.833 304.817 343.467 304.856 342.778 304.866C342.914 281.258 342.536 257.64 342.982 234.032C344.358 234.042 345.755 234.052 347.151 234.071C347.442 231.085 346.152 227.556 348.372 225.103C354.189 225.287 360.065 225.52 365.872 224.87C365.862 223.464 365.863 222.059 365.863 220.662C368.713 220.662 371.573 220.653 374.433 220.672C374.472 217.996 374.569 215.32 374.617 212.644C368.335 212.644 362.052 212.644 355.779 212.644C355.77 210.861 355.779 209.096 355.789 207.322C354.48 207.312 353.181 207.302 351.892 207.302C351.93 201.02 351.95 194.747 351.95 188.465C353.472 188.445 354.984 188.435 356.526 188.435C356.516 187.001 356.516 185.566 356.526 184.131C361.092 184.121 365.659 184.121 370.225 184.131C370.225 181.038 370.225 177.945 370.225 174.852C371.689 174.833 373.163 174.814 374.646 174.794C374.695 177.877 374.675 180.951 374.724 184.034C376.353 184.15 378.001 184.267 379.659 184.412C379.465 188.969 379.543 193.535 379.523 198.102C377.904 198.102 376.295 198.111 374.695 198.131C374.676 202.61 374.695 207.089 374.685 211.568C376.227 211.578 377.759 211.588 379.31 211.607C379.3 208.446 379.3 205.296 379.32 202.145C380.832 202.125 382.364 202.125 383.905 202.125C383.896 193.031 383.886 183.927 383.905 174.833C385.321 174.833 386.736 174.843 388.171 174.852C388.162 173.408 388.152 171.983 388.162 170.548C389.626 170.519 391.109 170.509 392.592 170.49C392.68 168.938 392.777 167.397 392.98 165.855C394.473 165.884 395.976 165.933 397.488 166.001C397.479 162.985 397.479 159.98 397.469 156.974C398.923 156.916 400.378 156.868 401.851 156.839C401.842 155.404 401.842 153.979 401.851 152.553C403.451 152.515 405.06 152.466 406.68 152.427C406.689 149.393 406.689 146.368 406.689 143.343C408.143 143.314 409.598 143.304 411.072 143.285C411.11 137.186 411.042 131.088 411.11 124.99C412.535 124.99 413.97 124.98 415.405 124.98C415.463 116.632 415.434 108.275 415.405 99.9275C415.987 99.8209 417.17 99.5979 417.761 99.4913C418.469 96.8833 418.653 94.1686 418.721 91.483C415.871 91.4442 413.01 91.4539 410.17 91.4539C410.15 88.4969 410.15 85.5398 410.15 82.5924C411.896 82.5924 413.65 82.5924 415.405 82.5924C415.415 76.9789 415.425 71.375 415.425 65.7712C413.97 65.7615 412.526 65.7518 411.091 65.7518C411.062 58.2768 411.11 50.8017 411.062 43.3364C410.053 43.2976 408.018 43.2298 407 43.191C407.116 52.1009 407.058 61.0205 407.009 69.9305C408.376 69.9014 409.753 69.8723 411.139 69.8432C411.324 71.6271 411.479 73.4207 411.605 75.2144C409.617 75.3113 407.63 75.2628 405.72 74.6908C405.797 73.3141 405.914 71.9471 406.059 70.5897C404.653 70.5897 403.257 70.5897 401.88 70.5994C401.842 68.99 401.822 67.3806 401.803 65.7809C400.358 65.7712 398.923 65.7615 397.498 65.7518C397.479 62.6881 397.479 59.6341 397.459 56.5801C396.015 56.5607 394.58 56.551 393.155 56.551C393.106 55.1646 393.077 53.7782 393.048 52.3918C391.477 52.2754 389.907 52.1785 388.355 52.1009C388.297 50.6951 388.297 49.299 388.162 47.9029C386.833 47.8059 385.515 47.8059 384.196 47.7962C384.206 49.2505 384.216 50.7048 384.235 52.1591C382.596 52.1688 380.958 52.1688 379.329 52.1785C379.29 47.6411 379.31 43.1037 379.31 38.576C377.788 38.576 376.266 38.5663 374.753 38.576C374.705 40.0303 374.646 41.4846 374.608 42.9486C373.144 42.9195 371.68 42.8904 370.225 42.871C370.225 39.8461 370.225 36.8309 370.225 33.8157C371.631 33.806 373.037 33.806 374.462 33.7963C374.462 29.2686 374.443 24.7409 374.482 20.2035C376.139 20.2035 377.807 20.2132 379.484 20.2132C379.513 21.6675 379.552 23.1218 379.61 24.5761C382.645 24.547 385.68 24.5373 388.724 24.6537C388.714 26.0789 388.705 27.5041 388.705 28.9389C390.149 28.9487 391.603 28.9583 393.067 28.9777C393.058 30.5774 393.058 32.1869 393.067 33.7963C394.531 33.7866 396.005 33.7769 397.488 33.7672C397.479 30.7035 397.479 27.6495 397.488 24.5858C398.923 24.5567 400.397 24.5373 401.851 24.5082C401.842 21.619 401.842 18.7202 401.851 15.831C400.513 15.8213 399.195 15.8213 397.876 15.8116C397.857 17.3919 397.847 18.9916 397.828 20.5816C396.257 20.5816 394.696 20.5913 393.145 20.5913C393.126 18.8656 393.116 17.1398 393.135 15.4141C394.58 15.4432 396.024 15.4722 397.479 15.5207C397.479 12.6315 397.479 9.74236 397.488 6.86287C395.869 6.77562 394.27 6.70775 392.66 6.63989C392.718 2.1413 392.699 -2.34761 392.718 -6.84621C391.196 -6.8656 389.674 -6.87529 388.171 -6.89468C388.162 -9.98747 388.162 -13.0802 388.162 -16.1633C386.736 -16.1633 385.321 -16.173 383.905 -16.173C383.886 -19.2173 383.896 -22.2713 383.896 -25.3157C382.364 -25.3641 380.832 -25.3835 379.32 -25.4223C379.3 -28.3212 379.3 -31.2104 379.31 -34.1092C377.739 -34.1189 376.169 -34.1383 374.617 -34.148C374.54 -35.7477 374.472 -37.3571 374.423 -38.9569C373.018 -38.9666 371.622 -38.9666 370.225 -38.9666C370.235 -42.0109 370.245 -45.0455 370.128 -48.0898C368.887 -48.0704 367.666 -48.051 366.444 -48.0219C365.339 -50.9305 361.568 -49.195 359.202 -49.6992C358.969 -46.9748 358.843 -44.2214 359.221 -41.497C361.946 -41.371 364.68 -41.3613 367.414 -41.3613C367.414 -38.4624 367.414 -35.5538 367.414 -32.655C364.505 -32.6453 361.597 -32.6453 358.698 -32.655C358.707 -35.4763 358.746 -38.3073 358.426 -41.1189C355.644 -41.1674 352.861 -41.1286 350.088 -41.0316C350.03 -44.0372 350.03 -47.033 350.069 -50.0385C352.803 -50.0191 355.547 -49.9901 358.3 -50.0579C358.795 -52.7144 358.63 -55.4291 358.746 -58.1147C359.338 -58.3183 360.52 -58.7352 361.112 -58.9388C361.112 -59.5496 361.112 -60.7615 361.112 -61.3626C359.58 -61.4208 358.068 -61.4789 356.545 -61.5274C356.516 -63.098 356.478 -64.659 356.439 -66.2296C354.936 -66.249 353.453 -66.2684 351.969 -66.2878C351.94 -67.9844 351.901 -69.6811 351.814 -71.3778C349.642 -70.7767 350.748 -68.2268 350.321 -66.6659C347.48 -66.6659 344.649 -66.6659 341.809 -66.6659C341.809 -63.864 341.809 -61.0523 341.818 -58.2407C338.881 -58.2504 335.943 -58.2504 333.015 -58.2407C333.005 -61.1784 333.005 -64.1063 333.025 -67.0343C335.895 -67.0537 338.764 -67.0537 341.634 -67.044C341.111 -71.3778 342.226 -75.4983 342.933 -79.706C339.84 -79.706 336.748 -79.706 333.665 -79.7157C333.597 -81.296 333.539 -82.886 333.49 -84.4761C330.543 -84.5245 327.595 -84.5245 324.658 -84.5245C324.658 -85.9788 324.658 -87.4234 324.658 -88.8777C323.068 -88.8777 321.497 -88.8777 319.927 -88.8874C319.907 -90.4968 319.888 -92.1062 319.878 -93.7059C318.433 -93.7253 316.999 -93.7253 315.573 -93.735C315.554 -95.1893 315.554 -96.6533 315.554 -98.1076C312.432 -98.0979 309.32 -98.0979 306.198 -98.127C306.246 -99.5619 306.285 -101.006 306.343 -102.441C303.28 -102.47 300.226 -102.461 297.172 -102.48C297.162 -104.06 297.152 -105.631 297.152 -107.202C291.083 -107.202 285.014 -107.211 278.945 -107.202C278.896 -108.714 278.848 -110.227 278.828 -111.739C277.393 -111.749 275.959 -111.749 274.543 -111.749C274.504 -113.203 274.485 -114.657 274.475 -116.112C271.373 -116.102 268.28 -116.092 265.187 -116.15C265.158 -117.77 265.148 -119.369 265.139 -120.979C259.176 -120.94 253.214 -120.959 247.261 -120.969C247.232 -122.443 247.222 -123.916 247.212 -125.4C242.684 -125.38 238.157 -125.38 233.629 -125.39C233.619 -126.844 233.619 -128.299 233.629 -129.753C229.121 -129.743 224.613 -129.782 220.104 -129.704C220.056 -131.314 220.007 -132.923 219.969 -134.533C213.87 -134.474 207.772 -134.436 201.674 -134.552C201.644 -136.103 201.625 -137.654 201.625 -139.206C192.492 -139.186 183.369 -139.215 174.246 -139.186C174.246 -140.679 174.246 -142.163 174.255 -143.656C157.696 -143.646 141.136 -143.675 124.577 -143.636ZM-50.335 7.99721C-48.745 7.70636 -47.1453 7.52216 -45.5359 7.33795C-45.5552 5.78671 -45.5553 4.24516 -45.5553 2.70361C-47.0968 2.70361 -48.648 2.70361 -50.1799 2.70361C-50.2187 4.46815 -50.2575 6.23268 -50.335 7.99721ZM402.181 29.8018C402.258 34.0387 402.258 38.2852 402.171 42.5317C403.519 42.5026 404.876 42.4735 406.243 42.4444C406.185 38.227 406.204 34.0193 406.214 29.8212C404.857 29.8115 403.519 29.8018 402.181 29.8018ZM415.638 84.58C414.465 84.5703 413.301 84.5703 412.148 84.5703C412.148 86.2088 412.157 87.857 412.167 89.5052C413.776 89.5052 415.386 89.4955 417.015 89.4955C417.015 87.5079 417.015 85.5204 417.044 83.5426C416.695 83.8044 415.987 84.3279 415.638 84.58ZM420.854 93.2184C420.864 94.7891 420.873 96.3597 420.893 97.94C422.444 97.9206 424.015 97.9207 425.585 97.9207C425.576 96.35 425.585 94.7891 425.595 93.2281C424.005 93.2281 422.425 93.2184 420.854 93.2184ZM-156.13 380.149C-156.13 381.681 -156.13 383.223 -156.13 384.764C-154.54 384.745 -152.959 384.735 -151.369 384.716C-151.379 383.184 -151.379 381.662 -151.369 380.14C-152.959 380.14 -154.549 380.14 -156.13 380.149ZM-138.998 380.13C-139.047 382.563 -138.736 385.055 -139.27 387.469C-141.373 389.592 -144.815 388.255 -147.491 388.623C-147.491 390.194 -147.491 391.774 -147.491 393.354C-145.116 393.412 -142.702 393.122 -140.365 393.635C-137.961 395.284 -139.347 398.735 -138.979 401.198C-138.436 401.178 -137.35 401.13 -136.807 401.11C-136.768 398.376 -137.049 395.604 -136.584 392.908C-135.682 391.57 -133.85 392.065 -132.493 391.745C-132.531 387.876 -132.522 383.998 -132.502 380.13C-134.664 380.14 -136.836 380.14 -138.998 380.13ZM152.024 416.506C153.333 416.497 154.652 416.507 155.98 416.516C155.951 406.074 155.97 395.623 155.97 385.181C154.981 385.181 153.013 385.181 152.024 385.181C152.014 395.613 152.034 406.055 152.024 416.506ZM58.0773 394.896C57.5052 399.21 58.3002 403.573 57.767 407.887C57.0592 409.662 54.8099 408.973 53.3363 409.303C53.2587 412.134 53.7725 415.081 52.9097 417.835C51.5717 418.387 50.1272 418.475 48.7213 418.698C48.6923 421.267 48.8377 423.855 48.4886 426.415C47.8584 428.005 45.7934 427.54 44.4651 427.889C44.3875 429.13 44.3003 430.38 44.2131 431.631C42.7006 431.922 41.1784 432.155 39.6563 432.349C39.569 433.531 39.3557 434.704 39.0164 435.858C37.8336 436.517 36.4181 436.469 35.1189 436.731C34.8571 438.04 35.274 439.62 34.3045 440.706C32.889 441.152 31.4444 441.53 29.9901 441.84C31.8419 442.131 33.7228 442.16 35.6037 442.209C35.2352 439.126 37.5912 437.148 40.5676 437.38C40.8003 436.004 40.7227 434.511 41.4208 433.27C42.5551 432.969 43.7089 432.746 44.882 432.601C44.9886 431.524 45.1535 430.468 45.3571 429.421C46.443 428.18 48.2463 428.529 49.7103 428.228C49.7005 425.698 49.5357 423.157 49.8363 420.646C50.5634 418.853 52.803 419.386 54.3155 419.047C54.4124 416.313 53.8598 413.414 54.9651 410.835C56.08 410.205 57.4083 410.272 58.6493 410.069C58.2227 405.018 58.8044 399.908 58.0773 394.896ZM156.145 430.303C156.154 441.937 156.145 453.571 156.154 465.206C157.027 465.206 158.791 465.215 159.674 465.215C159.674 467.164 159.674 469.123 159.674 471.081L160.866 471.052C160.944 457.595 160.857 444.138 160.915 430.681C159.325 430.545 157.725 430.409 156.145 430.303ZM53.5011 436.469C53.1812 438.04 53.8792 440.454 51.882 441.123C50.864 441.249 49.8557 441.355 48.8377 441.443C48.5856 442.781 48.828 444.351 47.9166 445.495C46.792 445.699 45.6673 445.873 44.533 445.999C44.0288 447.337 44.6009 449.848 42.7006 450.149C39.0455 450.527 35.3419 450.236 31.6771 450.265C31.7159 452.34 31.7353 454.415 31.7449 456.499C34.2172 456.577 36.7574 456.228 39.1812 456.848C41.1009 459.243 39.918 462.782 40.8682 465.603C41.1203 462.85 40.6064 460.106 40.8682 457.372C41.3917 455.578 43.418 455.918 44.8432 455.636C44.9596 454.434 45.1438 453.242 45.3958 452.069C46.7532 451.458 48.2753 451.448 49.7393 451.303C49.749 448.51 49.3709 445.65 50.0884 442.916C51.3197 442.044 52.9 442.238 54.3058 442.005C54.3058 440.163 54.2961 438.321 54.2961 436.498C54.1022 436.488 53.7047 436.479 53.5011 436.469ZM23.0774 443.256C23.0871 444.836 23.0968 446.416 23.1065 448.006C24.7256 447.987 26.3544 447.977 27.9832 447.987C27.9735 446.387 27.9735 444.797 28.0123 443.217C26.3641 443.236 24.7159 443.246 23.0774 443.256ZM292.799 455.22C292.789 456.771 292.79 458.332 292.79 459.912C294.37 459.883 295.95 459.873 297.55 459.883C297.569 458.322 297.608 456.761 297.656 455.22C296.037 455.21 294.409 455.21 292.799 455.22ZM23.1938 465.089C24.7353 465.099 26.2865 465.118 27.8281 465.148C27.8281 463.548 27.8184 461.948 27.8184 460.358C26.2768 460.348 24.745 460.348 23.2131 460.358C23.2034 461.929 23.1938 463.499 23.1938 465.089ZM284.393 463.8C284.442 465.39 284.49 466.999 284.549 468.618C286.042 468.589 287.544 468.58 289.047 468.57C289.018 466.961 288.999 465.361 288.989 463.771C287.447 463.771 285.916 463.781 284.393 463.8ZM31.6286 468.997C31.6092 470.587 31.5898 472.186 31.5607 473.786C33.1992 473.737 34.8377 473.718 36.4762 473.708C36.4568 472.128 36.4471 470.567 36.4375 469.006C34.828 468.987 33.2283 468.997 31.6286 468.997ZM151.2 473.941C150.57 479.07 152.344 484.014 152.044 489.124C153.372 489.104 154.7 489.095 156.028 489.095C156.048 486.797 156.048 484.509 156.057 482.231C156.901 482.221 158.588 482.192 159.431 482.182C159.451 479.429 159.451 476.695 159.431 473.951C156.688 473.931 153.944 473.922 151.2 473.941ZM161.118 475.958C161.157 484.984 161.109 494.01 161.147 503.037C159.528 503.279 157.9 503.444 156.29 503.599C156.261 509.542 156.028 515.495 156.368 521.438C157.822 521.428 159.286 521.438 160.75 521.448C160.74 522.805 160.731 524.182 160.731 525.559C162.253 525.675 163.775 525.782 165.297 525.888C165.297 524.405 165.307 522.931 165.307 521.467C166.742 521.428 168.176 521.419 169.611 521.399C169.621 519.906 169.631 518.413 169.64 516.94C168.196 516.91 166.751 516.891 165.307 516.891C165.307 503.24 165.307 489.599 165.307 475.967C163.911 475.958 162.505 475.948 161.118 475.958ZM350.883 479.177C350.893 481.911 350.893 484.654 350.883 487.408C353.637 487.437 356.4 487.456 359.163 487.485C359.163 484.722 359.163 481.959 359.212 479.206C356.429 479.167 353.656 479.167 350.883 479.177ZM361.112 480.796C361.102 482.376 361.102 483.966 361.112 485.566C362.712 485.556 364.311 485.556 365.921 485.566C365.921 483.966 365.921 482.376 365.93 480.796C364.321 480.786 362.712 480.786 361.112 480.796Z" fill="white"/>
<path d="M327.926 -24.375C327.916 -27.2448 327.916 -30.1146 327.945 -32.9747C330.902 -32.9844 333.859 -32.9844 336.816 -32.9553C336.836 -29.9885 336.836 -27.0121 336.836 -24.0356C333.937 -23.9969 331.048 -24.0066 328.158 -24.0066C328.149 -21.2628 328.149 -18.5191 328.149 -15.7656C331.047 -15.7753 333.937 -15.7753 336.836 -15.7753C336.836 -12.8473 336.836 -9.90967 336.826 -6.98171C333.927 -6.96232 331.038 -6.97202 328.149 -6.97202C328.149 -4.04405 328.149 -1.11609 328.139 1.81187C327.102 1.99609 326.064 2.1803 325.036 2.36451C329.487 1.85067 334.111 2.65536 338.455 1.40468C338.406 -0.00113297 338.358 -1.39725 338.338 -2.80306C341.392 -2.82245 344.456 -2.82245 347.52 -2.80306C347.51 -1.30999 347.52 0.183083 347.529 1.68585C349.11 1.67615 350.69 1.67614 352.29 1.67614C352.377 7.85202 352.338 14.0279 352.348 20.2038C353.812 20.2038 355.276 20.2038 356.75 20.2135C356.75 23.2578 356.75 26.3118 356.75 29.3658C355.15 29.3658 353.55 29.3561 351.96 29.3561C351.931 27.863 351.941 26.3699 351.921 24.8866C347.403 24.8866 342.895 24.8963 338.377 24.8769C338.377 23.4614 338.377 22.0556 338.396 20.6498C332.24 20.5528 326.084 20.6207 319.927 20.5819C319.898 18.9919 319.898 17.4115 319.888 15.8312C313.916 15.7924 307.944 15.8506 301.971 15.8215C301.962 12.8257 301.962 9.83955 301.962 6.85342C300.362 6.78555 298.753 6.71768 297.163 6.6692C297.163 0.522419 297.153 -5.63407 297.172 -11.7809C298.84 -11.8002 300.507 -11.8099 302.185 -11.8099C302.185 -10.2296 302.204 -8.64929 302.224 -7.06896C303.668 -7.05927 305.113 -7.04958 306.557 -7.04958C306.548 -5.61469 306.557 -4.17009 306.567 -2.72549C308.109 -2.83214 309.669 -2.93879 311.23 -3.05513C311.192 -4.38338 311.163 -5.71163 311.153 -7.03988C312.743 -7.04957 314.333 -7.04958 315.942 -7.04958C315.933 -3.9568 315.933 -0.864006 316.02 2.22878C317.154 2.13183 318.289 2.03487 319.433 1.94761C319.423 -1.15487 319.423 -4.24764 319.433 -7.34043C322.254 -7.35982 325.095 -7.35982 327.926 -7.34043C327.916 -10.0939 327.916 -12.8473 327.935 -15.5911C325.095 -15.5911 322.264 -15.5911 319.423 -15.5911C319.403 -18.4706 319.384 -21.3598 319.588 -24.2296C322.361 -24.4235 325.133 -24.4041 327.926 -24.375Z" fill="white"/>
<path d="M265.176 -11.8105C266.93 -11.8009 268.685 -11.8009 270.459 -11.7912C270.469 -7.30227 270.469 -2.81337 270.459 1.67553C271.904 1.67553 273.349 1.67554 274.803 1.68524C274.851 10.7697 274.803 19.8638 274.822 28.958C276.228 28.9483 277.634 28.9483 279.049 28.9386C279.34 41.2128 279.117 53.487 279.176 65.7514C276.277 65.7514 273.387 65.7514 270.498 65.7708C270.479 67.1379 270.459 68.5243 270.45 69.901C273.271 69.901 276.092 69.901 278.923 69.8428C279.069 71.5395 279.185 73.2459 279.282 74.9522C280.863 74.9619 282.433 74.9716 284.023 74.991C284.033 84.2112 284.033 93.4314 284.033 102.652C285.468 102.574 286.912 102.487 288.357 102.39C288.367 97.7846 288.26 93.1696 288.308 88.5644C289.666 88.5547 291.033 88.5547 292.41 88.5547C292.468 85.4425 292.545 82.34 292.545 79.2279C294.077 79.2376 295.619 79.2375 297.17 79.2472C297.16 77.9287 297.15 76.6101 297.16 75.2916C295.609 75.2334 294.067 75.1946 292.526 75.1558C292.507 65.9454 292.594 56.7349 292.468 47.5244C294.155 47.505 295.851 47.4953 297.548 47.4953C297.587 53.4579 297.558 59.4301 297.558 65.3927C299.099 65.4315 300.641 65.4703 302.192 65.5285C302.192 70.1628 302.192 74.7971 302.192 79.4314C300.767 79.4218 299.342 79.4217 297.936 79.4217C297.926 80.8469 297.926 82.2722 297.936 83.7071C299.342 83.7071 300.757 83.707 302.182 83.7167C302.134 91.3469 302.357 98.9771 302.027 106.598C303.443 106.559 304.858 106.52 306.283 106.491C306.254 105.056 306.235 103.631 306.216 102.206C309.454 102.206 312.682 102.196 315.93 102.225C315.959 108.188 315.94 114.16 315.94 120.132C321.815 120.132 327.691 120.171 333.566 120.074C333.556 117.059 333.556 114.043 333.576 111.028C335.301 111.086 337.037 111.154 338.772 111.232C338.772 114.199 338.762 117.165 338.792 120.142C340.11 120.132 341.429 120.132 342.767 120.142C342.747 117.117 342.786 114.092 342.902 111.067C344.308 111.086 345.724 111.106 347.139 111.116C347.139 106.501 347.091 101.886 347.207 97.2804C348.778 97.2707 350.358 97.2707 351.938 97.2707C351.938 92.7527 351.929 88.2347 351.948 83.7167C353.538 83.707 355.128 83.707 356.728 83.7167C356.776 95.9812 356.747 108.255 356.747 120.53C353.674 120.53 350.61 120.53 347.556 120.52C347.527 121.984 347.508 123.448 347.498 124.922C346.092 124.902 344.696 124.873 343.31 124.844C343.222 126.424 343.154 127.995 343.096 129.585C346.034 129.692 348.981 129.566 351.919 129.401C351.929 127.927 351.938 126.453 351.977 124.989C353.557 124.98 355.147 124.98 356.738 124.989C356.757 129.614 356.757 134.239 356.747 138.873C355.274 138.873 353.819 138.873 352.365 138.873C352.336 141.801 352.346 144.729 352.346 147.667C350.726 147.686 349.117 147.725 347.517 147.783C347.517 150.915 347.517 154.056 347.517 157.197C345.927 157.207 344.347 157.216 342.776 157.226C342.767 155.733 342.767 154.24 342.776 152.757C341.429 152.757 340.1 152.757 338.772 152.757C338.772 154.192 338.782 155.626 338.801 157.071C335.718 157.294 332.635 157.323 329.562 157.236C329.562 160.212 329.552 163.198 329.562 166.185C324.559 166.068 319.556 166.078 314.563 166.185C314.534 163.305 314.718 160.416 314.437 157.556C313.884 157.42 312.779 157.149 312.227 157.023C312.149 155.626 312.081 154.24 312.004 152.863C310.162 148.529 311.655 143.536 311.16 138.951C309.551 138.902 307.961 138.873 306.361 138.844C306.322 137.264 306.274 135.683 306.235 134.113C304.8 134.103 303.385 134.113 301.959 134.103C301.959 132.678 301.959 131.243 301.969 129.827C298.779 129.866 295.59 129.798 292.4 129.692C292.439 128.15 292.477 126.628 292.526 125.096C291.139 125.145 289.763 125.212 288.396 125.319C288.338 123.719 288.299 122.12 288.27 120.53C286.748 120.52 285.225 120.51 283.713 120.501C283.694 117.466 283.694 114.441 283.713 111.416C282.123 111.358 280.533 111.309 278.962 111.261C278.923 107.897 279.234 104.532 279.214 101.168C278.477 101.158 277.004 101.149 276.277 101.139C276.267 100.005 276.267 98.8704 276.277 97.7361C274.153 97.7555 272.04 97.7748 269.936 97.833C269.946 96.2236 269.955 94.6239 269.955 93.0242C254.85 93.4314 239.735 93.189 224.62 93.2084C224.456 94.8372 224.31 96.4757 224.107 98.1045C219.676 97.9106 215.255 97.9882 210.834 97.9785C210.824 99.5103 210.824 101.042 210.824 102.584C201.749 102.593 192.675 102.584 183.6 102.584C183.6 103.883 183.59 105.182 183.6 106.481C185.229 106.491 186.867 106.51 188.506 106.539C188.506 108.052 188.515 109.574 188.525 111.096C189.97 111.096 191.424 111.106 192.888 111.116C192.888 112.802 192.888 114.48 192.888 116.167C185.132 116.167 177.385 116.186 169.629 116.157C169.629 111.503 169.629 106.859 169.639 102.206C171.17 102.206 172.702 102.196 174.254 102.206C174.244 99.1128 174.244 96.0297 174.254 92.9466C175.805 92.9079 177.366 92.8885 178.927 92.8594C178.917 91.4245 178.917 89.9993 178.927 88.5741C181.806 88.545 184.686 88.5547 187.565 88.5838C187.633 86.9937 187.701 85.4037 187.759 83.8137C189.213 83.7555 190.716 83.1447 192.151 83.581C193.169 84.9868 192.791 86.8968 193.024 88.5353C194.429 88.5547 195.825 88.5644 197.241 88.5934C197.241 90.0283 197.241 91.4632 197.251 92.9078C200.295 92.9078 203.339 92.9078 206.384 92.8981C206.374 91.4438 206.374 89.9993 206.374 88.5547C207.741 88.5547 209.118 88.5547 210.504 88.5644C210.494 87.1488 210.494 85.7431 210.494 84.3469C212.172 84.1724 213.859 83.9785 215.526 83.7264C215.565 82.2334 215.584 80.7306 215.613 79.2375C217.077 79.2375 218.561 79.2375 220.044 79.2472C220.035 76.2514 220.035 73.2653 220.044 70.2791C221.411 70.2791 222.778 70.2791 224.155 70.2888C224.223 68.6697 224.291 67.0409 224.359 65.4315C237.961 65.4315 251.554 65.4218 265.146 65.4315C265.156 64.0936 265.156 62.7653 265.176 61.437C260.115 61.3886 255.054 61.3886 250.003 61.4274C249.324 59.7889 248.48 58.2182 247.792 56.5894C244.515 56.541 241.248 56.5507 237.99 56.5603C237.971 53.5354 237.971 50.5105 237.99 47.4953C239.503 47.4953 241.025 47.4953 242.547 47.505C242.712 46.0119 242.818 44.5092 242.954 43.0258C243.429 42.9773 244.389 42.8804 244.874 42.8319C244.437 41.2903 243.982 39.7488 243.584 38.1976C244.796 38.1782 246.008 38.1685 247.23 38.1588C247.23 35.2502 247.22 32.3416 247.239 29.4427C248.587 29.4233 249.935 29.4039 251.292 29.3846C251.428 27.7945 251.544 26.1948 251.66 24.6048C252.465 24.5854 254.065 24.5563 254.87 24.5369C253.755 24.2558 252.649 23.994 251.544 23.7322C251.554 22.5591 251.573 21.386 251.593 20.2129C253.192 20.2129 254.792 20.2032 256.401 20.2032C256.401 17.1298 256.401 14.0564 256.411 10.983C257.885 10.9345 259.368 10.8957 260.851 10.8666C260.832 7.80294 260.842 4.73923 260.919 1.67553C262.325 1.67553 263.741 1.67554 265.166 1.68524C265.166 -2.81336 265.156 -7.31195 265.176 -11.8105ZM338.326 130.05C338.307 131.262 338.307 132.474 338.307 133.696C339.8 133.735 341.283 133.764 342.776 133.802C342.767 132.426 342.767 131.049 342.767 129.682C341.274 129.789 339.8 129.915 338.326 130.05Z" fill="white"/>
<path d="M251.557 -2.7171C252.613 -2.79467 254.746 -2.94978 255.803 -3.02734C257.296 -0.0218174 256.627 3.41999 256.802 6.6582C255.047 6.70667 253.311 6.77455 251.576 6.83272C251.566 3.65268 251.576 0.462937 251.557 -2.7171Z" fill="white"/>
<path d="M283.704 -2.82031C285.294 -2.82031 286.893 -2.8203 288.503 -2.81061C288.474 0.359739 288.483 3.53978 288.493 6.71982C286.893 6.778 285.294 6.82647 283.713 6.86525C283.694 3.63673 283.694 0.408206 283.704 -2.82031Z" fill="white"/>
<path d="M360.716 -2.69727C362.49 -2.68757 364.274 -2.67787 366.068 -2.64879C366.039 0.453693 366.049 3.56586 366.049 6.67804C364.265 6.69743 362.481 6.70713 360.716 6.72652C360.707 3.58526 360.707 0.443995 360.716 -2.69727Z" fill="white"/>
<path d="M365.861 10.993C367.373 10.9348 368.895 10.8864 370.417 10.8379C370.408 15.5013 370.417 20.155 370.408 24.8184C368.827 24.896 367.247 24.9736 365.676 25.0608C365.705 28.1148 365.705 31.1688 365.686 34.2228C364.028 34.2034 362.37 34.184 360.722 34.155C360.703 29.5109 360.693 24.8766 360.732 20.2423C362.438 20.2229 364.154 20.2035 365.87 20.1938C365.861 17.1204 365.861 14.0567 365.861 10.993Z" fill="white"/>
<path d="M192.421 79.2383C194.031 79.2383 195.64 79.2383 197.249 79.248C197.24 80.8962 197.22 82.5444 197.201 84.2022C194.069 85.0166 191.83 82.1856 192.421 79.2383Z" fill="white"/>
<path d="M261.02 102.555C261.001 100.946 261.011 99.3458 261.03 97.7461C262.542 97.7461 264.065 97.7558 265.596 97.7655C265.519 99.307 265.461 100.858 265.403 102.41C268.534 102.303 271.666 102.157 274.807 102.254C274.807 103.728 274.817 105.211 274.826 106.695C271.598 106.714 268.369 106.889 265.141 106.879C265.17 105.425 265.209 103.98 265.257 102.536C263.832 102.545 262.426 102.545 261.02 102.555Z" fill="white"/>
<path d="M60.5178 106.49C63.7076 106.49 66.8876 106.49 70.0677 106.51C70.0871 108.032 70.0871 109.564 70.0967 111.105C73.0538 111.105 76.0109 111.105 78.9776 111.105C78.9776 112.676 78.9776 114.256 78.9873 115.836C80.7324 115.836 82.4679 115.856 84.213 115.914C83.6701 118.667 81.1396 119.918 78.551 119.967C80.2574 120.102 81.9637 120.093 83.6798 120.161C83.7283 121.76 83.7671 123.37 83.8058 124.979C85.202 124.979 86.598 124.989 87.9942 124.989C88.0136 126.482 88.0233 127.975 88.033 129.468C89.6811 129.575 91.3294 129.681 92.9872 129.807C92.9582 132.696 92.9581 135.586 92.9969 138.485C94.4318 138.485 95.8764 138.485 97.3307 138.504C97.3598 140.094 97.3889 141.694 97.4277 143.293C98.8335 143.303 100.249 143.322 101.674 143.342C101.664 144.786 101.664 146.231 101.674 147.695C100.259 147.685 98.8432 147.685 97.4374 147.685C97.321 156.741 97.3889 165.786 97.3986 174.842C98.8238 174.832 100.239 174.832 101.674 174.832C101.674 179.505 101.694 184.178 101.645 188.842C100.104 188.842 98.5717 188.842 97.0301 188.851C97.0108 187.407 97.0011 185.962 96.9817 184.527C95.3529 184.508 93.7241 184.489 92.105 184.469C92.1438 179.951 92.1341 175.433 92.105 170.915C90.6313 170.905 89.1673 170.905 87.713 170.896C87.7033 167.677 87.7033 164.468 87.7227 161.249C89.177 161.249 90.6313 161.239 92.0856 161.239C92.1146 156.731 92.1147 152.223 92.0953 147.714C90.6313 147.695 89.1673 147.685 87.713 147.685C87.7033 144.757 87.7033 141.829 87.6839 138.901C86.249 138.882 84.8141 138.863 83.3792 138.843C83.3405 135.857 83.3405 132.871 83.3695 129.885C81.8377 129.836 80.3058 129.798 78.7837 129.759C78.7352 128.13 78.6868 126.511 78.6286 124.902C77.1355 124.892 75.6424 124.892 74.1494 124.902C74.1203 123.438 74.1106 121.983 74.0815 120.529C69.6993 120.51 65.3073 120.548 60.9251 120.5C60.5857 122.119 60.2076 123.738 59.781 125.338C59.0733 125.357 57.6675 125.396 56.9597 125.406C55.6218 127.636 53.7215 129.449 51.7921 131.165C51.414 133.104 52.6647 135.935 50.522 137.098C48.3891 143.41 50.0082 150.284 49.4846 156.838C50.0567 156.876 51.191 156.973 51.7534 157.022C51.8406 161.54 51.1038 166.271 53.1107 170.508C53.8572 170.508 55.3503 170.508 56.0968 170.508C56.0968 159.833 56.1065 149.169 56.0968 138.494C59.1702 138.485 62.2436 138.485 65.317 138.485C65.3073 136.914 65.3073 135.343 65.2976 133.782C68.3225 133.773 71.3378 133.773 74.353 133.782C74.353 138.417 74.353 143.051 74.353 147.685C71.4347 147.695 68.5164 147.695 65.5982 147.676C65.5109 149.382 65.3073 151.079 65.0455 152.775C63.5428 152.756 62.0497 152.756 60.5566 152.746C60.5566 155.568 60.5566 158.399 60.5663 161.22C62.0885 161.239 63.6203 161.249 65.1425 161.268C65.1328 167.241 65.1813 173.213 65.1134 179.185C66.6937 179.573 68.3322 179.718 69.961 179.864C69.9998 181.279 70.0386 182.695 70.0967 184.13C71.5123 184.12 72.9278 184.12 74.3433 184.13C74.3433 185.565 74.353 187 74.3626 188.454C77.4651 188.444 80.5773 188.434 83.6992 188.464C83.7283 190.063 83.767 191.682 83.8155 193.292C88.3335 193.253 92.8515 193.253 97.3792 193.282C97.3792 194.804 97.3792 196.336 97.3889 197.868C98.8141 197.868 100.239 197.878 101.674 197.897C101.635 205.556 101.771 213.225 101.577 220.894C96.9817 220.894 92.3764 220.836 87.7809 220.962C87.7324 219.324 87.6936 217.685 87.6549 216.056C86.22 216.037 84.785 216.037 83.3598 216.037C83.3501 214.641 83.3502 213.264 83.3502 211.887C81.8474 211.819 80.3446 211.771 78.8613 211.732C78.7449 210.152 78.6189 208.581 78.4347 207.02C76.9998 207.03 75.5746 207.049 74.1397 207.069C74.13 205.547 74.1203 204.024 74.1106 202.502C72.6563 202.464 71.202 202.444 69.7574 202.415C69.7574 201.009 69.7671 199.603 69.7671 198.207C68.1965 198.11 66.6258 198.139 65.0649 197.916C64.8128 196.501 64.8613 195.056 64.8129 193.641C63.3973 193.66 61.9915 193.68 60.576 193.699C60.4694 192.08 60.3724 190.461 60.2852 188.851C58.889 188.842 57.4929 188.842 56.0968 188.851C56.0968 187.407 56.0968 185.962 56.0968 184.518C54.5165 184.508 52.9458 184.508 51.3655 184.498C51.3558 181.415 51.3558 178.322 51.3558 175.239C49.8046 175.21 48.2437 175.191 46.6924 175.171C46.644 172.146 46.6537 169.122 46.6343 166.097C45.2575 166.135 43.8905 166.184 42.5235 166.242C42.2423 153.997 42.5913 141.762 42.4459 129.516C43.8517 129.516 45.2575 129.526 46.6634 129.526C46.644 126.404 46.644 123.282 46.6634 120.17C48.2243 120.122 49.7949 120.093 51.3655 120.054C51.3558 118.658 51.3558 117.271 51.3655 115.885C52.9362 115.856 54.5068 115.827 56.0774 115.817C56.0774 114.237 56.1162 112.676 56.1259 111.115C57.4832 111.076 58.8503 111.047 60.2076 111.018C60.3046 109.505 60.4209 108.003 60.5178 106.49ZM56.281 170.915C56.281 171.904 56.2907 173.872 56.2907 174.851C57.6481 174.832 59.0151 174.813 60.3821 174.803C60.353 173.494 60.3239 172.195 60.3045 170.905C58.9569 170.905 57.619 170.905 56.281 170.915Z" fill="white"/>
<path d="M215.237 115.867C216.914 115.847 218.592 115.828 220.279 115.799C220.269 117.379 220.259 118.96 220.259 120.55C218.534 120.501 216.808 120.453 215.092 120.404C215.14 118.892 215.189 117.379 215.237 115.867Z" fill="white"/>
<path d="M229.032 138.486C229.032 133.987 229.013 129.479 229.042 124.98C233.628 124.99 238.214 124.971 242.799 125C242.799 126.571 242.79 128.141 242.79 129.721C241.248 129.77 239.716 129.828 238.184 129.877C238.233 137.429 238.194 144.991 238.204 152.544C239.726 152.534 241.258 152.525 242.799 152.515C242.809 154.066 242.809 155.608 242.828 157.159C241.19 157.237 239.561 157.314 237.932 157.489C238.058 158.73 238.184 159.98 238.32 161.231C239.813 161.241 241.306 161.26 242.809 161.279C242.809 162.811 242.809 164.343 242.819 165.885C245.853 165.875 248.898 165.875 251.952 165.885C251.942 167.426 251.942 168.958 251.961 170.509C254.918 170.509 257.885 170.509 260.852 170.509C260.842 169.201 260.842 167.892 260.852 166.592C259.369 166.592 257.876 166.583 256.402 166.592C256.402 164.809 256.392 163.034 256.402 161.27C257.876 161.25 259.349 161.241 260.833 161.231C260.852 158.284 260.842 155.336 260.852 152.399C262.258 152.447 263.654 152.505 265.069 152.563C265.263 146.31 265.118 140.057 265.176 133.813C266.805 133.784 268.434 133.774 270.072 133.774C270.062 135.335 270.062 136.906 270.062 138.486C271.633 138.486 273.213 138.486 274.803 138.505C274.813 140.095 274.823 141.695 274.852 143.295C276.18 143.305 277.508 143.314 278.856 143.334C278.846 138.719 278.846 134.113 278.856 129.508C280.572 129.586 282.308 129.673 284.033 129.741C284.024 131.079 284.024 132.426 284.033 133.784C286.932 133.774 289.831 133.774 292.74 133.784C292.749 135.325 292.749 136.867 292.769 138.418C294.349 138.457 295.939 138.486 297.539 138.534C297.539 140.105 297.539 141.676 297.548 143.256C299.1 143.295 300.641 143.314 302.202 143.353C302.183 144.72 302.192 146.087 302.192 147.454C303.647 147.464 305.101 147.464 306.575 147.483C306.536 156.732 306.565 165.982 306.555 175.231C303.676 175.231 300.806 175.231 297.936 175.231C297.936 176.579 297.936 177.926 297.936 179.284C299.323 179.274 300.719 179.274 302.115 179.284C302.222 182.473 302.202 185.663 302.173 188.862C300.506 188.843 298.838 188.843 297.18 188.833C297.151 185.925 297.151 183.016 297.161 180.117C295.677 180.127 294.213 180.137 292.759 180.166C292.769 186.138 292.759 192.12 292.759 198.102C291.334 198.102 289.909 198.102 288.493 198.102C288.483 199.547 288.483 201.001 288.483 202.465C285.274 202.455 282.065 202.465 278.866 202.455C278.856 201.011 278.846 199.576 278.846 198.141C274.29 198.083 269.733 198.112 265.176 198.102C265.166 196.619 265.157 195.135 265.157 193.652C262.248 193.642 259.34 193.652 256.441 193.691C256.421 192.081 256.412 190.472 256.412 188.872C253.358 188.843 250.313 188.853 247.259 188.853C247.24 187.398 247.23 185.954 247.22 184.509C244.147 184.519 241.074 184.509 238 184.519C237.971 183.045 237.952 181.581 237.932 180.127C236.517 180.127 235.111 180.127 233.705 180.137C233.647 178.489 233.608 176.84 233.57 175.192C232.057 175.212 230.545 175.231 229.042 175.26C229.013 167.688 229.042 160.116 229.032 152.544C230.69 152.496 232.348 152.457 234.016 152.437C233.986 153.96 233.967 155.501 233.948 157.033C235.208 156.955 236.468 156.829 237.729 156.665C237.942 155.249 237.991 153.824 237.865 152.389C236.449 152.379 235.043 152.37 233.637 152.36C233.618 150.809 233.618 149.257 233.608 147.716C232.076 147.696 230.545 147.687 229.032 147.687C229.022 146.3 229.022 144.924 229.032 143.547C227.452 143.547 225.881 143.547 224.311 143.547C224.311 141.86 224.311 140.173 224.32 138.496C225.881 138.486 227.452 138.486 229.032 138.486Z" fill="white"/>
<path d="M171.243 126.947C174.171 126.947 177.109 126.792 180.036 127.025C180.114 127.674 180.269 128.964 180.347 129.604C183.071 129.497 185.795 129.584 188.52 129.739C188.51 131.087 188.51 132.425 188.52 133.782C193.018 133.782 197.517 133.773 202.016 133.792C202.025 136.953 202.025 140.113 202.025 143.274C203.538 143.293 205.06 143.313 206.582 143.342C206.563 144.709 206.563 146.086 206.563 147.462C207.968 147.462 209.384 147.462 210.809 147.472C210.829 148.984 210.838 150.497 210.867 152.019C212.496 152.038 214.135 152.048 215.773 152.068C215.773 156.673 215.773 161.278 215.783 165.893C217.227 165.903 218.672 165.893 220.136 165.883C220.359 168.86 220.34 171.846 220.262 174.832C221.668 174.832 223.083 174.822 224.499 174.832C224.499 177.925 224.499 181.008 224.499 184.101C226.011 184.12 227.524 184.149 229.036 184.207C229.153 185.613 229.259 187.029 229.366 188.444C232.304 188.444 235.251 188.444 238.189 188.444C238.198 190.044 238.208 191.644 238.227 193.253C241.359 193.263 244.5 193.253 247.632 193.292C247.632 194.814 247.641 196.336 247.641 197.868C250.705 197.858 253.769 197.848 256.833 197.975C256.784 199.351 256.736 200.738 256.707 202.124C259.654 202.134 262.601 202.124 265.558 202.144C265.568 203.695 265.568 205.246 265.597 206.807C276.116 206.826 286.645 206.846 297.165 206.788C297.155 205.246 297.155 203.704 297.165 202.173C298.755 202.144 300.345 202.124 301.945 202.105C301.954 200.689 301.964 199.274 301.983 197.868C303.428 197.868 304.872 197.868 306.327 197.878C306.327 194.756 306.327 191.644 306.327 188.522C307.936 188.463 309.546 188.396 311.174 188.328C311.174 185.313 311.174 182.297 311.194 179.282C313.443 179.272 315.702 179.272 317.971 179.272C317.961 177.789 317.961 176.315 317.971 174.851C320.259 174.842 322.547 174.842 324.854 174.842C324.845 180.988 324.854 187.135 324.845 193.282C326.415 193.272 327.976 193.263 329.557 193.272C329.566 196.22 329.566 199.177 329.566 202.134C332.485 202.134 335.403 202.124 338.331 202.144C338.311 203.578 338.292 205.023 338.282 206.468C339.872 206.981 341.53 207.263 343.208 207.456C343.178 208.824 343.149 210.191 343.14 211.567C346.203 211.558 349.267 211.606 352.34 211.684C352.36 214.747 352.35 217.811 352.292 220.875C350.75 220.875 349.209 220.875 347.677 220.884C347.58 222.504 347.464 224.142 347.076 225.732C346.097 225.674 344.148 225.567 343.169 225.509C343.159 226.925 343.149 228.34 343.159 229.775C341.705 229.736 340.25 229.697 338.806 229.678C338.777 231.278 338.757 232.887 338.728 234.506C335.703 235.001 332.63 234.865 329.576 234.855C329.557 236.319 329.547 237.783 329.537 239.257C327.967 239.257 326.406 239.267 324.854 239.267C324.845 240.566 324.845 241.875 324.854 243.183C327.879 243.183 330.904 243.183 333.939 243.203C333.968 250.94 333.939 258.676 333.958 266.413C332.485 266.433 331.021 266.462 329.566 266.501C329.557 269.341 329.557 272.172 329.586 275.013C327.986 275.168 326.415 275.352 324.845 275.604C324.835 277.107 324.845 278.629 324.854 280.151C323.293 280.122 321.733 280.103 320.191 280.093C320.259 283.118 320.259 286.153 320.191 289.187C318.766 289.197 317.36 289.217 315.954 289.226C315.944 290.797 315.925 292.377 315.915 293.958C314.432 293.88 312.949 293.802 311.475 293.735C311.155 295.15 311.019 296.604 310.903 298.059C309.449 298.049 307.994 298.039 306.55 298.049C306.559 301.219 306.559 304.399 306.55 307.579C305.095 307.57 303.651 307.56 302.206 307.56C302.187 308.985 302.187 310.41 302.177 311.845C300.626 311.855 299.094 311.884 297.553 311.913C297.572 314.996 297.572 318.079 297.562 321.172C295.953 321.172 294.363 321.191 292.763 321.201C292.763 324.119 292.753 327.028 292.763 329.956C291.386 329.946 290.01 329.956 288.652 329.975C288.4 334.426 288.488 338.895 288.517 343.355C286.849 343.539 285.201 343.82 283.562 344.13C283.543 345.536 283.543 346.961 283.533 348.387C282.079 348.377 280.625 348.387 279.18 348.406C279.19 349.822 279.199 351.247 279.229 352.682C274.546 352.779 269.863 352.73 265.18 352.73C265.17 351.286 265.161 349.841 265.161 348.416C262.242 348.367 259.334 348.377 256.416 348.387C256.406 346.913 256.406 345.449 256.416 344.004C253.362 343.995 250.308 343.995 247.254 343.995C247.234 342.376 247.234 340.766 247.234 339.157C244.141 339.147 241.058 339.147 237.975 339.147C237.975 337.702 237.985 336.268 237.995 334.842C235.018 334.784 232.042 334.794 229.075 334.804C229.027 333.184 228.988 331.585 228.93 329.985C225.973 329.946 223.025 329.956 220.078 329.966C220.039 328.473 220 326.98 219.962 325.506C216.82 325.506 213.689 325.506 210.557 325.506C210.518 324.061 210.509 322.617 210.489 321.182C207.552 321.191 204.614 321.191 201.676 321.182C201.637 319.65 201.618 318.137 201.589 316.615C200.018 316.596 198.457 316.596 196.906 316.586C196.877 315.006 196.858 313.435 196.848 311.865C193.784 311.874 190.711 311.884 187.647 311.768C187.667 310.362 187.696 308.966 187.735 307.57C184.807 307.57 181.888 307.57 178.97 307.56C178.941 306.086 178.922 304.603 178.902 303.139C177.399 303.129 175.906 303.139 174.404 303.158C174.345 301.442 174.277 299.746 174.229 298.049C172.697 298.049 171.165 298.049 169.653 298.059C169.633 296.653 169.624 295.247 169.614 293.851C166.55 293.967 163.487 293.919 160.433 293.735C160.413 290.642 160.423 287.549 160.452 284.466C158.969 284.417 157.476 284.379 155.992 284.35C155.992 282.924 155.992 281.509 156.012 280.093C154.577 280.103 153.132 280.113 151.697 280.122C151.707 248.128 151.688 216.134 151.707 184.13C153.142 184.13 154.577 184.12 156.021 184.12C156.089 176.5 156.031 168.879 156.06 161.249C157.747 161.249 159.434 161.249 161.131 161.259C161.131 165.786 161.131 170.314 161.131 174.832C162.653 174.842 164.175 174.832 165.707 174.861C165.726 182.53 165.707 190.199 165.717 197.878C166.696 197.878 168.654 197.878 169.633 197.878C169.633 185.749 169.633 173.62 169.633 161.491C168.189 161.482 166.754 161.472 165.319 161.472C165.28 153.803 165.358 146.134 165.271 138.465C166.541 139.435 168.014 139.91 169.604 140.075C169.614 138.717 169.614 137.37 169.624 136.032C169.992 135.809 170.748 135.382 171.127 135.169C171.388 132.435 171.204 129.681 171.243 126.947ZM169.963 202.463C169.963 205.498 169.963 208.533 169.963 211.577C171.388 211.577 172.823 211.577 174.268 211.587C174.248 208.542 174.248 205.498 174.258 202.463C172.823 202.454 171.388 202.454 169.963 202.463ZM315.935 229.697C315.935 231.142 315.935 232.596 315.944 234.06C318.853 234.051 321.752 234.051 324.661 234.06C324.661 232.625 324.66 231.19 324.67 229.765C321.752 229.688 318.843 229.688 315.935 229.697ZM297.94 266.452C297.94 267.809 297.94 269.186 297.95 270.563C288.672 271.096 279.364 270.67 270.076 270.815C270.067 273.762 270.067 276.71 270.067 279.667C271.531 279.773 272.995 279.89 274.468 280.006C274.488 278.445 274.497 276.884 274.526 275.333C282.205 275.333 289.874 275.323 297.553 275.333C297.553 276.807 297.543 278.28 297.553 279.764C300.51 279.919 303.476 279.958 306.443 279.928C306.453 281.334 306.492 282.759 306.54 284.175C308.072 284.117 309.594 284.059 311.136 284.02C311.155 282.653 311.165 281.286 311.194 279.928C312.648 279.928 314.102 279.928 315.566 279.938C315.557 275.44 315.557 270.951 315.566 266.452C309.691 266.442 303.816 266.452 297.94 266.452ZM288.488 293.919C288.458 296.837 288.439 299.755 288.623 302.674C291.474 302.741 294.324 302.451 297.165 302.247C297.155 299.464 297.155 296.701 297.165 293.928C294.266 293.928 291.377 293.928 288.488 293.919Z" fill="white"/>
<path d="M242.385 133.85C245.575 133.753 248.764 133.762 251.954 133.791C251.944 135.478 251.944 137.165 251.935 138.862C248.774 138.881 245.613 138.882 242.462 138.852C242.424 137.185 242.404 135.517 242.385 133.85Z" fill="white"/>
<path d="M247.232 152.534C250.257 152.524 253.282 152.524 256.317 152.543C256.307 154.114 256.307 155.685 256.307 157.265C253.282 157.236 250.257 157.226 247.242 157.207C247.232 155.646 247.232 154.085 247.232 152.534Z" fill="white"/>
<path d="M333.606 170.488C335.322 170.508 337.057 170.537 338.793 170.576C338.764 176.664 338.773 182.753 338.793 188.841C337.057 188.841 335.322 188.841 333.596 188.851C333.567 187.406 333.557 185.962 333.557 184.517C332.084 184.508 330.62 184.498 329.156 184.488C329.146 181.279 329.146 178.08 329.156 174.871C330.61 174.851 332.084 174.832 333.548 174.822C333.557 173.368 333.577 171.923 333.606 170.488Z" fill="white"/>
</g>
<defs>
<clipPath id="clip0_1123_12332">
<rect width="400" height="400" fill="white" transform="translate(0.150391 0.220703)"/>
</clipPath>
</defs>
</svg>
