<svg xmlns="http://www.w3.org/2000/svg" xml:space="preserve" id="Layer_1" x="0" y="0" version="1.1" viewBox="-0.13 45.54 512.32 420.93"><style>.st1,.st12,.st46{fill:none;stroke-width:.3}.st1{stroke:#083553;stroke-opacity:.98}.st12{stroke:#00b8f0}.st46{stroke:#000;stroke-opacity:0}.st151{fill:#083553;fill-opacity:.98}.st162{fill:#00b8f0}.st196{fill-opacity:0}</style><path d="M245 47h17.9c-4.8-1.8-13.1-1.7-17.9 0z" style="fill:none;stroke:#083554;stroke-width:.3;stroke-opacity:.13"/><path d="M227.1 48.1c-.6 1.7-2.9.8-4.2 1.1-22.7 2.4-44 10.4-64.1 21-1.5 2.5-4.7 3.6-7.4 4.2-4.7 2.6-9.2 5.3-13.7 8.4-1.6 3.1-4.7 4.5-7.4 6.3 0 0-.6-.2-1.1 0-1 1.6-2.4 3.4-4.2 4.2-.7.2-2.1-.1-2.1 1.1-1 1.6-2.4 3.4-4.2 4.2-1.1.1-1.7 1.2-2.1 2.1-7.4 12.5-19.7 16-33.6 13.7-15.2-.7-31.8 1.4-46.2-1.1-7.5 1.3-15.9 3.5-21 9.5-2.3 3.1-5.3 6.2-8.4 8.4-3.8 5.5-6.6 12-6.3 18.9v212.1c-.3 7 2.5 13.3 6.3 18.9 4.2 3.4 8.3 7.4 11.6 11.6 5.4 2.7 10.8 5.7 16.8 6.3.6-1.7 2.9-.8 4.2-1.1 21.2.7 43.8-1.4 64.1 1.1 4.2 3.4 8.3 7.4 11.6 11.6 1.1 2.1 3.2 3.9 5.3 5.3 1.9-.2 3.5 1.6 4.2 3.2 1.1 1.8 2.9 4.3 5.3 4.2 1.3 1.2 3.3 1.7 4.2 3.2 22.2 18.3 50.2 28.7 77.7 35.7.5-1.4 3.8-1.6 4.2 0 2.2 1.5 4.8 1 7.4 1.1 1.3.3 3.7-.8 4.2 1.1h3.2c2.3.5 5.9-1.2 7.4 1.1h27.4c.6-1.7 2.9-.8 4.2-1.1h6.3s.5-.1 1.1 0c1.2-2 4.3-.6 6.3-1.1 37.3-4.1 71.8-21.3 100.8-45.2 2.3-3.1 5.3-6.2 8.4-8.4 3-3.8 6.7-7.6 10.5-10.5 21.6-1.7 46.7-1.8 68.3 0 8.1.2 15.6-2.8 22.1-7.4 3.5-4.4 8.1-8.5 11.6-12.6 3.5-6.1 6.1-12.6 5.3-20V153.4c.9-9.1-3-17.5-8.4-24.2-3.1-2.3-6.2-5.3-8.4-8.4 0 0-.6.1-1.1 0-1.4-1-3.7-1.1-4.2-3.2-5.2-2.7-10.8-4.4-16.8-4.2-21.6 1.7-46.7 1.8-68.3 0-5.2-4.4-10.4-9.5-14.7-14.7-1.6-1-3.4-2.4-4.2-4.2 0 0-.6.2-1.1 0-1.6-1-3.4-2.4-4.2-4.2 0 0-.6.2-1.1 0-1.3-.3-1.8-1.9-3.2-2.1-2.9-2.9-7.1-4.2-9.5-7.4-10-7.4-21.7-14-33.6-17.9-1.9-.3-4.5-1.1-5.3-3.2-12.5-4.1-24.9-8.1-37.8-10.5-.5 1.4-3.8 1.6-4.2 0-1.8-2.3-5.8-.5-8.4-1.1-2.3-.5-5.9 1.2-7.4-1.1h-27.4c-.6 1.7-2.9.8-4.2 1.1-1.3-.3-3.7.8-4.2-1.1-2.2.2-3.9 1.7-6.3 1.1m45.2 14.7h4.2c1.3.3 3.7-.8 4.2 1.1 35.2 4.8 67.9 21.1 95.6 43.1 2.4 2 5.9 4.1 6.3 7.4-85.6-.7-172.6 1.4-257.3-1.1 1.3-2 3.2-4.1 5.3-5.3 1.3-.3 1.8-1.9 3.2-2.1 27.7-22.9 61-38.3 96.6-42 .6-1.7 2.9-.8 4.2-1.1.5.1 1.1 0 1.1 0 1.5-2.1 5-.6 7.4-1.1h23.1c1.8.5 5-1.1 6.1 1.1m201.6 66.1c10.1.7 19.5 10.2 21 20 1.8 70.3 1.8 144 0 214.3.1 4-2.9 7-4.2 10.5-1.3 2-3.2 4.1-5.3 5.3-4.1 1.8-7.7 5-12.6 4.2-143.5 1.8-290.4 1.8-433.8 0-4.9.9-8.5-2.5-12.6-4.2-3.1-2.2-6-4.9-7.4-8.4-7-21.8-1.3-47.1-3.2-70.4V152.1c.3-1.3-.8-3.7 1.1-4.2-.3-3.2 2.1-5.6 3.2-8.4 1.6-2.4 3.9-4.8 6.3-6.3 4.1-1.8 7.7-5 12.6-4.2 143.9-1.8 291.2-1.8 434.9-.1m-96.6 275.2c-28 23-61 39-96.6 44.1-.6 1.7-2.9.8-4.2 1.1h-5.3c-1.5 2.1-5 .6-7.4 1.1h-20c-2.6-.6-6.6 1.2-8.4-1.1h-3.2c-1.6-.4-4.4 1-5.3-1.1-32.5-4.4-62.8-18.8-89.3-37.8-1.6-1-3.4-2.4-4.2-4.2-.8-.1-1.2-1.1-2.1-1.1-2.4-1.6-4.8-3.9-6.3-6.3 84.8-2.4 171.7-.3 257.3-1.1.1 2.9-2.9 4.9-5 6.4z" class="st1"/><path d="M237.6 48.1c-.2-.1 0-1.1 0-1.1h-4.2c.5 1.9 2.9.8 4.2 1.1z" style="fill:none;stroke:#093452;stroke-width:.3;stroke-opacity:.4"/><path d="M237.6 48.1c1.3-.3 3.6.6 4.2-1.1h-4.2s-.2 1 0 1.1z" style="fill:none;stroke:#083552;stroke-width:.3;stroke-opacity:.73"/><path d="M276.5 48.1c-1.4-2.2-5.1-.5-7.4-1.1 1.5 2.3 5.1.5 7.4 1.1z" style="fill:none;stroke:#0a3453;stroke-width:.3;stroke-opacity:.34"/><path d="M222.9 49.1c1.3-.3 3.6.6 4.2-1.1-1.3.4-3.6-.6-4.2 1.1z" style="fill:none;stroke:#053152;stroke-width:.3;stroke-opacity:.21"/><path d="M289.1 49.1h-4.2c.4 1.7 3.7 1.4 4.2 0z" style="fill:none;stroke:#093453;stroke-width:.3;stroke-opacity:.6"/><path d="M332.1 62.8c-1-1.8-3.6-1.9-5.3-3.2.8 2.1 3.4 2.9 5.3 3.2z" style="fill:none;stroke:#063556;stroke-width:.3;stroke-opacity:.31"/><path d="M235.5 62.8h7.4c.1 0 0-1.1 0-1.1-2.3.5-5.9-1-7.4 1.1z" style="fill:none;stroke:#084d70;stroke-width:.3;stroke-opacity:.77"/><path d="M242.9 62.8H266c-.1 0 0-1.1 0-1.1h-23.1z" style="fill:none;stroke:#0299cb;stroke-width:.3;stroke-opacity:.84"/><path d="M266 62.8h6.3c-1.1-2.2-4.3-.6-6.3-1.1 0 0-.1 1 0 1.1z" style="fill:none;stroke:#084668;stroke-width:.3;stroke-opacity:.81"/><path d="M230.3 63.8c1.3-.3 3.7.8 4.2-1.1-1.3.4-3.7-.6-4.2 1.1z" style="fill:none;stroke:#048bba;stroke-width:.3;stroke-opacity:.76"/><path d="M230.3 63.8c-35.6 3.7-68.9 19.1-96.6 42-1 1.6-2.4 3.4-4.2 4.2-1.3.7-2.7 1.7-3.2 3.2h255.2c-1.2-2.5-4.2-3.8-5.3-6.3-27.7-22-60.4-38.3-95.6-43.1-1.3-.3-3.7.8-4.2-1.1h-41s-.5.1-1.1 0c-.4 1.9-2.7.8-4 1.1z" class="st12"/><path d="M280.7 63.8c-.5-1.8-2.9-.8-4.2-1.1.5 1.9 2.8.8 4.2 1.1z" style="fill:none;stroke:#084d6f;stroke-width:.3;stroke-opacity:.81"/><path d="M151.5 74.3c2.7-.6 5.9-1.7 7.4-4.2-2.5 1.4-5.5 2.2-7.4 4.2z" style="fill:none;stroke:#083455;stroke-width:.3;stroke-opacity:.27"/><path d="M375.2 88c-.1-.8-1.1-1.2-1.1-2.1-2.8-1.7-5.3-3.9-8.4-5.3 2.4 3.2 6.6 4.5 9.5 7.4z" style="fill:none;stroke:#093553;stroke-width:.3;stroke-opacity:.41"/><path d="M130.5 89c2.6-1.8 5.8-3.2 7.4-6.3-2.4 2.2-5.8 3.4-7.4 6.3z" style="fill:none;stroke:#003159;stroke-width:.3;stroke-opacity:.24"/><path d="M375.2 88c1.4.2 1.8 1.8 3.2 2.1-.8-1.8-2.6-3.2-4.2-4.2-.1.9.9 1.2 1 2.1z" style="fill:none;stroke:#002f60;stroke-width:.3;stroke-opacity:.18"/><path d="M125.2 93.2c1.8-.8 3.2-2.6 4.2-4.2-1.7.8-3.1 2.6-4.2 4.2z" style="fill:none;stroke:#07384d;stroke-width:.3;stroke-opacity:.2"/><path d="M383.6 94.3c-.8-1.8-2.6-3.2-4.2-4.2.8 1.7 2.6 3.2 4.2 4.2z" style="fill:none;stroke:#063256;stroke-width:.3;stroke-opacity:.23"/><path d="M118.9 98.5c1.8-.8 3.2-2.6 4.2-4.2-1.7.8-3.1 2.5-4.2 4.2z" style="fill:none;stroke:#063254;stroke-width:.3;stroke-opacity:.17"/><path d="M388.9 98.5c-.8-1.8-2.6-3.2-4.2-4.2.7 1.7 2.5 3.2 4.2 4.2z" style="fill:none;stroke:#00315e;stroke-width:.3;stroke-opacity:9.000000e-02"/><path d="M403.6 113.2c-4.2-5.7-9-10.4-14.7-14.7 4.3 5.2 9.4 10.3 14.7 14.7z" style="fill:none;stroke:#023357;stroke-width:.3;stroke-opacity:.41"/><path d="M113.7 102.7c-2 2.8-4.6 5.5-7.4 7.4-8.4 6.8-22.7 1.4-33.6 3.2H37c14.4 2.4 31 .3 46.2 1.1 13.9 2.4 26.2-1.2 33.6-13.7-1 .5-2.5.9-3.1 2z" style="fill:none;stroke:#083452;stroke-width:.3;stroke-opacity:.75"/><path d="M106.3 110c2.8-1.8 5.4-4.6 7.4-7.4-2.8 1.9-5.4 4.7-7.4 7.4z" style="fill:none;stroke:#023058;stroke-width:.3;stroke-opacity:4.000000e-02"/><path d="M130.5 107.9c-.1.8-1.1 1.2-1.1 2.1 1.8-.8 3.2-2.6 4.2-4.2-1.3.2-1.8 1.8-3.1 2.1z" style="fill:none;stroke:#01a5d9;stroke-width:.3;stroke-opacity:.66"/><path d="M126.3 113.2h-1.1c84.7 2.4 171.7.3 257.3 1.1-.4-3.3-3.9-5.4-6.3-7.4 1.1 2.5 4.1 3.8 5.3 6.3z" style="fill:none;stroke:#083a5b;stroke-width:.3;stroke-opacity:.84"/><path d="M125.2 113.2h1.1c.4-1.4 1.9-2.4 3.2-3.2-.1-.9.9-1.3 1.1-2.1-2.2 1.2-4 3.2-5.4 5.3z" style="fill:none;stroke:#084668;stroke-width:.3;stroke-opacity:.6"/><path d="M471.8 113.2h-68.3c21.6 1.7 46.7 1.7 68.3 0z" style="fill:none;stroke:#093452;stroke-width:.3;stroke-opacity:.8"/><path d="M492.8 120.5c-.5-2-2.8-2.1-4.2-3.2.5 2.1 2.8 2.2 4.2 3.2z" style="fill:none;stroke:#053153;stroke-width:.3;stroke-opacity:.27"/><path d="M502.3 128.9c-2.2-3.1-5.3-6.1-8.4-8.4 2.2 3.2 5.3 6.1 8.4 8.4z" style="fill:none;stroke:#083354;stroke-width:.3;stroke-opacity:.28"/><path d="M7.6 131c3.1-2.2 6.1-5.3 8.4-8.4-3.6 1.9-5.7 5.2-8.4 8.4z" style="fill:none;stroke:#023158;stroke-width:.3;stroke-opacity:.36"/><path d="M39.1 128.9h434.8c-143.7-1.7-291-1.7-434.8 0z" style="fill:none;stroke:#0381ab;stroke-width:.3;stroke-opacity:.76"/><path d="M26.5 133.1c-1.6 2.4-3.9 4.8-6.3 6.3-1.1 2.8-3.5 5.2-3.2 8.4-.3 1.3.8 3.7-1.1 4.2v148.1c1.8 23.2-3.8 48.5 3.2 70.4 2.5 2.5 5.1 5.6 7.4 8.4 4.1 1.7 7.7 5.1 12.6 4.2h433.8c4.9.8 8.5-2.4 12.6-4.2 1.3-2 3.2-4.1 5.3-5.3 1.3-3.5 4.3-6.5 4.2-10.5V148.8c-1.5-9.8-10.9-19.3-21-20H39.2c-5-.7-8.6 2.6-12.7 4.3m360.3 27.3c7.3.9 13.8 4.9 20 8.4 3.9 2.7 7.1 6.5 9.5 10.5 2.8 5.9 6.3 11.9 6.3 18.9 3.4 2.9-1.9 11.4 3.2 12.6h9.5c1.3.3 3.7-.8 4.2 1.1 6.8 1.4 13 4.8 18.9 8.4 2.8 2 5.5 4.6 7.4 7.4 3.8 6.7 8.3 13.8 8.4 22.1 1.6 2.4 1.8 8.2 0 10.5-.3 8.1-3.9 15.5-8.4 22.1-2.3 3.1-5.3 6.2-8.4 8.4-6.5 4.2-13.3 7.5-21 8.4-3.1 2.9-9.6-.9-12.6 2.1-.7 3.7 1.3 8.7-1.1 11.6-.2 7.3-4.3 13.5-7.4 20-2.3 3.1-5.3 6.2-8.4 8.4-5.4 4.1-11.3 7-17.9 8.4-.6 1.7-2.9.8-4.2 1.1-12.3 1-24.1-2-33.6-9.5-2.8-2-5.5-4.6-7.4-7.4-7.3-9.2-10.2-20.6-9.5-32.6-3.4-3-10.3.9-13.7-2.1-8.1-1.1-15.2-5.2-22.1-9.5-2.4-1.6-4.8-3.9-6.3-6.3-6.3-9.8-10.8-21.2-9.5-33.6.3-1.3-.8-3.7 1.1-4.2 1.5-6 3.9-11.6 7.4-16.8 2.3-3.1 5.3-6.2 8.4-8.4 10-7.3 22-10.4 34.7-9.5v-11.6c.3-1.3-.8-3.7 1.1-4.2 1.6-6.7 4.5-13.2 8.4-18.9 2-2.8 4.6-5.5 7.4-7.4 6.9-3.5 13.7-8.5 22.1-8.4 3.2-1.6 10.1-1.8 13.5 0M183 211.9c14.2.7 29.7-1.4 43.1 1.1 1.7 27.2 1.8 57.9 0 85.1H182v43.1c-27.4 2.4-56.9.3-85.1 1.1-2.4-13.7-.4-29.6-1.1-44.1H52.7c-2.4-27.4-.3-56.9-1.1-85.1 13.7-2.4 29.6-.4 44.1-1.1v-43.1c27.7-1.9 58.2-1.4 86.4-.2 2 13.8.4 28.8.9 43.2z" style="fill:none;stroke:#0096c3;stroke-width:.3"/><path d="M20.2 139.4c2.4-1.5 4.7-3.9 6.3-6.3-2.4 1.5-4.6 3.9-6.3 6.3z" style="fill:none;stroke:#056388;stroke-width:.3;stroke-opacity:.78"/><path d="M16 152c1.8-.5.8-2.9 1.1-4.2-1.9.6-.8 2.9-1.1 4.2z" style="fill:none;stroke:#0280a9;stroke-width:.3;stroke-opacity:.8"/><path d="M494.9 363.1c1.8-70.2 1.8-144 0-214.3z" style="fill:none;stroke:#0091bd;stroke-width:.3;stroke-opacity:.84"/><path d="M1.3 362.1V150c-1.7 69.5-1.7 142.5 0 212.1z" style="fill:none;stroke:#073351;stroke-width:.3;stroke-opacity:.27"/><path d="M510.7 358.9c1.8-67.4 1.8-138.3 0-205.8z" style="fill:none;stroke:#0c3358;stroke-width:.3;stroke-opacity:8.000000e-02"/><path d="M373.1 160.4h13.7c-3.4-1.8-10.3-1.6-13.7 0z" style="fill:none;stroke:#04668c;stroke-width:.3;stroke-opacity:.78"/><path d="M351 168.8c-2 2.8-4.6 5.5-7.4 7.4-3.9 5.7-6.8 12.2-8.4 18.9-.3 1.3.8 3.7-1.1 4.2v11.6c-12.7-1-24.7 2.2-34.7 9.5-2.3 3.1-5.3 6.2-8.4 8.4-3.4 5.2-5.9 10.8-7.4 16.8-.3 1.3.8 3.7-1.1 4.2-1.3 12.4 3.2 23.8 9.5 33.6 2.4 1.6 4.8 3.9 6.3 6.3 6.9 4.3 13.9 8.4 22.1 9.5 3.7 1 15-2.2 13.7 2.1-.7 11.9 2.2 23.3 9.5 32.6 2.8 2 5.5 4.6 7.4 7.4 9.5 7.4 21.3 10.5 33.6 9.5.6-1.7 2.9-.8 4.2-1.1 6.6-1.4 12.5-4.3 17.9-8.4 2.3-3.1 5.3-6.2 8.4-8.4 3.1-6.4 7.1-12.6 7.4-20v-11.6c1.6-4.4 9.5-1 13.7-2.1 7.7-.9 14.5-4.2 21-8.4 2.3-3.1 5.3-6.2 8.4-8.4 4.5-6.5 8.1-13.9 8.4-22.1v-10.5c-.1-8.3-4.6-15.3-8.4-22.1-2.8-2-5.5-4.6-7.4-7.4-5.9-3.6-12.1-7-18.9-8.4-1.3-.3-3.7.8-4.2-1.1h-9.5c-.3 1.5-2.2.8-3.2 1.1v-13.7c0-7-3.5-13-6.3-18.9-3.5-3-6.3-7-9.5-10.5-6.2-3.5-12.6-7.5-20-8.4h-13.7c-8.2-.1-14.9 4.9-21.9 8.4m32.6 6.3c3.9 1.4 7.6 3 11.6 4.2.8.1 1.2 1.1 2.1 1.1 2 1.3 4.1 3.2 5.3 5.3.2.4 0 1.1 0 1.1 1.4 3.5 4.3 6.5 4.2 10.5 3.3 1.7 2.7 8.2 1.1 10.5-.7 4.9-2.9 9.3-5.3 13.7-.2 2.8-3.2 4.9-5.3 6.3-.4.2-1.1 0-1.1 0-.8.1-1.2 1.1-2.1 1.1-.9 2-3.2 2.9-5.3 3.2-1.6-.4-2.8.5-4.2 1.1-2.7 1.6-8.9 1.8-11.6 0-4.4-1.7-8.8-3.4-12.6-6.3-1.2 1.3-6.7-4.1-5.3-5.3-2.5-4.3-4.9-8.6-5.3-13.7-1.5-1.4-1.8-6 0-7.4-.7-2 1.3-3.3 1.1-5.3-1.2-1.4 1.2-5.4 3.2-6.3.2-.5 0-1.1 0-1.1 1.5-3.7 4.7-7 8.4-8.4 3.5-1.1 7.4-2.9 10.5-4.2 2.5-1.7 8.3-1.9 10.6-.1m-50.4 51.5c3.4 1.7 7.2 2.1 10.5 4.2 4.2 1.5 8.6 6 9.5 10.5 1.6 2.2 1.1 5.7 3.2 7.4 1.6 2.4 1.8 8.2 0 10.5-.2 5-3.2 9.2-5.3 13.7-2.3 2.7-4.8 6.7-8.4 7.4-.4.1-.8.7-1.1 1.1-1.1 1.5-3.3 2.3-5.3 2.1-1.9-.2-3.6.1-5.3 1.1-1.4 1.5-6 1.8-7.4 0-4.8-1.2-9.3-3.1-13.7-5.3-.5-.1-1.1 0-1.1 0-2-1.3-4.1-3.2-5.3-5.3-.6-1.5-2.5-2.3-2.1-4.2-.6-3.6-3.3-6.6-3.2-10.5-1.5-1.4-1.8-6 0-7.4.3-5.3 3.3-10 5.3-14.7 1.3-2 3.2-4.1 5.3-5.3 4.7-2 9.2-5.2 14.7-5.3 2.3-1.6 7.7-1.8 9.7 0m100.8 0c4.6.1 8.5 2.8 12.6 4.2 2.2 1 7.6 4.1 6.3 6.3 2.2 3.6 5.1 7.2 5.3 11.6 3.3 1.7 2.7 8.2 1.1 10.5-1.2 4.4-2.3 9-5.3 12.6.9 2.2-4.3 5.6-6.3 7.4-.4.2-1.1 0-1.1 0-.5 1.4-3.4 3.8-4.2 2.1-2.5 2-5.7 1.7-8.4 3.2-1.4 1.5-6 1.8-7.4 0-4.6-1.6-9.4-2.6-13.7-5.3-.5-.2-1.1 0-1.1 0-2-1.3-4.1-3.2-5.3-5.3-.1-.8-1.1-1.2-1.1-2.1-2.3-5.4-5.6-12-4.2-17.9-1.5-.8-1.7-4.5 0-5.3 1.1-4.2 3.9-7.6 5.3-11.6 1.3-2 3.2-4.1 5.3-5.3 4.8-1.7 9.1-5.8 14.7-5.3 1.6-1.3 6.2-1.6 7.5.2m-44.1 52.5c2.5.3 5.3 1.8 6.3 4.2.4.2 1.1 0 1.1 0 2 1.3 4.1 3.2 5.3 5.3 1.9 4.1 3.8 8.2 5.3 12.6 1.6 2.4 1.8 8.2 0 10.5-1.3 3.6-2.8 7-4.2 10.5-1.2 3-3.5 5.7-6.3 7.4-1.9-.6-2.6 1.8-4.2 2.1-.7 1.6-4.1 4.2-5.3 2.1-.8.1-1.2 1.1-2.1 1.1-.6 1.7-2.9.8-4.2 1.1h-5.3c-1.6-.4-4.4 1-5.3-1.1-.3-1.5-2.2-.8-3.2-1.1-1.9-.3-4.5-1.1-5.3-3.2 0-1.2-1.4-.9-2.1-1.1-4.3-3.2-8.5-7.3-9.5-12.6.3-2.6-1.7-4.6-1.1-7.4-1.5-1.1-1.8-5.3 0-6.3-.3-5.5 3.1-9.9 5.3-14.7 1.3-2 3.2-4.1 5.3-5.3 8.9-5.7 19.5-7.8 29.5-4.1z" class="st1"/><path d="M95.8 168.8H182v43.1c0 .1 1.1 0 1.1 0-.5-14.3 1.1-29.4-.8-43.3-28.2-1.2-58.7-1.7-86.5.2z" style="fill:none;stroke:#0094c0;stroke-width:.3;stroke-opacity:.86"/><path d="M51.7 212.9h45.2v-44.1h-1.1v43.1c-14.5.7-30.3-1.4-44.1 1z" style="fill:none;stroke:#027ba4;stroke-width:.3;stroke-opacity:.75"/><path d="M52.8 212.9V298h43.1c2.4 13.4.4 28.9 1.1 43.1h85.1V298h44.1v-85.1c-14.5-.7-30.4 1.4-44.1-1.1v-43.1H97v44.1c-14.8.1-29.5.1-44.2.1m114.5 13.7c14.5.7 30.4-1.4 44.1 1.1v54.6c-13.7 2.4-29.6.4-44.1 1.1v43.1c-17.6 2.4-37.3.4-55.7 1.1-2.4-13.7-.4-29.6-1.1-44.1H67.4c-1.7-17.4-1.8-38.3 0-55.7 13.4-2.4 28.9-.4 43.1-1.1.7-14.2-1.4-29.7 1.1-43.1h54.6c2.4 13.3.4 28.8 1.1 43z" style="fill:none;stroke:#093553;stroke-width:.3"/><path d="M343.7 176.2c2.8-1.8 5.4-4.6 7.4-7.4-2.8 1.9-5.4 4.6-7.4 7.4z" style="fill:none;stroke:#0185af;stroke-width:.3;stroke-opacity:.78"/><path d="M416.2 179.3c-2.4-4-5.5-7.8-9.5-10.5 3.1 3.5 6 7.6 9.5 10.5z" style="fill:none;stroke:#0283ad;stroke-width:.3;stroke-opacity:.82"/><path d="M373.1 175.1h10.5c-2.3-1.8-8.1-1.6-10.5 0z" style="fill:none;stroke:#083453;stroke-width:.3;stroke-opacity:.56"/><path d="M362.6 179.3c-2.8 2.9-5.4 5.7-8.4 8.4 0 0 .2.6 0 1.1-1.1 2.1-2.1 4.2-3.2 6.3.2 2-1.7 3.2-1.1 5.3v7.4c.4 5.1 2.8 9.4 5.3 13.7 1.6 1.6 2.9 4.3 5.3 5.3 3.8 2.9 8.2 4.6 12.6 6.3h11.6c1.4-.6 2.6-1.5 4.2-1.1 1.2-1.6 3.5-2.1 5.3-3.2.9.1 1.3-.9 2.1-1.1 1-1.6 2.4-3.4 4.2-4.2.4-.9 1-2 2.1-2.1 2.4-4.4 4.5-8.8 5.3-13.7-.3-3.5.9-7.4-1.1-10.5.1-4-2.8-7-4.2-10.5-2.8-2-5.5-4.6-7.4-7.4-3.9-1.2-7.7-2.8-11.6-4.2h-10.5c-3.1 1.4-7 3.1-10.5 4.2z" class="st46"/><path d="M354.2 187.7c3-2.7 5.6-5.5 8.4-8.4-3.7 1.5-6.9 4.7-8.4 8.4z" style="fill:none;stroke:#023356;stroke-width:.3;stroke-opacity:.34"/><path d="M402.5 186.7s.2-.6 0-1.1c-2-1.3-4.1-3.2-5.3-5.3-.9.1-1.3-.9-2.1-1.1 1.9 2.9 4.7 5.5 7.4 7.5z" style="fill:none;stroke:#073352;stroke-width:.3;stroke-opacity:.15"/><path d="M402.5 185.6c-1.1-2.1-3.2-3.9-5.3-5.3 1.2 2.2 3.3 4 5.3 5.3z" style="fill:none;stroke:#093553;stroke-width:.3;stroke-opacity:.8"/><path d="M110.5 226.6v1.1c2.4-13.7.4-29.6 1.1-44.1-2.5 13.3-.4 28.8-1.1 43z" style="fill:none;stroke:#093553;stroke-width:.3;stroke-opacity:.69"/><path d="M110.5 227.6H67.4v54.6c14.5.7 30.4-1.4 44.1 1.1v43.1h54.6c.7-14.5-1.4-30.4 1.1-44.1h43.1v-54.6h-43.1c-2.4-13.7-.4-29.6-1.1-44.1h-54.6c-.6 14.5 1.5 30.3-1 44z" class="st46"/><path d="M167.3 227.6v-1.1c-.7-14.2 1.4-29.7-1.1-43.1.7 14.7-1.4 30.5 1.1 44.2z" style="fill:none;stroke:#073551;stroke-width:.3;stroke-opacity:.15"/><path d="M351 195.1c1.1-2.1 2-4.2 3.2-6.3-2 .9-4.3 4.9-3.2 6.3z" style="fill:none;stroke:#00335d;stroke-width:.3;stroke-opacity:.22"/><path d="M334.2 199.3c1.8-.5.8-2.9 1.1-4.2-1.9.5-.8 2.8-1.1 4.2z" style="fill:none;stroke:#056a90;stroke-width:.3;stroke-opacity:.78"/><path d="M407.8 207.7c1.6-2.3 2.3-8.8-1.1-10.5 1.9 3.1.7 7 1.1 10.5z" style="fill:none;stroke:#073251;stroke-width:.3;stroke-opacity:.44"/><path d="M425.6 210.8c-5.1-1.2.2-9.7-3.2-12.6v13.7c1.1-.2 2.9.4 3.2-1.1z" style="fill:none;stroke:#065275;stroke-width:.3;stroke-opacity:.83"/><path d="M350 207.7v-7.4c-1.8 1.4-1.5 6 0 7.4z" style="fill:none;stroke:#083452;stroke-width:.3;stroke-opacity:.18"/><path d="M439.3 211.9c-.5-1.8-2.9-.8-4.2-1.1.5 1.9 2.8.8 4.2 1.1z" style="fill:none;stroke:#046e95;stroke-width:.3;stroke-opacity:.78"/><path d="M226.1 212.9c-13.3-2.4-28.9-.3-43.1-1.1 0 0-1.1.1-1.1 0 13.7 2.5 29.6.4 44.2 1.1z" style="fill:none;stroke:#0183ad;stroke-width:.3;stroke-opacity:.75"/><path d="M52.8 298v-85.1h-1.1c.7 28.2-1.4 57.7 1.1 85.1z" style="fill:none;stroke:#05648a;stroke-width:.3;stroke-opacity:.77"/><path d="M226.1 298c1.8-27.2 1.7-57.8 0-85.1z" style="fill:none;stroke:#0096c1;stroke-width:.3;stroke-opacity:.89"/><path d="M291.2 228.7c3.1-2.2 6.1-5.3 8.4-8.4-3.1 2.2-6.1 5.3-8.4 8.4z" style="fill:none;stroke:#046990;stroke-width:.3;stroke-opacity:.78"/><path d="M465.5 227.6c-1.8-2.8-4.6-5.4-7.4-7.4 1.9 2.9 4.7 5.5 7.4 7.4z" style="fill:none;stroke:#0281ab;stroke-width:.3;stroke-opacity:.77"/><path d="M360.5 226.6c-2.4-.9-3.7-3.7-5.3-5.3-1.4 1.2 4.1 6.6 5.3 5.3z" style="fill:none;stroke:#063353;stroke-width:.3;stroke-opacity:.47"/><path d="M400.4 223.4c-.6 1.7-2.7 2.4-3.2 4.2 2.1-1.4 5.1-3.5 5.3-6.3-1.1.2-1.7 1.3-2.1 2.1z" style="fill:none;stroke:#083654;stroke-width:.3;stroke-opacity:.52"/><path d="M396.2 227.6s.6.2 1.1 0c.5-1.8 2.6-2.5 3.2-4.2-1.9.8-3.3 2.6-4.3 4.2z" style="fill:none;stroke:#014858;stroke-width:.3;stroke-opacity:4.000000e-02"/><path d="M323.7 226.6h9.5c-2-1.8-7.4-1.6-9.5 0z" style="fill:none;stroke:#093453;stroke-width:.3;stroke-opacity:.21"/><path d="M426.7 226.6h7.4c-1.4-1.8-6-1.5-7.4 0z" style="fill:none;stroke:#093653;stroke-width:.3;stroke-opacity:.14"/><path d="M67.5 227.6h43.1v-1.1c-14.2.8-29.7-1.3-43.1 1.1z" style="fill:none;stroke:#083553;stroke-width:.3;stroke-opacity:.82"/><path d="M167.3 227.6h44.2c-13.7-2.4-29.6-.3-44.1-1.1-.1.1-.2 1.1-.1 1.1z" style="fill:none;stroke:#083453;stroke-width:.3;stroke-opacity:.83"/><path d="M309 231.9c-1.3 2-3.2 4.1-5.3 5.3-2 4.7-4.9 9.4-5.3 14.7v7.4c-.2 3.9 2.5 6.9 3.2 10.5 2.2 3.3 6.2 6 8.4 9.5 4.3 2.2 8.9 4 13.7 5.3h7.4c1.6-1 3.3-1.3 5.3-1.1 1.2-1.3 3.5-1.7 5.3-2.1.2-.3.7-.9 1.1-1.1 2.9-1.9 5.3-5.5 8.4-7.4 2-4.5 5.1-8.6 5.3-13.7v-10.5c-2.1-1.7-1.5-5.2-3.2-7.4-2.6-3.8-5.9-7.6-9.5-10.5-3.3-2.1-7.1-2.5-10.5-4.2h-9.5c-5.6 0-10 3.2-14.8 5.3zm103 0c-1.3 2-3.2 4.1-5.3 5.3-1.4 3.9-4.2 7.4-5.3 11.6v5.3c-1.4 5.8 1.9 12.4 4.2 17.9 2.8 2 5.5 4.6 7.4 7.4 4.3 2.7 9 3.7 13.7 5.3h7.4c2.7-1.4 5.9-1.2 8.4-3.2 1.4-.8 2.8-1.4 4.2-2.1 0 0 .6.2 1.1 0 1.5-2.9 4.9-4.5 6.3-7.4 3-3.6 4.1-8.2 5.3-12.6-.3-3.5.9-7.4-1.1-10.5-.2-4.4-3-8-5.3-11.6-1.3-2.8-5.1-3.3-6.3-6.3-4.1-1.4-8-4.1-12.6-4.2h-7.4c-5.7-.7-9.9 3.3-14.7 5.1z" class="st46"/><path d="M67.5 283.3v-55.7c-1.8 17.4-1.8 38.3 0 55.7z" style="fill:none;stroke:#093553;stroke-width:.3;stroke-opacity:.64"/><path d="M210.3 282.3h1.1v-54.6h-1.1z" style="fill:none;stroke:#0c3a51;stroke-width:.3;stroke-opacity:9.000000e-02"/><path d="M388.9 231.9c2-.2 4.4-1.1 5.3-3.2-1.8 1-4.1 1.6-5.3 3.2z" style="fill:none;stroke:#073750;stroke-width:.3;stroke-opacity:.25"/><path d="M353.1 241.3c-.9-4.5-5.2-9-9.5-10.5 3.6 2.9 7 6.7 9.5 10.5z" style="fill:none;stroke:#003359;stroke-width:.3;stroke-opacity:.33"/><path d="M452.9 237.1c1.3-2.2-4.1-5.3-6.3-6.3 1.3 3 5.1 3.5 6.3 6.3z" style="fill:none;stroke:#003459;stroke-width:.3;stroke-opacity:.36"/><path d="M303.8 237.1c2.1-1.1 3.9-3.2 5.3-5.3-2.2 1.2-4 3.3-5.3 5.3z" style="fill:none;stroke:#093553;stroke-width:.3;stroke-opacity:.38"/><path d="M406.7 237.1c2.1-1.1 3.9-3.2 5.3-5.3-2.1 1.2-4 3.3-5.3 5.3z" style="fill:none;stroke:#083454;stroke-width:.3;stroke-opacity:.24"/><path d="M384.7 232.9h-11.6c2.7 1.8 8.8 1.6 11.6 0z" style="fill:none;stroke:#083553;stroke-width:.3;stroke-opacity:.43"/><path d="M282.8 249.7c1.8-.5.8-2.9 1.1-4.2-1.9.5-.8 2.9-1.1 4.2z" style="fill:none;stroke:#037aa2;stroke-width:.3;stroke-opacity:.78"/><path d="M356.3 259.2c1.8-2.3 1.6-8.1 0-10.5z" style="fill:none;stroke:#093452;stroke-width:.3;stroke-opacity:.39"/><path d="M401.5 253.9v-5.3c-1.8.8-1.5 4.5 0 5.3z" style="fill:none;stroke:#0a3353;stroke-width:.3;stroke-opacity:.28"/><path d="M459.2 259.2c1.6-2.3 2.3-8.8-1.1-10.5 2 3 .8 6.9 1.1 10.5z" style="fill:none;stroke:#073453;stroke-width:.3;stroke-opacity:.5"/><path d="M473.9 260.2c1.8-2.3 1.6-8.1 0-10.5z" style="fill:none;stroke:#055d81;stroke-width:.3;stroke-opacity:.79"/><path d="M298.5 259.2v-7.4c-1.8 1.3-1.5 6 0 7.4z" style="fill:none;stroke:#093552;stroke-width:.3;stroke-opacity:.24"/><path d="M303.8 273.9c2 1.3 4.1 3.2 5.3 5.3 0 0 .5-.1 1.1 0-2.2-3.5-6.2-6.1-8.4-9.5-.5 1.9 1.4 2.6 2 4.2z" style="fill:none;stroke:#063453;stroke-width:.3;stroke-opacity:.2"/><path d="M406.7 273.9c2 1.3 4.1 3.2 5.3 5.3 0 0 .6-.2 1.1 0-1.8-2.8-4.6-5.4-7.4-7.4-.1.9.9 1.2 1 2.1z" style="fill:none;stroke:#00385e;stroke-width:.3;stroke-opacity:7.000000e-02"/><path d="M447.7 279.1c2-1.7 7.2-5.1 6.3-7.4-1.4 2.9-4.8 4.5-6.3 7.4z" style="fill:none;stroke:#083453;stroke-width:.3;stroke-opacity:.3"/><path d="M342.6 280.2c3.6-.7 6.1-4.7 8.4-7.4-3 1.9-5.4 5.5-8.4 7.4z" style="fill:none;stroke:#073353;stroke-width:.3;stroke-opacity:.17"/><path d="M309 279.1c-1.1-2.1-3.2-3.9-5.3-5.3 1.2 2.2 3.3 4 5.3 5.3z" style="fill:none;stroke:#093453;stroke-width:.3;stroke-opacity:.81"/><path d="M412 279.1c-1.1-2.1-3.2-3.9-5.3-5.3 1.2 2.2 3.2 4 5.3 5.3z" style="fill:none;stroke:#083553;stroke-width:.3;stroke-opacity:.69"/><path d="M360.5 283.3c-1.3 2-3.2 4.1-5.3 5.3-2.1 4.8-5.5 9.2-5.3 14.7v6.3c-.7 2.7 1.4 4.7 1.1 7.4 2.7 4.2 5.9 8.7 9.5 12.6.7.2 2.1-.1 2.1 1.1 1.6 1.3 4.2 1.3 5.3 3.2 1 .2 2.9-.4 3.2 1.1 1.6.4 4.4-1 5.3 1.1h5.3c.6-1.7 2.9-.8 4.2-1.1.9.1 1.3-.9 2.1-1.1 2 .1 3.5-1.5 5.3-2.1 1.6-.3 2.3-2.7 4.2-2.1 2.2-2.4 3.8-5.5 6.3-7.4 1.4-3.5 2.9-6.9 4.2-10.5v-10.5c-1.4-4.4-3.3-8.5-5.3-12.6-2-1.3-4.1-3.2-5.3-5.3 0 0-.7.2-1.1 0-1.9-1.8-4.8-2.3-6.3-4.2-10.1-3.8-20.7-1.7-29.5 4.1z" class="st46"/><path d="M396.2 283.3c-1.1-2.4-3.8-3.9-6.3-4.2 1.5 1.9 4.4 2.4 6.3 4.2z" style="fill:none;stroke:#073458;stroke-width:.3;stroke-opacity:.23"/><path d="M442.4 281.2c.8 1.7 3.7-.7 4.2-2.1-1.4.7-2.8 1.3-4.2 2.1z" style="fill:none;stroke:#002d5f;stroke-width:.3;stroke-opacity:.21"/><path d="M336.3 283.3c2 .2 4.1-.6 5.3-2.1-1.8.4-4.1.9-5.3 2.1z" style="fill:none;stroke:#0a3653;stroke-width:.3;stroke-opacity:.45"/><path d="M67.5 283.3h44.2c-13.7-2.4-29.6-.3-44.1-1.1-.1.1-.2 1.1-.1 1.1z" style="fill:none;stroke:#0a3652;stroke-width:.3;stroke-opacity:.29"/><path d="M166.2 326.4h1.1v-44.2c-2.5 13.7-.4 29.6-1.1 44.2z" style="fill:none;stroke:#063551;stroke-width:.3;stroke-opacity:.15"/><path d="M167.3 283.3c14.5-.7 30.4 1.4 44.1-1.1h-44.2c.1.1.1.6.1 1.1z" style="fill:none;stroke:#093652;stroke-width:.3;stroke-opacity:.29"/><path d="M457.1 290.7c3.1-2.2 6.1-5.3 8.4-8.4-3.1 2.2-6.1 5.3-8.4 8.4z" style="fill:none;stroke:#065375;stroke-width:.3;stroke-opacity:.83"/><path d="M111.6 327.4v-44.2h-1.1c.7 14.7-1.3 30.5 1.1 44.2z" style="fill:none;stroke:#093553;stroke-width:.3;stroke-opacity:.7"/><path d="M298.5 289.6c-1.5-2.4-3.9-4.7-6.3-6.3 1.5 2.5 3.9 4.7 6.3 6.3z" style="fill:none;stroke:#0091bc;stroke-width:.3;stroke-opacity:.83"/><path d="M355.2 288.6c2.1-1.1 3.9-3.2 5.3-5.3-2.1 1.2-3.9 3.2-5.3 5.3z" style="fill:none;stroke:#083653;stroke-width:.3;stroke-opacity:.13"/><path d="M402.5 288.6c-1.1-2.1-3.2-3.9-5.3-5.3 1.2 2.1 3.3 3.9 5.3 5.3z" style="fill:none;stroke:#083553;stroke-width:.3;stroke-opacity:.29"/><path d="M331.1 284.4h-7.4c1.4 1.8 6 1.5 7.4 0z" style="fill:none;stroke:#083553;stroke-width:.3;stroke-opacity:.64"/><path d="M434 284.4h-7.4c1.4 1.8 6 1.5 7.4 0z" style="fill:none;stroke:#083552;stroke-width:.3;stroke-opacity:.64"/><path d="M96.9 342.1V341c-.7-14.2 1.4-29.7-1.1-43.1.7 14.7-1.3 30.5 1.1 44.2z" style="fill:none;stroke:#04749b;stroke-width:.3;stroke-opacity:.75"/><path d="M334.2 301.2c1.3-4.3-10-1.1-13.7-2.1 3.5 3 10.3-.9 13.7 2.1z" style="fill:none;stroke:#03779f;stroke-width:.3;stroke-opacity:.78"/><path d="M422.5 301.2h1.1c3-3 9.5.8 12.6-2.1-4.2 1-12.1-2.4-13.7 2.1z" style="fill:none;stroke:#037aa2;stroke-width:.3;stroke-opacity:.77"/><path d="M407.8 311.7c1.8-2.3 1.6-8.1 0-10.5z" style="fill:none;stroke:#093453;stroke-width:.3;stroke-opacity:.49"/><path d="M422.5 312.7c2.4-2.8.4-7.9 1.1-11.6h-1.1z" style="fill:none;stroke:#075072;stroke-width:.3;stroke-opacity:.84"/><path d="M350 309.6v-6.3c-1.8 1-1.5 5.2 0 6.3z" style="fill:none;stroke:#083653;stroke-width:.3;stroke-opacity:.16"/><path d="M360.5 329.5c-3.5-3.9-6.8-8.4-9.5-12.6 1 5.3 5.2 9.4 9.5 12.6z" style="fill:none;stroke:#083551;stroke-width:.3;stroke-opacity:.31"/><path d="M397.3 329.5c2.8-1.6 5.1-4.4 6.3-7.4-2.5 1.9-4.1 5-6.3 7.4z" style="fill:none;stroke:#073750;stroke-width:.3;stroke-opacity:.3"/><path d="M111.6 327.4c18.4-.7 38.1 1.4 55.7-1.1h-55.7c0 .1-.1 1.1 0 1.1z" style="fill:none;stroke:#093653;stroke-width:.3;stroke-opacity:.39"/><path d="M367.9 333.7c-1-1.8-3.6-1.9-5.3-3.2.7 2.2 3.3 2.9 5.3 3.2z" style="fill:none;stroke:#0b3354;stroke-width:.3;stroke-opacity:.27"/><path d="M387.8 333.7c1.2 2.1 4.5-.5 5.3-2.1-1.8.6-3.3 2.2-5.3 2.1z" style="fill:none;stroke:#093452;stroke-width:.3;stroke-opacity:.43"/><path d="M406.7 341.1c3.1-2.2 6.1-5.3 8.4-8.4-3.1 2.2-6.1 5.3-8.4 8.4z" style="fill:none;stroke:#04698f;stroke-width:.3;stroke-opacity:.78"/><path d="M351 341.1c-1.8-2.8-4.6-5.4-7.4-7.4 1.9 2.8 4.7 5.4 7.4 7.4z" style="fill:none;stroke:#065073;stroke-width:.3;stroke-opacity:.83"/><path d="M376.3 335.8c-.8-2-3.6-.6-5.3-1.1.8 2.1 3.6.7 5.3 1.1z" style="fill:none;stroke:#073551;stroke-width:.3;stroke-opacity:.36"/><path d="M381.5 335.8c1.3-.3 3.6.6 4.2-1.1-1.3.4-3.6-.6-4.2 1.1z" style="fill:none;stroke:#0a3653;stroke-width:.3;stroke-opacity:.31"/><path d="M96.9 342.1c28.2-.7 57.7 1.4 85.1-1.1H96.9c0 .1-.1 1.1 0 1.1z" style="fill:none;stroke:#065477;stroke-width:.3;stroke-opacity:.84"/><path d="M384.7 350.5c1.3-.3 3.6.6 4.2-1.1-1.4.4-3.7-.6-4.2 1.1z" style="fill:none;stroke:#056b91;stroke-width:.3;stroke-opacity:.79"/><path d="M26.5 378.9c-2.3-2.8-4.9-5.9-7.4-8.4 1.4 3.4 4.4 6.2 7.4 8.4z" style="fill:none;stroke:#046f95;stroke-width:.3;stroke-opacity:.78"/><path d="M485.5 378.9c2.1-1.1 3.9-3.2 5.3-5.3-2.2 1.2-4 3.3-5.3 5.3z" style="fill:none;stroke:#065578;stroke-width:.3;stroke-opacity:.8"/><path d="M493.9 391.5c4.2-3.6 9.1-7.5 11.6-12.6-3.6 4.1-8.1 8.2-11.6 12.6z" style="fill:none;stroke:#053357;stroke-width:.3;stroke-opacity:.28"/><path d="M19.2 392.5c-3.3-4.2-7.4-8.2-11.6-11.6 3.3 4.7 6.9 8.3 11.6 11.6z" style="fill:none;stroke:#073752;stroke-width:.3;stroke-opacity:.31"/><path d="M472.9 383.1H39.1c143.4 1.7 290.3 1.7 433.8 0z" style="fill:none;stroke:#0189b3;stroke-width:.3;stroke-opacity:.78"/><path d="M36 398.8h4.2c.2-.1 0-1.1 0-1.1-1.3.4-3.7-.5-4.2 1.1z" style="fill:none;stroke:#083453;stroke-width:.3;stroke-opacity:.63"/><path d="M40.2 398.8h64.1c-20.3-2.4-42.9-.3-64.1-1.1 0 .1.2 1 0 1.1z" style="fill:none;stroke:#093552;stroke-width:.3;stroke-opacity:.87"/><path d="M125.2 398.8c.1.2 1.1 0 1.1 0h255.2c-.9 2.1-3.4 3.1-4.2 5.3 2.1-1.4 5.1-3.5 5.3-6.3-85.7.7-172.5-1.4-257.4 1z" style="fill:none;stroke:#093756;stroke-width:.3;stroke-opacity:.89"/><path d="M403.6 398.8h68.3c-21.6-1.7-46.7-1.7-68.3 0z" style="fill:none;stroke:#093553;stroke-width:.3;stroke-opacity:.87"/><path d="M105.3 400.9c3.1 2.3 6.2 5.3 8.4 8.4.1 1 1.3 1.2 2.1 1.1-3.3-4.2-7.4-8.2-11.6-11.6.2.7-.1 2.1 1.1 2.1z" style="fill:none;stroke:#073851;stroke-width:.3;stroke-opacity:.6"/><path d="M131.5 405.1c-.3-1.3-1.9-1.8-2.1-3.2-1.3-.7-2.7-1.7-3.2-3.2 0 0-1 .2-1.1 0 1.6 2.6 4.1 4.8 6.4 6.4z" style="fill:none;stroke:#084464;stroke-width:.3;stroke-opacity:.63"/><path d="M129.4 402c1.6 1 3.4 2.4 4.2 4.2 1.6 1 3.4 2.4 4.2 4.2 26.4 19 56.8 33.4 89.3 37.8 1.6.4 4.4-1 5.3 1.1h44.3c.6-1.7 2.9-.8 4.2-1.1 35.7-5.1 68.7-21.1 96.6-44.1.8-2.1 3.4-3.1 4.2-5.3H126.5c.2 1.5 1.7 2.5 2.9 3.2z" class="st12"/><path d="M393.1 409.3c4.6-2.3 7.1-6.7 10.5-10.5-3.9 2.9-7.5 6.7-10.5 10.5z" style="fill:none;stroke:#033355;stroke-width:.3;stroke-opacity:.46"/><path d="M113.7 409.3c-2.2-3.1-5.3-6.1-8.4-8.4 2.2 3.2 5.3 6.1 8.4 8.4z" style="fill:none;stroke:#013056;stroke-width:.3;stroke-opacity:4.000000e-02"/><path d="M131.5 405.1c.9-.1 1.3.9 2.1 1.1-.8-1.8-2.6-3.2-4.2-4.2.2 1.3 1.8 1.8 2.1 3.1z" style="fill:none;stroke:#01a4d7;stroke-width:.3;stroke-opacity:.67"/><path d="M137.8 410.4c-.8-1.8-2.6-3.2-4.2-4.2.8 1.8 2.6 3.2 4.2 4.2z" style="fill:none;stroke:#084263;stroke-width:.3;stroke-opacity:.67"/><path d="M384.7 417.7c3.1-2.2 6.1-5.3 8.4-8.4-3.2 2.2-6.1 5.3-8.4 8.4z" style="fill:none;stroke:#013057;stroke-width:.3;stroke-opacity:.22"/><path d="M125.2 418.8c-.7-1.5-2.3-3.4-4.2-3.2.7 1.6 2.4 3.4 4.2 3.2z" style="fill:none;stroke:#053954;stroke-width:.3;stroke-opacity:.37"/><path d="M134.7 426.1c-.9-1.5-2.9-1.9-4.2-3.2.7 1.6 2.3 3.5 4.2 3.2z" style="fill:none;stroke:#063653;stroke-width:.3;stroke-opacity:.28"/><path d="M232.4 449.3c-.8-2-3.6-.6-5.3-1.1.8 2 3.6.6 5.3 1.1z" style="fill:none;stroke:#085275;stroke-width:.3;stroke-opacity:.76"/><path d="M276.5 449.3c1.3-.3 3.6.6 4.2-1.1-1.3.3-3.7-.6-4.2 1.1z" style="fill:none;stroke:#084c6e;stroke-width:.3;stroke-opacity:.8"/><path d="M243.9 450.3v-1.1h-8.4c1.8 2.4 5.8.5 8.4 1.1z" style="fill:none;stroke:#085276;stroke-width:.3;stroke-opacity:.76"/><path d="M243.9 450.3h20v-1.1h-20z" style="fill:none;stroke:#019dcf;stroke-width:.3;stroke-opacity:.85"/><path d="M263.9 450.3c2.3-.5 5.8 1 7.4-1.1h-7.4z" style="fill:none;stroke:#085277;stroke-width:.3;stroke-opacity:.79"/><path d="M212.4 461.9h4.2c-.4-1.7-3.7-1.5-4.2 0z" style="fill:none;stroke:#0a3553;stroke-width:.3;stroke-opacity:.43"/><path d="M228.2 464c-.5-1.8-2.9-.8-4.2-1.1.5 1.9 2.8.8 4.2 1.1z" style="fill:none;stroke:#0a3755;stroke-width:.3;stroke-opacity:.27"/><path d="M277.5 464c2-.4 5.1.9 6.3-1.1-1.9.4-5.1-.9-6.3 1.1z" style="fill:none;stroke:#083452;stroke-width:.3;stroke-opacity:.47"/><path d="M238.7 465c-1.4-2.2-5.1-.5-7.4-1.1 1.5 2.3 5.1.6 7.4 1.1z" style="fill:none;stroke:#093453;stroke-width:.3;stroke-opacity:.31"/><path d="M266 465h4.2c.2-.1 0-1.1 0-1.1-1.3.3-3.7-.6-4.2 1.1z" style="fill:none;stroke:#093553;stroke-width:.3;stroke-opacity:.66"/><path d="M270.2 465c2-.4 5.1.9 6.3-1.1h-6.3c0 .1.2 1 0 1.1z" style="fill:none;stroke:#073553;stroke-width:.3;stroke-opacity:.25"/><path d="M260.7 465H247c3.4 1.8 10.3 1.7 13.7 0z" style="fill:none;stroke:#083653;stroke-width:.3;stroke-opacity:.11"/><path d="M245 47h17.9c-4.8-1.8-13.1-1.7-17.9 0" style="fill:#083554;fill-opacity:.13"/><path d="M227.1 48.1c-.6 1.7-2.9.8-4.2 1.1-22.7 2.4-44 10.4-64.1 21-1.5 2.5-4.7 3.6-7.4 4.2-4.7 2.6-9.2 5.3-13.7 8.4-1.6 3.1-4.7 4.5-7.4 6.3 0 0-.6-.2-1.1 0-1 1.6-2.4 3.4-4.2 4.2-.7.2-2.1-.1-2.1 1.1-1 1.6-2.4 3.4-4.2 4.2-1.1.1-1.7 1.2-2.1 2.1-7.4 12.5-19.7 16-33.6 13.7-15.2-.7-31.8 1.4-46.2-1.1-7.5 1.3-15.9 3.5-21 9.5-2.3 3.1-5.3 6.2-8.4 8.4-3.8 5.5-6.6 12-6.3 18.9v212.1c-.3 7 2.5 13.3 6.3 18.9 4.2 3.4 8.3 7.4 11.6 11.6 5.4 2.7 10.8 5.7 16.8 6.3.6-1.7 2.9-.8 4.2-1.1 21.2.7 43.8-1.4 64.1 1.1 4.2 3.4 8.3 7.4 11.6 11.6 1.1 2.1 3.2 3.9 5.3 5.3 1.9-.2 3.5 1.6 4.2 3.2 1.1 1.8 2.9 4.3 5.3 4.2 1.3 1.2 3.3 1.7 4.2 3.2 22.2 18.3 50.2 28.7 77.7 35.7.5-1.4 3.8-1.6 4.2 0 2.2 1.5 4.8 1 7.4 1.1 1.3.3 3.7-.8 4.2 1.1h3.2c2.3.5 5.9-1.2 7.4 1.1h27.4c.6-1.7 2.9-.8 4.2-1.1h6.3s.5-.1 1.1 0c1.2-2 4.3-.6 6.3-1.1 37.3-4.1 71.8-21.3 100.8-45.2 2.3-3.1 5.3-6.2 8.4-8.4 3-3.8 6.7-7.6 10.5-10.5 21.6-1.7 46.7-1.8 68.3 0 8.1.2 15.6-2.8 22.1-7.4 3.5-4.4 8.1-8.5 11.6-12.6 3.5-6.1 6.1-12.6 5.3-20V153.4c.9-9.1-3-17.5-8.4-24.2-3.1-2.3-6.2-5.3-8.4-8.4 0 0-.6.1-1.1 0-1.4-1-3.7-1.1-4.2-3.2-5.2-2.7-10.8-4.4-16.8-4.2-21.6 1.7-46.7 1.8-68.3 0-5.2-4.4-10.4-9.5-14.7-14.7-1.6-1-3.4-2.4-4.2-4.2 0 0-.6.2-1.1 0-1.6-1-3.4-2.4-4.2-4.2 0 0-.6.2-1.1 0-1.3-.3-1.8-1.9-3.2-2.1-2.9-2.9-7.1-4.2-9.5-7.4-10-7.4-21.7-14-33.6-17.9-1.9-.3-4.5-1.1-5.3-3.2-12.5-4.1-24.9-8.1-37.8-10.5-.5 1.4-3.8 1.6-4.2 0-1.8-2.3-5.8-.5-8.4-1.1-2.3-.5-5.9 1.2-7.4-1.1h-27.4c-.6 1.7-2.9.8-4.2 1.1-1.3-.3-3.7.8-4.2-1.1-2.2.2-3.9 1.7-6.3 1.1m45.2 14.7h4.2c1.3.3 3.7-.8 4.2 1.1 35.2 4.8 67.9 21.1 95.6 43.1 2.4 2 5.9 4.1 6.3 7.4-85.6-.7-172.6 1.4-257.3-1.1 1.3-2 3.2-4.1 5.3-5.3 1.3-.3 1.8-1.9 3.2-2.1 27.7-22.9 61-38.3 96.6-42 .6-1.7 2.9-.8 4.2-1.1.5.1 1.1 0 1.1 0 1.5-2.1 5-.6 7.4-1.1h23.1c1.8.5 5-1.1 6.1 1.1m201.6 66.1c10.1.7 19.5 10.2 21 20 1.8 70.3 1.8 144 0 214.3.1 4-2.9 7-4.2 10.5-1.3 2-3.2 4.1-5.3 5.3-4.1 1.8-7.7 5-12.6 4.2-143.5 1.8-290.4 1.8-433.8 0-4.9.9-8.5-2.5-12.6-4.2-3.1-2.2-6-4.9-7.4-8.4-7-21.8-1.3-47.1-3.2-70.4V152.1c.3-1.3-.8-3.7 1.1-4.2-.3-3.2 2.1-5.6 3.2-8.4 1.6-2.4 3.9-4.8 6.3-6.3 4.1-1.8 7.7-5 12.6-4.2 143.9-1.8 291.2-1.8 434.9-.1m-96.6 275.2c-28 23-61 39-96.6 44.1-.6 1.7-2.9.8-4.2 1.1h-5.3c-1.5 2.1-5 .6-7.4 1.1h-20c-2.6-.6-6.6 1.2-8.4-1.1h-3.2c-1.6-.4-4.4 1-5.3-1.1-32.5-4.4-62.8-18.8-89.3-37.8-1.6-1-3.4-2.4-4.2-4.2-.8-.1-1.2-1.1-2.1-1.1-2.4-1.6-4.8-3.9-6.3-6.3 84.8-2.4 171.7-.3 257.3-1.1.1 2.9-2.9 4.9-5 6.4" class="st151"/><path d="M237.6 48.1c-.2-.1 0-1.1 0-1.1h-4.2c.5 1.9 2.9.8 4.2 1.1" style="fill:#093452;fill-opacity:.4"/><path d="M237.6 48.1c1.3-.3 3.6.6 4.2-1.1h-4.2s-.2 1 0 1.1" style="fill:#083552;fill-opacity:.73"/><path d="M276.5 48.1c-1.4-2.2-5.1-.5-7.4-1.1 1.5 2.3 5.1.5 7.4 1.1" style="fill:#0a3453;fill-opacity:.34"/><path d="M222.9 49.1c1.3-.3 3.6.6 4.2-1.1-1.3.4-3.6-.6-4.2 1.1" style="fill:#053152;fill-opacity:.21"/><path d="M289.1 49.1h-4.2c.4 1.7 3.7 1.4 4.2 0" style="fill:#093453;fill-opacity:.6"/><path d="M332.1 62.8c-1-1.8-3.6-1.9-5.3-3.2.8 2.1 3.4 2.9 5.3 3.2" style="fill:#063556;fill-opacity:.31"/><path d="M235.5 62.8h7.4c.1 0 0-1.1 0-1.1-2.3.5-5.9-1-7.4 1.1" style="fill:#084d70;fill-opacity:.77"/><path d="M242.9 62.8H266c-.1 0 0-1.1 0-1.1h-23.1z" style="fill:#0299cb;fill-opacity:.84"/><path d="M266 62.8h6.3c-1.1-2.2-4.3-.6-6.3-1.1 0 0-.1 1 0 1.1" style="fill:#084668;fill-opacity:.81"/><path d="M230.3 63.8c1.3-.3 3.7.8 4.2-1.1-1.3.4-3.7-.6-4.2 1.1" style="fill:#048bba;fill-opacity:.76"/><path d="M230.3 63.8c-35.6 3.7-68.9 19.1-96.6 42-1 1.6-2.4 3.4-4.2 4.2-1.3.7-2.7 1.7-3.2 3.2h255.2c-1.2-2.5-4.2-3.8-5.3-6.3-27.7-22-60.4-38.3-95.6-43.1-1.3-.3-3.7.8-4.2-1.1h-41s-.5.1-1.1 0c-.4 1.9-2.7.8-4 1.1" class="st162"/><path d="M280.7 63.8c-.5-1.8-2.9-.8-4.2-1.1.5 1.9 2.8.8 4.2 1.1" style="fill:#084d6f;fill-opacity:.81"/><path d="M151.5 74.3c2.7-.6 5.9-1.7 7.4-4.2-2.5 1.4-5.5 2.2-7.4 4.2" style="fill:#083455;fill-opacity:.27"/><path d="M375.2 88c-.1-.8-1.1-1.2-1.1-2.1-2.8-1.7-5.3-3.9-8.4-5.3 2.4 3.2 6.6 4.5 9.5 7.4" style="fill:#093553;fill-opacity:.41"/><path d="M130.5 89c2.6-1.8 5.8-3.2 7.4-6.3-2.4 2.2-5.8 3.4-7.4 6.3" style="fill:#003159;fill-opacity:.24"/><path d="M375.2 88c1.4.2 1.8 1.8 3.2 2.1-.8-1.8-2.6-3.2-4.2-4.2-.1.9.9 1.2 1 2.1" style="fill:#002f60;fill-opacity:.18"/><path d="M125.2 93.2c1.8-.8 3.2-2.6 4.2-4.2-1.7.8-3.1 2.6-4.2 4.2" style="fill:#07384d;fill-opacity:.2"/><path d="M383.6 94.3c-.8-1.8-2.6-3.2-4.2-4.2.8 1.7 2.6 3.2 4.2 4.2" style="fill:#063256;fill-opacity:.23"/><path d="M118.9 98.5c1.8-.8 3.2-2.6 4.2-4.2-1.7.8-3.1 2.5-4.2 4.2" style="fill:#063254;fill-opacity:.17"/><path d="M388.9 98.5c-.8-1.8-2.6-3.2-4.2-4.2.7 1.7 2.5 3.2 4.2 4.2" style="fill:#00315e;fill-opacity:9.000000e-02"/><path d="M403.6 113.2c-4.2-5.7-9-10.4-14.7-14.7 4.3 5.2 9.4 10.3 14.7 14.7" style="fill:#023357;fill-opacity:.41"/><path d="M113.7 102.7c-2 2.8-4.6 5.5-7.4 7.4-8.4 6.8-22.7 1.4-33.6 3.2H37c14.4 2.4 31 .3 46.2 1.1 13.9 2.4 26.2-1.2 33.6-13.7-1 .5-2.5.9-3.1 2" style="fill:#083452;fill-opacity:.75"/><path d="M106.3 110c2.8-1.8 5.4-4.6 7.4-7.4-2.8 1.9-5.4 4.7-7.4 7.4" style="fill:#023058;fill-opacity:4.000000e-02"/><path d="M130.5 107.9c-.1.8-1.1 1.2-1.1 2.1 1.8-.8 3.2-2.6 4.2-4.2-1.3.2-1.8 1.8-3.1 2.1" style="fill:#01a5d9;fill-opacity:.66"/><path d="M126.3 113.2h-1.1c84.7 2.4 171.7.3 257.3 1.1-.4-3.3-3.9-5.4-6.3-7.4 1.1 2.5 4.1 3.8 5.3 6.3z" style="fill:#083a5b;fill-opacity:.84"/><path d="M125.2 113.2h1.1c.4-1.4 1.9-2.4 3.2-3.2-.1-.9.9-1.3 1.1-2.1-2.2 1.2-4 3.2-5.4 5.3" style="fill:#084668;fill-opacity:.6"/><path d="M471.8 113.2h-68.3c21.6 1.7 46.7 1.7 68.3 0" style="fill:#093452;fill-opacity:.8"/><path d="M492.8 120.5c-.5-2-2.8-2.1-4.2-3.2.5 2.1 2.8 2.2 4.2 3.2" style="fill:#053153;fill-opacity:.27"/><path d="M502.3 128.9c-2.2-3.1-5.3-6.1-8.4-8.4 2.2 3.2 5.3 6.1 8.4 8.4" style="fill:#083354;fill-opacity:.28"/><path d="M7.6 131c3.1-2.2 6.1-5.3 8.4-8.4-3.6 1.9-5.7 5.2-8.4 8.4" style="fill:#023158;fill-opacity:.36"/><path d="M39.1 128.9h434.8c-143.7-1.7-291-1.7-434.8 0" style="fill:#0381ab;fill-opacity:.76"/><path d="M26.5 133.1c-1.6 2.4-3.9 4.8-6.3 6.3-1.1 2.8-3.5 5.2-3.2 8.4-.3 1.3.8 3.7-1.1 4.2v148.1c1.8 23.2-3.8 48.5 3.2 70.4 2.5 2.5 5.1 5.6 7.4 8.4 4.1 1.7 7.7 5.1 12.6 4.2h433.8c4.9.8 8.5-2.4 12.6-4.2 1.3-2 3.2-4.1 5.3-5.3 1.3-3.5 4.3-6.5 4.2-10.5V148.8c-1.5-9.8-10.9-19.3-21-20H39.2c-5-.7-8.6 2.6-12.7 4.3m360.3 27.3c7.3.9 13.8 4.9 20 8.4 3.9 2.7 7.1 6.5 9.5 10.5 2.8 5.9 6.3 11.9 6.3 18.9 3.4 2.9-1.9 11.4 3.2 12.6h9.5c1.3.3 3.7-.8 4.2 1.1 6.8 1.4 13 4.8 18.9 8.4 2.8 2 5.5 4.6 7.4 7.4 3.8 6.7 8.3 13.8 8.4 22.1 1.6 2.4 1.8 8.2 0 10.5-.3 8.1-3.9 15.5-8.4 22.1-2.3 3.1-5.3 6.2-8.4 8.4-6.5 4.2-13.3 7.5-21 8.4-3.1 2.9-9.6-.9-12.6 2.1-.7 3.7 1.3 8.7-1.1 11.6-.2 7.3-4.3 13.5-7.4 20-2.3 3.1-5.3 6.2-8.4 8.4-5.4 4.1-11.3 7-17.9 8.4-.6 1.7-2.9.8-4.2 1.1-12.3 1-24.1-2-33.6-9.5-2.8-2-5.5-4.6-7.4-7.4-7.3-9.2-10.2-20.6-9.5-32.6-3.4-3-10.3.9-13.7-2.1-8.1-1.1-15.2-5.2-22.1-9.5-2.4-1.6-4.8-3.9-6.3-6.3-6.3-9.8-10.8-21.2-9.5-33.6.3-1.3-.8-3.7 1.1-4.2 1.5-6 3.9-11.6 7.4-16.8 2.3-3.1 5.3-6.2 8.4-8.4 10-7.3 22-10.4 34.7-9.5v-11.6c.3-1.3-.8-3.7 1.1-4.2 1.6-6.7 4.5-13.2 8.4-18.9 2-2.8 4.6-5.5 7.4-7.4 6.9-3.5 13.7-8.5 22.1-8.4 3.2-1.6 10.1-1.8 13.5 0M183 211.9c14.2.7 29.7-1.4 43.1 1.1 1.7 27.2 1.8 57.9 0 85.1H182v43.1c-27.4 2.4-56.9.3-85.1 1.1-2.4-13.7-.4-29.6-1.1-44.1H52.7c-2.4-27.4-.3-56.9-1.1-85.1 13.7-2.4 29.6-.4 44.1-1.1v-43.1c27.7-1.9 58.2-1.4 86.4-.2 2 13.8.4 28.8.9 43.2" style="fill:#0096c3"/><path d="M20.2 139.4c2.4-1.5 4.7-3.9 6.3-6.3-2.4 1.5-4.6 3.9-6.3 6.3" style="fill:#056388;fill-opacity:.78"/><path d="M16 152c1.8-.5.8-2.9 1.1-4.2-1.9.6-.8 2.9-1.1 4.2" style="fill:#0280a9;fill-opacity:.8"/><path d="M494.9 363.1c1.8-70.2 1.8-144 0-214.3z" style="fill:#0091bd;fill-opacity:.84"/><path d="M1.3 362.1V150c-1.7 69.5-1.7 142.5 0 212.1" style="fill:#073351;fill-opacity:.27"/><path d="M510.7 358.9c1.8-67.4 1.8-138.3 0-205.8z" style="fill:#0c3358;fill-opacity:8.000000e-02"/><path d="M373.1 160.4h13.7c-3.4-1.8-10.3-1.6-13.7 0" style="fill:#04668c;fill-opacity:.78"/><path d="M351 168.8c-2 2.8-4.6 5.5-7.4 7.4-3.9 5.7-6.8 12.2-8.4 18.9-.3 1.3.8 3.7-1.1 4.2v11.6c-12.7-1-24.7 2.2-34.7 9.5-2.3 3.1-5.3 6.2-8.4 8.4-3.4 5.2-5.9 10.8-7.4 16.8-.3 1.3.8 3.7-1.1 4.2-1.3 12.4 3.2 23.8 9.5 33.6 2.4 1.6 4.8 3.9 6.3 6.3 6.9 4.3 13.9 8.4 22.1 9.5 3.7 1 15-2.2 13.7 2.1-.7 11.9 2.2 23.3 9.5 32.6 2.8 2 5.5 4.6 7.4 7.4 9.5 7.4 21.3 10.5 33.6 9.5.6-1.7 2.9-.8 4.2-1.1 6.6-1.4 12.5-4.3 17.9-8.4 2.3-3.1 5.3-6.2 8.4-8.4 3.1-6.4 7.1-12.6 7.4-20v-11.6c1.6-4.4 9.5-1 13.7-2.1 7.7-.9 14.5-4.2 21-8.4 2.3-3.1 5.3-6.2 8.4-8.4 4.5-6.5 8.1-13.9 8.4-22.1v-10.5c-.1-8.3-4.6-15.3-8.4-22.1-2.8-2-5.5-4.6-7.4-7.4-5.9-3.6-12.1-7-18.9-8.4-1.3-.3-3.7.8-4.2-1.1h-9.5c-.3 1.5-2.2.8-3.2 1.1v-13.7c0-7-3.5-13-6.3-18.9-3.5-3-6.3-7-9.5-10.5-6.2-3.5-12.6-7.5-20-8.4h-13.7c-8.2-.1-14.9 4.9-21.9 8.4m32.6 6.3c3.9 1.4 7.6 3 11.6 4.2.8.1 1.2 1.1 2.1 1.1 2 1.3 4.1 3.2 5.3 5.3.2.4 0 1.1 0 1.1 1.4 3.5 4.3 6.5 4.2 10.5 3.3 1.7 2.7 8.2 1.1 10.5-.7 4.9-2.9 9.3-5.3 13.7-.2 2.8-3.2 4.9-5.3 6.3-.4.2-1.1 0-1.1 0-.8.1-1.2 1.1-2.1 1.1-.9 2-3.2 2.9-5.3 3.2-1.6-.4-2.8.5-4.2 1.1-2.7 1.6-8.9 1.8-11.6 0-4.4-1.7-8.8-3.4-12.6-6.3-1.2 1.3-6.7-4.1-5.3-5.3-2.5-4.3-4.9-8.6-5.3-13.7-1.5-1.4-1.8-6 0-7.4-.7-2 1.3-3.3 1.1-5.3-1.2-1.4 1.2-5.4 3.2-6.3.2-.5 0-1.1 0-1.1 1.5-3.7 4.7-7 8.4-8.4 3.5-1.1 7.4-2.9 10.5-4.2 2.5-1.7 8.3-1.9 10.6-.1m-50.4 51.5c3.4 1.7 7.2 2.1 10.5 4.2 4.2 1.5 8.6 6 9.5 10.5 1.6 2.2 1.1 5.7 3.2 7.4 1.6 2.4 1.8 8.2 0 10.5-.2 5-3.2 9.2-5.3 13.7-2.3 2.7-4.8 6.7-8.4 7.4-.4.1-.8.7-1.1 1.1-1.1 1.5-3.3 2.3-5.3 2.1-1.9-.2-3.6.1-5.3 1.1-1.4 1.5-6 1.8-7.4 0-4.8-1.2-9.3-3.1-13.7-5.3-.5-.1-1.1 0-1.1 0-2-1.3-4.1-3.2-5.3-5.3-.6-1.5-2.5-2.3-2.1-4.2-.6-3.6-3.3-6.6-3.2-10.5-1.5-1.4-1.8-6 0-7.4.3-5.3 3.3-10 5.3-14.7 1.3-2 3.2-4.1 5.3-5.3 4.7-2 9.2-5.2 14.7-5.3 2.3-1.6 7.7-1.8 9.7 0m100.8 0c4.6.1 8.5 2.8 12.6 4.2 2.2 1 7.6 4.1 6.3 6.3 2.2 3.6 5.1 7.2 5.3 11.6 3.3 1.7 2.7 8.2 1.1 10.5-1.2 4.4-2.3 9-5.3 12.6.9 2.2-4.3 5.6-6.3 7.4-.4.2-1.1 0-1.1 0-.5 1.4-3.4 3.8-4.2 2.1-2.5 2-5.7 1.7-8.4 3.2-1.4 1.5-6 1.8-7.4 0-4.6-1.6-9.4-2.6-13.7-5.3-.5-.2-1.1 0-1.1 0-2-1.3-4.1-3.2-5.3-5.3-.1-.8-1.1-1.2-1.1-2.1-2.3-5.4-5.6-12-4.2-17.9-1.5-.8-1.7-4.5 0-5.3 1.1-4.2 3.9-7.6 5.3-11.6 1.3-2 3.2-4.1 5.3-5.3 4.8-1.7 9.1-5.8 14.7-5.3 1.6-1.3 6.2-1.6 7.5.2m-44.1 52.5c2.5.3 5.3 1.8 6.3 4.2.4.2 1.1 0 1.1 0 2 1.3 4.1 3.2 5.3 5.3 1.9 4.1 3.8 8.2 5.3 12.6 1.6 2.4 1.8 8.2 0 10.5-1.3 3.6-2.8 7-4.2 10.5-1.2 3-3.5 5.7-6.3 7.4-1.9-.6-2.6 1.8-4.2 2.1-.7 1.6-4.1 4.2-5.3 2.1-.8.1-1.2 1.1-2.1 1.1-.6 1.7-2.9.8-4.2 1.1h-5.3c-1.6-.4-4.4 1-5.3-1.1-.3-1.5-2.2-.8-3.2-1.1-1.9-.3-4.5-1.1-5.3-3.2 0-1.2-1.4-.9-2.1-1.1-4.3-3.2-8.5-7.3-9.5-12.6.3-2.6-1.7-4.6-1.1-7.4-1.5-1.1-1.8-5.3 0-6.3-.3-5.5 3.1-9.9 5.3-14.7 1.3-2 3.2-4.1 5.3-5.3 8.9-5.7 19.5-7.8 29.5-4.1" class="st151"/><path d="M95.8 168.8H182v43.1c0 .1 1.1 0 1.1 0-.5-14.3 1.1-29.4-.8-43.3-28.2-1.2-58.7-1.7-86.5.2" style="fill:#0094c0;fill-opacity:.86"/><path d="M51.7 212.9h45.2v-44.1h-1.1v43.1c-14.5.7-30.3-1.4-44.1 1" style="fill:#027ba4;fill-opacity:.75"/><path d="M52.8 212.9V298h43.1c2.4 13.4.4 28.9 1.1 43.1h85.1V298h44.1v-85.1c-14.5-.7-30.4 1.4-44.1-1.1v-43.1H97v44.1c-14.8.1-29.5.1-44.2.1m114.5 13.7c14.5.7 30.4-1.4 44.1 1.1v54.6c-13.7 2.4-29.6.4-44.1 1.1v43.1c-17.6 2.4-37.3.4-55.7 1.1-2.4-13.7-.4-29.6-1.1-44.1H67.4c-1.7-17.4-1.8-38.3 0-55.7 13.4-2.4 28.9-.4 43.1-1.1.7-14.2-1.4-29.7 1.1-43.1h54.6c2.4 13.3.4 28.8 1.1 43" style="fill:#093553"/><path d="M343.7 176.2c2.8-1.8 5.4-4.6 7.4-7.4-2.8 1.9-5.4 4.6-7.4 7.4" style="fill:#0185af;fill-opacity:.78"/><path d="M416.2 179.3c-2.4-4-5.5-7.8-9.5-10.5 3.1 3.5 6 7.6 9.5 10.5" style="fill:#0283ad;fill-opacity:.82"/><path d="M373.1 175.1h10.5c-2.3-1.8-8.1-1.6-10.5 0" style="fill:#083453;fill-opacity:.56"/><path d="M362.6 179.3c-2.8 2.9-5.4 5.7-8.4 8.4 0 0 .2.6 0 1.1-1.1 2.1-2.1 4.2-3.2 6.3.2 2-1.7 3.2-1.1 5.3v7.4c.4 5.1 2.8 9.4 5.3 13.7 1.6 1.6 2.9 4.3 5.3 5.3 3.8 2.9 8.2 4.6 12.6 6.3h11.6c1.4-.6 2.6-1.5 4.2-1.1 1.2-1.6 3.5-2.1 5.3-3.2.9.1 1.3-.9 2.1-1.1 1-1.6 2.4-3.4 4.2-4.2.4-.9 1-2 2.1-2.1 2.4-4.4 4.5-8.8 5.3-13.7-.3-3.5.9-7.4-1.1-10.5.1-4-2.8-7-4.2-10.5-2.8-2-5.5-4.6-7.4-7.4-3.9-1.2-7.7-2.8-11.6-4.2h-10.5c-3.1 1.4-7 3.1-10.5 4.2" class="st196"/><path d="M354.2 187.7c3-2.7 5.6-5.5 8.4-8.4-3.7 1.5-6.9 4.7-8.4 8.4" style="fill:#023356;fill-opacity:.34"/><path d="M402.5 186.7s.2-.6 0-1.1c-2-1.3-4.1-3.2-5.3-5.3-.9.1-1.3-.9-2.1-1.1 1.9 2.9 4.7 5.5 7.4 7.5" style="fill:#073352;fill-opacity:.15"/><path d="M402.5 185.6c-1.1-2.1-3.2-3.9-5.3-5.3 1.2 2.2 3.3 4 5.3 5.3" style="fill:#093553;fill-opacity:.8"/><path d="M110.5 226.6v1.1c2.4-13.7.4-29.6 1.1-44.1-2.5 13.3-.4 28.8-1.1 43" style="fill:#093553;fill-opacity:.69"/><path d="M110.5 227.6H67.4v54.6c14.5.7 30.4-1.4 44.1 1.1v43.1h54.6c.7-14.5-1.4-30.4 1.1-44.1h43.1v-54.6h-43.1c-2.4-13.7-.4-29.6-1.1-44.1h-54.6c-.6 14.5 1.5 30.3-1 44" class="st196"/><path d="M167.3 227.6v-1.1c-.7-14.2 1.4-29.7-1.1-43.1.7 14.7-1.4 30.5 1.1 44.2" style="fill:#073551;fill-opacity:.15"/><path d="M351 195.1c1.1-2.1 2-4.2 3.2-6.3-2 .9-4.3 4.9-3.2 6.3" style="fill:#00335d;fill-opacity:.22"/><path d="M334.2 199.3c1.8-.5.8-2.9 1.1-4.2-1.9.5-.8 2.8-1.1 4.2" style="fill:#056a90;fill-opacity:.78"/><path d="M407.8 207.7c1.6-2.3 2.3-8.8-1.1-10.5 1.9 3.1.7 7 1.1 10.5" style="fill:#073251;fill-opacity:.44"/><path d="M425.6 210.8c-5.1-1.2.2-9.7-3.2-12.6v13.7c1.1-.2 2.9.4 3.2-1.1" style="fill:#065275;fill-opacity:.83"/><path d="M350 207.7v-7.4c-1.8 1.4-1.5 6 0 7.4" style="fill:#083452;fill-opacity:.18"/><path d="M439.3 211.9c-.5-1.8-2.9-.8-4.2-1.1.5 1.9 2.8.8 4.2 1.1" style="fill:#046e95;fill-opacity:.78"/><path d="M226.1 212.9c-13.3-2.4-28.9-.3-43.1-1.1 0 0-1.1.1-1.1 0 13.7 2.5 29.6.4 44.2 1.1" style="fill:#0183ad;fill-opacity:.75"/><path d="M52.8 298v-85.1h-1.1c.7 28.2-1.4 57.7 1.1 85.1" style="fill:#05648a;fill-opacity:.77"/><path d="M226.1 298c1.8-27.2 1.7-57.8 0-85.1z" style="fill:#0096c1;fill-opacity:.89"/><path d="M291.2 228.7c3.1-2.2 6.1-5.3 8.4-8.4-3.1 2.2-6.1 5.3-8.4 8.4" style="fill:#046990;fill-opacity:.78"/><path d="M465.5 227.6c-1.8-2.8-4.6-5.4-7.4-7.4 1.9 2.9 4.7 5.5 7.4 7.4" style="fill:#0281ab;fill-opacity:.77"/><path d="M360.5 226.6c-2.4-.9-3.7-3.7-5.3-5.3-1.4 1.2 4.1 6.6 5.3 5.3" style="fill:#063353;fill-opacity:.47"/><path d="M400.4 223.4c-.6 1.7-2.7 2.4-3.2 4.2 2.1-1.4 5.1-3.5 5.3-6.3-1.1.2-1.7 1.3-2.1 2.1" style="fill:#083654;fill-opacity:.52"/><path d="M396.2 227.6s.6.2 1.1 0c.5-1.8 2.6-2.5 3.2-4.2-1.9.8-3.3 2.6-4.3 4.2" style="fill:#014858;fill-opacity:4.000000e-02"/><path d="M323.7 226.6h9.5c-2-1.8-7.4-1.6-9.5 0" style="fill:#093453;fill-opacity:.21"/><path d="M426.7 226.6h7.4c-1.4-1.8-6-1.5-7.4 0" style="fill:#093653;fill-opacity:.14"/><path d="M67.5 227.6h43.1v-1.1c-14.2.8-29.7-1.3-43.1 1.1" style="fill:#083553;fill-opacity:.82"/><path d="M167.3 227.6h44.2c-13.7-2.4-29.6-.3-44.1-1.1-.1.1-.2 1.1-.1 1.1" style="fill:#083453;fill-opacity:.83"/><path d="M309 231.9c-1.3 2-3.2 4.1-5.3 5.3-2 4.7-4.9 9.4-5.3 14.7v7.4c-.2 3.9 2.5 6.9 3.2 10.5 2.2 3.3 6.2 6 8.4 9.5 4.3 2.2 8.9 4 13.7 5.3h7.4c1.6-1 3.3-1.3 5.3-1.1 1.2-1.3 3.5-1.7 5.3-2.1.2-.3.7-.9 1.1-1.1 2.9-1.9 5.3-5.5 8.4-7.4 2-4.5 5.1-8.6 5.3-13.7v-10.5c-2.1-1.7-1.5-5.2-3.2-7.4-2.6-3.8-5.9-7.6-9.5-10.5-3.3-2.1-7.1-2.5-10.5-4.2h-9.5c-5.6 0-10 3.2-14.8 5.3m103 0c-1.3 2-3.2 4.1-5.3 5.3-1.4 3.9-4.2 7.4-5.3 11.6v5.3c-1.4 5.8 1.9 12.4 4.2 17.9 2.8 2 5.5 4.6 7.4 7.4 4.3 2.7 9 3.7 13.7 5.3h7.4c2.7-1.4 5.9-1.2 8.4-3.2 1.4-.8 2.8-1.4 4.2-2.1 0 0 .6.2 1.1 0 1.5-2.9 4.9-4.5 6.3-7.4 3-3.6 4.1-8.2 5.3-12.6-.3-3.5.9-7.4-1.1-10.5-.2-4.4-3-8-5.3-11.6-1.3-2.8-5.1-3.3-6.3-6.3-4.1-1.4-8-4.1-12.6-4.2h-7.4c-5.7-.7-9.9 3.3-14.7 5.1" class="st196"/><path d="M67.5 283.3v-55.7c-1.8 17.4-1.8 38.3 0 55.7" style="fill:#093553;fill-opacity:.64"/><path d="M210.3 282.3h1.1v-54.6h-1.1z" style="fill:#0c3a51;fill-opacity:9.000000e-02"/><path d="M388.9 231.9c2-.2 4.4-1.1 5.3-3.2-1.8 1-4.1 1.6-5.3 3.2" style="fill:#073750;fill-opacity:.25"/><path d="M353.1 241.3c-.9-4.5-5.2-9-9.5-10.5 3.6 2.9 7 6.7 9.5 10.5" style="fill:#003359;fill-opacity:.33"/><path d="M452.9 237.1c1.3-2.2-4.1-5.3-6.3-6.3 1.3 3 5.1 3.5 6.3 6.3" style="fill:#003459;fill-opacity:.36"/><path d="M303.8 237.1c2.1-1.1 3.9-3.2 5.3-5.3-2.2 1.2-4 3.3-5.3 5.3" style="fill:#093553;fill-opacity:.38"/><path d="M406.7 237.1c2.1-1.1 3.9-3.2 5.3-5.3-2.1 1.2-4 3.3-5.3 5.3" style="fill:#083454;fill-opacity:.24"/><path d="M384.7 232.9h-11.6c2.7 1.8 8.8 1.6 11.6 0" style="fill:#083553;fill-opacity:.43"/><path d="M282.8 249.7c1.8-.5.8-2.9 1.1-4.2-1.9.5-.8 2.9-1.1 4.2" style="fill:#037aa2;fill-opacity:.78"/><path d="M356.3 259.2c1.8-2.3 1.6-8.1 0-10.5z" style="fill:#093452;fill-opacity:.39"/><path d="M401.5 253.9v-5.3c-1.8.8-1.5 4.5 0 5.3" style="fill:#0a3353;fill-opacity:.28"/><path d="M459.2 259.2c1.6-2.3 2.3-8.8-1.1-10.5 2 3 .8 6.9 1.1 10.5" style="fill:#073453;fill-opacity:.5"/><path d="M473.9 260.2c1.8-2.3 1.6-8.1 0-10.5z" style="fill:#055d81;fill-opacity:.79"/><path d="M298.5 259.2v-7.4c-1.8 1.3-1.5 6 0 7.4" style="fill:#093552;fill-opacity:.24"/><path d="M303.8 273.9c2 1.3 4.1 3.2 5.3 5.3 0 0 .5-.1 1.1 0-2.2-3.5-6.2-6.1-8.4-9.5-.5 1.9 1.4 2.6 2 4.2" style="fill:#063453;fill-opacity:.2"/><path d="M406.7 273.9c2 1.3 4.1 3.2 5.3 5.3 0 0 .6-.2 1.1 0-1.8-2.8-4.6-5.4-7.4-7.4-.1.9.9 1.2 1 2.1" style="fill:#00385e;fill-opacity:7.000000e-02"/><path d="M447.7 279.1c2-1.7 7.2-5.1 6.3-7.4-1.4 2.9-4.8 4.5-6.3 7.4" style="fill:#083453;fill-opacity:.3"/><path d="M342.6 280.2c3.6-.7 6.1-4.7 8.4-7.4-3 1.9-5.4 5.5-8.4 7.4" style="fill:#073353;fill-opacity:.17"/><path d="M309 279.1c-1.1-2.1-3.2-3.9-5.3-5.3 1.2 2.2 3.3 4 5.3 5.3" style="fill:#093453;fill-opacity:.81"/><path d="M412 279.1c-1.1-2.1-3.2-3.9-5.3-5.3 1.2 2.2 3.2 4 5.3 5.3" style="fill:#083553;fill-opacity:.69"/><path d="M360.5 283.3c-1.3 2-3.2 4.1-5.3 5.3-2.1 4.8-5.5 9.2-5.3 14.7v6.3c-.7 2.7 1.4 4.7 1.1 7.4 2.7 4.2 5.9 8.7 9.5 12.6.7.2 2.1-.1 2.1 1.1 1.6 1.3 4.2 1.3 5.3 3.2 1 .2 2.9-.4 3.2 1.1 1.6.4 4.4-1 5.3 1.1h5.3c.6-1.7 2.9-.8 4.2-1.1.9.1 1.3-.9 2.1-1.1 2 .1 3.5-1.5 5.3-2.1 1.6-.3 2.3-2.7 4.2-2.1 2.2-2.4 3.8-5.5 6.3-7.4 1.4-3.5 2.9-6.9 4.2-10.5v-10.5c-1.4-4.4-3.3-8.5-5.3-12.6-2-1.3-4.1-3.2-5.3-5.3 0 0-.7.2-1.1 0-1.9-1.8-4.8-2.3-6.3-4.2-10.1-3.8-20.7-1.7-29.5 4.1" class="st196"/><path d="M396.2 283.3c-1.1-2.4-3.8-3.9-6.3-4.2 1.5 1.9 4.4 2.4 6.3 4.2" style="fill:#073458;fill-opacity:.23"/><path d="M442.4 281.2c.8 1.7 3.7-.7 4.2-2.1-1.4.7-2.8 1.3-4.2 2.1" style="fill:#002d5f;fill-opacity:.21"/><path d="M336.3 283.3c2 .2 4.1-.6 5.3-2.1-1.8.4-4.1.9-5.3 2.1" style="fill:#0a3653;fill-opacity:.45"/><path d="M67.5 283.3h44.2c-13.7-2.4-29.6-.3-44.1-1.1-.1.1-.2 1.1-.1 1.1" style="fill:#0a3652;fill-opacity:.29"/><path d="M166.2 326.4h1.1v-44.2c-2.5 13.7-.4 29.6-1.1 44.2" style="fill:#063551;fill-opacity:.15"/><path d="M167.3 283.3c14.5-.7 30.4 1.4 44.1-1.1h-44.2c.1.1.1.6.1 1.1" style="fill:#093652;fill-opacity:.29"/><path d="M457.1 290.7c3.1-2.2 6.1-5.3 8.4-8.4-3.1 2.2-6.1 5.3-8.4 8.4" style="fill:#065375;fill-opacity:.83"/><path d="M111.6 327.4v-44.2h-1.1c.7 14.7-1.3 30.5 1.1 44.2" style="fill:#093553;fill-opacity:.7"/><path d="M298.5 289.6c-1.5-2.4-3.9-4.7-6.3-6.3 1.5 2.5 3.9 4.7 6.3 6.3" style="fill:#0091bc;fill-opacity:.83"/><path d="M355.2 288.6c2.1-1.1 3.9-3.2 5.3-5.3-2.1 1.2-3.9 3.2-5.3 5.3" style="fill:#083653;fill-opacity:.13"/><path d="M402.5 288.6c-1.1-2.1-3.2-3.9-5.3-5.3 1.2 2.1 3.3 3.9 5.3 5.3" style="fill:#083553;fill-opacity:.29"/><path d="M331.1 284.4h-7.4c1.4 1.8 6 1.5 7.4 0" style="fill:#083553;fill-opacity:.64"/><path d="M434 284.4h-7.4c1.4 1.8 6 1.5 7.4 0" style="fill:#083552;fill-opacity:.64"/><path d="M96.9 342.1V341c-.7-14.2 1.4-29.7-1.1-43.1.7 14.7-1.3 30.5 1.1 44.2" style="fill:#04749b;fill-opacity:.75"/><path d="M334.2 301.2c1.3-4.3-10-1.1-13.7-2.1 3.5 3 10.3-.9 13.7 2.1" style="fill:#03779f;fill-opacity:.78"/><path d="M422.5 301.2h1.1c3-3 9.5.8 12.6-2.1-4.2 1-12.1-2.4-13.7 2.1" style="fill:#037aa2;fill-opacity:.77"/><path d="M407.8 311.7c1.8-2.3 1.6-8.1 0-10.5z" style="fill:#093453;fill-opacity:.49"/><path d="M422.5 312.7c2.4-2.8.4-7.9 1.1-11.6h-1.1z" style="fill:#075072;fill-opacity:.84"/><path d="M350 309.6v-6.3c-1.8 1-1.5 5.2 0 6.3" style="fill:#083653;fill-opacity:.16"/><path d="M360.5 329.5c-3.5-3.9-6.8-8.4-9.5-12.6 1 5.3 5.2 9.4 9.5 12.6" style="fill:#083551;fill-opacity:.31"/><path d="M397.3 329.5c2.8-1.6 5.1-4.4 6.3-7.4-2.5 1.9-4.1 5-6.3 7.4" style="fill:#073750;fill-opacity:.3"/><path d="M111.6 327.4c18.4-.7 38.1 1.4 55.7-1.1h-55.7c0 .1-.1 1.1 0 1.1" style="fill:#093653;fill-opacity:.39"/><path d="M367.9 333.7c-1-1.8-3.6-1.9-5.3-3.2.7 2.2 3.3 2.9 5.3 3.2" style="fill:#0b3354;fill-opacity:.27"/><path d="M387.8 333.7c1.2 2.1 4.5-.5 5.3-2.1-1.8.6-3.3 2.2-5.3 2.1" style="fill:#093452;fill-opacity:.43"/><path d="M406.7 341.1c3.1-2.2 6.1-5.3 8.4-8.4-3.1 2.2-6.1 5.3-8.4 8.4" style="fill:#04698f;fill-opacity:.78"/><path d="M351 341.1c-1.8-2.8-4.6-5.4-7.4-7.4 1.9 2.8 4.7 5.4 7.4 7.4" style="fill:#065073;fill-opacity:.83"/><path d="M376.3 335.8c-.8-2-3.6-.6-5.3-1.1.8 2.1 3.6.7 5.3 1.1" style="fill:#073551;fill-opacity:.36"/><path d="M381.5 335.8c1.3-.3 3.6.6 4.2-1.1-1.3.4-3.6-.6-4.2 1.1" style="fill:#0a3653;fill-opacity:.31"/><path d="M96.9 342.1c28.2-.7 57.7 1.4 85.1-1.1H96.9c0 .1-.1 1.1 0 1.1" style="fill:#065477;fill-opacity:.84"/><path d="M384.7 350.5c1.3-.3 3.6.6 4.2-1.1-1.4.4-3.7-.6-4.2 1.1" style="fill:#056b91;fill-opacity:.79"/><path d="M26.5 378.9c-2.3-2.8-4.9-5.9-7.4-8.4 1.4 3.4 4.4 6.2 7.4 8.4" style="fill:#046f95;fill-opacity:.78"/><path d="M485.5 378.9c2.1-1.1 3.9-3.2 5.3-5.3-2.2 1.2-4 3.3-5.3 5.3" style="fill:#065578;fill-opacity:.8"/><path d="M493.9 391.5c4.2-3.6 9.1-7.5 11.6-12.6-3.6 4.1-8.1 8.2-11.6 12.6" style="fill:#053357;fill-opacity:.28"/><path d="M19.2 392.5c-3.3-4.2-7.4-8.2-11.6-11.6 3.3 4.7 6.9 8.3 11.6 11.6" style="fill:#073752;fill-opacity:.31"/><path d="M472.9 383.1H39.1c143.4 1.7 290.3 1.7 433.8 0" style="fill:#0189b3;fill-opacity:.78"/><path d="M36 398.8h4.2c.2-.1 0-1.1 0-1.1-1.3.4-3.7-.5-4.2 1.1" style="fill:#083453;fill-opacity:.63"/><path d="M40.2 398.8h64.1c-20.3-2.4-42.9-.3-64.1-1.1 0 .1.2 1 0 1.1" style="fill:#093552;fill-opacity:.87"/><path d="M125.2 398.8c.1.2 1.1 0 1.1 0h255.2c-.9 2.1-3.4 3.1-4.2 5.3 2.1-1.4 5.1-3.5 5.3-6.3-85.7.7-172.5-1.4-257.4 1" style="fill:#093756;fill-opacity:.89"/><path d="M403.6 398.8h68.3c-21.6-1.7-46.7-1.7-68.3 0" style="fill:#093553;fill-opacity:.87"/><path d="M105.3 400.9c3.1 2.3 6.2 5.3 8.4 8.4.1 1 1.3 1.2 2.1 1.1-3.3-4.2-7.4-8.2-11.6-11.6.2.7-.1 2.1 1.1 2.1" style="fill:#073851;fill-opacity:.6"/><path d="M131.5 405.1c-.3-1.3-1.9-1.8-2.1-3.2-1.3-.7-2.7-1.7-3.2-3.2 0 0-1 .2-1.1 0 1.6 2.6 4.1 4.8 6.4 6.4" style="fill:#084464;fill-opacity:.63"/><path d="M129.4 402c1.6 1 3.4 2.4 4.2 4.2 1.6 1 3.4 2.4 4.2 4.2 26.4 19 56.8 33.4 89.3 37.8 1.6.4 4.4-1 5.3 1.1h44.3c.6-1.7 2.9-.8 4.2-1.1 35.7-5.1 68.7-21.1 96.6-44.1.8-2.1 3.4-3.1 4.2-5.3H126.5c.2 1.5 1.7 2.5 2.9 3.2" class="st162"/><path d="M393.1 409.3c4.6-2.3 7.1-6.7 10.5-10.5-3.9 2.9-7.5 6.7-10.5 10.5" style="fill:#033355;fill-opacity:.46"/><path d="M113.7 409.3c-2.2-3.1-5.3-6.1-8.4-8.4 2.2 3.2 5.3 6.1 8.4 8.4" style="fill:#013056;fill-opacity:4.000000e-02"/><path d="M131.5 405.1c.9-.1 1.3.9 2.1 1.1-.8-1.8-2.6-3.2-4.2-4.2.2 1.3 1.8 1.8 2.1 3.1" style="fill:#01a4d7;fill-opacity:.67"/><path d="M137.8 410.4c-.8-1.8-2.6-3.2-4.2-4.2.8 1.8 2.6 3.2 4.2 4.2" style="fill:#084263;fill-opacity:.67"/><path d="M384.7 417.7c3.1-2.2 6.1-5.3 8.4-8.4-3.2 2.2-6.1 5.3-8.4 8.4" style="fill:#013057;fill-opacity:.22"/><path d="M125.2 418.8c-.7-1.5-2.3-3.4-4.2-3.2.7 1.6 2.4 3.4 4.2 3.2" style="fill:#053954;fill-opacity:.37"/><path d="M134.7 426.1c-.9-1.5-2.9-1.9-4.2-3.2.7 1.6 2.3 3.5 4.2 3.2" style="fill:#063653;fill-opacity:.28"/><path d="M232.4 449.3c-.8-2-3.6-.6-5.3-1.1.8 2 3.6.6 5.3 1.1" style="fill:#085275;fill-opacity:.76"/><path d="M276.5 449.3c1.3-.3 3.6.6 4.2-1.1-1.3.3-3.7-.6-4.2 1.1" style="fill:#084c6e;fill-opacity:.8"/><path d="M243.9 450.3v-1.1h-8.4c1.8 2.4 5.8.5 8.4 1.1" style="fill:#085276;fill-opacity:.76"/><path d="M243.9 450.3h20v-1.1h-20z" style="fill:#019dcf;fill-opacity:.85"/><path d="M263.9 450.3c2.3-.5 5.8 1 7.4-1.1h-7.4z" style="fill:#085277;fill-opacity:.79"/><path d="M212.4 461.9h4.2c-.4-1.7-3.7-1.5-4.2 0" style="fill:#0a3553;fill-opacity:.43"/><path d="M228.2 464c-.5-1.8-2.9-.8-4.2-1.1.5 1.9 2.8.8 4.2 1.1" style="fill:#0a3755;fill-opacity:.27"/><path d="M277.5 464c2-.4 5.1.9 6.3-1.1-1.9.4-5.1-.9-6.3 1.1" style="fill:#083452;fill-opacity:.47"/><path d="M238.7 465c-1.4-2.2-5.1-.5-7.4-1.1 1.5 2.3 5.1.6 7.4 1.1" style="fill:#093453;fill-opacity:.31"/><path d="M266 465h4.2c.2-.1 0-1.1 0-1.1-1.3.3-3.7-.6-4.2 1.1" style="fill:#093553;fill-opacity:.66"/><path d="M270.2 465c2-.4 5.1.9 6.3-1.1h-6.3c0 .1.2 1 0 1.1" style="fill:#073553;fill-opacity:.25"/><path d="M260.7 465H247c3.4 1.8 10.3 1.7 13.7 0" style="fill:#083653;fill-opacity:.11"/></svg>