<svg xmlns="http://www.w3.org/2000/svg" width="628" height="512"><path fill="#0FB880" d="m16.365 2.875 2.648-.008 2.9.007 3.101-.004c3.457-.004 6.914 0 10.37.003l7.476-.005q8.149-.004 16.298 0 12.117.003 24.234-.002 21.639-.007 43.278-.002 18.936.004 37.872.002h2.535l10.186-.001q47.803-.004 95.607.005 42.495.007 84.991 0a359517 359517 0 0 1 105.597-.004h2.53q18.926.002 37.853-.002a74452 74452 0 0 1 43.03.003q12.05.004 24.1 0 8.98-.003 17.96.004 3.645.001 7.291-.002 4.932-.004 9.864.005l2.901-.007 2.648.008h2.28c2.173.13 4.025.415 6.085 1.125l1 2 2.438 1.375C626.32 9.203 626.863 9.851 628 13c.19 2.559.272 5.008.257 7.566l.01 2.331c.01 2.593.005 5.186 0 7.78l.014 5.615c.012 5.155.012 10.311.01 15.467 0 5.555.01 11.111.02 16.667.017 10.889.022 21.777.023 32.666q.001 13.272.012 26.545a83659 83659 0 0 1 .025 75.207v6.148q-.002 31.903.04 63.805.048 35.83.047 71.66c-.001 12.65.005 25.301.026 37.952q.029 16.155.009 32.31c-.007 5.497-.007 10.994.01 16.491q.024 7.545-.004 15.089-.005 2.733.012 5.467a596 596 0 0 1-.013 7.417l.03 2.156c-.072 4.999-1.437 7.788-4.528 11.661-5.527 5.319-11.763 4.538-18.982 4.454l-3.963.002c-3.574.001-7.148-.022-10.722-.05-3.74-.025-7.479-.028-11.219-.033-7.076-.012-14.151-.045-21.227-.085a7891 7891 0 0 0-24.174-.087A17376 17376 0 0 1 484 477l-.928 2.867c-.93 2.72-1.888 4.75-3.447 7.133-.4.619-.8 1.237-1.21 1.875-.468.701-.934 1.402-1.415 2.125l-1.812 2.992c-5.82 8.002-16.69 13.362-26.27 15.465-14.325 2.119-26.124-.989-38.918-7.457v-2l-2.25-.688c-3.293-1.571-4.725-3.312-6.75-6.312v-2h-2c-2.042-2.905-3-4.401-3-8h-2c-5.102-14.214-5.097-28.741 0-43h2l.938-2.875C398 434 398 434 399 432h2l.625-1.625c2.465-4.257 5.473-7.796 10.25-9.25L414 421v-2c12.986-5.779 25.89-8.628 39.766-3.867A173 173 0 0 1 463 419v2l2.063.625c6.827 3.196 13.114 9.318 15.937 16.375v3h2v3h113V37H32v407l110-1 3-7h2l.688-2.688c2.339-5.903 6.941-9.16 12.312-12.312h3l1-3c2.074-.879 2.074-.879 4.688-1.563 2.802-.752 5.514-1.511 8.242-2.511 7.417-2.237 15.86-1.597 23.07 1.074l2.547.812c9.744 3.23 17.368 7.828 23.453 16.188l1.441 1.977c2.966 4.376 4.23 7.744 4.559 13.023h2c3.509 12.475 1.875 26.624-4 38l-1.07 2.242c-1.05 1.984-2.317 3.212-3.93 4.758l-2 3h-2l-.812 1.937C219 499 219 499 216 500l-1.875 1.937c-3.523 3.42-6.26 4.063-11.125 4.063v2c-11.626 2.475-21.34 2.244-33 0v-2l-2.125-.313c-3.266-.78-5.922-2.108-8.875-3.687v-2l-2.125-.563c-3.926-1.963-6.45-4.8-8.875-8.437-.672-2.227-.672-2.227-1-4h-2a752 752 0 0 1-1.5-3.875l-.844-2.18C142 479 142 479 142 477l-2.04.017q-24.588.2-49.177.294c-7.928.03-15.856.073-23.783.142q-10.367.09-20.735.112c-3.658.007-7.315.026-10.973.07-4.09.048-8.177.049-12.267.046l-3.653.066c-6.616-.05-10.75-.765-15.885-5.068-3.63-4.098-3.775-7.942-3.744-13.245l-.01-2.331c-.01-2.593-.005-5.186 0-7.78l-.014-5.615a5696 5696 0 0 1-.01-15.467c0-5.555-.01-11.111-.02-16.667-.017-10.889-.022-21.777-.023-32.666q-.002-13.272-.012-26.545A88094 88094 0 0 1-.372 289.4v-2.035l.002-16.358q0-31.902-.042-63.804-.047-35.83-.046-71.66.004-18.975-.026-37.952-.028-16.155-.009-32.31c.007-5.497.007-10.994-.01-16.491Q-.528 41.245-.5 33.7q.005-2.733-.012-5.467a596 596 0 0 1 .013-7.417l-.03-2.156C-.457 13.688.82 10.796 4 7l3-1 1-2c2.806-.968 5.414-1.125 8.365-1.125M174.75 453.648c-2.195 3.492-3.643 6.284-2.75 10.352 2.545 5.392 5.49 9.407 11 12 5.425.875 8.012.367 12.5-2.813 2.028-1.488 2.028-1.488 3.5-3.187v-3h2c1.26-2.52.919-3.854.563-6.625l-.31-2.477L201 456h-2l-.687-2.313c-1.691-3.461-2.723-4.266-6.313-5.687-7.057-.966-12.668-.394-17.25 5.648M427 452c-2.922 4.384-3.56 7.778-3 13 1.6 4.706 3.961 7.4 8.027 10.094 4.307 1.978 8.547 1.381 12.973-.094v-2l2.313-.5c3.463-1.933 4.07-3.657 5.253-7.34.813-4.047-.08-7.461-1.191-11.348-2.82-3.717-6.34-5.49-10.848-6.203-5.63-.237-9.252.43-13.527 4.391"/><path fill="#0FB87F" d="M220 166v2l2.75.375c2.84.546 4.776 1.198 7.25 2.625v2l2.656.707c8.166 3.158 15.125 11.382 20.344 18.293v3l3 1c1.886 3.213 3 5.246 3 9h2a479 479 0 0 1 1.5 4.25l.844 2.39C264 214 264 214 264 218h2c5.411 23.335 1.662 45.341-10 66-3.813 5.463-8.107 10.474-13 15l-1.977 1.852C235.383 306 235.383 306 232 306v2a418 418 0 0 1-3.812 2l-2.145 1.125C224 312 224 312 221 312v2l-3.027.84q-1.956.548-3.91 1.098l-1.999.552c-3.302.736-3.302.736-6.064 2.51-23.21 4.33-45.559-.35-64.965-13.629L138 303v-2l-2.125-.562c-11.686-5.844-19.468-23.407-23.77-35.067-5.364-16.36-5.911-40.354 1.957-56.121L116 206c.69-1.657 1.37-3.32 2-5h2l.375-2.312C121 196 121 196 123 193h2l.875-1.812C127 189 127 189 129 186h2l.793-1.809c2.738-4.971 8.245-8.64 13.207-11.191h2v-2c23.567-13.166 47.67-13.23 73-5m-59 37-1 3-2.437.938c-3.07 1.272-3.279 2.127-4.563 5.062l-3 2c-1.381 2.164-1.381 2.164-2.562 4.688l-1.254 2.511c-2.663 6.3-3.546 11.92-3.496 18.676l.014 2.416c.114 5.706.7 10.555 3.298 15.709l1.137 2.32c4.107 7.851 9.301 13.973 16.863 18.68h2v2a293 293 0 0 0 12 4l2.648.852c10.897 2.782 22.55-.918 32.102-6.29 5.978-3.835 9.653-7.396 13.25-13.562l2-1a121 121 0 0 0 2.563-7c2.325-6.888 2.325-6.888 3.437-8 .087-1.489.107-2.981.098-4.473l-.01-2.724-.025-2.865-.014-2.877q-.018-3.53-.049-7.061h-2l-.25-3c-.647-4.512-2.523-8.07-4.75-12l-1.562-3c-3.76-4.628-8.503-7.71-13.438-11l-1.992-1.328c-6.667-4.117-13.727-5.045-21.383-4.984l-2.252.014c-9.223.196-17.883 2.702-25.373 8.298m182.672 220.668C345 425 345 425 345 427h3a88 88 0 0 1 3 5l1.434 1.39c7.105 7.301 8.517 18.373 8.816 28.11-.348 10.74-2.972 19.14-8.25 28.5h-2l-.703 1.715c-1.624 2.861-3.598 4.655-6.047 6.848l-2.547 2.316C337.485 504.189 334.414 506 329 506v2c-15.12 3.525-29.383 2.826-43-5-5.119-3.612-9.228-8.004-13-13l-1.309-1.66c-3.86-5.396-4.934-10.996-6.113-17.461-.278-2.764-.278-2.764-1.578-3.879-.472-6.349-.087-11.957 2-18l.59-2.332c1.635-6.297 4.11-11.71 8.41-16.668h2l.625-1.687c1.967-3.309 4.266-5.029 7.375-7.313h3v-2a345 345 0 0 1 3.75-1.5l2.11-.844C296 416 296 416 300 416v-2c15.939-2.834 30.673-.345 43.672 9.668M301 452c-2.75 4.458-2.52 8.915-2 14 1.049 3.523 1.049 3.523 3 6 2.077.96 2.077.96 4 1v2c2.353 1.176 3.82 1.134 6.438 1.125l2.37.008c3.06-.186 4.793-.75 7.016-2.883 4.008-4.84 5.968-8.042 5.52-14.402-.272-1.934-.272-1.934-1.344-3.848h-2l-.187-1.812c-.678-2.323-.678-2.323-2.688-3.938-7.048-2.82-14.406-2.529-20.125 2.75"/><path fill="#0FB880" d="m332.216 191.84 2.243-.016c2.487-.016 4.974-.024 7.462-.033l5.341-.03a8007 8007 0 0 1 17.562-.07l3.018-.01q14.09-.047 28.18-.074 18.02-.031 36.04-.133a5353 5353 0 0 1 25.343-.08c5.045-.004 10.09-.02 15.135-.059 4.749-.037 9.496-.045 14.245-.032a425 425 0 0 0 5.22-.032c15.875-.185 15.875-.185 21.667 5.172 4.103 4.81 4.8 8.987 4.633 15.143-.409 3.235-1.575 5.674-3.305 8.414h-2l-1 3c-4.041 2.263-8.03 2.287-12.546 2.267l-2.277.014c-2.514.013-5.027.011-7.54.01q-2.706.008-5.411.02c-4.897.018-9.794.022-14.69.024q-6.132.004-12.264.016-14.467.023-28.933.02c-9.95-.002-19.898.02-29.847.051q-12.814.038-25.629.036c-5.102 0-10.203.005-15.305.026q-7.196.029-14.393.005-2.64-.003-5.28.015c-2.404.015-4.807.006-7.212-.01l-2.106.032c-4.95-.07-7.76-1.422-11.567-4.526-2-3-2-3-2-6h-2v-13h2l.688-2.25c1.578-3.308 3.308-4.699 6.312-6.75 3.478-1.16 6.598-1.154 10.216-1.16m-2.34 63.013 3.046-.022 3.339-.008 3.519-.02c3.85-.02 7.701-.031 11.552-.041l3.98-.013q9.353-.029 18.704-.041 10.785-.015 21.572-.077 8.343-.044 16.686-.048 4.98-.002 9.96-.036c3.706-.025 7.41-.024 11.117-.017l3.32-.039c6.12.042 9.65.458 14.329 4.509l1.875 1.562C454 262 454 262 454 265h2c1.333 9.41 1.333 9.41 0 14h-2l-.75 2.437L452 284c-2.063.625-2.063.625-4 1l-1 3c-5.654 1.198-11.193 1.148-16.943 1.145l-3.309.01q-5.403.013-10.807.013l-7.524.01q-7.883.009-15.764.007-9.093.001-18.186.026c-5.847.015-11.693.018-17.54.018q-3.721 0-7.443.013c-3.47.01-6.941.007-10.411 0-1.023.007-2.045.012-3.098.018-5.39-.024-9.879-.473-14.975-2.26v-2l-1.875-.313C317 284 317 284 315 281v-3h-2v-13h2l.687-2.25c1.58-3.308 3.31-4.699 6.313-6.75 2.928-.976 4.826-1.132 7.876-1.147"/></svg>