<svg xmlns:inkscape="http://www.inkscape.org/namespaces/inkscape" xmlns:sodipodi="http://sodipodi.sourceforge.net/DTD/sodipodi-0.dtd" xmlns="http://www.w3.org/2000/svg" xmlns:svg="http://www.w3.org/2000/svg" xmlns:rdf="http://www.w3.org/1999/02/22-rdf-syntax-ns#" xmlns:cc="http://creativecommons.org/ns#" xmlns:dc="http://purl.org/dc/elements/1.1/" version="1.1" id="svg896" inkscape:version="1.4 (e7c3feb100, 2024-10-09)" sodipodi:docname="endeavouros-logo-sans-logotype.svg" viewBox="1.22 1.93 50.38 41.83">
  <title id="title1">EndeavourOS Icon</title>
  <defs id="defs890"/>
  <sodipodi:namedview id="base" pagecolor="#ffffff" bordercolor="#666666" borderopacity="1.0" inkscape:pageopacity="0.0" inkscape:pageshadow="2" inkscape:zoom="1.743335" inkscape:cx="37.571666" inkscape:cy="77.437784" inkscape:document-units="mm" inkscape:current-layer="layer1" showgrid="false" inkscape:window-width="1920" inkscape:window-height="1008" inkscape:window-x="0" inkscape:window-y="0" inkscape:window-maximized="1" inkscape:showpageshadow="2" inkscape:pagecheckerboard="0" inkscape:deskcolor="#d1d1d1"/>
  <metadata id="metadata893">
    <rdf:RDF>
      <cc:Work rdf:about="">
        <dc:format>image/svg+xml</dc:format>
        <dc:type rdf:resource="http://purl.org/dc/dcmitype/StillImage"/>
        <cc:license rdf:resource="http://creativecommons.org/licenses/by/4.0/"/>
        <dc:title>EndeavourOS Icon</dc:title>
        <dc:publisher>
          <cc:Agent>
            <dc:title>www.endeavouros.com</dc:title>
          </cc:Agent>
        </dc:publisher>
      </cc:Work>
      <cc:License rdf:about="http://creativecommons.org/licenses/by/4.0/">
        <cc:permits rdf:resource="http://creativecommons.org/ns#Reproduction"/>
        <cc:permits rdf:resource="http://creativecommons.org/ns#Distribution"/>
        <cc:requires rdf:resource="http://creativecommons.org/ns#Notice"/>
        <cc:requires rdf:resource="http://creativecommons.org/ns#Attribution"/>
        <cc:permits rdf:resource="http://creativecommons.org/ns#DerivativeWorks"/>
      </cc:License>
    </rdf:RDF>
  </metadata>
  <g inkscape:label="Layer 1" inkscape:groupmode="layer" id="layer1" transform="translate(-70.724121,-123.68037)">
    <g transform="translate(228.09391,167.94644)" id="g3201">
      <path inkscape:connector-curvature="0" style="opacity:1;fill:#7f7fff;fill-opacity:1;stroke-width:0.58539104" d="m -126.6517,-42.323767 c 4.56539,6.44904 23.84413,31.44422 10.69937,36.6116992 -6.11941,2.812881 -34.03039,-1.647039 -33.61942,-0.920848 -1.99562,3.279839 -3.591,5.91592003 -3.591,5.91592003 0,0 21.45211,0.966808 38.13326,-1.26942103 23.737184,-3.182149 -4.87875,-33.5051802 -11.62221,-40.3373502 z" id="path3195"/>
      <path inkscape:connector-curvature="0" style="opacity:1;fill:#ff7f7f;fill-opacity:1;stroke-width:0.58539104" d="m -126.70389,-42.339787 c -1.52445,0.20891 -29.4473,34.4743892 -29.4473,34.4743892 0,0 2.00676,0.56982 6.57944,1.232482 1.4847,-1.15443 22.28852,-36.2425012 22.92005,-35.6908512 -0.0107,-0.0141 -0.028,-0.0193 -0.0522,-0.016 z" id="path3197"/>
      <path inkscape:connector-curvature="0" style="opacity:1;fill:#7f3fbf;fill-opacity:1;stroke-width:0.58539104" d="m -126.67651,-42.336167 c -0.95961,-0.15608 -22.89524,35.7032512 -22.89524,35.7032512 0,0 19.91462,2.100009 28.07942,1.96215 23.119264,-0.39036 0.17566,-30.5991912 -5.15937,-37.6530012 -0.007,-0.007 -0.0151,-0.0108 -0.0248,-0.0124 z" id="path3199"/>
    </g>
  </g>
</svg>