<svg xmlns="http://www.w3.org/2000/svg" xml:space="preserve" viewBox="0 0 512 512"><path d="M228.7 5.67c-5.33.46-13.59 1.56-18.37 2.39-14.51 2.48-41.41 9.46-45.91 11.94-1.29.73-5.88 2.66-10.38 4.41-7.35 2.94-21.58 10.1-30.49 15.43-10.38 6.15-13.5 8.26-23.32 15.52-17.36 12.86-28.38 23.14-41.6 38.75-25.16 29.84-42.7 64-52.43 102.11-8.91 34.44-8.08 90.82 1.65 123.97 9.27 31.59 20.39 54 40.59 82.37C60.28 419.08 76.81 436.07 96 451.5c19.28 15.43 49.4 32.42 70.62 39.58 33.06 11.29 68.87 16.99 98.35 15.52 32.78-1.56 64.83-8.91 92.29-21.03 63.18-28.1 108.08-73.19 135.26-136.09 3.31-7.62 10.28-29.11 12.95-39.85 5.23-21.58 7.62-47.38 6.06-68.41-.92-13.04-4.13-33.79-6.7-43.62-6.24-23.32-10.56-35.35-18.37-51.06-15.89-32.23-33.52-55.37-59.41-78.24-5.33-4.78-11.94-10.1-14.69-11.85-2.75-1.84-6.7-4.68-8.72-6.24-8.82-6.89-32.97-20.2-48.67-26.81-19.47-8.08-42.33-14.05-64.74-16.8-10.84-1.3-49.87-1.94-61.53-.93m44.99 9.18c25.25 1.84 51.61 7.35 71.17 14.97 11.2 4.32 34.07 15.98 43.62 22.13 20.2 12.95 35.17 25.25 50.6 41.41 9.46 10.01 25.16 31.77 31.41 43.62 14.14 27 21.49 47.02 27.18 74.38 2.85 13.87 3.95 25.62 3.95 43.53.09 29.75-3.12 47.29-15.34 83.66-4.32 12.86-14.97 33.52-24.52 47.48-2.66 3.95-6.89 10.19-9.46 13.96-2.48 3.76-4.96 6.7-5.51 6.61-1.56-.37-10.74-11.85-17.08-21.3-17.63-26.35-20.2-36.55-21.49-84.39-.64-24.98-1.19-29.84-4.78-45-2.66-11.39-8.54-27-12.31-32.6-.83-1.29-2.85-4.78-4.5-7.81-13.22-24.33-34.62-45.46-60.61-59.87-6.61-3.58-22.96-10.74-29.39-12.67-2.75-.83-6.7-2.2-8.72-2.94-2.02-.73-6.98-2.11-11.02-3.03s-11.57-3.12-16.71-4.96c-5.14-1.74-12.03-3.67-15.15-4.22-3.21-.64-7.35-1.65-9.18-2.39-2.94-1.01-4.04-1.01-8.17.18-5.69 1.74-9.09 3.76-9.09 5.51 0 .73 4.13 2.57 11.11 4.78l11.2 3.58-5.88 1.1c-30.21 5.97-59.6 21.3-82.83 43.25-23.88 22.68-41.23 55.74-46.01 87.7-.73 5.23-1.56 19.56-1.84 33.52-.83 43.34-5.33 58.68-24.43 84.02-1.47 2.02-3.49 4.78-4.32 6.06-2.94 4.32-9.92 12.67-10.56 12.76-.37 0-2.02-1.93-3.67-4.22-1.65-2.3-5.05-6.7-7.44-9.83-2.48-3.12-6.15-8.63-8.26-12.12-2.02-3.58-5.51-9.46-7.71-13.04-2.2-3.67-3.95-6.89-3.95-7.16 0-.18-1.01-2.57-2.2-5.23-9.55-20.48-15.89-40.96-18.46-59.32-5.6-39.67-3.12-82.92 6.43-113.13 4.32-13.59 13.96-37.01 16.53-40.4.64-.73 2.48-3.86 4.13-6.89 3.31-6.06 12.12-19.47 14.51-22.22.92-.92 2.85-3.49 4.32-5.79 4.13-6.15 22.41-25.62 29.48-31.5 3.49-2.85 9.64-7.9 13.68-11.2 13.59-11.2 33.7-22.96 55.83-32.69 20.2-8.91 53.54-16.62 77.78-18 5.33-.28 9.83-.64 10.01-.83.75-.65 14.24-.37 27.65.54m-89.71 223.61c4.22 2.02 11.29 9 13.77 13.68 1.74 3.21 2.02 5.23 2.02 12.95-.09 8.08-.37 9.73-2.48 13.87-2.75 5.14-9.73 12.03-15.15 14.69-4.78 2.39-13.22 2.3-18.82-.28-5.33-2.39-12.31-9.46-14.51-14.51-3.31-7.71-3.12-18.09.55-25.8 2.02-4.32 9.09-12.03 12.67-13.87 6.33-3.3 15.79-3.67 21.95-.73m160.97-.55c7.25 3.31 14.42 12.12 16.53 20.29 2.75 10.84.09 21.4-7.35 29.02-8.63 8.72-18.46 10.47-29.57 5.33-5.79-2.75-9.83-7.62-12.4-15.15-7.71-22.68 2.57-40.96 23.05-41.14 3.96-.01 7.26.54 9.74 1.65m-86.59 54.73c2.85.83 7.16 2.57 9.55 3.95 5.23 2.94 11.85 9.55 12.67 12.76.28 1.29 1.47 3.49 2.57 5.05 2.85 3.86 2.75 12.49-.18 18.18-5.51 10.74-19.38 20.11-35.63 23.97-6.52 1.56-9.73 1.84-17.08 1.47-10.47-.64-15.34-2.39-6.7-2.48 5.79 0 14.88-2.2 24.24-5.88 11.2-4.41 23.69-14.69 29.11-23.97 2.11-3.58 2.39-4.59 1.56-6.52-.64-1.19-1.47-2.2-2.02-2.2-.46 0-2.94 2.75-5.42 6.15-5.05 6.98-6.06 7.9-14.23 13.5-10.38 7.07-26.63 12.49-37.74 12.49-4.87 0-10.84-2.02-14.88-5.14-3.58-2.66-3.86-5.14-1.65-14.6 2.39-10.19 8.17-19.1 17.81-27.36 12.58-10.75 23.87-13.51 38.02-9.37m29.38 24.51c.28.92.37 1.65.18 1.65-.46 0-5.05-7.35-5.05-7.99.1-1.19 4.41 4.51 4.87 6.34m-71.9 78.98c17.26 2.48 50.14 2.94 61.53.83 10.47-1.93 35.72-1.84 43.16.18 6.8 1.84 22.96 9.37 28.74 13.41 13.32 9.37 25.8 28.1 32.42 48.76.55 1.74-13.96 10.74-27.18 16.9-12.03 5.6-35.81 12.76-56.02 16.99-25.34 5.23-59.41 5.23-87.7 0-30.4-5.69-61.98-17.54-84.3-31.68-10.47-6.7-10.01-5.88-7.9-13.41 2.57-9.18 6.43-17.26 11.85-24.52 9.92-13.41 28.65-25.44 43.62-28.1 10.01-1.84 25.89-1.57 41.78.64"/><path d="M176.35 247c-6.06 6.06-5.88 16.9.37 23.6 2.48 2.66 3.76 3.21 6.7 3.21 3.31 0 3.95-.46 6.24-3.67 2.3-3.4 2.48-4.22 2.11-10.38-.46-7.71-3.21-12.86-7.53-14.42-3.94-1.37-5.04-1.19-7.89 1.66m146.93.92c-7.62 7.62-6.7 19.65 2.02 24.89 2.66 1.65 3.12 1.74 5.6.46 5.97-3.12 8.36-15.79 4.5-24.61-1.74-3.95-2.2-4.22-5.33-4.22-2.66-.01-4.04.72-6.79 3.48"/></svg>