<?xml version="1.0" encoding="UTF-8"?>
<svg width="270px" height="270px" viewBox="0 0 270 270" version="1.1" xmlns="http://www.w3.org/2000/svg" xmlns:xlink="http://www.w3.org/1999/xlink">
    <g id="Page-1" stroke="none" stroke-width="1" fill="none" fill-rule="evenodd">
        <path d="M155.399,124.319 C138.233,124.319 124.319,138.233 124.319,155.399 C124.319,172.564 138.233,186.478 155.399,186.478 C164.603,186.478 172.874,182.477 178.565,176.118 L267.479,176.118 C268.714,169.399 269.358,162.474 269.358,155.399 C269.358,148.323 268.714,141.398 267.479,134.679 C257.735,81.634 211.261,41.44 155.399,41.44 L155.399,0 C69.574,0 0,69.574 0,155.399 L41.44,155.399 C41.44,218.336 92.461,269.358 155.399,269.358 C195.404,269.358 230.595,248.744 250.929,217.558 L192.773,217.558 C181.859,224.135 169.071,227.918 155.399,227.918 C115.347,227.918 82.88,195.45 82.88,155.399 L41.44,155.399 C41.44,92.461 92.461,41.44 155.399,41.44 L155.399,82.879 C188.25,82.879 216,104.723 224.915,134.679 L178.565,134.679 C172.874,128.32 164.603,124.319 155.399,124.319" id="Fill-1" fill="#00BED9"></path>
    </g>
</svg>
