<svg xmlns="http://www.w3.org/2000/svg" xmlns:xlink="http://www.w3.org/1999/xlink" version="1.1" viewBox="0 0.01 115.52 143.76">
    <title>horizLogo</title>
    <defs>
        <linearGradient x1="76.6452875%" y1="106.733429%" x2="28.7462587%" y2="3.49216114%" id="linearGradient-1">
            <stop stop-color="#8026FF" offset="25%"/>
            <stop stop-color="#FF1A58" offset="75%"/>
        </linearGradient>
    </defs>
    <g id="Page-1" stroke="none" stroke-width="1" fill="none" fill-rule="evenodd">
        <g id="horizLogo" transform="translate(0.000000, 0.009657)" fill-rule="nonzero">
            <path d="M3.22,65.9903428 C7.36,48.9903428 20.85,39.4403428 38.69,39.4403428 C56.1,39.4403428 70.25,48.8003428 74.38,65.9903428 L3.22,65.9903428 Z M105.22,38.5203428 C95.0100528,20.8238516 78.1856989,7.91046115 58.4510992,2.62326895 C38.7164996,-2.66392325 17.6896641,0.108571645 1.42108547e-14,10.3303428 L9.71,27.1503428 C18.6760705,22.5434556 28.6302113,20.1922189 38.71,20.3003428 C72.66,20.3003428 96.16,44.2403428 96.16,76.8803428 L96.16,84.5003428 L2.57,84.5003428 C5.62,103.650343 19.98,114.310343 38.69,114.310343 C52.62,114.310343 62.41,109.960343 68.69,100.600343 L91.54,100.600343 C86.8570334,112.00133 78.2280851,121.336638 67.23,126.900343 L77,143.760343 C94.6992057,133.550362 107.614545,116.724187 112.901881,96.9871749 C118.189217,77.2501625 115.414946,56.220907 105.19,38.5303428 L105.22,38.5203428 Z" id="Shape" fill="url(#linearGradient-1)"/>
        </g>
    </g>
</svg>