<svg xmlns="http://www.w3.org/2000/svg" fill="none" class="w-[2rem] sm:ml-6 lg:w-12" viewBox="0 0 483.24 479.93">
    <path fill="#1C1C1C" d="M154.721 136.711h204.043v247.898H154.721z"/>
    <path d="M261.893 16.782c22.837 0 45.232 3.271 66.559 9.733 19.11 5.504 37.435 14.01 54.464 25.27h.001c16.478 10.895 31.476 24.18 44.582 39.487a220.5 220.5 0 0 1 32.269 50.016h-.001c8.574 18.34 14.461 37.552 17.483 57.106l.192 1.229c1.937 12.703 2.013 25.205.2 37.17-1.904 12.564-5.848 24.284-11.747 34.811-6.1 10.881-14.132 20.212-23.87 27.705l-.001-.001c-8.2 6.311-17.449 11.189-27.55 14.562 11.375 9.056 19.43 21.427 23.342 35.782 3.843 12.629 4.776 24.886 2.619 36.382-2.022 10.773-6.739 20.83-13.939 29.881-12.836 16.136-31.666 26.895-47.788 35.076l-.011.006-.176.088-.025.012-.139.066.001.001c-32.527 15.734-65.021 26.327-108.9 24.201-51.681-.009-101.245-15.172-139.578-42.863-23.531-16.13-43.386-37.091-59.03-62.269v-.001c-14.876-23.947-25.302-50.624-31.003-79.267-5.638-28.338-6.344-57.025-2.09-85.255 4.404-29.227 13.92-56.432 28.304-80.831 19.258-33.56 48.323-61.333 84.019-80.365 34.037-18.149 72.7-27.732 111.813-27.732Zm1.872 303.849c-14.221 0-30.265.004-46.556.031 4.284 2.079 9.138 3.788 14.376 5.137 10.413 2.682 21.975 3.849 32.748 3.849 14.302 0 28.488-1.952 38.878-5.254l.007-.002.008-.002.396-.125c5.32-1.678 8.303-2.625 10.914-3.634-4.41.001-8.693.005-12.804.005l-18.979-.003-18.988-.002Zm-3.015-159.163c-21.936 0-40.748 7.911-52.012 20.655l4.825.008 4.287.006v.002c18.074.03 38.117.061 57.359.061 14.692 0 27.311-.02 38.159-.056-12.385-14.39-32.161-20.3-48.148-20.601l-.864-.011h-.29l-.085-.003-.231-.008v-.001a85.717 85.717 0 0 0-3-.052Z" fill="#1C1C1C" stroke="#1C1C1C" stroke-width="8.584"/>
    <path d="M198.883 300.253c53.361-.153 108.51.004 161.633-.125 14.068-.058 28.411-.109 42.011-4.033 41.461-10.707 61.785-49.764 54.53-94.496-11.024-71.552-64.421-135.37-134.368-155.465-87.93-26.72-192.407 7.776-238.959 89.042-53.35 90.405-29.487 220.858 57.919 280.601 63.819 46.237 157.469 51.004 227.811 16.981 31.952-16.217 61.252-36.825 48.707-77.458-7.142-26.754-33.907-41.473-59.177-32.829-8.374 2.502-16.03 6.821-23.675 10.844-11.421 6.022-13.471 6.645-25.903 10.567-35.94 11.425-108.641 10.036-127.256-29.492-2.597-11.349 7.654-14.147 16.692-14.137h.037-.002Zm-11.421-98.904c-3.965-1.465-6.606-5.292-6.405-9.519.104-3.66 1.745-7.217 3.451-10.437 14.77-27.747 47.467-41.443 79.983-40.308 30.405.189 62.265 15.363 75.182 44.89.985 2.49 1.604 5.08 1.276 7.598-.921 6.622-6.973 8.956-12.912 8.956-37.695.226-94.344.078-133.509.023-2.267-.072-4.778-.302-7.024-1.184l-.042-.016v-.003Z" fill="#fff"/>
    <path d="M87.469 216.808c-42.032-22.28-61.957-43.866-71.263-58.037-6.487-10.214-9.46-21.914-8.65-33.865l5.542-84.74v-.154c.308-2.548 2.066-4.653 4.498-5.386L98.088 8.098l78.58 32.88c2.375.946 3.939 3.166 4.035 5.753l-1.216 85.049c-.154 11.97-4.055 23.381-11.256 32.976-10.465 13.477-32.05 33.402-75.723 52.265l-2.548 1.1-2.453-1.293-.038-.02Z" fill="#CB3EFF"/>
    <mask id="a" maskUnits="userSpaceOnUse" x="-.393" y="-.164" width="189" height="227" fill="#000">
        <path fill="#fff" d="M-.393-.164h189v227h-189z"/>
        <path d="m97.803 14.193 76.669 32.069a.605.605 0 0 1 .405.56l-1.216 84.778a50.35 50.35 0 0 1-10.098 29.578c-10.02 12.897-30.891 32.069-73.386 50.431-40.912-21.682-60.18-42.457-69.14-56.107-5.714-9.036-8.437-19.636-7.722-30.293l5.522-84.604c.019-.251.212-.464.444-.54l78.522-25.892m.483-12.337-4.113 1.351L15.805 29.02c-4.614 1.43-7.916 5.406-8.476 10.272l-.038.29v.29L1.75 124.474c-.888 13.168 2.394 26.065 9.499 37.263l.058.077.058.078c9.673 14.75 30.273 37.127 73.406 59.987l4.923 2.606 5.097-2.201c44.812-19.365 67.112-40.023 77.943-53.963l.058-.077.058-.078c7.955-10.599 12.26-23.168 12.434-36.394l1.216-84.739v-.58c-.174-4.884-3.147-9.112-7.645-10.908L102.321 3.535l-3.997-1.66-.038-.04Z"/>
    </mask>
    <path d="m97.803 14.193 76.669 32.069a.605.605 0 0 1 .405.56l-1.216 84.778a50.35 50.35 0 0 1-10.098 29.578c-10.02 12.897-30.891 32.069-73.386 50.431-40.912-21.682-60.18-42.457-69.14-56.107-5.714-9.036-8.437-19.636-7.722-30.293l5.522-84.604c.019-.251.212-.464.444-.54l78.522-25.892m.483-12.337-4.113 1.351L15.805 29.02c-4.614 1.43-7.916 5.406-8.476 10.272l-.038.29v.29L1.75 124.474c-.888 13.168 2.394 26.065 9.499 37.263l.058.077.058.078c9.673 14.75 30.273 37.127 73.406 59.987l4.923 2.606 5.097-2.201c44.812-19.365 67.112-40.023 77.943-53.963l.058-.077.058-.078c7.955-10.599 12.26-23.168 12.434-36.394l1.216-84.739v-.58c-.174-4.884-3.147-9.112-7.645-10.908L102.321 3.535l-3.997-1.66-.038-.04Z" fill="#1E1E1E"/>
    <path d="m174.472 46.262-.62 1.483.055.023.057.018.508-1.524Zm.405.56 1.607.023v-.023h-1.607Zm-1.216 84.778-1.607-.023v.002l1.607.021Zm-10.098 29.578 1.269.986.008-.01.008-.011-1.285-.965Zm-73.386 50.431-.753 1.42.682.361.708-.306-.637-1.475Zm-69.14-56.107-1.358.859.008.011.007.012 1.344-.882Zm-7.722-30.293 1.603.107v-.002l-1.603-.105Zm5.522-84.604-1.603-.123v.009l-.001.01 1.604.104Zm.444-.54-.504-1.527-.005.002.509 1.524Zm79.005-38.23L99.422.7l-.699-.7-.94.31.503 1.526Zm-4.113 1.352-.502-1.526.502 1.526ZM15.805 29.02l.476 1.536.014-.005.013-.004-.503-1.527ZM7.33 39.292l1.594.212.001-.014.002-.014-1.597-.184Zm-.038.29-1.593-.213-.014.106v.106H7.29Zm0 .29 1.604.104.003-.052v-.053H7.291ZM1.75 124.474l1.603.108v-.003l-1.603-.105Zm9.499 37.263-1.357.861.034.053.037.051 1.286-.965Zm.058.077 1.286-.963v-.001l-1.286.964Zm.058.078 1.344-.882-.028-.042-.03-.04-1.286.964ZM84.77 221.88l-.753 1.42.753-1.42Zm4.923 2.606-.752 1.421.681.36.708-.305-.637-1.476Zm5.097-2.201.637 1.476-.637-1.476Zm77.943-53.963 1.269.986.009-.011.008-.011-1.286-.964Zm.116-.155-1.285-.964 1.285.964Zm12.434-36.394-1.607-.023v.002l1.607.021Zm1.216-84.739 1.607.023v-.023H186.5Zm0-.58h1.607v-.028l-.001-.028-1.606.057Zm-7.645-10.908-.621 1.483.013.005.012.005.596-1.493ZM102.321 3.535l.62-1.483-.004-.001-.616 1.484Zm-3.997-1.66L97.187 3.01l.226.225.295.123.616-1.484Zm-.521 12.318-.62 1.482 76.669 32.07.62-1.483.62-1.483-76.669-32.07-.62 1.484Zm76.669 32.069-.508 1.524a1.014 1.014 0 0 1-.5-.36 1.024 1.024 0 0 1-.194-.604h3.214a2.21 2.21 0 0 0-1.504-2.085l-.508 1.525Zm.405.56-1.607-.023-1.216 84.778 1.607.023 1.607.023 1.216-84.778-1.607-.023Zm-1.216 84.778-1.607-.021a48.748 48.748 0 0 1-9.776 28.634l1.285.965 1.285.965a51.958 51.958 0 0 0 10.42-30.523l-1.607-.02Zm-10.098 29.578-1.269-.986c-9.824 12.645-30.459 31.666-72.755 49.941l.638 1.476.637 1.475c42.695-18.448 63.802-37.771 74.018-50.92l-1.269-.986Zm-73.386 50.431.752-1.421c-40.72-21.579-59.764-42.185-68.548-55.568l-1.343.882-1.344.882c9.134 13.917 28.626 34.861 69.73 56.645l.753-1.42Zm-69.14-56.107 1.359-.859c-5.535-8.751-8.17-19.013-7.478-29.327l-1.603-.107-1.604-.108c-.737 11.002 2.073 21.939 7.968 31.26l1.359-.859Zm-7.722-30.293 1.603.105 5.522-84.605-1.603-.104-1.604-.105-5.522 84.604 1.604.105Zm5.522-84.604 1.602.123c-.02.253-.123.45-.233.58a.925.925 0 0 1-.417.28l-.508-1.524-.509-1.525c-.746.25-1.461.95-1.538 1.942l1.603.124Zm.444-.54.503 1.526L98.306 15.7l-.503-1.527-.503-1.526-78.523 25.89.504 1.527Zm79.005-38.23L97.784.31 93.67 1.661l.502 1.526.502 1.527 4.112-1.351-.501-1.527Zm-4.113 1.352-.503-1.526-78.368 25.833.503 1.526.503 1.527L94.676 4.714l-.503-1.527ZM15.805 29.02l-.475-1.535c-5.228 1.619-8.965 6.13-9.597 11.623l1.596.184 1.597.184c.488-4.237 3.353-7.681 7.355-8.92l-.476-1.536ZM7.33 39.292l-1.593-.212-.038.289 1.593.212 1.593.213.039-.29-1.594-.212Zm-.038.29H5.684v.29h3.214v-.29H7.291Zm0 .29-1.604-.106L.146 124.37l1.604.105 1.603.105 5.542-84.604-1.604-.105ZM1.75 124.474l-1.604-.108c-.911 13.51 2.458 26.746 9.746 38.232l1.357-.861 1.357-.861c-6.923-10.91-10.118-23.468-9.253-36.294l-1.603-.108Zm9.499 37.263-1.286.965.058.077 1.286-.965 1.285-.964-.058-.078-1.285.965Zm.058.077-1.286.964.057.077 1.287-.963 1.286-.964-.058-.077-1.286.963Zm.058.078-1.344.881c9.844 15.012 30.665 37.56 73.997 60.526l.753-1.42.752-1.42c-42.932-22.754-63.313-44.959-72.814-59.449l-1.344.882ZM84.77 221.88l-.752 1.42 4.923 2.607.752-1.421.752-1.42-4.923-2.606-.752 1.42Zm4.923 2.606.637 1.476 5.097-2.201-.637-1.476-.637-1.475-5.097 2.201.637 1.475Zm5.097-2.201.638 1.476c45.02-19.455 67.552-40.268 78.574-54.453l-1.269-.986-1.269-.986c-10.64 13.694-32.707 34.199-77.312 53.474l.638 1.475Zm77.943-53.963 1.286.964.058-.077-1.286-.964-1.285-.965-.058.077 1.285.965Zm.058-.077 1.286.964.057-.077-1.285-.965-1.285-.964-.058.077 1.285.965Zm.058-.078 1.285.965c8.158-10.87 12.578-23.769 12.756-37.338l-1.607-.021-1.607-.021c-.169 12.883-4.361 25.122-12.112 35.451l1.285.964Zm12.434-36.394 1.607.023 1.216-84.739-1.607-.023-1.607-.023-1.216 84.739 1.607.023Zm1.216-84.739h1.607v-.29h-3.214v.29h1.607Zm0-.29h1.607v-.29h-3.214v.29h1.607Zm0-.29 1.606-.056c-.196-5.518-3.562-10.311-8.656-12.344l-.595 1.492-.596 1.493c3.903 1.558 6.484 5.22 6.635 9.473l1.606-.057Zm-7.645-10.908.62-1.482-76.534-32.012-.62 1.483-.62 1.483 76.533 32.011.621-1.483ZM102.321 3.535l.616-1.484L98.941.39l-.617 1.484-.616 1.484 3.996 1.66.617-1.484Zm-3.997-1.66L99.461.739l-.038-.04-1.137 1.137-1.137 1.136.038.039 1.137-1.136Z" fill="#1E1E1E" mask="url(#a)"/>
    <path d="M106.198 15.905c.203-2.283-.517-4.521-2.052-6.224-1.531-1.702-3.751-2.73-6.123-2.854-2.371-.125-4.686.665-6.388 2.198-1.704 1.533-2.654 3.684-2.69 5.976l-.123 7.487-2.198 134.772-.123 7.488a3.258 3.258 0 0 0 .888 2.259 3.224 3.224 0 0 0 2.184 1.031 3.225 3.225 0 0 0 2.279-.797 3.26 3.26 0 0 0 1.12-2.154l.66-7.459 11.904-134.264.662-7.459Z" fill="#1E1E1E"/>
    <path d="m30.773 58.21-4.157 48.088c-.78 9.03 5.907 16.983 14.937 17.764 9.03.78 16.983-5.907 17.764-14.937l4.156-48.089c.78-9.03-5.907-16.983-14.937-17.763-9.03-.78-16.983 5.907-17.763 14.937Z" fill="#F069FF"/>
    <path d="m89.737 226.296-46.489 20.362 5.541-54.697 40.948 34.335Z" fill="#1E1E1E" fill-opacity=".14"/>
    <circle cx="373.099" cy="370.21" r="50.218" fill="#fff"/>
</svg>