<svg xmlns="http://www.w3.org/2000/svg" xml:space="preserve" id="svg2" x="0" y="0" version="1.1" viewBox="35.34 0.04 441.01 511.92"><style>.st1{fill:#000}</style><g id="g16"><g id="g22" transform="translate(649.836 676.938)"><path id="path24" d="M-213.3-676.9h-361.1c-29.3 0-40.1 10.8-40.1 40.1v353.3c0 3.3.1 6.4.4 9.2.7 6.4.8 12.6 6.7 19.6.6.7 6.6 5.2 6.6 5.2 3.3 1.6 5.5 2.8 9.2 4.3l177.8 74.5c9.2 4.2 13.1 5.9 19.8 5.7 6.7.1 10.6-1.5 19.8-5.7l177.8-74.5c3.7-1.5 5.9-2.7 9.2-4.3 0 0 6.1-4.5 6.6-5.2 5.9-7.1 6.1-13.2 6.7-19.6.3-2.9.4-5.9.4-9.2v-353.3c.3-29.3-10.5-40.1-39.8-40.1" style="fill-rule:evenodd;clip-rule:evenodd;fill:#fff"/></g><g id="g26" transform="translate(623.23 286.175)"><path id="path28" fill="#000" d="m-210.9 69-.1.8-.1.9-.2.8-.2.8-.2.7-.2.8-.3.7-.3.7-.3.7-.4.7-.4.7-.5.7-.4.7-.5.6-.6.6-.5.5-.7.6-.6.5-.7.5-.6.4-.6.5-.7.4-.7.3-.7.4-.8.3-.8.3-.8.2-.8.2-.7.2-.8.2-.7.2-.7.2-.8.2-.8.1-.7.1-.8.1-.9.1-.8.1h-3.4l-.8-.1h-.9l-.8-.1-.8-.1-.9-.1-.8-.2-.8-.1-.8-.2-.8-.2-.8-.2-.8-.2-.8-.2-.7-.2-.8-.2-.8-.2-.7-.3-.8-.2-.7-.2-.8-.3-.7-.3-.7-.3-.7-.4-.7-.3-.7-.4-.6-.4-.7-.4-1.4-.7-.7-.4-.6-.5-.6-.5-.7-.5-.6-.5-.6-.5-.6-.6.5-.7.6-.6.5-.7.6-.7.5-.6.5-.7.6-.7.5-.6.6-.7.5-.6.6-.7.5-.7.5-.6.6-.7.5-.7.6-.6.5-.7.6.5.7.5.7.5.7.5.7.4.7.5.6.4.7.3.6.4.7.3.7.3.7.3.7.2.7.3.8.2.8.2.7.2.8.2.8.2.8.2.9.1.8.2h.8l.9.1h1.8l.9-.1.8-.2.7-.2.7-.2.7-.2.6-.3.7-.5.5-.6.3-.7.2-.7.1-.8v-.2l-.1-1-.3-.8-.4-.6-.6-.5-.7-.5-.6-.3-.7-.3-.8-.3-1-.4-.6-.2-.6-.2-.7-.2-.7-.2-.8-.2-.8-.2-.9-.2-.8-.2-.9-.2-.8-.2-.8-.2-.8-.2-.8-.2-.7-.2-.8-.2-.7-.2-.7-.2-.7-.2-.9-.3-.8-.3-.8-.3-.8-.3-.7-.4-.8-.4-.7-.4-.7-.4-.6-.5-.7-.4-.6-.5-.6-.6-.6-.6-.5-.6-.5-.6-.4-.6-.4-.7-.4-.7-.3-.6-.2-.7-.2-.7-.2-.7-.2-.8-.2-.7-.1-.8-.1-.8-.1-.9v-1.1.2l.1-.8.1-.7.1-.8.2-.7.2-.7.2-.7.2-.7.3-.7.3-.7.3-.7.4-.7.4-.7.5-.7.5-.7.6-.7.6-.6.6-.7.7-.6.6-.4.7-.5.6-.5.6-.4.7-.4.7-.3.7-.4.7-.3.8-.2.8-.3.7-.2.6-.2.7-.2.7-.2.8-.2.7-.2.8-.1.8-.1.8-.1.8-.1h3.5l.9.1.9.1h.8l.9.1.8.2.9.1.8.2.7.2.8.2.8.2.7.2.8.2.7.2.7.2.8.3.7.2.7.3.7.3.8.3.7.4.6.3.7.4.7.4.6.4.7.5.6.4.7.5.6.5.6.5-.5.7-.4.7-.5.7-.5.7-.5.7-.4.7-.5.7-.5.7-.4.7-.5.7-.5.7-.4.7-.5.7-.5.7-.5.7-.4.7-.5.7-.7-.5-.7-.4-.6-.4-.7-.5-.7-.3-.7-.4-.7-.3-.6-.3-.7-.3-.6-.3-.7-.2-.7-.3-.9-.2-.8-.2-.8-.2-.8-.2-.8-.2-.8-.2-.8-.1-.8-.1-.7-.1h-1.8l-.9.2-.8.2-.7.2-.6.3-.6.3-.3-.4-.5.7-.3.7-.1.8v.2l.1 1.1.4.9.3.5.6.6.7.4.6.4.8.3.9.3 1 .3.6.2.6.2.7.2.7.2.8.2.9.2.9.2.9.2.9.2.8.2.9.2.8.2.8.2.8.2.7.2.8.2.7.2.7.2.9.3.8.4.8.3.8.4.7.4.7.4.6.4.7.5.6.4.6.6.7.6.6.7.6.6.5.7.5.7.4.7.4.7.3.7.2.7.2.7.2.7.2.8.2.8.1.8.1.9v2zm-56.9 16.3h-45.9V26h46.2v13.2h-30.9v9.5h27.8v13.1h-27.8v10h31.4v13.5zm-59.3 0h-14.7V50.4l-.4.7-.5.7-.4.7-.5.7-.4.7-.5.7-.5.4-.4.7-.5.7-.4.7-.5.7-.4.7-.5.7-.4.7-.4.7-.5.7-.4.7-.5.7-.4.7-.5.7-.4.7-.4.7-.5.7-.4.7-.5.7-.4.7-.5.7-.4.7-.4.7-.5.7-.4.7-.4.2-.4.7-.5.7-.4.7h-.3l-.5-.7-.4-.7-.5-.7-.4-.7-.5-.7-.4-.7-.5-.7-.4-.7-.5-.7-.4-.7-.5-.7-.4-.7-.5-.7-.4-.7-.5-.7-.4-.7-.5-.7-.5-.7-.4-.7-.5-.7-.4-.7-.5-.7-.4-.7-.5-.7-.4-.7-.5-.7-.4-.7-.5-.7-.4-.7-.5-.7-.4-.7-.5-.7-.4-.7-.5-.7v34.9h-15.2V26h16.3l.4.7.4.7.5.6.4.7.4.7.4.7.4.6.5.7.4.7.4.7.4.7.4.7.5.7.4.7.4.7.4.7.5.7.4.7.4.7.4.7.4.7.5.7.4.7.4.7.4.6.4.7.5.7.4.7.4.7.4.6.4.7.5.7.4.7.4.7.4-.7.4-.7.5-.7.4-.7.4-.6.4-.7.5-.7.4-.7.4-.7.4-.6.5-.7.4-.7.4-.7.4-.7.5-.7.4-.7.4-.7.4-.7.4-.7.5-.7.4-.7.4-.7.4-.7.5-.7.4-.7.4-.7.4-.7.5-.6.4-.7.4-.7.4-.7.5-.6.4-.7.4-.7h16.3v59.2h-.2zm-94.1-24.4-.2-.7-.3-.8-.3-.7-.2-.7-.3-.7-.3-.8-.2-.7-.3-.7-.3-.7-.2-.7-.3-.8-.2-.7-.3-.7-.3-.7-.2-.7-.3-.8-.3-.7-.2-.7-.3-.7-.3-.8-.2-.7-.3-.7h-1l-.2.7-.3.8-.3.7-.2.7-.3.7-.3.8-.3.7-.2.7-.3.7-.3.7-.2.8-.3.7-.3.7-.2.7-.3.7-.3.8-.3.7-.2.7-.3.7-.3.8-.2.7-.3.7h13.5zm25.5 24.4h-15.6l-.3-.7-.2-.7-.3-.7-.3-.8-.2-.7-.3-.7-.3-.7-.2-.7-.3-.7-.3-.7-.2-.7-.3-.8-.3-.7-.2-.7-.3-.7h-22.9l-.3.7-.2.7-.3.7-.3.8-.2.7-.3.7-.3.7-.2.7-.3.7-.3.7-.2.7-.3.8-.3.7-.2.7-.3.7h-16.2l.3-.7.3-.7.3-.7.3-.8.2-.7.3-.7.3-.7.3-.7.3-.7.3-.8.3-.7.3-.7.2-.7.3-.7.3-.7.3-.8.3-.7.3-.7.3-.7.3-.7.2-.7.3-.8.3-.7.3-.7.3-.7.3-.7.3-.7.3-.8.2-.7.3-.7.3-.7.3-.7.3-.7.3-.8.3-.7.3-.7.2-.7.3-.7.3-.7.3-.8.3-.7.3-.7.3-.7.3-.7.2-.7.3-.7.3-.8.3-.7.3-.7.3-.7.3-.7.3-.7.2-.8.3-.7.3-.7.3-.7.3-.7.3-.7.3-.8.3-.7.2-.7.3-.7.3-.7.3-.7.3-.8.3-.7.3-.7.3-.7.2-.7.3-.7.3-.8.3-.7.3-.7.3-.7.3-.7.3-.7.2-.8.3-.7.3-.7.3-.7h14.7l.3.7.3.7.3.7.3.8.2.7.3.7.3.7.3.7.3.7.3.8.3.7.3.7.2.7.3.7.3.7.3.8.3.7.3.7.3.7.3.7.2.7.3.8.3.7.3.7.3.7.3.7.3.7.3.8.2.7.3.7.3.7.3.7.3.7.3.8.3.7.3.7.2.7.3.7.3.7.3.7.3.8.3.7.3.7.3.7.2.7.3.7.3.8.3.7.3.7.3.7.3.7.3.7.2.8.3.7.3.7.3.7.3.7.3.7.3.8.3.7.2.7.3.7.3.7.3.7.3.8.3.7.3.7.3.7.2.7.3.7.3.8.3.7.3.7.3.7.3.7.3.7.2.8.3.7.3.7.3.7zm-71.1-7.5-.7.5-.6.4-.7.5-.6.4-.6.4-.7.4-.6.4-.7.4-.7.4-.7.4-.7.3-.7.4-.8.3-.7.3-.8.3-.7.3-.7.2-.7.2-.7.2-.8.2-.7.2-.8.2-.7.2-.8.2-.8.2-.8.1-.9.1-.8.1-.9.1-.8.1-.9.1h-3.5l-.8-.1-.9-.1-.8-.1-.8-.1-.8-.1-.8-.2-.8-.2-.7-.2-.8-.2-.7-.2-.8-.2-.7-.2-.7-.3-.7-.2-.8-.3-.7-.3-.7-.3-.7-.3-.7-.4-.6-.4-.7-.4-.7-.4-.6-.4-.7-.5-.6-.5-.6-.5-.6-.5-.6-.5-.6-.6-.6-.5-.6-.6-.6-.6-.5-.6-.5-.7-.5-.6-.4-.7-.5-.7-.4-.7-.4-.7-.4-.7-.4-.7-.3-.7-.3-.7-.3-.7-.3-.7-.2-.7-.3-.7-.2-.7-.2-.7-.2-.8-.2-.7-.2-.8-.1-.7-.2-.8-.1-.7-.1-.8-.1-.8-.1-.8v-2.7l.1-.9v-.8l.1-.8.1-.9.2-.8.1-.8.2-.7.2-.8.2-.8.2-.7.2-.8.2-.7.3-.8.3-.7.3-.7.3-.7.3-.7.4-.7.4-.7.4-.7.4-.7.4-.7.5-.7.5-.7.5-.7.5-.6.6-.6.5-.6.6-.6.6-.6.6-.5.7-.6.6-.5.6-.5.7-.4.6-.5.7-.4.6-.4.7-.4.7-.4.7-.4.7-.3.7-.3.8-.4.6-.2.8-.2.7-.3.7-.2.7-.2.8-.2.7-.2.8-.2.8-.1.8-.2.8-.1.8-.1.8-.1.8-.1h3.5l.9.1.9.1h.8l.8.1.9.2.7.1.8.2.8.2.7.2.7.2.7.2.7.2.7.2.6.2.7.2.7.3.7.3.7.3.7.4.7.3.7.4.7.4.6.4.7.4.6.5.6.4.7.5.6.5.7.6.6.5-.5.7-.6.6-.5.7-.6.7-.5.7-.5.6-.6.7-.5.7-.5.6-.6.7-.5.7-.6.7-.5.6-.5.7-.6.7-.5.7-.6.6-.5.7-.7-.5-.6-.6-.7-.4-.6-.5-.6-.4-.7-.4-.6-.4-.7-.4-.7-.3-.6-.3-.7-.2-.7-.2-.7-.2-.7-.2-.8-.2-.8-.2-.8-.1-.9-.1-.9-.1h-1.7l-.8.1-.7.1-.8.2-.7.2-.7.2-.7.2-.7.3-.7.3-.7.4-.6.4-.7.4-.6.5-.6.5-.6.5-.5.6-.6.6-.5.7-.4.6-.4.7-.4.7-.4.7-.3.7-.2.7-.3.7-.2.8-.2.8-.2.7-.2.9-.1.8-.1.8v1.9l.1.8.1.7.1.8.2.7.2.7.2.7.2.7.2.7.3.8.3.7.4.7.4.7.4.7.5.7.5.6.6.6.5.6.6.5.7.5.6.5.6.4.7.4.7.3.7.3.7.3.8.2.8.2.8.2.8.2.8.1.9.1h1.9l.9-.1.9-.1.8-.1.8-.2.8-.2.8-.2.7-.2.7-.3.7-.3.7-.3.6-.3.6-.4v-7.3h-11.6V50.9h26.4v26.2z" class="st1"/></g><g id="g30" transform="translate(312.995 481.16)"><path id="path32" fill="#000" d="M-182.7-303.2h35.2v-27.2h-35.2v-55.5h36.6v-27.2h-66.4v196.3h67V-244h-37.1v-59.2z" class="st1"/></g><g id="g34" transform="translate(590.07 474.677)"><path id="path36" fill="#000" d="M-207.9-290.8v44.3c0 7.9-3.6 11.5-11.2 11.5h-5.6c-7.8 0-11.4-3.6-11.4-11.5v-124c0-7.9 3.6-11.5 11.4-11.5h5c7.5 0 11.2 3.6 11.2 11.5v38.4h29.3v-40.1c0-24.4-11.7-36.2-36-36.2h-14.5c-24.3 0-36.3 12.1-36.3 36.5v126.8c0 24.4 12 36.5 36.3 36.5h14.8c24.3 0 36.3-12.1 36.3-36.5v-45.7z" class="st1"/></g><path id="path38" fill="#000" d="M278.5 264.3h29.9V68h-29.9z" class="st1"/><g id="g40" transform="translate(428.326 506.146)"><path id="path42" fill="#000" d="M-193.1-350.9c0 7.9-3.6 11.5-11.2 11.5h-12.3v-72.4h12.3c7.5 0 11.2 3.6 11.2 11.5zm-6.5-87.2h-46.9v196.3h29.9V-313h17c24.3 0 36.3-12.1 36.3-36.5v-52.2c0-24.3-12-36.4-36.3-36.4" class="st1"/></g><g id="g44" transform="translate(357.642 190.875)"><path id="path46" d="M-186.7 251h170.9l-87.3 28.8z" style="fill-rule:evenodd;clip-rule:evenodd;fill:#000"/></g></g></svg>