<svg xmlns="http://www.w3.org/2000/svg" viewBox="0 0 800 800" width="800" height="800"> <path fill="#883982" d="M527.217 203.094C516.493 199.785 505.424 194.62 494.767 190.928C490.663 189.506 486.312 187.855 482.492 185.822C477.533 182.762 477.903 176.76 482.319 173.448C492.797 165.59 503.373 157.929 513.96 150.259L560.23 116.188L589.879 94.3766C595.958 89.8926 602.369 84.6962 608.999 81.1658C611.563 79.8006 616.549 81.8778 617.521 85.2533C619.128 90.8388 619.872 96.3145 620.801 102.023L625.394 130.032L636.178 195.867C638.709 210.967 641.215 226.074 643.617 241.196C644.682 246.774 637.896 249.806 633.275 248.422C628.234 246.912 622.958 244.822 618.06 242.766C613.236 240.741 607.238 238.775 602.659 236.311C601.403 240.949 599.087 246.803 597.326 251.338C587.142 277.554 569.688 308.278 550.005 328.619C533.562 347.014 516.306 361.704 496.05 375.926C491.929 379.089 481.268 385.342 476.475 388.048C445.747 405.215 412.679 417.805 378.315 425.421C320.309 438.781 238.882 440.76 185.823 408.488C168.976 398.241 154.734 381.58 150.871 361.995C147.106 342.904 149.475 321.298 160.11 304.713C162.769 300.314 168.19 294.146 172.133 290.92C216.927 254.267 295.309 253.428 349.193 256.91L368.63 258.854C398.971 262.519 428.787 269.677 457.486 280.184C461.446 281.66 470.071 284.758 473.707 286.675C491.01 270.838 506.704 248.788 517 227.754C520.91 219.767 524.062 211.402 527.217 203.094ZM396.582 335.06C369.007 327.73 341.011 322.585 312.381 322.614C282.914 322.645 250.435 324.144 223.788 337.955C218.866 340.506 213.052 345.51 212.782 351.387C223.973 355.092 238.897 357.306 250.731 358.216C300.564 362.048 350.253 353.217 396.582 335.06Z" data-astro-cid-w6wgfymm=""></path> <path fill="#5b4ea6" d="M160.11 304.713C162.769 300.314 168.19 294.146 172.133 290.92C216.927 254.267 295.309 253.428 349.193 256.91L368.63 258.854C398.971 262.519 428.787 269.677 457.486 280.184C461.446 281.66 470.071 284.758 473.707 286.675C453.75 304.071 435.092 316.965 411.04 328.499C407.422 330.233 400.289 334.064 396.582 335.06C369.007 327.73 341.011 322.585 312.381 322.614C282.914 322.645 250.435 324.144 223.788 337.955C218.866 340.506 213.052 345.51 212.782 351.387C210.38 351.549 204.674 348.99 202.176 348.072C187.654 342.736 171.655 334.785 163.532 320.961C161.347 317.242 161.526 309.588 160.888 305.498C160.629 305.236 160.369 304.975 160.11 304.713Z" data-astro-cid-w6wgfymm=""></path> <path fill="#883982" d="M496.05 375.926C516.306 361.704 533.562 347.014 550.005 328.619C576.074 349.94 597.567 379.376 605.066 412.613C607.517 420.847 608.399 430.089 609 438.616C610.965 466.516 604.927 494.781 591.569 519.368C581.599 537.637 566.216 554.542 549.578 567.033C546.472 569.365 543.458 571.631 540.266 573.856C538.189 575.304 533.85 577.801 532.288 579.422C514.502 589.91 492.058 601.372 472.397 608.202C409.015 628.948 337.009 636.673 273.71 610.256C249.846 600.297 226.853 581.995 217.45 557.274C210.833 539.576 211.384 519.995 218.986 502.698C221.201 497.798 225.358 491.766 229.26 487.992C257.776 460.406 304.525 454.133 342.032 453.468C398.149 452.472 464.583 471.074 505.227 511.433C514.119 503.853 521.239 498.136 528.701 488.813C539.859 474.869 545.788 460.639 543.765 442.585C541.235 420.007 526.178 401.16 509.599 386.661C505.328 382.925 500.509 379.474 496.05 375.926ZM275.752 548.444C279.434 552.213 291.071 554.558 296.386 555.241C346.831 564.369 394.544 555.605 443.044 541.656C411.883 517.474 358.976 511.494 320.746 516.112C305.933 517.901 284.251 523.592 273.946 535.125C270.084 539.448 271.512 544.722 275.442 548.545L275.752 548.444Z" data-astro-cid-w6wgfymm=""></path> <path fill="#5b4ea6" d="M496.05 375.926C516.306 361.704 533.562 347.014 550.005 328.619C576.074 349.94 597.567 379.376 605.066 412.613C603 410.78 604.24 409.57 602.603 407.667C601.716 409.77 602.399 414.065 601.891 416.648C600.563 423.401 597.059 434.678 593.615 440.852C568.225 486.371 511.648 514.538 465.158 534.108C459.393 536.534 448.628 540.176 443.044 541.656C411.883 517.474 358.976 511.494 320.746 516.112C305.933 517.901 284.251 523.592 273.946 535.125C270.084 539.448 271.512 544.722 275.442 548.545C274.997 549.342 275.197 549.063 274.454 549.654C272.97 549.85 271.511 549.45 270.075 549.019C254.017 544.204 227.575 532.855 221.356 516.449C220.664 514.627 220.189 512.73 219.941 510.797C219.618 508.227 220.42 504.491 218.986 502.698C221.201 497.798 225.358 491.766 229.26 487.992C257.776 460.406 304.525 454.133 342.032 453.468C398.149 452.472 464.583 471.074 505.227 511.433C514.119 503.853 521.239 498.136 528.701 488.813C539.859 474.869 545.788 460.639 543.765 442.585C541.235 420.007 526.178 401.16 509.599 386.661C505.328 382.925 500.509 379.474 496.05 375.926Z" data-astro-cid-w6wgfymm=""></path> <path fill="#5b4ea6" d="M472.397 608.202C492.058 601.372 514.502 589.91 532.288 579.422C531.788 612.831 518.124 644.694 494.266 668.088C461.359 700.041 410.054 714.412 365.166 714.081C353.516 713.996 329.748 713.208 322.622 704.465C309.401 688.243 319.695 667.255 342.075 671.194C383.982 678.571 466.615 657.627 472.397 608.202Z" data-astro-cid-w6wgfymm=""></path> </svg>