<svg xmlns="http://www.w3.org/2000/svg" viewBox="8.44 8.25 73.02 56.26"><g fill="none" fill-rule="evenodd"><path fill="#0f0f0f" stroke="#fff" stroke-width="2.178" d="M72.63 16.18V12c0-1.47 1.19-2.66 2.66-2.66s2.66 1.19 2.66 2.66v4.18m-14.27 0V12c0-1.47 1.19-2.66 2.66-2.66A2.65 2.65 0 0 1 69 11.99v4.18m-14.28.01V12c0-1.47 1.19-2.66 2.66-2.66s2.66 1.19 2.66 2.66v4.18m-14.28 0V12c0-1.47 1.19-2.66 2.66-2.66s2.66 1.19 2.66 2.66v4.18m-14.28 0V12c0-1.47 1.19-2.66 2.66-2.66s2.66 1.19 2.66 2.66v4.18m-14.27 0V12c0-1.47 1.19-2.66 2.66-2.66s2.66 1.19 2.66 2.66v4.18m44.78 39.89v4.68c0 1.47-1.19 2.66-2.66 2.66s-2.66-1.19-2.66-2.66v-4.68m-3.63 0v4.68c0 1.47-1.19 2.66-2.66 2.66s-2.66-1.19-2.66-2.66v-4.68m-3.64 0v4.68c0 1.47-1.19 2.66-2.66 2.66s-2.66-1.19-2.66-2.66v-4.68m-3.64 0v4.68c0 1.47-1.19 2.66-2.66 2.66s-2.66-1.19-2.66-2.66v-4.68m-3.64 0v4.68c0 1.47-1.19 2.66-2.66 2.66s-2.66-1.19-2.66-2.66v-4.68m-3.63.26v4.43c0 1.47-1.19 2.66-2.66 2.66s-2.66-1.19-2.66-2.66v-4.43"/><path fill="#0f0f0f" stroke="#fff" stroke-width="2.42" d="M79.29 16.18H26.51a.97.97 0 0 0-.97.97v37.96c0 .53.43.97.97.97h52.77c.53 0 .97-.43.97-.97V17.15c0-.54-.43-.97-.96-.97z"/><path fill="#fff" fill-rule="nonzero" d="M61.6 35.42v-5.07h-1.8v3.28l-6.81-6.81-11.49 11.5h2.87v7.75h17.25v-7.75h2.87z"/><path fill="#ffffff000" stroke="#fff" stroke-linecap="round" stroke-linejoin="round" stroke-width="1.961" d="M61.6 35.42v-5.07h-1.8v3.28l-6.81-6.81-11.49 11.5h2.87v7.75h17.25v-7.75h2.87z"/><path fill="#ffffff000" stroke="#fff" stroke-linecap="round" stroke-linejoin="round" stroke-width="2.159" d="M25.34 53.77H9.52v-3.89h11.86v-3.89H9.52v-3.88h11.86v-3.89H9.52v-3.89h11.86v-3.88H9.52V18.47"/></g></svg>