<svg xmlns="http://www.w3.org/2000/svg" xml:space="preserve" id="svg3688" x="0" y="0" style="enable-background:new 0 0 512 512" version="1.1" viewBox="5.2 8 501.7 497.9"><style>.st0{fill:none}</style><filter id="filter4498-9" style="color-interpolation-filters:sRGB"><feFlood id="feFlood4488-1" flood-color="#000" flood-opacity=".498" result="flood"/><feComposite id="feComposite4490-7" in="flood" in2="SourceGraphic" operator="in" result="composite1"/><feGaussianBlur id="feGaussianBlur4492-7" in="composite1" result="blur" stdDeviation="4"/><feOffset id="feOffset4494-1" dx="0" dy="4" result="offset"/><feComposite id="feComposite4496-1" in="SourceGraphic" in2="offset" operator="over" result="composite2"/></filter><path id="path3684" d="M-10.2-9.1H520V521H-10.2z" class="st0"/><g id="layer1" transform="translate(0 168)"><path id="path4" d="M-10.2-177.1H520V353H-10.2z" class="st0"/></g><g style="filter:url(#filter4498-9)"><path id="path3686-3" d="M433.5 184.1V80.8h-104L256.1 8l-73.4 72.8H78.6v103.3L5.2 257l73.4 72.8v103.3h104.1l73.4 72.8 73.4-72.8h104V329.8l73.4-72.8z" style="fill:#ffc107"/></g><g id="g6594" transform="matrix(1.43088 0 0 1.33183 -104.952 -30.495)"><path id="path3684-6" d="M66.3 17.5h372v396.7h-372z" class="st0"/><ellipse id="path5101-5" cx="252.4" cy="215.7" rx="31.2" ry="33.3" style="fill:#ffd740;stroke:#ffd740;stroke-width:44.1816;stroke-linecap:round;stroke-linejoin:round"/><path id="path2-6" d="M252.3 121.3V85.8L206 133.1l46.3 47.4V145c38.3 0 69.4 31.9 69.4 71.1 0 12-2.9 23.3-8.1 33.2l16.9 17.3c9-14.6 14.3-31.9 14.3-50.5 0-52.4-41.4-94.8-92.5-94.8m0 165.8c-38.3 0-69.4-31.9-69.4-71.1 0-12 2.9-23.3 8.1-33.2l-16.9-17.3c-9 14.6-14.3 31.9-14.3 50.5 0 52.4 41.4 94.8 92.5 94.8v35.5l46.3-47.4-46.3-47.4z" style="fill:#448aff"/><path id="path4-3" d="M66.3 17.5h372v396.7h-372z" class="st0"/></g></svg>