<svg xmlns="http://www.w3.org/2000/svg" xmlns:xlink="http://www.w3.org/1999/xlink" width="340" height="340"><defs><filter id="d" width="1.114" height="2.007" x="-.057" y="-.356" filterUnits="objectBoundingBox"><feOffset dy="8" in="SourceAlpha" result="shadowOffsetOuter1"/><feGaussianBlur in="shadowOffsetOuter1" result="shadowBlurOuter1" stdDeviation="4"/><feColorMatrix in="shadowBlurOuter1" values="0 0 0 0 0 0 0 0 0 0 0 0 0 0 0 0 0 0 0.0568181818 0"/></filter><filter id="f" width="1.135" height="2.088" x="-.068" y="-.384" filterUnits="objectBoundingBox"><feOffset dy="8" in="SourceAlpha" result="shadowOffsetOuter1"/><feGaussianBlur in="shadowOffsetOuter1" result="shadowBlurOuter1" stdDeviation="4"/><feColorMatrix in="shadowBlurOuter1" values="0 0 0 0 0 0 0 0 0 0 0 0 0 0 0 0 0 0 0.0568181818 0"/></filter><filter id="h" width="1.183" height="2.088" x="-.091" y="-.384" filterUnits="objectBoundingBox"><feOffset dy="8" in="SourceAlpha" result="shadowOffsetOuter1"/><feGaussianBlur in="shadowOffsetOuter1" result="shadowBlurOuter1" stdDeviation="4"/><feColorMatrix in="shadowBlurOuter1" values="0 0 0 0 0 0 0 0 0 0 0 0 0 0 0 0 0 0 0.0568181818 0"/></filter><rect id="b" width="168" height="27" x="42" y="167" rx="13.5"/><rect id="e" width="142" height="25" x="41" y="110" rx="12.5"/><rect id="g" width="105" height="25" x="41" y="226" rx="12.5"/><linearGradient id="a" x1="170" x2="170" y1="-181.282" y2="372.825" gradientUnits="userSpaceOnUse"><stop offset="0%" stop-color="#65D09B"/><stop offset="100%" stop-color="#4DB38E"/></linearGradient></defs><g fill="none" fill-rule="evenodd"><rect width="340" height="340" fill="url(#a)" rx="70" style="fill:url(#a)"/><path fill="#000" fill-opacity=".2" fill-rule="nonzero" d="M237.612 138.158a7.4 7.4 0 0 0-10.447 0 7.35 7.35 0 0 0 0 10.419c7.775 7.752 12.058 18.024 12.058 28.922s-4.283 21.17-12.058 28.926a7.35 7.35 0 0 0 0 10.417 7.38 7.38 0 0 0 5.224 2.158 7.38 7.38 0 0 0 5.223-2.158C248.18 206.305 254 192.334 254 177.499c0-14.834-5.82-28.804-16.388-39.341" opacity=".754"/><path fill="#131514" fill-opacity=".251" fill-rule="nonzero" d="M267.333 113.159a7.123 7.123 0 0 0-10.216 0c-2.823 2.88-2.823 7.55 0 10.428 28.587 29.176 28.587 76.65 0 105.827-2.823 2.878-2.823 7.548 0 10.426a7.13 7.13 0 0 0 5.108 2.16 7.12 7.12 0 0 0 5.108-2.163c34.223-34.924 34.223-91.753 0-126.678" opacity=".754"/><use xlink:href="#b" fill="#000" filter="url(#d)"/><use xlink:href="#b" fill="#fff"/><use xlink:href="#e" fill="#000" filter="url(#f)"/><use xlink:href="#e" fill="#fff"/><use xlink:href="#g" fill="#000" filter="url(#h)"/><use xlink:href="#g" fill="#fff"/></g></svg>
