<svg xmlns="http://www.w3.org/2000/svg" viewBox="0.1 0.19 33.25 38.91"><g fill="none"><path d="M10.516 8.935c0 .388-.032 1.033-.42 1.452-.419.387-1.064.42-1.45.42h-4.13c-1.193 0-1.903 0-2.387.064-.258.032-.58.161-.742.226-.064.032-.064 0-.032-.032l9.42-9.581c.031-.032.064-.032.031.032-.064.161-.193.484-.225.742-.065.484-.065 1.194-.065 2.387zm8.774 28.968c-1.096-.71-1.677-1.645-1.903-2.226a4.705 4.705 0 0 1-.355-1.774c0-2.677 2.194-4.87 4.903-4.87.807 0 1.452.644 1.452 1.45 0 .55-.29 1-.742 1.259a1.863 1.863 0 0 1-.548.193c-.162.033-.774.097-1.065.355-.322.258-.58.678-.58 1.13 0 .483.193.935.516 1.257.58.581 1.355.904 2.193.904a3.965 3.965 0 0 0 3.968-3.968c0-1.968-1.323-3.71-3.064-4.484-.259-.129-.678-.226-1.065-.323a13.249 13.249 0 0 0-.968-.16c-1.355-.162-4.742-1.227-4.967-4.227 0 0-1 4.516-3 5.742a3.296 3.296 0 0 1-.742.258c-.29.065-.613.097-.71.097-3.258.194-6.71-.839-9.097-3.29 0 0-1.613-1.323-2.451-5.032C.87 19.29.484 17.677.258 16.16c-.097-.548-.129-.967-.161-1.355 0-1.58.968-2.645 2.193-2.806H8.871c1.129 0 1.774-.29 2.194-.677.548-.517.677-1.258.677-2.13V2.582v-.194c.161-1.193 1.226-2.193 2.806-2.193h.775c.322 0 .71.032 1.064.064.258.032.484.097.871.194 1.968.483 2.387 2.483 2.387 2.483s3.71.646 5.58.968c1.775.323 6.162.613 7 5.032 1.969 10.517.775 20.71.678 20.71-1.387 9.936-9.645 9.452-9.645 9.452-1.774 0-3.097-.58-3.968-1.194zm7.42-21.129c-1.065-.097-1.968.323-2.29 1.13-.065.16-.13.354-.097.45.032.098.096.13.16.162.388.194 1.033.29 1.969.387s1.58.162 2 .097c.064 0 .129-.032.193-.129s.032-.29.032-.452c-.129-.903-.903-1.516-1.967-1.645z" fill="#00a82d"/></g></svg>