<?xml version="1.0" encoding="UTF-8" standalone="no"?>
<!-- Created with Inkscape (http://www.inkscape.org/) -->

<svg
   version="1.1"
   id="svg1"
   width="256"
   height="256"
   viewBox="0 0 256 256"
   xmlns="http://www.w3.org/2000/svg"
   xmlns:svg="http://www.w3.org/2000/svg">
  <defs
     id="defs1" />
  <g
     id="g1">
    <path
       style="fill:#000000"
       d="M 117.5,255.42268 C 103.37028,253.45442 98.301033,252.41993 90.316253,249.87529 -27.992708,212.17172 -29.59518,47.13186 87.956891,6.8825523 204.73977,-33.103386 304.6429,105.78466 230.10449,204.5 204.05013,239.00524 155.91384,260.77372 117.5,255.42268 Z m 31.98643,-17.8893 c 71.26869,-13.64168 110.74251,-93.0393 78.72396,-158.34536 -40.81016,-83.2377136 -159.610616,-83.2377136 -200.42078,0 -40.321742,82.24152 31.445066,175.62063 121.69682,158.34536 z m -28.18788,-34.4929 c -8.47987,-5.17047 -8.13408,-17.97145 0.60757,-22.49193 6.13179,-3.17087 13.56039,-1.11151 17.13436,4.75 6.97143,11.43353 -6.3084,24.71336 -17.74193,17.74193 z M 75.872804,184.31629 c -8.96562,-5.56426 -7.304463,-19.72618 2.723807,-23.22138 10.019414,-3.49211 19.800592,6.28906 16.308477,16.30848 -2.608362,7.48379 -12.388546,11.03614 -19.032284,6.9129 z m 90.025076,-0.59889 c -12.14138,-8.15623 -2.33131,-27.4451 11.50551,-22.62249 10.11613,3.52583 11.69254,17.87292 2.55678,23.26955 -3.98455,2.35373 -10.00788,2.07657 -14.06229,-0.64706 z M 57.298549,139.04048 c -8.479867,-5.17047 -8.134078,-17.97145 0.607569,-22.49193 6.13179,-3.17087 13.560394,-1.11151 17.134366,4.75 6.971431,11.43353 -6.308408,24.71336 -17.741935,17.74193 z m 64.000001,0 c -5.62857,-3.43193 -7.82202,-10.60273 -5.08244,-16.61545 3.62833,-7.96332 56.4339,-47.539598 60.16708,-45.093522 6.23153,4.083051 6.26567,4.020313 -19.42997,35.702382 -23.83694,29.39033 -26.69098,31.47208 -35.65467,26.00659 z m 64,0 c -6.11697,-3.72973 -8.05384,-11.64944 -4.33903,-17.74193 5.05673,-8.29332 17.02423,-8.29332 22.08096,0 6.97143,11.43353 -6.3084,24.71336 -17.74193,17.74193 z M 77.269695,94.517413 C 68.308538,90.62175 67.557379,76.646251 76.039833,71.635541 87.163844,65.064427 100.62786,77.897442 94.005402,88.75914 90.108966,95.149805 83.754057,97.336345 77.269695,94.517413 Z M 121.29855,75.040484 c -6.11697,-3.729734 -8.05384,-11.649445 -4.33903,-17.741935 5.05673,-8.293324 17.02423,-8.293324 22.08096,0 6.97143,11.433527 -6.3084,24.713366 -17.74193,17.741935 z"
       id="path1" />
  </g>
</svg>
