<svg xmlns="http://www.w3.org/2000/svg" id="svg4230" viewBox="0 0 48 48"><defs><radialGradient id="radial-gradient" cx="-574.44" cy="716.31" r="22.67" fx="-574.44" fy="716.31" gradientTransform="matrix(0 1.97 2.12 0 -1515.27 1135.62)" gradientUnits="userSpaceOnUse"><stop offset="0" stop-color="#fff" stop-opacity=".1"/><stop offset="1" stop-color="#fff" stop-opacity="0"/></radialGradient><style>.cls-1,.cls-10,.cls-12,.cls-3,.cls-4,.cls-7,.cls-9{stroke-width:0}.cls-1,.cls-13,.cls-4,.cls-9{fill-rule:evenodd}.cls-1,.cls-10{fill:rgba(38,50,56,.2)}.cls-4{fill:rgba(255,255,255,.3)}.cls-3{fill:#1976d2}.cls-7{fill:#fff}.cls-13,.cls-9{fill:#8ab000}.cls-13{stroke-linecap:round}.cls-12{fill:#aeea00}.cls-13{stroke:#769616;stroke-width:2.5px}</style></defs><g id="layer1"><path id="path4192" d="M2.61 1.99c-.69-.02-1.27.52-1.28 1.22 0 .3.09.58.27.81l3.6 4.66c-.13.33-.2.69-.2 1.07v7c0 1.66 1.34 3 3 3h32c1.66 0 3-1.34 3-3v-7c0-.38-.08-.74-.21-1.07l3.6-4.66a1.254 1.254 0 0 0-1.05-2.03c-.37.02-.71.2-.93.5l-3.43 4.44c-.31-.11-.64-.18-.99-.18H8c-.35 0-.68.07-.99.18L3.58 2.49c-.23-.31-.59-.49-.97-.5M8 20.75c-.21 0-.41.02-.61.06A2.97 2.97 0 0 0 5 23.72v20.03c0 1.66 1.34 3 3 3h32c1.66 0 3-1.34 3-3V23.72c0-1.44-1.03-2.63-2.39-2.91-.2-.04-.4-.06-.61-.06z" style="stroke-width:0;fill-rule:evenodd;fill:rgba(38,50,56,.4)"/><g id="g5012"><g id="g4179"><path id="path4181" d="M45.41 2.5 41.16 8" class="cls-13"/><path id="path4183" d="M45.39 1.25c.45.01.76.19.98.45-2.03 2.41-2.37 2.79-5.14 6.22-1.02 1.32-2.08.64-1.06-.68l4.25-5.5c.23-.31.59-.48.97-.49" class="cls-4"/><path id="path4185" d="M46.38 1.71c.12.15.56.8.02 1.56l-4.25 5.5C41.13 10.09 41 8.16 41 8.16s3.73-4.51 5.38-6.44Z" class="cls-1"/><path id="path4187" d="M45.66 1.48c.44 0 .96.14.82.8-.1.5-4.66 6.07-4.66 6.07-1.02 1.32-2.49.68-1.47-.64l4.23-5.47c.26-.29.61-.74 1.08-.76" class="cls-9"/></g><g id="g4955"><path id="path4945" d="M2.59 2.5 6.84 8" class="cls-13"/><path id="path4947" d="M2.61 1.25c-.45.01-.76.19-.98.45C3.66 4.11 4 4.49 6.77 7.92c1.02 1.32 2.08.64 1.06-.68l-4.25-5.5c-.23-.31-.59-.48-.97-.49" class="cls-4"/><path id="path4951" d="M1.62 1.71c-.12.15-.56.8-.02 1.56l4.25 5.5C6.87 10.09 7 8.16 7 8.16S3.27 3.65 1.62 1.72Z" class="cls-1"/><path id="path4925" d="M2.34 1.48c-.44 0-.96.14-.82.8.1.5 4.66 6.07 4.66 6.07 1.02 1.32 2.49.68 1.47-.64L3.41 2.24c-.26-.29-.61-.74-1.08-.76Z" class="cls-9"/></g><g id="g4967"><rect id="rect4144" width="38" height="13" x="5" y="6" class="cls-12" rx="3" ry="3"/><rect id="rect4961" width="38" height="10" x="5" y="9" class="cls-10" rx="3" ry="3"/><rect id="rect4963" width="38" height="10" x="5" y="6" rx="3" ry="3" style="stroke-width:0;fill:rgba(255,255,255,.3)"/><path id="rect4965" d="M8 7h32c1.66 0 3 1.14 3 2.54v5.92c0 1.4-1.34 2.54-3 2.54H8c-1.66 0-3-1.14-3-2.54V9.54C5 8.14 6.34 7 8 7" class="cls-12"/></g><g id="g4979"><rect id="rect4146" width="38" height="26" x="5" y="20" class="cls-3" rx="3" ry="3"/><rect id="rect4973" width="38" height="13" x="5" y="33" class="cls-10" rx="3" ry="3"/><rect id="rect4975" width="38" height="13" x="5" y="20" rx="3" ry="3" style="stroke-width:0;fill:rgba(255,255,255,.2)"/><path id="rect4977" d="M8 21h32c1.66 0 3 1.24 3 2.77v18.46c0 1.53-1.34 2.77-3 2.77H8c-1.66 0-3-1.24-3-2.77V23.77C5 22.24 6.34 21 8 21" class="cls-3"/></g><g id="g4211"><path id="path4161" d="M24 26.75c-2.88 0-5.32 1.98-6.03 4.65h3.21c.55-.99 1.6-1.65 2.82-1.65 1.81 0 3.25 1.44 3.25 3.25s-1.44 3.25-3.25 3.25c-1.31 0-2.41-.75-2.93-1.85h-3.15c.64 2.77 3.13 4.85 6.08 4.85 3.43 0 6.25-2.82 6.25-6.25s-2.82-6.25-6.25-6.25" style="stroke-width:0;fill:#0d47a1"/><circle id="path4209" cx="24" cy="33" r="9.55" style="fill:none;stroke:#0d47a1;stroke-width:1.9px;stroke-linecap:round"/></g><g id="g4989"><ellipse id="circle4985" cx="14.38" cy="12.63" class="cls-10" rx="3.38" ry="3.87"/><circle id="path4859" cx="14.38" cy="13.13" r="3.37" class="cls-7"/></g><g id="g4171"><ellipse id="ellipse4175" cx="33.88" cy="12.63" class="cls-10" rx="3.38" ry="3.87"/><circle id="circle4177" cx="33.88" cy="13.13" r="3.37" class="cls-7"/></g></g><path id="path5128" d="M2.61 1.24c-.69-.02-1.27.52-1.28 1.22 0 .3.09.58.27.81l3.6 4.66C5.07 8.26 5 8.62 5 9v7c0 1.66 1.34 3 3 3h32c1.66 0 3-1.34 3-3V9c0-.38-.08-.74-.21-1.07l3.6-4.66a1.254 1.254 0 0 0-1.05-2.03c-.37.02-.71.2-.93.5l-3.43 4.44c-.31-.11-.64-.18-.99-.18H8c-.35 0-.68.07-.99.18L3.58 1.74c-.23-.31-.59-.49-.97-.5M8 20c-.21 0-.41.02-.61.06A2.97 2.97 0 0 0 5 22.97V43c0 1.66 1.34 3 3 3h32c1.66 0 3-1.34 3-3V22.97c0-1.44-1.03-2.63-2.39-2.91-.2-.04-.4-.06-.61-.06z" style="stroke-width:0;fill-rule:evenodd;fill:url(#radial-gradient)"/></g></svg>