<svg version="1.1" id="Layer_1" xmlns="http://www.w3.org/2000/svg" xmlns:xlink="http://www.w3.org/1999/xlink" x="0px" y="0px" style="enable-background:new 0 0 64 64;" xml:space="preserve" viewBox="0.57 17.1 62.75 28.22"><script xmlns=""/>
<style type="text/css">
	.st0{fill:#284564;}
</style>
<g>
	<path class="st0" d="M25.5,39.9c1.2-1.1,2.7-1.8,4.1-2.5c3.6-1.8,7.4-3,11.3-4.1c3-0.8,3.2-3.4,1.8-5.5c-0.5-0.7-1.2-1.4-1.8-2.1   c0.7,0.2,1.3,0.3,2,0.5c7.1,2.1,13.4,5.5,18.4,11.3c-1.6,2.2-1.6,1.6,2,3.3c-1.6,1.2-1.1,1-0.9,1.1c0,0.4,0,0.8,0,1.2   c-0.3,0-0.4,0.3-0.5,0.6c-0.4,0.7-0.9,1.3-1.6,1.6l0,0c0.2-1.6-0.8-2.4-2.1-2.9c-3.8-1.4-7.7-2.5-11.7-3c-3-0.4-6.1-0.7-9.2-0.6   c-3.7,0.1-7.3,0.5-10.8,1.2C26.1,39.9,25.8,39.9,25.5,39.9L25.5,39.9z M58.6,36.3c-0.5,1.1-0.1,2,1.2,2.5   C59.6,37.9,59.2,37.1,58.6,36.3z"/>
	<path class="st0" d="M48,26.8c-2.1-0.9-4.1-1.8-6.2-2.5c-4.4-1.7-9-2.8-13.7-3.4c-2.5-0.3-4.9-0.5-7.4-0.5   c-6.2,0.2-12.1,1.5-17.7,4c-0.8,0.3-1.5,0.8-2.4,0.9c7.8-4.7,16.3-7.3,25.3-8c12.9-1,24.4,2.1,29,5c-0.4,0.2-0.7,0.1-1,0   c-2.1-0.3-4.2-0.7-6.3-0.3c-1.5,0.3-2,1.1-1.3,2.5c0.3,0.6,0.7,1,1.2,1.5C47.6,26.2,47.9,26.4,48,26.8L48,26.8z"/>
	<path class="st0" d="M6,30.4c1.8-1.3,3.6-2.3,5.6-3.1c4.2-1.8,8.6-2.8,13.1-3.2c3.2-0.3,6.4-0.1,9.6,0.3c1,0.1,2,0.2,2.7,1.1   c1.1,1.3,2,2.6,2.3,4.3c0.1,0.4,0.1,0.9-0.1,1.3c-0.5,1.1-0.9,1.3-2,0.8c-4.2-2.2-8.7-3.6-13.5-4c-5.9-0.6-11.6,0.2-17.1,2.6   C6.5,30.4,6.3,30.6,6,30.4z"/>
	<path class="st0" d="M37,33.4c-3.7,0.8-7,2.2-10,4.2c-0.1-0.1-0.1-0.1-0.1-0.2c0.8-1.7-0.4-2.9-1.8-3.4c-3-1.1-6.1-1.1-9.2-0.3   c-1.1,0.3-2.2,0.5-3.5,0.9C17.7,30.8,33.1,30.1,37,33.4z"/>
	<path class="st0" d="M48,26.7c0.1,0,0.1,0.1,0.2,0.1c0,0,0,0.1,0,0.1C48.1,26.8,48,26.8,48,26.7C48,26.8,48,26.7,48,26.7z"/>
	<path class="st0" d="M5.7,30.7C5.7,30.7,5.8,30.6,5.7,30.7C5.8,30.6,5.8,30.7,5.7,30.7C5.8,30.7,5.7,30.7,5.7,30.7   C5.7,30.7,5.7,30.7,5.7,30.7z"/>
	<path class="st0" d="M5.7,30.7C5.7,30.7,5.7,30.7,5.7,30.7C5.7,30.7,5.7,30.7,5.7,30.7C5.7,30.7,5.7,30.7,5.7,30.7z"/>
	<path class="st0" d="M25.5,39.9C25.5,39.9,25.5,39.9,25.5,39.9C25.5,40,25.5,39.9,25.5,39.9C25.5,39.9,25.5,39.9,25.5,39.9   C25.5,39.9,25.5,39.9,25.5,39.9z"/>
	<path class="st0" d="M60.2,45.2C60.2,45.2,60.2,45.2,60.2,45.2C60.1,45.2,60.1,45.2,60.2,45.2C60.1,45.2,60.1,45.2,60.2,45.2   C60.2,45.2,60.2,45.2,60.2,45.2z"/>
</g>
</svg>