<svg xmlns="http://www.w3.org/2000/svg" xml:space="preserve" viewBox="0 26.98 512 458.03"><path d="M143.56 27.91c-36.79 3.45-62.81 14.31-80.74 33.76-17.77 19.11-25.76 44.46-25.76 81.59v15.07H0v68.2h37.04v258.48h83.36V226.53h57.26v-68.2H120.4v-9.94c.08-29.89 6.65-42.77 24.84-48.67 5.39-1.77 8.92-2.27 17.93-2.69l11.11-.42V26.98l-11.53.08c-6.4.09-14.98.43-19.19.85m56.83 239.04v218.06h82.43l.34-97.92c.34-106.09.08-101.29 4.88-115.94 10.52-31.83 37.64-49 74.09-46.81 38.56 2.27 62.39 26.77 66.43 68.28.42 4.88.84 47.32.84 100.36v92.03H512l-.34-105.41c-.25-95.39-.42-106.34-1.77-114.68-5.39-34.02-17.77-59.44-38.14-78.89-17.34-16.42-39.66-26.94-65.17-30.73-13.39-1.94-38.73-1.35-51.53 1.26-25.76 5.22-48.67 17.51-65.25 35.03l-6.9 7.24V48.88h-82.52v218.07z" style="fill:#6346f8"/></svg>