<svg xmlns="http://www.w3.org/2000/svg" id="Layer_1" data-name="Layer 1" viewBox="0 0 141.15 129.19"><defs><style>.cls-1{fill:#e50914}</style></defs><path d="M70.62 40.57v9.5A19.78 19.78 0 0 1 91 70.51h9.47a29.24 29.24 0 0 0-29.85-29.94m35.85-5.91a49.53 49.53 0 0 0-35.23-14.65h-.59v10.16a39.66 39.66 0 0 1 40.21 40.33h10.16v-.59a49.53 49.53 0 0 0-14.55-35.25" class="cls-1"/><path d="M0 70.48a70.575 70.575 0 0 1 141.15 0v7.38h-19v-7.3h9.39v-.08a61 61 0 0 0-121.91 0v.08h9.39v7.3h-19v-7.38Z" class="cls-1"/><path d="m75.69 64.36-5-54.66-5 54.66a8 8 0 1 0 10 0M8.99 95.92v8.74h19.48v8.17H8.99v15.82h-9v-40.9H31.1v8.17zm52.56 32.69-3.74-9.16H40.54l-3.74 9.16h-9.16l17.51-41.15h8.32l17.51 41.15h-9.4ZM49.18 98.26l-5.43 13.25h10.86Zm40.56 30.93a26 26 0 0 1-17.34-6.53l5.31-6.36c3.68 3 7.53 5 12.2 5 3.68 0 5.9-1.46 5.9-3.85v-.12c0-2.28-1.4-3.44-8.23-5.19-8.23-2.1-13.54-4.38-13.54-12.49v-.12c0-7.41 6-12.32 14.3-12.32a23.65 23.65 0 0 1 15.13 5.15l-4.67 6.77c-3.62-2.51-7.18-4-10.62-4s-5.21 1.53-5.21 3.53v.12c0 2.68 1.75 3.56 8.81 5.37 8.29 2.16 13 5.14 13 12.26v.12c-.04 8.13-6.23 12.66-15.04 12.66m38.98-33.15v32.57h-9V96.04h-12.43v-8.29h33.85v8.29z"/></svg>