<svg xmlns="http://www.w3.org/2000/svg" xml:space="preserve" viewBox="2.59 0.48 83.74 89.82"><path d="M83 79.9c7.4-30.1-25.1-26.6-22.2-29.6 2.9-6.2 1.7-13.8.7-18.2l-8.2-9.2c-5.8-3.3-20-.7-22.1-.7s-3.8-1.8-3.8-1.8l-6.5 11.5c.7 1.4.7 7.5.7 10.6 0 4.2 2.1 8.3 4.2 10.4.6.6 2.5 2.1 5.2 3.4-.7 2.1-.7 7.1-3.1 9.6-1.6 1.7-5.3 3.9-5.3 7-1.9.6-3.6 1.3-4.1 1.8-1 1-4.2 4.2-3.1 8.3 1 4.2 7.3 4.2 9.4 4.2h.2c2.2 2.1 6.5 2.1 8.1 2.1 1 0 3.6 0 6.2-1h.1c6.2 1 10.8 1.1 13.6-.3.6.2 1.3.3 2 .3 8.3.3 21.5 0 24 0 3.1 0 5.7.2 6.3-2.1.8-4.3-2.3-3.8-2.3-6.3" style="fill:#121212"/><path fill="#fff" d="m83 79.9-1-.2v.2zm2.1 6.2 1 .3zm-30.2 2.1v1zm-4.7-3.1 1-.3zm4.7-5.2.4 1zm21.4.8c.5-.3.6-1 .3-1.4-.3-.5-1-.6-1.4-.3zM27.4 20.3l.7-.7c-.2-.2-.6-.3-.9-.3s-.6.2-.8.5zm25.9 2.5.8-.7c-.1-.1-.2-.2-.3-.2zm8.2 9.2 1-.2c0-.2-.1-.3-.2-.5zm-40.6-.2-.9-.5-.3.5.2.5zm.6 10.5h-1zm0 .1h-1zm4.2 10.4-.7.7zm5.2 3.4.5-.9zm-3.1 9.6.8.7zm-9.4 8.9-.7-.7zM15.3 83l1-.3zm20.1-4.2c.6-.2.9-.7.7-1.3s-.7-.9-1.3-.7zm-8.6 0-.5-.9zm12.4 9.4.2-1h-.2zm0 0-.4-1zm3.9-1.4c.4-.4.4-1.1 0-1.5s-1.1-.4-1.5 0zm-18.2.4.7-.8zM27 72.5c.6-.2.9-.7.7-1.3s-.7-.9-1.3-.7zm-4.4.3-.3-1zm37.5-23.3 1.5 1.5zm0 0c-.2.2-.3.4-.4.7s-.1.7.1 1c.1.3.4.5.5.6l.6.3c.7.3 1.8.6 3 .8 2.5.6 6 1.3 9.3 2.9s6.3 3.9 8.2 7.6c1.8 3.7 2.5 8.8.7 16.2l2 .5c1.9-7.7 1.3-13.4-.8-17.6s-5.6-6.8-9.1-8.5-7.2-2.5-9.7-3.1c-1.3-.3-2.2-.5-2.7-.7-.1 0-.2-.1-.2-.1s.1 0 .1.2c.1.2.1.4 0 .5 0 .1-.1.2-.1.2zm24 36.4c-.1.4-.2.6-.4.7-.2.2-.5.3-1 .4-1 .2-2.2.2-3.9.2v2.1c1.5 0 3.1.1 4.3-.2.6-.1 1.3-.4 1.8-.8.6-.5.9-1.1 1.1-1.8zm-5.3 1.3c-2.6 0-15.6.3-23.9 0l-.1 2.1c8.4.3 21.6 0 24 0zm-27.6-2.4c-.1-.4-.1-.7-.1-1 .1-.3.2-.6.5-.9.6-.7 1.7-1.3 3.7-2l-.7-2c-2 .7-3.5 1.6-4.5 2.6-.5.5-.8 1.2-1 1.8-.1.7-.1 1.4.1 2.1zm4-4c1.5-.5 3.2-.7 5.2-.7s4 .3 6 .6 3.9.6 5.6.7h2.3c.7-.1 1.4-.3 2-.7L75.1 79c-.2.1-.5.3-1.1.3-.5.1-1.2.1-1.9 0-1.5-.1-3.4-.4-5.4-.6-2-.3-4.2-.6-6.2-.6-2.1-.1-4.2.1-6 .8zm26.8-.9c0 1.8 1.2 2.7 1.7 3.2.3.3.4.6.5.9.1.4.1.9-.1 1.9l2 .5c.3-1.2.3-2.1.1-2.9s-.6-1.4-1-1.8c-.8-.9-1.2-1.1-1.2-1.8zM27.4 20.3l-.8.7.1.1c.1.1.2.1.3.2.2.2.5.4.9.7.8.5 1.9 1 3.3 1v-2c-.8 0-1.5-.3-2.2-.7-.3-.2-.6-.4-.7-.5l-.2-.2zm3.8 2.8c.6 0 2-.2 3.6-.4 1.7-.2 3.8-.4 6.1-.5 2.2-.1 4.6-.1 6.7.1s3.9.7 5.2 1.4l1-1.8c-1.6-.9-3.8-1.4-6-1.6-2.3-.2-4.7-.2-7-.1s-4.5.3-6.2.5c-1.8.2-2.9.4-3.4.4zm29.3 9.1c1 4.5 2.2 11.7-.6 17.6l1.9.9c3.1-6.5 1.8-14.4.7-18.9zm-.6 17.6c0 .1-.1.1-.1.2l1.9.9c0-.1.1-.1.1-.2zm-40-17.6c.1.2.2.6.3 1.5.1.8.2 1.7.2 2.8.1 2.1.1 4.3.1 5.8h2.1c0-1.5 0-3.8-.1-5.9 0-1.1-.1-2.1-.2-2.9s-.2-1.6-.5-2.1zm.6 10.1 2.1.1zm0 .1c0 4.5 2.2 8.9 4.5 11.2l1.5-1.5c-1.9-1.9-3.9-5.8-3.9-9.7zm1.3-10.1 6.5-11.5-1.8-1L20 31.3zm8.1 23.6c-.2.6-.3 1.4-.5 2.2-.1.8-.3 1.7-.5 2.6-.4 1.8-1 3.4-2 4.5l1.5 1.4c1.4-1.5 2.1-3.6 2.5-5.5.2-.9.4-1.9.5-2.7s.3-1.4.4-1.9zM27 65.1c-.4.4-.8.8-1.4 1.3s-1.2 1-1.8 1.7c-1.2 1.2-2.3 2.8-2.3 4.8h2.1c0-1.1.7-2.2 1.7-3.3.5-.5 1.1-1 1.7-1.5s1.1-1 1.6-1.4zm-9.3 8.8c-1 1-4.6 4.5-3.4 9.3l2-.5c-.9-3.5 1.8-6.3 2.9-7.3zm-3.4 9.3c.7 2.6 3 3.8 5 4.4 2.1.6 4.3.6 5.3.6v-2.1c-1 0-3 0-4.8-.5s-3.2-1.4-3.6-2.9zm20.5-6.4c-1.1.3-2.7.4-4.4.5-.8 0-1.6.1-2.3.2-.6.1-1.4.2-1.9.4l.9 1.9c.1-.1.5-.2 1.2-.2.6-.1 1.4-.1 2.2-.2 1.6-.1 3.5-.2 4.8-.6zm-8.5 1.1c-.6.3-1.9.9-2.8 2.1-1 1.2-1.5 3-.9 5.3l2-.5c-.4-1.8 0-2.9.5-3.5.6-.8 1.4-1.2 2.1-1.5zm12.8 11.3c3.2.5 5.9.8 8.3.8q3.6 0 6-1.2l-1-1.9c-1.2.6-2.9 1-5.1 1s-4.8-.2-7.9-.7zM25 53.5c.7.7 2.7 2.2 5.5 3.6l.9-1.9c-2.6-1.3-4.4-2.7-4.9-3.2zm5.4 3.6c4.7 2.4 12 4.6 19.6 1.8l-.7-2c-6.8 2.5-13.5.5-17.9-1.7zm22.1-33.6 8.2 9.2 1.6-1.4-8.3-9.2zM22.2 71.9c-1 .3-1.9.7-2.6 1-.4.2-.7.3-1 .5-.3.1-.6.3-.8.6l1.5 1.5.1-.1c.1 0 .1-.1.3-.1.2-.1.5-.3.9-.4.7-.3 1.6-.6 2.5-.9zM33 90.3c1 0 3.8 0 6.6-1.1l-.8-1.9c-2.4 1-4.8 1-5.8 1zm6.6-1.1c1.2-.5 2.5-1.2 3.6-2.3l-1.5-1.5c-.8.8-1.8 1.4-2.9 1.9zm-.4-2-.1 2.1h.1zm15.7 0c-.6 0-1.2-.1-1.7-.3l-.7 2c.7.2 1.5.4 2.3.4zm-1.7-.3c-.9-.3-1.7-.9-2-2.1l-2 .6c.6 1.8 1.8 2.9 3.3 3.4zm-30.6-1.6c.3 1.1.8 1.9 1.5 2.6l1.4-1.5c-.4-.4-.8-.9-.9-1.6zm1.5 2.6c1.3 1.3 3.2 1.8 4.8 2.1s3.2.3 4 .3v-2.1c-.8 0-2.2 0-3.7-.2s-2.9-.7-3.7-1.6zm.6.3h.2v-2.1h-.2zm1.8-17.7c-1.1.3-2.7.8-4.2 1.3l.7 2c1.5-.5 3.1-1 4.1-1.3zm-4.3 1.3.6 2h.1z"/><path d="M19.3 57.4c4.6-1.9 12.9-4.4 20.6-4.6m12 2.5c-2.3-1.4-5.1-2.2-8.2-2.4" style="fill:none;stroke:#fff;stroke-width:1.0417;stroke-linecap:round;stroke-miterlimit:8.3333"/><path d="m5 52 9.2-3.7c1.3-.5 2.7.1 3.2 1.4l3.7 9.2c.5 1.3-.1 2.7-1.4 3.2l-9.2 3.7c-1.3.5-2.7-.1-3.2-1.4l-3.7-9.2C3.1 54 3.7 52.5 5 52z" style="fill:#f5844e;stroke:#fff;stroke-width:1.6598;stroke-miterlimit:8.3333"/><path fill="#fff" d="m8.9 58.1-.6.2c-.3.1-.7 0-.9-.4-.1-.3 0-.7.4-.9l.6-.2c2.7-1.1 5.8.2 6.9 2.9l.2.6c.1.3 0 .7-.4.9-.3.1-.7 0-.9-.4l-.2-.6c-.7-1.9-3-2.9-5.1-2.1"/><path fill="#fff" d="m7.8 55.1-.7.3c-.4.1-.8 0-.9-.4s0-.8.4-.9l.7-.3c4.2-1.7 9.4.5 11.1 4.7l.3.7c.1.4 0 .8-.4.9s-.8 0-.9-.4l-.3-.7c-1.5-3.5-5.8-5.3-9.3-3.9"/><circle cx="10.6" cy="61.4" r=".8" fill="#fff" style="stroke:#fff;stroke-width:1.6598;stroke-miterlimit:8.3333"/><path d="M28.8 38.2c0 .4 0 .9.1 1.4m0 0c.3 2.1 1.4 4.9 4.1 4.9 3.3 0 2.8-2.8 2.1-4.2-1.7-.2-5.2-.5-6.2-.7zm27.9-.5c0 .4-.1.9-.3 1.4m0 0c-.6 2.1-1.9 4.7-4.6 4.4-3.3-.4-2.4-3.1-1.6-4.4 1.7 0 5.3.2 6.2 0z" style="fill:none;stroke:#fff;stroke-width:2.0833;stroke-linecap:round;stroke-miterlimit:8.3333"/><path d="M38.1 52c2.4 1.6 5 1.6 7.7.2" style="fill:none;stroke:#fff;stroke-width:1.7708;stroke-linecap:round;stroke-miterlimit:8.3333"/><path d="M25.7 14.3c-2.7-3.7-3.9-7-4.2-8.4-2.8-11-.8 1.8-1.6 5.2-.9 3.5-1.9 6.7-2.1 11.2-.3 6.6 2.2 9.7 4.6 9.8 2.4-.2 3.2-2.1 4.1-5 .8-2.7 1.4-9.7-.8-12.8zm30.9.5c1.6-1.8 2.8-4.7 3.3-6 3.2-9.8 1.2-9.9 2.4 1.7.2 2.3 1 4.1 1.7 9.9 1 8.9-2.7 13.6-5.9 13.2-2.3-.3-3.9-2.4-4.4-7.4-.5-5.1.6-8.8 2.9-11.4z" style="fill:#121212;stroke:#fff;stroke-width:2.0833;stroke-miterlimit:8.3333"/></svg>