<svg xmlns="http://www.w3.org/2000/svg" width="682.667" height="682.667" version="1.0" viewBox="0 0 512 512"><path d="M249.8 146c-2.1.5-5.5 2.1-7.5 3.4-2.1 1.3-43.3 41.9-91.5 90.3l-87.7 87.8-1.6 5.9c-3.1 10.6-.3 20 7.9 27.3 7.6 6.7 17.4 8.2 26.8 3.9 4.4-2 13.8-10.9 58.1-55.3l52.8-52.9-1.2-6.9c-6-34.6 23.6-64.7 58.2-59.1 28 4.5 46.9 31.1 42 59.1l-1.2 6.9 52.8 52.9c44.3 44.4 53.7 53.3 58.1 55.3 9.4 4.3 19.2 2.8 26.8-3.9 8.2-7.3 11-16.7 7.9-27.3l-1.6-5.9-88.6-88.6c-59.3-59.3-89.9-89.3-92.7-90.7-4.9-2.5-12.7-3.4-17.8-2.2z"/><path d="M248.6 220.5c-14.8 5.2-18.4 26.1-6.2 36.2 14.3 11.7 34.6 2.2 34.6-16.3 0-6.8-2-11.2-7-15.8-6-5.4-13.7-6.9-21.4-4.1zM202.2 296.3c-10 10-18.2 18.7-18.2 19.2s8 9 17.7 18.7l17.7 17.7 11.6-11.3c12.1-11.9 16.8-14.6 25-14.6s12.9 2.7 25 14.6l11.6 11.3 17.7-17.7c9.7-9.7 17.7-18.2 17.7-18.7 0-.6-8.2-9.2-18.3-19.3l-18.3-18.3-6.7 4.5c-9 6.1-17.5 8.6-28.7 8.6s-19.7-2.5-28.6-8.5c-3.7-2.5-6.7-4.5-6.8-4.5-.1 0-8.3 8.2-18.4 18.3z"/></svg>