<svg xmlns="http://www.w3.org/2000/svg" xml:space="preserve" id="Layer_1" x="0" y="0" version="1.1" viewBox="0 0 512 512"><style>.st0{fill:#ff0090}.st0,.st1{fill-rule:evenodd;clip-rule:evenodd}</style><path d="M184.2 13c25.2 13.2 49.8 27.6 73.9 43 5.1 4 10.1 8 15.2 11.9 2.1 3.7 3.7 7.5 4.9 11.5 6.1 6.3 12.8 11.8 20.1 16.4-.6.8-1.4 1-2.5.8H281c.8 4.6 2.5 9 4.9 13.1-1 .8-2.1.6-3.3-.4-23.1-16.1-44.1-34.7-63.2-55.8-12-9.8-24.1-19.7-36.1-29.5-10-6.7-20.3-12.7-31.2-18-1-.5-2-.4-2.9.4q-1.5 2.7-1.2 5.7c-8.3 24-13 48.7-13.9 74.2.1 13.6 2.1 26.8 6.2 39.8 4.2 13.1 9 25.9 14.4 38.6v.8c-16.2 22.8-33 45.2-50.4 67.3-13.5 17.6-24.4 36.8-32.8 57.4-7.2 19.6-9.6 39.9-7.4 60.7q4.35 74.7 60.3 123h-2.5c-2.2-1.1-4.1-2.5-5.7-4.1-.4-1.1-1.2-1.7-2.5-1.6-.4-1.1-1.2-1.7-2.5-1.6-.6-1.4-1.7-2.2-3.3-2.5-.4-1.1-1.2-1.7-2.5-1.6-.6-1.4-1.7-2.2-3.3-2.5-.9-1.7-2.2-2.8-4.1-3.3-.9-1.7-2.2-2.8-4.1-3.3-20.9-16.7-38.4-36.4-52.4-59-13.8-46.2-8.7-90.2 15.2-132.1 5-8.6 10.2-17.1 15.6-25.4 17.9-23.2 36.3-46.2 55-68.9 3-3.9 5.7-8 8.2-12.3.5-1.4.5-2.7 0-4.1-6-6.9-10.1-14.8-12.3-23.8-5.1-31.2-2.8-61.9 7-91.9 4.3-11.7 8.4-23.5 12.3-35.3 7-1.3 13.8-.6 20.5 2.1 7 3.5 14.1 6.9 21.2 10.3" class="st0" fill="#ffffff"/><path d="M345.8 18.7c-12.4 17.3-23.7 35.4-34 54.1-3.9 7.7-7 15.6-9.4 23.8-1.5.1-2.8-.2-4.1-.8-7.3-4.6-14-10.1-20.1-16.4-1.2-4-2.8-7.8-4.9-11.5-5.1-4-10.1-8-15.2-11.9-24-15.4-48.6-29.8-73.8-43.1C218.4 3.3 253.2.4 288.5 4.3q29.25 4.5 57.3 14.4" class="st1" fill="#ffffff"/><path d="M295.8 96.6c2 .8 4.2 1.1 6.6.8.7.5 1.2 1.2 1.6 2.1q8.85 4.2 18 7.8c3.9-8.6 7.4-17.4 10.7-26.3 3-5.1 5.1-10.6 6.6-16.4 4.9-9.8 9.8-19.6 14.8-29.5 1.8-1.7 2.4-3.6 1.6-5.7.5-.8 1.1-1.6 1.6-2.5.8-.7 1.3-1.5 1.6-2.5v-1.6c.5 0 .8-.3.8-.8v-.8c1.9-2.7 3.8-5.5 5.7-8.2 4.5 6.5 8.4 13.3 11.5 20.5 6 15.6 9.6 31.7 10.7 48.4 0 5.4-1.5 10.3-4.5 14.8q-7.05 8.85-13.5 18c-.8-1.1-1-2.5-.8-4.1.4-10.4.9-20.8 1.6-31.2-.3-1.9-.5-3.8-.8-5.7-5.6 6.4-9.6 13.8-11.9 22.1-4.2 14.5-6.9 29.3-8.2 44.3 4.5 5.6 8.3 11.6 11.5 18 8.1 7.3 16.4 14.2 25 20.9l49.2 24.6c1.3.9 1.8 2.2 1.6 3.7-.5 1.1-1.1 2.2-1.6 3.3-25.6.1-50.5-4.1-74.6-12.7-7.5-3-15.2-5.7-23-8.2-.7-.9-1.5-1.6-2.5-2.1-12.9-26.9-34.2-42.4-64-46.3-7.4-.5-14.8-.5-22.1 0-6.2 1.2-11.4 4.1-15.6 8.6q14.4 6.45 29.1 12.3c.3-1.6.5-3.3.8-4.9 12.8.2 25 3.4 36.5 9.4 14.4 6.9 26.4 16.6 36.1 29.1 4.5 4.9 6.9 10.6 7.4 17.2-23.1-5.7-46.4-11.1-69.7-16-41.4-3.6-77.4 8.6-107.9 36.5-12.5 15.6-21.5 33.1-27.1 52.5-.3 1.1-1 2-2.1 2.5-4.5-10.1-7.1-20.8-7.8-32-2-32.6 6.5-62.2 25.4-88.6.4-.8.5-1.6.4-2.5v-.8c9.2-8 18.1-16.5 26.7-25.4-1.6-8.8-3.6-17.5-5.7-26.3-.4-4.4-.5-8.8-.4-13.1 2.8 6.2 6.5 12 11.1 17.2 4.8 4.3 9.6 8.5 14.4 12.7.8.4 1.6.5 2.5.4v-5.7c6.2-3.7 12.4-7.5 18.5-11.5.5-1.4.5-2.7 0-4.1C209 79 191.3 52.6 168.7 29.6c-4.6-4.2-9.6-8-14.8-11.5-2-2-3.9-4.1-5.7-6.2q-.3-3 1.2-5.7c.9-.8 1.8-1 2.9-.4q16.2 8.1 31.2 18c12 9.8 24.1 19.7 36.1 29.5 19 21.1 40.1 39.7 63.2 55.8 1.1 1 2.2 1.2 3.3.4-2.5-4.1-4.1-8.5-4.9-13.1 4.7.2 9.7.2 14.6.2" style="fill-rule:evenodd;clip-rule:evenodd;fill:#040404"/><path d="M359.8 21.2v.8c-.5 0-.8.3-.8.8v.8c-.5 0-.8.3-.8.8-.8.6-1 1.4-.8 2.5-.5.8-1.1 1.6-1.6 2.5-1.1 1.6-1.7 3.6-1.6 5.7-5 9.9-9.9 19.7-14.8 29.5-2.3 3.9-4.3 8-6.2 12.3-.4 1.4-.5 2.7-.4 4.1-3.2 8.9-6.8 17.6-10.7 26.3-6.1-2.4-12.1-4.9-18-7.8-.4-.8-1-1.5-1.6-2.1v-.8c2.4-8.2 5.6-16.1 9.4-23.8 10.3-18.8 21.7-36.8 34-54.1 2.7-5.5 7.1-8.8 13.1-9.8 2 .3 3.6 1.1 4.9 2.5-1.4 3.2-2.8 6.5-4.1 9.8" class="st0" fill="#ffffff"/><path d="M148.1 12.1c1.8 2.1 3.7 4.1 5.7 6.2 5.2 3.4 10.1 7.3 14.8 11.5 22.6 23 40.3 49.4 52.9 79.2.5 1.4.5 2.7 0 4.1-6.1 4-12.2 7.8-18.5 11.5-1.1-5-3.2-9.7-6.2-13.9-4.7-5.3-9.9-9.9-15.6-13.9-2.6-3-4.8-6.3-6.6-9.8-.3 4.4-.1 8.8.4 13.1-.1 4.4 0 8.8.4 13.1 2.2 8.8 4.1 17.5 5.7 26.3-8.5 9-17.4 17.4-26.7 25.4-5.4-12.6-10.1-25.5-14.4-38.6-4-13-6.1-26.2-6.2-39.8 1.4-25.7 6-50.4 14.3-74.4" style="fill-rule:evenodd;clip-rule:evenodd;fill:#fdfdfd"/><path d="M358.1 24.4h.8c-.3 1-.9 1.8-1.6 2.5-.2-1 .1-1.9.8-2.5m-2.4 5c.7 2.1.2 4-1.6 5.7-.1-2.2.4-4.1 1.6-5.7" class="st0" fill="#ffffff"/><path d="M377 33.5c71.2 39.8 114.5 99.9 130 180.5 1.5 10 2.8 19.8 3.7 29.5v27.9c-5 71.5-34.2 130.9-87.8 178 2.8-5.9 4.2-12.2 4.1-18.9-3.4-35.8-19.3-64.7-47.6-86.5-13-8.7-27.2-14.7-42.7-18-7.1-1.5-14.2-2.9-21.3-4.1q26.85-21.6 59.1-34.5c22.4-6.2 43.8-14.9 64-26.3 1.6-1.4 3-2.9 4.1-4.5 12.9-1 23.9-6 33.2-14.8 16.9-21.9 12.1-36.2-14.4-43.1-4.2-.6-8.3-.3-12.3.8q-6.6 3.3-12.3 7.8c.2-1.5-.4-2.8-1.6-3.7L386 179c-8.6-6.7-16.9-13.6-25-20.9-3.2-6.5-7-12.5-11.5-18 1.3-15 4-29.8 8.2-44.3 2.3-8.4 6.3-15.8 11.9-22.1.3 1.9.5 3.8.8 5.7-.7 10.4-1.3 20.8-1.6 31.2-.9 1.8-1.1 3.7-.4 5.7.6-.4 1-1 1.2-1.6q6.45-9.15 13.5-18c3-4.5 4.5-9.4 4.5-14.8-1-16.7-4.6-32.9-10.6-48.4m-246.9 2.4c-9.7 30-12.1 60.6-7 91.9 2.2 9 6.3 16.9 12.3 23.8.5 1.4.5 2.7 0 4.1-2.5 4.3-5.3 8.4-8.2 12.3-18.7 22.7-37 45.7-55 68.9-5.4 8.3-10.6 16.8-15.6 25.4-23.9 41.8-29 85.9-15.2 132.1Q-9.45 313.7 4.2 218.9c14-80.6 55.9-141.6 125.9-183" class="st1" fill="#ffffff"/><path d="M339.3 64.6c-1.4 5.9-3.6 11.3-6.6 16.4-.1-1.4 0-2.7.4-4.1 1.8-4.3 3.9-8.4 6.2-12.3m-136.2 59.9v5.7c-.9.1-1.7 0-2.5-.4-4.8-4.3-9.6-8.5-14.4-12.7-4.5-5.3-8.2-11-11.1-17.2-.5-4.4-.7-8.8-.4-13.1 1.8 3.6 4 6.8 6.6 9.8 5.7 4 10.9 8.7 15.6 13.9 3 4.3 5 9 6.2 14" class="st0" fill="#ffffff"/><path d="M298.2 95.8c1.3.7 2.6.9 4.1.8v.8c-2.4.3-4.5 0-6.6-.8 1.1.2 1.9 0 2.5-.8" style="fill-rule:evenodd;clip-rule:evenodd;fill:#9c8590"/><path d="M368.8 110.6c-.2 1.6.1 3 .8 4.1-.2.7-.6 1.2-1.2 1.6-.7-2.1-.5-4 .4-5.7" style="fill-rule:evenodd;clip-rule:evenodd;fill:#626262"/><path d="M335.2 187.7c.4 2.1 1 4.1 1.6 6.2 0 .9-.3 1.6-.8 2.1-9.7-12.5-21.7-22.2-36.1-29.1-11.5-6.1-23.7-9.2-36.5-9.4-.3 1.6-.5 3.3-.8 4.9-9.8-3.9-19.6-8-29.1-12.3 4.2-4.5 9.4-7.4 15.6-8.6 7.4-.5 14.8-.5 22.1 0 29.8 3.8 51.1 19.3 64 46.2" class="st0" fill="#ffffff"/><path d="M154.7 165.5c.1.9 0 1.7-.4 2.5-18.9 26.4-27.4 55.9-25.4 88.6.7 11.2 3.3 21.9 7.8 32 1-.5 1.7-1.3 2.1-2.5 5.6-19.4 14.6-36.9 27.1-52.5 30.5-27.9 66.5-40.1 107.9-36.5 23.4 4.9 46.6 10.3 69.7 16-.4-6.6-2.9-12.4-7.4-17.2.5-.5.8-1.2.8-2.1-.7-2-1.2-4.1-1.6-6.2.9.5 1.8 1.2 2.5 2.1 7.8 2.5 15.4 5.2 23 8.2 24.1 8.6 49 12.8 74.6 12.7-4.5 12.4-2.9 23.9 4.9 34.5-1.6.5-3.3 1.1-4.9 1.6q-13.8 1.95-27.9 1.2c-16.8-1.6-33.5-3.8-50-6.6-51.6-8.6-100 .1-145.2 26.3-38.7 25.9-63.7 61.6-75.1 107.1-9 43-.3 81.9 26.3 116.5 2.5 1.8 4.8 3.7 7 5.7-16-5.1-31.1-12.3-45.1-21.3 1.9-.7 1.6-1.2-.8-1.6C87 441.8 66.9 400.7 64 350.9c-2.2-20.8.2-41.1 7.4-60.7 8.4-20.7 19.4-39.8 32.8-57.4 17.5-22 34.3-44.5 50.5-67.3" style="fill-rule:evenodd;clip-rule:evenodd;fill:#feffff"/><path d="M442.6 256.6c-9.3.8-18.6 1-27.9.4-17.3-2-34.5-4.5-51.7-7.4-8.7-1.2-17.4-1.5-26.3-.8-21.2 1.7-41.4 6.9-60.7 15.6-18.8 8.8-36.6 19.1-53.3 31.2-14.9 13.5-27.6 28.7-38.1 45.5q-16.95 30.3-15.6 64.8c2.4 23.4 11.4 43.6 27.1 60.7q21.45 22.65 51.3 32.4c13 3.2 26.1 6 39.4 8.2 1.9.2 3.6.9 4.9 2.1-41.5 6.1-82 2-121.4-12.3-2.2-2-4.5-3.9-7-5.7-26.5-34.6-35.3-73.4-26.3-116.5 11.3-45.4 36.3-81.1 75.1-107.1 45.2-26.1 93.6-34.9 145.2-26.3 16.6 2.8 33.3 5 50 6.6 9.4.5 18.6.1 27.9-1.2 2 .3 3.9 0 5.7-.8-.1-.5-.4-.8-.8-.8-7.8-10.6-9.5-22-4.9-34.5.5-1.1 1.1-2.2 1.6-3.3q5.7-4.5 12.3-7.8c4-1.1 8.1-1.4 12.3-.8 26.5 6.8 31.3 21.2 14.4 43.1-9.2 8.7-20.3 13.6-33.2 14.7" class="st0" fill="#ffffff"/><path d="M440.2 245.1c.4.1.7.3.8.8-1.9.8-3.8 1.1-5.7.8 1.6-.5 3.2-1 4.9-1.6" class="st0" fill="#ffffff"/><path d="M442.6 256.6c-1.1 1.6-2.5 3.1-4.1 4.5-20.2 11.3-41.6 20.1-64 26.3q-32.25 12.75-59.1 34.5c7.2 1.2 14.3 2.6 21.3 4.1 15.4 3.3 29.6 9.4 42.7 18 28.3 21.9 44.1 50.7 47.6 86.5.1 6.7-1.3 13-4.1 18.9-37.5 33.2-81.2 53.2-131.3 59.9-1.4-1.1-3-1.8-4.9-2.1-13.2-2.2-26.4-5-39.4-8.2-19.9-6.5-36.9-17.3-51.3-32.4-15.6-17.1-24.7-37.4-27.1-60.7q-1.35-34.5 15.6-64.8c10.6-16.8 23.3-32 38.1-45.5 16.7-12 34.5-22.4 53.3-31.2 19.3-8.7 39.5-13.9 60.7-15.6 8.8-.7 17.6-.4 26.3.8 17.2 2.9 34.4 5.4 51.7 7.4 9.4.5 18.7.4 28-.4" style="fill-rule:evenodd;clip-rule:evenodd;fill:#010101"/><path d="M271.2 410c26.6-2.2 48.6 6.8 66 27.1 9.4 11 12.6 23.6 9.8 37.7q-5.55-18-15.6-33.6c-13.8-16.4-31.5-23.1-52.9-20.1-8.1 2.5-15.7 6.2-22.6 11.1-.9-11.7 4.1-19 15.3-22.2" style="fill-rule:evenodd;clip-rule:evenodd;fill:#f7f7f7"/><path d="M94 453.5c1.9.5 3.2 1.6 4.1 3.3-1.9-.5-3.2-1.6-4.1-3.3" style="opacity:.7;fill-rule:evenodd;clip-rule:evenodd;fill:#4b0a2b"/><path d="M98.1 456.7c1.9.5 3.2 1.6 4.1 3.3-1.9-.5-3.2-1.6-4.1-3.3" style="opacity:.6;fill-rule:evenodd;clip-rule:evenodd;fill:#260a17"/><path d="M102.2 460c1.6.2 2.7 1 3.3 2.5-1.6-.2-2.7-1-3.3-2.5" style="opacity:.9;fill-rule:evenodd;clip-rule:evenodd;fill:#1d0410"/><path d="M105.5 462.5c1.3-.1 2.1.5 2.5 1.6-1.3.1-2.1-.5-2.5-1.6" style="opacity:.7;fill-rule:evenodd;clip-rule:evenodd;fill:#200313"/><path d="M107.9 464.1c1.6.2 2.7 1 3.3 2.5-1.6-.2-2.7-1-3.3-2.5" style="opacity:.9;fill-rule:evenodd;clip-rule:evenodd;fill:#31091c"/><path d="M111.2 466.6c1.3-.1 2.1.5 2.5 1.6-1.3.1-2.1-.5-2.5-1.6" style="opacity:.9;fill-rule:evenodd;clip-rule:evenodd;fill:#3d0c24"/><path d="M113.7 468.2c1.3-.1 2.1.5 2.5 1.6-1.3.1-2.1-.4-2.5-1.6" class="st0" fill="#ffffff"/><path d="M121.9 474h2.5c.3.5.5 1.1.8 1.6-1.4-.1-2.5-.6-3.3-1.6" style="opacity:.5;fill-rule:evenodd;clip-rule:evenodd;fill:#0d0006"/><path d="M124.3 474c2.4.4 2.7 1 .8 1.6-.2-.5-.5-1.1-.8-1.6" class="st0" fill="#ffffff"/></svg>