<svg xmlns="http://www.w3.org/2000/svg" xml:space="preserve" id="svg1205" x="0" y="0" version="1.1" viewBox="0 0 512 512"><style>.st0{fill:#092032}</style><g id="g1203" transform="matrix(.1 0 0 -.1 -51 212.7)"><path id="path1181_00000047756638480174617320000013855018372067261630_" d="M2818.3 2024.2c-561.8-125.2-1138.9-543.5-1401.4-1013.7l-82.4-152.7 235.1 134.3c632 360.3 1367.9 412.2 1951 131.3 238.2-109.9 522.1-409.1 650.3-674.8C4293 192.3 4409-219.9 4436.5-488.6c18.3-213.7 21.4-216.8 79.4-164.9 91.6 82.4 265.6 470.2 314.5 702.2C4955.6 641 4809 1163.1 4406 1547.8c-445.8 427.6-1025.9 601.6-1587.7 476.4" class="st0"/><path id="path1183_00000115504927471324570640000012141905541657127870_" d="M1535.9 641.1c-119.1-116-277.8-262.6-348.1-326.7C800.1-24.5 510-656.5 510-1163.4c0-241.2 91.6-619.8 204.6-851.9 247.3-509.9 897.7-858 1685.4-903.8 287-18.3 290.1-18.3 216.8 36.6-210.7 149.6-436.6 400-525.2 583.2-85.5 174-100.8 238.2-109.9 494.6-12.2 259.5-3.1 317.5 61.1 479.4C2177.1-995.5 2345.1-849 2711.5-736c329.8 100.8 458 235.1 577.1 616.8 67.2 219.8 45.8 290.1-100.8 311.4-625.9 91.6-796.9 161.8-1099.2 461-122.1 122.1-229 198.5-268.7 198.5-39.7.1-149.7-82.3-284-210.6m699.2-259.5c51.9-36.6 51.9-55 18.3-229-33.6-164.9-30.5-201.5 12.2-265.6 76.3-119.1 198.5-97.7 354.2 64.1 134.3 137.4 171 152.7 354.2 143.5 70.2-6.1 94.7-18.3 82.4-48.9-18.3-48.9 64.1-140.4 128.2-140.4 55 0 55-15.3-9.2-116-164.9-265.6-396.9-403-687-403-430.5 3.1-705.3 338.9-622.9 772.5 42.9 222.8 220 332.7 369.6 222.8" class="st0"/><path id="path1191_00000049219488066479275850000014085728365102302390_" d="M5150.9-.1c0-33.6-39.7-180.1-88.5-323.6-235.1-705.3-784.7-1285.4-1377-1465.6-314.5-91.6-1059.5-91.6-1380.1 3.1-155.7 45.8 24.4-314.5 293.1-586.2 436.6-439.7 980.1-589.3 1599.9-439.7 1120.5 268.7 1673.2 1215.2 1331.2 2289.9-103.8 329.8-378.6 708.4-378.6 522.1" class="st0"/></g></svg>