<svg version="1.1" id="Layer_1" xmlns:x="ns_extend;" xmlns:i="ns_ai;" xmlns:graph="ns_graphs;" xmlns="http://www.w3.org/2000/svg" xmlns:xlink="http://www.w3.org/1999/xlink" x="0px" y="0px" viewBox="0 0 95.5 91.5" style="enable-background:new 0 0 95.5 91.5;" xml:space="preserve">
 <style type="text/css">
  .st0{fill:rgb(54, 135, 39);}
 </style>
 <metadata>
  <sfw xmlns="ns_sfw;">
   <slices>
   </slices>
   <sliceSourceBounds bottomLeftOrigin="true" height="91.5" width="95.5" x="0" y="8.5">
   </sliceSourceBounds>
  </sfw>
 </metadata>
 <path class="st0" d="M40.8,56.5h17.1l5,3.2H40L29.8,91.5C18.4,87.1,7.9,76.9,3.5,65.4c-4.7-11.1-4.7-25.1,0.1-36.2
	C8.1,17.8,18.9,7.4,30.4,3.1C39.5-0.6,51.6-1,61.2,2c11,3.2,21.4,11,27.5,21.4c6.8,11.3,8.7,25.7,4.6,38.6
	c-2.6,8.6-7.9,16.8-15.3,22.6L65.2,63.4l17.6,9.8c0.1,0,0.1-0.1,0.1-0.2l-23-19.9l29.8,4.5c0.1,0,0.1,0,0.1-0.1l-0.2-0.1l-28.1-9.9
	l29.2-7.1c0.1,0,0.1-0.1,0-0.1l-30,2l23.5-17.8c0.1-0.1-0.2-0.1-0.2,0L57.7,37.9l14.6-25.7c0,0,0-0.1-0.1-0.1l-19,22.3l3.7-29.3
	C56.8,5,56.7,5,56.6,5l-8.7,28.5L40.2,4.2c-0.1,0-0.2-0.1-0.2,0l2.1,30.4l-18-23.5c-0.1-0.1-0.1,0-0.2,0l13.7,26l-25.8-14l-0.1,0.1
	l23,18.9L5.3,38.9c-0.1,0.1-0.1,0.1,0,0.2l28.4,8.3L5.4,55.7c-0.1,0-0.1,0.1,0,0.2l29.2-3.4L11.7,72c-0.1,0-0.1,0.1,0,0.2L12,72
	l18.3-9.6l4.3-6.9h4.9l-3.4-2.4L47.5,35L40.8,56.5L40.8,56.5z">
 </path>
</svg>