<svg xmlns="http://www.w3.org/2000/svg" version="1.2" viewBox="6.12 1.06 107.77 77.89"><g class="layer"><path fill="#353535" d="M111.547 13.425h-36.39c-3.4 0-6.45-1.03-8.76-2.94l-11.38-9.43h-27.97c-1.65 0-3.42 1.39-3.86 3.04l-16.75 70.87h7.57v3.39h84.1c.94-.56 1.75-1.44 2.02-2.46l13.65-59.42c.45-1.65-.58-3.05-2.23-3.05"/><path fill="#33b88f" d="M9.157 78.945c-1.64 0-3.04-1.4-3.04-3.05v-63.33c0-1.65 1.4-3.05 3.04-3.05h27.97l13.91 9.44c2.82 1.91 6.14 2.93 9.55 2.93h36.38c1.66 0 3.05 1.4 3.05 3.05v50.96c0 1.65-1.39 3.05-3.05 3.05zm0 0"/><path fill="#353535" d="M90.797 28.795c-1.9 0-3.43 1.54-3.43 3.44 0 1.91 1.53 3.45 3.43 3.45 1.91 0 3.45-1.54 3.45-3.45 0-1.9-1.54-3.44-3.45-3.44m-10.98 0c-1.91 0-3.45 1.54-3.45 3.44 0 1.91 1.54 3.45 3.45 3.45 1.9 0 3.44-1.54 3.44-3.45 0-1.9-1.54-3.44-3.44-3.44"/><path fill="#fff" d="m15.097 57.505 12.73 12.73 12.07-12.07 12.06 12.07 12.07-12.06 12.06 12.06 12.06-12.07 11.89 11.88v-12.54zm26.53-21.91c.54-1.47.84-3.05.84-4.7 0-7.6-6.16-13.75-13.75-13.75-7.6 0-13.76 6.15-13.76 13.75 0 1.65.31 3.23.84 4.7zm0 0"/><path fill="#353535" d="M34.357 35.595a7.33 7.33 0 0 0 1.7-4.7c0-1.14-.29-2.2-.74-3.16-.26 1.15-1.25 2.03-2.48 2.03-1.41 0-2.57-1.15-2.57-2.57 0-1.33 1.01-2.38 2.29-2.53a7.3 7.3 0 0 0-3.84-1.11c-4.05 0-7.34 3.29-7.34 7.34 0 1.79.64 3.42 1.7 4.7zm0 0"/></g></svg>