<svg xmlns="http://www.w3.org/2000/svg" xml:space="preserve" viewBox="3 62.1 505.9 387.8"><path d="M254.9 79.6c-64.8 0-117.3 52.5-117.5 117.5h.6c67-.6 117.2 59.6 118.2 108.2-1.4-49.5 51.9-107.3 116.2-108.2-.1-64.9-52.7-117.5-117.5-117.5zm117.6 117.5v.3C291.1 201.1 255.7 269.7 256 305c.6 67.6-35.3 127-123.8 127.4l241.7-.9c64.9 0 117.5-51.6 117.5-116.6 0-65.1-52.6-117.8-117.5-117.8zM255.9 305c-1.7-46.5-45-107.2-118.5-107.6v-.3c-64.7.3-116.9 53-116.9 117.8 0 65.1 52 117.8 111.1 117.5 104.8-.4 126-80.9 124.3-127.4z" style="fill:none;stroke:#9ad1ed;stroke-width:35"/></svg>