<svg xmlns="http://www.w3.org/2000/svg" xml:space="preserve" viewBox="0 0 512 512"><circle cx="256" cy="256" r="235.5" style="fill:none;stroke:#ff0090;stroke-width:33"/><path d="M386.7 323.1h-41.1c-18.8 0-35.4 12.6-40.5 30.2H178.5c-23.4 0-42.8-19.4-42.8-42.8s19.4-42.8 42.8-42.8H328c34.8 0 62.8-28 62.8-62.8s-28-62.8-62.8-62.8H203v-2.9c0-23.4-18.8-42.2-42.2-42.2h-41.1c-23.4 0-42.2 18.8-42.2 42.2V150c0 23.4 18.8 42.2 42.2 42.2h41.1c18.8 0 35.4-12.6 40.5-30.2H328c23.4 0 42.8 19.4 42.8 42.8s-19.4 42.8-42.8 42.8H178.5c-34.8 0-62.8 28-62.8 62.8s28 62.8 62.8 62.8h125v2.9c0 23.4 18.8 42.2 42.2 42.2h41.1c23.4 0 42.2-18.8 42.2-42.2v-10.8c0-23.3-19.4-42.2-42.3-42.2zM183.1 150.8c0 12-9.7 22.3-22.3 22.3h-41.1c-12 0-22.3-9.7-22.3-22.3V140c0-12 9.7-22.3 22.3-22.3h41.1c12 0 22.3 9.7 22.3 22.3zM409 376.2c0 12-9.7 22.3-22.3 22.3h-41.1c-12 0-22.3-9.7-22.3-22.3v-10.8c0-12 9.7-22.3 22.3-22.3h41.1c12 0 22.3 9.7 22.3 22.3z" style="fill:#ff0090;stroke:#ff0090;stroke-width:7"/></svg>