<svg xmlns="http://www.w3.org/2000/svg" viewBox="55 55 494.64 607.16"><defs><linearGradient id="a" x1="-420.63" x2="-436.09" y1="727.47" y2="724.6" gradientTransform="matrix(7.78 0 0 -7.78 3708.44 5989.72)" gradientUnits="userSpaceOnUse"><stop offset="0" stop-color="#ac5fc8"/><stop offset="1" stop-color="#ac5fc8" stop-opacity="0"/></linearGradient><linearGradient id="b" x1="-521.09" x2="-562.95" y1="727.23" y2="724.58" gradientTransform="matrix(7.78 0 0 -7.78 4531.86 5997.19)" gradientUnits="userSpaceOnUse"><stop offset="0" stop-color="#03a2db"/><stop offset="1" stop-color="#03a2db" stop-opacity="0"/></linearGradient></defs><path d="M433.17 316.49c5.93 13.89-6.09 32.13-54.28 82.41-51.66 53.89-66.13 63.31-87.48 56.95s-28.32-22.16-42.1-95.52c-21.01-111.9-13.87-118.27 96-85.56 55.67 16.57 82.58 29.35 87.86 41.72" style="stroke-width:0;fill:rgba(131,116,211,.98)"/><path d="M433.17 316.49c5.93 13.89-6.09 32.13-54.28 82.41-51.66 53.89-66.13 63.31-87.48 56.95s-28.32-22.16-42.1-95.52c-21.01-111.9-13.87-118.27 96-85.56 55.67 16.57 82.58 29.35 87.86 41.72" style="fill:url(#a);stroke-width:0"/><path d="M183.71 662.15C302.63 524.9-4.27 127.42 304.85 178.88c37.9 5.88 70.33 8.52 125.92 2.99 77.35-46.59 69.13-60.25 118.87-107.27-253.81 3.08-157.78 18.7-297.37-5.24-46.8-8.03-115.83-27.08-160.15-1.42-48.13 27.86-36.95 115.23-33.54 161.4 9.94 134.43 31.8 329.96 125.13 432.82" style="stroke-width:0;fill:#4f87d3"/><path d="M183.71 662.15C302.63 524.9-4.27 127.42 304.85 178.88c37.9 5.88 70.33 8.52 125.92 2.99 77.35-46.59 69.13-60.25 118.87-107.27-253.81 3.08-157.78 18.7-297.37-5.24-46.8-8.03-115.83-27.08-160.15-1.42-48.13 27.86-36.95 115.23-33.54 161.4 9.94 134.43 31.8 329.96 125.13 432.82" style="stroke-width:0;fill:url(#b)"/></svg>