<svg xmlns="http://www.w3.org/2000/svg" id="Layer_1" data-name="Layer 1" viewBox="5 5.04 100.01 99.91"><defs><style>.cls-1{fill:#29c9a0}.cls-1,.cls-10,.cls-11,.cls-13,.cls-14,.cls-17,.cls-18,.cls-19,.cls-2,.cls-23,.cls-27,.cls-28,.cls-3,.cls-31,.cls-32,.cls-33,.cls-35,.cls-36,.cls-37,.cls-38,.cls-39,.cls-4,.cls-40,.cls-42,.cls-43,.cls-45,.cls-46,.cls-47,.cls-48,.cls-50,.cls-51,.cls-54,.cls-55,.cls-56,.cls-57,.cls-60,.cls-61,.cls-62,.cls-64,.cls-65,.cls-7,.cls-70,.cls-71,.cls-72,.cls-78,.cls-8,.cls-80,.cls-81,.cls-82,.cls-84,.cls-85,.cls-87,.cls-88,.cls-90{stroke-width:0}.cls-2{fill:#24c4a7}.cls-3{fill:#18b9b8}.cls-4{fill:#39d888}.cls-7{fill:#31c485}.cls-8{fill:#05a8d4}.cls-10{fill:#1bbbb3}.cls-11{fill:#1cbdb2}.cls-13{fill:#30ce95}.cls-14{fill:#23c3a9}.cls-17{fill:#38d68b}.cls-18{fill:#14b5be}.cls-19{fill:#1ebfb0}.cls-23{fill:#2dcc9b}.cls-27{fill:#07a9d1}.cls-28{fill:#17b8ba}.cls-31{fill:#27c7a3}.cls-32{fill:#1fc0ae}.cls-33{fill:#2aca9e}.cls-35{fill:#22c2aa}.cls-36{fill:#36d58d}.cls-37{fill:#32d093}.cls-38{fill:#34d390}.cls-39{fill:#2ecd99}.cls-40{fill:#0badcb}.cls-42{fill:#12b4c1}.cls-43{fill:#09abce}.cls-45{fill:#1fbfae}.cls-46{fill:#0fb1c5}.cls-47{fill:#1eb9a8}.cls-48{fill:#02a5d8}.cls-50{fill:#2fce98}.cls-51{fill:#0d9aab}.cls-54{fill:#25c5a6}.cls-55{fill:#2dc28c}.cls-56{fill:#0caec9}.cls-57{fill:#0dafc8}.cls-60{fill:#2bca9c}.cls-61{fill:#19bab7}.cls-62{fill:#15b5bc}.cls-64{fill:#21c1ac}.cls-65{fill:#31cd90}.cls-70{fill:#1abbb5}.cls-71{fill:#10b2c4}.cls-72{fill:#35d48e}.cls-78{fill:#03a6d6}.cls-80{fill:#08aacf}.cls-81{fill:#26c6a4}.cls-82{fill:#11b3c2}.cls-84{fill:#31cf94}.cls-85{fill:#28c8a1}.cls-87{fill:#30c78b}.cls-88{fill:#16b7bb}.cls-90{fill:#3bd986}</style></defs><path d="M8.246 97.607c-2.027-1.2-3.178-2.919-3.24-5.33-.096-3.798.777-7.432 1.896-11.009 4.01-12.807 9.87-24.8 16.342-36.508C29.25 33.9 35.712 23.325 43.702 13.77c2.197-2.628 4.523-5.149 7.345-7.124 3.358-2.348 5.847-2.117 8.901.718.282.539.394 1.02.035 1.636-2.431 4.18-4.894 8.343-7.197 12.593-1.745 3.217-3.766 6.254-5.665 9.372-2.033 2.861-4.144 5.67-6.085 8.593-6.113 9.215-11.123 19.02-15.473 29.172-.76.526-.891 1.43-1.295 2.168-4.257 7.746-9.135 15.13-13.241 22.966-.709 1.35-1.09 3.073-2.78 3.75z" style="stroke-width:0;fill:#3ddb83"/><path d="M96.267 63.874c3.547 7.823 6.848 15.742 8.349 24.261 1.17 6.64-.08 8.911-6.293 11.355-5.796 2.28-11.884 3.34-18.062 3.913-2.598.183-5.196.37-7.794.552 3.198-5.434 6.142-11.018 9.59-16.304l.286-.426c1.8-.831 3.717-1.473 5-3.128.587-.471.796-1.138.773-1.831-.051-1.52-.186-3.041-.285-4.561 2.226-4.86 5.196-9.283 8.019-13.793z" style="stroke-width:0;fill:#00a3db"/><path d="M12.118 99.554c-.616-.022-1.13-.288-1.591-.68 1.584-2.944 3.111-5.92 4.766-8.827 2.095-3.676 4.292-7.29 6.665-11.303.068.815.096 1.17.125 1.527l-.016 2.569q-4.974 8.355-9.953 16.711z" class="cls-4"/><path d="m72.464 103.955 7.794-.552c-3.406.674-6.86.844-10.319.96l-3.586-.065c1.18-2.197 2.345-4.404 3.548-6.588 1.559-2.83 3.512-5.44 4.776-8.436a5 5 0 0 1 .317-.029 538 538 0 0 1 2.246-.304c-2.505 5.003-5.38 9.805-8.212 14.459.401.651.8.571 1.162.6q.487-.009.975-.016c.433-.01.862-.016 1.295-.026z" class="cls-8"/><path d="M8.246 97.607c1.69-.677 2.072-2.399 2.781-3.75 4.106-7.835 8.984-15.219 13.24-22.965.405-.735.536-1.642 1.296-2.168l-2.142 6.116c-.372.517-.79 1.008-1.107 1.556-3.531 6.14-7.018 12.304-10.594 18.414-.703 1.197-.988 2.746-2.45 3.416l-1.027-.619z" style="stroke-width:0;fill:#3cda85"/><path d="m62.203 9.372.95.914c.237.873-.235 1.546-.642 2.23-1.174 1.962-2.329 3.935-3.55 5.866-1.355 2.14-2.153 4.647-4.17 6.35l-1.916.722c1.617-2.867 3.298-5.703 4.83-8.615 1.358-2.582 2.65-5.19 4.498-7.47z" class="cls-4"/><path d="M47.121 30.958c1.902-3.114 3.92-6.155 5.665-9.372 2.303-4.25 4.766-8.413 7.197-12.593.356-.612.244-1.097-.035-1.635a4.7 4.7 0 0 1 1.93 1.696c-1.119.366-1.593 1.373-2.106 2.271a573 573 0 0 0-6.13 10.967c-.658 1.212-1.831 2.213-1.71 3.781l-4.81 4.882z" style="stroke-width:0;fill:#3bd984"/><path d="M22.07 82.843q.01-1.284.013-2.57h.238c-.026 1.73.006 3.443 1.366 4.774-2.511 4.272-5 8.557-7.544 12.81-.548.915-.805 2.172-2.184 2.336l-.943-.318c.31-.273.718-.488.92-.824 2.598-4.382 5.161-8.786 7.746-13.174.571-.965.828-1.947.389-3.03z" class="cls-36"/><path d="M22.07 82.843c.44 1.084.183 2.066-.388 3.031-2.585 4.388-5.148 8.792-7.746 13.173-.199.337-.61.552-.92.825q-.45-.158-.898-.321 4.973-8.356 9.953-16.711z" class="cls-17"/><path d="M29.451 103.365a18.8 18.8 0 0 1-4.535-.62l.667-.086c1.401.24 1.565-.991 2.107-1.774 2.508-3.618 4.426-7.57 6.438-11.316-.18-.558-.517-.574-.828-.638v-.298q1.957.296 3.913.593c-.337.026-.67.048-1.007.074-1.758 1.581-2.242 3.926-3.474 5.831-1.568 2.431-2.95 4.981-4.368 7.403.31.555.715.472 1.071.51q.004.16.013.32z" style="stroke-width:0;fill:#29c89f"/><path d="M22.324 80.274h-.237l-.126-1.527c-2.373 4.013-4.57 7.628-6.665 11.303-1.655 2.903-3.182 5.883-4.766 8.827-.417-.214-.837-.433-1.254-.647 1.462-.67 1.748-2.22 2.45-3.416 3.58-6.11 7.063-12.276 10.595-18.415.314-.548.734-1.039 1.106-1.555-.365 1.812-.734 3.62-1.1 5.433z" class="cls-90"/><path d="M39.07 104.285c-2.267.026-4.513-.189-6.748-.551q.009-.181.022-.363c.62.289 1.113.247 1.456-.442 2.233-4.485 5.017-8.651 7.51-12.984.55-.023 1.106-.049 1.657-.071 1.723-.02 3.445-.026 5.145.314q-1.641.033-3.284.064l-1.591-.019c-.747.01-1.155.51-1.456 1.084-1.976 3.756-4.552 7.172-6.322 11.05-.209.452-.71.927.093 1.309l1.603.276 1.909.048.029.035q-.014.125-.023.257z" style="stroke-width:0;fill:#23c3a8"/><path d="M54.79 24.736c2.018-1.703 2.816-4.212 4.17-6.351 1.222-1.93 2.377-3.904 3.55-5.867.408-.683.88-1.356.642-2.229q.479.489.956.979c.132.606-.01 1.141-.33 1.677q-3.27 5.504-6.502 11.028c-.295.503-.693.795-1.27.846q-.608-.037-1.216-.08z" class="cls-17"/><path d="m15.941 100.815-.15.019-.132-.08c1.664-3.824 4.205-7.15 6.187-10.793.802-1.473 1.37-3.125 2.758-4.222.225.126.45.247.674.373-2.226 3.993-4.385 8.028-6.716 11.957-.626 1.052-.966 2.592-2.621 2.749z" class="cls-38"/><path d="M41.316 104.455c-.44.122-.87.132-1.287-.09l-.936-.336-.03-.036c2.621-4.41 5.242-8.823 7.904-13.308.475-.044.94-.093 1.405-.137-2.332 4.121-4.67 8.24-6.986 12.37-.25.444-.91.944-.067 1.47v.064z" style="stroke-width:0;fill:#1dbeb0"/><path d="M56.006 24.813c.577-.051.975-.34 1.27-.847q3.237-5.523 6.502-11.027c.317-.536.458-1.072.33-1.678l1.257 1.347c-1.51 2.682-2.864 5.47-4.586 8.01-1.104 1.626-1.55 3.765-3.458 4.817l-1.315-.625z" class="cls-36"/><path d="M15.941 100.815c1.655-.157 1.995-1.697 2.62-2.75 2.336-3.928 4.494-7.963 6.717-11.957q.328.164.651.328l.375.24-.016-.026q-3.641 6.453-7.287 12.901c-.42.741-.805 1.533-1.819 1.597-.465.077-.869-.073-1.241-.333" style="stroke-width:0;fill:#33d291"/><path d="M78.872 31.51q.497.802.995 1.604c-.424-.1-.706.08-.908.449-1.155 2.078-2.271 4.18-3.487 6.22-.952 1.603-1.389 3.572-3.165 4.615q-.279-.46-.555-.92.026-.202.05-.408c.671-.41.925-1.103 1.29-1.755 1.857-3.31 3.513-6.738 5.783-9.805z" class="cls-32"/><path d="M57.324 25.438c1.909-1.052 2.355-3.191 3.458-4.817 1.722-2.537 3.076-5.325 4.587-8.01l.692.822c-2.107 4.355-4.317 8.657-7.1 12.634l-.69.016z" class="cls-72"/><path d="m72.531 21.862.225.346v.655c-1.473 2.534-2.922 5.077-4.424 7.592-.808 1.353-1.267 2.944-2.61 3.945l-.385-.542c.064-.311.057-.664.205-.93 1.783-3.265 3.56-6.537 5.42-9.76.321-.552 1.037-.876 1.569-1.306" class="cls-33"/><path d="M86.612 44.648c.096.19.192.375.292.565-2.181 4.099-4.23 8.275-7.095 11.967l-.642-1.283c2.339-3.795 4.802-7.519 6.736-11.547z" style="stroke-width:0;fill:#12b4c0"/><path d="M41.316 104.455v-.064c.31-.192.753-.308.914-.587 2.492-4.304 4.949-8.631 7.486-13.077-.43-.09-.725-.15-1.02-.208v-.289c4.058.006 8.118.016 12.176.022q0 .141-.02.283l-1.587.035-1.591.01h-5.472c-.975-.113-1.575.359-2.043 1.18-.71 1.238-1.569 2.393-2.233 3.653-1.517 2.89-3.518 5.527-4.74 8.738l1.03.157h1.273q.639 0 1.283.003l.952.01.02.016a2 2 0 0 0 .048.247l-.077.086c-2.14.125-4.276.077-6.403-.218z" class="cls-10"/><path d="M42.967 89.874q-.828.035-1.658.07l-1.276-.028-1.28-.02c-.635-.317-.886.177-1.12.578a2335 2335 0 0 0-6.742 11.646c-.32.558-.53 1.155.488 1.213q.475.014.956.032l.006.01q-.008.18-.023.362c-.978.042-1.94-.045-2.87-.37q-.004-.16-.013-.32l6.556-11.733c.36-.641.924-1.26.212-2.014.337-.026.67-.048 1.007-.074q2.877.322 5.754.648z" style="stroke-width:0;fill:#27c6a2"/><path d="M72.306 44.395c1.777-1.04 2.214-3.012 3.166-4.616 1.213-2.043 2.332-4.144 3.487-6.22.205-.368.484-.545.908-.448l.314.49c-1.72 3.827-3.881 7.41-5.966 11.04-.276.482-.59.883-1.164.998q-.37-.622-.745-1.244" class="cls-19"/><path d="m87.629 46.544.853 1.652c-.84-.244-1.161.343-1.408.94-.85 2.065-2.204 3.858-3.188 5.84-.956 1.918-2.66 3.484-2.817 5.787q-.159-.328-.314-.655c-.385-1.392.087-2.537.834-3.727 1.267-2.02 2.313-4.18 3.548-6.22.756-1.25 1.122-2.787 2.495-3.62z" style="stroke-width:0;fill:#10b2c3"/><path d="m66.353 104.298 3.586.064c-1.953.299-3.92.382-5.892.33l-3.84-.108c-.118-.956.588-1.566.98-2.297 2.215-4.131 5.016-7.942 6.75-12.336l1.287-.029c-2.624 4.66-5.244 9.318-7.823 13.901.327.549.728.466 1.087.5h.966q.643 0 1.286-.006l1.617-.019z" class="cls-40"/><path d="M21.73 102.13c-1.013-.039-1.995-.221-2.928-.629q.077-.058.154-.112c.786.112 1.296-.228 1.68-.908 2.208-3.923 4.661-7.704 6.627-11.765.241-.497.555-.946-.057-1.382v-.321l2.986.914q-.206.047-.41.09c-.764.096-1.223.61-1.572 1.219-2.172 3.759-4.327 7.528-6.502 11.284-.311.539-.606 1.026.055 1.51l-.032.103z" class="cls-13"/><path d="m70.866 19.633.648.856c-1.658 3.012-3.265 6.05-5 9.016-.623 1.062-.918 2.416-2.2 3.016l-.241-.308c1.578-4.565 4.192-8.568 6.793-12.577z" style="stroke-width:0;fill:#2dcc9a"/><path d="M88.812 48.834c.183.327.37.654.552.981-1.055.95-1.59 2.255-2.22 3.464-1.661 3.189-3.948 6.034-5.148 9.472l-.615-1.33c1.574-3.747 3.938-7.054 5.911-10.58.391-.698.314-1.882 1.517-2.007z" style="stroke-width:0;fill:#0eb0c6"/><path d="M78.872 31.51c-2.267 3.067-3.926 6.495-5.783 9.805-.366.652-.619 1.344-1.29 1.755l-.487-1.273c1.527-2.627 2.96-5.164 4.471-7.66.754-1.244 1.12-2.771 2.48-3.602l.606.975z" class="cls-64"/><path d="m91.026 53.013.644 1.286-.016.02c-.365-.122-.616.032-.789.346q-3.46 6.27-6.922 12.538-.15-.342-.298-.686l-.292-.67q-.051-.148-.109-.296c1.498-1.7 2.367-3.775 3.47-5.712 1.332-2.335 2.272-4.93 4.312-6.823z" style="stroke-width:0;fill:#0aaccc"/><path d="M51.932 26.077c-.121-1.572 1.052-2.573 1.71-3.782a573 573 0 0 1 6.13-10.966c.513-.899.987-1.906 2.107-2.271l.324.317c-1.848 2.28-3.14 4.888-4.497 7.47-1.53 2.913-3.214 5.748-4.83 8.616-.315.205-.63.414-.944.619z" class="cls-90"/><path d="M69.644 18.007q.118.159.238.314c-.129.561-.138 1.193-.408 1.677-1.263 2.271-2.553 4.53-3.923 6.736-.86 1.383-1.24 3.054-2.517 4.183-.08-.1-.164-.2-.244-.299-.215-1.96 1.222-3.226 2.056-4.718 1.498-2.688 2.8-5.507 4.801-7.893z" style="stroke-width:0;fill:#2fce97"/><path d="m75.389 26.038 1.244 1.944c-.583-.177-.866.141-1.122.613-1.168 2.149-2.428 4.246-3.519 6.434-.821 1.642-2.425 2.893-2.486 4.917a11.5 11.5 0 0 1-1.937-2.932l.074-.06.619.336c.167.25.228.626.74.552 2.336-3.243 4.074-6.893 6.066-10.393.26-.458.138-.93-.074-1.379v-.006c.132-.01.263-.016.395-.026" style="stroke-width:0;fill:#25c4a5"/><path d="M24.604 85.736c-1.388 1.1-1.956 2.752-2.758 4.221-1.982 3.644-4.523 6.97-6.187 10.794q-.85-.278-1.7-.562c1.382-.16 1.639-1.42 2.184-2.335 2.544-4.253 5.036-8.538 7.544-12.81q.458.344.914.69z" class="cls-72"/><path d="m58.27 26.083.69-.016c.837.863 1.097-.06 1.386-.51 2.37-3.65 4.378-7.5 6.322-11.387q.51.645 1.023 1.29c-.866.285-1.116 1.103-1.504 1.78-1.986 3.46-3.949 6.935-5.918 10.405l-.27.013-1.729-1.572z" style="stroke-width:0;fill:#33d191"/><path d="M27.206 87.01v.32c-.475.63-1.023 1.216-1.412 1.893-2.3 4.041-4.564 8.105-6.838 12.163l-.154.112c-.577.058-1.113-.074-1.617-.353 1.017-.067 1.399-.856 1.82-1.597q3.645-6.448 7.287-12.9l.914.358z" class="cls-37"/><path d="M91.997 54.935a18.8 18.8 0 0 1 2.005 4.14l-.398.03-.356-.947c-.272-.481-.301-1.155-1.113-1.35-.705 1.167-1.478 2.306-2.113 3.522-1.646 3.153-3.824 6.017-5.088 9.375l-.635-1.62c3.006-4.118 5.229-8.689 7.654-13.144z" class="cls-80"/><path d="m77.028 28.585.221.35c-.125.564-.122 1.202-.394 1.687a427 427 0 0 1-5.334 9.25c-.263.446-.53 1.12-1.315.934.057-.417-.01-.915.192-1.239 2.287-3.614 4.086-7.521 6.627-10.982z" class="cls-14"/><path d="M60 27.658q.134-.009.269-.013c.31.225.625.446.936.67.635.8.947.26 1.27-.298.565-.968 1.194-1.899 1.7-2.896 1.44-2.839 3.49-5.36 4.45-8.452l1.02 1.338c-2.002 2.386-3.304 5.202-4.802 7.893-.831 1.492-2.268 2.759-2.056 4.718z" class="cls-13"/><path d="M61.205 28.312c-.31-.224-.625-.446-.936-.67 1.97-3.47 3.932-6.944 5.918-10.405.388-.677.641-1.495 1.504-1.78q.13.164.26.324c-.218.99-.651 1.88-1.165 2.758-1.889 3.24-3.724 6.511-5.577 9.773z" style="stroke-width:0;fill:#32d193"/><path d="M82.782 37.903a7.7 7.7 0 0 1 1.492 2.601c-.206-.11-.41-.215-.616-.324-.193-.292-.28-.722-.96-.61-2.235 3.757-4.798 7.452-6.478 11.647l-.943-1.722c2.983-3.474 4.798-7.666 7.101-11.56l.407-.032z" style="stroke-width:0;fill:#19bab6"/><path d="M83.658 40.18c.205.11.41.215.616.324.308.536.616 1.068.923 1.604-.086 0-.176.006-.263.01-.333-.206-.323-.812-.907-.777-1.957 3.294-3.904 6.588-5.876 9.87-.536.891-.632 1.786-.244 2.742l-.039.385-1.372-2.563c.756-.475 1.16-1.238 1.549-1.985 1.706-3.298 3.554-6.515 5.613-9.607z" style="stroke-width:0;fill:#17b8b9"/><path d="M61.205 28.312c1.854-3.259 3.689-6.53 5.578-9.773.513-.879.946-1.767 1.165-2.758.224.295.452.59.676.885-.959 3.092-3.008 5.61-4.449 8.452-.506.997-1.135 1.927-1.7 2.896-.323.558-.635 1.097-1.27.298" style="stroke-width:0;fill:#31d094"/><path d="M29.781 88.014q.206-.047.41-.09l.543.115.32.578q-3.713 6.287-7.428 12.57c-.218.369-.459.728-.244 1.18l-.057.08-1.594-.317.032-.103c.506-.237.798-.67 1.064-1.138 1.704-2.99 3.449-5.957 5.113-8.965.696-1.258 2.047-2.223 1.841-3.91" style="stroke-width:0;fill:#2ecc99"/><path d="M91.026 53.013c-2.04 1.89-2.98 4.484-4.311 6.823-1.104 1.94-1.973 4.015-3.47 5.712l-.572-1.299.084-.093c1.716-.895 1.96-2.778 2.784-4.247 1.568-2.793 3.5-5.401 4.506-8.493l.106-.08.87 1.677z" class="cls-40"/><path d="M82 62.751c1.2-3.435 3.483-6.283 5.148-9.472.628-1.209 1.164-2.514 2.22-3.464q.22.438.445.876-.047.078-.09.16c-2.27 3.875-4.535 7.756-6.819 11.624-.33.562-.282 1.107-.141 1.681l-.083.093q-.34-.75-.677-1.5z" class="cls-57"/><path d="m31.055 88.613-.321-.577 2.566.597v.298c-1.864 3.009-3.75 6.004-5.578 9.032-.888 1.476-1.918 2.906-2.142 4.696l-.668.087-1.587-.299.057-.08c.5.02.953-.038 1.242-.532 2.354-4 4.721-7.993 7.063-12 .388-.667.182-1.129-.632-1.222" class="cls-60"/><path d="M77.028 28.585c-2.54 3.458-4.34 7.368-6.627 10.982-.205.324-.134.822-.192 1.239l-.084.067c-.205-.308-.41-.62-.619-.927.061-2.024 1.665-3.275 2.486-4.917 1.09-2.185 2.354-4.285 3.519-6.434.256-.472.539-.79 1.122-.613z" class="cls-2"/><path d="m93.604 59.104.398-.029c.94 1.511 1.665 3.128 2.265 4.799l-.417.038q-.321-.639-.642-1.283c-.215-.426-.426-.856-.641-1.283-.12-.317-.048-.773-.725-.827-1.319 2.223-2.695 4.48-4.013 6.774-1.286 2.239-2.826 4.362-3.323 6.98-.19-.568-.375-1.136-.564-1.7.834-.597 1.016-1.6 1.443-2.428 1.934-3.76 4.532-7.144 6.223-11.037z" style="stroke-width:0;fill:#04a7d4"/><path d="M87.629 46.544c-1.37.83-1.739 2.37-2.496 3.621-1.235 2.04-2.28 4.199-3.547 6.22-.748 1.19-1.216 2.334-.834 3.726l-.953-1.95c0-.327.007-.654.007-.981 2.864-3.692 4.91-7.871 7.095-11.967l.725 1.334z" class="cls-82"/><path d="M63.034 30.914c1.276-1.13 1.661-2.797 2.517-4.183 1.37-2.207 2.66-4.465 3.923-6.736.27-.484.28-1.113.408-1.677q.707.493.981 1.315c-2.598 4.012-5.215 8.015-6.793 12.576q-.52-.65-1.043-1.299z" style="stroke-width:0;fill:#2ecc98"/><path d="M75.389 26.038c-.132.01-.26.016-.391.026-.29-.363-.498-.87-1.255-.597-1.892 3.217-3.83 6.524-5.783 9.825-.314.529-.526 1.049-.317 1.664l-.074.061q-.687-.965-1.38-1.93c.517.109.976.019 1.258-.46 2.056-3.473 4.106-6.95 6.159-10.433-.344-.539-.6-.937-.857-1.331v-.655c1.007 1.19 1.944 2.428 2.634 3.833z" style="stroke-width:0;fill:#28c7a1"/><path d="M88.812 48.834c-1.202.128-1.125 1.309-1.517 2.008-1.972 3.525-4.336 6.832-5.911 10.578l-.315-.657c.158-2.303 1.86-3.869 2.817-5.787.988-1.982 2.338-3.775 3.188-5.84.247-.6.568-1.184 1.408-.94l.334.638z" class="cls-46"/><path d="M79.809 57.18c0 .327-.007.654-.007.981-.811-1.19-1.433-2.476-1.93-3.826l.038-.385 7.028-11.836c.086 0 .176-.006.263-.01l1.414 2.54-.709-.297c-.131-.376-.093-.882-.879-.911-2.036 3.48-4.118 7.024-6.18 10.578-.398.686-.212 1.328.324 1.88.215.426.426.856.641 1.283z" class="cls-62"/><path d="M70.209 40.806c.786.186 1.049-.488 1.315-.934a427 427 0 0 0 5.334-9.25c.27-.485.27-1.12.394-1.687q.509.797 1.017 1.6c-1.36.83-1.729 2.354-2.48 3.602-1.507 2.496-2.944 5.036-4.47 7.66l.487 1.273-.051.407-1.626-2.6.083-.068z" class="cls-35"/><path d="M66.668 14.167c-1.944 3.888-3.952 7.74-6.322 11.387-.292.449-.552 1.376-1.386.51 2.784-3.978 4.99-8.276 7.101-12.635q.303.367.61.735z" class="cls-38"/><path d="M64.313 32.52c1.28-.6 1.578-1.95 2.2-3.015 1.736-2.966 3.343-6.004 5.001-9.016l1.02 1.373c-.532.43-1.25.75-1.568 1.305-1.864 3.22-3.638 6.492-5.42 9.76-.148.267-.142.62-.206.931q-.512-.67-1.023-1.334z" class="cls-60"/><path d="m82.782 37.903-.407.032c-.16-.26-.244-.606-.96-.584L74.96 48.924l-.606-1.046c1.636-2.736 3.316-5.45 4.891-8.22.719-1.265 1.838-2.365 1.851-3.968q.184-.01.363-.017.898.978 1.324 2.23" class="cls-10"/><path d="M81.458 35.673q-.184.01-.363.017c-.795-.915-1.03-.097-1.331.442-1.04 1.854-2.136 3.68-3.08 5.584-.91 1.842-2.424 3.397-2.678 5.553l-.955-1.63c.574-.115.888-.516 1.164-.997 2.082-3.628 4.247-7.214 5.966-11.04a5.7 5.7 0 0 1 1.28 2.068z" style="stroke-width:0;fill:#1dbdb0"/><path d="m60.208 104.584 3.84.109c-5.447.285-10.887.417-16.33-.02l.077-.086 2.486.016q.503 0 1.007.003h7.358c.523-.01 1.042-.016 1.565-.026z" class="cls-10"/><path d="m39.093 104.032.936.337-.959-.08q.01-.129.023-.257" class="cls-45"/><path d="m89.81 50.691.346.645-.106.08c-.109-.19-.22-.375-.33-.565q.04-.082.09-.16" class="cls-57"/><path d="m91.67 54.3.327.635-.045.006q-.148-.313-.298-.622z" class="cls-80"/><path d="m72.464 103.955-1.296.026 8.962-15.688.308-.28c.112-.015.22-.028.333-.044q.642-.16 1.283-.315c-3.448 5.286-6.392 10.87-9.59 16.304zm22.741-41.322q.32.639.641 1.283c-2.825 4.51-5.796 8.936-8.018 13.792-.5-.914-.5-1.787.054-2.71 2.46-4.112 4.885-8.24 7.323-12.365" style="stroke-width:0;fill:#01a4d9"/><path d="M95.205 62.633c-2.438 4.124-4.866 8.253-7.323 12.365-.555.923-.555 1.796-.054 2.71.1 1.52.234 3.037.285 4.561.023.693-.186 1.36-.773 1.831 1.033-2.938-.058-5.754-.484-8.609.667-1.27 1.344-2.533 1.995-3.81 1.79-3.506 4.407-6.556 5.712-10.328l.642 1.283z" style="stroke-width:0;fill:#02a5d7"/><path d="M82.054 87.651q-.64.16-1.283.314v-.272l1.569-.468c-.097.14-.19.285-.286.426" class="cls-48"/><path d="m66.353 104.298-1.616.02c.67-1.27 1.305-2.563 2.017-3.811 2.088-3.65 4.205-7.284 6.31-10.925l.012-.013.27-.221 1.328-.077c-1.264 2.999-3.217 5.607-4.776 8.436-1.203 2.184-2.367 4.39-3.548 6.588z" class="cls-27"/><path d="M70.193 103.997c-.36-.03-.757.05-1.161-.6 2.832-4.654 5.706-9.456 8.21-14.46.533-.105 1.069-.215 1.601-.32-2.607 5.282-5.658 10.315-8.653 15.383z" class="cls-78"/><path d="M70.193 103.997c2.992-5.065 6.046-10.098 8.654-15.384l.003-.003.301-.272.658-.052q.16 0 .32.003l-8.961 15.688q-.485.009-.975.016z" class="cls-48"/><path d="M74.677 89.27q-.664.04-1.328.075l-.27.221-.012.013-1.293.029q-.635.143-1.27.292-.481-.016-.962-.026.001-.13-.004-.26l5.453-.68q0 .156.007.311a5 5 0 0 0-.318.03z" class="cls-56"/><path d="M74.998 89.242q.002-.155-.007-.311 2.407-.48 4.815-.966v.321l-.658.052q-.151.135-.301.272l-.004.003-1.6.321q-1.123.155-2.245.305z" class="cls-27"/><path d="M25.583 102.66c.224-1.787 1.254-3.218 2.142-4.697 1.825-3.03 3.715-6.023 5.578-9.032.311.06.648.08.828.638-2.011 3.75-3.93 7.698-6.438 11.316-.542.783-.705 2.015-2.107 1.774z" class="cls-33"/><path d="M36.206 89.3c.712.754.148 1.373-.212 2.014l-6.556 11.733c-.36-.038-.76.045-1.071-.51 1.418-2.421 2.797-4.971 4.368-7.403 1.232-1.905 1.713-4.25 3.474-5.831z" class="cls-85"/><path d="m48.112 90.185.58.045v.289l-.323.029c-.465.044-.93.09-1.405.137-2.662 4.485-5.283 8.898-7.903 13.308l-1.909-.048q3.837-6.847 7.673-13.699l3.284-.064z" class="cls-45"/><path d="M44.831 90.25q-3.839 6.849-7.672 13.699c-.536-.094-1.068-.183-1.604-.276 2.563-4.481 5.122-8.962 7.685-13.44l1.591.02z" class="cls-64"/><path d="m40.033 89.916 1.276.029c-2.495 4.333-5.28 8.5-7.509 12.987-.343.69-.837.731-1.456.442l-.006-.01q.318-.551.638-1.11l7.06-12.338z" class="cls-2"/><path d="m43.237 90.23-7.685 13.44c-.802-.382-.302-.854-.093-1.31 1.767-3.877 4.343-7.29 6.322-11.05.301-.573.709-1.074 1.456-1.083z" class="cls-35"/><path d="m48.372 90.548.324-.03c.295.062.59.123 1.02.21-2.534 4.442-4.99 8.768-7.486 13.076-.16.28-.603.395-.914.587-.84-.526-.18-1.026.067-1.469 2.316-4.131 4.654-8.25 6.986-12.371z" class="cls-11"/><path d="m25.932 86.432.376.24z" class="cls-37"/><path d="M66.193 35.087c-.157-.228-.314-.46-.472-.687 1.341-1 1.8-2.592 2.611-3.945 1.505-2.515 2.955-5.062 4.424-7.592.256.397.51.795.856 1.33a6384 6384 0 0 1-6.158 10.435c-.283.478-.745.568-1.258.459z" class="cls-1"/><path d="M79.167 55.897c-.532-.555-.721-1.193-.324-1.88 2.063-3.554 4.148-7.098 6.181-10.578.786.029.748.536.88.91-1.938 4.03-4.398 7.753-6.737 11.548m-27.883 48.706h-1.007c-.327-.642.074-1.12.363-1.626 2.344-4.132 4.69-8.263 7.03-12.394q.796-.004 1.592-.013-3.992 7.018-7.98 14.036z" class="cls-18"/><path d="M51.284 104.603q3.992-7.018 7.98-14.036l1.588-.035-7.96 14.07z" class="cls-42"/><path d="M55.41 90.58q.641.001 1.282-.004c-2.014 4.427-4.673 8.494-7.12 12.68-.388.664-.969 1.145-1.829 1.084l-.019-.016c.218-.481.395-.988.66-1.437 2.41-4.06 4.915-8.07 7.022-12.304z" class="cls-88"/><path d="m44.218 104.308-1.03-.157c1.223-3.211 3.224-5.848 4.741-8.738.661-1.26 1.524-2.415 2.233-3.653.468-.821 1.068-1.296 2.046-1.18l-7.986 13.731z" class="cls-70"/><path d="M53.164 90.583h1.28c-.603 1.12-1.232 2.226-1.803 3.361-1.79 3.554-4.375 6.656-5.87 10.373q-.639 0-1.282-.003c2.161-4.795 5.244-9.077 7.672-13.725z" style="stroke-width:0;fill:#18b9b9"/><path d="M53.164 90.583c-2.428 4.648-5.51 8.93-7.672 13.725h-1.274l7.987-13.732q.481-.001.962.004z" class="cls-61"/><path d="m52.891 104.606 7.961-14.071q.018-.141.017-.283c1.59-.35 3.204-.35 4.82-.295l-.016.244-1.286.058c-.324 0-.648.006-.969.01-1.103.086-1.818.692-2.38 1.622-2.52 4.17-5.038 8.34-7.19 12.715h-.96z" class="cls-82"/><path d="M46.775 104.311c1.494-3.718 4.08-6.82 5.87-10.373.57-1.136 1.2-2.242 1.802-3.362h.966c-2.108 4.234-4.616 8.24-7.025 12.304-.266.453-.443.96-.66 1.437l-.953-.01z" class="cls-28"/><path d="M47.743 104.34c.86.06 1.44-.417 1.829-1.084 2.447-4.183 5.106-8.25 7.12-12.68h.982q-3.515 6.2-7.031 12.394c-.289.507-.69.985-.362 1.626l-2.49-.016a2 2 0 0 1-.048-.247z" class="cls-62"/><path d="m40.033 89.916-7.06 12.339-.638 1.11-.956-.03c.25-.525.471-1.067.753-1.577 2.2-3.958 4.41-7.907 6.62-11.862z" class="cls-54"/><path d="M38.753 89.896c-2.207 3.952-4.42 7.904-6.62 11.862-.283.507-.504 1.052-.754 1.578-1.017-.061-.809-.658-.488-1.213q3.354-5.834 6.742-11.646c.234-.401.485-.895 1.12-.577z" class="cls-81"/><path d="m71.774 89.61 1.293-.028c-2.108 3.64-4.225 7.275-6.31 10.925-.712 1.248-1.347 2.537-2.017 3.81-.43 0-.856.004-1.286.007.369-.767.686-1.56 1.11-2.294 2.39-4.147 4.804-8.281 7.21-12.422z" style="stroke-width:0;fill:#08aad0"/><path d="m60.208 104.584-1.565.025c.317-.612.6-1.25.962-1.838 2.514-4.086 5.074-8.15 7.05-12.541.43-.093.856-.186 1.286-.276-1.738 4.394-4.535 8.205-6.752 12.336-.394.732-1.1 1.341-.978 2.297z" class="cls-56"/><path d="M69.545 89.874q.48.016.962.026c-.452.84-.901 1.68-1.357 2.518-2.178 3.99-4.734 7.775-6.658 11.906-.36-.035-.76.051-1.088-.5 2.579-4.584 5.203-9.241 7.823-13.902z" style="stroke-width:0;fill:#0aaccd"/><path d="M62.488 104.324c1.928-4.135 4.481-7.916 6.66-11.906.455-.838.904-1.678 1.356-2.518q.635-.144 1.27-.292c-2.406 4.137-4.82 8.272-7.21 12.422-.424.735-.745 1.527-1.11 2.294z" class="cls-43"/><path d="m69.545 89.874-.318.048-1.286.029-1.286.279c-.318 0-.632.006-.95.006l-.028-.035.016-.244c1.263-.314 2.546-.407 3.845-.346 0 .087.004.173.004.26z" class="cls-71"/><path d="M29.781 88.014c.206 1.684-1.145 2.652-1.84 3.91-1.665 3.008-3.407 5.975-5.114 8.965-.266.468-.56.898-1.064 1.138-.661-.48-.366-.972-.055-1.51 2.175-3.757 4.327-7.525 6.502-11.285.353-.606.808-1.122 1.571-1.218" class="cls-50"/><path d="M18.956 101.389c2.274-4.058 4.539-8.122 6.838-12.163.385-.68.937-1.264 1.412-1.892.612.439.298.888.057 1.382-1.966 4.06-4.42 7.842-6.626 11.765-.385.68-.895 1.023-1.681.908" style="stroke-width:0;fill:#31d095"/><path d="M84.3 68.085q-.18-.443-.353-.885 3.458-6.27 6.921-12.538c.174-.314.424-.468.79-.346q.148.313.298.622c-2.425 4.455-4.648 9.029-7.653 13.144z" class="cls-43"/><path d="M83.645 66.514c-.096-.225-.196-.446-.292-.67z" class="cls-40"/><path d="M67.643 36.956c-.209-.615.006-1.135.317-1.664 1.954-3.298 3.891-6.604 5.783-9.825.757-.272.963.234 1.255.597v.006c-2.4 3.647-4.696 7.358-6.733 11.223-.205-.112-.414-.224-.619-.337z" class="cls-31"/><path d="M68.262 37.293c2.037-3.865 4.333-7.576 6.732-11.223.209.452.334.924.074 1.38-1.992 3.499-3.733 7.149-6.065 10.392-.513.074-.574-.302-.741-.552z" class="cls-81"/><path d="m85.938 72.573-.384-1.194c.811-2.906 2.649-5.282 4.14-7.82 1.088-1.847 1.681-4.057 3.554-5.398l.356.947c-1.69 3.893-4.288 7.277-6.222 11.037-.427.827-.606 1.834-1.444 2.428" class="cls-8"/><path d="M93.248 58.158c-1.873 1.338-2.466 3.55-3.554 5.398-1.494 2.537-3.329 4.917-4.14 7.82q-.308-.838-.62-1.67c1.264-3.36 3.442-6.223 5.088-9.376.635-1.216 1.408-2.355 2.113-3.522.812.195.837.869 1.113 1.35" class="cls-27"/><path d="m75.277 49.495-.315-.571L81.42 37.35c.715-.022.799.324.96.584-2.304 3.894-4.116 8.086-7.102 11.56" class="cls-70"/><path d="m76.496 51.772-.276-.555c1.684-4.195 4.243-7.89 6.479-11.646.68-.113.766.314.959.609-2.06 3.092-3.904 6.306-5.613 9.607-.388.75-.796 1.51-1.55 1.985" class="cls-3"/><path d="M84.931 42.114q-3.513 5.917-7.027 11.836c-.389-.956-.292-1.85.243-2.743 1.973-3.28 3.92-6.575 5.877-9.87.583-.034.574.572.907.777" class="cls-88"/><path d="M31.055 88.613c.818.093 1.023.555.632 1.222-2.342 4.007-4.709 8-7.063 12-.292.494-.744.555-1.242.532-.215-.455.026-.815.244-1.183z" class="cls-23"/><path d="m89.72 50.851.33.565c-1.007 3.092-2.938 5.7-4.506 8.493-.824 1.47-1.068 3.355-2.784 4.247-.141-.577-.19-1.122.14-1.68 2.285-3.869 4.55-7.747 6.82-11.625" style="stroke-width:0;fill:#0caeca"/><path d="M94.563 61.35c-1.308 3.772-3.922 6.822-5.712 10.328-.651 1.276-1.328 2.54-1.995 3.81l-.353-1.219c.497-2.617 2.037-4.74 3.323-6.98 1.318-2.292 2.691-4.55 4.013-6.773.68.057.609.51.724.827z" class="cls-78"/><path d="M74.006 47.269c.257-2.156 1.768-3.711 2.679-5.553.94-1.902 2.04-3.727 3.079-5.584.301-.539.536-1.357 1.331-.442-.01 1.6-1.132 2.7-1.85 3.967-1.572 2.775-3.253 5.485-4.892 8.221l-.36-.635.01.026z" class="cls-11"/><path d="M53.85 104.606c2.156-4.375 4.674-8.545 7.192-12.715.561-.93 1.276-1.536 2.38-1.623q-4.145 7.169-8.288 14.341h-1.287z" class="cls-71"/><path d="m64.394 90.259 1.286-.058.029.035c-.703 1.315-1.43 2.618-2.108 3.946-1.812 3.566-4.384 6.7-5.914 10.424q-.793 0-1.585.003l8.295-14.35z" style="stroke-width:0;fill:#0eb0c7"/><path d="M57.683 104.606c1.53-3.727 4.103-6.86 5.915-10.424.677-1.328 1.405-2.63 2.107-3.946.318 0 .632-.006.95-.006-1.976 4.391-4.536 8.452-7.05 12.541-.363.587-.645 1.226-.962 1.838h-.96z" class="cls-57"/><path d="m64.394 90.259-8.295 14.35h-.962q4.146-7.17 8.288-14.34c.324 0 .645-.007.969-.01" class="cls-46"/><path d="m66.061 59.727.54.352c-.264.17-.636.276-.774.517-2.662 4.724-5.773 9.193-8.147 14.084q-1.12 0-2.242.003l-.01-.186 9.309-16.037c.157.718.58 1.16 1.324 1.263z" class="cls-19"/><path d="M64.737 58.463 55.429 74.5q-.641 0-1.277-.003c.28-.632.507-1.292.847-1.886 2.694-4.715 5.414-9.414 8.124-14.12.376.014.815.17.934-.407l-.026.048q.188-.327.372-.654l-.01.02.353-.626v-.01l.276-.458q-.033-.13.087-.193l.247-.394a.26.26 0 0 1 .102-.25l.231-.35q.064-.148.122-.295l.215-.292v-.01c.093-.14.18-.285.266-.426l-.067.077q.2-.336.401-.668l-.026.033c.645-.283.85-1.14 1.63-1.248l.016.022.051.645.013-.032q-.17.342-.334.68l.02-.039-.366.645.003-.01-.346.616-.007.016c-.09.145-.176.289-.266.433q.03.144-.096.225c-.08.119-.164.24-.244.36l.02-.027c-.12-.006-.238-.016-.357-.022-.753.561-1.049 1.386-1.283 2.245l-.317.321z" class="cls-32"/><path d="M44.42 54.925q.057.144.12.289.114.177.233.356.121.09.103.243l.253.401q.111.063.077.183l.273.462v.006q.178.314.356.623l-.01-.016.37.648-.062-.061c.343.4.809.407 1.277.407l-9.302 16.031h-1.283c.824-2.043 2.21-3.765 3.243-5.684 1.687-3.13 3.903-5.972 5.097-9.369q.023-.168.05-.336l.01-.308-.304-.328a.26.26 0 0 1-.106-.25l-.244-.394q-.116-.072-.086-.206l-.27-.445v-.013q-.171-.306-.343-.62l.003.01-.36-.644.03.041q-.127-.186-.247-.372c-.077-.048-.11-.115-.09-.205l-.273-.443v-.006l-.35-.626.007.017v-.353q-.178-.144-.356-.292l.013.022.038-.369-.381-.291.01.028.057-.673.007-.007.946.63.292.33q.019.153.035.307l.305.324h.006l.427.26-.045-.048.256.43v.01q.111.148.222.3z" class="cls-50"/><path d="m41.614 61.59 1.219-.962q.062.051.131.093c.282.674.003 1.254-.327 1.812q-3.541 5.984-7.089 11.964c-.436-.603-.121-1.206-.028-1.822.352-2.325 1.651-4.317 2.248-6.556l-.02.029c.399-.218.613-.552.655-1l-.026.035c.546-.263.908-.67 1.008-1.283l-.01.012.33-.372-.045.048.357-.394-.061.067q.189-.203.378-.4l-.07.076.384-.413-.083.064.702-.712.016.08s-.08.016-.08.013l.408-.382z" class="cls-84"/><path d="M57.68 74.68c2.377-4.891 5.485-9.356 8.147-14.081.135-.24.51-.346.773-.516l.802.567c-1.145 1.851-2.402 3.64-3.413 5.562-1.504 2.861-3.528 5.43-4.705 8.471H57.68z" class="cls-11"/><path d="m68.281 61.343.722.6c-.79.523-1.18 1.35-1.623 2.136q-2.93 5.206-5.857 10.418c-.398-.054-.857.15-1.235-.353 1.844-3.178 3.676-6.395 5.575-9.58.686-1.152.978-2.624 2.415-3.22z" style="stroke-width:0;fill:#1abbb6"/><path d="M70.821 63.919c.228.282.46.561.687.843-.064.312-.048.668-.199.93a891 891 0 0 1-4.744 8.106c-.334.564-.892.718-1.51.7a101 101 0 0 1 5.766-10.58" class="cls-88"/><path d="M69.635 62.594c.298.33.596.664.895.994-.27.154-.661.241-.793.475a838 838 0 0 0-5.565 9.953c-.051.09.157.32.244.488v.17q-.962 0-1.924.003v-.173c.654-.71 1.055-1.566 1.504-2.412 1.722-3.26 3.387-6.557 5.642-9.501z" class="cls-3"/><path d="M72.8 66.79q.56.505.642 1.257l-.074.06c-.442-.22-.834-.16-1.097.27-1.174 1.912-2.514 3.73-3.364 5.787.43.436.872.301 1.28.34v.176h-3.189c1.399-2.431 2.794-4.866 4.192-7.297.37-.642.78-1.19 1.607-.59z" class="cls-18"/><path d="M69.635 62.594c-2.255 2.945-3.92 6.242-5.642 9.5-.446.844-.85 1.704-1.505 2.413-.32 0-.641-.007-.962-.01q2.926-5.211 5.857-10.418c.443-.786.834-1.613 1.623-2.136z" class="cls-61"/><path d="M61.526 74.497c.32 0 .642.007.962.01v.173h-3.21c1.177-3.038 3.2-5.607 4.705-8.468 1.01-1.921 2.268-3.71 3.413-5.562l.879.693c-1.437.597-1.73 2.069-2.416 3.22-1.895 3.182-3.73 6.403-5.574 9.581.378.504.837.299 1.235.353z" style="stroke-width:0;fill:#1bbcb4"/><path d="M70.186 74.677V74.5c1.967-1.032 3.58-4.275 3.182-6.399l.074-.06c.686 1.068 1.087 2.241 1.273 3.492-.077.491 0 .95.295 1.357q.097.092.039.212-.013.872-.026 1.745h.003l-4.84-.173z" style="stroke-width:0;fill:#10b1c2"/><path d="m70.186 74.677 4.84.173c-.205.048-.41.135-.615.135q-17.405-.001-34.808-.016c-.157 0-.311-.058-.469-.09.417-.058.838-.112 1.258-.17h1.806c.439 0 .875-.007 1.315-.007h1.039l.69.013 3.778-.019q1.122 0 2.245-.003 2.088 0 4.176-.007 1.122 0 2.242-.003h4.815q.962 0 1.924-.003h5.77z" class="cls-51"/><path d="M64.413 74.504c-.087-.167-.292-.398-.244-.488a838 838 0 0 1 5.565-9.953c.132-.234.523-.32.792-.475l.292.33a102 102 0 0 0-5.767 10.58c-.215 0-.426.006-.641.006z" class="cls-28"/><path d="M64.413 74.504c.215 0 .426-.007.641-.007.623.02 1.177-.135 1.511-.7a972 972 0 0 0 4.744-8.104c.15-.26.138-.616.199-.93a4.37 4.37 0 0 1 1.29 2.027c-.828-.6-1.239-.052-1.608.59a8506 8506 0 0 0-4.192 7.297h-2.582v-.17z" class="cls-62"/><path d="M40.392 74.712c-.42.058-.84.112-1.258.17H34.85c.228-3.288 1.113-6.168 2.916-8.76-.597 2.236-1.899 4.231-2.249 6.557-.093.615-.404 1.222.03 1.821h3.524q.64.001 1.28.007.015.105.039.208z" class="cls-65"/><path d="M47.413 58.466c-.468 0-.937-.003-1.277-.407.677.24 1.245-.148 1.842-.34 3.383-1.113 6.812-1.665 10.357-.876l-.37.116q-.623-.044-1.253-.08-.644-.001-1.287-.007-.479 0-.959.003-.645 0-1.29.007-.956.165-1.917.323l-.962.305-.674.058c-.093.083-.19.167-.282.25l-.667.048-.299.273-.962.324z" class="cls-55"/><path d="M57.963 56.959c.121-.039.247-.077.368-.12 2.015-.076 3.73 1.216 5.72 1.239-.12.577-.556.42-.934.407l-1.273-.343-.652-.305-1.276-.327-.962-.308a95 95 0 0 0-.956-.025 2 2 0 0 0-.039-.218z" class="cls-47"/><path d="M65.054 58.142c.234-.86.53-1.684 1.283-2.245q.001.325.007.651v-.006q-.168.308-.34.612l-.007.02q-.13.219-.263.439.03.14-.096.218l-.244.366.023-.026z" class="cls-19"/><path d="M68.227 52.385c-.78.105-.985.965-1.63 1.247.401-.6.276-1.889 1.63-1.247m-3.173 5.757.363.029-.151.901.795.658c-.747-.103-1.167-.545-1.324-1.264l.317-.32z" class="cls-47"/><path d="M39.385 63.9c-.1.612-.462 1.02-1.008 1.283.174-.555.527-.97 1.008-1.283" class="cls-65"/><path d="m42.926 53.01-.946-.629c.856-.715 1.032.036 1.295.6l-.09.084a3 3 0 0 0-.26-.055" class="cls-7"/><path d="M45.22 59.104q-.025.17-.052.337-.484.184-.969.372l-.013-.109c.273-.394.898-.58.738-1.235l.305.327q-.01.155-.01.308" class="cls-55"/><path d="m75.023 74.853.026-1.745c.234.584.597 1.171-.026 1.745" class="cls-51"/><path d="M38.4 65.147c-.042.45-.257.786-.654 1.001.067-.433.291-.763.654-1" class="cls-65"/><path d="M79.809 88.29v-.321q.48-.137.965-.273v.273l-.333.045-.308.279q-.16.001-.32-.004z" class="cls-8"/><path d="M75.01 72.897c-.298-.41-.372-.866-.295-1.357.334.4.334.875.295 1.357" class="cls-51"/><path d="m43.211 60.355.975-.654.013.109-.946.593z" class="cls-84"/><path d="m41.267 61.876-.702.712z" class="cls-65"/><path d="m41.973 52.388-.058.673c-.272-.25-.247-.474.058-.673" class="cls-7"/><path d="m66.623 53.6-.401.667z" class="cls-47"/><path d="m46.194 58.123-.369-.648z" class="cls-55"/><path d="m64.397 57.475-.372.654q.188-.327.372-.654m3.576-3.775.334-.68q-.17.341-.334.68m-3.233 3.169c-.119.208-.234.417-.353.625.119-.208.234-.417.353-.625" class="cls-47"/><path d="M43.25 53.652q-.016-.155-.036-.308a3 3 0 0 0-.032-.28l.09-.083.347.616-.1.096a4 4 0 0 0-.27-.045z" class="cls-7"/><path d="M45.835 57.491c-.119-.209-.234-.417-.353-.622.119.208.234.417.353.622" class="cls-55"/><path d="m66.004 57.154.343-.612zm1.283-2.242.346-.616z" class="cls-47"/><path d="m42.58 54.3.349.625z" class="cls-7"/><path d="M43.872 56.542q.171.306.343.619z" class="cls-87"/><path d="M66.344 56.548q0-.326-.007-.651.179.011.356.022-.174.315-.35.629" class="cls-47"/><path d="m73.997 47.243.36.635z" class="cls-10"/><path d="m68.297 53.052-.051-.645q.422.291.051.645" class="cls-47"/><path d="m43.52 55.906.358.645-.359-.645" class="cls-87"/><path d="m67.63 54.31.366-.646z" class="cls-47"/><path d="m41.903 53.033.381.291H42l-.096-.295z" class="cls-87"/><path d="m39.705 63.54-.33.372z" class="cls-65"/><path d="M65.683 55.214q-.116.174-.23.35.114-.176.23-.35m.051 2.399.263-.44q-.13.22-.263.44" class="cls-47"/><path d="M44.77 55.57q-.115-.179-.234-.356.115.177.234.356" class="cls-87"/><path d="m44.578 57.825.243.394z" class="cls-55"/><path d="M67.014 55.361q.134-.216.266-.433c-.09.144-.176.289-.266.433M65.394 58.193l.244-.365z" class="cls-47"/><path d="M43.298 55.58q.126.185.247.371-.127-.186-.247-.372" class="cls-87"/><path d="m42.932 54.928.273.443z" class="cls-7"/><path d="m66.023 54.627-.215.292z" class="cls-47"/><path d="M44.42 54.925q-.11-.149-.22-.302z" class="cls-87"/><path d="m66.286 54.19-.26.427z" class="cls-47"/><path d="m44.2 54.617-.257-.43z" class="cls-7"/><path d="m43.987 54.235-.426-.26h.292q.135.097.134.26" class="cls-87"/><path d="M42.586 53.963v.353q-.12-.173-.238-.347.119-.005.238-.006m1.267.009h-.299c-.01-.093-.019-.186-.035-.279l.1-.096q.115.187.234.375" class="cls-7"/><path d="m45.482 56.862-.273-.462z" class="cls-55"/><path d="m42.833 60.628.378-.27.042.049c-.096.105-.196.211-.292.314a2 2 0 0 1-.132-.093z" class="cls-84"/><path d="M42.586 53.963q-.118-.002-.238.006l-.118-.298q.177.143.356.292" class="cls-87"/><path d="M41.999 53.328h.285l-.038.368-.244-.365z" class="cls-7"/><path d="m65.346 55.817-.247.394z" class="cls-47"/><path d="m45.13 56.214-.254-.4c.083.134.17.266.253.4" class="cls-55"/><path d="m41.614 61.59-.407.382zm-.966.934-.385.413z" class="cls-65"/><path d="M66.674 55.945c.08-.119.164-.24.244-.36-.08.12-.164.241-.244.36" class="cls-47"/><path d="M40.334 62.86q-.189.204-.378.401.189-.203.378-.4m-.314.333-.356.394z" class="cls-65"/><path d="m80.13 88.29.308-.28z" class="cls-48"/><path d="m73.08 89.57.269-.222z" class="cls-43"/><path d="m78.85 88.61.301-.272q-.151.135-.301.272" class="cls-78"/><path d="m61.196 57.84.65.305c-3.008 5.34-6.37 10.486-9.092 16.192.587.067.99.112 1.395.16q.64 0 1.276.003c0 .061.007.125.01.186q-2.088.001-4.176.007v-.19c.568-.179.805-.663 1.052-1.138 2.746-5.299 5.783-10.428 8.885-15.524" class="cls-35"/><path d="M54.149 74.497c-.404-.045-.808-.093-1.395-.16 2.723-5.706 6.084-10.851 9.093-16.192l1.273.343c-2.71 4.706-5.427 9.408-8.124 14.123-.34.597-.568 1.257-.847 1.886" class="cls-64"/><path d="M42.964 60.72q.146-.158.292-.313.473-.3.946-.594l.969-.369c-1.193 3.397-3.41 6.239-5.097 9.373-1.033 1.921-2.418 3.643-3.243 5.683h-1.28q3.548-5.979 7.09-11.964c.33-.558.609-1.138.326-1.812z" style="stroke-width:0;fill:#30cf96"/><path d="M47.413 58.466q.481-.164.962-.324-4.65 8.18-9.301 16.355h-.963z" class="cls-39"/><path d="M45.22 59.104c0-.102 0-.205.009-.308zm-1.7-5.411q.022.14.034.28l-.304-.325q.135.016.27.045m-.334-.628a3 3 0 0 1 .032.279l-.292-.33q.13.019.26.054z" class="cls-87"/><path d="M73.368 68.105c.398 2.123-1.215 5.366-3.182 6.399-.407-.039-.853.096-1.28-.34.85-2.056 2.191-3.875 3.365-5.787.263-.43.655-.49 1.097-.27z" class="cls-42"/><path d="M53.177 56.885q.645 0 1.29-.007c-.248.526-.463 1.072-.745 1.578-3.05 5.421-6.11 10.832-9.17 16.246h-1.04c-.304-.702.151-1.196.44-1.767 2.797-5.514 6.136-10.71 9.225-16.053z" class="cls-1"/><path d="M53.177 56.885c-3.089 5.343-6.428 10.543-9.225 16.053-.289.568-.744 1.065-.44 1.768-.439 0-.875.006-1.314.006-.517-.51-.177-.994.07-1.456 1.084-2.024 2.156-4.054 3.281-6.053 1.883-3.342 3.805-6.665 5.71-9.994q.956-.165 1.918-.324" class="cls-33"/><path d="M51.262 74.504v.189q-1.123 0-2.245.003V74.5q4.969-8.647 9.943-17.295l.962.308c-.276.517-.535 1.04-.827 1.546-2.682 4.651-5.38 9.293-8.032 13.96-.256.449-1.235 1.186.202 1.481z" class="cls-2"/><path d="M49.014 74.5v.196l-3.779.02q.126-.112.25-.219c1.004.106 1.562-.484 2.021-1.264.783-1.324 1.6-2.627 2.377-3.958 2.377-4.076 4.907-8.067 6.822-12.4l1.254.08q.025.11.036.218c-1.338 1.168-1.7 2.916-2.57 4.366-2.501 4.186-4.933 8.413-7.47 12.76.465.086.76.144 1.052.198z" class="cls-81"/><path d="M45.492 74.497q-.126.112-.25.218c-.228-.003-.46-.01-.69-.013 3.06-5.414 6.12-10.828 9.17-16.246.286-.506.5-1.052.744-1.578q.48 0 .96-.003c-2.93 6.091-6.74 11.682-9.934 17.625z" class="cls-85"/><path d="M51.259 57.209c-1.905 3.33-3.827 6.652-5.71 9.994-1.125 1.999-2.197 4.029-3.28 6.053-.248.462-.588.946-.071 1.456h-1.806a2 2 0 0 1-.039-.208c1.232-.911 1.473-2.428 2.194-3.647 2.624-4.424 5.17-8.892 7.75-13.34.32-.103.641-.202.962-.305z" style="stroke-width:0;fill:#2ccb9c"/><path d="M50.297 57.513c-2.576 4.452-5.126 8.917-7.75 13.34-.721 1.22-.962 2.736-2.194 3.647q-.64 0-1.28-.006 4.651-8.18 9.302-16.355l.299-.273.667-.048.282-.25.674-.058z" class="cls-23"/><path d="M45.492 74.497c3.194-5.94 7.005-11.534 9.933-17.625q.644 0 1.287.006c-1.915 4.33-4.446 8.324-6.823 12.4-.776 1.328-1.594 2.634-2.377 3.959-.458.776-1.016 1.37-2.02 1.263z" class="cls-31"/><path d="m48.674 57.87-.299.272zm.949-.299c-.093.084-.19.167-.282.25z" class="cls-39"/><path d="M51.262 74.504c-1.437-.296-.459-1.033-.202-1.482 2.656-4.667 5.353-9.308 8.032-13.96.291-.506.551-1.029.827-1.545l1.277.327c-3.099 5.097-6.14 10.225-8.885 15.524-.247.478-.484.96-1.052 1.139z" class="cls-14"/><path d="M49.014 74.5c-.296-.054-.587-.112-1.052-.198 2.537-4.347 4.968-8.574 7.47-12.76.866-1.45 1.228-3.195 2.569-4.365l.956.025q-4.97 8.647-9.943 17.295z" class="cls-54"/></svg>
