<svg xmlns="http://www.w3.org/2000/svg" xml:space="preserve" id="Capa_1" x="0" y="0" version="1.1" viewBox="0 0 512 512"><style>.st2{fill:#324a97}</style><path d="M512 256q0 9.3-.6 18.3C501.9 407.2 391.2 512 256 512c-85.8 0-161.7-42.2-208.2-107C34.1 386 23 364.9 15 342.5c-9.7-27-15-56.1-15-86.5C0 114.6 114.6 0 256 0c99.9 0 186.4 57.2 228.6 140.6C502.1 175.2 512 214.5 512 256" style="fill:#73d4ff"/><path d="M512 256q0 9.3-.6 18.3C501.9 407.2 391.2 512 256 512c-85.8 0-161.7-42.2-208.2-107C34.1 386 23 364.9 15 342.5l93.3-230L171 212.8 272.9 40.4 421 204.1l63.6-63.6c17.5 34.7 27.4 74 27.4 115.5" style="fill:#249fd3"/><path d="M147.1 349.5c-54 15.2-110.3-16.3-125.5-70.3S37.9 169 91.8 153.7 202.1 170 217.4 224s-16.3 110.3-70.3 125.5M97 172c-44 12.3-69.6 58.2-57.2 102.1S98 343.7 142 331.3s69.6-58.2 57.2-102.2S140.9 159.6 97 172m310.3 104.1c-54 15.2-110.3-16.3-125.5-70.3s16.3-110.3 70.3-125.5 110.3 16.3 125.5 70.3-16.3 110.3-70.3 125.5M357.2 98.5c-43.9 12.4-69.6 58.2-57.2 102.2s58.2 69.6 102.2 57.2c43.9-12.4 69.6-58.2 57.2-102.2-12.4-43.9-58.2-69.5-102.2-57.2" class="st2"/><path d="m123.2 242.6 29.4-121.3 84.6 89.1zm124.7-43.2-85.1-89.6L284 75.6zM366.6 16.1C360.2 5.1 346.9.3 335 4.5l-29 10.3-22.3 8c-2.2.8-3.9 2.5-4.7 4.7s-.5 4.6.8 6.6l14.3 22.7c-.3 0-.6.1-.9.2L150.8 97.2l-16.1-17-11.1 10.6 16.4 17.3-34.8 143.7c-.7 2.7.2 5.4 2.1 7.4 2 1.9 4.8 2.6 7.4 1.9L252.8 222c.2 0 .4-.1.5-.1l.3-.1c2.6-.7 4.5-2.7 5.3-5.2l43-147.4 71.3 113.2c1.9 3 5.4 4.2 8.6 3.3.7-.2 1.4-.5 2-.9 3.6-2.3 4.7-7 2.4-10.6L297.9 34.1l16.6-5.9 25.6-9.1c5-1.8 10.5.2 13.2 4.8 1.6 2.8 1.9 6.2.8 9.3s-3.5 5.5-6.6 6.6l-10.2 3.7c-4 1.4-6.1 5.9-4.6 9.8 1.4 4 5.9 6.1 9.8 4.6l10.2-3.7c7.4-2.7 13.1-8.4 15.8-15.8 2.8-7.4 2-15.5-1.9-22.3" style="fill:#e8509a"/><circle cx="119.5" cy="251.6" r="15.8" class="st2"/><circle cx="379.7" cy="178.2" r="15.8" class="st2"/><path d="M368.6 38.3c-2.7 7.4-8.4 13.1-15.8 15.8l-10.2 3.7c-4 1.4-8.4-.6-9.8-4.6s.6-8.4 4.6-9.8l10.2-3.7c3.1-1.1 5.5-3.5 6.6-6.6s.8-6.4-.8-9.3c-2.7-4.6-8.2-6.6-13.2-4.8l-18 6.4c-4.1 1.5-8.6-.9-9.8-5.1-1.1-3.8 1-7.8 4.7-9.2l18-6.7c11.9-4.3 25.2.6 31.6 11.5 3.8 7 4.6 15.1 1.9 22.4M174.1 57.4l-61 7.2c-6.4.8-10.6 7-8.8 13.2l3.6 12.8c1.2 4.3 5.7 6.9 10.1 5.7l60.5-17.1c5.9-1.7 9.4-7.8 7.7-13.8-1.5-5.2-6.7-8.7-12.1-8" class="st2"/><path d="M511.4 274.3c-3.3 46.7-19.1 89.9-44.1 126.3-14.1 20.6-31.2 39-50.6 54.7-22 17.8-47.1 32-74.3 41.7-27 9.7-56 14.9-86.3 14.9-45.6 0-88.5-11.9-125.6-32.9-32.7-18.4-60.9-43.8-82.6-74.1l99.2-57.6 102.3 20.5 50.2-84.6z" style="fill:#4e62b1"/><path d="M467.2 400.7c-14.1 20.6-31.2 39-50.6 54.7-22 17.8-47.1 32-74.3 41.7-27 9.7-56 14.9-86.3 14.9-45.6 0-88.5-11.9-125.6-32.9l42.1-67.3 142.6 25.1 76.8-76.8z" style="fill:#36539c"/></svg>