<svg xmlns="http://www.w3.org/2000/svg" xml:space="preserve" viewBox="0 0 512 512"><g transform="rotate(90 954.663 1091.978)scale(3.46361)"><linearGradient id="a" x1="145.117" x2="145.964" y1="714.153" y2="714.153" gradientTransform="scale(578.7505 -578.7505)rotate(60 691.77 230.951)" gradientUnits="userSpaceOnUse"><stop offset="0" style="stop-color:#f2364d"/><stop offset="1" style="stop-color:#fdc92f"/></linearGradient><path d="M34.3 499.7c-6.5 0-27.4 37.9-24.2 44.3s45.3 6.3 48.4 0-17.7-44.3-24.2-44.3" style="fill:url(#a)"/></g><g transform="rotate(90 954.663 1091.978)scale(3.46361)"><linearGradient id="b" x1="145.113" x2="145.96" y1="714.153" y2="714.153" gradientTransform="scale(578.7505 -578.7505)rotate(60 691.77 230.951)" gradientUnits="userSpaceOnUse"><stop offset="0" style="stop-color:#f2364d"/><stop offset="1" style="stop-color:#fdc92f"/></linearGradient><path d="M34.3 443.1c-19.6 0-82.5 114.2-72.9 133.4s136.4 19.1 145.9 0c9.4-19-53.5-133.4-73-133.4m47.8 116.7c-6.2 12.5-89.3 12.6-95.6 0s35-87.4 47.8-87.4 54 74.9 47.8 87.4" style="fill:url(#b)"/></g></svg>