<svg xmlns="http://www.w3.org/2000/svg" xml:space="preserve" viewBox="0 0 512 512"><path d="M58.9 2.6h394.2c31.1 0 56.3 25.2 56.3 56.3v394.2c0 31.1-25.2 56.3-56.3 56.3H58.9c-31.1 0-56.3-25.2-56.3-56.3V58.9c0-31.1 25.2-56.3 56.3-56.3" style="fill:#f8a66b"/><path d="M142 409.2c-2.1 0-4.4-1.5-6.8-4.5-2.1-3-3.9-6.5-5.4-10.4-1.2-3.9-1.8-7.1-1.8-9.5q.9-17.55 8.1-39.6c1.5-4.2 3.8-6 6.8-5.4.6-5.1 1.2-11.6 1.8-19.4.9-7.8 2-16.8 3.2-27-1.5-4.2-4.7-6.3-9.5-6.3-1.2 0-5.7.8-13.5 2.3-7.5 1.5-18.6 3.8-33.3 6.8-.3 0-.6.2-.9.5-.3 0-.8-.2-1.4-.5q-4.5 0-4.5-5.4c0-4.2 2-7.2 5.9-9l-.5.5c4.5-2.1 15.5-5.3 32.9-9.5 12.9-3.3 23.3-7.5 31.1-12.6l2.7-23c1.2-11.1 3.2-22.5 5.9-34.2 2.7-12 6.5-24.2 11.3-36.5 9.9-26.7 21.6-48.2 35.1-64.4q17.1-19.8 34.2-19.8c9.9 0 18.6 4.7 26.1 14 1.2 1.2 1.8 2.6 1.8 4.1 0 3.3-1.8 5-5.4 5q-3.15 0-5.4-2.7c-4.8-5.7-10.1-8.6-15.8-8.6-13.5 0-27.8 14.9-42.8 44.6-6 12-11.3 26.3-15.8 42.8-4.5 16.2-8 34.5-10.4 55l-.5 7.7-.9 12.2c8.7 2.7 18.3 4.1 28.8 4.1l28.8-.9q13.5.45 13.5 9c0 5.1-2.4 7.7-7.2 7.7h-35.1c-12.6.9-23.7 4.4-33.3 10.4-9 69.7-16.7 109.5-23 119.4-1.3 1.9-3 3.1-4.8 3.1m111.7-14.4q-10.35 0-16.2-2.7c-3.6-1.8-5.4-3.8-5.4-5.9 0-1.8.9-3.5 2.7-5 2.1-1.5 5.6-2.4 10.4-2.7q9-.45 25.2-.9c10.8-.3 22.7-.6 35.6-.9 13.2-.3 26.1-.5 38.7-.5h19.4c6.3 0 11.9.2 16.7.5 5.1.3 8.9.8 11.3 1.4s3.6 2.3 3.6 5c0 3.3-1.4 5.4-4.1 6.3s-6 1.4-9.9 1.4c-6.9 0-15.9.2-27 .5-11.1.6-23 1.1-35.6 1.4-12.6.6-24.8 1.1-36.5 1.4-11.4.4-21.1.7-28.9.7" style="fill:#fff"/></svg>