<?xml version="1.0" encoding="UTF-8"?>
<svg width="1024px" height="1024px" viewBox="0 0 1024 1024" version="1.1" xmlns="http://www.w3.org/2000/svg" xmlns:xlink="http://www.w3.org/1999/xlink">
    <title>FlowTunes</title>
    <g id="Artboard-Copy-3" stroke="none" stroke-width="1" fill="none" fill-rule="evenodd">
        <rect id="Rectangle" fill="#E75B1F" x="0" y="0" width="1024" height="1024"></rect>
        <g id="note" opacity="0.95" transform="translate(288, 131)" fill="#FFFFFF" fill-rule="nonzero">
            <path d="M29.3466593,707.957698 C9.06002024,681.609174 -0.720798193,652.00106 0.0413202586,619.180107 C0.857737621,584.020117 13.4320427,553.323517 37.1649563,527.368401 C59.6075729,502.824378 87.4362712,488.013312 120.287878,483.650926 C162.042472,478.10644 198.976369,489.763381 230.999147,517.135048 C232.191823,518.154495 233.119297,519.566293 235.11709,519.973368 C236.532641,518.043927 235.864456,515.757505 235.8651,513.664648 C235.884273,451.210242 235.678727,388.755073 235.930668,326.301692 C236.029987,301.67998 241.430383,278.055307 252.211914,255.807385 C267.203241,224.872584 291.287884,204.840638 324.479363,196.122934 C342.849116,191.298189 361.43899,187.314284 379.807044,182.483528 C396.60391,178.066063 412.62367,171.683379 426.155219,160.333268 C442.225503,146.853642 451.936332,129.659077 455.49823,108.970752 C455.633465,108.185593 455.758573,107.38913 456.005919,106.636701 C456.142208,106.222001 456.523618,105.888203 457.173391,105 C458.990111,110.456428 457.330464,115.416815 456.748483,120.220384 C453.337041,148.376241 442.108884,172.775881 421.034075,192.139233 C407.413951,204.653348 391.093101,212.761877 374.376089,220.151749 C359.765644,226.610393 344.820272,232.30853 330.705865,239.887891 C300.928638,255.878036 286.467771,282.208906 280.563316,314.283839 C278.968593,322.946904 278.529811,331.736521 278.532797,340.565144 C278.56482,434.727295 278.710183,528.889945 278.454817,623.051423 C278.279597,687.676992 231.482276,745.106783 168.206714,757.723341 C112.473064,768.836128 66.2381701,751.543607 29.3466593,707.957698 Z" id="Path"></path>
            <path d="M465.716944,58.062635 C444.269003,101.963215 409.364785,127.3419 361.7384,135.510789 C345.624806,138.274609 329.312283,139.967217 313.284119,143.126993 C271.302682,151.403095 244.928488,179.568303 238.625507,221.878348 C237.284786,230.878108 236.642962,239.930908 236.546852,248.845821 C235.044152,249.292614 234.549244,248.705671 234.285948,247.888619 C223.049565,213.019208 221.730321,178.562172 239.835433,145.401669 C255.769281,116.217937 281.623237,101.170804 313.702275,95.5333798 C333.913049,91.9816269 354.450957,90.753685 374.615367,86.8659481 C408.075841,80.4147324 436.758919,65.7516897 458.044,38.4634766 C466.385981,27.7686431 472.976499,16.0640806 477.221713,3.11932794 C477.518075,2.21576946 477.971709,1.35589685 478.432227,0.519622536 C478.536486,0.330381925 478.975175,0.324662555 480,0 C479.295602,20.4560718 474.406829,39.5211366 465.716944,58.062635 Z" id="Path"></path>
        </g>
    </g>
</svg>