<svg xmlns="http://www.w3.org/2000/svg" fill="none" viewBox="0 0 43.89 34.33">
<g id="Logo Mark">
<path id="Union" fill-rule="evenodd" clip-rule="evenodd" d="M39.3916 0C39.3916 0 41.5349 4.21968 40.553 6.67786C40.0504 7.9362 38.5932 9.43611 36.9963 9.43611H16.078C13.0714 9.43611 10.6341 11.8734 10.6341 14.88V30.1955C10.6341 32.4805 12.4864 34.3329 14.7714 34.3329H20.4657C21.9489 34.3329 23.1513 33.1305 23.1513 31.6472V28.1211H27.0804C28.5636 28.1211 29.766 26.9187 29.766 25.4355V22.3563C33.1388 22.3563 36.3201 20.7885 38.3747 18.1137L38.5726 17.856H27.9514C26.4681 17.856 25.2657 19.0584 25.2657 20.5417V23.0402C25.2657 23.3609 25.0057 23.6208 24.685 23.6208H21.3367C19.8534 23.6208 18.651 24.8232 18.651 26.3065V28.7882C18.651 29.365 18.1834 29.8326 17.6066 29.8326H16.1788C15.602 29.8326 15.1344 29.365 15.1344 28.7882V14.88C15.1344 14.3589 15.5568 13.9364 16.078 13.9364H38.448C41.4546 13.9364 43.8919 11.4991 43.8919 8.4925C43.8919 5.7605 42.7596 3.15069 40.7645 1.2843L39.3916 0ZM3.33893 6.69872C2.35708 4.24054 4.50029 0.0208569 4.50029 0.0208569L3.12742 1.30516C1.13232 3.17155 0 5.78135 0 8.51335C0 11.5199 2.43732 13.9573 5.4439 13.9573H6.77373V13.9358C6.77373 12.1934 7.42685 10.6035 8.50163 9.3977C4.9625 9.10792 3.7825 7.80925 3.33893 6.69872Z" fill="#3374db"/>
</g>
</svg>