<?xml version="1.0" encoding="UTF-8" standalone="no"?>
<!DOCTYPE svg PUBLIC "-//W3C//DTD SVG 1.1//EN" "http://www.w3.org/Graphics/SVG/1.1/DTD/svg11.dtd">
<svg width="100%" height="100%" viewBox="0 0 456 142" version="1.1" xmlns="http://www.w3.org/2000/svg" xmlns:xlink="http://www.w3.org/1999/xlink" xml:space="preserve" xmlns:serif="http://www.serif.com/" style="fill-rule:evenodd;clip-rule:evenodd;stroke-linejoin:round;stroke-miterlimit:2;">
    <g>
        <path d="M105.476,71.366C105.476,52.125 89.876,36.524 70.632,36.524C51.387,36.524 35.785,52.125 35.785,71.366C35.785,90.612 51.387,106.212 70.632,106.212C89.876,106.212 105.476,90.612 105.476,71.366ZM131.803,106.682L95.603,96.337L105.95,132.533L79.771,105.478L70.632,142.001L61.492,105.478L35.318,132.533L45.656,96.337L9.465,106.682L36.519,80.504L0,71.366L36.519,62.225L9.465,36.048L45.656,46.395L35.318,10.198L61.492,37.254L70.632,0.736L79.771,37.254L105.95,10.198L95.603,46.395L131.803,36.048L104.747,62.225L141.264,71.366L104.747,80.504L131.803,106.682ZM70.627,44.301L70.64,44.301L70.627,44.301ZM75.186,74.803L74.551,86.618L82.156,92.978L81.142,95.641L74.049,93.606L73.03,98.183C73.03,98.183 71.791,98.409 70.585,98.465C69.693,98.498 68.229,98.183 68.229,98.183L67.215,93.606L60.113,95.641L59.107,92.978L66.71,86.618L66.08,74.803L44.025,77.724L42.12,74.034L65.949,63.867C65.949,63.867 65.989,56.262 66.137,53.438C66.258,51.088 66.834,44.306 70.636,44.301C74.419,44.306 74.97,51.145 75.093,53.502C75.243,56.324 75.318,63.867 75.318,63.867L99.143,74.034L97.236,77.724L75.186,74.803Z" style="fill:rgb(35,31,32);fill-rule:nonzero;"/>
        <path d="M163.929,30.534L190.754,30.534L190.754,37.108L172.412,37.108L172.412,49.208L189.513,49.208L189.513,55.781L172.412,55.781L172.412,74.388L163.929,74.388L163.929,30.534Z" style="fill:rgb(35,31,32);fill-rule:nonzero;"/>
        <path d="M203.771,58.578C203.771,64.693 206.941,69.313 212.113,69.313C216.94,69.313 220.319,64.823 220.319,58.448C220.319,53.501 217.976,47.843 212.183,47.843C206.183,47.843 203.771,53.308 203.771,58.578ZM229.077,58.252C229.077,69.897 220.387,75.104 211.839,75.104C202.321,75.104 195.013,68.923 195.013,58.772C195.013,48.363 202.254,41.986 212.39,41.986C222.389,41.986 229.077,48.624 229.077,58.252Z" style="fill:rgb(35,31,32);fill-rule:nonzero;"/>
        <path d="M235.287,52.917C235.287,48.624 235.218,45.566 235.011,42.702L242.389,42.702L242.665,48.753L242.943,48.753C244.595,44.263 248.526,41.986 252.113,41.986C252.939,41.986 253.422,42.052 254.112,42.182L254.112,49.73C253.422,49.6 252.664,49.47 251.628,49.47C247.561,49.47 244.803,51.941 244.045,55.519C243.906,56.235 243.767,57.082 243.767,57.992L243.767,74.388L235.287,74.388L235.287,52.917Z" style="fill:rgb(35,31,32);fill-rule:nonzero;"/>
        <path d="M279.806,55.194C279.874,52.267 278.497,47.453 272.842,47.453C267.6,47.453 265.396,51.941 265.05,55.194L279.806,55.194ZM265.05,60.789C265.258,66.516 270.016,68.987 275.393,68.987C279.323,68.987 282.152,68.467 284.702,67.557L285.945,73.087C283.049,74.191 279.048,75.038 274.222,75.038C263.326,75.038 256.914,68.727 256.914,59.032C256.914,50.25 262.568,41.986 273.325,41.986C284.219,41.986 287.805,50.444 287.805,57.405C287.805,58.902 287.669,60.075 287.528,60.789L265.05,60.789Z" style="fill:rgb(35,31,32);fill-rule:nonzero;"/>
        <path d="M294.67,30.534L321.495,30.534L321.495,37.108L303.152,37.108L303.152,49.208L320.254,49.208L320.254,55.781L303.152,55.781L303.152,74.388L294.67,74.388L294.67,30.534Z" style="fill:rgb(35,31,32);fill-rule:nonzero;"/>
        <rect x="327.462" y="28.193" width="8.553" height="46.195" style="fill:rgb(35,31,32);fill-rule:nonzero;"/>
        <path d="M344.268,74.388L344.268,42.702L352.819,42.702L352.819,74.388L344.268,74.388ZM353.301,33.854C353.301,36.261 351.441,38.148 348.474,38.148C345.648,38.148 343.785,36.261 343.785,33.854C343.785,31.381 345.717,29.494 348.545,29.494C351.441,29.494 353.231,31.381 353.301,33.854Z" style="fill:rgb(35,31,32);fill-rule:nonzero;"/>
        <path d="M382.996,55.389C382.996,54.674 382.928,53.894 382.721,53.242C381.824,50.314 379.41,48.103 375.826,48.103C371.069,48.103 367.551,52.007 367.551,58.448C367.551,63.847 370.447,68.207 375.755,68.207C378.929,68.207 381.685,66.256 382.651,63.393C382.858,62.546 382.996,61.439 382.996,60.529L382.996,55.389ZM391.755,42.702C391.615,44.85 391.477,47.453 391.477,51.811L391.477,69.768C391.477,76.405 390.03,81.155 386.512,84.146C382.996,87.076 378.171,87.986 373.551,87.986C369.274,87.986 364.725,87.141 361.828,85.449L363.689,79.398C365.827,80.568 369.411,81.806 373.48,81.806C378.996,81.806 383.135,79.072 383.135,72.241L383.135,69.507L382.996,69.507C381.066,72.307 377.618,74.191 373.205,74.191C364.861,74.191 358.931,67.687 358.931,58.708C358.931,48.297 366.102,41.986 374.17,41.986C379.273,41.986 382.307,44.329 383.894,46.93L384.03,46.93L384.374,42.702L391.755,42.702Z" style="fill:rgb(35,31,32);fill-rule:nonzero;"/>
        <path d="M399.798,28.193L408.349,28.193L408.349,47.061L408.486,47.061C409.522,45.566 410.902,44.329 412.692,43.419C414.349,42.506 416.346,41.986 418.485,41.986C424.207,41.986 430.207,45.566 430.207,55.715L430.207,74.388L421.725,74.388L421.725,56.625C421.725,52.007 419.933,48.557 415.244,48.557C411.933,48.557 409.59,50.641 408.693,53.047C408.417,53.698 408.349,54.544 408.349,55.455L408.349,74.388L399.798,74.388L399.798,28.193Z" style="fill:rgb(35,31,32);fill-rule:nonzero;"/>
        <path d="M447.754,33.658L447.754,42.702L455.822,42.702L455.822,48.687L447.754,48.687L447.754,62.676C447.754,66.516 448.856,68.533 452.099,68.533C453.547,68.533 454.649,68.337 455.407,68.141L455.547,74.258C454.305,74.714 452.099,75.038 449.409,75.038C446.308,75.038 443.685,74.062 442.1,72.437C440.308,70.614 439.479,67.75 439.479,63.586L439.479,48.687L434.654,48.687L434.654,42.702L439.479,42.702L439.479,35.545L447.754,33.658Z" style="fill:rgb(35,31,32);fill-rule:nonzero;"/>
        <path d="M185.939,116.501L194.649,116.501L190.371,105.158L185.939,116.501ZM189.287,103.049L191.644,103.049L200.322,125.182L198.06,125.182L195.364,118.299L185.289,118.299L182.624,125.182L180.361,125.182L189.287,103.049Z" style="fill:rgb(4,4,7);fill-rule:nonzero;"/>
        <path d="M213.052,123.381L220.305,123.381C223.434,123.414 226.131,122.361 226.131,118.825C226.131,116.005 223.991,114.547 220.305,114.547L213.052,114.547L213.052,123.381ZM213.052,112.753L220.305,112.753C223.682,112.753 225.293,111.081 225.293,109.001C225.293,106.242 223.591,104.848 220.305,104.848L213.052,104.848L213.052,112.753ZM210.943,103.049L220.305,103.049C224.024,103.049 227.402,104.354 227.402,108.475C227.402,110.799 225.854,112.939 223.559,113.435L223.559,113.493C226.41,113.868 228.239,116.005 228.239,118.889C228.239,120.999 227.495,125.18 220.305,125.18L210.943,125.18L210.943,103.049Z" style="fill:rgb(4,4,7);fill-rule:nonzero;"/>
        <path d="M232.756,117.185C232.756,120.594 234.616,124.001 238.367,124.001C242.117,124.001 243.976,120.594 243.976,117.185C243.976,113.774 242.117,110.366 238.367,110.366C234.616,110.366 232.756,113.774 232.756,117.185ZM245.928,117.185C245.928,121.773 243.263,125.647 238.367,125.647C233.47,125.647 230.803,121.773 230.803,117.185C230.803,112.599 233.47,108.721 238.367,108.721C243.263,108.721 245.928,112.599 245.928,117.185Z" style="fill:rgb(4,4,7);fill-rule:nonzero;"/>
        <path d="M260.708,116.067C260.616,113.123 258.786,110.366 255.624,110.366C252.433,110.366 250.665,113.154 250.354,116.067L260.708,116.067ZM250.354,117.71C250.385,120.563 251.873,124.001 255.624,124.001C258.476,124.001 260.026,122.329 260.644,119.909L262.599,119.909C261.762,123.537 259.653,125.645 255.624,125.645C250.542,125.645 248.404,121.739 248.404,117.186C248.404,112.968 250.542,108.722 255.624,108.722C260.769,108.722 262.816,113.218 262.66,117.71L250.354,117.71Z" style="fill:rgb(4,4,7);fill-rule:nonzero;"/>
        <path d="M265.754,109.187L267.707,109.187L267.707,125.18L265.754,125.18L265.754,109.187ZM265.754,103.05L267.707,103.05L267.707,106.178L265.754,106.178L265.754,103.05Z" style="fill:rgb(4,4,7);fill-rule:nonzero;"/>
        <path d="M271.672,109.186L273.624,109.186L273.624,111.945L273.685,111.945C274.4,110.026 276.537,108.721 278.8,108.721C283.295,108.721 284.659,111.081 284.659,114.891L284.659,125.18L282.707,125.18L282.707,115.202C282.707,112.443 281.807,110.366 278.646,110.366C275.546,110.366 273.685,112.72 273.624,115.852L273.624,125.18L271.672,125.18L271.672,109.186Z" style="fill:rgb(4,4,7);fill-rule:nonzero;"/>
        <path d="M300.181,116.997C300.181,113.87 298.725,110.365 295.035,110.365C291.318,110.365 289.765,113.684 289.765,116.997C289.765,120.222 291.441,123.352 295.035,123.352C298.415,123.352 300.181,120.253 300.181,116.997ZM302.134,123.876C302.103,128.653 300.273,131.566 295.035,131.566C291.845,131.566 288.682,130.138 288.405,126.729L290.355,126.729C290.791,129.089 292.866,129.923 295.035,129.923C298.632,129.923 300.181,127.784 300.181,123.876L300.181,121.708L300.119,121.708C299.221,123.663 297.331,124.996 295.035,124.996C289.922,124.996 287.813,121.337 287.813,116.78C287.813,112.379 290.418,108.72 295.035,108.72C297.361,108.72 299.344,110.181 300.119,111.944L300.181,111.944L300.181,109.185L302.134,109.185L302.134,123.876Z" style="fill:rgb(4,4,7);fill-rule:nonzero;"/>
        <path d="M331.012,109.746C330.27,106.333 327.449,104.384 324.223,104.384C318.366,104.384 315.887,109.281 315.887,114.113C315.887,118.949 318.366,123.848 324.223,123.848C328.316,123.848 330.92,120.687 331.32,116.751L333.431,116.751C332.839,122.172 329.401,125.646 324.223,125.646C317.252,125.646 313.778,120.16 313.778,114.113C313.778,108.073 317.252,102.585 324.223,102.585C328.407,102.585 332.562,105.095 333.12,109.746L331.012,109.746Z" style="fill:rgb(4,4,7);fill-rule:nonzero;"/>
        <path d="M337.791,117.185C337.791,120.594 339.652,124.001 343.402,124.001C347.153,124.001 349.011,120.594 349.011,117.185C349.011,113.774 347.153,110.366 343.402,110.366C339.652,110.366 337.791,113.774 337.791,117.185ZM350.966,117.185C350.966,121.773 348.299,125.647 343.402,125.647C338.506,125.647 335.838,121.773 335.838,117.185C335.838,112.599 338.506,108.721 343.402,108.721C348.299,108.721 350.966,112.599 350.966,117.185Z" style="fill:rgb(4,4,7);fill-rule:nonzero;"/>
        <path d="M354.181,109.186L355.979,109.186L355.979,111.884L356.073,111.884C357.096,109.961 358.769,108.721 361.311,108.721C363.418,108.721 365.31,109.747 365.899,111.853C366.86,109.747 368.875,108.721 370.981,108.721C374.484,108.721 376.282,110.551 376.282,114.333L376.282,125.18L374.327,125.18L374.327,114.426C374.327,111.791 373.336,110.366 370.548,110.366C367.17,110.366 366.208,113.154 366.208,116.13L366.208,125.18L364.253,125.18L364.253,114.333C364.286,112.164 363.386,110.366 360.909,110.366C357.53,110.366 356.165,112.908 356.134,116.256L356.134,125.18L354.181,125.18L354.181,109.186Z" style="fill:rgb(4,4,7);fill-rule:nonzero;"/>
        <path d="M387.864,110.366C383.557,110.366 382.255,113.557 382.255,117.185C382.255,120.501 383.711,124.001 387.864,124.001C391.583,124.001 393.102,120.501 393.102,117.185C393.102,113.868 391.583,110.366 387.864,110.366ZM380.302,109.186L382.099,109.186L382.099,112.224L382.163,112.224C383.061,110.055 385.293,108.721 387.864,108.721C392.729,108.721 395.057,112.66 395.057,117.185C395.057,121.709 392.729,125.645 387.864,125.645C385.478,125.645 383.153,124.436 382.318,122.142L382.255,122.142L382.255,131.102L380.302,131.102L380.302,109.186Z" style="fill:rgb(4,4,7);fill-rule:nonzero;"/>
        <path d="M408.531,116.441L408.471,116.441C408.221,116.906 407.354,117.06 406.827,117.152C403.512,117.742 399.388,117.71 399.388,120.842C399.388,122.793 401.124,124.001 402.951,124.001C405.927,124.001 408.563,122.113 408.531,118.981L408.531,116.441ZM398.117,114.085C398.303,110.335 400.939,108.721 404.595,108.721C407.417,108.721 410.484,109.59 410.484,113.868L410.484,122.361C410.484,123.103 410.857,123.539 411.632,123.539C411.848,123.539 412.096,123.476 412.251,123.414L412.251,125.057C411.817,125.151 411.507,125.18 410.982,125.18C408.998,125.18 408.685,124.065 408.685,122.392L408.625,122.392C407.262,124.467 405.866,125.645 402.797,125.645C399.853,125.645 397.436,124.19 397.436,120.965C397.436,116.472 401.805,116.316 406.023,115.823C407.633,115.633 408.531,115.417 408.531,113.649C408.531,111.015 406.641,110.366 404.347,110.366C401.93,110.366 400.132,111.48 400.07,114.085L398.117,114.085Z" style="fill:rgb(4,4,7);fill-rule:nonzero;"/>
        <path d="M414.787,109.186L416.74,109.186L416.74,111.945L416.8,111.945C417.515,110.026 419.653,108.721 421.916,108.721C426.41,108.721 427.773,111.081 427.773,114.891L427.773,125.18L425.822,125.18L425.822,115.202C425.822,112.443 424.922,110.366 421.761,110.366C418.661,110.366 416.8,112.72 416.74,115.852L416.74,125.18L414.787,125.18L414.787,109.186Z" style="fill:rgb(4,4,7);fill-rule:nonzero;"/>
        <path d="M429.598,109.186L431.675,109.186L436.943,122.826L441.872,109.186L443.824,109.186L436.882,127.63C435.765,130.327 435.113,131.102 432.667,131.102C431.892,131.072 431.489,131.072 431.179,130.947L431.179,129.303C431.644,129.397 432.075,129.458 432.51,129.458C434.246,129.458 434.651,128.435 435.301,126.949L435.982,125.12L429.598,109.186Z" style="fill:rgb(4,4,7);fill-rule:nonzero;"/>
    </g>
</svg>
