<svg xmlns="http://www.w3.org/2000/svg" xmlns:xlink="http://www.w3.org/1999/xlink" xmlns:serif="http://www.serif.com/" version="1.1" xml:space="preserve" style="fill-rule:evenodd;clip-rule:evenodd;stroke-linejoin:round;stroke-miterlimit:2;" viewBox="1196.79 1135.94 911.51 282.49">
    <g id="Layer-1" serif:id="Layer 1" transform="matrix(4.16667,0,0,4.16667,0,0)">
        <g transform="matrix(1,0,0,1,337.852,306.525)">
            <path d="M0,-0.002C0,-9.237 -7.487,-16.724 -16.723,-16.724C-25.958,-16.724 -33.447,-9.237 -33.447,-0.002C-33.447,9.235 -25.958,16.722 -16.723,16.722C-7.487,16.722 0,9.235 0,-0.002M12.635,16.947L-4.738,11.982L0.228,29.354L-12.336,16.37L-16.723,33.898L-21.109,16.37L-33.671,29.354L-28.709,11.982L-46.079,16.947L-33.094,4.383L-50.622,-0.002L-33.094,-4.39L-46.079,-16.953L-28.709,-11.986L-33.671,-29.359L-21.109,-16.374L-16.723,-33.9L-12.336,-16.374L0.228,-29.359L-4.738,-11.986L12.635,-16.953L-0.35,-4.39L17.176,-0.002L-0.35,4.383L12.635,16.947ZM-16.725,-12.992L-16.719,-12.992L-16.725,-12.992ZM-14.537,1.647L-14.842,7.318L-11.192,10.37L-11.679,11.648L-15.083,10.671L-15.572,12.868C-15.572,12.868 -16.167,12.977 -16.745,13.003C-17.173,13.019 -17.876,12.868 -17.876,12.868L-18.363,10.671L-21.771,11.648L-22.254,10.37L-18.605,7.318L-18.907,1.647L-29.492,3.049L-30.406,1.278L-18.97,-3.601C-18.97,-3.601 -18.951,-7.251 -18.88,-8.606C-18.822,-9.734 -18.545,-12.989 -16.721,-12.992C-14.905,-12.989 -14.641,-9.707 -14.582,-8.576C-14.51,-7.222 -14.474,-3.601 -14.474,-3.601L-3.04,1.278L-3.955,3.049L-14.537,1.647Z" style="fill:white;fill-rule:nonzero;"/>
        </g>
        <g transform="matrix(1,0,0,1,365.905,307.972)">
            <path d="M0,-21.046L12.874,-21.046L12.874,-17.891L4.071,-17.891L4.071,-12.084L12.278,-12.084L12.278,-8.929L4.071,-8.929L4.071,0L0,0L0,-21.046Z" style="fill:white;fill-rule:nonzero;"/>
        </g>
        <g transform="matrix(1,0,0,1,385.026,300.353)">
            <path d="M0,0.032C0,2.967 1.521,5.184 4.003,5.184C6.32,5.184 7.942,3.029 7.942,-0.03C7.942,-2.405 6.817,-5.12 4.037,-5.12C1.157,-5.12 0,-2.497 0,0.032M12.146,-0.125C12.146,5.465 7.975,7.963 3.872,7.963C-0.696,7.963 -4.203,4.997 -4.203,0.125C-4.203,-4.87 -0.728,-7.931 4.137,-7.931C8.936,-7.931 12.146,-4.746 12.146,-0.125" style="fill:white;fill-rule:nonzero;"/>
        </g>
        <g transform="matrix(1,0,0,1,400.151,302.727)">
            <path d="M0,-5.058C0,-7.119 -0.032,-8.586 -0.132,-9.96L3.409,-9.96L3.541,-7.057L3.675,-7.057C4.468,-9.211 6.354,-10.304 8.076,-10.304C8.473,-10.304 8.704,-10.272 9.035,-10.21L9.035,-6.588C8.704,-6.65 8.34,-6.713 7.843,-6.713C5.891,-6.713 4.567,-5.527 4.203,-3.809C4.137,-3.466 4.07,-3.059 4.07,-2.622L4.07,5.246L0,5.246L0,-5.058Z" style="fill:white;fill-rule:nonzero;"/>
        </g>
        <g transform="matrix(1,0,0,1,421.518,301.946)">
            <path d="M0,-3.185C0.033,-4.59 -0.628,-6.9 -3.342,-6.9C-5.857,-6.9 -6.915,-4.747 -7.081,-3.185L0,-3.185ZM-7.081,-0.5C-6.982,2.249 -4.698,3.435 -2.117,3.435C-0.231,3.435 1.126,3.185 2.351,2.748L2.946,5.402C1.557,5.933 -0.363,6.339 -2.68,6.339C-7.909,6.339 -10.986,3.31 -10.986,-1.343C-10.986,-5.558 -8.272,-9.524 -3.11,-9.524C2.118,-9.524 3.84,-5.465 3.84,-2.124C3.84,-1.405 3.774,-0.843 3.706,-0.5L-7.081,-0.5Z" style="fill:white;fill-rule:nonzero;"/>
        </g>
        <g transform="matrix(1,0,0,1,428.651,307.972)">
            <path d="M0,-21.046L12.874,-21.046L12.874,-17.891L4.071,-17.891L4.071,-12.084L12.279,-12.084L12.279,-8.929L4.071,-8.929L4.071,0L0,0L0,-21.046Z" style="fill:white;fill-rule:nonzero;"/>
        </g>
        <g transform="matrix(1,0,0,1,444.39,307.973)">
            <rect x="0" y="-22.17" width="4.104" height="22.17" style="fill:white;fill-rule:nonzero;"/>
        </g>
        <g transform="matrix(1,0,0,1,452.455,286.427)">
            <path d="M0,21.546L0,6.339L4.104,6.339L4.104,21.546L0,21.546ZM4.336,2.093C4.336,3.248 3.442,4.154 2.019,4.154C0.663,4.154 -0.231,3.248 -0.231,2.093C-0.231,0.906 0.695,0 2.053,0C3.442,0 4.302,0.906 4.336,2.093" style="fill:white;fill-rule:nonzero;"/>
        </g>
        <g transform="matrix(1,0,0,1,471.042,308.067)">
            <path d="M0,-9.213C0,-9.556 -0.032,-9.93 -0.132,-10.243C-0.562,-11.649 -1.721,-12.71 -3.441,-12.71C-5.725,-12.71 -7.413,-10.836 -7.413,-7.745C-7.413,-5.154 -6.022,-3.061 -3.475,-3.061C-1.951,-3.061 -0.629,-3.997 -0.166,-5.372C-0.066,-5.778 0,-6.309 0,-6.746L0,-9.213ZM4.203,-15.301C4.137,-14.271 4.07,-13.022 4.07,-10.93L4.07,-2.312C4.07,0.873 3.376,3.153 1.687,4.589C0,5.995 -2.315,6.432 -4.533,6.432C-6.585,6.432 -8.769,6.025 -10.159,5.214L-9.267,2.31C-8.24,2.872 -6.52,3.466 -4.566,3.466C-1.92,3.466 0.067,2.153 0.067,-1.125L0.067,-2.437L0,-2.437C-0.927,-1.093 -2.581,-0.189 -4.699,-0.189C-8.703,-0.189 -11.549,-3.311 -11.549,-7.62C-11.549,-12.616 -8.107,-15.645 -4.235,-15.645C-1.786,-15.645 -0.331,-14.521 0.431,-13.273L0.496,-13.273L0.662,-15.301L4.203,-15.301Z" style="fill:white;fill-rule:nonzero;"/>
        </g>
        <g transform="matrix(1,0,0,1,479.106,307.973)">
            <path d="M0,-22.17L4.104,-22.17L4.104,-13.115L4.169,-13.115C4.666,-13.833 5.328,-14.426 6.187,-14.863C6.983,-15.301 7.941,-15.55 8.968,-15.55C11.714,-15.55 14.594,-13.833 14.594,-8.962L14.594,0L10.522,0L10.522,-8.525C10.522,-10.741 9.663,-12.397 7.412,-12.397C5.823,-12.397 4.699,-11.397 4.269,-10.242C4.136,-9.93 4.104,-9.524 4.104,-9.087L4.104,0L0,0L0,-22.17Z" style="fill:white;fill-rule:nonzero;"/>
        </g>
        <g transform="matrix(1,0,0,1,502.122,308.285)">
            <path d="M0,-19.86L0,-15.519L3.871,-15.519L3.871,-12.647L0,-12.647L0,-5.933C0,-4.09 0.528,-3.122 2.085,-3.122C2.779,-3.122 3.309,-3.216 3.673,-3.311L3.739,-0.375C3.144,-0.155 2.085,0 0.794,0C-0.694,0 -1.953,-0.469 -2.714,-1.249C-3.574,-2.124 -3.972,-3.498 -3.972,-5.496L-3.972,-12.647L-6.288,-12.647L-6.288,-15.519L-3.972,-15.519L-3.972,-18.954L0,-19.86Z" style="fill:white;fill-rule:nonzero;"/>
        </g>
        <g transform="matrix(1,0,0,1,376.468,325.895)">
            <path d="M0,2.29L4.18,2.29L2.127,-3.153L0,2.29ZM1.607,-4.166L2.738,-4.166L6.903,6.456L5.817,6.456L4.523,3.153L-0.312,3.153L-1.591,6.456L-2.677,6.456L1.607,-4.166Z" style="fill:white;fill-rule:nonzero;"/>
        </g>
        <g transform="matrix(1,0,0,1,389.48,322.59)">
            <path d="M0,8.897L3.481,8.897C4.983,8.912 6.277,8.407 6.277,6.709C6.277,5.357 5.25,4.657 3.481,4.657L0,4.657L0,8.897ZM0,3.795L3.481,3.795C5.102,3.795 5.875,2.993 5.875,1.995C5.875,0.67 5.058,0.001 3.481,0.001L0,0.001L0,3.795ZM-1.012,-0.862L3.481,-0.862C5.266,-0.862 6.887,-0.236 6.887,1.743C6.887,2.858 6.144,3.884 5.043,4.123L5.043,4.151C6.411,4.331 7.289,5.357 7.289,6.741C7.289,7.752 6.932,9.759 3.481,9.759L-1.012,9.759L-1.012,-0.862Z" style="fill:white;fill-rule:nonzero;"/>
        </g>
        <g transform="matrix(1,0,0,1,398.937,328.513)">
            <path d="M0,0C0,1.636 0.893,3.271 2.692,3.271C4.492,3.271 5.385,1.636 5.385,0C5.385,-1.637 4.492,-3.272 2.692,-3.272C0.893,-3.272 0,-1.637 0,0M6.321,0C6.321,2.202 5.043,4.062 2.692,4.062C0.343,4.062 -0.937,2.202 -0.937,0C-0.937,-2.201 0.343,-4.062 2.692,-4.062C5.043,-4.062 6.321,-2.201 6.321,0" style="fill:white;fill-rule:nonzero;"/>
        </g>
        <g transform="matrix(1,0,0,1,412.353,329.049)">
            <path d="M0,-1.072C-0.045,-2.485 -0.923,-3.808 -2.44,-3.808C-3.972,-3.808 -4.82,-2.47 -4.97,-1.072L0,-1.072ZM-4.97,-0.283C-4.954,1.085 -4.24,2.736 -2.44,2.736C-1.071,2.736 -0.327,1.933 -0.03,0.772L0.907,0.772C0.506,2.513 -0.507,3.525 -2.44,3.525C-4.88,3.525 -5.905,1.65 -5.905,-0.535C-5.905,-2.559 -4.88,-4.597 -2.44,-4.597C0.029,-4.597 1.012,-2.439 0.937,-0.283L-4.97,-0.283Z" style="fill:white;fill-rule:nonzero;"/>
        </g>
        <g transform="matrix(1,0,0,1,0,42.08)">
            <path d="M414.774,282.594L415.711,282.594L415.711,290.271L414.774,290.271L414.774,282.594ZM414.774,279.649L415.711,279.649L415.711,281.15L414.774,281.15L414.774,279.649Z" style="fill:white;fill-rule:nonzero;"/>
        </g>
        <g transform="matrix(1,0,0,1,417.614,332.127)">
            <path d="M0,-7.453L0.937,-7.453L0.937,-6.129L0.966,-6.129C1.309,-7.05 2.335,-7.676 3.421,-7.676C5.578,-7.676 6.233,-6.544 6.233,-4.715L6.233,0.223L5.296,0.223L5.296,-4.566C5.296,-5.89 4.864,-6.887 3.347,-6.887C1.859,-6.887 0.966,-5.757 0.937,-4.254L0.937,0.223L0,0.223L0,-7.453Z" style="fill:white;fill-rule:nonzero;"/>
        </g>
        <g transform="matrix(1,0,0,1,431.297,331.441)">
            <path d="M0,-3.018C0,-4.519 -0.699,-6.202 -2.47,-6.202C-4.254,-6.202 -4.999,-4.609 -4.999,-3.018C-4.999,-1.47 -4.195,0.032 -2.47,0.032C-0.848,0.032 0,-1.456 0,-3.018M0.937,0.284C0.922,2.576 0.044,3.973 -2.47,3.973C-4.001,3.973 -5.519,3.289 -5.652,1.653L-4.716,1.653C-4.507,2.785 -3.511,3.186 -2.47,3.186C-0.744,3.186 0,2.159 0,0.284L0,-0.757L-0.03,-0.757C-0.461,0.18 -1.368,0.821 -2.47,0.821C-4.924,0.821 -5.936,-0.935 -5.936,-3.122C-5.936,-5.235 -4.686,-6.991 -2.47,-6.991C-1.354,-6.991 -0.402,-6.289 -0.03,-5.444L0,-5.444L0,-6.767L0.937,-6.767L0.937,0.284Z" style="fill:white;fill-rule:nonzero;"/>
        </g>
        <g transform="matrix(1,0,0,1,446.094,329.136)">
            <path d="M0,-4.194C-0.356,-5.832 -1.711,-6.767 -3.259,-6.767C-6.069,-6.767 -7.26,-4.417 -7.26,-2.098C-7.26,0.223 -6.069,2.575 -3.259,2.575C-1.295,2.575 -0.045,1.057 0.147,-0.832L1.16,-0.832C0.877,1.77 -0.773,3.437 -3.259,3.437C-6.604,3.437 -8.271,0.804 -8.271,-2.098C-8.271,-4.997 -6.604,-7.631 -3.259,-7.631C-1.25,-7.631 0.743,-6.425 1.012,-4.194L0,-4.194Z" style="fill:white;fill-rule:nonzero;"/>
        </g>
        <g transform="matrix(1,0,0,1,449.347,328.513)">
            <path d="M0,0C0,1.636 0.893,3.271 2.693,3.271C4.493,3.271 5.385,1.636 5.385,0C5.385,-1.637 4.493,-3.272 2.693,-3.272C0.893,-3.272 0,-1.637 0,0M6.323,0C6.323,2.202 5.043,4.062 2.693,4.062C0.343,4.062 -0.937,2.202 -0.937,0C-0.937,-2.201 0.343,-4.062 2.693,-4.062C5.043,-4.062 6.323,-2.201 6.323,0" style="fill:white;fill-rule:nonzero;"/>
        </g>
        <g transform="matrix(1,0,0,1,457.213,332.127)">
            <path d="M0,-7.453L0.863,-7.453L0.863,-6.158L0.908,-6.158C1.399,-7.081 2.202,-7.676 3.422,-7.676C4.433,-7.676 5.341,-7.183 5.624,-6.173C6.085,-7.183 7.052,-7.676 8.063,-7.676C9.744,-7.676 10.607,-6.798 10.607,-4.983L10.607,0.223L9.669,0.223L9.669,-4.938C9.669,-6.203 9.193,-6.887 7.855,-6.887C6.234,-6.887 5.772,-5.549 5.772,-4.12L5.772,0.223L4.834,0.223L4.834,-4.983C4.85,-6.024 4.418,-6.887 3.229,-6.887C1.607,-6.887 0.952,-5.667 0.937,-4.059L0.937,0.223L0,0.223L0,-7.453Z" style="fill:white;fill-rule:nonzero;"/>
        </g>
        <g transform="matrix(1,0,0,1,473.379,334.403)">
            <path d="M0,-9.163C-2.067,-9.163 -2.692,-7.632 -2.692,-5.891C-2.692,-4.3 -1.993,-2.619 0,-2.619C1.784,-2.619 2.514,-4.3 2.514,-5.891C2.514,-7.482 1.784,-9.163 0,-9.163M-3.63,-9.729L-2.768,-9.729L-2.768,-8.271L-2.736,-8.271C-2.306,-9.312 -1.234,-9.952 0,-9.952C2.335,-9.952 3.451,-8.062 3.451,-5.891C3.451,-3.72 2.335,-1.83 0,-1.83C-1.146,-1.83 -2.262,-2.41 -2.662,-3.512L-2.692,-3.512L-2.692,0.789L-3.63,0.789L-3.63,-9.729Z" style="fill:white;fill-rule:nonzero;"/>
        </g>
        <g transform="matrix(1,0,0,1,483.298,328.868)">
            <path d="M0,-0.712L-0.029,-0.712C-0.149,-0.489 -0.565,-0.415 -0.818,-0.371C-2.409,-0.088 -4.389,-0.104 -4.389,1.399C-4.389,2.336 -3.556,2.916 -2.679,2.916C-1.25,2.916 0.015,2.01 0,0.507L0,-0.712ZM-4.998,-1.843C-4.909,-3.644 -3.645,-4.417 -1.89,-4.417C-0.535,-4.417 0.937,-4 0.937,-1.947L0.937,2.129C0.937,2.484 1.115,2.693 1.487,2.693C1.592,2.693 1.711,2.664 1.784,2.634L1.784,3.423C1.576,3.468 1.428,3.481 1.176,3.481C0.224,3.481 0.073,2.946 0.073,2.143L0.045,2.143C-0.609,3.14 -1.279,3.705 -2.753,3.705C-4.165,3.705 -5.325,3.007 -5.325,1.459C-5.325,-0.697 -3.229,-0.773 -1.204,-1.009C-0.432,-1.101 0,-1.204 0,-2.053C0,-3.316 -0.907,-3.628 -2.009,-3.628C-3.169,-3.628 -4.031,-3.093 -4.062,-1.843L-4.998,-1.843Z" style="fill:white;fill-rule:nonzero;"/>
        </g>
        <g transform="matrix(1,0,0,1,486.3,332.127)">
            <path d="M0,-7.453L0.937,-7.453L0.937,-6.129L0.966,-6.129C1.309,-7.05 2.335,-7.676 3.421,-7.676C5.578,-7.676 6.232,-6.544 6.232,-4.715L6.232,0.223L5.296,0.223L5.296,-4.566C5.296,-5.89 4.864,-6.887 3.347,-6.887C1.859,-6.887 0.966,-5.757 0.937,-4.254L0.937,0.223L0,0.223L0,-7.453Z" style="fill:white;fill-rule:nonzero;"/>
        </g>
        <g transform="matrix(1,0,0,1,493.408,335.193)">
            <path d="M0,-10.519L0.996,-10.519L3.524,-3.973L5.891,-10.519L6.827,-10.519L3.495,-1.666C2.96,-0.373 2.646,0 1.473,0C1.101,-0.016 0.907,-0.016 0.759,-0.076L0.759,-0.864C0.981,-0.819 1.188,-0.79 1.397,-0.79C2.23,-0.79 2.425,-1.281 2.736,-1.994L3.063,-2.872L0,-10.519Z" style="fill:white;fill-rule:nonzero;"/>
        </g>
    </g>
</svg>