<svg xmlns="http://www.w3.org/2000/svg" fill="none" viewBox="0 40 63.4 84">
<path d="M0 98.6416H25.3585V111.321C25.3585 118.323 19.6818 124 12.6792 124V124C5.67669 124 0 118.323 0 111.321V98.6416Z" fill="url(#paint0_linear_2626_5860)"/>
<path d="M0 69.3208H50.717C57.7195 69.3208 63.3962 74.9975 63.3962 82V82C63.3962 89.0026 57.7195 94.6793 50.717 94.6793H0V69.3208Z" fill="url(#paint1_linear_2626_5860)"/>
<path d="M0 60C0 48.9543 8.9543 40 20 40H50.717C57.7195 40 63.3962 45.6767 63.3962 52.6792V52.6792C63.3962 59.6818 57.7195 65.3585 50.717 65.3585H0V60Z" fill="url(#paint2_linear_2626_5860)"/>
<mask id="mask0_2626_5860" style="mask-type:alpha" maskUnits="userSpaceOnUse" x="0" y="40" width="64" height="84">
<path d="M0 98.6416H25.3585V111.321C25.3585 118.323 19.6818 124 12.6792 124V124C5.67669 124 0 118.323 0 111.321V98.6416Z" fill="url(#paint3_linear_2626_5860)"/>
<path d="M0 69.3208H50.717C57.7195 69.3208 63.3962 74.9975 63.3962 82V82C63.3962 89.0026 57.7195 94.6793 50.717 94.6793H0V69.3208Z" fill="url(#paint4_linear_2626_5860)"/>
<path d="M0 60C0 48.9543 8.9543 40 20 40H50.717C57.7195 40 63.3962 45.6767 63.3962 52.6792V52.6792C63.3962 59.6818 57.7195 65.3585 50.717 65.3585H0V60Z" fill="url(#paint5_linear_2626_5860)"/>
</mask>
<defs>
<filter id="filter0_d_2626_5860" x="-2" y="28" width="60.4526" height="108" filterUnits="userSpaceOnUse" color-interpolation-filters="sRGB">
<feFlood flood-opacity="0" result="BackgroundImageFix"/>
<feColorMatrix in="SourceAlpha" type="matrix" values="0 0 0 0 0 0 0 0 0 0 0 0 0 0 0 0 0 0 127 0" result="hardAlpha"/>
<feOffset dx="10"/>
<feGaussianBlur stdDeviation="6"/>
<feComposite in2="hardAlpha" operator="out"/>
<feColorMatrix type="matrix" values="0 0 0 0 0 0 0 0 0 0 0 0 0 0 0 0 0 0 0.25 0"/>
<feBlend mode="normal" in2="BackgroundImageFix" result="effect1_dropShadow_2626_5860"/>
<feBlend mode="normal" in="SourceGraphic" in2="effect1_dropShadow_2626_5860" result="shape"/>
</filter>
<filter id="filter1_f_2626_5860" x="-51.698" y="69.1321" width="87.5471" height="87.5471" filterUnits="userSpaceOnUse" color-interpolation-filters="sRGB">
<feFlood flood-opacity="0" result="BackgroundImageFix"/>
<feBlend mode="normal" in="SourceGraphic" in2="BackgroundImageFix" result="shape"/>
<feGaussianBlur stdDeviation="10" result="effect1_foregroundBlur_2626_5860"/>
</filter>
<filter id="filter2_f_2626_5860" x="-51.698" y="8.90576" width="87.5471" height="87.5471" filterUnits="userSpaceOnUse" color-interpolation-filters="sRGB">
<feFlood flood-opacity="0" result="BackgroundImageFix"/>
<feBlend mode="normal" in="SourceGraphic" in2="BackgroundImageFix" result="shape"/>
<feGaussianBlur stdDeviation="10" result="effect1_foregroundBlur_2626_5860"/>
</filter>
<linearGradient id="paint0_linear_2626_5860" x1="25.4688" y1="110.861" x2="-0.00218275" y2="110.964" gradientUnits="userSpaceOnUse">
<stop stop-color="#00E6CA"/>
<stop offset="1" stop-color="#00C4B8"/>
</linearGradient>
<linearGradient id="paint1_linear_2626_5860" x1="63.6719" y1="81.5407" x2="7.75704e-09" y2="82.1838" gradientUnits="userSpaceOnUse">
<stop stop-color="#00E6CA"/>
<stop offset="1" stop-color="#00C4B8"/>
</linearGradient>
<linearGradient id="paint2_linear_2626_5860" x1="63.6719" y1="52.2199" x2="7.75704e-09" y2="52.863" gradientUnits="userSpaceOnUse">
<stop stop-color="#00E6CA"/>
<stop offset="1" stop-color="#00C4B8"/>
</linearGradient>
<linearGradient id="paint3_linear_2626_5860" x1="25.4688" y1="110.861" x2="-0.00218275" y2="110.964" gradientUnits="userSpaceOnUse">
<stop stop-color="#00FFE1"/>
<stop offset="1" stop-color="#01E0C6"/>
</linearGradient>
<linearGradient id="paint4_linear_2626_5860" x1="63.6719" y1="81.5407" x2="7.75704e-09" y2="82.1838" gradientUnits="userSpaceOnUse">
<stop stop-color="#00FFE1"/>
<stop offset="1" stop-color="#01E0C6"/>
</linearGradient>
<linearGradient id="paint5_linear_2626_5860" x1="63.6719" y1="52.2199" x2="7.75704e-09" y2="52.863" gradientUnits="userSpaceOnUse">
<stop stop-color="#00FFE1"/>
<stop offset="1" stop-color="#01E0C6"/>
</linearGradient>
</defs>
</svg>