<svg xmlns="http://www.w3.org/2000/svg" id="Layer_1" data-name="Layer 1" viewBox="2.18 2.62 120.63 114.5"><defs><style>.cls-1{fill:#faf7ef}</style></defs><path d="M77.313 7.816c.833.257 1.665.525 2.509.743 3.6.927 6.647 2.725 9 5.64.36.445.771.85 1.17 1.263.178.185.397.312.654.273.155-.047.207-.16.178-.273-.057-.221-.113-.45-.223-.647-2.885-5.19-7.354-7.629-13.236-7.593-.204.001-.547-.143-.59.154-.04.287.302.367.538.44m28.692 51.718C106.17 37.822 90.77 18.649 69.83 14.28c-23.32-4.863-42.465 8.487-49.303 22.144 1.496-1.844 2.75-3.609 4.22-5.167 12.161-12.884 29.567-17.538 45.57-13.615 6.893 1.69 13.527 4.96 19.368 9.866 10.47 8.795 15.773 22.214 14.623 35.353a39.7 39.7 0 0 1-2.493 10.813c-7.616 19.795-28.798 31.479-50.545 27.796-11.997-2.032-21.763-7.901-29.348-17.453 6.734 12.659 25.422 24.221 45.797 20.545 22.327-4.027 38.118-22.684 38.286-45.028M19.734 42.631c-.282.237-.577.48-.787.777-5.54 7.838-5.964 16.057-1.791 24.601.144.296.174.896.637.75.447-.141.323-.696.264-1.09-.21-1.394-.4-2.793-.675-4.176-1.17-5.894-.685-11.591 1.914-17.063.397-.835.699-1.717 1.021-2.586.145-.39.177-.798-.06-1.145-.178-.193-.377-.19-.523-.068" class="cls-1"/><path d="M105.878 83.02c-.428-.192-.703.306-.92.64-.769 1.182-1.554 2.356-2.265 3.573-3.034 5.188-7.176 9.129-12.75 11.5-.851.362-1.662.822-2.48 1.258-.367.196-.661.48-.714.897.005.262.156.392.346.397.368.01.75.024 1.105-.06 9.344-2.19 15.113-8.06 17.658-17.222.088-.317.463-.786.02-.983" class="cls-1"/><path d="M120.607 51.96c-2.621-5.288-6.295-9.231-10.665-12.978-7.1-6.089-7.907-9.55-10.355-19.016C96.926 9.672 82.657.737 72.207 2.97c-8 1.71-15.811 2.16-23.76.266-.84-.201-1.732-.224-2.603-.263-4.226-.192-7.663 1.347-10.286 4.7a39 39 0 0 0-4.111 6.434c-3.05 6.018-7.724 10.29-13.654 13.362-2.71 1.404-5.386 2.923-7.893 4.656-3.861 2.67-7.016 5.962-7.62 10.941-.44 3.628.673 6.976 2.379 10.048C7.794 58.761 9.336 64.7 8.716 70.557c0 2.42-.065 4.244.012 6.062.265 6.259 1.73 11.986 7.25 15.851 2.095 1.469 4.321 2.74 6.675 3.698 6.898 2.81 12.455 7.145 16.245 13.645.506.868 1.244 1.614 1.937 2.36 3.146 3.388 7.006 5.095 11.668 4.942 3.474-.114 6.794-.942 9.924-2.358 9.367-4.234 18.844-7.888 29.125-9.537 7.274-1.167 12.017-6.128 14.537-13.107.823-2.282 1.23-4.647 1.577-7.017.692-4.716 2.985-8.284 7.15-10.645.947-.537 1.317-1.159 2.2-1.8 3.165-2.295 5.046-5.387 5.611-9.26.588-4.03-.229-7.817-2.02-11.432M77.365 7.221c5.882-.036 10.351 2.403 13.236 7.593.11.196.166.426.223.647.029.114-.023.226-.178.273-.257.04-.476-.088-.655-.273-.398-.413-.809-.818-1.168-1.263-2.354-2.915-5.4-4.713-9.001-5.64-.844-.218-1.676-.486-2.51-.743-.235-.073-.577-.153-.536-.44.042-.297.385-.153.589-.154M20.317 43.844c-.322.869-.624 1.75-1.02 2.586-2.6 5.472-3.086 11.169-1.915 17.063.275 1.383.466 2.782.675 4.176.059.394.183.949-.264 1.09-.463.146-.493-.454-.637-.75-4.173-8.544-3.75-16.763 1.79-24.6.21-.297.506-.541.788-.778.146-.122.345-.125.523.068.237.347.205.754.06 1.145m1.605 40.173c7.585 9.552 17.351 15.42 29.348 17.453 21.747 3.683 42.93-8.001 50.545-27.796a39.7 39.7 0 0 0 2.493-10.813c1.15-13.139-4.153-26.558-14.623-35.353-5.84-4.906-12.475-8.177-19.369-9.866-16.002-3.923-33.408.73-45.568 13.615-1.471 1.558-2.725 3.323-4.221 5.167C27.365 22.767 46.509 9.417 69.83 14.281c20.94 4.368 36.339 23.54 36.175 45.253-.168 22.344-15.959 41-38.286 45.028-20.375 3.676-39.063-7.886-45.797-20.545m83.936-.014c-2.545 9.162-8.314 15.032-17.658 17.223-.354.083-.737.07-1.105.059-.19-.005-.341-.135-.346-.397.053-.418.347-.7.715-.897.817-.436 1.628-.896 2.479-1.258 5.574-2.371 9.716-6.312 12.75-11.5.71-1.217 1.496-2.39 2.265-3.573.217-.334.492-.832.92-.64.443.197.068.666-.02.983" style="fill:#42bfb9"/><path d="m71.425 50.821-3.221-1.645-1.647-3.221a2.2 2.2 0 0 0-2.619-1.085l-3.44 1.115-3.442-1.115a2.194 2.194 0 0 0-2.619 1.085l-1.644 3.221-3.221 1.645a2.19 2.19 0 0 0-1.085 2.619l1.115 3.442-1.115 3.442a2.19 2.19 0 0 0 1.085 2.619l3.22 1.645.332.648V81.59c0 .784.42 1.504 1.097 1.894a2.17 2.17 0 0 0 2.187-.005l4.09-2.388 4.09 2.388c.34.198.719.296 1.1.296a2.18 2.18 0 0 0 2.184-2.184V65.235l.332-.648 3.221-1.645a2.19 2.19 0 0 0 1.085-2.62l-1.115-3.441 1.115-3.442a2.19 2.19 0 0 0-1.085-2.619m-7.921 26.965-1.906-1.112a2.2 2.2 0 0 0-1.1-.296c-.379 0-.76.098-1.1.296l-1.905 1.112v-9.034l3.005-.974 3.006.975zm3.515-20.231.76 2.342-2.194 1.12c-.409.208-.74.542-.951.952l-1.12 2.194-2.343-.758a2.2 2.2 0 0 0-1.345 0l-2.343.758-1.12-2.194a2.17 2.17 0 0 0-.951-.952l-2.195-1.12.758-2.342a2.2 2.2 0 0 0 0-1.346l-.758-2.343 2.195-1.12a2.18 2.18 0 0 0 .951-.95l1.12-2.195 2.343.76a2.2 2.2 0 0 0 1.345 0l2.343-.76 1.12 2.194c.21.41.542.743.951.952l2.195 1.12-.761 2.342a2.2 2.2 0 0 0 0 1.346" class="cls-1"/><path d="M79.663 69.559H75.72a2.183 2.183 0 0 0-2.185 2.184c0 1.208.977 2.184 2.185 2.184h3.944a6.114 6.114 0 0 0 6.109-6.108V42.08c0-3.37-2.74-6.11-6.109-6.11h-38.33a6.114 6.114 0 0 0-6.108 6.11v25.738c0 3.37 2.74 6.108 6.109 6.108h3.776a2.183 2.183 0 0 0 2.184-2.184 2.183 2.183 0 0 0-2.184-2.184h-3.776c-.96 0-1.74-.781-1.74-1.74V42.08c0-.96.78-1.74 1.74-1.74h38.33c.958 0 1.74.78 1.74 1.74v25.738c0 .959-.782 1.74-1.74 1.74" class="cls-1"/></svg>