<svg xmlns="http://www.w3.org/2000/svg" xml:space="preserve" id="Layer_1" x="0" y="0" version="1.1" viewBox="0 0 512 512"><style>.st0{fill:#1e293b}.st1{fill:#f58320}</style><g id="fa_horizontal_text_purple_orange"><g id="logo-gray-copy" transform="translate(6 4)"><path id="Path_00000177478181713106339060000013741504374515678640_" d="M142 448.6c-18-10.3-34.4-23.2-48.7-38.1-4.2 5.2-9.2 9.6-15 13-3.2 1.8-6.5 3.3-10 4.4 77.5 84.6 203.1 104.7 303.1 48.5 4.7-2.7 7.6-7.8 7.6-13.2 0-5.5-2.9-10.5-7.6-13.2-4.6-2.8-10.3-2.8-15-.2-66.6 37.5-148.1 37.1-214.4-1.2" class="st0"/><path id="Path_00000075842569447927450120000011328622329074220424_" d="M141.9 74.3c18-10.4 37.3-18.1 57.5-22.9-2.5-6.4-3.8-13.1-3.8-20 0-3.7.4-7.4 1.1-11C84.8 45.3 4.7 144 3.4 258.8c0 5.4 2.9 10.5 7.7 13.2s10.5 2.7 15.3 0c4.6-2.6 7.5-7.5 7.6-12.8.8-76.4 41.8-146.7 107.9-184.9" class="st0"/><path id="Path_00000142169838057706439360000005261435645611144873_" d="M466.1 261.4c0 20.7-3 41.4-8.9 61.3 6.7 1 13.2 3.2 19.1 6.6 3.2 1.8 6.2 3.9 8.9 6.2C519.6 226.1 474.1 107.4 375.3 49c-4.7-2.5-10.4-2.3-15 .4-4.6 2.8-7.4 7.7-7.4 13-.1 5.3 2.7 10.2 7.2 13 65.8 39 106 109.7 106 186" class="st0"/><path id="Shape_00000109709008054410056220000002381151595044389796_" d="M250.1 158.7c41.6 0 79.1 25 95 63.4s7.1 82.6-22.2 112-73.6 38.2-112 22.3-63.4-53.4-63.4-94.9c-.1-56.8 45.8-102.7 102.6-102.8m0-30.5c-73.6 0-133.3 59.7-133.3 133.3s59.7 133.3 133.3 133.3 133.3-59.7 133.3-133.3c0-35.4-14-69.3-39-94.3-25.1-25-59-39-94.3-39" class="st0"/><circle id="Oval" cx="250" cy="31.6" r="35.6" class="st1"/><circle id="Oval_00000084507688397612035760000012986102322887300757_" cx="50.9" cy="376.3" r="35.6" class="st1" transform="rotate(-3.17 50.921 376.358)scale(1.00003)"/><circle id="Oval_00000152224844234704349880000012902706124281211311_" cx="449.1" cy="376.3" r="35.6" class="st1"/><path id="Path_00000142162060577844282360000006640727944932564364_" d="M279.5 237.1c0-14.3-10.3-26.6-24.4-29.1s-28 5.6-32.8 19.1.8 28.5 13.3 35.6l-9.3 47.1c-.3 1.5.1 3 1.1 4.2s2.4 1.8 3.9 1.8h37.8c1.5 0 3-.6 3.9-1.8 1-1.2 1.4-2.7 1.1-4.2l-9.3-47.1c9.1-5.2 14.8-15 14.7-25.6" class="st1"/></g></g></svg>