<svg xmlns="http://www.w3.org/2000/svg" xml:space="preserve" id="Calque_1" x="0" y="0" version="1.1" viewBox="-0.25 81.12 512.53 392.3"><style>.st0{fill:#ffd952}.st2{fill:#45c8ff}.st3{fill:#ff9329}.st4{fill:#4e4e4e}</style><g id="g1663" transform="translate(-88.608 -87.995)scale(1.70995)"><path id="path6" d="M242 189.5c-2.8.2-5.7-.1-8.4-.9l-104.9-28.3c-2.8-.8-5.5-2-7.9-3.7z"/><path id="path24-3-6" d="M201.2 98.9c-4.5 0-8.9 1-13.1 2.8l-133.3 59c-2.5 1-3.6 3.9-2.6 6.3 0 0 0 .1.1.1 0 .2.1.4.2.5L73.8 210h18.6l-2.6-14.7c-.2-1.2-2.1-9.6-4-15.7l62.4 19.5c.8 3.9 1.9 7.5 3.2 10.9h101.2c1.1-3.4 2-7 2.6-10.9l62.3-19.4c-1.8 6.1-3.7 14.4-3.9 15.6L311 210h18.6l21.2-41.9.2-.4.2-.5v-.1c.2-.5.2-1 .2-1.6.1-2.1-1.1-4-3-4.8l-133.3-59c-4.5-1.9-9.2-2.8-13.9-2.8" class="st0"/><path id="path24-3" d="M201.2 126.8c-4.5 0-8.9 1-13.1 2.8l-133.3 59c-2.5 1-3.6 3.9-2.6 6.3 0 0 0 .1.1.1 0 .2.1.4.2.5l11.6 22.9h24.7c-.8-3.3-1.8-7.3-2.9-11.1l35.4 11.1h161l35.3-11c-1.1 3.7-2.1 7.7-2.9 11h24.7l11.4-22.5.2-.4.2-.5v-.1c.2-.5.2-1 .2-1.6.1-2.1-1.1-4-3-4.8l-133.3-59c-4.5-1.8-9.2-2.7-13.9-2.7" style="fill:#49c8fa"/><path id="path24" d="M351.2 221.8c0 .5 0 1.1-.2 1.6v.1l-.2.5-.2.4-32.3 63.8c-4.5 8.9-12.7 8.6-11.4-.4l6.5-36.3c.2-1.2 2.1-9.6 4-15.6l-62.3 19.4c-9.8 63.5-93.3 64.6-107 0l-62.4-19.5c1.8 6.1 3.8 14.5 4 15.7l6.5 36.3c1.4 9-6.9 9.2-11.4.4L52.3 224c-.1-.2-.2-.3-.2-.5-1.1-2.4 0-5.3 2.4-6.4 0 0 .1 0 .1-.1l133.3-59c8.5-3.8 18.3-3.8 26.8 0L348 217c2.2.8 3.4 2.8 3.2 4.8" class="st0"/><path id="path26" d="m244.1 233 57.6-23.2c1.3-.5 1.9-1.9 1.4-3.2-.2-.6-.7-1.1-1.4-1.4-6.7-2.8-15-6-23.1-9.4-1.5-.6-15.6 9.5-16.9 10.5l-24.7 20c-6.1 5-.9 9.9 7.1 6.7" class="st2"/><circle id="circle28" cx="202.3" cy="255.6" r="51.4" class="st2" transform="rotate(-45.001 202.325 255.64)"/><path id="path6-0" d="M242 189.5c-2.8.2-5.7-.1-8.4-.9l-104.9-28.3c-2.8-.8-5.5-2-7.9-3.7z"/><path id="path24-3-6-9" d="M201.2 98.9c-4.5 0-8.9 1-13.1 2.8l-133.3 59c-2.5 1-3.6 3.9-2.6 6.3 0 0 0 .1.1.1 0 .2.1.4.2.5L73.8 210h18.6l-2.6-14.7c-.2-1.2-2.1-9.6-4-15.7l62.4 19.5c.8 3.9 1.9 7.5 3.2 10.9h101.2c1.1-3.4 2-7 2.6-10.9l62.3-19.4c-1.8 6.1-3.7 14.4-3.9 15.6L311 210h18.6l21.2-41.9.2-.4.2-.5v-.1c.2-.5.2-1 .2-1.6.1-2.1-1.1-4-3-4.8l-133.3-59c-4.5-1.9-9.2-2.8-13.9-2.8" class="st3"/><path id="path24-3-2" d="M201.2 126.8c-4.5 0-8.9 1-13.1 2.8l-133.3 59c-2.5 1-3.6 3.9-2.6 6.3 0 0 0 .1.1.1 0 .2.1.4.2.5l11.6 22.9h24.7c-.8-3.3-1.8-7.3-2.9-11.1l35.4 11.1h161l35.3-11c-1.1 3.7-2.1 7.7-2.9 11h24.7l11.4-22.5.2-.4.2-.5v-.1c.2-.5.2-1 .2-1.6.1-2.1-1.1-4-3-4.8l-133.3-59c-4.5-1.8-9.2-2.7-13.9-2.7" class="st4"/><path id="path24-0" d="M351.2 221.8c0 .5 0 1.1-.2 1.6v.1l-.2.5-.2.4-32.3 63.8c-4.5 8.9-12.7 8.6-11.4-.4l6.5-36.3c.2-1.2 2.1-9.6 4-15.6l-62.3 19.4c-9.8 63.5-93.3 64.6-107 0l-62.4-19.5c1.8 6.1 3.8 14.5 4 15.7l6.5 36.3c1.4 9-6.9 9.2-11.4.4L52.3 224c-.1-.2-.2-.3-.2-.5-1.1-2.4 0-5.3 2.4-6.4 0 0 .1 0 .1-.1l133.3-59c8.5-3.8 18.3-3.8 26.8 0L348 217c2.2.8 3.4 2.8 3.2 4.8" class="st3"/><path id="path26-2" d="m244.1 233 57.6-23.2c1.3-.5 1.9-1.9 1.4-3.2-.2-.6-.7-1.1-1.4-1.4-6.7-2.8-15-6-23.1-9.4-1.5-.6-15.6 9.5-16.9 10.5l-24.7 20c-6.1 5-.9 9.9 7.1 6.7" class="st4"/><circle id="circle28-3" cx="202.3" cy="255.6" r="51.4" class="st4" transform="rotate(-45.001 202.325 255.64)"/></g></svg>