<svg xmlns="http://www.w3.org/2000/svg" xml:space="preserve" viewBox="0 0 512 512"><path d="M457.1 256h-128v36.6h87.8c-12.5 55.2-52.6 100.1-106.1 118.9L100.6 201.1C123.9 135.3 186.2 91.3 256 91.4c54.9 0 104.2 27.4 135.3 69.5l27.4-23.8C353 47.6 227.1 28.3 137.6 94 98.4 122.8 71 164.7 60.3 212.1l241.4 241.4c87.8-22 155.4-102.4 155.4-197.5m-402.2 1.8c1 108.7 88.8 196.5 197.5 197.5z" style="fill:#fff"/><path d="M256 0C115.2 0 0 115.2 0 256s115.2 256 256 256 256-115.2 256-256S396.8 0 256 0M113.4 398.6c-37-36.9-58-86.8-58.5-139l199.3 197.5c-51.2-1.8-102.4-20.1-140.8-58.5m186.5 53.1L60.3 212.1c24.4-108.4 132-176.5 240.4-152.2 47.4 10.7 89.3 38.1 118 77.2l-27.4 23.8c-31.5-43.4-81.7-69.2-135.3-69.5-69.7.4-131.7 44.2-155.4 109.7l210.3 210.3c53.4-18.7 93.5-63.6 106.1-118.9h-87.8V256h128c-.4 93.9-65.6 175.2-157.3 195.7" style="fill:#639"/></svg>