<svg enable-background="new 0 0 850.2 240.8" viewBox="0 0 850.2 240.8" xmlns="http://www.w3.org/2000/svg"><g fill="#7d37f0"><path d="m843.4 165.1h-13.7c-3.8 0-6.9 3.1-6.9 6.9v13.8c0 3.8 3.1 6.8 6.8 6.8h13.8c3.8 0 6.9-3.1 6.9-6.9v-13.7c-.1-3.9-3.1-6.9-6.9-6.9z"/><path d="m465.4 75.2c-4.5-4.5-9.8-6.7-16-6.7h-31.9-.3c-.7 0-1.4.1-2.1.3-2 .6-3.7 1.9-4.9 3.6l-7.8 10.1c-.5.7-1.3.8-2.1.7h-1.9v-7.9-5.1c0-.9-.8-1.7-1.7-1.7h-5.2-1.4-11.2-1.2c-3.8 0-6.9 3.1-6.9 6.9v1.2 12.6 96.3c0 4 3.2 7.2 7.2 7.2h13.1c4 0 7.2-3.2 7.2-7.2v-70.2c0-4.3 1.2-7.6 3.8-10.3l8.6-9.1c2.6-2.6 5.9-4.1 10.5-4.1h18.7c5.5 0 9.8 1.7 13.4 5.2l8.1 8.1c3.1 3.1 4.5 6.4 4.5 10v70.2c0 4 3.2 7.2 7.2 7.2h13.1c4 0 7.2-3.2 7.2-7.2v-76.4c0-4.3-1.4-7.9-4.5-11z"/><path d="m636 68.5h-13.1c-4 0-7.2 3.2-7.2 7.2v70.2c0 4.3-1.2 7.6-3.8 10.2l-8.6 9.1c-2.6 2.6-6 4.1-10.5 4.1h-18.9c-5.5 0-9.8-1.7-13.4-5.2l-8.1-8.1c-3.1-3.1-4.5-6.4-4.5-10v-70.8c0-3.7-3-6.7-6.7-6.7h-13.4c-4 0-7.2 3.2-7.2 7.2v76.3c0 4.3 1.4 7.9 4.5 11l23.4 22.9c4.5 4.5 9.8 6.7 16 6.7h31.8.3c.6 0 1.3-.1 2-.3 2-.6 3.7-1.9 5-3.5l7.8-10.1c.5-.7 1.5-.8 2.3-.7h1.8v7.9 5.1c0 .9.8 1.7 1.7 1.7h4.7 13.1.1 1c3.8 0 6.9-3.1 6.9-6.9v-1.1-12.7-96.3c.1-4-3.1-7.2-7-7.2z"/><path d="m788.5 68.5h-1.7-12-60.3c-4.5 0-8.4 1.4-11.5 4.1l-27.9 24.3c-3.1 2.6-4.5 6.4-4.5 11.5v43.4c0 5.2 1.7 9.3 4.8 11.9l27.2 24.6c3.3 2.9 7.4 4.3 11.9 4.3h30.1 4.3v-.1h.3c.6 0 1.2-.1 1.8-.2 2.1-.5 3.9-1.9 5.2-3.6l7.8-10.1c.5-.7 1.3-.8 2.1-.7h1.9v7.9 5.1c0 .9.8 1.7 1.7 1.7h18.6.1.2c3.8 0 6.9-3.1 6.9-6.9v-.3-13.4-82.9-12-1.7c-.1-3.8-3.2-6.9-7-6.9zm-20.3 77.8c0 4.3-1.2 7.6-3.8 10.3l-8.6 9.1c-2.6 2.6-6 4.1-10.5 4.1h-25.1c-4.3 0-7.6-1.4-10.3-4.1l-8.6-9.1c-2.6-2.6-3.8-6-3.8-10.5v-31c0-4.1 1.2-7.4 3.8-10l8.6-9.1c2.6-3.1 6.2-4.5 10.3-4.5h43.9c2.1 0 4.1 1.7 4.1 3.8z"/><path d="m186.5 68.5h-1.7-12-60.3c-4.5 0-8.6 1.4-11.9 4.3l-27.2 24.6c-3.1 2.6-4.8 6.7-4.8 11.9v40.3c0 5 1.4 8.8 4.5 11.5l27.9 25.3c2.9 2.6 6.7 4.1 11.5 4.1h34.6.3c.7 0 1.4-.1 2.1-.3 2-.6 3.7-1.9 4.9-3.6l7.8-10.1c.5-.7 1.5-.8 2.3-.7h1.9v8.4 7.7 1c0 3.6-1 6.7-2.9 9.1l-9.1 10.7c-2.6 3.1-6.4 5.3-11.5 5.3h-33.9c-4 0-7.2 3.2-7.2 7.2v8.6c0 4 3.2 7.1 7.2 7.1h42.2c5.2 0 9.3-1.7 12.4-4.8l25.8-27.7c2.6-2.6 3.8-6.2 3.8-11.2v-108.1-12-1.7c.2-3.8-2.9-6.9-6.7-6.9zm-20.1 75.9c0 4.1-1.2 7.4-3.8 10l-8.6 9.1c-2.6 3.1-6.2 4.5-10.3 4.5h-25.5c-4.1 0-7.6-1.4-10.3-4.5l-8.6-9.1c-2.6-2.6-3.8-6-3.8-10v-29.4c0-4.3 1.2-7.9 3.8-10.5l8.6-9.1c2.6-2.6 6-4.1 10.3-4.1h44.4c2.6 0 3.8 1.2 3.8 3.8z"/><path d="m109.6 20.6v-13.8c0-3.8-3.1-6.8-6.9-6.8h-75.3c-15.1 0-27.4 12.3-27.4 27.4v41.1c0 3.8 3.1 6.9 6.9 6.9h13.7c3.8 0 6.9-3.1 6.9-6.9v-38.3c0-1.5 1.2-2.7 2.7-2.7h72.6c3.8-.1 6.8-3.2 6.8-6.9z"/><path d="m338.9 96.9-27.9-24.3c-3.1-2.6-6.9-4.1-11.5-4.1h-34.8c-4.5 0-8.4 1.4-11.5 4.1l-27.9 24.3c-3.1 2.6-4.5 6.4-4.5 11.5v43.4c0 5.2 1.7 9.3 4.8 11.9l27.2 24.6c3.3 2.9 7.4 4.3 11.9 4.3h58.9c4.8 0 7.2-2.4 7.2-7.2v-8.4c0-4.8-2.4-7.2-7.2-7.2h-53c-4.3 0-7.9-1.4-10.5-4.3l-8.6-9.1c-2.6-2.6-3.8-6.2-3.8-10.5 0-1.6 0-4.5 0-4.5s2.5 0 3.8 0h83.3c5.7 0 8.6-2.9 8.6-8.6v-24.6c.1-4.9-1.4-8.7-4.5-11.3zm-21 20.8c0 2.6-1.2 3.8-3.6 3.8h-62.8c-2.4 0-3.8-1.6-3.8-3.8v-2.7c0-4.1 1.2-7.4 3.8-10l8.6-9.1c2.9-3.1 6.2-4.8 10.3-4.8h24.1c3.8 0 6.9 1.2 9.5 3.8l10.3 9.3c2.4 2.1 3.6 4.8 3.6 8.1z"/></g></svg>