<svg xmlns="http://www.w3.org/2000/svg" fill="none" viewBox="3.55 0 295.89 346">
<path fill-rule="evenodd" clip-rule="evenodd" d="M151.495 0C70.1027 0 3.85529 64.0759 3.56303 142.938C3.27078 159.725 10.0552 226.772 120.214 333.458C128.856 341.816 140.181 346 151.495 346C162.809 346 174.124 341.816 182.766 333.458C292.945 226.772 299.73 159.725 299.438 142.938C299.145 64.0759 232.887 0 151.495 0" fill="#CF142B"/>
<path fill-rule="evenodd" clip-rule="evenodd" d="M255.225 143.456C255.225 87.8795 208.893 42.8242 151.496 42.8242C94.1208 42.8242 47.7883 87.8795 47.7883 143.456C47.7883 143.456 44.3126 199.386 151.496 303.181C258.69 199.386 255.225 143.456 255.225 143.456ZM178.738 117.078C178.727 131.622 166.536 143.436 151.506 143.436C136.476 143.436 124.295 131.622 124.295 117.078C124.295 102.444 136.476 90.6799 151.506 90.6799C166.546 90.6799 178.738 102.454 178.738 117.078Z" fill="white"/>
</svg>