<svg xmlns="http://www.w3.org/2000/svg" xmlns:xlink="http://www.w3.org/1999/xlink" xml:space="preserve" id="Layer_1" x="0" y="0" version="1.1" viewBox="3.06 26.62 505.88 485.4"><style>.st16{opacity:.84;fill:#fff;enable-background:new}.st16,.st20{fill-rule:evenodd;clip-rule:evenodd}.st20,.st39{fill:#fff}</style><g transform="translate(-.846 1.186)scale(.20137)"><g transform="translate(371.12 -169.89)scale(1.0638)"><radialGradient id="SVGID_1_" cx="23057.652" cy="-83360.609" r="1841.198" gradientTransform="matrix(.05581 0 0 -.02262 -536.942 -344.521)" gradientUnits="userSpaceOnUse"><stop offset="0" style="stop-color:#000"/><stop offset="1" style="stop-color:#000;stop-opacity:0"/></radialGradient><ellipse cx="750" cy="1541.5" rx="479.7" ry="194.5" style="fill:url(#SVGID_1_)"/><radialGradient id="SVGID_00000155133131128595331550000004486513182104773041_" cx="14659.396" cy="-56074.992" r="1841.191" gradientTransform="matrix(.09023 0 0 -.03299 -582.624 -348.036)" gradientUnits="userSpaceOnUse"><stop offset="0" style="stop-color:#000"/><stop offset="1" style="stop-color:#000;stop-opacity:0"/></radialGradient><ellipse cx="740" cy="1501.8" rx="854.7" ry="283.5" style="opacity:.741;fill:url(#SVGID_00000155133131128595331550000004486513182104773041_)"/></g><radialGradient id="SVGID_00000016757118815077633380000006125486952485502645_" cx="899.543" cy="1656.348" r="190.345" gradientTransform="matrix(1.2034 0 0 -.9984 31.772 2520.206)" gradientUnits="userSpaceOnUse"><stop offset="0" style="stop-color:#b5ae9c"/><stop offset=".342" style="stop-color:#8e8469"/><stop offset=".642" style="stop-color:#39352a"/><stop offset="1" style="stop-color:#5c5443"/></radialGradient><path d="M517 327.9S671.1 647 1031.7 638c755.6-19 888.1-414.8 907.1-471.9s48-48.5 54.7 4.3c246.4 2246.1-1710.2 1282.4-1779.7 899.8 309.6-98.4 288.6-212 293.8-333.1z" style="fill-rule:evenodd;clip-rule:evenodd;fill:url(#SVGID_00000016757118815077633380000006125486952485502645_)"/><linearGradient id="SVGID_00000071538479244348509950000012227237267192395944_" x1="8265.862" x2="8028.883" y1="-6251.5" y2="-6221.11" gradientTransform="matrix(.2142 0 0 -.2142 -220.977 -22.085)" gradientUnits="userSpaceOnUse"><stop offset="0" style="stop-color:#fff"/><stop offset="1" style="stop-color:#fff;stop-opacity:0"/></linearGradient><path d="M1004.6 1326.7c285 57.2 439.5-5.1 524.4-71-22.4-29.1-70.1-51.7-70.1-51.7s55.5 10.5 91.6 48.8c24.7 26.2 27 68.5 21.6 126.5-5.4-24.6-10.7-77.2-17.7-94.6-76.3 92.9-287.2 135.1-549.8 42" style="opacity:.114;fill-rule:evenodd;clip-rule:evenodd;fill:url(#SVGID_00000071538479244348509950000012227237267192395944_)"/><radialGradient id="SVGID_00000045581558000574069520000005714275747896782522_" cx="1471.18" cy="-20708.764" r="267.894" gradientTransform="matrix(.3955 -.2334 -.05158 -.08737 -199.738 -213.894)" gradientUnits="userSpaceOnUse"><stop offset="0" style="stop-color:#000"/><stop offset="1" style="stop-color:#000;stop-opacity:0"/></radialGradient><path d="M994.1 1316.2c285 57.2 439.5-5.1 524.4-71-22.4-29.1-70.1-51.7-70.1-51.7s55.5 10.5 91.6 48.8c24.7 26.2 27 68.5 21.6 126.5-5.4-24.6-10.7-77.2-17.7-94.6-76.4 92.8-287.3 135.1-549.8 42" style="fill-rule:evenodd;clip-rule:evenodd;fill:url(#SVGID_00000045581558000574069520000005714275747896782522_)"/><g transform="translate(182.24 56.535)scale(.37384)"><radialGradient id="SVGID_00000096775219880823979100000016587569069384329092_" cx="182136.609" cy="-537013.438" r="1841.198" gradientTransform="matrix(.01961 0 0 -.00795 -895.014 -1716.9)" gradientUnits="userSpaceOnUse"><stop offset="0" style="stop-color:#000"/><stop offset="1" style="stop-color:#000;stop-opacity:0"/></radialGradient><ellipse cx="2677.5" cy="2552.8" rx="479.7" ry="194.5" style="fill:url(#SVGID_00000096775219880823979100000016587569069384329092_)"/><radialGradient id="SVGID_00000145031456936967837950000006527043493398311587_" cx="113989.266" cy="-365368.781" r="1841.191" gradientTransform="matrix(.0317 0 0 -.0116 -946.806 -1722.62)" gradientUnits="userSpaceOnUse"><stop offset="0" style="stop-color:#000"/><stop offset="1" style="stop-color:#000;stop-opacity:0"/></radialGradient><ellipse cx="2667.5" cy="2513.2" rx="854.7" ry="283.5" style="opacity:.741;fill:url(#SVGID_00000145031456936967837950000006527043493398311587_)"/></g><radialGradient id="SVGID_00000151538938269945474740000005083864493071269765_" cx="4226.688" cy="-12275.989" r="319.239" gradientTransform="matrix(.2142 0 0 -.1135 -220.977 -283.509)" gradientUnits="userSpaceOnUse"><stop offset="0" style="stop-color:#c0baab"/><stop offset="1" style="stop-color:#bfb9a9;stop-opacity:.176"/></radialGradient><path d="M881.9 987.9s-19.7 79-142.2 84.2c-122.4 5.3-347.5-63.2-347.5-63.2s277.7 121.1 447.5 136.9 231.7-73.7 231.7-73.7z" style="opacity:.867;fill:url(#SVGID_00000151538938269945474740000005083864493071269765_)"/><defs><path id="SVGID_00000054254209710678879270000014389695221056280501_" d="M517 327.8s154.1 319.1 514.7 310.1c755.6-19 888.1-414.8 907.1-471.9s48-48.5 54.7 4.3c246.4 2246.1-1710.2 1282.4-1779.7 899.8 309.6-98.4 288.6-212 293.8-333.1z"/></defs><clipPath id="SVGID_00000074426402374921290200000016230377255313897612_"><use xlink:href="#SVGID_00000054254209710678879270000014389695221056280501_" style="overflow:visible"/></clipPath><path d="M517 327.8s154.1 319.1 514.7 310.1c755.6-19 888.1-414.8 907.1-471.9s48-48.5 54.7 4.3c246.4 2246.1-1710.2 1282.4-1779.7 899.8 309.6-98.4 288.6-212 293.8-333.1z" style="clip-path:url(#SVGID_00000074426402374921290200000016230377255313897612_);fill:none;stroke:#000;stroke-width:.2014;stroke-miterlimit:2.1422"/><path d="M1989.4-5.9c-.7-.1-2.7-.1-7.1 4.9-4.4 5.1-9.7 14.7-14.5 29-10.1 30.4-51.7 154.1-192.1 271.3s-379.4 228.3-783.3 238.5C664.2 546 501 313.5 455 235.8l-9.2 396.4v.2C443 696 447.6 761.3 409.3 824 372 885.3 293.9 941.5 136 993.2c11.4 45.3 48.4 101 107.3 158.8 62.6 61.4 148.2 125.1 248.3 182.7 200 115.2 457.5 206.2 703.3 210.4s479.1-77.3 636.3-307.5 238.3-611.3 173-1207c-1.7-13.1-4.8-23-8-29-3.4-6.1-6.1-7.3-6.8-7.5" style="fill:none"/><radialGradient id="SVGID_00000026163165601918231750000017748945989767799461_" cx="169.506" cy="3806.649" r="47.822" gradientTransform="matrix(-1.1054 .7811 1.2084 1.7417 -4211.8 -5849.627)" gradientUnits="userSpaceOnUse"><stop offset="0" style="stop-color:#5b676b"/><stop offset=".816" style="stop-color:#000"/><stop offset="1" style="stop-color:#606e73"/></radialGradient><path d="M96.5 761.1c104-75.3 274-17.2 379.6 129.9s107 327.4 3 402.7-274 17.2-379.6-129.9-107-327.4-3-402.7" style="fill-rule:evenodd;clip-rule:evenodd;fill:url(#SVGID_00000026163165601918231750000017748945989767799461_)"/><g transform="translate(115.76 67.014)scale(.26603)"><radialGradient id="SVGID_00000018217063084532074220000003040103172519024256_" cx="73735.313" cy="20831.84" r="1841.193" gradientTransform="matrix(.01396 0 0 -.00566 -1162.283 -2465.4)" gradientUnits="userSpaceOnUse"><stop offset="0" style="stop-color:#000"/><stop offset="1" style="stop-color:#000;stop-opacity:0"/></radialGradient><ellipse cx="2187.5" cy="3403.2" rx="479.7" ry="194.5" style="fill:url(#SVGID_00000018217063084532074220000003040103172519024256_)"/><radialGradient id="SVGID_00000070831331852368023530000016609092688152974722_" cx="150411.609" cy="-707259.938" r="1841.191" gradientTransform="matrix(.02256 0 0 -.00825 -1216.226 -2471.222)" gradientUnits="userSpaceOnUse"><stop offset="0" style="stop-color:#000"/><stop offset="1" style="stop-color:#000;stop-opacity:0"/></radialGradient><ellipse cx="2177.6" cy="3363.6" rx="854.7" ry="283.5" style="opacity:.741;fill:url(#SVGID_00000070831331852368023530000016609092688152974722_)"/></g><radialGradient id="SVGID_00000175281324624808813020000008407515684484064691_" cx="6189.263" cy="-4502.081" r="514.465" gradientTransform="matrix(.2013 .00415 .00274 -.1818 -202.62 -119.314)" gradientUnits="userSpaceOnUse"><stop offset="0" style="stop-color:#fff"/><stop offset="1" style="stop-color:#fff;stop-opacity:0"/></radialGradient><path d="M628.7 518.3c318.4 310.1 674.2 160.6 1029 24.6-343.5 227-728.4 355.4-1029-24.6" style="opacity:.578;fill-rule:evenodd;clip-rule:evenodd;fill:url(#SVGID_00000175281324624808813020000008407515684484064691_)"/><g transform="translate(216.55 53.813)scale(.34343)"><radialGradient id="SVGID_00000020376366144029573690000008065981680090801051_" cx="276758" cy="-243674.469" r="4731.672" gradientTransform="matrix(.01394 0 0 -.01527 -998.072 -1890.715)" gradientUnits="userSpaceOnUse"><stop offset="0" style="stop-color:#fff"/><stop offset=".833" style="stop-color:#c3c3c3"/><stop offset="1" style="stop-color:#f0f0f0"/></radialGradient><ellipse cx="2860.2" cy="2154.4" rx="858.6" ry="802.2" style="fill:url(#SVGID_00000020376366144029573690000008065981680090801051_)"/><radialGradient id="SVGID_00000091704072810767855730000016528690524093918601_" cx="330979.813" cy="-381822.438" r="4731.667" gradientTransform="matrix(.01166 0 0 -.01042 -998.768 -1908.092)" gradientUnits="userSpaceOnUse"><stop offset="0" style="stop-color:#000;stop-opacity:0"/><stop offset=".881" style="stop-color:#000;stop-opacity:0"/><stop offset="1" style="stop-color:#000"/></radialGradient><ellipse cx="2860.2" cy="2119.7" rx="797.7" ry="713.1" style="opacity:7.400000e-02;fill:url(#SVGID_00000091704072810767855730000016528690524093918601_)"/><ellipse cx="2858.6" cy="1632.7" class="st16" rx="301.7" ry="157.9"/></g><g transform="translate(-55.393 -11.202)scale(1.0638)"><radialGradient id="SVGID_00000054229653612916407430000006260385992521971367_" cx="6672.447" cy="-3948.579" r="122.489" gradientTransform="matrix(.2142 0 0 -.2142 -191.74 5.196)" gradientUnits="userSpaceOnUse"><stop offset="0" style="stop-color:#596569"/><stop offset="1" style="stop-color:#2e3436"/></radialGradient><circle cx="1237.6" cy="801.6" r="122.5" style="fill:url(#SVGID_00000054229653612916407430000006260385992521971367_)"/><path d="m1323.5 883.9-69.3-64.4 39.8 85.8-46-82.7 11.4 93.9-18.2-92.8-18.2 92.8 11.3-93.9-46 82.7 39.8-85.8-69.3 64.4 64.4-69.3-85.8 39.8 82.7-46-93.9 11.4 92.8-18.2-92.8-18.2 93.9 11.3-82.7-46 85.8 39.8-64.4-69.3 69.3 64.4-39.8-85.8 46 82.7-11.4-93.9 18.2 92.8 18.2-92.8-11.4 93.9 46-82.7-39.8 85.8 69.3-64.4-64.4 69.3 85.8-39.8-82.7 46 93.9-11.3-92.8 18.2 92.8 18.2-93.9-11.4 82.7 46-85.8-39.8z" style="fill:#222628"/><circle cx="1237.6" cy="801.6" r="56"/></g><radialGradient id="SVGID_00000147905527556530610690000001060254864976082841_" cx="285.498" cy="2751.709" r="17.501" gradientTransform="matrix(3.1971 .07453 .07485 -3.2102 65.644 9455.93)" gradientUnits="userSpaceOnUse"><stop offset="0" style="stop-color:#fff"/><stop offset="1" style="stop-color:#fff;stop-opacity:0"/></radialGradient><ellipse cx="1164.8" cy="705.1" rx="35.1" ry="35.2" style="fill-rule:evenodd;clip-rule:evenodd;fill:url(#SVGID_00000147905527556530610690000001060254864976082841_)"/><ellipse cx="1173.7" cy="758.8" class="st20" rx="17.2" ry="17.3"/><g transform="translate(131.38 69.537)scale(.21772)"><radialGradient id="SVGID_00000127023666656392015340000004023882086256614578_" cx="40553.195" cy="97650.625" r="4731.667" gradientTransform="matrix(.00884 0 0 -.00968 -1410.634 -3051.936)" gradientUnits="userSpaceOnUse"><stop offset="0" style="stop-color:#fff"/><stop offset=".833" style="stop-color:#c3c3c3"/><stop offset="1" style="stop-color:#f0f0f0"/></radialGradient><ellipse cx="2581.5" cy="3531.6" rx="858.6" ry="802.2" style="fill:url(#SVGID_00000127023666656392015340000004023882086256614578_)"/><radialGradient id="SVGID_00000086661678716280598790000010078666624812197250_" cx="45466.254" cy="64945.809" r="4731.667" gradientTransform="matrix(.0074 0 0 -.0066 -1410.764 -3069.091)" gradientUnits="userSpaceOnUse"><stop offset="0" style="stop-color:#000;stop-opacity:0"/><stop offset=".881" style="stop-color:#000;stop-opacity:0"/><stop offset="1" style="stop-color:#000"/></radialGradient><ellipse cx="2581.4" cy="3497" rx="797.7" ry="713.1" style="opacity:7.400000e-02;fill:url(#SVGID_00000086661678716280598790000010078666624812197250_)"/><ellipse cx="2579.8" cy="3010" class="st16" rx="301.7" ry="157.9"/></g><g transform="translate(-41.025 28.321)scale(.6744)"><radialGradient id="SVGID_00000036930131676486459480000000102917046321819317_" cx="10813.32" cy="-12320.012" r="122.489" gradientTransform="matrix(.1358 0 0 -.1358 -320.921 -377.423)" gradientUnits="userSpaceOnUse"><stop offset="0" style="stop-color:#596569"/><stop offset="1" style="stop-color:#2e3436"/></radialGradient><circle cx="1147.6" cy="1246.2" r="122.5" style="fill:url(#SVGID_00000036930131676486459480000000102917046321819317_)"/><path d="m1233.5 1328.5-69.3-64.4 39.8 85.8-46-82.7 11.4 93.9-18.2-92.8-18.2 92.8 11.3-93.9-46 82.7 39.8-85.8-69.3 64.4 64.4-69.3-85.8 39.8 82.7-46-93.9 11.4 92.8-18.2-92.8-18.2 93.9 11.3-82.7-46 85.8 39.8-64.4-69.3 69.3 64.4-39.8-85.8 46 82.7-11.4-93.9 18.2 92.8 18.2-92.8-11.4 93.9 46-82.7-39.8 85.8 69.3-64.4-64.4 69.3 85.8-39.8-82.7 46 93.9-11.3-92.8 18.2 92.8 18.2-93.9-11.4 82.7 46-85.8-39.8z"/><circle cx="1147.6" cy="1246.2" r="56"/></g><radialGradient id="SVGID_00000067915839349326977370000007760446073938276489_" cx="305.83" cy="2480.682" r="17.501" gradientTransform="matrix(2.0268 .04725 .04745 -2.0351 -53.363 5777.305)" gradientUnits="userSpaceOnUse"><stop offset="0" style="stop-color:#fff"/><stop offset="1" style="stop-color:#fff;stop-opacity:0"/></radialGradient><ellipse cx="671.8" cy="782.2" rx="22.2" ry="22.3" style="fill-rule:evenodd;clip-rule:evenodd;fill:url(#SVGID_00000067915839349326977370000007760446073938276489_)"/><circle cx="677.4" cy="816.3" r="10.9" class="st20"/><radialGradient id="SVGID_00000134950919322852951010000016390502733306604936_" cx="-126.868" cy="2879.159" r="17.501" gradientTransform="matrix(4.3848 -.1276 -.1458 -5.5697 1197.799 16799.035)" gradientUnits="userSpaceOnUse"><stop offset="0" style="stop-color:#fff"/><stop offset="1" style="stop-color:#fff;stop-opacity:0"/></radialGradient><ellipse cx="221.6" cy="949.3" rx="133.9" ry="170" style="opacity:.44;fill-rule:evenodd;clip-rule:evenodd;fill:url(#SVGID_00000134950919322852951010000016390502733306604936_)"/><radialGradient id="SVGID_00000062161071148062536260000015788634457662885261_" cx="-102.053" cy="2674.59" r="17.501" gradientTransform="matrix(3.1044 -.06989 -.1032 -3.0508 780.754 8926.39)" gradientUnits="userSpaceOnUse"><stop offset="0" style="stop-color:#fff"/><stop offset="1" style="stop-color:#fff;stop-opacity:0"/></radialGradient><ellipse cx="187.8" cy="867.2" rx="94.8" ry="93.1" style="fill-rule:evenodd;clip-rule:evenodd;fill:url(#SVGID_00000062161071148062536260000015788634457662885261_)"/><g style="opacity:.458"><radialGradient id="SVGID_00000177483491586695954420000015946452088104584601_" cx="3218.203" cy="493.318" r="65.6" gradientTransform="matrix(.7436 -.0276 -.02177 -.5865 -565.905 1050.712)" gradientUnits="userSpaceOnUse"><stop offset="0" style="stop-color:#23211a"/><stop offset="1" style="stop-color:#23211a;stop-opacity:0"/></radialGradient><path d="M1946.3 361.3s-122 199.8-125.1 314.3S1934.1 819 1934.1 819s-152.6-25.9-149.5-140.3c3-114.5 161.7-317.4 161.7-317.4" style="fill:url(#SVGID_00000177483491586695954420000015946452088104584601_)"/><radialGradient id="SVGID_00000072282520957162621020000006921028089920901013_" cx="3225.253" cy="1767.045" r="65.6" gradientTransform="matrix(.7441 .00752 .01252 -1.238 -660.432 2854.164)" gradientUnits="userSpaceOnUse"><stop offset="0" style="stop-color:#23211a"/><stop offset="1" style="stop-color:#23211a;stop-opacity:0"/></radialGradient><path d="M1967.6 364.4s-76.3 181.5-79.3 296c-3.1 114.4 67.1 161.7 67.1 161.7s-152.6-25.9-149.5-140.3c3.1-114.5 161.7-317.4 161.7-317.4" style="opacity:.663;fill:url(#SVGID_00000072282520957162621020000006921028089920901013_)"/><radialGradient id="SVGID_00000059290171973909449270000000323850528870549893_" cx="9537.06" cy="2353.509" r="65.6" gradientTransform="matrix(.2364 .07572 .3247 -1.014 -1154.107 2174.202)" gradientUnits="userSpaceOnUse"><stop offset="0" style="stop-color:#fff"/><stop offset="1" style="stop-color:#fff;stop-opacity:0"/></radialGradient><path d="M1970.9 200.3c-11 189.8-163.2 329.6-195.5 475.3-24.7 111.8 134.3 143.4 134.3 143.4s-163.6-26.8-149.5-140.3c19.6-157.2 170.9-308.5 210.7-478.4" style="fill:url(#SVGID_00000059290171973909449270000000323850528870549893_)"/></g><defs><path id="SVGID_00000114056475900232847910000002261671005728179901_" d="M1225 1356.3c135-.3 303.9-34.5 434.3-217.8l837.7 621.2 34.6 777.1-980-504.8z"/></defs><clipPath id="SVGID_00000030481593609402818160000001647593510938691757_"><use xlink:href="#SVGID_00000114056475900232847910000002261671005728179901_" style="overflow:visible"/></clipPath><g style="clip-path:url(#SVGID_00000030481593609402818160000001647593510938691757_)"><linearGradient id="SVGID_00000125595466661316447470000017348127963932079768_" x1="-1534.494" x2="-1550.43" y1="-1007.59" y2="-1027.315" gradientTransform="matrix(-.4304 .01453 -.1979 -.4245 511.645 799.587)" gradientUnits="userSpaceOnUse"><stop offset="0" style="stop-color:#eac586"/><stop offset="1" style="stop-color:#eac586;stop-opacity:0"/></linearGradient><path d="m1327.1 1171.4 88.8 67.2" style="fill:none;stroke:url(#SVGID_00000125595466661316447470000017348127963932079768_);stroke-width:.2014;stroke-linecap:round;stroke-miterlimit:10"/><radialGradient id="SVGID_00000100340509165231287270000011076508815631660193_" cx="-3838.514" cy="-1691.726" r="75.024" gradientTransform="matrix(-.3423 -.7707 -.2088 .09268 562.26 -904.022)" gradientUnits="userSpaceOnUse"><stop offset="0" style="stop-color:#696969"/><stop offset="1" style="stop-color:#000"/></radialGradient><path d="M2378.9 2164.9c-75.9-193.5-20.5-350.7-170.1-406.2-106.8-39.6-152.7 90-93.1 200.4 77.7 144.1 263.2 205.8 263.2 205.8" style="fill:url(#SVGID_00000100340509165231287270000011076508815631660193_)"/><linearGradient id="SVGID_00000007399019180725878250000016073969723211320238_" x1="-5209.002" x2="-5263.287" y1="-2719.25" y2="-2764.092" gradientTransform="matrix(.03647 -.4086 -.4086 -.03652 1229.57 -468.44)" gradientUnits="userSpaceOnUse"><stop offset="0" style="stop-color:#fff"/><stop offset="1" style="stop-color:#fff;stop-opacity:0"/></linearGradient><path d="M2244.1 1915.5s-31.7-82.2-86.3-120.9c-19.3-13.7.5-39 19.3-20.6 40.6 39.6 67 141.5 67 141.5" style="opacity:.428;fill:url(#SVGID_00000007399019180725878250000016073969723211320238_)"/><linearGradient id="SVGID_00000002385431669530971350000018127932990132564397_" x1="-4262.549" x2="-4317.122" y1="-44.977" y2="-1.194" gradientTransform="matrix(-.0386 -.4798 -.4798 .03855 1434.958 -697.833)" gradientUnits="userSpaceOnUse"><stop offset="0" style="stop-color:#d87711"/><stop offset=".242" style="stop-color:#f3ae66"/><stop offset=".621" style="stop-color:#713e08"/><stop offset="1" style="stop-color:#e07c12"/></linearGradient><path d="m1838.6 1652.2 81.9-103.1c-180.2-156.1-599.3-374-599.3-374-29.7-7.8-45 29.4-24.1 45.8 0-.1 358.5 296.1 541.5 431.3" style="fill:url(#SVGID_00000002385431669530971350000018127932990132564397_)"/><linearGradient id="SVGID_00000054238328221763541330000013980085962393406607_" x1="19176.537" x2="18661.795" y1="20093.059" y2="19234.332" gradientTransform="matrix(-.0009 .1093 .1093 .0009 -340.231 -585.467)" gradientUnits="userSpaceOnUse"><stop offset="0" style="stop-color:#fff"/><stop offset="1" style="stop-color:#fff;stop-opacity:0"/></linearGradient><path d="M1891.6 1545.1c-180.9-135.8-380.7-249.7-583-360.9 191.3 123.9 385 245.7 551.8 390.2z" style="opacity:.391;fill-rule:evenodd;clip-rule:evenodd;fill:url(#SVGID_00000054238328221763541330000013980085962393406607_)"/><linearGradient id="SVGID_00000054960450380156705490000000824064745341354113_" x1="-4943.493" x2="-4981.604" y1="-836.283" y2="-803.835" gradientTransform="matrix(-.0386 -.4798 -.4798 .03855 1434.958 -697.833)" gradientUnits="userSpaceOnUse"><stop offset="0" style="stop-color:#bdbdbd"/><stop offset=".333" style="stop-color:#e2e2e2"/><stop offset=".667" style="stop-color:#a3a3a3"/><stop offset="1" style="stop-color:#ddd"/></linearGradient><path d="M2095.5 1816.1c-.6-29.4 23.1-54.6 51.9-60.3L1945.7 1569l-17.2-5.1-2.5-25.8c-36 13.3-97.8 77.7-94.3 121.9l25.6-4 10.2 15.1z" style="fill:url(#SVGID_00000054960450380156705490000000824064745341354113_)"/><path d="m1938.5 1612.2 171.8 139.2" style="fill:none;stroke:#fff;stroke-width:.6041;stroke-linecap:round;stroke-linejoin:round;stroke-miterlimit:10"/><path d="M2139.1 1751.7c-24.2 10.8-40.8 32.7-49.5 57.3 0-37.9 24.2-55.4 49.5-57.3" class="st20"/><g transform="matrix(-.00443 .54294 -.543 -.00448 258.74 76.649)"><circle cx="2751.3" cy="-3062.5" r="4.7" class="st39" transform="rotate(-69.855 2751.328 -3062.447)"/><circle cx="2751.2" cy="-3062.5" r="2.8" class="st39" transform="rotate(-69.855 2751.306 -3062.446)"/></g><path d="m1835 1652.8 25.6-3.8 9.9 20.2 50.1 31.3-46.1-36-9.9-26.3z" style="fill-rule:evenodd;clip-rule:evenodd"/><radialGradient id="SVGID_00000181057446133923554260000008196886854410884498_" cx="15264.804" cy="19906.248" r="110.125" gradientTransform="matrix(-.00116 .1425 .1121 .00092 -347.087 -603.13)" gradientUnits="userSpaceOnUse"><stop offset="0" style="stop-color:#000"/><stop offset="1" style="stop-color:#000;stop-opacity:0"/></radialGradient><path d="m1829.5 1658.1 28.3-7.8c12.8-52.5 45.5-73.2 66.5-85.4l-1.1-25.5c-42.4 26.7-82 54.3-93.7 118.7" style="fill-rule:evenodd;clip-rule:evenodd;fill:url(#SVGID_00000181057446133923554260000008196886854410884498_)"/><radialGradient id="SVGID_00000176732306331054130260000011644093095581456532_" cx="19909.404" cy="27481.481" r="84.141" gradientTransform="matrix(-.0009 .1093 .0788 .00065 -259.201 -585.075)" gradientUnits="userSpaceOnUse"><stop offset="0" style="stop-color:#fff"/><stop offset="1" style="stop-color:#fff;stop-opacity:0"/></radialGradient><path d="M1935.1 1571.6c-33.5 24.5-54.5 55.5-66.6 90.8 3.7-44.2 28-73.5 66.6-90.8" style="fill-rule:evenodd;clip-rule:evenodd;fill:url(#SVGID_00000176732306331054130260000011644093095581456532_)"/><radialGradient id="SVGID_00000181060490950090037420000007228068216696571564_" cx="19814.615" cy="25307.857" r="110.122" gradientTransform="matrix(-.0009 .1093 .086 .00071 -278.412 -584.963)" gradientUnits="userSpaceOnUse"><stop offset="0" style="stop-color:#fff"/><stop offset="1" style="stop-color:#fff;stop-opacity:0"/></radialGradient><path d="m1832.9 1658.8 28.3-7.8c12.8-52.5 45.5-73.2 66.5-85.4l-1.1-25.5c-42.4 26.7-82 54.3-93.7 118.7" style="fill-rule:evenodd;clip-rule:evenodd;fill:url(#SVGID_00000181060490950090037420000007228068216696571564_)"/><radialGradient id="SVGID_00000077285988916103276020000004599606811583611305_" cx="8298.032" cy="12574.275" r="84.141" gradientTransform="matrix(-.0022 .2706 .195 .00161 -569.715 -678.243)" gradientUnits="userSpaceOnUse"><stop offset="0" style="stop-color:#fff"/><stop offset="1" style="stop-color:#fff;stop-opacity:0"/></radialGradient><path d="M1923.1 1541.8c-42.3 20.6-79.1 67.9-90.8 119.1 9.8-56.4 48.6-114.2 90.8-119.1" style="fill-rule:evenodd;clip-rule:evenodd;fill:url(#SVGID_00000077285988916103276020000004599606811583611305_)"/><radialGradient id="SVGID_00000010278935697031872330000001942601221883171968_" cx="-30174.9" cy="-10672.178" r="124.977" gradientTransform="matrix(-.09253 -.03934 .0409 -.0962 -101.046 -267.635)" gradientUnits="userSpaceOnUse"><stop offset="0" style="stop-color:#000"/><stop offset="1" style="stop-color:#000;stop-opacity:0"/></radialGradient><path d="M2222.4 1862c15.7 54.9 40.4 111.7 64.1 168.2 0 0-45.3-101.8-47-110.6-1.6-8.7-17.6-56.4-17.1-57.6" style="opacity:.355;fill:url(#SVGID_00000010278935697031872330000001942601221883171968_)"/><radialGradient id="SVGID_00000082332446786968302510000002306427887252985733_" cx="-27884.805" cy="-14019.72" r="124.98" gradientTransform="matrix(-.09672 -.02745 .02854 -.1006 -75.981 -261.694)" gradientUnits="userSpaceOnUse"><stop offset="0" style="stop-color:#000"/><stop offset="1" style="stop-color:#000;stop-opacity:0"/></radialGradient><path d="M2178.7 1834.2c22.5 52.5 54.1 105.7 84.6 158.9 0 0-57.7-95.4-60.4-103.9-2.8-8.5-24.6-53.8-24.2-55" style="opacity:.355;fill:url(#SVGID_00000082332446786968302510000002306427887252985733_)"/><radialGradient id="SVGID_00000137826385225100213260000001964639810930726580_" cx="-18345.912" cy="-23618.057" r="124.801" gradientTransform="matrix(-.0996 .01381 -.01436 -.1035 18.392 -255.028)" gradientUnits="userSpaceOnUse"><stop offset="0" style="stop-color:#000"/><stop offset="1" style="stop-color:#000;stop-opacity:0"/></radialGradient><path d="M2113.9 1881.2c41.7 39 92.1 75 141.4 111.4 0 0-91.2-64.1-97.1-70.7-5.9-6.7-44.1-39.5-44.3-40.7" style="opacity:.355;fill:url(#SVGID_00000137826385225100213260000001964639810930726580_)"/><radialGradient id="SVGID_00000120530182747093626700000008766834915901152427_" cx="-17520.029" cy="-14468.247" r="144.769" gradientTransform="matrix(-.1082 .0189 -.01847 -.1676 14.749 -108.96)" gradientUnits="userSpaceOnUse"><stop offset="0" style="stop-color:#fff"/><stop offset="1" style="stop-color:#fff;stop-opacity:0"/></radialGradient><path d="m2268.7 2092.5-182.1-213.9 96.5 150.3z" style="opacity:.355;fill:url(#SVGID_00000120530182747093626700000008766834915901152427_)"/><radialGradient id="SVGID_00000136380764505813388420000010041424147329675398_" cx="-14383.318" cy="-20771.816" r="700.352" gradientTransform="matrix(-.0996 .01381 -.01318 -.09502 18.126 -282.38)" gradientUnits="userSpaceOnUse"><stop offset="0" style="stop-color:#fff"/><stop offset="1" style="stop-color:#fff;stop-opacity:0"/></radialGradient><path d="m1332.4 1212.6 24.1-5.8 532.6 350.3 5.8 24.1 22.3 16.9 197.5 164.7-15.4 14.6-213.9-174.9-13.2-23.1z" style="opacity:.355;fill:url(#SVGID_00000136380764505813388420000010041424147329675398_)"/><radialGradient id="SVGID_00000026871264209022815740000001474306408229963187_" cx="-33186.93" cy="-10160.172" r="124.975" gradientTransform="matrix(-.0818 -.0379 .03617 -.09265 -90.642 -278.362)" gradientUnits="userSpaceOnUse"><stop offset="0" style="stop-color:#000"/><stop offset="1" style="stop-color:#000;stop-opacity:0"/></radialGradient><path d="M2228.5 1839.7c13.9 52.9 35.7 107.6 56.7 162 0 0-40.1-98.1-41.5-106.5-1.5-8.4-15.6-54.4-15.2-55.5" style="opacity:.355;fill:url(#SVGID_00000026871264209022815740000001474306408229963187_)"/><radialGradient id="SVGID_00000099657529446686504450000004534696654168599718_" cx="-26801.283" cy="-17451.779" r="124.971" gradientTransform="matrix(-.09898 -.01767 .01836 -.1029 -46.028 -245.84)" gradientUnits="userSpaceOnUse"><stop offset="0" style="stop-color:#000"/><stop offset="1" style="stop-color:#000;stop-opacity:0"/></radialGradient><path d="M2236.3 1948.6c27.6 50 64.4 99.8 100.1 149.7 0 0-66.9-89.1-70.5-97.3s-29.9-51.2-29.6-52.4" style="opacity:.355;fill:url(#SVGID_00000099657529446686504450000004534696654168599718_)"/></g><linearGradient id="SVGID_00000002386659479487450710000008036714365011638708_" x1="7837.766" x2="7877.956" y1="-6107.647" y2="-6163.675" gradientTransform="matrix(.2142 0 0 -.2142 -220.977 -22.085)" gradientUnits="userSpaceOnUse"><stop offset="0" style="stop-color:#000"/><stop offset="1" style="stop-color:#000;stop-opacity:0"/></linearGradient><path d="m1505 1261.2-98.7 50.3 67 55.9c-6.9-41.5.5-74.2 57.7-76.3z" style="fill:url(#SVGID_00000002386659479487450710000008036714365011638708_)"/><radialGradient id="SVGID_00000137131323655751013180000015404914189171552923_" cx="-12556.724" cy="10758.34" r="596.408" gradientTransform="matrix(-.138 -.1061 -.06755 .08786 52.12 -670.058)" gradientUnits="userSpaceOnUse"><stop offset="0" style="stop-color:#fff"/><stop offset="1" style="stop-color:#fff;stop-opacity:0"/></radialGradient><path d="M423.8 1293.2S849 1538 1166.2 1561.7s526.5-173.8 526.5-173.8-225.1 123.7-542.3 100-726.6-194.7-726.6-194.7" style="opacity:.313;fill:url(#SVGID_00000137131323655751013180000015404914189171552923_)"/><radialGradient id="SVGID_00000119808652564761443290000013119158569605218495_" cx="5236.21" cy="981.173" r="19.798" gradientTransform="matrix(.4003 -.0089 -.01613 -.7256 -283.88 1469.144)" gradientUnits="userSpaceOnUse"><stop offset="0" style="stop-color:#000"/><stop offset="1" style="stop-color:#000;stop-opacity:0"/></radialGradient><ellipse cx="1811.5" cy="699.2" rx="28" ry="50.7" style="opacity:.578;fill-rule:evenodd;clip-rule:evenodd;fill:url(#SVGID_00000119808652564761443290000013119158569605218495_)"/><radialGradient id="SVGID_00000047764349146711385070000003586057190935492270_" cx="1915.565" cy="-1452.492" r="147.008" gradientTransform="matrix(.3269 -.2894 -.302 -.3412 625.83 548.575)" gradientUnits="userSpaceOnUse"><stop offset="0" style="stop-color:#fff"/><stop offset="1" style="stop-color:#fff;stop-opacity:0"/></radialGradient><path d="M1837.8 386.5c-67.4 93.3-181.1 149.6-294 206.5 132.5-10.1 269.6-61.7 294-206.5" style="opacity:.271;fill-rule:evenodd;clip-rule:evenodd;fill:url(#SVGID_00000047764349146711385070000003586057190935492270_)"/><radialGradient id="SVGID_00000051373535606689941050000001347221663520408196_" cx="2733.979" cy="-27884.582" r="181.892" gradientTransform="matrix(.2014 0 0 -.0618 -220.182 -408.405)" gradientUnits="userSpaceOnUse"><stop offset="0" style="stop-color:#fff"/><stop offset="1" style="stop-color:#fff;stop-opacity:0"/></radialGradient><path d="M164.6 1232.9c136.4 89.6 266.6 138.5 363.8-29.7-101.5 156.5-229.7 115.1-363.8 29.7" style="opacity:.892;fill:url(#SVGID_00000051373535606689941050000001347221663520408196_)"/></g></svg>