<svg xmlns="http://www.w3.org/2000/svg" width="90" height="90"><path fill="none" d="M-1-1h92v92H-1z"/><g stroke="null"><circle cx="44.854" cy="44.854" r="44.854" fill="#C71D23"/><path fill="#FFF" d="M67.559 39.871H42.086a2.217 2.217 0 0 0-2.216 2.215l-.001 5.538a2.213 2.213 0 0 0 2.214 2.215h15.508c1.223 0 2.215.991 2.215 2.215v1.107a6.645 6.645 0 0 1-6.645 6.645H32.117a2.215 2.215 0 0 1-2.215-2.215V36.55a6.645 6.645 0 0 1 6.644-6.645h31.006a2.22 2.22 0 0 0 2.217-2.215l.003-5.537a2.213 2.213 0 0 0-2.212-2.217l-.001.002H36.548c-9.175 0-16.613 7.437-16.613 16.612v31.01c0 1.223.992 2.215 2.215 2.215h32.672c8.258 0 14.952-6.694 14.952-14.952V42.086a2.215 2.215 0 0 0-2.215-2.215z"/></g></svg>