<svg xmlns="http://www.w3.org/2000/svg" id="Layer_1" data-name="Layer 1" viewBox="0 0 125 120"><defs><style>.cls-1{fill:#faf7ef}</style></defs><path d="M77.313 7.816c.833.257 1.665.526 2.509.743 3.6.927 6.647 2.725 9 5.64.36.445.771.85 1.17 1.262.178.186.397.313.654.274.155-.047.207-.16.178-.273-.057-.22-.113-.45-.223-.647-2.885-5.19-7.354-7.629-13.236-7.593-.204.001-.547-.142-.59.154-.04.288.302.367.538.44m28.692 51.718C106.17 37.822 90.77 18.65 69.83 14.282c-23.32-4.866-42.465 8.485-49.303 22.142 1.496-1.844 2.75-3.609 4.22-5.168 12.161-12.883 29.567-17.536 45.57-13.614 6.893 1.689 13.527 4.96 19.368 9.866 10.47 8.795 15.773 22.215 14.623 35.353a39.7 39.7 0 0 1-2.493 10.813c-7.616 19.795-28.798 31.48-50.545 27.796-11.997-2.032-21.763-7.901-29.348-17.453 6.734 12.66 25.422 24.22 45.797 20.545 22.327-4.027 38.118-22.684 38.286-45.028M19.734 42.631c-.282.237-.577.48-.787.777-5.54 7.838-5.964 16.057-1.791 24.602.144.296.174.895.637.75.447-.142.323-.697.264-1.09-.21-1.395-.4-2.795-.675-4.176-1.17-5.895-.685-11.592 1.914-17.064.397-.835.698-1.717 1.02-2.586.146-.39.178-.798-.059-1.145-.178-.193-.377-.19-.523-.068" class="cls-1"/><path d="M105.878 83.02c-.428-.191-.703.306-.92.64-.769 1.182-1.554 2.356-2.265 3.573-3.034 5.188-7.176 9.13-12.75 11.5-.851.362-1.662.822-2.48 1.258-.367.196-.661.48-.714.897.005.262.156.392.346.397.368.01.75.024 1.105-.059 9.344-2.191 15.113-8.061 17.658-17.223.088-.317.463-.786.02-.983" class="cls-1"/><path d="M109.942 38.982c-7.1-6.089-7.907-9.55-10.355-19.016C96.926 9.672 82.657.736 72.207 2.97c-8 1.71-15.812 2.159-23.76.264-.84-.2-1.732-.223-2.603-.262-4.226-.191-7.663 1.347-10.286 4.7a39 39 0 0 0-4.111 6.434c-3.05 6.018-7.724 10.29-13.654 13.362-2.71 1.404-5.386 2.923-7.893 4.656-3.861 2.67-7.016 5.962-7.62 10.94-.44 3.629.673 6.977 2.379 10.05 3.135 5.648 4.677 11.585 4.057 17.443 0 2.42-.065 4.244.012 6.062.265 6.259 1.73 11.986 7.25 15.851 2.095 1.468 4.321 2.74 6.675 3.698 6.898 2.81 12.455 7.145 16.245 13.645.506.869 1.244 1.614 1.937 2.36 3.146 3.388 7.006 5.096 11.668 4.942 3.474-.114 6.794-.942 9.924-2.357 9.367-4.236 18.844-7.888 29.124-9.538 7.275-1.167 12.018-6.128 14.537-13.107.824-2.281 1.23-4.647 1.578-7.017.692-4.716 2.985-8.284 7.15-10.644.947-.538 1.317-1.16 2.2-1.8 3.165-2.297 5.046-5.388 5.611-9.261.588-4.03-.229-7.817-2.02-11.432-2.621-5.287-6.295-9.23-10.665-12.977M77.365 7.222c5.882-.036 10.351 2.403 13.236 7.593.11.196.166.426.223.647.029.114-.023.226-.178.273-.257.04-.476-.088-.655-.274-.398-.412-.809-.817-1.168-1.261-2.354-2.916-5.4-4.714-9.001-5.641-.844-.217-1.676-.486-2.51-.743-.235-.073-.577-.152-.536-.44.042-.296.385-.153.589-.154M20.317 43.844c-.323.869-.624 1.75-1.02 2.586-2.6 5.472-3.086 11.17-1.915 17.064.275 1.381.466 2.78.675 4.175.059.394.183.95-.264 1.09-.463.146-.493-.453-.637-.75-4.173-8.544-3.75-16.763 1.79-24.6.21-.298.506-.54.788-.778.146-.122.345-.125.523.068.237.347.205.755.06 1.145m1.605 40.173c7.585 9.552 17.351 15.421 29.348 17.453 21.747 3.683 42.93-8.001 50.545-27.796a39.7 39.7 0 0 0 2.493-10.813c1.15-13.138-4.153-26.558-14.623-35.353-5.84-4.906-12.475-8.177-19.369-9.866-16.002-3.922-33.408.73-45.568 13.614-1.471 1.56-2.725 3.324-4.221 5.168C27.365 22.767 46.509 9.416 69.83 14.282c20.94 4.367 36.339 23.54 36.175 45.252-.168 22.344-15.959 41.001-38.286 45.028-20.375 3.676-39.063-7.886-45.797-20.545m28.114-16.32a5.9 5.9 0 0 1 2.04-.371c1.103 0 2.132.31 3.015.838l20.77-20.768a5.86 5.86 0 0 1-.681-2.744 5.9 5.9 0 0 1 5.895-5.895 5.9 5.9 0 0 1 5.896 5.895 5.9 5.9 0 0 1-5.896 5.896c-.86 0-1.676-.19-2.414-.523L57.574 71.11c.253.657.398 1.367.398 2.111a5.9 5.9 0 0 1-5.895 5.895 5.9 5.9 0 0 1-5.896-5.895c0-1.13.326-2.184.88-3.082l-5.32-7.502a5.9 5.9 0 0 1-1.656.24 5.9 5.9 0 0 1-5.895-5.895 5.9 5.9 0 0 1 5.895-5.895 5.9 5.9 0 0 1 5.896 5.895c0 1.28-.415 2.463-1.11 3.43zm55.822 16.306c-2.545 9.162-8.314 15.032-17.658 17.223-.354.083-.737.069-1.105.06-.19-.006-.341-.136-.346-.398.053-.417.347-.7.714-.897.818-.436 1.629-.896 2.48-1.258 5.574-2.37 9.716-6.312 12.75-11.5.71-1.217 1.496-2.39 2.265-3.573.217-.334.492-.831.92-.64.443.197.068.666-.02.983" style="fill:#a9cb38"/><path d="M40.085 51.087a5.9 5.9 0 0 0-5.895 5.895 5.9 5.9 0 0 0 5.895 5.896c.576 0 1.13-.087 1.656-.241l5.32 7.502a5.85 5.85 0 0 0-.88 3.082 5.9 5.9 0 0 0 5.896 5.895 5.9 5.9 0 0 0 5.895-5.895 5.9 5.9 0 0 0-.398-2.11l21.087-21.086a5.85 5.85 0 0 0 2.414.523 5.9 5.9 0 0 0 5.896-5.896 5.9 5.9 0 0 0-5.896-5.895 5.9 5.9 0 0 0-5.895 5.895c0 .99.248 1.923.681 2.744l-20.77 20.768a5.85 5.85 0 0 0-3.014-.838 5.9 5.9 0 0 0-2.04.371l-5.167-7.284a5.86 5.86 0 0 0 1.11-3.43 5.9 5.9 0 0 0-5.895-5.896" class="cls-1"/></svg>