<svg xmlns="http://www.w3.org/2000/svg" xmlns:xlink="http://www.w3.org/1999/xlink" version="1.1" viewBox="0 0 512 512">
<g id="surface1">
<path style=" stroke:none;fill-rule:nonzero;fill:rgb(32.156864%,32.156864%,37.64706%);fill-opacity:1;" d="M 32.59375 0 L 204.445312 0 C 222.445312 0 237.035156 14.59375 237.035156 32.59375 L 237.035156 479.40625 C 237.035156 497.40625 222.445312 512 204.445312 512 L 32.59375 512 C 14.59375 512 0 497.40625 0 479.40625 L 0 32.59375 C 0 14.59375 14.59375 0 32.59375 0 Z M 32.59375 0 "/>
<path style=" stroke:none;fill-rule:evenodd;fill:rgb(85.09804%,76.47059%,54.901963%);fill-opacity:1;" d="M 307.554688 0 C 289.554688 0 274.964844 14.59375 274.964844 32.59375 L 274.964844 204.445312 C 274.964844 222.445312 289.554688 237.035156 307.554688 237.035156 L 479.40625 237.035156 C 497.40625 237.035156 512 222.445312 512 204.445312 L 512 32.59375 C 512 14.59375 497.40625 0 479.40625 0 Z M 359.132812 52.148438 L 338.050781 74.339844 L 404.023438 74.339844 C 407.328125 74.339844 410.46875 74.253906 413.445312 74.082031 C 416.421875 73.738281 418.738281 73.050781 420.390625 72.019531 L 331.851562 163.890625 L 347.972656 180.148438 L 435.269531 89.050781 C 434.277344 90.945312 433.535156 93.4375 433.039062 96.535156 C 432.707031 99.460938 432.542969 102.386719 432.542969 105.308594 L 432.542969 176.277344 L 455.109375 153.050781 L 455.109375 52.148438 Z M 359.132812 52.148438 "/>
<path style=" stroke:none;fill-rule:nonzero;fill:rgb(54.509807%,54.509807%,61.176473%);fill-opacity:1;" d="M 307.554688 274.964844 L 479.40625 274.964844 C 497.40625 274.964844 512 289.554688 512 307.554688 L 512 479.40625 C 512 497.40625 497.40625 512 479.40625 512 L 307.554688 512 C 289.554688 512 274.964844 497.40625 274.964844 479.40625 L 274.964844 307.554688 C 274.964844 289.554688 289.554688 274.964844 307.554688 274.964844 Z M 307.554688 274.964844 "/>
</g>
</svg>