<svg xmlns="http://www.w3.org/2000/svg" xml:space="preserve" id="Layer_1" x="0" y="0" version="1.1" viewBox="24.6 1.3 462.81 509.4"><style>.st0{fill-rule:evenodd;clip-rule:evenodd;fill:#57cb6a}</style><path d="M279.4 61.9c-47.8 0-91.5 17.3-125.4 45.9l-39.2-46.3C159.3 24 216.7 1.3 279.4 1.3S399.6 24 444 61.5l-39.2 46.3C371 79.1 327.2 61.9 279.4 61.9" class="st0"/><path d="M81.1 270.6c9.8-32.1 25.6-60.6 47.6-85.6-5.3.7-10.5 2.2-15.5 4.5-.3-.2-.5-.3-.7-.5s-.5-.3-.7-.5c18.6-27.8 42-50.6 70.1-68.6-16.9-28.2-25.5-58.7-26-91.6 38.4 6.2 70.8 23.4 97.1 51.6 46.8 8.1 89.2 26.2 127.2 54.1 9.4 6.7 16.6 15.2 21.5 25.5q3.3 12 6 24c3.3 7.3 8.2 13.5 14.5 18.5q12.3 10.8 27 18 18.6 5.85 38.1 7.5c.7 9.9-1.9 18.9-7.5 27-21.2 15.9-45.1 22.1-71.6 18.5-21.9-3.8-43.8-7.6-65.6-11.5-16.8.5-26.5 9.1-29.1 26-1.6 14.1 1.4 27.1 9 39.1 3.8 5.9 7.8 11.5 12 17 11.7 13.2 24.3 25.6 37.6 37.1-6.8 1.9-13.8 3.1-21 3.5 7.4 4.4 16.3 10 25.5 15.8 15.7 9.9 32.5 20.6 45.6 27.2-54.3 31.5-113 65.4-234.4 19.6-52.1-19.7-92.4-55.2-106.6-91.8-12.5-31.6-9.9-52.4-.1-84.4m239.4-98.5c24.7 14.2 53.2 11 53.2 11s-10.1-28.7-34.7-42.9-54.5-8.6-54.5-8.6 11.4 26.2 36 40.5" style="fill-rule:evenodd;clip-rule:evenodd;fill:#ebebeb"/><path d="M324 363.6c-5.7-.3-11.4-.8-17-1.5 20.8 15.9 36.8 35.6 48.1 59.1-4.8-1.6-9.8-2.8-15-3.5 4 9.6 8 19.3 12 29-65.9 19.2-127.1 9.5-183.7-29-.7-5.7-.7-11.3 0-17 1.3-12.1 3-24.1 5-36.1-9.9 11.9-17.2 25.2-22 40.1l-6.5-6.5c2.9-21.6 9.5-42 20-61.1-2.3.4-4.6.4-7 0 1.2.9 1.2 1.7 0 2.5-4.7 3.3-9.4 6.7-14 10 13.2-28.7 32.2-52.9 57.1-72.6 6.9-4.6 14.3-8.5 22-11.5 2.1 13.4 5.6 26.4 10.5 39.1.6 1.6 1.6 3 3 4 9.7-18.2 21.6-34.9 35.5-50.1l-1-1c-11.5 6.3-21.7 14.3-30.5 24-4-11-6.3-22.4-7-34-.4-.9-1.1-1.6-2-2-15.7 5.5-30.3 12.8-44.1 22q8.4-27.15 25.5-50.1c-1.9-1.1-3.9-1.3-6-.5-6.3 1.9-12.7 3.8-19 5.5v-1c18.5-21.6 41.8-35 70.1-40.1-7.5-3.3-15.1-6.2-23-8.5q30.75-.3 59.1 12c26 13 51.3 27 76.1 42.1 26.4 15.4 54.7 21.7 85.1 19 5.7-2.8 10.7-2 15 2.5-17 13.6-36.3 18.8-58.1 15.5-17.8-3.2-35.5-6.8-53.1-11-42.5-9.2-62.7 7.9-60.6 51.6 1.1 10.4 3.8 20.4 8 30 5.4 10.1 11.2 19.8 17.5 29.1M216.9 75.2c-8.8-4.6-17.8-8.9-27-13l-1 1c4.4 6.9 8.4 14.1 12 21.5-3.6-1-6.9-2.9-10-5.5l-1 1c1.5 6.7 2.8 13.3 4 20-11.4-15.6-19.1-32.9-23-52.1 17.8 4.9 33.2 13.9 46 27.1" style="fill-rule:evenodd;clip-rule:evenodd;opacity:.976;fill:#c1c1c1"/><path d="M154.1 107.8C112 143.5 85.3 196.6 85.3 256c0 107.2 86.9 194.1 194.1 194.1 40.1 0 77.2-12.1 108.1-32.9V311.5h60.6v135.9l-11.6 9.1c-43.3 34-97.9 54.2-157.2 54.2-140.7 0-254.7-114-254.7-254.7 0-78 35.1-147.8 90.2-194.5z" class="st0"/><path d="M326.1 168.1v-17.2c-.4.4-1 .8-1.7 1.3-.6.4-1.3.8-2 1.1s-1.4.7-2.1 1-1.3.5-1.8.7v-5.1c.6-.2 1.3-.6 2-1.1.8-.5 1.5-1 2.3-1.5.7-.6 1.4-1.1 2-1.6q.9-.75 1.2-1.2h5.6v23.7h-5.5z" style="fill:#57cb6a"/></svg>