<svg xmlns="http://www.w3.org/2000/svg" xml:space="preserve" id="Layer_1" x="0" y="0" version="1.1" viewBox="0 0 512 512"><style>.st1{fill:#fc1262}.st2{fill:#b0d52b}.st3{fill:#65d8fd}.st4{fill:#c6c6c6}</style><path d="M0 0h512v512H0z" style="fill:#f5f5f5"/><path d="M70.6 411.6h58.3V439H70.6z" class="st1"/><path d="M156.3 411.6h58.3V439h-58.3z" class="st2"/><path d="M242.1 411.6h58.3V439h-58.3z" class="st3"/><path d="M327.8 411.6h58.3V439h-58.3z" class="st4"/><path d="M70.6 355.6h58.3V383H70.6z" class="st1"/><path d="M156.3 355.6h58.3V383h-58.3z" class="st2"/><path d="M242.1 355.6h58.3V383h-58.3z" class="st3"/><path d="M327.8 355.6h111.7V383H327.8z" class="st4"/><path d="M70.6 299.6h58.3V327H70.6z" class="st1"/><path d="M156.3 299.6h58.3V327h-58.3z" class="st2"/><path d="M242.1 299.6h58.3V327h-58.3z" class="st3"/><path d="M327.8 299.6H411V327h-83.2zM70.6 156.5h85.7v31.2H70.6z" class="st4"/><path d="M185.5 156.5h111.8v31.2H185.5z" class="st2"/><path d="M43.7 73h424.6v56.3H43.7zm0 142.5h424.6v56.3H43.7z" style="fill:#585858"/></svg>