<?xml version="1.0" encoding="UTF-8" standalone="no"?>
<!-- Created with Inkscape (http://www.inkscape.org/) -->

<svg
   width="560"
   height="512"
   viewBox="0 0 560 512"
   version="1.1"
   id="svg1"
   xml:space="preserve"
   xmlns="http://www.w3.org/2000/svg"
   xmlns:svg="http://www.w3.org/2000/svg"><defs
     id="defs1" /><g
     id="layer1"
     transform="translate(-42.946746,-126.71433)"><g
       id="g1"
       transform="matrix(3.7869499,0,0,3.7828877,703.99216,-333.416)"><g
         id="g9"
         transform="translate(-217.75053,-5.1753333)"><path
           style="fill:#ffffff;fill-opacity:1;stroke:none;stroke-width:0.324915"
           d="m 83.24668,216.45288 2.051635,33.52471 1.02583,0.42761 61.805715,-2.99327 3.59038,-0.59866 0.17096,-2.05254 -0.94035,-19.92668 -1.36776,-12.05863 -0.94033,-0.17104 z"
           id="path2" /><path
           style="fill:#ffffff;fill-opacity:1;stroke:none;stroke-width:0.324915"
           d="m 157.27674,211.9202 -9.83078,3.50642 -3.24841,2.22358 -1.11132,2.73671 0.42743,2.30909 1.11129,1.71045 2.39358,0.85522 3.50491,0.17104 8.80495,-2.48014 2.82102,-1.79596 -0.0854,-4.70373 -1.45323,-3.33536 -1.79519,-1.45388 z"
           id="path3" /><path
           style="fill:#ffffff;fill-opacity:1;stroke:none;stroke-width:0.324915"
           d="m 81.707942,237.49135 -2.650032,2.56566 0.512908,4.44716 2.308102,3.0788 3.419395,2.39462 5.043623,-0.42761 3.248429,-2.82224 0.769363,-2.39461 -0.170965,-2.90777 -0.940341,-2.05252 -2.137123,-0.94075 z"
           id="path4" /><path
           id="path5"
           style="fill:#ffffff;fill-opacity:1;stroke:none;stroke-width:0.418494"
           d="m 151.30127,142.27905 -26.03896,11.38783 a 19.321487,20.733763 0 0 0 -1.34252,7.45056 19.321487,20.733763 0 0 0 19.32127,20.73371 19.321487,20.733763 0 0 0 19.32192,-20.73371 19.321487,20.733763 0 0 0 -11.26171,-18.83839 z" /><ellipse
           style="fill:#ffffff;fill-opacity:1;stroke:none;stroke-width:0.418494"
           id="ellipse5"
           cx="90.941093"
           cy="161.11771"
           rx="19.321487"
           ry="20.220631" /><path
           style="fill:#ffffff;fill-opacity:1;stroke:none;stroke-width:0.324915"
           d="m 107.52444,178.82311 -5.64202,5.98656 -0.51291,4.96027 1.7097,3.76299 3.59038,2.73671 h 4.10327 l 0.171,7.697 0.85483,1.53939 2.22261,1.36836 3.07745,-1.71044 1.8807,1.36836 1.70967,-0.34209 1.53877,-1.19732 1.02579,-1.71043 -0.34193,-7.86805 1.19679,0.68417 3.24845,-0.68417 1.19679,-0.17104 3.59035,-3.93403 0.51292,-5.30238 -2.56454,-3.93402 -2.90653,-2.90775 z"
           id="path6" /><path
           style="fill:#ffffff;stroke-width:1.22803"
           d="m 106.92858,236.61031 0.17487,-0.17495 v -1.03638 -1.0364 l -0.19648,-0.26881 -0.19648,-0.26882 -0.1827,0.113 -0.1827,0.113 -0.20371,0.48778 -0.20372,0.48778 v 0.5554 0.55538 l 0.22685,0.32403 0.22685,0.32401 h 0.18118 0.18117 z"
           id="path7" /><path
           style="fill:#ffffff;stroke-width:1.22803"
           d="m 111.38358,236.92675 0.37147,-0.44165 0.0964,-0.51412 0.0964,-0.51411 -0.086,-0.52984 -0.0859,-0.52985 -0.29297,-0.29309 -0.29296,-0.2931 -0.40057,0.14094 -0.40056,0.14093 -0.32881,0.58081 -0.3288,0.58081 -0.002,0.62918 -0.002,0.62918 0.16754,0.31845 0.16754,0.31844 0.16033,0.1071 0.16035,0.10711 0.31492,0.002 0.31493,0.002 z"
           id="path8" /><path
           style="fill:#ffffff;stroke-width:1.22803"
           d="m 116.98415,237.73458 0.43094,-0.36278 0.236,-0.49754 0.23599,-0.49754 v -0.73829 -0.73827 l -0.45227,-0.51533 -0.45227,-0.51533 h -0.54814 -0.54816 l -0.40226,0.31656 -0.40228,0.31656 -0.26995,0.59462 -0.26993,0.5946 -0.004,0.62919 -0.004,0.62918 0.16278,0.31844 0.16277,0.31843 0.31084,0.2519 0.31082,0.25189 0.53529,0.004 0.53529,0.004 z"
           id="path9" /></g><path
         style="fill:#cccccc;fill-opacity:1;stroke-width:1.22803"
         d="m -98.06761,241.15579 c -2.79868,-0.34393 -5.5262,-1.18916 -8.31765,-1.52082 -1.42419,0.0917 -2.82786,0.34106 -4.23279,0.58066 -0.81926,-0.16419 -1.24803,-0.91397 -1.82187,-1.44622 -0.0416,-0.55463 0.0836,-1.20402 -0.57806,-1.40588 -0.58246,-0.28957 -0.66214,-0.92843 -0.88406,-1.48779 0.0976,-0.91103 0.30427,-1.83053 0.33715,-2.73653 -0.20187,-1.16873 -0.76905,-2.04377 -1.36211,-3.0301 -0.15838,-0.61417 -0.005,-1.00956 0.39004,-1.41338 0.59111,-0.59722 1.09588,-1.34675 1.29774,-2.15281 0.0465,-0.93512 -0.037,-1.91006 0.0909,-2.82024 0.24605,-0.46563 0.26358,-0.64185 0.86289,-0.4758 0.63663,-0.0245 1.32367,0.11353 1.93102,-0.005 0.47008,-0.43575 1.5482,-0.90119 1.56003,-1.6503 0.31165,-1.25036 0.15102,-2.57023 0.26259,-3.85004 0.0794,-1.52141 0.0599,-2.80294 0.20112,-4.30889 0.28382,-0.40564 0.0395,-1.191 0.69244,-1.0648 0.54596,-0.13824 1.09678,0.20408 1.53605,0.4614 0.73349,0.93657 0.73023,1.93054 1.1022,3.02664 0.007,0.67712 0.38221,1.14107 1.01834,1.00307 2.10413,0.05 4.22619,0.10555 6.3057,0.5111 1.1573,0.13004 2.06777,0.80416 3.25988,0.84629 0.95299,0.23656 1.807327,0.46847 2.563437,1.147 0.32272,0.53848 0.796273,0.92962 1.186793,1.39821 0.86934,0.59341 2.00955,0.32004 2.93304,0.69472 1.09596,0.69378 2.16711,1.4189 3.06036,2.36872 0.85727,0.7304 1.231147,1.68324 1.860247,2.60318 0.35833,0.84519 0.95181,1.36605 0.84392,2.3297 0.0614,0.9096 0.17423,1.82354 -0.1474,2.7008 -0.23174,0.98313 -0.78982,1.87632 -1.2395,2.76788 -0.97554,0.89627 -1.507877,1.76421 -2.759627,2.2951 -1.20271,0.79134 -2.61806,1.12304 -3.97082,1.56223 -1.85501,0.48605 -3.77763,0.55391 -5.67857,0.70409 -1.2444,-0.10301 -2.48923,0.0642 -3.73503,-0.0204 1.3522,0.47731 2.81937,0.39783 4.22602,0.61144 1.72071,-0.10541 3.45921,-0.0609 5.16866,-0.26115 1.2929,-0.17643 2.51329,-0.60674 3.71685,-1.096 0.90285,-0.32605 1.74669,-0.85173 2.50364,-1.42901 0.76683,-0.83874 1.79861,-1.48673 2.17229,-2.60852 0.30806,-0.57406 0.62092,-1.147 0.50098,-1.82008 -0.143763,-0.31998 -0.398543,-0.80939 -0.349128,-1.22496 0.01352,-0.11368 0.08362,-0.1204 0.144198,-0.23893 0.43657,-0.58839 0.17648,-1.35141 0.24657,-2.03166 0.61905,0.7563 0.77362,1.73292 0.97821,2.6571 0.0623,1.01902 -0.0539,2.01706 -0.35021,2.99396 -0.22021,0.84019 -0.67851,1.62096 -1.0727,2.38493 -0.92476,0.86743 -1.70429,1.9222 -2.88381,2.46101 -1.1067,0.75048 -2.40888,1.12439 -3.66696,1.53139 -1.3431,0.27712 -2.67206,0.67601 -4.05789,0.58468 -1.94935,-0.0251 -3.91782,0.25482 -5.84515,-0.12562 z"
         id="path10" /><path
         style="fill:#fdc71b;fill-opacity:1;stroke-width:1.22803"
         d="m -164.16108,203.07716 c 1.43603,-13.99366 3.43835,-28.28278 4.99704,-42.22178 -2.03429,-4.32647 -7.09025,-7.09643 -11.33853,-8.90942 -4.80496,-2.52848 -4.49246,-8.15024 -2.75774,-12.67293 1.26967,-4.45486 4.04509,-9.57739 9.42545,-8.79226 3.91536,0.27014 8.22097,1.67331 8.76139,6.0926 0.33937,1.75448 2.2593,5.85127 3.79673,2.76388 4.99472,-6.10498 11.78564,-10.87538 19.45259,-12.81688 8.34256,-2.31236 16.9197,-4.04961 25.55564,-4.71664 8.004903,-0.14924 16.0509,-0.0914 23.89043,1.7522 11.4491,1.91864 23.89932,5.30023 31.4423,14.84937 0.95943,2.10435 3.503593,2.94346 4.041223,-0.003 0.48886,-3.23552 1.906677,-6.31977 5.248317,-7.25457 3.67607,-1.45534 7.919363,-1.63212 10.422733,1.96978 3.34975,4.72187 5.662851,10.84346 2.911421,16.33607 -3.20258,4.11687 -8.779724,4.16393 -11.671224,8.69878 -2.52097,1.54945 -1.952757,4.77369 -1.731307,7.17811 1.68852,15.47434 3.85353,30.91827 4.86644,46.45309 0.251926,13.37106 -0.200431,39.0799 -0.296949,44.26761 -0.01117,0.60014 -0.192965,0.57485 -0.192965,0.57485 0,0 -0.118406,0.35078 -0.677794,0.35076 -10.353224,-3.6e-4 -111.683055,-0.004 -125.092155,-6.4e-4 -0.93072,2.2e-4 -1.35601,-0.23929 -1.37977,-0.23904 -0.46715,-0.30592 -0.69025,-35.71686 0.32673,-53.65963 z m 58.61441,40.42082 c 12.92052,-0.75427 25.86602,-1.21886 38.76277,-2.29947 0.0692,-6.66626 -0.15714,-13.33911 -0.77296,-19.97802 -3.33531,0.87051 -7.91824,-0.708 -7.93744,-4.67828 -0.61403,-3.61296 2.55595,-5.88834 5.42049,-7.25502 1.55993,-1.50866 -3.83426,-0.3289 -5.10151,-0.53698 -19.40415,0.99926 -38.81485,1.94702 -58.20235,3.21835 -0.57613,3.45567 0.13667,7.37352 0.15465,11.00317 0.3671,3.08379 -0.0652,6.54113 0.95908,9.3801 3.46028,0.35808 8.61206,-0.6212 9.86452,3.70468 0.60032,3.07913 -0.73167,6.20931 -3.25741,8.02228 1.24326,0.86518 4.17428,0.023 6.08452,0.16338 4.67522,-0.24806 9.35043,-0.49613 14.02564,-0.74419 z m 7.431963,-4.6851 c -4.693403,-0.30203 -9.232563,-2.49135 -13.948063,-1.18341 -2.47234,-0.32933 -1.898,-2.83572 -1.7137,-4.57857 -0.53498,-1.84579 -2.7317,-3.66599 -0.18479,-5.13745 1.34553,-1.32705 -0.65638,-5.19879 2.14973,-4.81253 2.97048,0.7467 3.3551,-2.78214 3.0639,-4.90443 0.39875,-1.82628 -0.61575,-4.9681 1.11229,-5.94794 2.69158,-0.37931 1.78459,3.70084 3.1328,4.49111 3.49726,-0.15132 6.986493,-0.0615 10.2102,1.35469 2.3785,-0.39959 2.7474,1.89408 4.26702,2.85203 3.76341,0.23489 6.77922,3.60961 8.12398,6.94607 1.1015,4.82159 -2.82962,9.03828 -7.30027,10.10626 -2.86698,0.98454 -5.92584,0.87397 -8.913097,0.81417 z m -2.571433,-6.1831 c 2.191303,-1.2052 0.46964,-5.58047 -1.81652,-3.58112 -1.80142,1.32366 -0.54597,5.50935 1.81652,3.58112 z m -5.69855,-0.6916 c 1.38134,-0.9005 0.6578,-4.48583 -1.19926,-2.94609 -1.1124,0.95437 -0.59677,4.64921 1.19926,2.94609 z m -4.34561,-0.41133 c 1.29867,-1.9466 -1.15358,-4.39272 -1.22825,-1.10734 -0.17767,0.55522 0.6537,1.90895 1.22825,1.10734 z m -17.63404,11.31567 c 1.37648,-0.4508 4.09824,-2.02325 3.25149,-3.47402 -1.58479,1.05332 -4.44747,-0.33986 -2.18883,-1.82711 2.59863,-0.48724 2.85687,-3.13324 -0.11741,-2.76721 -2.82624,0.0391 -5.6179,-0.50147 -8.38776,-0.8297 -2.3562,2.738 0.0806,7.24704 2.87885,8.75879 1.33898,0.87757 3.12749,0.59912 4.56366,0.13925 z m 60.85946,-24.43071 c 3.08816,-1.28399 7.02052,-0.72606 9.6635,-2.83591 1.74997,-2.00422 0.98191,-5.90991 -1.27261,-7.18139 -4.71469,0.52649 -9.36343,2.35078 -13.3666,4.88387 -2.20714,2.33698 0.59446,2.35097 2.3339,1.42417 2.3212,0.8019 -0.59827,3.06694 -1.88294,3.52474 0.79603,1.3262 3.23148,0.57303 4.52475,0.18452 z m -34.88759,-18.16596 c 1.34183,-2.18439 0.54681,-5.2033 0.73483,-7.70445 0.6901,-3.38373 -2.04447,-2.4797 -3.91866,-1.24186 -0.428,2.51077 -0.90877,5.64688 0.0226,8.11391 0.62634,0.95019 2.22621,1.8337 3.16121,0.8324 z m 5.51642,0.18303 c 2.71994,-1.64495 1.4319,-5.53527 1.39181,-8.19432 -0.26584,-1.60463 -4.506607,-3.29749 -4.028407,-0.89667 0.37348,2.97674 -1.016393,6.58686 0.86413,9.10126 0.56629,0.31897 1.22075,0.38004 1.772467,-0.0103 z m -10.67264,-10.74271 c 3.34817,-1.02557 6.92109,-3.45607 10.37518,-1.22203 2.86876,1.66451 7.04189,2.35746 9.19493,-0.78559 3.73356,-3.38933 1.01733,-9.53632 -2.85959,-11.46789 -2.55207,2.92656 -6.27416,4.86184 -10.22806,4.22258 -3.83544,0.64083 -7.25148,-1.77625 -9.81506,-4.22265 -3.26021,2.32473 -6.0045,7.36325 -2.94997,10.99302 1.50753,1.85965 3.80773,3.40361 6.28257,2.48256 z m -15.70352,-14.69815 c 9.24277,-1.90943 15.883,-11.38604 14.83886,-20.72074 -0.50787,-10.14269 -10.35847,-18.95872 -20.59179,-17.38725 -9.35162,1.15266 -16.98793,10.51645 -16.03308,19.95935 -0.18428,10.32634 9.70027,19.66461 20.07496,18.38859 0.58653,0.041 1.14473,-0.11498 1.71105,-0.23995 z m -7.47842,-13.07906 c -4.59665,-0.68421 -6.13411,-7.63177 -2.03689,-10.01954 3.61826,-2.8149 9.5157,0.47592 8.87248,5.0616 -0.0155,3.32619 -3.77992,5.5643 -6.83559,4.95794 z m 3.66993,-6.99397 c 1.74672,-1.81812 -2.3757,-1.95994 -1.04414,0.12722 0.23793,0.37229 0.83215,0.17301 1.04414,-0.12722 z m 54.14242,20.26419 c 10.0109,-0.63631 17.75111,-10.68928 16.69988,-20.50866 -0.27593,-6.94683 -4.65211,-13.53149 -10.9963,-16.38323 -8.18114,3.34524 -16.2402,6.99578 -24.2051,10.82566 -2.30311,4.225 -1.66268,9.58517 -0.26371,14.04805 2.85468,7.44838 10.63164,13.08682 18.76523,12.01818 z M -83.18155,161.9426 c -4.13556,-0.90371 -5.77745,-6.81868 -2.24046,-9.43807 3.26093,-3.29506 10.04329,-0.34365 9.38363,4.4343 -0.0916,3.4239 -3.84235,6.14197 -7.14317,5.00377 z m 3.54507,-6.689 c 1.63805,-2.67308 -2.9678,-0.87095 -0.29509,0.25494 z"
         id="path11" /><path
         style="fill:#e3b01a;fill-opacity:1;stroke-width:1.22803"
         d="m -164.68593,254.68114 c 0,0 -0.19488,-28.04726 0.0241,-42.06245 0.47861,-14.42601 3.08204,-28.71265 4.54635,-43.05828 0.0616,-3.08903 1.47724,-6.33595 0.682,-9.30438 -2.56016,-3.71075 -6.70534,-6.38811 -10.80357,-8.04547 -4.96505,-2.62853 -4.97348,-8.78667 -3.14011,-13.39458 1.29549,-4.54918 4.83891,-9.86396 10.26939,-8.51535 3.78231,0.45073 7.61619,2.16927 8.0473,6.4416 0.31506,1.23691 1.91909,5.51815 3.36629,3.0836 5.03427,-6.26158 11.8777,-10.99433 19.6995,-12.99162 8.63554,-2.33638 17.4907,-4.24625 26.43586,-4.76473 8.170663,-0.22498 16.361625,0.12207 24.353704,1.96374 10.940002,1.90471 22.150077,4.79004 29.464576,13.77619 1.01864,1.81239 4.398696,4.25454 5.040376,1.02482 0.754803,-2.77885 1.30363,-6.09183 4.477753,-7.00692 3.037233,-1.41811 6.425713,-1.97729 9.418236,-0.26501 4.582806,4.18952 6.679505,10.506 5.232982,16.58364 -2.243193,5.6513 -9.280035,4.93534 -12.357528,9.94587 -2.339773,1.46531 -2.211687,4.42463 -1.869267,6.73349 1.72568,15.73444 3.980443,31.43212 4.940756,47.2367 0.118557,13.8651 -0.04339,44.1907 -0.04339,44.1907 l -0.28729,0.43076 c 0,0 -0.153086,0.29257 -0.827973,0.29332 -6.346072,0.007 -40.125434,-0.051 -57.695068,-0.0729 11.891685,-5.33353 24.84516,-7.31194 37.247262,-11.02962 6.571989,-2.3287 13.178415,-4.56198 19.731114,-6.94382 0.4417,-9.00857 0.30544,-18.05864 0.1756,-27.0731 -1.331693,-17.17025 -3.244996,-34.30828 -5.713616,-51.35052 -0.513453,-2.51248 -0.895103,-5.19427 -1.936083,-7.50454 -2.485753,1.0816 -4.990396,2.12066 -7.446889,3.26819 -0.53043,7.44588 -4.225466,14.87981 -10.925732,18.57063 -7.002309,4.2656 -16.213048,3.18945 -22.655577,-1.64803 -2.982683,-1.18951 -1.61451,1.65679 0.24598,2.50175 3.139826,3.37795 4.898646,8.82481 1.799733,12.80911 -1.782023,2.52993 -4.682606,4.10455 -7.753059,4.41138 0.0197,3.46119 0.69405,8.24227 -3.377613,9.70873 -2.081143,1.08818 -4.228057,-1.15933 -6.240337,0.31416 -3.75602,0.61106 -6.51877,-3.40196 -5.65604,-6.86941 0.7515,-2.83542 -0.58169,-3.57404 -3.10583,-3.84734 -3.58739,-1.26937 -6.26286,-4.60356 -6.63284,-8.4084 -5.73144,0.70286 -11.33589,3.07855 -16.93036,4.70799 -7.54968,2.61501 -15.44718,4.73144 -22.32164,8.88163 -2.111,2.00492 -5.43722,3.54249 -5.02781,6.98842 -1.2159,12.62933 -0.47092,25.34679 -0.77211,38.01638 -0.0789,4.85276 0.0616,9.7302 -0.15046,14.56798 -1.77273,0 -1.52867,-2.29431 -1.52867,-2.29431 z m 62.29346,-54.43529 c 1.34183,-2.18438 0.54681,-5.20328 0.73484,-7.70441 0.69008,-3.3837 -2.04441,-2.4798 -3.91863,-1.24192 -0.4281,2.51071 -0.90877,5.64689 0.0226,8.11392 0.62634,0.9502 2.22621,1.83372 3.16122,0.83241 z m 5.516416,0.18303 c 2.719943,-1.64495 1.4319,-5.53527 1.39181,-8.19432 -0.26583,-1.60462 -4.506543,-3.29747 -4.028403,-0.89672 0.37349,2.97675 -1.016393,6.5869 0.86413,9.10131 0.56629,0.31897 1.22075,0.38003 1.772463,-0.0103 z m -10.672636,-10.74271 c 3.34816,-1.02555 6.92106,-3.45606 10.375126,-1.22205 2.868773,1.6645 7.041916,2.3575 9.194969,-0.78556 3.733573,-3.38932 1.01735,-9.53633 -2.859573,-11.4679 -2.552073,2.92656 -6.274156,4.86184 -10.228042,4.22258 -3.83545,0.64083 -7.2515,-1.77624 -9.81508,-4.22265 -3.26021,2.32473 -6.00449,7.36323 -2.94998,10.993 1.50753,1.85966 3.80773,3.40363 6.28258,2.48258 z m -15.70352,-14.69815 c 9.24274,-1.90942 15.88298,-11.386 14.83886,-20.72068 -0.50783,-10.1427 -10.35844,-18.95877 -20.59178,-17.38732 -9.35161,1.15266 -16.98792,10.51643 -16.03309,19.95933 -0.1843,10.32633 9.70022,19.66462 20.07491,18.38862 0.58654,0.041 1.14477,-0.11497 1.7111,-0.23995 z m -7.47842,-13.07906 c -4.59665,-0.68421 -6.13411,-7.63176 -2.03689,-10.01954 3.61825,-2.81489 9.51568,0.4759 8.87248,5.06157 -0.0155,3.3262 -3.77991,5.56433 -6.83559,4.95797 z m 3.66993,-6.99397 c 1.74672,-1.81812 -2.37569,-1.95994 -1.04414,0.12722 0.23793,0.3723 0.83214,0.173 1.04414,-0.12722 z m 54.142423,20.26419 c 10.010882,-0.63631 17.751098,-10.68926 16.699878,-20.50864 -0.27592,-6.94684 -4.652106,-13.53151 -10.996302,-16.38325 -8.181139,3.34524 -16.240198,6.99578 -24.205097,10.82566 -2.303113,4.225 -1.662683,9.58517 -0.26371,14.04805 2.854673,7.44838 10.631642,13.08682 18.765231,12.01818 z M -83.181549,161.9426 c -4.135566,-0.90371 -5.777456,-6.81867 -2.240473,-9.43805 3.260923,-3.29508 10.043292,-0.34369 9.383642,4.43426 -0.0916,3.42391 -3.842336,6.14199 -7.143169,5.00379 z m 3.545073,-6.689 c 1.638033,-2.67308 -2.967803,-0.87095 -0.29509,0.25494 z m 39.413825,0.31165 c 2.735263,-3.42908 7.935969,-3.45513 10.486782,-6.90502 0.858661,-1.22711 1.179223,-2.48306 0.817035,-2.86039 -0.312858,-0.32594 -3.190238,1.03632 -3.190238,1.03632 -3.440543,1.75371 -7.339779,2.81199 -10.484682,5.01393 0.15204,1.27677 -0.0509,5.04414 1.201063,4.83847 0.39001,-0.37443 0.78003,-0.74887 1.17004,-1.12331 z m -122.210999,-3.61759 c 1.39452,-0.61263 5.26966,-1.17168 3.79491,-3.3526 -2.86213,-1.66 -6.66089,-0.90003 -9.68893,-1.79456 -1.20973,-1.8601 0.84486,-4.3263 1.34255,-6.30461 0.91337,-2.91249 3.37646,-4.9529 6.13402,-5.83288 1.89166,0.51527 1.5,3.56071 2.32905,5.129 0.69704,1.68638 0.8367,4.7257 2.83815,5.21959 1.71063,-1.96806 0.94345,-3.74196 -0.30974,-5.68306 -0.90765,-2.52548 -1.41933,-5.64822 -4.48794,-6.42094 -3.5962,-1.2975 -8.27232,-0.47736 -9.76185,3.46057 -1.54097,3.96992 -3.85093,9.42451 -0.48513,13.03187 2.05724,1.24507 4.34181,3.16708 6.79924,3.06148 0.49856,-0.17128 0.99711,-0.34257 1.49567,-0.51386 z m 11.80181,-4.03433 c 2.87482,-0.80845 5.89653,-1.79758 7.29094,-4.67344 5.46918,-8.27863 17.33002,-11.1098 26.02096,-6.39013 2.44955,1.39185 4.93867,-1.32252 7.32867,-2.00513 6.79249,-3.28663 13.560786,-6.65733 20.096512,-10.43328 -13.226022,-2.37942 -26.728412,0.4018 -39.624842,3.47321 -10.38265,2.31742 -20.06374,9.26538 -23.96644,19.3746 -1.33923,2.92452 1.49336,0.81678 2.8542,0.65417 z m 17.03044,98.16733 c -4.39116,-2.42957 -8.28705,-7.88848 -5.92025,-13.01822 0.42084,-2.66805 4.39559,-1.49569 4.68357,-3.30128 -0.12338,-6.22391 -0.84725,-12.43121 -0.72699,-18.66186 2.36968,-1.59144 5.65985,-0.76758 8.41566,-1.2839 19.78617,-1.10065 39.575655,-2.30519 59.371339,-3.13494 3.374773,1.44862 6.935096,-2.5548 10.288572,-0.31443 3.264773,2.40802 4.552113,7.68053 2.633263,11.20798 -2.845566,2.57795 -7.030989,2.17982 -10.513742,3.28289 0.0197,7.14086 0.83518,14.25719 0.77379,21.39592 -2.639293,1.58345 -6.248336,0.86323 -9.291182,1.31413 -19.617011,1.01545 -39.22896,2.13767 -58.84061,3.24038 -0.29114,-0.24222 -0.58228,-0.48445 -0.87342,-0.72667 z m 28.05473,-2.58268 c 12.920519,-0.75427 25.866024,-1.21886 38.762769,-2.29947 0.0692,-6.66626 -0.15714,-13.33911 -0.77296,-19.97802 -3.335313,0.87051 -7.918239,-0.708 -7.937439,-4.67828 -0.61402,-3.61293 2.555903,-5.88832 5.420426,-7.25499 1.56016,-1.50869 -3.834076,-0.32894 -5.101296,-0.53702 -19.404201,0.99926 -38.81495,1.94703 -58.2025,3.21836 -0.57614,3.45563 0.13667,7.37344 0.15464,11.00305 0.3671,3.08383 -0.0652,6.54121 0.95909,9.38022 3.46028,0.35808 8.61206,-0.6212 9.86452,3.70468 0.60032,3.07913 -0.73167,6.20931 -3.25741,8.02228 1.24324,0.86519 4.17425,0.023 6.08447,0.16339 4.67523,-0.24807 9.35046,-0.49613 14.02569,-0.7442 z m 7.431963,-4.6851 c -4.693403,-0.30203 -9.232563,-2.49135 -13.948063,-1.18341 -2.47232,-0.32933 -1.89801,-2.83571 -1.7137,-4.57855 -0.53496,-1.8458 -2.73171,-3.66601 -0.18479,-5.13747 1.34553,-1.32704 -0.65637,-5.19875 2.14969,-4.81253 2.97048,0.74672 3.35516,-2.7821 3.06394,-4.9044 0.39875,-1.82629 -0.61575,-4.96812 1.11229,-5.94797 2.6829,-0.37948 1.78318,3.67135 3.12635,4.47108 3.62429,-0.0641 7.231556,-0.0326 10.549109,1.62773 -2.197643,0.61167 -3.492406,-1.48401 -5.585856,-1.09729 -2.939913,-0.30799 -5.598513,1.45688 -7.884163,2.9244 0.27135,2.17844 -0.92689,3.77293 -3.0375,4.43788 -2.57304,-0.60134 -0.84628,2.91747 -1.12647,4.30453 -1.36791,2.60843 1.15331,3.65453 2.10591,0.9333 2.32504,-1.51857 -3.094,-3.06091 -0.4634,-4.6422 3.59168,-0.99623 7.6179,-0.59684 11.274533,0.007 2.208433,1.26526 -1.13282,4.2994 -1.740413,2.93676 2.395793,-0.82544 2.036993,-3.8535 -0.75802,-2.82818 -2.51252,0.20888 -5.49684,-0.26045 -7.64348,1.18995 1.69516,1.70779 4.8039,0.88653 6.84085,1.86397 -1.36847,0.48299 -1.65061,5.73919 -2.08742,2.3399 0.82919,-2.78937 -3.40122,-3.0527 -3.99202,-0.79267 1.02935,2.12477 -2.74325,2.69316 -1.20177,4.10149 6.64747,2.24644 14.162126,4.13801 20.975785,1.59268 2.649073,-1.05701 6.293946,-3.71248 5.122046,-6.92383 0.29241,-3.63508 1.27152,-1.86518 1.35275,0.91115 0.16057,5.91601 -6.399796,8.91437 -11.496082,9.18037 -1.600623,-0.0148 -3.216103,0.16056 -4.810106,0.0267 z m -3.382053,-5.02066 c -0.20956,-0.57244 3.419803,-4.47618 2.082653,-1.21994 -0.21623,0.75443 -1.320083,1.61113 -2.082653,1.21994 z m -5.73432,-0.49664 c -0.10597,-1.08051 3.10889,-4.16798 1.84111,-0.86646 -0.16688,0.71847 -1.17065,1.52099 -1.84111,0.86646 z m 18.807055,-11.70232 c -2.624749,-0.31786 -3.634908,0.0303 -4.073593,-0.22561 0,0 0.257796,-1.32002 0.178667,-2.32822 -0.612794,-1.98898 1.448043,1.84686 2.272803,1.91392 0.837363,-0.3268 4.565816,1.2924 1.622123,0.63991 z m -39.940315,21.24926 c 1.37648,-0.4508 4.09824,-2.02325 3.25149,-3.47402 -1.58478,1.0533 -4.44746,-0.33984 -2.18884,-1.8271 2.5986,-0.48724 2.85691,-3.13324 -0.11738,-2.76721 -2.82625,0.0391 -5.61791,-0.50148 -8.38778,-0.82971 -2.35619,2.738 0.0806,7.24702 2.87884,8.75878 1.33898,0.87758 3.12749,0.59914 4.56367,0.13926 z m 60.859459,-24.43071 c 3.088163,-1.28398 7.020506,-0.72607 9.663499,-2.83591 1.749973,-2.00422 0.981903,-5.90991 -1.27261,-7.18139 -4.714686,0.52648 -9.363432,2.35078 -13.366595,4.88387 -2.207143,2.33698 0.59446,2.35097 2.333893,1.42417 2.321203,0.8019 -0.59827,3.06694 -1.882933,3.52474 0.79604,1.3262 3.231473,0.57303 4.524746,0.18452 z"
         id="path12" /><path
         style="fill:#0bc70b;fill-opacity:1;stroke-width:1.22803"
         d="m -108.02399,217.90834 c -0.0729,-0.0456 -0.14572,-0.0912 -0.21858,-0.13686 -0.0313,-1.40426 -0.0627,-2.80852 -0.094,-4.21278 0.16112,-0.31169 0.32224,-0.62339 0.48334,-0.93509 0.34559,0.0561 0.69118,0.11213 1.03677,0.1682 0.22394,0.21047 0.44788,0.42094 0.67181,0.63142 0.14984,0.66712 0.30682,1.33344 0.4522,2.00105 0,0.47011 0,0.94022 0,1.41033 -0.22283,0.20081 -0.44058,0.40904 -0.66657,0.60524 -0.29606,0.14411 -0.58812,0.29828 -0.88665,0.43614 -0.18659,0.0564 -0.37319,0.11281 -0.55979,0.16922 -0.0728,-0.0456 -0.14569,-0.0913 -0.21853,-0.13687 z"
         id="path13" /><path
         style="fill:#654d0a;fill-opacity:1;stroke-width:1.22803"
         d="m -164.77038,254.60824 c -0.47695,-21.58102 -0.96468,-43.27443 1.97857,-64.71985 1.05485,-9.71114 2.16849,-19.41537 3.40974,-29.10459 -2.6688,-4.12855 -6.89794,-6.83401 -11.36782,-8.59124 -5.01577,-3.11038 -4.29111,-9.92798 -2.28435,-14.63496 1.46047,-4.0137 5.06295,-8.75216 9.90458,-7.37141 3.86162,0.36811 8.13085,2.59706 8.49134,6.88021 0.15732,2.629 2.41944,4.39677 3.85778,1.42741 5.98008,-7.51663 15.07349,-11.67376 24.32402,-13.50178 10.02154,-2.23796 20.25954,-3.98648 30.564306,-3.14014 8.772614,0.24864 17.438554,2.19761 25.908294,4.38582 8.18593,2.18383 15.63799,7.00113 20.70785,13.82451 1.78694,1.19475 2.39133,-2.53379 2.83039,-3.76838 0.95239,-4.92471 6.98796,-6.63335 11.3596,-6.10028 4.78947,1.15559 6.82283,6.63178 7.90021,10.96468 1.33097,4.28467 0.0866,9.74952 -4.50225,11.44838 -3.58646,1.66063 -7.00286,3.6942 -9.29082,7.02623 -1.91317,1.84593 -0.1379,4.79548 -0.24704,7.1349 1.55832,14.13305 3.6249,28.23438 4.50957,42.42753 0.27593,15.63936 0.6776,31.31047 0.0204,46.93695 -1.7052,2.77288 -1.27995,-2.54744 -1.2532,-3.94719 0.002,-20.04626 0.9337,-40.18297 -1.78683,-60.1133 -2.01766,-15.01377 -2.31051,-30.49618 -7.5661,-44.86413 -3.65141,-9.98934 -12.96767,-16.89239 -23.0406,-19.51421 -13.53817,-3.50419 -27.709007,-6.2375 -41.68893,-3.88612 -11.80004,1.98779 -24.72882,3.45458 -34.02382,11.75655 -5.67764,4.93256 -8.8228,11.99224 -10.30347,19.24337 -3.15734,13.09587 -3.78107,26.6309 -5.49869,39.95839 -2.72994,20.63436 -1.61869,41.47007 -1.50672,62.21167 -2.0809,0.0779 -1.1505,-1.06698 -1.40602,-2.36902 z M -41.3316,157.57452 c 2.34081,-2.67628 5.28896,-4.58042 8.55384,-5.98422 3.64491,-0.99031 4.99972,-4.92079 4.36406,-8.34413 -0.70245,-4.35374 -2.17449,-9.85842 -6.82066,-11.40364 -4.16632,-0.68909 -9.86583,1.09733 -10.08188,6.05327 -0.44308,2.3332 -3.31594,4.31765 -1.27144,6.69867 1.05768,3.07972 3.32097,-0.71378 3.66957,-2.30141 0.9755,-2.22181 1.14627,-4.73337 2.22648,-6.903 2.32726,0.58028 0.47085,3.74385 0.1623,5.35306 0.17151,1.4733 -3.42363,5.44422 -0.33914,4.67268 2.50118,-0.23296 5.53699,-1.38161 7.78123,-0.0538 -0.17907,1.85356 -3.58559,1.07821 -5.08033,1.54804 -2.10932,0.23465 -6.23468,0.45624 -5.40087,3.55885 0.22226,2.53406 0.66119,5.39118 1.40126,7.6642 0.33946,0.0277 0.54055,-0.43521 0.83558,-0.55852 z m -117.55667,-0.57147 c 0.43155,-2.84803 1.86933,-5.97898 0.89832,-8.77735 -3.03318,-1.98115 -6.91755,-1.02593 -10.21825,-2.07595 0.33545,-2.17894 3.83956,-1.0944 5.50563,-1.10883 2.73616,1.02361 4.44319,0.45344 2.59764,-2.46592 -0.49393,-2.20627 -2.25183,-4.72557 -1.41835,-6.87495 2.18868,-1.03514 1.44883,3.43521 2.45014,4.71964 0.80841,1.83503 1.19237,4.68896 3.17579,5.46706 1.55247,-1.05466 2.94421,-3.95405 1.05226,-5.55324 -1.58933,-2.74329 -1.38521,-7.00756 -5.16407,-7.86166 -3.27037,-1.25439 -7.67042,-1.23076 -9.78638,2.0153 -2.6637,4.06115 -3.92645,9.26465 -2.5938,14.0105 2.57371,3.91613 8.01843,3.89111 10.90837,7.56665 0.84166,0.4345 2.36363,3.39101 2.5927,0.93875 z m 25.85612,88.58658 c -4.06112,-2.22965 -7.99137,-7.099 -5.90087,-11.90454 0.49152,-2.3577 3.51934,-2.02974 4.61715,-2.84025 0.27398,-6.50248 -0.93214,-13.0353 -0.6334,-19.50709 7.05727,-1.20927 14.42222,-1.10123 21.60507,-1.68012 15.156743,-0.70204 30.29951,-1.89763 45.46721,-2.24426 3.49233,1.37625 7.38724,-2.81725 10.63016,-0.0917 2.48963,2.42735 3.44444,6.77183 1.87463,9.85149 -2.86117,2.39922 -7.00747,1.92473 -10.37709,3.19793 -0.70701,4.95137 0.33719,10.07974 0.34681,15.10053 -0.18218,2.17332 0.9139,5.06421 -0.34213,6.76399 -15.82449,1.42413 -31.735177,1.827 -47.59429,2.83591 -6.37596,0.30937 -12.74886,0.73402 -19.12674,0.97113 l -0.31322,-0.25047 z m 13.64164,-1.22631 c 17.33234,-0.88969 34.72792,-1.74276 52.01764,-2.71351 1.73682,-1.20228 0.55698,-4.10312 0.82112,-5.98883 -0.24608,-4.82496 -0.45448,-9.65193 -0.74213,-14.47468 -3.20107,0.62521 -7.7843,-0.68239 -8.0068,-4.44678 -0.68937,-3.54802 2.27658,-5.95839 5.21121,-7.17081 3.73867,-1.7478 -1.35455,-1.31389 -2.88757,-1.1424 -20.23331,1.23916 -40.50605,1.96759 -60.71505,3.53182 -0.20112,6.56621 0.40984,13.27415 0.92537,19.86988 1.79834,1.53773 4.98419,0.30876 7.2385,1.18476 4.50543,1.49011 3.69153,8.24336 0.2112,10.50183 -2.62563,2.00252 2.92436,0.71418 4.28606,0.9299 l 1.64045,-0.0812 z m -8.99649,-1.01673 c 1.9219,-0.61363 4.80998,-2.54419 4.05771,-4.80307 -1.68016,1.15948 -5.14646,0.40909 -1.83126,-1.09052 2.46588,-0.4264 1.79666,-3.14874 -0.47409,-3.0991 -3.06343,-0.36571 -6.1911,-0.2843 -9.21721,-1.03155 -2.90381,2.24016 -1.06541,7.09241 1.51032,8.93633 1.62466,1.43869 3.92714,2.02256 5.95453,1.08791 z m 61.06815,-24.48339 c 3.2275,-1.4074 7.47387,-0.69156 10.10168,-3.13872 1.1602,-2.36271 0.98315,-6.76607 -1.87323,-7.76729 -4.29487,0.25353 -8.44516,2.2459 -12.32849,4.05958 -1.73321,0.10792 -3.53394,4.69645 -1.05877,3.90846 3.17595,-1.7825 3.18403,0.98892 0.37072,1.84712 -1.13264,1.92605 2.92055,2.13523 4.09767,1.29094 l 0.3852,-0.11164 z m -36.9163,-16.6928 c -4.06605,-0.9299 -3.36105,-5.62797 -3.35166,-8.78408 0.4108,-2.47515 -3.6489,-0.72744 -4.97306,-2.50494 -3.38024,-1.75269 -5.1639,-5.5187 -4.40321,-9.2394 0.39895,-3.82418 4.2439,-5.84151 6.12263,-8.73251 1.66777,-5.96244 9.29769,-7.31877 14.471066,-5.43933 3.014254,0.82835 4.916484,3.55825 6.018304,6.23523 3.23861,2.65568 6.89383,6.18427 6.00127,10.77931 -0.21347,3.55697 -3.58863,6.75597 -7.01587,7.39419 -3.23572,-0.48383 -2.033,2.81666 -2.27799,4.89273 0.8287,3.58232 -3.679414,7.30539 -6.73396,4.58041 -1.29556,0.0308 -2.25073,1.6605 -3.85752,0.81839 z m 1.55947,-1.46143 c 2.06753,-2.04733 0.84656,-5.61355 1.02653,-8.28143 0.80282,-3.12839 -2.18891,-2.82898 -3.78927,-1.17032 -1.40289,2.03386 -0.37036,4.94549 -0.5943,7.33191 0.36826,1.19635 2.03562,3.06737 3.35704,2.11984 z m 6.029666,-0.29165 c 2.585074,-1.73705 0.86624,-5.39876 1.35111,-8.01613 -0.26267,-1.69322 -3.172843,-3.01869 -4.306573,-2.08554 -0.27985,2.93821 -0.30859,6.14501 -0.01,9.07006 0.35174,1.15903 1.99565,2.07479 2.965493,1.03161 z m -10.930816,-10.15306 c 3.24977,-1.1653 6.64057,-3.25514 10.113683,-1.48413 2.741533,1.614 6.488677,2.74115 8.985047,0.0524 4.07265,-2.68491 3.29311,-8.83267 -0.25582,-11.62117 -1.70253,-2.57878 -3.27972,-1.08259 -4.71877,0.72916 -5.229347,3.58978 -13.19186,2.8366 -17.15004,-2.31221 -3.43856,2.03461 -6.59043,6.90573 -4.19473,10.94069 1.38476,2.4172 4.27658,4.79182 7.22063,3.69527 z m -22.98632,-13.68642 c -9.97628,-1.93327 -17.23865,-12.23478 -16.12585,-22.27254 0.50887,-10.31276 9.74733,-19.64734 20.28349,-19.06113 11.45311,-0.24536 20.9687,11.34865 19.52713,22.51156 -0.36225,10.58777 -10.23856,20.0256 -20.97132,19.02233 -0.91445,-0.003 -1.82125,0.0458 -2.71345,-0.20022 z m 7.12766,-1.45334 c 9.25988,-1.67885 16.00191,-11.05445 15.11982,-20.36233 -0.16699,-10.09283 -9.74596,-19.24699 -19.97382,-18.06013 -10.07071,0.52107 -17.90689,10.66821 -16.89188,20.5201 0.0603,9.99959 9.49546,19.17308 19.63489,18.09582 0.71877,0.0621 1.40973,-0.0443 2.11099,-0.19346 z m -7.43072,-13.42636 c -4.45118,-0.72686 -5.74537,-7.32657 -1.83077,-9.63777 3.96851,-3.18277 10.45197,1.53783 8.35166,6.25808 -0.88825,2.47408 -3.94728,4.21688 -6.52089,3.37969 z m 4.05496,-6.61557 c 1.9749,-2.19344 -3.31568,-2.21681 -1.30418,0.0374 0.34617,0.55727 0.98175,0.52552 1.30418,-0.0374 z m 49.03749,21.54989 c -7.21388,-1.18879 -13.29615,-6.95366 -15.7498,-13.70978 -1.211954,-4.15041 -1.206344,-8.67048 -0.34595,-12.88102 1.02978,-3.55913 5.40192,-3.75558 8.14233,-5.46515 6.15609,-2.59796 12.16712,-5.91031 18.55889,-7.72868 4.65435,1.23447 8.25503,5.41314 10.43635,9.60565 4.35365,8.40834 2.19621,19.64023 -5.20219,25.64754 -4.2375,3.96327 -10.18025,5.33246 -15.83963,4.53144 z m 6.49631,-1.51076 c 10.27167,-1.72222 17.10892,-13.0504 14.94849,-23.03039 -1.10685,-5.99675 -5.24205,-11.53128 -10.93119,-13.84014 -8.16345,3.31574 -16.33501,6.73993 -24.13165,10.85042 -2.2113,2.66791 -1.71986,6.64051 -1.50319,9.88697 1.26744,9.34243 10.13213,17.43973 19.79063,16.34373 0.62106,0.063 1.21846,-0.12274 1.82691,-0.21059 z m -11.53616,-13.25213 c -4.39597,-0.5265 -5.9119,-6.7237 -2.3979,-9.30796 3.18869,-3.08882 9.69403,-0.38982 8.94727,4.30987 0.30528,3.08293 -3.64806,5.92171 -6.54937,4.99809 z m 3.64311,-6.65242 c 1.35576,-1.68518 -2.73785,-2.30481 -1.58252,-0.0867 0.20789,0.52644 1.2959,0.57289 1.58252,0.0867 z"
         id="path14" /><path
         style="fill:#4f3d09;fill-opacity:1;stroke-width:1.22803"
         d="m -164.80301,252.20274 c -0.17884,-13.30827 -0.24836,-26.63311 0.0223,-39.93754 1.01929,-17.04763 3.45787,-33.97651 5.3982,-50.93605 -0.71569,-2.42636 -3.19463,-4.44865 -5.26104,-6.01736 -3.33456,-2.30235 -8.2757,-3.12069 -9.47946,-7.58509 -1.21976,-5.96458 1.11927,-12.64484 5.69624,-16.66519 3.47575,-1.82703 8.01871,-0.68781 11.1992,1.32279 2.97941,1.7336 1.65606,6.44093 4.5135,7.96245 2.74021,-2.02186 4.68106,-5.41594 7.68433,-7.3871 9.5376,-7.38312 21.96685,-8.53704 33.43553,-10.66758 6.47408,-0.72248 13.05332,-0.35718 19.55595,-0.26174 9.09228,1.25789 18.3087,2.6898 26.9323,5.93307 6.41865,2.45573 11.77139,7.02581 16.02842,12.2968 1.79406,0.6731 2.25539,-2.63102 2.70825,-3.9016 0.90805,-5.08518 7.23591,-6.7162 11.67397,-6.01381 4.76598,1.53292 6.62144,7.13966 7.63353,11.58453 0.9896,4.043 -0.30378,8.91208 -4.49218,10.55914 -3.74818,1.66265 -7.25139,3.83053 -9.62629,7.26306 -1.64828,2.25837 0.0477,5.44458 -0.003,8.07662 1.653,15.42461 4.20354,30.79403 4.5966,46.32247 -0.10982,13.91025 0.27933,27.84184 -0.14948,41.73847 -1.34008,3.1047 -1.29375,-1.94246 -1.13683,-3.28737 -0.12202,-19.72562 0.98777,-39.54211 -1.67305,-59.15807 -2.09537,-15.78039 -2.29339,-32.11692 -8.05913,-47.14357 -3.83202,-9.51798 -12.85629,-16.07192 -22.59774,-18.61799 -9.06707,-2.47041 -18.41108,-4.26657 -27.80021,-4.74342 -11.22313,-0.27396 -22.39317,1.83322 -33.20819,4.67741 -11.09394,2.88974 -21.03446,11.24076 -23.99827,22.56033 -4.40872,15.46932 -5.01596,31.65612 -7.01854,47.53775 -2.32285,18.77413 -1.19753,37.7072 -1.31025,56.56582 0.0706,1.28122 0.15355,2.06071 -0.0512,2.44821 -0.20888,0.39538 -0.66324,0.28215 -0.91521,-0.0851 -0.26541,-0.38689 -0.21512,-1.24476 -0.24606,-2.46694 l -0.0519,-1.97335 z m 124.7266,-95.78733 c 2.73378,-3.62012 7.9229,-3.93755 10.75917,-7.26533 2.35306,-4.76703 0.33516,-10.56549 -2.24301,-14.83 -3.12698,-4.33886 -10.70254,-3.1719 -13.21788,1.16566 -0.24334,2.49202 -1.69687,4.65899 -2.61019,6.79026 -0.1063,1.64015 1.6945,5.26926 3.18713,2.66316 2.04896,-2.82797 2.171,-6.5368 3.66588,-9.56724 2.23325,1.51736 -0.23636,4.58158 -0.4802,6.65149 -0.8622,1.78089 -2.31274,4.68569 0.98819,3.35947 2.228,-0.22551 5.03936,-1.21509 6.96411,0.11144 -0.97418,1.61127 -4.47796,0.96189 -6.46881,1.49864 -2.23792,0.0298 -5.20547,1.45785 -4.03919,4.15725 0.32072,2.33924 0.72729,4.68643 1.25941,6.9827 0.95681,0.0389 1.47685,-1.236 2.23539,-1.7175 z m -118.71274,0.40158 c 0.40679,-2.81015 1.85178,-5.93418 0.81022,-8.67371 -3.05378,-1.93991 -6.91887,-1.06628 -10.2293,-2.10357 0.87629,-1.93416 3.99688,-0.98002 5.81494,-0.85777 2.80536,1.19209 4.05563,0.0498 2.35872,-2.62945 -0.46374,-2.24525 -2.16192,-4.58644 -1.47546,-6.87612 2.20227,-0.71494 1.36641,3.65285 2.41774,4.9487 0.86706,1.81124 1.24359,4.70873 3.2899,5.40749 1.2696,-1.22417 2.94087,-3.78872 1.25469,-5.36818 -1.80926,-2.72181 -1.43009,-7.12773 -5.22413,-8.15171 -3.64641,-1.68232 -8.77526,-1.17238 -10.65521,2.8465 -2.20429,4.06242 -3.58329,9.165 -1.73195,13.58967 2.63068,3.49131 7.69738,3.50535 10.42055,6.98891 0.94755,0.58892 2.66398,3.65125 2.94929,0.87924 z m 25.91006,88.79336 c -4.03512,-2.23411 -8.08257,-6.95518 -6.04955,-11.79037 0.33443,-2.91748 4.20517,-1.53321 4.82995,-3.41144 -0.13185,-6.35179 -0.9724,-12.76236 -0.72952,-19.07318 10.0124,-1.34853 20.25167,-1.40968 30.36042,-2.11646 11.68539,-0.51951 23.37141,-1.4588 35.06181,-1.60735 2.65744,0.30264 5.18672,0.18056 7.65055,-0.97435 2.58824,-0.66167 5.36081,0.4738 6.12745,3.17755 1.3043,2.60978 1.9673,7.49284 -1.68712,8.43744 -2.7311,1.37672 -6.48913,0.59137 -8.73912,2.63444 -0.10694,7.03098 0.87022,14.03217 0.72742,21.06415 -6.36014,1.24858 -13.05825,1.00049 -19.55622,1.54155 -15.80794,0.83642 -31.62439,1.56941 -47.42239,2.55916 l -0.31731,-0.244 z m 16.84025,-1.32798 c 16.23978,-0.75912 32.46681,-1.77692 48.70763,-2.51167 1.96862,-2.0108 0.40005,-5.37268 0.71094,-7.93024 -0.21688,-4.30014 -0.29193,-8.6086 -0.62938,-12.90167 -3.32144,1.04559 -8.16813,-0.71506 -8.00821,-4.68952 -0.59377,-4.13073 3.70692,-5.75209 6.5472,-7.48936 0.26086,-1.33323 -3.83843,-0.14435 -5.24495,-0.36781 -19.90782,1.16851 -39.83636,2.04134 -59.72532,3.4959 -0.4007,6.52939 0.36228,13.35771 0.87724,19.97197 1.5409,1.40263 4.47071,0.61601 6.56604,1.03671 2.94188,0.29148 4.11112,3.43082 3.56821,6.03593 0.0179,2.57436 -2.46,4.08021 -3.89764,5.83175 3.50994,-0.14927 7.0191,-0.31501 10.52824,-0.48199 z m -12.63701,-0.72745 c 2.10218,-0.71476 4.80697,-2.35105 4.54936,-4.87404 -2.01555,0.79834 -5.14244,0.13752 -1.7593,-1.33275 2.9084,-0.66425 0.77819,-3.49163 -1.33995,-3.18345 -3.00164,-0.1275 -5.97607,-0.50187 -8.93627,-0.80476 -2.97774,3.40139 0.16145,8.99312 4.02067,10.23395 1.06647,0.38832 2.40673,0.40551 3.46549,-0.0389 z m 61.42077,-24.63113 c 3.26762,-1.33368 7.38378,-0.71077 10.11503,-3.13166 1.18166,-2.47194 0.95586,-6.77837 -1.91108,-7.94545 -4.60123,0.32512 -8.91741,2.47983 -13.04105,4.44649 -1.75512,0.71702 -2.53311,5.19151 0.24108,3.48922 3.08142,-1.47033 1.94326,1.37174 -0.20038,1.87605 -1.66124,1.74223 2.55243,2.50546 3.80701,1.53762 0.3298,-0.0908 0.65959,-0.18151 0.98939,-0.27227 z m -36.99376,-16.83051 c -3.29896,-0.72658 -3.53405,-4.3658 -3.32889,-7.11161 1.0016,-3.53207 -1.70888,-2.76053 -3.98839,-3.65615 -4.39655,-1.67469 -6.77129,-6.8923 -4.92686,-11.24713 1.0774,-2.93287 3.98606,-4.53467 5.62903,-6.95408 1.57157,-6.13562 9.45661,-7.54196 14.68478,-5.52289 3.1668,0.77893 4.59968,3.90174 6.02331,6.42508 3.9603,2.80042 7.637,7.90287 5.14497,12.82382 -1.65138,2.94322 -4.67527,5.29282 -8.19818,5.27036 -1.16926,1.2384 0.15173,4.26674 -0.51442,6.14696 -0.24614,2.99964 -4.1485,5.38893 -6.57087,3.01858 -1.33797,0.021 -2.40618,1.70506 -3.95448,0.80706 z m 1.68374,-1.38664 c 2.01082,-2.07464 0.7464,-5.5965 0.97796,-8.25217 0.67943,-3.08488 -2.00577,-2.959 -3.7443,-1.34689 -1.57636,1.74064 -0.60086,4.75698 -0.73643,6.99968 -0.0431,1.57401 1.96948,3.66425 3.50277,2.59938 z m 5.25071,0.1422 c 3.35139,-1.16473 1.76943,-5.17477 2.05106,-7.85064 0.40988,-2.21044 -2.92234,-3.49592 -4.38628,-2.84454 -0.14489,3.15189 -0.52776,6.49065 0.0881,9.62755 0.61167,0.62242 1.29801,1.43778 2.24712,1.06763 z m -10.84745,-10.41279 c 3.53933,-0.95544 7.16159,-3.58056 10.85485,-1.5055 2.87709,1.70594 6.90562,2.53485 9.26976,-0.4646 3.93774,-2.89841 2.47291,-8.9331 -0.93955,-11.66104 -1.33983,-1.65257 -2.86164,-1.38482 -3.7661,0.39429 -4.95401,4.41345 -13.63696,3.80188 -17.69987,-1.57165 -2.34916,0.838 -4.02522,3.59474 -5.07381,5.90443 -1.00279,4.20397 2.36067,9.14935 6.79113,9.02385 l 0.39153,-0.0832 z m -21.62309,-13.79564 c -10.81467,-1.54053 -18.63781,-13.10713 -16.64087,-23.75587 1.07183,-10.10187 10.67854,-18.57771 20.9499,-17.52487 8.47574,0.15353 15.75953,7.09307 17.96956,15.00578 1.94039,7.74875 -0.35402,16.64176 -6.66218,21.79981 -4.28224,3.88017 -9.99171,5.03946 -15.61641,4.47515 z m 6.40978,-1.45255 c 8.86669,-1.68437 15.52748,-10.36293 15.21038,-19.34651 0.35222,-10.78094 -9.9256,-20.80456 -20.80905,-19.17651 -9.7329,1.02885 -17.34365,10.88423 -16.20986,20.55169 -0.1332,10.31102 10.02808,19.60955 20.36278,18.13708 0.48954,0.0187 0.96528,-0.0931 1.44575,-0.16575 z m -7.81904,-13.68372 c -4.65751,-1.04539 -5.06014,-8.17241 -0.65579,-9.92364 4.07612,-2.03473 9.33723,2.45889 7.40509,6.73722 -0.83988,2.66649 -4.15826,4.1709 -6.7493,3.18642 z m 4.14661,-6.08598 c 2.32866,-1.51051 -1.89492,-3.62613 -1.52357,-0.68086 0.41935,0.47661 0.8055,1.09085 1.52357,0.68086 z m 49.91723,21.21965 c -7.79525,-0.93635 -14.52253,-7.33564 -16.62897,-14.7873 -0.74273,-4.49664 -1.38082,-9.67533 1.00527,-13.76231 4.37358,-2.57447 9.42087,-4.37468 14.06406,-6.62398 3.96707,-1.48129 7.73581,-3.88469 11.8945,-4.61639 9.89396,4.03175 14.8207,16.59931 10.93487,26.42815 -2.9358,8.43339 -11.79126,14.6433 -20.82749,13.41123 l -0.3978,-0.0444 z m 6.16111,-1.50985 c 10.63166,-1.99487 17.32079,-14.09753 14.42854,-24.30618 -1.43613,-5.42833 -5.34414,-10.62251 -10.71714,-12.51607 -7.71915,2.78035 -15.25229,6.35667 -22.6767,9.9156 -3.95287,1.55512 -3.15175,6.5758 -3.13654,10.01304 0.93039,9.78691 10.29089,18.50614 20.36921,17.12267 0.59019,0.0306 1.15752,-0.12466 1.73263,-0.22906 z m -12.1515,-13.40647 c -4.31816,-0.77279 -5.45378,-6.90214 -1.86949,-9.31002 3.40494,-2.92814 9.45256,0.11938 8.70878,4.69011 -0.0832,3.21907 -3.84346,5.5807 -6.83929,4.61991 z m 3.85773,-6.36914 c 1.82267,-1.64972 -2.79669,-2.7348 -1.48864,-0.23488 0.15733,0.6526 1.12469,0.74617 1.48864,0.23488 z"
         id="path17" /><path
         d="m -100.68615,232.62984 c 2.1913,-1.2052 0.46964,-5.58047 -1.81652,-3.58112 -1.80142,1.32366 -0.54597,5.50935 1.81652,3.58112 z m -5.69855,-0.6916 c 1.38134,-0.9005 0.6578,-4.48583 -1.19926,-2.94609 -1.1124,0.95437 -0.59677,4.64921 1.19926,2.94609 z m -4.34561,-0.41133 c 1.29867,-1.9466 -1.15358,-4.39272 -1.22825,-1.10734 -0.17767,0.55522 0.6537,1.90895 1.22825,1.10734 z"
         style="fill:#f9f9f9;fill-opacity:1;stroke-width:1.22803"
         id="path18" /></g></g></svg>
