<svg xmlns="http://www.w3.org/2000/svg" xml:space="preserve" viewBox="0 0 512 512"><path d="M387 117.5 265.7 104l-148.2 13.5L104 252.2 117.5 387l134.7 16.8L387 387l13.5-138.1z" style="fill:#fff" transform="translate(3.75 3.75)"/><path d="M176.55 330.35c-10.1-6.8-17-16.7-20.9-29.9l23.4-9.6c2.1 8.1 5.8 14.3 11.1 18.8 5.3 4.4 11.7 6.6 19.1 6.6 7.6 0 14.2-2.3 19.7-7s8.3-10.6 8.3-17.8q0-10.95-8.7-18c-5.8-4.6-13.1-7-21.8-7h-13.5v-23.1h12.1c7.5 0 13.8-2 18.9-6.1 5.1-4 7.7-9.6 7.7-16.6q0-9.45-6.9-15c-4.6-3.7-10.4-5.6-17.4-5.6-6.9 0-12.3 1.8-16.4 5.5-4 3.7-7 8.2-8.8 13.5l-23.1-9.6c3.1-8.7 8.7-16.4 16.9-23 8.3-6.6 18.8-10 31.6-10 9.5 0 18 1.8 25.5 5.5s13.5 8.8 17.8 15.2c4.3 6.5 6.4 13.8 6.4 21.9 0 8.3-2 15.2-6 21q-6 8.55-14.7 13.2v1.4c7.6 3.2 13.9 8.1 18.8 14.7s7.3 14.4 7.3 23.6-2.3 17.3-7 24.5c-4.6 7.2-11.1 12.8-19.2 16.9-8.2 4.1-17.4 6.2-27.6 6.2-11.6 0-22.5-3.4-32.6-10.2m143.4-116-25.5 18.6-12.8-19.5 46-33.2h17.7v156.7h-25.3v-122.6z" style="fill:#1a73e8"/><path d="M387 508.2 508.2 387l-60.6-27-60.6 27-27 60.6z" style="fill:#ea4335" transform="translate(3.75 3.75)"/><path d="m90.6 447.6 26.9 60.6H387V387H117.5z" style="fill:#34a853" transform="translate(3.75 3.75)"/><path d="M36.7-3.8C14.3-3.8-3.8 14.3-3.8 36.7V387l60.6 26.9 60.6-26.9V117.5H387l26.9-60.6L387-3.8z" style="fill:#4285f4" transform="translate(3.75 3.75)"/><path d="M-3.8 387v80.8c0 22.3 18.1 40.4 40.4 40.4h80.8V387z" style="fill:#188038" transform="translate(3.75 3.75)"/><path d="M387 117.5V387h121.3V117.5l-60.6-26.9z" style="fill:#fbbc04" transform="translate(3.75 3.75)"/><path d="M508.2 117.5V36.7c0-22.3-18.1-40.4-40.4-40.4H387v121.3h121.2z" style="fill:#1967d2" transform="translate(3.75 3.75)"/></svg>