<svg xmlns="http://www.w3.org/2000/svg" xml:space="preserve" viewBox="37.3 32.9 75.4 84.2"><path d="M100.5 32.9h-51c-6.7 0-12.2 5.5-12.2 12.2s5.5 12.2 12.2 12.2h51z" style="fill:#4caf50"/><circle cx="100.5" cy="45.1" r="12.2" style="fill:#2e7d32"/><path d="M69.5 63.9h-20v24.4h19.9c6.7 0 12.2-5.5 12.2-12.2s-5.4-12.2-12.1-12.2" style="fill:#fbc02d"/><path d="M37.3 104.9c0 6.7 5.5 12.2 12.2 12.2s12.2-5.5 12.2-12.2V76.1H37.3z" style="fill:#e53935"/><path d="M49.5 63.9c-6.7 0-12.2 5.5-12.2 12.2s5.5 12.2 12.2 12.2h12.2V76.1c0-6.7-5.5-12.2-12.2-12.2" style="fill:#fa7b17"/><path d="M112.7 76.1c0-6.7-5.5-12.2-12.2-12.2s-12.2 5.5-12.2 12.2v28.8c0 6.7 5.5 12.2 12.2 12.2s12.2-5.5 12.2-12.2z" style="fill:#1e88e5"/></svg>