<svg xmlns="http://www.w3.org/2000/svg" xmlns:xlink="http://www.w3.org/1999/xlink" version="1.1" id="Layer_1" x="0px" y="0px" style="enable-background:new 0 0 26 22;" xml:space="preserve" viewBox="4.67 1.67 16.69 17.61">
<style type="text/css">
	.st0{display:none;fill:#070707;}
	.st1{fill:#B2A3FF;}
	.st2{display:none;fill:#FFFFFF;}
</style>
<rect class="st0" width="26" height="22.09"/>
<g>
	<path class="st1" d="M20.57,15.91c-0.46,0-0.84,0.38-0.84,0.84c0,0.46-0.38,0.84-0.84,0.84c-0.46,0-0.84-0.38-0.84-0.84v-4.21   c0.08-0.23,0.15-0.46,0.15-0.69c0,0,0-4.74,0-4.9c0-2.91-2.3-5.28-5.2-5.28S7.72,4.05,7.72,6.96c0,0.15,0,4.9,0,4.9   c0,0.31,0.08,0.61,0.31,0.92v3.98c0,0.46-0.38,0.84-0.84,0.84c-0.46,0-0.84-0.38-0.84-0.84c0-0.46-0.38-0.84-0.84-0.84   c-0.46,0-0.84,0.38-0.84,0.84c0,1.3,1.07,2.37,2.37,2.52c0.08,0,0.08,0,0.15,0c0.08,0,0.08,0,0.15,0c1.3-0.08,2.37-1.15,2.37-2.52   v-3.29c0,0-0.08-0.69,0.54-0.69c0.61,0,0.54,0.69,0.54,0.69v3.29c0,0.46,0.38,0.84,0.84,0.84c0.46,0,0.84-0.38,0.84-0.84v-3.29   c0,0-0.15-0.69,0.54-0.69c0.69,0,0.54,0.69,0.54,0.69v3.29c0,0.46,0.38,0.84,0.84,0.84c0.46,0,0.84-0.38,0.84-0.84v-3.29   c0,0-0.08-0.69,0.54-0.69c0.61,0,0.54,0.69,0.54,0.69v3.29c0,1.3,1.07,2.37,2.37,2.52c0.08,0,0.08,0,0.15,0s0.08,0,0.15,0   c1.3-0.08,2.37-1.15,2.37-2.52C21.41,16.29,21.03,15.91,20.57,15.91z M10.24,11.16c-0.46,0-0.84-0.46-0.84-1.07   c0-0.61,0.38-1.07,0.84-1.07c0.46,0,0.84,0.46,0.84,1.07C11.08,10.7,10.7,11.16,10.24,11.16z M15.83,11.16   c-0.46,0-0.84-0.46-0.84-1.07c0-0.61,0.38-1.07,0.84-1.07c0.46,0,0.84,0.46,0.84,1.07C16.67,10.7,16.29,11.16,15.83,11.16z"/>
</g>
<rect x="-2" class="st2" width="32" height="22"/>
</svg>