<svg xmlns="http://www.w3.org/2000/svg" xml:space="preserve" id="logo_x5F_contacts_x5F_192px_1_" x="0" y="0" version="1.1" viewBox="0 0 512 512"><style>.st1{fill:#185abc}.st2{fill:#fff}</style><g id="art_layer"><circle id="bg_circle" cx="256" cy="256" r="256" style="fill:#1a73e8"/><path id="body_shadow" d="M340.4 384H174.6c-20.1 0-37.8-12.1-37.8-31.9v14.5c0 19.9 17.7 34.9 37.8 34.9h165.8c20.1 0 37.8-15.1 37.8-34.9v-14.5c0 19.8-17.8 31.9-37.8 31.9" class="st1"/><path id="head_shadow" d="M256 232.8c-30-.1-53.7-20.9-55.3-49.5V195c0 29.6 24.8 55.3 55.3 55.3s55.3-25.7 55.3-55.3v-11.7c-2.4 28.8-25.3 49.6-55.3 49.5" class="st1"/><g id="subject"><path id="body" d="M256 267.7c-58.4 0-119.3 28.5-119.3 66.9V352c0 19.9 16.3 34.9 36.4 34.9h168.7c20.1 0 36.4-15.1 36.4-34.9v-17.4c0-38.6-63.8-66.9-122.2-66.9" class="st2"/><circle id="head" cx="256" cy="180.3" r="55.3" class="st2"/></g></g></svg>