<svg xmlns="http://www.w3.org/2000/svg" xml:space="preserve" viewBox="25.82 33.61 98.39 82.75"><path d="M54.8 94.5c-3.4-3.5-6.3-7.4-9.4-11.1L28 62.7c-3-3.5-2.9-5.1.3-8.6 9.3-10.4 20.9-16.7 34.6-19.4 4-.8 8.1-1.3 12.3-1v14.6c0 2.9 0 2.9 2.8 3.2-10.1-.4-19.5 1.7-28 7.2-1.3.8-.7 1.3-.1 2 3 3.6 6.1 7.1 9.1 10.8 2.5 3.1 5.3 5.9 7.5 9.2-.1 0-.4 0-.4.1-3.3 4.3-6.9 8.4-10.5 12.5-.6.4-.8.8-.8 1.2" style="fill:#1e88e5"/><path d="M77.8 51.5c-2.8-.3-2.8-.3-2.8-3.2V33.7c4.8-.3 9.5.3 14.1 1.4 13.2 3 24.4 9.4 33.3 19.7 2.4 2.8 2.4 4.7.1 7.4-2.6 3.1-5.2 6.1-7.8 9.1-1.1-1.6-2.6-2.9-4-4.3-2.8-2.8-5.8-5.4-9.3-7.4-.7-.5-1.3-1-2-1.5-6.7-4-13.9-6.1-21.6-6.6" style="fill:#e53935"/><path d="M101.3 59.7c3.5 2 6.5 4.6 9.3 7.4 1.4 1.4 2.9 2.7 4 4.3-4.1 4.9-8.2 9.9-12.3 14.8-5.2 6.2-10.4 12.4-15.6 18.5-1.6-1.2-2.7-2.9-3.9-4.5-2.6-3.1-5.2-6.3-7.8-9.4 2.5-3 5-6 7.6-8.9 6.3-7.4 12.5-14.8 18.7-22.2" style="fill:#4caf50"/><path d="M75.1 90.8c2.6 3.1 5.2 6.3 7.8 9.4 1.3 1.5 2.3 3.2 3.9 4.5-2.7 3.2-5.4 6.5-8.1 9.7-2.2 2.5-5.1 2.7-7.2.1-5.6-6.6-11.1-13.2-16.6-19.8-.1-.1-.1-.2-.1-.3.1-.4.2-.8.5-1.1 3.6-4.1 7.2-8.2 10.5-12.5.1-.1.3-.1.4-.1 1.1.7 1.7 1.9 2.6 2.8 2.1 2.4 4 5.1 6.3 7.3" style="fill:#fbc02d"/></svg>