<svg xmlns="http://www.w3.org/2000/svg" xml:space="preserve" viewBox="0 45.4 512 421.2"><path d="m289.6 256 49.9 57 67.1 42.9 11.7-99.6-11.7-97.3-68.4 37.7z" style="fill:#00832d"/><path d="M0 346.7v84.8c0 19.4 15.7 35.1 35.1 35.1h84.8l17.6-64.1-17.6-55.8-58.2-17.6z" style="fill:#0066da"/><path d="M119.9 45.4 0 165.3l61.7 17.6 58.2-17.6 17.3-55.1z" style="fill:#e94235"/><path d="M119.9 165.3H0v181.4h119.9z" style="fill:#2684fc"/><path d="M483.3 96.2 406.6 159v196.9l77 63.1c11.5 9 28.4.8 28.4-13.9V109.7c0-14.8-17.2-22.9-28.7-13.5M289.6 256v90.7H119.9v119.9h251.6c19.4 0 35.1-15.7 35.1-35.1v-75.6z" style="fill:#00ac47"/><path d="M371.5 45.4H119.9v119.9h169.7V256l117-96.9V80.5c0-19.4-15.7-35.1-35.1-35.1" style="fill:#ffba00"/></svg>