<svg xmlns="http://www.w3.org/2000/svg" xml:space="preserve" viewBox="0 0 512 512"><path d="M393.5 401.9c0 18.2 6.4 36.8 6.4 55 0 18.5-6.4 36.5-6.3 55H118.3c0-18.2-8.6-36.8-8.6-55 0-18.5 8.6-36.5 8.6-55z" style="fill:#3bab59"/><path d="M287.4 98.4c12.7-12.7 33.1-19.4 45.7-32.3 52.2 52.5 104.6 104.9 157 157.3 4.7 4.9 10.5 9.3 12.3 16.2 1.8 4.5 1.2 9.3 1.3 14v230.3c1.2 15.1-13.3 29.3-28.4 28.1h-81.7c-.1-36.7 0-73.4-.1-110 .1-40.3 0-80.6 0-121-34-33.9-67.9-68-101.9-101.9-11.9-12-23.9-23.7-35.6-35.8 6.5-6.2 24.7-38.2 31.4-44.9" style="fill:#4586f7"/><path d="M118.3 281.1c.2 40.3 0 80.5.1 120.8-.1 36.7 0 73.3-.1 110h-86c-12-1.5-22.5-11.6-24-23.6-.1-32.4 0-64.7 0-97.1 19.1-18.9 31-43.5 50-62.5 17.7-17.7 42.4-29.8 60-47.6" style="fill:#fdc00d"/><path d="M254.5 0c2.4.3 5.2-.6 7.3.7 5.7 1.1 10.7 4.4 14.8 8.6l51.3 51.3c1.7 1.8 3.7 3.4 5.2 5.5-19.2 19.6-38.7 38.8-58.1 58.3-6.3 6.3-12.5 12.7-19 18.8-8.5 8-16.5 16.5-24.8 24.7-37.6 37.7-75.4 75.4-112.9 113.2-17.5 17.8-35.3 35.4-52.9 53.1-19 19-38 38.1-57.1 57-.1-41.5 0-83 0-124.5 0-7.8-.1-15.7.1-23.5-.1-1.6 1.1-2.8 1-4.4 1.1-1.9 2.1-3.8 3.2-5.7 2.7-3.6 6.1-6.6 9.2-9.8C93 152 164.2 80.6 235.4 9.3c2.9-3.1 6.2-5.8 10.3-7.2 2.9-1 5.7-2.4 8.8-2.1" style="fill:#ec5043"/></svg>