<svg xmlns="http://www.w3.org/2000/svg" xml:space="preserve" viewBox="0 0 512 512"><path d="M129.3 117.8c70 0 126.7 56.7 126.7 126.7V256H14.1c-6.4 0-11.5-5.2-11.5-11.5 0-70 56.7-126.7 126.7-126.7" style="fill:#fbbc04"/><path d="M394.2 129.3c0 70-56.7 126.7-126.7 126.7H256V14.1c0-6.4 5.2-11.5 11.5-11.5 70 0 126.7 56.7 126.7 126.7" style="fill:#ea4335"/><path d="M382.7 394.2c-70 0-126.7-56.7-126.7-126.7V256h241.9c6.4 0 11.5 5.2 11.5 11.5 0 70-56.7 126.7-126.7 126.7" style="fill:#4285f4"/><path d="M117.8 382.7c0-70 56.7-126.7 126.7-126.7H256v241.9c0 6.4-5.2 11.5-11.5 11.5-70 0-126.7-56.7-126.7-126.7" style="fill:#34a853"/></svg>