<svg xmlns="http://www.w3.org/2000/svg" viewBox="1.97 1.11 356.73 372.47"><path fill="#90824a" d="M126.23 243.97h22.08v129.61h-22.08zM177.74 243.97h22.08v129.61h-22.08z"/><g stroke-width=".32"><path fill="#eb71a0" d="M131.83 266.64c-39.148.7-74.272-22.714-99.649-50.726C.947 172.643-3.454 135.572 7.16 90.814c15.711 26.193 49.008 34.917 68.35 25.806 25.426-13.544 40.613-39.383 59.182-60.407 19.344-22.901 41.554-48.299 72.863-52.888 29.528-3.209 55.501 16.071 74.261 36.823 17.59 21.427 22.45 51.252 17.097 78.135-11.089 53.86-48.833 100.06-95.562 127.78-21.669 12.425-46.34 20.786-71.52 20.573z"/><path fill="#90824a" d="m300.73 88.135-.388-3.28c-.213-1.804-.734-5.015-1.158-7.135a116 116 0 0 0-1.871-7.68c-.606-2.104-1.72-5.409-2.478-7.345-.757-1.936-2.28-5.3-3.386-7.474-1.105-2.175-3.11-5.631-4.455-7.68-1.345-2.05-2.874-4.27-3.398-4.934l33.79-41.462 4.365 2.465-12.945 52.413c15.637 11.772 35.582 18.694 49.87 31.068zM322.26 90.609c-.106.106-.182-.083-.168-.42.015-.373.091-.449.193-.193.093.23.081.507-.025.613"/><path fill="#fdf8ad" d="M135.12 232.09c-29.387-.522-55.786-16.919-76.779-36.31-5.46-5.098-10.616-10.527-15.379-16.282 23.001-.909 47.274-4.44 66.4-18.202 9.828-8.001 13.477-21.458 24.572-28.204 14.076-10.4 33.779-9.727 48.573-1.231 17.29 9.285 30.209 29.675 25.303 49.626-3.588 15.456-16.028 26.677-28.18 35.875-12.892 9.225-28.51 15.15-44.51 14.728z"/></g><circle cx="222.64" cy="88.308" r="19.55" fill="#872c1b"/></svg>