<svg xmlns="http://www.w3.org/2000/svg" xml:space="preserve" id="svg602" x="0" y="0" version="1.1" viewBox="0 0 512 512"><style>.st1,.st3{fill:none;stroke:#000;stroke-width:12.5}.st3{stroke-opacity:.2695}.st6,.st9{fill:#d7d7d7;stroke:#b8b8b8;stroke-linecap:square}.st6{fill-rule:evenodd;clip-rule:evenodd;stroke-width:1.875}.st9{stroke-width:1.8414}.st10,.st11,.st12,.st13,.st14,.st9{fill-rule:evenodd;clip-rule:evenodd}.st10{fill:#ead4bc;stroke:#b39166;stroke-width:12.5}.st11{fill:#d4b993}.st12{fill:#b39a7d}.st13{fill:#887058}.st14{fill:#695144}</style><path id="path617" d="M117.5 257.5H161" style="fill:none;stroke:#000;stroke-width:1.0364"/><path id="path618" d="m192.5 138-31.5.2 1.5 237.8h29" class="st1"/><path id="path638" d="M116.8 265.8h48" style="fill:none;stroke:#000;stroke-width:13.1306;stroke-opacity:.2695"/><path id="path640" d="m394.7 324.3-30.8-.1.5 119.4 30.5.2" class="st3"/><path id="path641" d="M306.6 145.7h51" style="fill:none;stroke:#000;stroke-width:13.3073;stroke-opacity:.2695"/><path id="path642" d="M395.5 74.5h-32.6l.7 119.6h30.1" class="st3"/><path id="path643" d="M304.6 383.5h53.9" style="fill:none;stroke:#000;stroke-width:13.5927;stroke-opacity:.2695"/><path id="path622" d="M384.2 66.2h-32.6l.7 119.6h30.1" class="st1"/><path id="path621" d="M309.6 137.5h45" class="st1"/><path id="path623" d="M309.1 376h45.5" class="st1"/><path id="path620" d="m383.4 316-30.8-.1.5 119.4 30.5.2" class="st1"/><path id="path639" d="m203.3 146.2-31 .2 1.5 237.8h29" class="st3"/><path id="path614" d="M117.5 258.2h41.3" class="st1"/><path id="path670" d="m167.7 372.2 23.3.1h0" class="st6"/><path id="path671" d="m158.7 379.6-.7-115.9h0" style="fill-rule:evenodd;clip-rule:evenodd;fill:#d7d7d7;stroke:#b8b8b8;stroke-width:1.8655;stroke-linecap:square"/><path id="path672" d="m158 253.7-.7-119.1h0" class="st6"/><path id="path673" d="m157.2 134.5 34.2-.3h0" class="st6"/><path id="path674" d="m118.6 254.8 39.4-.3h0" class="st6"/><path id="path875" d="m348.6 133.4-.7-70.8h0" style="fill-rule:evenodd;clip-rule:evenodd;fill:#d7d7d7;stroke:#b8b8b8;stroke-width:1.8695;stroke-linecap:square"/><path id="path876" d="m349.2 62.6 34.2-.3h0" class="st6"/><path id="path877" d="m310.6 134.2 38-.3h0" class="st9"/><path id="path878" d="m357.3 181.9 24.6.1h0" class="st6"/><path id="path879" d="m348.6 189.1-.2-45.9h0" class="st6"/><path id="path880" d="m349.2 372.1-.2-59.7h0" class="st6"/><path id="path881" d="m349.7 312.4 33.1-.1h0" class="st6"/><path id="path882" d="m310.3 372.5 38-.3h0" class="st9"/><path id="path884" d="m358.1 431.6 24.7.1h0" class="st6"/><path id="path885" d="m349.9 438.9-.2-57.6h0" class="st6"/><g id="g711" transform="translate(168.985 300.164)"><path id="rect712" d="M220.5 99.4H327v72.8H220.5z" class="st10"/><path id="path713" d="M214.9 93.8h117.7L321.4 105h-95.3z" class="st11"/><path id="path714" d="m215 93.8 11.1 11.1v61.5l-11 11.1z" class="st12"/><path id="path715" d="m332.7 94-11.1 11.1v61.5l11 11.1z" class="st13"/><path id="path716" d="M332.8 177.7H215.1l11.2-11.2h95.3z" class="st14"/></g><g id="g705" transform="translate(168.36 166.413)"><path id="rect706" d="M220.6 113.4h106.5v72.8H220.6z" class="st10"/><path id="path707" d="M215 107.8h117.7L321.5 119h-95.3z" class="st11"/><path id="path708" d="m215 107.8 11.1 11.1v61.5l-11 11.1z" class="st12"/><path id="path709" d="m332.7 108-11.1 11.1v61.5l11 11.1z" class="st13"/><path id="path710" d="M332.8 191.7H215.1l11.2-11.2h95.3z" class="st14"/></g><g id="g699" transform="translate(167.423 20.787)"><path id="rect700" d="M220.7 128.6h106.5v72.8H220.7z" class="st10"/><path id="path701" d="M215.1 123h117.7l-11.2 11.2h-95.3z" class="st11"/><path id="path702" d="m215.1 123.1 11.1 11.1v61.5l-11 11.1z" class="st12"/><path id="path703" d="m332.8 123.2-11.1 11.1v61.5l11 11.1z" class="st13"/><path id="path704" d="M332.9 207H215.2l11.2-11.2h95.3z" class="st14"/></g><g id="g693" transform="translate(169.454 -114.213)"><path id="rect694" d="M220.5 142.7H327v72.8H220.5z" class="st10"/><path id="path695" d="M214.9 137.1h117.7l-11.2 11.2h-95.3z" class="st11"/><path id="path696" d="m214.9 137.2 11.1 11.1v61.5l-11 11.1z" class="st12"/><path id="path697" d="m332.6 137.3-11.1 11.1v61.5l11 11.1z" class="st13"/><path id="path698" d="M332.7 221.1H215l11.2-11.2h95.3z" class="st14"/></g><g id="g675" transform="translate(-45.391 -32.963)"><path id="rect607" d="M242.9 134.2h106.5V207H242.9z" class="st10"/><path id="path660" d="M237.3 128.6H355l-11.2 11.2h-95.3z" class="st11"/><path id="path661" d="m237.4 128.7 11.1 11.1v61.5l-11 11.1z" class="st12"/><path id="path662" d="M355.1 128.8 344 139.9v61.5l11 11.1z" class="st13"/><path id="path663" d="M355.2 212.6H237.5l11.2-11.2H344z" class="st14"/></g><g id="g687" transform="translate(-45.722 234.538)"><path id="rect688" d="M243 106.2h106.5V179H243z" class="st10"/><path id="path689" d="M237.4 100.6h117.7l-11.2 11.2h-95.3z" class="st11"/><path id="path690" d="m237.4 100.7 11.1 11.1v61.5l-11 11.1z" class="st12"/><path id="path691" d="M355.1 100.8 344 111.9v61.5l11 11.1z" class="st13"/><path id="path692" d="M355.2 184.6H237.5l11.2-11.2H344z" class="st14"/></g><g id="g681" transform="translate(-259.767 101.413)"><path id="rect682" d="M265.4 120.2h106.5V193H265.4z" class="st10"/><path id="path683" d="M259.8 114.6h117.7l-11.2 11.2H271z" class="st11"/><path id="path684" d="m259.8 114.6 11.1 11.1v61.5l-11 11.1z" class="st12"/><path id="path685" d="m377.5 114.8-11.1 11.1v61.5l11 11.1z" class="st13"/><path id="path686" d="M377.6 198.5H259.9l11.2-11.2h95.3z" class="st14"/></g></svg>