<svg xmlns="http://www.w3.org/2000/svg" id="Layer_1" data-name="Layer 1" viewBox="-0.03 0 638.06 356.31"><defs><linearGradient id="Degradado_sin_nombre_2" x1="119.67" x2="123.26" y1="816.15" y2="816.15" gradientTransform="matrix(19.28 0 0 -19.28 -1978.6 15893.32)" gradientUnits="userSpaceOnUse"><stop offset="0" stop-color="#939598"/><stop offset=".48" stop-color="#797b7d"/><stop offset="1" stop-color="#58595b"/></linearGradient><linearGradient id="Degradado_sin_nombre_3" x1="116.44" x2="120.08" y1="800.74" y2="800.74" gradientTransform="scale(28.58 -28.58)rotate(45 1035.477 268.795)" gradientUnits="userSpaceOnUse"><stop offset="0" stop-color="#00052c"/><stop offset=".11" stop-color="#00052c"/><stop offset=".13" stop-color="#030d33"/><stop offset=".22" stop-color="#12365c"/><stop offset=".33" stop-color="#20597e"/><stop offset=".43" stop-color="#2b769b"/><stop offset=".54" stop-color="#338cb1"/><stop offset=".67" stop-color="#399cc0"/><stop offset=".81" stop-color="#3da5c9"/><stop offset="1" stop-color="#3ea8cc"/></linearGradient><linearGradient id="Degradado_sin_nombre_4" x1="107.95" x2="111.54" y1="807.81" y2="807.81" gradientTransform="matrix(42.62 0 0 -42.62 -4360.41 34587.51)" gradientUnits="userSpaceOnUse"><stop offset="0" stop-color="#0d274d"/><stop offset=".11" stop-color="#183560"/><stop offset=".28" stop-color="#244575"/><stop offset=".46" stop-color="#2d5084"/><stop offset=".68" stop-color="#32578d"/><stop offset="1" stop-color="#345990"/></linearGradient><clipPath id="clip-path" transform="translate(-181 -288.83)"><path d="M509.47 413.26s41.4 41.53 34.83 68.32c0 0 4.48-2.68 10.21-6.49l1.34-.91c1.56-2.25 3.64-3.53 6.06-4.87l1.85-1c1.22-1 2.37-2.08 3.54-3l.32-.27c2.33-1.3 4.85-3.61 6.68-4.92l.06-.06c2.65-2.68 4.31-5.3 4.31-7.11 0-7.02-20.79-29.21-69.2-39.69" class="cls-1"/></clipPath><clipPath id="clip-path-2" transform="translate(-181 -288.83)"><path d="M457.43 355a86.4 86.4 0 0 0-16.43 2.24 50 50 0 0 0-12 5.06c-.52.32-1 .66-1.55 1a26.2 26.2 0 0 0-4.44 3.87 7.8 7.8 0 0 0-1.59 4.18c-.21 14.8 21.7 47.64 21.7 47.64-.61-47.39 108.61-37 108.61-37-41.39-20.93-70.89-27.07-91.27-27.07-1 0-2 0-3 .05" class="cls-1"/></clipPath><clipPath id="clip-path-3" transform="translate(-181 -288.83)"><path d="M421.36 373.58c6.6 94.47 43.15 141 54.32 147.24C489.32 528.44 574.3 460 574.3 460c-89.35 15.5-150-80.89-152.53-90.48a11.4 11.4 0 0 0-.41 4" class="cls-1"/></clipPath><style>.cls-1{fill:none}</style></defs><path d="M39 271.6H6.84v30.2H39v-12.17H22.34v-5.31h23.45v13.45q0 5.71-2 7.77c-1.35 1.37-3.89 2-7.59 2H9.62q-5.56 0-7.59-2t-2-7.77v-21.91q0-5.72 2-7.77t7.59-2h26.56q5.4 0 7.51 1.94t2.1 7.32v1h-6.83Zm55.84-.17H71.31v14.58h23.53a5.22 5.22 0 0 0 3.46-.88c.66-.59 1-1.72 1-3.39v-6a4.5 4.5 0 0 0-1-3.34 5 5 0 0 0-3.46-.93m-30.36 36.16v-41.59h33q4.51 0 6.58 1.89c1.38 1.26 2.06 3.31 2.06 6.16v9.26c0 2.85-.68 4.91-2.06 6.16s-3.57 1.9-6.58 1.9h-6l18.76 16.18H100l-16.67-16.18H71.31v16.18Zm66.38-15.58H153l-11-21.26ZM116 307.59l22.42-41.55h7.31l22.82 41.55H161l-5.25-10.23H128l-5.24 10.23Zm64.78 0v-41.55h4.3l30.69 27.78a39 39 0 0 1 4.69 5.24 65 65 0 0 1-.64-10.23v-22.79h6.35v41.55h-3.81l-31.56-28.91c-1.17-1.07-1.83-1.69-2-1.85a14 14 0 0 1-2.15-2.82 73 73 0 0 1 .48 9.1v24.48ZM268 271.6h-14.8v30.2H268q9.54 0 13.67-3.23 4.54-3.48 4.54-12 0-8.25-4.54-11.72-4.2-3.23-13.67-3.22m1-5.56q10.8 0 15.74 3.22a17.57 17.57 0 0 1 6.24 7.17 22.6 22.6 0 0 1 2.26 10.14q0 12.17-8.5 17.8-4.85 3.22-15.74 3.22h-22.63v-41.58Zm75.55 5.53h-29v11.67h25.83q5.57 0 7.55 2.1t2 7.73v4.67q0 5.71-2 7.77t-7.55 2h-23.94q-5.56 0-7.59-2t-2-7.77v-1.13h6.36v5.14h30.53v-12.47H319c-3.65 0-6.16-.68-7.51-2s-2-4-2-7.77v-3.63c0-3.86.68-6.47 2-7.81s3.86-2 7.51-2h21.86q5.25 0 7.44 1.9t2.18 7.12v.88h-5.88Zm41.98.07v35.92h-6.84v-35.92h-18.76v-5.63h44.44v5.63zm59.7-.24H422.7v14.58h23.53a5.25 5.25 0 0 0 3.46-.88q1-.88 1-3.39v-6a4.5 4.5 0 0 0-1-3.34 5.07 5.07 0 0 0-3.46-.93m-30.37 36.16v-41.59h33q4.51 0 6.59 1.89t2.06 6.16v9.26c0 2.85-.69 4.91-2.06 6.16s-3.58 1.9-6.59 1.9h-6l18.76 16.18h-10.2l-16.67-16.18h-12v16.18Zm59.54-.04v-41.55h39.51v5.56h-32.67v11.59h19.95v5.48h-19.95v13.21h33v5.71zm61.94-15.54h22.09l-11-21.26Zm-14.87 15.54 22.42-41.55h7.31l22.8 41.55h-7.56l-5.25-10.23h-27.72l-5.25 10.23Zm70.27-34.14a47 47 0 0 1 .32 6.12v28h-5.8v-41.53h5.56l20 27.06 18.6-27.06h6.36v41.56h-6.36v-28l.32-6.12a32 32 0 0 1-2.47 4.51l-15.7 23.08h-1.75l-16.29-22.47a35.7 35.7 0 0 1-2.79-5.15M13.32 342.54H2.85v11.48h10.47v-3.4h2.51v1.87a4.4 4.4 0 0 1-.73 3 3.83 3.83 0 0 1-2.78.77H3.88a3.87 3.87 0 0 1-2.79-.78 4.36 4.36 0 0 1-.75-3v-8.31a4.3 4.3 0 0 1 .75-3 3.78 3.78 0 0 1 2.79-.78h8.44a3.84 3.84 0 0 1 2.78.75 4.33 4.33 0 0 1 .73 3v1.5h-2.51Zm23.55 11.48h12.48v-11.48H36.87Zm-2.51-9.85a4.3 4.3 0 0 1 .75-3 3.8 3.8 0 0 1 2.79-.79h10.45a3.77 3.77 0 0 1 2.78.79 4.38 4.38 0 0 1 .73 3v8.33a4.43 4.43 0 0 1-.73 3 3.8 3.8 0 0 1-2.78.78H37.9a3.86 3.86 0 0 1-2.79-.78 4.36 4.36 0 0 1-.75-3Zm37.23 12.06v-15.81h1.58l11.28 10.57a14.6 14.6 0 0 1 1.73 2 25 25 0 0 1-.24-3.89v-8.67h2.34v15.81h-1.41l-11.6-11c-.43-.41-.67-.64-.73-.71a5.4 5.4 0 0 1-.79-1.06 28 28 0 0 1 .18 3.46v9.31Zm36.59 0v-15.81h1.58L121 350.99a14.6 14.6 0 0 1 1.72 2 25.4 25.4 0 0 1-.23-3.89v-8.67h2.33v15.81h-1.4l-11.6-11c-.43-.41-.67-.64-.73-.71a5 5 0 0 1-.79-1.06 28 28 0 0 1 .18 3.46v9.31Zm36.59-15.8v15.8h14.64v-2.18h-12.13v-5.02h7.34v-2.08h-7.34v-4.41h12.01v-2.11zm45.5 2.11h-10.46v11.48h10.46v-3.4h2.51v1.87a4.4 4.4 0 0 1-.73 3 3.8 3.8 0 0 1-2.77.77h-8.45a3.87 3.87 0 0 1-2.79-.78 4.36 4.36 0 0 1-.75-3v-8.31a4.3 4.3 0 0 1 .75-3 3.78 3.78 0 0 1 2.79-.78h8.45a3.8 3.8 0 0 1 2.77.75 4.33 4.33 0 0 1 .73 3v1.5h-2.51Zm17.68-2.11v2.14h6.9v13.66h2.51v-13.66h6.92v-2.14zm32.67 0h2.51v15.8h-2.51zm22.44 15.8v-15.81h1.59l11.27 10.57a14.6 14.6 0 0 1 1.73 2 25 25 0 0 1-.24-3.89v-8.67h2.34v15.81h-1.4l-11.6-11c-.43-.41-.67-.64-.73-.71a4.7 4.7 0 0 1-.79-1.06 30 30 0 0 1 .17 3.46v9.31Zm50.71-13.69H302v11.48h11.81v-4.62h-6.11v-2h8.62v5.11a4.42 4.42 0 0 1-.74 3 3.9 3.9 0 0 1-2.79.78H303a3.9 3.9 0 0 1-2.79-.78 4.42 4.42 0 0 1-.74-3v-8.34a4.37 4.37 0 0 1 .74-3 3.8 3.8 0 0 1 2.79-.78h9.77a4 4 0 0 1 2.76.73 3.88 3.88 0 0 1 .77 2.79v.39h-2.51Zm41.32-2.11v2.14h6.9v13.66h2.51v-13.66h6.93v-2.14zm47.08 0v6.45h-11.89v-6.45h-2.52v15.8h2.52v-7.17h11.89v7.17h2.51v-15.8zm22.44 0v15.8h14.64v-2.18h-12.12v-5.02h7.33v-2.08h-7.33v-4.41h12v-2.11zm203.55 2.11h-5.44v11.48h5.44c2.33 0 4-.41 5-1.23s1.67-2.4 1.67-4.57-.56-3.57-1.67-4.45-2.7-1.23-5-1.23m.35-2.12q4 0 5.78 1.23a6.6 6.6 0 0 1 2.3 2.72 9 9 0 0 1 .83 3.87q0 4.62-3.13 6.76c-1.19.82-3.11 1.23-5.78 1.23h-8.3v-15.81Zm-108.57 13.6h12.48v-11.48h-12.48Zm-2.51-9.85a4.37 4.37 0 0 1 .74-3 3.87 3.87 0 0 1 2.8-.79h10.45a3.78 3.78 0 0 1 2.78.79 4.37 4.37 0 0 1 .74 3v8.33a4.42 4.42 0 0 1-.74 3 3.83 3.83 0 0 1-2.78.78H521a3.92 3.92 0 0 1-2.8-.78 4.42 4.42 0 0 1-.74-3Zm48.39-1.69h-8.65v5.54h8.65a1.92 1.92 0 0 0 1.28-.34 1.78 1.78 0 0 0 .36-1.28v-2.3a1.35 1.35 0 0 0-1.64-1.62m-11.16 13.75v-15.81h12.13a3.4 3.4 0 0 1 2.42.72 3.1 3.1 0 0 1 .76 2.35v3.52a3.1 3.1 0 0 1-.76 2.34 3.4 3.4 0 0 1-2.42.72h-2.21l6.89 6.16h-3.74l-6.13-6.16h-4.43v6.16Zm34.37-15.8v15.8h13.94v-2.21h-11.43v-13.59zm-90.6 0-4.12 12.55-4.29-12.55h-1.55l-4.44 12.55-4.09-12.55h-2.55l5.47 15.8h1.98l4.33-11.95 4.18 11.95h1.87l5.46-15.8zM0 324.21h638" style="fill:#345990"/><path d="M0 324.21h638" style="fill:none;stroke:#345990;stroke-miterlimit:10;stroke-width:.06px"/><g style="clip-path:url(#clip-path)"><path d="M328.47 124.43h69.19v68.32h-69.19z" style="fill:url(#Degradado_sin_nombre_2)"/></g><g style="clip-path:url(#clip-path-2)"><path d="M208.58 98.14 305.46 0l96.87 98.14-96.87 98.13z" style="fill:url(#Degradado_sin_nombre_3)"/></g><g style="clip-path:url(#clip-path-3)"><path d="M240.26 80.73H393.3v158.88H240.26z" style="fill:url(#Degradado_sin_nombre_4)"/></g></svg>