<svg xmlns="http://www.w3.org/2000/svg" xml:space="preserve" id="svg2" x="0" y="0" version="1.1" viewBox="0 0 268 268"><style>.st1{fill:#2cb0af}.st1,.st2,.st3{fill-rule:evenodd;clip-rule:evenodd}.st2{fill:#f9ae41}.st3{fill:#d2d2d2}</style><path id="rect4" d="M31.5 31.4h205.9v205.9H31.5z" style="fill-rule:evenodd;clip-rule:evenodd;fill:#42494b;stroke:#42494b;stroke-width:59.7656;stroke-linejoin:round;stroke-miterlimit:10"/><g id="g10" transform="translate(176.539 6.092)scale(2.22078)"><g id="g4348"><g id="g12" transform="matrix(1.22035 0 0 1.18387 65.308 -105.803)"><path id="path14" d="M-26.3 97.5h-13.2c-6.1 0-11 5.1-11 11.4v11.3h13.3c6 0 10.9-5.1 10.9-11.3z" class="st1"/></g><g id="g16" transform="matrix(-1.22035 0 0 1.18387 299.993 -105.803)"><path id="path18" d="M273.5 97.5h-13.2c-6.1 0-11 5.1-11 11.4v11.3h13.3c6 0 10.9-5.1 10.9-11.3z" class="st1"/></g><g id="g20" transform="matrix(-1.22035 0 0 1.18387 237.493 -47.803)"><path id="path22" d="M252.9 77.8h-13.2c-6.1 0-11 5.1-11 11.4v11.3H242c6 0 10.9-5.1 10.9-11.3z" class="st2"/></g><g id="g24" transform="matrix(-1.22035 0 0 1.18387 237.493 10.197)"><path id="path26" d="M252.9 58.1h-13.2c-6.1 0-11 5.1-11 11.4v11.3H242c6 0 10.9-5.1 10.9-11.3z" class="st2"/></g><g id="g28" transform="matrix(-1.22035 0 0 1.18387 299.993 -47.803)"><path id="path30" d="M273.5 77.8h-13.2c-6.1 0-11 5.1-11 11.4v11.3h13.3c6 0 10.9-5.1 10.9-11.3z" class="st3"/></g><g id="g32" transform="matrix(1.22035 0 0 1.18387 65.308 -47.803)"><path id="path34" d="M-26.3 77.8h-13.2c-6.1 0-11 5.1-11 11.4v11.3h13.3c6 0 10.9-5.1 10.9-11.3z" class="st3"/></g><g id="g36" transform="matrix(-1.22035 0 0 1.18387 299.993 10.197)"><path id="path38" d="M273.5 58.1h-13.2c-6.1 0-11 5.1-11 11.4v11.3h13.3c6 0 10.9-5.1 10.9-11.3z" class="st3"/></g><g id="g40" transform="matrix(1.22035 0 0 1.18387 65.308 10.197)"><path id="path42" d="M-26.3 58.1h-13.2c-6.1 0-11 5.1-11 11.4v11.3h13.3c6 0 10.9-5.1 10.9-11.3z" class="st3"/></g></g></g></svg>