<svg xmlns="http://www.w3.org/2000/svg" xml:space="preserve" style="fill-rule:evenodd;clip-rule:evenodd;stroke-linecap:round;stroke-linejoin:round;stroke-miterlimit:1.5" viewBox="0 0 512 512"><circle cx="341.352" cy="297.551" r="100.194" style="fill:#2897da" transform="translate(-592.848 -483.927)scale(2.48672)"/><circle cx="341.352" cy="297.551" r="100.194" style="fill:#46c4d6" transform="translate(-462.362 -370.185)scale(2.10446)"/><path d="M321.283 391.309H138.4V120.691h235.2v218.301z" style="fill:#46c4d6;stroke:#000;stroke-width:9.15px"/><path d="M308.657 299.602v69.437H239.22z" style="fill:#46c4d6;stroke:#000;stroke-width:12.14px" transform="rotate(180 276.918 308.52)scale(.75344)"/><path d="M304.695 350.942H164.559v17.554h140.136zm-39.245-34.573H164.559v17.554H265.45zm21.594-34.573H164.559v17.554h122.485zm28.739-34.573H164.559v17.554h151.224zm31.658-34.573H164.559v17.554h182.882zm-69.66-34.573H164.559v17.554h113.222zm69.66-34.573H164.559v17.554h182.882z" style="fill:#46c4d6;stroke:#000;stroke-width:9.15px"/></svg>