<?xml version="1.0" encoding="UTF-8"?>
<svg xmlns="http://www.w3.org/2000/svg" xmlns:xlink="http://www.w3.org/1999/xlink" width="512px" height="102px" viewBox="0 0 510 102" version="1.1">
<g id="surface1">
<path style=" stroke:none;fill-rule:nonzero;fill:rgb(9.411765%,27.058825%,54.11765%);fill-opacity:1;" d="M 10.199219 75.132812 L 35.800781 0 L 59.808594 0 L 52.726562 20.75 C 51.757812 23.582031 50.96875 25.8125 50.367188 27.382812 C 49.761719 28.957031 49.140625 30.5 48.511719 31.953125 C 51.214844 29.332031 54.316406 27.152344 57.699219 25.5 C 60.621094 24.125 63.816406 23.410156 67.046875 23.410156 C 72.390625 23.410156 76.066406 25.027344 78.070312 28.257812 C 80.074219 31.492188 80.132812 35.902344 78.242188 41.496094 L 66.765625 75.132812 L 42.332031 75.132812 L 50.953125 49.835938 C 51.660156 48.210938 52.007812 46.449219 51.964844 44.671875 C 51.769531 43.746094 51.050781 43.28125 49.792969 43.28125 C 48.351562 43.289062 46.972656 43.886719 45.984375 44.9375 C 44.695312 46.332031 43.742188 48.011719 43.207031 49.835938 L 34.589844 75.132812 Z M 106.816406 49.917969 C 106.085938 51.558594 106.070312 53.429688 106.777344 55.078125 C 107.5625 56.445312 109.074219 57.222656 110.640625 57.0625 C 112.554688 57.0625 114.402344 56.375 115.851562 55.128906 C 117.480469 53.761719 118.683594 51.960938 119.324219 49.933594 C 120.074219 48.261719 120.101562 46.351562 119.40625 44.65625 C 118.625 43.289062 117.113281 42.511719 115.550781 42.671875 C 113.621094 42.695312 111.769531 43.410156 110.328125 44.691406 C 108.695312 46.078125 107.480469 47.894531 106.820312 49.933594 Z M 111.511719 75.132812 L 114.089844 67.570312 C 111.097656 70.421875 107.714844 72.828125 104.042969 74.71875 C 101.074219 76.207031 97.808594 76.996094 94.488281 77.019531 C 89.3125 77.425781 84.476562 74.425781 82.539062 69.609375 C 80.402344 64.664062 80.65625 58.296875 83.304688 50.515625 C 85.664062 43.027344 89.894531 36.261719 95.59375 30.859375 C 100.148438 26.265625 106.292969 23.601562 112.757812 23.414062 C 115.488281 23.320312 118.1875 24.023438 120.523438 25.433594 C 122.757812 26.96875 124.476562 29.140625 125.453125 31.667969 L 127.71875 25.03125 L 151.03125 25.03125 L 133.945312 75.132812 Z M 145.496094 75.132812 L 156.28125 43.484375 L 149.34375 43.484375 L 155.636719 25.019531 L 162.570312 25.019531 L 168.21875 8.441406 L 192.566406 8.441406 L 186.898438 25.019531 L 193.839844 25.019531 L 187.550781 43.484375 L 180.617188 43.484375 L 169.832031 75.132812 Z M 183.746094 75.132812 L 209.332031 0 L 233.339844 0 L 226.28125 20.75 C 225.3125 23.582031 224.523438 25.8125 223.921875 27.382812 C 223.320312 28.957031 222.71875 30.441406 222.066406 31.953125 C 224.765625 29.332031 227.855469 27.15625 231.230469 25.5 C 234.148438 24.121094 237.339844 23.402344 240.566406 23.398438 C 245.910156 23.398438 249.585938 25.011719 251.589844 28.246094 C 253.59375 31.476562 253.648438 35.890625 251.761719 41.484375 L 240.296875 75.132812 L 215.859375 75.132812 L 224.480469 49.835938 C 225.1875 48.210938 225.535156 46.445312 225.492188 44.671875 C 225.296875 43.746094 224.574219 43.28125 223.320312 43.28125 C 221.878906 43.289062 220.5 43.886719 219.511719 44.9375 C 218.222656 46.332031 217.273438 48.011719 216.734375 49.835938 L 208.117188 75.132812 L 183.730469 75.132812 Z M 261.429688 75.132812 L 258.878906 25.019531 L 284.574219 25.019531 L 282.308594 44.160156 C 282.160156 45.417969 281.941406 46.792969 281.632812 48.28125 C 281.324219 49.765625 280.949219 51.308594 280.546875 52.882812 C 281.433594 51.046875 282.246094 49.421875 282.980469 48.015625 C 283.660156 46.695312 284.402344 45.410156 285.203125 44.160156 L 296.871094 25.019531 L 312.871094 25.019531 L 310.800781 44.742188 C 310.703125 45.652344 310.558594 46.808594 310.308594 48.214844 C 310.058594 49.621094 309.78125 51.175781 309.429688 52.882812 C 310.199219 51.226562 311.003906 49.585938 311.851562 47.96875 C 312.695312 46.347656 313.585938 44.761719 314.515625 43.203125 L 325.285156 25.019531 L 350.949219 25.019531 L 312.339844 75.132812 L 293.195312 75.132812 L 294.308594 59.382812 C 294.308594 59.152344 294.339844 58.816406 294.378906 58.308594 C 294.480469 56.097656 294.726562 53.898438 295.113281 51.722656 C 294.335938 53.378906 293.183594 55.445312 291.695312 57.925781 C 291.265625 58.605469 290.992188 59.0625 290.84375 59.34375 L 281.191406 75.144531 L 261.414062 75.144531 Z M 261.429688 75.132812 "/>
<path style=" stroke:none;fill-rule:evenodd;fill:rgb(81.568629%,20.392157%,16.862746%);fill-opacity:1;" d="M 347.898438 35.625 C 316.179688 90.445312 376.230469 103.4375 412.097656 79.828125 L 409.3125 71.988281 C 409.292969 71.9375 409.21875 71.988281 409.1875 72.011719 C 383.609375 86.984375 345.867188 83.734375 351.136719 56.019531 C 354.96875 39.441406 366.140625 25.515625 381.492188 18.179688 C 429.027344 -2.746094 444.539062 34.164062 412.398438 56.566406 C 408.292969 59.429688 407.921875 56.453125 407.789062 55.859375 L 417.96875 25.175781 L 399.414062 25.175781 L 397.609375 30.488281 C 396.136719 26.257812 391.996094 23.558594 387.53125 23.910156 C 378.214844 23.910156 368.625 32.148438 364.070312 45.539062 C 359.65625 58.53125 364.136719 66.707031 372.980469 66.707031 C 378.109375 66.707031 383.054688 64.234375 388.5625 59.164062 C 384.628906 69.648438 395.164062 71.347656 400.109375 70.417969 C 432.125 64.386719 442.195312 35.542969 440.097656 20.492188 C 436.605469 -4.523438 379.878906 -10.195312 347.890625 35.625 Z M 382.785156 45.0625 C 383.648438 41.863281 386.425781 39.550781 389.726562 39.277344 C 392.726562 39.277344 393.914062 41.578125 392.730469 45.0625 C 391.898438 48.253906 389.109375 50.554688 385.816406 50.765625 C 382.898438 50.765625 381.597656 48.546875 382.785156 45.0625 "/>
<path style=" stroke:none;fill-rule:evenodd;fill:rgb(9.411765%,27.058825%,54.11765%);fill-opacity:1;" d="M 449.597656 70.332031 L 437.832031 84.726562 L 401.566406 84.679688 C 393.574219 88.59375 384.785156 90.601562 375.890625 90.554688 C 366.886719 90.792969 357.972656 88.714844 350 84.515625 L 6.683594 84.472656 L 0 102.78125 L 448.957031 102.816406 L 509.375 24.566406 L 484.359375 24.566406 L 476.449219 37.074219 C 475.34375 38.863281 472.40625 43.726562 468 51.46875 C 468.898438 46.820312 469.402344 42.105469 469.496094 37.371094 L 470.0625 24.566406 L 443.34375 24.566406 Z M 449.597656 70.332031 "/>
</g>
</svg>
