<svg xmlns="http://www.w3.org/2000/svg" xmlns:xlink="http://www.w3.org/1999/xlink" version="1.1" viewBox="72 28 356 445">
    <g id="Page-1" stroke="none" stroke-width="1" fill="none" fill-rule="evenodd">
        <g id="headlamp-logo-light" transform="translate(72.000000, 28.000000)">
            <polygon id="Path" fill="#000000" points="356 282.418887 328.216573 319.725397 356 405.714522 178.123413 445 0 405.714522 27.783308 319.725397 0 282.418887 0 177.903303 27.783308 141.829204 27.783308 81.0419414 116.844777 49.1724976 116.844777 0 239.147747 0 239.147747 49.1724976 328.216573 81.0419414 328.216573 141.829204 356 177.903303"/>
            <path d="M177.500236,147 C200.802399,147 221.928392,156.472115 237.228156,171.771924 C252.527914,187.071727 262,208.197775 262,231.5 C262,254.802225 252.527914,275.928273 237.228156,291.228076 C221.928392,306.527885 200.802399,316 177.500236,316 C154.080178,316 132.958056,306.580128 117.689033,291.311151 C102.419848,276.042011 93,254.919748 93,231.5 C93,208.108912 102.452155,187.008469 117.717511,171.743158 C133.021103,156.439611 154.169065,147 177.500236,147 Z" id="Path" stroke="#FFFFFF" stroke-width="10" fill="#FFF200" fill-rule="nonzero"/>
        </g>
    </g>
</svg>