<svg xmlns="http://www.w3.org/2000/svg" xmlns:xlink="http://www.w3.org/1999/xlink" zoomAndPan="magnify" preserveAspectRatio="xMidYMid meet" version="1.2" viewBox="0.86 0.28 373.05 373.77"><defs><clipPath id="d2bc06233f"><path d="M 0 0 L 374 0 L 374 374.25 L 0 374.25 Z M 0 0 "/></clipPath></defs><g id="528e5e5a56"><g clip-rule="nonzero" clip-path="url(#d2bc06233f)"><path style=" stroke:none;fill-rule:nonzero;fill:#d50c2d;fill-opacity:1;" d="M 373.914062 187.164062 C 373.914062 190.222656 373.835938 193.28125 373.6875 196.335938 C 373.539062 199.390625 373.3125 202.4375 373.015625 205.484375 C 372.714844 208.527344 372.339844 211.5625 371.894531 214.585938 C 371.445312 217.613281 370.925781 220.625 370.328125 223.625 C 369.734375 226.625 369.0625 229.609375 368.324219 232.574219 C 367.582031 235.542969 366.765625 238.488281 365.882812 241.414062 C 364.996094 244.34375 364.039062 247.246094 363.007812 250.125 C 361.980469 253.003906 360.882812 255.855469 359.714844 258.683594 C 358.546875 261.507812 357.308594 264.304688 356.003906 267.070312 C 354.699219 269.832031 353.328125 272.566406 351.886719 275.261719 C 350.449219 277.960938 348.945312 280.621094 347.375 283.242188 C 345.804688 285.867188 344.171875 288.449219 342.476562 290.992188 C 340.78125 293.535156 339.023438 296.035156 337.207031 298.492188 C 335.386719 300.949219 333.507812 303.359375 331.574219 305.722656 C 329.636719 308.089844 327.644531 310.402344 325.59375 312.667969 C 323.542969 314.9375 321.4375 317.148438 319.28125 319.3125 C 317.121094 321.476562 314.910156 323.585938 312.648438 325.636719 C 310.386719 327.691406 308.078125 329.6875 305.71875 331.628906 C 303.359375 333.570312 300.953125 335.449219 298.5 337.273438 C 296.046875 339.09375 293.554688 340.855469 291.015625 342.554688 C 288.476562 344.253906 285.898438 345.890625 283.28125 347.460938 C 280.660156 349.035156 278.007812 350.542969 275.3125 351.984375 C 272.621094 353.425781 269.894531 354.800781 267.136719 356.109375 C 264.378906 357.414062 261.585938 358.652344 258.765625 359.824219 C 255.945312 360.996094 253.097656 362.09375 250.226562 363.125 C 247.351562 364.15625 244.453125 365.117188 241.53125 366.003906 C 238.609375 366.890625 235.667969 367.707031 232.707031 368.449219 C 229.746094 369.191406 226.769531 369.863281 223.777344 370.460938 C 220.78125 371.054688 217.773438 371.578125 214.753906 372.027344 C 211.734375 372.476562 208.707031 372.851562 205.667969 373.152344 C 202.632812 373.449219 199.585938 373.675781 196.539062 373.824219 C 193.488281 373.976562 190.4375 374.050781 187.386719 374.050781 C 184.332031 374.050781 181.28125 373.976562 178.234375 373.824219 C 175.183594 373.675781 172.140625 373.449219 169.105469 373.152344 C 166.066406 372.851562 163.035156 372.476562 160.015625 372.027344 C 156.996094 371.578125 153.992188 371.054688 150.996094 370.460938 C 148.003906 369.863281 145.027344 369.191406 142.0625 368.449219 C 139.101562 367.707031 136.160156 366.890625 133.242188 366.003906 C 130.320312 365.117188 127.421875 364.15625 124.546875 363.125 C 121.671875 362.09375 118.828125 360.996094 116.007812 359.824219 C 113.1875 358.652344 110.394531 357.414062 107.636719 356.109375 C 104.875 354.800781 102.152344 353.425781 99.457031 351.984375 C 96.765625 350.542969 94.109375 349.035156 91.492188 347.460938 C 88.875 345.890625 86.296875 344.253906 83.757812 342.554688 C 81.21875 340.855469 78.726562 339.09375 76.273438 337.273438 C 73.820312 335.449219 71.414062 333.570312 69.054688 331.628906 C 66.695312 329.6875 64.386719 327.691406 62.125 325.636719 C 59.859375 323.585938 57.652344 321.476562 55.492188 319.3125 C 53.335938 317.148438 51.230469 314.9375 49.179688 312.667969 C 47.128906 310.402344 45.136719 308.089844 43.199219 305.722656 C 41.261719 303.359375 39.386719 300.949219 37.566406 298.492188 C 35.75 296.035156 33.992188 293.535156 32.296875 290.992188 C 30.601562 288.449219 28.96875 285.867188 27.398438 283.242188 C 25.828125 280.621094 24.324219 277.960938 22.886719 275.261719 C 21.445312 272.566406 20.074219 269.832031 18.769531 267.070312 C 17.464844 264.304688 16.226562 261.507812 15.058594 258.683594 C 13.890625 255.855469 12.792969 253.003906 11.765625 250.125 C 10.734375 247.246094 9.777344 244.34375 8.890625 241.414062 C 8.007812 238.488281 7.191406 235.542969 6.449219 232.574219 C 5.707031 229.609375 5.039062 226.625 4.445312 223.625 C 3.847656 220.625 3.328125 217.613281 2.878906 214.585938 C 2.429688 211.5625 2.058594 208.527344 1.757812 205.484375 C 1.460938 202.4375 1.234375 199.390625 1.085938 196.335938 C 0.933594 193.28125 0.859375 190.222656 0.859375 187.164062 C 0.859375 184.105469 0.933594 181.050781 1.085938 177.996094 C 1.234375 174.941406 1.460938 171.890625 1.757812 168.847656 C 2.058594 165.804688 2.429688 162.769531 2.878906 159.742188 C 3.328125 156.71875 3.847656 153.707031 4.445312 150.707031 C 5.039062 147.707031 5.707031 144.722656 6.449219 141.753906 C 7.191406 138.789062 8.007812 135.84375 8.890625 132.914062 C 9.777344 129.988281 10.734375 127.085938 11.765625 124.207031 C 12.792969 121.324219 13.890625 118.472656 15.058594 115.648438 C 16.226562 112.820312 17.464844 110.027344 18.769531 107.261719 C 20.074219 104.496094 21.445312 101.765625 22.886719 99.066406 C 24.324219 96.371094 25.828125 93.710938 27.398438 91.085938 C 28.96875 88.464844 30.601562 85.878906 32.296875 83.335938 C 33.992188 80.792969 35.75 78.292969 37.566406 75.835938 C 39.386719 73.382812 41.261719 70.972656 43.199219 68.605469 C 45.136719 66.242188 47.128906 63.925781 49.179688 61.660156 C 51.230469 59.394531 53.335938 57.179688 55.492188 55.015625 C 57.652344 52.855469 59.859375 50.746094 62.125 48.691406 C 64.386719 46.636719 66.695312 44.640625 69.054688 42.699219 C 71.414062 40.761719 73.820312 38.878906 76.273438 37.058594 C 78.726562 35.234375 81.21875 33.476562 83.757812 31.777344 C 86.296875 30.078125 88.875 28.441406 91.492188 26.867188 C 94.109375 25.296875 96.765625 23.789062 99.457031 22.347656 C 102.152344 20.90625 104.875 19.53125 107.636719 18.222656 C 110.394531 16.914062 113.1875 15.675781 116.007812 14.503906 C 118.828125 13.335938 121.671875 12.234375 124.546875 11.203125 C 127.421875 10.175781 130.320312 9.214844 133.242188 8.328125 C 136.160156 7.4375 139.101562 6.625 142.0625 5.878906 C 145.027344 5.136719 148.003906 4.46875 150.996094 3.871094 C 153.992188 3.273438 156.996094 2.75 160.015625 2.300781 C 163.035156 1.855469 166.066406 1.480469 169.105469 1.179688 C 172.140625 0.878906 175.183594 0.65625 178.234375 0.503906 C 181.28125 0.355469 184.332031 0.28125 187.386719 0.28125 C 190.4375 0.28125 193.488281 0.355469 196.539062 0.503906 C 199.585938 0.65625 202.632812 0.878906 205.667969 1.179688 C 208.707031 1.480469 211.734375 1.855469 214.753906 2.300781 C 217.773438 2.75 220.78125 3.273438 223.777344 3.871094 C 226.769531 4.46875 229.746094 5.136719 232.707031 5.878906 C 235.667969 6.625 238.609375 7.4375 241.53125 8.328125 C 244.453125 9.214844 247.351562 10.175781 250.226562 11.203125 C 253.097656 12.234375 255.945312 13.335938 258.765625 14.503906 C 261.585938 15.675781 264.378906 16.914062 267.136719 18.222656 C 269.894531 19.53125 272.621094 20.90625 275.3125 22.347656 C 278.007812 23.789062 280.660156 25.296875 283.28125 26.867188 C 285.898438 28.441406 288.476562 30.078125 291.015625 31.777344 C 293.554688 33.476562 296.046875 35.234375 298.5 37.058594 C 300.953125 38.878906 303.359375 40.761719 305.71875 42.699219 C 308.078125 44.640625 310.386719 46.636719 312.648438 48.691406 C 314.910156 50.746094 317.121094 52.855469 319.28125 55.015625 C 321.4375 57.179688 323.542969 59.394531 325.59375 61.660156 C 327.644531 63.925781 329.636719 66.242188 331.574219 68.605469 C 333.511719 70.972656 335.386719 73.382812 337.207031 75.835938 C 339.023438 78.292969 340.78125 80.792969 342.476562 83.335938 C 344.171875 85.878906 345.804688 88.464844 347.375 91.085938 C 348.945312 93.710938 350.449219 96.371094 351.886719 99.066406 C 353.328125 101.765625 354.699219 104.496094 356.003906 107.261719 C 357.308594 110.027344 358.546875 112.820312 359.714844 115.648438 C 360.882812 118.472656 361.980469 121.324219 363.007812 124.207031 C 364.039062 127.085938 364.996094 129.988281 365.882812 132.914062 C 366.765625 135.84375 367.582031 138.789062 368.324219 141.753906 C 369.0625 144.722656 369.734375 147.707031 370.328125 150.707031 C 370.925781 153.707031 371.445312 156.71875 371.894531 159.742188 C 372.339844 162.769531 372.714844 165.804688 373.015625 168.847656 C 373.3125 171.890625 373.539062 174.941406 373.6875 177.996094 C 373.835938 181.050781 373.914062 184.105469 373.914062 187.164062 Z M 373.914062 187.164062 "/></g><path style=" stroke:none;fill-rule:nonzero;fill:#ffffff;fill-opacity:1;" d="M 280.613281 86.34375 L 252.492188 86.34375 C 246.164062 86.34375 243.449219 88.96875 243.449219 95.398438 L 243.449219 166.667969 L 131.414062 166.667969 L 131.414062 95.398438 C 131.414062 89.058594 128.792969 86.34375 122.371094 86.34375 L 94.066406 86.34375 C 87.648438 86.34375 85.023438 88.96875 85.023438 95.398438 L 85.023438 278.78125 C 85.023438 285.210938 87.648438 287.835938 94.066406 287.835938 L 122.371094 287.835938 C 128.699219 287.835938 131.414062 285.300781 131.414062 278.78125 L 131.414062 206.332031 L 243.539062 206.332031 L 243.539062 278.78125 C 243.539062 285.121094 246.164062 287.835938 252.582031 287.835938 L 280.707031 287.835938 C 287.035156 287.835938 289.75 285.210938 289.75 278.78125 L 289.75 95.398438 C 289.566406 89.242188 286.945312 86.34375 280.613281 86.34375 Z M 280.613281 86.34375 "/></g></svg>