<svg xmlns="http://www.w3.org/2000/svg" version="1.1" viewBox="0 0 512 512">
<path d="M0 0 C168.96 0 337.92 0 512 0 C512 168.96 512 337.92 512 512 C343.04 512 174.08 512 0 512 C0 343.04 0 174.08 0 0 Z " fill="#38355E" transform="translate(0,0)"/>
<path d="M0 0 C15.84 0 31.68 0 48 0 C48 22.77 48 45.54 48 69 C49.65 67.35 51.3 65.7 53 64 C58.42691798 59.01848782 63.96351383 54.46277016 71 52 C71.969375 51.649375 72.93875 51.29875 73.9375 50.9375 C81.11410628 48.74057971 88.18557663 48.78377718 95.625 48.75 C96.73746094 48.729375 97.84992188 48.70875 98.99609375 48.6875 C106.74614235 48.6514113 113.58137114 49.77088106 121 52 C121 52.66 121 53.32 121 54 C121.61875 54.144375 122.2375 54.28875 122.875 54.4375 C125 55 125 55 127 56 C127 56.66 127 57.32 127 58 C127.71542969 58.23976562 128.43085938 58.47953125 129.16796875 58.7265625 C132.42883963 60.19282996 134.6474343 61.99815622 137.3125 64.375 C138.19550781 65.14585937 139.07851563 65.91671875 139.98828125 66.7109375 C142 69 142 69 142 73 C142.66 73 143.32 73 144 73 C144 73.66 144 74.32 144 75 C144.99 75.33 145.98 75.66 147 76 C155.8182205 91.64522991 155.56036659 109.88802275 155.390625 127.2890625 C155.38314475 129.57261657 155.37746028 131.85617715 155.37347412 134.13973999 C155.35835818 140.08763019 155.31920074 146.03511625 155.2746582 151.98284912 C155.22611751 159.15257417 155.20810453 166.32243598 155.18484497 173.49227905 C155.14633873 184.32846526 155.06958693 195.1637685 155 206 C139.16 206 123.32 206 107 206 C106.96261719 199.74933594 106.92523438 193.49867188 106.88671875 187.05859375 C106.85640104 183.0709373 106.82522835 179.08332344 106.79101562 175.09570312 C106.73693154 168.7826568 106.6858136 162.4696947 106.65356445 156.15649414 C106.62733068 151.05995966 106.58679034 145.96371222 106.53681374 140.86735725 C106.52027954 138.93440415 106.50868238 137.00140155 106.50238609 135.06838799 C107.10045272 113.56402024 107.10045272 113.56402024 97.62109375 95.3203125 C96.02270474 93.92048553 96.02270474 93.92048553 94 93 C94 92.34 94 91.68 94 91 C87.00490914 89.16261316 80.65038156 88.75088688 73.4375 88.875 C72.42880859 88.88402344 71.42011719 88.89304687 70.38085938 88.90234375 C67.92031543 88.92566644 65.46029104 88.95839237 63 89 C63 89.66 63 90.32 63 91 C61.35546875 92.33203125 61.35546875 92.33203125 59.1875 93.8125 C53.46109946 97.99368134 51.60674897 102.11393299 50 109 C49.11166689 115.02742718 48.83897874 121.01515072 48.79467773 127.09985352 C48.78477814 127.95948196 48.77487854 128.81911041 48.76467896 129.70478821 C48.73338924 132.51280068 48.70843687 135.32083 48.68359375 138.12890625 C48.66299604 140.08902903 48.64199888 142.04914766 48.62062073 144.00926208 C48.5656908 149.14328623 48.51615449 154.27734851 48.46777344 159.41143799 C48.40846283 165.58488339 48.34239642 171.75825981 48.27747345 177.93164825 C48.17983035 187.28772301 48.09072402 196.64384407 48 206 C32.16 206 16.32 206 0 206 C0 138.02 0 70.04 0 0 Z " fill="#FCFCFC" transform="translate(127,152)"/>
<path d="M0 0 C22.77 0 45.54 0 69 0 C68.67 3.63 68.34 7.26 68 11 C67.82395532 14.11454942 67.66469248 17.22368687 67.53515625 20.33984375 C67.45654622 22.08138771 67.37776449 23.82292393 67.29882812 25.56445312 C67.18049071 28.23567129 67.06379698 30.90693484 66.95043945 33.57836914 C66.52816327 43.43361753 65.96918581 53.24838916 64.99609375 63.06640625 C64.91327652 63.9053392 64.83045929 64.74427216 64.74513245 65.60862732 C64.37264751 69.17222513 63.8858769 72.5258487 63 76 C62.80227272 77.79241842 62.63862558 79.58876357 62.5 81.38671875 C62.4175 82.40701172 62.335 83.42730469 62.25 84.47851562 C62.08242586 86.62948679 61.91576894 88.78052959 61.75 90.93164062 C61.6675 91.94806641 61.585 92.96449219 61.5 94.01171875 C61.4278125 94.94459717 61.355625 95.87747559 61.28125 96.83862305 C61 99 61 99 60 100 C59.60056824 102.52195967 59.24920152 105.02963656 58.9375 107.5625 C58.84662109 108.27341797 58.75574219 108.98433594 58.66210938 109.71679688 C58.43760497 111.47738403 58.21831603 113.23863478 58 115 C50.47030348 115.02526648 42.9406178 115.04283141 35.41088867 115.05493164 C32.84708243 115.0599737 30.28327909 115.06680714 27.71948242 115.07543945 C24.04344979 115.08751064 20.36745502 115.09322942 16.69140625 115.09765625 C15.53725723 115.10281754 14.38310822 115.10797882 13.19398499 115.11329651 C11.6024485 115.11340981 11.6024485 115.11340981 9.97875977 115.11352539 C9.03944107 115.115746 8.10012238 115.11796661 7.13233948 115.12025452 C5 115 5 115 4 114 C3.03494968 108.27750389 2.77622087 102.41559383 2.5 96.625 C2.4390918 95.39040039 2.4390918 95.39040039 2.37695312 94.13085938 C1.93120294 84.48208238 1.69342319 74.82617946 1.43850708 65.17086792 C1.21395017 56.66799632 0.94203875 48.17938461 0.4375 39.6875 C-0.15937417 26.47100049 0 13.22997045 0 0 Z " fill="#FDBADE" transform="translate(315,151)"/>
<path d="M0 0 C0 0.66 0 1.32 0 2 C0.86625 2.185625 1.7325 2.37125 2.625 2.5625 C8.08345098 4.88739579 10.90552901 8.44623435 13.23046875 13.87109375 C13.93140308 15.81700891 14.60275677 17.77393869 15.23828125 19.7421875 C15.79452599 21.94251431 15.79452599 21.94251431 17 23 C17.15493045 25.55635242 17.23176182 28.06709459 17.25 30.625 C17.270625 31.32496094 17.29125 32.02492188 17.3125 32.74609375 C17.35084367 37.91290332 16.30125884 41.37441205 14 46 C13.608125 46.825 13.21625 47.65 12.8125 48.5 C10.07243887 52.27939466 6.56871457 55.02380102 3 58 C2.46890625 58.49113281 1.9378125 58.98226562 1.390625 59.48828125 C-5.85504209 66.09118755 -15.46220177 65.81909406 -24.75390625 65.57421875 C-34.00643342 64.90109189 -43.45259577 60.38270978 -49.6875 53.4375 C-50.48409229 52.30942253 -51.25602447 51.1634511 -52 50 C-52.46664063 49.40058594 -52.93328125 48.80117188 -53.4140625 48.18359375 C-57.72122288 42.61316007 -58.14956506 38.04072576 -58.1875 31 C-58.20167969 29.80375 -58.21585937 28.6075 -58.23046875 27.375 C-57.86538352 22.02866716 -55.70457763 18.50762939 -53 14 C-52.773125 13.21625 -52.54625 12.4325 -52.3125 11.625 C-43.11905973 -6.76188054 -16.42408707 -5.60822485 0 0 Z " fill="#FBB9DD" transform="translate(367,295)"/>
<path d="M0 0 C15.84 0 31.68 0 48 0 C48 22.77 48 45.54 48 69 C48.99 69.495 48.99 69.495 50 70 C49.01 70 48.02 70 47 70 C47 47.23 47 24.46 47 1 C31.82 1 16.64 1 1 1 C1 67.99 1 134.98 1 204 C15.85 204 30.7 204 46 204 C45.97679687 197.77511719 45.95359375 191.55023438 45.9296875 185.13671875 C45.91945991 181.17642808 45.90983135 177.21615386 45.90234375 173.25585938 C45.89042109 166.97970162 45.87636639 160.70360262 45.84912109 154.42749023 C45.82727729 149.36354239 45.81540717 144.29965762 45.81024551 139.23566628 C45.80657038 137.31052471 45.79939414 135.38538631 45.78853989 133.46027184 C45.683789 114.09914241 45.683789 114.09914241 48 105 C48.99 104.67 49.98 104.34 51 104 C50.86042877 104.77143341 50.72085754 105.54286682 50.57705688 106.337677 C48.81558563 117.11960538 48.65275599 127.71628482 48.5859375 138.6171875 C48.56718611 140.57016786 48.54760988 142.52314046 48.5272522 144.47610474 C48.47634392 149.56894309 48.43649958 154.6618076 48.39910889 159.75476074 C48.35169794 165.89081808 48.29028036 172.0267499 48.23126221 178.16270447 C48.14355478 187.44175115 48.0734299 196.72077996 48 206 C32.16 206 16.32 206 0 206 C0 138.02 0 70.04 0 0 Z " fill="#D3D3E0" transform="translate(127,152)"/>
<path d="M0 0 C0.33 0 0.66 0 1 0 C-0.06722817 41.6652819 -0.06722817 41.6652819 -2.5 50.89746094 C-3.09500224 53.39949186 -3.30229643 55.82252995 -3.5 58.38671875 C-3.5825 59.40701172 -3.665 60.42730469 -3.75 61.47851562 C-3.91757414 63.62948679 -4.08423106 65.78052959 -4.25 67.93164062 C-4.3325 68.94806641 -4.415 69.96449219 -4.5 71.01171875 C-4.5721875 71.94459717 -4.644375 72.87747559 -4.71875 73.83862305 C-5 76 -5 76 -6 77 C-6.39943176 79.52195967 -6.75079848 82.02963656 -7.0625 84.5625 C-7.15337891 85.27341797 -7.24425781 85.98433594 -7.33789062 86.71679688 C-7.56239503 88.47738403 -7.78168397 90.23863478 -8 92 C-15.52969652 92.02526648 -23.0593822 92.04283141 -30.58911133 92.05493164 C-33.15291757 92.0599737 -35.71672091 92.06680714 -38.28051758 92.07543945 C-41.95655021 92.08751064 -45.63254498 92.09322942 -49.30859375 92.09765625 C-50.46274277 92.10281754 -51.61689178 92.10797882 -52.80601501 92.11329651 C-54.3975515 92.11340981 -54.3975515 92.11340981 -56.02124023 92.11352539 C-56.96055893 92.115746 -57.89987762 92.11796661 -58.86766052 92.12025452 C-61 92 -61 92 -62 91 C-65.49948655 70.09524825 -64.11570109 48.11099856 -64 27 C-63.67 27 -63.34 27 -63 27 C-62.56766588 34.04315378 -62.14105825 41.0866384 -61.71826172 48.13037109 C-61.57404469 50.52205084 -61.42856015 52.91365453 -61.28173828 55.30517578 C-61.06983201 58.76054537 -60.86262218 62.21617099 -60.65625 65.671875 C-60.59062866 66.72550232 -60.52500732 67.77912964 -60.45739746 68.86468506 C-60.39733521 69.88483704 -60.33727295 70.90498901 -60.27539062 71.95605469 C-60.22209595 72.83541687 -60.16880127 73.71477905 -60.1138916 74.62078857 C-59.94120663 79.74442373 -60 84.87345562 -60 90 C-43.17 90 -26.34 90 -9 90 C-8.16771118 76.7523149 -8.16771118 76.7523149 -7.4375 63.5 C-7.37272461 62.24896484 -7.37272461 62.24896484 -7.30664062 60.97265625 C-7.20366582 58.98181006 -7.1017096 56.99091123 -7 55 C-6.34 55 -5.68 55 -5 55 C-5.05220703 54.08347656 -5.05220703 54.08347656 -5.10546875 53.1484375 C-5.34106464 45.18305252 -4.35949088 37.60874058 -3.21435547 29.74121094 C-1.79019504 19.85784023 -0.86440431 9.94573425 0 0 Z " fill="#C397BB" transform="translate(381,174)"/>
<path d="M0 0 C22.77 0 45.54 0 69 0 C69 1.98 69 3.96 69 6 C68.505 4.02 68.505 4.02 68 2 C46.22 2 24.44 2 2 2 C2 17.84 2 33.68 2 50 C1.67 50 1.34 50 1 50 C-0.10116834 33.28583776 0 16.80801728 0 0 Z " fill="#C093BA" transform="translate(315,151)"/>
<path d="M0 0 C0.33 0 0.66 0 1 0 C-0.06655143 41.63886158 -0.06655143 41.63886158 -2.49780273 50.89526367 C-3.09709785 53.40694241 -3.3207164 55.84859683 -3.53515625 58.421875 C-3.62216797 59.44667969 -3.70917969 60.47148437 -3.79882812 61.52734375 C-3.88583984 62.59082031 -3.97285156 63.65429688 -4.0625 64.75 C-4.19881836 66.36841797 -4.19881836 66.36841797 -4.33789062 68.01953125 C-4.56151274 70.67945748 -4.78210596 73.33959943 -5 76 C-5.33 76 -5.66 76 -6 76 C-5.72367569 59.2403965 -5.36257192 42.72140841 -2.765625 26.1328125 C-1.88247123 20.48458278 -1.33137399 14.81674469 -0.8125 9.125 C-0.7287915 8.20750977 -0.64508301 7.29001953 -0.55883789 6.34472656 C-0.36885297 4.23014737 -0.18382972 2.11512318 0 0 Z " fill="#8F6B91" transform="translate(381,174)"/>
<path d="M0 0 C1.32 0.33 2.64 0.66 4 1 C4.33 3.31 4.66 5.62 5 8 C5.99 8.33 6.98 8.66 8 9 C12.52898352 29.6662355 12.52898352 29.6662355 10 38 C7.5625 40.5625 7.5625 40.5625 5 42 C4.34 42 3.68 42 3 42 C3.28875 41.29875 3.5775 40.5975 3.875 39.875 C6.094756 34.20229023 7.38884203 29.31150633 7.375 23.1875 C7.37411377 22.48189941 7.37322754 21.77629883 7.37231445 21.04931641 C7.23933242 15.17785592 5.95503016 10.98859931 3 6 C2.4225 4.824375 1.845 3.64875 1.25 2.4375 C0.8375 1.633125 0.425 0.82875 0 0 Z " fill="#57436B" transform="translate(376,303)"/>
<path d="M0 0 C0 0.66 0 1.32 0 2 C-0.84949219 1.67386719 -1.69898438 1.34773437 -2.57421875 1.01171875 C-10.78018956 -1.41170935 -20.62024765 -0.46313136 -29 1 C-31.8334743 2.51462733 -31.8334743 2.51462733 -34 4 C-34.66 3.67 -35.32 3.34 -36 3 C-34.625 1.5 -34.625 1.5 -33 0 C-32.34 0 -31.68 0 -31 0 C-31 -0.66 -31 -1.32 -31 -2 C-20.62045406 -4.00165427 -9.8036726 -4.20157397 0 0 Z " fill="#6E6E84" transform="translate(221,243)"/>
<path d="M0 0 C0 0.99 0 1.98 0 3 C-0.66 3.66 -1.32 4.32 -2 5 C-2.60311615 6.68761858 -3.13850237 8.40014476 -3.625 10.125 C-3.88539063 11.03507812 -4.14578125 11.94515625 -4.4140625 12.8828125 C-4.60742188 13.58148438 -4.80078125 14.28015625 -5 15 C-5.66 15 -6.32 15 -7 15 C-7 17.31 -7 19.62 -7 22 C-7.66 22 -8.32 22 -9 22 C-8.34 27.28 -7.68 32.56 -7 38 C-7.66 37.67 -8.32 37.34 -9 37 C-10.14488837 33.03299825 -10.16536601 29.10806808 -10.1875 25 C-10.20167969 23.80375 -10.21585937 22.6075 -10.23046875 21.375 C-9.86538352 16.02866716 -7.70457763 12.50762939 -5 8 C-4.67 7.13375 -4.34 6.2675 -4 5.375 C-2.98218886 2.95769855 -1.96537696 1.69737101 0 0 Z " fill="#BB93BC" transform="translate(319,301)"/>
<path d="M0 0 C-7.39425768 4.40811516 -12.48666085 5.18140488 -21.0625 5.1875 C-21.97322266 5.19974609 -22.88394531 5.21199219 -23.82226562 5.22460938 C-25.13420898 5.22750977 -25.13420898 5.22750977 -26.47265625 5.23046875 C-27.26937744 5.23457764 -28.06609863 5.23868652 -28.88696289 5.24291992 C-31 5 -31 5 -34 3 C-33.46375 3.02320313 -32.9275 3.04640625 -32.375 3.0703125 C-26.76457908 3.19949982 -21.31130211 2.80092394 -15.75 2.125 C-14.74066406 2.00729248 -14.74066406 2.00729248 -13.7109375 1.88720703 C-10.53413627 1.47833513 -7.68111465 0.89246889 -4.640625 -0.1328125 C-2 -1 -2 -1 0 0 Z " fill="#C498C1" transform="translate(368,355)"/>
<path d="M0 0 C1.32 0.33 2.64 0.66 4 1 C3.06027344 1.72316406 3.06027344 1.72316406 2.1015625 2.4609375 C1.28429687 3.09257812 0.46703125 3.72421875 -0.375 4.375 C-1.18710937 5.00148438 -1.99921875 5.62796875 -2.8359375 6.2734375 C-5.8876713 8.70821429 -7.26363692 10.34466568 -8.5 14 C-9.42741645 16.7419269 -9.90626198 17.90626198 -12 20 C-12.69748583 21.31747324 -13.36959957 22.64914193 -14 24 C-13.125 16.375 -13.125 16.375 -12 13 C-11.34 13 -10.68 13 -10 13 C-9.67 11.35 -9.34 9.7 -9 8 C-8.34 8 -7.68 8 -7 8 C-6.34 6.68 -5.68 5.36 -5 4 C-4.34 4 -3.68 4 -3 4 C-3 3.34 -3 2.68 -3 2 C-2.01 2 -1.02 2 0 2 C0 1.34 0 0.68 0 0 Z " fill="#513D64" transform="translate(323,295)"/>
<path d="M0 0 C-3.24232519 3.24232519 -7.91328299 2.79938164 -12.32226562 3.2109375 C-14.22251526 3.41114545 -16.11307444 3.69909493 -18 4 C-18.33 4.66 -18.66 5.32 -19 6 C-21.90259811 7.3749149 -23.76138705 8 -27 8 C-27 8.66 -27 9.32 -27 10 C-28.65 10.33 -30.3 10.66 -32 11 C-23.79523756 1.8007209 -11.79843519 -0.2034213 0 0 Z " fill="#B8B8C7" transform="translate(218,201)"/>
<path d="M0 0 C-1.67346268 2.05439697 -2.54914507 2.92386737 -5.20483398 3.37231445 C-6.04344971 3.3693335 -6.88206543 3.36635254 -7.74609375 3.36328125 C-9.12571289 3.36231445 -9.12571289 3.36231445 -10.53320312 3.36132812 C-11.49162109 3.34521484 -12.45003906 3.32910156 -13.4375 3.3125 C-14.86932617 3.31733398 -14.86932617 3.31733398 -16.33007812 3.32226562 C-24.09139433 3.26252141 -24.09139433 3.26252141 -28 1 C-25.62342233 -0.18828884 -24.21694188 -0.10078759 -21.5703125 -0.0625 C-20.25353516 -0.05089844 -20.25353516 -0.05089844 -18.91015625 -0.0390625 C-17.06119638 -0.01313038 -15.21223802 0.01291035 -13.36328125 0.0390625 C-12.04263672 0.05066406 -12.04263672 0.05066406 -10.6953125 0.0625 C-9.89109863 0.07410156 -9.08688477 0.08570313 -8.25830078 0.09765625 C-5.99131962 0.07907203 -5.99131962 0.07907203 -3.83154297 -0.56640625 C-2 -1 -2 -1 0 0 Z " fill="#5D4570" transform="translate(363,359)"/>
<path d="M0 0 C1.22879883 0.01160156 1.22879883 0.01160156 2.48242188 0.0234375 C3.29001953 0.01570313 4.09761719 0.00796875 4.9296875 0 C9.2880709 0.01427808 12.70314365 0.24579427 16.66992188 2.2734375 C16.66992188 2.9334375 16.66992188 3.5934375 16.66992188 4.2734375 C8.41992188 3.6134375 0.16992188 2.9534375 -8.33007812 2.2734375 C-5.66219234 -0.39444829 -3.62952468 0.01194905 0 0 Z " fill="#7B5C83" transform="translate(346.330078125,289.7265625)"/>
<path d="M0 0 C1.32 0.33 2.64 0.66 4 1 C4.33 3.31 4.66 5.62 5 8 C5.99 8.33 6.98 8.66 8 9 C9.65497356 12.30994713 9.10084335 15.99123 9.0625 19.625 C9.05798828 20.42679687 9.05347656 21.22859375 9.04882812 22.0546875 C9.03703168 24.03649006 9.01909605 26.01825433 9 28 C8.67 28 8.34 28 8 28 C7.96132813 26.74896484 7.96132813 26.74896484 7.921875 25.47265625 C7.5498264 18.09087375 6.51789898 12.48856923 3 6 C2.4225 4.824375 1.845 3.64875 1.25 2.4375 C0.8375 1.633125 0.425 0.82875 0 0 Z " fill="#755980" transform="translate(376,303)"/>
<path d="M0 0 C0.36723164 4.52919021 0.36723164 4.52919021 -1.21875 6.5625 C-3.30795847 8.24852789 -5.12601734 8.90791832 -7.6875 9.6875 C-8.49574219 9.93886719 -9.30398438 10.19023437 -10.13671875 10.44921875 C-10.75160156 10.63097656 -11.36648438 10.81273437 -12 11 C-3.91176471 0 -3.91176471 0 0 0 Z " fill="#70537C" transform="translate(379,345)"/>
<path d="M0 0 C1.36995117 0.02707031 1.36995117 0.02707031 2.76757812 0.0546875 C4.99203514 0.10127299 7.21416967 0.16664515 9.4375 0.25 C9.4375 0.58 9.4375 0.91 9.4375 1.25 C8.78676514 1.3001123 8.13603027 1.35022461 7.46557617 1.40185547 C4.51792989 1.63392045 1.57153991 1.87930221 -1.375 2.125 C-2.39916016 2.20363281 -3.42332031 2.28226562 -4.47851562 2.36328125 C-5.95288086 2.48896484 -5.95288086 2.48896484 -7.45703125 2.6171875 C-8.81598511 2.72716064 -8.81598511 2.72716064 -10.20239258 2.83935547 C-12.82232527 3.13153961 -12.82232527 3.13153961 -15.5625 5.25 C-17.75 4.875 -17.75 4.875 -19.5625 4.25 C-12.89296433 0.6333849 -7.52847985 -0.28722007 0 0 Z " fill="#DBB0D6" transform="translate(345.5625,291.75)"/>
<path d="M0 0 C0.73605469 0.00451172 1.47210938 0.00902344 2.23046875 0.01367188 C4.02868158 0.02534858 5.82685197 0.04327989 7.625 0.0625 C7.625 0.3925 7.625 0.7225 7.625 1.0625 C1.025 1.3925 -5.575 1.7225 -12.375 2.0625 C-12.705 3.0525 -13.035 4.0425 -13.375 5.0625 C-16.4375 6.25 -16.4375 6.25 -19.375 7.0625 C-18 5.0625 -18 5.0625 -16.375 3.0625 C-15.715 3.0625 -15.055 3.0625 -14.375 3.0625 C-14.375 2.4025 -14.375 1.7425 -14.375 1.0625 C-9.51770355 0.08950844 -4.9249375 -0.05788805 0 0 Z " fill="#B0B1BF" transform="translate(204.375,239.9375)"/>
<path d="M0 0 C6.7281627 -0.22262303 12.53991163 0.04978464 19 2 C19 2.33 19 2.66 19 3 C12.34949576 3.24991456 6.43013467 2.73955334 0 1 C0 0.67 0 0.34 0 0 Z " fill="#C8C6D6" transform="translate(225,201)"/>
<path d="M0 0 C0.33 0 0.66 0 1 0 C1.11381955 6.76594019 0.88021369 13.28837062 0 20 C-0.33 20 -0.66 20 -1 20 C-2.12067256 12.88221482 -1.7958955 6.97579243 0 0 Z " fill="#DDB0D6" transform="translate(381,163)"/>
<path d="M0 0 C0.66 0.33 1.32 0.66 2 1 C1.40606618 2.29640378 0.79942011 3.58698839 0.1875 4.875 C-0.14894531 5.59429687 -0.48539063 6.31359375 -0.83203125 7.0546875 C-2 9 -2 9 -5 11 C-4.46884894 6.48521602 -2.63379708 3.65333143 0 0 Z " fill="#767589" transform="translate(183,247)"/>
<path d="M0 0 C0 3.63306931 -1.07932067 4.97123644 -3 8 C-3.68096422 9.32608822 -4.35330586 10.65686601 -5 12 C-4.125 4.375 -4.125 4.375 -3 1 C-2.01 0.67 -1.02 0.34 0 0 Z " fill="#6B5379" transform="translate(314,307)"/>
<path d="M0 0 C1.32 0.33 2.64 0.66 4 1 C4 1.66 4 2.32 4 3 C4.66 3.33 5.32 3.66 6 4 C4.37419034 3.88601335 2.74932843 3.75844341 1.125 3.625 C0.22007812 3.55539062 -0.68484375 3.48578125 -1.6171875 3.4140625 C-4 3 -4 3 -6 1 C-3.03 1.495 -3.03 1.495 0 2 C0 1.34 0 0.68 0 0 Z " fill="#DFB1D9" transform="translate(336,355)"/>
<path d="M0 0 C4.92127034 -0.16682272 8.50343896 -0.24828052 13 2 C13 2.66 13 3.32 13 4 C10.36 3.67 7.72 3.34 5 3 C5 2.34 5 1.68 5 1 C3.35 1 1.7 1 0 1 C0 0.67 0 0.34 0 0 Z " fill="#65486E" transform="translate(350,290)"/>
<path d="M0 0 C0.66 0 1.32 0 2 0 C2.33 0.66 2.66 1.32 3 2 C5.02463255 2.65213292 5.02463255 2.65213292 7 3 C7 4.32 7 5.64 7 7 C3.17053157 5.54744301 1.87949705 3.57104439 0 0 Z " fill="#D1A5CC" transform="translate(316,345)"/>
<path d="M0 0 C-1.24176695 0.70226141 -2.49385599 1.38629109 -3.75 2.0625 C-4.79414063 2.63677734 -4.79414063 2.63677734 -5.859375 3.22265625 C-8.36140628 4.1312406 -9.5332355 3.88336837 -12 3 C-10.5682384 2.30062798 -9.12932968 1.61587282 -7.6875 0.9375 C-6.48673828 0.36322266 -6.48673828 0.36322266 -5.26171875 -0.22265625 C-3 -1 -3 -1 0 0 Z " fill="#AD8AB0" transform="translate(338,293)"/>
<path d="M0 0 C0.66 0.33 1.32 0.66 2 1 C0.71937515 2.7074998 -0.61767557 4.37373596 -2 6 C-2.66 6 -3.32 6 -4 6 C-4 6.66 -4 7.32 -4 8 C-4.66 7.67 -5.32 7.34 -6 7 C-4.02 4.69 -2.04 2.38 0 0 Z " fill="#C9C9D7" transform="translate(184,212)"/>
<path d="M0 0 C-5.2734375 3.22265625 -5.2734375 3.22265625 -7 4 C-7.66 3.67 -8.32 3.34 -9 3 C-6.38220849 -0.01046024 -3.86655673 -1.93327837 0 0 Z " fill="#B68DB4" transform="translate(368,355)"/>
<path d="M0 0 C-1.125 1.5625 -1.125 1.5625 -3 3 C-6.1875 2.6875 -6.1875 2.6875 -9 2 C-3.42857143 -1.71428571 -3.42857143 -1.71428571 0 0 Z " fill="#503E67" transform="translate(363,359)"/>
</svg>