<svg xmlns="http://www.w3.org/2000/svg" xml:space="preserve" id="Layer_1" x="0" y="0" version="1.1" viewBox="0 0 1918.2 512"><style>.st0{fill:#288fc9}</style><path d="M763.1 439.7V512H597.3v-.2H525V.2h72.3v439.5zM1594.7.1h72.3v511.7h-72.3z" class="st0"/><path d="M1918.2 511.8H1820l-165.1-204.6h97.8zm-16.6-387.5h-98l-146.8 182.9h95.9z" class="st0"/><path d="M351.3.2v511.6H279V289.9H72.3v221.9H0V.2h72.3v217.3H279V.2zm45 123.6h72.3v388.1h-72.3zm0-123.8h72.3v81h-72.3z" style="fill:#727171"/><path d="M1159.8 285.2h-63c-14.4-55.2-63.3-95.8-121.5-95.8-58.1 0-107.1 40.6-121.5 95.8h-63C806.3 194.7 883 126 975.3 126s169.1 68.7 184.5 159.2m0 67.6c-15.5 90.4-92.2 159-184.5 159s-168.9-68.6-184.4-159h63c14.5 55.2 63.4 95.7 121.5 95.7s107-40.6 121.5-95.7z" class="st0"/><path d="M1034.9 318.9c0 12.5-3.7 24.2-9.9 33.9-10.7 16.5-28.9 27.4-49.6 27.4s-38.9-10.9-49.6-27.4c-6.3-9.7-9.9-21.4-9.9-33.9s3.6-24.1 9.9-33.7c10.7-16.6 28.9-27.5 49.6-27.5 20.8 0 39 10.9 49.7 27.5 6.1 9.7 9.8 21.2 9.8 33.7m531 33.9c-15.5 90.4-92.2 159-184.5 159s-168.9-68.6-184.4-159h63c14.5 55.2 63.4 95.7 121.5 95.7s107-40.6 121.5-95.7zm.1-67.6h-63c-14.4-55.2-63.3-95.8-121.5-95.8-58.1 0-107.1 40.6-121.5 95.8h-63c15.5-90.5 92.2-159.2 184.5-159.2s169 68.7 184.5 159.2" class="st0"/><path d="M1441 318.9c0 12.5-3.7 24.2-9.9 33.9-10.7 16.5-28.9 27.4-49.6 27.4s-38.9-10.9-49.6-27.4c-6.3-9.7-9.9-21.4-9.9-33.9s3.6-24.1 9.9-33.7c10.7-16.6 28.9-27.5 49.6-27.5 20.8 0 39 10.9 49.7 27.5 6.2 9.7 9.8 21.2 9.8 33.7" class="st0"/></svg>