<svg xmlns="http://www.w3.org/2000/svg" xmlns:xlink="http://www.w3.org/1999/xlink" xml:space="preserve" id="svg1" x="0" y="0" version="1.1" viewBox="0 0 512 512"><style>.st0{fill:none}.st4{fill:#fff}.st10{fill:#03ff5a;stroke:#d602ff;stroke-width:11.3386;stroke-linecap:round;stroke-linejoin:round;stroke-miterlimit:11.3386}.st12{fill:#d602ff}.st13,.st20{fill:none;stroke:#000;stroke-width:6.9874;stroke-linecap:round;stroke-linejoin:round;stroke-miterlimit:11.3386}.st20{stroke-width:.9043}.st23{fill:#ffef95;fill-opacity:.7686}</style><pattern id="pattern73" width="595.3" height="841.9" x="-41.6" y="676.9" patternUnits="userSpaceOnUse" style="overflow:visible" viewBox="0 -841.9 595.3 841.9"><path d="M0-841.9h595.3V0H0z" class="st0"/></pattern><pattern id="pattern74" width="595.3" height="841.9" x="-41.6" y="676.9" patternUnits="userSpaceOnUse" style="overflow:visible" viewBox="0 -841.9 595.3 841.9"><path d="M0-841.9h595.3V0H0z" class="st0"/></pattern><g id="layer3"><linearGradient id="path31_00000024721746299733973390000015051477428736380838_" x1="30.073" x2="3.329" y1="546.667" y2="582.458" gradientTransform="matrix(2.8346 0 0 -2.8346 89.233 1708.4)" gradientUnits="userSpaceOnUse"><stop offset="0" style="stop-color:#ffd90b"/><stop offset="1" style="stop-color:#ffed99"/></linearGradient><path id="path31" d="M103.1 160.5c16.9-53.6 70.7-68.6 70.7-68.6 46.8 14.5 64.3 59.9 64.3 59.9-33 37.6-119.4 20.6-135 8.7" style="fill:url(#path31_00000024721746299733973390000015051477428736380838_)"/><linearGradient id="path32_00000176028242318136264290000007974875056273468844_" x1="-1.554" x2="-13.965" y1="546.821" y2="568.88" gradientTransform="matrix(2.8346 0 0 -2.8346 89.233 1708.4)" gradientUnits="userSpaceOnUse"><stop offset="0" style="stop-color:#ffd90b"/><stop offset="1" style="stop-color:#ffed99"/></linearGradient><path id="path32" d="M21.6 152.8c27.7-48.4 55.2-56.9 55.2-56.9 22.9 4.6 47 24.9 47 24.9l-20.7 39.6c-13.5 12.1-48 10.1-81.5-7.6" style="fill:url(#path32_00000176028242318136264290000007974875056273468844_)"/><pattern xlink:href="#pattern74" id="path35_00000014634109589930362890000000773797652108575142_" patternTransform="matrix(.5803 0 0 -.5803 -3404.391 -13720.618)"/><path id="path35" d="m244.8 172.5 1.5 52.4c53.7 13.7 69 24.1 108.2 60l23.2-41.2-46.4-71.1h-86.5z" style="fill:url(#path35_00000014634109589930362890000000773797652108575142_)"/><path id="path42" d="M21.6 152.8s55.4 31.2 81.5 7.7c0 0-17.6 54.9 3 112.9-49 29.4-75.2 20.4-75.2 20.4s-62.2-7.9-9.3-141" class="st4"/><path id="path43" d="M238.1 151.8c-6.7 13.1-85.2 37.5-135 8.7-7.9 68.6-17.5 105.3 28.8 128.1-8.1-113.7 82.6-103.3 114.4-104.3-2-15.8-8.2-32.5-8.2-32.5" class="st4"/><path id="path33" d="M96.2 187.4C-6.5 168.1 5.4 269.1 5.4 269.1c35.3 48.1 100.7 4.3 100.7 4.3-15.6-37.8-9.9-86-9.9-86"/><path id="path34" d="M246.3 184.3c-159-52.3-140.2 89.1-140.2 89.1 40.2 33.5 120.5-19.4 120.5-19.4 17-21.8 18.9-30.1 19.7-69.7"/><linearGradient id="path38_00000054261854082172605040000011702927912479611579_" x1="35.67" x2="21.911" y1="486.78" y2="512.044" gradientTransform="matrix(2.8346 0 0 -2.8346 89.233 1708.4)" gradientUnits="userSpaceOnUse"><stop offset="0" style="stop-color:#ffd90b"/><stop offset="1" style="stop-color:#ffed99"/></linearGradient><path id="path38" d="m176.6 283.4 30-14.4c8.7 36.5-5.1 70.2-22 87.4l-30.6-5.6c16.6-14 20.5-46.6 22.6-67.4" style="fill:url(#path38_00000054261854082172605040000011702927912479611579_)"/><linearGradient id="path37_00000161602324917584621010000002506137619385023886_" x1="72.626" x2="55.466" y1="493.358" y2="518.658" gradientTransform="matrix(2.8346 0 0 -2.8346 89.233 1708.4)" gradientUnits="userSpaceOnUse"><stop offset="0" style="stop-color:#ffd90b"/><stop offset="1" style="stop-color:#ffed99"/></linearGradient><path id="path37" d="M262.3 227.4c5.1 41.2-6.7 77.8-13 98.6h36.3s27.1-46.1 25.4-76.6z" style="fill:url(#path37_00000161602324917584621010000002506137619385023886_)"/><path id="path27" d="m331.3 326 11.8 21.1c5.5-51.8 40.2-65 40.2-65l-11.1-28.8z" class="st4"/><path id="path21" d="M335.2 328.4c21-30.4 39.1-29.1 54.7-31.2l18.6 13.7-51.9 52.4z"/><path id="path22" d="M364.2 374.7c30.1-27.8 37.8-34.1 78-36.5l48.3 32.3-14.4 29.9h-98.4z"/><pattern xlink:href="#pattern73" id="path23_00000117649585539504581380000005943148080602382762_" patternTransform="matrix(.5803 0 0 -.5803 -3404.391 -13720.618)"/><path id="path23" d="M377.7 243.6v11.2c49.2-11.2 51.6 51.1 51.6 51.1 41.3-4.1 74.4 37.3 74.4 37.3L512 326l-35.9-82.4z" style="fill:url(#path23_00000117649585539504581380000005943148080602382762_)"/><linearGradient id="path24_00000089539931282803493660000004936642605873411753_" x1="111.446" x2="96.398" y1="501.776" y2="514.216" gradientTransform="matrix(2.8346 0 0 -2.8346 89.233 1708.4)" gradientUnits="userSpaceOnUse"><stop offset="0" style="stop-color:#ffd90b"/><stop offset="1" style="stop-color:#ffed99"/></linearGradient><path id="path24" d="M372.2 253.3s13.1 32.9 36.2 57.5l20.9-4.9c7.9-39.7-57.1-52.6-57.1-52.6" style="fill:url(#path24_00000089539931282803493660000004936642605873411753_)"/><linearGradient id="path25_00000097484216042049711060000003999297226685321617_" x1="134.673" x2="123.885" y1="484.632" y2="498.332" gradientTransform="matrix(2.8346 0 0 -2.8346 89.233 1708.4)" gradientUnits="userSpaceOnUse"><stop offset="0" style="stop-color:#ffd90b"/><stop offset="1" style="stop-color:#ffed99"/></linearGradient><path id="path25" d="M429.3 305.9s12.1 46 61.2 64.7l13.2-27.4c-15.8-33.7-74.4-37.3-74.4-37.3" style="fill:url(#path25_00000097484216042049711060000003999297226685321617_)"/><path id="path26" d="m429.3 305.9 15.6 38.2s-32.3-17.1-80.6 30.6l-7.7-11.4c23.6-53.7 72.7-57.4 72.7-57.4" class="st4"/><path id="path28" d="M310.9 249.5c-3.3 42.2-22 65.2-32.1 76.6h52.6l23.2-41.2z"/><path id="path29" d="M251.5 322.2c10.7-20.1 17.6-63.9 10.8-94.7l-16-2.6-39.7 44.2c7.3 24.7-4.3 61.2-22 87.4l25.4-3.8 16.3-26.6z"/><path id="path30" d="M176.6 283.4c3.2 27.2-13.1 64.3-22.7 67.5l-26.2-24.5 37.3-39.1z"/><path id="path39" d="m226.2 326 105.1.3 46.4 74.2-46.4 85.1H227.5l-47.1-85.1z" class="st4"/><g id="g43"><path id="path8" d="m244.5 367.2 77.3 86.3" class="st10"/><path id="path9" d="m237.7 453.7 76.6-86.6" class="st10"/></g><linearGradient id="path41_00000167354520327266560850000001598784585750925738_" x1="6.31" x2="-5.661" y1="479.34" y2="498.767" gradientTransform="matrix(2.8346 0 0 -2.8346 89.233 1708.4)" gradientUnits="userSpaceOnUse"><stop offset="0" style="stop-color:#ffd90b"/><stop offset="1" style="stop-color:#ffed99"/></linearGradient><path id="path41" d="m79.5 290.7 26.6-17.3c14.7 12.3 29.4 14 58.9 13.9 0 0-67.1 79.8-105.1 142z" style="fill:url(#path41_00000167354520327266560850000001598784585750925738_)"/></g><g id="layer2"><path id="path2" d="M50.8 264.4c-5.6 0-10.1 9.9-10.1 22 0 1.4.1 2.7.2 4h19.7c.1-1.3.2-2.7.2-4 .1-12.1-4.4-22-10-22" class="st12"/><path id="path2-6" d="M164.2 254.6c-5.6 0-10.1 9.9-10.1 22 0 1.4.1 2.7.2 4H174c.1-1.3.2-2.7.2-4 .1-12.2-4.4-22-10-22" class="st12"/><path id="path2-6-6" d="M367 336.2c-2.5-4.9-13.4-4.5-24.2 1.1-1.2.6-2.4 1.3-3.5 2l9 17.6c1.2-.5 2.5-1.1 3.7-1.7 10.8-5.6 17.5-14.1 15-19" class="st12"/><path id="path2-6-6-9-3" d="M400.5 380.8c-2.9-4.7-13.7-3.4-24 3-1.1.7-2.3 1.5-3.3 2.3l10.4 16.8c1.2-.6 2.4-1.2 3.5-2 10.3-6.3 16.3-15.3 13.4-20.1" class="st12"/><path id="path1" d="M244.8 172.5h86.5l46.4 71.1-46.4 82.4H226.2l-45.8 74.5 47.1 85.1h103.8l46.4-85.1h98.4L512 326l-35.9-82.4h-98.4" class="st13"/><path id="path5" d="m331.3 326 50.3 74.5h0" class="st13"/><path id="path10" d="M354.5 284.8c-45.3-56.3-108.2-60-108.2-60m-116.6 104c24.5 44.9 80.2 23.9 80.2 23.9" class="st13"/><path id="path11" d="M246.3 224.8s6.2-35.1-8.1-73.1c-57.7-127-160.9-23.2-142.1 92.5 15.3 94.8 145 18.7 150.2-19.4" class="st13"/><path id="path12" d="M123.8 120.9c-16.7-19.3-32.2-26.3-46.2-25-49 4.4-79.8 110.3-77.5 147.7 10.7 98.6 106 29.7 106 29.7" class="st13"/><path id="path13" d="M21.6 152.8c10.2 10.1 71.2 28.1 81.5 7.7 27.3 28.8 138.5 14.1 135-8.7" class="st13"/><path id="path15" d="M200.8 69.6s-65.2-19.6-77 51.3C118.9 62.7 147 50.3 147 50.3" class="st13"/><path id="path14" d="M79.5 290.7 59.9 429.3s50.4-93.3 105.1-142" class="st13"/><circle id="path16" cx="145.9" cy="50.9" r="6.4" class="st13"/><circle id="path16-6" cx="200.6" cy="69.5" r="6.4" class="st13"/><path id="path17" d="M372.2 253.3c34.8 3.1 52.2 12.2 57 52.6 46.8-5.6 74.4 37.3 74.4 37.3" class="st13"/><path id="path18" d="M429.3 305.9s-45.8.4-72.8 57.3" class="st13"/><path id="path19" d="M429.3 305.9c4.6 22.7 19.4 52.4 61.2 64.7" class="st13"/><path id="path20" d="M372.2 253.3c1.5 15.4 6.5 24.5 16.8 36.5 5.1 5.9 11.4 12.6 19.3 21" class="st13"/><linearGradient id="path36_00000077325105693410298580000002520941509560583296_" x1="77.922" x2="71.554" y1="458.963" y2="466.774" gradientTransform="matrix(2.8346 0 0 -2.8346 89.233 1708.4)" gradientUnits="userSpaceOnUse"><stop offset="0" style="stop-color:#ffd90b"/><stop offset="1" style="stop-color:#ffed99"/></linearGradient><path id="path36" d="M337.2 336.6c-26.4 3.8-84.2 54.6-100.5 84.9 72-21.3 134.2-33.9 134.2-33.9z" style="fill:url(#path36_00000077325105693410298580000002520941509560583296_);stroke:#000;stroke-width:6.9874;stroke-linecap:round;stroke-linejoin:round;stroke-miterlimit:11.3386"/><path id="path3" d="M151 26.4c8.9-.6 14.4 3.7 17.5 12.1" style="fill:none;stroke:#000;stroke-width:1.0346;stroke-linecap:round;stroke-linejoin:round;stroke-miterlimit:11.3386"/><path id="path3-6" d="M40.5 104c4.4-7.1 22.6-18.3 36.9-19.5" style="fill:none;stroke:#000;stroke-width:1.2497;stroke-linecap:round;stroke-linejoin:round;stroke-miterlimit:11.3386"/><path id="path3-6-6" d="M57.6 86.4c4.1-2.8 11.1-4.7 15.1-4.9" style="fill:none;stroke:#000;stroke-width:.9014;stroke-linecap:round;stroke-linejoin:round;stroke-miterlimit:11.3386"/><path id="path3-7" d="M221.7 59.3c3.7 1.7 6.5 8.4 1.8 15.1" style="fill:none;stroke:#000;stroke-width:1.131;stroke-linecap:round;stroke-linejoin:round;stroke-miterlimit:11.3386"/><path id="path3-5" d="M150.5 32.9c5-.9 9.8 4 10.4 8.2" style="fill:none;stroke:#000;stroke-width:1.046;stroke-linecap:round;stroke-linejoin:round;stroke-miterlimit:11.3386"/><path id="path3-5-2" d="M217.5 62.7c2.5 1.8 3.1 6.8.6 9.5" class="st20"/><path id="path4" d="M51.2 385c-1.3 5.1-5 31.8-4.5 37.1" class="st20"/><path id="path4-9" d="M44.5 406.4c-1 3.1-2 14-2 14" style="fill:none;stroke:#000;stroke-width:.7795;stroke-linecap:round;stroke-linejoin:round;stroke-miterlimit:11.3386"/><path id="path6" d="M111.1 282.5c-6.1 11-9 24.6-9 24.6" class="st13"/><path id="path6-3" d="M346.4 359.6c-12.1 5.2-17.7 10.6-17.7 10.6" class="st13"/></g><g id="layer4"><path id="path90" d="M80.6 193.2c-47-6.1-64 33.6-64.4 59.3 2 1.7 8.3 3.5 13.5 3.8 1.9-21.6 9.7-58.1 50.9-63.1" style="fill:#fff;fill-opacity:.1843"/><path id="path90-2" d="M96.7 111.4c-27.4-19.4-55.9 27.7-58 36 1.3 1.6 12.1 2.1 17.2 1.5 3.2-8 16.2-41.7 40.8-37.5" class="st23"/><path id="path90-2-7" d="M183.4 110.7c-27.4-19.4-60.2 34.6-62.3 42.8 1.3 1.6 13.9 2.7 17.8 1.9 3.3-7.9 19.6-44.3 44.5-44.7" class="st23"/><path id="path90-5" d="M186.3 182.3c-57-1.4-71.1 42.8-70 78.9 3.9 5.6 8.7 5.5 20.2 5.8-1.4-27.6-1.1-74.1 49.8-84.7" style="fill:#fff;fill-opacity:.1857"/><path id="path7" d="m88.9 296.8-12.5 86.3s13.8-77.7 20.3-90.4c.1 0-4.3 1.1-7.8 4.1" class="st23"/><path id="path7-2" d="M331.7 348.7c-17.6 5.1-45.1 29.4-71 55.5 0 0 59-45.9 74.9-50.5.1 0-1.6-3.9-3.9-5" style="fill:#fff5b9;fill-opacity:.9283"/><path id="path40" d="M268.3 241.1c14.2 3.2 27.4 9.5 37.2 16.2-.1 7.4-2.6 15-4.5 18.2-5-7.1-28.8-12.8-32.5-12.6 1.2-5.7 2.3-13.2-.2-21.8" style="fill:#ffef95;fill-opacity:.7679"/><path id="path40-9" d="M206.5 280.6c-.1 7.4-.7 16-2.6 19.3-6.3 3.1-18.2 4-23.7 3.6.6-5.9.1-4.4.1-10.9 5.8-1.4 17.8-7.3 26.2-12" style="fill:#2a2300;fill-opacity:.1657"/><path id="path44" d="M382.7 263.7c2.5 5.8 9.8 15.7 9.8 15.7 4.8-4.1 5.5-7 6.4-10.7-4.5-2.3-11.1-4.2-16.2-5m60.5 52.4c2.5 5.8 7.1 13.4 9.8 17.2 4.4-.3 7.7-8.5 7.7-12.2-4.5-2.3-11.4-5.1-17.5-5" class="st23"/></g></svg>