<svg xmlns="http://www.w3.org/2000/svg" xml:space="preserve" viewBox="0 0 512 512"><g fill="#fff" transform="translate(-66.273 -133.534)scale(1.36454)"><circle cx="271" cy="320.2" r="152.7" style="stroke:#fff;stroke-width:.3356;stroke-miterlimit:15.472"/><path d="m135.7 251.7-4 15.1-30.9-8.2-7.5 28.4 30.9 8.2-4 15.1-71.6-19 4-15.1 28.1 7.5 7.5-28.4-28.1-7.5 4-15.1zm23.1-72.7c3.5 3.1 6.2 6.4 8 9.8 1.9 3.4 3 6.8 3.3 10.3q.45 5.1-1.5 10.2c-1.3 3.4-3.4 6.6-6.3 9.8-2.6 2.9-5.5 5.3-8.7 6.9s-6.5 2.5-10 2.6-7.1-.6-10.8-2c-3.6-1.5-7.2-3.8-10.7-6.9-4.7-4.2-7.9-8.5-9.6-13.1-1.8-4.6-2.1-9.1-1.1-13.8 1.1-4.6 3.5-9 7.3-13.3 3.6-4 7.5-6.7 12-8.2 4.4-1.5 9-1.7 13.9-.6 4.8 1.4 9.5 4.1 14.2 8.3m-26 29.1q4.2 3.75 7.8 5.4c2.4 1 4.7 1.4 6.8.9s4-1.7 5.9-3.8c1.8-2.1 2.9-4.1 3-6.2q.3-3.3-1.8-6.6c-1.4-2.3-3.4-4.7-6.2-7.2s-5.4-4.3-7.8-5.3c-2.4-1.1-4.6-1.4-6.7-1-2.1.5-4 1.7-5.9 3.8-2.7 3-3.6 6.2-2.8 9.5 1 3.3 3.5 6.8 7.7 10.5m72.6-23.8-13.4 7.8-39.6-68.1 13.4-7.8zm29.4-11.5-14.7 4.9-24.8-74.8L210 98zm67.1-33.9c0 4.7-.6 8.9-1.9 12.6-1.2 3.7-3 6.8-5.4 9.4-2.3 2.5-5.2 4.4-8.6 5.8-3.4 1.3-7.2 1.9-11.5 1.9-3.9 0-7.6-.6-11-1.8-3.3-1.3-6.2-3.2-8.6-5.7s-4.4-5.6-5.8-9.3c-1.3-3.7-2-7.8-2-12.5 0-6.3 1-11.6 3.2-15.9 2.2-4.4 5.3-7.7 9.5-10 4.1-2.3 9-3.5 14.7-3.5q7.95 0 14.1 3.3c4.1 2.3 7.3 5.6 9.7 9.9 2.3 4.2 3.5 9.5 3.6 15.8m-39.1.2c0 3.7.4 6.9 1.2 9.4q1.2 3.75 3.9 5.7c1.7 1.2 4 1.8 6.8 1.8s5-.7 6.6-1.9c1.7-1.3 3-3.2 3.7-5.7.8-2.6 1.2-5.7 1.2-9.4s-.5-6.8-1.3-9.3-2-4.3-3.8-5.6c-1.7-1.2-4-1.8-6.8-1.8-4.1 0-7 1.5-8.9 4.3-1.8 2.7-2.7 6.9-2.6 12.5"/></g></svg>