<svg xmlns="http://www.w3.org/2000/svg" xmlns:xlink="http://www.w3.org/1999/xlink" version="1.1" id="編集モード" x="0px" y="0px" style="enable-background:new 0 0 132.4 98.1;" xml:space="preserve" viewBox="0.1 0 132.2 98.32">
<style type="text/css">
	.st0{fill:#808B93;}
</style>
<path class="st0" d="M81.2,85.8c-1.7,0.2-1.4-2.1-1.3-2.4c0.3-2.7,4.6-9.1,7.8-9.1c0.5,0,0.9,0.1,1.1,0.4c0.2,0.2,0.3,0.5,0.3,1  c0,0.2,0,0.3,0,0.5C88.8,78.6,84.1,85.6,81.2,85.8 M64,85.6c-0.4,0-0.8-0.1-1-0.4c-0.3-0.3-0.4-0.9-0.3-1.6c0.4-3.4,4.8-9.3,7.6-9.3  c0.5,0,0.9,0.1,1.2,0.4c0.3,0.3,0.4,0.8,0.3,1.4C71.4,79.1,66.9,85.6,64,85.6 M36.9,76c-0.3,2.8-4.8,10.6-8.3,10.6  c-0.4,0-0.7-0.1-0.9-0.3c-0.3-0.3-0.3-0.8-0.3-1.4c0.3-2.8,4.8-10.6,8.3-10.6c0.4,0,0.7,0.1,0.9,0.3C36.9,74.9,36.9,75.3,36.9,76   M107.4,69.1c0.9-1.2,1.7-3.1,2.9-3.3l0-0.3h-0.6h-4.1h-6.3l-0.4,0.7c0,0,5.8,0,6,0c0.4,0,0.9,0.2,0.5,0.9c0,0-6.4,9.8-6.7,10.3  c0,0-0.1,0.1-0.1,0.2c-1.2,1.3-3.4,3.7-4.8,5c-2.4,2.1-4.6,3.5-5.6,3.5c-0.3,0-0.4-0.1-0.5-0.2c-0.1-0.1-0.1-0.3-0.1-0.6  c0.2-1.6,2.9-5,5-7.7c1.1-1.3,2-2.5,2.5-3.3l0.1-0.2l-3.9,0.2c0,0-0.8,1-0.9,1.3c-0.5-1.4-1.3-2-2.8-2c-4.3,0-10,4.7-11,9  c0,0-0.7,0.7-0.7,0.7c-2.5,2.3-4.3,3.1-5.1,3.1c-0.2,0-0.3-0.1-0.4-0.2c-0.1-0.1-0.1-0.3-0.1-0.6c0.2-1.9,1.1-3.1,4.7-7.9  c0,0,7.6-10.2,9.2-10.4l0-0.1c-1-0.2-2.5,0.2-4.1,1.2c-2.8,1.8-5.6,5.5-6.3,6.4c-0.4,0.6-0.5,0.6-0.6,0.9c-0.4-1.3-1.4-2-2.9-2  c-3.4,0-7.7,2.8-9.9,6.3c-1,1-1.9,1.9-2.7,2.7c-3.4,3.2-4.7,3.5-5,3.5c-0.3,0-0.4-0.1-0.6-0.2c-0.1-0.1-0.2-0.4-0.1-0.6  c0.1-1.2,1.4-2.6,2.7-4.2c1.5-1.7,3-3.5,3.2-5.2c0.1-0.7-0.1-1.3-0.4-1.7c-0.4-0.4-1-0.7-1.7-0.7c-2.7,0-6,2.9-8.1,5  c1.5-1.8,3.7-4.4,3.8-4.6l-3.9,0.1c0,0-4.6,3.8-6.4,5.1c-0.9,0.6-1.8,1.1-2.6,1.6c0.4-0.7,2.4-3.9,0.5-6c-0.7-0.8-1.8-1.2-3.1-1.2  c-4.6,0-10.8,4.3-11.4,9.3c-0.1,1.2,0,4.2,3.8,4.2c3.5,0.1,7.2-2.1,9.6-5.4c1.2-0.6,2.5-1.4,3.8-2.3c1.3-0.9,3.2-2.4,4.6-3.6  c-1.4,1.9-8,11-8,11l0.2,0l3.3-0.1l0,0c2.2-3.5,9.5-12.1,12.2-12.1c0.3,0,0.5,0.1,0.6,0.2c0.1,0.1,0.2,0.3,0.1,0.5  c-0.1,0.9-1.3,2.3-2.5,3.7c-1.5,1.7-3.2,3.6-3.4,5.4c-0.1,0.7,0.1,1.3,0.5,1.8c0.4,0.5,1.1,0.7,1.9,0.7c1.8,0,3.3-0.9,6.2-3.5  c0.6-0.6,1.3-1.2,2-1.9c-0.2,0.6-1.2,3.1,0.2,4.7c0.5,0.5,1.2,0.8,2.1,0.8c1.9,0,3.7-0.8,5.5-2.5c-0.1,0.2-0.1,0.5-0.1,0.7  c0,0.5,0.1,0.9,0.4,1.2c0.4,0.5,1.1,0.8,2,0.8c2.3,0,4.3-1.4,6.7-3.6c0,0.2,0,0.3,0,0.5c0,1,0.3,3.2,2.8,3.2c1.7,0,3.7-1,5.5-2.7  c-0.1,0.2-0.1,0.4-0.1,0.6c0,0.1,0,0.2,0,0.3c0,0.4,0.1,0.8,0.4,1.2c0.4,0.4,1,0.7,1.8,0.7c1.9,0,4.1-1.2,7-3.8  c0.9-0.8,2-1.9,3.3-3.3c-3.2,5-9.9,15.3-11.7,16.8c-0.7,0.6-1.3,0.9-1.8,1l0,0.2c2.1,0.2,4.2-0.9,6.9-3.7  C94.8,90.1,105.7,71.4,107.4,69.1 M113.9,74.2c0.3,0,0.5,0.1,0.6,0.2c0.1,0.1,0.1,0.2,0.1,0.4c0,0,0,0.1,0,0.2  c-0.3,2.2-3.9,4.9-7.6,5.7C108,78.3,111.7,74.2,113.9,74.2 M132.3,68.5l0-0.1c-3.2-0.4-6.8,3.5-8.7,5.8h-2.9l-0.6,0.8h2.7  c-0.9,1.2-1.7,2.3-2.4,3.3c-1,1.1-2.6,2.7-4.3,4.1c-2.6,2.1-5.2,3.3-7.1,3.4c-2.4,0-2.7-1.9-2.7-2.7c0-0.2,0-0.4,0-0.5  c0-0.3,0.1-0.7,0.3-1.2c0.1,0,0.3-0.1,0.3-0.1c2.7-0.6,10-2.1,10.4-5.4c0-0.1,0-0.2,0-0.3c0-0.5-0.1-0.9-0.4-1.2  c-0.5-0.6-1.4-0.8-2.6-0.8c-4.4,0-11,4.6-11.6,9.2c-0.2,1.3,0.1,4.4,3.9,4.4c3.1,0,6.2-1.3,9.3-3.8c0.8-0.6,1.5-1.3,2.3-2  c-0.8,1.2-1.3,2.2-1.4,3.2c0,0.1,0,0.2,0,0.4c0,0.5,0.1,0.9,0.4,1.3c0.6,0.6,1.5,0.7,2.2,0.8c2.4,0.1,5.2-2.3,5.2-2.3l-0.4-0.4  c0,0-2.6,1.8-3.8,1.8c-0.2,0-0.4-0.1-0.5-0.2c-0.1-0.1-0.2-0.3-0.2-0.5c0-0.1,0-0.1,0-0.2c0.1-1.1,1.4-2.8,4.7-7.4  c0,0,2-2.8,2.1-2.9h4.5l0.5-0.8h-4.5c1.8-2.5,3.1-4,3.7-4.6C131.4,68.9,131.8,68.6,132.3,68.5 M18.8,85.1c0,0,13.8-22.4,17.1-23.5  l0-0.2c-1-0.1-2.3,0.2-3.9,1.1c-2.6,1.5-6.8,7.3-9.8,11.8h-7.7c0.7-1.1,5.6-8.9,5.6-8.9H9.7l-0.4,0.7c0,0,5.8,0,6,0  c0.4,0,0.9,0.2,0.5,0.9c0,0-11.6,18.4-13.9,20.4c-0.7,0.6-1.3,0.9-1.8,1l0,0.2c1.2,0,2.3-0.2,3.8-1.1C7.5,85.4,11.4,79.3,14,75h7.7  c-1,1.5-1.9,3-2.7,4.3c-1.7,2.8-2.7,4.4-3.9,5.5c-1.2,1.1-3.5,1.3-3.5,1.3l-0.4,0.7h9.9l0.4-0.7L20.5,86  C18.4,85.9,18.6,85.4,18.8,85.1"/>
<path class="st0" d="M97.6,6c-5,2.9-10.7,11.1-16.4,19.8h-5.9C80.1,18.4,86,9.1,87.6,6.7c1.5-2.3,3.3-5.8,5.4-6.2L92.9,0H72.3  l-0.8,1.3c0,0,11,0,11.3,0c0.7,0,1.7,0.4,0.9,1.8L69,25.8h-5.1C65.1,23.7,74.4,9,74.4,9H54.9l-0.8,1.3c0,0,11,0,11.3,0  c0.7,0,1.7,0.4,0.9,1.8c0,0-21.7,34.7-26.2,38.5c-1.2,1.1-2.4,1.7-3.4,1.9l0,0.4c2.2,0,4.3-0.3,7.2-2.1c6.9-4.2,14.4-15.6,19.3-23.8  h5l-0.3,0.4c-6,9.4-18.7,29-22,31.8c-1.2,1.1-2.4,1.7-3.4,1.9l0,0.4c2.2,0,4.3-0.3,7.2-2.1C56.6,55.3,64,43.9,69,35.7  c0,0,2.4-3.8,5.6-8.7h5.9c-1.8,2.8-3.5,5.6-5.1,8.1c-3.3,5.4-5.1,8.8-7.3,11c-2.2,2.1-4.7,1.9-4.7,1.9l-0.7,1.3h18.3l0.7-1.3  l-3.6-0.1c-3.9-0.2-3.5-1.1-3.3-1.7c0,0,8.4-14.5,16.6-26.2C101.9,4.8,103.9,4.4,105,4.2l0-0.3C103,3.8,100.5,4.3,97.6,6"/>
</svg>