<svg xmlns="http://www.w3.org/2000/svg" xml:space="preserve" viewBox="0 0 512 512"><path d="M114.3 0h283.3C460.8 0 512 51.2 512 114.3v283.3c0 63.1-51.2 114.3-114.3 114.3H114.3C51.2 512 0 460.8 0 397.7V114.3C0 51.2 51.2 0 114.3 0" style="fill:#08110f"/><radialGradient id="a" cx="-49.761" cy="651.891" r=".621" gradientTransform="matrix(-634.4763 885.8025 983.9684 704.7899 -672506.688 -415360.531)" gradientUnits="userSpaceOnUse"><stop offset="0" style="stop-color:#00d196;stop-opacity:.5"/><stop offset=".997" style="stop-color:#00d196;stop-opacity:0"/></radialGradient><path d="M114.3 0h283.3C460.8 0 512 51.2 512 114.3v283.3c0 63.1-51.2 114.3-114.3 114.3H114.3C51.2 512 0 460.8 0 397.7V114.3C0 51.2 51.2 0 114.3 0" style="fill:url(#a);fill-opacity:.5"/><linearGradient id="b" x1="251.74" x2="251.74" y1="380.272" y2="131.728" gradientTransform="matrix(1 0 0 -1 0 512)" gradientUnits="userSpaceOnUse"><stop offset="0" style="stop-color:#00d196"/><stop offset="1" style="stop-color:#00b381"/></linearGradient><path d="M270.6 287.8c-3.7 8.4-15.2 11.4-25.5 6.7-10.4-4.6-15.8-15.1-12.1-23.5s15.2-11.4 25.5-6.7c10.4 4.7 15.8 15.2 12.1 23.5" style="fill:url(#b)"/><radialGradient id="c" cx="-49.706" cy="651.851" r=".621" gradientTransform="matrix(-593.2333 216.107 131.825 361.8717 -115016.867 -224930.516)" gradientUnits="userSpaceOnUse"><stop offset="0" style="stop-color:#fff"/><stop offset="1" style="stop-color:#fff;stop-opacity:0"/></radialGradient><path d="M270.6 287.8c-3.7 8.4-15.2 11.4-25.5 6.7-10.4-4.6-15.8-15.1-12.1-23.5s15.2-11.4 25.5-6.7c10.4 4.7 15.8 15.2 12.1 23.5" style="fill:url(#c)"/><linearGradient id="d" x1="337.316" x2="337.316" y1="380.272" y2="131.728" gradientTransform="matrix(1 0 0 -1 0 512)" gradientUnits="userSpaceOnUse"><stop offset="0" style="stop-color:#00d196"/><stop offset="1" style="stop-color:#00b381"/></linearGradient><path d="M332.8 323.8c10.9 3.1 21.7-1.4 24.2-10.2 2.5-8.7-4.3-18.4-15.2-21.5s-21.7 1.4-24.2 10.2 4.3 18.4 15.2 21.5" style="fill:url(#d)"/><radialGradient id="e" cx="-49.706" cy="651.851" r=".621" gradientTransform="matrix(-593.2333 216.107 131.825 361.8717 -115016.867 -224930.516)" gradientUnits="userSpaceOnUse"><stop offset="0" style="stop-color:#fff"/><stop offset="1" style="stop-color:#fff;stop-opacity:0"/></radialGradient><path d="M332.8 323.8c10.9 3.1 21.7-1.4 24.2-10.2 2.5-8.7-4.3-18.4-15.2-21.5s-21.7 1.4-24.2 10.2 4.3 18.4 15.2 21.5" style="fill:url(#e)"/><linearGradient id="f" x1="173.199" x2="173.199" y1="380.272" y2="131.728" gradientTransform="matrix(1 0 0 -1 0 512)" gradientUnits="userSpaceOnUse"><stop offset="0" style="stop-color:#00d196"/><stop offset="1" style="stop-color:#00b381"/></linearGradient><path d="M181.9 221c9.6 6 13.5 17.1 8.7 24.8s-16.5 9.1-26.1 3.1-13.5-17.1-8.7-24.8 16.5-9.1 26.1-3.1" style="fill:url(#f)"/><radialGradient id="g" cx="-49.706" cy="651.851" r=".621" gradientTransform="matrix(-593.2333 216.107 131.825 361.8717 -115016.867 -224930.516)" gradientUnits="userSpaceOnUse"><stop offset="0" style="stop-color:#fff"/><stop offset="1" style="stop-color:#fff;stop-opacity:0"/></radialGradient><path d="M181.9 221c9.6 6 13.5 17.1 8.7 24.8s-16.5 9.1-26.1 3.1-13.5-17.1-8.7-24.8 16.5-9.1 26.1-3.1" style="fill:url(#g)"/><linearGradient id="h" x1="255.934" x2="255.934" y1="380.272" y2="131.728" gradientTransform="matrix(1 0 0 -1 0 512)" gradientUnits="userSpaceOnUse"><stop offset="0" style="stop-color:#00d196"/><stop offset="1" style="stop-color:#00b381"/></linearGradient><path d="M312.1 143.7c49.1 21.9 80.6 69.6 81.9 122.8 28.9 22.7 57.6 54.6 44.3 84.6-15 33.6-68.3 32.3-129 15.2-29.2 16.2-65.5 18.9-98.2 4.3-32.8-14.6-55-43.4-62.5-75.9-53.2-33.7-90-72.4-75-106 13.4-30 56.2-30 92.5-23.7 40.4-34.6 96.9-43.1 146-21.3M99 200.1c-7.3 16.3 31.8 62.7 138.9 110.4 107 47.7 167.7 45.7 174.9 29.3 6-13.5-18.8-39.5-47.1-59.7-22.1-15.8-52.3-33.2-91.8-50.7-10.7-4.8-14.9-17.5-10.4-27.7 4.5-10.1 14.4-16.9 35.3-17.9 9.8 0 11.1-2.8 11.6-5.1.6-3.6-4.4-7.3-9.6-9.6-41-18.2-91.1-10.6-125.9 26-34-7.5-69.8-8.5-75.9 5" style="fill-rule:evenodd;clip-rule:evenodd;fill:url(#h)"/><radialGradient id="i" cx="-49.706" cy="651.851" r=".621" gradientTransform="matrix(-593.2333 216.107 131.825 361.8717 -115016.867 -224930.516)" gradientUnits="userSpaceOnUse"><stop offset="0" style="stop-color:#fff"/><stop offset="1" style="stop-color:#fff;stop-opacity:0"/></radialGradient><path d="M312.1 143.7c49.1 21.9 80.6 69.6 81.9 122.8 28.9 22.7 57.6 54.6 44.3 84.6-15 33.6-68.3 32.3-129 15.2-29.2 16.2-65.5 18.9-98.2 4.3-32.8-14.6-55-43.4-62.5-75.9-53.2-33.7-90-72.4-75-106 13.4-30 56.2-30 92.5-23.7 40.4-34.6 96.9-43.1 146-21.3M99 200.1c-7.3 16.3 31.8 62.7 138.9 110.4 107 47.7 167.7 45.7 174.9 29.3 6-13.5-18.8-39.5-47.1-59.7-22.1-15.8-52.3-33.2-91.8-50.7-10.7-4.8-14.9-17.5-10.4-27.7 4.5-10.1 14.4-16.9 35.3-17.9 9.8 0 11.1-2.8 11.6-5.1.6-3.6-4.4-7.3-9.6-9.6-41-18.2-91.1-10.6-125.9 26-34-7.5-69.8-8.5-75.9 5" style="fill-rule:evenodd;clip-rule:evenodd;fill:url(#i)"/></svg>