<svg xmlns="http://www.w3.org/2000/svg" xml:space="preserve" id="Layer_1" x="0" y="0" version="1.1" viewBox="0 0 512 512"><style>.st4{fill:#bdbdbd}.st11{fill:#303030}</style><circle cx="256" cy="256" r="256" style="fill:#ffb74d"/><g id="raven"><path d="M185.4 114c-48.7.6-102.8 18.7-110.6 21.7 11.6-.8 22.2 1 24.8 5.4-6.7 3.4-57.4 31.8-74.4 44.6 10.6-1 16.1 2.4 16.1 2.4q-21 13.95-38.4 28.5c-2 12.8-3 26-3 39.4 0 123.4 87.3 226.4 203.5 250.6 32.2-75.6 32.8-173.3 100.3-214.3 24.9-13.2 101.3-53.1 182.6-43 0 0 .2-15.6-22.2-36.3s-61.2-31-84.8-35.9c-23.6-4.8-68.3-3.5-72.2-10.7-4-7.2-5.7-17-17.1-25.9s-50.2-25.9-100-26.5z" style="fill:#212121"/><path d="M250.4 174.8c-3.6 0-6.4 2.9-6.4 6.4 0 3.6 2.9 6.4 6.4 6.4 3.6 0 6.5-2.9 6.5-6.4 0-3.6-2.9-6.4-6.5-6.4" style="fill:#fafafa"/><path d="M240 173.1c-7.2 2-12.7 8.4-12.7 16.3 0 9.5 7.7 17.2 17.2 17.2s17.2-7.7 17.2-17.2c0-7.2-4.4-13.3-10.7-15.9.8.5 1.6.8 2.2 1.5q1.5 1.5 2.4 3.6t.9 4.5c0 1.6-.3 3-.9 4.4q-.9 2.1-2.4 3.6c-1.5 1.5-2.2 1.9-3.6 2.4q-2.1.9-4.5.9c-1.6 0-3-.3-4.4-.9q-2.1-.9-3.6-2.4c-1.5-1.5-1.9-2.2-2.4-3.6-.6-1.4-.8-2.8-.8-4.4s.3-3.1.8-4.5q.9-2.1 2.4-3.6c.9-.9 1.9-1.4 2.9-1.9" style="fill:#ffc107"/><path d="M293 154.6c7.7 10.6 5.3 18.6 13.7 21.9 8.2 3 49.5 1.8 91.6 13.4s62.5 29.8 73.1 44.2c-39.4-4.7-121.8 1.6-163.6 14.9-29.5 9.3-46.2 17.9-47.7 11.3-5.1-22 21.4-64.4 10.1-82 13.4 5.7 22.6-8.8 22.8-23.7" class="st4"/><path d="M252.8 244.7s-6.7 14.4-1.8 22.3c5 7.9 11.7 7.9 46-3.8s94.6-23.7 155.6-23.1c-92.9 9.4-150.6 28.4-175.8 37.8s-33.7 3.2-37.2-6.4c-3.5-9.8 1.5-20.4 13.2-26.8" class="st4"/><path d="M184.5 124.8c-20.3.1-43.7 2-70.2 6.2 23.7 4.1 27.8 12 27.8 12s-46.6 8.8-87 34.9c13.8-.6 19 5.6 19 5.6-27 17.6-52.1 35.8-73.6 56-.3 5.4-.5 10.9-.5 16.5 0 65.1 24.3 124.6 64.4 169.8 2.9-1.9 4.8-3 4.8-3-.6 2.2-1.1 4.4-1.6 6.6 12.7 13.8 26.8 26.1 42.2 36.9 6.7-5.4 11.5-8.4 11.5-8.4s1.3 6.2 1.8 17.1c8.7 5.3 17.6 10 26.9 14.3 2-7.1 2.1-11.2 2.1-11.2s2.6 5.1 5 14.3c5.4 2.3 10.9 4.3 16.5 6.2 2.4-34.4-11.4-60.6-2.7-113.4 0 0-18 39.6-33.8 48.7-8.6-42.2.3-138.7 109.1-213.8-39.5 7.7-72.8-29.4-122.4-13.7 48.7-28 71.7-40.1 105.9-42.4s40.9 8.6 48.7 4.9c7.4-3.5 8.5-13.6 5.2-19.7-5.1-9.9-38.2-24.7-99.1-24.4" style="fill:#424242"/><path d="M228.2 141.1c-41.6-.5-100.4 9-142.7 34.8 17.3-.3 20.8 6.1 20.8 6.1s-60.9 41.3-89.8 72.5c19.9-9.1 37.8-6.2 37.8-6.2-21.8 17-38.3 33.4-50.9 49.6 3.5 21.4 9.7 41.9 18.1 61.1 12.1-8 19.9-10.4 19.9-10.4-5 9.1-8.9 18-12 26.7 8 15.1 17.4 29.3 28.1 42.4 20-14.4 38.5-21.2 38.5-21.2-4.6 14.2-8.8 32.5-10.2 50.6 5 4.5 10.3 8.8 15.6 12.9 4.6-3.8 10.2-7.8 17.7-13-19.6-94.3 58.1-195.9 106.2-220.6-28.8 2.6-83.8-45.8-141.4 15 27.4-40.6 71.5-71.1 122.4-83 47.9-11.2 66.4 10.3 71.8-1 4.3-9.5-17.5-15.9-49.9-16.3" style="fill:#616161"/><path d="M246.4 219.9C137.5 295 128.7 391.5 137.2 433.7 153.1 424.6 171 385 171 385c7.2-47.8 8.8-102.1 75.4-165.1" style="fill:#b71c1c"/></g><g id="headset"><path d="M141.8 163.9c-34.3 0-62.2 27.8-62.2 62.2s27.8 62.2 62.2 62.2 62.2-27.8 62.2-62.2-27.8-62.2-62.2-62.2" style="fill:#898989"/><path d="M131.6 243.8s61.5 62.9 219.8 57.3c6.7-12.4 2-10.7 2-10.7s-130 2.9-194.7-77.5c-31.8 3.1-27.1 30.9-27.1 30.9" style="fill:#4c4c4c"/><path d="M353.8 282.4c-7.6 0-13.8 6.2-13.8 13.8s6.2 13.8 13.8 13.8 13.8-6.2 13.8-13.8c.1-7.6-6.1-13.8-13.8-13.8" style="fill:#b5b5b5"/><path d="M95.2 108.3c-14.1 0-25.5 11.4-25.5 25.5 0 4.1 1 8 2.8 11.5l.3.5s0 .1.1.2l46.4 91.7 45.5-23-46.7-92.3h-.1c-4.3-8.4-12.9-14.1-22.8-14.1" class="st11"/><path d="M141.8 192.1c-18.8 0-34 15.2-34 34s15.2 34 34 34 34-15.2 34-34c.1-18.8-15.2-34-34-34" class="st11"/></g></svg>