<svg xmlns="http://www.w3.org/2000/svg" xmlns:xlink="http://www.w3.org/1999/xlink" version="1.1" xml:space="preserve" style="fill-rule:evenodd;clip-rule:evenodd;stroke-linejoin:round;stroke-miterlimit:1.41421;" viewBox="6 5.97 107.79 115.98">
    <g id="layer1" transform="matrix(1,0,0,1,-306.5,-507.557)">
        <g>
            <g transform="matrix(1,0,0,1,306.5,507.557)">
                <path d="M10.583,35.127C9.723,34.698 8.939,34.12 8.276,33.423C7.457,32.562 6.829,31.524 6.444,30.4C6.241,29.805 6.106,29.188 6.042,28.562C6.014,28.284 6.004,28.005 6,27.726L6,14.264C6.004,13.984 6.014,13.706 6.042,13.427C6.113,12.732 6.272,12.047 6.515,11.392C6.952,10.212 7.66,9.137 8.572,8.27C9.433,7.452 10.47,6.823 11.595,6.439C12.189,6.236 12.807,6.101 13.432,6.037C13.711,6.009 13.989,5.998 14.269,5.995C18.826,5.995 23.384,5.94 27.94,5.997C28.22,6.008 28.498,6.026 28.776,6.061C29.469,6.149 30.15,6.326 30.798,6.585C31.902,7.025 32.906,7.705 33.724,8.567C34.543,9.428 35.171,10.465 35.556,11.589C35.759,12.184 35.894,12.802 35.958,13.427C35.986,13.706 35.996,13.984 36,14.264L36,27.726C35.996,28.005 35.986,28.284 35.958,28.562C35.894,29.188 35.759,29.805 35.556,30.4C35.149,31.591 34.468,32.683 33.578,33.573C32.947,34.203 32.215,34.729 31.417,35.127L31.417,113.188C31.411,113.319 31.411,113.45 31.398,113.58C31.372,113.841 31.321,114.098 31.245,114.349C31.055,114.976 30.71,115.552 30.246,116.015C29.876,116.386 29.433,116.682 28.949,116.882C28.587,117.032 28.202,117.129 27.811,117.167C27.681,117.18 27.55,117.18 27.419,117.186L14.581,117.186C14.45,117.18 14.319,117.18 14.189,117.167C13.798,117.129 13.413,117.032 13.051,116.882C12.446,116.631 11.906,116.231 11.49,115.725C11.158,115.32 10.907,114.85 10.755,114.349C10.679,114.098 10.628,113.841 10.602,113.58C10.589,113.45 10.589,113.319 10.583,113.188L10.583,35.127Z" style="fill:rgb(47,141,237);"/>
            </g>
            <g transform="matrix(1,0,0,1,306.5,507.557)">
                <path d="M25.14,12.048C25.307,12.055 25.473,12.065 25.638,12.086C26.01,12.134 26.377,12.223 26.728,12.354C27.393,12.6 28.002,12.99 28.503,13.491C29.004,13.993 29.395,14.602 29.641,15.266C29.771,15.618 29.861,15.984 29.908,16.356C29.93,16.522 29.94,16.688 29.946,16.854C29.981,19.573 29.948,22.291 29.948,25.01C29.946,25.177 29.94,25.343 29.923,25.509C29.881,25.923 29.786,26.332 29.641,26.723C29.395,27.388 29.004,27.997 28.503,28.498C28.002,28.999 27.393,29.389 26.728,29.636C26.377,29.766 26.01,29.856 25.638,29.903C25.473,29.924 25.307,29.935 25.14,29.941C22.422,29.976 19.703,29.943 16.985,29.943C16.818,29.941 16.652,29.934 16.486,29.917C16.071,29.875 15.662,29.78 15.272,29.636C14.607,29.389 13.998,28.999 13.497,28.498C12.996,27.997 12.605,27.388 12.359,26.723C12.229,26.371 12.139,26.005 12.092,25.633C12.07,25.467 12.06,25.302 12.054,25.135C12.019,22.417 12.052,19.698 12.052,16.979C12.054,16.813 12.06,16.646 12.077,16.48C12.115,16.107 12.196,15.739 12.317,15.384C12.546,14.713 12.921,14.095 13.41,13.581C13.898,13.067 14.497,12.662 15.155,12.399C15.542,12.244 15.948,12.139 16.362,12.086C16.527,12.065 16.693,12.055 16.86,12.048C19.62,12.013 22.38,12.013 25.14,12.048Z" style="fill:white;"/>
            </g>
            <g transform="matrix(1,0,0,1,306.5,507.557)">
                <path d="M46.297,113.367L46.297,113.367L46.297,10.171C46.303,10.041 46.303,9.91 46.316,9.779C46.342,9.519 46.393,9.261 46.469,9.011C46.659,8.384 47.005,7.807 47.468,7.344C47.838,6.974 48.281,6.678 48.765,6.478C49.128,6.327 49.512,6.231 49.903,6.192C50.033,6.18 50.164,6.18 50.295,6.173L63.134,6.173C63.264,6.18 63.395,6.186 63.525,6.192C63.655,6.212 63.785,6.225 63.914,6.25C64.17,6.301 64.422,6.377 64.664,6.478C65.269,6.728 65.809,7.129 66.224,7.635C66.556,8.04 66.807,8.51 66.959,9.011C67.036,9.261 67.087,9.519 67.112,9.779C67.125,9.91 67.125,10.041 67.132,10.171L67.132,96.53L84.653,96.53C85.02,95.795 85.495,95.115 86.061,94.52C86.928,93.608 88.003,92.899 89.183,92.462C89.838,92.22 90.523,92.061 91.218,91.99C91.497,91.962 91.775,91.951 92.055,91.948C96.612,91.948 101.169,91.893 105.726,91.95C106.006,91.961 106.284,91.979 106.561,92.014C107.185,92.093 107.799,92.244 108.389,92.462C109.503,92.875 110.524,93.53 111.364,94.37C112.204,95.21 112.858,96.231 113.271,97.345C113.514,98 113.673,98.685 113.743,99.38C113.772,99.659 113.782,99.937 113.786,100.217L113.786,113.679C113.782,113.958 113.772,114.237 113.743,114.515C113.68,115.141 113.545,115.758 113.341,116.353C112.957,117.477 112.329,118.515 111.51,119.376C110.643,120.288 109.569,120.996 108.389,121.433C107.734,121.676 107.048,121.835 106.353,121.905C106.075,121.934 105.797,121.944 105.517,121.948L92.055,121.948C91.775,121.944 91.497,121.934 91.218,121.905C90.523,121.835 89.838,121.676 89.183,121.433C88.003,120.996 86.928,120.288 86.061,119.376C85.495,118.78 85.02,118.1 84.653,117.365L49.269,117.365C49.062,117.357 49.009,117.361 48.804,117.328C48.574,117.292 48.347,117.228 48.132,117.139C47.335,116.809 46.709,116.132 46.442,115.311C46.37,115.089 46.324,114.859 46.306,114.626C46.3,114.548 46.3,114.471 46.297,114.393L46.297,113.367Z" style="fill:rgb(47,141,237);"/>
            </g>
            <g transform="matrix(1,0,0,1,306.5,507.557)">
                <path d="M25.14,12.048C25.307,12.055 25.473,12.065 25.638,12.086C26.01,12.134 26.377,12.223 26.728,12.354C27.393,12.6 28.002,12.99 28.503,13.491C29.004,13.993 29.395,14.602 29.641,15.266C29.771,15.618 29.861,15.984 29.908,16.356C29.93,16.522 29.94,16.688 29.946,16.854C29.981,19.573 29.948,22.291 29.948,25.01C29.946,25.177 29.94,25.343 29.923,25.509C29.881,25.923 29.786,26.332 29.641,26.723C29.395,27.388 29.004,27.997 28.503,28.498C28.002,28.999 27.393,29.389 26.728,29.636C26.377,29.766 26.01,29.856 25.638,29.903C25.473,29.924 25.307,29.935 25.14,29.941C22.422,29.976 19.703,29.943 16.985,29.943C16.818,29.941 16.652,29.934 16.486,29.917C16.071,29.875 15.662,29.78 15.272,29.636C14.607,29.389 13.998,28.999 13.497,28.498C12.996,27.997 12.605,27.388 12.359,26.723C12.229,26.371 12.139,26.005 12.092,25.633C12.07,25.467 12.06,25.302 12.054,25.135C12.019,22.417 12.052,19.698 12.052,16.979C12.054,16.813 12.06,16.646 12.077,16.48C12.115,16.107 12.196,15.739 12.317,15.384C12.546,14.713 12.921,14.095 13.41,13.581C13.898,13.067 14.497,12.662 15.155,12.399C15.542,12.244 15.948,12.139 16.362,12.086C16.527,12.065 16.693,12.055 16.86,12.048C19.62,12.013 22.38,12.013 25.14,12.048Z" style="fill:white;"/>
            </g>
            <g transform="matrix(1,0,0,1,384.286,593.51)">
                <path d="M25.14,12.048C25.307,12.055 25.473,12.065 25.638,12.086C26.01,12.134 26.377,12.223 26.728,12.354C27.393,12.6 28.002,12.99 28.503,13.491C29.004,13.993 29.395,14.602 29.641,15.266C29.771,15.618 29.861,15.984 29.908,16.356C29.93,16.522 29.94,16.688 29.946,16.854C29.981,19.573 29.948,22.291 29.948,25.01C29.946,25.177 29.94,25.343 29.923,25.509C29.881,25.923 29.786,26.332 29.641,26.723C29.395,27.388 29.004,27.997 28.503,28.498C28.002,28.999 27.393,29.389 26.728,29.636C26.377,29.766 26.01,29.856 25.638,29.903C25.473,29.924 25.307,29.935 25.14,29.941C22.422,29.976 19.703,29.943 16.985,29.943C16.818,29.941 16.652,29.934 16.486,29.917C16.071,29.875 15.662,29.78 15.272,29.636C14.607,29.389 13.998,28.999 13.497,28.498C12.996,27.997 12.605,27.388 12.359,26.723C12.229,26.371 12.139,26.005 12.092,25.633C12.07,25.467 12.06,25.302 12.054,25.135C12.019,22.417 12.052,19.698 12.052,16.979C12.054,16.813 12.06,16.646 12.077,16.48C12.115,16.107 12.196,15.739 12.317,15.384C12.546,14.713 12.921,14.095 13.41,13.581C13.898,13.067 14.497,12.662 15.155,12.399C15.542,12.244 15.948,12.139 16.362,12.086C16.527,12.065 16.693,12.055 16.86,12.048C19.62,12.013 22.38,12.013 25.14,12.048Z" style="fill:white;"/>
            </g>
        </g>
    </g>
</svg>