<svg xmlns="http://www.w3.org/2000/svg" xml:space="preserve" id="svg44" width="512" height="512" style="clip-rule:evenodd;fill-rule:evenodd;image-rendering:optimizeQuality;shape-rendering:geometricPrecision;text-rendering:geometricPrecision" version="1.1" viewBox="0 0 135.467 135.467"><defs id="defs4"><style id="style2" type="text/css">.str0{stroke-width:.7;stroke:#000}.fil7{fill:#0a0b0c}.fil5{fill:#ef9a48}.fil1{fill:#100c0f}.fil3{fill:#8a016e}.fil0{fill:#f1e726}.fil2{fill:#f5eb23}</style></defs><g id="Layer_x0020_1" transform="matrix(.76164 0 0 .76143 -16.691 -24.854)"><g id="_55589032"><path id="_55405920" d="m146.396 36.088.432.02-.22.78-.925-.226-.007.397-.698-.218-.22-.923.188-.605.7.19.378-.276.584.31zm-2.77.948v.187c0 1.093.965 2.057 2.057 2.057h.748c.834 0 2.056-.97 2.056-1.683v-.935c0-1.185-1.19-2.056-2.43-2.056-1.146 0-2.43 1.284-2.43 2.43" class="fil0" style="fill:#f1e726"/><path id="_124871288" d="m144.946 35.313-.187.605.218.923.699.218.007-.397.925.225.22-.778-.432-.021.212-.551-.584-.31-.378.276z" class="fil1" style="fill:#100c0f"/><path id="_126624248" d="m94.83 41.523-.376.674-1.278.065-.253-.402.401-.333-.217-.605.601-.52c.861.398.507-.326.977.144.414.414-.277.328.145.977m-3.178 1.309v.56c0 .684.516 1.496 1.122 1.496h.934c.883 0 2.618-1.845 2.618-2.99v-.936c0-.45-.672-1.121-1.122-1.121h-.748c-1.285 0-2.804 1.762-2.804 2.991" class="fil0" style="fill:#f1e726"/><path id="_55033056" d="M94.83 41.523c-.422-.65.269-.563-.145-.977-.47-.47-.116.254-.977-.144l-.6.52.216.605-.401.333.253.402 1.278-.065z" class="fil1" style="fill:#100c0f"/><path id="_124189808" d="m37.444 55.362.402.006-.239.96-.57-.25-.488.322-.646-.307.184-.51-.276-.378.327-.63.51.185.361-.257.646.308zm-2.628 1.118c0 1.263 1.099 2.244 2.43 2.244h.188c1.123 0 2.243-1.12 2.243-2.244v-.187c0-1.007-1.007-2.243-2.057-2.243h-.747c-1.186 0-2.057 1.19-2.057 2.43" class="fil2" style="fill:#f5eb23"/><path id="_55215992" d="m36.648 54.76-.51-.184-.327.629.276.378-.184.51.646.307.488-.321.57.249.239-.96-.402-.006.211-.551-.646-.308z" class="fil1" style="fill:#100c0f"/><path id="_55589424" d="m171.684 77.641-.013.34h.213l-.026.56c.15.105.461.374.56.374.715 0 .068.058.584-.214l.534.39.652-.221-.84-1.222-1.113-.218z" class="fil1" style="fill:#100c0f"/><path id="_29338264" d="m115.957 85.459 1.583 7 .287-.083c2.19 0 4.958-.56 7.33-.708 4.198-.262 3.821.412 6.004-2.036 2.719-3.049 5.488-4.903 9.283-6.795 8.29-4.135 15.213-4.67 27.488-4.67l.038-.272-12.724-1.796-.028.199h-6.543c-6.583 0-12.76 1.458-18.016 2.924-5.01 1.397-11.981 5.603-14.702 6.237" class="fil3" style="fill:#8a016e"/><path id="_123511256" d="m171.857 78.541.027-.56h-.214l.013-.34.552-.211 1.112.218.84 1.222-.651.222-.535-.39c-.515.27.132.213-.583.213-.1 0-.41-.27-.561-.374m-1.683 0c0 1.388 2.506 2.618 3.926 2.618 1.022 0 2.057-.435 2.057-1.496 0-1.622-2.102-2.617-3.74-2.617-1.039 0-2.243.506-2.243 1.495" class="fil0" style="fill:#f1e726"/><path id="_55172496" d="M133.157 208.665h-.374c-.581 0-1.496-1.1-1.496-1.87v-.374c0-1.304 1.436-2.804 2.805-2.804 1.294 0 1.87 1.118 1.87 2.43 0 1.396-1.254 2.618-2.805 2.618m-56.088-15.33h-1.122c-.73 0-1.682-.714-1.682-1.31v-.373c0-1.509 1.997-2.244 3.552-2.244.837 0 2.244.496 2.244 1.309v.56c0 .987-1.782 2.057-2.992 2.057m92.545-17.762c-.805 0-1.682-1.389-1.682-2.243v-1.31c0-.785.958-2.43 1.682-2.43h.561c1.006 0 1.683 1.957 1.683 3.179v.374c0 .767-1.133 2.43-2.244 2.43M30.89 163.982v-.561a1.69 1.69 0 0 1 1.683-1.683h.935c1.19 0 2.43 1.213 2.43 2.43 0 1.248-1.215 2.057-2.43 2.057-1.237 0-2.618-.99-2.618-2.243m49.544 25.426c.08-.301 16.646-13.311 20.678-23.258 1.054-2.6 2.054-5.424 2.9-8.13 1.564-5 1.1-3.298 5.383-5.648 2.159-1.183 12.914-9.142 12.918-9.143 1.102 4.73 3.373 2.288.173 7.838a96 96 0 0 1-4.428 6.977c-3.13 4.51-6.37 8.976-10.016 12.98-4.067 4.466-21.172 17.849-27.608 18.384m113.672-66.37c0-.626.69-1.496 1.308-1.496h.935c1.268 0 2.617 1.605 2.617 2.804v.187c0 1.007-.853 1.87-1.87 1.87h-.373c-1.367 0-2.618-1.816-2.618-3.366m-53.284-10.283c10.854 5.743 28.979 32.775 28.979 50.666l.044 1.873-.231 3.175c-.582-.426-4.873-20.214-17.644-28.723-1.778-1.184-6.32-2.419-7.108-4.483-1.042-2.733-1.58-5.837-2.797-8.794-1.132-2.752-2.398-5.402-3.856-7.743-1.995-3.203-1.275-3.914 2.613-5.971m-112.55-1.683c2.547 0 14.33 3.96 17.19 4.872 5.618 1.792 11.553 3.205 17.915 4.333 2.958.524 6.508 1.179 9.481 1.549 3.939.49 4.083 2.246 6.275 4.755 2.663 3.048 8.351 8.383 11.957 10.292-2.235 3.338-2.57 4.804-6.867 3.511-3.302-.994-6.035-1.845-9.124-3.038-5.802-2.239-11.468-4.595-16.853-7.264-5.59-2.77-10.276-5.534-15.346-8.772-2.324-1.484-13.148-9.282-14.628-9.677zm-5.422-.935v-.747a1.69 1.69 0 0 1 1.683-1.683h.56c1.057 0 2.244 1.377 2.244 2.43v1.309c0 .45-.671 1.122-1.122 1.122h-.934c-1.147 0-2.43-1.284-2.43-2.43m147.324-31.596c0-.99 1.204-1.495 2.244-1.495 1.636 0 3.739.994 3.739 2.617 0 1.061-1.036 1.496-2.057 1.496-1.42 0-3.926-1.23-3.926-2.618m-54.218 6.918c2.72-.634 9.692-4.84 14.702-6.237 5.256-1.466 11.433-2.924 18.016-2.924h6.543l.028-.2 12.724 1.797-.038.272c-12.275 0-19.197.535-27.488 4.67-3.795 1.892-6.564 3.746-9.283 6.795-2.183 2.448-1.806 1.774-6.004 2.036-2.373.148-5.141.708-7.33.708l-.288.083zm-81.14-28.98c0-1.238.87-2.43 2.056-2.43h.748c1.05 0 2.056 1.236 2.056 2.244v.187c0 1.123-1.12 2.243-2.243 2.243h-.187c-1.332 0-2.43-.98-2.43-2.243m53.723 17.684.495 5.126c0 5.577 2.02 8.9 2.286 11.86.132 1.463-2.783 8.418-2.847 11.323-1.624-.378-9.91-7.74-9.91-8.787v-3.178c0-8.243 2.67-18.42 4.898-24.643 1.05-2.936 7.732-19.878 9.567-20.06zm3.112-31.331c0-1.229 1.52-2.991 2.805-2.991h.747c.45 0 1.122.671 1.122 1.121v.935c0 1.146-1.735 2.991-2.617 2.991h-.935c-.606 0-1.122-.812-1.122-1.495zm23.37 41.879v3.926c0 1.064 1.617 3.843 2.042 4.55l11.606-1.185h2.057c13.465 0 27.48 4.906 36.388 9.604 6.445 3.4 23.16 14.213 26.617 19.375-1.077-.288-13.058-7.454-16.628-8.985-5.587-2.396-12.997-4.85-20.951-4.85-11.767 0-14.115 3.969-20.752 8.413 5.97 8.915 10.843 20.475 10.843 35.335v6.544c0 8.165-1.39 19.16-2.934 25.858-.942 4.088-6.403 19.32-9.261 19.41l2.982-18.48-.322-.053v-6.543c0-15.992-11.556-25.311-14.022-35.897-4.083 2.735-6.925 6.248-12.178 9.322-4.565 2.671-9.68 4.838-15.13 6.557-10.05 3.17-23.48 6.93-36.445 6.93l-1.131.153-21.117-1.274v-.374c11.465-2.671 22.98-3.613 32.47-8.474 4.59-2.35 22.674-13.28 23.057-17.888-3.424-.797-12.557-10.233-14.896-13.147-4.183-5.209-7.762-11.076-11.024-17.208-6.454-12.135-12.616-25.361-19.306-37.156-1.63-2.874-3.546-5.996-5.623-8.416-4.643-5.41 3.318.135 4.817 1.184 5.196 3.632 10.325 8.976 14.546 13.684 4.326 4.825 23.542 27.12 28.12 28.342 2.061-24.761 25.735-44.064 41.84-55.566 2.405-1.718 4.687-3.354 7.11-5.043 1.05-.731 6.956-5.824 6.305-2.893-.487 2.19-8.717 11.924-10.512 14.016-5.144 5.993-18.568 20.374-18.568 30.229m28.605-47.675c0-1.146 1.284-2.43 2.43-2.43 1.24 0 2.43.87 2.43 2.056v.935c0 .714-1.221 1.683-2.056 1.683h-.748c-1.092 0-2.056-.964-2.056-2.057zM92.212 89.76c-1.39-1.019-2.43-8.651-2.43-11.592V75.55c0-9.362 2.215-17.694 3.532-25.82.54-3.33.046-3.264 2.203-5.089 1.05-.888 2.673-3.369 1.248-5.042-2-2.348-8.257 1.251-4.927 6.224-6.912 11.236-15.05 33.817-13.835 47.301-.258-.093-15.663-17.161-17.426-19.031-6.778-7.19-10.943-11.618-20.153-16.491.999-4.287-3.786-5.91-5.766-3.321-2.703 3.535.558 5.328 4.457 5.003l.905-.491L73.8 120.96c-7.516.018-22.603-4.133-32.43-7.282-2.56-.782-5.06-1.54-7.757-2.338-1.429-.423-2.788-.479-4.162-.887-2.112-.626-1.007-1.018-2.426-2.625-2.03-2.3-5.816-.86-4.995 2.704.658 2.86 5.18 4.428 5.869 1.848 1.267.338 22.62 14.453 27.064 16.872 4.671 2.543 10.16 4.779 15.202 6.859 4.478 1.847 12.764 3.858 16.44 5.621-.577 1.593-11.65 8.317-13.893 9.665-5.69 3.42-9.44 5.222-16.784 6.96-2.035.481-19.194 3.807-19.515 3.747-.416-.078-7.94-3.729-6.348 2.453.886 3.438 6.808 3.313 6.813-.466l17.008 1.011h6.17c8.858 0 16.168-1.591 23.282-3.452 3.566-.933 19.64-6.388 20.466-6.456-2.247 9.647-6.5 17.588-12.567 23.515-3.217 3.142-6.136 5.47-9.57 8.38-3.805 3.222-2.724.49-6.443 2.152-3.179 1.42-2.36 4.84.163 4.84h1.682c4.49 0 2.167-3.131 5.97-4.84 2.518-1.13 5.759-2.896 8.123-4.25 5.296-3.031 9.289-5.76 13.637-9.733 4.164-3.804 7.426-8.061 10.784-12.586 2.675-3.604 6.945-11.66 9.16-14.209.573 2.457 5.85 10.771 7.336 14.165 2.08 4.756 3.882 10.863 3.882 17.618v3.74c0 4.075-1.725 17.282-3.443 19.178-1.72 1.9-4.07 6.34.64 6.415 4.101.066 4.53-5.913 2.243-6.524.208-.779 4.03-6.825 4.906-8.742a54.5 54.5 0 0 0 3.493-10.154c1.458-6.14 3.005-17.166 3.005-24.478l.094-10.668-1.403-11.394c8.702 2.028 16.773 12.996 19.984 20.961.99 2.454 1.812 5.086 2.641 7.672 1.38 4.309-1.862 3.391-.788 8.025.82 3.546 4.5 2.73 5.173-.713.847-4.344-2.255-3.118-2.173-7.872.25-14.467-4.2-22.44-9.663-31.28-2.615-4.232-5.505-8.234-8.645-11.921-2.993-3.945-7.046-7.554-10.455-10.111 1.32-1.801 5.934-4.3 12.9-4.3h4.114c6.237 0 14.677 2.941 19.17 4.947 2.888 1.29 15.033 8.38 15.604 8.514-.542 6.515 5.749 7.348 6.342 3.667.387-2.403-1.178-4.01-2.792-4.412-4.104-1.022-1.894.24-4.835-2.457a115.7 115.7 0 0 0-16.646-12.707c-10.475-6.591-27.334-14.192-44.326-14.192.836-3.133 9.613-7.987 13.05-9.384 5.077-2.064 12.077-3.329 19.294-3.329l.376-.045 5.42.232c.539 2.021 5.376 4.243 7.4 2.32 2.4-2.28-1.845-5.24-4.91-4.895-2.728.308-1.337 1.499-4.04 1.002-1.743-.32-2.824-.67-4.75-.914-3.21-.405-6.605-.878-10.34-.878h-2.805c-13.284 0-24.935 4.548-33.652 9.16 0-10.135 13.477-24.442 18.782-30.574 1.462-1.69 10.383-13.623 10.873-13.806 4.908-1.836 4.738-5.662 1.262-6.409-2.152-.461-3.544.58-4.05 1.967-1.107 3.042 1.43 1.972-1.57 3.989-9.545 6.415-19.685 13.905-28.169 21.397-6.107 5.393-19.052 19.869-21.06 28.485" class="fil1" style="fill:#100c0f"/><path id="_55589592" d="M93.029 45.805c-1.835.18-8.517 17.124-9.567 20.059-2.229 6.224-4.897 16.4-4.897 24.643v3.178c0 1.047 8.285 8.409 9.909 8.787.064-2.905 2.979-9.86 2.847-11.323-.267-2.96-2.287-6.283-2.287-11.86l-.494-5.126z" class="fil3" style="fill:#8a016e"/><path id="_125437344" d="M23.785 108.642c0 .273.23.274.364.37l-.154.538.548.417.387-.23.538.4c.105-.15.374-.46.374-.56 0-.035-.316-.85-.447-1.049-.295-.447-.627-.155-1.236-.447-.104.15-.374.462-.374.561" class="fil1" style="fill:#100c0f"/><path id="_55589760" d="m23.995 109.549.154-.538c-.133-.095-.364-.096-.364-.37 0-.099.27-.41.374-.56.61.292.941 0 1.236.447.13.198.447 1.013.447 1.048 0 .1-.27.41-.374.561l-.538-.401-.387.23zm-1.144.588c0 1.147 1.284 2.43 2.43 2.43h.935c.45 0 1.122-.671 1.122-1.121v-1.309c0-1.053-1.188-2.43-2.244-2.43h-.56a1.69 1.69 0 0 0-1.683 1.682z" class="fil2" style="fill:#f5eb23"/><path id="_125437056" d="m195.017 122.656.42.015-.202.726.553.388c.62-.298 2.193.476.74-1.635l-1.278-.227z" class="fil1" style="fill:#100c0f"/><path id="_55589928" d="m195.788 123.785-.553-.388.202-.727-.42-.014.233-.733 1.278.227c1.453 2.111-.119 1.337-.74 1.635m-1.683-.748c0 1.55 1.25 3.365 2.618 3.365h.374c1.016 0 1.87-.862 1.87-1.87v-.186c0-1.199-1.35-2.805-2.618-2.805h-.935c-.618 0-1.309.871-1.309 1.496" class="fil0" style="fill:#f1e726"/><path id="_125436768" d="M140.822 112.755c-3.888 2.057-4.608 2.768-2.613 5.972 1.458 2.34 2.724 4.99 3.856 7.742 1.216 2.957 1.755 6.062 2.797 8.794.788 2.065 5.33 3.3 7.108 4.484 12.771 8.508 17.062 28.296 17.644 28.722l.23-3.175-.043-1.873c0-17.89-18.126-44.923-28.979-50.666" class="fil3" style="fill:#8a016e"/><path id="_55590096" d="M45.462 115.944c-2.86-.912-14.643-4.872-17.19-4.872v.56c1.48.396 12.305 8.194 14.628 9.678 5.07 3.238 9.757 6.002 15.346 8.772 5.385 2.669 11.052 5.025 16.853 7.264 3.09 1.193 5.822 2.044 9.124 3.038 4.297 1.293 4.633-.174 6.868-3.512-3.606-1.908-9.295-7.243-11.957-10.29-2.192-2.51-2.337-4.266-6.275-4.756-2.974-.37-6.524-1.025-9.482-1.55-6.362-1.127-12.296-2.54-17.915-4.332" class="fil3" style="fill:#8a016e"/><path id="_125436480" d="m31.76 162.82.462.048-.21.74c.22.059.485.192.558.148l.96.066.55-.408-.841-1.366-.106.158-.932-.092z" class="fil1" style="fill:#100c0f"/><path id="_55590264" d="M115.022 84.71c0-9.854 13.424-24.235 18.568-30.228 1.795-2.092 10.025-11.826 10.512-14.016.65-2.93-5.256 2.162-6.305 2.893-2.423 1.69-4.704 3.325-7.11 5.043-16.105 11.502-39.779 30.805-41.84 55.566-4.578-1.223-23.794-23.517-28.12-28.342-4.22-4.708-9.35-10.052-14.546-13.684-1.5-1.049-9.46-6.594-4.817-1.184 2.077 2.42 3.993 5.542 5.623 8.416 6.69 11.795 12.852 25.02 19.306 37.156 3.262 6.132 6.841 12 11.024 17.208 2.34 2.914 11.472 12.35 14.896 13.148-.384 4.607-18.467 15.536-23.057 17.887-9.49 4.86-21.005 5.803-32.47 8.474v.374l21.117 1.274 1.131-.152c12.965 0 26.395-3.761 36.444-6.93 5.451-1.72 10.566-3.887 15.13-6.558 5.254-3.074 8.096-6.587 12.18-9.322 2.465 10.586 14.021 19.905 14.021 35.897v6.543l.322.052-2.982 18.48c2.858-.09 8.319-15.32 9.261-19.41 1.543-6.696 2.934-17.692 2.934-25.857v-6.543c0-14.86-4.874-26.42-10.844-35.336 6.638-4.444 8.986-8.413 20.753-8.413 7.954 0 15.364 2.454 20.95 4.85 3.57 1.53 15.552 8.698 16.629 8.985-3.457-5.162-20.172-15.975-26.618-19.375-8.907-4.698-22.922-9.604-36.387-9.604h-2.057l-11.606 1.185c-.425-.707-2.042-3.486-2.042-4.55z" style="fill:#000069"/><path id="_125436192" d="M32.57 163.755c-.073.044-.339-.09-.558-.148l.21-.74-.462-.048.44-.706.933.092.106-.158.842 1.366-.551.408zm-1.68.226c0 1.254 1.381 2.244 2.617 2.244 1.216 0 2.43-.809 2.43-2.057 0-1.217-1.24-2.43-2.43-2.43h-.934a1.69 1.69 0 0 0-1.683 1.682z" class="fil2" style="fill:#f5eb23"/><path id="_55590432" d="m168.866 170.712-.01.94.384.743c.651-.302 1.122.338 1.122-.561v-.935c0-.675-.38-.544-.748-.374l-.094-.467z" class="fil1" style="fill:#100c0f"/><path id="_55590768" d="M170.362 171.834c0 .899-.47.26-1.122.56l-.384-.741.01-.94.655-.655.093.467c.369-.17.748-.301.748.374zm-.748 3.74c1.111 0 2.244-1.664 2.244-2.431v-.374c0-1.222-.677-3.178-1.683-3.178h-.56c-.725 0-1.683 1.644-1.683 2.43v1.309c0 .854.877 2.243 1.682 2.243" class="fil0" style="fill:#f1e726"/><path id="_128225400" d="M80.434 189.408c6.436-.536 23.541-13.918 27.608-18.384 3.645-4.004 6.886-8.47 10.016-12.98a96 96 0 0 0 4.428-6.977c3.2-5.55.93-3.108-.173-7.838-.004 0-10.76 7.96-12.918 9.143-4.283 2.35-3.819.647-5.383 5.648a108 108 0 0 1-2.9 8.13c-4.032 9.947-20.597 22.956-20.678 23.258" class="fil3" style="fill:#8a016e"/><path id="_55590656" d="M76.321 191.278c.715 0 .068.058.561-.187.004.003.349.187.374.187.317 0 .699-.249.935-.374a5 5 0 0 1-.187-.374c0-.421-.072.087.145-.308l-.52-.44c-.599.288-1.237.053-1.541.336-.091.084-.255 1.16.233 1.16" class="fil1" style="fill:#100c0f"/><path id="_125435808" d="M76.321 191.278c-.488 0-.324-1.076-.233-1.16.304-.283.942-.048 1.542-.336l.52.44c-.218.395-.146-.114-.146.308 0 .025.184.37.187.374-.237.125-.619.374-.935.374-.025 0-.37-.184-.374-.187-.493.244.154.187-.56.187m.748 2.057c1.21 0 2.991-1.07 2.991-2.057v-.56c0-.814-1.406-1.31-2.243-1.31-1.556 0-3.552.736-3.552 2.244v.374c0 .595.952 1.309 1.682 1.309z" class="fil0" style="fill:#f1e726"/><path id="_125435328" d="M132.469 204.959c-.057-.03.127.315.127.34 0 .715.058.068-.187.561.15.105.462.374.561.374.273 0 .274-.23.37-.364l.538.155.4-.539c-.097-.463.07-1.121-.373-1.06l-1.108-.053z" class="fil1" style="fill:#100c0f"/><path id="_125435904" d="m132.797 204.373 1.108.054c.442-.062.275.597.373 1.06l-.4.538-.538-.154c-.096.133-.097.364-.37.364-.1 0-.41-.27-.561-.374.244-.493.187.154.187-.561 0-.025-.184-.37-.127-.34zm.36 4.292c1.55 0 2.804-1.222 2.804-2.617 0-1.312-.575-2.43-1.87-2.43-1.369 0-2.804 1.499-2.804 2.804v.374c0 .769.915 1.87 1.496 1.87z" class="fil0" style="fill:#f1e726"/></g><g id="_124473424"><g id="g37"><path id="_128225456" d="m78.989 108.475 3.267 9.646c1.705 9.157 4.519 14.745 8.09 17.891 3.623 5.964 7.735 11.357 12.602 15.87 5.105 6.212 11.667 5.824 18.203-1.245 8.443-9.134 12.62-24.957 14.468-42.473 2.145-20.32-19.657-32.544-28.937-14.78-5.521 10.568-7.17 8.81-14.936 1.4-7.623-7.274-17.797-2.902-12.757 13.691Zm5.363 5.102c8.92.373 15.196 1.755 16.248 5.13-6.619 3.372-11.804.814-16.248-5.13zm21.132 26.45c1.118.634 1.904.652 2.718 0 1.51-1.21 2.63-1.107 5.046-1.98 3.83-1.383 5.523-4.98 8.284-7.471-5.34 7.2-9.863 20.142-18.08 12.022-2.061-2.037-2.113-2.66-8.056-7.584l-.762-.629c2.737 1.635 5.163 3.58 8.21 4.904.873.356 1.403.036 2.64.738zm3.378-22.088c-1.517-6.167 4.182-8.726 15.294-8.579-4.571 4.116-9.374 7.68-15.294 8.579z" class="fil5 str0" style="fill:#ef9a48;stroke:#000;stroke-width:.69999999"/><path id="_125438784" d="M100.709 118.532c-1.052-3.376-7.328-4.757-16.247-5.13 4.443 5.944 9.629 8.502 16.247 5.13zm23.557-9.347c-11.113-.148-16.812 2.412-15.295 8.579 5.92-.9 10.723-4.463 15.295-8.58zM88.29 107c2.799 2.42 5.598 4.344 8.396 4.898 5.692 1.833 6.064 5.78 5.675 10.028v10.028c-.345 3.759 1.995 4.316 3.382 2.682.75-.885 2.307-1.941 3.63-2.083 2.034-.218 3.65-.127 2.55-3.514m-5.986.583-.078-13.682m1.477-3.265c1.79-3.673 7.026-5.876 14.538-6.919m-23.555 8.707q-7.339-4.02-15.393-3.265m5.287-7.463c10.672 9.928 15.458 8.37 19.512-1.321 5.322-12.722 15.496-13.579 24.021-.778M121.64 130.4c-5.34 7.2-9.863 20.142-18.08 12.022-2.146-2.12-2.114-2.709-8.817-8.213 2.736 1.634 5.163 3.58 8.21 4.904.872.355 1.402.035 2.64.737 1.117.634 1.903.653 2.717 0 1.511-1.21 2.63-1.107 5.047-1.98 3.829-1.382 5.522-4.98 8.283-7.47zm-26.135 4.437c2.438 1.833 4.864 3.69 7.41 5.363.84.561 1.84 1.1 3.066 1.503 1.276.443 2.31.692 3.416-.3.7-.628 1.184-1.146 2.33-1.592 4.72-1.353 6.609-6.274 9.913-9.411m-42.543-22.102c-5.04-16.592 5.134-20.965 12.758-13.69 7.766 7.41 9.414 9.168 14.935-1.4 9.28-17.765 31.082-5.54 28.938 14.78-1.849 17.516-6.026 33.339-14.47 42.472-6.534 7.07-13.096 7.457-18.202 1.245-4.867-4.513-8.979-9.905-12.602-15.87-3.571-3.145-6.385-8.733-8.09-17.89zm27.151 30.109c.109-.515-.078-4.541 1.634-.103m1.642 15.407c-2.801-2.532 2.27-4.26 1.518-.45m17.218-30.027c.156 7.727-2.541 16.906-6.534 22.559m-5.757-18.358q9.957-5.368 9.335 2.956m-38.505-2.49c1.66 3.887 6.56 4.43 10.19-1.4M81.14 107.39c-.908-14.433 3.541-16.774 11.893-5.13 4.399 6.13 8.354 7.24 12.439-1.711 7.268-15.925 18.877-14.804 26.41-3.527M106.56 110.11c6.95-12.413 13.185-17.207 18.269-9.718" class="fil5" style="fill:#ef9a48;stroke:#1f1a17;stroke-width:.69999999"/></g><path id="_125433120" d="M113.357 137.872c-2.416.872-3.535.77-5.047 1.98-.814.652-1.6.633-2.717 0-1.238-.703-1.768-.382-2.64-.738-3.047-1.324-5.473-3.27-8.21-4.904q.396.325.762.629l.006.005.727.546c2.193 1.652 4.386 3.306 6.677 4.811.84.561 1.84 1.1 3.066 1.503 1.277.443 2.31.692 3.417-.3.7-.627 1.183-1.146 2.328-1.591 4.185-1.2 6.144-5.204 8.838-8.283.345-.394.701-.773 1.076-1.13-2.761 2.491-4.454 6.09-8.283 7.472z" class="str0" style="fill:#fff;stroke:#000;stroke-width:.69999999"/><path id="_124473136" d="M108.971 117.764c5.836-.887 10.587-4.362 15.1-8.404-7.725-.093-12.818 1.129-14.67 3.972-.707 1.196-.864 2.666-.43 4.432z" class="fil7 str0" style="fill:#0a0b0c;stroke:#000;stroke-width:.69999999"/><path id="_124847104" d="M100.566 118.605c-1.136-3.27-7.268-4.633-15.965-5.017 4.38 5.77 9.484 8.245 15.965 5.017z" class="fil7 str0" style="fill:#0a0b0c;stroke:#000;stroke-width:.69999999"/></g></g></svg>