<svg class="c4d--footer-logo__logo" xmlns="http://www.w3.org/2000/svg" aria-labelledby="footer-logo" width="157" height="65" viewBox="0 0 157 65" fill="#fff"><path d="M30.444 60.208v4.03H0v-4.03zm78.291-.001v4.03H86.983v-4.03zm47.858 0v4.03H134.84v-4.03zm-33.416 0-1.398 4.03-1.38-4.03zm-88.384 0h42.775c-2.797 2.426-6.39 3.925-10.327 4.025l-.423.006H34.793zh42.775Zm-4.35-8.46v4.03H0v-4.03zm52.402 0c-.332 1.248-.8 2.44-1.389 3.555l-.259.474H34.793v-4.029zm73.748-.005v4.031H134.84v-4.03zm-47.858 0v4.031H86.983v-4.03zm17.375 0-1.398 4.031h-5.85l-1.395-4.03zM21.745 43.285v4.03H8.698v-4.03zm61.195 0a17.3 17.3 0 0 1 .476 3.51l.008.52H68.796v-4.03zm-26.401 0v4.03H43.491v-4.03zm72.502-.007-1.396 4.03H115.93l-1.397-4.03zm18.85 0v4.03h-13.05v-4.03zm-39.156 0v4.03H95.684v-4.03zm-86.99-8.454v4.03H8.698v-4.03zm56.117 0a17 17 0 0 1 2.926 3.582l.264.447h-37.56v-4.03zm30.873-.01v4.03H95.684v-4.03zm39.157 0v4.03H134.84v-4.03zm-15.919 0-1.396 4.03h-17.579l-1.396-4.03zm-50.778-8.452a17 17 0 0 1-2.82 3.674l-.37.355H43.49v-4.029zm-59.45 0v4.03H8.698v-4.03zm126.147-.013v4.031H134.84v-3.839l-1.33 3.839h-11.456l1.373-4.03zm-27.743 0 1.372 4.031h-11.456l-1.33-3.839v3.84H95.684v-4.032zm-98.404-8.448v4.03H8.698V17.9zm61.68 0c0 1.215-.134 2.399-.375 3.542l-.11.487H68.796V17.9zM56.538 17.9v4.03H43.491V17.9zm91.352-.015v4.03h-22.954l1.37-4.03zm-30.624 0 1.372 4.03H95.684v-4.03zM30.444 9.437v4.03H0v-4.03zm50.753 0a17 17 0 0 1 1.498 3.499l.15.531H34.794v-4.03zm75.396-.018v4.03h-28.776l1.373-4.03zm-42.207 0 1.372 4.031H86.982V9.42zM30.444.978v4.03H0V.977zm36.374 0c3.96 0 7.594 1.415 10.448 3.772l.303.257H34.794V.977zm89.775-.022v4.031h-25.894l1.372-4.03zm-45.098 0 1.372 4.03H86.982V.955z"/></svg>