<svg xmlns="http://www.w3.org/2000/svg" xml:space="preserve" id="Layer_1" x="0" y="0" style="enable-background:new 0 0 512 512" version="1.1" viewBox="0 0 512 512"><style>.st0{fill-rule:evenodd;clip-rule:evenodd;fill:#f7f5f6}</style><path d="M207.1 262.7 79.6 445.1m127.5-182.4 264-65.1m-259.2 70.6 73.9 123.5M180.4 232.2l-108.5-89m150.5 69.3 63.8-132.8" class="st0"/><g transform="translate(0 23.6)"><defs><filter id="Adobe_OpacityMaskFilter" width="116.3" height="116.3" x="11.9" y="368.7" fill="#000" filterUnits="userSpaceOnUse"><feColorMatrix values="1 0 0 0 0 0 1 0 0 0 0 0 1 0 0 0 0 0 1 0"/></filter></defs><mask id="f_00000029767045488701418600000006495648659421629069_" width="116.3" height="116.3" x="11.9" y="368.7" fill="#000" maskUnits="userSpaceOnUse"><g style="filter:url(#Adobe_OpacityMaskFilter)"><path id="e_00000075162388066800093230000009666806801934994345_" d="M11.9 368.8v116.4h116.3V368.8z" style="fill-rule:evenodd;clip-rule:evenodd;fill:#fff"/></g></mask><path d="M12 431.3c-2.4-32 21.6-60 53.6-62.4s60 21.6 62.4 53.6-21.6 60-53.6 62.4-60-21.6-62.4-53.6" style="mask:url(#f_00000029767045488701418600000006495648659421629069_);fill-rule:evenodd;clip-rule:evenodd;fill:#f7f5f6"/></g><path d="M267.9 393.9c1.1-9.9 10.1-17 20-15.9 9.9 1.2 17 10.1 15.9 20-1.2 9.9-10.1 17.1-20 15.9s-17.1-10.1-15.9-20.2M48.7 157c-6.3-12.8-1-28.2 11.8-34.6 12.8-6.3 28.2-1 34.6 11.8 6.2 12.8 1 28.2-11.8 34.6s-28.2 1-34.6-11.8m380.8 38.8c-1.5-19.5 13.1-36.5 32.6-37.9 19.5-1.5 36.5 13.1 37.9 32.6 1.5 19.5-13.1 36.5-32.6 37.9-19.5 1.5-36.5-13-37.9-32.6M269.8 13.4C289-2.2 317.3.7 333 19.9s12.8 47.5-6.4 63.2c-19.2 15.6-47.5 12.8-63.2-6.5-15.8-19.2-12.9-47.5 6.4-63.2M148.2 187.8c37-30.1 91.4-24.6 121.4 12.4 30.1 37 24.5 91.4-12.4 121.4-37 30.1-91.4 24.6-121.4-12.4-30.2-36.9-24.6-91.3 12.4-121.4" class="st0"/></svg>