<svg xmlns="http://www.w3.org/2000/svg" width="100" height="34.61"><path d="M26.85 32.57c0 .4.16.75.46 1.05.29.3.62.43 1.02.43s.75-.13 1.05-.43c.29-.29.43-.64.43-1.05V17.82c0-.4-.13-.75-.43-1.05s-.64-.43-1.05-.43-.75.13-1.05.43-.43.64-.43 1.05zM32.54 28.09c0 .89.19 1.74.54 2.52s.8 1.48 1.39 2.07 1.29 1.05 2.09 1.39c.78.35 1.64.54 2.52.54.7 0 1.37-.11 1.99-.3s1.21-.48 1.72-.86c.51-.35.99-.78 1.4-1.29.4-.51.7-1.05.94-1.66.08-.16.11-.35.11-.56 0-.35-.13-.7-.38-.99-.27-.3-.62-.46-1.07-.46q-.36 0-.72.24c-.27.16-.46.38-.59.62-.3.67-.72 1.21-1.31 1.64-.62.46-1.29.67-2.07.67-.48 0-.94-.11-1.37-.29-.46-.19-.83-.43-1.15-.75a3.1 3.1 0 0 1-.8-1.15c-.19-.43-.3-.89-.3-1.37v-5.82c0-.48.11-.94.3-1.39.19-.43.43-.8.78-1.13.32-.32.7-.59 1.15-.78.43-.19.88-.27 1.39-.27.78 0 1.45.21 2.07.64.59.43 1.02.96 1.29 1.64.29.59.72.89 1.34.89.46 0 .83-.16 1.07-.46s.38-.64.38-.99c0-.11 0-.24-.03-.38a1.3 1.3 0 0 0-.16-.4 6.2 6.2 0 0 0-.97-1.58c-.4-.46-.88-.88-1.39-1.23s-1.07-.62-1.69-.8c-.62-.19-1.23-.27-1.91-.27-.91 0-1.77.16-2.55.51-.81.35-1.5.8-2.09 1.39s-1.05 1.29-1.39 2.06c-.35.8-.51 1.66-.51 2.55v5.82ZM48.06 32.57c0 .4.16.75.46 1.05s.62.43 1.02.43.75-.13 1.05-.43c.29-.29.43-.64.43-1.05V17.82c0-.4-.13-.75-.43-1.05s-.64-.43-1.05-.43-.75.13-1.05.43c-.29.3-.43.64-.43 1.05zm5.69 0c0 .4.13.75.43 1.05s.64.43 1.05.43.75-.13 1.05-.43c.27-.29.4-.64.4-1.05V22.3c0-.48.11-.94.3-1.39.19-.43.43-.8.75-1.13.32-.32.7-.59 1.15-.78.43-.19.88-.27 1.39-.27s.97.08 1.42.27c.43.19.81.46 1.15.78.32.32.59.7.78 1.13.19.46.27.91.27 1.39v10.27c0 .4.16.75.46 1.05s.62.43 1.02.43.75-.13 1.04-.43c.27-.29.4-.64.4-1.05V22.3c0-.89-.16-1.74-.51-2.52a6.9 6.9 0 0 0-3.49-3.48c-.8-.35-1.66-.51-2.55-.51s-1.74.16-2.52.51c-.81.35-1.5.83-2.09 1.42s-1.05 1.29-1.39 2.06c-.35.78-.51 1.64-.51 2.52zM69.73 28.09c0 .89.19 1.74.54 2.52s.8 1.48 1.4 2.07c.59.59 1.29 1.05 2.09 1.39.78.35 1.64.54 2.52.54s1.74-.19 2.55-.54c.78-.35 1.48-.8 2.06-1.39.59-.59 1.07-1.29 1.42-2.07s.51-1.63.51-2.52v-2.2c0-.4-.13-.75-.43-1.05-.3-.27-.64-.4-1.05-.4h-2.92c-.4 0-.75.13-1.02.43-.3.3-.43.62-.43 1.02s.13.75.43 1.05c.27.3.62.43 1.02.43h1.45v.72c0 .48-.08.94-.27 1.37-.19.46-.46.83-.78 1.15s-.7.56-1.13.75c-.46.19-.91.29-1.42.29-.48 0-.94-.11-1.37-.29-.46-.19-.83-.43-1.15-.75-.35-.32-.59-.7-.78-1.15-.19-.43-.29-.89-.29-1.37V22.3c0-.48.11-.94.29-1.39.19-.43.43-.8.75-1.13.32-.32.7-.59 1.15-.78.43-.19.88-.27 1.39-.27.78 0 1.45.21 2.07.64.59.43 1.02.99 1.31 1.66.13.3.32.51.56.64s.51.22.75.22c.46 0 .83-.16 1.07-.46s.38-.64.38-.99v-.32c-.03-.08-.05-.19-.08-.27a6.1 6.1 0 0 0-.97-1.66c-.4-.51-.89-.94-1.4-1.29a7.1 7.1 0 0 0-1.74-.83c-.62-.19-1.29-.29-1.96-.29-.88 0-1.74.16-2.52.51-.8.35-1.5.8-2.09 1.39s-1.05 1.29-1.4 2.07c-.35.8-.54 1.66-.54 2.55v5.79ZM94.29 26.35h-4.32c.19-.46.38-.91.56-1.31.19-.4.35-.8.54-1.21.19-.4.35-.8.54-1.21.16-.4.35-.8.54-1.23l2.15 4.96Zm-9.87 5.71c-.03.08-.05.16-.08.27s-.03.22-.03.29c0 .35.13.67.4.97q.36.48 1.05.48c.29 0 .54-.08.78-.22.24-.13.43-.38.56-.67.27-.67.54-1.31.83-1.96.27-.62.54-1.26.83-1.93h6.78l1.66 3.89c.24.59.67.89 1.34.89.46 0 .81-.16 1.07-.48.24-.29.38-.62.38-.97 0-.16-.05-.35-.13-.56l-6.38-14.94c-.13-.32-.4-.56-.78-.75-.08-.05-.19-.08-.27-.11-.11-.03-.22-.03-.3-.03-.62 0-1.04.3-1.34.88l-6.38 14.94Z" style="fill:#332931;fill-rule:evenodd"/><path d="M12.22 16.24 4.25 27.66m7.97-11.42 16.51-4.07m-16.2 4.4 4.62 7.72m-6.58-9.96L3.78 8.78m9.42 4.32 3.99-8.3" style="fill:none;stroke:#332931;stroke-width:.75px"/><path d="M.01 28.22c-.15-2 1.35-3.75 3.35-3.9s3.75 1.35 3.9 3.35-1.35 3.75-3.35 3.9-3.75-1.35-3.9-3.35M16.02 24.38c.07-.62.63-1.06 1.25-.99s1.07.63.99 1.25c-.07.62-.63 1.07-1.25 1s-1.07-.63-.99-1.26M2.32 9.6c-.39-.8-.06-1.76.74-2.15s1.76-.06 2.16.74c.39.8.06 1.76-.74 2.16-.8.39-1.77.06-2.16-.74m23.82 2.43c-.09-1.22.82-2.28 2.04-2.37a2.22 2.22 0 0 1 2.37 2.04c.09 1.22-.82 2.28-2.04 2.37s-2.28-.82-2.37-2.04M16.16.63c1.2-.98 2.97-.8 3.95.4s.8 2.97-.4 3.95-2.97.8-3.95-.4-.8-2.97.4-3.95M8.57 11.56c2.31-1.88 5.71-1.54 7.59.77a5.405 5.405 0 0 1-.77 7.59 5.405 5.405 0 0 1-7.59-.77 5.387 5.387 0 0 1 .77-7.59" style="fill:#332931;fill-rule:evenodd"/></svg>