<svg xmlns="http://www.w3.org/2000/svg" width="288.93" height="100"><path d="M78.82 48.48c-.83.83-1.24 1.83-1.24 3.02v42.61c0 1.19.43 2.2 1.28 3.02.85.83 1.85 1.24 2.98 1.24s2.19-.41 3.02-1.24 1.24-1.83 1.24-3.02V51.5c0-1.19-.43-2.19-1.28-3.02s-1.85-1.24-2.98-1.24-2.2.41-3.02 1.24m24.44 11.89c.54-1.26 1.29-2.36 2.25-3.29.95-.93 2.07-1.66 3.33-2.21 1.26-.54 2.62-.81 4.07-.81 2.22 0 4.2.62 5.93 1.86s2.98 2.82 3.76 4.73c.83 1.7 2.12 2.56 3.87 2.56 1.34 0 2.38-.44 3.1-1.32s1.08-1.83 1.08-2.87q0-.465-.12-1.08c-.08-.41-.22-.8-.43-1.16-.72-1.65-1.66-3.16-2.83-4.53a19 19 0 0 0-3.99-3.56 18.4 18.4 0 0 0-4.88-2.32c-1.76-.54-3.59-.81-5.5-.81-2.63 0-5.1.49-7.4 1.47s-4.3 2.32-6.01 4.03c-1.7 1.7-3.05 3.71-4.03 6q-1.47 3.45-1.47 7.32v16.81c0 2.58.5 5.01 1.51 7.28s2.36 4.26 4.07 5.97 3.7 3.06 6 4.07 4.74 1.51 7.32 1.51c2.01 0 3.92-.28 5.73-.85s3.46-1.38 4.96-2.44 2.83-2.31 3.99-3.76a17.9 17.9 0 0 0 2.75-4.8c.21-.46.31-1.01.31-1.63 0-1.03-.37-1.99-1.12-2.87q-1.125-1.32-3.06-1.32c-.67 0-1.38.23-2.13.7s-1.31 1.06-1.66 1.78q-1.245 2.865-3.84 4.77c-1.73 1.27-3.71 1.9-5.93 1.9q-2.085 0-3.99-.81c-1.27-.54-2.38-1.28-3.33-2.21-.96-.93-1.72-2.03-2.29-3.29a9.6 9.6 0 0 1-.85-3.99V64.39q0-2.085.81-3.99m39.88-13.16c-1.19 0-2.2.41-3.02 1.24-.83.83-1.24 1.83-1.24 3.02v42.61c0 1.19.43 2.2 1.28 3.02.85.83 1.85 1.24 2.98 1.24s2.19-.41 3.02-1.24 1.24-1.83 1.24-3.02V51.5c0-1.19-.43-2.19-1.28-3.02s-1.85-1.24-2.98-1.24m44.32 3.95c-1.7-1.7-3.71-3.06-6-4.07-2.3-1.01-4.74-1.51-7.32-1.51s-5.02.5-7.32 1.51-4.3 2.36-6.01 4.07c-1.7 1.7-3.05 3.69-4.03 5.96s-1.47 4.7-1.47 7.28V94.1c0 1.19.41 2.2 1.24 3.02.83.83 1.83 1.24 3.02 1.24s2.18-.41 2.98-1.24 1.2-1.83 1.2-3.02V64.43c0-1.4.27-2.72.82-3.99.54-1.26 1.28-2.36 2.21-3.29s2.03-1.67 3.29-2.21 2.62-.81 4.07-.81 2.8.27 4.07.81c1.26.54 2.38 1.28 3.33 2.21s1.7 2.03 2.25 3.29c.54 1.27.81 2.59.81 3.99V94.1c0 1.19.43 2.2 1.28 3.02.85.83 1.85 1.24 2.98 1.24s2.18-.41 2.98-1.24 1.2-1.83 1.2-3.02V64.43c0-2.58-.5-5.01-1.51-7.28s-2.36-4.26-4.07-5.96M235 70.64h-8.44c-1.19 0-2.18.41-2.98 1.24q-1.2 1.245-1.2 2.94c0 1.695.4 2.2 1.2 3.02.8.83 1.8 1.24 2.98 1.24h4.18v2.09q0 2.085-.81 3.99c-.54 1.27-1.28 2.36-2.21 3.29s-2.03 1.67-3.29 2.21c-1.27.54-2.62.81-4.07.81s-2.72-.27-3.99-.81-2.38-1.28-3.33-2.21c-.96-.93-1.7-2.03-2.25-3.29-.54-1.26-.81-2.6-.81-3.99V64.44c0-1.4.27-2.72.81-3.99.54-1.26 1.28-2.36 2.21-3.29s2.03-1.67 3.29-2.21 2.62-.81 4.07-.81c2.22 0 4.2.62 5.93 1.86a11.05 11.05 0 0 1 3.83 4.8c.36.83.9 1.45 1.63 1.86.72.41 1.45.62 2.17.62 1.34 0 2.38-.44 3.1-1.32s1.08-1.83 1.08-2.87c0-.31-.01-.61-.04-.89s-.09-.55-.19-.81c-.72-1.76-1.67-3.36-2.83-4.8a18.2 18.2 0 0 0-4.03-3.72 19 19 0 0 0-5-2.4c-1.81-.57-3.69-.85-5.66-.85q-3.87 0-7.32 1.47c-2.3.98-4.3 2.32-6.01 4.03-1.7 1.7-3.06 3.71-4.07 6-1.01 2.3-1.51 4.74-1.51 7.32v16.73c0 2.58.5 5.01 1.51 7.28s2.36 4.26 4.07 5.97c1.71 1.7 3.71 3.06 6.01 4.07s4.74 1.51 7.32 1.51 5.02-.5 7.32-1.51 4.3-2.36 6-4.07c1.71-1.7 3.06-3.69 4.07-5.97 1.01-2.27 1.51-4.7 1.51-7.28v-6.35c0-1.19-.41-2.18-1.24-2.98s-1.83-1.2-3.02-1.2M259.95 76.14c.57-1.34 1.11-2.61 1.63-3.8s1.03-2.35 1.55-3.49c.51-1.14 1.02-2.29 1.51-3.45q.735-1.74 1.59-3.6l6.2 14.33h-12.47Zm28.59 16.5L270.1 49.49c-.41-.93-1.16-1.65-2.25-2.17-.26-.16-.53-.26-.81-.31s-.56-.08-.81-.08c-1.76 0-3.05.85-3.88 2.56l-18.44 43.15c-.11.21-.18.47-.23.78s-.08.59-.08.85c0 .98.37 1.93 1.12 2.83.75.91 1.77 1.36 3.06 1.36.82 0 1.57-.21 2.25-.62.67-.41 1.21-1.06 1.63-1.94.78-1.91 1.56-3.78 2.36-5.62.8-1.83 1.61-3.71 2.44-5.62h19.6l4.8 11.23c.67 1.7 1.96 2.56 3.87 2.56 1.29 0 2.31-.45 3.06-1.36.75-.9 1.12-1.85 1.12-2.83 0-.47-.13-1.01-.39-1.63ZM81.42 27.93c-3.51.27-6.15 3.33-5.88 6.84.04.53.15 1.04.31 1.53l-25.91 6.39c-.45-2.51-1.53-4.94-3.25-7.05a15.4 15.4 0 0 0-4.91-3.99l7.6-15.8c2.52.79 5.37.35 7.57-1.44 3.47-2.83 3.99-7.95 1.16-11.42s-7.95-4-11.42-1.17-4 7.95-1.16 11.42c.77.95 1.71 1.66 2.74 2.16L40.7 31.14a15.6 15.6 0 0 0-15.95 2.25c-.51.41-.97.86-1.41 1.32l-8.35-6.83c.68-1.27.76-2.84.08-4.23a4.66 4.66 0 0 0-8.37 4.09 4.66 4.66 0 0 0 6.23 2.14c.53-.26.98-.62 1.36-1.03l8.24 6.75c-4.61 5.62-4.8 13.88-.02 19.73a15.5 15.5 0 0 0 3.84 3.37l-9.53 13.66a10.49 10.49 0 0 0-7.11-2.09C3.92 70.7-.42 75.75.02 81.53c.43 5.79 5.48 10.13 11.27 9.69 5.79-.43 10.12-5.48 9.69-11.27-.2-2.71-1.42-5.08-3.24-6.82l9.65-13.84a15.63 15.63 0 0 0 14.83-.23l5.43 9.08c-.73.52-1.25 1.32-1.36 2.28a3.263 3.263 0 0 0 2.87 3.62c1.79.2 3.41-1.08 3.62-2.87a3.27 3.27 0 0 0-2.87-3.62c-.41-.05-.8 0-1.18.09l-5.5-9.18c.41-.28.82-.57 1.21-.89 4.22-3.45 6.17-8.65 5.65-13.7l26.23-6.47a6.39 6.39 0 0 0 6.04 3.25 6.37 6.37 0 0 0 5.88-6.84c-.26-3.51-3.33-6.15-6.84-5.89" style="fill:#fefefe"/></svg>