<svg xmlns="http://www.w3.org/2000/svg" xmlns:xlink="http://www.w3.org/1999/xlink" version="1.1" viewBox="0 0 492.61 184.71">
<defs>
<clipPath id="clip1">
  <path d="M 457 57 L 492.601563 57 L 492.601563 93 L 457 93 Z M 457 57 "/>
</clipPath>
<clipPath id="clip2">
  <path d="M 307 0 L 448 0 L 448 184.710938 L 307 184.710938 Z M 307 0 "/>
</clipPath>
</defs>
<g id="surface1">
<g clip-path="url(#clip1)" clip-rule="nonzero">
<path style=" stroke:none;fill-rule:nonzero;fill:rgb(7.499695%,44.699097%,72.898865%);fill-opacity:1;" d="M 485.101563 85.105469 C 482.601563 87.605469 479.101563 89.105469 475.300781 89.105469 C 471.5 89.105469 468 87.703125 465.5 85.105469 C 463 82.605469 461.5 79.003906 461.5 75.304688 C 461.5 71.402344 463 68.003906 465.5 65.503906 C 468 63.003906 471.601563 61.402344 475.300781 61.402344 C 479.199219 61.402344 482.601563 63.003906 485.101563 65.503906 C 487.601563 68.003906 489.199219 71.503906 489.199219 75.304688 C 489.199219 79.105469 487.601563 82.605469 485.101563 85.105469 Z M 487.601563 62.902344 C 484.398438 59.804688 480 57.902344 475.199219 57.902344 C 470.398438 57.902344 466 59.804688 462.898438 62.902344 C 459.699219 66.105469 457.800781 70.503906 457.800781 75.304688 C 457.800781 80.105469 459.699219 84.402344 462.898438 87.605469 C 466 90.703125 470.398438 92.601563 475.199219 92.601563 C 480 92.601563 484.398438 90.703125 487.5 87.605469 C 490.699219 84.503906 492.601563 80.105469 492.601563 75.304688 C 492.699219 70.503906 490.800781 66.105469 487.601563 62.902344 Z M 475.601563 73.902344 L 471.800781 73.902344 L 471.800781 69.402344 L 477.300781 69.402344 C 477.898438 69.503906 478.300781 69.703125 478.601563 70.203125 C 478.898438 70.503906 479.101563 71.003906 479.101563 71.605469 C 479.101563 72.105469 478.898438 72.605469 478.699219 72.902344 C 478.5 73.203125 478.199219 73.503906 477.699219 73.703125 C 477.300781 73.804688 476.601563 73.902344 475.601563 73.902344 Z M 480 77.804688 C 479.5 77.203125 478.800781 76.804688 478.101563 76.304688 C 479.699219 76.003906 480.898438 75.503906 481.601563 74.703125 C 482.398438 73.804688 482.800781 72.703125 482.800781 71.304688 C 482.800781 70.304688 482.5 69.402344 482 68.503906 C 481.398438 67.703125 480.699219 67.105469 479.898438 66.703125 C 479.101563 66.402344 477.601563 66.304688 475.800781 66.304688 L 468.300781 66.304688 L 468.300781 84.105469 L 471.800781 84.105469 L 471.800781 76.605469 L 472.601563 76.605469 C 473.398438 76.605469 474 76.703125 474.5 76.804688 C 474.800781 76.902344 475.199219 77.105469 475.5 77.503906 C 475.800781 77.902344 476.5 78.804688 477.398438 80.203125 L 480 84.105469 L 484.300781 84.105469 L 482.101563 80.605469 C 481.199219 79.304688 480.5 78.304688 480 77.804688 "/>
</g>
<path style=" stroke:none;fill-rule:nonzero;fill:rgb(7.499695%,44.699097%,72.898865%);fill-opacity:1;" d="M 205.398438 43.902344 C 198.199219 43.902344 192.398438 49.402344 192.398438 56.203125 C 192.398438 63.003906 198.199219 68.503906 205.398438 68.503906 C 212.601563 68.503906 218.398438 63.003906 218.398438 56.203125 C 218.398438 49.304688 212.5 43.902344 205.398438 43.902344 Z M 291.699219 74.804688 C 286.300781 74.804688 282.699219 77.402344 280.898438 82.503906 L 265 134.503906 L 247.101563 74.804688 L 222.101563 74.804688 L 253.5 159.703125 L 277.5 159.703125 L 309.199219 74.804688 Z M 206.898438 74.804688 L 194.800781 74.804688 L 194.800781 159.703125 L 218.398438 159.703125 L 218.398438 85.703125 C 218.398438 82.703125 217.300781 80.203125 215 78.003906 C 212.699219 75.804688 210 74.804688 206.898438 74.804688 Z M 184.101563 74.804688 C 178 74.804688 172.101563 75.503906 166.398438 77.003906 C 160.699219 78.503906 155.699219 80.804688 151.398438 84.003906 C 146.898438 87.402344 143.398438 91.902344 140.800781 97.601563 C 138.199219 103.203125 136.898438 110.203125 136.898438 118.503906 L 136.898438 159.601563 L 160.5 159.601563 L 160.5 115.902344 C 160.5 109.503906 162.101563 104.800781 165.199219 101.902344 C 168.300781 98.902344 173.199219 97.402344 179.699219 97.402344 L 187.5 97.402344 L 187.5 74.804688 Z M 100.398438 131.601563 C 95.199219 137.101563 87.101563 139.902344 76.101563 139.902344 L 56.898438 139.902344 L 56.898438 69.003906 L 79.199219 69.003906 C 89.101563 69.003906 96.300781 71.902344 100.800781 77.605469 C 105.5 83.304688 107.898438 92.402344 107.898438 104.703125 C 107.800781 117.503906 105.398438 126.503906 100.398438 131.601563 Z M 79.199219 49.902344 L 45.800781 49.902344 C 42.398438 49.902344 39.601563 51.003906 37.199219 53.304688 C 34.800781 55.503906 33.699219 58.203125 33.699219 61.402344 L 33.699219 159.703125 L 72.800781 159.703125 C 83.800781 159.703125 92 159.003906 97.398438 157.503906 C 103 156.003906 108.300781 153.503906 113.300781 149.800781 C 119.101563 145.503906 123.898438 139.402344 127.5 131.300781 C 130.601563 123.402344 132.199219 114.601563 132.199219 104.800781 C 132.199219 86.503906 127.800781 72.703125 119 63.304688 C 110.199219 54.402344 96.898438 49.902344 79.199219 49.902344 Z M 3.5 53.203125 C 1.199219 55.503906 0 58.203125 0 61.402344 L 0 159.703125 L 24 159.703125 L 24 49.902344 L 12.101563 49.902344 C 8.800781 49.902344 5.898438 51.003906 3.5 53.203125 "/>
<g clip-path="url(#clip2)" clip-rule="nonzero">
<path style=" stroke:none;fill-rule:nonzero;fill:rgb(93.699646%,26.699829%,25.498962%);fill-opacity:1;" d="M 438.300781 80.503906 C 437.800781 79.605469 437.398438 78.804688 436.800781 78.105469 C 433.5 73.105469 429.300781 69.105469 424.300781 66.203125 C 421.300781 64.304688 417.898438 63.003906 414.300781 62.105469 L 369.300781 50.003906 C 365.800781 49.105469 362.300781 48.605469 359 48.605469 C 352.199219 48.503906 345.699219 50.304688 339.300781 54.003906 C 338.699219 54.304688 338.101563 54.703125 337.601563 55.105469 C 334.601563 57.003906 332 59.105469 329.699219 61.703125 C 325.5 66.105469 322.601563 71.605469 321 77.902344 L 308.898438 122.902344 C 306.101563 133.402344 307.398438 143.402344 312.800781 152.800781 C 318.199219 162.300781 326.199219 168.402344 336.800781 171.203125 L 381.898438 183.300781 C 392.398438 186.101563 402.300781 184.703125 411.699219 179.300781 C 421.199219 173.902344 427.300781 165.902344 430.199219 155.503906 L 442.300781 110.503906 C 444.800781 100.800781 444 91.703125 439.601563 82.902344 C 439.199219 82.003906 438.800781 81.203125 438.300781 80.503906 Z M 439.800781 27.402344 C 432.300781 14.402344 421.300781 5.902344 406.601563 2.003906 C 392 -1.894531 378.199219 -0.0976563 365.101563 7.402344 C 352.101563 15.003906 343.601563 26.105469 339.699219 40.703125 C 339.101563 43.003906 338.601563 45.203125 338.199219 47.402344 C 346 43.402344 353.601563 41.605469 361.101563 41.902344 C 363.898438 35.105469 368.699219 29.804688 375.300781 25.902344 C 383.398438 21.304688 392 20.105469 401.101563 22.503906 C 410.199219 25.003906 417.101563 30.203125 421.699219 38.304688 C 425.5 44.902344 426.898438 51.804688 426.101563 59.105469 C 432.300781 62.503906 438 68.203125 443.101563 75.902344 C 444 73.703125 444.800781 71.503906 445.5 69.105469 C 449.199219 54.503906 447.398438 40.503906 439.800781 27.402344 "/>
</g>
<path style=" stroke:none;fill-rule:nonzero;fill:rgb(100%,100%,100%);fill-opacity:1;" d="M 358.398438 108.101563 L 392.800781 108.101563 C 392.300781 102.402344 390.800781 98.101563 388.101563 95.300781 C 385.199219 92.304688 381 90.804688 375.601563 90.804688 C 370.699219 90.804688 366.601563 92.304688 363.5 95.300781 C 360.300781 98.402344 358.601563 102.601563 358.398438 108.101563 M 398.898438 133.003906 L 415.800781 133.003906 C 413.300781 141.902344 408.601563 148.703125 401.601563 153.402344 C 394.601563 158.300781 385.898438 160.703125 375.300781 160.703125 C 362.5 160.703125 352.5 156.800781 345.300781 148.902344 C 338.101563 141.203125 334.5 130.300781 334.5 116.003906 C 334.5 102.402344 338 91.804688 345 84.105469 C 352.199219 76.203125 362.199219 72.304688 375 72.304688 C 388.5 72.304688 399 76.105469 406.398438 83.804688 C 413.601563 91.703125 417.199219 102.601563 417.199219 116.703125 L 417.199219 120.203125 C 417.199219 121.300781 417.101563 122.003906 416.898438 122.402344 L 358.5 122.402344 C 358.699219 129.003906 360.398438 133.902344 363.601563 137.101563 C 366.5 140.503906 370.898438 142.203125 376.800781 142.203125 C 380.601563 142.203125 383.898438 141.503906 386.601563 140.003906 C 387.300781 139.800781 387.898438 139.402344 388.5 138.902344 C 389.101563 138.402344 389.699219 137.800781 390.398438 137.101563 C 390.601563 136.503906 391.5 135.601563 392.898438 134.601563 C 394.101563 133.601563 396.199219 133.003906 398.898438 133.003906 "/>
</g>
</svg>