<svg xmlns="http://www.w3.org/2000/svg" xml:space="preserve" viewBox="0 0 512 512"><path d="M507.8 445.7c.1-6.9 0-13.8 0-20.7-.1-7.3-.1-14.7-.1-22 0-12.3 0-24.6-.1-36.9 0-15.9-.1-31.8-.1-47.7 0-13.8-.1-27.6-.1-41.4v-13.2c0-7-.1-14.1-.1-21.1v-21.9c.1-13.3-3.6-23.1-12.6-32.9-12.8-12.4-24.6-16-42.1-16.5H445c-4 0-5.8-.1-9.2-2.3-.9-.7-1.7-1.5-2.6-2.2-10.3-7.8-20.7-15.7-30.8-23.8-6.7-5.5-13.5-10.8-20.4-16-11.2-8.3-22.3-16.8-33.1-25.6-8.4-6.9-16.8-13.6-25.4-20.1-7.3-5.6-14.5-11.2-21.7-16.9-3.7-3-7.3-5.9-11.5-8.2-.8-.3-1.5-.6-2.2-.9 3.6-4.8 4.6-8.5 4.6-14.5v-2.8c.1-2.8.1-5.5-.1-8.3-1.4-9.8-7.5-17.5-15.1-23.5-14.2-9-34.4-8.7-47.1 2.5-7.1 7.7-11.4 15.2-11.3 25.9.1 1.4.1 1.4.1 2.8 0 4.9.2 9.7 1 14.6.3.9.5 1.8.7 2.7-9.8 7.8-19.6 15.7-29.6 23.2-6.7 4.9-13.3 9.9-19.7 15.2-9.2 7.5-18.5 14.9-28 22.1-12.8 9.7-25.4 19.5-38 29.4-1.6 1.2-3.1 2.5-4.7 3.7-3.8 3-7.7 5.8-11.2 9.2l-2.1 2.1C76.8 170 68 171.9 53.1 171.6c-14.5-.3-24.1 4.2-35.2 13.5-13.1 13.4-14.3 28.5-14.2 46.2v130.1c-.1 12.4-.1 24.8-.1 37.2v51c-.1 13.1-1.1 25.2 5.9 36.8.9 1.2.9 1.2 1.7 2.4 2.3 3.4 4.5 6.1 7.4 9C34 511.7 34 511.7 76 511.4h15.4c10.1.1 20.2 0 30.3 0 11.9-.1 23.7-.1 35.6-.1 21.2 0 42.3 0 63.5-.1 20.5 0 41.1-.1 61.7-.1h19.1c19.8 0 39.5-.1 59.2-.1h21.3c11.4 0 22.8-.1 34.2-.1h35.4c5.8.1 11.6.1 17.4-.5 10.7-2.8 20.7-8.4 27.5-17.3.7-.9 1.4-1.9 2.1-2.8 8.9-11.9 9.2-22.8 9.1-37zm-266.7-416c3.3-4 3.3-4 6.7-6.7 2.3-2 4.8-1.5 7.8-1.6 5 0 6.8.2 11.2 2.9 4.4 4.8 4.3 8.3 4.2 14.6-.4 4.2-1.6 6.5-4.3 9.7-3.6 2.9-6.1 3.9-10.7 4.6-5.3-.8-8.1-2.6-12.2-6-3.4-5.6-3.8-11.1-2.7-17.5M104.6 161.9c.8-.6 1.5-1.2 2.3-1.9 1.2-1 1.2-1 2.5-2s1.3-1 2.6-2.1c7.5-5.9 15.1-11.8 22.7-17.6 7.2-5.5 14.4-11.2 21.4-16.9 6-4.8 12.1-9.6 18.2-14.2 5.2-4 10.3-8 15.5-12 7.6-6 15.2-11.9 22.8-17.8 1-.8 2.1-1.6 3.1-2.4 1.5-1.1 1.5-1.1 3-2.3.9-.7 1.7-1.3 2.6-2 1.3-1 1.3-1 2.5-1.9.9-.8 1.9-1.5 2.8-2.3 2.5-1.7 2.5-1.7 5.2-1.4 2.6 1.1 5 2.3 7.4 3.8 8.4 4.2 16.3 5.3 25.4 2.6 3-1.2 6-2.4 9-3.7 6.5-2.8 6.5-2.8 9.2-3 2.8 1.7 2.8 1.7 5.9 4.4l3.6 3 4 3.4c3 2.4 6 4.8 9.1 7.1 1.6 1.3 3.2 2.5 4.9 3.8.8.6 1.6 1.3 2.5 1.9 2.3 1.8 4.7 3.7 7 5.5 9.4 7.4 18.9 14.8 28.5 22 6.2 4.7 12.3 9.6 18.4 14.5 7.9 6.4 16 12.5 24.1 18.6 20.7 15.4 20.7 15.4 27.9 21.9v1.3H93.6c7.6-7.6 7.6-7.6 11-10.3M475.3 230v11.3c0 5.3 0 10.6-.1 15.8v16.5c0 10.4 0 20.9-.1 31.3 0 11.9-.1 23.8-.1 35.7 0 24.5-.1 48.9-.2 73.4-3.9-3.9-7.6-7.6-10.9-12.1-.7-1-1.5-2-2.2-3-.8-1.1-1.5-2.1-2.3-3.2s-1.6-2.2-2.5-3.4c-6.2-8.5-12.3-17-18.4-25.5-6.3-8.8-12.7-17.4-19.1-26.1-3.2-4.3-6.4-8.7-9.3-13.2-2.4-3.6-3.9-5.5-7.7-7.5-5.3-.7-8.2-.8-12.6 2.2-4 3.6-7.2 7.6-10.4 11.8q-7.35 9.6-15.3 18.9c-6 7-11.8 14.3-17.4 21.6-5.1 6.6-5.1 6.6-9.9 7.9-3.7.4-6.1.4-9.7-.7-5.2-4.4-9.2-9.5-13.4-14.8-7.2-9-7.2-9-16.1-16.1-4.7-.7-4.7-.7-9.4 1.3-3.4 3.1-5.6 6.9-8.1 10.7-1.6 2.4-3.1 4.9-4.7 7.3-1.1 1.7-2.1 3.3-3.2 5-6.3 10-6.3 10-11 11.3-4.6.2-8 .2-11.8-2.5-2.6-2.9-4.8-5.8-7-9l-1.5-2.1c-2.8-4.1-5.6-8.3-8.4-12.5-3.7-5.6-7.4-11.1-11.2-16.6-.6-.9-1.3-1.8-1.9-2.8-4-5.8-8-11.6-12.1-17.3-2.1-3-4.1-6-6.1-9.1-.6-1-1.3-1.9-2-2.9-1.3-1.9-2.6-3.9-3.8-5.8-3.4-5.1-6.2-9.1-12.1-11.3-5.9 0-8.6.6-13.1 4.5-1.2 1.3-2.4 2.7-3.5 4.1-.6.7-1.3 1.4-1.9 2.2-1.9 2.2-3.8 4.5-5.6 6.7-1.1 1.3-2.1 2.5-3.2 3.8-3 3.6-5.9 7.3-8.9 10.9-7.3 9-14.8 17.9-22.3 26.7-3.8 4.5-7.6 9-11.2 13.6-5 6.3-10.2 12.4-15.5 18.5-5.1 6-10.1 12-15.1 18.1-3.4 4.2-6.9 8.3-10.4 12.5-4.5 5.3-9 10.7-13.4 16.1-4.7 5.7-9.4 11.4-14.1 17-.6.8-1.3 1.6-2 2.4-1.6 1.8-3.2 3.7-4.8 5.5H37c-.1-31.2-.2-62.5-.2-93.7 0-14.5 0-29-.1-43.5 0-12.6-.1-25.3-.1-37.9v-60.8c.7-6.4 3-9.5 7.1-14.4 6.5-3.7 13.1-3 20.6-3h386.6c8.1.1 13.7.2 19.9 6.1 3.9 5 4.5 8.7 4.5 15z" style="fill:#010101"/><path d="M290.9 264.1c4 3.6 7.3 7.4 9.3 11 3.6-6.4 6-14 6-18.9v-.1c0-7.2-7.2-10-13.3-10s-13.3 2.8-13.3 10v.4c3.4 1.5 7.5 4.2 11.3 7.6" style="fill:#fa2921"/><path d="M268.9 283.6c2.5-2.8 6.4-5.8 10.7-8.4 4.6-2.7 9.3-4.6 13.3-5.5-5-5.4-11.5-10-16.1-11.5h-.1c-6.8-2.2-11.7 3.7-13.6 9.6s-1.5 13.5 5.4 15.8c.1-.1.3 0 .4 0" style="fill:#ed79b5"/><path d="M322.7 267.7c-1.9-5.9-6.8-11.8-13.6-9.6-.1 0-.2.1-.4.1-.4 3.7-1.7 8.5-3.7 13.1-2.1 4.9-4.8 9.2-7.5 12.3 7.2 1.4 15.2 1.4 19.8-.1h.1c6.7-2.3 7.2-10 5.3-15.8" style="fill:#ffb400"/><path d="M286.8 289.4c-1.2-5.2-1.5-10.2-1.1-14.4-6.7 3.1-13.1 7.8-16 11.7l-.1.1c-4.2 5.8-.1 12.3 4.9 15.9s12.4 5.6 16.6-.2c.1-.1.1-.2.2-.3-1.7-3.3-3.4-7.9-4.5-12.8" style="fill:#1e83f7"/><path d="M316.1 286.4c-3.7.8-8.6 1-13.6.5-5.4-.5-10.2-1.7-14-3.4.9 7.3 3.4 14.9 6.2 18.8l.1.1c4.2 5.8 11.7 3.9 16.6.2 5-3.6 9.1-10.1 4.9-15.9-.1 0-.1-.1-.2-.3" style="fill:#18c249"/></svg>