<svg xmlns="http://www.w3.org/2000/svg" xml:space="preserve" id="Layer_1" x="0" y="0" version="1.1" viewBox="0 0 512 512"><style>.st9{fill-rule:evenodd;clip-rule:evenodd;fill:#fff}</style><path d="M255.2 120.7C292.9 83 414.8 53.5 436.9 75.6c14.1 14.1 7.3 68.6-9.3 116.1 0 0-53.2-38.2-106.3-19.7s-66.2 85.3-66.2 85.3c-37.7-37.6-37.7-98.8.1-136.6" style="fill:#8bbb25"/><path d="M351.1 159.7c53.4 0 160.4 65.3 160.4 96.7 0 19.9-43.4 53.7-88.6 75.5 0 0-10.6-64.7-61.3-89.1s-107.1 13.5-107.1 13.5c-.1-53.3 43.2-96.6 96.6-96.6" style="fill:#18c249"/><path d="M391.3 255.2c37.7 37.7 67.2 159.6 45.1 181.8-14.1 14.1-68.6 7.3-116.1-9.3 0 0 38.2-53.2 19.7-106.3-18.6-53.1-85.3-66.2-85.3-66.2 37.6-37.8 98.8-37.8 136.6 0" style="fill:#1ba3a0"/><path d="M352.3 351.1c0 53.4-65.3 160.4-96.7 160.4-19.9 0-53.7-43.4-75.5-88.6 0 0 64.7-10.6 89.1-61.3s-13.5-107.1-13.5-107.1c53.3-.1 96.6 43.2 96.6 96.6" style="fill:#1e83f7"/><path d="M256.8 391.3C219.1 429 97.2 458.5 75.1 436.4c-14.1-14.1-7.3-68.6 9.3-116.1 0 0 53.2 38.2 106.3 19.7 53.1-18.6 66.2-85.3 66.2-85.3 37.7 37.6 37.7 98.8-.1 136.6" style="fill:#857ed6"/><path d="M160.9 352.3C107.5 352.3.5 287 .5 255.6c0-19.9 43.4-53.7 88.6-75.5 0 0 10.6 64.7 61.3 89.1s107.1-13.5 107.1-13.5c.1 53.3-43.2 96.6-96.6 96.6" style="fill:#ed79b5"/><path d="M120.7 256.8C83 219.1 53.5 97.2 75.6 75.1c14.1-14.1 68.6-7.3 116.1 9.3 0 0-38.2 53.2-19.7 106.3s85.3 66.2 85.3 66.2c-37.6 37.7-98.8 37.7-136.6-.1" style="fill:#f3516b"/><path d="M159.7 160.9C159.7 107.5 225 .5 256.4.5c19.9 0 53.7 43.4 75.5 88.6 0 0-64.7 10.6-89.1 61.3s13.5 107.1 13.5 107.1c-53.3.1-96.6-43.2-96.6-96.6" style="fill:#fa2921"/><path d="M81.7 183.2c-20.1 10.3-39.4 22.7-54.2 34.9-8.3 6.8-15.1 13.6-19.9 20S0 250.4 0 255.6c0 4.1 1.7 8.6 4.8 13.4s7.5 10 12.9 15.3c10.9 10.6 26 21.7 42.7 31.8 6.7 4.1 13.7 8 20.8 11.6-6.9 21.5-11.8 43.9-13.6 63-1 10.7-1.1 20.3 0 28.2s3.3 14.1 7 17.7c2.9 2.9 7.3 4.9 12.9 6.1 5.6 1.3 12.4 1.8 19.9 1.7 15.2-.2 33.7-3 52.7-7.7 7.6-1.9 15.4-4.1 23-6.5 10.3 20.1 22.7 39.4 34.9 54.2 6.8 8.3 13.6 15.1 20 19.9 6.3 4.8 12.3 7.6 17.5 7.6 4.1 0 8.6-1.7 13.4-4.8s10-7.5 15.3-12.9c10.6-10.9 21.7-26 31.8-42.7 4.1-6.7 8-13.7 11.6-20.8 21.5 6.9 43.9 11.8 63 13.6 10.7 1 20.3 1.1 28.2 0s14.1-3.3 17.7-7c2.9-2.9 4.9-7.3 6.1-12.9 1.3-5.6 1.8-12.4 1.7-19.9-.2-15.2-3-33.7-7.7-52.7-1.9-7.6-4.1-15.4-6.5-23 20.1-10.3 39.4-22.7 54.2-34.9 8.3-6.8 15.1-13.6 19.9-20 4.8-6.3 7.6-12.3 7.6-17.5 0-4.1-1.7-8.6-4.8-13.4s-7.5-10-12.9-15.3c-10.9-10.6-26-21.7-42.7-31.8-6.7-4.1-13.7-8-20.8-11.6 6.9-21.5 11.8-43.9 13.6-63 1-10.7 1.1-20.3 0-28.2s-3.3-14.1-7-17.7c-2.9-2.9-7.3-4.9-12.9-6.1-5.6-1.3-12.4-1.8-19.9-1.7-15.2.2-33.7 3-52.7 7.7-7.6 1.9-15.4 4.1-23 6.5-10.3-20.1-22.7-39.4-34.9-54.2-6.8-8.3-13.6-15.1-20-19.9-6.3-4.9-12.2-7.7-17.4-7.7-4.1 0-8.6 1.7-13.4 4.8s-10 7.5-15.3 12.9c-10.6 10.9-21.7 26-31.8 42.7-4.1 6.7-8 13.7-11.6 20.8-21.5-6.9-43.9-11.8-63-13.6-10.7-1-20.3-1.1-28.2 0s-14.1 3.3-17.7 7c-2.9 2.9-4.9 7.3-6.1 12.9-1.3 5.6-1.8 12.4-1.7 19.9.2 15.2 3 33.7 7.7 52.7 1.8 7.8 3.9 15.5 6.4 23.1z" style="fill:none;stroke:#fff"/><path fill="#fff" d="M159.7 160.9C159.7 107.5 225 .5 256.4.5c19.8 0 53.1 42.7 75 87.6l-11.2 3.8c-4.2-8.6-8.9-17-13.8-25.1-9.8-16.2-20.4-30.5-30.2-40.5-4.9-5-9.3-8.7-13-11.1-3.9-2.5-6.1-2.9-6.9-2.9s-3 .4-6.9 2.9c-3.7 2.4-8.2 6.1-13 11.1-9.7 10-20.3 24.3-30.2 40.5-9.8 16.2-18.6 33.9-24.9 50.7-6.4 17-9.9 32.2-9.9 43.5 0 46.9 38 85 85 85v11.7c-53.4-.1-96.7-43.4-96.7-96.8" class="st9"/><path fill="#fff" d="M255.2 120.7C292.9 83 414.8 53.5 436.9 75.6c14 14 7.4 67.8-8.9 115l-10.6-5.2c3.1-9 5.8-18.3 8-27.5 4.5-18.4 7.1-36 7.3-50 .1-7-.4-12.7-1.4-17.1-1-4.5-2.3-6.4-2.8-6.9s-2.4-1.8-6.9-2.8c-4.3-1-10.1-1.5-17.1-1.4-14 .2-31.6 2.8-50 7.3s-37.1 10.8-53.5 18.2c-16.5 7.5-29.8 15.7-37.8 23.7-28 28-32.4 70.6-13.2 103.1 1.7 2.8 3.5 5.6 5.5 8.2 2.3 3.1 4.9 6 7.7 8.8l-8.3 8.3c-37.5-37.6-37.5-98.8.3-136.6" class="st9"/><path fill="#fff" d="M120.7 256.8C83 219.1 53.5 97.2 75.6 75.1c14-14 67.8-7.4 115 8.9l-5.2 10.6c-9-3.1-18.3-5.8-27.5-8-18.4-4.5-36-7.1-50-7.3-7-.1-12.7.4-17.1 1.4-4.5 1-6.4 2.3-6.9 2.8s-1.8 2.4-2.8 6.9c-1 4.3-1.5 10.1-1.4 17.1.2 14 2.8 31.6 7.3 50s10.8 37.1 18.2 53.5c7.5 16.5 15.7 29.8 23.7 37.8 33.2 33.2 87 33.2 120.2 0l8.3 8.3c-37.7 37.5-98.9 37.5-136.7-.3" class="st9"/><path fill="#fff" d="M351.1 159.7c53.4 0 160.4 65.3 160.4 96.7 0 19.8-42.7 53.1-87.6 75l-3.8-11.2c8.6-4.2 17-8.9 25.1-13.8 16.2-9.8 30.5-20.4 40.5-30.2 5-4.9 8.7-9.3 11.1-13 2.5-3.9 2.9-6.1 2.9-6.9s-.4-3-2.9-6.9c-2.4-3.7-6.1-8.2-11.1-13-10-9.7-24.3-20.3-40.5-30.2-16.2-9.8-33.9-18.6-50.7-24.9-17-6.4-32.2-9.9-43.5-9.9-46.9 0-85 38-85 85h-11.7c0-5.5.5-10.8 1.3-16.1.5-2.8 1.1-5.5 1.8-8.2 10.9-41.6 48.7-72.4 93.7-72.4" class="st9"/><path fill="#fff" d="M391.3 255.2c37.7 37.7 67.2 159.6 45.1 181.8-14 14-67.8 7.4-115-8.9l5.2-10.6c9 3.1 18.3 5.8 27.5 8 18.4 4.5 36 7.1 50 7.3 7 .1 12.7-.4 17.1-1.4 4.5-1 6.4-2.3 6.9-2.8s1.8-2.4 2.8-6.9c1-4.3 1.5-10.1 1.4-17.1-.2-14-2.8-31.6-7.3-50s-10.8-37.1-18.2-53.5c-7.5-16.5-15.7-29.8-23.7-37.8-33.2-33.2-87-33.2-120.2 0l-8.3-8.3c37.7-37.6 98.9-37.6 136.7.2" class="st9"/><path fill="#fff" d="M352.3 351.1c0 53.4-65.3 160.4-96.7 160.4-19.8 0-53.1-42.7-75-87.6l11.2-3.8c4.2 8.6 8.9 17 13.8 25.1 9.8 16.2 20.4 30.5 30.2 40.5 4.9 5 9.3 8.7 13 11.1 3.9 2.5 6.1 2.9 6.9 2.9s3-.4 6.9-2.9c3.7-2.4 8.2-6.1 13-11.1 9.7-10 20.3-24.3 30.2-40.5 9.8-16.2 18.6-33.9 24.9-50.7 6.4-17 9.9-32.2 9.9-43.5 0-46.9-38-85-85-85v-11.7c53.4.1 96.7 43.4 96.7 96.8" class="st9"/><path fill="#fff" d="M256.8 391.3C219.1 429 97.2 458.5 75.1 436.4c-14-14-7.4-67.8 8.9-115l10.6 5.2c-3.1 9-5.8 18.3-8 27.5-4.5 18.4-7.1 36-7.3 50-.1 7 .4 12.7 1.4 17.1 1 4.5 2.3 6.4 2.8 6.9s2.4 1.8 6.9 2.8c4.3 1 10.1 1.5 17.1 1.4 14-.2 31.6-2.8 50-7.3s37.1-10.8 53.5-18.2c16.5-7.5 29.8-15.7 37.8-23.7 33.2-33.2 33.2-87 0-120.2l8.3-8.3c37.5 37.7 37.5 98.9-.3 136.7" class="st9"/><path fill="#fff" d="M160.9 352.3C107.5 352.3.5 287 .5 255.6c0-19.8 42.7-53.1 87.6-75l3.8 11.2c-8.6 4.2-17 8.9-25.1 13.8-16.2 9.8-30.5 20.4-40.5 30.2-5 4.9-8.7 9.3-11.1 13-2.5 3.9-2.9 6.1-2.9 6.9s.4 3 2.9 6.9c2.4 3.7 6.1 8.2 11.1 13 10 9.7 24.3 20.3 40.5 30.2 16.2 9.8 33.9 18.6 50.7 24.9 17 6.4 32.2 9.9 43.5 9.9 46.9 0 85-38 85-85h11.7c-.1 53.4-43.4 96.7-96.8 96.7" class="st9"/><path d="M250.2 232.1c1.7 2.8 3.5 5.6 5.5 8.2.5-2.8 1.1-5.5 1.8-8.2 0 0-1 2.1-3.1 2.1-2.9 0-4.2-2.1-4.2-2.1m18.5 3.2c-.8 3.2-1.5 6.4-1.9 9.7 2.3-1.6 4.7-3.2 7.1-4.6 0 0-2.2.8-3.7-.7-2.1-2-1.5-4.4-1.5-4.4m8.2 33.4c-3.2-.8-6.4-1.5-9.7-1.9 1.6 2.3 3.2 4.7 4.6 7.1 0 0-.8-2.2.7-3.7 2-2 4.4-1.5 4.4-1.5m-15.1 11.1c-1.7-2.8-3.5-5.6-5.5-8.2-.5 2.8-1.1 5.5-1.8 8.2 0 0 1-2.1 3.1-2.1 2.9 0 4.2 2.1 4.2 2.1m-18.6-2.9c.8-3.2 1.5-6.4 1.9-9.7-2.3 1.6-4.7 3.2-7.1 4.6 0 0 2.2-.8 3.7.7 2.1 2 1.5 4.4 1.5 4.4m-11.1-15.1c2.8-1.7 5.6-3.5 8.2-5.5-2.8-.5-5.5-1.1-8.2-1.8 0 0 2.1 1 2.1 3.1 0 2.9-2.1 4.2-2.1 4.2m3-18.5c3.2.8 6.4 1.5 9.7 1.9-1.6-2.3-3.2-4.7-4.6-7.1 0 0 .8 2.2-.7 3.7-2 2-4.4 1.5-4.4 1.5m44.8 6.9c-2.8 1.7-5.6 3.5-8.2 5.5 2.8.5 5.5 1.1 8.2 1.8 0 0-2.1-1-2.1-3.1 0-2.9 2.1-4.2 2.1-4.2" style="fill:#fff"/></svg>