<svg xmlns="http://www.w3.org/2000/svg" width="483" height="483" fill="none"><path fill="#8BBB25" d="M240.708 114.136c35.538-35.538 150.26-63.286 171.12-42.426 13.277 13.277 6.862 64.582-8.721 109.29 0 0-50.107-36-100.107-18.5s-62.292 80.329-62.292 80.329c-35.537-35.537-35.537-93.155 0-128.693"/><path fill="#18C249" d="M331 150.88c50.258 0 151 61.5 151 91 0 18.777-40.815 50.519-83.447 71.113 0 0-9.975-60.886-57.705-83.867S240 241.88 240 241.88c0-50.258 40.742-91 91-91"/><path fill="#1BA3A0" d="M368.864 240.708c35.537 35.538 63.286 150.26 42.426 171.12-13.277 13.277-64.582 6.861-109.29-8.721 0 0 36-50.107 18.5-100.107s-80.33-62.292-80.33-62.292c35.538-35.538 93.156-35.538 128.694 0"/><path fill="#1E83F7" d="M332.12 331c0 50.258-61.5 151-91 151-18.777 0-50.519-40.815-71.113-83.447 0 0 60.886-9.975 83.867-57.705S241.12 240 241.12 240c50.258 0 91 40.742 91 91"/><path fill="#857ED6" d="M242.292 368.864c-35.538 35.538-150.26 63.286-171.12 42.426-13.277-13.277-6.862-64.582 8.721-109.29 0 0 50.107 36 100.107 18.5s62.292-80.329 62.292-80.329c35.538 35.537 35.538 93.155 0 128.693"/><path fill="#ED79B5" d="M152 332.12c-50.258 0-151-61.5-151-91 0-18.777 40.815-50.519 83.447-71.113 0 0 9.975 60.886 57.705 83.867S243 241.12 243 241.12c0 50.258-40.742 91-91 91"/><path fill="#F3516B" d="M114.136 242.292C78.598 206.754 50.85 92.032 71.71 71.172c13.277-13.277 64.582-6.861 109.29 8.721 0 0-36 50.107-18.5 100.107s80.33 62.292 80.33 62.292c-35.538 35.538-93.156 35.538-128.694 0"/><path fill="#FA2921" d="M150.88 152c0-50.258 61.5-151 91-151 18.777 0 50.519 40.815 71.113 83.447 0 0-60.886 9.975-83.867 57.705S241.88 243 241.88 243c-50.258 0-91-40.742-91-91"/><path stroke="#0C1117" d="M77.396 172.96c-18.925 9.711-37.076 21.392-50.978 32.9-7.784 6.442-14.25 12.842-18.773 18.821C3.132 230.647.5 236.26.5 241.12c0 3.822 1.628 8.105 4.505 12.647 2.88 4.55 7.041 9.402 12.173 14.376 10.265 9.948 24.461 20.423 40.216 29.967a326 326 0 0 0 19.602 10.964c-6.515 20.249-11.09 41.343-12.784 59.311-.948 10.059-.995 19.156.035 26.583 1.026 7.409 3.135 13.24 6.571 16.676 2.703 2.703 6.883 4.58 12.129 5.758 5.254 1.18 11.627 1.669 18.773 1.557 14.293-.224 31.738-2.855 49.627-7.247a327 327 0 0 0 21.613-6.108c9.711 18.925 21.392 37.076 32.9 50.978 6.442 7.784 12.841 14.249 18.821 18.773 5.965 4.513 11.579 7.145 16.439 7.145 3.822 0 8.105-1.628 12.647-4.505 4.549-2.88 9.402-7.041 14.376-12.173 9.948-10.265 20.423-24.461 29.967-40.216a326 326 0 0 0 10.964-19.602c20.249 6.515 41.343 11.09 59.311 12.784 10.059.948 19.156.995 26.583-.035 7.409-1.027 13.239-3.135 16.676-6.571 2.703-2.703 4.58-6.883 5.758-12.129 1.179-5.254 1.669-11.627 1.557-18.773-.224-14.293-2.856-31.738-7.247-49.627a327 327 0 0 0-6.108-21.613c18.925-9.711 37.076-21.392 50.978-32.9 7.784-6.442 14.249-12.842 18.773-18.821 4.513-5.966 7.145-11.579 7.145-16.439 0-3.822-1.628-8.105-4.505-12.647-2.881-4.55-7.041-9.402-12.173-14.376-10.265-9.948-24.461-20.423-40.216-29.967a326 326 0 0 0-19.602-10.964c6.515-20.249 11.09-41.343 12.784-59.311.948-10.059.995-19.156-.035-26.583-1.026-7.41-3.135-13.24-6.571-16.676-2.703-2.703-6.883-4.58-12.129-5.758-5.254-1.18-11.627-1.669-18.773-1.557-14.292.224-31.738 2.856-49.627 7.247a326 326 0 0 0-21.613 6.108c-9.711-18.925-21.392-37.076-32.9-50.978-6.442-7.784-12.841-14.25-18.821-18.773C252.354 3.132 246.74.5 241.88.5c-3.822 0-8.105 1.628-12.647 4.505-4.549 2.88-9.402 7.041-14.376 12.173-9.948 10.265-20.423 24.461-29.967 40.216a326 326 0 0 0-10.964 19.602c-20.249-6.515-41.343-11.09-59.311-12.784-10.059-.948-19.156-.995-26.583.035-7.41 1.027-13.24 3.135-16.676 6.572-2.703 2.702-4.58 6.882-5.758 12.128-1.18 5.254-1.669 11.627-1.557 18.773.224 14.293 2.856 31.738 7.247 49.627a326 326 0 0 0 6.108 21.613Z"/><path fill="#0C1117" fill-rule="evenodd" d="M150.88 152c0-50.258 61.5-151 91-151 18.633 0 50.032 40.191 70.637 82.466L302 87.002a314 314 0 0 0-12.966-23.65c-9.252-15.272-19.22-28.71-28.389-38.17-4.592-4.74-8.742-8.227-12.27-10.462-3.681-2.33-5.775-2.72-6.495-2.72s-2.814.39-6.495 2.72c-3.528 2.235-7.677 5.723-12.27 10.462-9.169 9.46-19.137 22.898-28.389 38.17-9.225 15.23-17.523 31.928-23.483 47.733-6.029 15.989-9.363 30.272-9.363 40.915 0 44.183 35.817 80 80 80v11c-50.258 0-91-40.742-91-91" clip-rule="evenodd"/><path fill="#0C1117" fill-rule="evenodd" d="M240.708 114.136c35.538-35.538 150.26-63.286 171.12-42.426 13.175 13.175 6.959 63.797-8.364 108.26l-9.938-4.937a314 314 0 0 0 7.555-25.89c4.257-17.342 6.71-33.892 6.917-47.066.103-6.598-.364-11.998-1.279-16.073-.955-4.25-2.16-6.007-2.669-6.516-.51-.51-2.266-1.715-6.516-2.67-4.075-.914-9.476-1.382-16.074-1.278-13.173.206-29.723 2.66-47.065 6.917-17.292 4.245-34.967 10.185-50.357 17.146-15.569 7.043-28.026 14.785-35.552 22.311-26.322 26.323-30.467 66.424-12.435 97.086a80 80 0 0 0 5.199 7.758 81 81 0 0 0 7.236 8.293l-7.778 7.778c-35.538-35.537-35.538-93.155 0-128.693" clip-rule="evenodd"/><path fill="#0C1117" fill-rule="evenodd" d="M114.136 242.292C78.598 206.754 50.85 92.032 71.71 71.172c13.175-13.175 63.797-6.959 108.26 8.364l-4.937 9.938a314 314 0 0 0-25.89-7.555c-17.342-4.257-33.892-6.71-47.066-6.917-6.598-.103-11.998.364-16.073 1.28-4.25.954-6.007 2.16-6.516 2.668-.51.51-1.715 2.266-2.67 6.516-.914 4.075-1.382 9.476-1.278 16.074.206 13.173 2.66 29.723 6.917 47.065 4.245 17.292 10.185 34.966 17.147 50.357 7.042 15.569 14.785 28.026 22.31 35.552 31.242 31.242 81.895 31.242 113.137 0l7.779 7.778c-35.538 35.538-93.156 35.538-128.694 0" clip-rule="evenodd"/><path fill="#0C1117" fill-rule="evenodd" d="M331 150.88c50.257 0 151 61.5 151 91 0 18.633-40.191 50.032-82.466 70.637L395.997 302a314 314 0 0 0 23.65-12.966c15.273-9.252 28.71-19.22 38.171-28.389 4.739-4.592 8.227-8.742 10.461-12.27 2.331-3.681 2.721-5.775 2.721-6.495s-.39-2.814-2.721-6.495c-2.234-3.528-5.722-7.677-10.461-12.27-9.461-9.169-22.898-19.137-38.171-28.389-15.229-9.225-31.927-17.523-47.732-23.483-15.989-6.029-30.272-9.363-40.915-9.363-44.183 0-80 35.817-80 80h-11a91.7 91.7 0 0 1 1.25-15.122A91 91 0 0 1 242.9 219c10.147-39.183 45.744-68.12 88.1-68.12" clip-rule="evenodd"/><path fill="#0C1117" fill-rule="evenodd" d="M368.863 240.708c35.538 35.538 63.286 150.26 42.427 171.12-13.176 13.175-63.798 6.959-108.26-8.364l4.936-9.937a315 315 0 0 0 25.891 7.554c17.342 4.257 33.892 6.71 47.065 6.917 6.598.103 11.999-.364 16.074-1.279 4.25-.955 6.007-2.16 6.516-2.669s1.714-2.266 2.669-6.516c.915-4.075 1.382-9.476 1.279-16.074-.207-13.173-2.66-29.723-6.917-47.065-4.245-17.292-10.185-34.966-17.147-50.357-7.042-15.569-14.785-28.026-22.311-35.552-31.242-31.242-81.895-31.242-113.137 0l-7.778-7.778c35.538-35.538 93.156-35.538 128.693 0" clip-rule="evenodd"/><path fill="#0C1117" fill-rule="evenodd" d="M332.119 331c0 50.258-61.5 151-91 151-18.633 0-50.032-40.191-70.637-82.466l10.517-3.536a314 314 0 0 0 12.966 23.649c9.252 15.273 19.221 28.711 28.389 38.171 4.593 4.739 8.742 8.227 12.271 10.462 3.68 2.331 5.774 2.72 6.494 2.72s2.815-.389 6.495-2.72c3.528-2.235 7.678-5.723 12.27-10.462 9.169-9.46 19.137-22.898 28.389-38.171 9.226-15.229 17.523-31.927 23.484-47.732 6.029-15.989 9.362-30.272 9.362-40.915 0-44.183-35.817-80-80-80v-11c50.258 0 91 40.742 91 91" clip-rule="evenodd"/><path fill="#0C1117" fill-rule="evenodd" d="M242.292 368.864c-35.538 35.538-150.26 63.286-171.12 42.426-13.176-13.175-6.96-63.797 8.364-108.26l9.937 4.937a314 314 0 0 0-7.554 25.89c-4.258 17.342-6.71 33.893-6.917 47.066-.104 6.598.364 11.999 1.279 16.073.954 4.251 2.16 6.007 2.669 6.516s2.265 1.715 6.516 2.669c4.075.915 9.475 1.383 16.073 1.279 13.174-.206 29.724-2.659 47.066-6.917 17.292-4.245 34.966-10.185 50.357-17.146 15.568-7.043 28.026-14.785 35.551-22.311 31.242-31.242 31.242-81.895 0-113.137l7.779-7.778c35.537 35.537 35.537 93.155 0 128.693" clip-rule="evenodd"/><path fill="#0C1117" fill-rule="evenodd" d="M152 332.12c-50.258 0-151-61.5-151-91 0-18.633 40.191-50.032 82.466-70.637L87.002 181a314 314 0 0 0-23.65 12.966c-15.272 9.252-28.71 19.22-38.17 28.389-4.74 4.592-8.227 8.742-10.462 12.27-2.33 3.681-2.72 5.775-2.72 6.495s.39 2.814 2.72 6.495c2.234 3.528 5.723 7.677 10.462 12.27 9.46 9.169 22.898 19.137 38.17 28.389 15.23 9.225 31.928 17.523 47.733 23.483 15.989 6.029 30.272 9.363 40.915 9.363 44.183 0 80-35.817 80-80h11c0 50.258-40.742 91-91 91" clip-rule="evenodd"/><path fill="#0C1117" d="M236.051 219a80 80 0 0 0 5.199 7.758A91 91 0 0 1 242.9 219s-.9 2-2.9 2c-2.733 0-3.949-2-3.949-2m17.435 3a80 80 0 0 0-1.81 9.162 91 91 0 0 1 6.653-4.319s-2.051.778-3.465-.637c-1.932-1.932-1.378-4.206-1.378-4.206m7.714 31.5a80 80 0 0 0-9.162-1.81 90 90 0 0 1 4.319 6.653s-.778-2.051.637-3.465c1.932-1.932 4.206-1.378 4.206-1.378m-14.28 10.4a80 80 0 0 0-5.199-7.758 91 91 0 0 1-1.65 7.758s.9-2 2.9-2c2.733 0 3.949 2 3.949 2m-17.46-2.7a80 80 0 0 0 1.81-9.162 90 90 0 0 1-6.653 4.319s2.051-.778 3.465.637c1.932 1.932 1.378 4.206 1.378 4.206M219 246.95a80 80 0 0 0 7.758-5.199 91 91 0 0 1-7.758-1.65s2 .9 2 2.9c0 2.733-2 3.949-2 3.949m2.8-17.45a80 80 0 0 0 9.162 1.81 91 91 0 0 1-4.319-6.653s.778 2.051-.637 3.465c-1.932 1.932-4.206 1.378-4.206 1.378m42.2 6.55a80 80 0 0 0-7.758 5.199q3.939.66 7.758 1.65s-2-.9-2-2.9c0-2.733 2-3.949 2-3.949"/></svg>