<svg xmlns="http://www.w3.org/2000/svg" xmlns:xlink="http://www.w3.org/1999/xlink" xml:space="preserve" viewBox="129.6 112.34 170.99 154.41"><path fill="#DD4814" stroke="#FFF" stroke-linecap="round" stroke-linejoin="round" stroke-miterlimit="10" d="m299.088 189.546-.07 28.477-81.762 47.519.07-28.476zM217.326 237.066l-.07 28.476-82.285-47.519.07-28.477z"/><path fill="#333" stroke="#FFF" stroke-linecap="round" stroke-linejoin="round" stroke-miterlimit="10" d="m299.157 161.07-40.88 23.759-82.286-47.519 40.881-23.76zM299.367 161.175l-.105 28.476-40.88 23.76.104-28.477z"/><path fill="#333" d="m258.277 184.829-.07 28.477-82.285-47.519.069-28.477z"/><defs><path id="a" d="m258.277 184.829-.07 28.477-82.285-47.519.069-28.477z"/></defs><clipPath id="b"><use xlink:href="#a" overflow="visible"/></clipPath><path fill="#333" stroke="#FFF" stroke-miterlimit="10" d="m258.277 184.829-.07 28.477-82.285-47.519.069-28.477z" clip-path="url(#b)"/><path fill="none" stroke="#FFF" stroke-miterlimit="10" d="m258.277 184.829-.07 28.477-82.285-47.519.069-28.477z"/><path fill="#888" stroke="#FFF" stroke-linecap="round" stroke-linejoin="round" stroke-miterlimit="10" d="m258.242 199.05-40.881 23.76-82.285-47.484 40.88-23.76zM217.361 222.81l-.035 14.256-82.285-47.52.035-14.22z"/><path fill="#888" stroke="#FFF" stroke-linecap="round" stroke-linejoin="round" stroke-miterlimit="10" d="m258.242 199.05-.035 14.256-40.881 23.76.035-14.256z"/><path fill="#2C001E" stroke="#FFF" stroke-linecap="round" stroke-linejoin="round" stroke-miterlimit="10" d="m216.802 161.14-.035 14.186-40.706 23.654.035-14.186z"/><path fill="#CDCDCD" d="m216.802 161.14-40.706 23.654-40.985-23.654 40.88-23.83zM176.096 184.794l-.035 14.186-40.985-23.654.035-14.186z"/><path fill="#CDCDCD" d="m216.802 161.14-.035 14.186-40.706 23.654.035-14.186z"/><defs><path id="c" d="m216.802 175.326-40.741 23.654-40.95-23.654 40.88-23.76z"/></defs><clipPath id="d"><use xlink:href="#c" overflow="visible"/></clipPath><path fill="none" stroke="#FFF" stroke-miterlimit="10" d="m216.802 175.326-40.706 23.654-40.985-23.654 40.88-23.76z" clip-path="url(#d)"/><path fill="none" stroke="#FFF" stroke-miterlimit="10" d="m216.802 175.326-40.741 23.654-40.95-23.654 40.88-23.76z"/><defs><path id="e" d="m216.837 161.14-40.706 23.654-40.985-23.654 40.88-23.83z"/></defs><clipPath id="f"><use xlink:href="#e" overflow="visible"/></clipPath><path fill="none" stroke="#FFF" stroke-miterlimit="10" d="m216.837 161.14-40.706 23.654-40.985-23.654 40.88-23.83z" clip-path="url(#f)"/><path fill="none" stroke="#FFF" stroke-miterlimit="10" d="m216.837 161.14-40.706 23.654-40.985-23.654 40.88-23.83z"/><defs><path id="g" d="m176.131 184.794-.07 14.186-40.95-23.654.035-14.186z"/></defs><clipPath id="h"><use xlink:href="#g" overflow="visible"/></clipPath><path fill="none" stroke="#FFF" stroke-miterlimit="10" d="m176.131 184.794-.035 14.186-40.985-23.654.035-14.186z" clip-path="url(#h)"/><path fill="none" stroke="#FFF" stroke-miterlimit="10" d="m176.131 184.794-.07 14.186-40.95-23.654.035-14.186z"/><defs><path id="i" d="m135.146 161.14 40.88-23.83-.035 14.256-40.88 23.76z"/></defs><clipPath id="j"><use xlink:href="#i" overflow="visible"/></clipPath><path fill="none" stroke="#FFF" stroke-miterlimit="10" d="m135.146 161.14 40.88-23.83-.035 14.256-40.88 23.76z" clip-path="url(#j)"/><path fill="none" stroke="#FFF" stroke-miterlimit="10" d="m135.146 161.14 40.88-23.83-.035 14.256-40.88 23.76z"/><defs><path id="k" d="m176.026 137.31 40.811 23.83-.035 14.186-40.811-23.76z"/></defs><clipPath id="l"><use xlink:href="#k" overflow="visible"/></clipPath><path fill="none" stroke="#FFF" stroke-miterlimit="10" d="m176.026 137.31 40.811 23.83-.035 14.186-40.985-23.655z" clip-path="url(#l)"/><path fill="none" stroke="#FFF" stroke-miterlimit="10" d="m176.026 137.31 40.811 23.83-.035 14.186-40.811-23.76z"/></svg>