<svg xmlns="http://www.w3.org/2000/svg" version="1.1" viewBox="0 0 240 240">
<path d="M0 0 C79.2 0 158.4 0 240 0 C240 79.2 240 158.4 240 240 C160.8 240 81.6 240 0 240 C0 160.8 0 81.6 0 0 Z " fill="#FEFEFE" transform="translate(0,0)"/>
<path d="M0 0 C4.58903987 2.29787941 8.62499417 5.19298906 12.66796875 8.3359375 C13.23257813 8.75875 13.7971875 9.1815625 14.37890625 9.6171875 C20.80474777 14.6490634 25.74977872 21.2333106 30.40625 27.8671875 C30.82261719 28.351875 31.23898438 28.8365625 31.66796875 29.3359375 C32.32796875 29.3359375 32.98796875 29.3359375 33.66796875 29.3359375 C35.27651976 27.55605285 35.27651976 27.55605285 36.91796875 25.2734375 C37.54703125 24.44714844 38.17609375 23.62085937 38.82421875 22.76953125 C39.43265625 21.96644531 40.04109375 21.16335937 40.66796875 20.3359375 C48.87641518 9.59655343 59.81579505 1.6199954 72.66796875 -2.6640625 C82.43138678 -3.5583095 89.61855081 -2.04108988 97.35546875 4.0234375 C105.26614804 11.36645231 109.92633213 21.03623322 111.015625 31.7578125 C111.35535406 45.0515582 108.99618614 56.40885504 99.8515625 66.30078125 C93.36599902 72.49809746 86.36522624 75.45811868 77.41796875 76.0234375 C63.63052701 75.53624875 53.56676805 66.47808069 44.453125 57.04296875 C40.61724691 52.89279153 37.42940332 48.70872048 34.67578125 43.76953125 C34.34320313 43.29644531 34.010625 42.82335937 33.66796875 42.3359375 C33.00796875 42.3359375 32.34796875 42.3359375 31.66796875 42.3359375 C30.16071011 44.24890314 30.16071011 44.24890314 28.60546875 46.7109375 C20.33235731 58.84597855 8.89608908 72.44488458 -6.33203125 75.3359375 C-17.06673864 76.51377345 -24.848041 74.22569895 -33.4609375 67.73046875 C-40.82513565 61.03429722 -44.84155312 51.14753302 -45.66796875 41.35546875 C-45.97732633 27.10148194 -43.04542785 16.24808359 -33.33203125 5.3359375 C-23.45898292 -3.73708482 -12.41669901 -5.05268271 0 0 Z " fill="#020202" transform="translate(87.33203125,83.6640625)"/>
<path d="M0 0 C7.08901745 4.83643246 11.18896736 11.45881965 12.83984375 19.86328125 C13.47910548 27.66227439 11.96607404 34.54886344 7.71484375 41.17578125 C2.48331367 46.06612458 -2.36216789 49.12936436 -9.66015625 49.42578125 C-23.24891499 48.70659903 -32.46067503 38.96583716 -41.09375 29.4140625 C-42.84126554 27.25692139 -44.07394451 25.3977753 -45.16015625 22.86328125 C-34.90000505 10.92676677 -17.47568736 -9.19606695 0 0 Z " fill="#FBFBFB" transform="translate(168.16015625,96.13671875)"/>
<path d="M0 0 C9.98883845 5.46411382 17.77367151 13.37938556 25.0625 22 C18.23981623 33.27226014 8.04924302 44.21745349 -4.9375 48 C-12.42722233 49.27391172 -17.5981801 47.88814775 -23.84375 43.62890625 C-29.63865094 39.12055981 -31.43835407 34.01039462 -32.9375 27 C-33.82245047 19.03544575 -31.551269 10.93972898 -26.5625 4.5625 C-18.35878901 -3.44588454 -10.37874628 -4.8080454 0 0 Z " fill="#FBFBFB" transform="translate(91.9375,97)"/>
<path d="M0 0 C2.0625 0.4375 2.0625 0.4375 4 1 C4 2.65 4 4.3 4 6 C2.125 6.625 2.125 6.625 0 7 C-0.66 6.34 -1.32 5.68 -2 5 C-1.46428571 1.46428571 -1.46428571 1.46428571 0 0 Z " fill="#ABABAB" transform="translate(143,205)"/>
<path d="M0 0 C1.65 0 3.3 0 5 0 C5.625 1.875 5.625 1.875 6 4 C5.34 4.66 4.68 5.32 4 6 C1.875 5.625 1.875 5.625 0 5 C0 3.35 0 1.7 0 0 Z " fill="#B0B0B0" transform="translate(30,200)"/>
<path d="M0 0 C1.67542976 0.28604898 3.34385343 0.61781233 5 1 C4.67 2.65 4.34 4.3 4 6 C2.68 6 1.36 6 0 6 C-0.38218767 4.34385343 -0.71395102 2.67542976 -1 1 C-0.67 0.67 -0.34 0.34 0 0 Z " fill="#787878" transform="translate(210,178)"/>
<path d="M0 0 C1.67542976 0.28604898 3.34385343 0.61781233 5 1 C5 2.32 5 3.64 5 5 C3.35 5.33 1.7 5.66 0 6 C-0.38218767 4.34385343 -0.71395102 2.67542976 -1 1 C-0.67 0.67 -0.34 0.34 0 0 Z " fill="#A9A9A9" transform="translate(23,136)"/>
<path d="M0 0 C1.67542976 0.28604898 3.34385343 0.61781233 5 1 C4.67 2.32 4.34 3.64 4 5 C2.68 5.33 1.36 5.66 0 6 C-0.38218767 4.34385343 -0.71395102 2.67542976 -1 1 C-0.67 0.67 -0.34 0.34 0 0 Z " fill="#B5B5B5" transform="translate(217,23)"/>
<path d="M0 0 C1.32 0.66 2.64 1.32 4 2 C3.67 2.99 3.34 3.98 3 5 C1.68 5 0.36 5 -1 5 C-0.67 3.35 -0.34 1.7 0 0 Z " fill="#B4B4B4" transform="translate(141,52)"/>
<path d="M0 0 C2.475 0.495 2.475 0.495 5 1 C4.67 1.99 4.34 2.98 4 4 C2.68 3.67 1.36 3.34 0 3 C0 2.01 0 1.02 0 0 Z " fill="#A5A5A5" transform="translate(88,176)"/>
</svg>