<?xml version="1.0" encoding="UTF-8" standalone="no"?>
<svg
   version="1.1"
   width="400"
   height="400"
   id="svg4"
   sodipodi:docname="infisical.svg"
   inkscape:export-filename="infisical.svg"
   inkscape:export-xdpi="122.88"
   inkscape:export-ydpi="122.88"
   inkscape:version="1.3.2 (091e20e, 2023-11-25)"
   xmlns:inkscape="http://www.inkscape.org/namespaces/inkscape"
   xmlns:sodipodi="http://sodipodi.sourceforge.net/DTD/sodipodi-0.dtd"
   xmlns="http://www.w3.org/2000/svg"
   xmlns:svg="http://www.w3.org/2000/svg">
  <defs
     id="defs4" />
  <sodipodi:namedview
     id="namedview4"
     pagecolor="#505050"
     bordercolor="#eeeeee"
     borderopacity="1"
     inkscape:showpageshadow="0"
     inkscape:pageopacity="0"
     inkscape:pagecheckerboard="0"
     inkscape:deskcolor="#505050"
     inkscape:zoom="0.59"
     inkscape:cx="200"
     inkscape:cy="200"
     inkscape:window-width="1920"
     inkscape:window-height="1027"
     inkscape:window-x="3432"
     inkscape:window-y="25"
     inkscape:window-maximized="0"
     inkscape:current-layer="svg4" />
  <path
     d="M0 0 C132 0 264 0 400 0 C400 132 400 264 400 400 C268 400 136 400 0 400 C0 268 0 136 0 0 Z "
     fill="#E8D822"
     transform="translate(0,0)"
     id="path1" />
  <path
     d="M0 0 C5.33918729 4.07534483 10.57104163 8.24647543 15.12109375 13.2109375 C15.12109375 13.8709375 15.12109375 14.5309375 15.12109375 15.2109375 C15.78109375 15.2109375 16.44109375 15.2109375 17.12109375 15.2109375 C18.82790322 16.83647033 20.4976957 18.50209745 22.12109375 20.2109375 C22.52199219 19.73785156 22.92289062 19.26476562 23.3359375 18.77734375 C25.23835706 16.56432508 27.17304356 14.38390223 29.12109375 12.2109375 C29.76175781 11.49035156 30.40242187 10.76976562 31.0625 10.02734375 C44.01355526 -3.75926346 62.37533494 -14.21869132 81.46875 -15.02734375 C99.94950397 -15.46048642 115.15871432 -11.09504954 128.84375 1.94140625 C129.97103516 3.06482422 129.97103516 3.06482422 131.12109375 4.2109375 C132.07822266 5.13326172 132.07822266 5.13326172 133.0546875 6.07421875 C143.52275591 16.96194246 147.48200985 30.79525909 147.43359375 45.5234375 C147.44970703 46.49216797 147.46582031 47.46089844 147.48242188 48.45898438 C147.49293445 64.21733508 141.17953637 76.61909199 130.4375 87.9609375 C118.58022053 99.47829496 103.78147945 106.23381252 87.12109375 106.6484375 C60.52214442 105.74779587 42.09453747 92.61345548 24.12109375 74.2109375 C23.12178359 73.21024814 22.12187436 72.21015628 21.12109375 71.2109375 C20.34507812 72.10554688 19.5690625 73.00015625 18.76953125 73.921875 C8.13115427 85.93149461 -3.12412005 94.69892775 -17.87890625 101.2109375 C-18.57242188 101.52675781 -19.2659375 101.84257812 -19.98046875 102.16796875 C-34.9143665 108.40579024 -51.86290395 107.50779524 -66.87890625 102.2109375 C-82.91132401 95.50258956 -94.15650629 83.76534406 -101.2890625 68.1171875 C-107.41872697 52.12293755 -106.15199134 34.6649035 -99.35546875 19.1640625 C-91.32142945 3.09598389 -78.43194462 -6.68216129 -61.82421875 -12.84375 C-40.48043497 -19.69414214 -17.50755608 -12.88732304 0 0 Z "
     fill="#090A0C"
     transform="translate(178.87890625,154.7890625)"
     id="path2" />
  <path
     d="M0 0 C6.64739163 5.1108634 10.38009876 11.14029627 13 19 C13.90423174 30.39924936 12.65614609 38.85108943 5.375 47.8125 C-0.23903204 53.75244027 -7.46215032 57.49805523 -15.62890625 58.23828125 C-30.70462836 58.619691 -42.73936758 51.62039089 -53.5234375 41.50390625 C-64.93028198 29.9711187 -64.93028198 29.9711187 -65.0859375 25.5703125 C-63.55926245 21.95681543 -61.12865415 19.40398873 -58.4375 16.625 C-57.88884277 16.04991699 -57.34018555 15.47483398 -56.77490234 14.88232422 C-55.19584107 13.24201225 -53.60068206 11.61917789 -52 10 C-51.31292969 9.2884375 -50.62585938 8.576875 -49.91796875 7.84375 C-36.44269872 -5.07372018 -16.5159285 -9.88562097 0 0 Z "
     fill="#E7D41F"
     transform="translate(284,174)"
     id="path3" />
  <path
     d="M0 0 C10.15509244 6.46377178 18.06236292 15.45647621 26 24.375 C24.56646139 28.8733453 22.06918188 31.88384444 18.875 35.25 C18.37637451 35.77883789 17.87774902 36.30767578 17.36401367 36.85253906 C15.91932741 38.37002951 14.46112493 39.87336134 13 41.375 C12.35933594 42.05304688 11.71867187 42.73109375 11.05859375 43.4296875 C2.35457057 51.88057354 -8.73078538 57.1360161 -20.875 57.1875 C-28.17545419 57.00322235 -33.96825485 55.7032188 -40 51.375 C-40.9075 50.818125 -41.815 50.26125 -42.75 49.6875 C-49.46831597 42.78256414 -52.83364261 34.60392395 -53.375 25.0625 C-53.12618828 16.57362944 -49.75294154 9.18294533 -43.92578125 3.09375 C-31.08984725 -8.36225601 -14.58856413 -8.16778085 0 0 Z "
     fill="#E5DA24"
     transform="translate(156,174.625)"
     id="path4" />
</svg>
