<svg version="1.1" xmlns="http://www.w3.org/2000/svg" xmlns:xlink="http://www.w3.org/1999/xlink" viewBox="3.77 0 135.98 47">
    <title>Drive</title>
    <g id="Page-1" stroke="none" stroke-width="1" fill="none" fill-rule="evenodd">
        <g id="Workspace" transform="translate(-68.000000, -293.000000)">
            <g id="Drive" transform="translate(68.000000, 293.000000)">
                <g id="logo" transform="translate(2.700000, 2.700000)">
                    <path d="M17.69875,1.09237333 L20.9498646,2.45149406 C21.4474541,2.65951014 21.8321632,3.07062623 22.0067361,3.5809107 L23.2993651,7.35932279 C23.507457,7.9675847 24.0110913,8.42792756 24.6355575,8.58065859 L38.1622862,11.8890061 C39.0062956,12.0954327 39.6,12.8518439 39.6,13.7207305 L39.6,29.5039626 C39.6,30.5454138 38.755737,31.3896768 37.7142857,31.3896768 C37.5263088,31.3896768 37.3393883,31.3615701 37.1597239,31.3062887 L16.4168667,24.9238714 C15.6256368,24.6804161 15.0857143,23.949383 15.0857143,23.1215453 L15.0857143,2.83217848 C15.0857143,1.79072724 15.9299773,0.946464194 16.9714286,0.946464194 C17.2211384,0.946464194 17.4683617,0.996060047 17.69875,1.09237333 Z" id="Rectangle-Copy-32" fill="#A2BFFF" opacity="0.504231771"/>
                    <path d="M12.9844642,4.8638019 L16.2355789,6.22292264 C16.7331684,6.43093871 17.1178775,6.84205481 17.2924504,7.35233927 L18.5850794,11.1307514 C18.7931713,11.7390133 19.2968056,12.1993561 19.9212718,12.3520872 L33.4480005,15.6604347 C34.2920099,15.8668613 34.8857143,16.6232724 34.8857143,17.492159 L34.8857143,33.2753911 C34.8857143,34.3168424 34.0414512,35.1611054 33,35.1611054 C32.812023,35.1611054 32.6251026,35.1329986 32.4454381,35.0777173 L11.702581,28.6953 C10.9113511,28.4518446 10.3714286,27.7208116 10.3714286,26.8929739 L10.3714286,6.60360705 C10.3714286,5.56215581 11.2156916,4.71789277 12.2571429,4.71789277 C12.5068527,4.71789277 12.7540759,4.76748862 12.9844642,4.8638019 Z" id="Rectangle-Copy-12" fill="#A0BDFF" opacity="0.8"/>
                    <path d="M8.27017853,8.0695163 L11.5212932,9.42863704 C12.0188827,9.63665312 12.4035918,10.0477692 12.5781647,10.5580537 L13.8707937,14.3364658 C14.0788856,14.9447277 14.5825199,15.4050705 15.2069861,15.5578016 L28.7337147,18.8661491 C29.5777242,19.0725757 30.1714286,19.8289868 30.1714286,20.6978734 L30.1714286,36.4811055 C30.1714286,37.5225568 29.3271655,38.3668198 28.2857143,38.3668198 C28.0977373,38.3668198 27.9108169,38.338713 27.7311524,38.2834317 L6.98829528,31.9010144 C6.19706535,31.657559 5.65714286,30.926526 5.65714286,30.0986883 L5.65714286,9.80932145 C5.65714286,8.76787021 6.5014059,7.92360717 7.54285714,7.92360717 C7.79256702,7.92360717 8.03979023,7.97320302 8.27017853,8.0695163 Z" id="Rectangle" fill="#1A47FF"/>
                    <path d="M3.4876051,16.4316364 L24.4389842,22.2514639 C25.0714868,22.427159 25.5671027,22.9191442 25.7474438,23.5503378 L29.6938899,37.3629002 C29.8369442,37.8635904 29.5470231,38.3854484 29.0463329,38.5285027 C28.87081,38.5786521 28.6845034,38.5767704 28.5100292,38.5230861 L6.56474672,31.7706918 C5.99382885,31.5950247 5.5399025,31.159248 5.34109823,30.5959693 L1.2046949,18.8761596 C0.858078987,17.8940811 1.37322316,16.8169615 2.35530161,16.4703456 C2.71984558,16.341683 3.11512553,16.3281699 3.4876051,16.4316364 Z" id="Rectangle-Copy-37" fill="#5287FF"/>
                </g>
                <text id="kDrive" font-family="Roboto-Medium, Roboto" font-size="24" font-weight="400" fill="#333333">
                    <tspan x="58" y="40">kDrive</tspan>
                </text>
                <text id="infomaniak" font-family="Arial-Black, Arial Black" font-size="12" font-weight="700" fill="#9F9F9F">
                    <tspan x="58.2597656" y="13">infomaniak</tspan>
                </text>
            </g>
        </g>
    </g>
</svg>