<svg fill="none" version="1.1" id="svg731" sodipodi:docname="infomaniak-swiss-transfer-cropped.svg" xmlns:inkscape="http://www.inkscape.org/namespaces/inkscape" xmlns:sodipodi="http://sodipodi.sourceforge.net/DTD/sodipodi-0.dtd" xmlns="http://www.w3.org/2000/svg" xmlns:svg="http://www.w3.org/2000/svg" viewBox="24 16.27 221.02 64.75">
  <defs id="defs735"/>
  <sodipodi:namedview id="namedview733" pagecolor="#505050" bordercolor="#ffffff" borderopacity="1" inkscape:showpageshadow="0" inkscape:pageopacity="0" inkscape:pagecheckerboard="1" inkscape:deskcolor="#505050" showgrid="false"/>
  <path d="m 24,16.6318 h 5.5645 v 3.7871 H 24 Z m 0,5.5235 h 5.5645 V 36.6748 H 24 Z" fill="#ffffff" id="path675"/>
  <path d="m 33.1191,22.1553 h 5.1817 v 2.3652 c 0.7747,-0.9661 1.5586,-1.6543 2.3515,-2.0644 0.793,-0.4193 1.7592,-0.629 2.8985,-0.629 1.5403,0 2.7435,0.4603 3.6094,1.3809 0.875,0.9115 1.3125,2.3242 1.3125,4.2383 v 9.2285 h -5.5918 v -7.9844 c 0,-0.9114 -0.1687,-1.554 -0.5059,-1.9277 -0.3372,-0.3828 -0.8112,-0.5742 -1.4219,-0.5742 -0.6745,0 -1.2213,0.2552 -1.6406,0.7656 -0.4193,0.5104 -0.6289,1.4264 -0.6289,2.748 v 6.9727 h -5.5645 z" fill="#ffffff" id="path677"/>
  <path d="m 57.9883,22.1553 h 2.6523 v 4.0742 H 57.9883 V 36.6748 H 52.4102 V 26.2295 H 50.332 v -4.0742 h 2.0782 V 21.499 c 0,-0.5924 0.0638,-1.2441 0.1914,-1.9551 0.1276,-0.7109 0.3645,-1.2897 0.7109,-1.7363 0.3555,-0.4557 0.8477,-0.8203 1.4766,-1.0937 0.638,-0.2826 1.5677,-0.4239 2.789,-0.4239 0.9753,0 2.3926,0.114 4.252,0.3418 l -0.6153,3.3633 c -0.6653,-0.1094 -1.2031,-0.164 -1.6132,-0.164 -0.5013,0 -0.8614,0.0865 -1.0801,0.2597 -0.2188,0.1641 -0.3737,0.4284 -0.4649,0.793 -0.0455,0.2005 -0.0683,0.6243 -0.0683,1.2715 z" fill="#ffffff" id="path679"/>
  <path d="m 62.0215,29.4561 c 0,-2.2149 0.7474,-4.0378 2.2422,-5.4688 1.4948,-1.4401 3.5136,-2.1602 6.0566,-2.1602 2.9076,0 5.1042,0.8431 6.5899,2.5293 1.194,1.3581 1.791,3.0306 1.791,5.0176 0,2.2331 -0.7429,4.0651 -2.2285,5.4961 -1.4766,1.4219 -3.5228,2.1328 -6.1387,2.1328 -2.3333,0 -4.2201,-0.5924 -5.6602,-1.7773 -1.7682,-1.4675 -2.6523,-3.3906 -2.6523,-5.7695 z m 5.5781,-0.0137 c 0,1.2943 0.2598,2.2513 0.7793,2.8711 0.5287,0.6198 1.1895,0.9297 1.9824,0.9297 0.8021,0 1.4584,-0.3054 1.9688,-0.9161 0.5195,-0.6106 0.7793,-1.5904 0.7793,-2.9394 0,-1.2578 -0.2598,-2.1921 -0.7793,-2.8027 -0.5196,-0.6198 -1.1621,-0.9297 -1.9278,-0.9297 -0.8112,0 -1.4811,0.3144 -2.0097,0.9433 -0.5287,0.6198 -0.793,1.5677 -0.793,2.8438 z" fill="#ffffff" id="path681"/>
  <path d="m 81.4219,22.1553 h 5.1953 v 2.1191 c 0.7474,-0.8841 1.4993,-1.513 2.2558,-1.8867 0.7657,-0.3737 1.6862,-0.5606 2.7618,-0.5606 1.1575,0 2.0735,0.2051 2.748,0.6153 0.6745,0.4101 1.2259,1.0208 1.6543,1.832 0.875,-0.9479 1.6725,-1.5905 2.3926,-1.9277 0.72,-0.3464 1.6083,-0.5196 2.6663,-0.5196 1.558,0 2.775,0.4649 3.65,1.3946 0.875,0.9206 1.313,2.3652 1.313,4.334 v 9.1191 h -5.579 v -8.2715 c 0,-0.6562 -0.127,-1.1439 -0.382,-1.4629 -0.374,-0.5013 -0.8389,-0.7519 -1.3949,-0.7519 -0.6562,0 -1.1849,0.237 -1.5859,0.7109 -0.4011,0.474 -0.6016,1.235 -0.6016,2.2832 v 7.4922 h -5.5781 v -7.998 c 0,-0.6381 -0.0365,-1.071 -0.1094,-1.2989 -0.1185,-0.3646 -0.3235,-0.6562 -0.6152,-0.875 -0.2917,-0.2278 -0.6335,-0.3418 -1.0254,-0.3418 -0.638,0 -1.1621,0.2416 -1.5723,0.7246 C 87.2051,27.3688 87,28.1618 87,29.2646 v 7.4102 h -5.5781 z" fill="#ffffff" id="path683"/>
  <path d="m 114.453,26.8584 -5.318,-0.5605 c 0.2,-0.9297 0.487,-1.6589 0.861,-2.1875 0.383,-0.5378 0.93,-1.0027 1.641,-1.3946 0.51,-0.2825 1.212,-0.5013 2.105,-0.6562 0.893,-0.155 1.86,-0.2325 2.899,-0.2325 1.668,0 3.007,0.0958 4.019,0.2872 1.012,0.1822 1.855,0.5696 2.529,1.1621 0.474,0.4101 0.848,0.9935 1.122,1.75 0.273,0.7474 0.41,1.4629 0.41,2.1465 v 6.4121 c 0,0.6836 0.041,1.2213 0.123,1.6132 0.091,0.3829 0.282,0.875 0.574,1.4766 h -5.223 c -0.209,-0.3737 -0.346,-0.6562 -0.41,-0.8477 -0.064,-0.2005 -0.127,-0.5104 -0.191,-0.9296 -0.729,0.7018 -1.454,1.2031 -2.174,1.5039 -0.984,0.401 -2.128,0.6015 -3.432,0.6015 -1.731,0 -3.049,-0.401 -3.951,-1.2031 -0.893,-0.8021 -1.34,-1.791 -1.34,-2.9668 0,-1.1029 0.324,-2.0098 0.971,-2.7207 0.647,-0.7109 1.841,-1.2396 3.582,-1.5859 2.087,-0.4193 3.441,-0.711 4.061,-0.875 0.619,-0.1732 1.276,-0.3965 1.968,-0.67 0,-0.6835 -0.141,-1.1621 -0.424,-1.4355 -0.282,-0.2734 -0.779,-0.4102 -1.49,-0.4102 -0.911,0 -1.595,0.1459 -2.051,0.4375 -0.355,0.2279 -0.642,0.6563 -0.861,1.2852 z m 4.826,2.9258 c -0.765,0.2734 -1.563,0.515 -2.392,0.7246 -1.13,0.3008 -1.846,0.597 -2.147,0.8887 -0.31,0.3007 -0.465,0.6425 -0.465,1.0254 0,0.4375 0.151,0.7975 0.452,1.08 0.309,0.2735 0.761,0.4102 1.353,0.4102 0.62,0 1.194,-0.1504 1.723,-0.4512 0.537,-0.3008 0.916,-0.6654 1.135,-1.0937 0.227,-0.4375 0.341,-1.0026 0.341,-1.6953 z" fill="#ffffff" id="path685"/>
  <path d="m 128.057,22.1553 h 5.181 v 2.3652 c 0.775,-0.9661 1.559,-1.6543 2.352,-2.0644 0.793,-0.4193 1.759,-0.629 2.898,-0.629 1.541,0 2.744,0.4603 3.61,1.3809 0.875,0.9115 1.312,2.3242 1.312,4.2383 v 9.2285 h -5.592 v -7.9844 c 0,-0.9114 -0.168,-1.554 -0.506,-1.9277 -0.337,-0.3828 -0.811,-0.5742 -1.421,-0.5742 -0.675,0 -1.222,0.2552 -1.641,0.7656 -0.419,0.5104 -0.629,1.4264 -0.629,2.748 v 6.9727 h -5.564 z" fill="#ffffff" id="path687"/>
  <path d="m 146.938,16.6318 h 5.564 v 3.7871 h -5.564 z m 0,5.5235 h 5.564 v 14.5195 h -5.564 z" fill="#ffffff" id="path689"/>
  <path d="m 161.129,26.8584 -5.318,-0.5605 c 0.2,-0.9297 0.487,-1.6589 0.861,-2.1875 0.383,-0.5378 0.93,-1.0027 1.64,-1.3946 0.511,-0.2825 1.213,-0.5013 2.106,-0.6562 0.893,-0.155 1.859,-0.2325 2.898,-0.2325 1.668,0 3.008,0.0958 4.02,0.2872 1.012,0.1822 1.855,0.5696 2.529,1.1621 0.474,0.4101 0.848,0.9935 1.121,1.75 0.274,0.7474 0.41,1.4629 0.41,2.1465 v 6.4121 c 0,0.6836 0.042,1.2213 0.124,1.6132 0.091,0.3829 0.282,0.875 0.574,1.4766 h -5.223 c -0.21,-0.3737 -0.346,-0.6562 -0.41,-0.8477 -0.064,-0.2005 -0.128,-0.5104 -0.191,-0.9296 -0.73,0.7018 -1.454,1.2031 -2.174,1.5039 -0.985,0.401 -2.129,0.6015 -3.432,0.6015 -1.732,0 -3.049,-0.401 -3.951,-1.2031 -0.893,-0.8021 -1.34,-1.791 -1.34,-2.9668 0,-1.1029 0.324,-2.0098 0.971,-2.7207 0.647,-0.7109 1.841,-1.2396 3.582,-1.5859 2.087,-0.4193 3.441,-0.711 4.06,-0.875 0.62,-0.1732 1.276,-0.3965 1.969,-0.67 0,-0.6835 -0.141,-1.1621 -0.424,-1.4355 -0.282,-0.2734 -0.779,-0.4102 -1.49,-0.4102 -0.911,0 -1.595,0.1459 -2.051,0.4375 -0.355,0.2279 -0.642,0.6563 -0.861,1.2852 z m 4.826,2.9258 c -0.766,0.2734 -1.563,0.515 -2.393,0.7246 -1.13,0.3008 -1.845,0.597 -2.146,0.8887 -0.31,0.3007 -0.465,0.6425 -0.465,1.0254 0,0.4375 0.151,0.7975 0.451,1.08 0.31,0.2735 0.761,0.4102 1.354,0.4102 0.62,0 1.194,-0.1504 1.723,-0.4512 0.537,-0.3008 0.916,-0.6654 1.134,-1.0937 0.228,-0.4375 0.342,-1.0026 0.342,-1.6953 z" fill="#ffffff" id="path691"/>
  <path d="m 174.732,16.6318 h 5.688 v 10.336 l 4.156,-4.8125 h 6.85 l -5.209,5.0859 5.51,9.4336 h -6.276 l -2.939,-5.8242 -2.092,2.0508 v 3.7734 h -5.688 z" fill="#ffffff" id="path693"/>
  <rect x="24" y="45.002899" width="36" height="36" rx="4" fill="#ffffff" id="rect695"/>
  <path opacity="0.5" fill-rule="evenodd" clip-rule="evenodd" d="m 37.2711,52.4145 c 0,-0.7875 0.7697,-1.3504 1.5299,-1.1188 l 13.0045,3.9618 c 0.496,0.1511 0.8345,0.6049 0.8345,1.1188 v 12.7675 c 0,0.7876 -0.7697,1.3504 -1.5299,1.1188 L 38.1057,66.3008 C 37.6096,66.1497 37.2711,65.6959 37.2711,65.182 Z" fill="#5ac78a" id="path697"/>
  <path opacity="0.8" fill-rule="evenodd" clip-rule="evenodd" d="m 34.3156,54.6386 c 0,-0.7875 0.7696,-1.3504 1.5298,-1.1188 l 13.0045,3.9618 c 0.496,0.1512 0.8345,0.6049 0.8345,1.1188 v 12.7675 c 0,0.7876 -0.7696,1.3504 -1.5299,1.1188 L 35.1501,68.5249 C 34.6541,68.3738 34.3156,67.92 34.3156,67.4061 Z" fill="#4ec483" id="path699"/>
  <path fill-rule="evenodd" clip-rule="evenodd" d="m 31.36,56.8627 c 0,-0.7875 0.7697,-1.3503 1.5299,-1.1187 l 13.0044,3.9618 c 0.4961,0.1511 0.8346,0.6049 0.8346,1.1187 v 12.7676 c 0,0.7875 -0.7697,1.3503 -1.5299,1.1187 L 32.1945,70.749 C 31.6985,70.5979 31.36,70.1441 31.36,69.6303 Z" fill="#3bb471" id="path701"/>
  <path fill-rule="evenodd" clip-rule="evenodd" d="m 40.7228,61.2476 c 0.1108,0.0939 0.2019,0.2125 0.2623,0.3417 l 2.3294,8.2692 c 0.1741,0.372 0.0567,0.7375 -0.2624,0.8163 -0.0967,0.0239 -0.2051,0.0191 -0.3153,-0.0139 l -2.1145,-0.6344 0.1005,-2.8989 -1.9125,2.3931 -3.9267,-1.2157 c -0.3635,-0.1091 -0.6581,-0.4928 -0.6581,-0.8571 0,-0.1014 0.0233,-0.1945 0.0682,-0.2719 l 1.3244,-3.2531 c 0.1611,-0.2782 0.5558,-0.2936 0.8816,-0.0343 0.1294,0.1029 0.2342,0.2394 0.2982,0.3883 l 0.7221,1.217 2.3098,-4.2512 c 0.1742,-0.2676 0.574,-0.2654 0.893,0.0049 z" fill="#ffffff" id="path703"/>
  <path d="m 76.008,52.4888 c -3.276,0 -7.336,1.68 -7.336,5.544 0,3.388 2.8,4.928 5.572,5.544 l 2.52,0.532 c 2.548,0.56 4.368,1.456 4.368,3.584 0,1.988 -1.736,3.416 -4.732,3.416 -3.108,0 -5.068,-1.456 -5.6,-4.256 H 68 c 0.532,4.06 3.556,6.664 8.344,6.664 4.032,0 7.728,-2.1 7.728,-6.076 0,-4.088 -3.724,-5.264 -6.832,-5.936 l -2.352,-0.532 c -1.876,-0.42 -3.304,-1.316 -3.304,-3.108 0,-2.268 2.744,-2.968 4.312,-2.968 2.044,0 4.34,0.784 5.04,3.136 h 2.772 c -0.784,-3.92 -4.06,-5.544 -7.7,-5.544 z" fill="#ffffff" id="path705"/>
  <path d="m 93.8055,58.0888 -2.996,11.144 -2.884,-11.144 h -2.744 l 4.34,15.064 h 2.324 l 3.22,-12.124 3.332,12.124 h 2.3245 l 4.34,-15.064 h -2.744 l -2.8845,11.144 -2.996,-11.144 z" fill="#ffffff" id="path707"/>
  <path d="m 109.758,52.8528 h -2.548 v 3.08 h 2.548 z m 0,5.236 h -2.548 v 15.064 h 2.548 z" fill="#ffffff" id="path709"/>
  <path d="m 122.424,62.4848 h 2.66 c -0.476,-2.856 -2.688,-4.676 -5.936,-4.676 -3.332,0 -6.02,1.54 -6.02,4.2 0,2.8 2.24,3.752 4.284,4.172 l 2.24,0.448 c 1.624,0.336 3.052,0.98 3.052,2.492 0,1.4 -1.568,2.24 -3.5,2.24 -2.24,0 -3.444,-1.148 -3.836,-3.08 h -2.688 c 0.28,2.632 2.52,5.236 6.468,5.236 3.444,0 6.132,-1.708 6.132,-4.676 0,-2.912 -2.408,-3.948 -5.152,-4.48 L 118,63.9408 c -1.456,-0.28 -2.296,-0.84 -2.296,-2.044 0,-1.372 1.68,-1.904 3.164,-1.904 1.764,0 3.164,0.7 3.556,2.492 z" fill="#ffffff" id="path711"/>
  <path d="m 137.135,62.4848 h 2.66 c -0.476,-2.856 -2.688,-4.676 -5.936,-4.676 -3.332,0 -6.02,1.54 -6.02,4.2 0,2.8 2.24,3.752 4.284,4.172 l 2.24,0.448 c 1.624,0.336 3.052,0.98 3.052,2.492 0,1.4 -1.568,2.24 -3.5,2.24 -2.24,0 -3.444,-1.148 -3.836,-3.08 h -2.688 c 0.28,2.632 2.52,5.236 6.468,5.236 3.444,0 6.132,-1.708 6.132,-4.676 0,-2.912 -2.408,-3.948 -5.152,-4.48 l -2.128,-0.42 c -1.456,-0.28 -2.296,-0.84 -2.296,-2.044 0,-1.372 1.68,-1.904 3.164,-1.904 1.764,0 3.164,0.7 3.556,2.492 z" fill="#ffffff" id="path713"/>
  <path d="m 147.814,55.3168 v 17.836 h 2.856 v -17.836 h 6.608 v -2.464 h -16.072 v 2.464 z" fill="#ffffff" id="path715"/>
  <path d="m 164.562,60.7488 v -2.716 c -0.28,-0.028 -0.504,-0.028 -0.756,-0.028 -1.96,0.056 -3.501,1.008 -4.257,2.716 v -2.632 h -2.491 v 15.064 h 2.547 v -7.896 c 0,-3.304 1.177,-4.62 3.528,-4.62 0.42,0 0.897,0.056 1.429,0.112 z" fill="#ffffff" id="path717"/>
  <path d="m 165.568,69.1768 c 0,2.772 2.352,4.34 5.18,4.34 2.66,0 4.228,-0.896 5.152,-2.436 0.028,0.896 0.112,1.512 0.196,2.072 h 2.576 c -0.28,-1.428 -0.42,-3.164 -0.392,-5.684 l 0.028,-3.472 c 0.028,-4.228 -1.848,-6.216 -5.992,-6.216 -2.94,0 -5.796,1.82 -6.048,5.068 h 2.632 c 0.112,-1.848 1.344,-2.996 3.444,-2.996 1.876,0 3.416,0.924 3.416,3.668 v 0.364 c -6.188,0.7 -10.192,1.736 -10.192,5.292 z m 10.388,-3.276 v 0.952 c 0,3.556 -2.268,4.648 -4.648,4.648 -1.82,0 -2.912,-0.952 -2.912,-2.38 0,-2.072 2.94,-2.744 7.56,-3.22 z" fill="#ffffff" id="path719"/>
  <path d="m 184.652,60.3568 v -2.268 h -2.548 v 15.064 h 2.548 v -8.176 c 0,-3.22 1.512,-4.928 3.976,-4.928 2.912,0 3.304,2.016 3.304,4.34 v 8.764 h 2.548 v -9.52 c 0,-3.444 -1.316,-5.796 -4.956,-5.796 -2.548,0 -4.004,1.092 -4.872,2.52 z" fill="#ffffff" id="path721"/>
  <path d="m 206.916,62.4848 h 2.66 c -0.476,-2.856 -2.688,-4.676 -5.936,-4.676 -3.332,0 -6.02,1.54 -6.02,4.2 0,2.8 2.24,3.752 4.284,4.172 l 2.24,0.448 c 1.624,0.336 3.052,0.98 3.052,2.492 0,1.4 -1.568,2.24 -3.5,2.24 -2.24,0 -3.444,-1.148 -3.836,-3.08 h -2.688 c 0.28,2.632 2.52,5.236 6.468,5.236 3.444,0 6.132,-1.708 6.132,-4.676 0,-2.912 -2.408,-3.948 -5.152,-4.48 l -2.128,-0.42 c -1.456,-0.28 -2.296,-0.84 -2.296,-2.044 0,-1.372 1.68,-1.904 3.164,-1.904 1.764,0 3.164,0.7 3.556,2.492 z" fill="#ffffff" id="path723"/>
  <path d="m 213.647,56.9968 v 1.092 h -2.1 v 2.044 h 2.1 v 13.02 h 2.548 v -13.02 h 2.828 v -2.044 h -2.828 v -1.232 c 0,-1.568 0.224,-1.876 1.568,-1.876 h 1.26 v -2.128 h -1.316 c -3.416,0 -4.06,1.008 -4.06,4.144 z" fill="#ffffff" id="path725"/>
  <path d="m 222.941,66.4608 h 11.592 c 0.336,-4.76 -2.436,-8.624 -7.028,-8.624 -4.116,0 -7.308,3.052 -7.308,7.812 0,4.452 2.632,7.868 7.392,7.868 3.668,0 6.048,-2.128 6.748,-4.732 h -2.632 c -0.644,1.484 -1.876,2.492 -4.116,2.492 -2.24,0 -4.536,-1.568 -4.648,-4.816 z m 0.028,-2.184 c 0.224,-3.024 2.268,-4.256 4.536,-4.256 2.688,0 4.284,2.128 4.34,4.256 z" fill="#ffffff" id="path727"/>
  <path d="m 245.007,60.7488 v -2.716 c -0.28,-0.028 -0.504,-0.028 -0.756,-0.028 -1.96,0.056 -3.5,1.008 -4.256,2.716 v -2.632 h -2.492 v 15.064 h 2.548 v -7.896 c 0,-3.304 1.176,-4.62 3.528,-4.62 0.42,0 0.896,0.056 1.428,0.112 z" fill="#ffffff" id="path729"/>
</svg>