<?xml version="1.0" encoding="UTF-8"?>
<svg width="1036px" height="376px" viewBox="0 0 1036 376" version="1.1" xmlns="http://www.w3.org/2000/svg" xmlns:xlink="http://www.w3.org/1999/xlink">
    <!-- Generator: Sketch 63.1 (92452) - https://sketch.com -->
    <title>infomaniak-kMeet-logoCrop-kmeet-white</title>
    <desc>Created with Sketch.</desc>
    <g id="infomaniak-kMeet-logoCrop-kmeet-white" stroke="none" stroke-width="1" fill="none" fill-rule="evenodd">
        <g id="Group-3">
            <g id="Group">
                <g id="Logos/Workspace/Sms-Copy" transform="translate(0.165909, 0.940909)">
                    <g id="Group-19">
                        <path d="M111.485573,7.05286773 L306.325828,67.0037163 C313.75795,69.290523 318.829509,76.1572079 318.829509,83.9331913 L318.829509,250.56529 C318.829509,260.347772 310.899241,268.27804 301.116759,268.27804 C299.351068,268.27804 297.5953,268.01403 295.90769,267.494765 L101.067435,207.54392 C93.6353129,205.257113 88.5637533,198.390428 88.5637533,190.614445 L88.5637533,23.9823428 C88.5637533,14.1998608 96.4940218,6.26959232 106.276504,6.26959232 C108.042195,6.26959232 109.797962,6.53360292 111.485573,7.05286773 Z" id="Rectangle-Copy-15" fill="#3DBD86" opacity="0.289597284"></path>
                        <path d="M67.2036964,35.3932681 L262.043951,95.3441166 C269.476073,97.6309234 274.547632,104.497608 274.547632,112.273592 L274.547632,278.90569 C274.547632,288.688172 266.617364,296.61844 256.834882,296.61844 C255.069191,296.61844 253.313424,296.35443 251.625813,295.835165 L56.7855581,235.88432 C49.3534362,233.597514 44.2818766,226.730829 44.2818766,218.954845 L44.2818766,52.3227431 C44.2818766,42.5402612 52.2121451,34.6099927 61.9946271,34.6099927 C63.7603183,34.6099927 65.5160858,34.8740033 67.2036964,35.3932681 Z" id="Rectangle-Copy-10" fill="#89D5B3" opacity="0.80031622"></path>
                        <path d="M22.9218198,70.818769 L217.762075,130.769618 C225.194196,133.056424 230.265756,139.923109 230.265756,147.699093 L230.265756,314.393827 C230.265756,324.176309 222.335487,332.106577 212.553005,332.106577 C210.802158,332.106577 209.060986,331.846987 207.386281,331.336273 L154.986566,315.356593 L154.986566,315.356593 L154.986566,360.53705 C154.986566,365.428291 151.021432,369.393425 146.130191,369.393425 C143.287502,369.393425 140.617588,368.028877 138.952388,365.72497 L90.2632339,298.360561 C89.1591127,296.832942 87.5964135,295.697423 85.8024428,295.119174 L12.2787254,271.420327 C4.96055978,269.061468 1.5152478e-14,262.25065 0,254.561712 L0,87.748244 C-1.19800852e-15,77.9657621 7.9302685,70.0354936 17.7127504,70.0354936 C19.4784417,70.0354936 21.2342092,70.2995042 22.9218198,70.818769 Z" id="Rectangle" fill="#3DBD86"></path>
                        <path d="M130.798628,158.10225 C134.969054,159.309942 138.349852,163.626737 138.349852,167.744081 L138.349852,249.750299 C138.349852,253.867643 134.969054,256.226382 130.798628,255.01869 L49.5024747,231.476555 C45.332049,230.268863 41.9512511,225.952068 41.9512511,221.834724 L41.9512511,139.828506 C41.9512511,135.711162 45.332049,133.352423 49.5024747,134.560115 L130.798628,158.10225 Z M174.577221,176.287467 C175.574335,175.997247 176.75891,176.402359 177.706962,177.357805 C178.655275,178.31279 179.231749,179.68176 179.230257,180.97475 L179.230257,260.806844 C179.230257,262.099292 178.652859,263.132332 177.70485,263.536782 C176.756842,263.941231 175.573297,263.65971 174.577221,262.791885 L136.017781,231.434447 C134.930594,230.487635 134.243722,228.99903 134.243722,227.588362 L134.243722,190.312809 C134.241652,188.898766 134.928522,187.804317 136.017781,187.486569 L174.577221,176.287467 Z" id="Combined-Shape" fill="#FFFFFF" fill-rule="nonzero"></path>
                    </g>
                </g>
            </g>
            <g id="Group-2" transform="translate(433.499046, 30.337865)" fill="#FFFFFF" fill-rule="nonzero">
                <path d="M30.3654954,302.233949 L30.3654954,255.038792 L27.9074143,192.013592 L70.0880862,302.233949 L87.8845935,302.233949 L130.163589,191.915268 L127.705508,255.038792 L127.705508,302.233949 L152.482965,302.233949 L152.482965,159.075305 L120.331264,159.075305 L79.1338248,268.804046 L37.838062,159.075305 L5.58803774,159.075305 L5.58803774,302.233949 L30.3654954,302.233949 Z M226.422045,304.200414 C235.271137,304.200414 243.251707,302.446983 250.363755,298.94012 C257.475803,295.433258 263.162164,290.500708 267.422838,284.142472 L267.422838,284.142472 L254.542493,271.852066 C247.659866,280.701158 238.745225,285.125704 227.798571,285.125704 C219.99826,285.125704 213.525313,282.5693 208.37973,277.456491 C203.234147,272.343683 200.300837,265.395507 199.579799,256.611963 L199.579799,256.611963 L269.094333,256.611963 L269.094333,246.976285 C269.094333,230.064687 265.145016,216.987696 257.246382,207.745311 C249.347748,198.502926 238.155286,193.881733 223.668994,193.881733 C214.557707,193.881733 206.298555,196.208717 198.891537,200.862684 C191.484519,205.516651 185.732609,212.022372 181.635807,220.379848 C177.539005,228.737324 175.490605,238.225517 175.490605,248.844427 L175.490605,248.844427 L175.490605,251.794124 C175.490605,267.656941 180.193733,280.357027 189.59999,289.894382 C199.006247,299.431737 211.280266,304.200414 226.422045,304.200414 Z M245.496755,239.110426 L199.973092,239.110426 C201.087423,230.916822 203.660214,224.525811 207.691467,219.937393 C211.72272,215.348975 217.015788,213.054766 223.570671,213.054766 C230.191103,213.054766 235.369461,215.103167 239.105744,219.199969 C242.842027,223.296771 244.972364,229.34365 245.496755,237.340607 L245.496755,237.340607 L245.496755,239.110426 Z M334.479291,304.200414 C343.328383,304.200414 351.308953,302.446983 358.421001,298.94012 C365.533049,295.433258 371.21941,290.500708 375.480084,284.142472 L375.480084,284.142472 L362.599739,271.852066 C355.717112,280.701158 346.802471,285.125704 335.855817,285.125704 C328.055506,285.125704 321.582559,282.5693 316.436976,277.456491 C311.291393,272.343683 308.358083,265.395507 307.637045,256.611963 L307.637045,256.611963 L377.151579,256.611963 L377.151579,246.976285 C377.151579,230.064687 373.202262,216.987696 365.303628,207.745311 C357.404994,198.502926 346.212532,193.881733 331.72624,193.881733 C322.614953,193.881733 314.3558,196.208717 306.948783,200.862684 C299.541765,205.516651 293.789855,212.022372 289.693053,220.379848 C285.596251,228.737324 283.54785,238.225517 283.54785,248.844427 L283.54785,248.844427 L283.54785,251.794124 C283.54785,267.656941 288.250979,280.357027 297.657236,289.894382 C307.063493,299.431737 319.337511,304.200414 334.479291,304.200414 Z M353.554001,239.110426 L308.030338,239.110426 C309.144668,230.916822 311.71746,224.525811 315.748713,219.937393 C319.779966,215.348975 325.073034,213.054766 331.627917,213.054766 C338.248349,213.054766 343.426706,215.103167 347.16299,219.199969 C350.899273,223.296771 353.02961,229.34365 353.554001,237.340607 L353.554001,237.340607 L353.554001,239.110426 Z M429.262899,304.200414 C434.310159,304.200414 439.554065,303.446602 444.994618,301.938979 L444.994618,301.938979 L444.994618,283.454209 C442.176019,284.109698 439.390193,284.437442 436.637142,284.437442 C432.507566,284.437442 429.639805,283.536145 428.033858,281.733552 C426.427912,279.93096 425.624939,276.99765 425.624939,272.933622 L425.624939,272.933622 L425.624939,213.546382 L444.404679,213.546382 L444.404679,195.848198 L425.624939,195.848198 L425.624939,169.989185 L401.732391,169.989185 L401.732391,195.848198 L384.230853,195.848198 L384.230853,213.546382 L401.732391,213.546382 L401.732391,273.818531 C401.732391,294.07312 410.909227,304.200414 429.262899,304.200414 Z" id="Meet"></path>
                <path d="M20.0087803,14.8468099 L20.0087803,1.22904056 L0,1.22904056 L0,14.8468099 L20.0087803,14.8468099 Z M20.0087803,73.2999789 L20.0087803,21.090336 L0,21.090336 L0,73.2999789 L20.0087803,73.2999789 Z M52.7995824,73.2999789 L52.7995824,48.2275515 C52.7995824,43.4752614 53.5533939,40.1814327 55.061017,38.3460654 C56.5686401,36.5106982 58.535105,35.5930146 60.9604117,35.5930146 C63.1562975,35.5930146 64.8605671,36.2730837 66.0732204,37.6332219 C67.2858738,38.9933601 67.8922004,41.31215 67.8922004,44.5895915 L67.8922004,44.5895915 L67.8922004,73.2999789 L87.999304,73.2999789 L87.999304,40.1158838 C87.999304,33.2332567 86.4343257,28.1450288 83.304369,24.8512001 C80.1744124,21.5573714 75.8399961,19.910457 70.3011199,19.910457 C66.2043181,19.910457 62.7302301,20.656075 59.878856,22.1473109 C57.0274819,23.6385467 54.2088822,26.1212087 51.423057,29.5952966 L51.423057,29.5952966 L51.423057,21.090336 L32.7908021,21.090336 L32.7908021,73.2999789 L52.7995824,73.2999789 Z M122.215793,73.2999789 L122.215793,35.7404994 L131.753148,35.7404994 L131.753148,21.090336 L122.215793,21.090336 C122.215793,18.7633525 122.297729,17.2393422 122.461601,16.5183051 C122.789345,15.2073285 123.34651,14.2486769 124.133096,13.6423502 C124.919682,13.0360235 126.214272,12.7328602 128.016865,12.7328602 C129.491713,12.7328602 131.425404,12.9295067 133.817936,13.3227997 L133.817936,13.3227997 L136.030209,1.22904056 C129.344228,0.409680186 124.247807,0 120.740944,0 C116.349173,0 113.014376,0.499809827 110.736554,1.49942948 C108.458732,2.49904914 106.688914,3.81002573 105.427099,5.43235927 C104.165284,7.05469281 103.304956,9.14406175 102.846114,11.7004661 C102.387272,14.2568705 102.157851,16.6002411 102.157851,18.7305781 L102.157851,18.7305781 L102.157851,21.090336 L94.6852846,21.090336 L94.6852846,35.7404994 L102.157851,35.7404994 L102.157851,73.2999789 L122.215793,73.2999789 Z M164.83892,74.4798578 C174.245177,74.4798578 181.611227,71.9152599 186.937069,66.7860639 C192.262911,61.656868 194.925833,55.0774042 194.925833,47.0476726 C194.925833,39.9028501 192.779108,33.888745 188.48566,29.0053572 C183.14343,22.9420904 175.244796,19.910457 164.789758,19.910457 C155.645696,19.910457 148.386163,22.4914422 143.011159,27.6534126 C137.636155,32.8153829 134.948653,39.3784595 134.948653,47.3426423 C134.948653,55.8967646 138.127772,62.8121661 144.486008,68.0888469 C149.664366,72.3495209 156.448669,74.4798578 164.83892,74.4798578 Z M164.937243,60.9604117 C162.085869,60.9604117 159.717917,59.8460816 157.833389,57.6174214 C155.94886,55.3887612 155.006595,51.9474476 155.006595,47.2934807 C155.006595,42.7050626 155.957053,39.2883299 157.857969,37.0432824 C159.758885,34.798235 162.167805,33.6757113 165.084728,33.6757113 C167.837779,33.6757113 170.148375,34.7818478 172.016517,36.9941208 C173.884658,39.2063938 174.818729,42.5739649 174.818729,47.0968342 C174.818729,51.9474476 173.892852,55.4706972 172.041097,57.666583 C170.189343,59.8624688 167.821391,60.9604117 164.937243,60.9604117 Z M224.766937,73.2999789 L224.766937,46.6543796 C224.766937,42.6886754 225.504362,39.8373013 226.97921,38.1002573 C228.454059,36.3632133 230.338588,35.4946913 232.632797,35.4946913 C234.042097,35.4946913 235.271137,35.8961779 236.319919,36.6991511 C237.3687,37.5021242 238.106124,38.5590991 238.532192,39.8700757 C238.794387,40.6894361 238.925485,42.2462208 238.925485,44.5404298 L238.925485,44.5404298 L238.925485,73.2999789 L258.983426,73.2999789 L258.983426,46.3594099 C258.983426,42.5903522 259.704464,39.8536885 261.146538,38.1494189 C262.588612,36.4451494 264.489528,35.5930146 266.849286,35.5930146 C268.848525,35.5930146 270.520021,36.494311 271.863772,38.2969038 C272.781455,39.4440083 273.240297,41.1974395 273.240297,43.5571974 L273.240297,43.5571974 L273.240297,73.2999789 L293.298239,73.2999789 L293.298239,40.5091768 C293.298239,33.4299032 291.725067,28.2269648 288.578723,24.9003617 C285.432379,21.5737586 281.056995,19.910457 275.45257,19.910457 C271.650738,19.910457 268.455232,20.5249773 265.866054,21.7540179 C263.276875,22.9830584 260.409114,25.3018483 257.26277,28.7103874 C255.722372,25.7934645 253.73952,23.5975787 251.314213,22.1227301 C248.888907,20.6478814 245.595078,19.910457 241.432727,19.910457 C237.565346,19.910457 234.263324,20.5823326 231.52666,21.9260836 C228.789997,23.2698346 226.077914,25.5312692 223.390412,28.7103874 L223.390412,28.7103874 L223.390412,21.090336 L204.708995,21.090336 L204.708995,73.2999789 L224.766937,73.2999789 Z M321.81198,74.4798578 C326.498721,74.4798578 330.61191,73.7588207 334.151547,72.3167465 C336.740726,71.2351908 339.346292,69.4325979 341.968245,66.908968 C342.197666,68.4165911 342.427087,69.5227276 342.656508,70.2273775 C342.885929,70.9320274 343.377545,71.9562279 344.131356,73.2999789 L344.131356,73.2999789 L362.911096,73.2999789 C361.862315,71.1368675 361.182246,69.3588555 360.870889,67.9659429 C360.559532,66.5730302 360.403853,64.6475334 360.403853,62.1894523 L360.403853,62.1894523 L360.403853,39.1326514 C360.403853,36.6745703 359.912237,34.0935851 358.929005,31.3896959 C357.945772,28.6858066 356.602021,26.5964377 354.897752,25.121589 C352.472445,22.991252 349.440812,21.5901458 345.802852,20.9182703 C342.164891,20.2463948 337.347052,19.910457 331.349335,19.910457 C327.613051,19.910457 324.138963,20.1890396 320.927071,20.7462046 C317.715178,21.3033697 315.191548,22.0899556 313.356181,23.1059625 C310.799776,24.5152623 308.841505,26.1785639 307.481367,28.0958672 C306.121229,30.0131704 305.080641,32.6433172 304.359604,35.9863076 L304.359604,35.9863076 L323.483475,38.0019341 C324.270061,35.7404994 325.302455,34.2001019 326.580657,33.3807416 C328.219378,32.3319603 330.677459,31.8075697 333.954901,31.8075697 C336.511305,31.8075697 338.297511,32.2991859 339.313517,33.2824183 C340.329524,34.2656508 340.837528,35.9863076 340.837528,38.4443887 C338.346672,39.4276211 335.986914,40.2224007 333.758254,40.8287274 C331.529594,41.435054 326.662593,42.4920289 319.157252,43.999652 C312.897339,45.2450798 308.603891,47.1459958 306.276907,49.7024002 C303.949924,52.2588045 302.786432,55.5198588 302.786432,59.485563 C302.786432,63.7134625 304.400572,67.2694866 307.628852,70.1536351 C310.857132,73.0377836 315.584841,74.4798578 321.81198,74.4798578 Z M329.333708,63.3693312 C327.203371,63.3693312 325.589231,62.8695214 324.491288,61.8699017 C323.393345,60.8702821 322.844374,59.5838863 322.844374,58.0107144 C322.844374,56.6341889 323.401539,55.4051484 324.515869,54.3235927 C325.597425,53.2748114 328.170216,52.2096429 332.234244,51.1280872 C335.216716,50.3742757 338.084477,49.5057537 340.837528,48.5225212 L340.837528,48.5225212 L340.837528,51.7180267 C340.837528,54.2088822 340.436041,56.2327023 339.633068,57.7894871 C338.830095,59.3462718 337.469957,60.665442 335.552653,61.7469977 C333.63535,62.8285533 331.562368,63.3693312 329.333708,63.3693312 Z M392.408069,73.2999789 L392.408069,48.2275515 C392.408069,43.4752614 393.161881,40.1814327 394.669504,38.3460654 C396.177127,36.5106982 398.143592,35.5930146 400.568899,35.5930146 C402.764785,35.5930146 404.469054,36.2730837 405.681708,37.6332219 C406.894361,38.9933601 407.500688,41.31215 407.500688,44.5895915 L407.500688,44.5895915 L407.500688,73.2999789 L427.607791,73.2999789 L427.607791,40.1158838 C427.607791,33.2332567 426.042813,28.1450288 422.912856,24.8512001 C419.7829,21.5573714 415.448483,19.910457 409.909607,19.910457 C405.812805,19.910457 402.338717,20.656075 399.487343,22.1473109 C396.635969,23.6385467 393.817369,26.1212087 391.031544,29.5952966 L391.031544,29.5952966 L391.031544,21.090336 L372.399289,21.090336 L372.399289,73.2999789 L392.408069,73.2999789 Z M460.30027,14.8468099 L460.30027,1.22904056 L440.29149,1.22904056 L440.29149,14.8468099 L460.30027,14.8468099 Z M460.30027,73.2999789 L460.30027,21.090336 L440.29149,21.090336 L440.29149,73.2999789 L460.30027,73.2999789 Z M489.649758,74.4798578 C494.3365,74.4798578 498.449689,73.7588207 501.989326,72.3167465 C504.578504,71.2351908 507.18407,69.4325979 509.806024,66.908968 C510.035445,68.4165911 510.264865,69.5227276 510.494286,70.2273775 C510.723707,70.9320274 511.215323,71.9562279 511.969135,73.2999789 L511.969135,73.2999789 L530.748875,73.2999789 C529.700093,71.1368675 529.020024,69.3588555 528.708667,67.9659429 C528.39731,66.5730302 528.241632,64.6475334 528.241632,62.1894523 L528.241632,62.1894523 L528.241632,39.1326514 C528.241632,36.6745703 527.750016,34.0935851 526.766783,31.3896959 C525.783551,28.6858066 524.4398,26.5964377 522.73553,25.121589 C520.310224,22.991252 517.27859,21.5901458 513.64063,20.9182703 C510.00267,20.2463948 505.184831,19.910457 499.187113,19.910457 C495.45083,19.910457 491.976742,20.1890396 488.764849,20.7462046 C485.552957,21.3033697 483.029327,22.0899556 481.193959,23.1059625 C478.637555,24.5152623 476.679284,26.1785639 475.319146,28.0958672 C473.959007,30.0131704 472.91842,32.6433172 472.197383,35.9863076 L472.197383,35.9863076 L491.321254,38.0019341 C492.10784,35.7404994 493.140234,34.2001019 494.418436,33.3807416 C496.057157,32.3319603 498.515238,31.8075697 501.792679,31.8075697 C504.349084,31.8075697 506.135289,32.2991859 507.151296,33.2824183 C508.167303,34.2656508 508.675306,35.9863076 508.675306,38.4443887 C506.184451,39.4276211 503.824693,40.2224007 501.596033,40.8287274 C499.367372,41.435054 494.500372,42.4920289 486.995031,43.999652 C480.735118,45.2450798 476.441669,47.1459958 474.114686,49.7024002 C471.787702,52.2588045 470.624211,55.5198588 470.624211,59.485563 C470.624211,63.7134625 472.238351,67.2694866 475.46663,70.1536351 C478.69491,73.0377836 483.42262,74.4798578 489.649758,74.4798578 Z M497.171487,63.3693312 C495.04115,63.3693312 493.42701,62.8695214 492.329067,61.8699017 C491.231124,60.8702821 490.682153,59.5838863 490.682153,58.0107144 C490.682153,56.6341889 491.239318,55.4051484 492.353648,54.3235927 C493.435203,53.2748114 496.007995,52.2096429 500.072022,51.1280872 C503.054494,50.3742757 505.922255,49.5057537 508.675306,48.5225212 L508.675306,48.5225212 L508.675306,51.7180267 C508.675306,54.2088822 508.27382,56.2327023 507.470847,57.7894871 C506.667873,59.3462718 505.307735,60.665442 503.390432,61.7469977 C501.473129,62.8285533 499.400147,63.3693312 497.171487,63.3693312 Z M560.688303,73.2999789 L560.688303,59.7313711 L568.210031,52.3571278 L578.77978,73.2999789 L601.344964,73.2999789 L581.532831,39.3784595 L600.263409,21.090336 L575.633436,21.090336 L560.688303,38.395227 L560.688303,1.22904056 L540.237068,1.22904056 L540.237068,73.2999789 L560.688303,73.2999789 Z" id="infomaniak"></path>
            </g>
        </g>
    </g>
</svg>