<svg xmlns="http://www.w3.org/2000/svg" xml:space="preserve" id="svg2" x="0" y="0" version="1.1" viewBox="0 0 512 512"><style>.st0,.st6{fill:#ddbc91;stroke:#000;stroke-width:2.6766;stroke-linecap:round;stroke-linejoin:round;stroke-miterlimit:6.8531}.st6{fill:#90a8d8;stroke-miterlimit:6.7441}</style><g id="g5713"><path id="path4896" d="M256 255.9v253.6l218.3-126V128.9z" class="st0"/><path id="path4898" d="M256 255.9v253.6l-218.3-126V128.9z" style="fill:#d9b383;stroke:#000;stroke-width:2.6766;stroke-linecap:round;stroke-linejoin:round;stroke-miterlimit:6.8531"/><path id="path4900" d="M474.3 128.9 256 255.9l-218.3-127L256 2.6z" class="st0"/><g id="g4916" transform="translate(-218.879 128.545)scale(1.47615)"><path id="path4910" d="M210.8 21.5v129.3l110.9 64 110.9-64V21.5L321.7 86.1z" style="fill:#f3f4e4;stroke:#000;stroke-width:2.6766;stroke-linecap:round;stroke-linejoin:round;stroke-miterlimit:4.1177"/><path id="path4914" d="M432.6 21.5 321.7 86.1 210.8 21.5l110.9-64.2z" style="fill:#f3f4e4;stroke:#000;stroke-width:2.6766;stroke-linecap:round;stroke-linejoin:round;stroke-miterlimit:10.1162"/></g><path id="path4918" d="M256 65.6v190L92.3 351.2V160.3z" style="fill:#d9dbbc;stroke:#000;stroke-width:2.6766;stroke-linecap:round;stroke-linejoin:round;stroke-miterlimit:6.8531"/><path id="path4920" d="M256 65.6v190l163.7 95.7v-191z" style="fill:#eaeccf;stroke:#000;stroke-width:2.6766;stroke-linecap:round;stroke-linejoin:round;stroke-miterlimit:6.8531"/><g id="g4928" transform="translate(-196.515 205.656)scale(.9841)"><path id="path4922" d="M459.8 51v128.8l110.9-64V-13.5z" class="st6"/><path id="path4924" d="M459.8 51v128.8l-110.9-64V-13.5z" class="st6"/><path id="path4926" d="M570.7-13.5 459.8 51 348.9-13.5l110.9-64.2z" class="st6"/></g></g></svg>