<svg xmlns="http://www.w3.org/2000/svg" xmlns:xlink="http://www.w3.org/1999/xlink" id="Capa_1" x="0px" y="0px" style="enable-background:new 0 0 446.7 124.6;" xml:space="preserve" viewBox="0 0 91.5 124.6"><style type="text/css">	.st0{fill:#FFFFFF;}	.st1{fill:#54BDC8;}	.st2{fill:#EA661C;}	.st3{fill:#E95880;}	.st4{fill:#885EA3;}	.st5{fill:#EFB922;}</style><g>	<g>		<g>			<path class="st0" d="M12.1,23.1c-6.1,0-11-5-11-11s5-11,11-11s11,5,11,11S18.2,23.1,12.1,23.1z M12.1,2.4c-5.4,0-9.7,4.4-9.7,9.7    s4.4,9.7,9.7,9.7s9.7-4.4,9.7-9.7S17.4,2.4,12.1,2.4z"/>		</g>		<g>			<path class="st0" d="M46.3,24.2c-6.7,0-12.1-5.4-12.1-12.1S39.6,0,46.3,0c6.7,0,12.1,5.4,12.1,12.1S52.9,24.2,46.3,24.2z     M46.3,1.3c-5.9,0-10.8,4.8-10.8,10.8s4.8,10.8,10.8,10.8C52.2,22.8,57,18,57,12.1S52.2,1.3,46.3,1.3z"/>		</g>		<g>			<path class="st0" d="M12.1,58C5.4,58,0,52.6,0,45.9s5.4-12.1,12.1-12.1s12.1,5.4,12.1,12.1S18.7,58,12.1,58z M12.1,35.2    C6.1,35.2,1.3,40,1.3,45.9s4.8,10.8,10.8,10.8s10.8-4.8,10.8-10.8S18,35.2,12.1,35.2z"/>		</g>		<g>			<path class="st1" d="M46.3,4.4c-4.2,0-7.7,3.4-7.7,7.7v0c0,4.2,3.4,7.7,7.7,7.7c4.2,0,7.7-3.4,7.7-7.7    C53.9,7.8,50.5,4.4,46.3,4.4z"/>		</g>		<g>			<path class="st2" d="M80.5,21.4c5.2,0,9.3-4.2,9.3-9.3c0-5.2-4.2-9.3-9.3-9.3l0,0c-5.2,0-9.3,4.2-9.3,9.3v0    C71.1,17.2,75.3,21.4,80.5,21.4z"/>		</g>		<g>			<path class="st3" d="M12.1,38.2c-4.2,0-7.7,3.4-7.7,7.7v0c0,4.2,3.4,7.7,7.7,7.7l0,0c4.2,0,7.7-3.4,7.7-7.7    C19.7,41.7,16.3,38.2,12.1,38.2z"/>		</g>		<g>			<path class="st4" d="M46.3,36.6c-5.2,0-9.3,4.2-9.3,9.3v0c0,5.2,4.2,9.3,9.3,9.3c5.2,0,9.3-4.2,9.3-9.3    C55.6,40.7,51.4,36.6,46.3,36.6z"/>		</g>		<g>			<path class="st0" d="M80.5,56.9c-6.1,0-11-4.9-11-11c0-6.1,5-11,11-11c6.1,0,11,4.9,11,11C91.5,52,86.6,56.9,80.5,56.9z     M80.5,36.2c-5.4,0-9.7,4.4-9.7,9.7c0,5.4,4.4,9.7,9.7,9.7c5.4,0,9.7-4.4,9.7-9.7C90.2,40.5,85.8,36.2,80.5,36.2z"/>		</g>		<g>			<path class="st5" d="M12.1,70.4c-5.2,0-9.3,4.2-9.3,9.3v0c0,5.2,4.2,9.3,9.3,9.3l0,0c5.2,0,9.3-4.2,9.3-9.3    C21.4,74.6,17.2,70.4,12.1,70.4z"/>		</g>		<g>			<path class="st0" d="M46.3,90.8c-6.1,0-11-4.9-11-11c0-6.1,5-11,11-11c6.1,0,11,4.9,11,11C57.3,85.8,52.4,90.8,46.3,90.8z     M46.3,70c-5.4,0-9.7,4.4-9.7,9.7c0,5.4,4.4,9.7,9.7,9.7c5.4,0,9.7-4.4,9.7-9.7C56,74.4,51.6,70,46.3,70z"/>		</g>		<g>			<path class="st0" d="M46.3,124.6c-6.1,0-11-4.9-11-11c0-6.1,5-11,11-11c6.1,0,11,4.9,11,11C57.3,119.6,52.4,124.6,46.3,124.6z     M46.3,103.8c-5.4,0-9.7,4.4-9.7,9.7c0,5.4,4.4,9.7,9.7,9.7c5.4,0,9.7-4.4,9.7-9.7C56,108.2,51.6,103.8,46.3,103.8z"/>		</g>		<g>			<path class="st0" d="M80.5,90.8c-6.1,0-11-4.9-11-11c0-6.1,5-11,11-11c6.1,0,11,4.9,11,11C91.5,85.8,86.6,90.8,80.5,90.8z     M80.5,70c-5.4,0-9.7,4.4-9.7,9.7c0,5.4,4.4,9.7,9.7,9.7c5.4,0,9.7-4.4,9.7-9.7C90.2,74.4,85.8,70,80.5,70z"/>		</g>	</g>	</g></svg>