<svg xmlns="http://www.w3.org/2000/svg" xmlns:xlink="http://www.w3.org/1999/xlink" id="Capa_1" x="0px" y="0px" style="enable-background:new 0 0 446.7 124.6;" xml:space="preserve" viewBox="0 0 446.6 124.6"><style type="text/css">	.st0{fill:#000;}	.st1{fill:#54BDC8;}	.st2{fill:#EA661C;}	.st3{fill:#E95880;}	.st4{fill:#885EA3;}	.st5{fill:#EFB922;}</style><g>	<g>		<g>			<path class="st0" d="M12.1,23.1c-6.1,0-11-5-11-11s5-11,11-11s11,5,11,11S18.2,23.1,12.1,23.1z M12.1,2.4c-5.4,0-9.7,4.4-9.7,9.7    s4.4,9.7,9.7,9.7s9.7-4.4,9.7-9.7S17.4,2.4,12.1,2.4z"/>		</g>		<g>			<path class="st0" d="M46.3,24.2c-6.7,0-12.1-5.4-12.1-12.1S39.6,0,46.3,0c6.7,0,12.1,5.4,12.1,12.1S52.9,24.2,46.3,24.2z     M46.3,1.3c-5.9,0-10.8,4.8-10.8,10.8s4.8,10.8,10.8,10.8C52.2,22.8,57,18,57,12.1S52.2,1.3,46.3,1.3z"/>		</g>		<g>			<path class="st0" d="M12.1,58C5.4,58,0,52.6,0,45.9s5.4-12.1,12.1-12.1s12.1,5.4,12.1,12.1S18.7,58,12.1,58z M12.1,35.2    C6.1,35.2,1.3,40,1.3,45.9s4.8,10.8,10.8,10.8s10.8-4.8,10.8-10.8S18,35.2,12.1,35.2z"/>		</g>		<g>			<path class="st1" d="M46.3,4.4c-4.2,0-7.7,3.4-7.7,7.7v0c0,4.2,3.4,7.7,7.7,7.7c4.2,0,7.7-3.4,7.7-7.7    C53.9,7.8,50.5,4.4,46.3,4.4z"/>		</g>		<g>			<path class="st2" d="M80.5,21.4c5.2,0,9.3-4.2,9.3-9.3c0-5.2-4.2-9.3-9.3-9.3l0,0c-5.2,0-9.3,4.2-9.3,9.3v0    C71.1,17.2,75.3,21.4,80.5,21.4z"/>		</g>		<g>			<path class="st3" d="M12.1,38.2c-4.2,0-7.7,3.4-7.7,7.7v0c0,4.2,3.4,7.7,7.7,7.7l0,0c4.2,0,7.7-3.4,7.7-7.7    C19.7,41.7,16.3,38.2,12.1,38.2z"/>		</g>		<g>			<path class="st4" d="M46.3,36.6c-5.2,0-9.3,4.2-9.3,9.3v0c0,5.2,4.2,9.3,9.3,9.3c5.2,0,9.3-4.2,9.3-9.3    C55.6,40.7,51.4,36.6,46.3,36.6z"/>		</g>		<g>			<path class="st0" d="M80.5,56.9c-6.1,0-11-4.9-11-11c0-6.1,5-11,11-11c6.1,0,11,4.9,11,11C91.5,52,86.6,56.9,80.5,56.9z     M80.5,36.2c-5.4,0-9.7,4.4-9.7,9.7c0,5.4,4.4,9.7,9.7,9.7c5.4,0,9.7-4.4,9.7-9.7C90.2,40.5,85.8,36.2,80.5,36.2z"/>		</g>		<g>			<path class="st5" d="M12.1,70.4c-5.2,0-9.3,4.2-9.3,9.3v0c0,5.2,4.2,9.3,9.3,9.3l0,0c5.2,0,9.3-4.2,9.3-9.3    C21.4,74.6,17.2,70.4,12.1,70.4z"/>		</g>		<g>			<path class="st0" d="M46.3,90.8c-6.1,0-11-4.9-11-11c0-6.1,5-11,11-11c6.1,0,11,4.9,11,11C57.3,85.8,52.4,90.8,46.3,90.8z     M46.3,70c-5.4,0-9.7,4.4-9.7,9.7c0,5.4,4.4,9.7,9.7,9.7c5.4,0,9.7-4.4,9.7-9.7C56,74.4,51.6,70,46.3,70z"/>		</g>		<g>			<path class="st0" d="M46.3,124.6c-6.1,0-11-4.9-11-11c0-6.1,5-11,11-11c6.1,0,11,4.9,11,11C57.3,119.6,52.4,124.6,46.3,124.6z     M46.3,103.8c-5.4,0-9.7,4.4-9.7,9.7c0,5.4,4.4,9.7,9.7,9.7c5.4,0,9.7-4.4,9.7-9.7C56,108.2,51.6,103.8,46.3,103.8z"/>		</g>		<g>			<path class="st0" d="M80.5,90.8c-6.1,0-11-4.9-11-11c0-6.1,5-11,11-11c6.1,0,11,4.9,11,11C91.5,85.8,86.6,90.8,80.5,90.8z     M80.5,70c-5.4,0-9.7,4.4-9.7,9.7c0,5.4,4.4,9.7,9.7,9.7c5.4,0,9.7-4.4,9.7-9.7C90.2,74.4,85.8,70,80.5,70z"/>		</g>	</g>	<g>		<g>			<path class="st0" d="M131.8,90.6c-0.7,0-1.1-0.4-1.1-1.1V15.2c0-0.7,0.5-1.1,1.1-1.1h12.7c0.7,0,1.1,0.4,1.1,1.1v74.2    c0,0.7-0.5,1.1-1.1,1.1H131.8z"/>			<path class="st0" d="M156.8,89.5l0.6-9.8c0-0.3,0.4-0.6,0.9-0.5c3.7,0.8,9.1,1.2,12.8,1.2c8,0,9.2-0.8,9.2-6.4    c0-3.4-1.9-5.1-10.8-11.1c-9.1-6.1-12.3-9.2-12.3-16.8c0-12.7,6.7-17,21.4-17c5.4,0,11.6,0.6,15.1,1.2c0.3,0.1,0.6,0.2,0.6,0.8    l-0.7,10c0,0.2-0.3,0.6-0.8,0.4c-3.4-0.6-8.2-1.1-11.5-1.1c-7.1,0-9.4,0.4-9.4,5.3c0,3.9,1.9,5.2,10.8,10.7    c9.9,6.3,12.6,10.5,12.6,17.4c0,14.4-7.9,17.7-21.8,17.7c-6.2,0-12.4-0.6-16-1.2C157.2,90.3,156.8,90.1,156.8,89.5z"/>			<path class="st0" d="M203.2,89.5l0.6-9.8c0-0.3,0.5-0.6,0.9-0.5c3.7,0.8,9.1,1.2,12.8,1.2c8,0,9.2-0.8,9.2-6.4    c0-3.4-1.9-5.1-10.8-11.1c-9.1-6.1-12.3-9.2-12.3-16.8c0-12.7,6.7-17,21.4-17c5.4,0,11.6,0.6,15.1,1.2c0.3,0.1,0.6,0.2,0.6,0.8    l-0.7,10c0,0.2-0.3,0.6-0.8,0.4c-3.4-0.6-8.2-1.1-11.5-1.1c-7.1,0-9.4,0.4-9.4,5.3c0,3.9,1.9,5.2,10.8,10.7    c9.9,6.3,12.6,10.5,12.6,17.4c0,14.4-7.9,17.7-21.8,17.7c-6.2,0-12.4-0.6-16-1.2C203.5,90.3,203.2,90.1,203.2,89.5z"/>			<path class="st0" d="M255.1,42.2c-0.7,0.1-1.6,0.1-1.7-0.6l-0.8-8.7c-0.1-0.7,0-1.3,0.7-1.6c4.3-1.2,12.1-2.1,19.7-2.1    c13.9,0,22.4,4.7,22.4,17.9V88c0,0.7-0.2,1.2-1.5,1.7c-3.9,1.2-11.9,2-19.7,2c-20.2,0-26.3-3.8-26.3-16.8    c0-11.5,2.6-16.6,19.1-18.7l13.3-1.7c0.4-0.1,0.7-0.2,0.7-0.7v-4.5c0-6.7-3.1-8.3-11.9-8.3C265,41.1,258.7,41.6,255.1,42.2z     M281,64.5c0-0.5-0.2-0.7-0.7-0.7h-7.5c-8.1,0-10.6,1.5-10.6,9.6c0,8,2,8.9,10.9,8.9c2.6,0,5.6-0.2,7.1-0.6    c0.7-0.2,0.8-0.4,0.8-0.8V64.5z"/>			<path class="st0" d="M307.9,89.3c-0.8-0.3-1-0.9-1-1.2V9c0-0.7,0.5-1.1,1.1-1.1h12.5c0.7,0,1.1,0.5,1.1,1.1v20.4    c0,0.6,0.2,0.9,0.9,0.9c1.6,0,7.1-0.9,11.2-0.9c18.2,0,24.3,9.2,24.3,29.2c0,22-5.8,33.1-29.1,33.1    C321.2,91.7,311.3,90.8,307.9,89.3z M321.6,79.3c0,0.5,0.2,1,0.8,1.1c1.6,0.3,4.3,0.6,6.4,0.6c11.9,0,13.8-4.8,13.8-21.4    c0-16-3-19.5-13.3-19.5c-3,0-5.7,0.5-7,0.9c-0.7,0.2-0.8,0.7-0.8,1.2V79.3z"/>			<path class="st0" d="M406.9,79.1c0.7-0.1,1.6-0.1,1.7,0.6l0.8,8.7c0.1,0.7,0,1.3-0.7,1.6c-4.3,1.2-12.1,2.1-19.7,2.1    c-13.9,0-22.4-4.7-22.4-17.9V33.3c0-0.7,0.2-1.2,1.5-1.7c3.9-1.2,11.9-2,19.7-2c20.2,0,26.3,3.8,26.3,16.8    c0,11.5-2.6,16.6-19.1,18.7l-13.3,1.7c-0.5,0.1-0.7,0.2-0.7,0.7v4.5c0,6.7,3.1,8.3,11.9,8.3C397,80.2,403.3,79.6,406.9,79.1z     M381,56.8c0,0.5,0.2,0.7,0.7,0.7h7.5c8.1,0,10.6-1.5,10.6-9.6c0-8-2-8.9-10.9-8.9c-2.6,0-5.6,0.2-7.1,0.6    c-0.7,0.2-0.8,0.5-0.8,0.8V56.8z"/>			<path class="st0" d="M436.6,91.7c-9.3,0-14.1-3.3-14.1-13.7V9.1c0-0.8,0.5-1.2,1.1-1.2h12.5c0.7,0,1.1,0.5,1.1,1.2v66.8    c0,3.6,1.5,4.7,4.7,4.7h3.6c0.6,0,1.1,0.2,1.1,1.1l-0.3,7.4c0,0.7-0.6,1.2-1.1,1.3C442.8,91.2,440.1,91.7,436.6,91.7z"/>		</g>	</g></g></svg>