<svg xmlns="http://www.w3.org/2000/svg" xml:space="preserve" viewBox="0 0 512 512"><path d="M2294.7 7245.7c-79-27.5-134.8-84.7-162.3-167.9-9.9-30.3-12-62.1-12-167.2 0-101.6-2.1-131.2-9.9-137.6-5.6-4.2-9.9-6.4-9.9-4.2 0 2.1-16.2-.7-36.7-6.4-19.8-6.4-42.3-12-50.1-13.4-7.1-2.1-19.8-4.9-28.2-7.8-8.5-3.5-18.3-5.6-22.6-6.4-3.5-.7-12-2.8-17.6-4.9s-37.4-13.4-70.6-24-62.8-21.9-66.3-25.4c-4.2-2.8-11.3-5.6-16.9-5.6-10.6 0-48-15.5-80.4-32.5-11.3-6.4-19.8-8.5-19.8-4.9 0 2.8-2.8 2.8-5.6-1.4-4.2-6.4-72.7-40.9-76.9-39.5-1.4 0-32.5-16.9-69.9-38.1s-70.6-38.8-74.1-38.8-6.4-2.1-6.4-4.9c0-6.4-40.2-30.3-50.1-30.3-3.5 0-48.7 42.3-100.2 93.9-93.1 91.7-115 107.3-186.3 130.5-53.6 16.9-157.4-2.8-206-40.2-39.5-29.6-311.2-304.8-328.8-332.4-42.3-67.7-52.9-173.6-22.6-229.3 4.2-7.8 8.5-17.6 9.2-22.6 2.8-16.2 42.3-62.1 124.9-144.7 45.2-45.2 82.6-84.7 82.6-86.8 0-2.8-9.2-17.6-20.5-33.9-10.6-16.2-21.9-36.7-24.7-45.2-2.8-9.2-7.8-16.2-10.6-16.2-3.5 0-9.9-10.6-15.5-22.6-4.9-12.7-11.3-24.7-13.4-26.8-3.5-2.8-57.9-110.8-60-120-.7-2.1-6.4-16.2-13.4-31.8-28.9-64.9-72.7-179.9-78.3-204.6-.7-3.5-3.5-12-5.6-17.6-6.4-14.1-33.2-115.7-41.6-156.7-4.2-19.1-9.2-33.9-12-34.6-2.1 0-64.2-1.4-138.3-2.1s-146.8-5.6-163-9.9C99.5 5106.2 21.8 5018 7 4928.4c-3.5-19.1-5.6-130.5-4.9-247 .7-199 2.1-213.8 16.2-251.9 28.9-74.8 79.7-124.9 156.7-155.2 33.9-12.7 54.3-14.8 175.7-15.5l137.6-.7 9.2-35.3c4.9-19.1 10.6-40.9 12-48s4.9-19.1 7.1-26.1c2.1-7.1 4.9-19.1 6.4-26.1 10.6-52.9 81.9-243.4 90.3-240.6 3.5 1.4 131.2 127 283.7 279.4l277.3 277.3-5.6 31c-16.9 88.9-22.6 299.2-10.6 388.1 3.5 23.3 6.4 50.1 7.1 60 7.1 69.9 60.7 256.9 97.4 338.7 49.4 110.1 111.5 218.7 156.7 276.6 8.5 9.9 22.6 28.9 32.5 41.6 60 79.7 178.5 195.5 268.1 262.5 81.9 61.4 214.5 134.8 310.5 172.2 84.7 33.2 99.5 38.8 109.4 40.9 4.2 1.4 24.7 7.1 45.9 13.4 21.2 5.6 51.5 12.7 67 15.5 15.5 2.1 31 5.6 33.9 7.8 2.8 1.4 15.5 4.9 28.2 6.4 12.7 2.1 30.3 4.9 40.2 6.4 79 12.7 257.6 16.9 342.2 7.8 211-22.6 386-79 571.6-183.5 27.5-15.5 50.8-30.3 52.9-32.5 2.1-2.1 18.3-13.4 36.7-24.7 19.1-12 33.9-23.3 33.9-26.1 0-3.5 3.5-5.6 7.8-5.6 7.8 0 59.3-41.6 118.5-95.3 28.9-26.1 40.9-38.1 99.5-102.3 35.3-38.1 100.2-125.6 136.9-182.1 63.5-100.2 152.4-302.7 170.1-389.5 1.4-5.6 5.6-23.3 9.2-38.8 4.2-15.5 9.2-37.4 11.3-49.4 2.1-11.3 4.9-28.9 7.1-38.8 4.9-25.4 12-76.9 14.8-109.4 4.2-43 4.2-222.3 0-254-17.6-141.8-20.5-155.9-56.5-285.8-21.9-80.4-82.6-218.7-129.1-296.4-8.5-13.4-20.5-33.9-26.8-45.9-6.4-11.3-14.1-22.6-16.2-24.7s-13.4-16.9-24-33.9c-22.6-35.3-121.4-153.1-151.7-182.8-67-63.5-129.1-116.4-170.8-145.4-108.7-75.5-191.9-122.1-289.3-162.3-55.7-23.3-157.4-57.9-187.7-64.9-160.9-35.3-217.3-42.3-352.1-41.6-120 0-209.6 7.1-250.5 20.5-9.9 2.8-78.3-61.4-292.1-275.2-153.8-153.8-279.4-282.3-279.4-285.8 0-2.8 16.9-11.3 37.4-18.3 19.8-6.4 40.2-14.1 43.7-16.9 4.2-2.8 40.2-15.5 81.1-27.5 40.9-12.7 81.9-26.1 91.7-28.9 9.9-3.5 35.3-9.9 56.5-14.1 74.8-16.2 68.4-.7 69.2-157.4 0-86.1 3.5-143.2 8.5-152.4 4.2-8.5 5.6-14.8 3.5-14.8s4.2-15.5 14.1-34.6c19.1-37.4 72.7-99.5 86.8-99.5 4.9 0 8.5-2.8 8.5-6.4 0-3.5 12-10.6 26.8-15.5 14.1-4.2 30.3-12 36-16.2 7.1-5.6 82.6-7.8 247-7.8 216.6 0 240.6 1.4 278 14.1 21.9 7.1 40.2 16.2 40.2 19.1 0 2.8 4.2 5.6 9.9 5.6 14.1 0 79 67.7 92.4 96.7 25.4 52.9 29.6 84 29.6 216.6.7 72.7 1.4 133.4 3.5 134.8 1.4 1.4 10.6 4.2 19.8 6.4 98.8 20.5 280.8 79.7 376.1 122.8 26.1 12 47.3 19.8 47.3 16.9 0-2.8 2.8-1.4 5.6 2.1 2.8 4.2 30.3 19.8 61.4 34.6 31 15.5 57.9 29.6 60 31.8 2.1 2.8 12 8.5 22.6 12.7 10.6 4.9 32.5 17.6 49.4 28.2 69.2 45.2 58.6 48.7 160.9-53.6 97.4-98.1 129.8-121.4 190.5-136.2 64.9-16.2 121.4-8.5 187 25.4 28.2 14.8 310.5 290.7 343.6 335.9 54.3 75.5 60 184.2 13.4 272.4-8.5 16.2-58.6 72.7-110.8 125.6l-96 96.7 13.4 18.3c15.5 22.6 33.9 52.9 53.6 90.3 8.5 15.5 16.9 29.6 19.8 31.8 4.2 4.2 72 142.5 72.7 148.9.7 2.1 8.5 21.2 17.6 42.3 9.2 21.2 19.1 44.5 22.6 52.2 12 29.6 50.1 143.2 60 179.9 13.4 48.7 31.8 120 33.9 134.1 1.4 9.2 22.6 10.6 132 11.3 141.8 1.4 162.3 3.5 208.9 24.7 32.5 14.8 49.4 26.8 77.6 55.7 16.9 16.9 52.9 73.4 56.5 88.2.7 3.5 4.9 21.9 9.2 39.5 8.5 34.6 6.4 455.8-2.1 485.5-23.3 82.6-105.8 163-184.9 181.4-11.3 2.1-81.1 4.9-154.5 5.6-148.9 2.1-140.4-1.4-152.4 58.6-3.5 18.3-13.4 56.5-21.2 83.3-8.5 27.5-15.5 54.3-17.6 60-1.4 5.6-2.8 11.3-3.5 12.7-1.4.7-2.1 3.5-3.5 7.1-.7 2.8-3.5 9.9-5.6 15.5-2.8 5.6-9.9 26.8-16.2 45.9-6.4 19.8-14.8 43-19.1 52.9-3.5 9.9-7.8 21.2-8.5 25.4-4.9 20.5-105.1 219.5-142.5 282.3l-42.3 72 96 97.4c64.2 64.9 101.6 109.4 112.2 132 48 101.6 31 211.7-44.5 292.8-80.4 86.8-283.7 284.4-307 299.2-67 40.9-165.1 51.5-229.3 24-15.5-6.4-29.6-12-31.8-12.7-9.2-.7-60.7-47.3-134.8-121.4-45.2-45.2-87.5-81.9-93.1-81.9-6.4 0-17.6 7.1-26.1 15.5-7.8 8.5-14.1 12.7-14.1 8.5 0-3.5-2.8-2.8-5.6 1.4-6.4 9.2-130.5 78.3-195.5 108.7-51.5 24-185.6 78.3-197.6 80.4-3.5.7-9.9 2.8-14.1 4.9-3.5 2.8-26.1 9.9-49.4 16.9-23.3 7.1-61.4 18.3-84.7 25.4s-60 16.2-81.1 20.5l-38.8 8.5v146.1l-.7 145.4-20.5 42.3c-20.5 42.3-88.2 116.4-106.6 116.4-5.6 0-9.9 2.8-9.9 5.6 0 3.5-18.3 11.3-40.2 17.6-33.9 9.2-81.1 11.3-263.2 11.3-207.4.7-225.8-.8-265.3-14.2" style="fill:#18a058" transform="matrix(.1 0 0 -.1 0 726)"/><path d="M2521.9 5760.4c-.7-.7-31-2.8-66.3-5.6-36-2.8-69.2-5.6-74.1-7.8-4.9-1.4-16.9-4.2-26.8-6.4-74.8-13.4-199.7-55.7-264.6-88.9-45.9-24-124.9-70.6-130.5-76.9-2.1-2.8-16.2-12.7-31.8-23.3-15.5-10.6-39.5-29.6-53.6-42.3s-33.2-30.3-42.3-38.8c-52.2-46.6-128.4-139-167.2-203.2-39.5-63.5-91.7-175.7-107.3-229.3-9.2-28.9-19.1-56.5-21.9-60.7-3.5-4.2-4.9-9.2-2.8-11.3 2.1-1.4 0-14.1-3.5-27.5-4.2-13.4-9.2-36.7-11.3-52.2s-5.6-36-7.1-45.9c-2.1-9.9-4.2-62.1-5.6-116.4-2.1-86.8 4.9-172.9 19.8-243.4 2.1-9.9 5.6-24.7 7.1-33.9 2.1-8.5 10.6-38.1 19.8-64.9l15.5-50.1-731.8-731.8c-402.2-402.2-743-747.3-756.4-766.3-13.4-19.1-24.7-38.8-24.7-44.5 0-4.9-2.1-9.2-5.6-9.2-5.6 0-21.9-33.9-26.1-55.7-1.4-8.5-4.2-17.6-6.4-20.5-14.8-24-20.5-148.9-9.9-205.3 6.4-36 38.8-127 47.3-134.8 2.1-2.1 8.5-12 13.4-21.9 12-23.3 81.9-96.7 114.3-120.7 77.6-56.5 172.9-84.7 273.8-80.4 77.6 3.5 124.2 15.5 195.5 52.2 45.9 23.3 106.6 81.9 796 770.6l746.6 746.6 34.6-13.4c19.1-7.1 41.6-14.1 50.8-16.2s22.6-4.9 30.3-7.1c104.4-24 133.4-27.5 247-27.5 105.8-.7 159.5 4.9 243.4 24 57.9 13.4 164.4 49.4 194.1 64.9 7.8 4.2 15.5 8.5 17.6 8.5 16.2 2.8 169.4 93.9 183.5 109.4 2.1 2.1 17.6 14.8 35.3 28.9 94.6 76.2 187 183.5 245.6 285.1 34.6 60.7 85.4 176.4 96.7 222.3.7 2.1 2.8 8.5 4.9 14.1 7.1 16.9 26.1 103 31 137.6 7.8 49.4 9.9 81.9 10.6 151.7 0 71.3-5.6 167.2-11.3 176.4-1.4 2.1-4.2 18.3-7.1 35.3-15.5 106.6-112.9 164.4-202.5 120.7-19.8-9.9-93.9-78.3-213.8-199-100.9-101.6-199-196.9-218-212.4-92.4-73.4-217.3-95.3-330.9-57.2-27.5 9.9-52.2 19.8-54.3 21.9-2.1 2.8-12 9.2-22.6 14.8-27.5 14.1-76.9 62.8-101.6 100.2-74.8 110.8-81.1 239.9-18.3 362 21.9 41.6 55 78.3 231.5 255.4 112.9 113.6 210.3 215.9 216.6 227.2 5.6 11.3 9.9 40.2 10.6 63.5 0 44.5-16.9 79.7-51.5 108.7-24 20.5-121.4 43.8-197.6 48-49.2 2.7-124 4.1-126.1 2.7" style="fill:#fff" transform="matrix(.1 0 0 -.1 0 726)"/></svg>