<svg xmlns="http://www.w3.org/2000/svg" xmlns:xlink="http://www.w3.org/1999/xlink" version="1.1" id="Layer_1" x="0px" y="0px" style="enable-background:new 0 0 111.9 70;" xml:space="preserve" viewBox="0 0 111.85 70">
 <style type="text/css">
  .st0{fill-rule:evenodd;clip-rule:evenodd;fill:#FFFFFF;}
	.st1{fill:#FF4338;}
	.st2{fill-rule:evenodd;clip-rule:evenodd;fill:#FF4338;}
 </style>
 <g>
  <path class="st0" d="M106,42.1c-0.2,1.5-0.5,2.7-0.8,3.7c-0.5,1-0.8,1.9-1.5,2.5c-0.5,0.5-1.2,1-1.9,1.5c-0.8,0.5-1.7,1-2.9,1.3   l-3.7,1.2v3.9v4.4l-10.6-6.2l-1.5-0.8l-1.7,0.2c-1.5,0.2-3.2,0.3-4.9,0.3c-4.6,0.2-14.8,0.3-20.6,0.3c-5.7,0-16.2-0.2-20.7-0.3   c-4.2-0.3-8.1-0.7-11.5-1c-4.4-0.5-7.6-1-10.1-1.7c-1.3-0.3-2.5-0.8-3.4-1.3c-0.8-0.5-1.5-1-2-1.7c-0.7-0.7-1.2-1.5-1.5-2.5   c-0.3-1-0.7-2.2-0.8-3.7C5.3,38.9,5.3,34.2,5.3,30c0-4.2,0-9.1,0.5-12.1c0.2-1.5,0.5-2.7,0.8-3.7c0.5-1,0.8-1.9,1.5-2.7   c0.5-0.7,1.2-1.2,2-1.7c0.8-0.5,2-1,3.5-1.3c2.5-0.7,5.7-1.2,10.1-1.7c3.4-0.5,7.3-0.8,11.5-1c4.6-0.2,15-0.3,20.7-0.3   s16,0.2,20.6,0.5c4.2,0.3,8.1,0.7,11.5,1c4.4,0.5,7.6,1,10.1,1.7c1.3,0.3,2.5,0.8,3.4,1.3c0.8,0.5,1.5,1,2,1.7   c0.7,0.7,1.2,1.5,1.5,2.5c0.3,1,0.7,2.2,0.8,3.7c0.5,3,0.5,7.9,0.5,12.1C106.5,34.2,106.5,38.9,106,42.1L106,42.1z">
  </path>
  <path class="st1" d="M20,16.1L20,16.1c-1.6,0-3,1.3-3,2.9c0,1.6,1.3,2.9,3,2.9l0,0c1.6,0,2.9-1.2,2.9-2.8c0,0,0,0,0,0   C22.9,17.4,21.6,16.1,20,16.1L20,16.1z">
  </path>
  <path class="st1" d="M92.3,16.1c-1.6,0-2.9,1.3-2.9,2.9v0c0,1.6,1.3,2.9,2.9,2.9c0,0,0,0,0,0c1.6,0,2.9-1.2,3-2.8l0,0   C95.2,17.4,93.9,16.1,92.3,16.1L92.3,16.1z">
  </path>
  <path class="st2" d="M48.7,23.4c-2.6,0-5.2,0.5-7.5,1.6v4.4h1.5c1.5-1,3.3-1.5,5.1-1.5c2.6,0,3.6,0.9,3.6,2.7v1.3   c-1.3-0.3-2.6-0.5-4-0.4c-4.6,0-7.9,2-7.9,6.1c0,3.9,2.7,5.9,6.4,5.9c2.4,0,4.3-0.6,5.7-2.1c0.4,1.6,1.2,1.9,2.9,1.9H57V29.7   C57,25.2,54.2,23.4,48.7,23.4L48.7,23.4z M51.5,38.5c-0.9,0.8-2,1.5-3.4,1.5c-1.8,0-3.1-0.9-3.1-2.7c0-1.9,1.4-2.7,3.7-2.7   c0.9,0,1.9,0.1,2.8,0.2V38.5z">
  </path>
  <path class="st1" d="M80.6,31.3l4.8-5.2c0.6-0.7,1-1.5,1-2.4h-4.4l-6.9,7.8V20.3c0-2.6-0.3-3-2.1-3h-3.3v25.9h5.4V37l2-2.1l5.2,8.2   h5c0-1-0.3-1.9-0.8-2.7L80.6,31.3z">
  </path>
  <path class="st1" d="M89.6,27.2v16H95V23.7h-2C91.2,23.7,89.6,25.2,89.6,27.2L89.6,27.2z">
  </path>
  <path class="st1" d="M19.2,23.7h-2v19.5h5.4v-16C22.6,25.2,21.1,23.7,19.2,23.7L19.2,23.7z">
  </path>
  <path class="st1" d="M33.2,37.3v-10h3.9v-3.6h-3.9V20c0-0.8-0.6-1.4-1.4-1.4h0h-4v5.2h-2.3v3.6h2.3v10.6c0,4,2.3,5.5,6,5.5   c1.2,0,2.3-0.2,3.4-0.5v-3.3h-1.5C33.9,39.7,33.2,39.2,33.2,37.3L33.2,37.3z">
  </path>
  <path class="st1" d="M63.8,17.2h-3.3v25.9h5.4V20.3C65.9,17.7,65.6,17.2,63.8,17.2L63.8,17.2z">
  </path>
  <path class="st2" d="M111.3,17.1c-0.2-2-0.7-3.5-1.1-4.7c-0.6-1.7-1.4-3.1-2.6-4.4c-1.1-1.3-2.3-2.2-3.3-2.8   c-1.4-0.8-3-1.5-4.8-1.9C97,2.7,93.7,2.1,88.8,1.6l0,0l0,0c-3.2-0.3-7-0.7-11.6-1l0,0l0,0C72.3,0.2,61.7,0,56.1,0   c-5.8,0-16.4,0.2-20.9,0.3l0,0l0,0c-4.4,0.2-8.5,0.5-12,1.1C18.3,2,15.1,2.5,12.5,3.2c-1.9,0.4-3.6,1.1-5,2c-1,0.6-2.4,1.5-3.5,3   c-0.9,1.1-1.4,2.2-1.8,3c-0.1,0.2-0.2,0.4-0.3,0.5l-0.2,0.3l-0.1,0.4c-0.4,1.1-0.8,2.7-1.1,4.7C0,20.6,0,25.6,0,30   c0,4.3,0,9.3,0.6,12.9c0.2,2,0.7,3.6,1.1,4.7c0.6,1.7,1.4,3.1,2.6,4.4c1.1,1.3,2.3,2.2,3.3,2.8c1.4,0.8,3,1.5,4.8,1.9   c2.7,0.7,5.9,1.3,10.8,1.8l0,0l0,0c3.2,0.3,7,0.7,11.6,1l0.1,0l0.1,0c4.6,0.2,15.1,0.3,20.9,0.3c5.8,0,16-0.2,20.7-0.3   c1.9,0,3.8-0.2,5.3-0.4l0,0l10.6,6.2l8,4.7v-9.3v-4.4c1.8-0.5,3-1.3,4-1.9l0.2-0.1l0.2-0.2c0.8-0.6,1.7-1.2,2.4-2   c1.2-1.2,1.8-2.5,2.3-3.5c0.1-0.1,0.1-0.3,0.2-0.4l0.2-0.3l0.1-0.4c0.4-1.1,0.8-2.7,1.1-4.7c0.6-3.6,0.6-8.5,0.6-12.9   C111.9,25.6,111.9,20.6,111.3,17.1L111.3,17.1z M106,42.1c-0.2,1.5-0.5,2.7-0.8,3.7c-0.5,1-0.8,1.9-1.5,2.5c-0.5,0.5-1.2,1-1.9,1.5   c-0.8,0.5-1.7,1-2.9,1.3l-3.7,1.2v3.9v4.4l-10.6-6.2l-1.5-0.8l-1.7,0.2c-1.5,0.2-3.2,0.3-4.9,0.3c-4.6,0.2-14.8,0.3-20.6,0.3   c-5.7,0-16.2-0.2-20.7-0.3c-4.2-0.3-8.1-0.7-11.5-1c-4.4-0.5-7.6-1-10.1-1.7c-1.3-0.3-2.5-0.8-3.4-1.3c-0.8-0.5-1.5-1-2-1.7   c-0.7-0.7-1.2-1.5-1.5-2.5c-0.3-1-0.7-2.2-0.8-3.7C5.3,38.9,5.3,34.2,5.3,30c0-4.2,0-9.1,0.5-12.1c0.2-1.5,0.5-2.7,0.8-3.7   c0.5-1,0.8-1.9,1.5-2.7c0.5-0.7,1.2-1.2,2-1.7c0.8-0.5,2-1,3.5-1.3c2.5-0.7,5.7-1.2,10.1-1.7c3.4-0.5,7.3-0.8,11.5-1   c4.6-0.2,15-0.3,20.7-0.3c5.7,0,16,0.2,20.6,0.5c4.2,0.3,8.1,0.7,11.5,1c4.4,0.5,7.6,1,10.1,1.7c1.3,0.3,2.5,0.8,3.4,1.3   c0.8,0.5,1.5,1,2,1.7c0.7,0.7,1.2,1.5,1.5,2.5c0.3,1,0.7,2.2,0.8,3.7c0.5,3,0.5,7.9,0.5,12.1C106.5,34.2,106.5,38.9,106,42.1   L106,42.1z">
  </path>
 </g>
</svg>