<svg width="81" height="41" viewBox="0 0 81 41" fill="none" xmlns="http://www.w3.org/2000/svg">
<g id="20220328_[itop]_orange-gris-ss-baseline (2) 2" clip-path="url(#clip0_172_5586)">
<path id="Vector" d="M77.6736 26.2143C79.4015 26.2143 80.8345 24.8235 80.8345 23.0534C80.8345 21.2833 79.3594 19.8925 77.6736 19.8925C75.9878 19.8925 74.5127 21.3676 74.5127 23.0534C74.5127 24.7392 75.9035 26.2143 77.6736 26.2143Z" fill="#F18700"/>
<path id="Vector_2" d="M3.62446 6.11104C5.31026 6.11104 6.65891 4.7624 6.65891 3.03445C6.65891 1.3065 5.26812 0 3.62446 0C1.9808 0 0.547866 1.39079 0.547866 3.03445C0.505721 4.72025 1.81222 6.11104 3.62446 6.11104Z" fill="#F18700"/>
<path id="Vector_3" d="M9.98839 24.4442C8.04972 24.4442 6.36391 23.3484 6.36391 20.7354V20.4825V14.4136V9.9041H0V14.4558H1.77009V21.3254C1.77009 26.5936 5.01527 29.038 9.48265 29.038C13.95 29.038 12.0956 28.6587 13.2336 27.9844V22.5055C12.7278 23.6856 11.5056 24.4442 9.98839 24.4442ZM42.4401 19.5975C42.4401 22.5476 40.2064 24.7392 37.4249 24.7392C34.6433 24.7392 32.4096 22.6741 32.4096 19.5975C32.4096 16.5209 34.5168 14.4136 37.4249 14.4136C40.2064 14.4136 42.4401 16.6473 42.4401 19.5975ZM47.2447 19.5975C47.2447 13.95 42.8616 9.60909 37.467 9.60909C32.0724 9.60909 27.6472 13.6972 27.6893 19.8503V21.0304C27.6893 23.0534 26.2143 24.4442 24.107 24.4442C21.9998 24.4442 20.4825 23.3062 20.4825 20.7354V14.8351H24.8235V10.2413H20.1032C21.5362 8.80833 22.2948 6.95394 22.7162 4.25666H18.0803C17.4902 7.92328 15.8044 10.2413 12.1799 10.2413V14.8351H15.8887V21.3254C15.8887 26.5936 19.1339 29.038 23.6013 29.038C28.0686 29.038 28.4901 27.7736 29.7544 25.7928C31.5245 28.1108 34.3061 29.5437 37.4249 29.5437C42.8616 29.5437 47.2447 25.1606 47.2447 19.5975ZM64.4399 19.1339C64.4399 22.4212 62.2483 24.4863 59.2982 24.4863C56.348 24.4863 54.1143 22.3791 54.1143 19.4289V18.9232C54.1143 16.0151 56.4745 13.6972 59.2982 13.6972C62.1219 13.6972 64.4399 15.8466 64.4399 19.1339ZM69.2023 19.176C69.2023 13.3179 65.1142 9.14549 60.1832 9.14549C55.2522 9.14549 54.6201 10.7891 53.9879 12.0956V9.69338H49.3519V40.08C51.9228 39.7007 53.3136 38.8578 53.9457 36.1184V26.8464C53.9457 26.8464 55.9266 29.1644 59.7618 29.1223C64.6506 29.038 69.2444 25.2028 69.2023 19.176Z" fill="#202B2F"/>
</g>
<defs>
<clipPath id="clip0_172_5586">
<rect width="80.8343" height="40.08" fill="white"/>
</clipPath>
</defs>
</svg>
