<svg xmlns="http://www.w3.org/2000/svg" xml:space="preserve" id="Layer_1" x="0" y="0" version="1.1" viewBox="0 0 512 512"><style>.st5{opacity:.5;fill:#fff;enable-background:new}</style><path d="M272.3 10.2q-.3 1.35 0 3s3.1 20.8-.4 30L120.7 436.1c-10.8 28.9 3.7 61.1 32.5 72.2s61.1-3.2 72.5-31.8l151.1-393c3-7.7 19.8-22.6 19.8-22.6.8-.6 1.5-1.4 1.9-2.2l.1-.2c.1-.2.2-.3.2-.5 3.9-10.1-21.2-29.2-56.1-42.6s-66.4-16.1-70.2-6c-.1.2-.1.4-.2.5z" style="opacity:.3"/><linearGradient id="SVGID_1_" x1="112.205" x2="173.483" y1="455.375" y2="394.098" gradientTransform="matrix(1.4278 -.6346 -.6346 -1.4278 309.174 955.6)" gradientUnits="userSpaceOnUse"><stop offset="0" style="stop-color:#919191"/><stop offset="1" style="stop-color:#fff"/></linearGradient><path d="M267.9 6.8q-.3 1.35 0 3s3.1 20.8-.4 30L116.3 432.7c-10.8 28.9 3.7 61.1 32.5 72.2s61.1-3.2 72.5-31.8L372.4 80.2c3-7.7 19.8-22.6 19.8-22.6.8-.6 1.5-1.4 1.9-2.2l.1-.2c.1-.2.2-.3.2-.5 3.9-10.1-21.2-29.2-56.1-42.6S272-4 268.1 6.1c-.1.2-.1.4-.2.5z" style="fill:url(#SVGID_1_)"/><linearGradient id="SVGID_00000106147995787163629970000012431719411420709011_" x1="89.171" x2="126.268" y1="408.623" y2="371.525" gradientTransform="matrix(1.4278 -.6346 -.6346 -1.4278 309.174 955.6)" gradientUnits="userSpaceOnUse"><stop offset="0" style="stop-color:#900"/><stop offset="1" style="stop-color:#e80000"/></linearGradient><path d="m315.3 184.6-109 283.3h.1c-8 20.3-31.4 30.9-52.2 22.9-20.7-8-32-31.9-24.3-52.3l69.6-181.1s8.7-14 25.8-24 31.2-7.9 50.1-16.3c19-8.4 39.9-32.5 39.9-32.5" style="fill:url(#SVGID_00000106147995787163629970000012431719411420709011_)"/><ellipse cx="330.9" cy="31.5" rx="11.1" ry="42" style="fill:#333" transform="rotate(-68.96 330.902 31.48)"/><path d="M267.9 9.8s3.1 20.9-.4 30L116.3 432.7c-10.8 28.9 3.7 61.1 32.5 72.2 4.9 1.9 10 3.1 15.2 3.5-19.4-14.6-27.8-40.8-18.8-64.6L293.3 58.7s-20.2-18.9-25.4-48.9" style="opacity:.3;fill:#fff"/><circle cx="219.2" cy="263.3" r="4.4" class="st5"/><circle cx="247.9" cy="295" r="6.6" class="st5"/><circle cx="204.1" cy="332.7" r="12.4" class="st5"/><circle cx="184" cy="355.6" r="6.6" class="st5"/><circle cx="210.3" cy="404.6" r="4.4" class="st5"/></svg>