<?xml version="1.0" encoding="UTF-8"?>
<svg id="Pieuvre" xmlns="http://www.w3.org/2000/svg" viewBox="0 0 512 512">
  <defs>
    <style>
      .cls-1 {
        fill: #141d57;
      }

      .cls-2 {
        fill: #fff;
      }

      .cls-3 {
        fill: #b1ccf7;
        stroke: #132060;
        stroke-width: 7px;
      }

      .cls-3, .cls-4, .cls-5 {
        stroke-miterlimit: 10;
      }

      .cls-6 {
        fill: #da435f;
      }

      .cls-4 {
        stroke: #081f4e;
      }

      .cls-4, .cls-7 {
        fill: #6d54bb;
      }

      .cls-5 {
        fill: #7c57cd;
        stroke: #092150;
      }

      .cls-8 {
        fill: #081f4e;
      }

      .cls-9 {
        fill: #09234e;
      }

      .cls-10 {
        fill: #a97be7;
      }

      .cls-11 {
        fill: #7b59ce;
      }
    </style>
  </defs>
  <g id="Tête">
    <path class="cls-11" d="M98.24,154.39c11.51-45.69,44.88-79.54,85.65-97.34,49.66-21.68,110.29-19.54,155.73,14.09,34.79,24.6,60.77,64.57,62.01,107.94.58,14.67,8.48,22.19,17.56,32.56,4.42,5.12,8.46,10.46,10.51,16.82,5.86,18.41-5.2,35.55-22.52,42.18-39.27,15.93-88.84-7.69-128.01,10.55-8.6,3.45-17.87,5.83-27.11,6.2-12.08.66-24.2-1.03-36.18-2.79-10.33-1.52-20.67-3.13-31.12-3.46-28.3-1-57.55,9.77-85.84,3.54-20.9-4.4-36.96-23.44-29.41-45.34,2.34-7.07,7.33-12.56,11.71-18.54,4.94-6.88,9.29-14.54,11.58-22.64,2.67-9.2,1.94-19.01,2.75-28.47.44-5.22,1.36-10.21,2.65-15.12l.05-.19Z"/>
    <path d="M246.65,288.53c-10.9,0-21.86-1.61-30.91-2.94l-2.15-.32c-9.44-1.39-19.19-2.83-28.85-3.13-11.48-.41-23.36,1.17-34.85,2.7-16.84,2.23-34.26,4.54-51.17.83-11.96-2.52-22.38-9.8-27.85-19.46-4.74-8.37-5.53-17.77-2.29-27.18,1.91-5.77,5.58-10.56,9.12-15.19.92-1.2,1.83-2.4,2.72-3.62,5.67-7.9,9.41-15.2,11.42-22.32,1.81-6.22,2.03-12.87,2.25-19.3.1-2.95.21-6,.46-8.98.42-5.02,1.3-10.02,2.68-15.29l.05-.18c10.86-43.1,42.28-78.83,86.22-98.01,53.35-23.3,113.41-17.86,156.73,14.2,17.79,12.58,32.96,28.91,43.85,47.22,11.55,19.41,17.97,40.68,18.57,61.49.51,12.98,6.87,20.14,14.91,29.2.79.89,1.6,1.8,2.41,2.73,4.3,4.99,8.56,10.51,10.71,17.17,5.68,17.86-4.04,36.12-23.12,43.42-19.27,7.81-41.27,6.19-62.55,4.61-22.36-1.65-45.48-3.37-65.4,5.91-9.56,3.83-18.79,5.94-27.49,6.29-1.81.1-3.63.14-5.45.14ZM180.99,280.08c1.27,0,2.54.02,3.81.07,9.77.3,19.59,1.75,29.08,3.15l2.15.32c10.48,1.54,23.52,3.46,35.98,2.78,8.48-.34,17.49-2.41,26.79-6.13,20.34-9.47,43.72-7.75,66.34-6.07,21.05,1.56,42.82,3.17,61.67-4.48,18.07-6.92,27.29-24.14,21.94-40.95-2.04-6.32-6.16-11.65-10.31-16.47-.81-.92-1.61-1.82-2.4-2.71-7.98-8.99-14.87-16.75-15.41-30.46-1.15-40.05-24.75-81.11-61.59-107.16-42.76-31.64-102.06-37-154.76-13.99-43.36,18.93-74.37,54.17-85.08,96.67l-.05.19c-1.35,5.16-2.2,10.05-2.62,14.95-.25,2.93-.35,5.95-.45,8.88-.22,6.56-.46,13.34-2.33,19.79-2.08,7.34-5.92,14.85-11.73,22.94-.91,1.24-1.83,2.45-2.76,3.66-3.6,4.71-7,9.15-8.81,14.61-3.06,8.86-2.32,17.69,2.13,25.55,5.2,9.17,15.11,16.09,26.53,18.49,16.58,3.65,33.82,1.36,50.49-.85,10.31-1.37,20.94-2.78,31.37-2.78Z"/>
  </g>
  <path id="ombre_gauche" data-name="ombre gauche" class="cls-7" d="M393.67,155.33c-3.2,18.78-3.77,40.63,7.78,56.89,29.07,40.68-28.55,52.22-57.56,57.55-9.16-.76,2.79,3.8,5.45,4,4.42,1.75,17.13,1.41,21.89,1.39,48.94.58,78.29-35.46,36.11-73.28-6.97-6.32-8.73-17.38-9.25-26.33-.27-3.91-2.55-27.93-4.41-20.23Z"/>
  <ellipse class="cls-3" cx="245" cy="178.33" rx="48.33" ry="44"/>
  <ellipse id="Pupille" class="cls-8" cx="244.83" cy="179.25" rx="37.17" ry="33.42"/>
  <ellipse id="reflet_pupille" data-name="reflet pupille" class="cls-2" cx="225.33" cy="168.42" rx="14.67" ry="14.08"/>
  <circle id="fond_joue_droite" data-name="fond joue droite" class="cls-1" cx="320.17" cy="225.17" r="12.83"/>
  <ellipse id="rouge_joue_droit" data-name="rouge joue droit" class="cls-6" cx="320.18" cy="228.83" rx="12.07" ry="9.17"/>
  <circle id="fond_joue_gauche" data-name="fond joue gauche" class="cls-1" cx="173.9" cy="228.83" r="12.83"/>
  <ellipse id="rouge_joue_gauche" data-name="rouge joue gauche" class="cls-6" cx="173.67" cy="232.5" rx="12.07" ry="9.17"/>
  <path id="bouche" class="cls-9" d="M209.85,241.84c-.25.65.49,1.92.99,2.64,15.42,22.54,56.03,20.49,71.7-1.3,1.34-1.99.4-4.44-2.13-3.34-19.1,12.62-44.23,16.92-64.51,3.47-1.38-.97-5.12-3.01-6.01-1.56l-.04.1Z"/>
  <path id="ombre_gauche-2" data-name="ombre gauche" class="cls-10" d="M201.29,66.88c4.86-2.74,17.72-8.9,9.68-10.92-23.84-1.93-59.64,17.57-77.21,37.31-54.75,62.24-16.89,88.87-59.26,142.11-2.31,3.99-4.4,11.62-3.88,15.09.96,1.86,5.43-4.78,6.79-6.37,3.04-4.09,6.22-8.14,9.84-11.68,10.63-10.77,20.72-23.16,23.44-38.37,2.57-19.17,6.34-38.52,15.8-55.49,11.55-19.89,27.33-37.29,45.85-50.89,9.49-7.02,18.93-14.24,28.79-20.67l.17-.1Z"/>
  <path id="joint_tentatcule_droit" data-name="joint tentatcule droit" class="cls-8" d="M288.54,277.22c4.09,1.95,7.14,3.8,8.46,8.44,22.64-3.05,5.82-.45,19.33-10.46-8.28-1.99-19.68,0-27.79,2.02Z"/>
  <polygon id="joint_tentacule_milieu" data-name="joint tentacule milieu" class="cls-8" points="235.32 287.14 241.67 293 241.67 297.83 258.83 296.83 258.83 291.25 263.58 286.58 235.32 287.14"/>
  <polygon id="joint_tentacule_gauche" data-name="joint tentacule gauche" class="cls-8" points="176.5 281.92 182.33 288.17 182.33 291.33 200.33 291.33 209.8 284.75 196.01 282.09 184.67 281.2 176.5 281.92"/>
  <path id="tentacule_milieu" data-name="tentacule milieu" class="cls-5" d="M231.34,297.09c.43-.59,1.23-.58,2.17-.57,6.71-.05,16.04.16,23.31.01,4.12.34,13.51-5.28,13.82,1.61.07,2.02-.37,3.93-.33,5.94.86,54.5,23.61,111.38-21.24,155.99-1.25,1.33-10.08,7.84-8.18,4.33,2.8-5.1,7.34-12.08,10.29-17.08,28.24-62.43-26.74-90.9-19.93-150.1l.08-.11Z"/>
  <path id="tentacule_gauche" data-name="tentacule gauche" class="cls-4" d="M174.15,290.83c2.33-1.31,5.56-1.12,8.15-1.33,51.59-1.94,6.39,29.01,8.35,65.74.57,5.11,2.45,10.18,6.05,15.02,1.67,2.3,3.61,4.6,5.24,6.86,9.21,13.46,13.46,23.36,14.41,37.59,3,36.67-40.59,59.77-29.57,45.76,12.55-11.1,13.14-30.49,13.02-46.2.44-19.74-12.72-36.37-21.36-53.12-3.99-7.9-7.03-16.72-8.48-25.65-1.24-6.46-.5-12.71-.43-19.07.11-7.05-1.77-20.79,4.49-25.52l.14-.08Z"/>
  <path id="tentacule_droite" data-name="tentacule droite" class="cls-4" d="M293.42,289.07c1.96-3.18,5.34-4.62,9.01-5.43,5.51-1.13,11.24-1.93,14.45-1.15,3,.56,4.48,3.36,4.82,6.19.68,4.05.35,10.78.5,16.82-.14,13.95,7.52,26.13,10.53,39.49,5.21,20.87-6.4,33.57-15.16,50.17-1.72,3.53-3.07,7.29-3.86,11.17-2.12,9.22-2.62,19.7,1.87,28.85,1.5,4.09,7.49,13.43,4.93,16.38-1.15.67-4.16-.83-7.12-3.62-4.31-4.19-8.15-9.88-10.42-15.6-8.44-18.99-6.34-29.68,4.86-46.23,18.32-26.24,18.71-33.27-3.5-57.59-4.9-5.93-9.64-13.35-11.63-21.24-1.5-6.05-2.35-12.77.63-18.05l.09-.15Z"/>
</svg>