<svg width="24" height="24" viewBox="0 0 24 24" fill="none" xmlns="http://www.w3.org/2000/svg">
    <rect width="24" height="24" rx="6" fill="#1D4ED8" />
    <path
        d="M0 6C0 2.68629 2.68629 0 6 0H18C21.3137 0 24 2.68629 24 6V18C24 21.3137 21.3137 24 18 24H6C2.68629 24 0 21.3137 0 18V6Z"
        fill="#1D4ED8" />
    <path
        d="M13.8854 12.0001C13.8854 13.0465 13.037 13.8949 11.9906 13.8949C10.9441 13.8949 10.0957 13.0465 10.0957 12.0001C10.0957 10.9536 10.9441 10.1052 11.9906 10.1052C13.037 10.1052 13.8854 10.9536 13.8854 12.0001Z"
        fill="white" />
    <path fill-rule="evenodd" clip-rule="evenodd"
        d="M7.58968 9.36279C8.08026 9.54475 8.33045 10.09 8.14849 10.5805C7.9844 11.0229 7.89433 11.5023 7.89433 12.0048C7.89433 14.2684 9.73148 16.1051 11.9998 16.1051C14.268 16.1051 16.1052 14.2684 16.1052 12.0048C16.1052 11.5023 16.0151 11.0229 15.851 10.5805C15.6691 10.09 15.9192 9.54475 16.4098 9.36279C16.9004 9.18083 17.4456 9.43101 17.6276 9.92159C17.8687 10.5717 18 11.274 18 12.0048C18 15.3167 15.3127 17.9999 11.9998 17.9999C8.68682 17.9999 5.99951 15.3167 5.99951 12.0048C5.99951 11.274 6.13081 10.5717 6.37194 9.92159C6.5539 9.43101 7.09911 9.18083 7.58968 9.36279Z"
        fill="white" />
    <path fill-rule="evenodd" clip-rule="evenodd"
        d="M11.9927 7.89481C11.3649 7.89481 10.7726 8.03489 10.243 8.28454C9.7697 8.50765 9.20516 8.30483 8.98206 7.83154C8.75895 7.35825 8.96177 6.79371 9.43506 6.57061C10.2121 6.20432 11.0799 6 11.9927 6C12.9056 6 13.7733 6.20432 14.5504 6.57061C15.0237 6.79371 15.2265 7.35825 15.0034 7.83154C14.7803 8.30483 14.2157 8.50765 13.7424 8.28454C13.2128 8.03489 12.6205 7.89481 11.9927 7.89481Z"
        fill="white" />
    <path
        d="M0 6C0 2.68629 2.68629 0 6 0H18C21.3137 0 24 2.68629 24 6V18C24 21.3137 21.3137 24 18 24H6C2.68629 24 0 21.3137 0 18V6Z"
        fill="#1D4ED8" />
    <path
        d="M13.8854 12.0001C13.8854 13.0465 13.037 13.8949 11.9906 13.8949C10.9441 13.8949 10.0957 13.0465 10.0957 12.0001C10.0957 10.9536 10.9441 10.1052 11.9906 10.1052C13.037 10.1052 13.8854 10.9536 13.8854 12.0001Z"
        fill="white" />
    <path fill-rule="evenodd" clip-rule="evenodd"
        d="M7.58968 9.36279C8.08026 9.54475 8.33045 10.09 8.14849 10.5805C7.9844 11.0229 7.89433 11.5023 7.89433 12.0048C7.89433 14.2684 9.73148 16.1051 11.9998 16.1051C14.268 16.1051 16.1052 14.2684 16.1052 12.0048C16.1052 11.5023 16.0151 11.0229 15.851 10.5805C15.6691 10.09 15.9192 9.54475 16.4098 9.36279C16.9004 9.18083 17.4456 9.43101 17.6276 9.92159C17.8687 10.5717 18 11.274 18 12.0048C18 15.3167 15.3127 17.9999 11.9998 17.9999C8.68682 17.9999 5.99951 15.3167 5.99951 12.0048C5.99951 11.274 6.13081 10.5717 6.37194 9.92159C6.5539 9.43101 7.09911 9.18083 7.58968 9.36279Z"
        fill="white" />
    <path fill-rule="evenodd" clip-rule="evenodd"
        d="M11.9927 7.89481C11.3649 7.89481 10.7726 8.03489 10.243 8.28454C9.7697 8.50765 9.20516 8.30483 8.98206 7.83154C8.75895 7.35825 8.96177 6.79371 9.43506 6.57061C10.2121 6.20432 11.0799 6 11.9927 6C12.9056 6 13.7733 6.20432 14.5504 6.57061C15.0237 6.79371 15.2265 7.35825 15.0034 7.83154C14.7803 8.30483 14.2157 8.50765 13.7424 8.28454C13.2128 8.03489 12.6205 7.89481 11.9927 7.89481Z"
        fill="white" />
</svg>