<svg xmlns="http://www.w3.org/2000/svg" xml:space="preserve" viewBox="0 0 512 512"><path d="M490.6 7.4H243.9c0 59.6 49.9 108 111.2 108h45.6v42.2c0 59.6 49.9 108 111.2 108V28.1c.1-11.7-9.2-20.7-21.3-20.7" style="fill:#2684ff"/><linearGradient id="a" x1="380.896" x2="279.145" y1="390.609" y2="282.574" gradientTransform="matrix(1 0 0 -1 0 514)" gradientUnits="userSpaceOnUse"><stop offset=".176" style="stop-color:#0052cc"/><stop offset="1" style="stop-color:#2684ff"/></linearGradient><path d="M368.7 126.5H121.9c0 59.6 49.9 108 111.2 108h45.6v42.9c0 59.6 49.9 108 111.2 108V147.3c.2-11.1-9.1-20.8-21.2-20.8" style="fill:url(#a)"/><linearGradient id="b" x1="265.965" x2="148.117" y1="270.661" y2="152.607" gradientTransform="matrix(1 0 0 -1 0 514)" gradientUnits="userSpaceOnUse"><stop offset=".176" style="stop-color:#0052cc"/><stop offset="1" style="stop-color:#2684ff"/></linearGradient><path d="M246.7 246.3H0c0 59.6 49.9 108 111.2 108h45.6v42.2c0 59.6 49.9 108 111.2 108V267.1c.1-11.8-9.9-20.8-21.3-20.8" style="fill:url(#b)"/></svg>