<svg xmlns="http://www.w3.org/2000/svg" xml:space="preserve" viewBox="85.16 -0.06 341.93 512.57"><g transform="translate(-152.932 -3059.705)scale(4.20707)"><linearGradient id="a" x1="117.555" x2="133.08" y1="770.665" y2="717.546" gradientTransform="matrix(4.2071 0 0 -4.2071 -412.012 3999.064)" gradientUnits="userSpaceOnUse"><stop offset="0" style="stop-color:#0f3060"/><stop offset=".271" style="stop-color:#0575ce"/><stop offset=".733" style="stop-color:#0575ce"/><stop offset="1" style="stop-color:#0f3060"/></linearGradient><path d="M60 847.3c-.3-.7-.6-1.3-.6-1.4s-1.1-5.8-1.2-7.2c-.5-6.4-1.4-7-1.2-12.7.1-3.5-.3-4.6.7-7.5 2.1-5.8 3.6-8.1 6.4-9.5 2.2-1.1 4.3-1 6.2.5.5.4 2.2 1.5 3.8 2.6s3.5 2.3 4.2 2.8 1.9 1.2 2.7 1.6c1.3.7 1.4.7 1.6.3.6-.8 2-2.9 2.8-3.9 3.8-5.1.2-4.5-.7-4.8-1.4-.4-2-1-3.3-2.6-3.1-3.6-4.5-7.6-4.8-12.6-.3-5.8.3-10.4 2.9-13.1 1.1-1.1 3.4-2.8 5.5-3.9 1.8-1 12.7-3 13.7-2.6.5.2-1.9-6.1-.5-14.2.3-1.6 2.1-6.6 2.3-7 .5-.8 8.4-3.6 10.7-4.9 2.5-1.5 8-5 8.4-7.7.9-5.8 1.1-8.3 1.4-8.5.6-.3 4.3 7.4 1.8 14.6-.5 1.4-2.9 4.8-3.9 6.2-.8 1 .9 1.5 1.9 2.9.9 1.3 1.4 4.5 1.6 6.2.1 1.7-.4 5.2-.9 5.9-.2.3-.3.6-.2.6.1.1.7 0 1.4-.2s2.2-.4 3.4-.5c2.1-.3 2.1-.3 3.5.2 2.1.6 12.3 3.1 5.8 31.5-2.1 9.4-12.2 21.8-13.4 20.9l-3.1-2.4-3.6 5.3c-1.8 1.9-3.8 3.7-5 4.6-1.8 1.4-5.5 3.5-6 3.5-.1 0-.9.3-1.6.7-2.2 1-5.5 1.9-8.9 2.1-13.4.9-8.3-.8-19.4-6.1-.9-.4-2.9 1.7-5.3 3.9-2.6 2.4-4 4.2-5 6.6-.3.8-.9 2.1-1.2 2.8-.9 2-1.6 4.7-1.7 6.4-.1.8-.2 1.6-.3 1.6-.2.2-.6-.4-.9-1m14.8-24c1.7-.4 1.9-.5 3.8-1.9 1.3-1 2.1-2.8 2.5-2.9 2.3-1-1.7-1.9-3.2-3-1.5-1-3.5-1.8-4.8-2.8s-2.5-1.8-2.6-1.8-.1.7-.1 1.5c0 2.3-.3 4.6-.7 5.6-.2.5-.4 1.4-.5 2.1-.1 1.5.2 2.3 1.5 3.1.9.8 1.4.8 4.1.1m62.3-43.5c-.6-3.8-.1-8.9-3-10.8-6.8-4.3-7.5 0-7.9.9-.7 1.6-1.1 2.8-.6 4.6 1.6 5.3 3.6 10 4.6 13.7 1.1 4.3 2.3 7 2.5 10.4.1 2.4.1 2.7-.3 3.2-.5.8-8.1 2.7-11.9 3.8-1.3.4-.1 3.2-.3 4.1s-2.2 6.1-1.5 7.1c6.4 10.4 20.8-20.8 18.4-37m-14 25.2c1-.2 2-.5 2.1-.7.1-.1.5-.2.8-.2.5 0 2.7-.6 2.9-.9 0-.1 2-1.1 1.6-1.3-.4-.3-7.9-5.8-9-6.3-12.4-6.5-18.9-6.9-23-6.1-7 1.4-13 5-13.8 5.8-.2.3 11-3.5 18.9.5 1.5.7 4.5 2 6.8 4.4 2.1 2.2 4 4.6 5.5 5 1.6.4 4.9.3 7.2-.2m-15-26.7c3.9-.7 10-8.8 9.5-9.6-.1-.1 1.2-2.2 1-2.2-7.3-1.5-7.2-8.8-7.3-8.8-.1-.1-10.8 5.1-13.3 6.1-2.1.9.3 6.3 1.6 9.7.6 1.5 3.7 3.5 4.9 4.3 1.5 1 3.3.6 3.6.5m8.5-24.8c2.1-1.7 7.8-10 7.2-13.4-2.4-13.8-3.5-5.3-3.6-4-.1.5-.2 1.6-.4 2.5s-.4 2.1-.5 2.8-.3 1.8-.6 2.6c-.2.8-.6 2-.7 2.8-.2.8-.9 2.7-1.5 4.3s-1.1 2.9-1.1 3q-.15.45 1.2-.6" style="fill:url(#a)"/><linearGradient id="b" x1="114.916" x2="96.504" y1="757.148" y2="726.01" gradientTransform="matrix(4.2071 0 0 -4.2071 -412.012 3999.064)" gradientUnits="userSpaceOnUse"><stop offset="0" style="stop-color:#092d61"/><stop offset="1" style="stop-color:#0575ce"/></linearGradient><path d="M60.6 846.8c3.3-13.7 6.3-15.2 14.2-20.3-1.7-1-6-4.2-6-6 0-5.1.9-13.9-4.7-10.2-10.7 6.9-6.8 29.1-3.5 36.5" style="fill-rule:evenodd;clip-rule:evenodd;fill:url(#b)"/><linearGradient id="c" x1="120.109" x2="130.805" y1="752.06" y2="821.663" gradientTransform="matrix(4.2071 0 0 -4.2071 -412.012 3999.064)" gradientUnits="userSpaceOnUse"><stop offset="0" style="stop-color:#0f3060"/><stop offset=".457" style="stop-color:#0575ce"/><stop offset=".738" style="stop-color:#0575ce"/><stop offset="1" style="stop-color:#0f3060"/></linearGradient><path d="M72.2 824.7c4.7 3.5 8.8 6.7 11.7 8.3 28.6 1.4 35.8-14.4 36.3-27.3-2.5.1-6.9-.5-9.2-4-5.8 1.9-23.5 7.3-23.8 8.5-1.6 6.3-6.4 11.3-15 14.5" style="fill-rule:evenodd;clip-rule:evenodd;fill:url(#c)"/><linearGradient id="d" x1="129.82" x2="87.846" y1="763.739" y2="942.496" gradientTransform="matrix(1.0338 0 0 -1.0338 -2.826 1601.75)" gradientUnits="userSpaceOnUse"><stop offset="0" style="stop-color:#ff8000"/><stop offset=".663" style="stop-color:#fff4e1"/><stop offset=".75" style="stop-color:#fff4e1"/><stop offset="1" style="stop-color:#ff8400"/></linearGradient><path d="M121.9 819.5c17.3-12.9 15.1-38.6 15.3-39.9.7-3.4-3.5-14.7-8.5-12.6-8.3 3.5 5.9 23.1 4 33.9-.4 2.2-7.3 3.9-12 4.6-.5.1-.1 7.3-2.4 10.7-.3.4 3.3 3.5 3.6 3.3" style="fill-rule:evenodd;clip-rule:evenodd;fill:url(#d)"/><linearGradient id="e" x1="134.739" x2="98.106" y1="763.724" y2="755.711" gradientTransform="matrix(4.2071 0 0 -4.2071 -412.012 3999.064)" gradientUnits="userSpaceOnUse"><stop offset="0" style="stop-color:#fff"/><stop offset="1" style="stop-color:#fff;stop-opacity:0"/></linearGradient><path d="M124.3 817.7c22.1-21.7 10.9-60.5 3.2-49.2 10.6-2.2 12.3 33.4-3.2 49.2" style="fill-rule:evenodd;clip-rule:evenodd;fill:url(#e)"/><linearGradient id="f" x1="77.469" x2="51.102" y1="763.197" y2="720.444" gradientTransform="matrix(1.0338 0 0 -1.0338 -2.826 1601.75)" gradientUnits="userSpaceOnUse"><stop offset="0" style="stop-color:#ffc768"/><stop offset=".378" style="stop-color:#ff8400"/><stop offset=".774" style="stop-color:#ff8400"/><stop offset="1" style="stop-color:#ffc768"/></linearGradient><path d="M82.3 818c.4-.6-7.2-3.2-11.8-7.3-.5-.5-.6 6.7-1.1 9.7-.3 1.9 2.9 3.7 3.6 4 .5.2 7.6-4.1 9.3-6.4" style="fill-rule:evenodd;clip-rule:evenodd;fill:url(#f)"/><linearGradient id="g" x1="121.099" x2="126.251" y1="768.946" y2="739.144" gradientTransform="matrix(4.3476 0 0 -4.2653 -428.128 4043.725)" gradientUnits="userSpaceOnUse"><stop offset="0" style="stop-color:#fff"/><stop offset="1" style="stop-color:#fff;stop-opacity:0"/></linearGradient><path d="M76.2 797.3c-2.7-13.5 2.2-21.4 21.5-24.2.1.3 21.5-6.9 29.1-7-2 3.2 0 11.3 2.5 17.8 0 .1-18.1 4.9-53.1 13.4" style="fill-rule:evenodd;clip-rule:evenodd;fill:url(#g)"/><linearGradient id="h" x1="103.839" x2="134.14" y1="782.687" y2="721.934" gradientTransform="matrix(1.0338 0 0 -1.0338 -2.826 1601.75)" gradientUnits="userSpaceOnUse"><stop offset="0" style="stop-color:#ff8000"/><stop offset=".341" style="stop-color:#ffc768"/><stop offset=".712" style="stop-color:#ffc768"/><stop offset="1" style="stop-color:#ff8400"/></linearGradient><path d="M85.6 795.1c2.3-.8 8.9-2.8 16.7-.1 5.4 1.9 8.4 6.6 10.8 8.4 5.5 4.3 15.5-.5 17.4-.4.7 0-13.5-12.8-24.3-13.5-14.5-.8-23.6 6.7-20.6 5.6" style="fill-rule:evenodd;clip-rule:evenodd;fill:url(#h)"/><linearGradient id="i" x1="116.233" x2="149.193" y1="831.166" y2="835.113" gradientTransform="matrix(1.0338 0 0 -1.0338 -2.826 1601.75)" gradientUnits="userSpaceOnUse"><stop offset="0" style="stop-color:#ff8000"/><stop offset=".5" style="stop-color:#fff4e1"/><stop offset=".75" style="stop-color:#fff4e1"/><stop offset="1" style="stop-color:#ff8400"/></linearGradient><path d="M120.9 731.4c-.1 4.4-1.5 14.8-5.9 22-2 3.3 7.6-4.3 8.6-10.8.6-3.7-2.6-14.7-2.7-11.2" style="fill-rule:evenodd;clip-rule:evenodd;fill:url(#i)"/><linearGradient id="j" x1="111.708" x2="72.093" y1="799.859" y2="852.301" gradientTransform="matrix(1.0338 0 0 -1.0338 -2.826 1601.75)" gradientUnits="userSpaceOnUse"><stop offset="0" style="stop-color:#ff8000"/><stop offset=".341" style="stop-color:#ffc768"/><stop offset=".712" style="stop-color:#ffc768"/><stop offset="1" style="stop-color:#ff8400"/></linearGradient><path d="M106.5 779.1c4.8-2.5 9.2-5.7 12-11.7.5-1-2.3 0-4.4-3s-1.6-6-3.4-5.8c-5.6.8-13.1 6.1-13.1 6.1s.4 5.8 2 8.2c3 4.8 6.9 6.2 6.9 6.2" style="fill-rule:evenodd;clip-rule:evenodd;fill:url(#j)"/><linearGradient id="k" x1="127.703" x2="119.682" y1="767.099" y2="778.547" gradientTransform="matrix(4.2071 0 0 -4.2071 -412.012 3999.064)" gradientUnits="userSpaceOnUse"><stop offset="0" style="stop-color:#fff"/><stop offset="1" style="stop-color:#fff;stop-opacity:0"/></linearGradient><path d="M114 763.8c1.4 5.1 9.3 4.2 7.7-5.8-.8 1.1-2.6 6.8-7.7 5.8" style="opacity:.5522;fill-rule:evenodd;clip-rule:evenodd;fill:url(#k)"/><linearGradient id="l" x1="117.521" x2="144.584" y1="767.293" y2="775.845" gradientTransform="matrix(4.2071 0 0 -4.2071 -412.012 3999.064)" gradientUnits="userSpaceOnUse"><stop offset="0" style="stop-color:#fff"/><stop offset="1" style="stop-color:#fff;stop-opacity:0"/></linearGradient><path d="M105.8 778.7c-2.7-1.8-4.9-4.1-6.4-6.4s-2.1-14.5.4-17.5c1.4-3.3 6.2-6.5 11.5-7.9-10.2 11.8-6.9 29.6 2.1 27.9.4-.2-6.7 3.9-7.6 3.9" style="fill-rule:evenodd;clip-rule:evenodd;fill:url(#l)"/><linearGradient id="m" x1="117.525" x2="103.851" y1="755.118" y2="764.785" gradientTransform="matrix(4.2071 0 0 -4.2071 -412.012 3999.064)" gradientUnits="userSpaceOnUse"><stop offset="0" style="stop-color:#fff"/><stop offset="1" style="stop-color:#fff;stop-opacity:0"/></linearGradient><path d="M70.3 810.3c2 1.5 10.5 8.1 12.4 7-4.3 10.8-15.8 1.7-12.4-7" style="fill-rule:evenodd;clip-rule:evenodd;fill:url(#m)"/><path d="M105.6 750.2c-2.1 1.2-4.5 2.5-5 3.7-1.6 3.5-2.3 9.7-1.8 9.3 4.9-3.5 10.5-4.4 12.6-6.3 6.1-5.5 8.5-16.9 7.2-15.2-4.1 5.5-10.9 7.3-13 8.5m-32 76.5s-5.8-4-5.7-5.3c.9-10.6-1-11.3-2-11.1-1.1.1-7.1 3.9-8.3 14.6-.8 7.7 2.2 19.8 2.7 20.5 2.5-6.5 1.6-11.7 13.3-18.7m63.1-47.1c-.3-8-5.1-13.5-8.4-12.2-1.4.5-2.3 4.3-1.8 6.6.4 2 3.4 9.9 3.6 10.6.5 1.6 3.9 11.3 3.3 15.9-.5 4.1-12.3 5.5-12.3 5.5s-.2 3.3-.6 5.6c-.5 2.8-1.5 4.9-1.5 4.9s2.6 2.4 2.7 2.4c0 0 16.1-8.7 15-39.3m-12.4 24.7c.8-.2 5.7-1.5 5.5-1.7-1.8-1.2-3.9-2.7-7.4-5.4-19.3-15-36.8-2.4-36.5-2.5 3.2-1.1 6.6-1.7 11.3-1.4 3.8.3 9.7 2.2 14.9 8.4 2 2.4 4.2 3.9 12.2 2.6m-8.6-32.6c.6-.5 2.6-4.3 2.2-4.4-5.1-1.2-5.6-3.5-6.1-6-.5-2.3-.4-2.6-1.4-2.3-7.8 2.6-10 4-11.2 5-1.9 1.6-.6 5.7.2 7.4 1 2.3 4.8 6.5 6.5 6.9 2.7.5 8.7-4.7 9.8-6.6m5.7-14.1c-.4-1.7-1.8-4-2.2-4-.3 0-4 2.8-4.9 3.8-2.1 2.2-1.1 6.2 1.3 7.6 4 2.4 7-2.8 5.8-7.4m-3-6.6c1.7-1.7 4.1-4.6 4.7-9 .2-1.7.4-3.2-.7-6.6-.2-.8-1-3-1-2.7-.6 5.8-1.4 12.3-5.2 19.2-1.2 2.2-.5 1.8 2.2-.9m-40.9 34.8c-2.1 8.7 3.4 20.2 7.9 20.8 4.3.6 16.7-3.1 23.2-4.9 1.7-.5 2.6-.2-1.1-3.4-5.9-4-10.7-4.5-15.4-4-5.2.6-9.2 2.1-8.8 1.8 2.4-2 6.7-5.6 14.9-7.2 3.6-.7 9.1-.8 15.8 1.8 8.3 3.2 12.6 8 16.1 9.7 1.2.6 1.7.3 2.2-1.1.8-2.4-4.2-17.6-6-22-2.8-6.7.5-10-.2-9.8-3.4.8-6.5 3-9 5.2-6.2 5.6-10 6.7-10.6 6.7-1.8-.2-5.1-3.3-6.3-4.9-.8-1-14.5 1.6-18.6 5.2-.2.1-3.3 2.1-4.1 6.1m-4.4 38c4.5-1.9 9-6 8.6-6-2.4-.4-11.1-6.4-11.1-6.3.3 3.1-.4 5.8-.7 8.9-.1 1.2 1.6 3.2 3.2 3.4m14.6-13.4c-.9 1.9-1.8 9.6-14.3 14.4-.4.1 10.5 7.6 11.1 7.6 36 1.6 35.7-25.8 35.2-26.5-.1-.1-3.1 0-5.5-1.1-.2-.1-1.8-.9-2.8-2.2-.3-.4-.4-.7-1.6-.3-5.6 1.7-22.3 7.7-22.1 8.1m-11.2-13.3c-6.4-22.4 16.1-23.5 19.7-24.3 2.8-.7 2.2-.9 1.6-3.5-.8-3.7-.6-6.9.1-10.3.7-3.2 1-4.9 2.4-6.5 1.1-1.3 7.5-4.3 9.1-5.1 6.7-3.2 9.3-6.8 10-9.6.5-2 1.3-6.8 1-10.3-.1-.9.5.5 3.2 9 1.4 4.3.7 9.6-3.7 14.3-.6.6-.3.8.5 2.1 1.7 2.8 2.6 6.2 2.3 8.7-.2 2.1-1.1 4 .2 3.9.2 0 5.7-.9 9.5 1.6 2.6 1.6 6.3 4.8 5.3 17.9-2.1 28.7-16.1 35-16.2 35-.2 0-2.9-2.7-3-2.4-8 16.6-24.7 16-33.9 16.2-1.9 0-9.6-6.4-10.2-6-8.2 5.6-10.5 7-13.6 21.3-.1-.2-4.4-7.8-4.2-23 .1-12.5 7-18.3 10-18 3.7.4 5.5 2.3 10.7 5.7.9.6 4.2 2.6 4.9 2.6 1.8 0 3.1-3.4 3.4-5.6s.6-1.7-1.1-2.3c-2.3-.9-6-5-8-11.4" style="fill:#2c3b54"/><linearGradient id="n" x1="96.12" x2="103.099" y1="770.817" y2="746.497" gradientTransform="matrix(1.0338 0 0 -1.0338 -2.826 1601.75)" gradientUnits="userSpaceOnUse"><stop offset="0" style="stop-color:#212a3a"/><stop offset="1" style="stop-color:#404e67;stop-opacity:0"/></linearGradient><path d="M87.9 810.2c3.4-1.8 22.5-7.8 22.7-8.2.1-.3-22.5 9-27.6 5.6-.3-.2 1.2.9 2.6 1.2.1 0 .1 3.6-1.2 5.6-.4.5 2.8-3.8 3.5-4.2" style="fill-rule:evenodd;clip-rule:evenodd;fill:url(#n)"/><linearGradient id="o" x1="6.639" x2="69.425" y1="722.17" y2="752.303" gradientTransform="matrix(.3916 0 0 -.7827 110.47 1323.094)" gradientUnits="userSpaceOnUse"><stop offset="0" style="stop-color:#212a3a"/><stop offset="1" style="stop-color:#404e67;stop-opacity:0"/></linearGradient><path d="M119.1 753.6c-2.1 1.5-5 3.5-5.6 5.1-.3.9-.6-2.6 1.8-4.7 1.4-1.2 4.3-.7 3.8-.4" style="fill-rule:evenodd;clip-rule:evenodd;fill:url(#o)"/><linearGradient id="p" x1="188.047" x2="222.88" y1="718.691" y2="714.097" gradientTransform="matrix(-.3905 -.02961 -.0592 .7805 236.075 208.548)" gradientUnits="userSpaceOnUse"><stop offset="0" style="stop-color:#212a3a"/><stop offset="1" style="stop-color:#404e67;stop-opacity:0"/></linearGradient><path d="M116.3 765.4c2.4.7 4.2-.7 5.2-3.9.1-.4-.3 2.7-1.8 3.9-1.4 1.2-3.9-.1-3.4 0" style="fill-rule:evenodd;clip-rule:evenodd;fill:url(#p)"/><linearGradient id="q" x1="56.817" x2="112.519" y1="727.742" y2="738.515" gradientTransform="matrix(1.0338 0 0 -1.0338 61.133 1521.346)" gradientUnits="userSpaceOnUse"><stop offset="0" style="stop-color:#212a3a"/><stop offset="1" style="stop-color:#404e67;stop-opacity:0"/></linearGradient><path d="M122.3 768.7c3.4-1.8 6.8-1.6 9.8-1.4 2 .1-3.7-2.2-10.1-1.8-.7.6-2.7 4-5.6 7.4-.4.4 5.2-3.8 5.9-4.2" style="fill-rule:evenodd;clip-rule:evenodd;fill:url(#q)"/><linearGradient id="r" x1="98.45" x2="60.994" y1="737.79" y2="719.778" gradientTransform="matrix(1.0338 0 0 -1.0338 -11.627 1539.48)" gradientUnits="userSpaceOnUse"><stop offset="0" style="stop-color:#212a3a"/><stop offset="1" style="stop-color:#404e67;stop-opacity:0"/></linearGradient><path d="M90.3 775.9c2-.4 4.5-1.1 6.1-1.2 1.4-.1 3.1-.9 4.4.5-.7-1-2.1-3-2.6-4.4.4 1.6-1.4 1.8-1.8 1.9-10 1.6-15.9 4.3-19 9.2 5.7-4.4 12.5-5.9 12.9-6" style="fill-rule:evenodd;clip-rule:evenodd;fill:url(#r)"/></g></svg>