<?xml version="1.0" encoding="UTF-8" standalone="no"?>
<!-- Created with Inkscape (http://www.inkscape.org/) -->

<svg
   width="220"
   height="248.48834"
   viewBox="0 0 58.208333 65.745874"
   version="1.1"
   id="svg1"
   sodipodi:docname="jumpserver.svg"
   inkscape:version="1.4.3 (0d15f75042, 2025-12-25)"
   xmlns:inkscape="http://www.inkscape.org/namespaces/inkscape"
   xmlns:sodipodi="http://sodipodi.sourceforge.net/DTD/sodipodi-0.dtd"
   xmlns="http://www.w3.org/2000/svg"
   xmlns:svg="http://www.w3.org/2000/svg">
  <sodipodi:namedview
     id="namedview1"
     pagecolor="#ffffff"
     bordercolor="#000000"
     borderopacity="0.25"
     inkscape:showpageshadow="2"
     inkscape:pageopacity="0.0"
     inkscape:pagecheckerboard="0"
     inkscape:deskcolor="#d1d1d1"
     inkscape:document-units="mm"
     inkscape:zoom="0.89085297"
     inkscape:cx="100.46551"
     inkscape:cy="113.93575"
     inkscape:window-width="2379"
     inkscape:window-height="1367"
     inkscape:window-x="0"
     inkscape:window-y="0"
     inkscape:window-maximized="0"
     inkscape:current-layer="layer1" />
  <defs
     id="defs1" />
  <g
     inkscape:label="Layer 1"
     inkscape:groupmode="layer"
     id="layer1"
     transform="translate(-78.316667,-118.26873)">
    <g
       id="g1"
       transform="translate(2.4386502,2.7544269)">
      <path
         class="cls-1"
         d="m 103.0582,123.49367 c -1.97115,1.14318 -4.002989,2.18048 -5.996307,3.28578 -2.272268,1.26034 -4.530143,2.5486 -7.066253,3.97764 5.374058,3.44392 10.54074,6.75391 16.00086,10.25231 -1.04598,0.6205 -1.90235,1.06153 -2.68428,1.60867 -0.79684,0.55827 -1.46362,0.54289 -2.30814,0.0296 -4.363536,-2.64983 -8.82367,-5.14662 -13.120291,-7.899 -1.812396,-1.1612 -3.245036,-1.39435 -5.076005,-0.11705 -1.776598,1.2392 -1.91344,2.69856 -0.06879,3.85601 0.892942,0.56023 1.788848,1.11456 2.681261,1.676 4.751388,2.99173 9.595062,5.84886 14.21937,9.02642 2.883215,1.98141 5.516565,1.89971 8.337865,0.20876 q 3.913,-2.34397 7.8186,-4.70186 c 0.95919,-0.58179 1.89539,-1.20147 3.03556,-1.92646 -5.11704,-3.27779 -10.03191,-6.42614 -15.10506,-9.67504 0.87688,-0.62021 1.59319,-1.05648 2.22581,-1.59232 0.84949,-0.71879 1.58308,-0.75483 2.59008,-0.16806 4.26374,2.48531 8.57457,4.89146 12.88786,7.29147 2.89919,1.61295 2.91348,1.58686 5.15897,-0.84773 a 1.8155444,1.8155444 0 0 0 -0.48074,-2.91476 c -6.87168,-3.7965 -13.75146,-7.57943 -20.60597,-11.40833 -0.88921,-0.49625 -1.58485,-0.46095 -2.4444,0.0379 z"
         id="path1"
         style="fill:#1ab394;fill-opacity:1;stroke-width:0.264583" />
      <path
         class="cls-1"
         d="m 107.71595,153.95681 c -2.38683,1.24883 -4.89395,1.34655 -7.31859,-0.11401 q -8.475501,-5.10542 -16.964445,-10.18812 c -0.548349,-0.32965 -1.105429,-0.64508 -1.898491,-1.10596 0,2.18239 0.0843,4.08088 -0.03106,5.96783 -0.06998,1.14057 0.347662,1.77144 1.289605,2.31246 6.087269,3.49277 12.140406,7.04522 18.234741,10.52629 a 6.4985899,6.4985899 0 0 0 6.31031,0.21873 c 3.91739,-2.01128 15.26238,-9.02255 19.0749,-11.23391 0.36377,-0.21138 0.82724,-0.65506 0.83907,-1.00542 0.0762,-2.22935 0.039,-4.46252 0.039,-6.84422 -0.6196,0.35171 -1.15744,0.65789 -1.69598,0.96216 -3.43035,1.93964 -14.38926,8.67934 -17.87903,10.50417 z"
         id="path2"
         style="fill:#1ab394;fill-opacity:1;stroke-width:0.264583" />
      <path
         class="cls-1"
         d="m 111.79688,161.82504 c -1.68108,0.93374 -3.37574,1.86016 -5.13249,2.63459 -1.94008,0.85511 -3.91549,0.8577 -5.81456,-0.2668 -1.590678,-0.94192 -3.220935,-1.81817 -4.804122,-2.77183 -2.846573,-1.71577 -5.664729,-3.48112 -8.508788,-5.20073 -1.917303,-1.15933 -3.859768,-2.27695 -5.982706,-3.52613 0,2.4189 -0.02783,4.56983 0.02855,6.71859 a 1.4068689,1.4068689 0 0 0 0.620765,0.97663 c 6.247289,3.74012 12.480767,7.50567 18.795571,11.13041 a 6.4966055,6.4966055 0 0 0 6.63128,0.069 c 3.77312,-2.10182 15.52636,-9.09751 19.26524,-11.25955 0.32967,-0.19074 0.75721,-0.58489 0.76642,-0.89604 0.067,-2.20398 0.0353,-4.4106 0.0353,-6.73894 a 2.9894477,2.9894477 0 0 0 -0.77203,0.21186 c -2.3776,1.35125 -12.73799,7.59171 -15.12848,8.91899 z"
         id="path3"
         style="fill:#1ab394;fill-opacity:1;stroke-width:0.264583" />
      <path
         class="cls-1"
         d="m 105.14629,118.36853 -0.16404,-0.0998 -26.512548,15.37645 -0.153035,0.0923 v 28.4521 l 26.665533,16.31617 26.51733,-16.22357 0.14817,-0.0926 v -28.4521 z m 25.86678,43.4703 -26.03093,15.91704 -26.031002,-15.91704 v -27.74328 l 26.031002,-15.08432 26.03093,15.08432 z"
         id="path4"
         style="fill:#1ab394;fill-opacity:1;stroke-width:0.264583" />
    </g>
  </g>
</svg>
