<svg xmlns="http://www.w3.org/2000/svg" xml:space="preserve" id="svg5800" x="0" y="0" version="1.1" viewBox="4.64 97.38 502.67 317.16"><style>.st0{fill:#803300;stroke-linejoin:round}.st0,.st1,.st2{stroke:#000;stroke-width:2.8346;stroke-miterlimit:11.3386}.st1{fill:#f60;stroke-linejoin:round}.st2{fill:#d45500}.st3{stroke-width:.75}.st3,.st4,.st6,.st7{stroke:#000;stroke-miterlimit:11.3386}.st4{fill:#fff;stroke-width:.75}.st6{stroke-linejoin:round;fill:none}.st6,.st7{stroke-width:2.8346}.st7,.st8{stroke-linejoin:round}.st7,.st8{fill:#2a3455}.st8{stroke:#ccc;stroke-width:.5225;stroke-miterlimit:9.8224}.st10{fill:#b1b3b8;stroke:#b1b3b8}.st10,.st11,.st9{stroke-miterlimit:11.3386}.st9{fill:#b1b3b8;stroke:#b1b3b8;stroke-width:.4693}.st10,.st11{stroke-width:.1242}.st11{fill:#fff;stroke:#fff}.st12{fill:#ccc}.st13{font-family:&quot;HelveticaInseratLTStd-Roman&quot;}.st15{font-family:&quot;ArialMT&quot;}</style><g id="layer2_00000005245049539692487670000001957043081216740540_" transform="translate(-40.229 -7.439)"><path id="path5404_00000031896480603064281220000015497729509154348731_" d="M166.1 337.2c-9.5 23 16.4 44.3 16.5 44.6-4.7-13.9-9.7-25.1-.5-34.8" class="st0"/><path id="path5408_00000093142638045652416300000014655809286439711150_" d="M381.3 335.7c9.5 23-16.4 44.3-16.5 44.6 4.7-13.9 9.7-25.1.5-34.8" class="st0"/><path id="path4529_00000120532768962363178160000010992441212950034850_" d="M273 215.2c-3.7 0-7.3 6.7-13.9 19.8-20-22-21-22.3-27.9 7.5-.3.1-.6.3-1 .4-25.2-15.1-26.5-15.2-24.6 14.3-.6.5-1.2.9-1.8 1.4-25.8-10.2-26.9-9.6-20.4 18.7-.3.3-.6.7-.9 1-26.3-7.1-27-6-17.2 21.7-.4.6-.8 1.2-1.3 1.8-29.6-3.2-30.2-2.6-15.2 25-.1.1-.1.3-.2.4-12.1 5.8-16.2 12.9-21.9 22.4-.4 18.8 19.7 35.1 48.7 53.5-10-18.5-25.5-27.8-28.5-50.7 4.4-8.2 11.8-11.1 18.2-14.8 69.8 40.7 143.5 41.2 217-1.6 6.4 3.7 13.9 6.6 18.3 14.8-3 22.9-18.6 32.2-28.5 50.7 29-18.4 49.1-34.7 48.7-53.5-5.6-9.2-9.6-16.2-20.9-21.9 14.2-26.1 12.9-26.4-17-23.2-.3-.3-.5-.7-.8-1 10.3-29.1 9.7-29.8-18.1-22.3 7-30.3 6.1-30.5-22.1-19.3 2.1-32 1.4-31.9-25.2-16-7.1-30.7-7.9-30.6-28.2-8.3-7.5-13.7-11.5-20.7-15.3-20.8z" class="st1"/><g id="g5758_00000020383907541492792060000001452218968614409378_" transform="translate(4.476 -9.332)"><path id="path5399_00000170269557399286843940000000190815826102310574_" d="M257.9 357.2c-1.9-.2 12.7 28.8 22.8.5.7-1.9-10.4 8.2-22.8-.5z" class="st2"/><g id="g351_00000066479026872060441220000017350167962439270291_"><path id="path5415_00000094612249113806557210000005378351658019706016_" d="M242 328.9c-14.5 31.2 15.9 41.8 12.5 11.7-.9-9.4-6.6-20.4-12.5-11.7z" class="st3"/><path id="path5417_00000183244397759925963940000002398007508375005627_" d="M248.2 331.3c-3.4 4.3-.2 10.9-.3 11.3 4.8 4.6 4.6-13.5.3-11.3z" class="st4"/></g><g id="g355_00000023255626807412079490000004984628089087331208_"><path id="path5433_00000050661445474021831270000007508282518558448560_" d="M288.5 328.9c-14.5 31.1 16 41.7 12.5 11.7-.9-9.4-6.6-20.4-12.5-11.7z" class="st3"/><path id="path5435_00000129911390606988928870000008145149001447177636_" d="M294.7 331.3c-3.4 4.3-.2 10.9-.3 11.3 4.8 4.6 4.6-13.5.3-11.3z" class="st4"/></g></g><path id="path5389_00000155859915342425851420000014207861369340222375_" d="M202.4 327.5c-1.4 0-2.4.2-2.3.3 0 0-25.9 33.8.9 52.9-4 8.1-2.5 18.5 4.1 26.7 7.4 9.3 19.5 13.8 29.9 11.2l-10.1-24.4 26.1 2.1c-.8-10.9-8.9-21.1-19.9-25.3-6.8-2.6-13.9-2.6-19.9 0-5.3-3.9-13.1-14-.1-35.4 4.3-7-4.4-8.1-8.7-8.1z" class="st1"/></g><path id="path5730_00000005233886469895162280000014796422535771086742_" d="m318.5 222.4 77.6-43.3 60.7 108.7-77.6 43.2z" class="st6"/><path id="path5734_00000126285873700645297410000017359828722858593945_" d="m318.5 222.4 77.6-43.3 60.7 108.7-77.6 43.2-17.8-31.8c9.9-8.8 11.9-19.9 9-32.3l-21 10.9z" class="st7"/><g id="g1027_00000096051763114517625820000018218708722150005936_" transform="rotate(-6.764 623.678 -218.679)scale(.86628)"><path id="path4529-1_00000124160081686066970120000016202602054160924329_" d="M374.4 234.7c-.7.3-.9 1.9-1.1 5-5.7-2.7-6-2.6-4.9 3.8l-.2.2c-6.2-.9-6.4-.8-3.6 4.8-.1.1-.2.3-.2.4-5.9.1-6.1.3-2.5 5.4 0 .1-.1.2-.1.3-5.7.8-5.8 1-1.6 5.7 0 .2-.1.3-.1.5-6.1 1.8-6.1 2-.9 6.2v.1c-1.9 2.1-2.1 3.9-2.5 6.2 1.5 3.7 6.8 5.3 14 6.5-3.5-2.8-7.3-3.4-9.8-7.6.2-2 1.4-3.1 2.4-4.4 17 2.2 31.5-3.7 42.4-18.2 1.6.2 3.3.1 4.8 1.4 1.3 4.7-1 7.9-1.4 12.3 4.2-6 6.8-10.9 5.1-14.5-1.9-1.4-3.2-2.4-5.9-2.6.6-6.3.3-6.2-5.2-3.1-.1 0-.2-.1-.2-.1-.4-6.6-.6-6.7-5.4-2.9-1.1-6.5-1.3-6.5-5.9-2-2.2-6.5-2.4-6.4-6.3-1.1-3.9-5.4-4.1-5.3-6.2.7-2.6-2.2-3.9-3.3-4.7-3z" class="st8"/><path id="path5389-8_00000176005177729028144810000010374352417527493811_" d="M369.8 262.6c-.3.1-.5.2-.4.2 0 0-2.3 8.8 4.5 10.3-.1 1.9 1 3.8 3 4.9 2.2 1.2 5 1.1 6.8-.3l-4-4 5.3-1.7c-1.1-2.1-3.5-3.4-6-3.3-1.5.1-2.9.6-3.9 1.6-1.4-.3-3.7-1.7-2.9-6.9.3-1.7-1.5-1.2-2.4-.8z" class="st8"/><path id="path5732-7_00000086665835081275413660000018204138170252339115_" d="M398.7 235.5c-.9 1.3-1.3 2.9-1.1 4.5.2 2.1 1.4 3.8 3.1 4.5.3 6.3-4.1 6-4.2 6-.8-.2-2 3.2 1.5 2.8 5.5-.7 5.8-6 5.6-8.7 1.4-.5 2.6-1.6 3.3-3.1 1-2.3.7-5-.8-6.8l-3.6 4.3-.3-.7z" class="st8"/><path id="path5399-5_00000046299321413429004000000008861543907368690081_" d="M385.8 260.7c-.4.1 4.5 4 4-1.7 0-.4-1.2 2.3-4 1.7z" class="st9"/><g id="g364_00000058578859718725529430000011682469140906017726_" transform="rotate(6.764 9.328 -194.147)scale(1.15437)"><path id="path5415-5_00000168808080964775217400000003019901502443206790_" d="M373.7 182c.6 5.7 5.8 4.6 2.8.6-1-1.2-2.7-2.3-2.8-.6z" class="st10"/><path id="path5417-5_00000026148190389463454660000009772149673300692659_" d="M374.8 181.8c-.1.9.9 1.6.9 1.6 1.1.3-.5-2.2-.9-1.6z" class="st11"/></g><g id="g374_00000029731875244232630880000017277589500829692344_" transform="rotate(6.764 9.328 -194.147)scale(1.15437)"><path id="path5433-8_00000162320023953258408580000012175362139674259644_" d="M380.3 178.1c.6 5.7 5.8 4.6 2.8.6-.9-1.3-2.7-2.4-2.8-.6z" class="st10"/><path id="path5435-2_00000151541090203852574460000008064469412041924282_" d="M381.4 177.9c-.1.9.9 1.6.9 1.6 1.1.3-.5-2.3-.9-1.6z" class="st11"/></g></g><text class="st12 st13" style="font-size:4.8638px" transform="rotate(-28.987 768.146 -614.151)">PASSPORT</text><text class="st12 st15" style="font-size:5.769px" transform="rotate(-29.038 756.405 -595.719)">AUTHSTRALIA</text><text class="st12 st13" style="font-size:7.6669px" transform="rotate(-29.179 609.174 -562.984)">KANIDM</text><g id="layer3_00000067943026255706653680000002018075953615265961_" transform="translate(-40.229 -7.439)"><path id="path523_00000114051638936754849780000008025122720076382594_" d="M401.6 304.6c9.9-8.8 11.9-19.9 9-32.3l-21 10.9z" class="st7"/><path id="path5732-74_00000007421331481506422970000002137410864790668219_" d="M376.8 262.8c-6.2 4-10.9 10.4-13 17.6-2.8 9.5-.7 19.1 5.4 25.1-10.1 27.7-28.5 18.6-28.9 18.2-3.1-2.4-14.7 10.3 1.5 14.8 25.3 7.1 36.2-15.5 40.1-27.4 6.9.5 14.2-2.2 20-7.5 8.7-8.1 12.3-20.5 9-30.7l-23.6 11.9v-3.7z" class="st1"/><path id="path5728_00000127759934399549882340000004660757817960038300_" d="M376.8 262.8c-6.2 4-10.9 10.4-13 17.6-2.8 9.5-.7 19.1 5.4 25.1-10.1 27.7-28.5 18.6-28.9 18.2-3.1-2.4-14.7 10.3 1.5 14.8 25.3 7.1 36.2-15.5 40.1-27.4 6.9.5 14.2-2.2 20-7.5 8.7-8.1 12.3-20.5 9-30.7l-23.6 11.9v-3.7z" class="st1"/><path id="path5732_00000031171488295692914670000018215156570706447793_" d="M376.8 262.8c-6.2 4-10.9 10.4-13 17.6-2.8 9.5-.7 19.1 5.4 25.1-10.1 27.7-28.5 18.6-28.9 18.2-3.1-2.4-14.7 10.3 1.5 14.8 25.3 7.1 36.2-15.5 40.1-27.4 6.9.5 14.2-2.2 20-7.5 8.7-8.1 12.3-20.5 9-30.7l-23.6 11.9v-3.7z" class="st1"/></g><g id="layer2_00000039114377799653437570000016843504497973184155_" transform="translate(-40.229 -7.439)"><path id="path5404_00000038383697559713409410000006023340062100548024_" d="M99.5 309.7c-12.9 31.1 22.1 59.8 22.3 60.2-6.4-18.8-13.2-33.9-.7-47" class="st0"/><path id="path5408_00000037658101033124498450000004334041934401099939_" d="M389.9 307.6c12.9 31.1-22.1 59.8-22.3 60.2 6.4-18.8 13.2-33.9.7-47" class="st0"/><path id="path4529_00000005254275771498134740000016741302405669510565_" d="M243.8 145c-5-.1-9.8 9-18.7 26.7-27-29.7-28.4-30-37.7 10.1-.4.2-.9.4-1.3.6-34-20.4-35.7-20.5-33.2 19.3-.8.6-1.7 1.2-2.5 1.9-34.8-13.8-36.3-12.9-27.5 25.3-.4.4-.8.9-1.2 1.3-35.5-9.6-36.5-8.2-23.3 29.3-.6.8-1.1 1.6-1.7 2.5-40-4.3-40.8-3.5-20.5 33.8-.1.2-.2.4-.3.5-16.4 7.8-21.8 17.4-29.6 30.2-.6 25.4 26.6 47.3 65.7 72.2-13.4-24.9-34.5-37.5-38.5-68.5 5.9-11.1 16-15 24.6-20 94.2 55 193.7 55.6 292.9-2.1 8.6 5 18.8 8.9 24.7 20-4 30.9-25.1 43.5-38.5 68.5 39.1-24.9 66.4-46.8 65.7-72.2-7.6-12.5-12.9-21.8-28.3-29.5 19.2-35.3 17.4-35.6-22.9-31.3-.3-.4-.7-.9-1-1.3 13.9-39.3 13-40.3-24.5-30.1 9.5-41 8.2-41.1-29.8-26 2.9-43.2 1.8-43.1-34-21.6-9.6-41.4-10.7-41.3-38-11.2-10.1-18.8-15.5-28.3-20.6-28.4z" class="st1"/><g id="g5758_00000075881377246312608210000005686968438114941113_" transform="translate(4.476 -9.332)"><path id="path5399_00000057142225415554890170000016245894710749846679_" d="M224.9 333.4c-2.6-.2 17.1 38.9 30.8.7 1-2.6-14.1 11.1-30.8-.7z" class="st2"/><g id="g351_00000109025841848815774540000004106843963830473637_"><path id="path5415_00000021098392677366968280000009519117631310055612_" d="M203.5 295.2c-19.6 42.1 21.5 56.4 16.9 15.8-1.2-12.6-8.9-27.5-16.9-15.8z" class="st3"/><path id="path5417_00000090996054679906658560000009516307108634426801_" d="M211.9 298.5c-4.5 5.8-.3 14.7-.4 15.3 6.4 6.2 6.2-18.3.4-15.3z" class="st4"/></g><g id="g355_00000133527387859803411080000017532847255847078837_"><path id="path5433_00000147213261175443752920000012635465141377914517_" d="M266.3 295.2c-19.6 42.1 21.5 56.4 16.9 15.8-1.2-12.6-8.9-27.5-16.9-15.8z" class="st3"/><path id="path5435_00000003065854202194064270000002039843670620702632_" d="M274.6 298.5c-4.5 5.8-.3 14.7-.4 15.3 6.5 6.2 6.2-18.3.4-15.3z" class="st4"/></g></g><path id="path5389_00000155859040191797822090000001004653412869214635_" d="M148.4 296.6c-2 0-3.3.2-3 .3 0 0-35 45.7 1.2 71.4-5.5 10.9-3.3 25 5.5 36.1 10 12.5 26.3 18.7 40.4 15.2l-13.6-32.9 35.2 2.8c-1.1-14.7-12-28.4-26.9-34.1-9.2-3.5-18.8-3.5-26.8 0-7.1-5.2-17.7-18.9-.2-47.7 5.8-9.6-5.9-11.1-11.8-11.1z" class="st1"/></g><path id="path5730_00000132046338004728597740000009446565685260907411_" d="M319.3 157.3 424 98.8l81.9 146.7L401.2 304z" class="st6"/><path id="path5734_00000058558273283187002090000012686927988967501759_" d="M319.3 157.3 424 98.8l81.9 146.7L401.2 304l-24-43c13.4-11.9 16.1-26.8 12.2-43.6L361 232.1z" class="st7"/><g id="g1027_00000007412438524403426530000012169582084105483690_" transform="rotate(-6.764 623.678 -218.679)scale(.86628)"><path id="path4529-1_00000129197175093131374150000002689461387661786537_" d="M406.6 168.3c-1 .4-1.2 2.6-1.5 6.8-7.7-3.6-8-3.6-6.6 5.1l-.2.2c-8.3-1.2-8.7-1.1-4.9 6.5l-.3.6c-8 .2-8.2.5-3.3 7.2 0 .1-.1.2-.1.4-7.8 1-7.8 1.4-2.1 7.7 0 .2-.1.4-.1.6-8.2 2.5-8.3 2.7-1.2 8.3v.1c-2.6 2.9-2.8 5.2-3.3 8.4 2 5 9.1 7.1 18.8 8.8-4.7-3.8-9.9-4.5-13.2-10.3.2-2.7 1.9-4.2 3.2-5.9 23 3 42.6-5 57.3-24.5 2.1.3 4.4.2 6.5 1.9 1.8 6.4-1.3 10.6-1.9 16.6 5.6-8.1 9.2-14.6 6.9-19.6-2.5-1.8-4.3-3.2-8-3.5.9-8.5.5-8.4-7.1-4.3-.1-.1-.2-.1-.3-.2-.5-8.8-.8-9-7.3-3.9-1.5-8.8-1.8-8.7-8-2.7-3-8.7-3.2-8.6-8.5-1.4-5.3-7.3-5.5-7.2-8.4.9-3.5-2.8-5.4-4.2-6.4-3.8z" class="st8"/><path id="path5389-8_00000031890035635822709060000004085331308449518511_" d="m400.4 205.9-.6.3s-3.1 11.8 6.1 13.9c-.2 2.6 1.4 5.2 4 6.6 3 1.6 6.7 1.5 9.2-.4l-5.4-5.3 7.1-2.3c-1.4-2.8-4.7-4.6-8.1-4.5-2.1.1-4 .9-5.3 2.2-1.8-.4-5-2.2-4-9.4.6-2.3-1.8-1.6-3-1.1z" class="st8"/><path id="path5732-7_00000143604068002957641420000002633543293410764956_" d="M439.4 169.4c-1.2 1.8-1.7 4-1.5 6.1.3 2.8 1.9 5.1 4.2 6 .4 8.5-5.5 8.1-5.6 8-1.1-.3-2.7 4.4 2 3.8 7.5-.9 7.9-8.1 7.6-11.7 1.9-.6 3.5-2.2 4.5-4.2 1.4-3.1 1-6.8-1-9.1l-4.9 5.8-.4-1z" class="st8"/><path id="path5399-5_00000146492397288042737920000013107733019200700308_" d="M422 203.4c-.5.2 6 5.5 5.4-2.3 0-.5-1.6 3.1-5.4 2.3z" class="st9"/><g id="g364_00000145766538255888496250000011227311745978912939_" transform="rotate(6.764 9.328 -194.147)scale(1.15437)"><path id="path5415-5_00000047780198180329838800000014928661917190226061_" d="M397.4 128.1c.8 7.6 7.8 6.2 3.7.8-1.3-1.7-3.6-3.2-3.7-.8z" class="st10"/><path id="path5417-5_00000014596387880616888640000010237999383140558214_" d="M398.8 127.8c-.2 1.2 1.2 2.1 1.2 2.2 1.5.4-.6-3.1-1.2-2.2z" class="st11"/></g><g id="g374_00000108309744263560232860000015766503612251343291_" transform="rotate(6.764 9.328 -194.147)scale(1.15437)"><path id="path5433-8_00000166656726676149355540000007933442812205974687_" d="M406.3 122.8c.8 7.6 7.8 6.2 3.7.8-1.2-1.7-3.6-3.2-3.7-.8z" class="st10"/><path id="path5435-2_00000165220053955801521770000015670844109766155180_" d="M407.7 122.5c-.2 1.2 1.2 2.1 1.2 2.2 1.5.4-.6-3.1-1.2-2.2z" class="st11"/></g></g><text class="st12 st13" style="font-size:6.5662px" transform="rotate(-28.987 705.21 -686.397)">PASSPORT</text><text class="st12 st15" style="font-size:7.7882px" transform="rotate(-29.038 689.881 -661.907)">AUTHSTRALIA</text><text class="st12 st13" style="font-size:10.3503px" transform="rotate(-29.179 492.477 -618.792)">KANIDM</text><g id="layer3_00000142157545935058898870000011811017581788736649_" transform="translate(-40.229 -7.439)"><path id="path523_00000052808240024138191650000002175554508582283194_" d="M417.4 265.7c13.4-11.9 16.1-26.8 12.2-43.6l-28.3 14.7z" class="st7"/><path id="path5732-74_00000152228457365083345840000014219999080584643994_" d="M383.8 209.3c-8.3 5.4-14.7 14-17.6 23.7-3.8 12.8-1 25.8 7.3 33.9-13.7 37.4-38.5 25.1-39 24.6-4.2-3.3-19.8 13.9 2 20 34.1 9.6 48.9-21 54.2-37 9.4.7 19.2-3 27-10.2 11.7-10.9 16.6-27.6 12.1-41.5L398 238.9V234z" class="st1"/><path id="path5728_00000124133279986145110450000009528997083905920943_" d="M383.8 209.3c-8.3 5.4-14.7 14-17.6 23.7-3.8 12.8-1 25.8 7.3 33.9-13.7 37.4-38.5 25.1-39 24.6-4.2-3.3-19.8 13.9 2 20 34.1 9.6 48.9-21 54.2-37 9.4.7 19.2-3 27-10.2 11.7-10.9 16.6-27.6 12.1-41.5L398 238.9V234z" class="st1"/><path id="path5732_00000160873633893156642950000000714586411987007910_" d="M383.8 209.3c-8.3 5.4-14.7 14-17.6 23.7-3.8 12.8-1 25.8 7.3 33.9-13.7 37.4-38.5 25.1-39 24.6-4.2-3.3-19.8 13.9 2 20 34.1 9.6 48.9-21 54.2-37 9.4.7 19.2-3 27-10.2 11.7-10.9 16.6-27.6 12.1-41.5L398 238.9V234z" class="st1"/></g></svg>