<svg xmlns="http://www.w3.org/2000/svg" xml:space="preserve" viewBox="0 0 512 512"><g transform="translate(16.503 18.671)scale(.26458)"><circle cx="905.2" cy="897" r="733"/><circle cx="905.2" cy="897" r="822.4" style="fill:none;stroke:#e5e5e5;stroke-width:74.25;stroke-miterlimit:3"/><circle cx="905.2" cy="897" r="482.7" style="fill:#e5e5e5;stroke:#e5e5e5;stroke-width:57;stroke-miterlimit:3"/><circle cx="905.2" cy="897" r="733" style="fill:none;stroke:#ebc700;stroke-width:9;stroke-miterlimit:3"/><circle cx="905.2" cy="897" r="268.2"/><path d="M1302.2 308.8c-.6-.5-46.9 57.2-110.8 116.9-19.2 17.9-118.5 131.9-128.5 131.9-43.9 0-19.7-207.5-28.4-210-.3-.1-.6.1-.9.4-17.9 18.3-76.5 103.8-86.8 126.2-14.1 30.6-50.1 62.8-101.5 53.3-26.9-5-65.6-31.3-79.8-81.9L742.7 377c-9.9 6.6-36.9 111.4-50.2 134.3-14.5 25.1-25.9 68-33.2 68-2.5 0-26.9-21.6-54.4-48-27.4-26.4-60.9-57-74.3-68s-29.5-26.5-35.7-34.4c-5.6-7.2-8.5-10.8-9.6-11.3s-.6 2.2.5 7.6c1.2 6 .8 15.8-1 21.7-2.7 9-.2 16.5 12.8 45.3 59.7 132.5 24.4 46.4 56.5 143.4 5.2 15.6-24.2 30.2-58.6 33.1-33 2.7-66.1-3.7-116.2-22.5-22.3-8.4-54.6-20.5-71.8-26.9s-41.9-15.7-54.8-20.6-24.5-7.9-25.7-6.8c-1.2 1.2-.4 3.3 1.7 4.7 5.9 3.7 61.8 45.7 64 48 1 1.1 24.2 20 51.6 42.1 56.8 45.9 78.6 69.6 90.7 98.6 10.2 24.4 10.4 26.7 2.9 40.8-7.4 14.1-23.7 20.7-59.5 24-39.8 3.7-157.9 2.2-223-3-30-2.4-55.3-3.5-56.2-2.6-3.3 3.2 53.2 24.4 104.1 39.1 72.8 21 187.7 57.4 208.2 66 9.6 4 17.5 8.8 17.5 10.7 0 8.3-20.4 32.3-60.8 71.8l-41.3 38.9c-1 2.6.4 3.8 3.2 2.7 6-2.2 106.6-23.5 111.2-23.5l65.4 37.1c2.9 5.4 2.8 13.4-.5 29.5-2.5 12.2-5 27.9-5.8 34.9-1.9 19.2-27.1 69.8-70.1 140.9-21.2 35.1-41 67.1-43.8 71.1-3.7 5.2-4.1 8.8-1.4 12.7 3.1 4.4 3.6 4.5 2.4.2-1.5-5.6 54.6-60.7 60.2-59.1 1.8.5 2.9-.4 2.4-1.9-1.8-5.5 33.7-37.7 38.5-34.9 2.6 1.5 3.5 1.3 2-.3-3.8-4.1 8.3-16.7 13.4-13.8 2.3 1.3 2.8.9 1.3-.8-2.9-3.1 25.7-34.3 31.5-34.3 1.7 0 0 4.5-3.8 10-8.6 12.3-56.1 96.9-56.1 100 0 1.2-6.5 12.6-14.3 25.3-31.6 50.9-27.3 48.1 62.8-39.4 78.5-76.3 106.6-101.7 123.4-111.5 2.8-1.6 6.6 3.6 10.8 14.7 3.6 9.5 7 17.9 7.6 18.7s10.4-4.9 21.8-12.6c20.2-13.7 20.8-13.9 26-6.9 5.7 7.7 4.9 50.5-2 101.4-15.3 112.7-19.5 157.5-21.3 224.7-1.3 49.9-.8 74.9 1.6 72.5 2-2 16.4-42.8 32.1-90.6 15.6-47.8 36.3-109.8 46-137.7 17.1-49.5 53.1-141.7 95.3-180.1l5.8 8.7c11.8 17.7 24.8 55.3 27.9 80.3 1.7 14.2 6.5 48.6 10.6 76.5s8.5 59.4 9.9 70 3.2 18.5 4.1 17.6 5.8-20.2 10.8-42.8 13.1-57.5 17.9-77.4 9.8-42.8 11.1-50.7c1.3-8 7.9-24 14.6-35.7 12.2-21.1 12.2-21.3 6.2-35.3-3.3-7.8-7.2-14.1-8.7-14.1-5.2-.1-29.4 39.6-38 62.3-6 15.9-8.7 20-8.8 13.4-.5-23-25.4-77.2-44.8-97.1-13.6-14-37.2-25.6-52.2-25.7-13.8-.1-37.9 12.4-45.4 23.6l-6 9-6.4-11.8c-7.2-13.3-23.2-23.8-43.5-28.5-34.3-7.9-97.2 18.7-145.8 61.8-8 7.1-13.8 11.3-12.8 9.3.9-2 5.3-11.1 9.7-20.3 14.2-29.6 20.6-60.5 15.7-76.5-5.7-18.9-22.3-29.2-42.8-26.7l-15 1.9 1.4-18.9c1.9-24.4-9.6-47.3-30.9-61.8-13.3-9.1-19.6-10.7-48.4-12.3l-33.1-1.9 14.3-18.5c16.1-20.9 25.4-44.3 25.4-63.8 0-16.6-15.8-48.3-28-56.2l-9.2-6 11.8-7.9c19.4-13 26.6-25.6 28.3-49.2 2.4-33.1-16.2-69.2-57-110.1-20.1-20.1-20.4-20.7-8.1-15.7 18.8 7.7 72.1 14 95.3 11.2 26.6-3.2 51.6-14 65.4-28.3 11.1-11.4 22.9-39.2 22.9-53.7 0-5.7 1.6-6.9 6.4-5 3.5 1.4 14.9 4.3 25.3 6.5 17.4 3.6 20.5 3.2 38.9-5.7 21.2-10.2 37.5-28.6 48.8-55.1 11.9-26.1 23.1-41.5 39.4-68.2 40.7 58.4 70.3 99 106 99 13.2 0 37-12.8 48.4-26l9.4-11 9.2 17.6 9.2 17.6 25.6 2.4c14.1 1.3 33.9 5.7 44 9.8 10.8 4.4 24 6.9 32 6.2 22.1-2 73.2-37.5 118.1-81.8 21.8-21.5 39.6-38.7 39.6-38.2s-2.7 6.2-5.9 12.7c-6.6 13-17.7 54.3-21.7 80.9l-2.6 17.2h15c14.2 0 15.2-.7 18.6-13.6 2-7.5 4.7-20.1 6.1-28.1s9.1-30.9 17.1-50.8l14.6-36.3zm85.4 179.7c-13.4-.5-49.2 10.7-80.9 39.9l-93.9 66.3-11.6 6.9 18.8 10.6c36.2 20.4 57 60.3 62 119.3 2.3 27.7 2.8 28.8 13.9 33.4 12.5 5.2 66.9 6.4 95.3 2.1l17.6-2.7-9.4 9.9c-14.8 15.6-27.6 44-27.6 61.1 0 20.8 5.3 33.3 21.1 49.3l13.3 13.5-13.1 5.4c-31.5 13-52.9 42.5-49.9 69 .9 8.2 4.5 20.6 7.8 27.6 6.7 13.9 31.4 40.9 47.8 52.3l10.5 7.2-23.3.2c-41.3.3-65.8 20.1-68.7 55.8-.9 11.1-2.8 21.8-4.3 23.8s-2 9.6-1 17c1.7 13.2 2 13.4 21.7 15.8 11 1.4 20.7 1.8 21.5 1s-.2-8.5-2.1-17.2c-2-8.7-3-16.4-2.3-17 3-3 43 24.9 40.8 28.4-1.5 2.3-.7 2.8 1.9 1.3l217.3 148.6c6.4-3.9 87.1 74.8 38.9 12.9-7.2-9.2-17-22.5-21.9-29.4l-73.5-83.6c1.1-1.8-.1-2.5-2.7-1.5-2.7 1-24.3-16.8-49.3-40.8-24.5-23.4-53.1-50.4-63.5-60-10.4-9.5-19-18.3-19-19.5s6.2-1.1 13.8.2 40.7 6.9 73.7 12.6c32.9 5.6 59.4 9.8 58.8 9.2-6-5.9-51.4-33.5-116.8-71.1-37.1-21.3-75.1-56.2-73-67 2.1-10.9 25.7-5.8 24.1-20.2-.6-5.5 23.8-32 1.4-12-5.3 4.7-7.7 5.2-9.8 1.8-1.7-2.7.4-7 5.3-10.9 8.3-6.6 62.8-28.6 71.2-28.7 2.6 0-1.8-5.5-9.9-12.2L1444 885l33-4.2c18.1-2.3 39.6-5.1 47.7-6.1 8.1-1.1 34.6-3.5 58.9-5.5s52.5-4.3 62.6-5.2c18-1.6 48.1-8.2 55-12 6.6-3.6-90-18.7-201.6-31.5-42.1-4.8-79-10.1-82-11.8-6.3-3.5 5.2-15.4 40.8-42.2 77.9-58.8 92.5-69.6 98.8-73.2 14.1-7.9 0-7.5-27 .8-118.7 36.6-150.8 45.4-160.7 44.1-8.1-1-7.9-1.7 6.2-19.9 8-10.3 14.6-19.5 14.6-20.4s-4.6-2.5-10.1-3.6c-5.6-1.1-15.1-4-21.2-6.5s-12.2-4.2-13.6-4c-4.9 1-21.4-21.8-21.4-29.5.1-19.7 23.1-70.4 51.6-113.5 11.6-14.5 12.5-33.7 16.4-51.3-1-.6-2.5-.9-4.4-1M949 605.6c-6.8.3-13.8 1.2-20.8 2.7-43.7 8.9-57.2 26.6-57.2 75.3v28l-7.7-15.3c-11.4-22.6-28.8-35.7-59.3-44.7-36-10.5-60.6-8.6-79.4 6.3-21 16.6-33.3 36.5-40.8 65.9-5.4 20.9-7.3 24.8-9.2 18.1-1.3-4.7-2.4-14-2.4-20.6-.1-17.4-5.7-25.2-21.3-29.5-45.1-12.3-72.9.8-95.6 45.1-14.5 28.4-20 93.4-12 142 2 12.3 5.1 50.1 6.8 83.9 3.6 69.4 8.4 85 32.7 106.1 28 24.2 90.2 41.2 116.5 22.5l2.8-134.3c-1.1-100.6-1.9-113-8.3-127.4-8.2-18.5-6.7-24.5 2-7.9 3.2 6.2 6.8 11.2 7.8 11.2 1.1 0 1-10.2-.1-22.7-1.6-18.5-1.3-20.7 1.8-11.8 2.1 6 5.3 68.8 7.1 139.5 2.2 84.4 4.9 133.4 7.9 142.5 13.2 39.9 84.9 61.7 135.4 41.3 32-12.9 34.9-19.3 36.6-79.8 1.4-49.3-1.3-82.2-15.5-188.1-2.6-19.3-3.4-34.3-1.7-33.3s3.2 5.4 3.3 9.8c.2 4.4 2.3-1.4 4.8-12.8s5.3-21.5 6.1-22.3c.9-.9 1.7 24 1.9 55.2.2 42.1 2.4 69 8.7 103.9 4.7 26.3 9.2 69.5 10.3 97.9 1.7 46.5 2.6 51.7 10.7 62.4 10 13.2 34.5 30.6 51 36.4 16.9 5.9 54.3 5.2 70.4-1.3 19.7-8 45.6-27.2 52.1-39.7l-.3-122.5c-1.6-84.7-3.1-107.3-9.2-132.9-9.5-39.9-13.4-69-8.3-61.6 2.1 3 3.8 9.9 3.8 15.4.1 18.6 7.4 10.1 7.8-9.1.2-10.5 1.6-23.1 3.1-28.1s2.6 12.1 2.4 38.1c-.2 32.3 1.7 55.8 6 74.9 3.5 15.3 8.9 61.7 12.1 103.1 6.7 88.2 7.2 90.7 19.8 104.1 15.9 17 36.2 25.2 66.9 27 23.1 1.4 30.4.4 42.9-5.9 12.9-6.5 35.9-29 32.8-32.1l22.4-40.2c8.9-22.6 7.7-45-5.8-113-6.1-30.9-13.8-83.1-17-116-7.8-80.3-15-117-28-144-18.1-37.4-50.8-55.9-99.3-56.1-24.9-.1-32.2 1.4-50.3 10.3l-21.2 10.4 1 30.8 1 30.8-11.4-19.5c-27.1-46.7-68.8-70.9-116.6-68.4m271.2 51.6.3 9.7c.2 5.4 2.9 20.8 6.1 34.4 3.5 15 4.9 30.7 3.5 40-1.3 8.4-3.6 16.1-5.1 17.1-1.5.9-2.1-2.7-1.3-8.1s-1-23.9-4.1-41.2c-3.5-20-4.4-35.1-2.4-41.7zm-208.6 3.6c1.3.2 3.1 6 5.2 18.1 2.8 15.6 3.3 30.7 1.4 39.2-4.8 22-6.3 19.4-8.1-14.3-1.4-27.9-.7-43.3 1.5-43m90.5 7.3 7.9 9.8c10.3 12.6 18.5 32.1 24.9 58.7 2.8 11.7 4.4 22 3.6 22.9-1.5 1.5-28.1-63.6-33.7-82.3zm-286.8 3.6 7.6 8.6c4.3 4.8 7.6 13.6 7.6 20.1 0 6.4-2.5 14.8-5.6 18.6-5.1 6.5-5.4 5.5-3.3-11.5 1.4-11.3.6-21.9-2-27.2zm91.1 2.6c2.4 1.4 6.9 6.6 10.5 13.4 2.9 5.6 9.5 21 14.5 34.2s8.4 24 7.5 24c-3.4 0-19.1-27.8-24.7-43.5-3.2-9-7-19.4-8.6-23.2-1.1-2.7-1.3-4.2-1-4.9q.6-.6 1.8 0m-189.5 27.5c2.3-.6 12.1 13.5 17.7 26.5 8.2 18.7 8.9 29.9 1.3 20.9-3.5-4.2-19.5-42-19.5-46.1-.1-.9.1-1.3.5-1.3m409.6 419.3c-11.9.9-21.7 7.1-36.7 20.7-17.2 15.5-40.6 26.8-63.4 30.4-18.6 2.9-33.8 18.4-33.8 34.3 0 13.3 9.7 33.5 18.8 39.1 6.4 3.9 7 3.2 7-8.6 0-24.4 26.1-64.1 46.4-70.7 18.9-6.1 47.7-1.2 60.8 10.5 9.6 8.6 11.2 13 14.5 42.1 2 17.9 4.9 33.7 6.3 35.1s11.7 5 22.9 8.1c18.8 5.2 64.2 5.5 69.3.4 1.1-1.1 1.8-12.7 1.6-25.9-.3-17.7-2.8-28.8-9.6-42.6-9.1-18.3-9.1-18.5-.7-8.3 11 13.3 16.8 32.8 16.8 56.2 0 10.2 1 18.6 2.2 18.6s7-2.8 12.9-6.2c10.2-5.9 10.7-7.3 10.7-32.4 0-31.3-3.7-42.1-19.4-56.6-7.5-7-9-9.5-4-6.9 21 10.9 37.9 49.1 32 72.5-2.2 8.6-1.8 9.2 3.5 4.9 18.6-15.1 21.9-61.4 6.5-92.6-10.7-21.7-21.7-26-45.8-17.8-23.9 8.1-62.9 7.8-93.4-.7-10.4-2.8-18.3-4.2-25.4-3.6m-42.1 52c-21.7-.8-31.2 6.2-48.1 34.9-11.2 19.2-13.1 30.5-6.9 41.9 3.4 6.2 8 7 42.3 7h38.5l17.8-.8c3.4-.7 5.9-4.2 5.6-7.8-6-70.9-7.9-73.7-49.2-75.2m194.8 87.5c-1.6 0-8.6 3.1-15.6 7-6.9 3.8-20.2 8.1-29.6 9.5-9.3 1.4-17 3.1-17 3.8 0 1.7 49.1 71 79.4 112 13.2 17.9 29.9 41.2 36.9 51.6 7.1 10.5 13.8 19 15 19 2.8 0 3.1.9-30.1-92.4-15.6-43.9-30.1-86.7-32.2-95.1s-5.2-15.4-6.8-15.4m-156.7 7.6c-13.5 0-29.4.9-38.7 2.6l-13.7 2.5c20.8 32.4 19.7 41.4 39.2 67.1 8.9 12.5 26.9 58.6 24.4 62.6-1.3 2.1-.8 2.8 1.1 1.7 4.6-2.8 46.8 86.8 44.1 93.7-1.2 3-.7 4.6 1.1 3.5s6.1 4.9 9.6 13.4c13.9 33.5 9.3-6.7-11.2-97-5.4-23.9-12.1-54.9-14.9-68.9-2.7-14-7.5-36.8-10.6-50.7-3.1-14-5.7-26.6-5.7-28.1 0-1.7-11.2-2.5-24.7-2.4" style="fill:#ebc700;stroke:#000;stroke-width:5.6693;stroke-linecap:round;stroke-linejoin:round;stroke-miterlimit:3"/></g></svg>