<svg xmlns="http://www.w3.org/2000/svg" width="768" height="768" viewBox="-18.262 -18.262 645.275 645.275"><path d="M0 0h608.75v608.75H0z" style="fill:#fff;fill-opacity:1;fill-rule:nonzero;stroke:none"/><path d="M24.111 584.638H584.64V24.106H24.11zm536.422-24.107H48.217V48.218h512.316z" style="fill:#e10915;fill-opacity:1;fill-rule:nonzero;stroke:none"/><path d="M198.896 126.572v102.46h102.461v-102.46zm120.547 0v102.46l102.461-102.46zM198.896 247.115v102.46h102.461v-102.46zm120.547 0v102.46h102.461zm-19.511 160.98q-.852 0-1.705.069a18.08 18.08 0 0 0-14.233 5.404 18.08 18.08 0 0 0-5.055 14.361v6.031h-7.171v11.688h7.171v36.53h14.465v-36.95h16.455v-11.63h-16.455v-4.464c0-6.025 2.836-9.16 7.895-9.16l.064-.058a13.46 13.46 0 0 1 7.592 2.11l2.29-10.849a22.15 22.15 0 0 0-11.313-3.082m-203.496 1.088v72.994h16.396v-32.851l23.926 32.851h18.984l-28.144-37.31 27.724-35.684h-18.564l-23.926 33.453v-33.453zm221.62 0v72.99h14.467v-72.99zm180.215 0v30.139a21.16 21.16 0 0 0-15.43-6.569c-13.68 0-22.964 11.27-22.964 25.557a23.4 23.4 0 0 0 6.055 17.525 23.4 23.4 0 0 0 16.91 7.606 20.78 20.78 0 0 0 15.43-6.57v5.306h14.042v-72.994zm-63.945 23.258a18 18 0 0 0-.967.01v.058a20.45 20.45 0 0 0-15.43 6.875v-6.03h-14.105v48.823h14.164v-31.884a12.55 12.55 0 0 1 10.424-5.547 8.97 8.97 0 0 1 7.106 2.875 8.97 8.97 0 0 1 2.3 7.31v27.246h14.223v-30.136a18.1 18.1 0 0 0-4.932-14 18.1 18.1 0 0 0-12.783-5.6m-257.666.19c-13.564 0-22.904 11.27-22.904 25.556a23.37 23.37 0 0 0 6.033 17.506 23.4 23.4 0 0 0 16.871 7.627 20.74 20.74 0 0 0 14.883-6.026v4.883h14.107v-48.58h-14.107v5.065a21.4 21.4 0 0 0-14.883-6.032m187.807 0c-13.564 0-22.905 11.27-22.905 25.556a23.37 23.37 0 0 0 6.036 17.506 23.4 23.4 0 0 0 16.869 7.627 20.75 20.75 0 0 0 14.888-6.026v4.883h14.102v-48.58h-14.102v5.065a21.4 21.4 0 0 0-14.888-6.032m-148.813.966v30.139a18.1 18.1 0 0 0 4.932 13.998 18.1 18.1 0 0 0 13.756 5.586 20.72 20.72 0 0 0 15.545-7.172v6.03h14.107v-48.58h-14.107v31.88a13.12 13.12 0 0 1-10.424 5.547 9.1 9.1 0 0 1-7.094-2.897A9.09 9.09 0 0 1 230 460.84v-27.242zm-34.414 10.846a13.64 13.64 0 0 1 10.303 4.584v17.539a13.57 13.57 0 0 1-10.303 4.582c-7.026-.474-12.484-6.308-12.484-13.35s5.458-12.881 12.484-13.355m187.807 0a13.65 13.65 0 0 1 10.308 4.584v17.539a13.58 13.58 0 0 1-10.308 4.582c-7.026-.474-12.485-6.308-12.485-13.35s5.459-12.881 12.485-13.355m118.375.062a13.57 13.57 0 0 1 10.85 5.182v16.338a13.57 13.57 0 0 1-10.85 5.18c-7.028-.473-12.486-6.307-12.486-13.348s5.458-12.878 12.486-13.352" style="fill:#e10915;fill-opacity:1;fill-rule:nonzero;stroke:none"/></svg>