<svg xmlns="http://www.w3.org/2000/svg" xml:space="preserve" viewBox="0 0 512 512"><linearGradient id="a" x1="228.357" x2="306.97" y1="398.929" y2="250.279" gradientTransform="matrix(2.6007 0 0 -2.6007 -528.2 1158.402)" gradientUnits="userSpaceOnUse"><stop offset="0" style="stop-color:#c358f8"/><stop offset="1" style="stop-color:#7835ff"/></linearGradient><path d="m107.3 141.4-65.7.6c-27.7 0-36.8 17.4-30.1 42.4L72 453.3C85.3 503 94.2 512 103.3 512h17.5c34.7 0 46.9-20.8 60.4-58.7L277 184.4H151c-9-20.1-12.1-42.9-43.7-43" style="fill:url(#a)"/><linearGradient id="b" x1="359.06" x2="287.594" y1="436.972" y2="241.154" gradientTransform="matrix(2.6007 0 0 -2.6007 -532.81 1158.402)" gradientUnits="userSpaceOnUse"><stop offset="0" style="stop-color:#b550fa"/><stop offset="1" style="stop-color:#f2a0af"/></linearGradient><path d="M318.2 0h154.3c12.4 0 38 7.1 27.9 36.6L372.2 466.4C359 503.5 346.8 512 307.9 512H103.3c10.6 0 21.9-20.7 35.4-58.6L260.6 41.2C269.5 17.6 281.3 0 318.2 0" style="fill:url(#b)"/></svg>