<svg xmlns="http://www.w3.org/2000/svg" xml:space="preserve" viewBox="0 0 512 512"><linearGradient id="a" x1="256" x2="256" y1="540.962" y2="28.962" gradientTransform="matrix(1 0 0 -1 0 514)" gradientUnits="userSpaceOnUse"><stop offset="0" style="stop-color:#414141"/><stop offset=".196" style="stop-color:#3e3e3e"/><stop offset="1" style="stop-color:#3a3a3a"/></linearGradient><path d="M256 512C114.8 512 0 397.2 0 256S114.8 0 256 0s256 114.8 256 256-114.8 256-256 256m0-490.5C126.8 21.5 21.6 126.7 21.6 256S126.8 490.5 256 490.5 490.4 385.3 490.4 256 385.2 21.5 256 21.5" style="fill:url(#a)"/><radialGradient id="b" cx="900.048" cy="196.186" r="871.131" gradientTransform="matrix(.3539 0 0 -.3539 -78.658 277.624)" gradientUnits="userSpaceOnUse"><stop offset=".673" style="stop-color:#fcfcfc;stop-opacity:0"/><stop offset="1" style="stop-color:#fcfcfc"/></radialGradient><path d="M256 .1C114.9.1.1 114.9.1 256S114.9 511.9 256 511.9 511.9 397.1 511.9 256 397.1.1 256 .1" style="opacity:.32;fill:url(#b)"/><radialGradient id="c" cx="935.131" cy="81.437" r="724.658" gradientTransform="matrix(.3539 0 0 -.3539 -78.658 277.624)" gradientUnits="userSpaceOnUse"><stop offset=".109" style="stop-color:#0f0f0d;stop-opacity:0"/><stop offset=".886" style="stop-color:#414141;stop-opacity:0"/><stop offset=".934" style="stop-color:#1e1e1d;stop-opacity:.6841"/><stop offset=".987" style="stop-color:#0f0f0d"/></radialGradient><path d="M256 512C114.8 512 0 397.2 0 256S114.8 0 256 0s256 114.8 256 256-114.8 256-256 256m0-490.5C126.8 21.5 21.6 126.7 21.6 256S126.8 490.5 256 490.5 490.4 385.3 490.4 256 385.2 21.5 256 21.5" style="opacity:.44;fill:url(#c)"/><path d="M256 22.9c-130.2 0-236.2 105.9-236.2 236.2s106 236.1 236.2 236.1S492.2 389.3 492.2 259 386.2 22.9 256 22.9"/><path d="M256 512C114.8 512 0 397.2 0 256S114.8 0 256 0s256 114.8 256 256-114.8 256-256 256m0-506.5C114.8 5.5 0 118.8 0 258.1s114.8 252.6 256 252.6 256-113.3 256-252.6S397.2 5.5 256 5.5" style="opacity:.35;fill:#0f0f0d"/><radialGradient id="d" cx="959.283" cy="64.88" r="1407.523" gradientTransform="matrix(.3539 0 0 -.2026 -78.658 111.223)" gradientUnits="userSpaceOnUse"><stop offset="0" style="stop-color:#2e6b26"/><stop offset="1" style="stop-color:#6ab536"/></radialGradient><path d="M256 21.5C126.7 21.5 21.5 126.7 21.5 256S126.7 490.5 256 490.5 490.5 385.3 490.5 256 385.3 21.5 256 21.5" style="fill:url(#d)"/><radialGradient id="e" cx="948.752" cy="523.365" r="274.885" gradientTransform="matrix(.3539 0 0 -.3539 -78.658 277.624)" gradientUnits="userSpaceOnUse"><stop offset="0" style="stop-color:#6ab536"/><stop offset="1" style="stop-color:#2e6b26"/></radialGradient><path d="M256 41c-38.5 0-69.8 31.3-69.8 69.8s31.3 69.8 69.8 69.8 69.8-31.3 69.8-69.8S294.5 41 256 41" style="opacity:.7;fill:url(#e)"/><radialGradient id="f" cx="990.518" cy="592.231" r="406.006" gradientTransform="matrix(.3356 0 0 -.5572 -76.775 481.427)" gradientUnits="userSpaceOnUse"><stop offset="0" style="stop-color:#000"/><stop offset=".784" style="stop-color:#4f4f4f;stop-opacity:0"/></radialGradient><path d="M132.8 55.8v.2c-.4.1-.4 0 0-.2m177 150.4-3.2 57.9 38.3 41.7-38.3 41.7 25.3 27.6-25.3 27.6 3.2 57.5H202.2v-254c-42.8-21.9-72-69.2-72-123.6 0-9.1 1.3-17.5 2.6-26.6 4.6-.9 79.7-32.3 79.7-32.3-.6 3.4 87.7 3.4 87 0 0 0 72.5 31.2 79.8 32.7 1.8 8.9 2.5 17.2 2.5 26.2 0 54.4-29.8 101.7-72 123.6m69.4-150.4c0 .2.1.4.1.6.8.2.9 0-.1-.6" style="opacity:.3;fill:url(#f)"/><path d="M130.4 409.1c-41.6-36.1-68-89.5-68-149.2 0-69.5 36.3-133.6 96.1-169.4-1.1 6.9-2.1 13.4-2.1 20.3 0 41.1 24 76.9 59.3 93.5v187.5l44.3 44.3 44.3-44.3-2.7-39 20.8-20.8-20.8-20.8 31.5-31.5-31.5-31.5 2.7-43.8c34.7-16.6 59.3-52.4 59.3-93.5 0-6.9-.5-13.4-2.1-20.3 21.7 13.1 40.3 30 55.2 49.6-36.1-49.6-94.7-81.8-160.9-81.8-109.6 0-198.5 88.4-198.5 197.6 0 61.8 28.5 116.9 73.1 153.1m115.2-32.2h-15v-148h15zM224.3 66c11.8-2.1 24-3.2 35.8-3.2 12.3-.5 24 1.1 35.8 3.2.5 2.7 1.1 5.3 1.1 8 0 20.3-16.6 36.9-36.9 36.9S223.2 94.3 223.2 74c0-2.7.5-5.3 1.1-8" style="opacity:.2;fill:#0f0f0d"/><radialGradient id="g" cx="942.896" cy="605.986" r="939.55" gradientTransform="matrix(.3539 0 0 -.3539 -78.658 277.624)" gradientUnits="userSpaceOnUse"><stop offset="0" style="stop-color:#f5f5f5"/><stop offset=".548" style="stop-color:#f2f2f2"/></radialGradient><path d="M256 21.5C126.8 21.5 21.6 126.7 21.6 256S126.8 490.5 256 490.5 490.4 385.3 490.4 256 385.2 21.5 256 21.5m-35.8 40.3c11.8-2.1 24-3.2 35.8-3.2 12.3-.5 24 1.1 35.8 3.2.5 2.7 1.1 5.3 1.1 8 0 20.3-16.6 36.9-36.9 36.9s-36.9-16.6-36.9-36.9c0-2.6.6-5.3 1.1-8m21.4 163v148h-15v-148zM256 453.5c-109 0-197.6-88.2-197.6-197.7 0-69.5 36.3-133.6 96.1-169.4-1.1 6.9-2.1 13.4-2.1 20.3 0 41.1 24 76.9 59.3 93.5v187.5L256 432l44.3-44.3-2.7-39 20.8-20.8-20.8-20.8 31.5-31.5-31.4-31.6 2.7-43.8c34.7-16.6 59.3-52.4 59.3-93.5 0-6.9-.5-13.4-2.1-20.3 59.3 35.8 95.6 99.9 96.1 169.4-.1 109-88.2 197.7-197.7 197.7" style="fill:url(#g)"/></svg>