<svg xmlns="http://www.w3.org/2000/svg" viewBox="0.19 0.22 31.57 31.64"><g fill="none" fill-rule="evenodd"><path fill="#FFC700" d="M28.423 20.171l-4.987-4.125 4.987-4.125 1.551 1.885-2.708 2.24 2.708 2.24-1.551 1.885zm-1.896 4.613l-6.054-4.843H15.44v9.904h-2.438V17.497h8.323l6.722 5.377-1.52 1.91zm-3.593 3.262l-2.726-2.248v3.423l-2.438.624v-7.567l1.993-.01 5.194 4.28-2.023 1.498zm-12.313-2.05l-2.438 2.126V4.183l2.438 2.127v19.686zm-4.775-2.928l-2.438-2.08v-9.294L5.846 9.45v13.617zm7.157-20.82h2.438v9.903h5.032l6.054-4.843 1.521 1.91-6.722 5.377h-8.323V2.247zm4.767.332l2.438.624v3.423l2.726-2.248 2.023 1.498-5.194 4.28-1.993-.01V2.58zM15.974.225C7.258.225.192 7.308.192 16.045c0 8.739 7.066 15.822 15.782 15.822 8.717 0 15.783-7.083 15.783-15.821S24.691.225 15.974.225z"/></g></svg>