<svg xmlns="http://www.w3.org/2000/svg" fill="none" viewBox="0.49 0.23 114.98 130.98">
    <path d="M85.4745 131.213C67.9153 131.213 59.325 118.958 57.5808 116.426C52.3978 121.527 44.5736 131.213 30.4803 131.213C14.2056 131.213 0.486328 118.913 0.486328 98.9712V32.4723C0.486328 12.485 14.2281 0.230774 30.4803 0.230774C46.7325 0.230774 60.4743 13.2461 60.4743 32.1687C63.6472 31.0407 67.0139 30.4563 70.4753 30.4563C87.2187 30.4563 100.469 44.1829 100.469 60.6819C100.469 65.3072 99.5949 69.4206 97.6839 73.3619C108.302 78.1186 115.468 88.8235 115.468 100.987C115.468 117.654 102.011 131.213 85.4745 131.213ZM64.8325 109.119C69.1457 116.671 76.4064 121.137 85.4745 121.137C96.4986 121.137 105.472 112.095 105.472 100.987C105.472 92.1985 99.8653 84.5515 91.7978 81.8606L64.8325 109.123V109.119ZM30.4848 10.306C20.5334 10.306 10.4873 17.1602 10.4873 32.4723V98.9712C10.4873 114.283 20.5289 121.137 30.4848 121.137C38.3855 121.137 42.7528 117.119 49.7972 110.02L52.9161 106.876C51.3071 102.043 50.4778 96.6789 50.4778 90.9074V32.4677C50.4778 17.1556 40.4362 10.3014 30.4803 10.3014L30.4848 10.306ZM60.4788 43.2224V90.9119C60.4788 93.6119 60.7041 96.1806 61.1323 98.5997L82.865 76.7007C89.1792 70.3403 90.4727 65.6968 90.4727 60.6864C90.4727 49.9815 81.9365 40.536 70.4753 40.536C66.9102 40.536 63.4985 41.4602 60.4788 43.227V43.2224Z" fill="#1D4B00"/>
</svg>