<?xml version="1.0" encoding="UTF-8" standalone="no"?>
<svg xmlns="http://www.w3.org/2000/svg" xmlns:xlink="http://www.w3.org/1999/xlink" width="256" height="256" version="1.0">
  <defs>
    <linearGradient id="d">
      <stop offset="0" stop-color="#2d2d2d"/>
      <stop offset=".93213677" stop-color="#636363" stop-opacity="0"/>
      <stop offset="1" stop-color="#9a9a9a" stop-opacity="0"/>
    </linearGradient>
    <linearGradient id="c">
      <stop offset="0"/>
      <stop offset="1"/>
    </linearGradient>
    <linearGradient id="b">
      <stop offset="0" stop-color="#760000"/>
      <stop offset="1" stop-color="#b90505"/>
    </linearGradient>
    <linearGradient id="a">
      <stop offset="0" stop-color="#fff9ff"/>
      <stop offset="1" stop-color="#ff641e" stop-opacity="0"/>
    </linearGradient>
    <linearGradient xlink:href="#a" id="h" x1="213.29019" x2="357.13394" y1="395.40402" y2="395.40402" gradientTransform="matrix(1.01327 -.26985 .19424 .72935 -71.37669 568.00806)" gradientUnits="userSpaceOnUse"/>
    <linearGradient xlink:href="#a" id="g" x1="213.29019" x2="357.13394" y1="395.40402" y2="395.40402" gradientTransform="matrix(.84228 -.22431 .1329 .499 12.76758 647.23744)" gradientUnits="userSpaceOnUse"/>
    <linearGradient xlink:href="#b" id="e" x1="188.9812" x2="265.72412" y1="369.99817" y2="447.36133" gradientTransform="translate(38.43838 437.85983) scale(.87164)" gradientUnits="userSpaceOnUse"/>
    <radialGradient xlink:href="#c" id="j" cx="1127.7542" cy="893.27466" r="3.3387444" fx="1127.7542" fy="893.27466" gradientTransform="matrix(2.99028 -9.0582 -7.93228 -.8773 3972.6103 11921.16)" gradientUnits="userSpaceOnUse"/>
    <radialGradient xlink:href="#d" id="i" cx="386.19394" cy="907.20697" r="29.000034" fx="386.19394" fy="907.20697" gradientTransform="matrix(3.88773 .24242 -.4136 2.7357 -856.7669 -1677.2506)" gradientUnits="userSpaceOnUse"/>
    <filter id="f">
      <feGaussianBlur stdDeviation="6.2940002"/>
    </filter>
  </defs>
  <g transform="translate(-185.85384 -703.0532)">
    <path fill="url(#e)" d="M313.90232 710.2458c-9.61011-.04488-19.77039 1.21066-30.31656 4.27646-11.44076 3.3151-19.86366 6.97503-25.41361 10.10552-28.20756 14.79548-52.38377 47.59135-58.59022 76.29531-11.21158 51.85192 5.55668 101.7634 5.55667 101.7634l.95335-.29963 35.92771 11.33126s-20.17889-20.46287-22.74422-72.10057c1.01737-11.71968 2.73335-22.95103 5.22981-33.42176 14.63741 2.48695 37.28806 5.74932 60.44244 6.83689 38.99887 1.83179 79.23708-2.56043 79.23708-2.56043 15.28315 59.8705-25.14122 108.65477-25.14122 108.65477l70.79543-15.64045c0 .00001 39.83595-44.01094 15.27852-120.08948-12.88682-39.92318-54.00202-66.22822-80.9531-70.79312-9.19246-2.57805-19.36787-4.30729-30.26208-4.35817z"/>
    <path fill="#9e9e9e" d="M106.06999 509.13699c-2.86411 12.01274-4.8328 32.31518-6 45.76082 2.94313 59.2424 31.2857 82.7188 31.2857 82.7188l-11.8125-3.7188c16.93517 26.49936 43.13537 47.92566 78.9375 48.12496 28.82923.1633 53.42871-12.694 70.875-35.90616h-26.6875s46.37768-63.38581 28.84375-132.07337c0 0-44.68065 5.03905-89.42284 2.9375-26.56433-1.24774-59.22606-4.99056-76.01911-7.84375z" filter="url(#f)" transform="translate(129.74168 361.21957) scale(.87164)"/>
    <path fill="url(#g)" d="M295.66195 751.4085c34.52604-9.19493 66.81707-.64561 72.06789 19.0707 2.41393 9.06406-1.31364 18.9146-9.3895 27.81222 1.50264-4.55893 1.77336-9.14533.6052-13.53168-5.25083-19.71631-37.53752-28.24938-72.06357-19.05444-18.6424 4.96482-34.14522 14.08996-43.63776 24.53883 5.26875-15.92203 25.59126-31.69123 52.41774-38.83563z" opacity=".6"/>
    <path fill="url(#h)" d="M280.49317 736.67839c41.53514-11.0616 81.48449 3.36476 89.15929 32.18282 3.52828 13.24836-.38633 27.23779-9.66774 39.57106 1.54022-6.48877 1.57557-13.09645-.13187-19.50768-7.67479-28.81807-47.61782-43.22068-89.15297-32.15908-22.42697 5.97273-40.75566 18.15697-51.66584 32.63992 5.40457-22.66061 29.18662-44.13227 61.45913-52.72704z" opacity=".6"/>
    <path fill="#fff" d="M24.28579 655.02901c-2.49646 10.47073-4.21244 21.70207-5.22981 33.42176 2.56533 51.63776 22.74423 72.10061 22.74423 72.10061l-10.29619-3.24143c14.76129 23.09777 37.5983 41.77368 68.80469 41.9474 25.12857.14234 48.71502-13.74539 62.31331-36.65877l-23.79793 5.3617s40.42441-48.78432 25.14122-108.65481c0 0-40.23821 4.39222-79.23707 2.56043-23.15441-1.08757-45.80504-4.34994-60.44245-6.83689zm200.5508 153.20404c-2.49646 10.47073-4.21244 21.70207-5.22981 33.42176 2.56533 51.63776 22.74423 72.10061 22.74423 72.10061l-10.29619-3.24143c14.76129 23.09777 37.5983 41.77368 68.80469 41.9474 25.12857.14234 51.81624-15.26126 63.35091-36.54297l-24.83553 5.2459S379.7993 872.38 364.51611 812.50951c0 0-40.23821 4.39222-79.23707 2.56043-23.15441-1.08757-45.80504-4.34994-60.44245-6.83689z"/>
    <g fill-rule="evenodd" transform="matrix(1 0 .04108 .95416 -35.50618 35.168882)">
      <path fill="#c8bfff" d="M295.26313 836.26361c-.76613 1.07396-.98916 2.40151-1.57271 3.56666-3.27076 8.49164-7.05674 16.86206-12.26282 24.45066-5.03145 7.5411-10.99243 14.56596-15.00822 22.6894-1.96041 4.38627-2.5688 9.58822-.49177 14.04057 6.21359 4.73559 14.79657 4.49477 15.82922-6.77509.0353-2.3498-.87337-4.83106.3188-7.05632 4.21865-9.93892 7.486-20.24443 9.80473-30.73838 1.37154-6.28116 2.68235-12.59254 3.39417-18.97746-.0642-.2591.23057-1.25606-.0114-1.20004z" opacity=".50273222"/>
      <path fill="url(#i)" d="M272.77008 897.59664c1.69722-4.84442 18.64424-35.1123 24.11283-52.40003 1.77339-7.5744 2.56037-14.15765 3.0718-20.46406.40953-5.04989-8.08392-3.22321-8.23896 1.58668-.74892 19.42305-20.07525 49.83959-26.67155 62.14695-6.59629 12.30739 6.02866 13.97489 7.72588 9.13046z"/>
      <path fill="#c8bfff" d="M267.78125 893.84555c-7.12807 3.7391-6.94773 11.57566-2.0813 15.56648 3.80874 1.08027 8.6353 2.09676 12.30518 1.12164 7.40581-4.28639 19.72295-5.24677 15.23769-8.55216-11.31515 1.86583-17.54632 2.93356-23.49282 1.09702-1.6232-.26889-1.84263-2.22716-1.40625-3.4661.20431-1.82105 1.06423-3.6164.65625-5.46808-.34534-.27931-.77502-.38784-1.21875-.2988z" opacity=".7213115"/>
      <path fill="url(#j)" d="M271.6875 876.60467c-4.2778 5.67888-7.06577 12.20306-9.8125 18.64525-1.06849 2.95152-2.11062 6.0351-1.86859 9.19487.57523 3.04022 3.94462 5.0238 7.0513 4.76501 5.14903.29177 9.97448-1.79506 14.59375-3.69259 3.84003-1.51103 7.9098-2.87769 12.12489-2.62628 1.66087-.10304 3.31364.18037 4.97365.15772-.4567-1.12076-1.93435-.89573-2.9375-1.07569-6.07869-.82855-12.31757-.19963-18.1875 1.46413-1.41266.28714-3.08754.23256-4.1875-.77688-.75966-1.83918.53853-3.62547.75-5.4382 1.64264-5.52543 2.16255-11.53288.31957-17.07876-.42513-1.28172-1.00004-2.66995-2.13207-3.5087-.23067-.01048-.45761-.1022-.6875-.02988z"/>
    </g>
  </g>
</svg>