<svg xmlns="http://www.w3.org/2000/svg" xml:space="preserve" viewBox="0 44.4 512 423.2"><path d="M0 44.4v102.8l190.2 187.3 84.1-3.7h58.5L512 147.2V44.4h-7.3l-245 249.7L7.3 44.4zM11.1 325v116h23V325zm69.1 0L38 366.7l.7 18.3v13.9l41.5 41.7h19.6v-.7l-55.3-57.5 55.3-56.8v-.6zm37.1 0v115.7h17.4V325zm289.5 34.8c-4.5 0-9 .9-13.3 2.6s-8.2 4.3-11.5 7.6c-3.4 3.4-6 7.6-8 12.7s-3 11-3 17.8c0 5.8.8 11.1 2.4 16s4 9.1 7.2 12.7c3.3 3.6 7.4 6.4 12.4 8.4q7.5 3 17.7 3c2.7 0 5.3-.1 7.8-.4 2.6-.3 4.9-.7 7.2-1.1 2.2-.4 4.2-.9 5.9-1.5 1.7-.5 3.1-1.1 4.1-1.6l-2.4-14.6c-2.1.9-4.9 1.7-8.5 2.5s-7.6 1.2-11.9 1.2c-7.4 0-13-1.7-16.9-5.1q-5.85-5.1-6.6-14.4h51c.1-1 .2-2.1.2-3.3s.1-2.4.1-3.3c0-13.1-3-22.9-8.9-29.4-6-6.5-14.3-9.8-25-9.8m-176.7 1.6c-5.9 0-11.6.4-16.9 1.3s-9.8 1.8-13.5 2.8v102.1h17.9v-30q3 1.65 7.5 3c3.1.9 6.4 1.3 10.1 1.3 5.4 0 10.3-1 14.6-3s7.9-4.7 10.7-8.3c2.9-3.5 5.1-7.8 6.6-12.7s2.3-10.3 2.3-16.3q0-9.3-2.7-16.8c-1.8-5-4.5-9.2-7.9-12.7q-5.1-5.25-12.3-8.1c-4.8-1.7-10.3-2.6-16.4-2.6m87.2 0c-5.9 0-11.6.4-16.9 1.3s-9.8 1.8-13.5 2.8v102.1h17.9v-30c2 1.1 4.5 2.1 7.6 3s6.4 1.3 10.1 1.3c5.4 0 10.3-1 14.6-3s7.9-4.7 10.7-8.3c2.9-3.5 5.1-7.8 6.6-12.7s2.3-10.3 2.3-16.3q0-9.3-2.7-16.8c-1.8-5-4.4-9.2-7.8-12.7s-7.5-6.2-12.4-8.1c-4.9-1.7-10.4-2.6-16.5-2.6m172.8 0c-6.4 0-12.2.6-17.4 1.7s-9.5 2.3-13 3.6v73.9h18v-62.2c.9-.3 2.4-.7 4.7-1.1q3.3-.6 6.3-.6c3.5 0 6.5.3 9.2.8a49 49 0 0 1 6.2 1.6l3.1-15.1c-.9-.3-2.1-.6-3.6-1-1.5-.3-3-.6-4.6-.9-1.6-.2-3.2-.5-4.8-.6-1.5 0-2.9-.1-4.1-.1M158.5 363v77.7h17.4V363zM407 374.7c2.7 0 5 .4 6.9 1.4 1.9.9 3.5 2.2 4.9 3.8 1.3 1.6 2.3 3.6 3 5.8s1 4.5 1 7h-33.2c.3-2.3.8-4.5 1.6-6.6q1.2-3.3 3.3-5.7c1.4-1.7 3.2-3 5.2-4.1 2.1-1.1 4.5-1.6 7.3-1.6m-178.7 2.1c8 0 13.8 2.2 17.4 6.7q5.4 6.6 5.4 18.6c0 7.5-1.5 13.4-4.5 17.9-3 4.4-7.8 6.7-14.3 6.7-3 0-5.8-.5-8.4-1.4q-3.9-1.35-6.3-3V378c1.8-.5 3.6-.8 5.4-1 1.9-.2 3.6-.2 5.3-.2m87.2 0c8 0 13.8 2.2 17.4 6.7s5.4 10.6 5.4 18.6c0 7.5-1.5 13.4-4.5 17.9-3 4.4-7.8 6.7-14.3 6.7-3 0-5.8-.5-8.4-1.4q-3.9-1.35-6.3-3V378c1.8-.5 3.6-.8 5.4-1 1.9-.2 3.6-.2 5.3-.2" style="fill:#647e98"/><path d="m0 44.4 241.4 238V330h-73.9c-8.8 0-10.2 7.3-10.2 11s1.5 11 10.2 11h103.1c3.7 0 7.3-3.7 7.3-7.3v-62.2L512 44.4h-43.9L259.7 256.7 43.9 44.4zm100.1 281.3-53 54.3h-8v-20.5c0-.7-.7-1.5-2.2-1.5s-2.2.7-2.2 1.5h-1.5v24.2h1.5c0 1.5 1.5 2.9 2.9 2.9H47l53 55v-10.3l-45.8-48.1 45.8-47.1z" style="fill:#b12f35"/></svg>