<svg xmlns="http://www.w3.org/2000/svg" fill="none" viewBox="0 22 341 297.84">
<path d="M40.6362 22.4938C80.0025 20.5388 119.483 23.8355 153.681 45.3023C158.315 48.599 165.926 52.7391 165.296 59.3708C165.391 85.4952 165.334 111.735 165.334 137.878C160.375 143.609 155.607 149.417 151.716 155.952C133.006 186.562 134.303 227.847 155.321 257C129.02 242.337 99.0562 235.629 69.0356 236.223C59.5755 236.031 50.0963 237.488 40.6552 237.086C38.5382 237.105 36.6499 234.728 35.7344 233.003C34.6092 227.081 35.1813 220.717 35.086 214.699C35.1241 158.482 35.105 102.247 35.086 46.0307C35.1623 39.9165 34.6092 33.5531 35.6009 27.5155C36.1159 25.0813 38.4046 23.2988 40.6362 22.4938ZM286.466 22.053C291.348 22.398 297.547 21.2096 300.923 25.6563C302.601 32.1156 301.781 39.399 301.915 46.0307C301.896 79.7643 301.838 113.498 301.953 147.232C283.929 125.707 257.399 112.52 229.247 112.75C210.194 112.712 192.208 118.941 176.511 129.579C176.931 106.195 176.454 82.7927 176.721 59.4091C176.263 52.8157 182.633 49.2699 187.173 45.839C215.744 26.9597 252.898 21.3821 286.466 22.053Z" fill="#08A69C"/>
<path d="M13.3262 52.1059C16.7756 52.2206 20.9533 52.5457 22.4672 56.2168C23.6937 62.928 23.0038 70.1172 23.0996 76.924C23.0996 126.637 23.1188 176.35 23.0996 226.062C23.1571 232.984 22.678 240.02 23.4062 246.903C23.617 249.657 25.7634 251.588 28.4463 251.951C36.7441 252.525 45.1953 250.938 53.5123 250.689C86.0905 249.16 118.63 252.161 147.836 267.706C154.926 271.32 160.35 276.941 166.98 281.11C172.269 284.379 177.942 283.098 183.806 282.792C187.792 284.647 191.72 286.578 195.611 288.605C191.165 290.842 186.412 293.5 181.545 294.532C172.691 296.081 163.282 293.786 156.632 287.63C153.566 285.182 150.749 281.702 147.146 280.058C140.362 278.93 133.195 279.523 126.334 279.465C92.472 279.484 58.629 279.446 24.7668 279.484C18.4812 279.446 12.0039 279.943 5.75652 279.14C3.18859 278.815 0.678158 276.215 0.448194 273.634C-0.356679 266.789 0.179899 259.733 0.122408 252.831V76.924C0.218226 70.1746 -0.433333 63.1765 0.620667 56.5036C3.26525 51.169 8.28612 52.2971 13.3262 52.1059ZM318.469 52.7177C325.099 51.5323 331.519 51.3602 337 55.8152C336.751 127.134 336.962 198.797 336.904 270.115C337.211 274.666 334.72 276.616 331.941 279.695C323.547 271.377 315.173 263.041 306.894 254.609C321.343 231.894 325.693 204.17 318.354 178.223C316.476 171.799 313.927 166.005 314.138 159.141C314.329 126.637 314.195 94.0749 314.214 61.5704C314.291 57.6699 314.387 54.4386 318.469 52.7177Z" fill="#08A69C"/>
<path d="M216.102 126.592C248.917 120.427 283.455 136.662 299.767 165.744C315.944 193.907 312.23 230.398 291.439 255.191C306.142 270.239 321.056 285.096 336.105 299.818C338.612 302.556 341.197 304.586 340.986 308.683C341.35 315.383 334.496 321.376 327.93 319.481C324.292 317.892 321.228 314.503 318.414 311.766C304.495 297.464 290.136 283.603 276.198 269.34C252.094 286.36 219.222 287.699 193.223 274.202C180.836 267.386 170.134 257.507 162.667 245.484C150.491 226.377 147.963 201.852 154.587 180.333C162.915 152.534 187.747 131.684 216.102 126.592ZM286.805 180.658C275.451 153.989 245.106 137.485 216.599 144.569C190.485 150.466 170.114 174.57 169.233 201.431C168.066 221.246 177.408 241.158 193.356 252.951C215.833 269.971 249.395 268.497 270.589 250.041C290.443 233.404 297.182 204.398 286.805 180.658Z" fill="#253C42"/>
<rect x="197" y="203" width="17" height="34" rx="2" fill="#08A69C"/>
<rect x="222" y="187" width="18" height="50" rx="2" fill="#08A69C"/>
<rect x="248" y="171" width="17" height="66" rx="2" fill="#08A69C"/>
</svg>