<svg xmlns="http://www.w3.org/2000/svg" xml:space="preserve" id="svg4586" x="0" y="0" version="1.1" viewBox="0 0 512 512"><style>.st7{font-family:&quot;Impact&quot;}.st8{font-size:245.2554px}</style><path id="path4556" d="M512 256c0 141.4-114.6 256-256 256S0 397.4 0 256 114.6 0 256 0s256 114.6 256 256" style="fill:#005ed3"/><path id="path4558" d="M512 256c0-11.7-.8-23.2-2.3-34.5L382.5 94.3l-62 27.6-64.5-65-43.3 74.4-83.2-37 12.3 84.1-91.9 15.4 64.4 62.2-64.4 62.2 82.1 82.2-2.6 17.4 92 92c11.3 1.5 22.8 2.3 34.5 2.3C397.4 512 512 397.4 512 256" style="fill:#00459f"/><path id="path4560" d="m256 86.7 37.1 63.7 70.6-31.4-10.5 71.7 77.1 12.9-54.2 52.4 54.1 52.3-77.1 12.9 10.5 71.7-70.6-31.4-37 63.8-37.1-63.7-70.6 31.4 10.5-71.7-77.1-12.9 54.1-52.3-54.1-52.3 77.1-12.9-10.5-71.7 70.6 31.4z" style="fill:#ff0335"/><path id="path4562" d="m430.2 308.3-77.1 12.9 10.5 71.7-70.6-31.4-37 63.8V86.7l37.1 63.7 70.6-31.4-6.8 46.1-3.8 25.6 58.8 9.9 18.3 3.1-13.4 12.9-40.7 39.4 11.4 11z" style="fill:#c2001b"/><path id="path4564" d="m256 455.1-43.3-74.4-83.2 37 12.3-84.1-91.9-15.4 64.4-62.2-64.4-62.2 91.9-15.4-12.3-84.1 83.2 37L256 56.9l43.3 74.4 83.2-37-12.3 84.1 91.9 15.4-64.4 62.2 64.4 62.2-91.9 15.4 12.3 84.1-83.2-37zm-30.9-112.8 30.9 53.1 30.9-53.1 58 25.8-8.7-59.3 62.2-10.4-43.9-42.4 43.9-42.4-62.2-10.4 8.7-59.3-58 25.8-30.9-53.1-30.9 53.1-58-25.8 8.7 59.3-62.2 10.4 43.9 42.4-43.9 42.4 62.2 10.4-8.7 59.3z" style="fill:#ffdf47"/><path id="path4566" d="m403.3 261.4-5.6-5.4 25.2-24.3 39.2-37.9-55.8-9.3-36.2-6.1 2.8-19.1 9.6-65-83.2 37L256 56.9v59.6l30.9 53.1 58-25.8-3.9 26.7-2.5 17.4-2.2 15.2 2.5.4 59.8 10-44.1 42.5 17 16.4 27 26-62.2 10.4 8.7 59.3-58-25.8-31 53.1V455l43.3-74.4 83.2 37-12.4-84.1 91.9-15.4z" style="fill:#fec000"/><text class="st7 st8" style="fill:#fff" transform="matrix(1.4016 -.4168 .2756 .9613 187.871 376.667)">K</text><text class="st7 st8" style="fill:none;stroke:#000;stroke-width:1.5453;stroke-linejoin:round" transform="matrix(1.4016 -.4168 .2756 .9613 187.871 376.667)">K</text></svg>