<svg xmlns="http://www.w3.org/2000/svg" xml:space="preserve" viewBox="0 0 512 512"><path d="M190.3 103.5h318.5c53.4 0 96.8 43.3 96.8 96.8v318.5c0 53.4-43.3 96.8-96.8 96.8H190.3c-53.4 0-96.8-43.3-96.8-96.8V200.3c0-53.5 43.3-96.8 96.8-96.8" style="fill:#273773" transform="translate(-93.5 -103.523)"/><path d="M260.6 153.2v412.6h-43.9V153.2zm221.7 0v43.9c0 59-22.3 105.8-67 140.4-44.2 34.1-95.8 51.1-154.8 51.1v-43.9c49.4 0 91.2-14.9 125.3-44.6 34.6-29.3 51.8-63.6 51.8-103v-43.9zM349.1 329.6c39.4 0 68.9 12.5 88.6 37.4 19.7 24.5 29.5 51.4 29.5 80.6v118.1h-43.9v-103c0-29.8-9.8-54.5-29.5-74.2S349.4 359 319.6 359c6.7-6.1 16.6-15.9 29.5-29.4" style="fill:#fff" transform="translate(-93.5 -103.523)"/></svg>