<svg xmlns="http://www.w3.org/2000/svg" xml:space="preserve" id="图层_1" x="0" y="0" version="1.1" viewBox="0 0 512 512"><style>.st1{fill:#fff}</style><path d="M512 396.32C512 460.21 460.21 512 396.31 512H115.69C51.8 512 0 460.21 0 396.32V115.68C0 51.79 51.8 0 115.69 0h280.62C460.21 0 512 51.79 512 115.68z" style="fill:#87eb00"/><path d="M461.58 173.96H65.79L38.3 304.09l12.22 22.52h273.82l18 33.19h18.07l7.02-33.19h78.73l27.54-130.32z"/><path d="M164.32 189.43h-34.01l-24.7 28.24 5.97-28.24H77.37L54.79 296.32H89l6.05-28.69 15.57 28.69h31.12l2.46-11.68-20.36-37.57 37.33-42.71zM449.13 189.43h-34.02l-24.69 28.24 5.96-28.24h-34.2L339.6 296.32h34.2l6.07-28.69 15.55 28.69h31.13l2.47-11.68-20.38-37.57 37.34-42.71zM249.93 189.43h-71.3l-11.17 12.77-17.19 81.39 6.9 12.73h70.98l11.45-13.1L256.75 202zm-43.22 71.72h-14.14l7.73-36.56h14.14zM345.5 189.43h-71.3l-11.17 12.77-17.19 81.39 6.9 12.73h70.98l11.45-13.1L352.32 202zm-43.22 71.72h-14.14l7.72-36.56H310z" class="st1"/></svg>