<svg xmlns="http://www.w3.org/2000/svg" xml:space="preserve" id="Layer_1" x="0" y="0" version="1.1" viewBox="0 0 512 512"><style>.st0{fill-rule:evenodd;clip-rule:evenodd}.st0,.st1{fill:#1064ee}</style><g id="Page-1"><g id="Group" transform="translate(0 -1)"><path id="Path" d="M480 185.1C426.6 90.8 336.4 68.2 269.8 78.5l-3.3-21.3c73.7-11.4 173.4 13.5 232.2 117.3z" class="st0"/><path id="Shape" d="M256 511.4c-141.2 0-256-115-256-256.3 0-68.3 26.7-132 75.1-179.4C123.2 28.5 187.4 2.6 256 2.6s132.8 26 180.9 73.1c48.4 47.4 75.1 111.2 75.1 179.4 0 141.4-114.8 256.3-256 256.3m0-487.3c-62.9 0-121.8 23.8-165.9 67-44.2 43.4-68.6 101.6-68.6 164.1C21.5 384.7 126.7 490 256 490s234.5-105.3 234.5-234.8c0-62.4-24.4-120.7-68.6-164.1-44.1-43.2-103-67-165.9-67" class="st1"/><path id="Path_00000179615226136624014020000010295336573679767476_" d="M273.8 331.2c-73.7 0-133.9-60.3-134.3-134.4-.4-74.5 54-132.2 132.2-140.3l2.2 21.4C195.5 86 160.7 143.4 161 196.7c.3 62.3 50.9 113 112.8 113 31 0 59.8-12.3 81.3-34.7l15.5 14.9c-25.6 26.7-60 41.3-96.8 41.3" class="st0"/><path id="Path_00000052807979714368064620000012510243928718455997_" d="M221.6 460.2v-21.5c43.5 0 81.3-14.3 106.5-40.2 20.3-20.8 30.6-47.7 29.8-77.7-1.6-63.5-51.1-113.2-112.8-113.2-30.9 0-59.8 12.3-81.3 34.6l-15.5-14.9c25.6-26.6 59.9-41.3 96.8-41.3 73.4 0 132.4 58.9 134.3 134.2.9 36-11.5 68.2-35.9 93.3-29.2 30.1-72.6 46.7-121.9 46.7" class="st0"/><path id="Path_00000053547234120077140050000010864496535439661206_" d="M216.3 460.4c-149.8 0-194.7-101.8-196.5-106.3l19.8-8.4c1.7 4 44.1 98.4 189.1 92.9l.8 21.5q-6.75.3-13.2.3" style="fill-rule:evenodd;clip-rule:evenodd;fill:#0071ce"/><path id="Shape_00000092449095102412033420000017987354390243230385_" d="M268.2 175c-21.4 0-38.8-17.4-38.8-38.8s17.4-38.8 38.8-38.8 38.8 17.4 38.8 38.8-17.5 38.8-38.8 38.8m0-56.1c-9.5 0-17.3 7.8-17.3 17.3s7.7 17.3 17.3 17.3 17.3-7.8 17.3-17.3c-.1-9.6-7.8-17.3-17.3-17.3" class="st1"/><path id="Shape_00000071520897922861758130000009241347106329791141_" d="M92.8 211.5c-21.4 0-38.8-17.4-38.8-38.8s17.4-38.8 38.8-38.8 38.8 17.4 38.8 38.8-17.4 38.8-38.8 38.8m0-56.1c-9.5 0-17.3 7.8-17.3 17.3S83.2 190 92.8 190c9.5 0 17.3-7.8 17.3-17.3-.1-9.5-7.8-17.3-17.3-17.3" class="st1"/><path id="Shape_00000072988751725428584940000015758061203115809724_" d="M378.8 223.2c-28.2 0-51.1-22.9-51.1-51.1s22.9-51.1 51.1-51.1 51.1 22.9 51.1 51.1c-.1 28.2-23 51.1-51.1 51.1m0-80.7c-16.3 0-29.5 13.3-29.5 29.6s13.3 29.6 29.5 29.6c16.3 0 29.5-13.3 29.5-29.6s-13.3-29.6-29.5-29.6" class="st1"/><path id="Shape_00000137099666643881934090000007541090060051242154_" d="M93.4 337.2c-28.2 0-51.1-22.9-51.1-51.1S65.2 235 93.4 235s51.1 22.9 51.1 51.1-22.9 51.1-51.1 51.1m0-80.7c-16.3 0-29.5 13.3-29.5 29.6s13.3 29.6 29.5 29.6c16.3 0 29.5-13.3 29.5-29.6s-13.2-29.6-29.5-29.6" class="st1"/><path id="Shape_00000111152135206436386920000005149995534842067107_" d="M434.6 324.3c-24.3 0-44.1-19.8-44.1-44.2s19.8-44.2 44.1-44.2 44.1 19.8 44.1 44.2-19.8 44.2-44.1 44.2m0-66.8c-12.5 0-22.6 10.2-22.6 22.6 0 12.5 10.1 22.6 22.6 22.6s22.6-10.2 22.6-22.6c0-12.5-10.2-22.6-22.6-22.6" class="st1"/><path id="Shape_00000144309142021082545630000008616201881111517608_" d="M177.7 414.9c-24.3 0-44.1-19.8-44.1-44.2s19.8-44.2 44.1-44.2 44.1 19.8 44.1 44.2c0 24.3-19.8 44.2-44.1 44.2m0-66.8c-12.5 0-22.6 10.2-22.6 22.6 0 12.5 10.1 22.6 22.6 22.6s22.6-10.2 22.6-22.6c0-12.5-10.2-22.6-22.6-22.6" class="st1"/></g></g></svg>