<svg xmlns="http://www.w3.org/2000/svg" fill="none" viewBox="0.87 -0.03 16.02 16.03"><path fill="url(#a)" d="M3.213 16h3.983c.315 0 .612-.16.774-.427L16.81.676A.447.447 0 0 0 16.422 0h-5.18a.904.904 0 0 0-.773.427l-7.401 12.64L1.765 16"/><path fill="url(#b)" d="M3.213 16h3.983c.315 0 .612-.16.774-.427L16.81.676A.447.447 0 0 0 16.422 0h-5.18a.904.904 0 0 0-.773.427l-7.401 12.64L1.765 16" opacity=".5" style="mix-blend-mode:hard-light"/><path fill="url(#c)" d="M1.711 0h3.804c.463 0 .836.373.836.835v15.156H1.71a.834.834 0 0 1-.835-.835V.836C.876.372 1.249 0 1.71 0Z"/><path fill="url(#d)" d="M1.711 0h3.804c.463 0 .836.373.836.835v15.156H1.71a.834.834 0 0 1-.835-.835V.836C.876.372 1.249 0 1.71 0Z" opacity=".5" style="mix-blend-mode:hard-light"/><path fill="url(#e)" d="M16.43 15.991h-5.271a.876.876 0 0 1-.756-.426L1.231.675A.447.447 0 0 1 1.613 0H6.6c.311 0 .596.16.756.426l9.448 14.89a.447.447 0 0 1-.383.675h.01Z"/><path fill="url(#f)" d="M16.43 15.991h-5.271a.876.876 0 0 1-.756-.426L1.231.675A.447.447 0 0 1 1.613 0H6.6c.311 0 .596.16.756.426l9.448 14.89a.447.447 0 0 1-.383.675h.01Z" opacity=".5" style="mix-blend-mode:hard-light"/><defs><linearGradient id="a" x1="16.615" x2="1.288" y1=".451" y2="15.067" gradientUnits="userSpaceOnUse"><stop offset=".185" stop-color="#337CFF"/><stop offset=".895" stop-color="#1DDDFD"/></linearGradient><linearGradient id="b" x1="16.615" x2="1.288" y1=".451" y2="15.067" gradientUnits="userSpaceOnUse"><stop offset=".185" stop-color="#337CFF"/><stop offset=".895" stop-color="#1DDDFD"/></linearGradient><linearGradient id="c" x1="3.515" x2="3.076" y1="0" y2="16.076" gradientUnits="userSpaceOnUse"><stop stop-color="#F34BBB"/><stop offset=".75" stop-color="#A055FC"/></linearGradient><linearGradient id="d" x1="3.515" x2="3.076" y1="0" y2="16.076" gradientUnits="userSpaceOnUse"><stop stop-color="#F34BBB"/><stop offset=".75" stop-color="#A055FC"/></linearGradient><linearGradient id="e" x1="1.167" x2="16.401" y1=".999" y2="15.711" gradientUnits="userSpaceOnUse"><stop offset=".055" stop-color="#F34BBB"/><stop offset=".865" stop-color="#FD8C3D"/></linearGradient><linearGradient id="f" x1="1.167" x2="16.401" y1=".999" y2="15.711" gradientUnits="userSpaceOnUse"><stop offset=".055" stop-color="#F34BBB"/><stop offset=".865" stop-color="#FD8C3D"/></linearGradient></defs></svg>