<svg xmlns="http://www.w3.org/2000/svg" xml:space="preserve" id="Layer_1" x="0" y="0" version="1.1" viewBox="0 41.5 512 429"><style>.st0{fill:#fff}</style><path d="M512 41.5H305.3v250h94.9v139.4H146.6v-45.7H256V73.9H0v311.3h107v64.9c0 10.8 9.6 20.4 20.4 20.4h294.5c10.8 0 20.4-8.4 20.4-20.4V291.5H512zM40.9 114.8H214v229.6H40.9zm430.2 135.8H347.3V82.3h123.8z" class="st0"/><path d="M127.4 141.2h51.7v39.7h-51.7zm268-28.8h51.7V152h-51.7zM75.7 198.9h103.4v39.7H75.7zm0 57.7h103.4v39.7H75.7z" class="st0"/></svg>