<svg xmlns="http://www.w3.org/2000/svg" xml:space="preserve" id="Layer_1" x="0" y="0" version="1.1" viewBox="0 0 512 512"><style>.st1{fill:#fff}</style><path d="M76.8 0h358.4C477.6 0 512 34.4 512 76.8v358.4c0 42.4-34.4 76.8-76.8 76.8H76.8C34.4 512 0 477.6 0 435.2V76.8C0 34.4 34.4 0 76.8 0" style="fill:#d32d27"/><circle cx="108" cy="256" r="44" class="st1"/><circle cx="227" cy="256" r="44" class="st1"/><circle cx="347" cy="256" r="44" class="st1"/><path d="M438 160c5.5 0 10 4.6 10 10.2v171.5c0 5.7-4.5 10.2-10 10.2s-10-4.6-10-10.2V170.2c0-5.6 4.5-10.2 10-10.2" class="st1"/></svg>