<svg xmlns="http://www.w3.org/2000/svg" xml:space="preserve" id="Blue" x="0" y="0" version="1.1" viewBox="0 0 512 512"><style>.st0{fill:#036c9e}</style><path d="M256 0C114.7 0 0 114.7 0 256s114.7 256 256 256v-69.9h-.5c-103.2 0-186.9-83.7-186.9-186.9s83.7-187 186.9-187 186.9 83.7 186.9 186.9c0 8.7-.9 17.2-2 25.6 23.8.1 47.4.2 68.9.7 1.2-9.2 2.1-16.6 2.6-25.6C512 114.7 397.3 0 256 0" class="st0"/><path d="M242.7 84.9h25.6v182.3h-25.6z" class="st0"/><path d="M242.7 257.5h139v24h-139z" class="st0"/></svg>