<svg xmlns="http://www.w3.org/2000/svg" xml:space="preserve" id="svg8" x="0" y="0" version="1.1" viewBox="2.52 90.79 506.7 330.65"><style>.st1{fill:#1c1c1c;stroke:#fff;stroke-width:5.25;stroke-linecap:round;stroke-linejoin:round;stroke-miterlimit:10}</style><g id="layer1" transform="translate(-36.38 -256.786)"><path id="path817-3" d="M104.9 350.2h-1.5c-2.3 0-4.7.2-7 .5-18.4 2.1-34.9 11.9-45 29-9.9 16.7-12.4 35.1-7.3 52.2s17.3 32.6 35.5 44.9c.1.1.2.1.3.2 15.6 9.4 31.1 15.7 47.7 19-.4 6.9-.4 13.9 0 21.1 1.3 21.8 9 41.9 20.7 59.6l-41.8 17.1c-4.5 1.8-6.7 6.9-4.9 11.4s7 6.6 11.4 4.7l46-18.8c8.5 10.2 18.3 19.4 28.9 27.5l1.2.9-27 35.7c-3 3.8-2.2 9.3 1.6 12.3s9.4 2.1 12.2-1.8l27.4-36.3c15 9.5 31 17 46.8 21.9 8.1 14.8 23.9 24.3 42.2 24.3 18.4 0 34.3-10.2 42.3-24.7 15.6-5 31.4-12.5 46.3-22l27.8 36.8c2.9 3.9 8.4 4.7 12.2 1.8 3.9-2.9 4.6-8.4 1.6-12.3L395.1 619c.2-.1.4-.3.5-.4 10.4-8 20.1-17 28.6-27l44.9 18.3c4.5 1.9 9.6-.2 11.4-4.7s-.4-9.6-4.9-11.4l-40.5-16.5c12-17.8 20.1-38.1 21.8-60q.9-10.95.3-21.3c16.5-3.3 31.9-9.6 47.4-18.9.1-.1.2-.1.3-.2 18.2-12.3 30.4-27.8 35.5-44.9s2.6-35.5-7.3-52.2c-10.1-17.1-26.7-26.8-45-29-2.3-.3-4.6-.4-7-.5-16.4-.3-33.9 4.8-50.8 14.5-12.4 7.2-23.6 18.1-32.3 30.1-24.5-14-56.3-21.9-95.4-22.5-3.5-.1-7.1-.1-10.7 0-43.6.7-78.5 9-104.8 23.9-.1-.1-.1-.2-.2-.3-8.9-12.4-20.3-23.8-33.1-31.1-16-9.6-32.9-14.7-48.9-14.7" style="fill:none;stroke:#1c1c1c;stroke-width:5.25;stroke-linecap:round;stroke-linejoin:round;stroke-miterlimit:10"/><path id="path1087" fill="#fff" d="M403.7 400.3c8.3-11.6 19.2-22.3 30.7-29 36.2-20.9 74.5-18.1 92.4 12.2 18 30.3 8.1 63.8-25.9 86.9-17.4 10.5-34.2 16.8-52.8 19.3m-267-89.4c-8.3-11.6-19.2-22.3-30.7-29-36.2-20.9-74.5-18.1-92.4 12.2-18 30.3-8.1 63.8 25.9 86.9 17.4 10.5 34.2 16.8 52.8 19.3" class="st1"/><path id="path969" fill="#fff" d="M449.6 516.5c6.3-81.4-43.8-138.5-157.2-136.7-113.4 1.9-162.1 55.8-157.2 136.7 4.7 77.2 96.1 133.9 156.6 133.9s151.8-56.8 157.8-133.9" class="st1"/><path id="path1084" fill="#fff" d="M345.9 553.1c0 12.6 10.2 22.7 22.7 22.7s22.7-10.2 22.7-22.7c0-12.6-10.2-22.7-22.7-22.7s-22.7 10.2-22.7 22.7m-152.5 0c0 12.7 10.3 23 22.9 23 12.7 0 22.9-10.3 22.9-23s-10.3-23-22.9-23c-12.6.1-22.9 10.4-22.9 23"/><path id="path1008" d="m198.8 621-29.6 39.2M386 621l29.6 39.2m-258.2-78-47.7 19.5m315.2-19.5 47.7 19.5" style="fill:none;stroke:#fff;stroke-width:6;stroke-linecap:round;stroke-miterlimit:10"/><path id="path1115" fill="#fff" d="M292.4 590.5c-24.9 0-40.8 17.3-40.3 38.6.6 23.1 17.6 38.6 40.3 38.6s40.2-17.9 40.3-38.6c0-21.3-15.4-38.6-40.3-38.6" class="st1"/></g></svg>