<svg xmlns="http://www.w3.org/2000/svg" xml:space="preserve" id="Layer_1" x="0" y="0" version="1.1" viewBox="0 0 512 512"><style>.st0{fill:#d1d3d4}</style><g id="XMLID_7_"><path d="M43.7 265.2c5 117 104.2 208 221.5 202.7 117-5 208-104.2 202.7-221.5-5-117-104.2-208-221.5-202.7C129.8 49 39 148.2 43.7 265.2m468-20.3C518 386 408.5 505.8 267.1 511.7 125.7 518 6.2 408.5.3 267.1-6 126 103.5 6.2 244.9.2 386-5.7 505.5 103.8 511.7 244.9" class="st0"/><path d="M410.7 233.6c1.9 13.5 1.9 27.2 0 40.7l28.5 3.8c2.2-16 2.2-32.2 0-48.2zm-2.5-13.4 28.2-6.3c-3.4-15.6-9.1-31-16.6-45.4l-25.7 13.1c6.6 12.6 11.3 25.4 14.1 38.6m-20.7-50.1 24.1-15.3c-8.4-13.5-18.8-25.7-31-36.9l-19.4 21.3c10.4 9 19.2 19.7 26.3 30.9m-71.9-60.4c12.5 5 24.4 11.9 35.4 20.3l17.5-22.8c-13.1-10-27.2-18.1-41.6-24.1zm-50.7-11.5c12.8.6 25.7 3.1 37.9 6.9l8.8-27.5c-15.3-5-31.6-7.8-47.6-8.4l-.6 16.6zm-16.3-11.6-.6-17.2c-16 .6-32.2 3.4-47.6 8.4l8.8 27.5c12.5-3.8 25-6.3 37.9-6.9zM247.1 44c117-5 216.2 85.7 221.5 202.7 5 117-85.7 216.2-202.7 221.5-117 5-216.2-85.7-221.5-202.7C39 148.2 129.8 49 247.1 44m-18.2 210.9c0 21.6 12.2 39.1 27.2 39.1s27.2-17.5 27.2-39.1l-2.5-16-24.6-168.6-24.7 168.6zM92.2 339.4l25.7-13.1c-6.3-12.2-10.9-25-13.8-38.2L76 294.3c2.8 15.3 8.4 30.7 16.2 45.1M72.5 278l28.5-3.8c-1.9-13.5-1.9-27.2 0-40.7l-28.5-3.8c-2.2 16.1-2.2 32.4 0 48.3m347.3 61.4c7.5-14.4 13.1-29.7 16.6-45.4l-28.2-6.3c-2.8 13.1-7.5 26-14.1 38.2zm-87.9 50v-21.6h-21.6v21.6zm-43.5 0v-21.6h-21.6v21.6zm-43.5 0v-21.6h-21.6v21.6zm-43.2 0v-21.6h-21.6v21.6zm-5.6-279.7-10.9-26.6c-14.7 5.9-28.8 14.1-41.9 24.1l17.5 22.8c11.2-8.4 22.8-15.3 35.3-20.3m-45.7 29.1L131 117.6c-4.1 3.4-7.8 7.5-11.3 11.3-7.5 8.1-14.1 16.6-19.7 25.7l24.4 15.3c4.7-7.5 10.3-14.7 16.6-21.6 2.8-3.2 6-6.3 9.4-9.5M117.3 182l-25.7-13.1c-7.5 14.4-13.1 29.7-16.6 45.4l28.2 6.3c3.1-13.6 7.8-26.4 14.1-38.6"/><path d="m439.2 278-28.5-3.8c1.9-13.5 1.9-27.2 0-40.7l28.5-3.8c1.8 16.1 1.8 32.4 0 48.3" style="fill:#ed1c24"/><path d="M419.8 168.5c7.5 14.4 13.1 29.7 16.6 45.4l-28.2 6.3c-2.8-13.1-7.5-26-13.8-38.2z" style="fill:#ef4136"/><path d="m419.8 339.4-25.7-13.1c6.3-12.2 10.9-25 14.1-38.2l28.2 6.3c-3.5 15.2-9.1 30.6-16.6 45" style="fill:#be1e2d"/><path d="m411.6 154.8-24.1 15.3c-7.2-11.3-16-21.9-26.3-31.3l19.4-21.3c12.3 11.3 22.6 23.8 31 37.3" style="fill:#f15a29"/><path d="M368.5 107.2 351 130c-10.9-8.4-22.8-15.3-35.4-20.3l10.9-26.6c14.7 6.3 28.8 14.1 42 24.1" style="fill:#f7941d"/><path d="M310 367.8h21.6v21.6H310zm-43.2 0h21.6v21.6h-21.6zM264 69.4c16 .6 32.2 3.4 47.6 8.4l-8.8 27.5c-12.2-3.8-25-6.3-37.9-6.9L263 86.3z" class="st0"/><path d="M255.8 245.2c6.6 0 12.2 5.3 12.2 12.2 0 6.6-5.3 12.2-12.2 12.2-6.6 0-12.2-5.3-12.2-12.2.4-6.9 5.7-12.2 12.2-12.2" style="fill:#e6e7e8"/><linearGradient id="SVGID_1_" x1="255.844" x2="255.844" y1="649.873" y2="595.648" gradientTransform="translate(0 -467.56)" gradientUnits="userSpaceOnUse"><stop offset="0" style="stop-color:#1b75bc"/><stop offset="1" style="stop-color:#00aeef"/><stop offset="1" style="stop-color:#000"/></linearGradient><path d="M283.1 254.9c0 21.6-12.2 39.1-27.2 39.1s-27.2-17.5-27.2-39.1l2.2-16 24.7-168.6 24.7 168.6zm-15.1 2.2c0-6.6-5.3-12.2-12.2-12.2-6.6 0-12.2 5.3-12.2 12.2 0 6.6 5.3 12.2 12.2 12.2S268 264 268 257.1" style="fill:url(#SVGID_1_)"/><path d="M200.2 77.5c15.3-4.7 31.3-7.5 47.6-8.4l.6 17.2-1.6 11.6c-12.8.6-25.7 3.1-37.9 6.9zm23.4 290.3h21.6v21.6h-21.6zm-43.5 0h21.6v21.6h-21.6zm-36.9-260.6c13.1-10 27.2-18.1 41.9-24.1l10.9 26.6c-12.5 5-24.4 11.9-35.4 20.3zm-11.9 10.7 19.4 21.3c-3.4 3.1-6.6 6.3-9.7 9.7-6.3 6.9-11.9 14.1-16.6 21.6L100 155.2c5.6-9.1 12.2-17.5 19.7-25.7 3.8-4.4 7.3-8.2 11.6-11.6m-14 208.3-25.7 13.1C84.1 325 78.5 309.6 75 294l28.2-6.3c3.1 13.2 7.8 26.3 14.1 38.5M101 274.3 72.5 278c-2.2-16-2.2-32.2 0-48.2l28.5 3.8c-1.9 13.5-1.9 27.2 0 40.7m-25.7-60.4c3.4-15.6 9.1-31 16.6-45.4l25.7 13.1c-6.3 12.2-10.9 25-14.1 38.2z" class="st0"/></g></svg>