<svg xmlns="http://www.w3.org/2000/svg" xml:space="preserve" viewBox="76.88 -0.42 358.25 512.85"><linearGradient id="a" x1="184.66" x2="608.832" y1="127.222" y2="127.222" gradientTransform="matrix(.8485 0 0 -.8485 -80.62 363.942)" gradientUnits="userSpaceOnUse"><stop offset="0" style="stop-color:#dbd0bd"/><stop offset="1" style="stop-color:#d9bfb2"/></linearGradient><path d="M137.3 0c-5.5 0-10.3 4-11.1 9.5l-6.3 39.2H83.1c-3.2 0-5.8 2.6-5.8 5.8v27.4c0 3.2 2.6 5.8 5.8 5.8h22.2L161 502.5c.7 5.5 5.4 9.5 10.9 9.5H340c5.5 0 10.2-4.1 10.9-9.5l55.7-414.8h22.2c3.2 0 5.8-2.6 5.8-5.8V54.5c0-3.2-2.6-5.8-5.8-5.8H392l-6.3-39.2c-.8-5.5-5.5-9.5-11-9.5z" style="fill:url(#a);stroke:#000;stroke-width:.8485;stroke-miterlimit:11.3386;stroke-opacity:0"/><linearGradient id="b" x1="69.735" x2="70.163" y1="569.591" y2="549.481" gradientTransform="matrix(3.2324 0 0 -3.2068 29.97 1901.686)" gradientUnits="userSpaceOnUse"><stop offset="0" style="stop-color:#7b6254"/><stop offset="1" style="stop-color:#c8b8af"/></linearGradient><path d="m103.7 85.2 2.6 21.9h298.5l2.6-21.9z" style="fill-rule:evenodd;clip-rule:evenodd;fill:url(#b)"/><path d="M137.3 0c-5.5 0-10.3 4-11.1 9.5l-6.3 39.2H83.1c-3.2 0-5.8 2.6-5.8 5.8v27.4c0 3.2 2.6 5.8 5.8 5.8h345.8c3.2 0 5.8-2.6 5.8-5.8V54.5c0-3.2-2.6-5.8-5.8-5.8h-36.8l-6.3-39.2C384.9 4 380.2 0 374.7 0z" style="fill:#413620;stroke:#000;stroke-width:.8485;stroke-miterlimit:11.3386;stroke-opacity:0"/><text style="fill:#413620;font-family:&quot;KozGoPr6N-Regular-90ms-RKSJ-H&quot;;font-size:161.7001px" transform="translate(177.228 293.134)">文</text></svg>