<svg xmlns="http://www.w3.org/2000/svg" xmlns:xlink="http://www.w3.org/1999/xlink" version="1.1" id="Layer_1" x="0px" y="0px" enable-background="new 0 0 250 60" xml:space="preserve" viewBox="4.12 1.08 44.52 57.73">


<g>
	
	<g>
		<g>
			<path fill="#5E8CDA" d="M48.215,29.117L34.938,15.841l-5.656,7.178l6.099,6.098c0.562,0.563,0.562,1.483,0,2.045l-1.765,1.765     c0,0,1.189,1.779,1.244,1.888c0.274,0.55,0.34,1.841-0.438,2.432L20.552,47.893c-0.003,3.572-0.007,10.92-0.002,10.923     c0.003,0.001,27.665-27.653,27.665-27.653C48.778,30.599,48.778,29.681,48.215,29.117z"/>
			<path fill="#093071" d="M17.375,30.789c-0.562-0.562-0.562-1.479,0-2.043l1.766-1.766l-1.207-1.735     c-0.576-0.816-0.396-1.975,0.399-2.582l13.871-10.648L32.214,1.1l-0.009-0.006l-0.007-0.01L4.539,28.746     c-0.563,0.564-0.563,1.481,0.001,2.045l13.276,13.276l5.657-7.181L17.375,30.789z"/>
		</g>
		<g>
			<polygon fill="#FFFFFF" points="26.611,39.554 26.611,39.554 20.192,45.973    "/>
		</g>
		<g>
			<g>
				<g>
					<path fill="#5E8CDA" d="M39.195,7.751c0.185,0,0.371,0.117,0.453,0.282c0.146,0.302-0.046,0.585-0.239,0.828L27.254,24.289       c-0.175,0.224-0.188,0.655-0.028,0.888c0,0,6.561,9.514,6.787,9.84c0.249,0.359,0.266,1.422-0.305,1.854L14.166,51.873       c-0.278,0.214-0.436,0.283-0.629,0.285c-0.175-0.012-0.356-0.131-0.431-0.281c-0.146-0.298,0.047-0.587,0.238-0.833       l12.153-15.425c0.176-0.232,0.191-0.646,0.029-0.888l-6.783-9.757c-0.431-0.612-0.297-1.481,0.299-1.937L38.589,8.033       C38.906,7.786,39.067,7.751,39.195,7.751 M39.195,7.501c-0.235,0-0.455,0.096-0.76,0.334L18.891,22.839       c-0.702,0.537-0.859,1.558-0.352,2.279l6.782,9.755c0.1,0.149,0.088,0.447-0.023,0.594L13.147,50.89       c-0.16,0.206-0.493,0.635-0.266,1.098c0.114,0.23,0.376,0.402,0.639,0.42c0.306-0.002,0.523-0.125,0.798-0.336L33.86,37.068       c0.676-0.512,0.678-1.732,0.358-2.194c-0.226-0.326-6.786-9.84-6.786-9.84c-0.1-0.144-0.09-0.453,0.019-0.591L39.605,9.016       c0.16-0.202,0.494-0.624,0.268-1.092C39.748,7.671,39.477,7.501,39.195,7.501L39.195,7.501z"/>
				</g>
			</g>
			<g>
				<path fill="#F5CD21" d="M33.517,35.054c0.158,0.239,0.299,1.14-0.096,1.44L13.875,51.496c-0.164,0.128-0.27,0.188-0.316,0.185      c-0.067,0.004-0.019-0.115,0.161-0.346l12.149-15.419c0.307-0.396,0.327-1.048,0.045-1.455l-6.781-9.759      C19.133,24.702,33.359,34.814,33.517,35.054z"/>
			</g>
			<g>
				<path fill="#FDDD75" d="M33.517,35.054l-6.679-9.607c-0.283-0.408-0.26-1.061,0.044-1.449l12.15-15.425      c0.181-0.23,0.228-0.346,0.163-0.346c-0.049,0-0.156,0.057-0.317,0.185L19.332,23.415c-0.393,0.301-0.484,0.883-0.199,1.288      L33.517,35.054z"/>
			</g>
		</g>
	</g>
</g>
</svg>