<svg xmlns="http://www.w3.org/2000/svg" viewBox="0 0 181.9 70"><g id="svgGroup" stroke-linecap="round" fill-rule="evenodd" font-size="9pt" stroke="#222222" stroke-width="0mm" fill="#222222" style="stroke:#222222;stroke-width:0mm;fill:#222222"><path d="M 0 70.001 L 0 0.001 L 11 0.001 L 11 60.001 L 29.1 60.001 L 29.1 70.001 L 0 70.001 Z" id="0" vector-effect="non-scaling-stroke"/><path d="M 34.4 70.001 L 34.4 0.001 L 45.4 0.001 L 45.4 60.001 L 63.5 60.001 L 63.5 70.001 L 34.4 70.001 Z" id="1" vector-effect="non-scaling-stroke"/><path d="M 68.8 70.001 L 68.8 0.001 L 85.6 0.001 Q 93.8 0.001 97.9 4.401 Q 102 8.801 102 17.301 L 102 52.701 Q 102 61.201 97.9 65.601 Q 93.8 70.001 85.6 70.001 L 68.8 70.001 Z M 79.8 60.001 L 85.4 60.001 Q 88.1 60.001 89.55 58.401 Q 91 56.801 91 53.201 L 91 16.801 Q 91 13.201 89.55 11.601 Q 88.1 10.001 85.4 10.001 L 79.8 10.001 L 79.8 60.001 Z" id="2" vector-effect="non-scaling-stroke"/><path d="M 106.3 70.001 L 117.7 0.001 L 132.6 0.001 L 144 70.001 L 133 70.001 L 131 56.101 L 131 56.301 L 118.5 56.301 L 116.5 70.001 L 106.3 70.001 Z M 119.8 46.801 L 129.7 46.801 L 124.8 12.201 L 124.6 12.201 L 119.8 46.801 Z" id="3" vector-effect="non-scaling-stroke"/><path d="M 149.3 70.001 L 149.3 0.001 L 165.5 0.001 Q 173.7 0.001 177.8 4.401 Q 181.9 8.801 181.9 17.301 L 181.9 24.201 Q 181.9 32.701 177.8 37.101 Q 173.7 41.501 165.5 41.501 L 160.3 41.501 L 160.3 70.001 L 149.3 70.001 Z M 160.3 31.501 L 165.5 31.501 Q 168.2 31.501 169.55 30.001 Q 170.9 28.501 170.9 24.901 L 170.9 16.601 Q 170.9 13.001 169.55 11.501 Q 168.2 10.001 165.5 10.001 L 160.3 10.001 L 160.3 31.501 Z" id="4" vector-effect="non-scaling-stroke"/></g></svg>