<svg xmlns="http://www.w3.org/2000/svg" xmlns:xlink="http://www.w3.org/1999/xlink" version="1.1" viewBox="0 0 83.25 90.42">
    <title>localxpose</title>
    <defs>
        <linearGradient x1="46.7867112%" y1="105.010815%" x2="53.4240464%" y2="-8.36453132%" id="linearGradient-1">
            <stop stop-color="#5C3990" offset="0%"/>
            <stop stop-color="#E23E57" offset="100%"/>
        </linearGradient>
        <linearGradient x1="34.8781337%" y1="196.830203%" x2="57.5766017%" y2="-40.5609996%" id="linearGradient-2">
            <stop stop-color="#5C3990" offset="0%"/>
            <stop stop-color="#E23E57" offset="100%"/>
        </linearGradient>
        <linearGradient x1="43.0575916%" y1="134.286834%" x2="65.8080279%" y2="-105.140089%" id="linearGradient-3">
            <stop stop-color="#5C3990" offset="0%"/>
            <stop stop-color="#E23E57" offset="100%"/>
        </linearGradient>
        <linearGradient x1="38.5185333%" y1="230.266041%" x2="72.5195684%" y2="-304.522692%" id="linearGradient-4">
            <stop stop-color="#5C3990" offset="0%"/>
            <stop stop-color="#E23E57" offset="100%"/>
        </linearGradient>
        <linearGradient x1="35.1956182%" y1="282.982525%" x2="69.2018779%" y2="-251.797181%" id="linearGradient-5">
            <stop stop-color="#5C3990" offset="0%"/>
            <stop stop-color="#E23E57" offset="100%"/>
        </linearGradient>
        <linearGradient x1="31.7286703%" y1="337.169597%" x2="65.877431%" y2="-199.851181%" id="linearGradient-6">
            <stop stop-color="#5C3990" offset="0%"/>
            <stop stop-color="#E23E57" offset="100%"/>
        </linearGradient>
        <linearGradient x1="28.4092158%" y1="390.010471%" x2="62.5222362%" y2="-146.732984%" id="linearGradient-7">
            <stop stop-color="#5C3990" offset="0%"/>
            <stop stop-color="#E23E57" offset="100%"/>
        </linearGradient>
    </defs>
    <g id="Page-1" stroke="none" stroke-width="1" fill="none" fill-rule="evenodd">
        <g id="localxpose" transform="translate(0, -0.0004)">
            <path d="M2.22,67.454421 C0.77,64.624421 0.08,61.574421 0.08,58.284421 L0.08,31.474421 L0,31.474421 C0,28.034421 0.99,24.834421 2.75,22.004421 C4.51,19.254421 6.95,16.964421 10.01,15.514421 L32.77,2.37442099 C35.6,0.694420985 38.65,-0.0655790147 41.78,0.0044209853 C44.84,0.0044209853 47.89,0.844420985 50.64,2.44442099 C68.74,12.834421 60.42,8.02442099 62.78,9.39442099 C66.6,11.604421 70.42,13.824421 74.31,16.034421 C77.37,17.794421 79.5,20.154421 81.03,22.904421 C82.56,25.734421 83.17,28.784421 83.17,32.074421 L83.25,58.954421 C83.25,62.314421 82.26,65.594421 80.5,68.344421 C78.74,71.094421 76.3,73.384421 73.24,74.914421 L50.48,88.054421 C47.65,89.654421 44.6,90.424421 41.47,90.424421 C38.41,90.344421 35.36,89.584421 32.61,87.984421 C16.27,78.514421 23.52,82.714421 20.92,81.184421 C9.85,74.844421 20.08,80.724421 8.93,74.314421 C5.89,72.574421 3.75,70.274421 2.22,67.454421 L2.22,67.454421 Z M23.91,77.844421 C26.28,79.214421 28.65,80.594421 31.01,81.964421 L31.09,81.884421 L34.91,84.094421 C36.9,85.314421 39.19,85.924421 41.55,86.004421 C43.92,86.004421 46.21,85.394421 48.27,84.174421 L71.18,70.964421 L71.33,70.964421 C73.54,69.814421 75.38,68.134421 76.75,66.004421 L77.21,65.244421 C78.13,63.564421 78.66,61.804421 78.74,59.894421 L78.74,32.094421 C78.74,29.654421 78.28,27.204421 77.14,25.064421 C76.07,23.074421 74.62,21.474421 72.71,20.324421 L72.1,19.944421 C68.28,17.734421 64.46,15.514421 60.64,13.374421 C60.64,13.294421 60.56,13.294421 60.49,13.224421 L60.41,13.224421 C60.26,13.144421 60.18,13.074421 60.03,12.994421 C59.5,12.684421 58.88,12.304421 58.35,12.004421 C54.99,10.094421 51.71,8.18442099 48.42,6.27442099 C46.36,5.12442099 44.07,4.44442099 41.7,4.44442099 C39.41,4.44442099 37.04,5.05442099 34.98,6.20442099 L12.07,19.414421 L11.99,19.494421 C9.7,20.564421 7.87,22.324421 6.57,24.384421 L6.04,25.144421 C5.2,26.824421 4.67,28.654421 4.51,30.494421 L4.51,58.294421 C4.51,60.814421 4.97,63.184421 6.19,65.394421 C7.34,67.534421 9.02,69.214421 11.15,70.514421 C15.12,72.804421 19.17,75.094421 23.14,77.384421 C23.29,77.464421 23.45,77.534421 23.67,77.694421 C23.67,77.694421 23.75,77.694421 23.9,77.774421 L23.9,77.844421 L23.91,77.844421 Z" id="Shape" fill="url(#linearGradient-1)" fill-rule="nonzero"/>
            <path d="M36.9,35.604421 C36.9,38.274421 34.69,40.414421 32.09,40.414421 C29.42,40.414421 27.28,38.274421 27.28,35.604421 C27.28,33.004421 25.14,30.864421 22.54,30.864421 C19.87,30.864421 17.73,28.724421 17.73,26.054421 C17.73,23.454421 19.87,21.314421 22.54,21.314421 C25.14,21.314421 27.28,23.454421 27.28,26.054421 C27.28,28.724421 29.42,30.864421 32.09,30.864421 C34.69,30.864421 36.9,28.724421 36.9,26.054421 C36.9,23.454421 39.04,21.314421 41.64,21.314421 C44.31,21.314421 46.45,23.454421 46.45,26.054421 C46.45,28.724421 44.31,30.864421 41.64,30.864421 C39.03,30.864421 36.9,33.004421 36.9,35.604421 L36.9,35.604421 Z" id="Path" fill="url(#linearGradient-2)"/>
            <path d="M46.44,54.774421 C46.44,52.104421 48.58,49.964421 51.18,49.964421 C53.85,49.964421 55.99,52.104421 55.99,54.774421 C55.99,57.444421 58.13,59.584421 60.8,59.584421 C63.4,59.584421 65.54,61.724421 65.54,64.324421 C65.54,66.994421 63.4,69.134421 60.8,69.134421 C58.13,69.134421 55.99,66.994421 55.99,64.324421 C55.99,61.724421 53.85,59.584421 51.18,59.584421 C48.58,59.584421 46.44,61.724421 46.44,64.324421 C46.44,66.994421 44.3,69.134421 41.63,69.134421 C39.03,69.134421 36.89,66.994421 36.89,64.324421 C36.89,61.724421 39.03,59.584421 41.63,59.584421 C44.3,59.584421 46.44,57.444421 46.44,54.774421 Z" id="Path" fill="url(#linearGradient-3)"/>
            <path d="M35.45,51.414421 C36.29,52.254421 36.9,53.474421 36.9,54.774421 C36.9,57.444421 34.69,59.584421 32.09,59.584421 C29.42,59.584421 27.28,61.724421 27.28,64.324421 C27.28,66.994421 25.14,69.134421 22.54,69.134421 C21.17,69.134421 20.02,68.604421 19.1,67.684421 C18.2202809,66.7874819 17.7282568,65.5807658 17.7299954,64.324421 C17.7299954,61.724421 19.87,59.584421 22.54,59.584421 C25.14,59.584421 27.28,57.444421 27.28,54.774421 C27.28,52.104421 29.42,49.964421 32.09,49.964421 C33.38,49.964421 34.6,50.494421 35.45,51.414421 L35.45,51.414421 Z" id="Path" fill="url(#linearGradient-4)"/>
            <path d="M44.99,41.794421 C45.91,42.714421 46.44,43.854421 46.44,45.234421 C46.44,47.834421 44.3,49.974421 41.63,49.974421 C39.03,49.974421 36.89,52.114421 36.89,54.784421 C36.89,57.454421 34.68,59.594421 32.08,59.594421 C30.78,59.594421 29.56,59.064421 28.72,58.144421 C27.8,57.304421 27.27,56.084421 27.27,54.784421 C27.27,52.114421 29.41,49.974421 32.08,49.974421 C34.68,49.974421 36.89,47.834421 36.89,45.234421 C36.89,42.564421 39.03,40.4242844 41.63,40.4242844 C42.93,40.414421 44.15,40.954421 44.99,41.794421 Z" id="Path" fill="url(#linearGradient-5)"/>
            <path d="M54.62,32.244421 C55.46,33.084421 55.99,34.304421 55.99,35.604421 C55.99,38.274421 53.85,40.414421 51.18,40.414421 C48.58,40.414421 46.44,42.554421 46.44,45.224421 C46.44,47.824421 44.3,49.964421 41.63,49.964421 C40.33,49.964421 39.11,49.434421 38.27,48.594421 C37.3902809,47.6974819 36.8982568,46.4907658 36.8999954,45.234421 C36.8999954,42.564421 39.04,40.424421 41.64,40.424421 C44.31,40.424421 46.45,38.284421 46.45,35.614421 C46.45,33.014421 48.59,30.8742844 51.19,30.8742844 C52.55,30.864421 53.7,31.404421 54.62,32.244421 Z" id="Path" fill="url(#linearGradient-6)"/>
            <path d="M64.16,22.694421 C65,23.534421 65.53,24.754421 65.53,26.054421 C65.53,28.724421 63.39,30.864421 60.79,30.864421 C58.12,30.864421 55.98,33.004421 55.98,35.604421 C55.98,38.274421 53.84,40.414421 51.17,40.414421 C49.87,40.414421 48.65,39.884421 47.81,39.044421 C46.97,38.124421 46.44,36.984421 46.44,35.604421 C46.44,33.004421 48.58,30.864421 51.18,30.864421 C53.85,30.864421 55.99,28.724421 55.99,26.054421 C55.99,23.454421 58.13,21.314421 60.8,21.314421 C62.1,21.324421 63.32,21.854421 64.16,22.694421 Z" id="Path" fill="url(#linearGradient-7)"/>
        </g>
    </g>
</svg>