<?xml version="1.0" encoding="UTF-8"?>
<svg version="1.1" xmlns="http://www.w3.org/2000/svg" width="1553" height="1268">
<path d="M0 0 C0.33 0 0.66 0 1 0 C0.39188247 7.4391741 -1.2137392 14.35351376 -3.140625 21.5546875 C-3.61100189 23.33853348 -3.61100189 23.33853348 -4.09088135 25.15841675 C-6.89834327 35.74910089 -9.83244723 46.3030274 -12.82043457 56.84399414 C-14.35362313 62.25555579 -15.87716622 67.66983186 -17.40093231 73.08405304 C-17.78210076 74.43838028 -18.16335291 75.79268396 -18.54468536 77.14696503 C-34.61206329 134.2138878 -50.4523539 191.34606914 -66.05329895 248.54223633 C-68.62852388 257.98271532 -71.21034489 267.42136299 -73.79723549 276.85865211 C-90.11463201 336.38791845 -106.12823775 395.99401459 -121.92799377 455.66278076 C-122.18175561 456.62061337 -122.43551744 457.57844597 -122.69696903 458.5653038 C-123.16048216 460.31496177 -123.62368901 462.06470093 -124.08648586 463.81454849 C-125.69495818 469.88492806 -127.34752768 475.94093484 -129 482 C45.57 482 220.14 482 400 482 C397.07095957 484.92904043 395.02856542 486.13887404 391.34765625 487.8984375 C390.19402588 488.45305664 389.04039551 489.00767578 387.85180664 489.57910156 C386.58881783 490.17797359 385.32571223 490.77659938 384.0625 491.375 C382.74518519 492.00451436 381.42804933 492.63440331 380.11108398 493.26464844 C370.4934234 497.85724471 360.83114306 502.35335853 351.15625 506.82397461 C341.09949502 511.47480661 331.0758847 516.19405629 321.0625 520.9375 C320.25066254 521.32203339 319.43882507 521.70656677 318.60238647 522.10275269 C306.82768838 527.68301657 295.08598124 533.32802774 283.36328125 539.01660156 C275.13698273 542.99774096 266.86240684 546.86299431 258.5625 550.6875 C249.29292472 554.96068116 240.11689614 559.37574788 231.00732422 563.97949219 C221.73377343 568.66131783 212.35858425 573.12162512 202.97705078 577.58203125 C197.85406561 580.02210816 192.73976951 582.4802604 187.625 584.9375 C185.51303882 585.95186037 183.40105963 586.96618323 181.2890625 587.98046875 C180.24395508 588.48239746 179.19884766 588.98432617 178.12207031 589.50146484 C175.08988645 590.95685619 172.05681909 592.41038816 169.0234375 593.86328125 C148.34441581 603.77099523 127.711946 613.77458123 107.1015625 623.82421875 C106.26921585 624.23005692 105.4368692 624.63589508 104.57929993 625.05403137 C101.21103902 626.69642603 97.84279868 628.33886254 94.474823 629.98184204 C84.64669971 634.77569535 74.80710622 639.54204714 64.9375 644.25 C54.69562366 649.1379736 44.54218912 654.19339914 34.41381836 659.31152344 C28.30416375 662.38882687 22.17344593 665.40274483 15.98980331 668.32786655 C-0.80100987 676.28428744 -17.3995326 684.62614197 -34.0150156 692.94034505 C-38.37762813 695.12293894 -42.74123604 697.30354133 -47.10467529 699.48448181 C-54.42076185 703.14162199 -61.73601545 706.80042402 -69.05078125 710.46020508 C-77.45378414 714.66443 -85.85822782 718.86576361 -94.26341939 723.06561095 C-101.54384371 726.70353967 -108.82347303 730.34305549 -116.10246348 733.98385233 C-120.4221595 736.14447149 -124.74210791 738.30458135 -129.06278229 740.46324348 C-133.88314309 742.87178166 -138.70239119 745.28253227 -143.52050781 747.69555664 C-144.26929955 748.07049708 -145.01809128 748.44543751 -145.78957367 748.83173978 C-155.03960493 753.46695828 -164.26583237 758.13838305 -173.36439896 763.06676579 C-177.86046587 765.48555676 -182.43944246 767.50402627 -187.171875 769.4140625 C-189.0729705 770.21754078 -190.97010034 771.02956698 -192.86621094 771.84472656 C-194.13187884 772.36897159 -195.41006241 772.86387973 -196.69824219 773.33007812 C-202.30875609 775.39222996 -207.28147665 777.71491765 -210.15475464 783.20739746 C-212.45028918 789.11516602 -213.81047333 795.2600387 -215.18292236 801.4352417 C-216.46511421 807.02920709 -218.0107753 812.54839041 -219.52727699 818.08252716 C-220.45223422 821.47946798 -221.35159598 824.88315731 -222.25219727 828.28662109 C-222.63112492 829.71655098 -223.01012374 831.14646201 -223.38919067 832.57635498 C-223.58105579 833.30012077 -223.77292091 834.02388657 -223.97060013 834.76958466 C-225.84712916 841.8407792 -227.7354949 848.90882618 -229.625 855.9765625 C-229.84244432 856.7899773 -230.05988865 857.60339211 -230.2839222 858.44145584 C-238.3724063 888.68090216 -246.73308232 918.8466507 -255.07115555 949.01801205 C-256.48993596 954.15231593 -257.90690486 959.28711571 -259.32226562 964.42236328 C-277.36159449 1029.8698528 -295.8038019 1095.20499405 -314.26181793 1160.53540802 C-315.17826829 1163.77981797 -316.09418114 1167.02437921 -317.00994873 1170.26898193 C-318.45675468 1175.39464458 -319.90527738 1180.51981921 -321.35506248 1185.64463997 C-321.88425566 1187.51616305 -322.41292976 1189.387833 -322.9410038 1191.25967216 C-326.50166219 1203.87870907 -330.19780997 1216.45160466 -334 1229 C-335.29053345 1224.68840776 -334.50536673 1221.04728665 -333.67431641 1216.71069336 C-333.5189677 1215.8641173 -333.36361898 1215.01754124 -333.20356274 1214.14531136 C-332.6776993 1211.29191625 -332.1396546 1208.44095618 -331.6015625 1205.58984375 C-331.22034106 1203.53710508 -330.83979972 1201.48424001 -330.45988464 1199.43125916 C-329.41346395 1193.79021845 -328.35590541 1188.15131588 -327.29608536 1182.51277924 C-326.39219627 1177.69721314 -325.49431502 1172.88053401 -324.59621906 1168.06388474 C-313.27024746 1107.33705557 -301.64580236 1046.66614856 -290 986 C-289.79284678 984.92083895 -289.79284678 984.92083895 -289.58150864 983.81987667 C-284.22653285 955.92344248 -278.86618045 928.02804174 -273.49731445 900.13427734 C-273.25153939 898.85733757 -273.00576433 897.5803978 -272.75254154 896.26476288 C-271.55368064 890.03669854 -270.3542416 883.80874635 -269.15376282 877.58099365 C-267.03323535 866.57811805 -264.9165727 855.5745559 -262.81658649 844.56773853 C-261.88134499 839.66621806 -260.94411254 834.76507911 -260.00681877 829.86395073 C-259.565595 827.55332218 -259.12543942 825.24248938 -258.68640327 822.93144417 C-258.08642983 819.77337204 -257.48293521 816.615992 -256.87866211 813.45874023 C-256.61343026 812.05446305 -256.61343026 812.05446305 -256.34284019 810.62181664 C-256.09789786 809.34745467 -256.09789786 809.34745467 -255.8480072 808.04734802 C-255.63717703 806.94008944 -255.63717703 806.94008944 -255.42208767 805.810462 C-255 804 -255 804 -254 802 C-272.78007718 811.28766993 -272.78007718 811.28766993 -291.375 820.9375 C-300.15979457 825.62075519 -309.06669166 830.05130611 -317.97918701 834.48446655 C-326.44909332 838.69945157 -334.87169093 842.98659464 -343.22265625 847.43359375 C-349.91314568 850.98533505 -356.68138657 854.37304883 -363.4765625 857.71972656 C-370.20067997 861.04795653 -376.8354323 864.53462423 -383.46899414 868.03851318 C-391.4649311 872.25694496 -399.50514463 876.3861873 -407.55511475 880.50033569 C-411.81154602 882.67594301 -416.06597253 884.85546293 -420.3203125 887.03515625 C-421.15990509 887.46528519 -421.99949768 887.89541412 -422.86453247 888.33857727 C-430.9438455 892.47983286 -439.00439663 896.65663773 -447.06054688 900.84277344 C-455.86333687 905.41540812 -464.68006164 909.96056755 -473.5 914.5 C-485.78995711 920.82599918 -498.06727362 927.17574507 -510.3359375 933.54296875 C-517.34576736 937.18065347 -524.35994741 940.80990194 -531.375 944.4375 C-531.9763678 944.7484964 -532.5777356 945.0594928 -533.19732666 945.37991333 C-538.07584163 947.90281277 -542.95454042 950.42535666 -547.83325195 952.94787598 C-582.09043757 970.65730911 -582.09043757 970.65730911 -616.29833984 988.46166992 C-624.84080253 992.9217828 -633.39662946 997.35594603 -641.953125 1001.7890625 C-650.07241699 1005.99700606 -658.18259112 1010.2220962 -666.28808594 1014.45654297 C-673.76724236 1018.36180689 -681.25768526 1022.2450513 -688.75 1026.125 C-697.08928297 1030.44422503 -705.41538864 1034.78637222 -713.71972656 1039.17236328 C-721.80097736 1043.43448763 -729.91776944 1047.6277833 -738.03125 1051.828125 C-744.53295578 1055.19612574 -751.02531724 1058.58035343 -757.5 1062 C-766.22355509 1066.60654191 -774.98122891 1071.1462924 -783.74121094 1075.68310547 C-793.90131032 1080.94575734 -804.04747377 1086.23475863 -814.18945312 1091.53222656 C-819.92021455 1094.52504603 -825.65265922 1097.51464044 -831.38476562 1100.50488281 C-836.12683599 1102.97879681 -840.86854138 1105.4534042 -845.609375 1107.9296875 C-855.98055481 1113.34566807 -866.36049246 1118.74425225 -876.75 1124.125 C-885.08926599 1128.44425818 -893.41538838 1132.78637208 -901.71972656 1137.17236328 C-909.80097736 1141.43448763 -917.91776944 1145.6277833 -926.03125 1149.828125 C-932.53295578 1153.19612574 -939.02531724 1156.58035343 -945.5 1160 C-954.22355509 1164.60654191 -962.98122891 1169.1462924 -971.74121094 1173.68310547 C-980.97343138 1178.46514158 -990.19484994 1183.26749411 -999.41015625 1188.08203125 C-1003.12369678 1190.02197913 -1006.83994882 1191.95657428 -1010.55859375 1193.88671875 C-1020.91364747 1199.26636586 -1031.2248908 1204.71907275 -1041.5 1210.25 C-1052.23204646 1216.02644717 -1063.03454982 1221.65200216 -1073.87841797 1227.21533203 C-1081.81231026 1231.2882319 -1089.69816516 1235.42788909 -1097.5 1239.75 C-1108.07212905 1245.59745803 -1118.8146559 1251.10981331 -1129.5625 1256.625 C-1130.87541016 1257.30000549 -1130.87541016 1257.30000549 -1132.21484375 1257.98864746 C-1134.72646489 1259.27904003 -1137.23982488 1260.5659709 -1139.75390625 1261.8515625 C-1140.51131607 1262.2406076 -1141.26872589 1262.62965271 -1142.04908752 1263.03048706 C-1142.75935593 1263.39248199 -1143.46962433 1263.75447693 -1144.20141602 1264.12744141 C-1144.81678726 1264.44210358 -1145.43215851 1264.75676575 -1146.06617737 1265.08096313 C-1148.33114527 1266.15737468 -1150.67162529 1267.06865012 -1153 1268 C-1153 1263.71 -1153 1259.42 -1153 1255 C-1151.52015625 1254.175 -1150.0403125 1253.35 -1148.515625 1252.5 C-1136.38317196 1245.72617956 -1124.28599496 1238.89641893 -1112.23095703 1231.98590088 C-1103.93274207 1227.23007351 -1095.60554738 1222.52956879 -1087.25 1217.875 C-1079.04593286 1213.30415334 -1070.90877077 1208.63405137 -1062.8125 1203.875 C-1054.31408667 1198.88155072 -1045.73460513 1194.07673508 -1037.06420898 1189.38916016 C-1028.26858851 1184.62680341 -1019.59206316 1179.66847195 -1010.92285156 1174.68066406 C-1005.36973872 1171.4875778 -999.81030694 1168.3055357 -994.25 1165.125 C-993.65713196 1164.78571472 -993.06426392 1164.44642944 -992.45343018 1164.09686279 C-983.05620379 1158.72077811 -973.617453 1153.42270313 -964.15991211 1148.15332031 C-956.99190764 1144.14721809 -949.89142152 1140.0361807 -942.8125 1135.875 C-934.38960769 1130.92446352 -925.88418581 1126.17084889 -917.28393555 1121.53637695 C-910.47891187 1117.85171747 -903.79150534 1113.991468 -897.125 1110.0625 C-888.11534114 1104.75600998 -879.00070511 1099.69508616 -869.78735352 1094.75195312 C-862.45749436 1090.81205659 -855.21509106 1086.74052485 -848.00317383 1082.58935547 C-841.19744289 1078.67418589 -834.35563653 1074.82704628 -827.5 1071 C-819.81064975 1066.70547532 -812.13973405 1062.38219363 -804.5 1058 C-795.84583495 1053.03689845 -787.15031598 1048.15062529 -778.44189453 1043.28344727 C-768.55716582 1037.75757241 -758.69770008 1032.18769115 -748.84277344 1026.60888672 C-743.10345156 1023.36067896 -737.36152933 1020.11706973 -731.62011719 1016.87255859 C-726.85267774 1014.17823542 -722.08582807 1011.48288098 -717.3203125 1008.78515625 C-707.35245741 1003.14412032 -697.37279748 997.5253164 -687.375 991.9375 C-679.72788159 987.66293581 -672.09971977 983.35827787 -664.5 979 C-655.84578188 974.03698972 -647.15031718 969.15062596 -638.44189453 964.28344727 C-631.40967331 960.35221399 -624.38732401 956.40411556 -617.375 952.4375 C-616.43269531 951.90447266 -615.49039063 951.37144531 -614.51953125 950.82226562 C-611.67946681 949.21523328 -608.83967774 947.60771555 -606 946 C-594.14003432 939.28534679 -582.27181844 932.58668822 -570.375 925.9375 C-562.72788159 921.66293581 -555.09971977 917.35827787 -547.5 913 C-538.8443644 908.03617683 -530.14765223 903.14868801 -521.4375 898.28125 C-514.44709434 894.37383652 -507.46874267 890.44590931 -500.5 886.5 C-492.47207976 881.95435286 -484.42833121 877.43796355 -476.375 872.9375 C-467.82651613 868.15847292 -459.30498905 863.33557094 -450.80761719 858.46630859 C-441.5299451 853.15145242 -432.21881762 847.89624689 -422.90722656 842.64111328 C-418.10363022 839.92950977 -413.30190394 837.21459904 -408.5 834.5 C-406.58334243 833.41665057 -404.66667576 832.33331725 -402.75 831.25 C-401.326875 830.445625 -401.326875 830.445625 -399.875 829.625 C-391.25 824.75 -391.25 824.75 -388.3762207 823.12573242 C-386.45543654 822.04004345 -384.53470103 820.95426842 -382.61401367 819.8684082 C-377.88573547 817.19541578 -373.15668088 814.52381913 -368.42578125 811.85546875 C-358.56999093 806.29426979 -348.72968902 800.70721453 -338.90911865 795.08404541 C-327.3156873 788.44591259 -315.68278092 781.88204632 -304.01953125 775.3671875 C-295.29572064 770.4926546 -286.60084705 765.56698657 -277.90429688 760.64404297 C-272.81193301 757.76139517 -267.71857974 754.88049866 -262.625 752 C-261.69220215 751.47204834 -260.7594043 750.94409668 -259.79833984 750.40014648 C-258.90840332 749.89684814 -258.0184668 749.3935498 -257.1015625 748.875 C-256.33150879 748.43929687 -255.56145508 748.00359375 -254.76806641 747.5546875 C-252 746 -252 746 -249.87462234 745.18036842 C-246.16303144 743.56581452 -243.61755242 742.26217621 -241.79667473 738.54059982 C-240.92358454 735.33494824 -240.31228504 732.16173435 -239.76611328 728.88427734 C-239.52887543 727.65183289 -239.29163757 726.41938843 -239.04721069 725.14959717 C-238.39634604 721.76339748 -237.79390955 718.37014275 -237.19954538 714.97363615 C-236.55761367 711.35512992 -235.87084062 707.74513342 -235.18917847 704.13394165 C-233.89280932 697.2294151 -232.63623528 690.31826076 -231.39384162 683.40384161 C-230.02112701 675.7740024 -228.60690025 668.15209984 -227.18759203 660.53081274 C-224.8308914 647.87155284 -222.50460559 635.2069607 -220.20019531 622.53808594 C-217.19502038 606.01888957 -214.13174691 589.51082827 -211.04729605 573.00626802 C-210.44562186 569.78649311 -209.84446881 566.56662087 -209.24319458 563.34677124 C-208.163092 557.56433401 -207.08204282 551.78207447 -206 546 C-207.54432961 546.01571045 -207.54432961 546.01571045 -209.11985779 546.03173828 C-236.94120484 546.28370392 -264.7250278 545.84141356 -292.53515625 545.125 C-293.81558406 545.09213646 -293.81558406 545.09213646 -295.1218791 545.05860901 C-307.53392131 544.73954458 -319.94561053 544.40763202 -332.35723877 544.07290649 C-344.89415346 543.73503801 -357.43114651 543.40047628 -369.96841902 543.07613182 C-374.15474579 542.96756627 -378.3409943 542.85697939 -382.52711678 542.74078369 C-390.98853047 542.50645485 -399.4494573 542.29633492 -407.91277903 542.14373684 C-412.02314793 542.06758202 -416.13169581 541.96984532 -420.24079514 541.84164429 C-424.6940996 541.70296575 -429.14689328 541.60284784 -433.60168922 541.52675247 C-435.29619269 541.49121889 -436.99048019 541.44244179 -438.68417561 541.37919235 C-447.99757173 541.04003006 -454.95931469 541.19793198 -462.44542027 547.51132202 C-465.01688251 550.15907082 -467.24765259 552.94765715 -469.39746094 555.94335938 C-472.14228994 559.46597356 -475.58363146 562.15367894 -479 565 C-480.97816354 566.77088995 -482.92330133 568.57467962 -484.875 570.375 C-489.36538774 574.50819781 -493.88675762 578.60419735 -498.4296875 582.6796875 C-501.34428447 585.31079783 -504.23539224 587.96652475 -507.125 590.625 C-510.36213091 593.6022264 -513.61137856 596.55952966 -516.9375 599.4375 C-522.18350796 603.98838475 -527.24360309 608.74299661 -532.33740234 613.46240234 C-534.90513176 615.83708074 -537.4831282 618.20048145 -540.0625 620.5625 C-540.55331055 621.01206055 -541.04412109 621.46162109 -541.54980469 621.92480469 C-542.53851282 622.83030793 -543.52728217 623.73574434 -544.51611328 624.64111328 C-546.51082518 626.46779417 -548.50459907 628.29549705 -550.49829102 630.12329102 C-551.49739624 631.03923222 -552.49658211 631.95508545 -553.49584961 632.87084961 C-556.02196074 635.18593628 -558.54705298 637.50211788 -561.0703125 639.8203125 C-566.49934442 644.80615814 -571.95155822 649.76421892 -577.4375 654.6875 C-580.30600409 657.27615003 -583.1547665 659.88585146 -586 662.5 C-590.45064847 666.58917448 -594.93078083 670.64369084 -599.4296875 674.6796875 C-602.34428447 677.31079783 -605.23539224 679.96652475 -608.125 682.625 C-611.36213091 685.6022264 -614.61137856 688.55952966 -617.9375 691.4375 C-622.069109 695.01937309 -626.06929927 698.73837958 -630.07958984 702.45458984 C-634.17424371 706.2463742 -638.30833007 709.99087784 -642.46484375 713.71484375 C-645.36913266 716.33273129 -648.24770775 718.97753203 -651.125 721.625 C-654.36211029 724.60224819 -657.6113792 727.55953021 -660.9375 730.4375 C-664.52958591 733.54964124 -668.01551992 736.76872086 -671.5 740 C-675.58570879 743.78881936 -679.70393273 747.52171864 -683.91796875 751.16796875 C-686.60516762 753.53250209 -689.24040765 755.95228191 -691.875 758.375 C-699.42075661 765.30830308 -707.00597532 772.17284757 -714.8125 778.8125 C-720.18491601 783.38275645 -725.40854897 788.08641913 -730.56835938 792.89477539 C-734.29822698 796.36795267 -738.09261343 799.72869962 -742 803 C-742.66 802.67 -743.32 802.34 -744 802 C-743.43152344 801.3709375 -742.86304688 800.741875 -742.27734375 800.09375 C-738.69924074 796.12737204 -735.1245641 792.16099363 -731.625 788.125 C-728.17148439 784.15747276 -724.6099606 780.2915236 -721.04736328 776.42236328 C-718.49474237 773.64541318 -715.97031795 770.85036687 -713.5 768 C-710.0932265 764.0691075 -706.56997215 760.24803427 -703.046875 756.421875 C-700.49444857 753.64505943 -697.97016712 750.85019283 -695.5 748 C-692.09255081 744.06832786 -688.56870327 740.24638756 -685.04467773 736.41967773 C-682.51259884 733.66526572 -680.00964732 730.89257501 -677.5625 728.0625 C-673.01434466 722.81963835 -668.26285057 717.76224274 -663.54638672 712.67138672 C-657.08876938 705.69177694 -650.68302344 698.66626081 -644.3359375 691.5859375 C-642.60062249 689.66490315 -640.85685419 687.75418359 -639.1015625 685.8515625 C-638.60720703 685.3153125 -638.11285156 684.7790625 -637.60351562 684.2265625 C-636.64289858 683.18599978 -635.68074338 682.14685417 -634.71679688 681.109375 C-632.78968903 679.0214397 -630.96767984 676.95516881 -629.3046875 674.6484375 C-628.87414062 674.10445312 -628.44359375 673.56046875 -628 673 C-627.34 673 -626.68 673 -626 673 C-625.60361328 672.11054687 -625.60361328 672.11054687 -625.19921875 671.203125 C-623.95629575 668.91970946 -622.69598354 667.52573277 -620.8125 665.75 C-617.61065096 662.72061589 -614.75806271 659.45205958 -611.87133789 656.12744141 C-608.92913957 652.78258607 -605.87200703 649.54976791 -602.8125 646.3125 C-601.48919194 644.9066183 -600.16628028 643.50036339 -598.84375 642.09375 C-597.86921875 641.05734375 -597.86921875 641.05734375 -596.875 640 C-594.17280741 637.11766123 -591.48975857 634.21798973 -588.8125 631.3125 C-588.3273291 630.7860791 -587.8421582 630.2596582 -587.34228516 629.71728516 C-585.89434211 628.1453296 -584.44704135 626.57278561 -583 625 C-574.68952438 615.96736492 -566.32201268 606.99051577 -557.91894531 598.04394531 C-555.41644629 595.37843363 -552.91682313 592.71023452 -550.41723633 590.04199219 C-547.93172842 587.38930058 -545.44475052 584.73799003 -542.95751953 582.08691406 C-541.60396928 580.64389242 -540.25080404 579.20050958 -538.89794922 577.75683594 C-536.76644268 575.48264857 -534.63337329 573.20993615 -532.5 570.9375 C-531.85361572 570.2472876 -531.20723145 569.5570752 -530.54125977 568.84594727 C-527.48915209 565.59777102 -524.40914227 562.39052384 -521.24609375 559.25 C-518.91186938 556.93185336 -516.68349028 554.580143 -514.5625 552.0625 C-512.0768913 549.16714248 -509.48663193 546.43296796 -506.77734375 543.74609375 C-506.06698975 543.04025146 -505.35663574 542.33440918 -504.62475586 541.60717773 C-504.08858643 541.07680908 -503.55241699 540.54644043 -503 540 C-565.43701166 538.38537663 -627.874192 536.77731607 -690.31144304 535.17197804 C-695.66079989 535.03443779 -701.0101562 534.8968763 -706.35951233 534.75930786 C-747.84473028 533.69245149 -789.32998127 532.6268935 -830.81529713 531.5638504 C-834.35148438 531.473234 -837.88767154 531.3826143 -841.42385864 531.29199219 C-842.29777557 531.26959675 -843.17169249 531.24720132 -844.07209175 531.22412723 C-858.10682952 530.86444419 -872.14154477 530.50388937 -886.1762518 530.14300904 C-900.51637091 529.77429799 -914.85651534 529.40658334 -929.19668365 529.03979039 C-937.05157114 528.83885348 -944.90644804 528.63752365 -952.76129532 528.43502045 C-961.4353101 528.21145406 -970.10935566 527.98912098 -978.78344727 527.76855469 C-979.46477798 527.75122131 -980.14610869 527.73388793 -980.84808579 527.7160293 C-1001.7514906 527.18489728 -1022.65552234 526.71058656 -1043.56198215 526.31665421 C-1054.0270605 526.11764761 -1064.48516892 525.85416427 -1074.9453125 525.47265625 C-1090.20379687 524.92437931 -1105.46176979 524.68040105 -1120.72790527 524.46777344 C-1124.39024868 524.41613542 -1128.05254361 524.36124789 -1131.71484375 524.30664062 C-1138.80985456 524.20107196 -1145.90491062 524.10062438 -1153 524 C-1153 510.47 -1153 496.94 -1153 483 C-1149.3800686 482.99798867 -1145.7601372 482.99597734 -1142.0305109 482.99390507 C-1078.69682154 482.95768788 -1015.36314875 482.91002902 -952.02952576 482.80906677 C-951.03831304 482.80748981 -950.04710032 482.80591285 -949.02585086 482.8042881 C-927.48498691 482.76995108 -905.94412677 482.73361641 -884.40326968 482.69522342 C-873.83989202 482.67640813 -863.27651361 482.65803434 -852.71313477 482.63989258 C-851.66194234 482.63807972 -850.61074992 482.63626687 -849.52770318 482.63439908 C-815.44533548 482.57582868 -781.36301831 482.54642201 -747.28060571 482.53211229 C-712.26132875 482.51725538 -677.24220906 482.47302976 -642.22302024 482.39176271 C-637.27869013 482.38030241 -632.33435933 482.36917842 -627.390028 482.3582592 C-625.9303313 482.35501996 -625.9303313 482.35501996 -624.44114578 482.35171528 C-608.7658993 482.31779545 -593.09079274 482.31490611 -577.41551834 482.32357362 C-561.66286501 482.33162341 -545.91053071 482.3070947 -530.15797938 482.24917281 C-520.7948039 482.21573842 -511.43238491 482.20742212 -502.06918575 482.23485405 C-495.81637621 482.25071329 -489.56420189 482.2340473 -483.31152283 482.19084722 C-479.7472169 482.16715504 -476.18443708 482.15768912 -472.62014539 482.18785829 C-468.77994021 482.22003309 -464.94218667 482.18273971 -461.10205936 482.1386652 C-459.44333526 482.16931685 -459.44333526 482.16931685 -457.75110158 482.20058772 C-451.57541638 482.06204236 -448.42716647 481.08424466 -443.97018379 476.68664593 C-442.61745678 475.14975961 -441.29227381 473.58805489 -440 472 C-438.79399038 470.62296142 -437.58605962 469.24759937 -436.375 467.875 C-435.81554687 467.22273438 -435.25609375 466.57046875 -434.6796875 465.8984375 C-432.50720681 463.44302909 -430.18172931 461.16887597 -427.8425293 458.8737793 C-426.06850617 457.06966806 -424.41051906 455.21152353 -422.76171875 453.29296875 C-419.05284026 449.02751351 -415.20268209 444.91229268 -411.3125 440.8125 C-406.47257543 435.69148278 -401.64528055 430.56100543 -396.875 425.375 C-392.60310703 420.73132237 -388.308993 416.10927944 -384 411.5 C-379.67109198 406.86908886 -375.35596344 402.22628913 -371.0625 397.5625 C-365.93206325 391.99073536 -360.75402436 386.46465147 -355.56884766 380.94384766 C-351.67261401 376.79245008 -347.79409647 372.62573526 -343.9375 368.4375 C-337.91642741 361.89865967 -331.85176324 355.40106728 -325.78222656 348.90722656 C-322.85331345 345.77288831 -319.92676401 342.63634488 -317 339.5 C-315.83334493 338.24998917 -314.66667826 336.99998918 -313.5 335.75 C-312.9225 335.13125 -312.345 334.5125 -311.75 333.875 C-254 272 -196.25 210.125 -96.5 103.25 C-95.92258057 102.63133057 -95.34516113 102.01266113 -94.75024414 101.37524414 C-93.58278686 100.12440869 -92.41530637 98.87359491 -91.24780273 97.62280273 C-88.34304226 94.51076179 -85.43867748 91.39835348 -82.53515625 88.28515625 C-75.90287073 81.17486817 -69.26010298 74.07457688 -62.60791016 66.98291016 C-56.63907883 60.61832104 -50.68514139 54.2399076 -44.73388672 47.85888672 C-41.82336349 44.73853697 -38.91161713 41.61932898 -36 38.5 C-34.83332754 37.25000541 -33.66666087 36.00000541 -32.5 34.75 C-30.16666667 32.25 -27.83333333 29.75 -25.5 27.25 C-24.92145264 26.63012207 -24.34290527 26.01024414 -23.74682617 25.37158203 C-22.59076217 24.13295357 -21.43467527 22.89434648 -20.27856445 21.65576172 C-17.19948008 18.35696029 -14.12089902 15.05769081 -11.04296875 11.7578125 C-10.39779297 11.06623047 -9.75261719 10.37464844 -9.08789062 9.66210938 C-7.8429541 8.32760908 -6.59815721 6.9929785 -5.35351562 5.65820312 C-1.1124622 1.1124622 -1.1124622 1.1124622 0 0 Z M-153 268 C-154.23363281 269.14275391 -154.23363281 269.14275391 -155.4921875 270.30859375 C-162.2820548 276.5914952 -169.10872974 282.82820983 -176 289 C-177.667057 290.49956619 -179.33371995 291.99957053 -181 293.5 C-191 302.5 -191 302.5 -193.4921875 304.7421875 C-195.18592894 306.26708244 -196.87861169 307.79315402 -198.5703125 309.3203125 C-202.25051057 312.64036886 -205.93280971 315.95181658 -209.6875 319.1875 C-214.4090739 323.29363454 -218.94235356 327.60172011 -223.50610352 331.88110352 C-227.25101549 335.38655065 -231.03408699 338.82499663 -234.921875 342.171875 C-238.3666862 345.20227282 -241.71528301 348.33694015 -245.08032227 351.45532227 C-249.17748351 355.24929713 -253.31436483 358.99569489 -257.47265625 362.72265625 C-260.33082203 365.29809775 -263.16710261 367.89685764 -266 370.5 C-270.45332617 374.59169207 -274.93659888 378.64822977 -279.4375 382.6875 C-282.30600409 385.27615003 -285.1547665 387.88585146 -288 390.5 C-292.45335487 394.59166107 -296.93659854 398.64822946 -301.4375 402.6875 C-304.30600445 405.27615036 -307.15472981 407.88589108 -310 410.5 C-316.09987144 416.10303176 -322.25561163 421.64212914 -328.421875 427.171875 C-333.48872009 431.72235371 -338.52362488 436.30605967 -343.53857422 440.91357422 C-347.48063202 444.53228476 -351.45499497 448.11345702 -355.4375 451.6875 C-358.81973781 454.73976339 -362.17470597 457.82139441 -365.52807617 460.90527344 C-368.76639149 463.8800353 -372.0313665 466.82237254 -375.3125 469.75 C-381.35801261 475.16887516 -381.35801261 475.16887516 -387 481 C-387 481.33 -387 481.66 -387 482 C-322.98 482 -258.96 482 -193 482 C-190.63689531 472.68557635 -190.63689531 472.68557635 -188.64353943 463.332901 C-188.41827072 462.15611786 -188.19300201 460.97933472 -187.96090698 459.76689148 C-187.72558258 458.51874161 -187.49025818 457.27059174 -187.24780273 455.98461914 C-186.98802175 454.62052893 -186.72793656 453.25649662 -186.46757507 451.89251709 C-185.76565353 448.21061907 -185.06798193 444.52792754 -184.37111926 440.84506917 C-183.62822632 436.92297099 -182.88138555 433.00162444 -182.13502502 429.08018494 C-180.71342826 421.60773704 -179.29540909 414.13461484 -177.87864882 406.66124862 C-176.30566739 398.36485406 -174.72845769 390.06926527 -173.15096927 381.7737267 C-171.15865081 371.29655856 -169.16733167 360.81920611 -167.18319702 350.34048462 C-167.03529689 349.55943363 -166.88739675 348.77838265 -166.7350148 347.97366345 C-165.85179809 343.30933584 -165.85179809 343.30933584 -164.96870685 338.64498448 C-163.18937682 329.2478199 -161.39956228 319.85276432 -159.59422588 310.4605608 C-158.62678516 305.42729692 -157.66496973 300.39295961 -156.70335579 295.35857964 C-156.26169893 293.05347168 -155.81770274 290.74881058 -155.37124443 288.44462776 C-154.76902599 285.33584368 -154.17469193 282.22565448 -153.58227539 279.11499023 C-153.40426706 278.20776907 -153.22625874 277.3005479 -153.04285622 276.36583519 C-151.99933882 272.09347531 -151.99933882 272.09347531 -153 268 Z M-149 548 C-149.21984967 548.82927285 -149.43969934 549.6585457 -149.66621113 550.51294804 C-152.05248655 559.51315282 -154.44400681 568.51195812 -156.83774185 577.51018143 C-157.49765117 579.99116938 -158.15719947 582.47225313 -158.81674194 584.95333862 C-164.36710334 605.8256105 -169.9884901 626.67705502 -175.70703125 647.50390625 C-176.26480937 649.53737058 -176.82253871 651.5708483 -177.38021851 653.6043396 C-179.83531348 662.5535455 -182.29430047 671.50160941 -184.76926136 680.44534397 C-185.79371691 684.15267743 -186.81247421 687.86156 -187.82983971 691.57084465 C-188.3072678 693.30625544 -188.78728646 695.0409558 -189.26999855 696.77490425 C-189.92909989 699.14320553 -190.57948672 701.51373205 -191.2277832 703.88500977 C-191.52273556 704.93202057 -191.52273556 704.93202057 -191.82364655 706.00018311 C-192.95215041 709.55596143 -192.95215041 709.55596143 -192 713 C-177.86288393 705.24007341 -163.73242316 697.4759632 -149.75073242 689.43823242 C-143.06804412 685.59951632 -136.35256596 681.82196154 -129.625 678.0625 C-118.67855474 671.94467762 -107.75554952 665.78653225 -96.84277344 659.60888672 C-91.10345156 656.36067896 -85.36152933 653.11706973 -79.62011719 649.87255859 C-74.85267774 647.17823542 -70.08582807 644.48288098 -65.3203125 641.78515625 C-55.35245741 636.14412032 -45.37279748 630.5253164 -35.375 624.9375 C-27.72787951 620.66293465 -20.09981291 616.35811766 -12.5 612 C10.0185785 599.09175306 32.74892948 586.55281796 55.45507812 573.97850037 C57.86971424 572.64106463 60.28379482 571.30262799 62.69781494 569.96408081 C64.37074777 569.03699207 66.04448821 568.11136111 67.71826172 567.18579102 C73.0959355 564.20379303 78.45446179 561.19028588 83.78515625 558.125 C84.78554932 557.55007813 85.78594238 556.97515625 86.81665039 556.3828125 C87.89740845 555.69832031 87.89740845 555.69832031 89 555 C89 554.67 89 554.34 89 554 C43.56812935 552.27428539 -1.87167264 551.13005168 -47.32323766 550.07441831 C-55.01864958 549.89548404 -62.71397797 549.71314574 -70.40928924 549.52993953 C-79.75527576 549.30745885 -89.10131243 549.08714583 -98.44736719 548.86755228 C-101.09528808 548.80520315 -103.74319965 548.74247043 -106.39110947 548.67965317 C-110.53680262 548.58142102 -114.68252781 548.48466526 -118.8282814 548.38901901 C-120.33588017 548.35402615 -121.84346825 548.31856858 -123.3510437 548.28258514 C-131.9018169 548.07885441 -140.44642315 547.95120494 -149 548 Z " fill="#003E69" transform="translate(1153,0)"/>
<path d="" fill="#003E69" transform="translate(0,0)"/>
</svg>
