<svg xmlns="http://www.w3.org/2000/svg" xml:space="preserve" id="Layer_1" x="0" y="0" style="enable-background:new 0 0 12.1 12.1" version="1.1" viewBox="0 0 12.1 12.1"><style>.st4{fill:#c4c4c4}</style><defs><filter id="Adobe_OpacityMaskFilter" width="4" height="4" x="4" y="8.1" filterUnits="userSpaceOnUse"><feColorMatrix values="1 0 0 0 0 0 1 0 0 0 0 0 1 0 0 0 0 0 1 0"/></filter></defs><mask id="mask0_1882_6140_00000171690067354732656560000006891364428571623595_" width="4" height="4" x="4" y="8.1" maskUnits="userSpaceOnUse"><path d="M6 12.1H2c-1.1 0-2-.9-2-2s.9-2 2-2h4c1.1 0 2 .9 2 2s-.9 2-2 2z" style="fill:#c4c4c4;filter:url(#Adobe_OpacityMaskFilter);stroke:#000;stroke-width:4.021610e-02"/></mask><g style="mask:url(#mask0_1882_6140_00000171690067354732656560000006891364428571623595_)"><linearGradient id="SVGID_1_" x1="83.982" x2="89.151" y1="103.615" y2="101.025" gradientTransform="rotate(90 92.556 15.567)" gradientUnits="userSpaceOnUse"><stop offset="0" style="stop-color:#2af588"/><stop offset="1" style="stop-color:#334675"/></linearGradient><path d="M4 8.1h4v4H4z" style="fill:url(#SVGID_1_)"/></g><defs><filter id="Adobe_OpacityMaskFilter_00000178203150526293924010000004834024190505536662_" width="6.2" height="12.1" x="0" y="0" filterUnits="userSpaceOnUse"><feColorMatrix values="1 0 0 0 0 0 1 0 0 0 0 0 1 0 0 0 0 0 1 0"/></filter></defs><mask id="mask1_1882_6140_00000063632227879602048340000014744977176824455321_" width="6.2" height="12.1" x="0" y="0" maskUnits="userSpaceOnUse"><path d="M0 2C0 .9.9 0 2 0s2 .9 2 2v10.1H2c-1.1 0-2-.9-2-2z" style="fill:#c4c4c4;filter:url(#Adobe_OpacityMaskFilter_00000178203150526293924010000004834024190505536662_)"/><path d="M4 12.1h2.2C5.5 12 4 11.4 4 9.9z" class="st4"/></mask><g style="mask:url(#mask1_1882_6140_00000063632227879602048340000014744977176824455321_)"><linearGradient id="SVGID_00000013911351420440696020000002530003583728986289_" x1=".037" x2="6.135" y1="13.283" y2="2.842" gradientTransform="matrix(1 0 0 -1 0 14.1)" gradientUnits="userSpaceOnUse"><stop offset="0" style="stop-color:#2af588"/><stop offset="1" style="stop-color:#405a9b"/></linearGradient><path d="M0 0h6.2v12.1H0z" style="fill:url(#SVGID_00000013911351420440696020000002530003583728986289_)"/></g><defs><filter id="Adobe_OpacityMaskFilter_00000119800779585601222290000003275425877412668082_" width="4" height="4" x="4" y="0" filterUnits="userSpaceOnUse"><feColorMatrix values="1 0 0 0 0 0 1 0 0 0 0 0 1 0 0 0 0 0 1 0"/></filter></defs><mask id="mask2_1882_6140_00000044862693737322906180000000957865627273765509_" width="4" height="4" x="4" y="0" maskUnits="userSpaceOnUse"><path d="M6.1 0h4c1.1 0 2 .9 2 2s-.9 2-2 2h-4c-1.1 0-2-.9-2-2s.9-2 2-2z" style="fill:#c4c4c4;filter:url(#Adobe_OpacityMaskFilter_00000119800779585601222290000003275425877412668082_);stroke:#000;stroke-width:4.021610e-02"/></mask><g style="mask:url(#mask2_1882_6140_00000044862693737322906180000000957865627273765509_)"><linearGradient id="SVGID_00000179646755953248948220000008018239876823453350_" x1="-684.018" x2="-678.849" y1="701.548" y2="698.959" gradientTransform="rotate(-90 -686.434 7.523)" gradientUnits="userSpaceOnUse"><stop offset="0" style="stop-color:#2af588"/><stop offset="1" style="stop-color:#334675"/></linearGradient><path d="M4 0h4v4H4z" style="fill:url(#SVGID_00000179646755953248948220000008018239876823453350_)"/></g><defs><filter id="Adobe_OpacityMaskFilter_00000158004911603028079400000012268033510566809216_" width="6.2" height="12.1" x="5.9" y="0" filterUnits="userSpaceOnUse"><feColorMatrix values="1 0 0 0 0 0 1 0 0 0 0 0 1 0 0 0 0 0 1 0"/></filter></defs><mask id="mask3_1882_6140_00000172428319931549695460000015554338363353327489_" width="6.2" height="12.1" x="5.9" y="0" maskUnits="userSpaceOnUse"><path d="M12.1 10.1c0 1.1-.9 2-2 2s-2-.9-2-2V0h2c1.1 0 2 .9 2 2z" style="fill:#c4c4c4;filter:url(#Adobe_OpacityMaskFilter_00000158004911603028079400000012268033510566809216_)"/><path d="M8.1 0H5.9c.7.1 2.2.6 2.2 2.2z" class="st4"/></mask><g style="mask:url(#mask3_1882_6140_00000172428319931549695460000015554338363353327489_)"><linearGradient id="SVGID_00000068650047875198851060000010600702710415704494_" x1="-585.83" x2="-579.732" y1="769.219" y2="758.778" gradientTransform="matrix(-1 0 0 1 -573.767 -757.936)" gradientUnits="userSpaceOnUse"><stop offset="0" style="stop-color:#2af588"/><stop offset="1" style="stop-color:#405a9b"/></linearGradient><path d="M5.9 0h6.2v12.1H5.9z" style="fill:url(#SVGID_00000068650047875198851060000010600702710415704494_)"/></g></svg>