<svg xmlns="http://www.w3.org/2000/svg" xml:space="preserve" id="svg16" x="0" y="0" version="1.1" viewBox="0 0 512 512"><style>.st1{fill:#86c8c8}</style><path id="rect4" d="M116.6 0h278.8C459.8 0 512 59.7 512 133.4v245.2c0 73.7-52.2 133.4-116.6 133.4H116.6C52.2 512 0 452.3 0 378.6V133.4C0 59.7 52.2 0 116.6 0" style="fill:#002b34"/><g id="g14" transform="translate(249.21 50.169)"><path id="path8" d="M-82.1 132.1c-24 27.4-68.3 27.9-98.9 1.1s-36.1-70.7-12.2-98.2 68.1-28.2 98.9-1.5c30.7 26.7 36.3 70.6 12.5 98.2" class="st1"/><ellipse id="ellipse10" cx="55" cy="278.5" class="st1" rx="166.7" ry="130.2"/><ellipse id="ellipse12" cx="40.1" cy="49.8" class="st1" rx="70.6" ry="45.5" transform="rotate(-12.081 40.04 49.823)"/></g></svg>