<svg xmlns="http://www.w3.org/2000/svg" fill="none" viewBox="0 0 100 22.09">
                <path fill-rule="evenodd" clip-rule="evenodd" d="M91.4149 18.1044V12.2562H96.9392V8.69613H91.4149V5.93341L90.1667 4.01636H92.8082H100V0.456299H87.6289V0.471142V4.01636V18.1044V19.7067L88.9035 21.6644H100V18.1044H91.4149ZM83.4455 21.6508H83.8794V0.471191H80.4177V15.7242L72.6247 0.471191H71.489H68.8387H68.0273V21.6508H71.489V5.65867L79.6594 21.6508H80.4177H83.4455ZM63.5224 18.7948C64.4444 17.1971 64.544 15.5118 64.544 14.8618V7.21299C64.5051 3.63618 62.7241 1.86947 61.2373 1.01732C59.6341 0.0989541 57.9447 0 57.2933 0H56.0908C52.5047 0.0384399 50.7329 1.81467 49.8784 3.29784C48.958 4.89632 48.8584 6.58083 48.8584 7.23126L48.8587 14.8804C48.8973 18.4572 50.6783 20.2236 52.1651 21.0761C53.7683 21.9941 55.4573 22.093 56.1091 22.093H57.2967H57.3062C60.8942 22.0534 62.6672 20.2776 63.5224 18.7948ZM61.1099 14.8617C61.1099 16.2661 60.6111 18.6265 57.2773 18.6676H56.1095C54.6998 18.6676 52.3292 18.171 52.293 14.8617V7.23122C52.293 5.82531 52.7917 3.46069 56.1095 3.42529H57.2937C58.703 3.42529 61.0744 3.92197 61.1099 7.23122V14.8617ZM44.0577 21.6861H48.2971L42.3396 12.5366L40.2197 15.7922L44.0577 21.6861ZM42.3396 9.62064L48.2971 0.471191H44.0577L40.2197 6.36505L42.3396 9.62064ZM41.3893 11.0787L34.482 0.471191H30.2422L37.1495 11.0787L30.2422 21.6862H34.482L41.3893 11.0787ZM28.6586 18.7948C29.5806 17.1971 29.6798 15.5118 29.6798 14.8618V7.21299C29.6416 3.63618 27.8602 1.86947 26.3731 1.01732C24.7703 0.0989541 23.0809 0 22.429 0H21.227C17.6405 0.0384399 15.869 1.81467 15.0146 3.29784C14.0937 4.89632 13.9941 6.58083 13.9941 7.23126V14.8804C14.0331 18.4572 15.8141 20.2236 17.3016 21.0761C18.904 21.9941 20.5931 22.093 21.2453 22.093H22.4329H22.442C26.0308 22.0534 27.8034 20.2776 28.6586 18.7948ZM26.2443 14.8617C26.2443 16.2661 25.7462 18.6265 22.4121 18.6676H21.2443C19.8346 18.6676 17.464 18.171 17.4277 14.8617V7.23122C17.4277 5.82531 17.9261 3.46069 21.2443 3.42529H22.4281C23.8382 3.42529 26.2092 3.92197 26.2443 7.23122V14.8617ZM1.25362 21.6644H12.3717V18.1044H3.78565V0.471133H0V18.1044V19.7398L1.25362 21.6644Z" fill="#69C350"/>
            </svg>