<svg xmlns:inkscape="http://www.inkscape.org/namespaces/inkscape" xmlns:sodipodi="http://sodipodi.sourceforge.net/DTD/sodipodi-0.dtd" xmlns="http://www.w3.org/2000/svg" xmlns:svg="http://www.w3.org/2000/svg" version="1.1" id="Layer_1" x="0px" y="0px" enable-background="new 0 0 442 115" xml:space="preserve" sodipodi:docname="luxriot.svg" inkscape:version="1.2.1 (9c6d41e410, 2022-07-14)" viewBox="1.3 2.27 119.7 100.8"><defs id="defs59"/><sodipodi:namedview id="namedview57" pagecolor="#505050" bordercolor="#ffffff" borderopacity="1" inkscape:showpageshadow="0" inkscape:pageopacity="0" inkscape:pagecheckerboard="1" inkscape:deskcolor="#505050" showgrid="false" inkscape:zoom="1.6857143" inkscape:cx="342.88136" inkscape:cy="92.542373" inkscape:window-width="1560" inkscape:window-height="961" inkscape:window-x="-7" inkscape:window-y="-7" inkscape:window-maximized="1" inkscape:current-layer="Layer_1"/>
	<polygon fill="#accc5e" points="44.8,61.4 19.3,61.4 23.8,36.2 49.3,36.2 " id="polygon2" transform="translate(-9.1959984,-8.7329168)"/>
	<polygon fill="#c6d42c" points="28.2,11 23.8,36.2 49.3,36.2 53.7,11 " id="polygon4" transform="translate(-9.1959984,-8.7329168)"/>
	<polygon fill="#8bc798" points="70.3,61.4 44.8,61.4 49.3,36.2 74.8,36.2 " id="polygon6" transform="translate(-9.1959984,-8.7329168)"/>
	<polygon fill="#8bc798" points="40.4,86.6 14.9,86.6 19.3,61.4 44.8,61.4 " id="polygon8" transform="translate(-9.1959984,-8.7329168)"/>
	<polygon fill="#4dbbbc" points="65.9,86.6 40.4,86.6 44.8,61.4 70.3,61.4 " id="polygon10" transform="translate(-9.1959984,-8.7329168)"/>
	<polygon fill="#accc5e" points="53.7,11 49.3,36.2 74.8,36.2 79.2,11 " id="polygon12" transform="translate(-9.1959984,-8.7329168)"/>
	<polygon fill="#4dbbbc" points="95.8,61.4 70.3,61.4 74.8,36.2 100.2,36.2 " id="polygon14" transform="translate(-9.1959984,-8.7329168)"/>
	<polygon fill="#008b9a" points="91.4,86.6 65.9,86.6 70.3,61.4 95.8,61.4 " id="polygon16" transform="translate(-9.1959984,-8.7329168)"/>
	<polygon fill="#4dbbbc" points="14.9,86.6 10.5,111.8 36,111.8 40.4,86.6 " id="polygon18" transform="translate(-9.1959984,-8.7329168)"/>
	<polygon fill="#008b9a" points="40.4,86.6 36,111.8 61.5,111.8 65.9,86.6 " id="polygon20" transform="translate(-9.1959984,-8.7329168)"/>
	<polygon fill="#006783" points="65.9,86.6 61.5,111.8 87,111.8 91.4,86.6 " id="polygon22" transform="translate(-9.1959984,-8.7329168)"/>
	<polygon fill="#8bc798" points="79.2,11 74.8,36.2 100.2,36.2 104.7,11 " id="polygon24" transform="translate(-9.1959984,-8.7329168)"/>
	<polygon fill="#008b9a" points="121.3,61.4 95.8,61.4 100.2,36.2 125.7,36.2 " id="polygon26" transform="translate(-9.1959984,-8.7329168)"/>
	<polygon fill="#006783" points="116.9,86.6 91.4,86.6 95.8,61.4 121.3,61.4 " id="polygon28" transform="translate(-9.1959984,-8.7329168)"/>
	<polygon fill="#004f66" points="91.4,86.6 87,111.8 112.5,111.8 116.9,86.6 " id="polygon30" transform="translate(-9.1959984,-8.7329168)"/>
	<polygon fill="#4dbbbc" points="104.7,11 100.2,36.2 125.7,36.2 130.2,11 " id="polygon32" transform="translate(-9.1959984,-8.7329168)"/>
	
	
	
	
	
	
</svg>