<svg xmlns="http://www.w3.org/2000/svg" width="361" height="512" viewBox="0 0 361 511"><path d="M140.645 6.887c-3.864 3.843-7.313 9.32-8.938 14.172-1.508 4.503-3.812 19.254-3.848 24.609-.004.695-.421.605-2.636-.582-3.012-1.613-6.746-2.82-7.23-2.336-.18.18.491 2.078 1.491 4.215 3.16 6.75 3.457 7.941 3.735 15.11.246 6.331-.574 19.148-1.364 21.296-.253.692-1.035-.957-2.812-5.95-2.207-6.183-3.211-7.964-4.027-7.148-.145.145.91 7.22 2.34 15.72 2.304 13.675 2.57 16.003 2.32 20.214-.75 12.531-7.145 24.719-23.922 45.59-2.102 2.617-5.711 7.433-8.02 10.707-6.386 9.059-10.285 11.64-28.054 18.594-5.157 2.02-11.387 4.68-13.844 5.914-4.074 2.043-5.945 3.207-13.434 8.347-8.156 5.606-21.195 21.336-20.082 24.23.149.395-.547 3.056-1.55 5.915-2.32 6.617-2.801 13.3-1.555 21.73.96 6.508 4.789 22.871 6.273 26.813 3.555 9.43 9.711 13.965 13.633 10.047.805-.805 1.465-1.946 1.465-2.531 0-1.008-.07-1.024-1.117-.29-.61.426-1.864.778-2.782.778-2.832 0-3.753-1.563-5.332-9.059-2.984-14.183-3.273-16.695-4.078-35.527-.433-10.059-1.011-19.012-1.285-19.903-.457-1.464-.308-1.906 1.613-4.757 3.403-5.063 12.958-14.192 19.2-18.356 7.07-4.71 12.199-7.258 23.77-11.793 9.433-3.695 14.14-5.855 17.804-8.168 1.074-.675 1.773-.93 1.555-.562-.22.367-1.637 2.582-3.153 4.926-11.328 17.503-21.988 37.496-25.293 47.437-1.968 5.922-2.242 7.668-1.207 7.668.38 0 1.239-1.98 2.094-4.816 2.883-9.594 10.195-24.164 20.64-41.13 5.887-9.562 12.184-19.034 14.153-21.284.797-.91 2.531-3.344 3.86-5.41 2.171-3.387 10.175-14.028 10.55-14.028.086 0-.183.805-.598 1.793-1.078 2.578-4.546 17.242-5.257 22.234-.395 2.754-.489 6.7-.278 11.27.38 8.098.63 9.398 1.75 9.184.551-.106 1.16-1.555 1.95-4.649.703-2.734 2.437-7.078 4.433-11.086 2.496-5.023 3.395-7.414 3.766-10.031 1.875-13.262 7.62-30.586 15.058-45.395 3.774-7.511 10.407-18.351 12.532-20.472 1.96-1.961 4.484-2.82 6.449-2.2 1.351.43 4.199 2.907 5.597 4.864l1.06 1.488-2.052-1.043c-2.37-1.21-5.558-1.355-7.504-.34-2.39 1.246-3.964 3.39-8.144 11.067-9.188 16.89-14.418 31.015-17.059 46.09-1.347 7.707-1.832 21.59-1.004 28.808 1.477 12.844 5.743 26.02 12.23 37.766 1.384 2.508 2.817 5.558 3.184 6.773 1.051 3.488.801 11.008-.597 18.082-1.45 7.309-1.465 7.516-.551 7.516 1.836 0 4.102-19.899 2.84-24.914-.332-1.313-2.457-6.11-4.727-10.656-5.812-11.649-9.758-24.196-10.55-33.567l-.278-3.258.809 1.867c.445 1.024 1.246 2.004 1.785 2.176.668.211.867.57.637 1.14-1.22 2.993-1.325 3.63-.727 4.349.336.406.918.742 1.293.742.5 0 .563.3.238 1.152-.883 2.32 1.125 3.61 3.582 2.297.922-.496 1-.45.657.375-.22.512-.497 1.496-.622 2.187-.125.688-.593 1.98-1.046 2.875-.778 1.528-.77 1.72.125 3.254 1.718 2.95 2.32 3.02 4.609.52 1.496-1.633 1.832-1.79 2.691-1.25.543.336 1.817.613 2.832.613 2.387 0 8.184-.992 9.352-1.601 1.062-.551.965-2.387-.156-2.907a66 66 0 0 1-1.871-.925c-.618-.32-1.52-.586-2.008-.59-.735-.012-.68-.168.316-.934.887-.683 1.137-1.258.953-2.219-.16-.84 0-1.39.461-1.57.438-.168.653-.805.555-1.652-.133-1.153-.43-1.407-1.79-1.535-1.401-.137-1.628-.348-1.628-1.532 0-1.75-.836-2.57-2.61-2.57-1.91 0-1.757-.562.481-1.754 1.371-.734 1.922-1.379 2.04-2.398.124-1.094.581-1.567 2.109-2.176 2.066-.824 2.94-2.297 2.023-3.402-.422-.508-.25-.864.742-1.512 1.684-1.102 1.524-2.977-.273-3.176a29 29 0 0 1-2.453-.406l-1.204-.262 1.079-.754c2.195-1.535 1.004-3.7-2.036-3.7-1.55 0-1.906-.179-1.906-.972 0-1.316-1.863-2.535-3.87-2.535-1.11 0-1.645-.238-1.645-.734 0-1.016-1.598-1.77-3.747-1.77-3.593 0-7.324 2.887-9.382 7.262l-.946 2.004.301-3.504c1.098-12.867 3.383-22.875 8.078-35.32 2.055-5.45 10.114-22.043 10.707-22.043.844 0 6.575 4.59 9.305 7.453 3.852 4.043 5.894 6.965 8.574 12.265 4.453 8.805 7.07 20.086 7.313 31.555.07 3.262.332 6.059.582 6.211.785.488-.098-15.273-1.149-20.465-2.937-14.531-9.695-26.707-18.851-33.976-2.075-1.649-4.133-3.2-4.574-3.446-.727-.406-.72-.601.074-2.152 3.754-7.309 7.46-9.113 12.355-6.016 1.258.797 2.856 2.207 3.555 3.133 2 2.656 5.953 10.942 9.812 20.574 1.957 4.88 4.387 10.516 5.403 12.524 3.812 7.566 4.957 11.55 5.668 19.71.382 4.41.652 5.536 1.562 6.505 1.805 1.918 7.348 4.543 19.04 9.011 33.85 12.938 50.218 21.68 74.902 40 12.222 9.075 14.593 12.895 16.836 27.118 1.027 6.546 4.363 17.003 7.25 22.722 4.664 9.258 12.828 18.863 21.164 24.914 2.25 1.63 6.632 4.43 9.746 6.219 6.632 3.816 13.57 9.027 15.894 11.945 2.164 2.715 3.934 6.34 4.356 8.922.257 1.59.097 2.547-.68 4.07-1.11 2.172-7.133 9.016-8.797 9.989-1.629.957-3.812.75-5.504-.52-.851-.64-1.957-1.312-2.453-1.496-.851-.316-.844-.398.125-1.437.567-.606 1.027-1.434 1.027-1.84 0-.402-1.199-1.996-2.664-3.535-1.796-1.887-3.699-4.801-5.824-8.91-4.648-9-7.61-12.301-18.422-20.551-2.531-1.93-5.828-4.95-7.324-6.711-4.289-5.055-10.055-9.578-17.023-13.371-1.582-.86-3.614-2.242-4.516-3.078-8.02-7.426-11.309-10.07-15.012-12.059-3.816-2.05-4.468-2.242-7.68-2.23-4.05.011-4.745.316-10.906 4.832a383 383 0 0 1-7.238 5.171c-1.601 1.102-7.336 6.399-12.734 11.774-9.524 9.469-16.29 17.105-25.762 29.055-8.207 10.359-9.395 12.039-9.09 12.832.207.543 6.375-5.336 21.23-20.235 19.926-19.988 28.56-27.996 35.633-33.05 3.086-2.208 3.239-2.258 6.141-1.993 2.422.219 3.84.774 7.613 2.98 2.551 1.489 5.88 3.278 7.395 3.973 3.703 1.7 5.637 3.422 6.457 5.75 1.332 3.786 3.836 7.508 8.062 11.989 2.356 2.496 5.02 5.78 5.922 7.3 3.817 6.442 6.637 15.715 6.637 21.829-.004 5.394-3.25 10.52-10.156 16.027-3.278 2.613-3.98 3.86-2.836 5.008.398.394-.766 1.168-4.196 2.793-18.543 8.777-22.343 19.754-10.89 31.46 1.793 1.833 3.812 3.7 4.492 4.15 1.648 1.093 1.133 1.515-4.105 3.339-4.766 1.66-9.407 2.055-15.805 1.34-3.059-.34-3.637-.29-3.637.336 0 .543.867.836 3.23 1.09 3.016.32 3.243.433 3.387 1.668.243 2.101 2.758 2.992 10.215 3.609 10.14.84 24.016-.328 29.86-2.512 3.28-1.226 6.203-3.969 5.75-5.398-.274-.86.261-1.102 4.918-2.254 2.875-.711 7.05-2.188 9.28-3.285l4.055-1.993v2.082c0 6.239-2.046 16.13-4.558 22.036-1.848 4.336-5.422 9.742-7.848 11.87-4.203 3.688-14.355 7.153-23.43 7.997-11.757 1.094-21.64-.914-34.355-6.977-10.633-5.07-15.156-6.765-21.601-8.097-6.329-1.305-11.458-1.121-16.407.593-4.086 1.414-7.582 4.696-11.734 11.016-4.016 6.11-4.531 7.695-4.785 14.715-.215 5.855-.176 6.152 1.59 11.394 3.015 8.961 3.937 15.454 3.964 27.934.028 10.105-.382 14.762-1.96 22.418-.266 1.285-.168 1.629.445 1.629.93 0 1.047-.356 2.183-6.512 1.102-5.957 1.278-26.683.282-32.566-.914-5.387-2.567-11.817-3.72-14.485-1.421-3.28-1.788-10.82-.73-14.945 1.082-4.203 2.184-6.238 6.364-11.746 5.129-6.766 8.492-8.45 16.886-8.461 8.063-.008 15.996 2.438 28.977 8.938 17.852 8.937 37.492 9.539 53.684 1.648 4.402-2.145 5.39-2.875 7.652-5.629 6.207-7.559 9.793-17.918 10.543-30.465.308-5.137.344-5.265 1.57-5.426 2.445-.32 8.66-3.707 10.88-5.921 3.57-3.567 4.843-6.907 5.077-13.313l.196-5.375 1.64-.309c2.781-.52 4.512-1.957 7.547-6.257 5.18-7.344 6.238-11.543 5.336-21.11-.426-4.484-.77-5.847-2.102-8.347-3.054-5.727-9.238-10.942-21.054-17.75-13.078-7.54-22.508-17.418-28.555-29.914-2.922-6.043-5.863-15.446-6.797-21.73-2.047-13.782-5.812-19.852-17.445-28.13-24.418-17.37-38.246-25.34-57.492-33.125-2.356-.953-4.73-1.941-5.282-2.2-.55-.257-6.027-2.374-12.164-4.71-11.226-4.266-17.48-7.164-18.8-8.715-.434-.508-.942-3.129-1.297-6.68-.676-6.765-1.899-11.097-4.707-16.68-1.102-2.19-3.98-8.843-6.399-14.777-2.414-5.937-5.3-12.597-6.41-14.8s-2.625-5.473-3.367-7.266a375 375 0 0 0-2.012-4.758c-1.832-4.18-6.965-18.64-9.219-25.972-2.625-8.547-2.34-12.778 1.711-25.407 1.243-3.883 2.133-7.265 1.973-7.523-.617-1-1.73-.371-2.96 1.664-.77 1.277-1.243 1.727-1.173 1.129.063-.55-.078-4.547-.308-8.88-.485-9.1-.098-12.616 2.527-23.065 2.059-8.184 1.855-9.415-1.066-6.508m-39.266 178.578c-1.469 1.469 0 11.242 2.558 16.988.66 1.484 2.36 4.711 3.774 7.168s2.832 5.277 3.152 6.262c.317.988 1.45 3.586 2.516 5.777 1.914 3.93 1.941 4.063 1.941 9.84 0 4.746.14 5.91.75 6.145 2.23.855 3.035-1.84 2.66-8.93-.246-4.715-1.335-7.473-8.5-21.543-4.402-8.652-5.347-11.41-5.91-17.23-.254-2.641-.656-4.352-1.093-4.626-.918-.582-1.133-.562-1.848.149m-68.29 96.773c0 .106.352 1.176.778 2.38.43 1.206 2.14 6.929 3.805 12.714 3.59 12.488 5.746 18.453 8.879 24.547 3.851 7.504 6.695 9.781 10.043 8.047 3.222-1.664 5.605-6.63 6.258-13.055l.308-3.008-1.023 2.246c-2.895 6.348-7.055 8.563-11.04 5.88-2.843-1.915-5.148-6.97-9.19-20.15-2.294-7.468-8.817-21.976-8.817-19.6m192.086 4.273c-2.473.336-3.633 1.515-2.653 2.691.465.559 2.543.79 8.997 1 7.996.262 14 1.078 19.355 2.64 2.77.81 4.332.333 4.332-1.316 0-.668-.555-1.238-1.629-1.683-2.785-1.153-11.875-2.77-18.426-3.278-6.675-.515-6.605-.515-9.976-.054m-4.508 7.578c-.66.277-2.688 1.824-4.512 3.433-1.824 1.614-4.511 3.664-5.976 4.563-2.79 1.707-3.29 3.074-1.528 4.18 1.106.691 5.434-1.903 9.774-5.868l3.23-2.941 3.875.223c4.242.246 6.938 1.261 12.883 4.843 1.879 1.13 4.156 2.196 5.059 2.364 3.707.695 7.93-2.274 7.632-5.367-.144-1.504-.324-1.688-1.664-1.688-1.164 0-1.539.25-1.66 1.09-.437 3.082-3.383 2.988-8.754-.274-2.27-1.378-5.48-2.953-7.136-3.5-3.63-1.199-9.57-1.757-11.223-1.058m39.676 4.07c-1.637 1.637.09 3.77 2.25 2.785 1.672-.761 1.41-3.05-.371-3.257-.692-.083-1.536.132-1.88.472m4.641 6.98c-3.273 2.258-8.504 4.465-10.578 4.465-2.351 0-3.46.93-2.969 2.48.278.864.747 1.028 2.989 1.028 3.21 0 5.89-.894 9.988-3.328 2.945-1.75 4.332-2.95 4.332-3.746 0-.465-1.46-1.945-1.918-1.941-.187.004-1.015.472-1.844 1.043m-42.707 6.789c-3.261 1.156-6.375 4.254-8.75 8.703-1.164 2.183-3.113 5.11-4.328 6.496-4.347 4.965-12.226 9.586-21.43 12.574-5.601 1.817-6.265 2.188-6.265 3.512 0 1.89 1.527 1.933 6.848.195 14.34-4.691 23.023-11.078 28.246-20.773 3.156-5.86 6.14-8.012 11.125-8.02 1.015 0 4.511.992 7.77 2.207 3.26 1.211 10.1 3.145 15.202 4.293 5.102 1.145 12.153 2.88 15.672 3.856 3.52.972 6.735 1.64 7.145 1.484 1.129-.434.898-2.203-.399-3.05-1.36-.891-10.957-3.473-22.418-6.036-4.55-1.016-10.941-2.84-14.199-4.055-6.547-2.437-10.23-2.796-14.219-1.386m-158.304 2.183c.175.965.984 3.672 1.797 6.012.808 2.344 1.777 5.16 2.144 6.266.367 1.101.926 3.976 1.238 6.386.895 6.903 2.832 13.493 5.98 20.348 1.598 3.48 3.192 7.117 3.544 8.082.347.965.926 2.316 1.285 3.004.36.691 1.594 3.508 2.746 6.266 1.152 2.753 2.656 5.515 3.344 6.136 2.765 2.496 7.094.63 8.113-3.5.293-1.175.54-5.066.55-8.648.02-6.555.536-9.703 2.352-14.399.75-1.949.801-2.488.262-3.007-.531-.512-1.234 0-3.738 2.726-7.953 8.64-10.313 8.559-14.754-.52-1.86-3.808-2.383-5.43-2.441-7.597-.043-1.516-.668-4.754-1.387-7.195-.715-2.442-1.305-4.668-1.305-4.953 0-.461-7.656-13.676-9.363-16.157-.625-.914-.656-.847-.367.75m65.664 2.106c-2.407 2.804-4.567 6.605-5.824 10.254-1.086 3.14-2.797 16.062-2.2 16.617.2.183.453.082.563-.227.894-2.476 10.129-16.453 10.574-16.008.078.075-.875 3.497-2.11 7.602-1.234 4.102-2.945 10.281-3.804 13.723-.856 3.445-2.68 10.261-4.05 15.148-2.974 10.574-3.509 13.91-2.24 13.91 1.641 0 2.86-1.09 6.888-6.164 2.23-2.808 4.14-5.203 4.242-5.312.101-.117-.371 1.43-1.055 3.43-1.68 4.94-2.105 7.656-3.02 19.32-1.144 14.582-1.527 30.941-.804 34.297.633 2.937 1.707 4.527 3.058 4.527 1.352 0 4.395-3.414 7.372-8.266 1.523-2.48 2.609-4.058 2.418-3.507-.192.55-.934 3.484-1.645 6.511-1.754 7.43-1.867 17.446-.258 22.043 1.254 3.586 12.578 28.008 16.211 34.961 2.668 5.106 4.64 7.172 5.563 5.832.574-.84.246-7.316-.621-12.265-.79-4.477-1.247-3.243-.543 1.46.949 6.391 1.109 9.07.59 9.84-.712 1.051-1.84-.48-4.973-6.761-3.164-6.336-14.453-30.903-15.426-33.567-.402-1.101-.86-4.055-1.016-6.558-.437-7.012.965-15.036 4.399-25.192.851-2.52 1.476-4.808 1.383-5.082-.09-.273-1.52 2.04-3.172 5.14-5.453 10.223-9.102 14.966-10.965 14.25-.383-.144-.98-1.448-1.328-2.894-1.266-5.273.402-41.293 2.293-49.48.406-1.754 1.433-4.91 2.285-7.016a1965 1965 0 0 0 1.828-4.52c.703-1.738-1.11.102-4.629 4.704-2.11 2.754-4.89 6.117-6.184 7.476l-2.351 2.465-.16-1.601c-.086-.88.75-4.805 1.863-8.727a760 760 0 0 0 4.066-15.144c1.13-4.41 3.051-11.399 4.274-15.532 2.496-8.433 2.754-9.816 1.887-10.12-.715-.255-5.903 6.593-8.461 11.167-.993 1.766-1.883 3.211-1.985 3.211-.277 0 .262-4.777 1.016-9.016.836-4.68 2.918-9.328 6.016-13.425 2.75-3.637 2.773-4.696.035-1.504m97.312 15.722c-4.39 1.063-8.773 3.344-14.23 7.403-7.95 5.91-11.13 10.183-11.149 14.988-.007 1.766.203 2.48.809 2.711 1.332.512 2.418-.563 2.71-2.68.575-4.18 4.388-8.527 12-13.687 8.68-5.88 14.536-6.965 28.106-5.215 6.836.883 16.965 1.176 19.196.555 1.164-.325 1.382-.63 1.25-1.754l-.157-1.36-6.34-.105c-3.488-.055-9.164-.45-12.617-.875-7.644-.942-15.632-.934-19.578.02m89.266 1.898c-1.336 1.008-2.125 1.078-14.79 1.32-13.32.25-13.39.258-16.636 1.668-1.793.777-4.16 1.754-5.266 2.172a67 67 0 0 0-3.507 1.441c-.829.383-3.594 1.586-6.149 2.676-8.289 3.547-14.543 8.504-16.691 13.235-2.469 5.433-.438 11.941 5.62 17.996 1.903 1.898 4.192 3.761 5.087 4.132 2.515 1.051 13.465 1.934 19.32 1.56 9.352-.603 16.727-2.481 23.508-5.997 1.867-.969 4.863-2.242 6.656-2.828 6.102-2 9.59-4.863 11.88-9.758 1.296-2.766 1.405-3.469 1.378-8.766-.035-6.84-.73-8.82-4.922-13.98-1.48-1.816-3-3.899-3.379-4.621l-.695-1.32z" style="stroke:none;fill-rule:evenodd;fill:#2a2622;fill-opacity:1"/><path d="M136.992 98.523c-2.133 1.051-3.68 3.059-8.285 10.75-10.957 18.301-18.918 39.438-21.363 56.73-.371 2.618-1.27 5.009-3.766 10.032-1.996 4.008-3.73 8.352-4.433 11.086-.79 3.094-1.399 4.543-1.95 4.649-1.12.214-1.37-1.086-1.75-9.184-.21-4.57-.117-8.516.278-11.27.71-4.992 4.18-19.656 5.257-22.234.415-.988.684-1.793.598-1.793-.375 0-8.379 10.64-10.55 14.027-1.329 2.067-3.063 4.5-3.86 5.41-1.969 2.25-8.266 11.723-14.152 21.286-10.446 16.965-17.758 31.535-20.641 41.129-.855 2.836-1.715 4.816-2.094 4.816-1.035 0-.761-1.746 1.207-7.668 3.305-9.941 13.965-29.934 25.293-47.437 1.516-2.344 2.934-4.559 3.153-4.926s-.48-.113-1.555.562c-3.664 2.313-8.371 4.473-17.805 8.168-11.57 4.535-16.699 7.082-23.77 11.793-6.242 4.164-15.796 13.293-19.199 18.356-1.921 2.851-2.07 3.293-1.613 4.757.274.891.852 9.844 1.285 19.903.805 18.832 1.094 21.344 4.078 35.527 1.567 7.422 2.512 9.059 5.243 9.059 1.902 0 4.484-1.426 4.5-2.488.047-3.258 8.007 13.128 10.793 22.214 4.05 13.23 6.359 18.297 9.207 20.211 4.172 2.813 8.183.473 11.297-6.59 1.207-2.742 1.359-2.898 1.972-2.003 1.707 2.496 9.336 15.671 9.336 16.125 0 .285.59 2.511 1.305 4.953.719 2.441 1.344 5.68 1.387 7.195.058 2.168.582 3.789 2.44 7.598 4.442 9.078 6.802 9.16 14.755.52 1.972-2.15 3.25-3.177 3.543-2.856.254.273 1.191 4.785 2.086 10.02 3.16 18.472 5.847 27.023 11.34 36.097 3.296 5.441 4.472 6.484 11.078 9.789 4.539 2.277 4.726 2.324 4.926 1.285.113-.594.46-5.367.773-10.601.82-13.782 1.426-18.485 3.027-23.465.785-2.438 1.36-4.352 1.274-4.258-.082.094-1.973 2.469-4.203 5.277-4.028 5.074-5.246 6.164-6.887 6.164-1.27 0-.734-3.336 2.238-13.91 1.371-4.887 3.195-11.703 4.05-15.148.86-3.442 2.571-9.621 3.806-13.723 1.234-4.105 2.187-7.527 2.109-7.602-.445-.445-9.68 13.532-10.574 16.008-.11.309-.364.41-.563.227-.597-.555 1.114-13.477 2.2-16.617 1.257-3.649 3.417-7.45 5.824-10.254 2.738-3.192 2.715-2.133-.035 1.504-3.098 4.097-5.18 8.746-6.016 13.425-.754 4.239-1.293 9.016-1.016 9.016.102 0 .993-1.445 1.985-3.21 2.558-4.575 7.746-11.423 8.46-11.169.868.305.61 1.688-1.886 10.121-1.223 4.133-3.145 11.121-4.274 15.531a760 760 0 0 1-4.066 15.145c-1.113 3.922-1.95 7.848-1.863 8.727l.16 1.601 2.352-2.465c1.292-1.36 4.074-4.722 6.183-7.476 3.52-4.602 5.332-6.442 4.629-4.703-.152.382-.977 2.418-1.828 4.52-.852 2.105-1.879 5.26-2.285 7.015-1.89 8.187-3.559 44.207-2.293 49.48.347 1.446.945 2.75 1.328 2.895 1.863.715 5.512-4.028 10.965-14.25 1.652-3.102 3.082-5.414 3.172-5.14.093.273-.532 2.562-1.383 5.081-3.434 10.156-4.836 18.18-4.399 25.192.157 2.503.614 5.457 1.016 6.558.973 2.664 12.262 27.23 15.426 33.567 3.133 6.28 4.261 7.812 4.972 6.761.52-.77.36-3.449-.59-9.84-.703-4.703-.246-5.937.544-1.46.855 4.867 1.199 11.421.64 12.23-.379.55-.687.563-1.66.055l-1.191-.63.98 1.102c.602.68 1.473 1.063 2.258.996 2.129-.175 4.039 1.102 5.277 3.536 2.063 4.054 5.324 8.039 6.582 8.039 1.367 0 1.516-.211 3.516-4.934.86-2.035 1.676-3.504 1.812-3.266.754 1.317 2.446 7.38 2.77 9.914.402 3.196 1.457 4.465 2.926 3.54.441-.282 1.566-2.422 2.496-4.758.93-2.34 1.91-4.621 2.176-5.074.265-.454.82-2.594 1.23-4.758 2.98-15.782 2.016-34.285-2.48-47.653-1.766-5.242-1.805-5.539-1.59-11.394.254-7.02.77-8.606 4.785-14.715 4.152-6.32 7.648-9.602 11.734-11.016 4.95-1.714 10.078-1.898 16.406-.593 6.446 1.332 10.97 3.027 21.602 8.097 12.715 6.063 22.598 8.07 34.356 6.977 9.074-.844 19.226-4.309 23.43-7.996 2.425-2.13 6-7.535 7.847-11.871 2.512-5.907 4.558-15.797 4.558-22.036v-2.082l-4.054 1.993c-2.23 1.097-6.406 2.574-9.281 3.285-4.657 1.152-5.192 1.394-4.918 2.254.453 1.43-2.47 4.172-5.75 5.398-5.844 2.184-19.72 3.352-29.86 2.512-7.457-.617-9.972-1.508-10.215-3.61-.144-1.234-.37-1.347-3.386-1.667-2.364-.254-3.23-.547-3.23-1.09 0-.625.577-.676 3.636-.336 6.398.715 11.039.32 15.805-1.34 5.238-1.824 5.753-2.246 4.105-3.34-.68-.45-2.7-2.316-4.492-4.148-11.453-11.707-7.652-22.684 10.89-31.461 3.43-1.625 4.594-2.399 4.196-2.793-1.145-1.149-.442-2.395 2.836-5.008 6.906-5.508 10.152-10.633 10.156-16.027 0-6.114-2.82-15.387-6.637-21.829-.902-1.52-3.566-4.804-5.922-7.3-4.226-4.48-6.73-8.203-8.062-11.989-.82-2.328-2.754-4.05-6.457-5.75-1.516-.695-4.844-2.484-7.395-3.972-3.773-2.207-5.191-2.762-7.613-2.98-2.902-.266-3.055-.216-6.14 1.991-7.075 5.055-15.708 13.063-35.633 33.051-14.856 14.899-21.024 20.778-21.23 20.235-.306-.793.882-2.473 9.089-12.832 9.473-11.95 16.238-19.586 25.762-29.055 5.398-5.375 11.132-10.672 12.734-11.774 1.606-1.105 4.86-3.43 7.238-5.171 6.16-4.516 6.856-4.82 10.907-4.832 3.21-.012 3.863.18 7.68 2.23 3.702 1.988 6.991 4.633 15.011 12.059.902.836 2.934 2.218 4.516 3.078 6.968 3.793 12.734 8.316 17.023 13.37 1.496 1.763 4.793 4.782 7.324 6.712 10.813 8.25 13.774 11.55 18.422 20.55 2.125 4.11 4.027 7.024 5.824 8.91 1.465 1.54 2.664 3.134 2.664 3.536 0 .406-.46 1.234-1.027 1.84-.969 1.039-.976 1.12-.125 1.437.496.184 1.602.856 2.453 1.496 1.692 1.27 3.875 1.477 5.504.52 1.664-.973 7.688-7.817 8.797-9.988.777-1.524.938-2.48.68-4.07-.422-2.583-2.192-6.208-4.356-8.923-2.324-2.918-9.262-8.129-15.894-11.945-3.114-1.789-7.496-4.59-9.746-6.219-8.336-6.05-16.5-15.656-21.164-24.914-2.887-5.719-6.223-16.176-7.25-22.722-2.243-14.223-4.614-18.043-16.836-27.118-24.684-18.32-41.051-27.062-74.903-40-11.691-4.468-17.234-7.093-19.039-9.011-.91-.97-1.18-2.094-1.562-6.504-.711-8.16-1.856-12.145-5.668-19.711-1.016-2.008-3.446-7.645-5.403-12.524-3.859-9.632-7.812-17.918-9.812-20.574-.7-.926-2.297-2.336-3.555-3.133-4.894-3.097-8.601-1.293-12.355 6.016-.793 1.55-.801 1.746-.075 2.152.442.246 2.5 1.797 4.575 3.446 9.156 7.27 15.914 19.445 18.851 33.976 1.051 5.192 1.934 20.953 1.149 20.465-.25-.152-.512-2.95-.582-6.21-.243-11.47-2.86-22.75-7.313-31.556-2.68-5.3-4.722-8.222-8.574-12.265-2.73-2.864-8.461-7.453-9.305-7.453-.593 0-8.652 16.593-10.707 22.043-4.695 12.445-6.98 22.453-8.078 35.32l-.3 3.504.945-2.004c2.058-4.375 5.789-7.262 9.382-7.262 2.149 0 3.747.754 3.747 1.77 0 .496.535.734 1.644.734 2.008 0 3.871 1.219 3.871 2.535 0 .793.356.973 1.906.973 3.04 0 4.23 2.164 2.036 3.7l-1.079.753 1.204.262c.66.144 1.761.328 2.453.406 1.797.2 1.957 2.074.273 3.176-.992.648-1.164 1.004-.742 1.512.918 1.105.043 2.578-2.023 3.402-1.528.61-1.985 1.082-2.11 2.176-.117 1.02-.668 1.664-2.039 2.398-2.238 1.191-2.39 1.754-.48 1.754 1.773 0 2.609.82 2.609 2.57 0 1.184.227 1.395 1.629 1.532 1.36.128 1.656.382 1.789 1.535.098.847-.117 1.484-.555 1.652-.46.18-.62.73-.46 1.57.183.961-.067 1.536-.954 2.22-.996.765-1.05.921-.316.933.488.004 1.39.27 2.008.59a66 66 0 0 0 1.87.925c1.122.52 1.22 2.356.157 2.907-1.168.609-6.965 1.601-9.352 1.601-1.015 0-2.289-.277-2.832-.613-.859-.54-1.195-.383-2.691 1.25-2.29 2.5-2.89 2.43-4.61-.52-.894-1.535-.902-1.726-.124-3.254.453-.894.921-2.187 1.046-2.875.125-.691.403-1.675.622-2.187.343-.824.265-.871-.657-.375-2.457 1.312-4.465.023-3.582-2.297.325-.851.262-1.152-.238-1.152-.375 0-.957-.336-1.293-.742-.598-.72-.492-1.356.727-4.348.23-.57.03-.93-.637-1.14-.54-.173-1.34-1.153-1.785-2.177l-.809-1.867.277 3.258c.793 9.371 4.739 21.918 10.551 33.566 2.27 4.547 4.395 9.344 4.727 10.657 1.262 5.015-1.004 24.914-2.84 24.914-.914 0-.898-.207.55-7.516 1.4-7.074 1.65-14.594.598-18.082-.367-1.215-1.8-4.265-3.183-6.773-6.488-11.746-10.754-24.922-12.23-37.766-.829-7.219-.344-21.101 1.003-28.809 2.64-15.074 7.871-29.199 17.059-46.09 4.18-7.675 5.754-9.82 8.144-11.066 1.957-1.023 5.137-.867 7.563.367 1.937.989 2.047 1 1.383.125-4.051-5.324-6.86-6.636-10.438-4.875m-35.613 86.942c-1.469 1.469 0 11.242 2.558 16.988.66 1.484 2.36 4.711 3.774 7.168s2.832 5.277 3.152 6.262c.317.988 1.45 3.586 2.516 5.777 1.914 3.93 1.941 4.063 1.941 9.84 0 4.746.14 5.91.75 6.145 2.23.855 3.035-1.84 2.66-8.93-.246-4.715-1.335-7.473-8.5-21.543-4.402-8.652-5.347-11.41-5.91-17.23-.254-2.641-.656-4.352-1.093-4.626-.918-.582-1.133-.562-1.848.149m-89.453 34.238c-.535.883-1.899 5.91-1.887 6.957.008.57.582-.629 1.274-2.664 1.109-3.25 1.457-5.676.613-4.293m213.25 66.809c-2.473.336-3.633 1.515-2.653 2.691.465.559 2.543.79 8.997 1 7.996.262 14 1.078 19.355 2.64 2.77.81 4.332.333 4.332-1.316 0-.668-.555-1.238-1.629-1.683-2.785-1.153-11.875-2.77-18.426-3.278-6.675-.515-6.605-.515-9.976-.054m-4.508 7.578c-.66.277-2.688 1.824-4.512 3.433-1.824 1.614-4.511 3.664-5.976 4.563-2.79 1.707-3.29 3.074-1.528 4.18 1.106.691 5.434-1.903 9.774-5.868l3.23-2.941 3.875.223c4.242.246 6.938 1.261 12.883 4.843 1.879 1.13 4.156 2.196 5.059 2.364 3.707.695 7.93-2.274 7.632-5.367-.144-1.504-.324-1.688-1.664-1.688-1.164 0-1.539.25-1.66 1.09-.437 3.082-3.383 2.988-8.754-.274-2.27-1.378-5.48-2.953-7.136-3.5-3.63-1.199-9.57-1.757-11.223-1.058m39.676 4.07c-1.637 1.637.09 3.77 2.25 2.785 1.672-.761 1.41-3.05-.371-3.257-.692-.083-1.536.132-1.88.472m4.641 6.98c-3.273 2.258-8.504 4.465-10.578 4.465-2.351 0-3.46.93-2.969 2.48.278.864.747 1.028 2.989 1.028 3.21 0 5.89-.894 9.988-3.328 2.945-1.75 4.332-2.95 4.332-3.746 0-.465-1.46-1.945-1.918-1.941-.187.004-1.015.472-1.844 1.043m-42.707 6.789c-3.261 1.156-6.375 4.254-8.75 8.703-1.164 2.183-3.113 5.11-4.328 6.496-4.347 4.965-12.226 9.586-21.43 12.574-5.601 1.817-6.265 2.188-6.265 3.512 0 1.89 1.527 1.933 6.848.195 14.34-4.691 23.023-11.078 28.246-20.773 3.156-5.86 6.14-8.012 11.125-8.02 1.015 0 4.511.992 7.77 2.207 3.26 1.211 10.1 3.145 15.202 4.293 5.102 1.145 12.153 2.88 15.672 3.856 3.52.972 6.735 1.64 7.145 1.484 1.129-.434.898-2.203-.399-3.05-1.36-.891-10.957-3.473-22.418-6.036-4.55-1.016-10.941-2.84-14.199-4.055-6.547-2.437-10.23-2.796-14.219-1.386m-154.75 14.207c.57 3.086 1.192 4.511.895 2.054-.149-1.214-.484-2.566-.742-3.007-.328-.551-.375-.254-.153.953m159.422 5.804c-4.39 1.063-8.773 3.344-14.23 7.403-7.95 5.91-11.13 10.183-11.149 14.988-.007 1.766.203 2.48.809 2.711 1.332.512 2.418-.563 2.71-2.68.575-4.18 4.388-8.527 12-13.687 8.68-5.88 14.536-6.965 28.106-5.215 6.836.883 16.965 1.176 19.196.555 1.164-.325 1.382-.63 1.25-1.754l-.157-1.36-6.34-.105c-3.488-.055-9.164-.45-12.617-.875-7.644-.942-15.632-.934-19.578.02m89.266 1.898c-1.336 1.008-2.125 1.078-14.79 1.32-13.32.25-13.39.258-16.636 1.668-1.793.777-4.16 1.754-5.266 2.172a67 67 0 0 0-3.507 1.441c-.829.383-3.594 1.586-6.149 2.676-8.289 3.547-14.543 8.504-16.691 13.235-2.469 5.433-.438 11.941 5.62 17.996 1.903 1.898 4.192 3.761 5.087 4.132 2.515 1.051 13.465 1.934 19.32 1.56 9.352-.603 16.727-2.481 23.508-5.997 1.867-.969 4.863-2.242 6.656-2.828 6.102-2 9.59-4.863 11.88-9.758 1.296-2.766 1.405-3.469 1.378-8.766-.035-6.84-.73-8.82-4.922-13.98-1.48-1.816-3-3.899-3.379-4.621l-.695-1.32zM74.723 352.793c-.024.566 3.562 8.617 4.082 9.164.261.277-.328-1.379-1.309-3.676-1.844-4.312-2.746-6.101-2.773-5.488m5.5 12.605c0 .786 3.109 8.336 3.543 8.606.675.418.644.316-1.352-4.317-1.812-4.207-2.191-4.953-2.191-4.289m72.46 112.036c.395 1.289 1.7 3.507 2.063 3.507.219 0-1.773-4.09-2.195-4.507-.14-.141-.078.312.133 1" style="stroke:none;fill-rule:evenodd;fill:#9fa19d;fill-opacity:1"/></svg>