<svg xmlns="http://www.w3.org/2000/svg" viewBox="0 0.67 115.87 86.18"><path d="M15 383.738c8.285 0 15-6.715 15-15V294.98c0-8.285-6.715-15-15-15s-15 6.715-15 15v73.758c0 8.285 6.715 15 15 15M108.219 497.875c8.285 0 15-6.715 15-15V180.84c0-8.281-6.715-15-15-15-8.281 0-15 6.719-15 15v302.035c0 8.285 6.718 15 15 15M201.441 612.012c8.282 0 15-6.715 15-15V66.703c0-8.281-6.718-15-15-15-8.285 0-15 6.719-15 15v530.309c0 8.285 6.715 15 15 15M481.102 655c8.285 0 15-6.715 15-15V23.719c0-8.285-6.715-15-15-15s-15 6.715-15 15V640c0 8.285 6.714 15 15 15M294.66 437.102c8.285 0 15-6.715 15-15V241.617c0-8.285-6.715-15-15-15s-15 6.715-15 15v180.485c0 8.285 6.715 15 15 15M387.879 497.875c8.285 0 15-6.715 15-15V180.84c0-8.281-6.715-15-15-15-8.281 0-15 6.719-15 15v302.035c0 8.285 6.719 15 15 15M574.32 558.652c8.285 0 15-6.718 15-15V120.066c0-8.285-6.715-15-15-15s-15 6.715-15 15v423.586c0 8.282 6.715 15 15 15M760.762 571.992c8.285 0 15-6.715 15-15V106.727c0-8.286-6.715-15-15-15s-15 6.714-15 15v450.265c0 8.285 6.715 15 15 15M667.539 442.289c8.285 0 15-6.715 15-15V236.43c0-8.285-6.715-15-15-15-8.281 0-15 6.715-15 15v190.859c0 8.285 6.719 15 15 15M853.98 384.313c8.286 0 15-6.715 15-15v-74.907c0-8.285-6.714-15-15-15s-15 6.715-15 15v74.907c0 8.285 6.715 15 15 15" style="fill:#000;fill-opacity:1;fill-rule:nonzero;stroke:none" transform="matrix(.13333 0 0 -.13333 0 88)"/></svg>