<svg xmlns="http://www.w3.org/2000/svg" xmlns:xlink="http://www.w3.org/1999/xlink" id="Livello_1" x="0px" y="0px" xml:space="preserve" viewBox="2 16.74 51.03 51.03"><g>																					<path fill="#003594" d="M39.735,16.741H15.296C7.964,16.741,2,22.706,2,30.039v24.438c0,7.333,5.964,13.297,13.296,13.297h36.659  h1.078v-1.077V30.039C53.033,22.706,47.066,16.741,39.735,16.741"/>	<path fill="#FFFFFF" d="M43.698,45.622v5.916v1.039H39.36c-1.787,0-2.21-1.366-2.31-2.011c-0.03-0.199-0.03-0.329-0.03-0.329v-4.37  v-6.6c0-2.34-2.34-2.34-2.34-2.34h-1.506c-2.341,0-2.341,2.34-2.341,2.34v10.97c0,2.34-2.34,2.34-2.34,2.34h-1.998  c-1.732,0-2.183-1.28-2.3-1.948c-0.04-0.234-0.04-0.392-0.04-0.392v-4.119v-6.851c0-2.34-2.339-2.34-2.339-2.34h-1.466  c-2.34,0-2.34,2.34-2.34,2.34v4.782v6.188c0,0.278-0.033,0.523-0.091,0.741c-0.435,1.599-2.249,1.599-2.249,1.599h-1.998  c-2.34,0-2.34-2.34-2.34-2.34V34.278c0-2.338,2.34-2.338,2.34-2.338h22.488c3.48,0,5.403,0.811,6.635,2.796  c0.778,1.339,0.901,2.028,0.901,5.8V45.622z"/></g></svg>