<svg xmlns="http://www.w3.org/2000/svg" xml:space="preserve" id="Layer_1" x="0" y="0" version="1.1" viewBox="0.5 11.94 48 25.05"><style>.st6{fill:#f9f7f7;stroke:#8f8f8f;stroke-width:.2804;stroke-linecap:round;stroke-miterlimit:10}.st8{fill:#727272}.st9{font-family:&quot;ArialMT&quot;}.st10{font-size:1.2166px}.st11{fill:#5c5c5c}.st12{font-size:1.7913px}</style><g transform="translate(-.997 -70.93)scale(.12359)"><path d="m12.4 813.7-.3-88.6 312.4 8.5 4.2 84.2z" style="opacity:.63;fill-rule:evenodd;clip-rule:evenodd;fill:#353564"/><path d="m12.4 813.7 63.3 58.5 324.8 1-71.8-55.5z" style="opacity:.63;fill-rule:evenodd;clip-rule:evenodd;fill:#4d4d9f"/><path d="m328.7 817.7 71.8 55.5-5.2-88-70.7-51.6z" style="opacity:.63;fill-rule:evenodd;clip-rule:evenodd;fill:#e9e9ff"/><path d="M86.5 793.5V671.1h291.2v122.4z" style="opacity:.999;fill:#fcfcfc;stroke:#040406;stroke-width:.1477;stroke-miterlimit:10"/><path d="m75.7 872.2-1.1-92.9 320.7 5.9 5.2 88z" style="fill-rule:evenodd;clip-rule:evenodd;fill:#fd5"/><path d="m12.4 813.7 63.3 58.5-1.1-92.9-62.4-54.2z" style="fill-rule:evenodd;clip-rule:evenodd;fill:#d4aa00"/><circle cx="324.3" cy="690.2" r="6.4" class="st6"/><circle cx="354.3" cy="690.2" r="6.4" class="st6"/></g><path d="M37.9 16.2c1.8 1.7 3.7 2.1 6 0" style="fill:none;stroke:#8f8f8f;stroke-width:.5518;stroke-miterlimit:10"/><text class="st8 st9 st10" transform="translate(10.906 13.95)">RETURN PATH</text><text class="st8 st9 st10" transform="translate(10.906 15.166)">IMAP DNS</text><text class="st11 st9 st12" transform="translate(22.473 18.729)">Mail-in-a-Box</text><text class="st11 st9 st12" transform="translate(22.473 20.52)">SMTP Port 25</text><text class="st11 st9 st12" transform="translate(22.473 22.312)">The Internet</text></svg>