<?xml version="1.0" encoding="UTF-8"?>
<svg xmlns="http://www.w3.org/2000/svg" xmlns:xlink="http://www.w3.org/1999/xlink" width="512px" height="512px" viewBox="0 0 512 512" version="1.1">
<g id="surface1">
<path style=" stroke:none;fill-rule:nonzero;fill:rgb(100%,100%,100%);fill-opacity:1;" d="M 92.367188 -0.242188 L 419.648438 -0.242188 C 470.390625 -0.242188 511.527344 51.679688 511.527344 115.730469 L 511.527344 396.269531 C 511.527344 460.320312 470.390625 512.242188 419.648438 512.242188 L 92.367188 512.242188 C 41.625 512.242188 0.488281 460.320312 0.488281 396.269531 L 0.488281 115.730469 C 0.488281 51.679688 41.625 -0.242188 92.367188 -0.242188 Z M 92.367188 -0.242188 "/>
<path style=" stroke:none;fill-rule:nonzero;fill:rgb(0%,0%,0%);fill-opacity:1;" d="M 109.976562 85.628906 C 83.09375 85.628906 61.300781 107.421875 61.300781 134.304688 L 61.300781 329.246094 C 61.433594 356.035156 83.1875 377.679688 109.976562 377.679688 L 243.832031 377.679688 C 250.550781 377.679688 256 372.230469 256 365.511719 C 256 358.789062 250.550781 353.339844 243.832031 353.339844 L 109.976562 353.339844 C 98.960938 353.34375 89.320312 345.945312 86.464844 335.308594 L 223.730469 250.832031 L 256 270.179688 L 426.363281 167.964844 L 426.363281 243.824219 C 426.367188 250.539062 431.8125 255.984375 438.53125 255.984375 C 445.246094 255.984375 450.695312 250.539062 450.699219 243.824219 L 450.699219 134.304688 C 450.699219 107.421875 428.90625 85.628906 402.023438 85.628906 Z M 200.21875 236.714844 L 85.636719 307.222656 L 85.636719 167.964844 Z M 85.636719 139.585938 L 85.636719 134.304688 C 85.636719 120.863281 96.535156 109.96875 109.976562 109.96875 L 402.023438 109.96875 C 415.464844 109.96875 426.363281 120.863281 426.363281 134.304688 L 426.363281 139.585938 L 256 241.804688 Z M 85.636719 139.585938 "/>
<path style=" stroke:none;fill-rule:nonzero;fill:rgb(0%,0%,0%);fill-opacity:1;" d="M 450.699219 341.171875 C 450.707031 388.222656 412.570312 426.371094 365.519531 426.371094 C 318.46875 426.371094 280.328125 388.222656 280.335938 341.171875 C 280.335938 294.128906 318.472656 255.992188 365.519531 255.992188 C 412.5625 255.992188 450.699219 294.128906 450.699219 341.171875 M 402.195312 300.308594 C 396.429688 296.855469 388.953125 298.730469 385.5 304.496094 L 357.023438 351.953125 L 343.710938 338.640625 C 338.953125 333.882812 331.238281 333.882812 326.480469 338.640625 C 321.722656 343.398438 321.722656 351.113281 326.480469 355.871094 L 345.316406 374.683594 C 349.292969 378.667969 354.878906 380.59375 360.460938 379.910156 C 366.042969 379.222656 370.996094 376.003906 373.890625 371.179688 L 406.382812 317.003906 C 409.835938 311.238281 407.960938 303.765625 402.195312 300.308594 "/>
</g>
</svg>
