<svg width="1207" height="1456" viewBox="0 0 1207 1456" fill="none" xmlns="http://www.w3.org/2000/svg">
<path fill-rule="evenodd" clip-rule="evenodd" d="M601.363 236.753C597.153 236.2 592.909 235.947 588.664 235.996C551.235 235.999 490.156 250.929 449.487 270.179C378.074 303.113 319.095 358.065 281.201 426.974C242.859 495.769 227.854 575.141 238.437 653.186C246.012 711.433 267.351 767.039 300.687 815.4C334.023 863.763 378.399 903.49 430.141 931.294C481.883 959.098 539.503 974.179 598.232 975.288C656.961 976.397 715.113 963.501 767.868 937.671C914.054 865.66 976.833 721.931 974.518 609.919L974.486 608.362L915.756 608.676L915.698 610.187C912.294 697.857 879.832 771.552 819.579 829.292L819.567 829.303C791.239 857.033 757.727 878.911 720.943 893.687C684.16 908.464 644.826 915.851 605.187 915.425L605.17 915.425H591.897C441.787 909.867 318.386 794.855 298.123 641.846L298.121 641.835C288.39 572.097 304.278 501.197 342.837 442.279L342.844 442.268C402.009 350.119 488.701 300.662 601.234 295.187L602.738 295.114V236.933L601.363 236.753ZM803.402 408.412C751.057 355.898 679.995 326.329 605.848 326.208C534.103 325.414 464.97 353.1 413.606 403.198L412.4 404.373L435.422 425.195L456.098 444.07L457.164 443.102C488.895 414.279 528.375 395.385 570.727 388.756C613.078 382.127 656.444 388.052 695.464 405.801C734.485 423.549 767.449 452.342 790.284 488.621C813.119 524.9 824.822 567.075 823.949 609.933C823.076 652.791 809.663 694.454 785.369 729.773C761.075 765.091 726.965 792.517 687.254 808.661C647.543 824.805 603.972 828.959 561.926 820.609C519.88 812.26 481.201 791.773 450.672 761.682L449.503 760.53L418.667 794.219L409.581 804.221L410.589 805.286C458.098 855.489 530.235 885.367 604.944 885.368C679.093 885.487 750.253 856.145 802.768 803.798C855.284 751.451 884.853 680.385 884.972 606.236C885.091 532.087 855.75 460.928 803.402 408.412ZM509.897 438.211C539.141 421.523 572.245 412.782 605.915 412.857C634.015 412.806 661.778 418.973 687.214 430.916C765.271 467.324 798.934 543.513 797.658 600.698L797.624 602.243H738.458L738.393 600.731C737.472 579.576 731.538 558.943 721.081 540.53C710.623 522.118 695.941 506.453 678.243 494.827L678.22 494.812C656.969 480.308 631.802 472.627 606.073 472.793L606.065 472.793C600.217 472.799 594.376 473.167 588.574 473.895C556.716 477.854 527.385 493.273 506.062 517.272C484.738 541.271 472.878 572.21 472.695 604.313L472.695 604.321C472.034 664.81 516.889 732.178 601.436 739.089L602.888 739.208V797.311H595.065C545.199 797.311 474.644 766.798 437.186 699.897C420.742 670.514 412.278 637.337 412.636 603.668C412.993 569.998 422.16 537.009 439.223 507.981C456.287 478.953 480.653 454.899 509.897 438.211ZM662.712 603.444C662.712 636.858 635.625 663.944 602.212 663.944C568.799 663.944 541.712 636.858 541.712 603.444C541.712 570.031 568.799 542.944 602.212 542.944C635.625 542.944 662.712 570.031 662.712 603.444ZM485.899 1127.76H507.635V1208.87H557.761V1226.3H485.899V1127.76ZM403.259 1127.93L359.317 1226.48H381.465L390.3 1205.04H437.717L446.553 1226.48H469.231L425.171 1127.93H403.259ZM397.192 1188.96L414.097 1148.02L431.061 1188.96H397.192ZM287.337 1190.72L324.623 1127.88H342.53L342.824 1226.42H322.561L322.385 1164.51L295.996 1208.87L286.984 1223.77L282.684 1216.7L282.213 1215.88L251.76 1165.87V1226.48H231.497V1127.93V1127.88H249.463L287.337 1190.72ZM558.763 1127.76V1145.13H590.747V1226.3H612.423V1145.13H644.408V1127.7H558.763V1127.76ZM949.172 1132.65C957.36 1137.06 963.78 1143.19 968.493 1150.97C973.146 1158.62 975.502 1167.28 975.502 1177C975.502 1186.72 973.205 1195.44 968.493 1203.21C963.78 1210.87 957.36 1216.94 949.172 1221.35C940.985 1225.77 931.796 1228.01 921.488 1228.01C911.239 1228.01 901.932 1225.77 893.686 1221.35C885.498 1216.94 879.078 1210.93 874.365 1203.21C869.771 1195.44 867.474 1186.66 867.474 1177C867.474 1167.34 869.771 1158.68 874.365 1150.97C879.078 1143.19 885.498 1137.06 893.686 1132.65C901.991 1128.23 911.239 1125.99 921.488 1125.99C931.796 1125.99 940.985 1128.23 949.172 1132.65ZM937.863 1205.63C942.752 1202.8 946.581 1198.85 949.29 1193.91C952.117 1188.96 953.531 1183.3 953.531 1177C953.531 1170.7 952.117 1165.1 949.29 1160.1C946.581 1155.15 942.752 1151.26 937.863 1148.55C932.974 1145.72 927.496 1144.31 921.488 1144.31C915.48 1144.31 910.002 1145.72 905.113 1148.55C900.283 1151.26 896.395 1155.09 893.568 1160.1C890.799 1165.04 889.445 1170.7 889.445 1177C889.445 1183.3 890.858 1188.9 893.568 1193.91C896.395 1198.91 900.224 1202.8 905.113 1205.63C910.002 1208.34 915.48 1209.69 921.488 1209.69C927.555 1209.69 932.974 1208.34 937.863 1205.63ZM686.11 1184.6H729.11V1168.05H686.11V1144.9H738.711V1127.76H664.552V1226.3H740.537V1209.16H686.11V1184.6ZM812.694 1144.25C806.215 1144.25 800.443 1145.66 795.377 1148.49C790.311 1151.26 786.365 1155.15 783.537 1160.21C780.71 1165.28 779.296 1171.11 779.296 1177.71C779.296 1184.6 780.592 1189.65 783.361 1194.54C786.188 1199.43 789.958 1203.14 794.67 1205.67C798.852 1207.85 803.388 1209.03 808.218 1209.26H829.423V1182.46H849.097V1227.17H806.149C805.722 1227.17 804.684 1227.11 804.684 1227.11L803.918 1227.05C796.084 1226.64 788.839 1224.7 782.183 1221.22C774.584 1217.27 768.576 1211.56 764.04 1204.08C759.505 1196.54 757.267 1188.37 757.267 1177.88C757.267 1167.81 759.564 1158.86 764.158 1151.08C768.87 1143.19 775.35 1137.06 783.596 1132.65C791.902 1128.23 801.208 1125.99 811.575 1125.99C820.234 1125.99 828.068 1127.46 835.195 1130.35C842.028 1133.18 847.742 1137.18 852.454 1142.48L838.612 1155.27C831.426 1147.9 822.767 1144.25 812.694 1144.25Z" fill="#303849"/>
</svg>
