<svg width="1207" height="1456" viewBox="0 0 1207 1456" fill="none" xmlns="http://www.w3.org/2000/svg">
<path fill-rule="evenodd" clip-rule="evenodd" d="M601.362 236.753C597.152 236.2 592.908 235.947 588.663 235.996C551.234 235.999 490.155 250.929 449.486 270.179C378.073 303.113 319.094 358.065 281.2 426.974C242.858 495.769 227.853 575.141 238.436 653.186C246.011 711.433 267.35 767.039 300.686 815.4C334.022 863.763 378.398 903.49 430.14 931.294C481.882 959.098 539.502 974.179 598.231 975.288C656.96 976.397 715.112 963.501 767.867 937.671C914.053 865.66 976.832 721.931 974.517 609.919L974.485 608.362L915.755 608.676L915.697 610.187C912.294 697.857 879.831 771.552 819.578 829.292L819.566 829.303C791.238 857.033 757.726 878.911 720.942 893.687C684.159 908.464 644.825 915.851 605.186 915.425L605.169 915.425H591.896C441.786 909.867 318.385 794.855 298.122 641.846L298.12 641.835C288.389 572.097 304.277 501.197 342.836 442.279L342.843 442.268C402.008 350.119 488.7 300.662 601.233 295.187L602.737 295.114V236.933L601.362 236.753ZM803.401 408.412C751.056 355.898 679.994 326.329 605.847 326.208C534.102 325.414 464.969 353.1 413.605 403.198L412.4 404.373L435.421 425.195L456.097 444.07L457.163 443.102C488.894 414.279 528.374 395.385 570.726 388.756C613.077 382.127 656.443 388.052 695.463 405.801C734.484 423.549 767.448 452.342 790.283 488.621C813.118 524.9 824.821 567.075 823.948 609.933C823.075 652.791 809.662 694.454 785.368 729.773C761.074 765.091 726.964 792.517 687.253 808.661C647.542 824.805 603.971 828.959 561.925 820.609C519.879 812.26 481.2 791.773 450.671 761.682L449.502 760.53L418.666 794.219L409.58 804.221L410.588 805.286C458.097 855.489 530.234 885.367 604.943 885.368C679.092 885.487 750.252 856.145 802.767 803.798C855.283 751.451 884.852 680.385 884.971 606.236C885.09 532.087 855.749 460.928 803.401 408.412ZM509.896 438.211C539.14 421.523 572.244 412.782 605.914 412.857C634.014 412.806 661.777 418.973 687.213 430.916C765.27 467.324 798.933 543.513 797.657 600.698L797.623 602.243H738.457L738.392 600.731C737.471 579.576 731.537 558.943 721.08 540.53C710.622 522.118 695.94 506.453 678.242 494.827L678.219 494.812C656.968 480.308 631.801 472.627 606.073 472.793L606.064 472.793C600.216 472.799 594.375 473.167 588.573 473.895C556.715 477.854 527.384 493.273 506.061 517.272C484.737 541.271 472.877 572.21 472.694 604.313L472.694 604.321C472.033 664.81 516.888 732.178 601.435 739.089L602.888 739.208V797.311H595.064C545.198 797.311 474.643 766.798 437.185 699.897C420.742 670.514 412.277 637.337 412.635 603.668C412.992 569.998 422.159 537.009 439.222 507.981C456.286 478.954 480.652 454.899 509.896 438.211ZM662.711 603.444C662.711 636.858 635.624 663.944 602.211 663.944C568.798 663.944 541.711 636.858 541.711 603.444C541.711 570.031 568.798 542.944 602.211 542.944C635.624 542.944 662.711 570.031 662.711 603.444ZM485.898 1127.76H507.634V1208.87H557.76V1226.3H485.898V1127.76ZM403.258 1127.93L359.316 1226.48H381.464L390.299 1205.04H437.717L446.552 1226.48H469.23L425.17 1127.93H403.258ZM397.191 1188.96L414.096 1148.02L431.06 1188.96H397.191ZM287.336 1190.72L324.622 1127.88H342.529L342.823 1226.42H322.56L322.384 1164.51L295.995 1208.87L286.983 1223.77L282.683 1216.7L282.212 1215.88L251.759 1165.87V1226.48H231.496V1127.93V1127.88H249.462L287.336 1190.72ZM558.762 1127.76V1145.13H590.746V1226.3H612.422V1145.13H644.407V1127.7H558.762V1127.76ZM949.171 1132.65C957.359 1137.06 963.779 1143.19 968.492 1150.97C973.145 1158.62 975.501 1167.28 975.501 1177C975.501 1186.72 973.204 1195.44 968.492 1203.21C963.779 1210.87 957.359 1216.94 949.171 1221.35C940.984 1225.77 931.795 1228.01 921.487 1228.01C911.238 1228.01 901.931 1225.77 893.685 1221.35C885.497 1216.94 879.077 1210.93 874.364 1203.21C869.77 1195.44 867.473 1186.66 867.473 1177C867.473 1167.34 869.77 1158.68 874.364 1150.97C879.077 1143.19 885.497 1137.06 893.685 1132.65C901.99 1128.23 911.238 1125.99 921.487 1125.99C931.795 1125.99 940.984 1128.23 949.171 1132.65ZM937.862 1205.63C942.751 1202.8 946.58 1198.85 949.289 1193.91C952.117 1188.96 953.53 1183.3 953.53 1177C953.53 1170.7 952.117 1165.1 949.289 1160.1C946.58 1155.15 942.751 1151.26 937.862 1148.55C932.973 1145.72 927.495 1144.31 921.487 1144.31C915.479 1144.31 910.001 1145.72 905.112 1148.55C900.282 1151.26 896.394 1155.09 893.567 1160.1C890.798 1165.04 889.444 1170.7 889.444 1177C889.444 1183.3 890.857 1188.9 893.567 1193.91C896.394 1198.91 900.223 1202.8 905.112 1205.63C910.001 1208.34 915.479 1209.69 921.487 1209.69C927.554 1209.69 932.973 1208.34 937.862 1205.63ZM686.109 1184.6H729.109V1168.05H686.109V1144.9H738.71V1127.76H664.551V1226.3H740.536V1209.16H686.109V1184.6ZM812.693 1144.25C806.214 1144.25 800.442 1145.66 795.376 1148.49C790.31 1151.26 786.364 1155.15 783.536 1160.21C780.709 1165.28 779.295 1171.11 779.295 1177.71C779.295 1184.6 780.591 1189.65 783.36 1194.54C786.187 1199.43 789.957 1203.14 794.669 1205.67C798.851 1207.85 803.387 1209.03 808.217 1209.26H829.422V1182.46H849.096V1227.17H806.148C805.721 1227.17 804.683 1227.11 804.683 1227.11L803.917 1227.05C796.083 1226.64 788.838 1224.7 782.182 1221.22C774.583 1217.27 768.575 1211.56 764.039 1204.08C759.504 1196.54 757.266 1188.37 757.266 1177.88C757.266 1167.81 759.563 1158.86 764.157 1151.08C768.87 1143.19 775.349 1137.06 783.595 1132.65C791.901 1128.23 801.207 1125.99 811.574 1125.99C820.233 1125.99 828.067 1127.46 835.195 1130.35C842.027 1133.18 847.741 1137.18 852.453 1142.48L838.611 1155.27C831.425 1147.9 822.766 1144.25 812.693 1144.25Z" fill="white"/>
</svg>
