<svg width="2022" height="626" viewBox="0 0 2022 626" fill="none" xmlns="http://www.w3.org/2000/svg">
<path d="M485.2 314.336L457.8 314.436V315.136C456.2 356.036 441 390.436 412.9 417.436C399.6 430.436 384 440.636 366.8 447.536C349.6 454.436 331.2 457.836 312.7 457.636H306.5C236.4 455.036 178.8 401.336 169.3 329.936C164.8 297.336 172.2 264.236 190.2 236.736C217.9 193.636 258.4 170.636 310.9 168.036H311.6V140.836L311 140.736C309.1 140.436 307.1 140.336 305.1 140.336C287.6 140.336 259.1 147.336 240.1 156.536C206.7 171.936 179.2 197.536 161.5 229.736C143.6 261.836 136.6 298.936 141.5 335.336C145.1 362.536 155.1 388.436 170.6 411.036C186.1 433.636 206.8 452.136 231 465.136C255.2 478.036 282.1 485.136 309.5 485.636C336.9 486.136 364.1 480.136 388.7 468.036C457 434.436 486.3 367.336 485.2 315.036V314.336Z" fill="white"/>
<path d="M402.7 311.336V310.636C403.3 283.936 387.5 248.336 351.1 231.336C339.2 225.836 326.2 222.936 313.1 222.936C297.4 222.836 282 226.936 268.3 234.736C254.6 242.536 243.3 253.736 235.2 267.336C227.2 280.936 223 296.336 222.8 312.036C222.7 327.736 226.6 343.236 234.3 356.936C251.8 388.236 284.7 402.436 308 402.436H311.7V375.336L311 375.236C271.5 372.036 250.6 340.536 250.9 312.336C251 297.336 256.6 283.036 266.5 271.736C276.4 260.436 290.1 253.236 305 251.436C307.7 251.136 310.5 250.936 313.2 250.936C325.2 250.836 337 254.436 346.9 261.236C355.2 266.636 362 273.936 366.9 282.536C371.8 291.136 374.6 300.736 375 310.636V311.336H402.7Z" fill="white"/>
<path d="M283.199 311.736C283.199 327.336 295.799 339.936 311.399 339.936C326.999 339.936 339.599 327.336 339.599 311.736C339.599 296.136 326.999 283.436 311.399 283.536C295.799 283.536 283.199 296.136 283.199 311.736Z" fill="white"/>
<path d="M222.4 218.936L233.2 228.636L242.9 237.436L243.4 236.936C258.2 223.436 276.6 214.636 296.4 211.536C316.1 208.436 336.4 211.236 354.6 219.536C372.8 227.836 388.2 241.336 398.9 258.236C409.5 275.136 415 294.836 414.6 314.836C414.2 334.936 407.9 354.336 396.6 370.836C385.3 387.336 369.3 400.136 350.8 407.636C332.3 415.236 311.9 417.136 292.3 413.236C272.7 409.336 254.7 399.836 240.4 385.736L239.9 385.236L225.5 400.936L221.3 405.636L221.8 406.136C244 429.536 277.7 443.536 312.6 443.536C347.3 443.536 380.5 429.836 405 405.436C429.5 381.036 443.4 347.936 443.4 313.236C443.4 278.536 429.7 245.336 405.3 220.836C380.9 196.336 347.7 182.536 313.1 182.436C279.6 182.136 247.3 195.036 223 218.436L222.4 218.936Z" fill="white"/>
<path d="M1076.7 227.836H1039.8V395.136H1161.8V365.536H1076.7V227.836Z" fill="white"/>
<path d="M899.499 228.136L824.899 395.436H862.499L877.499 359.036H957.999L972.999 395.436H1011.5L936.699 228.136H899.499ZM889.199 331.736L917.899 262.236L946.699 331.736H889.199Z" fill="white"/>
<path d="M765.999 228.036L702.699 334.736L638.399 228.036H607.899V228.136V395.436H642.299V292.536L693.999 377.436L694.799 378.836L702.099 390.836L717.399 365.536L762.199 290.236L762.499 395.336H796.899L796.399 228.036H765.999Z" fill="white"/>
<path d="M1163.5 227.836V257.336H1217.8V395.136H1254.6V257.336H1308.9V227.736H1163.5V227.836Z" fill="white"/>
<path d="M1859.1 267.236C1851.1 254.036 1840.2 243.636 1826.3 236.136C1812.4 228.636 1796.8 224.836 1779.3 224.836C1761.9 224.836 1746.2 228.636 1732.1 236.136C1718.2 243.636 1707.3 254.036 1699.3 267.236C1691.5 280.336 1687.6 295.036 1687.6 311.436C1687.6 327.836 1691.5 342.736 1699.3 355.936C1707.3 369.036 1718.2 379.236 1732.1 386.736C1746.1 394.236 1761.9 398.036 1779.3 398.036C1796.8 398.036 1812.4 394.236 1826.3 386.736C1840.2 379.236 1851.1 368.936 1859.1 355.936C1867.1 342.736 1871 327.936 1871 311.436C1871 294.936 1867 280.236 1859.1 267.236ZM1826.5 340.136C1821.9 348.536 1815.4 355.236 1807.1 360.036C1798.8 364.636 1789.6 366.936 1779.3 366.936C1769.1 366.936 1759.8 364.636 1751.5 360.036C1743.2 355.236 1736.7 348.636 1731.9 340.136C1727.3 331.636 1724.9 322.136 1724.9 311.436C1724.9 300.736 1727.2 291.136 1731.9 282.736C1736.7 274.236 1743.3 267.736 1751.5 263.136C1759.8 258.336 1769.1 255.936 1779.3 255.936C1789.5 255.936 1798.8 258.336 1807.1 263.136C1815.4 267.736 1821.9 274.336 1826.5 282.736C1831.3 291.236 1833.7 300.736 1833.7 311.436C1833.7 322.136 1831.3 331.736 1826.5 340.136Z" fill="white"/>
<path d="M1379.7 324.336H1452.7V296.236H1379.7V256.936H1469V227.836H1343.1V395.136H1472.1V366.036H1379.7V324.336Z" fill="white"/>
<path d="M1565.2 263.036C1573.8 258.236 1583.6 255.836 1594.6 255.836C1611.7 255.836 1626.4 262.036 1638.6 274.536L1662.1 252.836C1654.1 243.836 1644.4 237.036 1632.8 232.236C1620.7 227.336 1607.4 224.836 1592.7 224.836C1575.1 224.836 1559.3 228.636 1545.2 236.136C1531.2 243.636 1520.2 254.036 1512.2 267.436C1504.4 280.636 1500.5 295.836 1500.5 312.936C1500.5 330.736 1504.3 344.609 1512 357.409C1519.7 370.109 1529.9 379.809 1542.8 386.509C1554.1 392.409 1566.4 395.709 1579.7 396.409L1581 396.509C1581 396.509 1582.76 396.609 1583.49 396.609C1584.21 396.609 1656.4 396.609 1656.4 396.609V320.709H1623V366.209H1587C1578.8 365.809 1571.1 363.809 1564 360.109C1556 355.809 1549.6 349.509 1544.8 341.209C1540.1 332.909 1537.9 324.336 1537.9 312.636C1537.9 301.436 1540.3 291.536 1545.1 282.936C1549.9 274.336 1556.6 267.736 1565.2 263.036Z" fill="white"/>
</svg>
