<svg xmlns="http://www.w3.org/2000/svg" xmlns:svg="http://www.w3.org/2000/svg" version="1.1" id="svg1" viewBox="62 56.06 900 911.89">
  <defs id="defs1"/>
  <g id="g1" transform="matrix(9.5965957,0,0,9.5965957,-56.694659,-63.795752)">
    <path id="path2" style="fill:#3e80e2;fill-opacity:1;stroke:none;stroke-width:2.83773;stroke-dasharray:none;stroke-opacity:1" d="m 26.554487,12.489022 c -7.824772,0 -14.186074,6.361317 -14.186074,14.186075 v 56.746454 c 0,7.824772 6.361302,14.187152 14.186074,14.187152 h 43.778974 c 3.768297,0 7.381587,-1.485625 10.041561,-4.145591 l 12.967481,-12.96748 c 2.659979,-2.659979 4.14559,-6.273261 4.14559,-10.041562 V 26.675097 c 0,-7.824758 -6.362398,-14.186075 -14.187151,-14.186075 z m 41.033907,19.566405 c 1.336836,0 2.674055,0.510291 3.694537,1.530779 l 3.216573,3.224108 c 2.040965,2.040965 2.040965,5.348111 0,7.389076 L 70.547684,48.150133 59.9345,37.536949 63.886321,33.586206 h 0.0085 c 1.020486,-1.020488 2.356624,-1.530779 3.693461,-1.530779 z M 58.089385,39.382065 68.702568,49.995248 49.65611,69.033094 c -0.849053,0.849042 -1.901841,1.469939 -3.052945,1.812821 l -9.820881,2.890393 c -0.685764,0.195941 -1.428303,0.0077 -1.934464,-0.498418 -0.506082,-0.506159 -0.693892,-1.249147 -0.489806,-1.943075 l 2.889316,-9.820881 c 0.342895,-1.151117 0.963779,-2.203905 1.812821,-3.052946 z"/>
    <path id="path1-8-3-6" style="fill:#505969;fill-opacity:1;stroke-width:0.221664" d="m 98.71538,24.102637 c 0.656367,1.632328 1.027653,3.409327 1.027653,5.274168 v 43.778747 c 0,3.768301 -1.485116,7.381959 -4.145095,10.041938 L 82.630572,96.164864 c -2.659978,2.659966 -6.273635,4.145096 -10.041936,4.145096 H 28.809889 c -2.442339,0 -4.741758,-0.620559 -6.750065,-1.711181 2.09772,5.216861 7.199448,8.912201 13.159384,8.912201 h 43.778739 c 3.768296,0 7.381284,-1.48513 10.041263,-4.1451 l 12.96737,-12.967369 c 2.65997,-2.65998 4.14509,-6.27297 4.14509,-10.041271 V 36.578493 c 0,-5.382416 -3.01038,-10.072344 -7.43629,-12.475856 z"/>
    <path id="rect1" style="fill:#ffffff;stroke-width:2.73163" d="m 67.588394,32.055434 c -1.336837,0 -2.672973,0.51029 -3.693459,1.530778 h -0.0085 l -3.951819,3.950744 10.613182,10.613183 3.95182,-3.950745 c 2.040965,-2.040965 2.040965,-5.348109 0,-7.389074 l -3.216573,-3.224108 c -1.020482,-1.020488 -2.357701,-1.530778 -3.694537,-1.530778 z m -9.499007,7.326637 -19.029234,19.038928 c -0.849042,0.849049 -1.469926,1.90181 -1.812821,3.052937 l -2.889318,9.820879 c -0.204086,0.693917 -0.01625,1.436914 0.489806,1.943077 0.506161,0.506747 1.2487,0.694439 1.934464,0.498414 l 9.820881,-2.890389 c 1.151104,-0.342886 2.203892,-0.963769 3.052945,-1.812818 L 68.702568,49.995246 Z"/>
  </g>
</svg>