<svg xmlns="http://www.w3.org/2000/svg" xmlns:xlink="http://www.w3.org/1999/xlink" xml:space="preserve" viewBox="0 0 512 512"><circle cx="256" cy="256" r="256" style="fill:#fff"/><path d="m453.3 267.8-1-1.7c-.2-.3-.3-.5-.5-.8l-73.4-111.8-94.9 70.7L352.9 331c.3.5.6.9.9 1.4l.4.6c10.8 15.3 28.5 25.3 48.6 25.3 32.8 0 59.4-26.6 59.4-59.4-.1-11.4-3.3-22-8.9-31.1" style="fill:#95c748"/><circle cx="109.2" cy="298.9" r="59.4" style="fill:#35bfc0"/><defs><path id="a" d="m453.3 267.8-1-1.7c-.2-.3-.3-.5-.5-.8l-73.4-111.8c-10.5-17-29.1-28.3-50.6-28.3-32.8 0-59.4 26.6-59.4 59.4 0 15.2 5.8 29.1 15.2 39.5L353 330.9c.3.5.6.9.9 1.4l.4.6c10.8 15.3 28.5 25.3 48.6 25.3 32.8 0 59.4-26.6 59.4-59.4-.2-11.3-3.4-21.9-9-31"/></defs><clipPath id="b"><use xlink:href="#a" style="overflow:visible"/></clipPath><g style="clip-path:url(#b)"><image xlink:href="C6672D13.png" width="87" height="66" style="overflow:visible;opacity:.5" transform="translate(34.16 99.38)scale(4.4497)"/><path d="M387.5 184.8c0-32.8-26.6-59.4-59.4-59.4s-59.4 26.6-59.4 59.4c0 12.1 3.6 23.3 9.8 32.6l-45.1-63.8h-.1c-10.5-16.9-29.1-28.3-50.6-28.3s-40.1 11.3-50.5 28.3l-71.8 112c10.7-15.8 28.7-26.2 49.2-26.2 21.6 0 40.4 11.5 50.8 28.7h.1l46.9 65.9h.1c10.8 14.6 28.1 24.2 47.8 24.2s37-9.5 47.8-24.2h.1l.5-.8c1.2-1.7 2.3-3.5 3.4-5.3L377.4 218c6.3-9.4 10.1-20.8 10.1-33.2m-104.6 38.6c0-.1-.1-.1-.2-.2.1 0 .1.1.2.2m4.4 4.6c.4.3.7.6 1 .9-.3-.2-.6-.6-1-.9m5.3 4.4 1.2.9zm6.7 4.4s.1 0 .1.1c0 0 0-.1-.1-.1m6.4 3c.5.2 1 .4 1.5.5-.6-.1-1-.2-1.5-.5m6.3 2.2c.7.2 1.4.4 2.1.5-.6-.1-1.4-.3-2.1-.5m7 1.5 2.1.3c-.8-.1-1.4-.2-2.1-.3m48.1-14c.5-.5 1-.9 1.6-1.4-.5.5-1.1.9-1.6 1.4M335 243.8l2.1-.3zm6.7-1.2c.8-.2 1.5-.4 2.3-.6-.8.2-1.5.4-2.3.6m6.7-2.1c.6-.2 1.3-.5 1.9-.7-.6.3-1.2.5-1.9.7m13.5-6.9c.5-.4 1-.7 1.5-1.1-.5.4-1 .7-1.5 1.1m10.1-8.9c.4-.5.9-.9 1.3-1.4-.5.5-.9.9-1.3 1.4M58.8 268c.5-.7.9-1.4 1.3-2.2z" style="fill:#3252a0"/></g><circle cx="327.9" cy="184.9" r="59.5" style="fill:#f38334"/><path d="M327.8 244.3c-20.7 0-39-10.7-49.6-26.8L233 153.7c-10.5-16.9-29.2-28.3-50.6-28.3s-40.1 11.3-50.5 28.3L60 265.7c10.7-15.8 28.7-26.2 49.2-26.2 21.6 0 40.4 11.5 50.8 28.7h.1l46.9 65.9h.1c10.8 14.6 28.1 24.2 47.8 24.2 19.6 0 37-9.5 47.8-24.2h.1l.5-.8c1.2-1.7 2.3-3.5 3.4-5.3l70.6-109.9c-10.7 15.8-29 26.2-49.5 26.2M58.5 268c.5-.7.9-1.4 1.4-2.2z" style="fill:#3152a0"/></svg>