<svg xmlns="http://www.w3.org/2000/svg" width="512" height="500"><path d="M152 128.5c21.5 17.5 47.1 29.2 74.4 34.2V17.1L256.1 0l29.6 17.1v145.5c27.3-4.9 52.9-16.7 74.5-34.2l53.8 31.1c-87.6 86.5-228.5 86.5-316.1 0zM217.5 500c31.2-119.1-39.4-241.1-158.2-273.5v62.3c25.9 9.9 48.9 26.2 66.8 47.4L0 408.8V443l29.7 17 126.1-72.7c9.4 26.1 12 54.2 7.6 81.4l54.1 31.4Zm235.3-273.5C334 259 263.6 381 294.8 500l54-31.2c-4.4-27.4-1.7-55.4 7.6-81.4l126 72.6 29.6-17.1v-34.2L385.9 336c17.9-21.2 40.9-37.5 66.8-47.4v-62.2Z" style="fill:#0c1221"/></svg>