<svg xmlns="http://www.w3.org/2000/svg" xml:space="preserve" viewBox="0.1 31.93 512.1 448"><g transform="matrix(2 0 0 2 -14.454 85.933)"><linearGradient id="a" x1="25.033" x2="107.109" y1="219.191" y2="77.03" gradientTransform="matrix(2 0 0 -2 10.546 497.567)" gradientUnits="userSpaceOnUse"><stop offset="0" style="stop-color:#2de2e6"/><stop offset="1" style="stop-color:#39f"/></linearGradient><path d="M127.8-22.7 8.4 184.1c-1.5 2.7-1.5 6 0 8.6s4.4 4.3 7.5 4.3h238.8c3.1 0 5.9-1.6 7.5-4.3 1.5-2.7 1.5-6 0-8.6L142.7-22.7c-1.5-2.7-4.4-4.3-7.5-4.3s-5.9 1.7-7.4 4.3" style="fill:url(#a)"/></g><path d="M141.6 53.3 67 182.6h29.8l22.4-38.8 22.4 38.8 22.4-38.8 22.4 38.8h29.8zm0 25.9 18.7 32.3c2.3 4 2.3 8.9 0 12.9l-18.7 32.3-18.6-32.3c-2.3-4-2.3-8.9 0-12.9z" style="fill:#241734" transform="matrix(2 0 0 2 -27.23 45.933)"/><g transform="matrix(2 0 0 2 -14.454 85.933)"><linearGradient id="b" x1="62.341" x2="62.341" y1="167.496" y2="124.416" gradientTransform="matrix(2 0 0 -2 10.546 497.567)" gradientUnits="userSpaceOnUse"><stop offset="0" style="stop-color:#f623ac"/><stop offset="1" style="stop-color:#f706cf"/></linearGradient><path d="M15.8 197h238.8c3.1 0 5.9-1.6 7.5-4.3 1.5-2.7 1.5-6 0-8.6l-12.4-21.5H180l-22.4-38.8-22.4 38.8-22.4-38.8-22.4 38.8H20.8L8.4 184.1c-1.5 2.7-1.5 6 0 8.6s4.4 4.3 7.4 4.3" style="fill:url(#b)"/></g></svg>