<svg xmlns="http://www.w3.org/2000/svg" xml:space="preserve" viewBox="30.07 0.01 451.66 511.93"><path d="M318.516 56.825c10 0 19.1 6.7 21.7 16.9l63.2 251.9c3 12.1-4.2 24.4-16.3 27.5l-226.5 58.5c-12.1 3.1-24.3-4.1-27.3-16.2l-63.2-251.9c-3-12.1 4.2-24.4 16.3-27.5l226.4-58.5c1.9-.4 3.8-.7 5.7-.7m56.8 7.5a22.2 22.2 0 0 1 22.8 22.1l1.2 93.9-28.3-115.9zm55 11.3c10.8 2.9 17.9 13.3 16.4 24.6l-13.7 100.2zm-337.5 298.2.1 6.6-3.7 27.5c-.8 6.4 1 12.4 4.6 17.1l.4 19.5c.3 12.4 9.6 22.3 21.6 23.7l5.4 22.2c3.7 15.2 18.9 24.4 34.1 20.7l188.9-46.2 60 8c11.5 1.5 22.2-5.8 25.1-16.7 4.2-3.6 7.2-8.6 8.2-14.3 13.3-4.9 21.1-19 17.6-33.2l-12.5-51 38.9-292.5c1.7-12.6-7.1-24-19.7-25.7l-37.3-5c-4.5-6-11.8-9.9-20-9.7l-45.5 1-2-.3c-5.4-5.4-13-8.5-21-8.2-1.9.1-3.8.3-5.7.8l-10.3 2.5-153.4-20.4c-.8-.1-1.6-.2-2.3-.2-11.6-.4-21.8 8.1-23.4 19.9l-1.4 10.7-29.7.6c-13.5.3-24.1 11.4-23.8 24.9l.5 21.8-34.9 8.5c-15.2 3.7-24.5 18.9-20.7 34.1zm285.7 10.4c2.7.1 4.6 1.8 5.6 5 .6 1.9.2 5.1-2.1 5.8-.8.3-1.5-.2-1.7-1-.4-1.4-.1-2.9-.5-4.4-.5-1.7-1.8-2.3-3.2-1.8-3 .9-4.1 6.6-3.3 9.2.8 2.7 4.2 3.1 7.8 4.2 3.9-4.5 8.1-8.3 10.2-9.6.6-.3 1.2.2 1.3.9-1.5 2.5-4.9 6.1-8.3 9.9 2.4 1.1 4.5 3 5.5 6.4 1.6 5-2.8 12.2-8.4 13.9-3.6 1.1-7.2-.7-8.3-4.3-1-3.3 1-8 4.2-12.5-2.2-.5-4.5-1-6.3-2.5-1 4.9-4.9 10.7-9.5 12.1-3.1 1-6.3-1.2-7.9-3.8-1.4 4.1-3.7 8.3-5.8 8.9-3.2 1-5.4-3.2-6.4-5.9-1.8 7.3-5.7 17.2-8.7 18.1-2.7.8-3.6-1.2-4.1-3.5-.6-2.9-.5-5.9-.3-8.9.1-1.4.6-4.9.4-6-2.2 0-4.3.2-6.1-.1.2 2.5-3.6 7.4-7 8.9 0 6.4-2.5 12.4-7.1 13.8-3.9 1.2-8-2.1-9.8-7.9-1.5 4.9-3.7 10.1-5.2 10.6-2.8.9-4.3-3-5-5-1.4-4.6-1.5-9.5-3-14.1-.3-.8-.6-1.6-1.1-2.3-2.6 1.3-2.5 19.6-5.6 20.6-2.1.7-3-2.4-3.4-3.8-1.2-3.9-2-7.8-3.3-11.7-.3-1-.9-3-1.8-3.7-2 .9-1.8 15.5-1.8 18.2 0 3.2-.9 7-4.3 8.1-2.1.7-3.1-2.1-3.6-3.6-.1-.4-.3-1-.4-1.6-1.7 4-4.9 8-8.5 9.1-1.9.6-3.8 0-5.4-1.1-.6 8.5-2.4 18.6-8.3 20.4-3.3 1-8-.7-9.9-6.9-3.3-10.6-.3-23.4-3.4-33.6-.3-.9-.6-2-1.7-1.6-3.4 1.1-8.8 14.5-9.5 24.9-.2 2.4 0 4-1.2 5.6-.6.8-1.3 1.4-2 1.6-1.5.5-2.1-1.3-2.1-1.3-2.7-8.8-1.4-23.5-3.6-30.7-.1-.2-.4-1.2-.9-1.1-2.4.8-7.1 23.7-7.4 32-.1 4.2 1.2 8.9-.6 12.1-.7 1.2-1.5 1.8-2.9 2.3-1.1.3-2 .4-2.5-1.3-.8-2.7-1.1-5.7-2-12.2-1.1-7.6-2.1-17.2-2.3-21.6-.5-7.6.4-12.3 2.3-12.9 1.4-.4 3.1 1.1 3.8 3.3 1.3 4 1.7 20.7 2 26.3 1-6.9 2.7-32.8 10.1-35.1 2.7-.8 5.4 1.4 6.7 5.7 1.4 4.6 1.7 12.9 1.9 17.2 1-7.3 5.2-18.1 11-20 4.4-1.4 6.5 3.1 7.4 6.3 3.8 12.2.1 22.4 3.3 32.7 1.1 3.5 3 3.9 4 3.6 2.9-.9 4.3-11.1 5.1-19.2-.1-.3-.2-.5-.3-.8-1.8-5.6-.9-15.2 5.7-17.2 2.5-.8 4.2.2 4.9 2.6 1.3 4.1-1.1 10.8-5.3 12.4l.1.3c.5 1.6 2.1 3.8 4 3.2 2.8-.9 5.2-7.2 6.5-11-1.1-6.3-1.6-14 1.7-15.1 1.7-.5 2 .9 2.4 2.1 1.3 4.1.7 8.6 1.6 12.8.4-4.5.7-18.7 5.9-20.3 3.5-1.1 5.2 3.7 6 6.1.8 2.6 1.2 5.3 1.9 7.8.6-4.3 2-14 6.8-15.5 2.7-.8 4.8 2.1 5.5 4.3 1.1 3.5 1.4 7.1 1.7 10.7.2 1.8.1 3.9.6 5.6 0 .1.2.4.4.4 1.2-.6 3.2-7.3 4.5-10.9.2-2.3.9-4.4 2-6.2l-.1-.4c-1-3.2 1.3-7.9 4.3-8.9 3.7-1.2 8.7 3.3 10.6 9.4q.45 1.2.6 2.4c1.7-1.1 4-3.4 5.5-5.4-1.4-.7-2.6-2.1-3.1-4.6-.8-3.7-.6-8.6 3.8-10 2.7-.8 5.1 2.3 5.6 4.6.4 2-.1 5-1.2 6.9 3.4.1 6.5-.8 7.3 3.1.8 3.7-.9 8.1-.1 11.7.1.3.2.9.7.8 1.6-.5 5.1-11.7 6.5-16.6-.7-4.7-.3-9.9 2.1-10.7 1.5-.5 2.5-.4 3 1.2.8 2.7-1.2 6.4 1.1 13.9.2.6.7 2 1.6 1.7 1.3-.4 2.5-6.5 4-10.1-.3-5.2 1.4-11.2 6.5-12.8 2.5-.8 4.2.2 4.9 2.6 1.3 4.1-1.1 10.8-5.3 12.4l.1.3c.5 1.6 2.1 3.8 4 3.2 2.8-.9 5.2-7.1 6.4-11-.2-.4-.3-.7-.4-1.1-1.9-6.1.9-12.7 7.1-14.6.9-.3 1.9-.4 2.8-.4m-36.3 3.5c1.2 0 2 1.2 2.3 2.3.6 1.8.3 4.5-1.8 5.2-1.4.4-2.8-.9-3.3-2.2-.6-1.9-.3-4.4 2.2-5.2.2-.1.4-.1.6-.1m17.7 8.2h-.2c-2.1.7-2.3 7.7-1.9 9.4 1.9-.7 3.5-6.5 3-8.2-.1-.4-.4-1.1-.9-1.2m-37.8 7.3h-.3c-1.2.4-.5 3.9-.4 4.7.2 1 .9 2.6 2 2.8.7-1.2.4-4.2.1-5.5-.1-.5-.6-1.9-1.4-2m58.7 3.4c-2.6 3.5-4.4 6.9-3.6 9.5.5 1.6 2.2 2.6 4.1 2 2.8-.9 5-5.4 4.3-7.7s-2.6-3.2-4.8-3.8m-75 5.1c-.1 0-.2 0-.3.1-1.1.3-1.9 2-1.5 3.1.6 1.9 4.5 4 7.6 4.7-.1-.5-.2-.9-.4-1.4-1.2-3.7-3.7-6.6-5.4-6.5m-1.8 9.1c-.6 1.7-.7 5 0 7.3.9 3 3.3 5.2 5 4.7 2.3-.7 3.3-4.7 3.1-9-2.7-.2-5.7-1.4-8.1-3m-53.9 9.4h-.2c-2.1.7-2.3 7.7-1.9 9.4 1.9-.7 3.5-6.5 3-8.2-.2-.4-.4-1.1-.9-1.2"/><path d="M157.916 152.325s32.4 59.7 36.9 58.5c4.8-2.4 50.9-79.4 53.3-89-37.5-7.8-72.8 12.7-90.2 30.5m109.1-28.3s-36.8 57.1-33.6 60.4c4.4 3.1 94 6.5 103.7 4-11.3-36.6-46.2-57.7-70.1-64.4m77.4 80.5s-67.9-2.4-69.1 2.1c-.4 5.3 42.6 84.1 49.7 91.1 25.6-28.4 25.8-69.2 19.4-93.2m-30.8 105.3s-33-59.4-37.4-58.1c-4.7 2.4-50.1 79.8-52.5 89.6 37.6 7.3 72.7-13.6 89.9-31.5m-107.5 27.4s34.5-58.6 31.1-61.7c-4.5-2.9-94.2-2.7-103.8.2 12.8 36.1 48.5 55.7 72.7 61.5m-78.2-79s67.9 2.5 69.1-2c.4-5.3-42.4-84.2-49.5-91.2-25.7 28.4-26 69.2-19.6 93.2"/></svg>