<svg xmlns="http://www.w3.org/2000/svg" xml:space="preserve" viewBox="0 0 512 512"><path d="M0 75C0 33.6 33.6 0 75 0h362c41.4 0 75 33.6 75 75v362c0 41.4-33.6 75-75 75H75c-41.4 0-75-33.6-75-75z" style="fill:#d33d17"/><path fill="none" d="M118.7 100c0-27.6 22.4-50 50-50s50 22.4 50 50-22.4 50-50 50c-27.7 0-50-22.4-50-50zm0 309.1c0-27.6 22.4-50 50-50s50 22.4 50 50-22.4 50-50 50c-27.7 0-50-22.4-50-50zm224.9-101.6c0-28.5 23.1-51.5 51.5-51.5s51.5 23.1 51.5 51.5-23.1 51.5-51.5 51.5-51.5-23-51.5-51.5z" style="stroke:#edeff2;stroke-width:23.9062;stroke-linejoin:round;stroke-miterlimit:5.9766;fill:#68c1ee;fill-opacity:0"/><path d="M168.7 359.1V150m174.9 157.5c-48.1 0-97.7-1-140.5-19.5-18.1-7.8-34.4-29.4-34.4-55.7" style="stroke:#edeff2;stroke-width:23.9062;stroke-linejoin:round;stroke-miterlimit:5.9766;fill:none"/></svg>