<svg xmlns="http://www.w3.org/2000/svg" xml:space="preserve" viewBox="0 74.96 512 362.08"><path d="M1991.3 4245.1c-714.9-17.4-1123.6-41-1303.8-77.8-415.8-83-594-290.9-664.7-772.3C1.2 3249.5-8 2266.3 8.4 1875c17.4-401.5 45.1-583.8 113.7-745.6 105.5-246.8 284.7-368.7 635-432.2 229.4-42 757.9-66.6 1433.9-67.6 414.8 0 1656.2 27.7 1843.6 41 290.9 21.5 544.9 73.7 686.2 140.3 232.5 110.6 349.3 381 389.2 904.4 13.3 171 13.3 1228 0 1425.7-22.5 339-55.3 499.8-134.2 662.7-89.1 182.3-218.2 285.8-421 338-131.1 33.8-445.5 67.6-868.5 93.2-240.6 15.3-1237.2 20.4-1695 10.2m1346.8-979.2c0-3.1-173.1-300.1-384.1-659.6s-384.1-656.5-384.1-659.6 173.1-6.1 384.1-6.1h384.1v-327.8H1781.3v327.8h385.1c316.5 0 384.1 2 380 13.3-3.1 8.2-176.2 305.2-385.1 660.6s-380 648.3-380 651.4 350.3 6.1 778.4 6.1 778.4-3 778.4-6.1" style="fill:#f55848" transform="matrix(.1 0 0 -.1 0 500)"/></svg>