<svg xmlns="http://www.w3.org/2000/svg" xml:space="preserve" viewBox="-0.02 53.05 512.07 405.9"><path d="m6.5 240.3 74.8-74.8c8.6-8.6 22.7-8.6 31.3 0l180.8 180.8c8.6 8.6 8.6 22.7 0 31.3l-74.8 74.8c-8.6 8.6-22.7 8.6-31.3 0L6.5 271.7c-8.7-8.7-8.7-22.7 0-31.4" style="fill:#195abd"/><linearGradient id="a" x1="157.998" x2="476.2" y1="-19.45" y2="298.753" gradientTransform="matrix(1 0 0 -1 -8.065 395.651)" gradientUnits="userSpaceOnUse"><stop offset="0" style="stop-color:#2987e6"/><stop offset=".994" style="stop-color:#58c1f5"/></linearGradient><path d="m430.8 59.5 74.8 74.8c8.6 8.6 8.6 22.7 0 31.3l-287 286.9c-8.6 8.6-22.7 8.6-31.3 0l-74.8-74.8c-8.6-8.6-8.6-22.7 0-31.3L399.4 59.5c8.7-8.6 22.7-8.6 31.4 0" style="fill:url(#a)"/></svg>