<svg xmlns="http://www.w3.org/2000/svg" xml:space="preserve" viewBox="23.3 -0.05 465.5 512.07"><radialGradient id="a" cx="-44.794" cy="657.774" r="11.637" gradientTransform="matrix(-11.7002 31.247 54.5012 20.4075 -36194.156 -11923.366)" gradientUnits="userSpaceOnUse"><stop offset=".064" style="stop-color:#ae7fe2"/><stop offset="1" style="stop-color:#0078d4"/></radialGradient><path d="m210.4 11.9-2.6 1.6q-6.3 3.75-11.7 8.4l7.5-5.3h64l11.6 88.1-58.2 58.2-58.2 40.4V250c0 32.6 17 62.8 44.9 79.6l61.3 37.1-129.4 75.5h-25L68.2 414c-27.9-16.9-44.9-47.1-44.9-79.6V177.6c0-32.6 17-62.8 44.9-79.7l139.6-84.5c.9-.5 1.8-1 2.6-1.5" style="fill:url(#a)"/><linearGradient id="b" x1="253.635" x2="198.236" y1="138.912" y2="234.727" gradientTransform="matrix(1 0 0 -1 0 514)" gradientUnits="userSpaceOnUse"><stop offset="0" style="stop-color:#114a8b"/><stop offset="1" style="stop-color:#0078d4;stop-opacity:0"/></linearGradient><path d="m210.4 11.9-2.6 1.6q-6.3 3.75-11.7 8.4l7.5-5.3h64l11.6 88.1-58.2 58.2-58.2 40.4V250c0 32.6 17 62.8 44.9 79.6l61.3 37.1-129.4 75.5h-25L68.2 414c-27.9-16.9-44.9-47.1-44.9-79.6V177.6c0-32.6 17-62.8 44.9-79.7l139.6-84.5c.9-.5 1.8-1 2.6-1.5" style="fill:url(#b)"/><radialGradient id="c" cx="-47" cy="627.798" r="11.637" gradientTransform="matrix(30.7198 -4.5183 -2.9847 -20.2925 3415.678 12926.943)" gradientUnits="userSpaceOnUse"><stop offset=".134" style="stop-color:#d59dff"/><stop offset="1" style="stop-color:#5e438f"/></radialGradient><path d="M349.1 197.8v52.1c0 32.6-17 62.8-44.9 79.6L164.6 414c-28.6 17.4-64.1 18-93.2 2l136.4 82.6c29.6 17.9 66.8 17.9 96.4 0L443.8 414c27.9-16.9 44.9-47.1 44.9-79.6v-37.7l-11.6-17.5z" style="fill:url(#c)"/><linearGradient id="d" x1="389.743" x2="330.378" y1="281.462" y2="196.34" gradientTransform="matrix(1 0 0 -1 0 514)" gradientUnits="userSpaceOnUse"><stop offset="0" style="stop-color:#493474"/><stop offset="1" style="stop-color:#8c66ba;stop-opacity:0"/></linearGradient><path d="M349.1 197.8v52.1c0 32.6-17 62.8-44.9 79.6L164.6 414c-28.6 17.4-64.1 18-93.2 2l136.4 82.6c29.6 17.9 66.8 17.9 96.4 0L443.8 414c27.9-16.9 44.9-47.1 44.9-79.6v-37.7l-11.6-17.5z" style="fill:url(#d)"/><radialGradient id="e" cx="-70.906" cy="659.478" r="11.637" gradientTransform="matrix(-24.1583 -6.1256 -10.3118 40.6682 5541.9 -26969.008)" gradientUnits="userSpaceOnUse"><stop offset=".058" style="stop-color:#50e6ff"/><stop offset="1" style="stop-color:#436dcd"/></radialGradient><path d="M443.8 97.9 304.2 13.4C275.5-4 239.8-4.5 210.6 11.8l-2.8 1.7a93.13 93.13 0 0 0-44.9 79.7v110.4l44.9-27.2c29.6-17.9 66.7-17.9 96.4 0l139.6 84.5c27 16.3 43.8 45.2 44.9 76.6 0-1 .1-2 .1-3.1V177.6c-.1-32.6-17.1-62.8-45-79.7" style="fill:url(#e)"/><linearGradient id="f" x1="174.261" x2="261.665" y1="345.286" y2="345.286" gradientTransform="matrix(1 0 0 -1 0 514)" gradientUnits="userSpaceOnUse"><stop offset="0" style="stop-color:#2d3f80"/><stop offset="1" style="stop-color:#436dcd;stop-opacity:0"/></linearGradient><path d="M443.8 97.9 304.2 13.4C275.5-4 239.8-4.5 210.6 11.8l-2.8 1.7a93.13 93.13 0 0 0-44.9 79.7v110.4l44.9-27.2c29.6-17.9 66.7-17.9 96.4 0l139.6 84.5c27 16.3 43.8 45.2 44.9 76.6 0-1 .1-2 .1-3.1V177.6c-.1-32.6-17.1-62.8-45-79.7" style="fill:url(#f)"/></svg>