<svg xmlns="http://www.w3.org/2000/svg" xml:space="preserve" viewBox="0.01 76.52 512 358.88"><path d="M62.475 76.577a61.9 61.9 0 0 0-21.352 3.731c-12.118 4.26-22.093 11.933-29.899 22.966C3.737 113.964.006 125.87.006 139.046v233.893c0 17.092 6.06 31.856 18.15 44.318 12.463 12.118 27.253 18.15 44.319 18.15 17.462 0 32.226-6.058 44.318-18.15 12.462-12.462 18.68-27.252 18.68-44.344v-42.52c.132-9.207 9.63-6.8 14.42 0 8.969 15.558 28.019 28.92 50.19 28.84 22.173-.079 40.588-11.033 50.193-28.84 3.651-4.286 13.89-11.615 14.949 0v42.52c0 17.092 6.059 31.856 18.15 44.318 12.489 12.118 27.253 18.15 44.318 18.15 17.436 0 32.227-6.059 44.318-18.15 12.462-12.462 18.68-27.253 18.68-44.345V138.993c0-13.176-3.916-25.083-11.748-35.772-7.487-11.06-17.277-18.706-29.369-22.966q-10.675-3.73-21.352-3.73c-19.235 0-35.427 7.487-48.604 22.436l-63.368 74.243c-1.429 1.085-6.138 9.234-16.166 9.234-10.001 0-14.182-8.15-15.61-9.208l-63.95-74.216C97.716 84.065 81.71 76.577 62.473 76.577m395.078.027c-14.95 0-27.782 5.344-38.444 16.007-10.32 10.319-15.479 22.966-15.479 37.915 0 14.95 5.16 27.782 15.479 38.444 10.662 10.32 23.495 15.479 38.444 15.479s27.755-5.16 38.444-15.479c10.663-10.662 16.007-23.495 16.007-38.444s-5.344-27.596-16.007-37.915c-10.69-10.663-23.495-16.007-38.444-16.007m.503 118.534c-14.95 0-27.782 5.345-38.445 16.007-10.662 10.69-16.007 23.495-16.007 38.444v131.896c0 14.95 5.345 27.782 16.007 38.444 10.69 10.32 23.496 15.479 38.445 15.479s27.596-5.16 37.915-15.479c10.662-10.662 16.007-23.495 16.007-38.444V249.59c0-14.949-5.345-27.78-16.007-38.444-10.32-10.662-22.94-16.007-37.915-16.007"/></svg>