<svg xmlns:inkscape="http://www.inkscape.org/namespaces/inkscape" xmlns:sodipodi="http://sodipodi.sourceforge.net/DTD/sodipodi-0.dtd" xmlns="http://www.w3.org/2000/svg" xmlns:svg="http://www.w3.org/2000/svg" id="svg" version="1.1" sodipodi:docname="mistral.svg" inkscape:export-filename="mistral.png" inkscape:export-xdpi="96" inkscape:export-ydpi="96" inkscape:version="1.4.2 (ebf0e940d0, 2025-05-08)" viewBox="0 0 397.46 281.64">
  <defs id="defs1"/>
  <sodipodi:namedview id="namedview1" pagecolor="#ffffff" bordercolor="#000000" borderopacity="0.25" inkscape:showpageshadow="2" inkscape:pageopacity="0.0" inkscape:pagecheckerboard="0" inkscape:deskcolor="#d1d1d1" inkscape:zoom="1.0702075" inkscape:cx="239.20595" inkscape:cy="6.0735885" inkscape:window-width="2648" inkscape:window-height="1418" inkscape:window-x="0" inkscape:window-y="0" inkscape:window-maximized="1" inkscape:current-layer="svg"/>
  <g id="svgg">
    <path id="path0" d="M340.814 84.181 C 340.814 99.640,340.848 105.964,340.890 98.234 C 340.932 90.505,340.932 77.857,340.890 70.127 C 340.848 62.398,340.814 68.722,340.814 84.181 M170.339 112.147 C 170.069 112.321,149.330 112.422,113.206 112.425 L 56.497 112.429 56.497 140.494 L 56.497 168.558 106.285 168.691 C 157.316 168.827,261.045 168.838,312.147 168.714 L 340.819 168.644 340.746 140.537 L 340.673 112.429 283.771 112.429 C 246.141 112.429,226.810 112.334,226.695 112.147 C 226.459 111.765,170.929 111.765,170.339 112.147 " stroke="none" fill="#fc8304" fill-rule="evenodd"/>
    <path id="path1" d="M340.814 140.395 C 340.814 155.855,340.848 162.179,340.890 154.449 C 340.932 146.720,340.932 134.071,340.890 126.342 C 340.848 118.612,340.814 124.936,340.814 140.395 M56.566 196.679 L 56.638 224.718 84.605 224.795 C 99.986 224.838,112.857 224.803,113.208 224.719 L 113.845 224.565 113.773 196.675 L 113.701 168.785 85.097 168.713 L 56.494 168.641 56.566 196.679 M169.962 168.832 C 169.555 169.240,169.748 224.485,170.158 224.826 C 170.438 225.058,178.144 225.125,198.759 225.072 L 226.977 225.000 227.049 196.822 L 227.121 168.644 198.636 168.644 C 182.969 168.644,170.066 168.729,169.962 168.832 M283.464 168.997 C 283.389 169.191,283.362 181.808,283.402 197.034 L 283.475 224.718 312.006 224.718 L 340.537 224.718 340.678 196.681 L 340.819 168.644 312.209 168.644 C 289.580 168.644,283.570 168.718,283.464 168.997 " stroke="none" fill="#fc4c04" fill-rule="evenodd"/>
    <path id="path2" d="M340.814 27.966 C 340.814 43.425,340.848 49.749,340.890 42.020 C 340.932 34.290,340.932 21.642,340.890 13.912 C 340.848 6.183,340.814 12.507,340.814 27.966 M113.702 55.930 C 113.586 56.118,103.890 56.215,85.012 56.215 L 56.497 56.215 56.497 84.322 L 56.497 112.429 113.112 112.429 C 144.251 112.429,169.929 112.352,170.175 112.258 C 170.630 112.083,170.900 57.271,170.452 56.102 C 170.246 55.566,114.032 55.396,113.702 55.930 M226.869 56.033 C 226.637 56.314,226.570 63.946,226.623 84.353 L 226.695 112.288 283.757 112.359 L 340.819 112.431 340.746 84.323 L 340.673 56.215 312.161 56.215 C 293.458 56.215,283.589 56.118,283.475 55.932 C 283.178 55.452,227.269 55.552,226.869 56.033 " stroke="none" fill="#fcb404" fill-rule="evenodd"/>
    <path id="path3" d="M56.497 28.109 L 56.497 56.217 85.099 56.145 L 113.701 56.073 113.773 28.037 L 113.845 0.000 85.171 0.000 L 56.497 0.000 56.497 28.109 M283.403 28.037 L 283.475 56.073 312.147 56.145 L 340.819 56.217 340.746 28.109 L 340.673 0.000 312.002 -0.000 L 283.331 -0.000 283.403 28.037 M226.407 84.181 C 226.407 99.484,226.441 105.745,226.483 98.093 C 226.525 90.441,226.525 77.920,226.483 70.268 C 226.441 62.617,226.407 68.877,226.407 84.181 " stroke="none" fill="#fcdb04" fill-rule="evenodd"/>
    <path id="path4" d="M340.677 196.751 L 340.537 224.718 284.084 224.613 C 238.408 224.529,227.501 224.578,226.951 224.873 L 226.271 225.237 226.271 253.099 C 226.271 274.392,226.351 281.040,226.610 281.299 C 226.872 281.562,246.271 281.638,312.203 281.638 L 397.458 281.638 397.458 253.107 L 397.458 224.576 369.210 224.576 L 340.963 224.576 340.891 196.681 L 340.818 168.785 340.677 196.751 M0.000 253.155 L 0.000 281.639 85.240 281.568 L 170.480 281.497 170.552 253.420 C 170.599 235.209,170.526 225.225,170.345 225.007 C 170.129 224.748,150.516 224.670,85.033 224.670 L 0.000 224.670 0.000 253.155 " stroke="none" fill="#e40404" fill-rule="evenodd"/>
  </g>
</svg>