<svg xmlns="http://www.w3.org/2000/svg" fill="none" viewBox="49.62 0 412.37 512"><g clip-path="url(#a)"><path fill="#000000fff" d="M63.298 17.686c9.238-9.09 20.33-18.74 34.274-17.593C207.51.211 317.48.417 427.42.682c18.298-1 35.038 15.445 34.273 33.802.147 124.591-.03 249.152.088 373.742.059 9.973-1.53 21.094-9.326 28.155-5.737 6.619-14.916 7.119-22.918 8.796-1.735 18.299 5.09 39.598-7.266 55.279-4.913 6.884-12.856 11.797-21.535 11.149-101.055.03-202.081-.029-303.136.06-14.21 1.147-26.095-8.208-35.626-17.564-9.503-9.267-12.945-23.064-12.268-35.979.176-136.241.03-272.452.059-408.693.147-11.767 4.883-23.623 13.532-31.743m66.282 22.682c-.088 121.678-.118 243.356.029 365.034-1.324 6.031 4.501 7.561 9.179 6.943 96.437-.206 192.843.294 289.28-.265.353-4.236.647-8.531.706-12.797-.089-119.648.029-239.355-.059-359.003.206-2.971-.618-8.032-4.766-7.325-95.995-.295-191.99-.148-287.956-.089-4.324-.617-7.119 3.472-6.413 7.502m-69.606 373.33c-.794 9.738-.118 19.505-.265 29.243 9.65-13.915 20.005-30.596 38.098-33.714.03-8.826.03-17.652 0-26.448-17.475 1.353-31.155 15.592-37.833 30.919m26.213 55.662c5.383 5.177 12.12 10.297 20.063 9.472 93.26-.058 186.518 0 279.778-.029 5.501.029 11.65-.529 15.415-5.119 7.944-6.913 5.649-18.593 6.561-27.919H106.398c-11.827-1.029-27.772 10.797-20.211 23.595"/><path fill="#000000fff" d="M207.511 91.94c47.571-.647 95.201-.206 142.801-.206 4.355-.706 7.503 3.295 6.738 7.473.088 24.594.088 49.218 0 73.812 1.264 5.708-5.384 6.443-9.297 6.12-45.188-.03-90.346-.03-135.535 0-3.912.294-10.325-.294-9.031-6.002-.177-23.653.059-47.336-.088-71.018.323-3.59-.824-9.826 4.412-10.179"/><path fill="#000" d="M129.58 40.368c-.706-4.03 2.089-8.12 6.413-7.502 95.966-.059 191.961-.206 287.956.089 4.148-.706 4.972 4.354 4.766 7.325.088 119.648-.03 239.355.059 359.003-.059 4.266-.353 8.561-.706 12.797-96.437.559-192.843.059-289.28.265-4.678.618-10.503-.912-9.179-6.943-.147-121.678-.117-243.356-.029-365.034m77.931 51.572c-5.236.353-4.089 6.59-4.412 10.179.147 23.682-.089 47.365.088 71.018-1.294 5.708 5.119 6.296 9.031 6.002 45.189-.03 90.347-.03 135.535 0 3.913.323 10.561-.412 9.297-6.12.088-24.594.088-49.218 0-73.812.765-4.178-2.383-8.179-6.738-7.473-47.6 0-95.23-.441-142.801.206M59.974 413.698c6.678-15.327 20.358-29.566 37.833-30.919.03 8.796.03 17.622 0 26.448-18.093 3.118-28.448 19.799-38.098 33.714.147-9.738-.53-19.505.265-29.243m26.213 55.661c-7.561-12.797 8.384-24.623 20.211-23.594h301.606c-.912 9.326 1.383 21.006-6.561 27.919-3.766 4.59-9.914 5.148-15.415 5.119-93.26.029-186.518-.029-279.778.029-7.943.825-14.68-4.295-20.064-9.473"/></g><defs fill="#000000fff000"><clipPath id="a" fill="#000000fff000"><path fill="#000" d="M49.624 0h412.368v512H49.624z"/></clipPath></defs></svg>