<svg xmlns="http://www.w3.org/2000/svg" width="24" height="24" fill="none"><path fill="#4d4d4d" fill-rule="evenodd" d="M12 18a6 6 0 1 0 0-12 6 6 0 0 0 0 12m0-3a3 3 0 1 0 0-6 3 3 0 0 0 0 6" clip-rule="evenodd" style="stroke-width:.12"/><path fill="#3b3b3b" d="M6 6a6 6 0 1 0 0 12v-3a3 3 0 0 1 0-6Zm12 0A6 6 0 0 0 6 6h3a3 3 0 0 1 6 0zm0 12a6 6 0 0 0 0-12v3a3 3 0 0 1 0 6zM6 18a6 6 0 0 0 12 0h-3a3 3 0 0 1-6 0z" style="stroke-width:.12"/><path fill="#212121" d="M3 6a3 3 0 0 1 3-3V0a6 6 0 0 0-6 6Zm15-3a3 3 0 0 1 3 3h3a6 6 0 0 0-6-6Zm3 15a3 3 0 0 1-3 3v3a6 6 0 0 0 6-6zM6 21a3 3 0 0 1-3-3H0a6 6 0 0 0 6 6z" style="stroke-width:.12"/></svg>