<svg xmlns="http://www.w3.org/2000/svg" xml:space="preserve" viewBox="-0.06 60.79 512.38 390.38"><path d="m514.5 73.2 5.7 78 4.6 63.3c9.6 4 16.3 13.5 16.3 24.5 0 14.7-11.9 26.6-26.6 26.6s-26.6-11.9-26.6-26.6c0-11 6.7-20.5 16.3-24.5l4.6-63.3z" style="fill-rule:evenodd;clip-rule:evenodd;fill:#f3771c" transform="matrix(1.25 0 0 -1.25 -387.065 542.664)"/><path d="M332.7 239.2c0-45 16.5-87.1 45-119.7l-17.2-15.4c-32.2 36.6-50.9 84.2-50.9 135.1 0 57.3 23.6 109.1 61.5 146.3l.9-.8 50.9-45.6c-47.8-43.8-57.7-115.1-24.4-170l17.6 15.7c-25.4 45.8-15.7 103.7 24.2 138.8l17.4-15.6 15.5-13.9 16.1-14.4c-6-3.8-11.1-8.8-14.9-14.8-4.7-7.4-7.4-16.2-7.4-25.6 0-21 13.6-38.8 32.4-45.2L501 172c-31.4 6.3-55 34.1-55 67.3 0 14.8 4.7 28.5 12.7 39.7l-15.4 13.8-.1.1c-25.2-33.5-23.7-80 3.5-111.7L395.1 135c-50.8 58.2-52.2 144.5-3.6 204.3l-17.2 15.4c-23.8-28.8-38.8-65.1-41.1-104.8l-.1-.1.1-.1c-.4-3.6-.5-7-.5-10.5m197-45.1c18.8 6.4 32.4 24.2 32.4 45.2 0 9.4-2.7 18.2-7.4 25.6-3.8 6-8.9 11.1-14.9 14.8l16.1 14.4 15.5 13.9 17.4 15.6c39.9-35.1 49.5-93 24.2-138.8l17.6-15.7c33.3 54.9 23.4 126.2-24.4 170l50.9 45.6.9.8c38-37.2 61.5-89 61.5-146.3 0-50.9-18.7-98.5-50.9-135.1l-17.2 15.4c28.5 32.6 45 74.7 45 119.7 0 3.5-.1 7-.3 10.4l.1.1-.1.1c-2.3 39.7-17.3 76-41.1 104.8l-17.2-15.4c48.6-59.8 47.2-146.1-3.6-204.3l-51.6 46.2c27.1 31.7 28.7 78.2 3.5 111.7l-.1-.1-15.6-13.7c8-11.2 12.7-24.9 12.7-39.7 0-33.2-23.6-61-55-67.3z" style="fill-rule:evenodd;clip-rule:evenodd;fill:#3c5280" transform="matrix(1.25 0 0 -1.25 -387.065 542.664)"/></svg>