<svg xmlns="http://www.w3.org/2000/svg" xml:space="preserve" viewBox="18.26 25.18 63.49 49.65">
  <path d="M77.551 73.324h-6.266V59.438c0-12.098-8.618-21.941-19.211-21.941-2.627 0-5.132.607-7.414 1.702-.01.004-.02.004-.028.009-.049.023-.095.052-.144.076a18.02 18.02 0 0 0-1.933 1.109c-.378.246-.747.505-1.106.778-.049.037-.098.072-.146.11-3.032 2.341-5.385 5.598-6.826 9.37a25.953 25.953 0 0 0-.41 1.149c-.107.329-.208.662-.302 1-.053.189-.101.381-.148.573a25.607 25.607 0 0 0-.535 2.757l-.021.18c-.053.422-.094.85-.125 1.28-.009.127-.019.254-.025.381-.028.485-.048.974-.048 1.468v13.887h-6.266a.75.75 0 0 0 0 1.5H77.55a.75.75 0 0 0 .001-1.502zm-7.766 0h-8.614V60.032c0-9.61-5.73-17.885-13.668-20.32a15.417 15.417 0 0 1 4.571-.715c9.766 0 17.711 9.17 17.711 20.441v13.886zm-7.216-37.613h8.771a.75.75 0 0 0 0-1.5h-8.771a.75.75 0 0 0 0 1.5zm8.022 4.172c0 .414.336.75.75.75h6.21a.75.75 0 0 0 0-1.5h-6.21a.75.75 0 0 0-.75.75zm-47.598 18.73h4.448a.75.75 0 0 0 0-1.5h-4.448a.75.75 0 0 0 0 1.5zm50.557 2.438c0 .414.336.75.75.75h4.448a.75.75 0 0 0 0-1.5H74.3a.75.75 0 0 0-.75.75zm-49.657.984h-4.886a.75.75 0 0 0 0 1.5h4.886a.75.75 0 0 0 0-1.5zm3.187 1.5a.75.75 0 0 0 0-1.5h-1.167a.75.75 0 0 0 0 1.5h1.167zm7.458-29.196h6.21a.75.75 0 0 0 0-1.5h-6.21a.75.75 0 0 0 0 1.5zm-3.833 0h1.406a.75.75 0 0 0 0-1.5h-1.406a.75.75 0 0 0 0 1.5zm-3.264 6.294h1.406a.75.75 0 0 0 0-1.5h-1.406a.75.75 0 0 0 0 1.5zm19.577-13.957h1.406a.75.75 0 0 0 0-1.5h-1.406a.75.75 0 0 0 0 1.5zM29.514 69.42h-1.406a.75.75 0 0 0 0 1.5h1.406a.75.75 0 0 0 0-1.5zm49.937-5.994h-1.406a.75.75 0 0 0 0 1.5h1.406a.75.75 0 0 0 0-1.5zm-10.57-24.293a.75.75 0 0 0 0 1.5h.402a.75.75 0 0 0 0-1.5h-.402zm12.112 21.168h-.402a.75.75 0 0 0 0 1.5h.402a.75.75 0 0 0 0-1.5z"/>
</svg>