<svg xmlns="http://www.w3.org/2000/svg" version="1.0" viewBox="58 10.12 299 374.68"><g fill="#83cb9d"><path d="M237.9 11.4C224 14.5 212.1 23.1 206.8 34c-5.2 10.8-5.3 11.7-5.3 66.5 0 28 .4 53.2.8 55.9.4 2.8 1.8 7.3 2.9 10 5.5 12.9 12.6 19.5 26.4 24.2 7.8 2.7 8.3 2.8 35.9 3 24.2.2 28.1.5 29.1 1.9 1.3 1.8 1.5 87.8.1 89.1-.4.4-8.2.8-17.4.7-12.8 0-16.7-.4-17.4-1.4-.5-.8-.9-11.3-.9-23.3v-21.9l-3.4-3.3-3.5-3.4-22.8.1h-22.8l-3.2 3.4-3.2 3.4v27c0 29.7.7 35.1 5.9 45.8 4.6 9.2 16.4 18.9 25.7 20.8 1 .2 4.1.9 6.8 1.5 3.3.7 17 1.1 39.5 1.1 31.3 0 35.2-.2 42.2-2 18-4.7 27.3-13.6 32.8-31.3 1.7-5.6 1.9-10 2-60.2 0-36-.3-56.1-1.1-60.1-2.6-14.1-11.2-25.7-23.1-31.3-10.1-4.8-15.8-5.5-44.6-5.7-21.6-.1-26.5-.4-27.3-1.6-1.4-2.3-1.2-80.2.3-81.7 1.4-1.4 32.4-1.7 34.5-.4.9.6 1.3 6.7 1.4 23.1l.1 22.4 3.1 3.3 3 3.4h46.3l3.3-3.4 3.2-3.3V79.9c0-19.7-.4-28.2-1.5-33.7-3.9-18.6-16-30.5-35.1-34.5-9.1-2-72.9-2.1-81.6-.3zM60.6 146.9l-2.5 2.6v115.1l-.1 115 2.8 2.6c2.7 2.6 2.8 2.6 18.9 2.6 15.1-.1 16.3-.2 18.9-2.3l2.7-2.2v-25.2c0-22.8.1-25.1 1.6-24.5 6.2 2.6 11.2 3.3 23.4 3.3 22.7 0 33.4-4.6 39.7-17 4.5-8.6 4.6-11.9 4.5-78.9-.1-34.9-.5-64.9-.8-66.7-2.1-10-8.6-18.6-17.2-22.7-7.3-3.4-13.4-4.3-29-4-10.8.1-13.8.5-17.9 2.3l-4.8 2.1-2-2.2c-1.8-2.2-2.6-2.3-18.9-2.3-16.9-.1-16.9-.1-19.3 2.4zm65.5 35.1c1.1.7 1.3 10.6 1.3 56.3-.1 30.5-.4 56.1-.7 57.1-.9 2.4-21.8 2.4-23.8-.1-1.1-1.3-1.4-11.4-1.5-55.2-.1-29.5.2-54.6.7-55.8.4-1.2 1.8-2.3 3.1-2.5 4.4-.8 19.5-.6 20.9.2z"/></g></svg>