<svg xmlns="http://www.w3.org/2000/svg" xml:space="preserve" id="svg2" x="0" y="0" version="1.1" viewBox="0 0 512 512"><style>.st1,.st3{fill-rule:evenodd;clip-rule:evenodd;stroke:#fff;stroke-width:1.05;stroke-miterlimit:4.2}.st3{opacity:.9666;enable-background:new}</style><g id="layer1" transform="translate(0 -652.362)"><path id="path26" d="M512 908.4c0 140.4-114.6 254.3-256 254.3S0 1048.8 0 908.4s114.6-254.3 256-254.3 256 113.8 256 254.3" style="fill:#fff"/></g><g id="layer4"><path id="rect1019" fill="#fff" d="M194.8 32.8c-34.2-.9-68.9 21.8-77.6 55.7-2 8.2-2.8 16-3 24v88.4h34.7c.1-31.1-.2-62 .2-93.2 1.1-19.8 16.4-40.6 37.6-40.4.2 31.5-.3 63 .3 94.5 1.8 25.6 26.1 46.8 51.7 44.6 16-.4 32.2.9 48.1-1 24.3-4.5 41.1-29.3 38.8-53.4V67.5c22.1-1.6 38.8 19.8 39.8 40.4.4 31.2.1 62.1.2 93.2h34.7v-93.8c-1.1-10.1-2.7-22.5-8.2-32.2-14.2-28.8-47.4-44.4-78.8-42-9.2-1.2-19 5-21.5 13.7.2 37.1.3 74.3 0 111.4-1 15.6-16.4 27.5-31.7 25.5-10.8.5-23.1 0-30.4-9.3-9.9-10.5-6.6-25.6-7.2-38.6 0-30.2-.1-60.3.2-90.4-4.5-9.2-14.6-13.9-24.6-12.4h-1.6z" class="st1"/><radialGradient id="path833-1-4_00000157299550717614292820000018248732638331060889_" cx="158.457" cy="362.83" r="39.525" fill="#fff" gradientTransform="matrix(-.9512 -.3797 .79 -1.979 -49.735 1029.934)" gradientUnits="userSpaceOnUse"><stop offset="0" style="stop-color:#e6e6e6"/><stop offset="1" style="stop-color:#e6e6e6;stop-opacity:0"/></radialGradient><path id="path833-1-4" d="M132 194.9v235.3c-46.5-5.1-83-55.8-83-117.6S85.6 200 132 194.9" style="opacity:.9666;fill-rule:evenodd;clip-rule:evenodd;fill:url(#path833-1-4_00000157299550717614292820000018248732638331060889_)"/></g><g id="layer2"><path id="rect134" fill="#fff" d="M386.5 423.9c-1 0-4.6-.8-5.5-.2 0 0-1.4 4.2-6.4 7.9-4.4 3.2-8.5 6.3-12.9 9.3-4 2.6-8.2 5.4-12.2 7.4-3.1 1.5-5.7 1.7-5.7 1.7H299c-2.8 0-5.1 2.2-5.1 4.9v1.2c0 2.7 2.3 5 5.1 5h47.1c1.1 0 5-1.1 7.3-2.2 5.8-2.5 9.6-5.8 16.3-9.8 7.1-4.5 20.2-15.1 20.2-15.1 2.3-1.5 3-4.6 1.4-6.9l-.7-1c-.9-1.4-2.5-2.2-4.1-2.2z" class="st1"/><path id="path833" fill="#fff" d="M383.5 195.1v235.3c46.5-5.1 83-55.8 83-117.6s-36.6-112.6-83-117.7z" class="st3"/><path id="path833-2" fill="#fff" d="M130.6 196.3v235.3c-46.5-5.1-83-55.8-83-117.6s36.5-112.6 83-117.7z" class="st3"/><path id="path906" fill="#fff" d="M299.2 453.9c0 12.3-17.1 22.2-38.2 22.2s-38.2-9.9-38.2-22.2 17.1-22.2 38.2-22.2 38.2 9.9 38.2 22.2z" style="opacity:.9666;fill-rule:evenodd;clip-rule:evenodd;stroke:#fff"/><path id="rect908-1" fill="#fff" d="M368.5 191.3h7.7c3 0 5.4 2.2 5.4 4.9v229c0 2.7-2.4 4.9-5.4 4.9h-7.7c-3 0-5.4-2.2-5.4-4.9v-229c.1-2.7 2.5-4.9 5.4-4.9z" style="opacity:.9666;fill-rule:evenodd;clip-rule:evenodd;stroke:#fff;stroke-width:1.0538"/><path id="rect908-1-6" fill="#fff" d="M137.4 192.6h7.5c2.9 0 5.3 2.2 5.3 4.9v229c0 2.7-2.4 4.9-5.3 4.9h-7.5c-2.9 0-5.3-2.2-5.3-4.9v-229c0-2.7 2.4-4.9 5.3-4.9z" style="opacity:.9666;fill-rule:evenodd;clip-rule:evenodd;stroke:#fff;stroke-width:1.0432"/></g></svg>