<svg xmlns="http://www.w3.org/2000/svg" fill="none" viewBox="88 88 1024 1024">
<path d="M892 88H308C186.498 88 88 186.498 88 308V892C88 1013.5 186.498 1112 308 1112H892C1013.5 1112 1112 1013.5 1112 892V308C1112 186.498 1013.5 88 892 88Z" fill="#010077"/>
<path d="M797.523 329.094C757.846 284.042 698.562 254.433 637.538 248.976C557.487 241.893 479.408 273.708 429.29 333.738C413.047 353.246 398.546 378.558 390.54 401.433C375.922 443.117 374.414 491.421 386.364 532.525L388.22 539.259H470.011C514.909 539.259 551.686 539.027 551.686 538.795C551.686 538.563 549.598 536.124 546.93 533.338C527.903 512.902 514.445 487.125 508.644 460.186C506.556 450.549 505.976 444.395 505.976 429.532C505.976 411.186 507.252 401.084 511.661 385.641C513.865 378.21 521.29 360.677 524.075 356.729C525.235 355.103 526.163 353.362 526.163 352.897C526.163 350.459 539.737 333.042 548.786 323.869C561.548 310.864 571.989 303.084 586.491 295.537C600.413 288.454 610.738 284.739 626.052 281.371C641.83 277.772 668.862 277.539 683.944 280.791C696.358 283.461 712.136 288.57 720.141 292.518C729.422 297.163 746.477 307.497 746.593 308.426C746.593 309.006 744.736 309.355 742.532 309.355C729.306 309.355 710.28 316.438 697.982 325.959C679.42 340.241 667.586 366.947 669.326 390.402C670.834 410.373 677.563 425.236 691.369 438.937C707.727 455.193 723.737 461.928 746.013 461.812C756.686 461.696 760.282 461.231 768.056 458.677C811.097 444.279 832.676 398.646 816.086 356.845C812.838 348.485 807.269 340.241 797.523 329.094Z" fill="#14F2FE"/>
<path d="M719.329 568.868C732.091 557.373 744.852 545.994 747.753 543.556L752.857 539.259H668.746H584.635L550.41 569.681C531.5 586.518 500.871 613.804 482.077 630.409L448.2 660.598L531.964 660.947L615.727 661.179L620.6 656.883C623.268 654.444 641.366 638.304 660.741 621.12C680.116 603.819 706.451 580.364 719.329 568.868Z" fill="#14F2FE"/>
<path d="M836.969 704.257C836.737 690.788 833.952 664.662 832.56 663.153C831.864 662.456 646.819 661.295 646.819 662.108C646.819 662.224 649.603 666.172 652.968 670.816C673.851 699.148 683.944 730.034 683.944 765.681C683.944 809.804 668.63 846.496 637.074 877.731C615.843 898.979 595.656 910.591 567 918.022C554.355 921.389 551.918 921.621 532.544 921.738C510.153 921.854 505.512 921.157 486.253 915.235C472.099 910.939 440.427 894.915 440.311 891.896C440.311 891.432 442.283 891.084 444.72 891.084C447.272 891.084 453.189 890.039 458.178 888.761C492.75 879.937 517.346 846.612 515.257 811.546C511.777 752.328 447.736 719.352 397.733 750.818C383.115 760.107 369.078 779.498 365.133 795.87C360.028 817.235 364.205 840.574 376.387 858.107C389.38 876.802 418.964 901.882 447.04 918.138C473.724 933.465 509.573 945.541 542.985 950.418C556.675 952.508 601.225 952.508 614.683 950.534C667.586 942.754 713.876 921.97 752.973 888.529C806.805 842.432 838.129 773.577 836.969 704.257Z" fill="#14F2FE"/>
</svg>