<svg xmlns="http://www.w3.org/2000/svg" xml:space="preserve" id="svg5" x="0" y="0" version="1.1" viewBox="3.73 30.83 504.57 436.17"><style>.st2{fill:#000}</style><g id="layer3"><path id="path2248" fill="#fff" d="M160.4 268.1c-52.2 22.6-65.1 78.6-27.2 115.1 35.9 24 79.9 4.9 96.4-19.7 37.7-65.4-15.6-113.7-69.2-95.4"/><path id="path2346" fill="#fff" d="M255.6 319.6c-2.1 28.6-11.1 49-26.8 63.8 0 0 30.2 24.5 57 9.5 6.6 1.1-5.5 37-29.2 48.7-5.1 16.2 1 30.4 32.1 23.7 0 0 56.5-32 37.5-105.3 0 .1-21.4-31.4-70.6-40.4"/><path id="path2348" fill="#fff" d="M179.2 254.4c47.8-.2 73.6 28.2 76.8 59.2 66.6 14.7 100.5-54.7 70.4-106.1-33.7-49.9-114.9-39.4-147.2 46.9"/><path id="path3111" fill="#fff" d="M320 185.1c-21.6-19.2-48.8-21.2-75.8-11.5-7.5-47.2 37.8-55.5 37.8-55.5l67.7 52.1c.1 0-8.7 15.2-29.7 14.9"/><path id="path3123" fill="#fff" d="M332 200c19.6 1.7 34-18.7 34-18.7l56.7 48.6s-18.3 64.7-77.8 44.9c9-38.8 1.2-62.2-12.9-74.8"/><linearGradient id="path3136_00000106835486497673858610000014369463752056296603_" x1="-43.727" x2="134.408" y1="530.955" y2="530.955" fill="#fff" gradientTransform="matrix(2.8346 0 0 -2.8346 127.493 1736.452)" gradientUnits="userSpaceOnUse"><stop offset="0" style="stop-color:#d6eeff"/><stop offset="1" style="stop-color:#0092ff"/></linearGradient><path id="path3136" d="M174.1 45c14.4 4.6 154 97.7 174.9 118.5 61.8 51.9 139.1 122.7 145.1 147.8 1 16.1-35.8 105.7-54.8 106.5 22.2-108-14.3-121.4-29.6-148.6-26.5-53 10.3-121.4-29-148.8-57.4-40.2-94.2-16.4-141.1-34.2-49 32.8-221 41.3-221.7 33.6C51.2 83.4 109.2 45.7 174.1 45" style="fill:none;stroke:url(#path3136_00000106835486497673858610000014369463752056296603_);stroke-width:28.3465;stroke-linecap:round;stroke-linejoin:round;stroke-miterlimit:11.3386"/><path id="path3100" fill="#fff" d="M172.9 254.4c-11.4 1-40.2 8.6-55.9 33.7-17.7-30.9-23.4-82-11.2-130.2 22.9-45.5 141.6-89.8 141.6-89.8 27.1-9.2 64.7-12.8 56 14-64.3 21.8-126.7 63.3-131 82.6 10.3 29.1 4.1 71.1.5 89.7"/><path id="path5472" d="M484 290.8c-135.4-136-152.2-142.6-281.5-228.6" style="fill:none;stroke:#fff;stroke-width:28.3465;stroke-linecap:round;stroke-miterlimit:11.3386"/><path id="path5550" fill="#fff" d="M116.1 154.9c16.2-25.1 43.4-37.9 57.1-43.4-13.9 8.1-27.9 30.5-33.6 45.6z" class="st2"/><path id="path5570" fill="#fff" d="M192.4 383.5c-41.4-16-49.3-64.6-42.4-97.6-19.1 14.7-44.9 49.6-10.4 90.6 9 10.6 41.6 14.9 52.8 7" class="st2"/><path id="path5591" fill="#fff" d="M248.7 157.2s15.9-20 28.5-23c10.5 1.6 31.4 11.3 31.4 11.3-13.7-17.8-28.2-20.8-28.2-20.8-19.5 4.9-28.6 21.1-31.7 32.5" class="st2"/><path id="path5593" fill="#fff" d="M292.8 390.3c3.3-1.9 13.7-9.4 15.6-12.4 0 29.6-26 59.9-40.6 62.7 10.3-11.2 25.6-29.3 25-50.3" class="st2"/><path id="path5616" fill="#fff" d="M188.7 248.6c4-9.3 27.4-54 64.4-62.7-37 24.1-40.4 66.3-40.4 66.3-5.5-2.4-18.8-4.3-24-3.6" class="st2"/></g></svg>