<svg xmlns="http://www.w3.org/2000/svg" width="512" height="512"><path d="M256 0C114.613 0 0 114.613 0 256s114.613 256 256 256 256-114.613 256-256S397.387 0 256 0m0 0" style="stroke:none;fill-rule:nonzero;fill:#1c2130;fill-opacity:1"/><path d="M375.246 102.09c5.246 2.59 8.25 6.258 10.613 11.562 1.868 5.606 1.164 10.364-1.386 15.61-2.57 4.304-5.989 7.781-9.461 11.367a663 663 0 0 0-2.04 2.144c-4.671 4.868-9.421 9.641-14.226 14.383a111 111 0 0 0-5.379 5.887c-3.023 3.55-6.293 6.805-9.601 10.078-3.278 3.238-6.508 6.45-9.489 9.961-2.98 3.516-6.21 6.723-9.488 9.961-3.254 3.219-6.469 6.406-9.426 9.902-3.675 4.344-7.765 8.266-11.808 12.266-3.383 3.363-6.602 6.797-9.684 10.441-3.062 3.418-6.36 6.59-9.621 9.809-2.809 2.793-5.523 5.601-8.078 8.633-10.3 12.008-10.3 12.008-18.262 12.984-6.07.05-10.45-.676-15.18-4.742-4.52-4.59-6.69-8.574-6.996-15 .313-9.719 6.07-14.75 12.735-21.168a86 86 0 0 0 6.12-6.523c2.84-3.344 5.9-6.41 9.013-9.489 3.05-3.015 6.062-6.015 8.836-9.304 3.32-3.915 6.964-7.48 10.609-11.09 4.168-4.121 8.207-8.242 11.988-12.723 3.043-3.402 6.344-6.566 9.59-9.785 2.719-2.7 5.355-5.402 7.832-8.324 3.477-4.098 7.324-7.817 11.14-11.59 2.72-2.707 5.36-5.41 7.833-8.332 3.476-4.098 7.308-7.817 11.132-11.574 2.864-2.825 5.512-5.68 8.02-8.82 6.55-7.657 15.316-10.177 24.664-6.524m0 0" style="stroke:none;fill-rule:nonzero;fill:#e6e8fd;fill-opacity:1"/><path d="M92.05 249.523s.462-.136 6.552-.078q1.124-.01 2.253-.015l2.555-.024c1.211-.004 1.211-.004 2.45-.004l2.257-.023c2.426.144 3.778 2.594 3.766 5.023l-.016 3.442c-.015 3.488-2.023 5.05-5.512 5.02a607 607 0 0 1-5.5-.036c-8.62-.02-9.007-.012-9.007-.012l.136-6.066Zm0 0" style="stroke:none;fill-rule:nonzero;fill:#e68a00;fill-opacity:1"/><path d="M250.156 98.973c.035-3.508-.02-6.278-.02-6.278l6.454-.097 7.351.195s-.074 2.758-.003 6.437c-.024 1.387-.043 2.938-.079 4.168.016 1.141.016 1.141.028 2.305.008.207.008.375.011.52.024 1.066-.011 2.289-.414 3.28-1.054 2.602-4.171 3.415-6.98 3.36q-.036.001-.07-.004c-.743 0-1.489-.004-2.254-.011l-.438-.067c-2.648-.398-3.637-3.562-3.601-6.242l.023-2.445a89 89 0 0 0-.008-5.121m0 0" style="stroke:none;fill-rule:nonzero;fill:#42c557;fill-opacity:1"/><path d="M407.152 249.402c.766 0 1.528 0 2.32.004 1.192.008 1.192.008 2.419.028.808.004 1.605.004 2.445.011 3.305.012 5.941 0 5.941 0l.11 6.805-.098 6.523s.547.028-2.844.047c-.593.004-4.96.008-5.554.012-1.2.016-1.2.016-2.418.023-.77.004-1.532.004-2.317.004-.707.008-1.41.02-2.136.028-2.375-.153-3.696-2.719-3.68-5.102l.02-2.789c.019-3.148 2.011-5.629 5.5-5.598.093.004.195.004.296.004Zm0 0" style="stroke:none;fill-rule:nonzero;fill:#c54242;fill-opacity:1"/><path d="M338.313 80.41c4.476 2.156 6.32 7.66 2.757 11.13q-.918.906-1.87 1.835c-.65.633-1.294 1.254-1.958 1.898-1.953 1.903-3.254 3.168-4.308 4.243-4.329 4.398-10.59 6.504-16.34 4.273-19.739-7.605-39.125-11.227-60.285-11.125-1.125 0-1.125 0-2.282.008-11.257.047-22.14.43-33.117 3.137l-2.332.554c-26.469 6.457-55.473 18.649-75.453 37.332-11.695 12.973-26.168 27.547-33.578 44.29-22.73 51.363-24.27 117.753-.465 151.156.398.918.606 1.402.715 1.855.226.942 1.082 1.637 1.988 1.309 71.852-25.258 148.785-30.672 287.633.07 1.508.332 3.05-.523 3.531-1.988a104 104 0 0 1 2.73-7.211c4.372-10.488 8.106-20.871 10.657-31.946.23-.96.23-.96.473-1.94 4.906-21.114 4.707-47.235-.473-68.259l-.555-2.336c-5.02-20.566-13.21-40.957-26.523-57.57-.738-.918-1.61-2.066-1.996-3.18-.676-1.937.61-3.757 1.875-5.375 1.367-1.738 2.89-3.246 4.61-4.882q.797-.772 1.589-1.555c6.27-6.203 15.96-7.211 20.762.191.75 1.14.75 1.14 1.511 2.313a649 649 0 0 1 4.418 6.937c.403.63.793 1.25 1.2 1.895 26.55 42.55 32.382 96.46 21.39 144.73-3.926 16.09-9.922 31.426-17.847 45.953-.301.563-.606 1.133-.918 1.72-16.114 30.015-40.547 54.28-69.282 72.273-.57.359-1.132.722-1.718 1.09-42.254 26.304-95.743 32.472-143.782 21.835-50.793-11.953-93.554-44.445-121.074-88.382-.355-.57-.719-1.133-1.09-1.727-26.3-42.242-32.469-95.734-21.832-143.773 11.953-50.79 44.446-93.555 88.38-121.07.85-.544.85-.544 1.726-1.09 53.105-33.06 124.945-35.665 181.133-8.618m0 0" style="stroke:none;fill-rule:nonzero;fill:#e6e8fd;fill-opacity:1"/></svg>