<svg xmlns="http://www.w3.org/2000/svg" fill="none" viewBox="0 0 160 160">


<path fill-rule="evenodd" clip-rule="evenodd" d="M0 31C0 13.8792 13.8792 0 31 0H129C146.121 0 160 13.8792 160 31V129C160 146.121 146.121 160 129 160H31C13.8792 160 0 146.121 0 129V31ZM110 63.0067C109.981 66.3173 96.1092 69 79 69C61.8792 69 48 66.3137 48 63V79.9166V79.9195C48 83.2776 61.8792 85.9999 79 85.9999C96.1208 85.9999 110 83.2776 110 79.9195V79.9166V63.0067ZM79 91C96.1092 91 109.981 88.3173 110 85.0067V102.034V102.034C110 105.329 96.1206 108 79 108C61.8793 108 48.0003 105.329 48 102.034V102.034V85C48 88.3137 61.8792 91 79 91ZM110 107C110 110.295 96.1208 112.966 79 112.966C61.8792 112.966 48 110.295 48 107V124.033V124.034C48 127.329 61.8792 130 79 130C96.1208 130 110 127.329 110 124.034V124.033V107ZM110 48L79 28L48 48V59C48 61.7614 61.8792 64 79 64C96.1208 64 110 61.7614 110 59V48Z" fill="#031B4E"/>

</svg>