<svg xmlns="http://www.w3.org/2000/svg" xml:space="preserve" id="Layer_1" x="0" y="0" version="1.1" viewBox="0 46.5 512.1 419"><style>.st1{fill:#fff}</style><circle cx="238" cy="256" r="209.5" style="fill:#0b3d91"/><circle cx="225.6" cy="86.7" r="2.3" class="st1"/><circle cx="249.7" cy="89.9" r="2.3" class="st1"/><circle cx="281.4" cy="132.5" r="2.3" class="st1"/><circle cx="107.9" cy="351.7" r="2.3" class="st1"/><circle cx="114" cy="370.5" r="2.3" class="st1"/><circle cx="84.9" cy="354.5" r="1.8" class="st1"/><circle cx="180.4" cy="391.4" r="1.8" class="st1"/><circle cx="330.2" cy="360.3" r="1.8" class="st1"/><circle cx="373.7" cy="313" r="1.8" class="st1"/><circle cx="160.3" cy="146.2" r="1.8" class="st1"/><circle cx="208.2" cy="111" r="1.8" class="st1"/><circle cx="203" cy="107.6" r="1.8" class="st1"/><circle cx="198.3" cy="104.1" r="1.8" class="st1"/><circle cx="167.9" cy="155.3" r="1.8" class="st1"/><circle cx="238.4" cy="63.7" r="1.8" class="st1"/><circle cx="250" cy="114.5" r="1.8" class="st1"/><circle cx="231.7" cy="104.6" r="1.8" class="st1"/><circle cx="200.4" cy="118" r="1.8" class="st1"/><circle cx="338.5" cy="406.7" r="1.8" class="st1"/><circle cx="104.9" cy="363.6" r="1.8" class="st1"/><circle cx="227.3" cy="386.3" r="1.8" class="st1"/><circle cx="141.3" cy="362.2" r="1.8" class="st1"/><circle cx="156.6" cy="387" r="1.8" class="st1"/><circle cx="268.7" cy="371.4" r="1.8" class="st1"/><circle cx="330.5" cy="336.5" r="1.8" class="st1"/><circle cx="377.3" cy="357.9" r="1.8" class="st1"/><circle cx="393.3" cy="368.1" r="1.8" class="st1"/><circle cx="395.9" cy="340.2" r="1.8" class="st1"/><circle cx="163" cy="300.8" r="1.8" class="st1"/><circle cx="163.6" cy="341.2" r="2.3" class="st1"/><circle cx="177.7" cy="370.9" r="2.3" class="st1"/><circle cx="346.5" cy="339.9" r="2.3" class="st1"/><circle cx="407.2" cy="336.5" r="2.3" class="st1"/><circle cx="377.2" cy="323.6" r="2.3" class="st1"/><circle cx="346.5" cy="324.9" r="2.3" class="st1"/><path d="m283.2 85.3 5.8-.6-5.8-.3c-.2-1.1-1.1-2-2.2-2.2l-.6-5.8-.3 5.9c-1.1.2-1.9 1.1-2 2.2l-6 .5 6 .3c.2 1 1 1.8 2.1 2l.5 6 .3-6c1.1-.1 2-1 2.2-2m-98.6 65 5.8-.6-5.8-.3c-.2-1.1-1.1-2-2.2-2.2l-.6-5.8-.3 5.9c-1.1.2-1.9 1.1-2 2.2l-6 .5 6 .3c.2 1 1 1.8 2.1 2l.5 6 .3-6c1.2-.1 2-.9 2.2-2M403 322.2l5.8-.6-5.8-.3c-.2-1.1-1.1-2-2.2-2.2l-.6-5.8-.3 5.9c-1.1.2-1.9 1.1-2 2.2l-6 .5 6 .3c.2 1 1 1.8 2.1 2l.5 6 .3-6c1.1-.1 2-.9 2.2-2m-238.1 89.9 5.8-.6-5.8-.3c-.2-1.1-1.1-2-2.2-2.2l-.6-5.8-.3 5.9c-1.1.2-1.9 1.1-2 2.2l-6 .5 6 .3c.2 1 1 1.8 2.1 2l.5 6 .3-6c1.1-.1 2-1 2.2-2m219.5-43.9 5.8-.6-5.8-.3c-.2-1.1-1.1-2-2.2-2.2l-.6-5.8-.3 5.9c-1.1.2-1.9 1.1-2 2.2l-6 .5 6 .3c.2 1 1 1.8 2.1 2l.5 6 .3-6c1.2-.1 2-.9 2.2-2" class="st1"/><path d="M287.7 205.8c-24.4 9.5-48.1 17.9-68.2 24.2C178.8 242.8 67.3 277.3 0 320.8l5.6 2.2c41-23.2 67.7-30.5 93.3-38.5 27.9-8.8 118-29.9 158.8-41.3 13.8-3.9 29.9-9 47-15.1-4-5.5-8.2-11.1-12.6-16.7-1.4-1.9-2.9-3.8-4.4-5.6m29.7 41c-5.9 4-10.8 7.2-14.3 9.2-20 11.6-117.7 78.3-140 93.6-22.2 15.3-83.9 73.6-102.1 90.5l-.6 6.9c58.6-52.6 76.9-65.6 100.2-83.3 28.8-21.9 88.4-62.5 108.7-75.5 19.4-12.4 36.8-23.8 52.5-34.3-.3-.4-.5-.9-.8-1.3-1.1-1.9-2.3-3.8-3.6-5.8m91.6-96.6c-28.5 16.7-73.5 36.9-117.1 54 1 1.3 2.1 2.6 3.1 3.9 4.9 6.1 9.5 12.3 13.8 18.5 34.3-12.6 71.9-29.6 101.8-50.1-14.2 13.5-61.2 48.6-89.9 68.2 1.5 2.4 2.9 4.8 4.3 7.2 43.4-29.1 72.7-50.5 89.7-64.8 23.5-19.7 77-63.9 97.4-123.1-35.8 45.4-78 71.4-103.1 86.2" style="fill:#fc3d21"/><path d="M211 307.9c-4.6-5.8-11-13.6-15.8-19.6-6.4-8.1-12.3-16.2-17.8-24.4-1.8.4-3.5.9-5.3 1.3 6.6 10.2 13.9 20.5 21.8 30.5 5.8 7.3 11.1 13.2 13.8 16.8.5.7 1.6 2.4 3.1 4.6 1.7-1.1 3.4-2.3 5.1-3.5-1.6-1.8-3.3-3.7-4.9-5.7m33.8 30.6c-3.8-3.6-13-9.6-22.6-18.6-2.1 1.5-4.2 2.9-6.4 4.4 6.2 8.7 14.6 19.4 21.2 22.5 9.9 4.7 12.6-3.7 7.8-8.3M295 208.1c-54.8-68.9-121.7-106.8-150.5-83.9-22.4 17.8-13.2 69.8 17.7 124.4 1.6-.5 3.2-1.1 4.7-1.6-31.2-53.2-39.7-102.7-18.6-119.5 26.5-21.1 90.7 16.9 143.8 83.8 11 13.9 20.7 27.8 28.9 41.3 31.4 51.9 41 98.9 19.3 118.1-6.6 5.9-26.9 8.2-53.5-3.8-.4.5.2 1.7.7 2 22.9 9.2 44.9 12.7 56 3.9 26.7-21.1 6.2-95.8-48.5-164.7m-234.9 8.1h35.1l29.4 49.9v-39c0-4.4-5.6-10.1-7.5-11h24.3c-1.5.4-6.3 6.2-6.3 11v57.3c0 3.5 5.1 8.4 7.5 10.3h-33.8l-29.9-50.2V284c0 3.9 3.8 7.7 7.8 10.9H60.9c3.7-1.6 7.2-6.5 7.5-10.4s0-54.4 0-56.6c0-4.8-4.6-8.7-8.3-11.7" class="st1"/><path d="M380.9 294.8h46.7c-2.6-.6-5.5-3.7-7-7.8-1.6-4.1-26.3-70.8-26.3-70.8h-17.7c-5 3.6-10.4 7.4-16.2 11.5 0 .1 0 .3-.1.4-.8 4.7-14.7 55-15.5 57.5-1.2 3.4-7.2 7.3-9.6 9.3h25.1c-2.5-2.8-4.5-5.6-4.1-8.7.5-3.1 1.9-9.4 1.9-9.4h26c1.2 3.1 2.1 5.9 2.5 8.6.5 3.2-2.8 6.8-5.7 9.4m-20.5-28 8.8-28.7 11.6 28.7zm-3.9-47.7c1.3-.9 2.6-1.9 3.9-2.9h-6.8c.6.7 1.7 1.6 2.9 2.9M178 286.2c.5-3.1 1.9-9.4 1.9-9.4h26c1.2 3.1 2.1 5.9 2.5 8.6.5 3.2-2.7 6.8-5.6 9.3h41.1c.9-.6 1.7-1.1 2.6-1.7-1.6-1.4-3.1-3.5-4-6-1.6-4.1-26.3-70.8-26.3-70.8h-40.7c2 1.8 7.6 6.7 6.7 11.9-.8 4.7-14.7 55-15.5 57.5-1.2 3.4-7.2 7.3-9.6 9.3h25.1c-2.6-2.8-4.6-5.6-4.2-8.7m13-48 11.6 28.7h-20.4zm128.9 17c-7.7 5.1-15.7 10.4-24.3 16 3.8 1.9 6.9 4.2 7.2 7.2.5 5.6-10.8 8.4-21.1 7.2-2.1-.2-4.1-.8-6-1.5-2.1 1.4-4.3 2.8-6.5 4.2s-4.9 3.2-8 5.2v8.1c2-4 6.5-7.6 9.9-7.8 1.5-.1 6.7 4.7 27.9 3.5 10.3-.6 30.3-11.6 30-24.3 0-7.4-3.9-13.3-9.1-17.8m-58.6 19.6v8.3c1.9-1.3 3.7-2.5 5.6-3.7-2.9-2-4.9-3.9-5.6-4.6m51.3-24.8c-2-1.2-4-2.2-5.9-3.1-10-4.7-20.5-5.6-22.7-11.9-1.5-4.5 2.8-8.6 13.5-8.5 10.6.2 20.5 6.5 23.2 8.8v-20.2c-.8.8-4.2 4.7-7.4 4.1-6-1.3-16.3-2.9-28-2.8-13.5.1-25.1 10.5-25.4 23.6-.5 18.4 14.2 23.4 22.5 26.3.9.3 1.8.6 2.9 1 8-5.2 14.3-9.2 17.9-11.3 2.4-1.4 5.6-3.5 9.4-6" class="st1"/></svg>