<svg xmlns="http://www.w3.org/2000/svg" xml:space="preserve" viewBox="64.04 -0.04 383.94 512.11"><path d="m440.259 392.288-40.595 40.595zl-46.313-46.313z"/><path d="m384.1 484.4-29.4 29.4c15 7.2 25.8 22.8 25.8 41.4 0 25.2-20.4 45.6-45.6 45.6-18 0-33.6-10.8-41.4-25.8l-35.4 35.4-.6.6 125.9 125.9 48.6-48.6c-19.2 0-35.4-15.6-35.4-35.4s15.6-35.4 35.4-35.4c19.2 0 35.4 15.6 35.4 35.4l42.6-42.6-48.6-48-3.6-3.6h2.4c19.2 0 35.4-15.6 35.4-35.4 0-9-3.6-16.8-9-23.4-6-5.4-14.4-9-23.4-9-19.2 0-35.4 15.6-35.4 35.4v2.4l-2.4-2.4z" style="fill:#ffb380" transform="translate(-45.741 -190.15)scale(.95294)"/><path d="M296.9 464.3c-25.2 0-45.6-20.4-45.6-45.6 0-18 10.2-33.6 25.2-40.8l-35.4-35.4-125.9 126 133.1 133.1 57-57c-1.8 3.6-2.4 7.8-2.4 12 0 17.4 14.4 31.8 31.8 31.8s31.8-14.4 31.8-31.8-14.4-31.8-31.8-31.8c-4.2 0-8.4.6-12 2.4l51.6-51.6-36-36c-7.9 13.9-23.5 24.7-41.4 24.7" style="fill:#8dcaff" transform="translate(-45.741 -190.15)scale(.95294)"/><path d="M518.1 332.7 466 280.5h2.4c19.2 0 35.4-15.6 35.4-35.4 0-19.2-15.6-34.8-35.4-34.8-19.2 0-35.4 15.6-35.4 35.4v2.4l-48.6-48.6-125.9 126-4.2 4.8-2.4 2.4 57 57q-5.4-1.8-10.8-1.8c-17.4 0-31.8 14.4-31.8 31.8s14.4 31.8 31.8 31.8 31.8-14.4 31.8-31.8c0-3-.6-5.4-1.2-8.4 0-1.2-.6-1.8-.6-3l3 3 55.2 55.2 2.4-2.4 4.8-4.8 40.8-40.8c-19.2 0-35.4-15.6-35.4-35.4s15.6-35.4 35.4-35.4c19.2 0 35.4 15.6 35.4 35.4z" style="fill:#c0d9b4" transform="translate(-45.741 -190.15)scale(.95294)"/><path d="M266.824 201.7h1.715l-2.287-2.86c0 .573 0 1.716.572 2.86"/></svg>