<svg xmlns="http://www.w3.org/2000/svg" xml:space="preserve" id="svg5" x="0" y="0" style="enable-background:new 0 0 512 512" version="1.1" viewBox="0 0 512 512"><style>.st1{fill:#fff}.st2{fill:#d40000}</style><g id="layer1"><ellipse id="path31" cx="256" cy="256.9" rx="255.3" ry="254.8"/><defs><filter id="Adobe_OpacityMaskFilter" width="510.6" height="510.6" x=".8" y="1.4" filterUnits="userSpaceOnUse"><feColorMatrix values="1 0 0 0 0 0 1 0 0 0 0 0 1 0 0 0 0 0 1 0"/></filter></defs><mask id="mask49405_00000072979303588598009280000003323575028994281620_" width="510.6" height="510.6" x=".8" y="1.4" maskUnits="userSpaceOnUse"><g style="filter:url(#Adobe_OpacityMaskFilter);enable-background:new"><text class="st1" style="font-family:&quot;TwCenMT-Regular&quot;;font-size:154.8px" transform="matrix(2.2087 0 0 1 531.95 355.999)">A</text></g></mask><circle id="path31-89" cx="256" cy="256.7" r="255.3" style="mask:url(#mask49405_00000072979303588598009280000003323575028994281620_);fill:#fff"/></g><g id="layer6"><path id="path52389" d="m386.4 464.4-7.1-6.6H130.1l-5.9 6.3c-3.2 3.5-6.2 6.3-6.6 6.3-2.2 0-23.3-16.3-35-27l-6.9-6.3 89.3-89.6c49.1-49.3 89.2-90.3 89.4-90.3s41.4 41.1 91 90.5l90.2 89.8-6.3 6c-7.9 7.5-18.9 16.4-28.3 22.8-3.9 2.7-7.3 4.9-7.4 4.9-.1-.1-3.4-3.1-7.2-6.8m-98.2-97.8-33.3-33.3-33.3 33.3-33.3 33.3h133.2z" class="st1"/><path id="path52465" d="M221.3 222.7 188 189.5c9.9-8.5 28.1-17.8 44.2-21.8 6-1.5 12.5-3.2 22.5-3.2 11.3 0 21.2 2.2 33.8 6.5 11.7 4 20 8.2 29.4 15.1l4.1 3-5.9 6c-3.2 3.3-18.4 18.3-33.8 33.3l-27.9 27.4c-10.9-11.1-30.9-30.9-33.1-33.1" class="st2"/><path id="path52504" d="M371.3 130.4C331.8 97.1 275 83 219.5 92.8c-31.5 5.5-57.2 18.4-85.4 42.2l-1.4 1.2-5.7-6.4c-2.6-2.9-15.6-16-28.6-29.4L75.2 77l2.6-2.7c17.7-18.1 48.3-39.7 71.2-50.2C200 .8 253.9-5.9 308 5.3c45.8 9.5 85.8 29.7 121.7 64.9l6.8 6.7-6.4 6.7c-4.2 4.4-17.8 17.8-30.1 30.1l-22.4 22.2z" class="st2"/></g></svg>