<svg xmlns="http://www.w3.org/2000/svg" xmlns:xlink="http://www.w3.org/1999/xlink" xml:space="preserve" viewBox="0 0 476.3 512"><defs><path id="a" d="M0 189v295.1c0 23.1 26.5 36.2 44.9 22.1l176.3-135.5c10-7.7 23.9-7.7 33.9 0l176.3 135.1c18.3 14.1 44.8 1 44.8-22.1V189c0-8.7-4-16.9-10.9-22.1L255.1 5.8c-10-7.7-23.9-7.7-33.9 0L10.9 166.9A27.9 27.9 0 0 0 0 189"/></defs><clipPath id="b"><use xlink:href="#a" style="overflow:visible"/></clipPath><linearGradient id="c" x1="-61.327" x2="134.201" y1="367.141" y2="171.617" gradientTransform="translate(0 82.058)" gradientUnits="userSpaceOnUse"><stop offset="0" style="stop-color:#ff7911"/><stop offset=".565" style="stop-color:#fe7711"/><stop offset=".769" style="stop-color:#fb700f"/><stop offset=".913" style="stop-color:#f5650c"/><stop offset="1" style="stop-color:#f05909"/></linearGradient><path d="M2.6 177.3C.9 181 0 185 0 189v313.8c0 15.5 17.8 24.2 30.1 14.8l208.1-159.9z" style="clip-path:url(#b);fill:url(#c)"/><defs><path id="d" d="M0 189v295.1c0 23.1 26.5 36.2 44.9 22.1l176.3-135.5c10-7.7 23.9-7.7 33.9 0l176.3 135.1c18.3 14.1 44.8 1 44.8-22.1V189c0-8.7-4-16.9-10.9-22.1L255.1 5.8c-10-7.7-23.9-7.7-33.9 0L10.9 166.9A27.9 27.9 0 0 0 0 189"/></defs><clipPath id="e"><use xlink:href="#d" style="overflow:visible"/></clipPath><linearGradient id="f" x1="-79.545" x2="128.419" y1="353.192" y2="178.69" gradientTransform="translate(0 82.058)" gradientUnits="userSpaceOnUse"><stop offset=".5" style="stop-color:#ff8d15;stop-opacity:0"/><stop offset=".67" style="stop-color:#fe8a14;stop-opacity:.34"/><stop offset=".772" style="stop-color:#fa8212;stop-opacity:.543"/><stop offset=".855" style="stop-color:#f3740f;stop-opacity:.711"/><stop offset=".929" style="stop-color:#ea600a;stop-opacity:.858"/><stop offset=".996" style="stop-color:#de4603;stop-opacity:.992"/><stop offset="1" style="stop-color:#dd4403"/></linearGradient><path d="M2.6 177.3C.9 181 0 185 0 189v313.8c0 15.5 17.8 24.2 30.1 14.8l208.1-159.9z" style="clip-path:url(#e);fill:url(#f)"/><defs><path id="g" d="M0 189v295.1c0 23.1 26.5 36.2 44.9 22.1l176.3-135.5c10-7.7 23.9-7.7 33.9 0l176.3 135.1c18.3 14.1 44.8 1 44.8-22.1V189c0-8.7-4-16.9-10.9-22.1L255.1 5.8c-10-7.7-23.9-7.7-33.9 0L10.9 166.9A27.9 27.9 0 0 0 0 189"/></defs><clipPath id="h"><use xlink:href="#g" style="overflow:visible"/></clipPath><path d="m2.6 177.3 235.5 180.4 235.5-180.4c-1.9-4.1-4.7-7.6-8.3-10.4L250.5 2.3c-7.3-5.6-17.4-5.6-24.6 0C177.4 42.8 45.1 134 2.6 177.3" style="clip-path:url(#h);fill:#ff8f15"/><defs><path id="i" d="M0 189v295.1c0 23.1 26.5 36.2 44.9 22.1l176.3-135.5c10-7.7 23.9-7.7 33.9 0l176.3 135.1c18.3 14.1 44.8 1 44.8-22.1V189c0-8.7-4-16.9-10.9-22.1L255.1 5.8c-10-7.7-23.9-7.7-33.9 0L10.9 166.9A27.9 27.9 0 0 0 0 189"/></defs><clipPath id="j"><use xlink:href="#i" style="overflow:visible"/></clipPath><path d="m238.1 357.7 16.9 13c20.4 15.7 175.3 134.2 191.2 146.4 12.3 9.4 30 .7 30-14.8V189c0-4.1-.9-8.1-2.6-11.7z" style="clip-path:url(#j);fill:#ffa618"/><defs><path id="k" d="M0 189v295.1c0 23.1 26.5 36.2 44.9 22.1l176.3-135.5c10-7.7 23.9-7.7 33.9 0l176.3 135.1c18.3 14.1 44.8 1 44.8-22.1V189c0-8.7-4-16.9-10.9-22.1L255.1 5.8c-10-7.7-23.9-7.7-33.9 0L10.9 166.9A27.9 27.9 0 0 0 0 189"/></defs><clipPath id="l"><use xlink:href="#k" style="overflow:visible"/></clipPath><linearGradient id="m" x1="359.199" x2="532.376" y1="347.638" y2="220.127" gradientTransform="translate(0 82.058)" gradientUnits="userSpaceOnUse"><stop offset=".436" style="stop-color:#ff8f15"/><stop offset=".741" style="stop-color:#ff9916;stop-opacity:.46"/><stop offset="1" style="stop-color:#ffa618;stop-opacity:0"/></linearGradient><path d="m238.1 357.7 16.9 13c20.4 15.7 175.3 134.2 191.2 146.4 12.3 9.4 30 .7 30-14.8V189c0-4.1-.9-8.1-2.6-11.7z" style="clip-path:url(#l);fill:url(#m)"/></svg>