<?xml version="1.0" encoding="UTF-8"?><svg id="Layer_2" xmlns="http://www.w3.org/2000/svg" width="1299.579713821411133" height="365.990053176879883" viewBox="0 0 1299.579713821411133 365.990053176879883"><g id="Layer_1-2"><path d="M337.269990921020508,228.589998245239258c-12.350006103515625,0-22.8800048828125,7.800003051757812-26.94000244140625,18.740005493164062h-174.710006713867188c-2.899993896484375-7.830001831054688-9.120002746582031-14.039993286132812-16.949996948242188-16.949996948242188V55.670000076293945c10.94000244140625-4.060001373291016,18.740005493164062-14.590000152587891,18.740005493164062-26.940000534057617,0-15.869999885559082-12.860000610351562-28.729999542236328-28.729995727539062-28.729999542236328s-28.729995727539062,12.859999656677246-28.729995727539062,28.729999542236328c0,12.350000381469727,7.800003051757812,22.879999160766602,18.739997863769531,26.940000534057617v174.710006713867188c-10.94000244140625,4.05999755859375-18.739997863769531,14.589996337890625-18.739997863769531,26.94000244140625,0,4.279998779296875.94000244140625,8.329986572265625,2.620002746582031,11.980010986328125l-41.849998474121094,41.850006103515625c-3.650001525878906-1.67999267578125-7.700000762939453-2.6199951171875-11.979999542236328-2.6199951171875C12.870003700256348,308.530031204223633.010004043579102,321.390016555786133.010004043579102,337.260042190551758s12.859999656677246,28.730010986328125,28.729999542236328,28.730010986328125c15.869998931884766,0,28.729999542236328-12.8599853515625,28.729999542236328-28.730010986328125,0-4.279998779296875-.939998626708984-8.329986572265625-2.619998931884766-11.980010986328125l41.849994659423828-41.850006103515625c3.650001525878906,1.67999267578125,7.699996948242188,2.6199951171875,11.979995727539062,2.6199951171875,12.349998474121094,0,22.8800048828125-7.79998779296875,26.94000244140625-18.739990234375h174.71002197265625c4.05999755859375,10.94000244140625,14.589996337890625,18.739990234375,26.94000244140625,18.739990234375,15.8699951171875,0,28.730010986328125-12.8599853515625,28.730010986328125-28.730010986328125s-12.8599853515625-28.729995727539062-28.730010986328125-28.729995727539062l-.000030517578125-.000015258789062Z" style="fill:#001423;"/><path d="M366.000001907348633,28.730001449584961c0,15.869998931884766-12.8599853515625,28.729999542236328-28.730010986328125,28.729999542236328-4.279998779296875,0-8.329986572265625-.939998626708984-11.980010986328125-2.619998931884766l-41.850006103515625,41.850002288818359c1.67999267578125,3.650001525878906,2.6199951171875,7.699996948242188,2.6199951171875,11.979995727539062,0,12.349998474121094-7.79998779296875,22.8800048828125-18.739990234375,26.94000244140625v174.710006713867188c10.94000244140625,4.05999755859375,18.739990234375,14.589996337890625,18.739990234375,26.94000244140625,0,15.8699951171875-12.8599853515625,28.730010986328125-28.730010986328125,28.730010986328125s-28.729995727539062-12.8599853515625-28.729995727539062-28.730010986328125c0-12.350006103515625,7.800003051757812-22.8800048828125,18.740005493164062-26.94000244140625v-174.710006713867188c-7.830001831054688-2.899993896484375-14.039993286132812-9.120002746582031-16.949996948242188-16.949996948242188H55.670000076293945c-4.060001373291016,10.94000244140625-14.590000152587891,18.740005493164062-26.940000534057617,18.740005493164062-15.869999885559082,0-28.729999542236328-12.860000610351562-28.729999542236328-28.729995727539062s12.859999656677246-28.729995727539062,28.729999542236328-28.729995727539062c12.350000381469727,0,22.879999160766602,7.800003051757812,26.940000534057617,18.739997863769531h174.710006713867188c4.05999755859375-10.94000244140625,14.589996337890625-18.739997863769531,26.94000244140625-18.739997863769531,4.279998779296875,0,8.329986572265625.94000244140625,11.980010986328125,2.620002746582031l41.850006103515625-41.849998474121094c-1.67999267578125-3.650001525878906-2.6199951171875-7.700000762939453-2.6199951171875-11.979999542236328C308.530031204223633,12.860024452209473,321.390016555786133.000024795532227,337.260042190551758.000024795532227s28.730010986328125,12.859999656677246,28.730010986328125,28.729999542236328l.00994873046875-.000022888183594ZM579.760011672973633,136.44999885559082c-4.6300048828125-4.3800048828125-10.17999267578125-7.67999267578125-16.239990234375-9.660003662109375-6.09002685546875-2.069999694824219-12.47998046875-3.110000610351562-18.90997314453125-3.080001831054688-9.75-.169998168945312-19.3699951171875,2.169998168945312-27.95001220703125,6.779998779296875-2.67999267578125,1.55999755859375-5.230010986328125,3.350006103515625-7.6099853515625,5.339996337890625v-9.040000915527344h-34.529998779296875v134.640007019042969h34.529998779296875v-69.05999755859375c-.079986572265625-5.699996948242188.67999267578125-11.3800048828125,2.260009765625-16.860000610351562,1.260009765625-4.029998779296875,3.3599853515625-7.740005493164062,6.16998291015625-10.889999389648438,2.40997314453125-2.69000244140625,5.44000244140625-4.740005493164062,8.84002685546875-5.960006713867188,3.71002197265625-1.259994506835938,7.5999755859375-1.889999389648438,11.510009765625-1.850006103515625,2.989990234375,0,5.969970703125.410003662109375,8.84002685546875,1.229995727539062,2.6199951171875.910003662109375,5,2.3800048828125,6.989990234375,4.32000732421875,2.1099853515625,2.279998779296875,3.780029296875,4.92999267578125,4.92999267578125,7.80999755859375,1.32000732421875,4.1199951171875,1.95001220703125,8.419998168945312,1.8499755859375,12.740005493164062v78.520004272460938h34.530029296875v-85.100006103515625c.219970703125-7.94000244140625-1.17999267578125-15.839996337890625-4.1099853515625-23.229995727539062-2.3699951171875-6.330001831054688-6.15997314453125-12.029998779296875-11.0999755859375-16.649993896484375h-.0001220703125ZM744.409975051879883,169.339998245239258c2.280029296875,8.160003662109375,3.46002197265625,16.600006103515625,3.489990234375,25.080001831054688v13.770004272460938h-98.46002197265625c.3800048828125,2.330001831054688,1.219970703125,4.57000732421875,2.469970703125,6.580001831054688,1.83001708984375,3.770004272460938,4.510009765625,7.080001831054688,7.80999755859375,9.660003662109375,3.41998291015625,2.800003051757812,7.32000732421875,4.960006713867188,11.510009765625,6.3699951171875,4.41998291015625,1.57000732421875,9.08001708984375,2.330001831054688,13.77001953125,2.259994506835938,5.6300048828125.240005493164062,11.21002197265625-1.19000244140625,16.030029296875-4.110000610351562,5.19000244140625-3.30999755859375,9.780029296875-7.479995727539062,13.57000732421875-12.330001831054688l3.489990234375-4.110000610351562,26.30999755859375,20.139999389648438-3.28997802734375,4.520004272460938c-14.17999267578125,18.089996337890625-34.1199951171875,27.340011596679688-59.20001220703125,27.340011596679688-9.780029296875.089996337890625-19.489990234375-1.720001220703125-28.57000732421875-5.339996337890625-8.34002685546875-3.339996337890625-15.84002685546875-8.460006713867188-21.989990234375-15.009994506835938-6.02001953125-6.490005493164062-10.70001220703125-14.100006103515625-13.77001953125-22.399993896484375-3.17999267578125-8.830001831054688-4.780029296875-18.160003662109375-4.72998046875-27.539993286132812-.02001953125-9.490005493164062,1.719970703125-18.899993896484375,5.1400146484375-27.75,3.3599853515625-8.350006103515625,8.32000732421875-15.960006713867188,14.59002685546875-22.399993896484375,6.239990234375-6.44000244140625,13.719970703125-11.539993286132812,21.989990234375-15.009994506835938,8.739990234375-3.580001831054688,18.0999755859375-5.400001525878906,27.53997802734375-5.339996337890625,11.91998291015625,0,21.989990234375,2.05999755859375,30.41998291015625,6.3699951171875,7.91998291015625,3.899993896484375,14.8699951171875,9.520004272460938,20.3499755859375,16.44000244140625,5.3599853515625,6.740005493164062,9.280029296875,14.5,11.510009765625,22.819992065429688l.02001953125-.010040283203125ZM711.309999465942383,178.39000129699707c-.42999267578125-2.360000610351562-.97998046875-4.69000244140625-1.6400146484375-6.990005493164062-1.1400146484375-3.449996948242188-3.03997802734375-6.610000610351562-5.54998779296875-9.25-2.45001220703125-2.779998779296875-5.55999755859375-4.899993896484375-9.03997802734375-6.169998168945312-8.67999267578125-3.419998168945312-18.3599853515625-3.270004272460938-26.92999267578125.410003662109375-3.8699951171875,1.69000244140625-7.3699951171875,4.1300048828125-10.280029296875,7.19000244140625-2.80999755859375,2.830001831054688-5.04998779296875,6.17999267578125-6.58001708984375,9.8699951171875-.72998046875,1.580001831054688-1.280029296875,3.229995727539062-1.6400146484375,4.92999267578125h61.65997314453125l.00006103515625.010009765625ZM827.239992141723633,230.800004959106445c-2.55999755859375.57000732421875-5.17999267578125.839996337890625-7.80999755859375.82000732421875-2.40997314453125.1199951171875-4.82000732421875-.3699951171875-6.989990234375-1.44000244140625-1.41998291015625-1.080001831054688-2.54998779296875-2.490005493164062-3.28997802734375-4.110000610351562-.92999267578125-2.360000610351562-1.41998291015625-4.8699951171875-1.44000244140625-7.399993896484375-.21002197265625-3.289993286132812-.40997314453125-6.580001831054688-.40997314453125-9.8699951171875v-50.57000732421875h33.71002197265625v-31.449996948242188h-33.71002197265625v-34.529998779296875h-34.530029296875v34.529998779296875h-21.78997802734375v31.449996948242188h21.78997802734375v58.790008544921875c-.03997802734375,5.149993896484375.239990234375,10.300003051757812.82000732421875,15.419998168945312.3800048828125,5.55999755859375,1.989990234375,10.970001220703125,4.72998046875,15.830001831054688,3.21002197265625,5.17999267578125,7.8499755859375,9.32000732421875,13.3599853515625,11.920013427734375,5.760009765625,2.8800048828125,13.3599853515625,4.32000732421875,23.42999267578125,4.32000732421875,3.71002197265625-.040008544921875,7.41998291015625-.30999755859375,11.0999755859375-.82000732421875,4.469970703125-.55999755859375,8.78997802734375-1.95001220703125,12.739990234375-4.1099853515625l2.8800048828125-1.44000244140625v-34.330001831054688l-8.42999267578125,4.92999267578125c-1.92999267578125,1.020004272460938-4.010009765625,1.720001220703125-6.16998291015625,2.05999755859375l.010009765625-.000030517578125ZM997.030031204223633,166.46000862121582c3.15997314453125,8.910003662109375,4.760009765625,18.300003051757812,4.72998046875,27.75.03997802734375,9.319992065429688-1.55999755859375,18.569992065429688-4.72998046875,27.339996337890625-3.07000732421875,8.300003051757812-7.75,15.919998168945312-13.77001953125,22.399993896484375-6.0999755859375,6.55999755859375-13.530029296875,11.740005493164062-21.78997802734375,15.210006713867188-8.94000244140625,3.6199951171875-18.510009765625,5.44000244140625-28.15997314453125,5.339996337890625-9.16998291015625-.040008544921875-18.219970703125-2.07000732421875-26.52001953125-5.959991455078125-4.1199951171875-1.709991455078125-7.92999267578125-4.07000732421875-11.30999755859375-6.990005493164062v9.870010375976562h-34.52996826171875V53.410001754760742h34.530029296875v83.039997100830078c3.22998046875-2.589996337890625,6.75-4.800003051757812,10.47998046875-6.580001831054688,8.53997802734375-4.069999694824219,17.8800048828125-6.180000305175781,27.34002685546875-6.169998168945312,9.6500244140625-.089996337890625,19.219970703125,1.720001220703125,28.15997314453125,5.339996337890625,8.17999267578125,3.520004272460938,15.58001708984375,8.6199951171875,21.78997802734375,15.009994506835938,5.90997314453125,6.580001831054688,10.57000732421875,14.169998168945312,13.77001953125,22.399993896484375l.00994873046875.010025024414062ZM963.109987258911133,178.800004959106445c-1.40997314453125-4.389999389648438-3.79998779296875-8.389999389648438-6.989990234375-11.720001220703125-3.07000732421875-3.259994506835938-6.780029296875-5.850006103515625-10.8900146484375-7.610000610351562-9.469970703125-3.57000732421875-19.91998291015625-3.57000732421875-29.3900146484375,0-4.1199951171875,1.759994506835938-7.83001708984375,4.350006103515625-10.8900146484375,7.610000610351562-3.1199951171875,3.3699951171875-5.5,7.3699951171875-6.989990234375,11.720001220703125-1.71002197265625,4.960006713867188-2.54998779296875,10.169998168945312-2.469970703125,15.419998168945312-.04998779296875,5.240005493164062.780029296875,10.449996948242188,2.469970703125,15.419998168945312,1.53997802734375,4.270004272460938,3.90997314453125,8.180007934570312,6.989990234375,11.509994506835938,3.010009765625,3.32000732421875,6.739990234375,5.919998168945312,10.8900146484375,7.610000610351562,9.41998291015625,3.830001831054688,19.969970703125,3.830001831054688,29.3900146484375,0,4.15997314453125-1.67999267578125,7.8800048828125-4.279998779296875,10.8900146484375-7.610000610351562,3.1500244140625-3.279998779296875,5.53997802734375-7.210006713867188,6.989990234375-11.509994506835938,1.67999267578125-4.960006713867188,2.52001953125-10.180007934570312,2.469970703125-15.419998168945312.07000732421875-5.240005493164062-.77001953125-10.460006713867188-2.469970703125-15.419998168945312ZM1136.599977493286133,244.160005569458008c-28.239990234375,27.149993896484375-72.8900146484375,27.149993896484375-101.1300048828125,0-13.16998291015625-13.289993286132812-20.55999755859375-31.240005493164062-20.54998779296875-49.949996948242188-.0999755859375-28.399993896484375,16.95001220703125-54.050003051757812,43.16998291015625-64.949996948242188,17.9000244140625-7.400001525878906,38.010009765625-7.400001525878906,55.9100341796875,0,26.1400146484375,11,43.1500244140625,36.589996337890625,43.1700439453125,64.949996948242188,0,18.710006713867188-7.3800048828125,36.660003662109375-20.550048828125,49.949996948242188h-.02001953125ZM1118.510011672973633,178.800004959106445c-1.4200439453125-4.339996337890625-3.72998046875-8.330001831054688-6.780029296875-11.720001220703125-3.0999755859375-3.220001220703125-6.800048828125-5.800003051757812-10.8900146484375-7.610000610351562-9.550048828125-3.55999755859375-20.050048828125-3.55999755859375-29.5999755859375,0-4.0899658203125,1.80999755859375-7.7900390625,4.389999389648438-10.8900146484375,7.610000610351562-3.050048828125,3.389999389648438-5.3599853515625,7.3800048828125-6.780029296875,11.720001220703125-1.8800048828125,4.919998168945312-2.7900390625,10.149993896484375-2.6700439453125,15.419998168945312-.0799560546875,5.259994506835938.8199462890625,10.490005493164062,2.6700439453125,15.419998168945312,1.469970703125,4.25,3.77001953125,8.169998168945312,6.780029296875,11.509994506835938,3.050048828125,3.279998779296875,6.77001953125,5.8699951171875,10.8900146484375,7.610000610351562,9.489990234375,3.839996337890625,20.1099853515625,3.839996337890625,29.5999755859375,0,4.1300048828125-1.740005493164062,7.8399658203125-4.330001831054688,10.8900146484375-7.610000610351562,3.010009765625-3.339996337890625,5.3199462890625-7.259994506835938,6.780029296875-11.509994506835938,1.75-4.949996948242188,2.6600341796875-10.160003662109375,2.6700439453125-15.419998168945312,0-5.25-.9000244140625-10.470001220703125-2.6700439453125-15.419998168945312ZM1291.579957962036133,126.790002822875977h-42.3399658203125l-26.52001953125,39.470008850097656-26.9300537109375-39.470001220703125h-44.4000244140625l48.0999755859375,63.100006103515625-54.27001953125,71.529998779296875h42.9599609375l33.5-47.69000244140625,33.7099609375,47.69000244140625h44.18994140625l-54.27001953125-71.529998779296875,46.25-63.099998474121094.020263671875-.000015258789062Z" style="fill:#00857d;"/></g></svg>