<svg xmlns="http://www.w3.org/2000/svg" xml:space="preserve" id="Layer_1" x="0" y="0" version="1.1" viewBox="114.86 -0.13 282.24 512.28"><style>.st0,.st2{fill-rule:evenodd;clip-rule:evenodd}.st0{fill:#b1060f;stroke:#000;stroke-width:.2326;stroke-miterlimit:10}.st2{fill:#e50914}</style><g transform="translate(94.126 120.527)scale(.29074)"><path d="m696-413.4-.7 389.2-.7 389.2-32-90.3s-.1-.1-.1-.2l-41.4 866.4c40.7 114.9 62.5 176.2 62.7 176.5.3.3 23.5 1.7 51.5 3.1 84.9 4.2 190.1 13.2 269.8 23.2 18.5 2.3 34.4 3.5 35.3 2.6s1.5-397.1 1.2-880.6l-.6-879H696zm-624.3-1.2v879.9c0 483.9.5 880.4 1.1 881s30.6-2.2 66.6-6.3c36.1-4 85.9-9.1 110.7-11.2 38.1-3.2 151.9-10.5 165-10.6 3.8 0 4.1-19.8 4.6-372.7l.6-372.7 27.5 77.9c4.3 12 5.6 15.8 9.7 27.5L499-187.9c-8.8-24.8-4.2-11.8-14.2-40.2-33.8-95.6-62.5-176.6-63.7-180.1l-2.3-6.4z" class="st0"/><radialGradient id="SVGID_1_" cx="3361.52" cy="537.162" r="854.153" gradientTransform="matrix(.07072 -.02449 -.897 -2.5906 784.706 1929.583)" gradientUnits="userSpaceOnUse"><stop offset="0" style="stop-color:#000"/><stop offset="1" style="stop-color:#000;stop-opacity:0"/></radialGradient><path d="M71.7-414.6v494l347.9 923c0-21.2.1-32.6.1-56.8l.6-372.7 27.5 77.9c153.2 433.6 235.6 666 236 666.5.3.3 23.5 1.7 51.5 3.1 84.9 4.2 190.1 13.2 269.8 23.2 18.5 2.3 34.4 3.5 35.3 2.6.7-.6 1.1-194.9 1.2-469L695.5-118.4l-.2 94.2-.7 389.2-32-90.3c-31.3-88.3-52.2-147.3-177.9-502.7-33.8-95.6-62.5-176.6-63.7-180.1l-2.3-6.4h-347z" style="fill-rule:evenodd;clip-rule:evenodd;fill:url(#SVGID_1_)"/><path d="m71.7-414.6 348.6 987.9v-.4l27.5 77.9c153.2 433.6 235.6 666 236 666.5.3.3 23.5 1.7 51.5 3.1 84.9 4.2 190.1 13.2 269.8 23.2 18.4 2.3 34.2 3.5 35.3 2.6L694.6 364.8v.2l-32-90.3c-31.3-88.3-52.2-147.3-177.9-502.7-33.8-95.6-62.5-176.6-63.7-180.1l-2.3-6.4z" class="st2"/><path d="m696-413.4-.7 389.2-.7 389.2-32-90.3s-.1-.1-.1-.2l-41.4 866.4c40.7 114.9 62.5 176.2 62.7 176.5.3.3 23.5 1.7 51.5 3.1 84.9 4.2 190.1 13.2 269.8 23.2 18.5 2.3 34.4 3.5 35.3 2.6s1.5-397.1 1.2-880.6l-.6-879H696zm-624.3-1.2v879.9c0 483.9.5 880.4 1.1 881s30.6-2.2 66.6-6.3c36.1-4 85.9-9.1 110.7-11.2 38.1-3.2 151.9-10.5 165-10.6 3.8 0 4.1-19.8 4.6-372.7l.6-372.7 27.5 77.9c4.3 12 5.6 15.8 9.7 27.5L499-187.9c-8.8-24.8-4.2-11.8-14.2-40.2-33.8-95.6-62.5-176.6-63.7-180.1l-2.3-6.4z" class="st0"/><radialGradient id="SVGID_00000179638222489602485380000016352861055101810342_" cx="3361.52" cy="537.162" r="854.153" gradientTransform="matrix(.07072 -.02449 -.897 -2.5906 784.706 1929.583)" gradientUnits="userSpaceOnUse"><stop offset="0" style="stop-color:#000"/><stop offset="1" style="stop-color:#000;stop-opacity:0"/></radialGradient><path d="M71.7-414.6v494l347.9 923c0-21.2.1-32.6.1-56.8l.6-372.7 27.5 77.9c153.2 433.6 235.6 666 236 666.5.3.3 23.5 1.7 51.5 3.1 84.9 4.2 190.1 13.2 269.8 23.2 18.5 2.3 34.4 3.5 35.3 2.6.7-.6 1.1-194.9 1.2-469L695.5-118.4l-.2 94.2-.7 389.2-32-90.3c-31.3-88.3-52.2-147.3-177.9-502.7-33.8-95.6-62.5-176.6-63.7-180.1l-2.3-6.4h-347z" style="fill-rule:evenodd;clip-rule:evenodd;fill:url(#SVGID_00000179638222489602485380000016352861055101810342_)"/><path d="m71.7-414.6 348.6 987.9v-.4l27.5 77.9c153.2 433.6 235.6 666 236 666.5.3.3 23.5 1.7 51.5 3.1 84.9 4.2 190.1 13.2 269.8 23.2 18.4 2.3 34.2 3.5 35.3 2.6L694.6 364.8v.2l-32-90.3c-31.3-88.3-52.2-147.3-177.9-502.7-33.8-95.6-62.5-176.6-63.7-180.1l-2.3-6.4z" class="st2"/></g></svg>