<svg xmlns="http://www.w3.org/2000/svg" viewBox="-3.43 -1.62 644.03 646.05">
 <defs>
    <linearGradient id="grad5" x1="0%" y1="0%" x2="100%" y2="100%">
      <stop offset="5%" stop-color="#e3ed70" />
      <stop offset="95%" stop-color="#9fa64e" />
    </linearGradient>
  </defs>
<g>
  <title>Layer 1</title>
  <rect id="svg_3" height="646.00005" width="644.00002" y="-1.60004" x="-3.40002" rx="120" ry="120" fill="url(#grad5)"/>
  <path fill="#77b7eb" id="svg_1" d="m112,304l0,160l40,0l0,-56c0,-13.3 10.7,-24 24,-24c13.3,0 24,10.7 24,24l0,56l48,0l0,-56c0,-13.3 10.7,-24 24,-24c13.3,0 24,10.7 24,24l0,56l48,0l0,-56c0,-13.3 10.7,-24 24,-24c13.3,0 24,10.7 24,24l0,56l48,0l0,-56c0,-13.3 10.7,-24 24,-24c13.3,0 24,10.7 24,24l0,56l40,0l0,-160l-40,0c-13.3,0 -24,-10.7 -24,-24l0,-40l-40,0c-13.3,0 -24,-10.7 -24,-24l0,-40l-160,0l0,40c0,13.3 -10.7,24 -24,24l-40,0l0,40c0,13.3 -10.7,24 -24,24l-40,0z" opacity="0.4"/>
  <path id="svg_2" d="m192,160c0,-17.7 14.3,-32 32,-32l192,0c17.7,0 32,14.3 32,32l0,32l32,0c17.7,0 32,14.3 32,32l0,32l32,0c17.7,0 32,14.3 32,32l0,192c0,17.7 -14.3,32 -32,32l-448,0c-17.7,0 -32,-14.3 -32,-32l0,-192c0,-17.7 14.3,-32 32,-32l32,0l0,-32c0,-17.7 14.3,-32 32,-32l32,0l0,-32zm48,16l0,40c0,13.3 -10.7,24 -24,24l-40,0l0,40c0,13.3 -10.7,24 -24,24l-40,0l0,160l40,0l0,-56c0,-13.3 10.7,-24 24,-24c13.3,0 24,10.7 24,24l0,56l48,0l0,-56c0,-13.3 10.7,-24 24,-24c13.3,0 24,10.7 24,24l0,56l48,0l0,-56c0,-13.3 10.7,-24 24,-24c13.3,0 24,10.7 24,24l0,56l48,0l0,-56c0,-13.3 10.7,-24 24,-24c13.3,0 24,10.7 24,24l0,56l40,0l0,-160l-40,0c-13.3,0 -24,-10.7 -24,-24l0,-40l-40,0c-13.3,0 -24,-10.7 -24,-24l0,-40l-160,0z"/>
 </g>
</svg>