<svg xmlns="http://www.w3.org/2000/svg" viewBox="19.53 3 473.02 506.06"><defs><radialGradient id="a" cx="22767" cy="148727" r="15252" gradientTransform="rotate(37.192 765.24 1086.781)scale(.00413)" gradientUnits="userSpaceOnUse"><stop offset="0" stop-color="#EF9A48"/><stop offset="1" stop-color="#8F5444"/></radialGradient><radialGradient id="b" cx="326.28" cy="591.72" r="28.292" gradientTransform="matrix(.93052 0 0 .92334 288.43 -616.84)" gradientUnits="userSpaceOnUse"><stop offset="0" stop-color="#fff"/><stop offset="1" stop-color="#fff" stop-opacity="0"/></radialGradient><radialGradient id="c" cx="306.03" cy="601.15" r="19.889" gradientTransform="matrix(1.8368 -.15304 .21772 1.7315 -184.24 -677.81)" gradientUnits="userSpaceOnUse"><stop offset="0" stop-color="#d69600"/><stop offset="1" stop-color="#ffff90"/></radialGradient><radialGradient id="e" cx="18876" cy="150304" r="14266" gradientTransform="matrix(.00329 .0025 -.00244 .0032 799.15 -219.16)" gradientUnits="userSpaceOnUse"><stop offset="0" stop-color="#FFF974"/><stop offset="1" stop-color="#97946B"/></radialGradient><linearGradient id="d" x1="20483" x2="22053" y1="138226" y2="146537" gradientTransform="matrix(.00415 .00046 -.00063 .00386 516.6 -282)" gradientUnits="userSpaceOnUse"><stop offset="0" stop-color="#fff"/><stop offset="1" stop-color="#fff" stop-opacity="0"/></linearGradient></defs><path fill="none" d="M.004.021h512v512h-512z" color="#000"/><g fill-rule="evenodd"><path fill="#1f1a17" d="M299.14 14.549c27.388-4.973 65.024-7.41 92.544-11.55l23.657 51.274c54.959 69.46 73.9 164.787 64.57 221.261l-15.906 80.608L43.173 165.684c14.053-32.642 34.215-52.843 53.556-74.713 59.284-55.056 130.413-70.592 202.413-76.429z"/><path fill="url(#a)" d="M492.25 332.78c-12.525-10.492-15.1-25.989-11.311-41.375l3.657-7.345c7.405-10.733 17.585-14.49 29.779-17.453 6.957-.535 13.974-1.454 19.915-1.831 9.703 16.569 15.41 26.608 12.198 46.365l-2.721 7.87-3.54 5.438c-12.325 15.228-31.462 18.77-47.977 8.332z" transform="matrix(6.4 0 0 6.4 -3033.084 -1677.739)"/><path fill="url(#b)" d="M565.72-96.603h52.652v52.245H565.72z" color="#000" transform="rotate(37 969.934 -5334.02)scale(6.4)"/></g><path d="M357.828 42.581S141.265 224.488 147.87 239.675c4.344 9.982 83.424 20.848 83.424 20.848L166.826 401.72c-11.404 36.649 9.317 16.108 19.789 19.803 0 0 215.68-185.453 210.355-197.971-5.325-12.515-57.161-15.896-79.61-22.379 14.607-29.833 60.724-146.816 60.724-146.816 13.6-26.48 8.833-40.165-20.258-11.781z"/><path fill="url(#c)" d="m531.54 269.81-29.946 27.538 12.906 2.52-12.049 25.47 29.946-27.538-12.906-2.521z" transform="matrix(6.4 0 0 6.4 -3033.084 -1677.739)"/><g fill-rule="evenodd"><path fill="url(#d)" d="M516.05 269.15c16.418-.021 29.709 11.429 29.682 25.568l-.006.36-59.452.077-.004-.36c.027-14.14 13.362-25.624 29.781-25.645z" class="fil16" transform="matrix(6.4 0 0 6.4 -3033.084 -1677.739)"/><path fill="#1f1a17" d="m484.676 326.613 7.876 14.678-62.32 68.896c-41.51 50.9-58.993 63.048-95.29 83.31-80.685 29.936-125.465 11.255-188.454-10.653l-36.556 23.822-17.858-8.475-9.125-14.466 30.55-17.783C2.998 348.17 15.184 244.061 39.062 140.246l16.662-3.91 14.433 98.898 60.156-45.067 14.492 12.897-15.878 89.632 62.597-20.239 20.18 5.621-1.983 85.261 146.509-77.075 15.235 9.106-32.256 78.854 83.085-80.678 15.452 9.004-31.079 69.472z"/><path fill="url(#e)" d="M499.65 336.92c-2.531-.748-5.373-1.313-7.328-2.975-13.61-16.33-14.718-29.284-11.323-46.889l2.269 15.514 10.668-7.71-3.378 18.043 13.131-5.225-.038 17.018 24.693-14.589-5.58 17.71 17.124-17.073-4.873 12.917 13.168-7.589c-7.08 8.912-14.302 18.235-22.784 21.45-7.51 3.456-13.617 2.61-25.748-.603z" transform="matrix(6.4 0 0 6.4 -3033.084 -1677.739)"/><path fill="#99ae6a" d="m99.004 486.303 16.7-10.967 11.551 9.86-17.565 9.876-8.367-3.078z" class="fil43"/></g></svg>