<svg xmlns="http://www.w3.org/2000/svg" xml:space="preserve" viewBox="0 0 143.94 72.78"><path d="M32.59 21.95C37.54 15.04 45.14 8.8 53.11 5.11c-.02-.01-.04-.03-.06-.04-7.96 3.71-15.54 9.96-20.46 16.88" style="fill:none"/><radialGradient id="a" cx="26.359" cy="36.66" r="30.542" gradientUnits="userSpaceOnUse"><stop offset=".271" style="stop-color:#fff"/><stop offset=".478" style="stop-color:#fbfbfb"/><stop offset=".676" style="stop-color:#f0f0f0"/><stop offset=".869" style="stop-color:#dedddc"/><stop offset="1" style="stop-color:#cdcccb"/></radialGradient><path d="M28.39 24.02c5.12-8.24 14.19-15.79 23.54-19.69C38.58-3.73 15.76 9.15 6.32 24.32c-9.52 15.3-6.46 34.61 6.84 43.14 7.67 4.91 17.09 5.16 25.5 1.54a24.4 24.4 0 0 1-3.45-1.85c-13.29-8.51-16.35-27.82-6.82-43.13" style="fill:url(#a)"/><radialGradient id="b" cx="51.414" cy="36.44" r="30.605" gradientUnits="userSpaceOnUse"><stop offset=".19" style="stop-color:#ffe72e"/><stop offset=".479" style="stop-color:#fab82b"/><stop offset="1" style="stop-color:#f05b24"/></radialGradient><path d="M52.36 58.23c-5.64-9.7-5.43-23.09 1.56-34.33 1.73-2.77 3.9-5.47 6.39-7.98 4.8-4.85 10.75-8.98 16.84-11.57-.01 0-.01-.01-.02-.01-3.37-2.17-7.36-2.93-11.6-2.65-4.02.27-8.27 1.5-12.42 3.42-7.97 3.69-15.57 9.92-20.52 16.84-.48.68-.94 1.36-1.36 2.04-9.52 15.31-6.47 34.62 6.83 43.15.68.43 1.37.83 2.08 1.19 3.34 1.71 6.94 2.62 10.61 2.78-.35.02-.7.03-1.06.04.32.03.65.05.97.06 4.38.19 8.85-.69 13.07-2.54-1.02-.47-2.01-1.01-2.98-1.63-3.54-2.26-6.34-5.3-8.39-8.81" style="fill:url(#b)"/><radialGradient id="c" cx="81.806" cy="36.219" r="32.76" gradientUnits="userSpaceOnUse"><stop offset=".271" style="stop-color:#fff"/><stop offset=".478" style="stop-color:#fbfbfb"/><stop offset=".676" style="stop-color:#f0f0f0"/><stop offset=".869" style="stop-color:#dedddc"/><stop offset="1" style="stop-color:#cdcccb"/></radialGradient><path d="M102.74 4.13c-3.36-2.18-7.36-2.95-11.6-2.65-4.18.28-8.6 1.6-12.9 3.65-6.44 3.07-12.6 7.78-17.29 13.15a44 44 0 0 0-4.19 5.61c-6.46 10.38-7.13 22.58-2.75 32.03 2.08 4.49 5.3 8.36 9.58 11.11.53.34 1.07.66 1.62.95 3.47 1.88 7.23 2.86 11.06 3.02 10.69.47 21.9-5.45 28.64-16.27 9.54-15.31 11.13-42.09-2.17-50.6" style="fill:url(#c)"/><path d="m58.17 29.01-.52 1.61c.55-.64 1.14-1.12 1.77-1.45.62-.32 1.29-.49 2.01-.49.9-.01 1.57.21 2.03.63.46.44.68.98.68 1.62s-.21 1.74-.59 3.28l-3.13 12.26-5.24.03 3.09-12.12c.31-1.2.46-1.94.45-2.21-.01-.25-.19-.39-.54-.38-.36 0-.62.16-.8.46-.17.3-.43 1.12-.76 2.43L53.6 46.51l-5.25.05 4.46-17.5zm13.57 6.11.33-1.29c.23-.91.33-1.49.3-1.76-.03-.26-.18-.39-.46-.39-.37.01-.63.12-.76.34-.14.22-.34.84-.59 1.83l-.32 1.29zm4.52 2.79-6.76.05-.96 3.79c-.2.79-.28 1.3-.23 1.53s.24.34.55.33c.39 0 .69-.15.9-.46.21-.3.43-.89.65-1.76l.59-2.31 4.98-.04-.33 1.29q-.42 1.62-.84 2.49c-.28.59-.76 1.21-1.41 1.86-.65.67-1.4 1.17-2.24 1.51-.84.33-1.83.51-2.97.52-1.1 0-2.03-.14-2.8-.46s-1.31-.76-1.63-1.33a3.9 3.9 0 0 1-.51-1.87c0-.67.16-1.67.49-2.96l1.31-5.11c.38-1.52.89-2.73 1.52-3.62.64-.89 1.48-1.57 2.52-2.05 1.05-.48 2.17-.72 3.37-.73 1.46-.02 2.6.25 3.41.83.81.56 1.28 1.29 1.43 2.22.15.94 0 2.25-.43 3.95zm20.91-9.23L90.6 46.2h-5.55c.01-.07-.06-.1-.05-.19.23-2.1.59-4.85 1.05-8.24-.58 1.56-1.2 3.11-1.85 4.68l-1.5 3.81-5.63.06 2.24-17.48 4.48-.05c-.07.45-.54 3.81-1.41 10.05.25-.67 1.51-4.02 3.76-10.07l4.28-.03-1.48 10.06c.92-2.97 2.18-6.32 3.75-10.08zm6.57 6.12.32-1.29c.23-.91.34-1.5.31-1.76-.02-.27-.18-.4-.47-.4-.36 0-.62.12-.76.35s-.34.83-.59 1.82l-.33 1.29zm4.51 2.79-6.75.06-.97 3.78c-.2.79-.28 1.3-.23 1.53.06.23.24.33.55.33.4 0 .69-.14.9-.46.22-.3.43-.89.65-1.75l.59-2.31 4.98-.05-.34 1.28c-.28 1.08-.55 1.92-.83 2.5s-.76 1.2-1.41 1.86c-.66.67-1.41 1.17-2.25 1.51-.83.33-1.83.51-2.97.51-1.11.02-2.03-.14-2.81-.46-.76-.32-1.31-.76-1.62-1.33a3.8 3.8 0 0 1-.51-1.86c0-.68.16-1.66.48-2.97l1.31-5.1c.38-1.52.9-2.73 1.53-3.61.63-.9 1.46-1.56 2.51-2.06 1.04-.47 2.16-.71 3.36-.73 1.46 0 2.59.27 3.41.82.8.56 1.29 1.3 1.43 2.23.14.94 0 2.25-.43 3.95zm9.53-4.49q.3-1.2.24-1.53-.045-.33-.51-.33c-.31 0-.55.14-.74.39-.2.25-.39.75-.57 1.48L114.7 39c-.2.79-.28 1.29-.25 1.53.03.23.21.35.51.35.34-.01.61-.15.79-.43.17-.29.4-.92.64-1.92zm6.42-4.69-3.44 13.48c-.46 1.83-.82 3-1.04 3.53s-.66 1.1-1.31 1.7c-.65.59-1.46 1.06-2.44 1.38-.97.33-2.14.48-3.48.48-1.67.02-2.94-.25-3.81-.82-.56-.37-.74-.8-.78-1.61v-1.81l5.17-.02q-.3 1.185.54 1.17c.39-.01.69-.13.88-.36.19-.25.39-.75.58-1.51l.35-1.35c-.56.42-1.11.75-1.67.95-.54.21-1.09.33-1.64.33-.95 0-1.67-.17-2.18-.56-.51-.38-.81-.89-.87-1.52s.04-1.52.34-2.68l1.63-6.35c.43-1.65 1.02-2.85 1.8-3.59.77-.73 1.77-1.1 2.96-1.11.66 0 1.22.13 1.69.4s.86.67 1.15 1.22l.71-1.33zm7.36 4.57c.2-.8.28-1.31.25-1.53-.04-.22-.21-.32-.52-.32s-.56.13-.75.38c-.18.25-.37.75-.56 1.48l-1.51 5.89c-.2.78-.27 1.3-.24 1.52.04.24.2.35.51.35.34-.02.6-.14.77-.43.19-.29.4-.92.66-1.92zm6.42-4.69-3.44 13.49c-.47 1.83-.82 2.99-1.03 3.53-.22.52-.65 1.09-1.31 1.69-.65.6-1.47 1.06-2.44 1.37-.97.32-2.14.49-3.49.5-1.67.02-2.94-.25-3.79-.83-.87-.57-1.1-1.7-.7-3.4l5.08-.05c-.19.79-.02 1.19.54 1.18.39-.01.69-.13.89-.37.18-.24.38-.75.58-1.51l.34-1.35c-.55.43-1.1.74-1.66.96-.54.21-1.1.33-1.64.33-.95.01-1.68-.17-2.19-.56-.5-.38-.8-.89-.87-1.51-.06-.62.05-1.51.35-2.67l1.61-6.35c.42-1.65 1.03-2.86 1.8-3.59.78-.73 1.77-1.11 2.97-1.12.65-.01 1.21.13 1.68.4.46.25.85.67 1.14 1.21l.71-1.33zm3.35.03c.57 0 1.04.19 1.4.57.37.38.55.82.55 1.34s-.19.97-.56 1.35c-.37.37-.82.56-1.35.56s-.98-.19-1.35-.56-.56-.82-.56-1.35c0-.37.1-.71.29-1.02.2-.31.44-.53.74-.68.31-.13.59-.21.84-.21m.09.38c-.47 0-.85.15-1.14.46s-.43.67-.43 1.07q0 .63.45 1.08t1.08.45 1.08-.45.45-1.08c0-.29-.08-.56-.23-.8a1.52 1.52 0 0 0-1.26-.73m-.88 2.55v-2.02h.96c.24 0 .41.06.52.17s.16.25.16.41-.04.28-.14.38c-.09.09-.23.16-.41.19.08.03.15.07.2.13.05.05.13.17.23.35l.24.41h-.51l-.17-.33c-.1-.19-.19-.33-.27-.4a.44.44 0 0 0-.3-.11h-.11v.83h-.4zm.41-1.15h.33c.17 0 .29-.02.36-.07.07-.04.11-.12.11-.22 0-.09-.03-.16-.1-.2a.66.66 0 0 0-.32-.07h-.38z" style="fill:#09144f"/></svg>