<svg xmlns="http://www.w3.org/2000/svg" xmlns:xlink="http://www.w3.org/1999/xlink" xml:space="preserve" viewBox="0 0 512 512"><linearGradient id="a" x1="172" x2="172" y1="712.835" y2="205.954" gradientTransform="translate(84 -203.394)" gradientUnits="userSpaceOnUse"><stop offset="0" style="stop-color:#c35f28"/><stop offset="1" style="stop-color:#e6a33f"/></linearGradient><circle cx="256" cy="256" r="253.4" style="fill:url(#a)"/><defs><path id="b" d="m257 26.4 50.2 108.3 112.1-41-41 112L486.5 256l-108.2 50.3 41 112-112.1-41L257 485.6l-50.3-108.3-112 41 41-112L27.4 256l108.3-50.3-41-112 112 41z"/></defs><clipPath id="c"><use xlink:href="#b" style="overflow:visible"/></clipPath><linearGradient id="d" x1="227.516" x2="-14.48" y1="563.68" y2="102.514" gradientTransform="translate(84 -203.394)" gradientUnits="userSpaceOnUse"><stop offset="0" style="stop-color:#eeda5b"/><stop offset=".227" style="stop-color:#f0de81"/><stop offset=".454" style="stop-color:#f2e19c"/><stop offset=".664" style="stop-color:#f3e3b0"/><stop offset=".853" style="stop-color:#f4e5bc"/><stop offset="1" style="stop-color:#f4e5c0"/></linearGradient><circle cx="257" cy="256.4" r="253.8" style="clip-path:url(#c);fill:url(#d)"/><defs><path id="e" d="M256 376.8c-66.1 0-119.8-53.7-119.8-119.8S189.9 137.2 256 137.2 375.8 190.9 375.8 257 322.1 376.8 256 376.8m0-219.8c-55.1 0-100 44.9-100 100s44.9 100 100 100 100-44.9 100-100-44.9-100-100-100"/></defs><clipPath id="f"><use xlink:href="#e" style="overflow:visible"/></clipPath><linearGradient id="g" x1="172" x2="172" y1="712.835" y2="205.954" gradientTransform="translate(84 -203.394)" gradientUnits="userSpaceOnUse"><stop offset="0" style="stop-color:#c35f28"/><stop offset="1" style="stop-color:#e6a33f"/></linearGradient><circle cx="256" cy="256" r="253.4" style="clip-path:url(#f);fill:url(#g)"/><defs><path id="h" d="M256 416.4c-87.9 0-159.4-71.5-159.4-159.4S168.1 97.6 256 97.6 415.4 169.1 415.4 257 343.9 416.4 256 416.4m0-308.9c-82.4 0-149.5 67-149.5 149.5s67 149.5 149.5 149.5c82.4 0 149.5-67 149.5-149.5S338.4 107.5 256 107.5"/></defs><clipPath id="i"><use xlink:href="#h" style="overflow:visible"/></clipPath><linearGradient id="j" x1="172" x2="172" y1="712.835" y2="205.954" gradientTransform="translate(84 -203.394)" gradientUnits="userSpaceOnUse"><stop offset="0" style="stop-color:#c35f28"/><stop offset="1" style="stop-color:#e6a33f"/></linearGradient><circle cx="256" cy="256" r="253.4" style="clip-path:url(#i);fill:url(#j)"/><defs><path id="k" d="M256 445.5C152 445.5 67.4 361 67.4 257S152 68.4 256 68.4 444.6 153 444.6 257 360 445.5 256 445.5m0-365.3c-97.5 0-176.8 79.3-176.8 176.8S158.5 433.8 256 433.8 432.8 354.5 432.8 257 353.5 80.2 256 80.2"/></defs><clipPath id="l"><use xlink:href="#k" style="overflow:visible"/></clipPath><linearGradient id="m" x1="172" x2="172" y1="712.835" y2="205.954" gradientTransform="translate(84 -203.394)" gradientUnits="userSpaceOnUse"><stop offset="0" style="stop-color:#c35f28"/><stop offset="1" style="stop-color:#e6a33f"/></linearGradient><circle cx="256" cy="256" r="253.4" style="clip-path:url(#l);fill:url(#m)"/><defs><path id="n" d="M256 476c-58.5 0-113.5-22.8-154.9-64.2C59.7 370.5 37 315.5 37 257s22.8-113.5 64.2-154.9 96.4-64.2 154.9-64.2S369.6 60.7 411 102.1c41.3 41.4 64 96.4 64 154.9s-22.8 113.5-64.2 154.9C369.5 453.2 314.5 476 256 476m0-424.3C142.8 51.7 50.7 143.8 50.7 257S142.8 462.3 256 462.3 461.3 370.2 461.3 257 369.2 51.7 256 51.7"/></defs><clipPath id="o"><use xlink:href="#n" style="overflow:visible"/></clipPath><linearGradient id="p" x1="172" x2="172" y1="712.835" y2="205.954" gradientTransform="translate(84 -203.394)" gradientUnits="userSpaceOnUse"><stop offset="0" style="stop-color:#c35f28"/><stop offset="1" style="stop-color:#e6a33f"/></linearGradient><circle cx="256" cy="256" r="253.4" style="clip-path:url(#o);fill:url(#p)"/></svg>