<svg xmlns="http://www.w3.org/2000/svg" fill="none" viewBox="0 0.5 40 40">
<g id="Group 21">
<circle id="Ellipse 2" cx="20.0001" cy="20.4998" r="16.8421" fill="white"/>
<path id="Subtract" fill-rule="evenodd" clip-rule="evenodd" d="M39.9968 20.007V20.9855C39.9909 21.0264 39.9935 21.0754 39.9962 21.1248C40.0007 21.2079 40.0052 21.2921 39.9689 21.341C39.9736 21.4363 39.9651 21.5186 39.9567 21.601C39.9471 21.6946 39.9374 21.7885 39.947 21.9021V21.9241C39.951 21.9481 39.937 21.9481 39.923 21.9481C39.9291 22.0817 39.9211 22.2156 39.8991 22.3475C39.8946 22.5121 39.8793 22.6762 39.8532 22.8387C39.8607 22.9168 39.8526 22.9955 39.8292 23.0704C39.807 23.0985 39.8077 23.1487 39.8085 23.1984C39.8093 23.2512 39.8101 23.3033 39.7834 23.328V23.352C39.771 23.3934 39.7688 23.4457 39.7666 23.4982C39.7637 23.5648 39.7609 23.6317 39.7375 23.6775C39.7479 23.7285 39.7381 23.758 39.7281 23.7882C39.7209 23.81 39.7135 23.8322 39.7135 23.8632C39.7131 23.872 39.7134 23.8818 39.7136 23.8917C39.7146 23.9241 39.7156 23.9571 39.6896 23.9571C39.6953 23.9922 39.6861 24.0125 39.6768 24.0329C39.6665 24.0553 39.6562 24.0779 39.6656 24.1208C39.662 24.185 39.6465 24.248 39.6198 24.3065C39.6115 24.3935 39.5962 24.4797 39.5739 24.5641C39.5628 24.5922 39.5601 24.6294 39.5574 24.6667C39.5537 24.7168 39.55 24.7671 39.526 24.7958C39.5344 24.8413 39.5248 24.8717 39.5158 24.9003C39.5098 24.9195 39.504 24.9379 39.504 24.9595H39.4721C39.4827 25.0019 39.4725 25.0242 39.4623 25.0463C39.4552 25.0618 39.4482 25.0772 39.4482 25.0993V25.1233C39.4542 25.2071 39.4294 25.2902 39.3783 25.3569C39.3825 25.3767 39.3827 25.3972 39.3789 25.417C39.3751 25.4369 39.3675 25.4559 39.3564 25.4728C39.3511 25.4934 39.3482 25.5165 39.3453 25.5396C39.3395 25.5857 39.3338 25.6319 39.3085 25.6585C39.3108 25.6837 39.3079 25.7091 39.3 25.7331C39.2921 25.7572 39.2794 25.7793 39.2626 25.7983V25.8222C39.2665 25.888 39.2505 25.9534 39.2167 26.01C39.2079 26.026 39.2049 26.0478 39.2019 26.0697C39.1973 26.1024 39.1927 26.1354 39.1688 26.1497C39.1734 26.1784 39.1717 26.2078 39.1637 26.2357C39.1558 26.2636 39.1419 26.2895 39.123 26.3115C39.114 26.3286 39.111 26.3512 39.1081 26.3736C39.1038 26.4062 39.0996 26.4383 39.0771 26.4513C39.0809 26.4804 39.0786 26.51 39.0703 26.5382C39.0621 26.5664 39.0481 26.5926 39.0292 26.615C39.026 26.6261 39.0237 26.638 39.0214 26.65C39.0149 26.6837 39.0083 26.7176 38.9833 26.7309V26.8008C38.9669 26.8037 38.9645 26.8205 38.9621 26.8372C38.9595 26.855 38.957 26.8727 38.9374 26.8727C38.9355 26.8841 38.9339 26.8958 38.9323 26.9075C38.9254 26.9572 38.9186 27.0069 38.8895 27.0344C38.891 27.1036 38.866 27.1707 38.8197 27.2221C38.8119 27.2378 38.8089 27.259 38.806 27.2805C38.8015 27.3137 38.7968 27.3474 38.7738 27.3619C38.7786 27.3838 38.7766 27.4066 38.768 27.4273C38.7594 27.448 38.7448 27.4656 38.7259 27.4777C38.7092 27.5129 38.6966 27.558 38.686 27.5963C38.6839 27.6037 38.682 27.6108 38.68 27.6175C38.6769 27.6286 38.6745 27.6407 38.6722 27.6528C38.6657 27.6865 38.6591 27.7207 38.6341 27.7354C38.6084 27.8337 38.5687 27.9278 38.5164 28.0149C38.5209 28.0366 38.5189 28.0591 38.5107 28.0797C38.5026 28.1003 38.4886 28.118 38.4705 28.1308C38.4752 28.1524 38.4734 28.175 38.4652 28.1957C38.457 28.2163 38.4429 28.234 38.4247 28.2466C38.4051 28.3475 38.3651 28.4434 38.3069 28.5282V28.5741C38.296 28.5768 38.2917 28.5867 38.2874 28.5966C38.2824 28.6083 38.2773 28.62 38.2611 28.62C38.2615 28.6507 38.2555 28.6811 38.2435 28.7093C38.2314 28.7375 38.2136 28.7629 38.1912 28.7838C38.1689 28.8542 38.1374 28.9213 38.0974 28.9835C38.0917 29.037 38.0669 29.0866 38.0276 29.1233C38.0307 29.1583 38.0184 29.1763 38.0058 29.1948C37.9939 29.2122 37.9817 29.2301 37.9817 29.2631H37.9578C37.9356 29.3481 37.8962 29.4276 37.8421 29.4967C37.8451 29.5316 37.8324 29.5497 37.8192 29.5682C37.8069 29.5856 37.7942 29.6035 37.7942 29.6365H37.7722C37.7657 29.6897 37.741 29.7391 37.7024 29.7763C37.6868 29.8571 37.6455 29.9306 37.5847 29.986V30.0319C37.5697 30.0424 37.5577 30.0565 37.5496 30.0729C37.5416 30.0893 37.5379 30.1075 37.5388 30.1258H37.5149C37.505 30.1394 37.4987 30.1564 37.4922 30.1735C37.4817 30.2016 37.4711 30.2299 37.445 30.2436C37.437 30.2975 37.4211 30.3434 37.3752 30.3594C37.3783 30.3944 37.366 30.4124 37.3534 30.4309C37.3415 30.4484 37.3293 30.4663 37.3293 30.4992H37.3054C37.3041 30.5381 37.2893 30.5535 37.2698 30.5737C37.2593 30.5845 37.2474 30.5968 37.2355 30.615C37.2203 30.6384 37.2046 30.6699 37.19 30.6993C37.1721 30.7351 37.1558 30.7678 37.1438 30.7788C37.1348 30.7869 37.1309 30.7999 37.127 30.8126C37.1214 30.8311 37.116 30.8487 37.0959 30.8487V30.9026C37.0629 30.9058 37.0532 30.9335 37.0434 30.9613C37.0349 30.9856 37.0263 31.01 37.0021 31.0184C36.9806 31.0704 36.9494 31.1178 36.9103 31.1582C36.9058 31.1869 36.8951 31.2143 36.8789 31.2385C36.8627 31.2626 36.8414 31.2829 36.8166 31.298C36.8255 31.3339 36.8096 31.3449 36.7936 31.3559C36.7776 31.3669 36.7617 31.3779 36.7707 31.4138H36.7467V31.4378C36.7248 31.4508 36.7123 31.4732 36.6998 31.4957C36.6874 31.5182 36.6749 31.5406 36.653 31.5536V31.5776C36.6321 31.5967 36.6164 31.6207 36.6071 31.6475H36.5831V31.7094C36.5498 31.7223 36.5345 31.7525 36.519 31.783C36.5057 31.8091 36.4923 31.8355 36.4674 31.8512C36.4165 31.9443 36.3534 32.0303 36.2799 32.1068C36.255 32.1699 36.2153 32.2261 36.1641 32.2705C36.131 32.3415 36.0834 32.4047 36.0245 32.4562C36.0207 32.5021 35.9957 32.5261 35.9704 32.5503C35.956 32.5641 35.9415 32.578 35.9307 32.596V32.62C35.8951 32.6299 35.8786 32.6595 35.862 32.6892C35.8452 32.7194 35.8283 32.7497 35.791 32.7598C35.7544 32.8386 35.6989 32.9072 35.6294 32.9595C35.6184 33.023 35.5854 33.0531 35.5457 33.0894C35.528 33.1056 35.5089 33.123 35.4898 33.1452C35.4703 33.1679 35.453 33.1925 35.4357 33.2171C35.3982 33.2705 35.361 33.3234 35.3022 33.3549C35.2366 33.471 35.15 33.5739 35.0468 33.6584C34.9742 33.7695 34.8877 33.8708 34.7895 33.96L34.7715 33.9839C34.7282 34.0287 34.6866 34.0757 34.6449 34.1227C34.5731 34.2036 34.5011 34.2847 34.4204 34.3554V34.3793C34.2443 34.5756 34.0578 34.7622 33.8617 34.9385C33.7708 35.0046 33.69 35.08 33.6096 35.155C33.5612 35.2002 33.5129 35.2452 33.4627 35.288C33.3635 35.3922 33.2539 35.4859 33.1355 35.5676C33.0925 35.6425 33.0151 35.6983 32.9501 35.7453C32.9337 35.7571 32.9181 35.7684 32.904 35.7792C32.8811 35.797 32.8607 35.8173 32.8403 35.8376C32.7986 35.8792 32.7568 35.9209 32.6926 35.941C32.6629 36.0018 32.6053 36.0395 32.5511 36.075C32.5359 36.0849 32.521 36.0947 32.507 36.1048C32.4843 36.1211 32.4644 36.1399 32.4445 36.1587C32.4086 36.1928 32.3729 36.2265 32.3215 36.2445C32.3057 36.2852 32.2702 36.3061 32.2346 36.3269C32.2161 36.3378 32.1975 36.3487 32.1818 36.3624C32.1342 36.4099 32.0788 36.4491 32.0182 36.4782C31.9664 36.5377 31.9024 36.5854 31.8306 36.618V36.6419C31.8015 36.6492 31.7805 36.6654 31.7591 36.6819C31.7453 36.6925 31.7313 36.7032 31.7149 36.7118C31.6307 36.7861 31.5367 36.8486 31.4356 36.8976C31.41 36.9412 31.364 36.9656 31.3173 36.9904C31.302 36.9984 31.2867 37.0065 31.272 37.0154C31.2703 37.023 31.2661 37.0281 31.2618 37.0333C31.256 37.0404 31.2501 37.0475 31.2501 37.0613C31.2287 37.0579 31.2181 37.0653 31.2079 37.0724C31.2001 37.0779 31.1924 37.0833 31.1802 37.0833C31.1403 37.1244 31.092 37.1564 31.0386 37.1771C31.0303 37.184 31.0227 37.1917 31.015 37.1994C30.9916 37.2231 30.968 37.247 30.9229 37.247C30.9078 37.2719 30.8875 37.2932 30.8634 37.3094C30.8393 37.3256 30.8119 37.3364 30.7832 37.3409C30.7741 37.3478 30.7659 37.3561 30.7576 37.3644C30.7348 37.3872 30.7113 37.4108 30.6675 37.4108C30.654 37.4499 30.6113 37.4672 30.574 37.4823C30.5561 37.4895 30.5394 37.4962 30.5278 37.5046C30.5177 37.5119 30.5087 37.5206 30.4997 37.5294C30.4766 37.5518 30.4531 37.5745 30.4101 37.5745C30.3941 37.6205 30.3482 37.6444 30.2944 37.6444C30.2784 37.6904 30.2325 37.7143 30.1767 37.7143C30.1667 37.7431 30.1372 37.753 30.1082 37.7628C30.0908 37.7687 30.0736 37.7745 30.0609 37.7842C30.0519 37.7912 30.0436 37.7994 30.0353 37.8078C30.0126 37.8306 29.989 37.8541 29.9452 37.8541C29.9075 37.892 29.8585 37.9166 29.8056 37.924V37.948C29.7863 37.9522 29.7726 37.9609 29.759 37.9697C29.7402 37.9818 29.7214 37.9939 29.6878 37.9939C29.6332 38.0552 29.5593 38.0961 29.4784 38.1097C29.4417 38.1491 29.3921 38.1739 29.3387 38.1796C29.3429 38.2082 29.323 38.2138 29.3034 38.2193C29.286 38.2241 29.2689 38.2289 29.2689 38.2495H29.223C29.1536 38.3036 29.0743 38.3436 28.9895 38.3673V38.3893C28.9684 38.3883 28.9558 38.3944 28.943 38.4008C28.9304 38.4069 28.9175 38.4133 28.8958 38.4133C28.8928 38.437 28.8702 38.4426 28.8482 38.4481C28.8258 38.4536 28.804 38.459 28.804 38.4832H28.7561C28.688 38.5377 28.6091 38.5772 28.5247 38.599V38.623C28.4975 38.6183 28.4844 38.6273 28.4713 38.6362C28.4566 38.6463 28.4418 38.6564 28.407 38.6469C28.3968 38.6622 28.3827 38.6745 28.3663 38.6826C28.3498 38.6906 28.3315 38.6942 28.3132 38.6929C28.2344 38.7441 28.1483 38.7832 28.0578 38.8087C28.0438 38.8339 28.0121 38.8404 27.9807 38.8469C27.9673 38.8497 27.954 38.8524 27.9421 38.8566C27.9322 38.8722 27.9182 38.8847 27.9017 38.8928C27.8851 38.9009 27.8667 38.9043 27.8483 38.9025C27.7577 38.9474 27.6644 38.9868 27.569 39.0204C27.5503 39.0238 27.5367 39.0325 27.5228 39.0415C27.504 39.0537 27.4846 39.0663 27.4513 39.0663C27.4424 39.083 27.419 39.0857 27.3951 39.0884C27.3706 39.0912 27.3457 39.094 27.3356 39.1122C27.3262 39.1291 27.3054 39.1306 27.2835 39.1321C27.2588 39.1339 27.2325 39.1358 27.2198 39.1601C27.2053 39.188 27.1718 39.1909 27.1387 39.1937C27.1172 39.1956 27.0959 39.1974 27.0802 39.2061C27.0306 39.2397 26.9751 39.2634 26.9166 39.276V39.2999C26.8807 39.291 26.8637 39.3009 26.8467 39.3109C26.8298 39.3209 26.8128 39.3309 26.7769 39.3219C26.733 39.3447 26.6859 39.3608 26.6372 39.3698V39.3918C26.6024 39.3823 26.5876 39.3924 26.5729 39.4025C26.5598 39.4115 26.5467 39.4205 26.5195 39.4158C26.4976 39.4347 26.4717 39.4487 26.4438 39.4566C26.4159 39.4645 26.3866 39.4663 26.3579 39.4617V39.4857C26.3226 39.4749 26.3073 39.4855 26.2922 39.4961C26.2791 39.5052 26.2661 39.5142 26.2402 39.5096C26.2182 39.5286 26.1924 39.5425 26.1645 39.5504C26.1366 39.5584 26.1073 39.5601 26.0786 39.5556C26.0636 39.587 26.0271 39.5904 25.9896 39.5938C25.9722 39.5954 25.9547 39.5971 25.9389 39.6015C25.9211 39.6065 25.9073 39.6156 25.8935 39.6247C25.869 39.641 25.8446 39.6571 25.7973 39.6494C25.7753 39.6684 25.7495 39.6823 25.7215 39.6902C25.6936 39.6982 25.6643 39.6999 25.6357 39.6953C25.6216 39.7196 25.5861 39.7198 25.5513 39.7201C25.5173 39.7203 25.4839 39.7205 25.4721 39.7433C25.4601 39.7662 25.4342 39.7662 25.4067 39.7662C25.3793 39.7662 25.3504 39.7662 25.3324 39.7892C25.31 39.8178 25.2628 39.8209 25.2149 39.8239C25.186 39.8258 25.1569 39.8276 25.1329 39.8351V39.8491C25.088 39.8408 25.0585 39.8507 25.0304 39.8602C25.0109 39.8668 24.9921 39.8731 24.9693 39.8731C24.9163 39.8934 24.8615 39.9087 24.8057 39.919C24.7955 39.9487 24.7532 39.9464 24.7113 39.944C24.6714 39.9418 24.6318 39.9396 24.6201 39.9649C24.5521 39.9734 24.4851 39.9895 24.4206 40.0129C24.3865 40.0102 24.3629 40.018 24.3394 40.0258C24.3107 40.0353 24.2822 40.0447 24.2351 40.0348C24.2128 40.0862 24.1363 40.0847 24.0609 40.0832C24.0483 40.083 24.0358 40.0828 24.0236 40.0828C23.9438 40.1196 23.8559 40.1355 23.7682 40.1287V40.1527C23.7205 40.1427 23.6709 40.1505 23.6285 40.1746C23.5308 40.2075 23.4283 40.2237 23.3253 40.2225C23.2215 40.2613 23.1105 40.2769 23.0001 40.2685H22.9761C22.8773 40.2961 22.7754 40.3115 22.6729 40.3144C22.597 40.328 22.5174 40.3378 22.4373 40.3478C22.3995 40.3525 22.3615 40.3572 22.3237 40.3623H22.2998C22.1601 40.3843 22.0105 40.3983 21.8588 40.4083C21.7893 40.4134 21.7216 40.4199 21.6539 40.4264C21.5101 40.4403 21.3666 40.4542 21.2064 40.4542C20.5319 40.5058 19.8548 40.5138 19.1793 40.4782C18.9399 40.4702 18.6067 40.4542 18.4571 40.4322C18.3322 40.431 18.2182 40.418 18.1044 40.405C18.0365 40.3973 17.9686 40.3895 17.8984 40.3843H17.8745C17.8057 40.374 17.7335 40.3666 17.6609 40.3591C17.5504 40.3476 17.439 40.3361 17.3378 40.3144C17.2627 40.3144 17.1997 40.3028 17.1369 40.2913C17.0745 40.2799 17.0124 40.2685 16.9388 40.2685H16.8231V40.2445C16.7201 40.2462 16.6176 40.2307 16.5198 40.1986C16.4859 40.2006 16.45 40.2026 16.45 40.1746C16.3139 40.1744 16.1789 40.1508 16.0509 40.1047C15.9331 40.0895 15.8164 40.0662 15.7018 40.0348H15.6778C15.5793 40.0041 15.4786 39.9808 15.3766 39.9649C15.3491 39.9462 15.3157 39.9384 15.2828 39.943C15.238 39.9239 15.1824 39.913 15.1272 39.9022C15.084 39.8937 15.0411 39.8853 15.0035 39.8731C14.9696 39.8751 14.9336 39.8771 14.9336 39.8491C14.8215 39.8298 14.7118 39.7983 14.6064 39.7553C14.5975 39.7548 14.5873 39.7552 14.577 39.7557C14.5462 39.7572 14.5147 39.7588 14.5147 39.7333C14.4821 39.7199 14.4421 39.7139 14.4023 39.7079C14.3471 39.6995 14.2921 39.6912 14.2573 39.6634C14.1362 39.6399 14.0187 39.6003 13.9081 39.5456C13.7561 39.5143 13.6076 39.4675 13.4652 39.4058C13.4185 39.3893 13.3711 39.3744 13.3241 39.3597C13.2344 39.3316 13.146 39.304 13.0662 39.266C13.0391 39.2535 13.0075 39.2454 12.9757 39.2372C12.9209 39.2231 12.8656 39.2088 12.8327 39.1721C12.6871 39.1353 12.5464 39.081 12.4138 39.0104C12.2614 38.9596 12.1133 38.8968 11.9708 38.8227C11.8108 38.7607 11.6543 38.6901 11.502 38.611C11.4322 38.597 11.3675 38.5646 11.3144 38.5171C11.1677 38.4666 11.0271 38.3996 10.8954 38.3174C10.6859 38.2286 10.4854 38.1195 10.2969 37.9919C10.1249 37.9155 9.96114 37.8218 9.80808 37.7123C9.76418 37.7083 9.73026 37.6964 9.7163 37.6644C9.57331 37.5959 9.43929 37.5101 9.31727 37.4088C9.10438 37.2969 8.90377 37.163 8.71872 37.0094C8.48898 36.8725 8.27138 36.7162 8.0683 36.5421C7.88403 36.4271 7.71219 36.2932 7.55554 36.1427C7.41733 36.0607 7.29167 35.9591 7.18245 35.8411C6.82449 35.5557 6.48403 35.2489 6.16292 34.9225H6.13898C6.03663 34.8391 5.94304 34.7454 5.85965 34.643V34.619H5.83771C5.7418 34.5446 5.65537 34.4588 5.58033 34.3634V34.3394C5.25695 34.017 4.95378 33.6748 4.67253 33.315C4.55247 33.2072 4.45012 33.0812 4.36927 32.9415C4.21668 32.7866 4.08276 32.6144 3.97024 32.4283C3.79459 32.2257 3.63828 32.0071 3.50337 31.7753C3.35718 31.5903 3.22385 31.3954 3.10434 31.1922C3.0008 31.0436 2.90747 30.8881 2.82502 30.7269C2.80107 30.7249 2.80107 30.6969 2.80107 30.6789C2.68553 30.5297 2.5915 30.365 2.52175 30.1897C2.39195 30.002 2.28228 29.8012 2.19455 29.5906C2.10497 29.4604 2.0294 29.3212 1.96909 29.1752C1.92883 29.1183 1.89723 29.0557 1.87532 28.9895C1.79581 28.8403 1.72907 28.6846 1.6758 28.5242C1.59248 28.3665 1.52241 28.2022 1.46631 28.0329C1.40989 27.9124 1.36318 27.7875 1.32665 27.6595C1.29261 27.629 1.27931 27.5764 1.26599 27.5236C1.25745 27.4898 1.2489 27.4559 1.23487 27.4278C1.17665 27.2991 1.12991 27.1654 1.09521 27.0284C1.03965 26.8916 0.992345 26.7516 0.953557 26.6091C0.902873 26.4887 0.864114 26.3636 0.837838 26.2356C0.798279 26.1379 0.766913 26.037 0.744065 25.9341V25.9101C0.705018 25.796 0.674344 25.6792 0.652288 25.5606C0.628346 25.5566 0.628346 25.5167 0.628346 25.4907C0.595036 25.4003 0.571622 25.3066 0.558515 25.2112C0.559524 25.19 0.553388 25.1774 0.547077 25.1645C0.540909 25.152 0.534573 25.139 0.534573 25.1173C0.518322 25.0146 0.494989 24.9132 0.464743 24.8138V24.7678C0.426264 24.6625 0.402758 24.5522 0.394912 24.4403C0.399384 24.4191 0.391954 24.4091 0.384555 24.3992C0.378751 24.3914 0.372966 24.3836 0.372966 24.3704C0.371983 24.2986 0.355028 24.2428 0.338073 24.187C0.320604 24.1295 0.303135 24.072 0.303135 23.997V23.975C0.288269 23.9059 0.276794 23.8335 0.265401 23.7615C0.255387 23.6983 0.245437 23.6354 0.233304 23.5756V23.5537C0.232322 23.4799 0.220695 23.4178 0.209146 23.3561C0.197242 23.2924 0.185421 23.2293 0.185421 23.1543C0.160481 23.0646 0.151644 22.9589 0.142807 22.8531C0.136091 22.7727 0.129375 22.6924 0.11559 22.6191V22.5951C0.0906488 22.4096 0.075332 22.223 0.0697013 22.0359H0.0457594C0.0498913 21.802 0.0418999 21.5681 0.0218175 21.335C-0.0137986 20.6516 -0.00580176 19.9665 0.0457594 19.2841C0.0471306 19.1249 0.0607534 18.9779 0.0743211 18.8316C0.0804946 18.765 0.0866567 18.6985 0.0916481 18.6311C0.0953247 18.5305 0.107282 18.4427 0.119197 18.3552C0.126679 18.3003 0.134145 18.2455 0.139532 18.1877V18.1658C0.143231 18.1346 0.146791 18.1032 0.150395 18.0715C0.1604 17.9834 0.170754 17.8922 0.185421 17.7923C0.195574 17.691 0.211562 17.5903 0.233304 17.4908V17.4668C0.221714 17.3783 0.237741 17.2883 0.279193 17.2092C0.272431 17.1215 0.28823 17.0335 0.325082 16.9536V16.9296L0.325077 16.9294C0.323083 16.8336 0.321132 16.7399 0.372966 16.698C0.36738 16.6174 0.383213 16.5368 0.418854 16.4643C0.419148 16.3693 0.434641 16.2749 0.464743 16.1848C0.461213 16.1291 0.469369 16.0733 0.488685 16.021H0.510632C0.510912 15.9519 0.526588 15.8836 0.55652 15.8213C0.54593 15.7734 0.554525 15.7232 0.580462 15.6815C0.586448 15.6486 0.594927 15.6181 0.603407 15.5877C0.611886 15.5572 0.620365 15.5268 0.626351 15.4938C0.629566 15.4372 0.645235 15.3819 0.672239 15.332C0.679223 15.2991 0.687702 15.2686 0.696181 15.2382C0.704661 15.2077 0.71314 15.1773 0.720123 15.1443C0.719564 15.0871 0.735496 15.031 0.766012 14.9826C0.774932 14.9655 0.77792 14.9429 0.780869 14.9205C0.785175 14.8879 0.7894 14.8558 0.811901 14.8428C0.812002 14.7848 0.828611 14.728 0.859785 14.679C0.869109 14.6229 0.884496 14.568 0.905673 14.5153C0.902636 14.4645 0.919047 14.4145 0.951562 14.3755C0.961451 14.327 0.977545 14.28 0.999446 14.2357V14.1658C1.01582 14.1629 1.01824 14.1465 1.02064 14.1303C1.0232 14.113 1.02573 14.0959 1.04533 14.0959C1.05409 14.0792 1.05713 14.0574 1.06015 14.0357C1.06471 14.003 1.06923 13.9705 1.09322 13.9561C1.09095 13.9309 1.09385 13.9055 1.10174 13.8815C1.10963 13.8574 1.12235 13.8353 1.13911 13.8163C1.13641 13.7611 1.15826 13.7304 1.18012 13.6997C1.19064 13.6849 1.20116 13.6701 1.20894 13.6526C1.20295 13.5867 1.21492 13.5348 1.25483 13.5128C1.25283 13.4874 1.25604 13.462 1.26428 13.4379C1.27252 13.4139 1.2856 13.3918 1.30271 13.373C1.30585 13.362 1.30817 13.35 1.31049 13.338C1.31702 13.3043 1.32358 13.2704 1.3486 13.2572C1.34767 13.2389 1.3514 13.2207 1.35943 13.2043C1.36745 13.1879 1.37952 13.1738 1.39449 13.1633V13.0934C1.40644 13.0907 1.41077 13.0807 1.41508 13.0707C1.42013 13.0591 1.42516 13.0475 1.44237 13.0475C1.44708 12.9795 1.47133 12.9143 1.5122 12.8598C1.51754 12.7843 1.55016 12.7133 1.60398 12.6601C1.60149 12.6091 1.61863 12.559 1.65186 12.5203V12.4743C1.66284 12.4716 1.66711 12.4613 1.67139 12.4509C1.67646 12.4387 1.68155 12.4264 1.69775 12.4264C1.72033 12.3348 1.75956 12.2482 1.81347 12.1708C1.81236 12.1523 1.81621 12.1338 1.82463 12.1173C1.83305 12.1008 1.84573 12.0869 1.86135 12.0769V11.9991C1.88511 11.9961 1.8907 11.973 1.89614 11.9504C1.90167 11.9275 1.90706 11.9052 1.93119 11.9052C1.9455 11.8361 1.97785 11.772 2.02496 11.7195V11.6736C2.04865 11.6696 2.05427 11.6466 2.0597 11.6243C2.06525 11.6016 2.0706 11.5797 2.09479 11.5797C2.0917 11.5447 2.10398 11.5267 2.1166 11.5082C2.12849 11.4907 2.14068 11.4728 2.14068 11.4399H2.16462C2.17836 11.371 2.21001 11.3069 2.2564 11.2542C2.25979 11.2219 2.26988 11.1906 2.28603 11.1624C2.30217 11.1342 2.32402 11.1097 2.35017 11.0904C2.34418 11.0365 2.35615 10.9966 2.39606 10.9966C2.41645 10.9205 2.45714 10.8515 2.51377 10.7969C2.51704 10.7647 2.52687 10.7336 2.54266 10.7055C2.55845 10.6773 2.57986 10.6527 2.60555 10.6331V10.5872C2.6175 10.5844 2.62183 10.5745 2.62615 10.5645C2.63119 10.5529 2.63622 10.5413 2.65343 10.5413V10.4933C2.67418 10.4924 2.67888 10.4767 2.68376 10.4605C2.6892 10.4423 2.69486 10.4234 2.72326 10.4234C2.72478 10.3779 2.74819 10.3543 2.7716 10.3307C2.779 10.3232 2.78639 10.3158 2.79309 10.3076C2.84006 10.182 2.90897 10.0657 2.9966 9.96413V9.9162C3.02962 9.913 3.03932 9.88534 3.04909 9.8575C3.05762 9.83319 3.06619 9.80875 3.09037 9.80038V9.77641C3.1116 9.75761 3.12744 9.73348 3.13626 9.70652H3.1602C3.23095 9.5647 3.31656 9.43082 3.41558 9.30712C3.43759 9.25493 3.46943 9.20747 3.50936 9.16733C3.52233 9.15359 3.5315 9.13605 3.54068 9.11851C3.5555 9.09017 3.57033 9.06184 3.60113 9.04951C3.61412 8.99294 3.64752 8.94317 3.69491 8.90972C3.75663 8.80317 3.82668 8.70167 3.9044 8.60618C3.91848 8.59068 3.92957 8.5717 3.94076 8.55257C3.96127 8.51748 3.98208 8.48189 4.02211 8.46639C4.02816 8.41678 4.05764 8.3899 4.08703 8.36309C4.10616 8.34565 4.12525 8.32824 4.13783 8.30463V8.28067C4.16781 8.27292 4.18045 8.24782 4.19301 8.22287C4.20636 8.19634 4.21962 8.16999 4.25355 8.16484C4.33557 8.02599 4.43778 7.90013 4.55682 7.7914C4.60277 7.70155 4.66659 7.62204 4.74436 7.55775C4.77668 7.50623 4.81547 7.46118 4.85425 7.41613C4.88011 7.38609 4.90597 7.35606 4.92991 7.32411H4.95385C4.98737 7.24622 5.04459 7.19207 5.10181 7.13791C5.13996 7.1018 5.17811 7.0657 5.20923 7.02256C5.25212 6.97745 5.29341 6.93076 5.33466 6.88411C5.40664 6.80272 5.47848 6.72148 5.55839 6.64912V6.62516C5.735 6.42941 5.92146 6.24278 6.11703 6.066C6.19965 6.0115 6.2677 5.94328 6.33551 5.8753C6.41179 5.79882 6.48778 5.72264 6.5839 5.6666C6.67957 5.55799 6.79046 5.46382 6.9131 5.38702C6.98507 5.30246 7.07156 5.23145 7.16848 5.17734C7.22355 5.10417 7.29109 5.0413 7.368 4.99162C7.49135 4.87832 7.62493 4.7767 7.76703 4.68808C7.81312 4.62357 7.87789 4.57478 7.95258 4.54829V4.52432C7.97887 4.50958 8.00295 4.49262 8.02686 4.47579C8.0483 4.46068 8.0696 4.44568 8.09224 4.43246C8.13936 4.38378 8.19475 4.34389 8.25584 4.31464C8.34402 4.22767 8.44663 4.15672 8.55911 4.10496C8.5667 4.07551 8.59326 4.06278 8.61901 4.05043C8.6474 4.03682 8.67482 4.02368 8.67482 3.98913H8.72071V3.96517C8.74911 3.96058 8.76657 3.94548 8.78391 3.93047C8.80434 3.9128 8.8246 3.89527 8.86237 3.89527C8.87742 3.87039 8.89771 3.8491 8.92183 3.83289C8.94596 3.81668 8.97333 3.80594 9.00203 3.80141V3.77945C9.12751 3.71613 9.24477 3.63767 9.35118 3.5458H9.39707C9.41303 3.49987 9.45892 3.4759 9.51279 3.4759C9.5289 3.45155 9.54975 3.43068 9.57409 3.41456C9.59842 3.39843 9.62575 3.38738 9.65445 3.38205C9.70041 3.33408 9.76267 3.30147 9.82525 3.26869C9.89035 3.2346 9.95579 3.20032 10.0036 3.1484H10.0495C10.0522 3.13742 10.0621 3.13315 10.072 3.12887C10.0837 3.12379 10.0954 3.11871 10.0954 3.10247H10.1433C10.1859 3.05494 10.2425 3.02209 10.3049 3.00861V2.98664C10.3713 2.96378 10.4248 2.93227 10.4777 2.90111C10.5264 2.87239 10.5747 2.84396 10.6321 2.82289C10.6687 2.78354 10.7183 2.75872 10.7717 2.75299C10.8084 2.71364 10.858 2.68883 10.9114 2.6831C11.0275 2.6052 11.1528 2.54214 11.2845 2.49538C11.2872 2.48458 11.2968 2.48067 11.3065 2.47672C11.3183 2.4719 11.3304 2.467 11.3304 2.44945H11.3783C11.3802 2.43714 11.3906 2.43291 11.401 2.42868C11.4126 2.42398 11.4242 2.41927 11.4242 2.40352H11.494C11.5629 2.34865 11.6424 2.30854 11.7274 2.2857C11.8128 2.2305 11.9074 2.19125 12.0067 2.16987C12.0434 2.13052 12.093 2.10571 12.1464 2.09998C12.1653 2.0832 12.1875 2.07048 12.2115 2.06258C12.2355 2.05468 12.2609 2.05178 12.2861 2.05405C12.296 2.03841 12.3099 2.02572 12.3264 2.01729C12.3429 2.00886 12.3614 2.00501 12.3798 2.00612C12.465 1.9506 12.5597 1.91133 12.6592 1.89029C12.6611 1.87386 12.6775 1.87146 12.6939 1.86906C12.7115 1.8665 12.729 1.86394 12.729 1.84436H12.7749C12.778 1.81926 12.8058 1.81826 12.8335 1.81726C12.8587 1.81636 12.8839 1.81545 12.8906 1.79643C12.9481 1.76131 13.0117 1.73758 13.0781 1.72654C13.1662 1.68191 13.2603 1.65029 13.3575 1.63268C13.3603 1.61751 13.3762 1.61495 13.3921 1.61237C13.4097 1.60953 13.4273 1.60668 13.4273 1.58675H13.4971V1.56279C13.523 1.56741 13.5356 1.55877 13.5482 1.55014C13.5628 1.54011 13.5775 1.53009 13.6128 1.54082C13.6275 1.51146 13.6616 1.50833 13.6951 1.50526C13.7162 1.50332 13.737 1.5014 13.7525 1.49289V1.47092C13.7874 1.47564 13.808 1.46655 13.8284 1.45754C13.8513 1.44746 13.874 1.43747 13.9161 1.44696C13.999 1.39095 14.0956 1.35851 14.1954 1.3531C14.2231 1.32275 14.2682 1.31943 14.3141 1.31606C14.3376 1.31433 14.3613 1.31259 14.383 1.30717C14.3849 1.29074 14.4013 1.28834 14.4178 1.28594C14.4353 1.28338 14.4528 1.28082 14.4528 1.26124H14.5226V1.23728L14.5235 1.2373C14.581 1.23929 14.6345 1.24114 14.6623 1.21331C14.7399 1.18606 14.8277 1.16717 14.915 1.14841C14.9556 1.13967 14.9961 1.13096 15.0354 1.12145C15.0941 1.09497 15.1568 1.07876 15.2209 1.07352C15.2278 1.05104 15.2623 1.05152 15.2982 1.05202C15.3356 1.05254 15.3744 1.05308 15.3845 1.02759C15.452 1.01652 15.5186 1.00118 15.5841 0.981661H15.606C15.7256 0.937322 15.8516 0.913031 15.9791 0.90977C16.0504 0.871059 16.1319 0.855036 16.2125 0.863839C16.2386 0.843732 16.2686 0.829266 16.3005 0.821359C16.3324 0.813452 16.3657 0.812277 16.3981 0.817908C16.4738 0.792942 16.5521 0.776858 16.6315 0.76998H16.6555C16.6794 0.775971 16.6794 0.761992 16.6794 0.748013H16.865C16.9676 0.720087 17.079 0.706532 17.1901 0.693019C17.2776 0.682373 17.3649 0.671754 17.4475 0.654155H17.4715C17.5226 0.656849 17.5633 0.648638 17.604 0.640421C17.6538 0.630366 17.7036 0.620301 17.7728 0.630191C17.8856 0.594923 18.0037 0.579385 18.1219 0.58426H18.1698C18.2285 0.569105 18.2997 0.566529 18.3707 0.563961C18.4495 0.561114 18.5279 0.558276 18.5888 0.538329C20.5401 0.420194 22.4983 0.575463 24.4067 0.999634C24.4518 1.01094 24.498 1.02284 24.5448 1.03493C24.6884 1.07199 24.8388 1.11082 24.9892 1.13942C25.0353 1.15824 25.0893 1.16997 25.1434 1.1817C25.2041 1.19487 25.2649 1.20805 25.3145 1.23129C25.5918 1.30318 25.8571 1.37906 26.1125 1.46493C26.2582 1.50687 26.3978 1.5528 26.5315 1.60472C26.6585 1.64406 26.783 1.69073 26.9046 1.74451C27.2864 1.86925 27.6602 2.01731 28.0239 2.18784C28.1934 2.25115 28.357 2.32934 28.5127 2.42149C28.6217 2.44838 28.7247 2.49582 28.816 2.56128C29.0207 2.63942 29.2155 2.7413 29.3966 2.86482C29.4952 2.90089 29.5895 2.94777 29.6779 3.00461C29.8941 3.11655 30.104 3.24056 30.3063 3.37605C30.3907 3.41062 30.4694 3.45775 30.5398 3.51584C30.8581 3.69067 31.1616 3.89102 31.4476 4.11494C31.5675 4.17537 31.6772 4.2542 31.7728 4.34859C32.3352 4.73153 32.8651 5.16035 33.3569 5.63066C33.5394 5.7725 33.7108 5.92805 33.8697 6.09596C34.0658 6.27291 34.2523 6.46023 34.4283 6.65711C34.5888 6.80812 34.7369 6.97173 34.8713 7.14637C35.3475 7.64805 35.7837 8.18622 36.1761 8.75595C36.2666 8.85479 36.3449 8.96406 36.4095 9.08146C36.623 9.36022 36.8164 9.65385 36.9881 9.96014C37.0517 10.0257 37.0995 10.1049 37.1278 10.1918C37.2809 10.4049 37.4145 10.6315 37.5268 10.8688C37.5761 10.9325 37.6158 11.0032 37.6445 11.0785C37.7599 11.2706 37.8613 11.4708 37.9478 11.6775C38.0132 11.7817 38.0667 11.8929 38.1074 12.009C38.1921 12.1594 38.2661 12.3156 38.3289 12.4763C38.3838 12.5811 38.4305 12.6899 38.4685 12.8019C38.5362 12.9362 38.591 13.0766 38.6321 13.2212C38.6974 13.3379 38.7444 13.4638 38.7718 13.5947C38.8323 13.7135 38.8792 13.8387 38.9115 13.9681C38.9564 14.0781 38.9931 14.1979 39.0295 14.3169C39.0367 14.3405 39.0439 14.364 39.0511 14.3875C39.0951 14.4843 39.1266 14.5863 39.1449 14.691C39.2056 14.8497 39.2523 15.0134 39.2846 15.1803C39.3388 15.3408 39.3789 15.5161 39.4191 15.6916C39.4499 15.8261 39.4808 15.9607 39.518 16.0889C39.5298 16.1924 39.5532 16.2942 39.5878 16.3924C39.6014 16.5069 39.623 16.6138 39.6445 16.7207C39.6674 16.8339 39.6902 16.9472 39.7035 17.0694C39.8532 17.9248 39.9432 18.7896 39.9729 19.6575C40.0061 19.7006 40.0014 19.7817 39.9966 19.8633C39.9937 19.914 39.9907 19.9649 39.9968 20.007ZM30.446 16.2786H25.4362V24.6839H30.446L20.157 34.9924L9.86993 24.6839H14.6044V16.2786H9.86993L20.157 5.97013L30.446 16.2786Z" fill="#0A223B"/>
</g>
</svg>