<svg xmlns="http://www.w3.org/2000/svg" xml:space="preserve" width="32" height="32"><path fill="#0082c9" d="M5 0C2.23 0 0 2.23 0 5v22c0 2.77 2.23 5 5 5h22c2.77 0 5-2.23 5-5V5c0-2.77-2.23-5-5-5z"/><path fill="#fff" d="M9.279 5.907c-1.941 0-3.588 1.42-3.588 3.251.014.58.066 1.293.411 2.803V12l.038.037c.11.318.272.5.486.747.213.248.468.54.71.785.028.03.046.047.074.075.048.209.107.434.15.635.115.537.103.917.075 1.047-.834.293-1.872.641-2.803 1.046-.523.227-.996.43-1.383.673-.387.242-.772.426-.897.972v.074a256 256 0 0 1-.448 3.887.61.61 0 0 0 .299.598c1.69.913 4.287 1.28 6.876 1.27s5.165-.398 6.801-1.27a.61.61 0 0 0 .3-.598c-.046-.348-.101-1.133-.15-1.906s-.091-1.533-.15-1.98a.6.6 0 0 0-.149-.3c-.52-.62-1.297-1-2.205-1.382-.83-.35-1.801-.712-2.765-1.122-.054-.12-.108-.47 0-1.009.028-.145.074-.3.112-.448l.261-.3c.214-.244.444-.5.636-.747.19-.246.347-.458.448-.747l.037-.038c.391-1.576.391-2.234.412-2.802v-.038c0-1.832-1.647-3.251-3.588-3.251zm10.263-2.984c-2.83 0-5.23 2.07-5.23 4.74.02.845.095 1.886.599 4.087v.054l.054.055c.162.463.397.728.709 1.09.31.361.682.787 1.035 1.144l.109.109c.07.304.154.632.218.926.168.782.15 1.336.109 1.526-1.216.427-2.73.935-4.087 1.525-.762.332-1.452.627-2.016.981s-1.125.62-1.307 1.417a1 1 0 0 0 0 .109 373 373 0 0 1-.654 5.666.89.89 0 0 0 .436.872c2.464 1.331 6.25 1.867 10.025 1.852 3.774-.014 7.53-.582 9.916-1.852.3-.17.48-.53.436-.872-.066-.508-.147-1.652-.218-2.779-.071-1.126-.133-2.234-.218-2.888a.9.9 0 0 0-.218-.435c-.758-.906-1.89-1.459-3.215-2.016-1.209-.51-2.626-1.038-4.031-1.635-.08-.175-.157-.685 0-1.471.042-.211.108-.437.163-.654.132-.148.235-.269.381-.436.313-.356.648-.73.927-1.09.278-.36.506-.668.654-1.09l.054-.054c.57-2.298.57-3.257.6-4.086v-.055c0-2.67-2.401-4.74-5.231-4.74" color="#000" style="text-indent:0;text-transform:none"/></svg>