<svg xmlns="http://www.w3.org/2000/svg" xml:space="preserve" viewBox="0 0 512 512"><path d="M20.7 2.6c-10 0-18.1 8.1-18.1 18.1v36.2c0 10 8.1 18.1 18.1 18.1h470.7c10 0 18.1-8.1 18.1-18.1V20.7c0-10-8.1-18.1-18.1-18.1zm0 144.8c-10 0-18.1 8.1-18.1 18.1v36.2c0 10 8.1 18.1 18.1 18.1h325.9c10 0 18.1-8.1 18.1-18.1v-36.2c0-10-8.1-18.1-18.1-18.1zm0 144.8c-10 0-18.1 8.1-18.1 18.1v36.2c0 10 8.1 18.1 18.1 18.1h434.5c10 0 18.1-8.1 18.1-18.1v-36.2c0-10-8.1-18.1-18.1-18.1zm0 144.8c-10 0-18.1 8.1-18.1 18.1v36.2c0 10 8.1 18.1 18.1 18.1h217.2c10 0 18.1-8.1 18.1-18.1v-36.2c0-10-8.1-18.1-18.1-18.1z" style="fill:#3180c7"/></svg>