<svg xmlns="http://www.w3.org/2000/svg" xml:space="preserve" viewBox="0 0 32 32"><path d="M5 0h22c2.8 0 5 2.2 5 5v22c0 2.8-2.2 5-5 5H5c-2.8 0-5-2.2-5-5V5c0-2.8 2.2-5 5-5" style="fill:#fff"/><path d="M16 10c-2.8 0-5 1.9-5.7 4.4-.6-1.4-2-2.4-3.5-2.4-2.1 0-3.9 1.8-3.9 3.9s1.8 3.9 3.9 3.9c1.5 0 2.9-1 3.5-2.3.8 2.5 3 4.4 5.7 4.4s5-1.9 5.7-4.3c.6 1.3 1.9 2.3 3.5 2.3 2.1 0 3.9-1.8 3.9-3.9s-1.8-3.9-3.9-3.9c-1.5 0-2.9.9-3.5 2.3C21 11.8 18.8 10 16 10m0 2.3c2 0 3.6 1.6 3.6 3.6S18 19.6 16 19.6 12.4 18 12.4 16c0-2.1 1.6-3.7 3.6-3.7m-9.2 2c.9 0 1.6.8 1.6 1.6s-.8 1.6-1.6 1.6-1.6-.6-1.6-1.5.8-1.7 1.6-1.7m18.4 0c.9 0 1.6.8 1.6 1.6s-.8 1.6-1.6 1.6c-.9 0-1.6-.6-1.6-1.5-.1-.9.7-1.7 1.6-1.7" style="fill:#0082c9"/></svg>