<svg xmlns="http://www.w3.org/2000/svg" xml:space="preserve" viewBox="0 0 32 32"><path d="M5 0h22c2.8 0 5 2.2 5 5v22c0 2.8-2.2 5-5 5H5c-2.8 0-5-2.2-5-5V5c0-2.8 2.2-5 5-5" style="fill:#0082c9"/><path d="M5.1 14.2h21.7c1 0 1.8.8 1.8 1.8v10.9c0 1-.8 1.8-1.8 1.8H5.1c-1 0-1.8-.8-1.8-1.8V16c0-1 .8-1.8 1.8-1.8m.9-3.6h20c.5 0 .9.4.9.9s-.4.9-.9.9H6c-.5 0-.9-.4-.9-.9s.4-.9.9-.9M7.9 7h16.3c.4 0 .8.4.8.9s-.4.9-.9.9H7.9c-.5 0-.9-.4-.9-.9s.4-.9.9-.9m1.8-3.7h12.7c.5 0 .9.4.9.9s-.4.9-.9.9H9.7c-.5 0-.9-.4-.9-.9s.4-.9.9-.9" style="fill:#fff"/></svg>