<svg xmlns="http://www.w3.org/2000/svg" xml:space="preserve" viewBox="0 0 32 32"><style>.st1{fill-rule:evenodd;clip-rule:evenodd;fill:#fff}</style><g id="icon"><path d="M5 0h22c2.8 0 5 2.2 5 5v22c0 2.8-2.2 5-5 5H5c-2.8 0-5-2.2-5-5V5c0-2.8 2.2-5 5-5" style="fill:#0082c9"/><path d="M16 2.8c7.3 0 13.2 5.9 13.2 13.2S23.3 29.2 16 29.2 2.8 23.3 2.8 16 8.7 2.8 16 2.8m0 2.8c5.8 0 10.4 4.7 10.4 10.4 0 5.8-4.7 10.4-10.4 10.4-5.8 0-10.4-4.7-10.4-10.4 0-5.8 4.6-10.4 10.4-10.4" class="st1"/><path d="M16 6.3s-1.8 8.1-1.8 11.6c0 1 .8 1.8 1.8 1.8s1.8-.8 1.8-1.8c0-3.5-1.8-11.6-1.8-11.6" class="st1"/></g></svg>