<svg xmlns="http://www.w3.org/2000/svg" xml:space="preserve" viewBox="0 0 512 512"><path d="M256 0c141.4 0 256 114.6 256 256S397.4 512 256 512 0 397.4 0 256 114.6 0 256 0" style="fill:#0082c9"/><path d="M176.8 93.4c-2.2.1-4.6.9-7.3 3-6.6-2.5-13-3.4-18.7 1.8-8.8-1.1-11.7 1.2-13.9 4-1.9 0-14.5-2-20.3 6.6-14.5-1.7-19.1 8.5-13.9 18.1-3 4.6-6 9.1.9 17.8-2.4 4.9-.9 10.1 4.8 16.5-1.5 6.8 1.5 11.7 6.8 15.4-1 9.4 8.6 14.8 11.4 16.7 1.1 5.4 3.4 10.6 14.3 13.4 1.8 8.1 8.4 9.5 14.8 11.2 1.8 5.2 11.3 8.8 30.1 6.8-10.5 11-18.3 24.6-22.5 39.6-9.6-21-30.6-35.9-55-35.9-33.3 0-60.6 27.4-60.6 60.6 0 33.3 27.4 60.6 60.6 60.6 24.4 0 45.5-14.9 55-35.9 10.9 39.3 46.8 68.5 89.5 68.5 42.4 0 78.1-28.9 89.3-67.9 9.7 20.6 30.4 35.3 54.6 35.3 33.3 0 60.7-27.4 60.6-60.6 0-33.3-27.4-60.6-60.6-60.6-24.2 0-44.9 14.6-54.6 35.3-4.3-14.9-12.1-28.2-22.5-39.1 19.4 1.3 33.1-1.7 34.5-6.6 6.4-1.7 12.9-3.1 14.8-11.2 10.9-2.8 13.2-8 14.3-13.4 2.9-1.9 12.4-7.4 11.4-16.7 5.4-3.8 8.4-8.6 6.8-15.4 5.8-6.4 7.3-11.7 4.8-16.5 6.9-8.7 3.8-13.2.9-17.8 5.2-9.5.6-19.8-13.9-18.1-5.8-8.6-18.3-6.6-20.3-6.6-2.2-2.8-5-5.1-13.9-4-5.7-5.2-12.1-4.3-18.7-1.7-7.8-6.2-13-1.2-18.9.6-9.5-3.1-11.6 1.1-16.3 2.9-10.3-2.2-13.5 2.6-18.4 7.6l-5.8-.1c-15.6 9.2-23.3 27.9-26.1 37.5-2.7-9.6-10.5-28.3-26.1-37.5l-5.8.1c-5-5-8.1-9.8-18.4-7.6-4.7-1.7-6.8-6-16.3-2.9-3.7-1.3-7.2-3.9-11.4-3.8m156.9 11.1c-2.2 2.7-5.2 5.3-2 8.4 4.4-2.8 8.9-5.6 19.4-7.6-2.4 2.7-7.3 5.4-4.3 8 5.6-2.2 11.7-3.7 18.5-4.6-3.3 2.7-6 5.4-3.3 7.5 5.9-1.9 14.1-4.4 22.1-2.2l-5.1 5.2c-.6.7 11.8.5 20 .7-3 4.2-6 8.3-7.8 15.5.8.8 4.9.4 8.7 0-3.9 8.4-10.7 10.5-12.3 14.1 2.4 1.8 5.7 1.4 9.4.1-2.8 5.9-8.8 10-13.4 14.8 1.2.9 3.3 1.4 8.1.8-4.3 4.7-9.6 8.9-15.7 12.8 1.1 1.3 4.9 1.2 8.4 1.3-5.6 5.6-12.8 8.5-19.6 12.1 3.4 2.3 5.8 1.8 8.4 1.8-4.8 4-12.9 6.1-20.5 8.5 1.4 2.3 2.9 2.9 5.9 3.5-8 4.5-19.4 2.4-22.7 4.7.8 2.3 3 3.7 5.6 5-12.9.8-48.1-.5-54.8-27.5 13.2-14.7 37.2-32 78.6-53.3-32.2 10.9-61.2 25.5-85.5 45.6-28.6-13.5-8.9-47.6 5.1-61.1.7 3.6 1.5 5.8 2.4 6.5 4.5-4.9 8.2-10 14.1-14.8 0 2.8-1.4 5.8 2.1 8 3.1-4.3 7.4-8.1 13-11.3-2.7 4.7-.5 6.2 1 8.1 4.2-3.9 8.3-7.7 16.2-10.6m-156.4 0c7.9 2.9 12 6.7 16.3 10.5 1.5-2 3.7-3.4 1-8.2 5.6 3.2 9.9 7.1 13 11.3 3.5-2.2 2.1-5.2 2.1-8 5.8 4.8 9.6 9.8 14.1 14.8.9-.7 1.7-2.9 2.4-6.5 13.9 13.5 33.6 47.6 5.1 61.1-24.3-20-53.3-34.6-85.5-45.6 41.3 21.3 65.4 38.6 78.6 53.3-2.3 9.4-8.1 15.6-15.2 19.8-.7.4-1.3.8-2 1.2-13.1 6.8-29.7 7.1-37.7 6.6 2.6-1.2 4.8-2.7 5.6-5-3.2-2.3-14.7-.2-22.7-4.7 3.1-.6 4.5-1.3 5.9-3.5-7.6-2.4-15.7-4.5-20.5-8.5 2.6 0 5 .6 8.4-1.8-6.8-3.6-14-6.5-19.6-12.1 3.5-.1 7.3 0 8.4-1.3-6.2-3.8-11.4-8.1-15.7-12.8 4.9.6 7 .1 8.2-.8-4.7-4.8-10.6-8.8-13.4-14.8 3.6 1.3 7 1.7 9.4-.1-1.6-3.6-8.4-5.7-12.3-14.1 3.8.4 7.9.8 8.7 0-1.8-7.2-4.8-11.3-7.8-15.5 8.2-.1 20.6 0 20-.7l-5.1-5.2c8-2.2 16.2.3 22.1 2.2 2.7-2.1-.1-4.8-3.3-7.5 6.8.9 12.9 2.5 18.5 4.6 3-2.7-1.9-5.4-4.3-8 10.5 2 14.9 4.8 19.4 7.6 3.1-3 .1-5.6-2.1-8.3m75.6 126.9c31.7-.1 57.5 25.4 57.7 57.1v.5c0 32.1-25.6 57.7-57.7 57.6-31.7.1-57.5-25.4-57.6-57.1v-.5c0-32 25.6-57.6 57.6-57.6M108.4 264c14 0 25 11 25 25s-11 25.1-25 25.1-25-11-25-25.1c0-14 11-25 25-25m288.3 0c14 0 25 11 25 25s-11 25.1-25 25.1-25-11-25-25.1c0-14 11-25 25-25" style="fill:#fff"/></svg>