<svg xmlns="http://www.w3.org/2000/svg" xml:space="preserve" viewBox="0 0 32 32"><path d="M5 0h22c2.8 0 5 2.2 5 5v22c0 2.8-2.2 5-5 5H5c-2.8 0-5-2.2-5-5V5c0-2.8 2.2-5 5-5" style="fill:#0082c9"/><path d="M24.8 23.1c0-6.5-2.2-14.4-8.7-14.4s-8.8 8.2-8.8 14.7 2.4 5.8 8.9 5.8c6.4-.1 8.6.4 8.6-6.1M17 24.5v1.1c0 .4-.3.7-.7.7h-.6c-.4 0-.7-.3-.7-.7v-1c-.8-.1-1.8-.4-2.6-.9-.3-.2-.4-.6-.2-.9l.6-.9c.2-.3.6-.4.9-.2q1.05.6 1.8.6c.9 0 1.2-.3 1.2-1 0-1.4-4.4-1.6-4.4-4.6 0-1.7 1-2.9 2.6-3.3v-1.1c0-.4.3-.6.6-.6h.6c.4 0 .6.3.6.6v1.1c.8.1 1.5.5 2.1 1 .3.2.3.6.1.9l-.3.7c-.2.3-.6.3-.9.1-.4-.3-.9-.5-1.3-.5-.7 0-1.1.2-1.1.9 0 1.3 4.4 1.4 4.4 4.5 0 1.8-.8 3.1-2.7 3.5m1.6-21.6L16 4.3l-2.6-1.4c-.5-.3-1.1.2-.9.8l1.4 4.7q1.05-.3 2.1-.3c1.05 0 1.4.1 2.1.3l1.4-4.7c.2-.6-.4-1-.9-.8" style="fill:#fff"/></svg>