<svg xmlns="http://www.w3.org/2000/svg" xml:space="preserve" viewBox="0 0 32 32"><path d="M5 0h22c2.8 0 5 2.2 5 5v22c0 2.8-2.2 5-5 5H5c-2.8 0-5-2.2-5-5V5c0-2.8 2.2-5 5-5" style="fill:#0082c9"/><path d="M-572.7 4.1c-1.1 0-2 .9-2 2v4c0 1.1.9 2 2 2s2-.9 2-2v-4c0-1.1-.9-2-2-2m16 0c-1.1 0-2 .9-2 2v4c0 1.1.9 2 2 2s2-.9 2-2v-4c0-1.1-.9-2-2-2m-13 4v2c0 1.7-1.3 3-3 3s-3-1.3-3-3V8.3c-1.7.4-3 2-3 3.9v16c0 2.2 1.8 4 4 4h20c2.2 0 4-1.8 4-4v-16c0-1.9-1.3-3.4-3-3.9v1.9c0 1.7-1.3 3-3 3s-3-1.3-3-3v-2h-10zm-5.9 9h21.8c.1 0 .1 0 .1.1V29c0 .1 0 .1-.1.1h-21.8c-.1 0-.1 0-.1-.1zc-.1.1-.1 0 0 0" style="fill:#fff" transform="translate(520.21 -.193)scale(.89286)"/></svg>