<svg xmlns="http://www.w3.org/2000/svg" xmlns:ev="http://www.w3.org/2001/xml-events" id="Layer_1" baseProfile="tiny" version="1.2" viewBox="59.5 62.5 218 235">
  <!-- Generator: Adobe Illustrator 29.6.1, SVG Export Plug-In . SVG Version: 2.1.1 Build 9)  -->
  <polygon points="277 159 169 222 60.3 159 60 188 169 251 277 189.4 277 159" fill="#01bc6d" stroke="#01bc6d"/>
  <polygon points="194 63 182 66 172 74.9 172 65 154 65 154 136 172 136 172 90 183 82 194 82 194 63" fill="#01bc6d" stroke="#01bc6d"/>
  <polygon points="60 205 60 233.8 168 297 277 233 277 204.4 167 268 60 205" fill="#e5e8eb" stroke="#e5e8eb"/>
  <polygon points="60 84 60 142 168 205 277 141 277 83 252 83 251 128 168 176 85 127 85 84.3 60 84" fill="#e5e8eb" stroke="#e5e8eb"/>
</svg>