<svg xmlns="http://www.w3.org/2000/svg" xml:space="preserve" viewBox="70.29 0 371.43 512"><path d="M245.67.33c-26.83 1.88-48.51 7.53-71.01 18.48-12.93 6.31-23.82 13.24-35.58 22.6-6.52 5.14-22.75 21.43-28 27.95C89.04 97 76.06 127.65 71.22 163.38c-1.12 8.6-1.27 37.06-.25 47.85 3.46 35.53 12.16 69.02 27.33 105.37 18.83 45.25 49.17 93.31 88.52 140.44 12.17 14.56 33.39 37.72 39.76 43.47 15.17 13.54 36.19 15.27 52.94 4.33 4.38-2.85 10.44-8.76 23.62-23.06 31.2-33.75 58.18-69.33 78.8-103.84 25.1-42 40.72-78.7 50.8-119.37 8.91-35.89 11.35-74.52 6.57-103.08-3.16-18.94-7.99-33.7-17-51.92C401.59 61.68 366.77 29.76 323 12.5 300.04 3.49 269.34-1.35 245.67.33m21.99 29.42c12.83.66 31.61 4.94 45.2 10.28 35.99 14.15 65.87 41.64 82.97 76.25 8.76 17.71 13.34 33.24 15.58 52.69.66 5.9.76 10.38.56 22.14-.25 14.81-.51 18.17-2.44 31.82-8.35 58.95-36.6 121.71-83.08 184.27-21.38 28.71-57.93 70.3-65 73.86-3 1.53-7.99 1.58-10.94.2-7.13-3.41-42.56-43.62-64.65-73.3-33.09-44.39-55.79-86.33-70.3-129.81-11.5-34.61-16.59-65.16-15.83-95.9.41-17.36 2.44-29.52 7.53-45.15 18.43-56.71 68.87-98.65 127.77-106.39 7.18-.92 19.6-1.68 24.13-1.43 1.68.12 5.5.32 8.5.47"/><path d="M247.05 58.51c-11.56.97-23.31 3.41-33.49 6.87-6.36 2.19-18.94 8.2-24.89 11.96-13.49 8.4-26.27 20.26-36.35 33.7l-1.43 1.93 3.31-1.27c8.65-3.26 18.73-4.84 30.7-4.84 13.03 0 22.5 1.73 33.7 6.21 6.67 2.65 12.78 6.11 18.78 10.64 5.09 3.87 13.64 12.52 16.44 16.65.97 1.43 1.88 2.6 2.04 2.6s1.17-1.27 2.29-2.85c5.14-7.18 14.86-16.14 22.91-21.02 21.18-12.98 50.34-16.09 74.68-7.94l4.94 1.68-1.58-2.29c-7.33-10.69-22.25-24.48-35.28-32.78-14.86-9.42-32.93-15.93-51.26-18.48-7.04-.97-18.74-1.33-25.51-.77"/><path d="M178.07 133.9c-20.46 2.39-36.04 13.44-44.64 31.66-3.41 7.13-4.89 13.44-5.19 21.99-.71 18.68 4.99 41.39 14.91 59.41 20.46 37.16 57.27 62 98.55 66.53 11.5 1.27 28.56.46 40.37-1.99 22.7-4.63 44.29-15.88 61.39-31.97 6.82-6.41 16.29-17.97 21.18-25.81 15.17-24.38 22.55-57.88 17.26-78.29-1.43-5.65-4.73-12.98-7.99-17.71-3.41-5.04-9.88-11.45-14.91-14.76-5.14-3.41-12.78-6.57-19.14-7.89-5.29-1.17-19.9-1.32-24.69-.31-19.7 4.28-34.61 16.75-41.03 34.31-3.82 10.33-3.67 8.55-3.87 51.57-.15 42.2-.1 41.08-3 42.45-.81.36-5.09.56-11.66.56h-10.44l-1.63-1.48-1.68-1.48-.31-39.4c-.31-42.76-.2-41.44-3.31-50.7-3.56-10.69-11.61-21.23-21.02-27.59-10.9-7.32-25.41-10.68-39.15-9.1m12.22 6.06c10.74 1.22 20.31 5.85 28.61 13.74 6.67 6.36 11 13.54 13.64 22.65 1.02 3.61 1.17 5.14 1.12 12.98 0 8.2-.1 9.26-1.37 13.39-4.17 13.49-12.73 23.82-25.04 30.24-11.05 5.7-23.62 7.02-35.79 3.72-13.69-3.77-25.76-14.15-31.87-27.59-6.11-13.29-5.5-30.29 1.53-43.12 7.94-14.61 21.94-24.08 38.33-26.01 4.88-.56 5.95-.56 10.84 0m141.66 0c23.57 2.7 41.39 20.41 44.13 43.88 2.44 20.72-9.52 41.54-28.86 50.34-13.08 5.9-29.17 5.65-41.74-.66-13.18-6.62-22.55-18.17-26.52-32.73-1.48-5.5-1.37-18.33.2-24.18 1.48-5.4 4.48-11.86 7.43-15.93 2.49-3.56 9.06-10.03 12.62-12.47 6.01-4.12 14.91-7.43 22.04-8.2 5.82-.61 5.66-.61 10.7-.05"/><path d="M180.62 168.47c-11.2 2.39-18.58 13.39-16.39 24.54 3.26 16.59 23.42 22.81 35.33 10.89 10.28-10.33 7.28-27.44-5.96-33.7-4.08-1.89-9.01-2.55-12.98-1.73m141.92.2c-8.4 1.83-14.91 8.81-16.29 17.41-1.02 6.26 1.37 13.29 6.11 17.92 13.69 13.49 36.8 2.9 35.48-16.29a21.05 21.05 0 0 0-17.1-19.24c-3.37-.61-4.64-.61-8.2.2M163.15 318.02c8.4 16.8 18.12 33.55 28.71 49.48 7.18 10.84 9.01 13.29 9.52 12.98 1.37-.87 26.32-39.81 25.81-40.27-.05-.05-3.05-.81-6.72-1.63-19.9-4.58-39.35-13.44-55.89-25.45-2.19-1.63-4.43-3.21-4.99-3.61-.71-.51.41 2.14 3.56 8.5m183.57-4.68c-13.39 9.82-30.9 18.48-46.98 23.11-10.33 2.95-23.47 5.19-35.63 6.01l-5.75.36-3.82 6.82c-8.5 15.22-21.69 35.99-31.05 48.97-2.34 3.26-4.28 6.06-4.28 6.21 0 1.27 23.21 28.4 33.49 39.2l3.26 3.41 3.46-3.67c37.01-39.71 67.55-82.62 88.42-124.31 4.17-8.3 4.89-9.98 4.33-9.93-.21 0-2.65 1.73-5.45 3.82"/></svg>