<svg xmlns="http://www.w3.org/2000/svg" xmlns:svg="http://www.w3.org/2000/svg" fill="none" version="1.1" id="svg3" viewBox="0 0 50 50">
  <defs id="defs3"/>
  <rect width="50" height="50" rx="10.625" fill="#198813" id="rect1" x="0" y="0"/>
  <path d="M 7.72539,37.5 C 7.48917,37.5 7.28838,37.4167 7.12303,37.25 6.95768,37.0833 6.875,36.881 6.875,36.6429 v -23.25 C 6.875,13.131 6.94587,12.9167 7.0876,12.75 7.25295,12.5833 7.46555,12.5 7.72539,12.5 h 2.72831 c 0.2835,0 0.4961,0.0595 0.6378,0.1786 0.1417,0.0952 0.2717,0.2262 0.3898,0.3928 l 10.2046,16 V 13.3929 c 0,-0.2619 0.0709,-0.4762 0.2126,-0.6429 0.1654,-0.1667 0.378,-0.25 0.6378,-0.25 h 2.9764 c 0.2598,0 0.4724,0.0833 0.6378,0.25 0.1653,0.1667 0.248,0.381 0.248,0.6429 v 23.2142 c 0,0.2619 -0.0827,0.4762 -0.248,0.6429 -0.1654,0.1667 -0.3662,0.25 -0.6024,0.25 h -2.7637 c -0.4016,0 -0.7441,-0.1905 -1.0276,-0.5714 L 11.5876,21.2857 v 15.3572 c 0,0.2619 -0.0827,0.4761 -0.2481,0.6428 C 11.1742,37.4286 10.9616,37.5 10.7017,37.5 Z" fill="#ffffff" id="path1"/>
  <path d="m 29.408,37.5 c -0.2329,0 -0.4308,-0.0821 -0.5938,-0.2464 -0.163,-0.1643 -0.2444,-0.3638 -0.2444,-0.5985 V 13.35 c 0,-0.2582 0.0814,-0.4577 0.2444,-0.5985 0.163,-0.1643 0.3609,-0.2464 0.5938,-0.2464 h 2.8291 c 0.2561,0 0.454,0.0821 0.5937,0.2464 0.163,0.1408 0.2445,0.3403 0.2445,0.5985 v 12.0398 l 5.8677,-5.5975 c 0.0698,-0.0469 0.1863,-0.1408 0.3492,-0.2816 0.1398,-0.1173 0.2795,-0.1995 0.4192,-0.2464 0.1397,-0.047 0.3143,-0.0704 0.5239,-0.0704 h 3.2481 c 0.2329,0 0.4192,0.0704 0.5589,0.2112 0.1397,0.1408 0.2095,0.3286 0.2095,0.5633 0,0.2112 -0.1164,0.4224 -0.3492,0.6336 l -7.1949,6.7944 8.068,8.7306 c 0.2329,0.2347 0.3493,0.4342 0.3493,0.5985 0,0.2347 -0.0815,0.4225 -0.2445,0.5633 C 44.7408,37.4296 44.5662,37.5 44.3566,37.5 h -3.318 c -0.326,0 -0.5705,-0.0352 -0.7335,-0.1056 -0.1397,-0.0939 -0.326,-0.2582 -0.5588,-0.4929 l -6.671,-7.076 v 6.8296 c 0,0.2347 -0.0815,0.4342 -0.2445,0.5985 C 32.6911,37.4179 32.4932,37.5 32.2371,37.5 Z" fill="#ffffff" id="path2"/>
</svg>