<svg xmlns="http://www.w3.org/2000/svg" xml:space="preserve" id="Layer_1" x="0" y="0" version="1.1" viewBox="0 0 512 512"><style>.st1{fill:#fff}</style><path d="M432.5 512h-353C35.6 512 0 476.4 0 432.5v-353C0 35.6 35.6 0 79.5 0h353C476.4 0 512 35.6 512 79.5v353c0 43.9-35.6 79.5-79.5 79.5" style="fill:#dd2f28"/><path d="M146.23 65.27c-38.24 6.84-69.01 35.14-78.71 72.35-3.5 13.44-3.74 21.31-3.34 125.54.24 95.73.32 97.95 1.91 105.35 8.83 39.83 37.13 68.22 77.36 77.6 5.25 1.19 11.93 1.43 54.94 1.67 44.52.32 49.14.24 50.33-.95s1.27-16.54 1.27-190.5c0-128.96-.24-189.7-.8-190.82-.8-1.43-2.15-1.51-48.74-1.43-37.84.08-49.21.32-54.22 1.19m71.96 190.82v161.08l-32.36-.4c-29.81-.32-33-.48-38.96-1.99-25.6-6.6-44.6-26.32-49.93-52-1.75-8.03-1.75-205.84-.08-213.71 4.77-22.34 20.27-40.87 41.18-49.21 10.49-4.21 15.34-4.69 49.37-4.77l30.77-.08v161.08z" class="st1"/><path d="M153.07 143.59c-5.01.95-12.64 4.77-16.7 8.35-8.35 7.24-12.48 17.49-11.85 29.58.32 6.28.72 7.95 3.26 13.04 3.74 7.71 9.38 13.36 17.09 17.17 5.33 2.62 6.68 2.94 13.6 3.18 6.28.24 8.51 0 12.72-1.43 17.25-5.8 27.67-22.58 24.73-39.75-3.41-20.44-22.81-34.12-42.85-30.14m135.64-79.03c-.32.24-.56 86.42-.56 191.53 0 173.4.08 190.97 1.27 191.45 2.15.8 63.84.48 71.48-.32 32.28-3.66 60.74-23.3 76.25-52.47 1.99-3.74 4.61-10.02 5.96-13.91 5.01-14.95 4.85-10.97 4.85-125.22 0-91.19-.16-104.79-1.27-110.59-7.87-41.42-39.44-72.67-80.94-79.82-5.57-.95-14.15-1.19-41.82-1.19-19.08-.02-34.98.22-35.22.54m84.91 173.16c12.4 3.26 22.58 12.72 26.71 24.81 2.62 7.47 2.54 18.45-.08 25.28-4.85 12.56-14.39 21.39-26.63 24.65-19.88 5.17-41.03-6.84-46.83-26.56-1.75-6.04-1.67-16.22.32-22.42 5.96-19.48 26.63-30.93 46.51-25.76" class="st1"/></svg>