<svg xmlns="http://www.w3.org/2000/svg" xml:space="preserve" viewBox="0 0 512 512"><linearGradient id="a" x1="251.355" x2="251.355" y1="502.411" y2="51.894" gradientTransform="matrix(1 0 0 -1 0 514)" gradientUnits="userSpaceOnUse"><stop offset="0" style="stop-color:#4351e8"/><stop offset="1" style="stop-color:#2a1ea5"/></linearGradient><path d="m128 231.8 58.7 58.8v93H128zm246.7-124.9v267.2c0 5.5-4.5 9.9-10 9.9-2.6 0-5.1-1-7-2.9L128 173.9v-58.6c0-5.5 4.4-9.9 9.9-9.9h.5c2.6 0 5.2 1.1 7 2.9l170.5 147.9V106.9z" style="fill:url(#a)"/><linearGradient id="b" x1="102.883" x2="569.674" y1="105.615" y2="570.174" gradientTransform="matrix(1 0 0 -1 0 514)" gradientUnits="userSpaceOnUse"><stop offset="0" style="stop-color:#4351e8"/><stop offset="1" style="stop-color:#2a1ea5"/></linearGradient><path d="M64 0C28.7 0 0 28.7 0 64v384c0 35.3 28.7 64 64 64h384c35.3 0 64-28.7 64-64V64c0-35.3-28.7-64-64-64zm13.5 45.5c-17.7 0-32 14.3-32 32v357c0 17.7 14.3 32 32 32h357c17.7 0 32-14.3 32-32v-357c0-17.7-14.3-32-32-32z" style="fill-rule:evenodd;clip-rule:evenodd;fill:url(#b)"/></svg>