<svg xmlns="http://www.w3.org/2000/svg" viewBox="0 0 187.63 210.6">
  <path fill="#6366f1" d="M169.71,87.87c-4.77,0-9.1,1.88-12.31,4.92L35.3,22.3c.35-1.4.56-2.86.56-4.37C35.86,8.03,27.83,0,17.93,0S0,8.03,0,17.93c0,8.44,5.84,15.5,13.69,17.4v140c-7.71,2.01-13.41,8.99-13.41,17.33,0,9.9,8.03,17.93,17.93,17.93s17.93-8.03,17.93-17.93c0-1.56-.22-3.07-.6-4.51l121.21-69.98c3.26,3.42,7.86,5.55,12.95,5.55,9.9,0,17.93-8.03,17.93-17.93s-8.03-17.93-17.93-17.93ZM152.78,99.92c-.14.41-.27.83-.38,1.25h-51.47l-44.18-24.72L30.4,30.8c.33-.32.64-.65.94-.99l121.45,70.12ZM22.17,175.2V35.33c.23-.05.45-.11.67-.17l26.35,45.65-.34,50.04-25.74,44.59c-.31-.09-.63-.17-.95-.24ZM31.52,180.69c-.27-.3-.55-.6-.84-.89l25.48-44.13,44.64-25.78h51.47c.07.32.15.63.24.94L31.52,180.69Z"/>
</svg>
