<svg xmlns="http://www.w3.org/2000/svg" xml:space="preserve" viewBox="0 0 512 512"><path d="M64 572.4h384c35.3 0 64 28.7 64 64v384c0 35.3-28.7 64-64 64H64c-35.3 0-64-28.7-64-64v-384c0-35.4 28.7-64 64-64" style="fill:#8f0000" transform="translate(0 -572.36)"/><path d="M104 322.8c0-2.7-2.2-4.9-4.9-4.9H92v3.3h7.1c.9 0 1.7.7 1.7 1.6v4.8c0 .9-.8 1.7-1.7 1.7H92v3.2h7.1c2.7 0 4.9-2.2 4.9-4.9v-2.3c11.3.2 14.6 3.1 18.1 6.2 3.5 3 7.3 6.3 17.4 6.4v1.1c0 2.7 2.2 5 5 5h7.3v-3.5h-7.3c-.9 0-1.6-.6-1.6-1.5v-4.8c0-.9.7-1.6 1.6-1.6h7.3v-3.2h-7.3c-2.7 0-5 2.1-5 4.9v1.1c-9.5 0-12.3-2.7-15.7-5.7-3-2.6-6.4-5.4-14.1-6.5l.2-.2c1.5-1.4 2.3-3 3.1-4.4s1.5-2.6 2.7-3.4c1-.7 2.4-1.2 4.5-1.3v1.1c0 2.7 2.2 5.1 4.9 5.1h19.7c2.7 0 4.9-2.3 4.9-5.1v-4.8c0-2.7-2.2-4.9-4.9-4.9h-19.7c-2.7 0-4.9 2.2-4.9 4.9v1.1c-2.6.1-4.5.7-6 1.7-1.7 1.2-2.7 2.8-3.5 4.3s-1.5 2.8-2.5 3.7c-.9 1-2.1 1.6-4.2 1.8m21.1-14.1h19.7c.9 0 1.6.7 1.6 1.6v4.8c0 .9-.7 1.6-1.6 1.6h-19.7c-.9 0-1.7-.7-1.7-1.6v-4.8c0-1 .8-1.6 1.7-1.6" style="fill:#fff" transform="translate(-786.19 -2522.16)scale(8.545)"/></svg>