<svg xmlns="http://www.w3.org/2000/svg" xml:space="preserve" viewBox="0 0 512 512"><path d="M256 0c141.3 0 256 114.7 256 256S397.3 512 256 512 0 397.3 0 256 114.7 0 256 0m135.4 114.5c0-12-9.7-21.7-21.7-21.7H142.3c-12 0-21.7 9.7-21.7 21.7v283.1c0 12 9.7 21.7 21.7 21.7h227.4c12 0 21.7-9.7 21.7-21.7z" style="fill-rule:evenodd;clip-rule:evenodd;fill:#2a76b7"/><path d="M256 0c141.3 0 256 114.7 256 256S397.3 512 256 512 0 397.3 0 256 114.7 0 256 0m0 5C117.5 5 5 117.5 5 256s112.5 251 251 251 251-112.5 251-251S394.5 5 256 5m140.4 109.5v283.1c0 14.7-11.9 26.7-26.7 26.7H142.3c-14.7 0-26.7-11.9-26.7-26.7V114.5c0-14.7 11.9-26.7 26.7-26.7h227.4c14.7 0 26.7 12 26.7 26.7m-5 0c0-12-9.7-21.7-21.7-21.7H142.3c-12 0-21.7 9.7-21.7 21.7v283.1c0 12 9.7 21.7 21.7 21.7h227.4c12 0 21.7-9.7 21.7-21.7z" style="fill-rule:evenodd;clip-rule:evenodd"/><path d="M455.6 139.1c0-10.2-10-18.5-22.2-18.5H199.9c-12.3 0-22.2 8.3-22.2 18.5v241.1c0 10.2 10 18.5 22.2 18.5h233.6c12.3 0 22.2-8.3 22.2-18.5V139.1z" style="fill:none;stroke:#000;stroke-width:11.13;stroke-linecap:round;stroke-linejoin:round;stroke-miterlimit:1.5" transform="matrix(.97378 0 0 1.17388 -52.328 -48.792)"/><path d="M237.7 334.5c-16.2 13.9-60.3 22.1-60.3 22.1s8.1-44 22.1-60.3c38.4-44.7 208.3-208.1 208.3-208.1 5.3-5.3 13.8-5.3 19 0l19 19c5.3 5.3 5.3 13.8 0 19 .1.1-163.3 170-208.1 208.3" style="fill-rule:evenodd;clip-rule:evenodd;fill:#2a76b7;stroke:#000;stroke-width:14.3395;stroke-linecap:round;stroke-linejoin:round;stroke-miterlimit:2.0722" transform="translate(-30.809 -53.312)scale(1.15573)"/></svg>