<svg xmlns="http://www.w3.org/2000/svg" fill="none" viewBox="94.5 88 312.85 325">

<path d="M398.579 135.841C404.242 141.152 407.35 148.439 407.35 156.355V372.638C407.35 372.725 407.347 372.812 407.343 372.9C407.329 373.178 407.3 373.455 407.3 373.733L407.325 373.859C407.325 386.91 397.107 398.225 384.27 399.798C383.352 399.948 382.433 400.062 381.489 400.125L169.818 412.937C169.151 412.975 168.497 413 167.842 413C167.767 413 167.695 412.994 167.622 412.987C167.55 412.981 167.477 412.975 167.402 412.975C167.251 412.975 167.103 412.981 166.955 412.987C166.807 412.994 166.659 413 166.508 413C158.97 413 151.91 410.231 146.461 405.109C140.559 399.559 137.275 391.944 137.275 383.688V373.405C137.275 371.316 136.872 370.196 134.443 370.196C134.443 370.196 127.786 370.322 127.094 370.322C118.687 370.322 110.822 367.227 104.744 361.513C98.1621 355.32 94.5378 346.837 94.5378 337.638L94.5 136.495C94.5 117.806 109.677 101.658 128.327 100.501L329.264 88.066C338.438 87.4996 347.134 90.5956 353.716 96.7752C360.297 102.955 363.921 111.425 363.921 120.637V126.993C363.921 126.993 363.795 129.12 366.552 129.032L377.563 128.365C385.453 127.861 392.916 130.53 398.579 135.841Z" fill="white"/>
<path d="M128.454 357.071C122.803 357.008 117.782 355.562 113.881 351.924C113.881 351.924 113.868 351.924 113.856 351.899C113.403 351.458 112.975 351.006 112.572 350.552C109.489 347.028 107.815 342.51 107.815 337.627L107.777 136.484C107.777 124.843 117.593 114.397 129.209 113.679L330.12 101.245C330.561 101.22 330.988 101.207 331.429 101.207C336.45 101.207 341.132 103.019 344.706 106.392C345.196 106.858 345.662 107.336 346.09 107.84C346.837 108.692 347.5 109.602 348.08 110.564C347.501 109.609 346.834 108.702 346.09 107.852C349.098 111.351 350.746 115.806 350.746 120.639V125.787C350.746 125.787 350.872 130.003 346.694 130.28L346.719 130.305L161.928 141.884C148.375 142.727 137.364 154.469 137.364 168.049C137.364 168.049 137.288 353.699 137.275 354C137.137 357.071 134.607 357.071 132.518 357.071H128.454Z" fill="black"/>
<path d="M394.126 373.546C394.151 373.244 394.176 372.941 394.176 372.639L394.126 155.274C394.05 154.129 393.861 153.009 393.546 151.939C392.817 149.434 391.457 147.182 389.532 145.382C386.776 142.802 383.177 141.405 379.313 141.405C378.974 141.405 378.633 141.417 378.294 141.443L163.854 154.884C163.779 154.889 163.703 154.902 163.628 154.914C163.527 154.93 163.426 154.947 163.326 154.947C156.505 155.652 150.792 161.617 150.326 168.451C150.301 168.753 150.301 169.043 150.301 169.345V382.318C150.301 382.42 150.307 382.519 150.314 382.616C150.32 382.711 150.326 382.804 150.326 382.896C150.464 387.667 152.365 392.021 155.75 395.205C158.77 398.049 162.646 399.66 166.837 399.875H167.504L381.83 386.899C381.893 386.899 381.956 386.889 382.019 386.88C382.065 386.873 382.111 386.866 382.158 386.862C382.174 386.862 382.191 386.861 382.208 386.861C388.538 385.691 393.684 380.002 394.126 373.546ZM183.927 376.339C176.59 376.855 170.096 374.364 170.297 364.748V215.08C170.297 209.946 174.526 206.661 179.194 206.421L365.747 195.233C370.404 194.994 374.216 198.367 374.216 203.036V352.968C374.216 358.455 372.845 365.516 363.406 365.881H363.381L363.368 365.893L183.927 376.339Z" fill="black"/>
<path d="M227.066 252.787C218.406 253.322 215.462 259.932 215.474 270.09V271.876C214.441 272.119 213.576 272.349 212.53 272.41C206.291 272.799 201.79 267.733 201.778 258.644C201.766 244.744 214.221 231.658 237.952 230.188C259.081 228.875 272.606 239.082 272.631 257.089C272.643 270.636 261.392 280.247 250.311 283.26C271.098 284.282 279.771 295.873 279.795 310.66C279.819 335.97 261.307 350.319 232.722 352.106L232.029 352.154C210.547 353.491 195.465 345.338 195.453 331.255C195.453 323.236 201.327 316.444 210.159 315.897C210.852 315.849 211.545 315.994 212.238 315.946C213.99 330.283 223.697 335.557 233.391 334.961C242.745 334.378 249.325 328.084 249.313 319.165V318.813C249.301 304.901 237.685 304.209 220.193 303.516L217.408 286.93C233.683 283.954 241.82 278.631 241.808 269.008C241.808 258.668 236.067 252.253 227.066 252.811V252.787Z" fill="black"/>
<path d="M305.181 245.959C287.859 250.965 284.041 243.358 285.938 235.388C296.325 232.958 323.341 224.854 333.558 221.196L333.68 327.987L352.57 330.732C352.57 337.683 348.605 342.032 341.501 342.482C335.614 342.846 321.93 343.345 315.349 343.758C305.132 344.39 286.424 345.921 286.424 345.921C285.901 344.524 285.731 343.114 285.731 341.862C285.731 338.472 287.105 334.998 291.606 333.478L305.29 329.056L305.193 245.971L305.181 245.959Z" fill="black"/>
</svg>