<svg xmlns="http://www.w3.org/2000/svg" width="379.06" height="103.05"><defs><linearGradient id="a" x1="37.15" x2="79.91" y1="-101.89" y2="-249.83" gradientTransform="matrix(1 0 0 -1 0 -100.1)" gradientUnits="userSpaceOnUse"><stop offset="0" stop-color="#ef1970"/><stop offset=".14" stop-color="#f23b5c"/><stop offset=".45" stop-color="#f77d35"/><stop offset=".7" stop-color="#fcad18"/><stop offset=".89" stop-color="#fecb07"/><stop offset="1" stop-color="#ffd600"/></linearGradient></defs><path d="M207.55 28.52c-.28-3.87-.78-7.73-1.49-11.55-.21-1.11-.45-2.47-.78-4.44s-.61-3.46-.83-4.51-.45-2-.68-2.85c-.17-.92-.59-1.77-1.22-2.46a4.6 4.6 0 0 0-1.61-1c-.65-.2-1.32-.3-2-.28-.78 0-3.16 0-4.16 1.74-.39.67-.74 1.81-.74 5.57-.02.83.02 1.66.14 2.48l.14 1.12c.18 1.76.48 3.5.89 5.22.03.12.07.24.12.35.02.46.07.91.15 1.36.1.84.29 1.67.56 2.47.19.58.29 1.18.3 1.78.48 5.45.35 6.88.3 7.28-.15.06-.32.08-.48.07-1.4 0-15.06 4-18.61 6.36a22.2 22.2 0 0 0-7.78 8c-1.7 3.22-2.22 21.56-2.22 21.74-.09 4.22.64 6.82 2.27 8.14l.32.35c3.06 3.44 7.28 5.64 11.85 6.2 4.8.64 9.64.88 14.48.73h5.36l7.36-2.4-.24-14c-.04-6.47-.51-27.45-1.4-37.47m-8.8 37.61c-.11.88-.2 1.55-.27 2-.06.34-.15.68-.28 1-.07.17-.13.29-.14.33l-.24.1c-.26.09-.53.14-.8.15h-1.84c-3.35-.11-6.67-.59-9.91-1.43-2.01-.39-3.98-.99-5.88-1.77-.8-1.88 1.22-16 6.72-20.09s8.27-4.54 9.65-4.11c.38.12 1.54.48 2.33 3 .2 1 .41 7.6.52 11.15.08 2.47.14 4.51.19 5.14.14 1.51.12 3.03-.05 4.53M242.72 26.41a8.2 8.2 0 0 0-2.47 3.56v.06c-.71 2.03-1.58 4-2.6 5.89-.82 1.47-1.29 3.11-1.38 4.79-.04.43-.15.86-.32 1.26-.13.41-.32.8-.55 1.17l-.44-.28c-.87-.65-1.71-1.34-2.5-2.09-1-1-2.35-2.29-4-4-7.07-7.19-11.28-9.75-14.07-8.62-1.59.65-2.4 2.31-2.4 4.94 0 1.63.85 3.69 2.61 6.27 2.35 3.28 4.9 6.4 7.64 9.36 5.21 5.9 8.73 7.54 10.36 8.23.03 1.48-.1 2.95-.37 4.4-.53 1.72-1.16 3.41-1.89 5.06a42 42 0 0 0-2.5 6.39 20.2 20.2 0 0 0-1.06 5.49c0 2.11.3 3.41 1 4.22.65.73 1.6 1.12 2.57 1.06.41 0 .81-.04 1.21-.13 1.07-.15 2.09-.53 3-1.1.89-.5 1.63-1.25 2.12-2.15.18-.34.58-1.13 1.19-2.37s1-2.08 1.24-2.56c.85-1.73 1.49-3.55 1.92-5.43.7-2.58 1.34-5.32 1.88-8.11s1.44-6 2.48-9.67 2-6.73 2.85-9.09c1.16-3.07 2-5.52 2.56-7.5.52-1.69.82-3.44.88-5.21a5.06 5.06 0 0 0-1.35-3.85c-1.78-1.57-5.51-1.57-7.61.01M288.25 27.03c-.36-.39-.81-.69-1.31-.87-.44-.19-.91-.32-1.39-.39-.33 0-.87-.08-1.61-.12s-1.39-.06-2-.08-1.56 0-2.75 0c-6 0-10.18.83-12.84 2.55a17.33 17.33 0 0 0-7.18 8.16c-1.41 3.3-2.13 7.74-2.13 13.17l-.12 10.68 11 3.6c3.51 1.15 5.37 1.87 6.35 2.3-.84.32-1.71.56-2.6.73-1.72.38-3.48.57-5.24.57-1.63-.03-3.25.04-4.87.21a4.9 4.9 0 0 0-3.01 1.18c-.71.8-1.07 1.86-1 2.93 0 1.71.83 3.32 2.22 4.32 1.46 1.05 3.16 1.74 4.94 2 1.56.27 3.14.41 4.73.4h1.2c2.2-.1 4.39-.48 6.49-1.14 2.08-.62 4.05-1.57 5.84-2.8a13.3 13.3 0 0 0 3.76-3.92c.78-1.55 1.14-3.27 1.06-5 .16-2.81-1-5.54-3.14-7.37-1.87-1.5-5.33-3-10.56-4.44-5.54-1.67-6.51-2.49-6.7-2.71s-.7-1.29.68-4.65a23 23 0 0 1 5.14-7.64c2.55-2.54 3.78-3.27 4.28-3.48s1.66-.46 4.33-.08c1 .15 1.77.25 2.27.3.59.05 1.17.05 1.76 0 .56-.02 1.1-.15 1.61-.37.55-.29.98-.76 1.24-1.33.25-.49.39-1.03.42-1.58v-2.54c0-.48-.09-.95-.26-1.4-.13-.43-.33-.84-.61-1.19M333.32 33.7c-.25-.67-.59-1.32-1-1.91-.48-.72-1.03-1.39-1.64-2l-1.61-1.68a19.7 19.7 0 0 0-5.45-4.2 16.7 16.7 0 0 0-6.49-1c-4.01-.09-7.96 1.04-11.31 3.24a30.7 30.7 0 0 0-6.52 5.73 18 18 0 0 0-3.4 6.7c-.77 3.15-1.2 6.36-1.29 9.6-.57 10.37 1.22 18.06 5.31 22.88 3.78 4.44 9.71 6.69 17.69 6.69.81 0 1.64 0 2.49-.07l3.38-.25c.82-.06 1.63-.17 2.43-.32.69-.09 1.36-.28 2-.56.53-.27.98-.66 1.33-1.14.4-.5.66-1.11.74-1.75.05-.53.08-1.06.07-1.59 0-1.39-.17-3.34-1.63-4.21-.67-.39-1.77-.68-5.28-.24-3.1.31-6.23-.28-9-1.7a13.3 13.3 0 0 1-6.38-5.67l-.84-1.58 5.84-.64c2.72-.2 5.4-.72 8-1.56a27.4 27.4 0 0 0 6.56-3.33c1.4-1 2.42-1.75 3.07-2.31a8.7 8.7 0 0 0 2-2.56c.52-.96.88-1.99 1.05-3.07.13-.87.26-2.23.37-4.08q.12-1.875.12-3 0-1.185-.15-2.37c-.09-.7-.24-1.38-.46-2.05m-25.44 11.38-1.68-1.74 4.24-4.11a31.5 31.5 0 0 1 4.11-3.63c.64-.46 1.31-.89 2-1.27.56.21 1.07.53 1.52.92 1.08.82 2.06 1.76 2.93 2.8l2.54 3-2.26 2c-1.05.87-2.22 1.59-3.48 2.14-1.27.63-2.61 1.1-4 1.4-1.2.28-2.44.33-3.66.14-.89-.33-1.67-.9-2.26-1.65M378.9 38.87c-.08-.68-.22-1.35-.43-2-.24-.68-.58-1.33-1-1.92-.42-.64-.89-1.24-1.42-1.8l-1.82-1.91a19.8 19.8 0 0 0-5.46-4.2c-2.07-.76-4.28-1.1-6.48-1a19.86 19.86 0 0 0-11.32 3.24c-2.42 1.59-4.61 3.5-6.51 5.69a18.2 18.2 0 0 0-3.4 6.7c-.77 3.14-1.2 6.36-1.28 9.6-.57 10.37 1.21 18.07 5.31 22.88 3.77 4.44 9.71 6.69 17.68 6.69.81 0 1.64 0 2.49-.07l3.39-.25c.82-.06 1.63-.16 2.43-.32.69-.09 1.36-.28 2-.55.53-.27.99-.66 1.34-1.14.4-.51.66-1.12.74-1.76.05-.53.08-1.06.07-1.59 0-1.39-.17-3.34-1.64-4.21-.67-.39-1.77-.68-5.27-.24-3.1.32-6.23-.27-9-1.7a13.27 13.27 0 0 1-6.37-5.67l-.85-1.57 5.85-.65c2.72-.2 5.41-.72 8-1.56a27.4 27.4 0 0 0 6.56-3.33c1.4-1 2.43-1.75 3.07-2.3a8.7 8.7 0 0 0 2-2.56c.5-.96.84-2.01 1-3.08.13-.87.26-2.23.37-4.08.08-1.25.11-2.24.11-3 0-.78-.06-1.56-.16-2.34m-25.86 9.34-1.68-1.74 4.19-4.11c1.28-1.32 2.67-2.54 4.15-3.63.64-.46 1.31-.88 2-1.26a5 5 0 0 1 1.52.91c1.07.82 2.05 1.76 2.92 2.8l2.55 3-2.27 2c-1.06.87-2.22 1.59-3.47 2.14-1.27.62-2.62 1.09-4 1.39-1.2.29-2.44.34-3.66.14-.89-.33-1.67-.89-2.25-1.64M127.2 33.26a21.4 21.4 0 0 1 5.44-1c2.74-.27 5.5-.41 8.25-.4 4.56 0 7.65.16 9.28.62 2.08.72 3.97 1.92 5.51 3.49a16.3 16.3 0 0 1 3.68 5.32c.93 2.62 1.51 5.35 1.73 8.12.66 5.09.5 10.25-.46 15.29-.95 4.92-2.39 7.92-4.3 9-2.6 1.54-5.09 3.28-7.43 5.2a13.3 13.3 0 0 1-5 2.69 22.2 22.2 0 0 1-6.71-.09c-2.48-.37-4.89-1.14-7.13-2.26a28.5 28.5 0 0 1-6.51-5.22q-1.89-1.86-2.7-2.7c-.65-.69-1.23-1.43-1.73-2.23-.46-.66-.86-1.37-1.17-2.12-.26-.85-.45-1.73-.56-2.61-.18-1.12-.28-2.26-.29-3.4v-4.84c0-12.68 3.37-20.3 10.1-22.86m20 8.79c-3.02-2.87-4.91-4.3-5.66-4.3-1.62 0-3.68 1-6.19 2.83-2.37 1.7-4.42 3.8-6.07 6.2-2.53 3.69-3.67 7.02-3.42 10s1.95 6.18 5.1 9.61l5.23 5.67 6.41-2.93c3.51-1.42 6.48-3.93 8.45-7.16 1.79-3.01 2.4-6.57 1.71-10-.78-3.8-2.71-7.26-5.54-9.92z" style="fill:#fff"/><rect width="103.05" height="103.05" rx="51.52" ry="51.52" style="fill:url(#a)"/></svg>