<svg xmlns="http://www.w3.org/2000/svg" id="Layer_1" data-name="Layer 1" version="1.1" viewBox="0 0 103.3 103.3"><defs id="defs293"><linearGradient id="linear-gradient" x1="37.9" x2="110.84" y1="5.54" y2="180.15" gradientTransform="translate(-9 -8.35)" gradientUnits="userSpaceOnUse"><stop id="stop280" offset="0" stop-color="#ef1970"/><stop id="stop282" offset=".14" stop-color="#f23b5c"/><stop id="stop284" offset=".44" stop-color="#f77d35"/><stop id="stop286" offset=".7" stop-color="#fcad18"/><stop id="stop288" offset=".89" stop-color="#fecb07"/><stop id="stop290" offset="1" stop-color="#ffd600"/></linearGradient><style id="style278">.cls-2{fill:#fff}.cls-4{fill:#f9f9f9}</style></defs><circle id="circle297" cx="51.65" cy="51.65" r="51.65" style="fill:url(#linear-gradient)"/><path id="path299" d="M11.92 38.22a.95.95 0 1 0-.3 1.31.95.95 0 0 0 .3-1.31" class="cls-2"/><path id="path301" d="M67.44 13.37a.95.95 0 1 0-.3 1.31.95.95 0 0 0 .3-1.31" class="cls-2"/><path id="path303" d="M78.91 50.65a1.11 1.11 0 1 0 1.33-.84 1.11 1.11 0 0 0-1.33.84" class="cls-2"/><path id="path305" d="M62.35 87.65a.86.86 0 1 0 1-.65.86.86 0 0 0-1 .65" class="cls-2"/><path id="path307" d="M19.18 21.16a.52.52 0 1 0 .63-.39.52.52 0 0 0-.63.39" class="cls-2"/><path id="path309" d="M21.86 69.96a.73.73 0 1 0-.59.85.73.73 0 0 0 .59-.85" class="cls-2"/><path id="path311" d="M43.75 10.14s-8.16 2.24-7.53 10.89c.56 7.67 4.65 11.85 13.14 8.65s9.93-5.45 7.85-11.85-4.49-10.73-13.46-7.69" style="fill:none"/><path id="path313" d="M91.45 83.65c-.32-.6-6.45-10-7.21-17.9-.56-5.47-7.71-11.54-12-14.73a3.11 3.11 0 0 1-.24-4.75c4.23-4 11.69-11.8 14.05-15.92a31.3 31.3 0 0 0 3.44-13.89 52 52 0 0 0-9.82-8.22c-3.48 1.72-4.42 7.07-5.95 13.3-2.08 8.49-7 7.53-9 7.53s-.8-3-5.45-16.34-16.74-10-25.93-4.5c-11.68 7-6.47 21.93-3.58 31.55-1.64 1.58-7.81 2.81-13.42 5.83C9.39 49.35 2.28 55.36.43 58.12a51.3 51.3 0 0 0 2.62 11 5.9 5.9 0 0 0 1.38.95c3.29 1.53 8.13-1.09 12.71-5.84a23.3 23.3 0 0 1 4.57-3.53 49 49 0 0 1 11.77-5.53s4.49 6.89 8.65 15.06-4.49 10.89-5.45 10.89-14.59-1.27-11.55 10.26 19.7 7.37 28.19 1.76 6.41-23.87 6.41-23.87c8.33-1.28 10.89 7.53 11.69 12s-1 12.33 7.37 12.5a10.5 10.5 0 0 0 3.47-.54A52 52 0 0 0 91 85.06a2.9 2.9 0 0 0 .45-1.41m-42.09-54c-8.49 3.2-12.58-1-13.14-8.65-.63-8.65 7.53-10.89 7.53-10.89 9-3 11.37 1.28 13.46 7.69s.64 8.68-7.85 11.85" class="cls-2"/><path id="polygon315" d="m97.44 50.39-1.17-2.32-2.55-.53 2.32-1.17.52-2.55 1.18 2.32 2.55.52-2.32 1.18z" class="cls-2" transform="translate(-9 -8.35)"/><path id="path329" d="M54.25 19.36a5.4 5.4 0 0 1 .38 3.6" class="cls-4"/><path id="path331" d="M54.63 24.06h-.21a1.09 1.09 0 0 1-.86-1.27 4.36 4.36 0 0 0-.31-3 1.09 1.09 0 0 1 2-.84 6.46 6.46 0 0 1 .44 4.23 1.09 1.09 0 0 1-1.06.88" class="cls-2"/><path id="path333" d="M51.56 13.33a6.1 6.1 0 0 1 .81 1.24" class="cls-4"/><path id="path335" d="M52.36 15.65a1.09 1.09 0 0 1-1-.56 6.7 6.7 0 0 0-.64-1 1.1 1.1 0 0 1 0-1.52 1.07 1.07 0 0 1 1.49 0 6.8 6.8 0 0 1 1 1.49 1.09 1.09 0 0 1-.85 1.59" class="cls-2"/></svg>