<svg xmlns="http://www.w3.org/2000/svg" xml:space="preserve" id="Layer_1" x="0" y="0" version="1.1" viewBox="0 0 512 512"><style>.st3{fill:#fff}</style><linearGradient id="SVGID_1_" x1="-61.564" x2="-50.896" y1="647.145" y2="647.145" gradientTransform="matrix(0 -47.9946 -47.9946 0 31315.484 -2442.74)" gradientUnits="userSpaceOnUse"><stop offset="0" style="stop-color:#e37200"/><stop offset="1" style="stop-color:#e3913e"/></linearGradient><path d="M0 256c0 141.4 114.6 256 256 256s256-114.6 256-256S397.4 0 256 0 0 114.6 0 256" style="fill:url(#SVGID_1_)"/><path d="M4975.5-3642c46.3 21.8 91.6 45.8 139 64.9 86.4 34.9 177.2 52 269.9 58.6 198.3 14.1 382.3-33.2 552.1-134.5 43.5-25.9 86.5-54 123.1-90.8 318.2-319.2 637.8-637.2 955.6-956.9 59.7-60 104.5-132.3 141.8-208.3 92.9-189 111.8-388.8 73.8-593.3-23.1-123.9-71.7-238.9-146.4-342.9-62-86.4-135.7-158.2-220-222.9-117.2-89.9-248.6-141.5-391.4-166.3-127.7-22.2-254.9-15.5-381.8 15.2-119 28.9-223.2 87.1-325.6 150.2-12.9 8-23.5 20-34.7 30.6-22.5 21.3-45 42.4-66.8 64.3-291.5 291.3-582.7 583-874.5 874-56.6 56.5-103.2 119.8-145 187.6-70.2 113.9-106.7 239.1-120.4 369.9-15.5 147.4.7 292.9 56.1 431.8 18.9 47.4 43.2 92.5 65.1 138.7l363.1-362.8c-26.8-40.9-27-88.6-23.4-133 9.8-121 55.1-226.4 143.6-314.1 287.4-284.8 572.9-571.4 858.4-858 38.5-38.7 82.1-67 130.5-92.7 212.1-112.7 485-10.7 594.1 167.8 105.2 172.2 97.8 414.5-66.8 579.2-287.8 288-576.1 575.5-863.5 863.9-118.8 119.2-263.2 151.5-424.4 129.9-6.5-.9-12.2-8.6-18.2-13.2zm-415.4-245.1c-57.2-28.4-113.6-58.4-174.9-78.2-196.9-63.5-393.3-63.6-590.7-1-137.2 43.5-255.2 117-356.5 218.2-297 296.7-593 594.3-890.8 890.2-141.8 141-221.8 313.1-252 506.9-35.2 226 9.3 441 132.3 633.4 113 176.6 267.6 306.6 469.3 378.6 167.3 59.8 337.5 69.6 508.5 36.1 125.7-24.6 244.2-72.5 348.8-153 47.1-36.2 91.2-74.4 132.8-116 289.7-289.4 578.4-579.8 869.1-868.2 116.3-115.4 189.5-254.6 230.4-410.1 46.8-177.8 41.8-356.7-18.9-531.4-20.9-60.1-51.3-117-77.4-175.3L4527-3194.1c28.1 32.1 24 74.2 22.9 109.8-3.9 126.5-44.9 239.4-137.6 331.5-288.5 286.8-575.6 574.8-863 862.7-27.3 27.4-57.9 49.4-90.3 70.6-226.7 148.2-539.8 51.5-657.4-182.6-94.1-187.4-41.6-413.6 86.1-539.7 291.3-287.6 579.9-577.8 868.6-868 89.8-90.3 199.7-131 323.7-138.8 40.4-2.6 81.8-1.3 117 24.7z" style="fill:#333" transform="matrix(.05417 0 0 -.05417 -3.9 51.68)"/><path d="m4527.2-3194 363.1-362.8 85.2-85.3 363.2-363c19.6-20.4 38.9-41 58.9-61 172.7-172.9 345.8-345.4 518-518.7 21.5-21.6 43.5-44.8 57.5-71.3 51.8-98.2 33.1-193.2-45.7-273.8-69.6-71.3-150.3-81.1-240.9-53.4-38.6 11.8-66.1 38-93.6 65.5-194.7 194.5-389.7 388.7-584.6 583L4645.2-3972c-28.4 28.3-56.7 56.6-85.1 84.9l-362.8 363.4c-21.5 22.1-42.8 44.5-64.6 66.3-125.4 125.6-251.2 250.7-376.1 376.8-19.6 19.8-39.3 41.4-52.1 65.8-48.5 91.8-23.9 205.6 44.2 269.1 82.8 77.3 194.6 93.6 289.1 32.8 21.3-13.7 39.2-33 57.4-51 144.2-143.3 288.1-286.7 432-430.1" style="fill:#232323" transform="matrix(.05417 0 0 -.05417 -3.9 51.68)"/><path d="M265.623 248.967c2.508-1.18 4.962-2.48 7.53-3.515 4.68-1.891 9.598-2.817 14.62-3.175 10.742-.764 20.71 1.799 29.907 7.286 2.357 1.403 4.686 2.925 6.669 4.919 17.236 17.29 34.55 34.517 51.764 51.835 3.234 3.25 5.661 7.167 7.682 11.284 5.032 10.238 6.056 21.06 3.997 32.139a46 46 0 0 1-7.93 18.574c-3.359 4.68-7.35 8.57-11.917 12.075-6.35 4.87-13.467 7.665-21.203 9.008-6.917 1.203-13.808.84-20.682-.823-6.446-1.565-12.09-4.718-17.637-8.136-.7-.434-1.273-1.084-1.88-1.658-1.219-1.154-2.438-2.297-3.619-3.483-15.79-15.78-31.565-31.581-47.371-47.345-3.066-3.06-5.59-6.49-7.855-10.162-3.803-6.17-5.78-12.952-6.522-20.037-.84-7.985.038-15.867 3.039-23.391 1.024-2.568 2.34-5.01 3.526-7.513l19.67 19.653c-1.452 2.215-1.463 4.799-1.268 7.204.53 6.555 2.985 12.264 7.779 17.015 15.568 15.428 31.034 30.953 46.5 46.478 2.085 2.096 4.447 3.63 7.068 5.021 11.49 6.105 26.273.58 32.183-9.09 5.698-9.327 5.298-22.453-3.619-31.375-15.59-15.6-31.207-31.174-46.776-46.797-6.435-6.457-14.257-8.207-22.99-7.037-.351.049-.66.466-.985.715zm-22.502 13.277c-3.099 1.539-6.154 3.164-9.475 4.236-10.666 3.44-21.305 3.446-31.998.054-7.432-2.356-13.824-6.337-19.312-11.82-16.088-16.072-32.122-32.193-48.254-48.222-7.681-7.638-12.015-16.96-13.651-27.458-1.907-12.243.504-23.89 7.167-34.312 6.12-9.566 14.496-16.608 25.422-20.508 9.062-3.24 18.282-3.77 27.545-1.956 6.81 1.333 13.228 3.927 18.895 8.288a73 73 0 0 1 7.193 6.284c15.693 15.677 31.332 31.408 47.08 47.03 6.3 6.251 10.265 13.792 12.48 22.215 2.535 9.632 2.265 19.323-1.024 28.786-1.132 3.256-2.778 6.338-4.192 9.496l-19.67-19.653c1.523-1.738 1.3-4.019 1.241-5.947-.211-6.853-2.432-12.969-7.454-17.958-15.628-15.536-31.18-31.137-46.748-46.732-1.48-1.485-3.137-2.676-4.892-3.825-12.28-8.028-29.24-2.79-35.611 9.892-5.098 10.151-2.254 22.404 4.664 29.235 15.78 15.58 31.413 31.3 47.052 47.02 4.864 4.891 10.818 7.096 17.535 7.519 2.188.14 4.43.07 6.337-1.338z" class="st3"/><path d="m4527.2-3194 363.1-362.8 85.2-85.3 363.2-363c19.6-20.4 38.9-41 58.9-61 172.7-172.9 345.8-345.4 518-518.7 21.5-21.6 43.5-44.8 57.5-71.3 51.8-98.2 33.1-193.2-45.7-273.8-69.6-71.3-150.3-81.1-240.9-53.4-38.6 11.8-66.1 38-93.6 65.5-194.7 194.5-389.7 388.7-584.6 583L4645.2-3972c-28.4 28.3-56.7 56.6-85.1 84.9l-362.8 363.4c-21.5 22.1-42.8 44.5-64.6 66.3-125.4 125.6-251.2 250.7-376.1 376.8-19.6 19.8-39.3 41.4-52.1 65.8-48.5 91.8-23.9 205.6 44.2 269.1 82.8 77.3 194.6 93.6 289.1 32.8 21.3-13.7 39.2-33 57.4-51 144.2-143.3 288.1-286.7 432-430.1" style="fill:#bfbfbf" transform="matrix(.05417 0 0 -.05417 -3.9 51.68)"/><path d="m331.824 183.996-26.933 26.933-3.045.292-3.163-3.163c.027-1.013.06-2.15.092-3.234l26.37-26.37c1.804-.92 3.488-.97 5.032.228 1.658 1.289 2.167 3.028 1.647 5.314m17.389 38.525 1.05 3.82-2.665 3.12c-3.613.552-31.933.71-38.352.243l-3.11-3.11.764-3.737c1.663-1.636 3.337-1.96 5.152-1.96q16.04.017 32.08-.006c1.646 0 3.174.341 5.08 1.63m-69.348-59.733 2.519-2.519c2.178-.574 4.274-.644 6.078 1.853.087.79.314 1.94.314 3.087.027 11.132.016 22.259.006 33.39 0 .727-.114 1.453-.174 2.13-1.24 2.291-3.125 3.017-5.736 2.632l-2.964-2.963c-.08-12.275-.021-24.847-.043-37.61" class="st3"/></svg>