<svg xmlns="http://www.w3.org/2000/svg" viewBox="334.81 63.44 154.7 159.05">
  <defs>
    <style type="text/css">
	.st0{fill:#3EB4E4;}
	.st1{font-family:'Helvetica';}
	.st2{font-size:14px;}
	.st3{fill:#FFFFFF;}
	.st4{fill:none;stroke:#000000;stroke-width:0.5;stroke-miterlimit:10;}
</style>
  </defs>
  <g>
    <path d="M489.51,137.43c0-15.03-4.3-29.06-11.72-40.93c-4.5-7.2-10.14-13.61-16.69-18.97c-1.8,7.66-5.34,14.65-10.2,20.52 c-9.23,11.15-23.17,18.26-38.74,18.26s-29.51-7.12-38.74-18.26c-4.86-5.87-8.4-12.86-10.2-20.52 c-6.55,5.36-12.19,11.77-16.69,18.97c-7.42,11.87-11.72,25.9-11.72,40.93c0,31.77,19.16,59.06,46.56,70.96 c-0.37-1.92-0.57-3.89-0.57-5.91c0-6.1,1.75-11.79,4.78-16.61c-17.09-9.41-28.69-27.6-28.69-48.45c0-7.21,1.4-14.1,3.93-20.43 c13.11,13.2,31.27,21.39,51.35,21.39s38.24-8.18,51.35-21.39c2.53,6.32,3.93,13.21,3.93,20.43c0,20.85-11.6,39.03-28.69,48.45 c3.02,4.82,4.78,10.51,4.78,16.61c0,2.02-0.2,4-0.57,5.91C470.35,196.49,489.51,169.2,489.51,137.43z" fill="white"/>
  </g>
  <g>
    <g>
      <circle class="st0" cx="412.16" cy="205.84" r="16.65"/>
      <g>
        <path class="st0" d="M379.17,70.82c0.75,17.57,15.23,31.59,32.99,31.59s32.24-14.02,32.99-31.59 c-10.01-4.73-21.19-7.38-32.99-7.38S389.18,66.09,379.17,70.82z"/>
      </g>
    </g>
  </g>
</svg>