<svg xmlns="http://www.w3.org/2000/svg" xml:space="preserve" viewBox="-0.91 26.1 512.26 458.88"><path d="M260.163 362.747c25.884 0 46.655-10.865 46.655-24.286s-20.771-13.421-46.655-13.421-46.655 0-46.655 13.421 21.09 24.286 46.655 24.286"/><path d="M456.689 222.948c-30.678 0-55.283 24.925-55.283 55.283 0 17.895 8.308 33.553 21.41 43.779-26.204 65.509-90.434 111.524-164.89 111.524-37.068 0-71.9-11.504-100.34-30.996 7.35-12.463 11.504-26.843 11.504-42.501 0-46.655-37.708-84.362-84.362-84.362h-3.516c-.639-6.711-1.278-13.422-1.278-20.132 0-29.719 7.35-57.84 20.132-82.445 30.358-63.272 96.506-107.37 173.518-107.37 70.941 0 132.615 37.387 165.53 92.67-4.155 4.474-7.031 10.546-7.031 17.256 0 13.741 11.184 24.606 24.606 24.606s24.605-11.185 24.605-24.606c0-11.823-7.989-21.41-19.173-23.966-2.876-5.752-6.072-11.185-9.267-16.617 8.947-9.906 14.38-23.008 14.38-37.388 0-31.316-25.564-56.88-56.88-56.88-15.02 0-28.76 6.07-38.986 15.658-33.554-19.174-72.54-30.358-114.081-30.358-40.584 0-78.61 10.545-111.844 29.08-9.906-8.948-23.008-14.38-37.708-14.38-31.316 0-56.88 25.244-56.88 56.88 0 13.421 4.474 25.564 12.143 35.151-22.688 35.47-35.79 77.652-35.79 123.028 0 13.102 1.278 26.204 3.195 38.666C11.23 309.867-.913 333.514-.913 360.037c0 46.655 37.707 84.362 84.362 84.362 11.824 0 23.008-2.556 33.554-7.03 38.666 30.038 87.238 47.614 139.964 47.614 100.34 0 185.661-64.87 216.978-154.665 21.73-7.35 37.387-28.12 37.387-52.406.64-30.039-24.286-54.964-54.643-54.964"/><path d="M192.433 225.185c10.225-5.433 22.688-1.278 28.12 8.947.32.64.64 1.598.96 2.237 3.834-26.203-3.836-48.892-20.133-54.005-19.493-6.071-43.46 14.7-53.685 46.975-10.226 31.955-2.556 62.952 16.936 69.024 17.576 5.432 38.667-11.185 50.17-38.027l-2.876 1.917c-10.225 5.432-22.688 1.278-28.12-8.948-5.433-10.225-1.598-22.688 8.628-28.12m163.58 73.177c19.492-6.071 26.842-37.068 16.936-69.023-10.226-31.956-34.192-53.046-53.685-46.975-16.297 5.113-24.286 27.802-20.132 54.005.32-.64.64-1.598.959-2.237 5.432-10.226 17.895-14.06 28.12-8.947 10.226 5.432 14.06 17.895 8.948 28.12-5.433 10.226-17.895 14.06-28.12 8.948l-2.877-1.917c11.185 26.842 32.275 43.459 49.85 38.026"/></svg>