<svg xmlns="http://www.w3.org/2000/svg" xml:space="preserve" id="Layer_1" x="0" y="0" version="1.1" viewBox="42.59 0 426.86 511.97"><style>.st0{fill:#00ace2}</style><path d="M255.913 267.323c-19.226-.324-34.995 14.906-35.32 34.131-.323 19.226 14.906 34.996 34.132 35.32h1.296c19.226-.324 34.455-16.202 34.131-35.32-.432-18.793-15.553-33.807-34.24-34.13M42.594 88.673l36.184 36.184C125.76 77.766 189.487 51.411 256.02 51.52c66.534-.108 130.26 26.355 177.244 73.34l36.184-36.184C414.796 34.022 339.297-.001 256.02-.001c-83.384 0-158.883 34.023-213.428 88.676" class="st0"/><path d="m107.831 153.913 36.184 36.183c29.702-29.703 69.99-46.444 112.006-46.444s82.304 16.633 112.006 46.444l36.184-36.183C366.299 116 313.806 92.239 256.02 92.239s-110.278 23.762-148.19 61.674" class="st0"/><path d="m172.637 218.827 36.184 36.183c26.03-26.03 68.262-26.03 94.292 0l36.184-36.183c-22.034-22.142-52.061-34.455-83.276-34.347-32.295-.108-61.782 13.069-83.384 34.347" class="st0"/><path d="M567.9 1.5c18.3-25 28.2-55.3 28.2-86.3 0-81.1-66-147-147-147-81.1 0-147 66-147 147 0 32.2 10.5 62 28.2 86.3l-33.8 33.8c-27.1-34.2-41.8-76.5-41.7-120.1 0-107 87.3-194.3 194.3-194.3s194.3 87.3 194.3 194.3c0 45.3-15.8 87-41.7 120.1z" style="fill:#002843" transform="matrix(1.0801 0 0 -1.0801 -229.16 210.51)"/></svg>