<svg xmlns="http://www.w3.org/2000/svg" xml:space="preserve" id="svg4578" x="0" y="0" version="1.1" viewBox="0 -0.05 512 512"><style>.st2{fill:#fff}</style><g id="layer1" transform="translate(-130.696 -505.148)"><path d="M631.2 1017.1h-489c-6.4 0-11.5-5.1-11.5-11.5v-489c0-6.4 5.1-11.5 11.5-11.5h489c6.4 0 11.5 5.1 11.5 11.5v489c0 6.4-5.2 11.5-11.5 11.5" style="fill:#5dacdf"/><g id="g4145"><path id="rect3772-1-2-9-1-9" d="M187.7 573.5h398c4.1 0 7.4 3.3 7.4 7.4v360.4c0 4.1-3.3 7.4-7.4 7.4h-398c-4.1 0-7.4-3.3-7.4-7.4V581c0-4.1 3.3-7.5 7.4-7.5z" style="fill:none;stroke:#fff;stroke-width:4.7859"/><g id="g4372" transform="translate(-228.617 -1077.89)scale(2.34953)"><path id="path23-4-1-6-9-0" d="M197 724.4c-1.5 0-2.8 1.1-2.8 2.6v28.3c0 1.4 1.2 2.6 2.8 2.6h129.8c1.5 0 2.8-1.2 2.8-2.6V727c0-1.4-1.2-2.6-2.8-2.6zm15.8 6.8c5.5 0 9.9 4.5 9.9 9.9 0 5.5-4.5 9.9-9.9 9.9-5.5 0-9.9-4.5-9.9-9.9-.1-5.5 4.4-9.9 9.9-9.9m0 4.7c-2.9 0-5.2 2.3-5.2 5.2s2.3 5.2 5.2 5.2 5.2-2.3 5.2-5.2-2.4-5.2-5.2-5.2" class="st2"/><path id="path23-4-1-8-7-5" d="M197 766c-1.5 0-2.8 1.1-2.8 2.6v28.3c0 1.4 1.2 2.6 2.8 2.6h129.8c1.5 0 2.8-1.2 2.8-2.6v-28.3c0-1.4-1.2-2.6-2.8-2.6zm15.8 6.8c5.5 0 9.9 4.5 9.9 9.9 0 5.5-4.5 9.9-9.9 9.9-5.5 0-9.9-4.5-9.9-9.9-.1-5.5 4.4-9.9 9.9-9.9m0 4.7c-2.9 0-5.2 2.3-5.2 5.2s2.3 5.2 5.2 5.2 5.2-2.3 5.2-5.2c0-2.8-2.4-5.2-5.2-5.2" class="st2"/><path id="path23-4-1-8-3-8-73" d="M197 807.6c-1.5 0-2.8 1.1-2.8 2.6v28.3c0 1.4 1.2 2.6 2.8 2.6h129.8c1.5 0 2.8-1.2 2.8-2.6v-28.3c0-1.4-1.2-2.6-2.8-2.6zm15.8 6.8c5.5 0 9.9 4.5 9.9 9.9 0 5.5-4.5 9.9-9.9 9.9-5.5 0-9.9-4.5-9.9-9.9-.1-5.5 4.4-9.9 9.9-9.9m0 4.7c-2.9 0-5.2 2.3-5.2 5.2s2.3 5.2 5.2 5.2 5.2-2.3 5.2-5.2c0-2.8-2.4-5.2-5.2-5.2" class="st2"/></g></g></g></svg>