<?xml version="1.0" encoding="UTF-8"?>
<!DOCTYPE svg PUBLIC "-//W3C//DTD SVG 1.1//EN" "http://www.w3.org/Graphics/SVG/1.1/DTD/svg11.dtd">
<svg xmlns="http://www.w3.org/2000/svg" version="1.1" width="1769px" height="363px" style="shape-rendering:geometricPrecision; text-rendering:geometricPrecision; image-rendering:optimizeQuality; fill-rule:evenodd; clip-rule:evenodd" xmlns:xlink="http://www.w3.org/1999/xlink">
<g><path style="opacity:1" fill="#f6f4f4" d="M 159.5,-0.5 C 161.833,-0.5 164.167,-0.5 166.5,-0.5C 168.333,1.49566 168.833,3.829 168,6.5C 153.818,36.9075 146.985,68.9075 147.5,102.5C 174.16,104.34 198.16,113.173 219.5,129C 224.746,133.575 229.246,138.742 233,144.5C 261.585,106.908 296.085,76.0744 336.5,52C 368.068,35.0246 401.734,26.6913 437.5,27C 447.177,27.2559 455.011,31.0892 461,38.5C 463.129,43.662 463.796,48.9953 463,54.5C 461.793,59.288 460.293,63.9547 458.5,68.5C 457.833,68.5 457.5,68.8333 457.5,69.5C 454.143,73.5346 451.143,77.8679 448.5,82.5C 447.833,82.5 447.5,82.8333 447.5,83.5C 447.5,83.8333 447.5,84.1667 447.5,84.5C 439.221,92.6028 429.721,98.9361 419,103.5C 414.984,127.679 401.151,142.679 377.5,148.5C 376.948,150.331 376.948,151.997 377.5,153.5C 390.178,144.932 404.011,141.932 419,144.5C 426.231,139.107 434.065,134.774 442.5,131.5C 452.508,127.253 462.841,126.42 473.5,129C 482.896,133.951 487.563,141.784 487.5,152.5C 485.611,168 480.444,182.333 472,195.5C 467.719,202.115 463.053,208.448 458,214.5C 451.304,220.366 444.804,226.366 438.5,232.5C 390.489,265.086 338.322,274.086 282,259.5C 268.913,265.897 255.08,269.397 240.5,270C 237.44,270.848 234.44,271.848 231.5,273C 232.833,273.667 234.167,274.333 235.5,275C 248.89,274.257 260.557,278.257 270.5,287C 287.472,291.636 299.972,301.803 308,317.5C 308.837,321.295 308.504,324.961 307,328.5C 304.748,331.029 302.248,333.196 299.5,335C 303.324,341.716 303.824,348.55 301,355.5C 295.967,360.479 290.134,361.645 283.5,359C 276.163,355.443 268.663,352.277 261,349.5C 248.828,356.168 235.994,360.501 222.5,362.5C 212.167,362.5 201.833,362.5 191.5,362.5C 173.756,359.474 156.756,353.808 140.5,345.5C 137.721,346.389 135.055,347.556 132.5,349C 127.678,352.911 122.678,356.578 117.5,360C 111.754,361.723 107.254,360.223 104,355.5C 102.786,357.049 101.286,358.215 99.5,359C 95.4569,360.491 91.4569,361.658 87.5,362.5C 82.5,362.5 77.5,362.5 72.5,362.5C 54.2212,360.795 37.5545,354.628 22.5,344C 10.503,332.501 2.83629,318.667 -0.5,302.5C -0.5,294.833 -0.5,287.167 -0.5,279.5C 2.24717,264.368 10.5805,253.368 24.5,246.5C 29.1334,235.385 36.4667,226.551 46.5,220C 32.9063,206.135 28.073,189.635 32,170.5C 36.6701,152.512 46.1701,137.678 60.5,126C 65.5374,122.487 70.5374,118.987 75.5,115.5C 66.7737,94.9132 64.2737,73.5798 68,51.5C 70.1045,41.1206 74.9378,32.2873 82.5,25C 87.0678,23.3495 89.7344,24.8495 90.5,29.5C 86.1067,55.8559 89.7734,81.0226 101.5,105C 106.825,104.675 112.159,104.008 117.5,103C 119.111,79.9552 123.944,57.4552 132,35.5C 137.674,20.6806 146.841,8.68056 159.5,-0.5 Z"/></g>
<g><path style="opacity:1" fill="#0b0303" d="M 106.5,348.5 C 106.82,345.102 106.487,341.768 105.5,338.5C 104.893,338.624 104.56,338.957 104.5,339.5C 102.862,340.657 101.196,341.824 99.5,343C 103.267,349.361 101.6,353.694 94.5,356C 73.0255,359.699 52.6921,356.365 33.5,346C 11.5735,330.594 1.74017,309.427 4,282.5C 5.97013,267.384 13.8035,256.718 27.5,250.5C 32.8292,237.336 41.8292,227.503 54.5,221C 36.0641,205.2 30.8974,185.7 39,162.5C 43.8846,151.287 50.7179,141.454 59.5,133C 66.6956,127.575 74.0289,122.408 81.5,117.5C 70.5057,92.7828 68.6723,67.4495 76,41.5C 78.1267,37.4106 80.6267,33.5772 83.5,30C 84.4835,29.4092 85.1501,29.7425 85.5,31C 81.7046,58.3959 85.8713,84.5626 98,109.5C 98.6667,110.167 99.3333,110.833 100,111.5C 106.648,109.337 113.481,108.004 120.5,107.5C 121.833,107.5 123.167,107.5 124.5,107.5C 124.5,102.5 124.5,97.5 124.5,92.5C 125.162,64.3504 133.329,38.6838 149,15.5C 153.078,10.7511 157.745,6.75109 163,3.5C 159.9,12.4543 156.566,21.4543 153,30.5C 145.048,55.568 141.881,81.2347 143.5,107.5C 176.418,107.964 204.251,119.964 227,143.5C 228.833,146.5 230.667,149.5 232.5,152.5C 258.492,117.674 289.492,88.1736 325.5,64C 356.06,44.6466 389.394,33.8133 425.5,31.5C 435.962,30.4619 445.629,32.6286 454.5,38C 458.284,42.861 459.451,48.361 458,54.5C 451.083,76.9157 436.583,91.9157 414.5,99.5C 411.574,124.389 397.907,139.389 373.5,144.5C 372.972,150.254 370.972,155.42 367.5,160C 368.774,161.221 370.274,162.054 372,162.5C 386.847,150.998 403.681,146.165 422.5,148C 431.119,141.726 440.452,136.726 450.5,133C 474.648,127.482 485.148,136.982 482,161.5C 471.87,195.963 451.037,221.796 419.5,239C 375.551,262.911 329.551,268.078 281.5,254.5C 268.386,261.445 254.386,264.945 239.5,265C 233.904,266.919 228.237,268.586 222.5,270C 224.887,274.053 228.22,277.053 232.5,279C 246.445,278.242 258.445,282.575 268.5,292C 283.614,295.487 295.114,303.987 303,317.5C 305.221,322.254 304.055,326.087 299.5,329C 296.911,330.197 294.244,331.197 291.5,332C 296.406,337.633 298.573,344.133 298,351.5C 295.045,355.277 291.212,356.443 286.5,355C 277.941,351.22 269.275,347.72 260.5,344.5C 234.236,358.513 206.57,362.013 177.5,355C 164.934,351.145 152.767,346.312 141,340.5C 131.903,343.26 124.069,348.093 117.5,355C 111.158,357.493 107.491,355.326 106.5,348.5 Z"/></g>
<g><path style="opacity:1" fill="#ef0011" d="M 146.5,120.5 C 162.915,121.473 178.249,125.973 192.5,134C 200.573,139.4 206.406,146.567 210,155.5C 210.494,157.134 210.66,158.801 210.5,160.5C 210.56,161.043 210.893,161.376 211.5,161.5C 212.487,158.232 212.82,154.898 212.5,151.5C 215.858,158.488 216.358,165.821 214,173.5C 207.461,192.072 195.627,206.239 178.5,216C 161.056,225.982 142.389,232.482 122.5,235.5C 120.653,235.234 119.986,235.568 120.5,236.5C 122.409,237.348 124.409,237.682 126.5,237.5C 143.593,238.517 159.759,235.184 175,227.5C 175.225,234.218 175.892,240.885 177,247.5C 177.721,251.342 179.387,254.676 182,257.5C 182.667,258.5 182.667,259.5 182,260.5C 161.262,274.393 138.429,280.226 113.5,278C 97.6984,274.2 86.8651,264.7 81,249.5C 78.074,243.379 76.9074,237.046 77.5,230.5C 87.7752,234.654 98.4419,236.154 109.5,235C 95.7147,230.737 82.7147,224.737 70.5,217C 47.2923,198.857 43.1256,177.023 58,151.5C 65.8909,141.611 75.5575,133.944 87,128.5C 89.804,133.604 93.6373,137.77 98.5,141C 100.5,141.667 102.5,141.667 104.5,141C 87.1372,117.917 77.4705,91.917 75.5,63C 75.4164,57.3607 76.083,51.8607 77.5,46.5C 78.1667,50.8333 78.8333,55.1667 79.5,59.5C 81.7843,85.8531 89.9509,110.186 104,132.5C 105.351,134.019 106.851,135.352 108.5,136.5C 108.833,135.667 109.167,134.833 109.5,134C 108.651,129.638 106.984,125.638 104.5,122C 104.833,121.5 105.167,121 105.5,120.5C 111.98,118.213 118.647,116.88 125.5,116.5C 125.865,123.396 128.532,129.23 133.5,134C 134.793,134.49 136.127,134.657 137.5,134.5C 125.633,91.4319 131.133,50.7652 154,12.5C 154.654,11.3044 155.154,11.3044 155.5,12.5C 136.696,50.2583 132.196,89.5916 142,130.5C 142.718,131.451 143.551,131.617 144.5,131C 145.971,127.679 146.637,124.179 146.5,120.5 Z"/></g>
<g><path style="opacity:1" fill="#f3e2e2" d="M 447.5,44.5 C 435.255,42.5201 422.922,42.0201 410.5,43C 399.743,44.3851 389.076,46.2185 378.5,48.5C 400.085,39.1063 422.418,36.6063 445.5,41C 446.823,41.8159 447.489,42.9826 447.5,44.5 Z"/></g>
<g><path style="opacity:1" fill="#f00212" d="M 447.5,44.5 C 446.61,51.9512 443.777,58.6179 439,64.5C 424.461,82.02 405.961,92.6866 383.5,96.5C 382.761,96.369 382.094,96.5357 381.5,97C 383.043,98.8783 384.876,100.378 387,101.5C 387.667,102.833 387.667,104.167 387,105.5C 380.624,113.034 374.124,119.7 367.5,125.5C 380.642,119.689 390.975,110.689 398.5,98.5C 400.288,98.2148 401.955,98.5481 403.5,99.5C 394.01,120.149 378.01,132.315 355.5,136C 348.88,137.137 342.214,137.637 335.5,137.5C 330.968,137.182 326.634,137.515 322.5,138.5C 326.371,143.111 331.038,146.778 336.5,149.5C 329.311,160.189 320.311,169.022 309.5,176C 327.606,171.064 340.272,159.897 347.5,142.5C 350.391,143.403 353.391,143.736 356.5,143.5C 350.444,159.39 339.444,170.557 323.5,177C 311.203,181.272 298.536,183.605 285.5,184C 300.562,189.944 315.562,189.61 330.5,183C 338.531,179.317 346.531,175.65 354.5,172C 360.508,170.804 366.175,171.637 371.5,174.5C 375.019,171.579 378.686,168.913 382.5,166.5C 391.036,162.451 400.036,160.784 409.5,161.5C 409.5,161.833 409.5,162.167 409.5,162.5C 396.606,164.296 385.272,169.462 375.5,178C 375.833,178.167 376.167,178.333 376.5,178.5C 388.362,173.104 400.362,168.104 412.5,163.5C 414.306,162.976 415.972,162.309 417.5,161.5C 419.167,160.833 420.833,160.167 422.5,159.5C 426.185,156.809 429.852,154.142 433.5,151.5C 441.299,148.716 449.299,146.549 457.5,145C 462.689,144.092 467.689,144.592 472.5,146.5C 470.52,158.799 466.02,170.132 459,180.5C 435.719,213.415 404.219,234.248 364.5,243C 324.989,251.299 288.989,243.632 256.5,220C 246.146,211.651 238.98,201.151 235,188.5C 233.356,178.992 234.689,169.992 239,161.5C 236.9,177.772 241.567,191.772 253,203.5C 249.717,196.645 247.384,189.312 246,181.5C 244.687,169.749 247.02,158.749 253,148.5C 284.518,102.165 326.351,68.8321 378.5,48.5C 389.076,46.2185 399.743,44.3851 410.5,43C 422.922,42.0201 435.255,42.5201 447.5,44.5 Z"/></g>
<g><path style="opacity:1" fill="#ba000d" d="M 79.5,59.5 C 78.8333,55.1667 78.1667,50.8333 77.5,46.5C 77.9652,42.9385 79.1319,39.6051 81,36.5C 79.7989,44.0479 79.2989,51.7146 79.5,59.5 Z"/></g>
<g><path style="opacity:1" fill="#faf1f1" d="M 426.5,44.5 C 427.978,44.238 429.311,44.5713 430.5,45.5C 423.836,54.6656 414.836,59.3323 403.5,59.5C 403.343,58.1266 403.51,56.7932 404,55.5C 410.865,50.3165 418.365,46.6498 426.5,44.5 Z"/></g>
<g><path style="opacity:1" fill="#0b0100" d="M 400.5,48.5 C 402.199,48.3398 403.866,48.5065 405.5,49C 370.251,61.2094 342.084,82.7094 321,113.5C 316.37,118.801 310.704,122.468 304,124.5C 297.745,122.913 296.079,119.247 299,113.5C 325.922,81.0847 359.755,59.418 400.5,48.5 Z"/></g>
<g><path style="opacity:1" fill="#fbedee" d="M 395.5,59.5 C 397.5,59.5 399.5,59.5 401.5,59.5C 399.794,65.3645 395.794,67.6978 389.5,66.5C 389.351,65.448 389.517,64.448 390,63.5C 391.812,62.0229 393.645,60.6896 395.5,59.5 Z"/></g>
<g><path style="opacity:1" fill="#e6181e" d="M 1477.5,60.5 C 1486.76,58.5048 1492.92,61.8382 1496,70.5C 1508.44,134.805 1520.77,199.139 1533,263.5C 1534.94,271.754 1535.94,280.087 1536,288.5C 1529.74,291.026 1523.24,292.859 1516.5,294C 1504.2,296.86 1491.87,299.194 1479.5,301C 1477.56,298.53 1476.4,295.696 1476,292.5C 1473.91,280.849 1471.91,269.182 1470,257.5C 1468.79,253.56 1466.12,251.893 1462,252.5C 1450.51,253.958 1439.01,255.291 1427.5,256.5C 1426.22,269.647 1424.05,282.647 1421,295.5C 1420.1,296.701 1418.93,297.535 1417.5,298C 1401.53,297.186 1385.53,296.52 1369.5,296C 1366.17,294.253 1364.5,291.419 1364.5,287.5C 1375.6,230.165 1386.77,172.832 1398,115.5C 1399.57,106.475 1399.24,97.4749 1397,88.5C 1396.5,81.5079 1396.33,74.5079 1396.5,67.5C 1423.72,66.0228 1450.72,63.6894 1477.5,60.5 Z M 1446.5,122.5 C 1447.93,124.148 1448.76,126.148 1449,128.5C 1453.89,153.264 1458.39,178.098 1462.5,203C 1462.41,204.107 1462.08,205.107 1461.5,206C 1451.82,206.832 1442.15,206.665 1432.5,205.5C 1437.49,177.891 1442.16,150.225 1446.5,122.5 Z"/></g>
<g><path style="opacity:1" fill="#000000" d="M 438.5,232.5 C 444.804,226.366 451.304,220.366 458,214.5C 463.053,208.448 467.719,202.115 472,195.5C 480.444,182.333 485.611,168 487.5,152.5C 487.563,141.784 482.896,133.951 473.5,129C 462.841,126.42 452.508,127.253 442.5,131.5C 443.836,115.805 445.503,100.139 447.5,84.5C 447.5,84.1667 447.5,83.8333 447.5,83.5C 448.167,83.5 448.5,83.1667 448.5,82.5C 451.143,77.8679 454.143,73.5346 457.5,69.5C 458.167,69.5 458.5,69.1667 458.5,68.5C 496.298,62.1791 534.298,60.3458 572.5,63C 573.931,63.4652 575.097,64.2986 576,65.5C 580.273,77.4621 582.939,89.7954 584,102.5C 590.829,160.04 592.496,217.707 589,275.5C 588.877,280.206 587.377,284.372 584.5,288C 574.379,292.864 563.713,295.864 552.5,297C 519.655,301.928 486.988,300.928 454.5,294C 443.508,292.212 438.675,285.712 440,274.5C 439.167,260.51 438.667,246.51 438.5,232.5 Z M 512.5,118.5 C 523.507,116.079 529.674,120.412 531,131.5C 532.658,140.759 533.658,150.092 534,159.5C 535.005,184.497 535.838,209.497 536.5,234.5C 529.167,235.599 521.834,236.766 514.5,238C 505.437,240.11 499.27,236.943 496,228.5C 494.127,196.115 495.127,163.782 499,131.5C 499.586,122.977 504.086,118.644 512.5,118.5 Z"/></g>
<g><path style="opacity:1" fill="#000000" d="M 613.5,61.5 C 645.871,61.6249 678.204,62.7915 710.5,65C 717.584,65.4406 724.584,66.4406 731.5,68C 738.572,77.3206 743.072,87.8206 745,99.5C 750.989,129.677 751.989,160.011 748,190.5C 746.903,200.876 741.737,208.376 732.5,213C 713.288,223.738 692.788,230.238 671,232.5C 669.916,235.88 669.416,239.38 669.5,243C 670.103,256.504 670.769,270.004 671.5,283.5C 671.439,286.903 670.939,290.236 670,293.5C 660.368,295.943 650.534,297.443 640.5,298C 630.197,299.132 619.863,299.632 609.5,299.5C 609.913,236.155 609.413,172.822 608,109.5C 602.28,94.6184 598.446,79.285 596.5,63.5C 602.318,62.9716 607.984,62.3049 613.5,61.5 Z M 663.5,110.5 C 672.379,110.319 681.046,111.486 689.5,114C 693.994,118.136 696.16,123.303 696,129.5C 696.5,144.163 696.667,158.83 696.5,173.5C 689.037,175.154 681.703,177.32 674.5,180C 671.901,180.769 669.401,180.602 667,179.5C 665.56,156.575 664.393,133.575 663.5,110.5 Z"/></g>
<g><path style="opacity:1" fill="#000000" d="M 808.5,61.5 C 830.836,61.3334 853.169,61.5 875.5,62C 880.187,62.0815 884.687,62.9148 889,64.5C 888.594,81.5827 886.427,98.416 882.5,115C 862.795,115.64 843.128,115.14 823.5,113.5C 823.503,128.865 824.169,144.199 825.5,159.5C 843.763,157.371 862.096,156.038 880.5,155.5C 880.667,170.504 880.5,185.504 880,200.5C 879.417,202.002 878.584,203.335 877.5,204.5C 873.691,206.093 869.691,206.926 865.5,207C 852.171,207.5 838.837,207.667 825.5,207.5C 825.5,220.833 825.5,234.167 825.5,247.5C 843.282,244.841 861.115,242.507 879,240.5C 888.678,239.846 893.512,244.346 893.5,254C 892.402,267.828 891.402,281.662 890.5,295.5C 848.177,297.465 805.843,299.132 763.5,300.5C 765.289,234.821 767.123,169.155 769,103.5C 760.986,92.8309 753.819,81.6642 747.5,70C 747.755,68.6739 748.422,67.6739 749.5,67C 752.753,65.9635 756.086,65.2969 759.5,65C 775.969,63.5361 792.303,62.3694 808.5,61.5 Z"/></g>
<g><path style="opacity:1" fill="#000000" d="M 1038.5,61.5 C 1048.15,62.1992 1057.82,62.5325 1067.5,62.5C 1066.32,137.175 1064.82,211.842 1063,286.5C 1051.1,292.023 1038.76,296.356 1026,299.5C 1022.57,299.068 1019.9,297.401 1018,294.5C 999.413,260.993 981.079,227.327 963,193.5C 965.191,227.101 965.858,260.767 965,294.5C 961.41,296.358 957.576,297.524 953.5,298C 940.555,299.995 927.555,300.995 914.5,301C 913.584,300.626 912.75,300.126 912,299.5C 910.814,293.915 910.148,288.249 910,282.5C 908.394,210.84 907.228,139.173 906.5,67.5C 917.538,66.1605 928.538,64.4938 939.5,62.5C 944.761,62.8807 948.928,65.214 952,69.5C 970.431,102.693 988.098,136.36 1005,170.5C 1006.51,173.524 1008.51,176.191 1011,178.5C 1009.92,140.174 1008.76,101.841 1007.5,63.5C 1018.01,63.1934 1028.34,62.5268 1038.5,61.5 Z"/></g>
<g><path style="opacity:1" fill="#e6181e" d="M 1289.5,61.5 C 1294.5,61.5 1299.5,61.5 1304.5,61.5C 1302.64,111.518 1300.3,161.518 1297.5,211.5C 1297.95,219.215 1298.78,226.881 1300,234.5C 1301.57,239.704 1305.07,242.037 1310.5,241.5C 1326.83,239.057 1343.16,236.723 1359.5,234.5C 1359.18,252.561 1357.35,270.561 1354,288.5C 1353.29,290.081 1352.46,291.581 1351.5,293C 1347.06,294.94 1342.39,295.94 1337.5,296C 1309.66,297.007 1281.83,298.174 1254,299.5C 1249.78,299.47 1245.62,299.136 1241.5,298.5C 1239.87,281.219 1239.03,263.886 1239,246.5C 1238.54,205.833 1238.04,165.166 1237.5,124.5C 1237.33,106.129 1238,87.7956 1239.5,69.5C 1256.16,66.0047 1272.83,63.338 1289.5,61.5 Z"/></g>
<g><path style="opacity:1" fill="#e6181e" d="M 1768.5,65.5 C 1768.5,68.1667 1768.5,70.8333 1768.5,73.5C 1761.12,138.329 1751.62,202.995 1740,267.5C 1738.47,275.953 1736.47,284.286 1734,292.5C 1715.1,296.785 1695.93,298.952 1676.5,299C 1673.95,294.729 1671.78,290.229 1670,285.5C 1663.14,265.908 1656.47,246.241 1650,226.5C 1648.57,221.878 1646.57,217.545 1644,213.5C 1636,240.494 1627,267.16 1617,293.5C 1597.8,298.059 1578.3,299.892 1558.5,299C 1543.95,225.196 1531.28,151.029 1520.5,76.5C 1519.8,73.1307 1521.14,71.2973 1524.5,71C 1544.32,66.8115 1564.32,63.9782 1584.5,62.5C 1589.57,109.489 1594.57,156.489 1599.5,203.5C 1609.62,167.7 1619.12,131.7 1628,95.5C 1629.35,90.6019 1631.19,85.9352 1633.5,81.5C 1636.11,80.0311 1638.95,79.3644 1642,79.5C 1644.3,79.6004 1646.3,80.267 1648,81.5C 1661.55,122.834 1675.89,163.834 1691,204.5C 1694.3,156.809 1697.63,109.143 1701,61.5C 1702.06,60.9032 1703.23,60.5698 1704.5,60.5C 1719.49,61.4163 1734.49,62.2496 1749.5,63C 1755.99,63.0792 1762.32,63.9126 1768.5,65.5 Z"/></g>
<g><path style="opacity:1" fill="#e6181e" d="M 1190.5,61.5 C 1197.2,61.3357 1203.87,61.669 1210.5,62.5C 1213.55,86.7432 1215.55,111.077 1216.5,135.5C 1199.73,131.858 1183.07,127.691 1166.5,123C 1159.73,121.038 1153.06,121.204 1146.5,123.5C 1145.7,125.078 1145.2,126.744 1145,128.5C 1143.66,159.157 1143.32,189.824 1144,220.5C 1144.11,225.614 1144.78,230.614 1146,235.5C 1149.95,237.961 1154.29,239.294 1159,239.5C 1180.23,236.488 1201.39,233.154 1222.5,229.5C 1223.02,250.371 1219.86,270.705 1213,290.5C 1212.1,291.701 1210.93,292.535 1209.5,293C 1173.51,298.985 1137.51,298.985 1101.5,293C 1092.98,290.813 1088.48,285.313 1088,276.5C 1082.77,222.906 1082.1,169.24 1086,115.5C 1086.68,103.359 1088.35,91.3588 1091,79.5C 1091.83,77.3333 1093.33,75.8333 1095.5,75C 1101.07,73.2851 1106.74,71.9518 1112.5,71C 1138.52,66.7585 1164.52,63.5918 1190.5,61.5 Z"/></g>
<g><path style="opacity:1" fill="#faeaea" d="M 383.5,96.5 C 388.68,96.8468 393.68,97.5135 398.5,98.5C 390.975,110.689 380.642,119.689 367.5,125.5C 374.124,119.7 380.624,113.034 387,105.5C 387.667,104.167 387.667,102.833 387,101.5C 384.876,100.378 383.043,98.8783 381.5,97C 382.094,96.5357 382.761,96.369 383.5,96.5 Z"/></g>
<g><path style="opacity:1" fill="#ab797d" d="M 124.5,92.5 C 124.5,97.5 124.5,102.5 124.5,107.5C 123.167,107.5 121.833,107.5 120.5,107.5C 121.209,106.596 122.209,106.263 123.5,106.5C 123.181,101.637 123.514,96.97 124.5,92.5 Z"/></g>
<g><path style="opacity:1" fill="#f8eaea" d="M 212.5,151.5 C 211.833,154.5 211.167,157.5 210.5,160.5C 210.66,158.801 210.494,157.134 210,155.5C 206.406,146.567 200.573,139.4 192.5,134C 178.249,125.973 162.915,121.473 146.5,120.5C 146.5,119.167 146.5,117.833 146.5,116.5C 170.968,115.93 191.468,124.596 208,142.5C 210.038,145.243 211.538,148.243 212.5,151.5 Z"/></g>
<g><path style="opacity:1" fill="#902021" d="M 322.5,138.5 C 326.634,137.515 330.968,137.182 335.5,137.5C 333.167,138.167 330.833,138.833 328.5,139.5C 326.565,138.85 324.565,138.517 322.5,138.5 Z"/></g>
<g><path style="opacity:1" fill="#f9eeee" d="M 322.5,138.5 C 324.565,138.517 326.565,138.85 328.5,139.5C 334.868,140.374 341.201,141.374 347.5,142.5C 340.272,159.897 327.606,171.064 309.5,176C 320.311,169.022 329.311,160.189 336.5,149.5C 331.038,146.778 326.371,143.111 322.5,138.5 Z"/></g>
<g><path style="opacity:1" fill="#f6ecec" d="M 472.5,146.5 C 467.689,144.592 462.689,144.092 457.5,145C 449.299,146.549 441.299,148.716 433.5,151.5C 443.897,142.757 455.897,138.924 469.5,140C 471.919,141.509 472.919,143.675 472.5,146.5 Z"/></g>
<g><path style="opacity:1" fill="#080201" d="M 186.5,163.5 C 178.49,164.514 171.157,167.18 164.5,171.5C 162.614,172.361 160.78,173.361 159,174.5C 155.81,171.455 153.643,167.788 152.5,163.5C 149.138,164.967 145.971,164.634 143,162.5C 140.69,158.232 141.856,157.232 146.5,159.5C 149.433,159.534 152.1,158.701 154.5,157C 160.647,150.516 167.647,145.183 175.5,141C 179.698,138.839 183.698,139.172 187.5,142C 185.564,142.813 183.564,143.313 181.5,143.5C 183.239,147.329 184.739,151.329 186,155.5C 186.497,158.146 186.664,160.813 186.5,163.5 Z"/></g>
<g><path style="opacity:1" fill="#150100" d="M 451.5,147.5 C 453.527,147.338 455.527,147.505 457.5,148C 445.487,152.703 434.487,159.036 424.5,167C 423.833,167.667 423.167,167.667 422.5,167C 430.186,157.468 439.853,150.968 451.5,147.5 Z"/></g>
<g><path style="opacity:1" fill="#f2e7e7" d="M 171.5,149.5 C 176.068,149.083 177.568,151.083 176,155.5C 170.934,158.894 168.934,157.56 170,151.5C 170.717,150.956 171.217,150.289 171.5,149.5 Z"/></g>
<g><path style="opacity:1" fill="#fbe7e8" d="M 462.5,148.5 C 460.991,157.602 456.158,164.936 448,170.5C 447.685,169.092 448.018,167.759 449,166.5C 453.717,160.623 458.217,154.623 462.5,148.5 Z"/></g>
<g><path style="opacity:1" fill="#060101" d="M 67.5,155.5 C 72.9781,155.369 78.3114,156.202 83.5,158C 91.3659,160.843 99.1992,163.677 107,166.5C 110.767,166.078 113.433,164.078 115,160.5C 116.605,168.388 113.439,172.721 105.5,173.5C 105.866,175.905 106.533,178.238 107.5,180.5C 107.167,181.167 106.833,181.833 106.5,182.5C 103.388,181.875 100.221,181.541 97,181.5C 90.3622,181.793 83.8622,182.626 77.5,184C 74.1309,181.635 71.9643,178.468 71,174.5C 70.5007,169.511 70.3341,164.511 70.5,159.5C 66.1841,159.597 65.1841,158.263 67.5,155.5 Z"/></g>
<g><path style="opacity:1" fill="#f5e7e7" d="M 422.5,159.5 C 420.833,160.167 419.167,160.833 417.5,161.5C 414.833,161.5 412.167,161.5 409.5,161.5C 400.036,160.784 391.036,162.451 382.5,166.5C 392.678,158.204 404.344,155.037 417.5,157C 419.315,157.757 420.981,158.59 422.5,159.5 Z"/></g>
<g><path style="opacity:1" fill="#fa999e" d="M 212.5,151.5 C 212.82,154.898 212.487,158.232 211.5,161.5C 210.893,161.376 210.56,161.043 210.5,160.5C 211.167,157.5 211.833,154.5 212.5,151.5 Z"/></g>
<g><path style="opacity:1" fill="#c46064" d="M 409.5,162.5 C 409.5,162.167 409.5,161.833 409.5,161.5C 412.167,161.5 414.833,161.5 417.5,161.5C 415.972,162.309 414.306,162.976 412.5,163.5C 411.791,162.596 410.791,162.263 409.5,162.5 Z"/></g>
<g><path style="opacity:1" fill="#180300" d="M 409.5,162.5 C 410.791,162.263 411.791,162.596 412.5,163.5C 400.362,168.104 388.362,173.104 376.5,178.5C 376.167,178.333 375.833,178.167 375.5,178C 385.272,169.462 396.606,164.296 409.5,162.5 Z"/></g>
<g><path style="opacity:1" fill="#f6dcdd" d="M 186.5,163.5 C 189.424,164.366 192.424,165.366 195.5,166.5C 194.975,167.192 194.308,167.692 193.5,168C 183.654,167.916 173.988,169.082 164.5,171.5C 171.157,167.18 178.49,164.514 186.5,163.5 Z"/></g>
<g><path style="opacity:1" fill="#f2e6e6" d="M 91.5,166.5 C 95.5601,165.848 97.5601,167.515 97.5,171.5C 95.4727,171.662 93.4727,171.495 91.5,171C 90.2721,169.51 90.2721,168.01 91.5,166.5 Z"/></g>
<g><path style="opacity:1" fill="#110200" d="M 169.5,176.5 C 175.401,175.743 180.734,177.076 185.5,180.5C 182.182,181.67 178.849,181.67 175.5,180.5C 166.458,190.032 155.458,196.532 142.5,200C 123.791,205.467 105.458,205.801 87.5,201C 89.711,196.733 93.0444,194.9 97.5,195.5C 97.0233,196.478 96.3567,197.311 95.5,198C 119.888,200.825 142.888,196.159 164.5,184C 167.622,182.579 167.956,180.913 165.5,179C 167.066,178.392 168.4,177.558 169.5,176.5 Z"/></g>
<g><path style="opacity:1" fill="#eb0011" d="M 224.5,185.5 C 225.376,185.369 226.043,185.702 226.5,186.5C 224.416,205.581 229.416,222.581 241.5,237.5C 230.67,241.997 221.67,239.497 214.5,230C 213.833,229.333 213.167,229.333 212.5,230C 222.323,249.557 237.656,255.724 258.5,248.5C 259.696,248.846 259.696,249.346 258.5,250C 233.416,261.211 216.583,253.711 208,227.5C 204.6,209.844 210.1,195.844 224.5,185.5 Z"/></g>
<g><path style="opacity:1" fill="#e20010" d="M 236.5,206.5 C 240.422,208.915 243.922,211.915 247,215.5C 255.637,227.806 266.47,237.639 279.5,245C 258.492,239.836 244.159,227.002 236.5,206.5 Z"/></g>
<g><path style="opacity:1" fill="#ea0011" d="M 196.5,213.5 C 197.376,213.369 198.043,213.702 198.5,214.5C 196.849,229.217 200.849,242.217 210.5,253.5C 205.837,254.397 201.17,254.564 196.5,254C 199.557,256.723 202.89,259.056 206.5,261C 200.695,261.184 195.861,259.017 192,254.5C 180.679,239.329 182.179,225.662 196.5,213.5 Z"/></g>
<g><path style="opacity:1" fill="#eb0011" d="M 51.5,231.5 C 57.8977,230.053 62.731,232.053 66,237.5C 69.4351,246.953 69.1018,256.286 65,265.5C 57.6356,256.74 48.4689,250.907 37.5,248C 40.9354,241.402 45.6021,235.902 51.5,231.5 Z"/></g>
<g><path style="opacity:1" fill="#760007" d="M 122.5,235.5 C 123.833,236.167 125.167,236.833 126.5,237.5C 124.409,237.682 122.409,237.348 120.5,236.5C 119.986,235.568 120.653,235.234 122.5,235.5 Z"/></g>
<g><path style="opacity:1" fill="#f00514" d="M 49.5,260.5 C 51.7867,264.122 54.4534,267.455 57.5,270.5C 54.2459,270.794 51.5792,272.127 49.5,274.5C 48.7611,274.369 48.0944,274.536 47.5,275C 66.775,276.097 79.4417,285.597 85.5,303.5C 85.7989,305.604 85.4656,307.604 84.5,309.5C 77.1531,304.825 69.4864,300.658 61.5,297C 58.3333,294.5 55.1667,292 52,289.5C 52.9774,294.448 55.3107,298.782 59,302.5C 64.5611,320.618 75.2277,334.951 91,345.5C 91.658,347.108 91.158,348.275 89.5,349C 62.6654,352.721 40.4988,344.221 23,323.5C 12.5548,308.829 9.88814,292.829 15,275.5C 21.9705,259.59 33.4705,254.59 49.5,260.5 Z"/></g>
<g><path style="opacity:1" fill="#fcebeb" d="M 38.5,264.5 C 41.1873,264.336 43.854,264.503 46.5,265C 48.1397,267.776 47.473,269.776 44.5,271C 40.4737,272.337 37.4737,271.17 35.5,267.5C 36.3398,266.265 37.3398,265.265 38.5,264.5 Z"/></g>
<g><path style="opacity:1" fill="#ecd6d6" d="M 49.5,260.5 C 52.7705,262.591 55.9372,264.924 59,267.5C 59.5847,268.998 59.0847,269.998 57.5,270.5C 54.4534,267.455 51.7867,264.122 49.5,260.5 Z"/></g>
<g><path style="opacity:1" fill="#f5e3e3" d="M 191.5,266.5 C 184.099,274.208 175.099,279.375 164.5,282C 154.002,285.256 143.335,286.09 132.5,284.5C 151.708,282.041 169.708,275.875 186.5,266C 188.265,265.36 189.932,265.527 191.5,266.5 Z"/></g>
<g><path style="opacity:1" fill="#f00212" d="M 191.5,266.5 C 192.458,266.953 193.292,267.619 194,268.5C 195.607,273.988 197.607,279.322 200,284.5C 200.798,286.259 200.631,287.926 199.5,289.5C 179.067,303.775 156.4,309.942 131.5,308C 114.728,303.888 103.894,293.721 99,277.5C 103.639,280.827 108.805,282.994 114.5,284C 120.491,284.499 126.491,284.666 132.5,284.5C 143.335,286.09 154.002,285.256 164.5,282C 175.099,279.375 184.099,274.208 191.5,266.5 Z"/></g>
<g><path style="opacity:1" fill="#f5e4e4" d="M 85.5,303.5 C 79.4417,285.597 66.775,276.097 47.5,275C 48.0944,274.536 48.7611,274.369 49.5,274.5C 66.4782,271.239 78.3115,277.572 85,293.5C 85.4983,296.817 85.665,300.15 85.5,303.5 Z"/></g>
<g><path style="opacity:1" fill="#faf6f6" d="M 65.5,282.5 C 67.9124,282.244 69.5791,283.244 70.5,285.5C 67.6878,286.719 66.0211,285.719 65.5,282.5 Z"/></g>
<g><path style="opacity:1" fill="#e50010" d="M 216.5,283.5 C 220.226,283.177 223.893,283.511 227.5,284.5C 224.804,287.273 221.971,289.94 219,292.5C 215.005,289.966 214.171,286.966 216.5,283.5 Z"/></g>
<g><path style="opacity:1" fill="#d5000f" d="M 83.5,281.5 C 83.8966,280.475 84.5632,280.308 85.5,281C 88.1298,284.632 91.1298,287.965 94.5,291C 99.1667,295 103.833,299 108.5,303C 103.89,301.866 99.5569,299.866 95.5,297C 91.3591,291.855 87.3591,286.688 83.5,281.5 Z"/></g>
<g><path style="opacity:1" fill="#f2e2e3" d="M 254.5,293.5 C 252.142,291.871 249.476,290.705 246.5,290C 241.845,289.501 237.179,289.334 232.5,289.5C 232.918,288.778 233.584,288.278 234.5,288C 243.712,286.319 252.379,287.652 260.5,292C 258.75,293.319 256.75,293.819 254.5,293.5 Z"/></g>
<g><path style="opacity:1" fill="#ef1018" d="M 232.5,289.5 C 237.179,289.334 241.845,289.501 246.5,290C 249.476,290.705 252.142,291.871 254.5,293.5C 251.033,295.067 247.7,296.901 244.5,299C 241.911,302.097 238.911,304.597 235.5,306.5C 228.909,304.441 225.742,300.107 226,293.5C 227.571,291.077 229.737,289.744 232.5,289.5 Z"/></g>
<g><path style="opacity:1" fill="#f4e8e9" d="M 207.5,296.5 C 193.215,306.817 177.215,312.151 159.5,312.5C 174.714,308.564 189.047,302.398 202.5,294C 204.928,293.253 206.594,294.086 207.5,296.5 Z"/></g>
<g><path style="opacity:1" fill="#ef0513" d="M 207.5,296.5 C 211.471,301.303 215.971,305.636 221,309.5C 221.667,310.167 221.667,310.833 221,311.5C 201.944,327.058 180.111,333.891 155.5,332C 143.397,329.171 134.23,322.671 128,312.5C 128.75,313.126 129.584,313.626 130.5,314C 140.297,314.949 149.964,314.449 159.5,312.5C 177.215,312.151 193.215,306.817 207.5,296.5 Z"/></g>
<g><path style="opacity:1" fill="#f5e5e5" d="M 295.5,320.5 C 285.671,309.348 273.338,303.015 258.5,301.5C 255.467,301.669 252.467,302.002 249.5,302.5C 266.367,295.675 280.867,299.342 293,313.5C 294.903,315.441 295.736,317.774 295.5,320.5 Z"/></g>
<g><path style="opacity:1" fill="#f00413" d="M 295.5,320.5 C 295.64,322.124 294.973,323.29 293.5,324C 274.371,329.067 257.538,324.901 243,311.5C 242.957,307.025 245.124,304.025 249.5,302.5C 252.467,302.002 255.467,301.669 258.5,301.5C 273.338,303.015 285.671,309.348 295.5,320.5 Z"/></g>
<g><path style="opacity:1" fill="#f4e9ea" d="M 93.5,303.5 C 97.1136,305.307 100.78,307.14 104.5,309C 95.8048,314.026 89.6381,321.193 86,330.5C 80.956,325.737 77.456,320.071 75.5,313.5C 79.2171,314.527 82.5505,316.361 85.5,319C 88.2981,319.561 90.1314,318.394 91,315.5C 91.9431,311.504 92.7764,307.504 93.5,303.5 Z"/></g>
<g><path style="opacity:1" fill="#fbedee" d="M 76.5,341.5 C 63.9015,334.736 54.0681,325.069 47,312.5C 45.9723,310.156 45.3057,307.823 45,305.5C 48.8581,307.095 52.1914,309.428 55,312.5C 60.2144,323.587 67.3811,333.254 76.5,341.5 Z"/></g>
<g><path style="opacity:1" fill="#ed0011" d="M 225.5,312.5 C 237.234,316.624 240.734,324.29 236,335.5C 228.932,342.45 220.432,346.283 210.5,347C 193.206,349.141 176.873,346.141 161.5,338C 185.997,336.901 207.33,328.401 225.5,312.5 Z"/></g>
<g><path style="opacity:1" fill="#e80011" d="M 106.5,314.5 C 111.632,314.495 114.799,316.829 116,321.5C 109.541,326.29 103.374,331.457 97.5,337C 92.6831,340.838 90.8498,339.671 92,333.5C 94.0803,324.937 98.9136,318.604 106.5,314.5 Z"/></g>
<g><path style="opacity:1" fill="#ea0011" d="M 119.5,327.5 C 124.751,327.23 128.751,329.397 131.5,334C 125.833,338.833 120.167,343.667 114.5,348.5C 110.756,340.135 112.422,333.135 119.5,327.5 Z"/></g>
<g><path style="opacity:1" fill="#e60613" d="M 276.5,332.5 C 278.647,334.47 280.98,336.303 283.5,338C 285.364,340.688 287.364,343.188 289.5,345.5C 289.778,347.346 289.111,348.68 287.5,349.5C 277.167,343 266.833,336.5 256.5,330C 255.304,329.346 255.304,328.846 256.5,328.5C 263.137,330.161 269.804,331.494 276.5,332.5 Z"/></g>
<g><path style="opacity:1" fill="#f0d6d6" d="M 276.5,332.5 C 282.308,331.652 286.142,333.985 288,339.5C 288.813,341.436 289.313,343.436 289.5,345.5C 287.364,343.188 285.364,340.688 283.5,338C 280.98,336.303 278.647,334.47 276.5,332.5 Z"/></g>
<g><path style="opacity:1" fill="#fca9ac" d="M 76.5,341.5 C 77.7562,341.461 78.7562,341.961 79.5,343C 78.0024,343.585 77.0024,343.085 76.5,341.5 Z"/></g>
<g><path style="opacity:1" fill="#9c000c" d="M 251.5,339.5 C 253.842,339.775 253.842,340.608 251.5,342C 249.945,343.289 248.279,343.956 246.5,344C 248.24,342.483 249.906,340.983 251.5,339.5 Z"/></g>
<g><path style="opacity:1" fill="#73393b" d="M 104.5,339.5 C 104.56,338.957 104.893,338.624 105.5,338.5C 106.487,341.768 106.82,345.102 106.5,348.5C 105.833,345.5 105.167,342.5 104.5,339.5 Z"/></g>
</svg>
