<?xml version="1.0" encoding="UTF-8"?>
<svg version="1.1" xmlns="http://www.w3.org/2000/svg" width="1024" height="1024">
<path d="M0 0 C337.92 0 675.84 0 1024 0 C1024 337.92 1024 675.84 1024 1024 C686.08 1024 348.16 1024 0 1024 C0 686.08 0 348.16 0 0 Z " fill="#FEFEFE" transform="translate(0,0)"/>
<path d="M0 0 C22.44 0 44.88 0 68 0 C69.216875 5.81625 70.43375 11.6325 71.6875 17.625 C74.02925659 28.77885989 76.3887312 39.9230864 78.96562195 51.02536011 C81.07837531 60.2037047 83.03620128 69.41475253 85.00390625 78.625 C85.39880387 80.47093559 85.79374306 82.31686229 86.1887207 84.16278076 C87.46049053 90.10823376 88.73042359 96.05407829 90 102 C90.21322277 102.99846451 90.42644554 103.99692902 90.64612961 105.02565002 C93.49128978 118.34953498 96.33179535 131.67440721 99.16894531 145 C100.06989259 149.23127901 100.97164368 153.46238563 101.87402344 157.69335938 C102.98783142 162.91567223 104.10035281 168.13825757 105.21192932 173.36104584 C105.62931223 175.32110851 106.04714035 177.28107643 106.46543884 179.24094391 C107.04265404 181.94584841 107.61820898 184.65110113 108.19335938 187.35644531 C108.36263947 188.14785919 108.53191956 188.93927307 108.70632935 189.75466919 C109.56958064 193.82418729 110.35306323 197.88896265 111 202 C120.81127321 168.34767539 130.58918757 134.68677006 140.0625 100.9375 C140.24185215 100.29875317 140.4212043 99.66000633 140.60599136 99.00190353 C144.74357492 84.26453206 148.85701003 69.52045832 152.96022034 54.77348328 C153.8553571 51.55639913 154.75096423 48.33944662 155.64707947 45.12263489 C155.97501291 43.94543648 155.97501291 43.94543648 156.30957127 42.74445629 C156.74757443 41.17220393 157.18560515 39.59995924 157.6236639 38.02772236 C158.90552057 33.42574265 160.18393533 28.82282418 161.45968056 24.21914673 C162.24567081 21.38516968 163.0343339 18.55194144 163.82368469 15.71889877 C164.19139732 14.39682548 164.55792969 13.07442331 164.92323303 11.75168228 C165.42177767 9.94697572 165.92474917 8.14349377 166.42797852 6.34008789 C166.70899918 5.32733292 166.99001984 4.31457794 167.27955627 3.27113342 C168 1 168 1 169 0 C170.90243762 -0.09391296 172.80838459 -0.11743658 174.71313477 -0.11352539 C175.9343251 -0.11344986 177.15551544 -0.11337433 178.41371155 -0.11329651 C179.75627686 -0.10818911 181.09884175 -0.10297311 182.44140625 -0.09765625 C183.80761158 -0.09579199 185.17381757 -0.09436813 186.5400238 -0.09336853 C190.14201695 -0.08954394 193.74397 -0.07971417 197.34594727 -0.06866455 C201.01903745 -0.05844916 204.69213409 -0.05387064 208.36523438 -0.04882812 C215.57684123 -0.03809184 222.788415 -0.02101614 230 0 C230.20313309 0.80040207 230.20313309 0.80040207 230.41036987 1.61697388 C237.30951974 28.79722995 244.23938282 55.96924456 251.23204613 83.1255827 C253.6974652 92.70037215 256.1588425 102.27620098 258.61984253 111.85212708 C258.99606666 113.31597056 259.37229753 114.77981232 259.74853516 116.24365234 C259.93430807 116.96645103 260.12008099 117.68924971 260.31148338 118.43395138 C261.6269031 123.5509994 262.944678 128.66743777 264.26318359 133.78369141 C265.88493037 140.07711589 267.50218469 146.37167618 269.11405087 152.66763878 C269.94606104 155.91697536 270.78072815 159.16556841 271.61935425 162.41320801 C272.53565146 165.96287547 273.44453115 169.5143617 274.3515625 173.06640625 C274.62248215 174.10875931 274.89340179 175.15111237 275.17253113 176.22505188 C275.41546402 177.18275986 275.65839691 178.14046783 275.90869141 179.12719727 C276.22696396 180.36603416 276.22696396 180.36603416 276.55166626 181.62989807 C277.02616424 184.1383164 277.07912605 186.4530795 277 189 C277.66 189 278.32 189 279 189 C279.03058502 188.4083757 279.06117004 187.8167514 279.09268188 187.2071991 C279.7273894 178.14160289 281.66022547 169.40644024 283.5859375 160.55078125 C283.95939718 158.81023358 284.33228593 157.06956333 284.70465088 155.32878113 C285.71110373 150.63176833 286.72559376 145.93652558 287.74176788 141.24160767 C288.80528542 136.32215194 289.86194866 131.40122407 290.91943359 126.48046875 C292.69418844 118.22649869 294.47371133 109.97356806 296.25585938 101.72119141 C298.54873324 91.10239103 300.82933229 80.48098939 303.10592651 69.85868835 C304.85466172 61.69936655 306.60761746 53.54095291 308.36114502 45.38265991 C309.20450206 41.45863629 310.0464764 37.53431965 310.88739014 33.60977173 C311.87545587 28.99956661 312.86723474 24.39017581 313.86193085 19.78139687 C314.22726724 18.08573575 314.59130622 16.38979454 314.95398712 14.69356346 C315.44715368 12.38804717 315.94488177 10.08356386 316.44384766 7.77929688 C316.58810873 7.09965032 316.7323698 6.42000376 316.88100243 5.71976185 C317.88584455 1.11415545 317.88584455 1.11415545 319 0 C321.02494231 -0.09409479 323.0531987 -0.11743122 325.08032227 -0.11352539 C327.03223228 -0.11341209 327.03223228 -0.11341209 329.02357483 -0.11329651 C330.45451902 -0.10818909 331.88546282 -0.10297308 333.31640625 -0.09765625 C334.7722926 -0.09579203 336.22817957 -0.09436815 337.68406677 -0.09336853 C341.52279379 -0.08954365 345.36148319 -0.07971364 349.20019531 -0.06866455 C353.11457816 -0.05844978 357.02896706 -0.05387077 360.94335938 -0.04882812 C368.62892343 -0.03809134 376.31445645 -0.02101529 384 0 C380.75579204 14.51009491 376.83183772 28.82098229 372.8961792 43.1552124 C365.02348069 71.84322436 357.37979047 100.58872713 349.875 129.375 C349.64075569 130.27336201 349.40651138 131.17172401 349.16516876 132.09730911 C346.22976823 143.3565339 343.30021895 154.61727729 340.37240219 165.87847614 C337.54212488 176.76326159 334.70628898 187.64659797 331.87041473 198.5299263 C325.57619101 222.68555512 319.2870616 246.84250598 313 271 C290.23 271 267.46 271 244 271 C233.71613359 232.59131712 233.71613359 232.59131712 230.5234375 220.65625 C230.3035252 219.8341655 230.0836129 219.01208099 229.85703659 218.16508484 C224.89963065 199.63192422 219.95134568 181.09633378 215.00764465 162.55951309 C214.38649513 160.2305994 213.76522454 157.90171804 213.1439209 155.57284546 C207.40368431 134.05531711 201.69117715 112.53055617 196 91 C193.61297429 99.43412333 191.23959341 107.87206267 188.875 116.3125 C188.59816942 117.3006476 188.59816942 117.3006476 188.31574631 118.30875778 C180.44546564 146.42025444 172.93498878 174.62408596 165.51248932 202.85674191 C164.40669626 207.06237214 163.29952501 211.26763823 162.19140625 215.47265625 C161.97777184 216.28351496 161.76413742 217.09437366 161.54402924 217.92980385 C156.86523933 235.66799968 151.94505805 253.33399154 147 271 C122.58 271 98.16 271 73 271 C65.01809488 241.35292386 65.01809488 241.35292386 62.1036396 229.8139801 C61.13692509 225.98812145 60.16261885 222.16418985 59.18994141 218.33984375 C58.88605232 217.14396511 58.88605232 217.14396511 58.57602406 215.92392731 C43.58599914 156.94444921 27.34464931 98.34316067 10.765625 39.79296875 C10.55353771 39.04375027 10.34145042 38.29453178 10.12293625 37.52260971 C8.10510338 30.39611141 6.08225166 23.27126331 4.02929688 16.15478516 C3.59855865 14.6595507 3.59855865 14.6595507 3.15911865 13.1341095 C2.64551573 11.35465743 2.12963757 9.57585962 1.61090088 7.79789734 C0 2.2198564 0 2.2198564 0 0 Z " fill="#0E0E0E" transform="translate(338,469)"/>
<path d="M0 0 C139.95851046 0 139.95851046 0 158.8125 4.75 C159.87291504 5.01312988 160.93333008 5.27625977 162.02587891 5.54736328 C179.51585788 10.04371525 195.89133287 17.91859719 206.125 33.4375 C215.26860649 49.4204261 217.31339627 68.87794137 213.03125 86.62109375 C208.33197951 102.0183247 198.2395039 114.28759839 184.14453125 122.01757812 C180.14660023 124.12028237 176.0922377 126.08829771 172 128 C173.00417969 128.35191406 174.00835938 128.70382812 175.04296875 129.06640625 C193.91250996 135.81182636 210.59148424 144.40937662 220 163 C228.58755426 181.98905714 229.40692302 201.46605868 222.3125 221.125 C219.75688074 227.8192612 216.57822724 233.4474806 212 239 C211.35546875 239.82886719 210.7109375 240.65773438 210.046875 241.51171875 C194.78208054 259.97081279 169.84281799 266.6974239 147 270 C98.12339282 273.49118623 49.00113377 271 0 271 C0 181.57 0 92.14 0 0 Z " fill="#0D0D0D" transform="translate(751,469)"/>
<path d="M0 0 C3.0793457 1.33178711 3.0793457 1.33178711 6.17578125 3.02734375 C7.325625 3.65068604 8.47546875 4.27402832 9.66015625 4.91625977 C10.25715332 5.24667267 10.85415039 5.57708557 11.46923828 5.91751099 C13.3307345 6.94759026 15.19945644 7.96335177 17.0703125 8.97631836 C22.65461316 12.00936541 28.20385516 15.09692467 33.69921875 18.2890625 C34.52317139 18.76351807 35.34712402 19.23797363 36.19604492 19.72680664 C37.69592694 20.59634723 39.18757228 21.4803056 40.66918945 22.38061523 C42.83148779 23.68712444 42.83148779 23.68712444 46 25 C49.04647911 23.91545936 50.97357268 22.24256678 53.171875 19.91796875 C54.04585937 19.01401367 54.04585937 19.01401367 54.9375 18.09179688 C56.13255636 16.83621503 57.32532175 15.57844811 58.515625 14.31835938 C66.61057675 5.96600236 75.48161809 0.97981851 87.25 0.5625 C116.0289416 1.30598181 145.29284717 13.2613467 167 32 C167.80179688 32.67804688 168.60359375 33.35609375 169.4296875 34.0546875 C175.82599111 39.88867871 179.08256578 46.42410542 179.5 55.125 C178.95275872 68.07637704 174.01752448 80.23032114 169 92 C168.32873713 93.66482083 167.66015757 95.33074442 167 97 C167.836521 97.25346191 168.67304199 97.50692383 169.53491211 97.76806641 C173.34502014 99.1226641 176.86253014 100.85081484 180.44140625 102.7109375 C181.91202216 103.46361977 183.3829841 104.21562624 184.85424805 104.96704102 C185.62167328 105.36013458 186.38909851 105.75322815 187.17977905 106.15823364 C203.81177373 114.65157047 220.55727394 122.29578815 238 129 C239.06186523 129.41040527 240.12373047 129.82081055 241.21777344 130.24365234 C265.52275203 139.54737206 290.36309197 146.52708553 316 151 C316.92345215 151.16371094 317.8469043 151.32742188 318.79833984 151.49609375 C350.63181276 157.04131631 376.95609943 152.01197888 403.49145508 133.61523438 C407.02438345 131.11724389 410.5194337 128.57030482 414 126 C414.84522217 125.37859131 414.84522217 125.37859131 415.70751953 124.74462891 C422.28234676 119.89948386 428.73940831 114.89953467 435.2109375 109.91796875 C435.80487305 109.46083496 436.39880859 109.00370117 437.01074219 108.53271484 C438.44193752 107.42998481 439.87215961 106.32599121 441.30175781 105.22119141 C498.41121956 61.12784373 560.99993637 24.8156222 635.1875 24.75 C636.22905746 24.74898788 636.22905746 24.74898788 637.29165649 24.74795532 C680.38576383 24.81379482 722.12575994 35.22347311 753.30859375 66.30078125 C773.1425346 87.30344652 782.30883656 115.06292573 787 143 C787.18191895 144.04978027 787.36383789 145.09956055 787.55126953 146.18115234 C793.24582305 179.32316499 793.24582305 179.32316499 789.27734375 185.8203125 C784.11950485 189.25067496 779.05051707 188.68523527 773 188.5625 C771.824375 188.57345703 770.64875 188.58441406 769.4375 188.59570312 C760.86562267 188.52264735 760.86562267 188.52264735 757.25 186.33959961 C752.79834349 181.71066902 752.57526716 175.87778234 751.88671875 169.734375 C751.68857799 168.10411472 751.48999498 166.47390814 751.29101562 164.84375 C750.98956251 162.31765534 750.69221218 159.79126296 750.40356445 157.26367188 C748.60723222 141.68415181 745.80218461 126.28574804 738.75 112.125 C738.36505371 111.33746338 737.98010742 110.54992676 737.58349609 109.73852539 C727.40575164 89.53824813 710.86577728 76.27907929 689.66943359 69.015625 C636.72163995 51.94716231 582.5194315 63.61359232 534.11669922 88.34960938 C517.92664929 96.9227519 502.8106088 107.25916189 488 118 C487.20110352 118.5775 486.40220703 119.155 485.57910156 119.75 C476.90876816 126.03274867 468.3641244 132.45668559 459.9375 139.0625 C429.19038599 163.13330796 396.50233616 186.64632511 358 196 C357.34902344 196.16371094 356.69804687 196.32742188 356.02734375 196.49609375 C331.90335482 202.29927995 305.78334504 199.88607911 282 194 C280.989375 193.75894531 279.97875 193.51789063 278.9375 193.26953125 C237.20622611 183.20931344 196.37062686 167.31644848 157.85546875 148.5390625 C156.70457764 147.97823975 155.55368652 147.41741699 154.36791992 146.83959961 C152.16634915 145.75964097 149.96963819 144.66970317 147.77856445 143.56860352 C146.79976318 143.08576904 145.82096191 142.60293457 144.8125 142.10546875 C143.95269531 141.67387451 143.09289062 141.24228027 142.20703125 140.79760742 C139.87538071 139.69718391 139.87538071 139.69718391 137 141 C135.5875304 142.61755209 134.24258458 144.29462632 132.9375 146 C124.79192392 156.13262291 116.04935406 164.1913047 103 167 C74.21752446 169.14746031 46.50068672 159.32585758 24 141.4375 C22.31679275 139.9771832 20.64935246 138.49844862 19 137 C18.16597656 136.27039063 17.33195312 135.54078125 16.47265625 134.7890625 C9.82065121 128.64377422 5.94975576 122.39227162 5.5625 113.1875 C5.8101875 106.97549759 7.42322305 100.98799819 9 95 C8.28118652 94.72325439 7.56237305 94.44650879 6.82177734 94.16137695 C-2.76251382 90.21670893 -11.85649106 84.8591071 -21 80 C-22.11246094 79.41057617 -23.22492187 78.82115234 -24.37109375 78.21386719 C-27.55070552 76.51725508 -30.71480564 74.79496279 -33.875 73.0625 C-34.84872559 72.54389404 -35.82245117 72.02528809 -36.82568359 71.4909668 C-41.8384441 68.70206381 -45.22711274 66.77592231 -47 61 C-46.92610639 57.37921329 -46.19347061 55.3482471 -44.4375 52.1875 C-41.80590172 49.82580924 -39.98273079 49.10822601 -36.4777832 48.76538086 C-30.9448421 49.28929025 -26.15206441 52.53874323 -21.375 55.1875 C-20.18725775 55.82685359 -18.99852294 56.46436647 -17.80883789 57.10009766 C-14.78211197 58.72411602 -11.76917119 60.37188609 -8.76092529 62.02984619 C-4.96214303 64.12272491 -1.15418691 66.19892736 2.65185547 68.27856445 C4.56215457 69.32632874 6.46887447 70.38065077 8.37158203 71.44213867 C9.21962402 71.91240479 10.06766602 72.3826709 10.94140625 72.8671875 C11.68076416 73.28081543 12.42012207 73.69444336 13.18188477 74.12060547 C14.96347113 75.14514169 14.96347113 75.14514169 17 75 C17.33209473 74.35562988 17.66418945 73.71125977 18.00634766 73.04736328 C19.54251097 70.07147979 21.08372527 67.09823919 22.625 64.125 C23.14707031 63.11179687 23.66914062 62.09859375 24.20703125 61.0546875 C27.58135851 54.55598315 31.15054687 48.22924066 35 42 C34.22140625 41.7834375 33.4428125 41.566875 32.640625 41.34375 C27.73213566 39.5320329 23.31512867 37.04058645 18.75 34.5 C16.78908134 33.41402848 14.82814354 32.32809153 12.8671875 31.2421875 C11.88717773 30.69788086 10.90716797 30.15357422 9.89746094 29.59277344 C7.17778452 28.09773055 4.44212387 26.63974747 1.6953125 25.1953125 C0.8796582 24.76025391 0.06400391 24.32519531 -0.77636719 23.87695312 C-2.29971971 23.06492072 -3.82876692 22.26344857 -5.36425781 21.47460938 C-9.91308705 19.01982119 -12.56011879 16.73475657 -15 12 C-15.07993909 7.44347211 -14.52189375 5.61556699 -11.5625 2.125 C-7.29214169 -1.41627274 -5.43092383 -1.08547968 0 0 Z " fill="#0E0E0E" transform="translate(70,248)"/>
<path d="M0 0 C8.71081094 7.87511315 15.46084888 16.25579045 21.22558594 26.46044922 C21.77601563 27.38728516 22.32644531 28.31412109 22.89355469 29.26904297 C38.01427044 56.67291085 38.8535139 91.9656605 30.6328125 121.58520508 C23.07166562 147.01561409 6.5429803 169.42925341 -16.77441406 182.46044922 C-43.61514686 196.92514146 -75.78988447 199.84949014 -105.02050781 191.24169922 C-119.94599383 186.53824721 -133.18980841 178.99882612 -144.77441406 168.46044922 C-145.46664062 167.84943359 -146.15886719 167.23841797 -146.87207031 166.60888672 C-166.07066177 148.669845 -175.91496107 121.98863485 -176.90209961 96.11352539 C-177.53214455 66.09361698 -177.53214455 66.09361698 -173.77441406 52.46044922 C-173.5757373 51.7350293 -173.37706055 51.00960937 -173.17236328 50.26220703 C-169.00028599 35.58024514 -162.81682826 22.08733321 -152.77441406 10.46044922 C-152.19433594 9.73728516 -151.61425781 9.01412109 -151.01660156 8.26904297 C-135.00831769 -10.98778387 -109.8335736 -22.0167612 -85.33691406 -25.16455078 C-54.42224578 -27.80888477 -23.82821478 -20.67428762 0 0 Z " fill="#0D0E0E" transform="translate(296.7744140625,549.53955078125)"/>
<path d="M0 0 C9.51847909 4.91018131 20.98523478 10.97785218 27.03222656 20.04833984 C30.92139681 39.87278289 14.38983435 63.27926646 4.03222656 78.92333984 C-2.80222784 89.05013338 -10.08407838 98.2695467 -18.59277344 107.04833984 C-19.11943604 107.60134766 -19.64609863 108.15435547 -20.1887207 108.72412109 C-25.35601669 113.91152955 -30.65330632 116.39803944 -38.01708984 116.46582031 C-38.72269043 116.45180176 -39.42829102 116.4377832 -40.15527344 116.42333984 C-40.90212402 116.41318848 -41.64897461 116.40303711 -42.41845703 116.39257812 C-48.92385282 116.21222221 -54.79545538 115.15654718 -60.96777344 113.04833984 C-62.12535156 112.65775391 -63.28292969 112.26716797 -64.47558594 111.86474609 C-78.55425796 106.67709346 -97.12682365 97.55100596 -105.09130859 84.15917969 C-107.74300031 77.77296058 -105.68347102 70.7659797 -103.46777344 64.54833984 C-103.19860107 63.77425781 -102.92942871 63.00017578 -102.65209961 62.20263672 C-93.49596398 36.60807991 -76.02490679 2.25553722 -50.96777344 -10.95166016 C-34.74831364 -16.35814675 -14.41531461 -7.14822632 0 0 Z " fill="#FEFEFE" transform="translate(201.9677734375,279.95166015625)"/>
<path d="M0 0 C13.38744173 9.63626259 19.73262688 24.55294689 22.453125 40.42578125 C25.73411232 62.58965365 24.76851883 90.74001693 11.03125 109.47265625 C10.51046875 110.1171875 9.9896875 110.76171875 9.453125 111.42578125 C8.95296875 112.0496875 8.4528125 112.67359375 7.9375 113.31640625 C0.71125438 121.38454457 -10.11851076 125.93472352 -20.796875 126.640625 C-34.26074161 127.00333692 -45.30891396 123.59552737 -55.234375 114.30078125 C-71.23562229 97.38120151 -73.19213947 73.10331388 -72.796875 50.96484375 C-72.23383171 34.41700134 -67.24156201 18.26450602 -56.171875 5.73828125 C-39.87675596 -8.61694266 -19.05625732 -11.77863758 0 0 Z " fill="#FDFDFD" transform="translate(250.546875,574.57421875)"/>
<path d="M0 0 C8.70375 -0.04125 17.4075 -0.0825 26.375 -0.125 C30.43627197 -0.15231201 30.43627197 -0.15231201 34.57958984 -0.18017578 C82.71812657 -0.37032814 82.71812657 -0.37032814 97 12.8515625 C104.19591021 20.61714893 106.33135629 28.69403427 106.21875 39.15234375 C105.58321971 47.42558632 101.9789535 54.34476291 96 60.0625 C82.59964878 71.01858114 63.93413344 71.16246642 47.55859375 71.09765625 C45.74397644 71.09614563 45.74397644 71.09614563 43.8927002 71.09460449 C39.40762371 71.08940351 34.92256083 71.07544241 30.4375 71.0625 C20.393125 71.041875 10.34875 71.02125 0 71 C0 47.57 0 24.14 0 0 Z " fill="#FCFCFC" transform="translate(812,624)"/>
<path d="M0 0 C8.559375 -0.061875 17.11875 -0.12375 25.9375 -0.1875 C29.93411743 -0.22846802 29.93411743 -0.22846802 34.01147461 -0.27026367 C72.22896556 -0.50050749 72.22896556 -0.50050749 85.21875 10.95703125 C92.20903348 18.44866703 92.54245252 26.08987053 92.3125 35.85546875 C92.0409484 40.90067118 90.84302027 44.8018953 88 49 C87.57589844 49.63164063 87.15179687 50.26328125 86.71484375 50.9140625 C79.23311632 60.7090817 66.87982816 63.7152607 55.28479004 65.58758545 C50.00084907 66.25099897 44.77149301 66.24658263 39.453125 66.1953125 C38.4429834 66.19329834 37.4328418 66.19128418 36.39208984 66.18920898 C32.6780126 66.17887504 28.96400093 66.15095437 25.25 66.125 C16.9175 66.08375 8.585 66.0425 0 66 C0 44.22 0 22.44 0 0 Z " fill="#FEFEFE" transform="translate(812,515)"/>
<path d="M0 0 C1.01518204 -0.00315216 2.03036407 -0.00630432 3.0763092 -0.009552 C4.18348801 -0.00752777 5.29066681 -0.00550354 6.43139648 -0.00341797 C8.13210548 -0.00485306 8.13210548 -0.00485306 9.86717224 -0.00631714 C12.27570653 -0.00699955 14.68424265 -0.00514108 17.09277344 -0.00097656 C20.7623312 0.00433639 24.43176461 -0.00090157 28.10131836 -0.00732422 C30.44051134 -0.00666277 32.77970424 -0.00538023 35.11889648 -0.00341797 C36.21190567 -0.0054422 37.30491486 -0.00746643 38.43104553 -0.009552 C44.12963013 0.00776581 49.60405263 0.2747316 55.23999023 1.12939453 C55.23999023 1.45939453 55.23999023 1.78939453 55.23999023 2.12939453 C35.76999023 2.12939453 16.29999023 2.12939453 -3.76000977 2.12939453 C-3.76000977 3.77939453 -3.76000977 5.42939453 -3.76000977 7.12939453 C-4.42000977 6.79939453 -5.08000977 6.46939453 -5.76000977 6.12939453 C-5.80273077 4.46327548 -5.80064809 2.79556568 -5.76000977 1.12939453 C-4.12187158 -0.50874365 -2.25811114 0.00200188 0 0 Z " fill="#1F1E1E" transform="translate(815.760009765625,512.87060546875)"/>
<path d="M0 0 C0.99 0 1.98 0 3 0 C3.144375 1.134375 3.28875 2.26875 3.4375 3.4375 C3.61171478 6.80777201 3.61171478 6.80777201 5 8 C5.09938863 9.76853292 5.12969223 11.54118275 5.125 13.3125 C5.12757813 14.27800781 5.13015625 15.24351562 5.1328125 16.23828125 C5.01628167 18.66143705 4.69241648 20.68644969 4 23 C3.34 23 2.68 23 2 23 C2.33 23.99 2.66 24.98 3 26 C2.01 26.33 1.02 26.66 0 27 C0.24363281 26.02546875 0.24363281 26.02546875 0.4921875 25.03125 C1.14061143 21.16065791 1.145293 17.41654874 1.125 13.5 C1.12886719 12.75363281 1.13273438 12.00726562 1.13671875 11.23828125 C1.12985206 7.35860414 0.94729776 3.78919102 0 0 Z " fill="#181818" transform="translate(902,533)"/>
<path d="M0 0 C0.66 0.33 1.32 0.66 2 1 C1.67 3.64 1.34 6.28 1 9 C0.34 9 -0.32 9 -1 9 C-0.979375 10.093125 -0.95875 11.18625 -0.9375 12.3125 C-1 16 -1 16 -2 19 C-2.66 19 -3.32 19 -4 19 C-4 20.32 -4 21.64 -4 23 C-4.66 23 -5.32 23 -6 23 C-5.37650642 20.47878568 -4.75124639 17.95803069 -4.125 15.4375 C-3.86396484 14.38079102 -3.86396484 14.38079102 -3.59765625 13.30273438 C-2.48705185 8.83975002 -1.28798784 4.41512948 0 0 Z " fill="#191919" transform="translate(482,556)"/>
<path d="M0 0 C0.99 0 1.98 0 3 0 C4.32 5.94 5.64 11.88 7 18 C6.01 18 5.02 18 4 18 C3.66223316 16.2508503 3.32996329 14.50063855 3 12.75 C2.814375 11.77546875 2.62875 10.8009375 2.4375 9.796875 C2 7 2 7 2 3 C1.34 3 0.68 3 0 3 C0 2.01 0 1.02 0 0 Z " fill="#191919" transform="translate(603,617)"/>
<path d="M0 0 C4.55315948 0.61811534 8.28459767 2.46765893 12.3125 4.5625 C13.28026367 5.0565332 13.28026367 5.0565332 14.26757812 5.56054688 C15.84785228 6.36824255 17.42432105 7.18337613 19 8 C18.34 8.66 17.68 9.32 17 10 C14.72532419 8.90322765 12.45545476 7.79801578 10.1875 6.6875 C9.54490234 6.37876953 8.90230469 6.07003906 8.24023438 5.75195312 C5.04392384 4.17863965 2.29422893 2.77183792 0 0 Z " fill="#1A1A1A" transform="translate(248,351)"/>
<path d="M0 0 C2.41346327 4.1373656 4.5081809 9.45467653 3.55078125 14.25 C3.36902344 14.8275 3.18726563 15.405 3 16 C1 14 1 14 0.875 10.375 C0.91625 9.26125 0.9575 8.1475 1 7 C0.34 7 -0.32 7 -1 7 C-1.04254356 5.00045254 -1.04080783 2.99958364 -1 1 C-0.67 0.67 -0.34 0.34 0 0 Z " fill="#151515" transform="translate(594,574)"/>
<path d="M0 0 C0 3.11227195 -0.45627049 5.94152152 -1 9 C-1.66 9 -2.32 9 -3 9 C-3.33 11.64 -3.66 14.28 -4 17 C-4.66 17 -5.32 17 -6 17 C-5.38490238 14.35149716 -4.75850592 11.70660095 -4.125 9.0625 C-3.95097656 8.30775391 -3.77695312 7.55300781 -3.59765625 6.77539062 C-3.12755935 4.83406455 -2.5695703 2.91450456 -2 1 C-1.34 0.67 -0.68 0.34 0 0 Z " fill="#171718" transform="translate(493,523)"/>
<path d="M0 0 C1.09658936 3.28976808 0.79953138 4.71303767 0 8 C-0.66 8 -1.32 8 -2 8 C-2 10.31 -2 12.62 -2 15 C-2.66 15 -3.32 15 -4 15 C-3.85795259 13.41632253 -3.71119847 11.83306682 -3.5625 10.25 C-3.48128906 9.36828125 -3.40007812 8.4865625 -3.31640625 7.578125 C-3.03486592 5.28409266 -2.74405173 3.18780774 -2 1 C-1.34 0.67 -0.68 0.34 0 0 Z " fill="#151414" transform="translate(125,601)"/>
<path d="M0 0 C6.27 0.33 12.54 0.66 19 1 C19 1.33 19 1.66 19 2 C16.39635591 2.24867947 13.79410106 2.47457902 11.1875 2.6875 C10.44951172 2.76033203 9.71152344 2.83316406 8.95117188 2.90820312 C6.79296875 3.07421875 6.79296875 3.07421875 3 3 C2.01 2.01 1.02 1.02 0 0 Z " fill="#202020" transform="translate(147,395)"/>
<path d="M0 0 C2.5 1 2.5 1 4 2 C4 2.33 4 2.66 4 3 C-0.95 2.67 -5.9 2.34 -11 2 C-7.29598872 -0.46934085 -4.29412135 -0.44928433 0 0 Z " fill="#1A1A1A" transform="translate(216,742)"/>
<path d="M0 0 C0.33 0 0.66 0 1 0 C1.66 3.96 2.32 7.92 3 12 C2.01 12 1.02 12 0 12 C-0.19477739 10.37585622 -0.38059458 8.75063577 -0.5625 7.125 C-0.66691406 6.22007812 -0.77132813 5.31515625 -0.87890625 4.3828125 C-1 2 -1 2 0 0 Z " fill="#181818" transform="translate(433,599)"/>
<path d="M0 0 C1.58052444 4.56595948 0.48980597 8.53058208 -1 13 C-1.99 13.33 -2.98 13.66 -4 14 C-3.52525225 11.85318469 -3.04508251 9.70756772 -2.5625 7.5625 C-2.29566406 6.36753906 -2.02882813 5.17257812 -1.75390625 3.94140625 C-1 1 -1 1 0 0 Z " fill="#181818" transform="translate(473,590)"/>
<path d="M0 0 C0.66 0 1.32 0 2 0 C2 0.66 2 1.32 2 2 C1.34 2 0.68 2 0 2 C0.04125 3.051875 0.0825 4.10375 0.125 5.1875 C0.00852125 8.74010173 -0.47208068 10.84866641 -2 14 C-2.66 14 -3.32 14 -4 14 C-3.71572583 12.41532272 -3.42225182 10.8322943 -3.125 9.25 C-2.96257812 8.36828125 -2.80015625 7.4865625 -2.6328125 6.578125 C-2.03203736 4.13052256 -1.22002883 2.19400143 0 0 Z " fill="#181819" transform="translate(459,639)"/>
<path d="M0 0 C0.66 0.33 1.32 0.66 2 1 C1.49202991 5.3177458 0.80317221 9.03302114 -1 13 C-1.66 13 -2.32 13 -3 13 C-2.69240822 11.02006459 -2.3787932 9.04106401 -2.0625 7.0625 C-1.88847656 5.96035156 -1.71445312 4.85820313 -1.53515625 3.72265625 C-1 1 -1 1 0 0 Z " fill="#171716" transform="translate(646,520)"/>
<path d="M0 0 C0.66 0 1.32 0 2 0 C2.08159574 4.16138263 1.98248524 7.9472484 1 12 C0.01 12 -0.98 12 -2 12 C-1.34 8.04 -0.68 4.08 0 0 Z " fill="#191919" transform="translate(623,623)"/>
<path d="M0 0 C0.66 0 1.32 0 2 0 C2.66 3.63 3.32 7.26 4 11 C3.34 11 2.68 11 2 11 C2 9.68 2 8.36 2 7 C1.34 7 0.68 7 0 7 C0 4.69 0 2.38 0 0 Z " fill="#1A1A1A" transform="translate(581,527)"/>
<path d="M0 0 C2.49388574 4.98777148 1.88836125 6.66983248 1 12 C0.01 12 -0.98 12 -2 12 C-1.34 8.04 -0.68 4.08 0 0 Z " fill="#1D1D1D" transform="translate(650,497)"/>
<path d="M0 0 C0.33 0.66 0.66 1.32 1 2 C0.34 2 -0.32 2 -1 2 C-0.690625 3.1446875 -0.690625 3.1446875 -0.375 4.3125 C0 7 0 7 -2 10 C-2.66 10 -3.32 10 -4 10 C-3.71872579 8.51882199 -3.42466268 7.04006751 -3.125 5.5625 C-2.96257812 4.73878906 -2.80015625 3.91507812 -2.6328125 3.06640625 C-2.42398437 2.38449219 -2.21515625 1.70257813 -2 1 C-1.34 0.67 -0.68 0.34 0 0 Z " fill="#151515" transform="translate(503,487)"/>
<path d="M0 0 C1.41687119 4.25061356 0.19320039 6.71851625 -1 11 C-3 8 -3 8 -2.75 4.9375 C-2 2 -2 2 0 0 Z " fill="#131313" transform="translate(687,595)"/>
<path d="M0 0 C2.64 0.66 5.28 1.32 8 2 C7.67 2.99 7.34 3.98 7 5 C4.36 4.01 1.72 3.02 -1 2 C-0.67 1.34 -0.34 0.68 0 0 Z " fill="#161616" transform="translate(136,391)"/>
<path d="M0 0 C0.99 0 1.98 0 3 0 C2.67 2.31 2.34 4.62 2 7 C1.01 7.33 0.02 7.66 -1 8 C-0.67 5.36 -0.34 2.72 0 0 Z " fill="#161616" transform="translate(655,474)"/>
<path d="M0 0 C0.66 0 1.32 0 2 0 C2 1.98 2 3.96 2 6 C1.01 6 0.02 6 -1 6 C-1.042721 4.33388095 -1.04063832 2.66617115 -1 1 C-0.67 0.67 -0.34 0.34 0 0 Z " fill="#151515" transform="translate(56,254)"/>
<path d="M0 0 C0.33 0 0.66 0 1 0 C1.33 2.97 1.66 5.94 2 9 C1.01 8.34 0.02 7.68 -1 7 C-0.67 4.69 -0.34 2.38 0 0 Z " fill="#1B1B1B" transform="translate(425,561)"/>
</svg>
