<?xml version="1.0" encoding="UTF-8" standalone="no"?>
<!-- Created with Inkscape (http://www.inkscape.org/) -->

<svg
   version="1.1"
   id="svg1"
   width="2556.6711"
   height="1822.7593"
   viewBox="0 0 2556.6711 1822.7593"
   xml:space="preserve"
   xmlns="http://www.w3.org/2000/svg"
   xmlns:svg="http://www.w3.org/2000/svg"><defs
     id="defs1"><rect
       x="1899.4994"
       y="-1249.2203"
       width="2139.0759"
       height="1249.2203"
       id="rect3" /><clipPath
       clipPathUnits="userSpaceOnUse"
       id="clipPath15"><g
         id="use15" /></clipPath><clipPath
       clipPathUnits="userSpaceOnUse"
       id="clipPath20"><g
         id="use20"
         style="display:inline" /></clipPath><clipPath
       clipPathUnits="userSpaceOnUse"
       id="clipPath23"><g
         id="use23"
         style="stroke-width:1.52068"><path
           style="display:inline;opacity:1;fill:#87d6be;fill-opacity:1;stroke:none;stroke-width:144.464;stroke-linecap:round;stroke-linejoin:round;stroke-miterlimit:0;stroke-opacity:1"
           id="path44"
           d="M 2479.5983,735.4187 A 1207.5515,346.58099 0 0 1 1272.0468,1081.9997 1207.5515,346.58099 0 0 1 64.495239,735.4187 1207.5515,346.58099 0 0 1 1272.0468,388.83771 1207.5515,346.58099 0 0 1 2479.5983,735.4187 Z" /></g></clipPath><filter
       style="color-interpolation-filters:sRGB"
       id="filter31"
       x="0"
       y="-0.041911889"
       width="1"
       height="1.0419118"><feColorMatrix
         values="0 0 0 0 0 0 0 0 0 0 0 0 0 0 0 -1 -1 -1 1 0 "
         id="feColorMatrix31" /></filter></defs><path
     id="path1"
     style="display:inline;opacity:1;fill:#87d6be;fill-opacity:1;stroke:none;stroke-width:94.9998;stroke-linecap:round;stroke-linejoin:round;stroke-miterlimit:0;stroke-opacity:1"
     d="m 1290.9741,461.27103 c -21.7981,0.0967 -43.5952,0.4357 -65.3851,1.03939 -25.6652,0.71863 -51.321,1.78712 -76.9555,3.23581 -22.0883,1.24858 -44.1607,2.77788 -66.2098,4.59232 -24.3014,2.01316 -48.5746,4.37338 -72.8038,7.1235 -20.71244,2.35415 -41.39186,4.99813 -62.02884,7.94137 -16.31058,2.3389 -32.5934,4.87018 -48.84126,7.61126 -21.24022,3.59793 -42.42055,7.55461 -63.51073,11.94914 -17.95797,3.7394 -35.84974,7.79917 -53.65219,12.22086 -16.20373,4.036 -32.33309,8.37404 -48.35461,13.08294 -14.90355,4.38789 -29.71601,9.09007 -44.38927,14.19712 -11.58271,4.02808 -23.07536,8.31618 -34.45195,12.89465 -10.17746,4.11373 -20.26197,8.46091 -30.20376,13.11677 -8.30009,3.89051 -16.50414,7.989 -24.56547,12.35367 -7.63141,4.12766 -15.1342,8.49571 -22.45507,13.15293 -5.18048,3.302 -10.27631,6.74019 -15.23417,10.36866 -5.09311,3.70984 -10.04318,7.61753 -14.8127,11.7353 -3.66816,3.18549 -7.23936,6.48609 -10.6382,9.95839 -2.874,2.91076 -5.63147,5.93826 -8.24529,9.08479 -2.48283,2.97362 -4.83102,6.0606 -7.01703,9.25874 -1.86513,2.73081 -3.60752,5.5447 -5.20455,8.44068 -1.35031,2.46143 -2.5983,4.98034 -3.71926,7.55451 -1.18423,2.74639 -2.23903,5.54905 -3.10951,8.41105 -0.78347,2.50884 -1.39769,5.06809 -1.9152,7.64417 -0.37367,2.0205 -0.67269,4.05202 -0.89362,6.0949 -0.23368,2.52536 -0.37291,5.06201 -0.33237,7.59868 0.0284,2.7908 0.23681,5.57811 0.612,8.34357 0.30842,2.34932 0.76672,4.67639 1.30162,6.98427 0.63632,2.59163 1.38521,5.15757 2.28688,7.66975 1.01032,2.86065 2.19541,5.6568 3.5104,8.39028 1.26194,2.60276 2.64352,5.14833 4.13395,7.62734 1.74836,2.9083 3.64352,5.72585 5.65209,8.46054 2.42473,3.29425 5.01791,6.46251 7.73384,9.52083 2.92651,3.28032 5.99861,6.42894 9.17823,9.46432 3.40863,3.23971 6.94441,6.34321 10.56891,9.33911 4.88778,4.00746 9.93227,7.82278 15.11262,11.44405 5.17192,3.62714 10.46916,7.07485 15.8558,10.37421 7.60108,4.6609 15.3858,9.01786 23.28635,13.14933 8.31935,4.34272 16.77193,8.42904 25.32229,12.29651 11.41627,5.17198 23.00334,9.96236 34.70272,14.45568 12.49954,4.80406 25.13169,9.25976 37.85038,13.44784 14.49899,4.76638 29.11381,9.17657 43.80974,13.29469 17.4316,4.88082 34.97732,9.34991 52.60141,13.48031 19.88127,4.65542 39.86291,8.87789 59.91319,12.73932 22.05854,4.2439 44.20102,8.04675 66.40071,11.47476 26.71024,4.11738 53.50381,7.68862 80.35172,10.78171 26.1042,3.00347 52.26,5.5568 78.4493,7.69454 28.9064,2.35987 57.8534,4.21746 86.8228,5.60171 29.6986,1.41904 59.4205,2.34718 89.1497,2.79132 29.8121,0.44665 59.6316,0.41271 89.4425,-0.10554 29.3773,-0.50852 58.7465,-1.4898 88.0918,-2.95237 27.6817,-1.37814 55.3415,-3.19634 82.9646,-5.46388 24.6082,-2.0287 49.1867,-4.42093 73.7209,-7.20567 20.6463,-2.35264 41.2609,-4.98469 61.8322,-7.92253 16.3326,-2.33994 32.6364,-4.87881 48.9061,-7.62233 18.4787,-3.1336 36.9121,-6.53597 55.281,-10.26049 20.3765,-4.13987 40.6767,-8.66233 60.8581,-13.66938 16.5701,-4.10642 33.0588,-8.54422 49.4381,-13.35655 14.8603,-4.37956 29.6304,-9.0699 44.262,-14.16344 11.5406,-4.01704 22.9944,-8.2856 34.3296,-12.85114 10.3222,-4.16371 20.5428,-8.58198 30.6219,-13.30486 8.9898,-4.22688 17.8708,-8.68981 26.5738,-13.48119 6.8378,-3.7512 13.5636,-7.70824 20.1445,-11.89442 5.8466,-3.72568 11.5781,-7.63478 17.1381,-11.77706 4.1392,-3.07365 8.1688,-6.29356 12.0956,-9.63407 3.751,-3.2325 7.4047,-6.58072 10.8899,-10.09903 3.4656,-3.49706 6.7828,-7.14408 9.8778,-10.97408 2.0706,-2.54656 4.0358,-5.18005 5.8901,-7.888 1.8641,-2.73148 3.608,-5.54438 5.2052,-8.44032 1.3506,-2.46127 2.598,-4.98047 3.7188,-7.55476 1.1843,-2.74637 2.2388,-5.54911 3.1098,-8.41095 0.7834,-2.50885 1.3979,-5.06808 1.9149,-7.64428 0.3733,-2.02055 0.6728,-4.052 0.8938,-6.09488 0.2336,-2.52537 0.3727,-5.06201 0.3322,-7.59869 -0.028,-2.79037 -0.237,-5.57724 -0.6119,-8.3423 -0.3099,-2.37135 -0.7769,-4.71907 -1.3159,-7.04848 -0.6484,-2.61158 -1.4004,-5.19996 -2.3181,-7.73026 -1.0103,-2.86081 -2.2068,-5.65213 -3.5211,-8.3858 -1.2823,-2.61703 -2.6681,-5.18533 -4.1818,-7.67606 -1.7618,-2.92519 -3.6811,-5.75212 -5.6999,-8.50554 -2.3873,-3.21321 -4.9223,-6.31526 -7.5827,-9.30632 -2.9249,-3.2819 -5.998,-6.4294 -9.1776,-9.46485 -4.3053,-4.08461 -8.7977,-7.97091 -13.4471,-11.65909 -4.2996,-3.43822 -8.7435,-6.69226 -13.2547,-9.84661 -5.6683,-3.91154 -11.4594,-7.64435 -17.3652,-11.1871 -6.8693,-4.13458 -13.8839,-8.02471 -20.9898,-11.73715 -9.2559,-4.82226 -18.6749,-9.32848 -28.2079,-13.5757 -10.607,-4.7267 -21.3543,-9.1349 -32.1973,-13.29056 -12.5056,-4.78816 -25.139,-9.24021 -37.8624,-13.4141 -14.3967,-4.72662 -28.9105,-9.0921 -43.5005,-13.18172 -17.4348,-4.86909 -34.9791,-9.34347 -52.6056,-13.46403 -19.8391,-4.64346 -39.7793,-8.85023 -59.7865,-12.70271 -19.0297,-3.66002 -38.1225,-6.98747 -57.2593,-10.03684 -23.2484,-3.69393 -46.5635,-6.96511 -69.924,-9.86705 -24.2997,-3.01159 -48.649,-5.61831 -73.0315,-7.86115 -28.3872,-2.60386 -56.8194,-4.71553 -85.2784,-6.3594 -26.0377,-1.50883 -52.0981,-2.62011 -78.1688,-3.3716 -29.5194,-0.84117 -59.0527,-1.20709 -88.5841,-1.10588 -0.4462,8.7e-4 -0.8924,0.002 -1.3386,0.003 z" /><path
     id="path2"
     style="display:inline;opacity:1;fill:#79c0ab;fill-opacity:1;stroke:none;stroke-width:1.52068;stroke-opacity:1;baseline-shift:baseline;overflow:visible;vector-effect:none;stroke-linecap:round;stroke-linejoin:round;stroke-miterlimit:0;enable-background:accumulate;stop-color:#000000;stop-opacity:1"
     d="M 2144.8745 617.22316 L 339.5161 618.55969 A 55.333032 55.333032 0 0 0 305.45828 717.45716 L 495.32312 866.06176 L 798.40414 1103.2785 A 55.333032 55.333032 0 0 0 832.50354 1115.0399 L 1639.2672 1115.0399 A 55.333032 55.333032 0 0 0 1672.9033 1103.6408 L 2178.5522 716.48001 A 55.333032 55.333032 0 0 0 2144.8745 617.22316 z "
     transform="matrix(0.65760184,0,0,0.65760184,465.61445,207.54846)" /><path
     style="display:inline;opacity:1;fill:#fdd0a4;fill-opacity:1;stroke:none;stroke-width:1.52068;stroke-opacity:1;baseline-shift:baseline;overflow:visible;vector-effect:none;stroke-linejoin:round;enable-background:accumulate;stop-color:#000000;stop-opacity:1"
     d="m 1235.8863,408.10695 c -191.2958,0 -374.79716,92.98459 -469.8872,265.28004 -95.09005,172.29545 -67.13547,386.61611 66.50535,386.32371 h 403.38185 403.3818 c 133.6409,0.2924 161.5955,-214.02826 66.5054,-386.32371 -95.09,-172.29545 -278.5914,-265.28004 -469.8872,-265.28004 z"
     id="path3"
     transform="matrix(0.65760184,0,0,0.65760184,183.92538,-32.107219)" /><path
     style="display:inline;opacity:1;fill:#dab991;fill-opacity:1;stroke:none;stroke-width:1.52068;stroke-opacity:1;baseline-shift:baseline;overflow:visible;vector-effect:none;stroke-linejoin:round;enable-background:accumulate;stop-color:#000000;stop-opacity:1"
     d="m 1235.8863,408.10695 c -191.2958,0 -374.79716,92.98459 -469.8872,265.28004 -95.09005,172.29545 -67.13547,386.61611 66.50535,386.32371 h 403.38185 403.3818 c 133.6409,0.2924 161.5955,-214.02826 66.5054,-386.32371 -95.09,-172.29545 -278.5914,-265.28004 -469.8872,-265.28004 z"
     id="path4"
     transform="matrix(0.65760184,0,0,0.65760184,754.19654,-31.775663)" /><path
     style="display:inline;opacity:1;fill:#fdfccf;fill-opacity:1;stroke:none;stroke-width:1.52068;stroke-opacity:1;baseline-shift:baseline;overflow:visible;vector-effect:none;stroke-linejoin:round;enable-background:accumulate;stop-color:#000000;stop-opacity:1"
     d="m 1235.8863,408.10695 c -191.2958,0 -374.79716,92.98459 -469.8872,265.28004 -95.09005,172.29545 -67.13547,386.61611 66.50535,386.32371 h 403.38185 403.3818 c 133.6409,0.2924 161.5955,-214.02826 66.5054,-386.32371 -95.09,-172.29545 -278.5914,-265.28004 -469.8872,-265.28004 z"
     id="path5"
     transform="matrix(0.65760184,0,0,0.65760184,465.6144,207.54846)" /><path
     id="path6"
     style="display:inline;opacity:1;fill:#091a28;fill-opacity:1;stroke:none;stroke-width:144.464;stroke-linecap:round;stroke-linejoin:round;stroke-miterlimit:0;stroke-opacity:1"
     d="M 807.52524 -11.659944 C 800.95112 -11.659822 794.57058 -11.176641 788.28214 -10.480825 C 585.93456 -4.3617125 391.51554 96.826571 289.2001 282.21386 C 252.78566 348.19387 232.10375 418.6839 227.15826 485.48264 C 82.195348 559.04621 4.6019114 646.18492 4.6018348 735.41719 C 4.6015379 852.53184 138.13599 964.85124 375.8282 1047.6639 C 613.52041 1130.4765 935.89986 1176.9986 1272.0475 1176.9986 C 1330.8042 1176.9986 1389.1392 1175.5782 1446.6759 1172.79 C 1718.3071 1159.6268 1972.1219 1116.0013 2168.2668 1047.6639 C 2405.959 964.85124 2539.4935 852.53184 2539.4932 735.41719 C 2539.493 633.24529 2437.7996 534.23488 2251.7437 455.25918 C 2243.4889 397.83576 2223.9241 338.6565 2193.0521 282.71877 C 2090.7368 97.331456 1896.3174 -3.8568152 1693.97 -9.975913 C 1687.6816 -10.671638 1681.301 -11.154986 1674.7269 -11.155032 L 1674.724 -11.155032 C 1668.1499 -11.15491 1661.7693 -10.671729 1655.4809 -9.975913 C 1500.0481 -5.275546 1349.2939 55.521039 1241.3696 167.48591 C 1133.4124 55.198868 982.43799 -5.7739349 826.7713 -10.480825 C 820.48285 -11.17652 814.10228 -11.659944 807.52821 -11.659944 L 807.52524 -11.659944 z M 752.2017 117.38673 L 752.2017 243.31779 C 752.2014 255.00111 755.89955 266.38468 762.76625 275.83711 C 766.17846 280.53496 770.30891 284.66639 775.00591 288.07975 C 784.45917 294.94704 795.84387 298.64523 807.52821 298.6443 C 838.08396 298.64375 862.8541 273.87356 862.85471 243.31779 L 862.85471 117.38673 C 863.62889 117.8021 864.40107 118.22491 865.1684 118.65198 C 887.05185 130.83272 907.59885 148.70987 910.68476 152.39794 C 930.28704 175.82461 956.4209 219.69356 956.4209 243.31779 C 956.42151 273.87473 981.19342 298.64542 1011.7504 298.6443 C 1042.3061 298.64374 1067.0763 273.87355 1067.0769 243.31779 C 1067.0769 210.70515 1058.7083 182.00308 1047.1685 157.48864 C 1094.0987 182.53038 1136.5815 215.38527 1172.3778 255.61983 L 1172.3778 256.34156 C 1166.793 264.88793 1161.4139 273.63171 1156.3988 282.71877 C 1141.7082 309.33676 1129.5787 336.69079 1120.0095 364.23834 C 1093.4048 369.13961 1067.3518 376.15276 1041.8016 384.59522 L 1041.4808 384.01606 C 1039.9078 381.19865 1038.0083 378.48491 1035.8288 375.92855 C 1016.9035 353.73053 991.31351 339.36644 963.83123 338.9066 C 936.3491 338.44678 909.36882 353.31445 893.56823 376.56414 C 880.62088 395.61526 876.42347 411.27421 902.90317 427.61672 C 910.84506 432.51815 919.38764 434.33214 927.4419 434.30532 L 928.14878 434.35878 C 844.2541 482.34566 772.00493 551.09018 721.32483 639.94421 L 721.32186 639.94421 L 550.84862 639.94421 L 404.14487 639.94421 C 404.10533 639.94417 404.0656 639.94417 404.02607 639.94421 C 385.40816 639.98527 376.40616 635.11127 365.61709 622.79799 C 354.82804 610.4847 344.48716 588.20108 339.77449 558.23456 C 330.34915 498.30151 344.33356 411.32388 386.08089 335.6811 C 429.2251 257.50729 492.87626 197.51504 567.88792 157.48864 C 556.34836 182.00276 547.97953 210.70578 547.97953 243.31779 C 547.98008 273.8747 572.7521 298.64539 603.30901 298.6443 C 633.86478 298.64375 658.63489 273.87356 658.63551 243.31779 C 658.63551 219.69356 684.76944 175.82462 704.37166 152.39794 C 707.45766 148.70986 728.00451 130.83272 749.88801 118.65198 C 750.65526 118.22491 751.42752 117.8021 752.2017 117.38673 z M 1619.3975 117.89164 L 1619.3975 243.81973 C 1619.3973 255.50439 1623.0967 266.88912 1629.965 276.34203 C 1633.3774 281.0388 1637.5085 285.16923 1642.2047 288.58169 C 1651.6579 295.45006 1663.0422 299.14932 1674.7269 299.14921 C 1705.2839 299.14865 1730.0545 274.37664 1730.0534 243.81973 L 1730.0534 117.89164 C 1730.8276 118.30701 1731.597 118.72685 1732.3642 119.15392 C 1754.2478 131.33466 1774.7974 149.21478 1777.8835 152.90285 C 1797.4856 176.3295 1823.6196 220.1955 1823.6196 243.81973 C 1823.6186 274.37664 1848.3892 299.14865 1878.9461 299.14921 C 1909.5031 299.14865 1934.2737 274.37664 1934.2726 243.81973 C 1934.2726 211.2071 1925.9042 182.50799 1914.3643 157.99356 C 1989.3771 198.01995 2053.0296 258.01129 2096.1743 336.18601 C 2137.9216 411.82881 2151.903 498.80642 2142.4777 558.73947 C 2137.765 588.70598 2127.4273 610.9896 2116.6381 623.3029 C 2105.8492 635.61619 2096.8469 640.48984 2078.2291 640.44913 C 2078.188 640.44908 2078.1484 640.44908 2078.1073 640.44913 L 1835.3692 640.44913 L 1750.737 640.44913 C 1696.071 544.33833 1616.3936 471.35978 1523.8057 423.07548 C 1527.9584 423.10191 1530.7679 424.97828 1535.1454 427.10883 C 1546.9123 432.83578 1566.9917 436.75048 1584.2407 426.10495 C 1610.7204 409.76245 1606.523 394.10051 1593.5757 375.04941 C 1577.7749 351.79972 1550.7917 336.93499 1523.3097 337.39483 C 1495.8274 337.85467 1470.2403 352.21878 1451.3151 374.41678 C 1447.6833 378.67644 1444.827 383.37741 1442.9663 388.25732 C 1382.9568 367.45329 1319.444 355.90384 1255.13 353.95892 C 1251.6273 353.57138 1248.0956 353.2501 1244.5179 353.04117 C 1247.2892 347.37191 1250.2101 341.74799 1253.2796 336.18601 C 1296.4241 258.01172 1360.0742 198.01995 1435.0867 157.99356 C 1423.5469 182.50784 1415.1783 211.20739 1415.1783 243.81973 C 1415.1772 274.37664 1439.9478 299.14865 1470.5048 299.14921 C 1501.0629 299.15034 1525.8353 274.37783 1525.8342 243.81973 C 1525.8342 220.1955 1551.9651 176.3295 1571.5674 152.90285 C 1574.6533 149.21478 1595.2033 131.33466 1617.0867 119.15392 C 1617.8539 118.72685 1618.6233 118.30701 1619.3975 117.89164 z M 575.44379 335.88009 C 547.96164 336.33993 522.3715 350.70699 503.44627 372.90502 C 490.29615 388.3292 487.32651 409.53286 504.88972 424.10906 C 520.48685 437.05357 536.32541 437.69209 563.40311 425.16047 C 576.80256 418.95918 579.67276 421.89615 587.27656 425.59707 C 599.04336 431.32401 619.12284 435.23871 636.37185 424.59318 C 662.85164 408.25068 658.65409 392.58876 645.70679 373.53764 C 629.90609 350.28796 602.92589 335.42026 575.44379 335.88009 z M 1924.81 337.39483 C 1897.3279 336.93499 1870.3476 351.79972 1854.547 375.04941 C 1841.5997 394.10051 1837.3991 409.76245 1863.879 426.10495 C 1881.128 436.75048 1901.2074 432.83578 1912.9743 427.10883 C 1920.5779 423.40801 1923.4512 420.47094 1936.8507 426.67223 C 1963.9285 439.20386 1979.7641 438.56535 1995.3611 425.62083 C 2012.9243 411.04462 2009.9548 389.84096 1996.8046 374.41678 C 1977.8793 352.21879 1952.2921 337.85467 1924.81 337.39483 z M 1180.5574 481.82648 L 1180.5574 610.79593 C 1180.5573 622.48059 1184.2566 633.86531 1191.1249 643.31822 C 1194.5373 648.015 1198.6678 652.14542 1203.3646 655.55788 C 1212.8174 662.42622 1224.2022 666.12548 1235.8869 666.1254 C 1266.4438 666.12493 1291.2145 641.3529 1291.2134 610.79593 L 1291.2134 481.82648 C 1291.9867 482.24185 1292.7568 482.66169 1293.5241 483.08876 C 1315.4076 495.26949 1335.9575 513.14959 1339.0434 516.83769 C 1358.6457 540.26431 1384.7796 584.13034 1384.7796 607.75457 C 1384.7785 638.31154 1409.5491 663.08358 1440.1061 663.08405 C 1470.663 663.08349 1495.4337 638.31148 1495.4326 607.75457 C 1495.4326 575.14195 1487.064 546.44282 1475.5242 521.92839 C 1550.5371 561.95479 1614.1894 621.94613 1657.3342 700.12085 C 1699.0815 775.76363 1713.0629 862.74126 1703.6376 922.67431 C 1698.925 952.64083 1688.587 974.92445 1677.798 987.23774 C 1667.0089 999.55102 1658.007 1004.4247 1639.389 1004.384 C 1639.348 1004.3839 1639.3083 1004.3839 1639.2672 1004.384 L 1235.8869 1004.384 L 832.50354 1004.384 C 832.46249 1004.3839 832.42283 1004.3839 832.38177 1004.384 C 813.76382 1004.425 804.76186 999.55102 793.9728 987.23774 C 783.18375 974.92445 772.84287 952.64083 768.1302 922.67431 C 758.70486 862.74125 772.69231 775.76363 814.43956 700.12085 C 857.58406 621.94645 921.23419 561.95479 996.2466 521.92839 C 984.70694 546.44271 976.3382 575.14216 976.3382 607.75457 C 976.3379 638.31154 1001.1078 663.08358 1031.6647 663.08405 C 1062.2227 663.08508 1086.9953 638.31261 1086.9942 607.75457 C 1086.9942 584.13034 1113.1252 540.26433 1132.7274 516.83769 C 1135.8134 513.14959 1156.3632 495.26949 1178.2467 483.08876 C 1179.014 482.66174 1179.7832 482.24179 1180.5574 481.82648 z M 2255.8899 534.4621 C 2401.4063 593.14836 2479.6002 663.38972 2479.5987 735.42016 C 2479.5979 871.72723 2201.2191 995.37755 1768.2486 1051.3883 C 1792.7451 1019.7215 1806.468 981.08951 1812.9511 939.86508 C 1822.1511 881.3652 1816.535 816.11087 1797.2276 751.10214 L 1797.9671 751.10214 L 1835.3692 751.10214 L 2077.9855 751.10214 C 2126.188 751.20768 2170.798 729.4009 2199.8654 696.22708 C 2228.9327 663.05329 2244.6963 621.04428 2251.7912 575.93025 C 2253.9129 562.43895 2255.2784 548.58725 2255.8899 534.4621 z M 228.673 560.94326 C 229.14173 565.82705 229.71526 570.66461 230.46395 575.42533 C 237.55876 620.53935 253.32238 662.54838 282.38973 695.72217 C 311.45706 728.89597 356.06415 750.70273 404.26664 750.59723 L 550.84862 750.59723 L 673.95515 750.59723 C 654.64576 815.7699 649.59968 881.21896 658.82263 939.86508 C 664.69061 977.17806 676.62583 1012.281 696.97618 1042.1039 C 696.46124 1041.3493 695.81397 1040.6793 695.30997 1039.9179 C 306.53235 979.25887 64.494689 862.42574 64.496312 735.42016 C 64.494634 674.15012 121.08486 613.97503 228.50073 561.02642 L 228.673 560.94326 z M 1423.4499 699.31299 C 1395.9679 698.85315 1368.9877 713.71787 1353.1869 736.96757 C 1340.2396 756.01867 1336.039 771.68059 1362.5189 788.02311 C 1379.7678 798.66862 1399.8503 794.75394 1411.6171 789.02699 C 1419.221 785.32617 1422.0911 782.3891 1435.4906 788.59039 C 1462.5682 801.12202 1478.4069 800.48351 1494.004 787.53899 C 1511.5672 772.96278 1508.5976 751.75912 1495.4474 736.33494 C 1476.5223 714.13692 1450.9322 699.77283 1423.4499 699.31299 z M 1003.7995 700.31984 C 976.3172 700.7797 950.73022 715.14674 931.80494 737.34477 C 918.65473 752.76895 915.68518 773.96964 933.2484 788.54584 C 948.84552 801.49035 964.68119 802.13186 991.75882 789.60022 C 1005.1583 783.39893 1008.0314 786.33601 1015.6352 790.03682 C 1027.4021 795.76376 1047.4816 799.67549 1064.7305 789.02996 C 1091.2104 772.68746 1087.0128 757.02851 1074.0655 737.97739 C 1058.2647 714.7277 1031.2815 699.86002 1003.7995 700.31984 z "
     transform="matrix(0.65760184,0,0,0.65760184,465.61445,207.54846)" /><path
     style="font-weight:500;font-size:1646.06px;line-height:1693.08px;font-family:'DM Mono';-inkscape-font-specification:'DM Mono, Medium';letter-spacing:-95px;word-spacing:0px;display:inline;opacity:1;fill:#000000;fill-opacity:1;stroke:none;stroke-width:49.5834;stroke-linecap:round;stroke-linejoin:round;stroke-miterlimit:0;stroke-opacity:1"
     d="m 367.12408,1532.2707 c -32.01475,0 -59.69808,-8.2861 -83.05005,-24.8585 -23.3519,-16.5723 -41.24248,-40.1126 -53.67175,-70.6207 -12.42927,-30.5081 -18.64387,-66.8544 -18.64387,-109.0385 0,-42.1842 6.2146,-78.5303 18.64387,-109.0384 12.42927,-30.5082 30.31985,-54.0485 53.67175,-70.6209 23.35197,-16.5723 51.0353,-24.8584 83.05005,-24.8584 32.39136,0 60.07469,8.2861 83.04999,24.8584 23.3519,16.5724 41.24255,40.1127 53.67178,70.6209 12.42925,30.5081 18.64389,66.8542 18.64389,109.0384 0,42.1841 -6.21464,78.5304 -18.64389,109.0385 -12.42923,30.5081 -30.31988,54.0484 -53.67178,70.6207 -22.9753,16.5724 -50.65863,24.8585 -83.04999,24.8585 z m 0,-56.4965 c 28.24827,0 51.03523,-12.6176 68.36087,-37.8528 17.32564,-25.6118 25.98843,-62.3346 25.98843,-110.1684 0,-47.8338 -8.66279,-84.3683 -25.98843,-109.6034 -17.32564,-25.6118 -40.1126,-38.4177 -68.36087,-38.4177 -28.62495,0 -51.60024,12.8059 -68.92588,38.4177 -16.94896,25.2351 -25.42348,61.7696 -25.42348,109.6034 0,47.8338 8.47452,84.5566 25.42348,110.1684 17.32564,25.2352 40.30093,37.8528 68.92588,37.8528 z m 175.86649,174.0095 V 1245.268 h 56.49663 l -4e-5,42.9374 h 3.38978 c 7.53289,-13.9358 18.83222,-25.6119 33.89801,-35.0279 15.44241,-9.7928 33.70963,-14.6891 54.8017,-14.6891 21.84537,0 41.80747,5.6496 59.88638,16.9489 18.07891,10.9228 32.39139,27.3068 42.93744,49.1521 10.92266,21.4688 16.384,48.3988 16.384,80.7901 0,32.0148 -5.64966,58.9448 -16.94899,80.7902 -10.92266,21.8454 -25.80009,38.4177 -44.6323,49.7171 -18.83221,10.9227 -39.92428,16.3839 -63.27619,16.3839 -20.71541,0 -38.04105,-4.1431 -51.97688,-12.4292 -13.93586,-8.2862 -24.29359,-17.7023 -31.07317,-28.2482 v 158.1904 z m 132.76702,-174.5745 c 21.09207,0 38.60603,-7.5329 52.54185,-22.5986 14.31248,-15.0658 21.46872,-37.6645 21.46872,-67.796 0,-30.1316 -7.15624,-52.5419 -21.46872,-67.2309 -13.93582,-14.6892 -31.44978,-22.0337 -52.54185,-22.0337 -21.46872,0 -39.35931,7.5328 -53.67177,22.5985 -13.93584,14.6892 -20.90375,37.0995 -20.90375,67.231 0,29.755 6.96791,52.1653 20.90375,67.2311 14.31246,15.0657 32.20305,22.5986 53.67177,22.5986 z m 307.5036,57.0615 c -27.11838,0 -51.03531,-6.0262 -71.75071,-18.0789 -20.71541,-12.4291 -36.91113,-29.5665 -48.58707,-51.412 -11.67598,-21.8452 -17.51397,-47.2686 -17.51397,-76.2703 0,-29.3782 5.64967,-55.1784 16.94899,-77.4004 11.67598,-22.222 27.87168,-39.5476 48.58709,-51.9768 21.09207,-12.4293 45.38559,-18.6439 72.88062,-18.6439 27.11836,0 50.47036,6.2146 70.05576,18.6439 19.5855,12.0525 34.6513,28.2483 45.1973,48.5871 10.9227,20.3388 16.3839,42.749 16.3839,67.2309 v 12.4292 c 0,4.1432 -0.1882,8.8512 -0.5649,14.1242 H 904.16595 c 1.88322,25.9884 10.35771,45.7623 25.42347,59.3215 15.06575,13.1825 32.76804,19.7738 53.10679,19.7738 17.70229,0 31.63809,-3.5781 41.80749,-10.7343 10.546,-7.533 18.2672,-17.7023 23.1636,-30.5083 h 60.4512 c -6.7795,26.7417 -20.9035,49.3404 -42.3723,67.796 -21.4687,18.0789 -48.9637,27.1183 -82.48501,27.1183 z m 0,-241.8054 c -18.45556,0 -34.83959,5.6496 -49.15207,16.9489 -14.31244,10.9227 -23.54025,26.3652 -27.68332,46.3273 h 149.1511 c -1.5066,-18.8323 -8.8512,-34.0863 -22.0337,-45.7623 -13.1826,-11.6759 -29.9432,-17.5139 -50.28201,-17.5139 z m 177.56121,235.0259 V 1245.268 h 57.0617 v 41.8075 h 2.8248 c 7.5328,-13.5593 19.2089,-25.0469 35.028,-34.4629 15.8189,-9.4161 34.0862,-14.1242 54.8015,-14.1242 34.2748,0 60.0748,10.3577 77.4004,31.0731 17.3257,20.7154 25.9885,51.2236 25.9885,91.5245 v 164.4052 h -59.8864 v -157.0606 c 0,-23.352 -4.8964,-41.4308 -14.6892,-54.2368 -9.7927,-12.8058 -25.235,-19.2088 -46.3271,-19.2088 -20.7155,0 -38.0411,6.9679 -51.977,20.9037 -13.5591,13.9358 -20.3387,34.0863 -20.3387,60.4513 v 149.1512 z m 293.9445,0 v -395.4763 h 141.2416 c 41.0541,0 72.1273,9.4161 93.2194,28.2483 21.092,18.8322 31.6381,43.1257 31.6381,72.8807 0,22.9752 -6.0264,41.6191 -18.079,55.9316 -12.0526,14.3125 -25.9884,24.6702 -41.8075,31.073 v 3.9549 c 18.8322,6.7796 35.028,17.8905 48.5871,33.3329 13.5592,15.0658 20.3388,35.0279 20.3388,59.8865 0,20.3387 -5.0846,38.9826 -15.254,55.9317 -9.7929,16.5723 -24.2936,29.7548 -43.5024,39.5475 -19.2089,9.7928 -42.7492,14.6892 -70.6208,14.6892 z m 59.8865,-230.5062 h 74.0105 c 22.9753,0 40.4893,-4.5197 52.5418,-13.5592 12.0527,-9.4161 18.0789,-23.5402 18.0789,-42.3724 0,-37.2878 -23.9168,-55.9317 -71.7506,-55.9317 h -72.8806 z m 0,175.1395 h 77.9653 c 24.4818,0 43.3139,-5.273 56.4965,-15.8191 13.1826,-10.546 19.7738,-25.9884 19.7738,-46.3271 0,-19.9623 -6.9679,-35.2163 -20.9037,-45.7624 -13.9358,-10.9227 -32.7681,-16.384 -56.4966,-16.384 h -76.8353 z m 358.9153,62.1462 c -22.2219,0 -40.8658,-3.7665 -55.9316,-11.2993 -15.0657,-7.9095 -26.365,-18.2672 -33.898,-31.073 -7.5329,-13.1827 -11.2993,-27.4951 -11.2993,-42.9375 0,-27.495 9.9811,-48.9638 29.9432,-64.4061 20.3388,-15.4425 48.9638,-23.1636 85.8749,-23.1636 h 72.3156 v -6.2147 c 0,-42.1842 -19.5855,-63.2762 -58.7564,-63.2762 -16.1958,0 -29.9433,3.5782 -41.2426,10.7344 -10.9226,6.7795 -18.2672,17.8906 -22.0337,33.333 h -59.8864 c 3.0132,-29.3783 15.6308,-52.5419 37.8528,-69.4909 22.5987,-17.3256 51.0353,-25.9884 85.3099,-25.9884 41.4309,0 71.5624,10.1694 90.3945,30.5081 18.8322,20.3388 28.2483,48.3988 28.2483,84.18 v 172.3147 h -55.9315 l -10e-5,-41.2426 h -3.9548 c -8.2861,13.1826 -18.6439,24.4819 -31.0731,33.898 -12.4292,9.4162 -31.0731,14.1241 -55.9317,14.1241 z m 11.2994,-50.2819 c 24.4819,0 42.7491,-7.3446 54.8017,-22.0337 12.4292,-15.0658 19.2088,-34.0863 20.3388,-57.0615 h -65.5362 c -21.4686,0 -36.7227,3.578 -45.7621,10.7343 -8.6629,6.7796 -12.9942,16.384 -12.9942,28.8132 0,12.4293 4.3313,22.222 12.9942,29.3783 9.0394,6.7796 21.092,10.1694 36.1578,10.1694 z m 320.4978,50.2819 c -26.7417,0 -50.6586,-6.0262 -71.7506,-18.0789 -21.0921,-12.0526 -37.6644,-29.0015 -49.7171,-50.847 -12.0527,-22.2218 -18.0789,-48.2103 -18.0789,-77.9653 0,-29.7548 6.0262,-55.555 18.0789,-77.4003 12.0527,-22.222 28.625,-39.3593 49.7171,-51.4119 21.092,-12.0526 45.1972,-18.0789 72.3156,-18.0789 27.1184,0 51.0353,6.0263 71.7507,18.0789 21.092,12.0526 37.4761,29.1899 49.152,51.4119 12.0527,21.8453 18.079,47.6455 18.079,77.4003 0,29.755 -6.0263,55.7435 -18.079,77.9653 -12.0526,21.8455 -28.6249,38.7944 -49.717,50.847 -20.7154,12.0527 -44.6323,18.0789 -71.7507,18.0789 z m 0,-57.0615 c 14.3126,0 27.495,-3.2015 39.5476,-9.6044 12.0527,-6.403 21.6571,-16.1957 28.8133,-29.3783 7.5329,-13.5591 11.2994,-30.5082 11.2994,-50.847 0,-20.7154 -3.7665,-37.6643 -11.2994,-50.8469 -7.1562,-13.1825 -16.7606,-22.9753 -28.8133,-29.3782 -11.6759,-6.403 -24.67,-9.6044 -38.9826,-9.6044 -14.3125,0 -27.495,3.2014 -39.5477,9.6044 -12.0525,6.4029 -21.8453,16.1957 -29.3782,29.3782 -7.1562,13.1826 -10.7344,30.1315 -10.7344,50.8469 0,30.8849 7.7213,53.6718 23.1637,68.3609 15.819,14.3125 34.4629,21.4688 55.9316,21.4688 z"
     id="path7"
     aria-label="OpenBao" /></svg>
