<svg xmlns="http://www.w3.org/2000/svg" fill="none" viewBox="168 0 904.9 821.4">
<g opacity="0.4">
<path d="M222.485 579.082C222.485 579.082 315.955 441.87 486.466 483.898C656.978 525.927 655.637 360.092 827.423 333.346C999.208 306.668 1062.1 393.138 1062.1 393.138L1072.9 504.611L1025.56 625.803L936.716 689.684L896.888 722.06L873.621 793.448L801.407 798.408L764.864 792.577L758.226 735.332L721.683 712.474L647.658 725.344L619.563 760.201L601.325 798.408H511.678L496.725 731.98L440.938 707.715L343.915 652.28L303.215 619.904L260.905 624.865L226.843 619.033L222.485 578.948V579.082Z" fill="#416A5D"/>
</g>
<path d="M483.717 808.06H453.343C421.829 808.06 395.411 784.465 391.924 753.095L387.901 716.697C386.761 706.441 394.137 697.191 404.395 696.051C414.654 694.845 423.907 702.285 425.047 712.541L429.07 748.939C430.478 761.34 440.871 770.657 453.343 770.657H483.717C494.043 770.657 502.425 779.036 502.425 789.292C502.425 799.547 494.043 807.993 483.717 807.993" fill="#023927"/>
<path d="M742.804 808.061H716.319C689.163 808.061 665.494 790.7 657.38 764.826L648.597 736.874C645.512 727.02 651.01 716.563 660.8 713.48C670.657 710.396 681.117 715.826 684.201 725.68L692.985 753.632C696.203 763.887 705.59 770.724 716.319 770.724H742.804C753.13 770.724 761.511 779.103 761.511 789.359C761.511 799.615 753.13 808.061 742.804 808.061Z" fill="#023927"/>
<path d="M689.833 60.5959C689.833 64.8859 692.247 68.0364 696.941 70.0473V52.8203C692.18 53.6917 689.833 56.3059 689.833 60.5959Z" fill="#63E892"/>
<path d="M700.293 0C655.972 0 620.033 35.9287 620.033 80.2363C620.033 124.544 655.972 160.473 700.293 160.473C744.614 160.473 780.554 124.544 780.554 80.2363C780.554 35.9287 744.614 0 700.293 0Z" fill="#023927"/>
<g opacity="0.3">
<path d="M278.339 625.065C278.339 625.065 230.866 353.589 576.114 330.932C921.362 308.276 799.864 137.548 940.404 223.28C1080.94 309.013 1034.68 374.369 1034.68 374.369L1046.68 538.729L959.246 669.909L880.661 721.322L873.688 793.514L806.167 794.989L755.476 783.862L735.562 721.322L676.289 715.557L625.933 735.666L594.352 794.855L547.617 814.227L475.671 799.011C475.671 799.011 479.828 744.582 479.828 739.487C479.828 734.393 425.986 715.892 425.986 715.892L416.867 690.018L304.891 637.064L278.339 624.864V625.065Z" fill="#7F9C93"/>
</g>
<path d="M843.783 821.332H769.289C750.246 821.332 734.02 807.725 730.667 789.023L723.895 751.352C722.889 745.721 717.995 741.632 712.228 741.632H639.88C634.583 741.632 629.889 745.252 628.481 750.346L617.082 792.308C612.456 809.401 596.9 821.265 579.198 821.265H510.269C491.897 821.265 475.738 808.194 471.916 790.163L461.322 740.493C426.388 732.985 329.432 707.178 286.72 645.107C283.166 639.879 276.595 637.6 270.494 639.41L250.646 645.308C239.583 648.593 227.648 646.984 217.791 640.884C208.002 634.852 201.163 624.864 199.151 613.469L168.643 442.003C166.43 429.535 169.984 417.067 178.499 407.683C187.015 398.299 199.084 393.405 211.757 394.478L218.931 395.014C225.904 395.483 232.274 391.193 234.152 384.691C246.825 340.585 281.356 260.416 371.875 204.378C359.404 196.267 342.641 191.038 321.788 188.826L307.104 187.285L303.081 157.657L317.229 152.294L489.484 88.4137C502.357 83.5874 516.572 84.794 528.507 91.6982C540.309 98.5354 548.355 110.199 550.634 123.672C556.535 158.997 567.934 183.33 581.21 189.027C632.906 203.975 776.128 229.782 831.982 174.348C848.007 158.461 873.755 156.048 893.2 168.583C947.914 204.109 1074.84 305.863 1072.09 484.233C1071.89 491.472 1064.99 653.084 902.654 723.601L881.399 793.581C876.37 810.205 861.284 821.399 843.85 821.399M640.014 704.363H712.362C736.233 704.363 756.549 721.389 760.774 744.85L767.546 782.521C767.68 783.393 768.484 784.063 769.423 784.063H843.917C844.789 784.063 845.459 783.527 845.728 782.722L872.146 695.783L880.46 692.431C1027.77 633.243 1034.61 489.461 1034.81 483.361C1037.23 324.028 922.434 232.061 872.95 199.953C868.19 196.87 862.088 197.272 858.467 200.892C775.123 283.541 578.327 227.101 570.012 224.621L568.537 224.152C540.912 213.561 522.54 181.788 513.89 129.772C513.354 126.487 511.141 124.745 509.867 124.007C508.593 123.27 505.911 122.197 502.626 123.404L383.14 167.711C397.757 175.353 409.558 185.408 418.409 197.943C443.822 233.804 434.3 275.632 433.898 277.374C431.484 287.429 421.426 293.596 411.436 291.25C401.445 288.904 395.209 278.916 397.556 268.861C397.69 268.325 401.177 251.567 395.209 233.938C312.669 283.541 281.49 355.6 270.158 395.014C263.386 418.475 240.723 434.227 216.115 432.216L208.94 431.68C207.734 431.613 206.795 432.216 206.258 432.753C205.789 433.289 205.253 434.16 205.454 435.501L236.029 607.101C236.23 608.24 236.968 608.91 237.504 609.246C238.041 609.581 238.98 609.916 240.119 609.581L259.967 603.682C281.624 597.247 304.757 605.425 317.564 623.992C360.141 685.929 478.889 705.972 480.096 706.173L492.702 708.251L508.459 782.454C508.66 783.326 509.398 783.929 510.269 783.929H579.198C580.07 783.929 580.808 783.325 581.009 782.521L592.407 740.56C598.174 719.177 617.686 704.229 639.88 704.229" fill="#023927"/>
<path d="M406.474 382.278C406.474 402.253 390.315 418.408 370.333 418.408C350.352 418.408 334.193 402.253 334.193 382.278C334.193 362.303 350.352 346.148 370.333 346.148C390.315 346.148 406.474 362.303 406.474 382.278Z" fill="#023927"/>








</svg>