<svg xmlns="http://www.w3.org/2000/svg" viewBox="0 0 500 500"><defs><linearGradient id="a" x1="40" x2="-7.2" y1="7" y2="19.325" gradientTransform="matrix(12.50002 0 0 12.53131 .033 -87.718)" gradientUnits="userSpaceOnUse"><stop stop-color="#4FC5EB"/><stop offset="1" stop-color="#5D52D9"/></linearGradient></defs><path fill="url(#a)" d="M275.037 0v75.942c84.75 12.154 150.001 85.087 150.001 173.431 0 22.43-4.375 43.861-11.998 63.534l64.997 38.474c13.877-31.207 22.001-65.542 22.001-102.008 0-129.951-98.624-236.716-225.001-249.373m-24.998 424.813c-96.627 0-175.001-78.572-175.001-175.44 0-88.344 65.25-161.277 150-173.431V0c-126.5 12.529-225 119.422-225 249.373C.038 387.844 111.786 500 249.914 500c82.749 0 155.873-40.476 201.375-102.505l-64.876-38.346c-31.998 39.973-81.125 65.664-136.374 65.664"/></svg>