<?xml version="1.0" encoding="UTF-8"?>
<!DOCTYPE svg PUBLIC "-//W3C//DTD SVG 1.1//EN" "http://www.w3.org/Graphics/SVG/1.1/DTD/svg11.dtd">
<svg xmlns="http://www.w3.org/2000/svg" version="1.1" width="1768px" height="363px" style="shape-rendering:geometricPrecision; text-rendering:geometricPrecision; image-rendering:optimizeQuality; fill-rule:evenodd; clip-rule:evenodd" xmlns:xlink="http://www.w3.org/1999/xlink">
<g><path style="opacity:1" fill="#f9f8f8" d="M 159.5,-0.5 C 161.833,-0.5 164.167,-0.5 166.5,-0.5C 168.333,1.49566 168.833,3.829 168,6.5C 153.818,36.9075 146.985,68.9075 147.5,102.5C 179.934,104.139 207.434,116.472 230,139.5C 231,141.167 232,142.833 233,144.5C 264.125,102.878 302.625,70.0447 348.5,46C 370.505,36.082 393.505,29.7487 417.5,27C 428.718,25.7769 439.718,26.7769 450.5,30C 459.015,33.6868 463.349,40.1868 463.5,49.5C 463.052,55.8429 461.385,61.8429 458.5,67.5C 459.167,67.8333 459.833,68.1667 460.5,68.5C 497.62,62.0131 534.954,60.1798 572.5,63C 575.663,64.4798 577.496,66.9798 578,70.5C 582.585,90.9283 585.585,111.595 587,132.5C 591.262,179.804 591.929,227.137 589,274.5C 588.797,279.496 587.297,283.996 584.5,288C 576.322,292.212 567.655,294.879 558.5,296C 530.771,300.2 503.105,300.866 475.5,298C 466.296,296.893 457.296,294.893 448.5,292C 443.772,290.604 441.272,287.438 441,282.5C 439.535,265.866 438.535,249.2 438,232.5C 390.171,265.139 338.171,274.139 282,259.5C 268.913,265.897 255.08,269.397 240.5,270C 237.298,270.547 234.298,271.547 231.5,273C 232.833,273.667 234.167,274.333 235.5,275C 248.89,274.257 260.557,278.257 270.5,287C 287.472,291.636 299.972,301.803 308,317.5C 308.837,321.295 308.504,324.961 307,328.5C 304.748,331.029 302.248,333.196 299.5,335C 302.736,341.659 303.236,348.492 301,355.5C 295.967,360.479 290.134,361.645 283.5,359C 276.163,355.443 268.663,352.277 261,349.5C 248.828,356.168 235.994,360.501 222.5,362.5C 212.167,362.5 201.833,362.5 191.5,362.5C 173.756,359.474 156.756,353.808 140.5,345.5C 137.721,346.389 135.055,347.556 132.5,349C 128.033,353.4 123.033,357.066 117.5,360C 111.754,361.723 107.254,360.223 104,355.5C 102.786,357.049 101.286,358.215 99.5,359C 95.1398,360.583 90.8064,361.75 86.5,362.5C 81.8333,362.5 77.1667,362.5 72.5,362.5C 54.2521,360.804 37.5854,354.637 22.5,344C 10.503,332.501 2.83629,318.667 -0.5,302.5C -0.5,294.833 -0.5,287.167 -0.5,279.5C 2.26005,264.328 10.5934,253.328 24.5,246.5C 29.1334,235.385 36.4667,226.551 46.5,220C 32.906,206.134 28.0727,189.634 32,170.5C 35.7266,155.125 43.2266,141.958 54.5,131C 61.1822,125.333 68.1822,120.167 75.5,115.5C 65.4386,91.3256 63.9386,66.6589 71,41.5C 73.1609,36.5076 75.8276,31.8409 79,27.5C 81.6534,24.8059 84.8201,23.9726 88.5,25C 89.4303,26.1939 90.0969,27.5272 90.5,29C 86.1775,55.2528 89.6775,80.4195 101,104.5C 101.893,105.081 102.893,105.415 104,105.5C 109.126,104.229 114.293,103.229 119.5,102.5C 118.876,71.6608 126.376,42.9941 142,16.5C 147.067,9.93127 152.9,4.26461 159.5,-0.5 Z M 446.5,84.5 C 447.139,85.0968 447.472,85.9302 447.5,87C 445.661,101.903 443.661,116.736 441.5,131.5C 433.428,134.949 425.928,139.283 419,144.5C 403.891,141.989 389.891,144.989 377,153.5C 377.019,151.893 377.185,150.226 377.5,148.5C 400.872,142.501 414.705,127.501 419,103.5C 429.702,99.2836 438.868,92.9503 446.5,84.5 Z M 512.5,118.5 C 523.507,116.079 529.674,120.412 531,131.5C 532.704,141.763 533.704,152.096 534,162.5C 534.944,186.499 535.778,210.499 536.5,234.5C 529.162,235.556 521.828,236.723 514.5,238C 505.437,240.11 499.27,236.943 496,228.5C 494.085,195.781 495.085,163.114 499,130.5C 499.949,122.38 504.449,118.38 512.5,118.5 Z"/></g>
<g><path style="opacity:1" fill="#0b0302" d="M 106.5,348.5 C 106.82,345.102 106.487,341.768 105.5,338.5C 104.893,338.624 104.56,338.957 104.5,339.5C 102.862,340.657 101.196,341.824 99.5,343C 103.267,349.361 101.6,353.694 94.5,356C 73.0306,359.7 52.6973,356.366 33.5,346C 8.59406,327.92 -0.572605,303.753 6,273.5C 9.56868,262.432 16.7353,254.766 27.5,250.5C 32.8292,237.336 41.8292,227.503 54.5,221C 36.0641,205.2 30.8974,185.7 39,162.5C 44.4933,149.011 52.9933,137.845 64.5,129C 70.2037,125.154 75.8703,121.32 81.5,117.5C 70.5057,92.7735 68.6723,67.4401 76,41.5C 78.1267,37.4106 80.6267,33.5772 83.5,30C 84.3317,29.3123 84.9984,29.479 85.5,30.5C 81.5108,58.0703 85.6775,84.4037 98,109.5C 98.6667,110.167 99.3333,110.833 100,111.5C 106.648,109.337 113.481,108.004 120.5,107.5C 121.833,107.5 123.167,107.5 124.5,107.5C 124.5,102.5 124.5,97.5 124.5,92.5C 125.162,64.3504 133.329,38.6838 149,15.5C 153.078,10.7511 157.745,6.75109 163,3.5C 163.667,4.5 163.667,5.5 163,6.5C 148.084,38.5062 141.584,72.1729 143.5,107.5C 175.846,107.997 203.346,119.663 226,142.5C 228.416,145.663 230.582,148.996 232.5,152.5C 259.202,116.629 291.202,86.4623 328.5,62C 358.35,43.8829 390.684,33.7163 425.5,31.5C 435.962,30.4619 445.629,32.6286 454.5,38C 458.284,42.861 459.451,48.361 458,54.5C 451.11,76.8899 436.61,91.8899 414.5,99.5C 411.548,124.445 397.881,139.445 373.5,144.5C 372.584,150.08 370.584,155.247 367.5,160C 368.774,161.221 370.274,162.054 372,162.5C 386.912,150.974 403.745,146.141 422.5,148C 431.119,141.726 440.452,136.726 450.5,133C 474.648,127.482 485.148,136.982 482,161.5C 472.556,193.911 453.389,218.745 424.5,236C 379.234,262.342 331.401,268.509 281,254.5C 268.13,261.509 254.297,265.009 239.5,265C 233.874,266.823 228.207,268.49 222.5,270C 224.887,274.053 228.22,277.053 232.5,279C 246.464,278.149 258.464,282.483 268.5,292C 283.614,295.487 295.114,303.987 303,317.5C 304.173,326.019 300.34,330.852 291.5,332C 296.406,337.633 298.573,344.133 298,351.5C 295.045,355.277 291.212,356.443 286.5,355C 277.941,351.22 269.275,347.72 260.5,344.5C 234.198,358.08 206.532,361.58 177.5,355C 164.934,351.145 152.767,346.312 141,340.5C 131.903,343.26 124.069,348.093 117.5,355C 111.158,357.493 107.491,355.326 106.5,348.5 Z"/></g>
<g><path style="opacity:1" fill="#ef0011" d="M 146.5,120.5 C 169.574,120.795 189.074,129.128 205,145.5C 207.728,150.286 209.894,155.286 211.5,160.5C 212.484,157.572 212.817,154.572 212.5,151.5C 215.859,158.5 216.359,165.833 214,173.5C 206.984,191.703 195.151,205.87 178.5,216C 161.344,225.775 143.011,232.275 123.5,235.5C 122.127,235.343 120.793,235.51 119.5,236C 121.345,237.128 123.345,237.628 125.5,237.5C 142.843,238.198 159.343,234.865 175,227.5C 174.7,236.45 176.033,245.116 179,253.5C 181.062,255.505 182.062,257.839 182,260.5C 158.97,276.293 133.803,281.46 106.5,276C 89.8932,268.039 80.0599,254.872 77,236.5C 76.3333,234.5 76.3333,232.5 77,230.5C 88.0528,235.102 99.5528,236.602 111.5,235C 90.7798,230.227 72.9465,220.394 58,205.5C 43.083,178.564 47.9163,155.731 72.5,137C 77.0868,133.788 81.9201,130.955 87,128.5C 89.8333,134 94,138.167 99.5,141C 101.167,141.667 102.833,141.667 104.5,141C 84.5278,114.885 75.0278,85.3851 76,52.5C 76.7128,47.6475 78.0462,42.9809 80,38.5C 77.7551,72.4348 85.7551,103.768 104,132.5C 105.351,134.019 106.851,135.352 108.5,136.5C 109.631,134.926 109.798,133.259 109,131.5C 107.774,128.048 106.274,124.715 104.5,121.5C 111.112,118.442 118.112,116.776 125.5,116.5C 125.865,123.396 128.532,129.23 133.5,134C 134.793,134.49 136.127,134.657 137.5,134.5C 126.376,94.1631 130.542,55.4964 150,18.5C 151.333,16.5 152.667,14.5 154,12.5C 154.654,11.3044 155.154,11.3044 155.5,12.5C 136.222,50.4537 131.889,89.9537 142.5,131C 143.449,131.617 144.282,131.451 145,130.5C 145.826,127.207 146.326,123.874 146.5,120.5 Z"/></g>
<g><path style="opacity:1" fill="#f3e2e2" d="M 447.5,44.5 C 436.27,42.5097 424.937,42.0097 413.5,43C 402.747,43.9591 392.08,45.4591 381.5,47.5C 400.686,39.8053 420.686,36.972 441.5,39C 444.641,39.7146 446.641,41.5479 447.5,44.5 Z"/></g>
<g><path style="opacity:1" fill="#f10112" d="M 447.5,44.5 C 447.457,49.5971 445.957,54.2638 443,58.5C 428.728,79.5635 408.894,91.8968 383.5,95.5C 382.624,95.3691 381.957,95.7025 381.5,96.5C 382.859,98.6922 384.692,100.359 387,101.5C 387.667,102.833 387.667,104.167 387,105.5C 380.624,113.034 374.124,119.7 367.5,125.5C 380.642,119.689 390.975,110.689 398.5,98.5C 399.833,98.5 401.167,98.5 402.5,98.5C 398.921,110.79 391.588,120.29 380.5,127C 367.45,134.244 353.45,137.744 338.5,137.5C 332.974,137.179 327.64,137.512 322.5,138.5C 326.371,143.111 331.038,146.778 336.5,149.5C 329.263,160.571 319.93,169.404 308.5,176C 327.071,171.373 340.071,160.206 347.5,142.5C 350.391,143.403 353.391,143.736 356.5,143.5C 349.954,160.543 337.954,172.043 320.5,178C 313.403,180.683 306.07,182.183 298.5,182.5C 293.489,182.334 288.489,182.501 283.5,183C 284.527,183.513 285.527,184.013 286.5,184.5C 301.275,189.904 315.941,189.404 330.5,183C 338.231,178.802 346.231,175.136 354.5,172C 360.508,170.804 366.175,171.637 371.5,174.5C 375.048,171.57 378.715,168.903 382.5,166.5C 394.377,162.085 406.711,160.252 419.5,161C 420.244,159.961 421.244,159.461 422.5,159.5C 426.019,156.579 429.686,153.913 433.5,151.5C 445.06,146.775 457.06,144.609 469.5,145C 470.527,145.513 471.527,146.013 472.5,146.5C 470.896,156.809 467.396,166.475 462,175.5C 435.495,216.023 397.995,239.19 349.5,245C 308.589,249.699 273.755,237.532 245,208.5C 233.541,193.977 231.541,178.31 239,161.5C 236.9,177.772 241.567,191.772 253,203.5C 242.72,184.441 243.053,165.441 254,146.5C 279.951,110.211 312.451,81.3781 351.5,60C 361.188,54.9864 371.188,50.8197 381.5,47.5C 392.08,45.4591 402.747,43.9591 413.5,43C 424.937,42.0097 436.27,42.5097 447.5,44.5 Z"/></g>
<g><path style="opacity:1" fill="#faf0f1" d="M 424.5,44.5 C 426.604,44.2011 428.604,44.5344 430.5,45.5C 423.947,54.8613 415.114,59.1947 404,58.5C 403.333,57.5 403.333,56.5 404,55.5C 410.402,50.8847 417.235,47.218 424.5,44.5 Z"/></g>
<g><path style="opacity:1" fill="#0a0100" d="M 400.5,48.5 C 402.199,48.3398 403.866,48.5065 405.5,49C 378.118,57.7712 354.952,72.9379 336,94.5C 329.204,104.261 321.371,113.094 312.5,121C 307.291,125.609 302.458,125.443 298,120.5C 297.294,118.029 297.627,115.695 299,113.5C 325.925,81.0802 359.758,59.4135 400.5,48.5 Z"/></g>
<g><path style="opacity:1" fill="#faeff0" d="M 395.5,59.5 C 397.5,59.5 399.5,59.5 401.5,59.5C 400.753,63.9081 398.087,66.2414 393.5,66.5C 391.681,66.6578 390.348,65.9911 389.5,64.5C 391.162,62.3483 393.162,60.6817 395.5,59.5 Z"/></g>
<g><path style="opacity:1" fill="#e6181f" d="M 1477.5,60.5 C 1488.87,58.3739 1495.37,63.0406 1497,74.5C 1510.36,144.798 1523.53,215.131 1536.5,285.5C 1536.38,288.078 1535.05,289.578 1532.5,290C 1515.54,294.025 1498.54,297.858 1481.5,301.5C 1478.92,301.385 1477.42,300.051 1477,297.5C 1474.33,283.491 1471.67,269.491 1469,255.5C 1467.31,253.081 1464.98,252.081 1462,252.5C 1450.4,253.637 1438.9,255.304 1427.5,257.5C 1425.75,269.163 1423.92,280.83 1422,292.5C 1421.31,295.057 1419.81,296.891 1417.5,298C 1401.53,297.186 1385.53,296.52 1369.5,296C 1368.23,295.691 1367.07,295.191 1366,294.5C 1365.09,292.256 1364.59,289.923 1364.5,287.5C 1365.45,279.801 1366.62,272.134 1368,264.5C 1378.51,214.604 1388.51,164.604 1398,114.5C 1397.78,98.8162 1396.95,83.1495 1395.5,67.5C 1423.05,65.9718 1450.38,63.6385 1477.5,60.5 Z M 1446.5,121.5 C 1452.7,148.525 1458.04,175.859 1462.5,203.5C 1462.39,204.442 1462.06,205.275 1461.5,206C 1451.84,206.5 1442.17,206.666 1432.5,206.5C 1437.27,178.185 1441.94,149.852 1446.5,121.5 Z"/></g>
<g><path style="opacity:1" fill="#f9faf9" d="M 613.5,61.5 C 641.516,61.7505 669.516,62.5838 697.5,64C 708.931,64.543 720.264,65.8763 731.5,68C 734.787,71.2933 737.287,75.1266 739,79.5C 751.034,117.173 753.701,155.507 747,194.5C 745.152,203.014 740.318,209.181 732.5,213C 713.291,223.737 692.791,230.237 671,232.5C 669.907,236.216 669.407,240.05 669.5,244C 670.006,257.684 670.673,271.351 671.5,285C 670.946,287.824 670.446,290.657 670,293.5C 660.368,295.943 650.534,297.443 640.5,298C 630.193,299.078 619.86,299.578 609.5,299.5C 609.884,236.49 609.384,173.49 608,110.5C 603.055,95.7221 598.889,80.7221 595.5,65.5C 596.381,64.0295 597.714,63.1962 599.5,63C 604.351,62.8255 609.018,62.3255 613.5,61.5 Z M 663.5,110.5 C 672.394,110.195 681.06,111.361 689.5,114C 693.807,118.575 695.973,124.075 696,130.5C 696.5,144.829 696.667,159.163 696.5,173.5C 688.771,175.353 681.104,177.52 673.5,180C 671.231,180.758 669.064,180.591 667,179.5C 665.409,156.582 664.242,133.582 663.5,110.5 Z"/></g>
<g><path style="opacity:1" fill="#f9faf9" d="M 809.5,61.5 C 831.836,61.3334 854.169,61.5 876.5,62C 880.039,62.2819 883.539,62.7819 887,63.5C 888.442,64.2125 889.275,65.3791 889.5,67C 888.221,79.5136 886.721,92.0136 885,104.5C 884.699,107.98 883.865,111.313 882.5,114.5C 862.841,115.608 843.174,115.275 823.5,113.5C 823.395,128.871 824.061,144.204 825.5,159.5C 843.763,157.371 862.096,156.038 880.5,155.5C 880.667,170.504 880.5,185.504 880,200.5C 879.215,202.286 878.049,203.786 876.5,205C 872.584,206.102 868.584,206.769 864.5,207C 851.504,207.5 838.504,207.667 825.5,207.5C 825.5,220.833 825.5,234.167 825.5,247.5C 843.095,244.701 860.762,242.367 878.5,240.5C 891.106,240.654 895.773,246.988 892.5,259.5C 892.082,271.519 891.415,283.519 890.5,295.5C 848.172,297.389 805.839,299.055 763.5,300.5C 765.156,234.815 766.99,169.149 769,103.5C 762.667,94.5 756.333,85.5 750,76.5C 747.67,73.5347 747.17,70.368 748.5,67C 752.114,66.0551 755.781,65.3884 759.5,65C 776.301,63.4993 792.968,62.3327 809.5,61.5 Z"/></g>
<g><path style="opacity:1" fill="#f9faf9" d="M 1038.5,61.5 C 1047.82,62.2324 1057.15,62.5657 1066.5,62.5C 1066.14,137.181 1064.98,211.848 1063,286.5C 1051.11,292.02 1038.78,296.353 1026,299.5C 1022.57,299.068 1019.9,297.401 1018,294.5C 999.667,261.167 981.333,227.833 963,194.5C 965.087,227.442 965.754,260.442 965,293.5C 964.5,294.667 963.667,295.5 962.5,296C 948.463,298.782 934.296,300.615 920,301.5C 917.083,301.665 914.417,300.998 912,299.5C 910.839,294.584 910.173,289.584 910,284.5C 908.272,212.175 907.106,139.842 906.5,67.5C 917.383,66.2141 928.216,64.5475 939,62.5C 944.474,62.7368 948.808,65.0701 952,69.5C 968.177,99.185 983.843,129.185 999,159.5C 1002.25,166.34 1006.25,172.673 1011,178.5C 1009.75,140.183 1008.59,101.849 1007.5,63.5C 1018.01,63.1934 1028.34,62.5268 1038.5,61.5 Z"/></g>
<g><path style="opacity:1" fill="#e6181f" d="M 1190.5,61.5 C 1195.84,61.334 1201.18,61.5006 1206.5,62C 1207.77,62.3095 1208.93,62.8095 1210,63.5C 1213.38,87.3878 1215.55,111.388 1216.5,135.5C 1199.73,131.858 1183.07,127.691 1166.5,123C 1159.73,121.038 1153.06,121.204 1146.5,123.5C 1145.72,124.729 1145.22,126.062 1145,127.5C 1143.14,162.845 1143.14,198.179 1145,233.5C 1146.11,235.815 1147.94,237.315 1150.5,238C 1153.31,238.629 1156.14,239.129 1159,239.5C 1179.91,236.449 1200.74,233.282 1221.5,230C 1222.69,250.652 1219.86,270.819 1213,290.5C 1210.53,292.438 1207.7,293.604 1204.5,294C 1170.11,298.901 1135.78,298.568 1101.5,293C 1096.29,291.983 1092.46,289.149 1090,284.5C 1087.17,273.013 1085.5,261.346 1085,249.5C 1082.82,204.481 1083.15,159.481 1086,114.5C 1086.6,102.669 1088.27,91.0021 1091,79.5C 1091.83,77.3333 1093.33,75.8333 1095.5,75C 1102.74,72.9515 1110.08,71.2848 1117.5,70C 1141.89,66.3829 1166.23,63.5496 1190.5,61.5 Z"/></g>
<g><path style="opacity:1" fill="#e6181f" d="M 1289.5,61.5 C 1294.43,61.1975 1299.26,61.5308 1304,62.5C 1302.42,111.677 1300.25,160.844 1297.5,210C 1297.45,219.341 1298.62,228.507 1301,237.5C 1303.4,240.616 1306.57,241.949 1310.5,241.5C 1326.83,239.057 1343.16,236.723 1359.5,234.5C 1358.98,252.628 1357.15,270.628 1354,288.5C 1353.22,290.286 1352.05,291.786 1350.5,293C 1346.06,294.94 1341.39,295.94 1336.5,296C 1308.99,297.014 1281.49,298.181 1254,299.5C 1249.78,299.47 1245.62,299.136 1241.5,298.5C 1240.68,295.893 1240.18,293.226 1240,290.5C 1237.83,218.335 1237.33,146.169 1238.5,74C 1238.63,72.0194 1239.3,70.3528 1240.5,69C 1256.89,65.9137 1273.22,63.4137 1289.5,61.5 Z"/></g>
<g><path style="opacity:1" fill="#e6181f" d="M 1767.5,64.5 C 1767.5,70.5 1767.5,76.5 1767.5,82.5C 1759.84,145.631 1750.34,208.631 1739,271.5C 1737.65,278.246 1735.98,284.913 1734,291.5C 1733.5,292 1733,292.5 1732.5,293C 1714.02,296.848 1695.35,298.848 1676.5,299C 1673.43,294.145 1670.93,288.978 1669,283.5C 1661.26,259.939 1652.92,236.606 1644,213.5C 1636.55,236.841 1628.89,260.174 1621,283.5C 1619.77,286.961 1618.27,290.294 1616.5,293.5C 1597.11,297.867 1577.44,299.867 1557.5,299.5C 1544.8,229.992 1532.97,160.325 1522,90.5C 1521,84.5184 1520.67,78.5184 1521,72.5C 1540.04,67.7703 1559.38,64.437 1579,62.5C 1580.76,62.5445 1582.43,62.8778 1584,63.5C 1589.66,110.762 1594.66,158.096 1599,205.5C 1609.67,165.5 1620.33,125.5 1631,85.5C 1631.69,82.9427 1633.19,81.1094 1635.5,80C 1639.54,79.1735 1643.54,79.3401 1647.5,80.5C 1661.37,121.612 1675.54,162.612 1690,203.5C 1691.26,199.687 1691.93,195.687 1692,191.5C 1694.65,152.519 1696.98,113.519 1699,74.5C 1699.13,70.0492 1699.8,65.7159 1701,61.5C 1723.12,61.4411 1745.29,62.4411 1767.5,64.5 Z"/></g>
<g><path style="opacity:1" fill="#fae9ea" d="M 383.5,95.5 C 388.463,96.7176 393.463,97.7176 398.5,98.5C 390.975,110.689 380.642,119.689 367.5,125.5C 374.124,119.7 380.624,113.034 387,105.5C 387.667,104.167 387.667,102.833 387,101.5C 384.692,100.359 382.859,98.6922 381.5,96.5C 381.957,95.7025 382.624,95.3691 383.5,95.5 Z"/></g>
<g><path style="opacity:1" fill="#a57174" d="M 124.5,92.5 C 124.5,97.5 124.5,102.5 124.5,107.5C 123.167,107.5 121.833,107.5 120.5,107.5C 121.209,106.596 122.209,106.263 123.5,106.5C 123.181,101.637 123.514,96.97 124.5,92.5 Z"/></g>
<g><path style="opacity:1" fill="#f7e9ea" d="M 212.5,151.5 C 212.817,154.572 212.484,157.572 211.5,160.5C 209.894,155.286 207.728,150.286 205,145.5C 189.074,129.128 169.574,120.795 146.5,120.5C 146.5,119.167 146.5,117.833 146.5,116.5C 171.051,115.695 191.551,124.361 208,142.5C 210.038,145.243 211.538,148.243 212.5,151.5 Z"/></g>
<g><path style="opacity:1" fill="#78161a" d="M 322.5,138.5 C 327.64,137.512 332.974,137.179 338.5,137.5C 335.167,138.167 331.833,138.833 328.5,139.5C 326.565,138.85 324.565,138.517 322.5,138.5 Z"/></g>
<g><path style="opacity:1" fill="#faefef" d="M 322.5,138.5 C 324.565,138.517 326.565,138.85 328.5,139.5C 334.815,140.608 341.148,141.608 347.5,142.5C 340.071,160.206 327.071,171.373 308.5,176C 319.93,169.404 329.263,160.571 336.5,149.5C 331.038,146.778 326.371,143.111 322.5,138.5 Z"/></g>
<g><path style="opacity:1" fill="#f6ecec" d="M 472.5,146.5 C 471.527,146.013 470.527,145.513 469.5,145C 457.06,144.609 445.06,146.775 433.5,151.5C 443.751,142.361 455.751,138.528 469.5,140C 471.919,141.509 472.919,143.675 472.5,146.5 Z"/></g>
<g><path style="opacity:1" fill="#090201" d="M 186.5,163.5 C 178.442,164.406 171.109,167.073 164.5,171.5C 162.598,172.368 160.765,173.368 159,174.5C 155.822,171.484 153.655,167.818 152.5,163.5C 149.138,164.967 145.971,164.634 143,162.5C 140.69,158.232 141.856,157.232 146.5,159.5C 148.634,159.485 150.634,158.985 152.5,158C 159.996,150.838 168.329,144.838 177.5,140C 181.156,139.164 184.49,139.831 187.5,142C 185.564,142.813 183.564,143.313 181.5,143.5C 183.239,147.329 184.739,151.329 186,155.5C 186.497,158.146 186.664,160.813 186.5,163.5 Z"/></g>
<g><path style="opacity:1" fill="#170200" d="M 449.5,147.5 C 452.187,147.336 454.854,147.503 457.5,148C 445.487,152.703 434.487,159.036 424.5,167C 423.833,167.667 423.167,167.667 422.5,167C 429.759,158.042 438.759,151.542 449.5,147.5 Z"/></g>
<g><path style="opacity:1" fill="#f2e6e7" d="M 171.5,149.5 C 176.068,149.083 177.568,151.083 176,155.5C 170.934,158.894 168.934,157.56 170,151.5C 170.717,150.956 171.217,150.289 171.5,149.5 Z"/></g>
<g><path style="opacity:1" fill="#fbe7e8" d="M 462.5,148.5 C 461.193,155.912 457.526,162.412 451.5,168C 450.241,168.982 448.908,169.315 447.5,169C 452.331,162.008 457.331,155.175 462.5,148.5 Z"/></g>
<g><path style="opacity:1" fill="#060100" d="M 67.5,155.5 C 72.9781,155.369 78.3114,156.202 83.5,158C 91.3659,160.843 99.1992,163.677 107,166.5C 110.767,166.078 113.433,164.078 115,160.5C 116.585,168.404 113.419,172.738 105.5,173.5C 106.461,176.426 107.127,179.426 107.5,182.5C 103.691,182.013 99.8576,181.679 96,181.5C 89.7151,181.954 83.5485,182.787 77.5,184C 75.2911,182.127 73.4578,179.96 72,177.5C 70.9684,171.549 70.1351,165.549 69.5,159.5C 65.8906,158.713 65.2239,157.38 67.5,155.5 Z"/></g>
<g><path style="opacity:1" fill="#f6e8e8" d="M 422.5,159.5 C 421.244,159.461 420.244,159.961 419.5,161C 406.711,160.252 394.377,162.085 382.5,166.5C 392.678,158.204 404.344,155.037 417.5,157C 419.315,157.757 420.981,158.59 422.5,159.5 Z"/></g>
<g><path style="opacity:1" fill="#190301" d="M 404.5,162.5 C 407.187,162.336 409.854,162.503 412.5,163C 400.203,168.424 387.869,173.424 375.5,178C 384.095,170.704 393.761,165.538 404.5,162.5 Z"/></g>
<g><path style="opacity:1" fill="#f3dada" d="M 186.5,163.5 C 188.831,164.317 191.331,164.984 194,165.5C 195.898,166.352 195.731,167.019 193.5,167.5C 183.68,167.883 174.013,169.216 164.5,171.5C 171.109,167.073 178.442,164.406 186.5,163.5 Z"/></g>
<g><path style="opacity:1" fill="#f2e5e6" d="M 91.5,166.5 C 95.5601,165.848 97.5601,167.515 97.5,171.5C 95.4727,171.662 93.4727,171.495 91.5,171C 90.2721,169.51 90.2721,168.01 91.5,166.5 Z"/></g>
<g><path style="opacity:1" fill="#120200" d="M 169.5,176.5 C 175.445,175.62 180.779,176.954 185.5,180.5C 182.182,181.67 178.849,181.67 175.5,180.5C 166.49,190.018 155.49,196.518 142.5,200C 123.809,205.599 105.475,205.932 87.5,201C 89.711,196.733 93.0444,194.9 97.5,195.5C 97.0233,196.478 96.3567,197.311 95.5,198C 119.937,200.811 142.937,196.144 164.5,184C 165.687,182.981 166.687,181.814 167.5,180.5C 166.975,179.808 166.308,179.308 165.5,179C 167.066,178.392 168.4,177.558 169.5,176.5 Z"/></g>
<g><path style="opacity:1" fill="#90000b" d="M 298.5,182.5 C 294.5,183.167 290.5,183.833 286.5,184.5C 285.527,184.013 284.527,183.513 283.5,183C 288.489,182.501 293.489,182.334 298.5,182.5 Z"/></g>
<g><path style="opacity:1" fill="#eb0011" d="M 224.5,185.5 C 225.376,185.369 226.043,185.702 226.5,186.5C 224.409,205.562 229.409,222.562 241.5,237.5C 230.625,242 221.625,239.5 214.5,230C 213.833,229.333 213.167,229.333 212.5,230C 222.344,249.563 237.677,255.73 258.5,248.5C 259.696,248.846 259.696,249.346 258.5,250C 233.383,261.193 216.55,253.693 208,227.5C 204.6,209.844 210.1,195.844 224.5,185.5 Z"/></g>
<g><path style="opacity:1" fill="#e30010" d="M 236.5,206.5 C 242.502,210.336 247.335,215.336 251,221.5C 259.303,230.886 268.803,238.719 279.5,245C 258.492,239.836 244.159,227.002 236.5,206.5 Z"/></g>
<g><path style="opacity:1" fill="#ea0011" d="M 196.5,213.5 C 196.46,228.03 201.126,241.364 210.5,253.5C 205.837,254.397 201.17,254.564 196.5,254C 199.557,256.723 202.89,259.056 206.5,261C 200.695,261.184 195.861,259.017 192,254.5C 180.714,239.36 182.214,225.694 196.5,213.5 Z"/></g>
<g><path style="opacity:1" fill="#ec0011" d="M 51.5,231.5 C 57.8977,230.053 62.731,232.053 66,237.5C 69.2616,246.913 68.9282,256.247 65,265.5C 57.6356,256.74 48.4689,250.907 37.5,248C 40.9354,241.402 45.6021,235.902 51.5,231.5 Z"/></g>
<g><path style="opacity:1" fill="#660007" d="M 123.5,235.5 C 124.167,236.167 124.833,236.833 125.5,237.5C 123.345,237.628 121.345,237.128 119.5,236C 120.793,235.51 122.127,235.343 123.5,235.5 Z"/></g>
<g><path style="opacity:1" fill="#f00714" d="M 49.5,260.5 C 51.7867,264.122 54.4534,267.455 57.5,270.5C 54.279,270.896 51.6123,272.229 49.5,274.5C 51.3922,275.621 54.7255,276.454 59.5,277C 73.1143,281.113 81.7809,289.946 85.5,303.5C 85.7989,305.604 85.4656,307.604 84.5,309.5C 77.1531,304.825 69.4864,300.658 61.5,297C 58.3333,294.5 55.1667,292 52,289.5C 52.9774,294.448 55.3107,298.782 59,302.5C 64.5648,320.629 75.2315,334.963 91,345.5C 91.4828,346.448 91.6495,347.448 91.5,348.5C 58.8385,353.419 34.0052,341.752 17,313.5C 10.6876,298.631 11.0209,283.964 18,269.5C 25.9571,257.457 36.4571,254.457 49.5,260.5 Z"/></g>
<g><path style="opacity:1" fill="#faf5f5" d="M 37.5,264.5 C 40.5184,264.335 43.5184,264.502 46.5,265C 47.5536,266.388 47.7203,267.888 47,269.5C 43.9269,270.617 40.7603,270.784 37.5,270C 36.2475,268.172 36.2475,266.339 37.5,264.5 Z"/></g>
<g><path style="opacity:1" fill="#edd7d8" d="M 49.5,260.5 C 52.7705,262.591 55.9372,264.924 59,267.5C 59.5847,268.998 59.0847,269.998 57.5,270.5C 54.4534,267.455 51.7867,264.122 49.5,260.5 Z"/></g>
<g><path style="opacity:1" fill="#f4e8e8" d="M 191.5,267.5 C 174.06,281.64 154.06,287.307 131.5,284.5C 151.087,282.249 169.421,276.082 186.5,266C 188.674,265.123 190.341,265.623 191.5,267.5 Z"/></g>
<g><path style="opacity:1" fill="#f00513" d="M 191.5,267.5 C 193.411,267.574 194.578,268.574 195,270.5C 196.072,275.383 197.739,280.05 200,284.5C 200.798,286.259 200.631,287.926 199.5,289.5C 179.059,303.777 156.393,309.944 131.5,308C 114.728,303.888 103.894,293.721 99,277.5C 108.889,283.845 119.722,286.178 131.5,284.5C 154.06,287.307 174.06,281.64 191.5,267.5 Z"/></g>
<g><path style="opacity:1" fill="#f4e5e6" d="M 85.5,303.5 C 81.7809,289.946 73.1143,281.113 59.5,277C 54.7255,276.454 51.3922,275.621 49.5,274.5C 66.4543,271.228 78.2877,277.561 85,293.5C 85.4983,296.817 85.665,300.15 85.5,303.5 Z"/></g>
<g><path style="opacity:1" fill="#faf6f6" d="M 65.5,282.5 C 67.9124,282.244 69.5791,283.244 70.5,285.5C 67.6878,286.719 66.0211,285.719 65.5,282.5 Z"/></g>
<g><path style="opacity:1" fill="#e50010" d="M 216.5,283.5 C 220.226,283.177 223.893,283.511 227.5,284.5C 224.804,287.273 221.971,289.94 219,292.5C 215.005,289.966 214.171,286.966 216.5,283.5 Z"/></g>
<g><path style="opacity:1" fill="#d9000f" d="M 85.5,282.5 C 93.2956,289.126 100.962,295.959 108.5,303C 97.2762,300.282 89.6095,293.449 85.5,282.5 Z"/></g>
<g><path style="opacity:1" fill="#f1dfdf" d="M 254.5,293.5 C 247.391,289.877 239.724,288.543 231.5,289.5C 232.263,288.732 233.263,288.232 234.5,288C 243.712,286.319 252.379,287.652 260.5,292C 258.75,293.319 256.75,293.819 254.5,293.5 Z"/></g>
<g><path style="opacity:1" fill="#ed0f17" d="M 231.5,289.5 C 239.724,288.543 247.391,289.877 254.5,293.5C 251.1,295.037 247.767,296.87 244.5,299C 241.911,302.097 238.911,304.597 235.5,306.5C 230.381,304.548 226.714,301.048 224.5,296C 226.059,292.939 228.392,290.773 231.5,289.5 Z"/></g>
<g><path style="opacity:1" fill="#f5e7e7" d="M 207.5,296.5 C 194.676,305.776 180.343,311.109 164.5,312.5C 163.209,312.737 162.209,312.404 161.5,311.5C 176.531,307.568 190.698,301.568 204,293.5C 205.642,293.978 206.809,294.978 207.5,296.5 Z"/></g>
<g><path style="opacity:1" fill="#ee0312" d="M 207.5,296.5 C 211.471,301.303 215.971,305.636 221,309.5C 221.667,310.167 221.667,310.833 221,311.5C 201.938,327.059 180.105,333.893 155.5,332C 144.239,329.034 134.906,323.034 127.5,314C 136.466,314.726 145.466,314.559 154.5,313.5C 158.042,313.813 161.375,313.479 164.5,312.5C 180.343,311.109 194.676,305.776 207.5,296.5 Z"/></g>
<g><path style="opacity:1" fill="#f6e5e6" d="M 295.5,320.5 C 285.671,309.348 273.338,303.015 258.5,301.5C 255.467,301.669 252.467,302.002 249.5,302.5C 266.405,295.685 280.905,299.351 293,313.5C 294.903,315.441 295.736,317.774 295.5,320.5 Z"/></g>
<g><path style="opacity:1" fill="#ef0413" d="M 295.5,320.5 C 295.64,322.124 294.973,323.29 293.5,324C 274.39,329.075 257.557,324.909 243,311.5C 242.984,307.004 245.151,304.004 249.5,302.5C 252.467,302.002 255.467,301.669 258.5,301.5C 273.338,303.015 285.671,309.348 295.5,320.5 Z"/></g>
<g><path style="opacity:1" fill="#f3e8e8" d="M 93.5,303.5 C 97.1136,305.307 100.78,307.14 104.5,309C 95.8048,314.026 89.6381,321.193 86,330.5C 80.956,325.737 77.456,320.071 75.5,313.5C 79.2171,314.527 82.5505,316.361 85.5,319C 86.5,319.667 87.5,319.667 88.5,319C 91.4676,314.264 93.1343,309.097 93.5,303.5 Z"/></g>
<g><path style="opacity:1" fill="#fbeeee" d="M 44.5,305.5 C 48.5733,306.955 52.0733,309.288 55,312.5C 60.0898,323.488 67.2565,332.988 76.5,341C 73.0341,339.934 69.7007,338.267 66.5,336C 56.3183,327.77 48.985,317.604 44.5,305.5 Z"/></g>
<g><path style="opacity:1" fill="#d7545b" d="M 161.5,311.5 C 162.209,312.404 163.209,312.737 164.5,312.5C 161.375,313.479 158.042,313.813 154.5,313.5C 156.657,312.593 158.99,311.927 161.5,311.5 Z"/></g>
<g><path style="opacity:1" fill="#ed0011" d="M 161.5,338.5 C 163.5,337.833 165.5,337.167 167.5,336.5C 189.827,335.229 209.327,327.229 226,312.5C 229.508,314.587 232.842,316.92 236,319.5C 239.5,325.35 239.167,331.016 235,336.5C 227.49,343.256 218.657,346.756 208.5,347C 191.986,348.692 176.319,345.859 161.5,338.5 Z"/></g>
<g><path style="opacity:1" fill="#ea0011" d="M 104.5,315.5 C 109.797,314.308 113.797,315.974 116.5,320.5C 109.057,327.062 101.391,333.395 93.5,339.5C 92.0542,338.829 91.3875,337.662 91.5,336C 93.2139,327.384 97.5472,320.55 104.5,315.5 Z"/></g>
<g><path style="opacity:1" fill="#ea0011" d="M 119.5,327.5 C 121.527,327.338 123.527,327.505 125.5,328C 127.5,330 129.5,332 131.5,334C 125.98,339.021 120.314,343.854 114.5,348.5C 110.756,340.135 112.422,333.135 119.5,327.5 Z"/></g>
<g><path style="opacity:1" fill="#e70212" d="M 276.5,332.5 C 280.473,335.806 284.14,339.473 287.5,343.5C 288.301,345.042 288.634,346.708 288.5,348.5C 288.103,349.525 287.437,349.692 286.5,349C 275.997,342.583 265.663,335.916 255.5,329C 262.488,329.994 269.488,331.16 276.5,332.5 Z"/></g>
<g><path style="opacity:1" fill="#f6dedf" d="M 276.5,332.5 C 283.509,332.173 287.509,335.506 288.5,342.5C 288.5,343.167 288.167,343.5 287.5,343.5C 284.14,339.473 280.473,335.806 276.5,332.5 Z"/></g>
<g><path style="opacity:1" fill="#4f0104" d="M 167.5,336.5 C 165.5,337.167 163.5,337.833 161.5,338.5C 160.957,338.44 160.624,338.107 160.5,337.5C 162.743,336.526 165.076,336.192 167.5,336.5 Z"/></g>
<g><path style="opacity:1" fill="#a4000c" d="M 251.5,339.5 C 253.842,339.775 253.842,340.608 251.5,342C 250.241,342.982 248.908,343.315 247.5,343C 249.093,342.051 250.426,340.885 251.5,339.5 Z"/></g>
<g><path style="opacity:1" fill="#a14f4d" d="M 288.5,342.5 C 289.833,344.5 289.833,346.5 288.5,348.5C 288.634,346.708 288.301,345.042 287.5,343.5C 288.167,343.5 288.5,343.167 288.5,342.5 Z"/></g>
<g><path style="opacity:1" fill="#72393c" d="M 104.5,339.5 C 104.56,338.957 104.893,338.624 105.5,338.5C 106.487,341.768 106.82,345.102 106.5,348.5C 105.833,345.5 105.167,342.5 104.5,339.5 Z"/></g>
</svg>
