<svg xmlns="http://www.w3.org/2000/svg" xml:space="preserve" id="Layer_1" x="0" y="0" version="1.1" viewBox="25.07 0 461.86 511.99"><style>.st0{fill:#6bc2f9}</style><path d="M198.29.08c-.41.1-2.52.46-4.63.77-15.35 2.47-32.8 11.02-47.64 23.38-5 4.17-15.09 14.57-19.67 20.24-9.32 11.59-28.84 40.68-35.89 53.45-.46.82-1.34 2.37-1.96 3.35-1.49 2.57-6.39 11.28-9.27 16.74-4.02 7.52-14.83 29.66-14.83 30.38 0 .1-.82 2.01-1.85 4.22s-2.32 5.15-2.88 6.59c-.51 1.39-1.29 3.24-1.65 4.12-2.16 4.79-7.62 19.52-10.61 28.58-1.65 5.05-5.1 16.07-5.41 17.41-.15.46-1.03 3.86-2.06 7.57-.98 3.66-1.91 7.16-2.06 7.72-1.24 5.05-2.47 10.35-3.04 13.13-1.6 7.47-2.83 13.75-3.14 15.96-.15 1.29-.41 2.68-.51 3.09-.26.88-.57 2.83-1.03 5.92-.15 1.13-.51 3.35-.77 4.89s-.62 4.12-.77 5.66c-.21 1.54-.41 3.4-.51 4.12s-.36 2.78-.57 4.63-.41 3.91-.51 4.63-.31 3.19-.46 5.56c-.21 2.32-.41 4.63-.51 5.15-1.29 6.95-1.34 62.72 0 69.63.1.41.31 3.09.51 5.92.21 2.83.46 5.25.51 5.41.1.15.31 1.8.46 3.66.21 1.8.41 3.86.57 4.53.1.67.36 2.52.57 4.12.15 1.6.41 3.04.51 3.19.05.15.31 1.44.46 2.83.21 1.39.82 4.58 1.39 7.16.57 2.52 1.13 5.15 1.24 5.82 1.7 8.75 5.92 22.25 10.09 32.29 16.84 40.32 41.25 62.78 72.97 66.9 3.14.41 12.57.41 16.43.05 2.63-.31 9.48-1.6 12.98-2.52.72-.21 6.23-2.11 9.94-3.5l1.44-.51-3.09-3.19c-3.91-3.97-6.8-7.67-11.95-15.35-2.21-3.3-4.22-6.13-4.48-6.28s-2.06-.51-4.02-.82-4.22-.67-5.1-.82c-3.14-.51-10.15-3.24-14.01-5.41-7.57-4.27-14.73-12.72-19.47-22.87-2.94-6.39-7.62-20.03-8.7-25.49-.15-.72-.82-4.07-1.54-7.47-.67-3.4-1.39-7.47-1.54-9.06-.21-1.6-.41-3.35-.51-3.86-.26-1.34-.88-8.34-1.13-12.51-.72-13.18-.88-18.95-.88-31.21s.41-25.23.93-30.64c.1-.98.31-3.86.51-6.33.15-2.52.41-5.3.51-6.18.1-.93.31-3.14.51-5 .15-1.85.41-3.91.51-4.63s.31-2.78.51-4.63c.15-1.85.41-3.71.51-4.12s.36-1.8.51-3.09.51-3.6.77-5.15.62-3.86.77-5.15.41-2.68.51-3.09.31-1.7.51-2.83c.15-1.13.36-2.42.51-2.83.1-.41.31-1.6.46-2.57s.72-3.91 1.29-6.44c.57-2.57 1.13-5.36 1.29-6.18.26-1.18 4.07-17.35 5.25-22.04.1-.46.31-1.29.41-1.8.36-1.44 2.83-9.89 3.76-12.98.46-1.54.93-3.09.98-3.35.31-1.7 7.47-23.23 10.25-30.9 8.65-23.74 18.95-47.48 31.62-72.87 3.91-7.78 7.93-15.66 8.91-17.51s2.83-5.2 4.02-7.47c10.3-19.26 24.41-35.48 39.4-45.32 11.38-7.47 23.02-8.55 34.3-3.19l3.45 1.65 4.02-3.81c7.26-6.75 18.59-15.6 21.58-16.74.26-.1-.62-1.39-2.06-2.88-3.76-3.97-7.57-6.64-15.6-11.18-2.68-1.49-10.25-4.79-11.69-5.1-.57-.1-1.49-.41-2.06-.67-3.3-1.6-11.12-2.78-19.31-2.88-4.68-.11-8.85-.11-9.26 0" class="st0"/><path d="M322.29 10.89c-.1.05-1.65.26-3.5.46-21.42 2.06-44.24 14.52-66.9 36.61-6.64 6.44-18.85 19.88-22.97 25.18-.82 1.13-2.47 3.19-3.66 4.63-5.82 7.26-13.85 18.69-21.94 31.21-2.52 3.86-9.17 14.93-9.17 15.24 0 .1-.57 1.08-1.24 2.16-.62 1.03-1.91 3.3-2.83 5s-2.16 3.91-2.73 4.89c-2.06 3.45-14.78 29.2-19.21 38.88-11.23 24.46-18.64 44.08-25.44 66.95-1.39 4.74-5.56 21.32-5.92 23.59-.15.93-.41 2.06-.51 2.47-.15.41-.36 1.29-.51 2.01-.1.72-.57 3.04-.98 5.15-.46 2.11-.93 4.74-1.08 5.87-.21 1.08-.41 2.11-.51 2.32-.1.15-.36 1.54-.51 3.09-.21 1.49-.41 2.88-.51 3.09-.1.15-.31 1.44-.51 2.88-.15 1.39-.41 3.5-.57 4.63s-.41 2.88-.57 3.86-.36 2.63-.46 3.6c-.15 1.96-.67 6.39-1.03 9.27-.1.98-.36 3.4-.51 5.41-.15 1.96-.36 4.74-.51 6.18-1.24 14.37-1.29 55.36 0 63.6.1.72.31 3.35.51 5.87.21 2.57.41 5 .51 5.46.1.51.31 2.11.51 3.66.67 5.66 2.94 17.87 4.43 23.9 6.9 27.71 20.86 52.32 38.31 67.46 4.94 4.33 14.32 9.73 21.11 12.26 5.2 1.96 9.01 2.83 16.32 3.97 3.24.46 20.6.36 23.07-.21.72-.1 2.73-.51 4.53-.82 16.79-2.94 41.87-15.09 61.13-29.51 10.87-8.19 23.02-20.24 26.73-26.47.41-.77-.21-.57-4.33 1.29-29.97 13.39-56.65 22.56-71.58 24.62-1.29.15-2.78.41-3.35.57-2.73.67-17.72.57-21.58-.15-16.63-3.04-27.91-13.13-35.22-31.62-1.54-3.97-4.43-13.75-4.94-16.99-.15-.98-.41-2.37-.57-3.09-1.18-5.36-2.68-19.16-3.14-28.84-.21-5.05-.21-25.29 0-29.1.1-1.44.36-5.25.51-8.5.21-3.24.46-6.85.57-7.98.1-1.13.36-3.81.51-5.92.21-2.11.41-4.22.51-4.63s.31-2.63.51-4.89c.15-2.27.41-4.48.51-4.89s.36-2.06.51-3.6.51-4.12.77-5.66c.31-1.54.98-5.87 1.6-9.53 1.08-6.9 4.22-22.66 5.2-26.26.26-1.13.62-2.63.77-3.35.67-3.76 5.15-20.24 7.98-29.61 4.43-14.57 12.82-38.16 16.63-46.86.36-.88 1.18-2.83 1.8-4.38.62-1.54 1.8-4.27 2.63-6.08.82-1.8 1.49-3.35 1.49-3.5 0-.1.93-2.21 2.06-4.63s2.06-4.48 2.06-4.58c0-.15 6.08-12.93 8.6-18.02 6.95-14.16 17.82-33.94 27.29-49.75 2.78-4.63 5.25-8.86 5.56-9.32 2.52-4.38 9.32-14.83 12.2-18.85 10.61-14.73 25.08-28.17 36.41-33.83 11.02-5.56 19.98-5.97 31.47-1.44 2.83 1.13 9.89 5.05 11.59 6.44.31.26 2.32 1.85 4.53 3.55 4.43 3.4 13.8 12.57 18.64 18.18 1.7 1.96 3.35 3.81 3.66 4.12 1.7 1.8 11.07 14.47 15.19 20.65 8.09 12.05 13.8 21.94 21.11 36.67 2.57 5.2 4.79 9.42 4.89 9.42.15 0 .15-.15 0-.41-.1-.21-.36-2.68-.51-5.51-.31-4.48-.82-8.96-1.65-13.65-.1-.72-.36-2.11-.51-3.09-6.9-42.23-25.85-80.44-50.93-102.43-9.42-8.24-23.95-15.4-35.12-17.3-.93-.15-2.47-.41-3.35-.57-1.7-.34-13.6-.76-13.86-.5" class="st0"/><path d="M451.4 155.19c-3.09 4.12-6.33 8.5-7.21 9.68-5.36 7.57-10.09 14.21-12.1 17.05-11.48 16.12-14.21 19.93-14.68 20.44-.31.36-3.04 4.07-6.08 8.34-3.04 4.22-7.52 10.51-9.99 13.9-2.47 3.4-6.9 9.58-9.89 13.7-9.01 12.46-32.39 44.6-37.08 50.93-7.31 9.84-13.75 19.67-14.99 22.92-1.7 4.38-1.7 9.42 0 12.77 1.49 2.99 4.38 5.72 8.65 8.24 9.27 5.41 18.9 3.86 25.85-4.22 1.85-2.11 6.9-11.64 8.75-16.53.36-.98 1.03-2.21 1.44-2.73.41-.46.62-.88.46-.88s.51-1.6 1.49-3.6c.93-1.96 1.75-3.71 1.75-3.81 0-.15 1.29-2.94 2.83-6.23 1.54-3.35 2.83-6.13 2.83-6.18 0-.1.77-1.85 1.75-3.97 1.54-3.3 9.01-19.83 12.93-28.48.77-1.7 1.91-4.27 2.57-5.66.62-1.44 3.3-7.31 5.92-13.13 2.63-5.82 5.3-11.84 6.03-13.39.72-1.54 2.21-4.94 3.35-7.47 2.32-5.2 3.35-7.57 5.92-13.13.98-2.11 2.06-4.58 2.47-5.41.36-.88 1.24-2.83 1.96-4.38 1.08-2.37 8.29-18.44 11.79-26.26.57-1.29 1.7-3.71 2.47-5.41.82-1.7 2.06-4.43 2.78-6.08.72-1.6 1.91-4.22 2.63-5.77.72-1.54 1.24-2.83 1.13-2.83-.02.01-2.59 3.41-5.73 7.58m-88.27 152.48c2.32.93 3.66 3.4 3.91 7.26.21 2.94.1 3.6-.98 5.15-2.37 3.45-7.11 4.69-10.97 2.83-2.57-1.18-4.02-3.45-4.27-6.59-.15-2.21.05-2.99 1.29-4.84 2.52-3.81 7-5.35 11.02-3.81" class="st0"/><path d="M360.92 173.06c-.05.1-3.4.31-7.36.52-7.36.31-10.76.57-14.42 1.13-1.13.15-2.68.36-3.45.46-5.87.77-15.4 3.04-22.45 5.36-17.56 5.77-32.24 14.68-44.24 26.88-2.32 2.37-4.74 5-5.41 5.87-.62.82-1.29 1.65-1.44 1.8-2.01 1.85-8.81 12.57-11.84 18.49-5.36 10.66-10.25 27.4-11.59 39.45-.15 1.39-.41 3.14-.51 3.86-1.54 8.34-1.24 33.99.51 44.8.15.98.41 2.52.51 3.4.1.82.82 4.33 1.54 7.72 7.83 35.02 28.43 61.8 58.45 76.01 6.59 3.09 18.8 7.42 23.69 8.34.72.15 3.4.67 5.92 1.24 2.57.57 6.03 1.18 7.72 1.39 1.7.21 3.66.46 4.38.57 8.24 1.03 28.94 1.39 37.44.57 5.77-.51 18.49-2.68 23.53-4.02 16.22-4.27 32.6-12.26 44.08-21.47 7-5.61 15.4-14.83 20.29-22.25 1.39-2.11 2.94-4.48 3.45-5.2 1.6-2.37 7-13.96 8.6-18.49 1.75-4.84 3.35-10.25 4.22-14.16.36-1.44.72-3.04.82-3.6.41-1.8 2.21-12.31 2.47-14.42 1.44-12.15 1.49-38.47.05-44.03-.1-.41-.31-1.7-.51-2.83-2.78-19.16-11.43-38.26-24.15-53.3-2.47-2.88-14.01-14.26-15.09-14.83-.88-.51-1.49.46-6.54 10.61l-5.56 11.23 6.03 9.73c3.35 5.41 7.16 12 8.55 14.68 4.53 9.12 7.78 20.14 9.42 32.13.82 5.97.93 20.65.21 27.35-.41 3.6-2.32 14.32-3.19 17.51-2.16 8.03-4.22 13.44-8.03 21.11-8.65 17.3-20.34 28.94-38.47 38.26-7.52 3.86-17.72 7.62-23.33 8.65-.72.15-2.11.46-3.09.72s-3.19.62-4.89.82c-1.7.15-3.55.41-4.12.57-1.39.26-17.77.26-19.05-.05-.57-.1-2.52-.36-4.38-.57-1.85-.21-3.45-.41-3.6-.51s-1.39-.31-2.78-.46c-1.39-.21-2.73-.46-2.88-.57-.21-.1-1.03-.31-1.85-.46-5.87-1.03-20.81-6.44-28.63-10.35-13.85-6.95-26.06-17.92-33.16-29.92-4.89-8.19-10.2-22.97-11.28-31.36-.15-1.13-.36-2.88-.51-3.86-.82-6.03-1.03-9.68-1.03-20.08 0-14.78.41-19 2.83-29.87 6.8-30.59 26.42-51.19 57.68-60.66 3.55-1.08 10.87-2.88 13.9-3.4.98-.15 2.37-.41 3.09-.57s2.32-.41 3.6-.57c1.29-.15 3.5-.51 4.89-.77 2.73-.46 22.97-.26 26.01.26 6.54 1.18 9.63 1.54 17.46 2.16l4.53.31 2.27-3.55c1.24-1.91 4.89-7.31 8.14-11.9 3.19-4.63 5.72-8.5 5.56-8.65s-2.78-.82-5.87-1.49c-3.04-.67-7.16-1.6-9.17-2.01-1.96-.46-4.53-.98-5.66-1.13s-2.42-.41-2.83-.46c-3.66-.72-9.12-1.13-20.34-1.54-4.22-.21-7.98-.41-8.34-.51-.34-.14-.7-.14-.8-.09" class="st0"/><path d="M352.63 223.11c-.05.05-1.96.21-4.22.41-10.97.93-24.36 5.87-33.47 12.41-13.54 9.68-22.76 22.87-28.12 40.12-1.03 3.4-1.08 3.45 3.35-2.11 8.5-10.61 19.88-19.67 31.93-25.34 3.4-1.6 11.64-4.53 13.9-5 .62-.1 2.27-.41 3.66-.67 5.1-1.03 6.8-1.18 12.36-1.13 3.45.05 7.47.46 10.3 1.03 2.57.57 4.79.82 5 .67.15-.21 3.09-4.07 6.54-8.6l6.18-8.24-2.16-.62c-2.78-.82-9.12-2.06-12.72-2.52-2.65-.3-12.28-.66-12.53-.41m64.16 41.51-4.22 8.34 1.39 2.32c.72 1.29 1.49 2.47 1.65 2.63.82.67 5.72 11.02 7.11 14.93 2.88 8.29 3.91 15.09 3.97 26.11 0 10.92-.05 10.81 2.83 3.5 3.86-9.68 5.77-19.21 5.72-28.58 0-3.24-.1-6.39-.26-6.95-.1-.57-.36-2.11-.51-3.45-.51-3.71-2.78-11.07-4.53-14.83-2.42-5.1-7.52-12.36-8.65-12.36-.17 0-2.23 3.76-4.5 8.34" class="st0"/></svg>