<svg xmlns="http://www.w3.org/2000/svg" xml:space="preserve" width="563.952" height="563.952" color-interpolation-filters="sRGB" style="fill:none;fill-rule:evenodd;font-size:12px;overflow:visible;stroke-linecap:square;stroke-miterlimit:3" viewBox="0 0 422.964 422.964"><defs><linearGradient id="a" x1="0" x2="1" y1="0" y2="0" gradientTransform="rotate(45 .5 .5)"><stop offset=".005" stop-color="#fc0147"/><stop offset=".04" stop-color="#f4044d"/><stop offset=".9" stop-color="#0068f9"/></linearGradient></defs><g transform="translate(6.06 -5.807)"><circle cx="205.65" cy="217.315" r="205.65" style="fill:#fff;fill-opacity:.75;stroke:none;stroke-linecap:butt;stroke-width:.14398"/></g><g transform="translate(109.062 -42.366)"><path d="M102.95 91.36 0 252l59.97 38.28 9.66-15.17 32.76 147.85 101.34-161.55-58.25-37.22-9.71 15.32zm48.85 159.43 25.58 16.89-66.59 104.77-32.82-148.16-24.88 38.94-25.18-16.03 67-105.03 32.51 146.9z" style="fill:#010101;stroke:none;stroke-linecap:butt;stroke-width:.14398"/></g><g transform="translate(.144 -.144)"><path d="M211.36 422.96c-28.52 0-56.23-5.56-82.27-16.58-25.18-10.62-47.73-25.89-67.2-45.26-19.36-19.36-34.64-42.02-45.25-67.2C5.56 267.88 0 240.17 0 211.65s5.56-56.23 16.59-82.27c10.61-25.18 25.88-47.73 45.25-67.2 19.37-19.37 42.02-34.64 67.2-45.26C155.13 5.85 182.79.29 211.36.29s56.23 5.56 82.27 16.58c25.18 10.62 47.74 25.89 67.2 45.26 19.37 19.37 34.64 42.02 45.26 67.2 11.02 26.04 16.59 53.75 16.59 82.27s-5.57 56.23-16.59 82.27c-10.62 25.18-25.89 47.73-45.26 67.2-19.36 19.37-42.02 34.64-67.2 45.26-26.04 11.07-53.75 16.63-82.27 16.63m0-406.24c-52.08 0-101.03 20.28-137.79 57.09-36.91 36.81-57.14 85.76-57.14 137.84s20.28 101.03 57.09 137.79c36.81 36.86 85.76 57.09 137.79 57.09s101.03-20.28 137.79-57.09c36.87-36.81 57.09-85.76 57.09-137.79S385.92 110.62 349.1 73.86c-36.76-36.91-85.7-57.14-137.74-57.14" style="fill:url(#a);stroke:none;stroke-linecap:butt;stroke-width:.14398"/></g></svg>