<?xml version="1.0" encoding="UTF-8"?>
<svg id="Layer_1" xmlns="http://www.w3.org/2000/svg" version="1.1" viewBox="0 0 668 51">
  <!-- Generator: Adobe Illustrator 29.1.0, SVG Export Plug-In . SVG Version: 2.1.0 Build 142)  -->
  <defs>
    <style>
      .st0 {
        fill: #6b5da8;
      }
    </style>
  </defs>
  <path class="st0" d="M406,35c0,2.8-.7,5.6-2.4,8-1.7,2.3-3.8,4.2-6.9,5.6-3.1,1.4-6.9,2.1-11.4,2.1s-7.3-.5-10.9-1.4c-3.6-.9-6.4-2.3-8.5-4l7.1-8.5c1.4.7,2.8,1.2,4.5,1.9,2.8.9,5.4,1.4,8.1,1.4,5,0,7.6-1.4,7.6-4s-.7-2.3-2.1-3.1c-1.4-.7-3.8-1.4-6.9-2.1-3.6-.7-6.4-1.6-8.8-2.6s-4.3-2.4-6.2-4.2c-1.7-1.9-2.6-4.7-2.6-8s.7-5.6,2.4-8c1.7-2.3,3.8-4.2,6.9-5.6,3.1-1.4,6.9-2.1,11.4-2.1s6.2.5,9,1.2c3.1.7,5.7,1.9,7.8,3.1l-7.3,8.7c-3.3-1.4-6.6-2.1-9.7-2.1s-4.5.5-5.7,1.2c-1.2.7-1.9,1.9-1.9,3.1s.7,2.4,2.1,2.8c1.4.7,3.8,1.4,6.9,2.1,3,.6,5.9,1.5,8.8,2.6,2.4.9,4.3,2.4,6.2,4.2,1.7,1.6,2.6,4.5,2.6,7.8h0ZM668,35c0,2.8-.7,5.6-2.4,8s-3.8,4.2-6.9,5.6c-3.1,1.4-6.9,2.1-11.4,2.1s-7.3-.5-10.9-1.4-6.4-2.3-8.5-4l7.1-8.5c1.4.7,2.8,1.2,4.5,1.9,2.8.9,5.4,1.4,8.1,1.4,5,0,7.6-1.4,7.6-4s-.7-2.3-2.1-3.1c-1.4-.7-3.8-1.4-6.9-2.1-3-.6-5.9-1.5-8.8-2.6-2.4-.9-4.3-2.4-6.2-4.2-1.7-1.9-2.6-4.7-2.6-8s.7-5.6,2.4-8c1.7-2.3,3.8-4.2,6.9-5.6,3.1-1.4,6.9-2.1,11.4-2.1s6.2.5,9,1.2c3.1.7,5.7,1.9,7.8,3.1l-7.3,8.7c-3.3-1.4-6.6-2.1-9.7-2.1s-4.5.5-5.7,1.2c-1.2.7-1.9,1.9-1.9,3.1s.7,2.4,2.1,2.8c1.4.7,3.8,1.4,6.9,2.1,3,.6,5.9,1.5,8.8,2.6,2.4.9,4.3,2.4,6.2,4.2,1.9,1.6,2.6,4.5,2.6,7.8h0ZM87.9,19c0,3.8-.9,6.8-2.6,9.4-1.7,2.6-4,4.7-7.1,6.1s-6.9,2.1-10.9,2.1h-8.1v12.7h-13.3V.7h21.3c4.3,0,7.8.7,10.9,2.1,3.1,1.4,5.4,3.5,7.1,6.3,1.9,3.1,2.6,6.3,2.6,9.9ZM74.6,19c0-2.4-.7-4-2.1-5.2s-3.3-1.9-6.2-1.9h-7.3v14.3h7.3c2.6,0,4.7-.7,6.2-1.9s2.1-3.1,2.1-5.4ZM130.5,39.2v10.6h-37.2V1.2h36.2v10.6h-23.2v8.2h18.5v10.3h-18.5v8.9h24.2ZM180.7,1.2v48.7h-10.9l-20.6-25.9v25.9h-13V1.2h10.9l20.6,25.9V1.2h13ZM264.8,38.8v10.8h-32.9V.9h13.3v37.6h19.7v.2ZM321.7,49.8h-13.7l-3.6-9.4h-19.7l-3.6,9.4h-13.5L288.3,1.2h13l20.4,48.6ZM300.6,30.1l-5.9-15.5-5.9,15.5h11.8ZM363.1,35c0,2.8-.7,5.6-2.4,8-1.7,2.3-3.8,4.2-6.9,5.6-3.1,1.4-6.9,2.1-11.4,2.1s-7.3-.5-10.9-1.4-6.4-2.3-8.5-4l7.1-8.5c1.4.7,2.8,1.2,4.5,1.9,2.8.9,5.4,1.4,8.1,1.4,5,0,7.6-1.4,7.6-4s-.7-2.3-2.1-3.1c-1.4-.7-3.8-1.4-6.9-2.1-3.6-.7-6.4-1.6-8.8-2.6s-4.3-2.4-6.2-4.2c-1.7-1.9-2.6-4.7-2.6-8s.7-5.6,2.4-8c1.7-2.3,3.8-4.2,6.9-5.6,3.1-1.4,6.9-2.1,11.4-2.1s6.2.5,9,1.2c3.1.7,5.4,1.9,7.8,3.1l-7.3,8.7c-3.3-1.4-6.6-2.1-9.7-2.1s-4.5.5-5.7,1.2c-1.2.7-1.9,1.9-1.9,3.1s.7,2.4,2.1,2.8c1.4.7,3.8,1.4,6.9,2.1,3,.6,5.9,1.5,8.8,2.6,2.4.9,4.3,2.4,6.2,4.2,1.7,1.6,2.6,4.5,2.6,7.8h0ZM40.5,25.4c0,13.9-11.4,25.4-25.6,25.4S4.3,48.9,0,45.8l8.5-10.1c1.9,1.2,4,1.9,6.4,1.9,6.6,0,12.1-5.4,12.1-12s-5.4-12-12.1-12-4.5.7-6.4,1.9L0,5.4C4.3,2.3,9.5.5,14.9.5c14.2-.2,25.6,11,25.6,24.9h0ZM218.2,35.7l8.5,10.1c-4.3,3.1-9.5,4.9-14.9,4.9-14,0-25.6-11.3-25.6-25.4,0-13.9,11.4-25.4,25.6-25.4s10.7,1.9,14.9,4.9l-8.5,10.1c-1.9-1.2-4-1.9-6.4-1.9-6.6,0-12.1,5.4-12.1,12s5.4,12,12.1,12c2.4.5,4.5-.2,6.4-1.4h0ZM454.3,49.8l-10.4-15c3.1-1.4,5.2-3.5,6.9-6.1,1.7-2.6,2.6-5.9,2.6-9.4s-.9-6.8-2.6-9.6c-1.7-2.8-4-4.7-7.1-6.3-3.1-1.4-6.9-2.1-10.9-2.1h-21.3v48.7h13v-12.7h6.2l8.8,12.7h14.9ZM424.5,12h7.6c2.6,0,4.7.7,6.2,1.9s2.1,3.1,2.1,5.2-.7,4-2.1,5.2-3.3,1.9-6.2,1.9h-7.6v-14.1ZM483.9.2c14,0,25.6,11.3,25.6,25.4s-11.4,25.4-25.6,25.4-25.6-11.3-25.6-25.4S469.7.2,483.9.2ZM470.9,25.4c0,7.1,5.7,12.7,12.8,12.7s12.8-5.6,12.8-12.7-5.7-12.7-12.8-12.7-12.8,5.6-12.8,12.7ZM538.9.2c14,0,25.6,11.3,25.6,25.4s-11.4,25.4-25.6,25.4-25.6-11.3-25.6-25.4S524.9.2,538.9.2ZM526.1,25.4c0,7.1,5.7,12.7,12.8,12.7s12.8-5.6,12.8-12.7-5.7-12.7-12.8-12.7-12.8,5.6-12.8,12.7ZM596.5,32.2l-15.6-31h-10.9v48.7h11.6v-21.4l11.6,21.4h6.9l11.6-21.4v21.4h11.6V1.2h-10.9l-15.9,31Z"/>
</svg>