<svg xmlns="http://www.w3.org/2000/svg" xml:space="preserve" viewBox="0 0 512 512"><g fill="#fff"><path d="M220.546 424.034c62.804 25.582 138.389 13.667 189.509-35.395 67.369-64.656 67.369-169.613 0-234.27-7.12-6.833-14.788-12.966-23.004-18.573a217 217 0 0 1 33.41 26.283c83.436 80.076 83.436 209.739 0 289.815-62.621 60.1-154.09 74.994-231.317 45.031-5.112-2.102-9.86-5.081-13.876-8.76-16.066-15.42-16.066-40.477 0-55.72 12.05-11.215 29.76-14.544 45.278-8.411"/><path d="M91.65 158.4c-26.838 60.275-14.24 132.817 36.88 181.878 67.369 64.657 176.729 64.657 244.098 0 7.12-6.833 13.51-14.193 19.352-22.078-8.033 11.565-17.161 22.429-27.385 32.066-83.435 80.076-218.538 80.076-301.973 0C0 290.516-15.518 202.555 15.518 128.612a44.9 44.9 0 0 1 9.129-13.317c16.066-15.42 42.174-15.42 58.057 0C94.572 126.51 98.04 143.681 91.65 158.4"/><path d="M432.511 155.596c-25.56-60.802-87.634-103.73-160.115-103.73-95.12 0-172.53 74.118-172.53 165.583 0 9.637.913 19.45 2.556 28.736-2.738-13.667-4.199-27.335-4.199-41.177C98.223 91.816 193.89 0 311.832 0c88.547 0 164.314 51.515 196.629 125.107 2.19 4.907 3.286 10.163 3.286 15.595 0 21.903-18.257 39.425-41.078 39.425-17.162.175-31.95-10.163-38.158-24.531"/></g></svg>