<svg xmlns="http://www.w3.org/2000/svg" xml:space="preserve" id="bb460724-3675-4b2e-b0fa-530a39eaf356" x="0" y="0" version="1.1" viewBox="0 27.6 512 456.8"><style>.st0{fill:#004d42}.st1{fill:#fff}.st2{opacity:.5;fill:#00bfa6;enable-background:new}</style><path id="path1" d="M512 106.2v351.6c0 10.7-8.7 19.3-19.3 19.3H277.3c-3.8.4-7.5 1.8-10.7 4-6.5 4.4-15.1 4.4-21.6 0-3.2-2.2-6.8-3.5-10.7-4h-215C8.7 477.1 0 468.5 0 457.8V106.2c0-10.7 8.7-19.3 19.3-19.3h473.4c10.7 0 19.3 8.7 19.3 19.3" class="st0"/><path id="path2" d="M36.6 240.6v180.3c0 10.8 8.7 19.5 19.5 19.5h175.4c4.8 0 9.5 1.4 13.5 4.1 6.6 4.4 15.3 4.4 21.9 0 4-2.7 8.6-4.1 13.4-4.1h175.5c10.8 0 19.5-8.7 19.6-19.5V240.6c0-10.8-8.8-19.5-19.5-19.5H56.2c-10.8 0-19.5 8.7-19.6 19.5" class="st1"/><path id="path3" d="M475.4 221.1v201.3c-.8 10.2-9.4 18.1-19.6 18.1H280.5c-4.7 0-9.4 1.4-13.3 4-6.7 4.4-15.4 4.4-22.1 0-4-2.6-8.6-4-13.3-4H56.3c-10.9 0-19.7-8.8-19.7-19.7V221.1z" class="st2"/><path id="path4" d="M475.4 57.5v339.3c0 10.7-8.7 19.3-19.3 19.3H280.4c-4.8 0-9.6 1.4-13.6 4.1-6.5 4.4-15.1 4.4-21.6 0-4-2.7-8.7-4.2-13.6-4.1H55.9c-10.7 0-19.3-8.7-19.3-19.3V57.5c0-9.7 7.3-17.9 16.9-19.1.9.2 178.6.3 178.6.3 4.8 0 9.6 1.4 13.6 4.2 6.5 4.4 15.1 4.4 21.6 0 4-2.7 8.7-4.2 13.6-4.3H459c9.4 1.4 16.4 9.4 16.4 18.9" class="st1"/><path id="path5" d="M85.4 152.1V82.7c0-4.4 3.6-8 8-8h32.7c4.4 0 8 3.6 8 8V152c0 4.4-3.6 8.1-8 8.1H93.4c-4.4-.1-7.9-3.6-8-8" class="st0"/><path id="path6" d="M165.8 80.9c-3.4.2-6 3-5.8 6.4.2 3.1 2.7 5.6 5.8 5.8h53.6c3.4 0 6.1-2.7 6.1-6.1s-2.7-6.1-6.1-6.1zm126.9 0c-3.4.2-6 3-5.8 6.4.2 3.1 2.7 5.6 5.8 5.8h134.1c3.4 0 6.1-2.7 6.1-6.1s-2.7-6.1-6.1-6.1zm-126.9 36.6c-3.4.2-5.9 3.2-5.6 6.5.2 3 2.6 5.4 5.6 5.6h53.6c3.4.2 6.3-2.3 6.5-5.6.2-3.4-2.3-6.3-5.6-6.5zm126.9 0c-3.4-.2-6.3 2.3-6.5 5.6-.2 3.4 2.3 6.3 5.6 6.5h135c3.4-.2 5.9-3.2 5.6-6.5-.2-3-2.6-5.4-5.6-5.6zM165.8 154c-3.4.2-6 3-5.8 6.4.2 3.1 2.7 5.6 5.8 5.8h53.6c3.4-.2 6-3 5.8-6.4-.2-3.1-2.7-5.6-5.8-5.8zm126.9 0c-3.4.2-6 3-5.8 6.4.2 3.1 2.7 5.6 5.8 5.8h134.1c3.4-.2 6-3 5.8-6.4-.2-3.1-2.7-5.6-5.8-5.8zM85.4 190.6c-3.4 0-6.1 2.7-6.1 6.1s2.7 6.1 6.1 6.1h134.1c3.4 0 6.1-2.7 6.1-6.1s-2.7-6.1-6.1-6.1zm207.3 0c-3.4 0-6.1 2.7-6.1 6.1s2.7 6.1 6.1 6.1h134.1c3.4 0 6.1-2.7 6.1-6.1s-2.7-6.1-6.1-6.1zM85.4 227.2c-3.4-.2-6.2 2.4-6.4 5.8s2.4 6.2 5.8 6.4h134.7c3.4.2 6.2-2.4 6.4-5.8s-2.4-6.2-5.8-6.4zm207.3 0c-3.4-.2-6.2 2.4-6.4 5.8s2.4 6.2 5.8 6.4h134.7c3.4-.2 6-3 5.8-6.4-.2-3.1-2.7-5.6-5.8-5.8zM85.4 263.8c-3.4 0-6.1 2.7-6.1 6.1s2.7 6.1 6.1 6.1h134.1c3.4 0 6.1-2.7 6.1-6.1s-2.7-6.1-6.1-6.1zm207.3 0c-3.4 0-6.1 2.7-6.1 6.1s2.7 6.1 6.1 6.1h134.1c3.4 0 6.1-2.7 6.1-6.1s-2.7-6.1-6.1-6.1zm0 35.9c-7.7 0-7.7 12 0 12h60.7c7.7 0 7.7-12 0-12zm-207.3.6c-3.4-.2-6.2 2.4-6.4 5.8s2.4 6.2 5.8 6.4h134.7c3.4.2 6.2-2.4 6.4-5.8s-2.4-6.2-5.8-6.4zm0 36.5c-3.4-.2-6.3 2.3-6.5 5.6-.2 3.4 2.3 6.3 5.6 6.5h135c3.4.2 6.3-2.3 6.5-5.6.2-3.4-2.3-6.3-5.6-6.5zm207.3 0c-3.4-.2-6.3 2.3-6.5 5.6-.2 3.4 2.3 6.3 5.6 6.5h135c3.4-.2 5.9-3.2 5.6-6.5-.2-3-2.6-5.4-5.6-5.6zM85.4 373.4c-3.4 0-6.1 2.7-6.1 6.1s2.7 6.1 6.1 6.1h134.1c3.4 0 6.1-2.7 6.1-6.1s-2.7-6.1-6.1-6.1zm207.3 0c-3.4 0-6.1 2.7-6.1 6.1s2.7 6.1 6.1 6.1h134.1c3.4 0 6.1-2.7 6.1-6.1s-2.7-6.1-6.1-6.1z" class="st2"/><path id="path24" d="m410.4 311.7-15.1-13c-1.6-1.4-3.7-2-5.8-1.9-1.8.2-3.5.9-4.8 2.1l-14.9 12.7c-1.3.7-3 .2-3.7-1.1-.2-.4-.3-.9-.3-1.4V35.3c0-4.2 3.4-7.7 7.6-7.7h33.5c4.2 0 7.7 3.5 7.6 7.7v273.8c.1 1.5-1.1 2.8-2.7 2.9-.5 0-1-.1-1.4-.3" class="st0"/></svg>