<svg xmlns="http://www.w3.org/2000/svg" xml:space="preserve" viewBox="0 0 512 512"><g transform="scale(.048)"><linearGradient id="a" x1="112824.305" x2="112824.305" y1="-50348.805" y2="-60686.363" gradientTransform="matrix(.048 0 0 -.048 -971.833 -2242.833)" gradientUnits="userSpaceOnUse"><stop offset=".3" style="stop-color:#ff1b2d"/><stop offset=".438" style="stop-color:#fa1a2c"/><stop offset=".594" style="stop-color:#ed1528"/><stop offset=".758" style="stop-color:#d60e21"/><stop offset=".927" style="stop-color:#b70519"/><stop offset="1" style="stop-color:#a70014"/></linearGradient><path d="M3577.6 8339.2c-589.9-696.5-971.7-1724.8-997.3-2880v-251.7c25.6-1155.2 407.5-2183.5 997.3-2880C4343.5 1334.4 5480.5 704 6749.9 704c780.8 0 1512.5 238.9 2137.6 653.9C7948.8 517.3 6711.5 5.3 5353.6 0h-20.3C2388.3 0 0 2388.3 0 5333.3c0 2860.8 2251.7 5194.7 5079.5 5326.9 84.3 4.3 168.5 6.4 253.9 6.4 1365.3 0 2611.2-513.1 3554.1-1356.8-625.1 413.9-1355.7 652.8-2137.6 652.8-1269.4.1-2406.4-630.3-3172.3-1623.4" style="fill:url(#a)"/><linearGradient id="b" x1="168624.297" x2="168624.297" y1="-63042.582" y2="-72185.563" gradientTransform="matrix(.048 0 0 -.048 -971.833 -2242.833)" gradientUnits="userSpaceOnUse"><stop offset="0" style="stop-color:#9c0000"/><stop offset=".7" style="stop-color:#ff4b4b"/></linearGradient><path d="M3577.6 2327.5c489.6-578.1 1121.1-925.9 1812.3-925.9 1553.1 0 2810.7 1760 2810.7 3931.7S6941.9 9265.1 5389.9 9265.1c-690.1 0-1322.7-348.8-1812.3-925.9 765.9 993.1 1902.9 1623.5 3172.3 1623.5 780.8 0 1512.5-238.9 2137.6-652.8 1092.3-977.1 1779.2-2396.8 1779.2-3976.5s-686.9-2999.5-1779.2-3975.5C8262.4 942.9 7531.7 704 6749.9 704c-1269.4 0-2406.4 630.4-3172.3 1623.5" style="fill:url(#b)"/></g></svg>