<svg width="512" height="512" viewBox="0 0 125 124" fill="none" xmlns="http://www.w3.org/2000/svg"><g clip-path="url(#clip0_281_238)"><mask id="mask0_281_238" style="mask-type:luminance" maskUnits="userSpaceOnUse" x="0" y="0" width="125" height="124"><path d="M124.375 0.125H0.625V123.875H124.375V0.125Z" fill="white"></path></mask><g mask="url(#mask0_281_238)"><mask id="mask1_281_238" style="mask-type:luminance" maskUnits="userSpaceOnUse" x="0" y="0" width="125" height="124"><path d="M124.375 0.125H0.625V123.875H124.375V0.125Z" fill="white"></path></mask><g mask="url(#mask1_281_238)"><path fill-rule="evenodd" clip-rule="evenodd" d="M76.0608 122.415C71.7395 123.371 67.2484 123.875 62.6396 123.875C44.3538 123.875 27.9207 115.943 16.5933 103.332C22.2332 107.52 30.3453 109.215 40.812 108.377C43.182 108.187 45.607 107.875 48.0395 107.472C51.067 106.972 54.1145 106.33 57.0895 105.612V105.61C63.822 103.982 70.197 101.962 75.2245 100.285C78.7745 99.1375 82.9645 97.7275 87.357 96.0575C87.732 94.865 88.0545 93.6775 88.3245 92.545C88.742 90.795 89.1145 88.97 89.4495 87.08C83.507 89.5475 77.597 91.56 72.8645 93.09H72.8595C72.8595 93.09 72.8577 93.0891 72.8558 93.0884L72.852 93.0875C64.1945 95.98 53.0245 98.955 41.8445 99.85C31.047 100.712 23.682 98.5625 19.9445 93.4575C16.6295 88.9275 15.117 83.14 17.6745 74.8875C17.1295 74.035 16.582 73.1675 16.042 72.29C15.4845 71.385 14.947 70.485 14.427 69.6L12.767 66.6C12.4445 67.325 12.132 68.05 11.837 68.775C7.86119 78.5214 7.02919 86.7868 9.33635 93.4401C3.89008 84.2265 0.764648 73.4782 0.764648 62C0.764648 50.6642 3.81302 40.0403 9.13474 30.9035C6.8624 37.5747 7.74857 45.8405 11.7944 55.5725C12.7069 57.7675 13.7519 59.9775 14.8894 62.1675C16.3019 64.89 17.8544 67.5875 19.4569 70.1975C23.0844 76.0975 26.9744 81.5375 30.1244 85.8C32.3119 88.82 34.9469 92.37 37.8919 96.0325C39.1419 96.02 40.3644 95.96 41.5244 95.8675C43.3169 95.725 45.1719 95.515 47.0719 95.2475C42.8894 90.36 39.1519 85.3625 36.2344 81.3325V81.3275C36.2344 81.3275 36.2319 81.3225 36.2269 81.32C30.7994 73.98 24.5194 64.2775 20.2144 53.92C16.0569 43.9175 15.8269 36.2475 19.5269 31.1175C22.8094 26.565 27.8469 23.3375 36.4869 23.22C37.1294 22.4375 37.7844 21.65 38.4544 20.865C39.1444 20.055 39.8319 19.265 40.5144 18.4975L42.8519 15.9925C42.0644 15.91 41.2819 15.8375 40.5044 15.78C30.0156 15.0107 21.9031 16.7678 16.2895 21.0089C27.6258 8.20016 44.1897 0.125 62.6396 0.125C67.1151 0.125 71.4795 0.600144 75.6852 1.50274C68.6359 1.4003 61.0449 4.7971 53.0369 11.655C51.2319 13.2 49.4544 14.88 47.7219 16.635H47.7244C45.5694 18.82 43.4819 21.13 41.4969 23.46C37.0069 28.7325 33.0369 34.115 29.9544 38.4275C27.7594 41.4425 25.1969 45.0425 22.6244 48.975C23.0219 50.1625 23.4594 51.31 23.9069 52.385C24.5969 54.045 25.3669 55.7425 26.2069 57.465C29.5619 51.9775 33.1619 46.875 36.0919 42.86L36.0994 42.855C36.0994 42.855 36.1044 42.85 36.1044 42.8475C41.4069 35.4175 48.6969 26.4475 57.2169 19.1525C65.4444 12.1075 72.6694 9.51752 78.6919 11.4525C84.0369 13.1675 88.6619 16.9625 91.4444 25.145C92.3869 25.515 93.3369 25.895 94.2919 26.2875C95.2744 26.6925 96.2394 27.1025 97.1819 27.515L100.282 28.9625C100.117 28.1875 99.9469 27.42 99.7594 26.6625H99.7569C97.2359 16.4142 93.038 9.22782 87.2384 5.2077C107.329 13.9214 121.889 32.9833 124.195 55.6686C122.102 48.9519 116.53 42.7988 107.554 37.315L107.557 37.3125C105.529 36.0725 103.384 34.9 101.177 33.795C98.4319 32.4225 95.5919 31.1525 92.7619 29.985C86.3594 27.3425 80.0144 25.23 74.9594 23.6325C71.4119 22.475 67.1969 21.1525 62.6594 19.92C61.6544 20.6625 60.6994 21.435 59.8144 22.1925C58.4494 23.3625 57.0719 24.62 55.6919 25.9525C61.9494 27.4475 67.9119 29.295 72.6394 30.84H72.6419V30.845L72.6476 30.8467L72.6494 30.8471L72.6519 30.8475C81.3569 33.595 92.1419 37.755 101.712 43.6025C110.954 49.25 115.649 55.32 115.672 61.645C115.692 67.2575 113.514 72.83 106.592 78.0025C106.532 79.015 106.464 80.0375 106.384 81.0675C106.302 82.1275 106.212 83.17 106.109 84.195L105.689 87.595C106.377 87.1975 107.057 86.795 107.719 86.3825C116.657 80.8385 122.187 74.6476 124.235 67.9163C122.081 90.6234 107.656 109.755 87.6634 118.606C93.4149 114.543 97.5511 107.338 99.9969 97.095C100.549 94.7825 101.002 92.38 101.369 89.94H101.367C101.827 86.905 102.157 83.81 102.394 80.7575C102.927 73.8525 102.977 67.165 102.934 61.865C102.939 58.1325 102.892 53.7125 102.664 49.015C101.647 48.29 100.619 47.62 99.6269 47.0125C98.0919 46.075 96.4694 45.155 94.7744 44.2525C95.2869 50.6675 95.3719 56.9125 95.3644 61.8875V61.9C95.4419 71.0275 94.8169 82.57 92.2119 93.48C89.6969 104.015 85.3744 110.355 79.3644 112.333C74.0294 114.085 68.0569 113.735 60.9969 108.75C60.0169 109.005 59.0269 109.257 58.0244 109.497C56.9894 109.747 55.9694 109.982 54.9669 110.202L51.5994 110.855C52.1894 111.388 52.7819 111.91 53.3794 112.413C61.4202 119.205 69.0217 122.552 76.0608 122.415Z" fill="#7a2fd0"></path></g></g><path d="M115.074 11C114.747 11 114.583 10.8398 114.583 10.5195V1.48055C114.583 1.16018 114.747 1 115.074 1C115.302 1 115.487 1.10425 115.627 1.31274L119.435 6.9878L119.217 7.01831L123.041 1.31274C123.176 1.10425 123.373 1 123.633 1C123.913 1 124.053 1.16018 124.053 1.48055V10.5195C124.053 10.8398 123.89 11 123.563 11C123.235 11 123.114 10.8398 123.114 10.5195V2.44165L123.368 2.54081L119.879 7.68955C119.739 7.89804 119.542 8.00229 119.287 8.00229C119.085 8.00229 118.913 7.89804 118.773 7.68955L115.284 2.54081L115.54 2.65851V10.5456C115.54 10.866 115.401 11 115.074 11Z" fill="#9c62e9"></path><path d="M109.375 11.004C109.223 11.004 109.104 10.9613 109.019 10.876C108.938 10.7853 108.897 10.66 108.897 10.5V2.008H105.609C105.458 2.008 105.339 1.96533 105.253 1.88C105.172 1.78933 105.132 1.664 105.132 1.504C105.132 1.344 105.172 1.22133 105.253 1.136C105.339 1.04533 105.458 1 105.609 1H113.159C113.311 1 113.427 1.04533 113.508 1.136C113.593 1.22133 113.636 1.344 113.636 1.504C113.636 1.664 113.593 1.78933 113.508 1.88C113.427 1.96533 113.311 2.008 113.159 2.008H109.852V10.5C109.852 10.6547 109.809 10.7773 109.723 10.868C109.642 10.9587 109.526 11.004 109.375 11.004Z" fill="#9c62e9"></path></g><defs><clipPath id="clip0_281_238"><rect width="125" height="124" fill="white"></rect></clipPath></defs></svg>