<svg xmlns="http://www.w3.org/2000/svg" role="img" id="Oreilly--Streamline-Simple-Icons" viewBox="0 9.93 24 4.14">
  <desc>
    Oreilly Streamline Icon: https://streamlinehq.com
  </desc>
  <title>O'Reilly</title>
  <path d="M12.07 10.679v-0.672H9.32v3.97h2.751v-0.656H9.975v-1h2.002v-0.657H9.975v-0.985zm2.049 3.299v-3.971h0.656v3.314h1.908v0.657zm3.111 0v-3.971h0.657v3.314h1.907v0.657zm-4.456 -3.971h0.657v3.97h-0.657zM1.079 11.023c-0.25 0.25 -0.407 0.594 -0.407 0.985 0 0.39 0.157 0.735 0.407 1a1.418 1.418 0 0 0 1.986 0c0.25 -0.265 0.406 -0.61 0.406 -1 0 -0.391 -0.156 -0.735 -0.407 -0.985a1.418 1.418 0 0 0 -1.985 0M0 12.008c0 -1.142 0.922 -2.064 2.064 -2.064 1.141 0 2.064 0.922 2.064 2.064a2.062 2.062 0 0 1 -2.064 2.064A2.062 2.062 0 0 1 0 12.008Zm6.176 -0.344v-0.985h1.329a0.5 0.5 0 0 1 0.5 0.485c0 0.281 -0.234 0.5 -0.5 0.5zm1.657 0.61c0.485 -0.141 0.829 -0.579 0.829 -1.11 0 -0.642 -0.516 -1.157 -1.157 -1.157H5.519v3.97h0.657v-1.656h0.922l0.985 1.657h0.782zM5.05 10.429a0.477 0.477 0 0 1 -0.485 0.484 0.468 0.468 0 0 1 -0.484 -0.484c0 -0.266 0.203 -0.485 0.484 -0.485 0.266 0 0.485 0.219 0.485 0.485zm17.684 -0.422h-0.798l-1.016 1.47 -1.016 -1.47h-0.813l1.485 2.157v1.814h0.672v-1.814zm0.781 0.813a0.404 0.404 0 0 1 -0.406 -0.407c0 -0.219 0.172 -0.406 0.406 -0.406 0.22 0 0.407 0.187 0.407 0.406a0.414 0.414 0 0 1 -0.407 0.407m0 -0.892a0.487 0.487 0 0 0 -0.484 0.485c0 0.266 0.219 0.485 0.484 0.485a0.487 0.487 0 0 0 0.485 -0.485 0.487 0.487 0 0 0 -0.485 -0.485zm-0.125 0.313h0.203c0.032 0 0.063 0.031 0.063 0.063a0.067 0.067 0 0 1 -0.063 0.062h-0.203zm0.344 0.063a0.14 0.14 0 0 0 -0.14 -0.141h-0.282v0.5h0.078v-0.219h0.14l0.11 0.22h0.094l-0.11 -0.22a0.15 0.15 0 0 0 0.11 -0.14" fill="#fff" stroke-width="1"/>
</svg>