<svg xmlns="http://www.w3.org/2000/svg" viewBox="42 4 174 242"><path fill="#F15A23" d="M128.74 5.67c.475 1.268-.348 2.428-1.022 3.409-4.775 7.006-7.944 15.148-9.44 23.57-.235 1.398-.495 1.608-.212 2.537.446.17.221.097.677.24 9.267-.842 18.668-.667 27.791 1.35 16.6 3.46 32.115 12.156 44.04 24.587 11.889 12.304 20.234 28.247 23.61 45.304 3.744 18.469 1.651 38.128-5.836 55.329-15.876 35.125-42.64 64.835-75.39 83.668-1.056.508-2.578.528-3.302-.56-.853-1.14-.501-2.761.342-3.798 4.418-6.38 7.502-13.716 9.177-21.363.323-1.586.764-3.194.63-4.825-.54-.73-1.432-.508-2.19-.482-15.898 1.647-32.254-1.294-46.619-8.563-15.384-7.674-28.44-20.22-37.072-35.47-7.997-14.028-12.202-30.366-11.91-46.663.055-14.958 3.997-29.792 10.939-42.887 16.159-32.117 41.53-59.219 72.162-76.728 1.284-.738 3.183-.19 3.624 1.345m-4.272 84.623c-9.484 1.316-18.231 7.074-23.543 15.28-3.595 5.634-5.773 12.328-5.729 19.104-.268 9.08 3.233 18.175 9.3 24.714 5.301 5.902 12.666 9.748 20.39 10.776 7.862 1.075 16.072-.827 22.731-5.295 6.768-4.443 11.925-11.455 14.233-19.398 4.332-13.788-.86-29.942-12.159-38.462-7.096-5.583-16.4-8.061-25.223-6.72"/></svg>