<svg xmlns="http://www.w3.org/2000/svg" xmlns:xlink="http://www.w3.org/1999/xlink" version="1.1" id="Layer_1" x="0px" y="0px" enable-background="new 0 0 600 600" xml:space="preserve" viewBox="13.6 76.39 573.56 448.55">

<path fill="#E4E4E4" opacity="1.000000" stroke="none" d=" M519.072449,77.917404   C523.819580,80.225182 528.566711,82.532959 533.563721,84.962204   C533.354614,83.809502 533.155701,82.712631 532.860535,81.085442   C535.206787,82.742386 537.131531,84.101646 539.056213,85.460907   C539.353760,85.207008 539.651306,84.953110 539.948853,84.699211   C539.651855,83.615379 539.354858,82.531555 539.055969,81.441086   C539.569031,81.306137 540.064941,81.101669 540.109680,81.174446   C543.928162,87.390411 550.507202,86.009514 556.188110,86.972176   C562.723694,88.079659 569.306213,88.910606 575.839966,90.027596   C576.960571,90.219162 578.806335,91.185898 578.849854,91.885757   C579.291992,98.998024 585.272522,103.670395 586.722107,110.295807   C587.704773,114.787086 586.910828,118.957672 585.498474,123.281174   C584.822815,125.349396 585.809509,127.960686 586.150513,131.410355   C584.905396,129.535721 584.227295,128.514801 583.075012,126.779907   C582.713196,132.820587 582.394958,138.133575 582.109558,142.897293   C580.653564,140.529312 578.725098,137.392899 576.499268,133.772873   C576.499268,141.520935 576.499268,148.538147 576.499268,155.555344   C576.236145,155.614914 575.973022,155.674484 575.709839,155.734055   C575.002502,151.712402 574.295105,147.690735 573.587769,143.669083   C573.414978,143.673203 573.242249,143.677307 573.069458,143.681427   C573.069458,150.258453 573.069458,156.835464 573.069458,163.412491   C572.756042,163.433502 572.442627,163.454498 572.129211,163.475494   C571.301636,157.598801 570.474060,151.722092 569.646423,145.845398   C569.546936,145.832352 569.447388,145.819321 569.347839,145.806290   C568.844666,154.932663 568.341553,164.059036 567.838379,173.185410   C567.408508,173.195175 566.978699,173.204926 566.548828,173.214691   C566.548828,166.970413 566.548828,160.726120 566.548828,154.481827   C566.193787,154.493790 565.838806,154.505768 565.483765,154.517731   C564.299316,162.146637 563.114807,169.775528 561.930359,177.404434   C561.573547,177.371445 561.216736,177.338440 560.859924,177.305450   C561.589111,168.046951 562.318298,158.788452 563.128845,148.496399   C558.582703,153.012863 554.447693,156.578506 551.059265,160.750534   C549.678833,162.450150 548.964233,165.749161 549.583374,167.834549   C552.597229,177.986877 556.520752,187.872177 559.454956,198.044479   C564.056213,213.995926 564.397461,230.434357 564.026428,246.910950   C563.857422,254.416595 564.129150,261.931885 563.976135,269.438232   C563.475708,293.993439 559.731567,317.867035 549.285583,340.403229   C545.707031,348.123566 544.203613,356.364685 543.831665,364.964661   C543.437195,374.087921 541.920959,383.158997 541.022888,392.265533   C540.390076,398.683044 543.858032,402.901154 549.187378,405.571594   C555.224548,408.596741 561.429199,411.308807 567.660278,413.920258   C576.002625,417.416504 579.343933,425.020996 582.795471,432.369202   C583.830261,434.572083 582.681885,437.108185 578.766907,435.108978   C580.604858,442.660187 582.814392,449.701477 577.064819,456.760529   C575.384155,454.683929 574.092529,453.087952 572.548950,451.180725   C571.901367,453.481873 571.298035,455.625977 570.225220,459.438202   C566.938477,456.406097 564.300842,453.972778 561.694092,451.567963   C560.903931,452.959930 560.052185,454.460419 559.200378,455.960907   C557.724609,455.065186 555.988403,454.423004 554.822510,453.225586   C551.497803,449.811096 548.436523,446.141541 545.194763,442.643524   C544.551392,441.949280 542.881287,441.060944 542.836365,441.121094   C539.522095,445.564697 538.036804,441.166992 536.234375,439.653229   C532.839111,436.801849 528.915039,434.182861 526.540344,430.588776   C519.678101,420.202972 513.476562,409.380585 506.898407,398.536346   C507.680969,408.268188 507.769775,418.116272 509.603088,427.628082   C510.283203,431.156555 514.712646,434.340302 518.031738,436.905640   C525.587341,442.745361 533.514099,448.104980 542.050781,454.203156   C537.525024,456.194000 537.726624,457.748718 539.830139,460.773163   C545.578918,469.038879 550.684143,477.752228 556.522827,487.050476   C553.802246,487.733337 552.528931,488.052917 551.000000,488.436676   C551.000000,489.602631 550.889526,490.759186 551.019897,491.887939   C551.478210,495.855438 548.855896,496.933990 546.126465,495.831177   C541.736938,494.057526 537.668396,491.445770 533.575500,489.001801   C531.798096,487.940552 530.296997,486.416656 528.509033,484.972534   C527.772095,487.296722 527.200439,489.099640 526.620911,490.927338   C521.297852,491.463867 518.110901,487.847809 516.297058,484.343292   C510.414612,472.977600 501.255371,465.176086 490.412964,459.275574   C485.493896,456.598602 482.017609,453.121979 478.969238,448.597839   C471.439636,437.423004 460.124176,430.632324 448.658630,424.461884   C440.183655,419.900848 430.945007,416.760986 422.054565,412.969238   C411.136078,408.312531 401.024353,411.332001 392.156433,417.572266   C376.899414,428.308533 362.125732,439.748749 347.401337,451.217224   C340.484528,456.604492 341.825195,466.309967 349.565216,470.155701   C354.736755,472.725220 359.904785,474.881256 359.128082,482.466644   C358.467285,488.920013 354.620911,492.052734 348.042267,490.551178   C343.488220,489.511749 338.667938,487.751740 334.277222,488.404205   C329.713257,489.082397 325.445648,492.130676 321.190582,494.408051   C316.788544,496.764069 312.747650,499.884918 308.190155,501.831604   C304.622803,503.355377 303.863220,505.387909 303.922882,508.918579   C304.114990,520.282349 299.981354,524.640320 288.233856,524.904541   C280.666595,525.074829 273.048035,524.633057 265.510742,523.881409   C260.496063,523.381287 257.041473,519.512024 256.286896,515.003418   C254.461823,504.098969 247.652649,500.424683 237.669861,499.960754   C227.103851,499.469696 219.288010,493.909668 212.423706,486.253540   C205.879608,478.954529 196.549881,476.549866 187.576630,474.097290   C166.453537,468.323975 145.241226,462.866577 124.002190,457.531525   C107.904648,453.487915 91.551674,450.384125 75.609901,445.822327   C63.278912,442.293732 51.462620,436.999084 39.312157,432.793945   C32.778839,430.532806 25.982378,429.041473 19.392948,426.927551   C17.313585,426.260468 15.520569,424.700806 13.596500,423.549652   C13.811476,422.960358 14.026451,422.371063 14.241426,421.781769   C19.019295,422.187805 23.804972,423.014099 28.573645,422.925415   C47.006035,422.582825 64.892639,425.557739 82.706970,430.134155   C94.598419,433.189026 106.795319,435.418213 118.993240,436.808868   C129.973572,438.060699 141.167618,438.279846 152.218460,437.808044   C161.253601,437.422333 170.258209,435.575104 179.198349,433.947388   C186.279968,432.658112 187.120636,430.726990 186.001740,423.911560   C181.710953,397.775726 182.887955,372.181946 194.031738,347.644928   C201.855255,330.418610 213.154999,315.685120 225.672745,301.611786   C237.353027,288.479980 250.209549,276.800537 264.674469,266.987061   C277.790497,258.088715 292.095856,251.191940 307.430145,247.152756   C321.453796,243.458801 335.695709,240.250824 350.037506,238.199478   C365.597137,235.973938 381.381744,235.313416 397.071289,234.007126   C405.558990,233.300461 414.068939,232.811966 422.528168,231.862793   C423.896881,231.709229 425.833099,229.857285 426.182373,228.459396   C428.648407,218.590515 430.808960,208.644012 432.985016,198.704346   C434.573547,191.448380 436.025452,184.162567 437.559662,176.894562   C439.024292,169.956146 441.254974,163.086609 441.853729,156.076187   C443.443054,137.467377 453.400757,124.333717 467.973938,114.030716   C485.642578,101.539330 505.213806,93.028587 525.910156,86.966301   C526.505798,86.791809 527.026917,86.362740 527.975891,85.832878   C524.723022,83.482506 521.720276,81.312904 518.695312,78.710747   C518.806152,78.157936 518.939331,78.037666 519.072449,77.917404  M336.051422,420.440521   C337.594788,419.567200 339.112244,418.643768 340.685608,417.828278   C355.979248,409.901093 371.445129,402.479492 389.301483,403.024048   C395.225128,403.204681 401.183197,403.331573 407.048492,404.083771   C414.574280,405.048920 422.629639,405.240723 429.379639,408.212463   C444.186249,414.731293 458.369507,422.686707 472.694885,430.267975   C478.929413,433.567444 485.068024,436.671295 492.431824,436.025574   C497.753326,435.558899 500.679962,433.150177 500.996460,428.565979   C502.003845,413.974091 502.610901,399.339630 504.173065,384.807648   C504.895203,378.089996 505.420135,371.274567 510.029510,365.143707   C517.563965,355.122223 524.617126,344.590240 530.601196,333.582092   C543.867554,309.177826 553.556641,283.501038 556.106323,255.453140   C557.694397,237.984238 557.944702,220.659943 553.188049,203.669312   C549.770447,191.461792 545.604370,179.464249 541.798218,167.364838   C540.445496,163.064484 538.735413,158.079422 542.275818,154.680435   C550.210754,147.062408 559.022400,140.366852 567.150330,132.938156   C576.350220,124.529716 584.962280,118.563515 578.524292,104.207550   C576.775757,104.468262 574.417786,105.574669 573.416870,104.837776   C569.193604,101.728325 566.482971,105.090424 563.723389,106.481491   C556.587830,102.941208 563.512329,96.591621 560.402771,92.341576   C556.840759,91.995880 553.167480,92.040749 549.697205,91.223518   C541.033630,89.183281 532.660339,89.088348 524.163025,92.312332   C504.050415,99.943321 484.685150,108.989029 467.077423,121.461815   C458.507507,127.532455 451.394867,134.775635 449.981049,145.904312   C449.263397,151.552917 449.096558,157.313675 447.883606,162.849045   C444.642822,177.638321 440.530701,192.246384 437.605164,207.092056   C435.127228,219.666443 432.764099,232.436737 432.336914,245.186890   C431.998108,255.300018 434.078857,265.634949 436.139160,275.654694   C439.213196,290.604401 442.770386,305.493622 450.436615,319.005402   C452.689270,322.975739 454.356049,327.278503 456.291321,331.428925   C428.101074,307.756683 419.628998,276.366333 421.013245,240.571671   C414.095642,241.074326 407.728851,241.608627 401.352722,241.984894   C389.179474,242.703247 376.933624,242.749039 364.841736,244.146057   C350.033722,245.856873 335.183228,247.910553 320.653168,251.164917   C292.572021,257.454346 267.680298,270.439636 246.516220,290.065277   C226.826874,308.323364 210.413727,329.219910 199.783173,353.985382   C195.321213,364.380157 191.476517,375.605682 190.369965,386.753174   C188.290863,407.697906 190.575317,428.607300 198.060074,448.566895   C201.074112,456.604401 203.496338,465.203156 210.391754,471.011047   C228.585312,486.335236 249.517441,493.182709 273.276154,489.880920   C278.418274,489.166321 283.821350,487.970062 287.036469,482.874695   C293.004333,473.416718 299.447113,464.233704 304.968933,454.524902   C312.675507,440.974670 322.658936,429.713409 336.051422,420.440521  z"/>
<path fill="#E4E4E4" opacity="1.000000" stroke="none" d=" M518.464478,78.448273   C517.445129,78.103546 516.634277,77.588745 515.823425,77.073952   C515.928284,76.845642 516.033081,76.617332 516.137878,76.389023   C517.027161,76.690865 517.916382,76.992706 518.939087,77.605972   C518.939331,78.037666 518.806152,78.157936 518.464478,78.448273  z"/>
<path fill="transparent" opacity="1.000000" stroke="none" d=" M335.792725,420.709412   C322.658936,429.713409 312.675507,440.974670 304.968933,454.524902   C299.447113,464.233704 293.004333,473.416718 287.036469,482.874695   C283.821350,487.970062 278.418274,489.166321 273.276154,489.880920   C249.517441,493.182709 228.585312,486.335236 210.391754,471.011047   C203.496338,465.203156 201.074112,456.604401 198.060074,448.566895   C190.575317,428.607300 188.290863,407.697906 190.369965,386.753174   C191.476517,375.605682 195.321213,364.380157 199.783173,353.985382   C210.413727,329.219910 226.826874,308.323364 246.516220,290.065277   C267.680298,270.439636 292.572021,257.454346 320.653168,251.164917   C335.183228,247.910553 350.033722,245.856873 364.841736,244.146057   C376.933624,242.749039 389.179474,242.703247 401.352722,241.984894   C407.728851,241.608627 414.095642,241.074326 421.013245,240.571671   C419.628998,276.366333 428.101074,307.756683 456.291321,331.428925   C454.356049,327.278503 452.689270,322.975739 450.436615,319.005402   C442.770386,305.493622 439.213196,290.604401 436.139160,275.654694   C434.078857,265.634949 431.998108,255.300018 432.336914,245.186890   C432.764099,232.436737 435.127228,219.666443 437.605164,207.092056   C440.530701,192.246384 444.642822,177.638321 447.883606,162.849045   C449.096558,157.313675 449.263397,151.552917 449.981049,145.904312   C451.394867,134.775635 458.507507,127.532455 467.077423,121.461815   C484.685150,108.989029 504.050415,99.943321 524.163025,92.312332   C532.660339,89.088348 541.033630,89.183281 549.697205,91.223518   C553.167480,92.040749 556.840759,91.995880 560.402771,92.341576   C563.512329,96.591621 556.587830,102.941208 563.723389,106.481491   C566.482971,105.090424 569.193604,101.728325 573.416870,104.837776   C574.417786,105.574669 576.775757,104.468262 578.524292,104.207550   C584.962280,118.563515 576.350220,124.529716 567.150330,132.938156   C559.022400,140.366852 550.210754,147.062408 542.275818,154.680435   C538.735413,158.079422 540.445496,163.064484 541.798218,167.364838   C545.604370,179.464249 549.770447,191.461792 553.188049,203.669312   C557.944702,220.659943 557.694397,237.984238 556.106323,255.453140   C553.556641,283.501038 543.867554,309.177826 530.601196,333.582092   C524.617126,344.590240 517.563965,355.122223 510.029510,365.143707   C505.420135,371.274567 504.895203,378.089996 504.173065,384.807648   C502.610901,399.339630 502.003845,413.974091 500.996460,428.565979   C500.679962,433.150177 497.753326,435.558899 492.431824,436.025574   C485.068024,436.671295 478.929413,433.567444 472.694885,430.267975   C458.369507,422.686707 444.186249,414.731293 429.379639,408.212463   C422.629639,405.240723 414.574280,405.048920 407.048492,404.083771   C401.183197,403.331573 395.225128,403.204681 389.301483,403.024048   C371.445129,402.479492 355.979248,409.901093 340.685608,417.828278   C339.112244,418.643768 337.594788,419.567200 335.792725,420.709412  M465.513885,140.057968   C474.952942,145.346817 481.527283,141.642685 484.460114,129.993134   C480.573273,128.285477 476.803650,126.629311 473.835846,125.325424   C474.526611,123.021660 475.059753,121.243652 475.592896,119.465645   C475.052887,119.249458 474.512878,119.033272 473.972870,118.817085   C470.761353,121.266403 467.336884,123.485085 464.382629,126.212990   C458.196594,131.925064 458.366089,134.307373 465.513885,140.057968  M526.384460,114.996941   C529.332031,112.683777 532.279602,110.370605 535.510986,107.834717   C524.616089,102.305878 524.616089,102.305878 517.504883,109.784660   C520.280640,111.571564 522.941223,113.284309 526.384460,114.996941  z"/>
<path fill="#E4E4E4" opacity="1.000000" stroke="none" d=" M465.131989,140.011017   C458.366089,134.307373 458.196594,131.925064 464.382629,126.212990   C467.336884,123.485085 470.761353,121.266403 473.972870,118.817085   C474.512878,119.033272 475.052887,119.249458 475.592896,119.465645   C475.059753,121.243652 474.526611,123.021660 473.835846,125.325424   C476.803650,126.629311 480.573273,128.285477 484.460114,129.993134   C481.527283,141.642685 474.952942,145.346817 465.131989,140.011017  z"/>
<path fill="#E4E4E4" opacity="1.000000" stroke="none" d=" M525.993103,114.996994   C522.941223,113.284309 520.280640,111.571564 517.504883,109.784660   C524.616089,102.305878 524.616089,102.305878 535.510986,107.834717   C532.279602,110.370605 529.332031,112.683777 525.993103,114.996994  z"/>
</svg>