<svg xmlns="http://www.w3.org/2000/svg" xml:space="preserve" viewBox="0 0 512 512"><path d="M390.5 512h-269C54.4 512 0 457.6 0 390.5v-269C0 54.4 54.4 0 121.5 0h269C457.6 0 512 54.4 512 121.5v269c0 67.1-54.4 121.5-121.5 121.5" style="fill:#fff"/><path d="M313.8 441.1v11.3c0 16-12.9 28.9-28.9 28.9-5 0-9.8-1.3-14.2-3.7L97.4 380c-9.1-5.1-14.7-14.8-14.7-25.2V157.2c0-10.4 5.6-20.1 14.7-25.2l173.3-97.6c13.9-7.8 31.5-2.9 39.3 11 2.4 4.3 3.7 9.2 3.7 14.2v11.3l20.6-6.2c15.3-4.6 31.4 4.1 36 19.4.8 2.7 1.2 5.5 1.2 8.3v11.7l25.3-3.2c15.8-2 30.3 9.3 32.2 25.1.1 1.2.2 2.4.2 3.6v252.6c0 16-12.9 28.9-28.9 28.9-1.2 0-2.4-.1-3.6-.2l-25.3-3.2v11.7c0 16-12.9 28.9-28.9 28.9-2.8 0-5.6-.4-8.3-1.2zm0-30.2 28.9 8.7V92.4l-28.9 8.7zm57.7-277.6v245.4l28.9 3.6V129.7zm-259.9 23.9v197.5l173.3 97.6V59.6zm28.9 19.3 28.9-14.5v188l-28.9-14.5z" style="fill:#333"/></svg>