<svg xmlns="http://www.w3.org/2000/svg" xml:space="preserve" viewBox="21.48 -0.07 468.97 512.09"><g transform="translate(11.414 7.706)scale(1.04457)"><linearGradient id="a" x1="197.055" x2="436.348" y1="160.657" y2="160.657" gradientTransform="matrix(1.0446 0 0 -1.0446 13.505 512.225)" gradientUnits="userSpaceOnUse"><stop offset="0" style="stop-color:#1f2022"/><stop offset="1" style="stop-color:#635e69"/></linearGradient><path d="M454.6 361.6c5.1-13.7 5.3-26.2.7-37.5-4.2-10.5-12.4-19.3-24.5-26.5-11.3-6.5-24.9-11.3-40.9-14.2-14.5-2.6-30.4-3.8-47.5-3.4q-24.75.75-48 5.4c-14.9 3.1-27.9 7-39.2 11.8-11.1 4.7-19.8 9.9-26 15.4-6.2 5.9-9.5 11.9-9.8 18.1-.5 7.4 3.3 15.3 11.3 23.8 7.4 7.8 17.6 15.5 30.9 23 13.2 7.5 27.9 14 43.9 19.4 17.2 5.7 34.1 9.4 50.7 11 10.8 1 20.8 1.1 30.1.5 10.1-1 19.5-3.1 28.2-6.4 9.3-3.6 17.2-8.6 23.8-14.9 7.3-7 12.8-15.5 16.3-25.5m-102.4-38.4c5.6 2.9 9.6 6.5 12.3 10.8 2.6 4.7 3.2 10.1 1.7 16.2-1.1 4.2-3 7.9-5.6 11-2.5 2.8-5.7 5-9.8 6.6-3.4 1.5-7.6 2.5-12.5 3.2-4.7.5-9.5.6-14.2.2-8.3-.5-17.5-2.1-27.4-4.9-8.7-2.6-17-5.9-25-9.8-7.4-3.6-13.4-7.4-18.1-11.3q-6.9-6.15-6.6-10.8c.3-2.6 2.2-5.1 5.6-7.6 3.4-2.3 8.2-4.3 14.2-6.1 6-2 12.7-3.4 20.1-4.4 8.3-1 16.3-1.5 23.8-1.5 8.3.2 15.8.8 22.5 2 7.1 1.5 13.5 3.6 19 6.4" style="fill:url(#a)"/><linearGradient id="b" x1="-63.689" x2="-58.788" y1="613.948" y2="613.948" gradientTransform="matrix(0 -59.3211 -59.3211 0 36665.95 -3507.153)" gradientUnits="userSpaceOnUse"><stop offset="0" style="stop-color:#2087e2"/><stop offset="1" style="stop-color:#b63fff"/></linearGradient><path d="M332.6 66.1q-1.05-26.4-13.2-44.1C310.7 9.1 298 .3 281.1-4.5c-3.8-1.1-7.8-2-12-2.5-3.8-.5-7.6-.6-11.5-.2q-5.4 0-10.8 1.2c-3.1.7-6.5 1.7-10.3 3.2-12.1 4.7-23 13.1-32.8 25-9.2 10.8-17 24.2-23.5 40.2-5.7 13.6-10.3 28.4-13.7 44.6-3.3 15.2-5.5 30.6-6.6 46.3-1 14.2-1.1 27.9-.2 40.9 1 12.9 2.8 24.6 5.4 35 5.2 21.4 13.2 34.6 24 39.5 1 .5 2 .9 2.9 1.2l6.4 1c.8 0 2-.1 3.7-.2 6.9-.7 14.6-3.5 23.3-8.6 8.3-5.1 17.1-12 26.2-20.8 9.8-9.5 19.3-20.5 28.4-33.1 9.6-13.1 18.2-26.9 25.7-41.4 8.8-17.2 15.6-34 20.3-50.5 4.9-18.1 7.1-34.9 6.6-50.2m-93.4 39.7q2.4.45 4.2 1.2c13.2 4.6 20 15.1 20.3 31.6.2 13.6-4 29.2-12.5 46.8q-10.5 22.05-25.2 38.7c-9.2 10.5-16.8 16-23 16.7l-1.2.2-2.2-.2-1.2-.5c-4.6-2.1-7.8-9.1-9.6-20.8-1.8-11.9-1.7-25.6.2-40.9 2.1-17.2 6.1-32.2 12-45.1 7-15.4 15.7-24.4 26-27.2 1.8-.5 3.1-.7 3.9-.7 1.3-.2 2.6-.2 3.9-.2s2.8.1 4.4.4" style="fill:url(#b)"/><linearGradient id="c" x1="-3.678" x2="133.123" y1="280.938" y2="280.938" gradientTransform="matrix(1.0446 0 0 -1.0446 13.505 512.225)" gradientUnits="userSpaceOnUse"><stop offset="0" style="stop-color:#100f0f"/><stop offset="1" style="stop-color:#49261f"/></linearGradient><path d="M19.4 157c-2 2.6-3.6 5.5-4.9 8.6-1.5 3.8-2.5 7.6-3.2 11.5-3.4 16-1.6 31.5 5.6 46.6 5.9 12.4 15.4 24.1 28.4 35 11.6 9.6 24.7 17.5 39.2 23.5 14.7 6 27.5 8.8 38.5 8.3 2.1 0 4.4-.2 6.9-.7s4.5-1.1 6.1-2c1.6-.8 3.2-1.9 4.7-3.2s2.6-2.8 3.4-4.4c3.9-7.5 2.9-19.1-3.2-34.8q-9.3-22.8-28.2-46.8c-13.1-16.7-26.7-29.8-40.9-39.5-15.4-10.3-28.3-14.1-39-11.5-2.6.7-5.1 1.8-7.4 3.4-2.1 1.6-4.2 3.6-6 6m36.3 48.8c.8-1.5 1.6-2.6 2.5-3.4.8-.8 1.8-1.6 2.9-2.2 1.3-.5 2.5-.8 3.4-1 5.2-1 11.8 1.3 19.9 6.9q10.8 7.05 21.6 20.1c6.5 7.8 11.8 15.5 15.7 23 3.8 7.7 4.9 13.1 3.4 16.2-.3.7-.7 1.1-1.2 1.5-.5.7-1.1 1.1-1.7 1.2-.3.3-1 .6-2 .7l-2.7.5c-5.2.3-12-1.1-20.3-4.4-8.2-3.3-15.8-7.6-23-13-7.7-5.7-13.4-11.9-17.2-18.6-4.2-7.7-5.2-15.4-2.9-23 .4-1.7.9-3.2 1.6-4.5" style="fill:url(#c)"/><linearGradient id="d" x1="-76.925" x2="-72.024" y1="610.623" y2="610.623" gradientTransform="scale(27.0207 -27.0207)rotate(90 279.372 338.43)" gradientUnits="userSpaceOnUse"><stop offset="0" style="stop-color:#222020"/><stop offset="1" style="stop-color:#49261f"/></linearGradient><path d="M177.5 356h-1c-5.1-.2-9.7 1.6-14 5.1-3.9 3.4-7.3 8.3-10 14.7-2.5 5.7-4.2 12.2-5.1 19.4-1 7.2-1.1 14.5-.5 21.8 1.3 15.5 5.9 28.7 13.7 39.5 9.2 12.4 21.9 20.6 38.2 24.5h.5l1.5.5h.7c17.8 3.4 29.7.1 35.8-10 2.8-4.7 4.2-10.8 4.2-18.1-.2-7-1.5-14.7-3.9-23-2.5-8.5-5.9-17-10.3-25.5-4.4-8.7-9.4-16.5-14.9-23.5-5.9-7.4-11.8-13.2-17.6-17.6-6.4-4.8-12.1-7.3-17.3-7.8m-6.9 30.4c2.6-7.2 6-10.6 10-10.3h.2c4.1.5 8.9 4.7 14.5 12.7s9.7 16.4 12.5 25.2c3.1 9.6 3.8 17.3 2 23-2.1 6-7.4 8.5-15.7 7.4h-.2l-.2-.2h-.7c-8.2-1.6-14.5-5.9-18.9-12.7-3.8-6.2-5.9-13.7-6.4-22.5-.5-8.7.5-16.2 2.9-22.6" style="fill:url(#d)"/><linearGradient id="e" x1="-91.277" x2="-86.375" y1="609.179" y2="609.179" gradientTransform="matrix(0 -13.2173 -13.2173 0 8142.556 -816.36)" gradientUnits="userSpaceOnUse"><stop offset="0" style="stop-color:#1e1c1c"/><stop offset="1" style="stop-color:#49261f"/></linearGradient><path d="M117.4 333.7c-1.5-1.1-3.3-2.1-5.4-2.9s-4.3-1.4-6.6-1.7c-2.1-.5-4.4-.8-6.9-1-7-.2-13.9.9-20.6 3.2q-9.75 3.15-15.9 9.6c-4.1 4.6-6 9.6-5.9 15.2.2 6 3 12.6 8.6 19.6 1.5 1.8 3.3 3.8 5.4 5.9 1.6 1.6 3.5 3.1 5.6 4.4q2.4 1.5 5.4 2.7 3.45 1.2 5.4 1.2c5.9.8 11.6-.4 17.2-3.7 5.4-3.1 10-7.5 14-13.2 4.1-5.9 6.6-11.9 7.6-18.1 1-6.9-.2-12.5-3.7-16.9-1.3-1.8-2.7-3.2-4.2-4.3m-4.9 10c1.5 2 1.8 4.6 1 7.8-.7 3.1-2.1 6.3-4.4 9.6-2.3 3.1-4.9 5.6-7.8 7.4-3.1 2-6.1 2.8-9.1 2.5l-2.7-.5q-1.5-.45-2.7-1.5c-.7-.3-1.6-1-2.7-2-.7-.7-1.5-1.6-2.5-2.7-2.9-3.8-4.1-7.2-3.4-10.3.3-2.8 2-5.2 5.1-7.4 2.8-2 6.1-3.4 10-4.4s7.7-1.4 11.3-1.2l2.7.2 2.2.5c.7.3 1.2.7 1.7 1z" style="fill:url(#e)"/></g></svg>