<svg xmlns="http://www.w3.org/2000/svg" xml:space="preserve" id="Layer_1" x="0" y="0" version="1.1" viewBox="0 0 512 512"><style>.st1{fill:#479386}.st2{fill:#00d1b2}</style><path d="M423.1 178.8h37.7c23 61.6 17.3 130.2-15.8 187.2-6.3 10.9-13.7 21.4-21.9 30.9z" style="fill:#107a66"/><path d="M485 141.5h-99.2v335c116-68.3 159.3-214.5 99.2-335" class="st1"/><path d="M256 474.7c-120.5 0-218.7-98.2-218.7-218.7S135.5 37.3 256 37.3c33.4-.1 66.4 7.6 96.3 22.2H171.4v119.3h124v292.3c-13.1 2.4-26.2 3.6-39.4 3.6" class="st2"/><path d="M134.1 121.5v94.6h124v221.2H256c-100.2 0-181.4-81.3-181.3-181.6 0-48.1 19.1-94.2 53.1-128.1 1.9-2.1 4.1-4.1 6.3-6.1M256 0C114.6 0 0 114.6 0 256s114.6 256 256 256c26 0 51.8-4 76.7-11.7V141.5h-124V96.8h247.8C408 35.5 334-.1 256 0" class="st1"/><path d="M471.9 165.9c24.5 58.2 24.5 123.8 0 181.9-16 37.4-41.3 70.1-73.6 94.8v4.7c60.3-44.7 95.7-115.4 95.7-190.5.1-35.3-7.8-70.1-23-101.9h-4.1c1.7 3.7 3.5 7.3 5 11" class="st2"/><path d="M477.2 256.9c.1-35.4-8.5-70.5-24.9-101.9h-4.2c3 5.7 5.8 11.6 8.3 17.5 22.7 53.9 22.7 114.8 0 168.8-10.9 25.7-26.7 49.2-46.5 69-3.7 3.7-7.7 7.3-11.7 10.8v4.8c50.2-41.9 79-103.8 79-169" class="st2"/><path d="M460.4 256.9c0-35.8-9.3-71-27.2-101.9h-4.3c4.6 7.7 8.6 15.8 12.2 24 31.8 74.9 14.8 161.7-42.7 219.2v5.2c39.7-38.4 62-91.2 62-146.5" class="st2"/><path d="M413.5 155h-4.3c6.5 9.7 11.9 19.9 16.4 30.6 26.5 62.8 16 135.1-27.2 187.6v5.8c54.2-63 60.3-154.3 15.1-224" class="st2"/><path d="M398.3 162.4v6.8c33.2 53.7 33.2 121.5 0 175.2v6.8c38-57 38-131.6 0-188.8" class="st2"/><path d="M456.4 96.8H208.7v44.7h124v358.8c18.8-5.8 36.7-13.9 53.2-23.7v-335H485c-7.9-16-17.5-31-28.6-44.8" style="fill:#fff"/></svg>