<svg xmlns="http://www.w3.org/2000/svg" xml:space="preserve" id="svg12" x="0" y="0" version="1.1" viewBox="0 0 512 512"><style>.st0{fill:#fff}</style><g id="layer1"><path id="path487-6" d="m510.4 249-23.1-12.8v-5.1l18-18c2.5-2.6 2.5-7.7 0-10.3l-2.5-2.6-23.1-7.7c0-2.6 0-5.1-2.5-5.1l15.4-20.5c2.5-2.6 2.5-7.7-2.5-10.3 0 0-2.6 0-2.6-2.6l-25.7-5.1c0-2.6-2.5-2.6-2.5-5.1l10.3-23.1V113c-2.5-2.6-5.1-2.6-7.7-2.6h-25.7s0-2.6-2.5-2.6l5.1-25.7c0-5.1-2.5-7.7-5.1-7.7h-2.5l-25.7 5.1c0-2.6-2.5-2.6-5.1-5.1V48.8c0-5.1-2.5-7.7-7.7-7.7H390l-23.1 10.3h-2.6l-5.1-25.7c0-5.1-5.1-7.7-7.7-5.1H349L328.5 36c-2.5 0-5.1 0-5.1-2.6l-7.7-23.1c-2.5-2.6-5.1-5.1-10.3-5.1 0 0-2.5 0-2.5 2.6l-20.5 18h-5.1l-13-20.7C261.7 0 256.6 0 251.4 0l-2.5 2.6-12.8 23.1H231l-18-18c-2.5-2.6-7.7-2.6-10.3 0l-2.5 2.6-7.7 23.1c-2.5 0-5.1 0-5.1 2.6l-20.5-15.4c-5.1-2.6-10.3-2.6-12.8 2.6v2.6L149 51.5s-2.5 0-5.1 2.6l-23.1-10.3c-2.5-2.6-7.7 0-10.3 2.6v28.2c0 2.6-2.5 2.6-2.5 5.1l-25.7-5.1c-5.1-2.6-7.7 0-7.7 5.1v2.6l5.1 25.7c-2.5 0-2.5 2.6-5.1 2.6H48.8c-5.1 0-7.7 2.6-7.7 7.7v2.6L51.4 144v5.1l-25.7 5.1c-5.1 0-7.7 5.1-7.7 7.7v2.6L33.4 185c0 2.6 0 5.1-2.5 5.1l-20.5 10.3c-2.5 2.6-5.1 5.1-5.1 10.3 0 0 0 2.6 2.5 2.6l18 18v5.1L5.2 249.1C.1 251.7.1 256.8.1 259.4l2.5 2.6 23.1 15.4v5.1l-18 18c-2.5 2.6-2.5 7.7 0 10.3l2.5 2.6 23.1 7.7c0 2.6 0 5.1 2.5 5.1l-15.4 20.5c-2.5 2.6-2.5 7.7 2.5 10.3 0 0 2.5 0 2.5 2.6l25.7 5.1c0 2.6 2.5 2.6 2.5 5.1l-10.3 23.1c-2.5 2.6 0 7.7 2.5 10.3H74c2.5 0 2.5 2.6 5.1 2.6L74 431.5c0 5.1 2.5 7.7 5.1 7.7h2.5l25.7-5.1c0 2.6 2.5 2.6 5.1 5.1v25.7c0 5.1 2.5 7.7 7.7 7.7h2.6l23.1-10.3h2.5l5.1 25.7c0 5.1 5.1 7.7 7.7 5.1h2.5l20.5-15.4c2.5 0 5.1 0 5.1 2.6l7.7 23.1c2.5 2.6 5.1 5.1 10.3 5.1 0 0 2.5 0 2.5-2.6l20.5-18h5.1l12.8 20.5c2.5 2.6 7.7 5.1 10.3 2.6l2.5-2.6 12.8-20.5h5.1l18 18c2.5 2.6 7.7 2.6 10.3 0l2.5-2.6 7.7-23.1c2.5 0 5.1 0 5.1-2.6l20.5 15.4c2.5 2.6 7.7 2.6 10.3-2.6 0 0 0-2.6 2.5-2.6l5.1-25.7c2.5 0 2.5-2.6 5.1-2.6l23.1 10.3c2.6 2.6 7.7 0 10.3-2.6V439l5.1-5.1 25.7 5.1c5.1 0 7.7-2.6 7.7-5.1v-2.6l-5.1-25.7 5.1-5.1h25.7c5.1 0 7.7-2.6 7.7-7.7v-2.6l-10.3-23.1c0-2.6 2.5-2.6 2.5-5.1l25.7-5.1c5.1 0 7.7-5.1 5.1-7.7v-2.6l-15.4-20.5 2.5-5.1 23.1-7.7c2.5-2.6 5.1-5.1 5.1-10.3 0 0 0-2.6-2.5-2.6l-20.5-18v-5.1l20.5-12.8c5.1-2.6 5.1-7.7 2.5-15.4q0 3.9 0 0M363.9 428.8c-7.7-2.6-12.8-10.3-12.8-18 2.5-7.7 10.3-12.8 18-12.8 7.7 2.6 12.8 10.3 12.8 18 0 10.2-7.7 15.3-18 12.8m-5.2-48.8c-7.7-2.6-15.4 2.6-15.4 10.3L333 426.2c-23.1 10.3-48.8 15.4-77 15.4s-53.9-5.1-79.6-18l-7.7-35.9c-2.5-7.7-7.7-12.8-15.4-10.3l-30.8 7.7c-5.1-5.1-10.3-12.8-15.4-18h154c2.5 0 2.5 0 2.5-2.6v-53.9c0-2.6 0-2.6-2.5-2.6h-43.6v-33.4h48.8c5.1 0 23.1 0 30.8 25.7 2.5 7.7 5.1 33.4 10.3 41.1 2.5 7.7 15.4 25.7 28.2 25.7h79.6c-5.1 7.7-10.3 12.8-18 20.5zm-213 48.8c-7.7 2.6-15.4-2.6-18-12.8-2.5-7.7 2.5-15.4 12.8-18s15.4 2.6 18 12.8c0 7.7-5.1 15.4-12.8 18M86.6 192.6c2.5 7.7 0 18-7.7 20.5-7.7 2.6-18 0-20.5-7.7s0-18 7.7-20.5c10.3-2.6 18 0 20.5 7.7m-18 41 33.4-12.8c7.7-2.6 10.3-10.3 7.7-18l-7.7-15.4h25.7v120.7H76.4c-7.7-25.7-10.3-48.8-7.8-74.5m143.9-10.2v-35.9h64.2c2.5 0 23.1 2.6 23.1 18 0 12.8-15.4 18-28.2 18zm231 30.8V267H423c-2.5 0-2.5 0-2.5 2.6v7.7c0 20.5-12.8 25.7-23.1 25.7s-20.5-5.1-23.1-10.3c-5.1-33.4-15.4-38.5-30.8-51.3 18-12.8 38.5-30.8 38.5-53.9 0-25.7-18-41.1-28.2-48.8-18-10.3-35.9-12.8-41.1-12.8H117.5c28.2-30.8 64.2-51.3 105.3-59l23.1 25.7c5.1 5.1 12.8 5.1 20.5 0l25.7-25.7C346 77 392.2 110.4 420.5 159.2l-18 41.1c-2.5 7.7 0 15.4 7.7 18l33.4 15.4zM245.8 48.8c5.1-5.1 15.4-5.1 20.5 0s5.1 15.4 0 20.5q-11.55 11.55-23.1 0c-5.1-5.1-2.4-12.8 2.6-20.5M423 192.6c2.5-7.7 12.8-10.3 20.5-7.7s10.3 12.8 7.7 20.5c-2.5 7.7-12.8 10.3-20.5 7.7-7.6-2.6-10.3-12.8-7.7-20.5" class="st0"/><path id="path487" d="m504.5 249.2-22.6-12.5v-5l17.6-17.6c2.5-2.5 2.5-7.5 0-10l-2.5-2.5-22.6-7.5c0-2.5 0-5-2.5-5L487 169c2.5-2.5 2.5-7.5-2.5-10 0 0-2.6 0-2.6-2.5l-25.1-5c0-2.5-2.5-2.5-2.5-5l10-22.6v-7.5c-2.5-2.5-5-2.5-7.5-2.5h-25.1s0-2.5-2.5-2.5l5-25.1c0-5-2.5-7.5-5-7.5H427l-25.1 5c0-2.5-2.5-2.5-5-5V53.6q0-7.5-7.5-7.5h-2.6l-22.6 10h-2.6l-5-25.1c0-5-5-7.5-7.5-5h-2.5l-20.1 15c-2.5 0-5 0-5-2.5L314.2 16c-2.5-2.5-5-5-10-5 0 0-2.5 0-2.5 2.5L281.6 31h-5l-12.5-20c-2.5-5-7.5-5-12.5-5l-2.5 2.5L236.5 31h-5l-17.6-17.6c-2.5-2.5-7.5-2.5-10 0l-2.5 2.5-7.4 22.7c-2.5 0-5 0-5 2.5l-20.1-15c-5-2.5-10-2.5-12.5 2.5V31l-5 25.1s-2.5 0-5 2.5l-22.6-10c-2.5-2.5-7.5 0-10 2.5v27.6c0 2.5-2.5 2.5-2.5 5l-25.1-5c-5-2.5-7.5 0-7.5 5v2.5l5 25.1c-2.5 0-2.5 2.5-5 2.5H53.6q-7.5 0-7.5 7.5v2.5l10 22.6v5l-25.1 5c-5 0-7.5 5-7.5 7.5v2.5l15 20.1c0 2.5 0 5-2.5 5l-20.1 10c-2.5 2.5-5 5-5 10 0 0 0 2.5 2.5 2.5L31 231.6v5l-20 12.6c-5 2.5-5 7.5-5 10l2.5 2.5 22.6 15v5l-17.6 17.6c-2.5 2.5-2.5 7.5 0 10l2.5 2.5 22.6 7.5c0 2.5 0 5 2.5 5L26 344.4c-2.5 2.5-2.5 7.5 2.5 10 0 0 2.5 0 2.5 2.5l25.1 5c0 2.5 2.5 2.5 2.5 5l-10 22.6c-2.5 2.5 0 7.5 2.5 10h27.6c2.5 0 2.5 2.5 5 2.5l-5 25.1c0 5 2.5 7.5 5 7.5h2.5l25.1-5c0 2.5 2.5 2.5 5 5v25.1q0 7.5 7.5 7.5h2.6l22.6-10h2.5l5 25.1c0 5 5 7.5 7.5 5h2.5l20.1-15c2.5 0 5 0 5 2.5l7.5 22.6c2.5 2.5 5 5 10 5 0 0 2.5 0 2.5-2.5l20.1-17.6h5l12.5 20.1c2.5 2.5 7.5 5 10 2.5l2.5-2.5 12.5-20.1h5l17.6 17.6c2.5 2.5 7.5 2.5 10 0l2.5-2.5 7.5-22.6c2.5 0 5 0 5-2.5l20.1 15c2.5 2.5 7.5 2.5 10-2.5 0 0 0-2.5 2.5-2.5l5-25.1c2.5 0 2.5-2.5 5-2.5l22.6 10c2.6 2.5 7.5 0 10-2.5v-27.6l5-5 25.1 5c5 0 7.5-2.5 7.5-5v-2.5l-5-25.1 5-5h25.1q7.5 0 7.5-7.5V387l-10-22.6c0-2.5 2.5-2.5 2.5-5l25.1-5c5 0 7.5-5 5-7.5v-2.5l-15-20.1 2.5-5 22.6-7.5c2.5-2.5 5-5 5-10 0 0 0-2.5-2.5-2.5l-20.1-17.6v-5l20.1-12.5c5-2.5 5-7.5 2.5-15q0 3.75 0 0M361.4 424.7c-7.5-2.5-12.5-10-12.5-17.6 2.5-7.5 10-12.5 17.6-12.5 7.5 2.5 12.5 10 12.5 17.6-.1 10-7.6 15.1-17.6 12.5m-5.1-47.6c-7.5-2.5-15 2.5-15 10l-10 35.1c-22.6 10-47.6 15-75.2 15s-52.7-5-77.7-17.6l-7.5-35.1c-2.5-7.5-7.5-12.5-15-10l-30.1 7.5c-5-5-10-12.5-15.1-17.6h150.5c2.5 0 2.5 0 2.5-2.5v-52.7c0-2.5 0-2.5-2.5-2.5h-42.6v-32.6h47.6c5 0 22.6 0 30.1 25.1 2.5 7.5 5 32.6 10 40.1 2.5 7.5 15 25.1 27.6 25.1h77.7c-5 7.5-10 12.5-17.6 20.1zm-208.1 47.6c-7.5 2.5-15.1-2.5-17.6-12.5-2.5-7.5 2.5-15 12.5-17.6 10-2.5 15 2.5 17.6 12.5.1 7.6-4.9 15.1-12.5 17.6M90.6 194c2.5 7.5 0 17.6-7.5 20.1s-17.6 0-20.1-7.5 0-17.6 7.5-20.1c10-2.5 17.6 0 20.1 7.5M73 234.2l32.6-12.5c7.5-2.5 10-10 7.5-17.6l-7.5-15h25.1V307H80.5c-7.5-25.2-10-47.8-7.5-72.8m140.5-10.1V189h62.7c2.5 0 22.6 2.5 22.6 17.6 0 12.5-15.1 17.6-27.6 17.6h-57.7m225.7 30v12.5h-20.1c-2.5 0-2.5 0-2.5 2.5v7.5c0 20.1-12.5 25.1-22.6 25.1-10 0-20.1-5-22.6-10-5-32.6-15.1-37.6-30.1-50.2 17.7-12.5 37.7-30 37.7-52.6 0-25.1-17.6-40.1-27.6-47.6-17.6-10-35.1-12.5-40.1-12.5H120.7c27.6-30.1 62.7-50.2 102.8-57.7l22.6 25.1c5 5 12.5 5 20.1 0l25.1-25.1c52.7 10 97.8 42.6 125.4 90.3l-17.6 40.1c-2.5 7.5 0 15 7.5 17.6l32.6 15zM246.1 53.6c5-5 15-5 20.1 0 5 5 5 15 0 20.1-7.5 7.5-15 7.5-22.6 0-5-5-2.5-12.6 2.5-20.1M419.2 194c2.5-7.5 12.5-10 20.1-7.5 7.5 2.5 10 12.5 7.5 20.1-2.5 7.5-12.5 10-20.1 7.5-7.5-2.5-10.1-12.5-7.5-20.1"/><circle id="path91-3" cx="256" cy="256" r="207.1" style="fill-rule:evenodd;clip-rule:evenodd"/><circle id="path91-3-3-6" cx="256" cy="256" r="187.2" style="fill-rule:evenodd;clip-rule:evenodd;fill:#fff"/><circle id="path91-3-3" cx="256" cy="256" r="182.5" style="fill-rule:evenodd;clip-rule:evenodd;fill:#55f"/><path id="path361" d="M416.6 227.4c-1-.7-9.2-7-26.9-7-4.5 0-9.2.5-13.7 1.3-3.4-22.9-22.6-34.5-23.4-35l-4.6-2.8-3.1 4.4c-3.6 5.9-7 12.6-8.4 19.5-3.3 13.1-1.1 25.5 5.5 36.2-8 4.6-21.1 5.7-23.9 5.7H102.5c-5.7 0-10.1 4.6-10.1 10.3 0 18.8 3.1 37.7 9.5 55.3 7.3 19.5 18.5 33.9 32.7 42.7 16 9.8 42.4 15.4 72.3 15.4 13 0 26.4-1.1 39.6-3.6 18.3-3.3 36-9.7 52.3-19 13.4-7.7 25.4-17.5 35.5-29.3 17.2-19.2 27.3-40.9 34.7-59.8h3.2c18.7 0 30.3-7.5 36.7-13.9 4.1-3.9 7.3-8.7 9.6-14.2l1.2-3.9-3.2-2.3m-294 16.2h28.8c1.2 0 3-1.1 3-2.6v-25.9c0-1.3-1.1-2.6-3-2.6h-28.8c-1.4 0-2.6 1.1-2.6 2.6V241c-.1 1.4 1 2.6 2.6 2.6m39.8 0h28.8c1.2 0 2.9-1.1 2.9-2.6v-25.9c0-1.3-1.1-2.6-2.9-2.6h-28.7c-1.3 0-3 1.1-3 2.6V241c0 1.4 1.1 2.6 2.9 2.6m40.5 0h28.7c1.5 0 3-1.1 3-2.6v-25.9c0-1.3-1-2.6-3-2.6h-28.7c-1.1 0-2.6 1.1-2.6 2.6V241c0 1.4.8 2.6 2.6 2.6m39.9 0h29c1.1 0 2.6-1.1 2.6-2.6v-25.9c0-1.3-1-2.6-2.6-2.6h-29c-1.1 0-2.6 1.1-2.6 2.6V241c.1 1.4 1.1 2.6 2.6 2.6m-80.3-36.7h28.8c1.1 0 2.7-1.5 2.7-2.9v-25.7c0-1.5-1.1-2.6-2.7-2.6h-28.8c-1.3 0-3 1-3 2.6V204c0 1.4 1.1 2.9 3 2.9m40.4 0h28.7c1.5 0 3-1.5 3-2.9v-25.7c0-1.5-1-2.6-3-2.6h-28.7c-1.1 0-2.6 1-2.6 2.6V204c0 1.4.8 2.9 2.6 2.9m39.9 0h29c1.1 0 2.6-1.5 2.6-2.9v-25.7c0-1.5-1-2.6-2.6-2.6h-29c-1.1 0-2.6 1-2.6 2.6V204c.1 1.4 1.1 2.9 2.6 2.9m0-37.3h29c1.1 0 2.6-1.1 2.6-2.6v-25.5c0-1.6-1-2.8-2.6-2.8h-29c-1.1 0-2.6 1-2.6 2.8V167c.1 1.3 1.1 2.6 2.6 2.6m40.3 74h28.8c1.4 0 2.6-1.1 2.6-2.6v-25.9c0-1.3-1.1-2.6-2.6-2.6H283c-1.1 0-2.7 1.1-2.7 2.6V241c.1 1.4 1.1 2.6 2.7 2.6" class="st0"/></g></svg>