<svg xmlns="http://www.w3.org/2000/svg" width="512" height="512"><path fill="#0055A9" d="M0 0h512v512H0z"/><path fill="#F4FD02" d="M394.063 171.336q2.514-.005 5.03-.015 5.265-.009 10.53.027c4.453.028 8.905.012 13.359-.018 3.464-.018 6.929-.012 10.393 0q2.46.006 4.918-.011c15.573-.088 30.987 2.33 42.66 13.56 7.844 8.421 11.498 17.895 11.23 29.426-.676 9.938-4.88 19.334-12.203 26.156-3.404 2.646-7.12 4.64-10.98 6.539l3.035 1.54c12.339 6.344 20.64 11.913 26.113 25.26 1.02 3.829 1.195 7.455 1.164 11.387l-.014 2.272c-.266 12.663-4.712 23.352-13.286 32.69-14.064 12.943-33.427 13.17-51.442 13.187l-4.938.02q-5.136.017-10.272.015c-4.374 0-8.748.027-13.122.061-3.389.022-6.778.026-10.166.025q-2.42.004-4.84.027c-2.253.02-4.505.014-6.759.002l-3.871.008c-5.67-.778-9.371-2.94-12.977-7.494-2.336-4.313-2.75-7.635-2.772-12.514l-.022-3.399-.008-3.715-.02-3.923q-.028-6.435-.041-12.87l-.013-4.44q-.029-10.427-.041-20.855-.015-12.02-.077-24.04a4290 4290 0 0 1-.048-18.604c-.002-3.7-.011-7.4-.036-11.1-.028-4.132-.024-8.263-.017-12.394l-.039-3.691c.046-7.441.693-13.586 6.104-19.072 6.321-5.338 15.69-4.102 23.467-4.047"/><path fill="#F5FE01" d="m39.332 171.855 3.967-.02 4.299-.003 4.421-.01q4.643-.009 9.283-.007c3.942 0 7.883-.014 11.825-.031q4.572-.015 9.145-.013a955 955 0 0 0 4.354-.013c7.994-.039 15.602.2 23.374 2.242l2.35.61c11.566 3.196 19.883 10.31 25.892 20.495 4.294 8.103 5.078 15.266 5.008 24.332l.023 3.026c-.033 12.68-3.67 24.074-12.523 33.474-4.466 4.15-9.146 6.746-14.75 9.063l-1.953.895c-12.76 5.441-27.31 4.351-40.86 4.23q-2.946-.016-5.892-.027Q60.147 270.063 53 270l.027 1.958c.089 6.749.149 13.497.193 20.247q.03 3.774.082 7.547c.048 3.625.071 7.248.089 10.873l.062 3.388C53.455 320.83 52.67 325.206 49 331c-5.09 4.727-8.44 5.362-15.238 5.273-3.936-.39-5.91-1.56-8.762-4.273-4.966-6.521-4.568-12.756-4.518-20.735q-.008-2.085-.02-4.17c-.019-3.76-.012-7.52 0-11.281.01-3.942.001-7.885-.005-11.827q-.01-9.927.022-19.854c.021-7.645.014-15.289-.008-22.933q-.026-9.859-.01-19.717c.006-3.922.007-7.843-.006-11.765q-.017-5.529.02-11.058c.007-1.994-.005-3.987-.017-5.98.103-10.894.103-10.894 4.542-15.68 4.769-4.304 7.997-5.124 14.332-5.145"/><path fill="#F3FC03" d="M235.594 170.438c4.471 1.045 7.082 3.466 9.546 7.366 1.097 2.802 1.118 5.08 1.127 8.09l.026 3.653-.002 3.999q.008 2.11.02 4.219c.018 3.818.022 7.636.024 11.455q.001 3.581.01 7.162.028 12.503.026 25.004c-.002 7.76.02 15.518.051 23.278q.038 10.002.036 20.005c0 3.98.005 7.96.026 11.94q.029 5.617.005 11.238c-.003 2.02.014 4.042.03 6.064-.049 7.174-.571 12.026-4.519 18.089-3.51 3.344-6.27 4.273-11 4.5-4.69-.204-7.45-1.296-11-4.5-3.133-4.322-4.113-8.122-4.158-13.391l-.03-2.643-.017-2.875-.03-3.046q-.047-4.983-.081-9.967l-.063-6.91q-.083-9.096-.153-18.19-.077-9.28-.161-18.56-.162-18.21-.307-36.418l-1.531 1.034q-3.494 2.354-6.992 4.7l-2.408 1.627c-17.591 11.787-17.591 11.787-25.569 12.389-5.141-1.102-7.736-3.345-10.875-7.625-.962-3.272-1.035-5.728-.625-9.125 3.5-5.072 6.884-7.342 12.438-9.812 18.575-8.81 32.65-20.489 44.171-37.575 3.378-4.677 6.208-5.593 11.985-5.175"/><path fill="#F0FA06" d="M322 214c4.41 2.205 7.248 4.922 10 9 .858 2.735 1.13 5.214 1.147 8.072l.022 2.43.008 2.638.02 2.8q.028 4.584.041 9.17l.013 3.167q.03 8.3.044 16.6c.011 5.708.046 11.415.085 17.123.027 4.396.035 8.791.038 13.187q.008 3.156.035 6.31c.025 2.95.024 5.897.017 8.846l.039 2.614c-.05 5.796-1.237 10.204-4.509 15.043-4.755 4.415-8.008 5.485-14.39 5.402-3.579-.551-5.472-1.95-8.137-4.308-4.317-6.137-4.913-12.36-4.861-19.612l-.016-2.777c-.013-3.007-.005-6.014.006-9.021q-.003-3.153-.01-6.306-.005-6.592.017-13.185c.017-5.625.007-11.249-.01-16.873-.012-4.337-.008-8.673 0-13.01q.004-3.11-.008-6.22c-.008-2.901.004-5.801.02-8.702l-.018-2.577c.065-6.128 1.163-10.77 4.88-15.807 4.832-4.381 9.12-5.243 15.527-4.004"/><path fill="#0155A9" d="m398 261 21.75-.25 6.788-.11c12.404-.117 24.464-.138 34.462 8.36 5.183 6.864 5.732 12.592 5 21-1.69 6.719-5.111 11.413-11 15-11.478 5.313-23.466 4.456-35.812 4.25L398 309z"/><path fill="#0356A8" d="m53 196 16.188-.25 5.02-.11c10.114-.129 20.87.37 29.355 6.61 6.198 6.993 7.105 12.802 6.816 22.184-.686 6.456-2.899 10.393-7.504 14.879-10.02 7.896-24.364 6.828-36.375 6.75L53 246z"/><path fill="#0156A9" d="m398 196 18.563-.25 5.756-.11c25.35-.283 25.35-.283 33.556 7.36 4.062 5.734 3.748 12.162 3.125 19-1.606 5.607-4.861 10.107-10 13-6.652 2.638-12.842 3.424-19.945 3.293l-2.412-.01c-2.923-.015-5.845-.057-8.768-.095L398 238z"/><path fill="#F3FC04" d="M324.031 171.762c3.501 1.876 5.942 3.85 7.969 7.238.851 5.506.693 10.481-1.625 15.563-4.05 4.157-7.576 5.606-13.312 5.937-4.503-.136-7.167-1.273-10.688-4.016-4.018-4.337-3.854-8.964-3.758-14.632.383-2.852.383-2.852 2.57-5.915L308 174l2.25-1.812c4.534-1.958 9.115-2.176 13.781-.426"/></svg>