<svg xmlns="http://www.w3.org/2000/svg" xml:space="preserve" id="svg8" x="0" y="0" version="1.1" viewBox="0 0 512 512"><style>.st1{fill:#141414}</style><g id="layer2" transform="translate(-35.555 -5.615)"><ellipse id="path970" cx="285.2" cy="263.7" rx="249.7" ry="245.9" style="fill:#e3e3e3"/><g id="g105" transform="matrix(1.1856 0 0 1.18446 -17.345 -2.947)"><path id="path3475" fill="#000" d="M145.8 110.9v266.7l-62-50.2V110.9z" class="st1"/><path id="path3473" fill="#000" d="M328 110.9v266.7l62-50.2V110.9z" class="st1"/><path id="path3477" d="M83.8 110.9h62l127.9 173.9h-62z" style="fill:#212121"/><path id="path3411" d="M328 110.9 211.7 284.8v123.7h62V284.8L390 110.9z" style="fill:#000"/><path id="rect3958-5" fill="#000" d="M329.4 229.2h39.2v19.7h-39.2z" class="st1"/><path id="rect3958" fill="#000" d="M355.8 211.9h34c.1 0 .2.1.2.2v27.2c0 .1-.1.2-.2.2h-34c-.1 0-.2-.1-.2-.2v-27.2c0-.1.1-.2.2-.2" class="st1"/><path id="rect3958-3" fill="#000" d="M328.5 248.7h32.7c.1 0 .2.1.2.2v25.4c0 .1-.1.2-.2.2h-32.7c-.1 0-.2-.1-.2-.2v-25.4c0-.1.1-.2.2-.2" class="st1"/><path id="rect3958-3-5" fill="#000" d="M328.6 326.9h32.7c.1 0 .2.1.2.2v20.7c0 .1-.1.2-.2.2h-32.7c-.1 0-.2-.1-.2-.2v-20.7c-.1-.1 0-.2.2-.2" class="st1"/></g><g id="g109" transform="matrix(1.2363 0 0 1.26366 -39.705 -13.358)"><linearGradient id="path3915-7_00000017507385349940871880000003704836091050032289_" x1="114" x2="147.824" y1="468.701" y2="467.198" fill="#000" gradientTransform="matrix(3.7795 0 0 -3.7795 -59.395 1916.122)" gradientUnits="userSpaceOnUse"><stop offset="0" style="stop-color:#007f00"/><stop offset="1" style="stop-color:#00ce00"/></linearGradient><path id="path3915-7" d="M470.5 153.7c-6.8-8.1-14.7-15.3-23.3-21.5-19.7-14.2-44.4-24.2-69.1-20.3-17.7 2.8-32.6 15.3-40.5 31.1 0 .1-.1.1-.1.2h.3c1.6 1.6 3.1 3.2 4.7 4.7 16.8 16.3 37.5 31.1 61.6 32.5 24.9 1.5 48.4-9.1 69.6-21.1l1.2.1c-1.3-1.9-2.8-3.8-4.4-5.7" style="fill:url(#path3915-7_00000017507385349940871880000003704836091050032289_)"/><linearGradient id="path3915_00000181046024818449407710000014278626011484933562_" x1="107.279" x2="138.077" y1="475.257" y2="501.286" fill="#000" gradientTransform="matrix(3.7795 0 0 -3.7795 -59.395 1916.122)" gradientUnits="userSpaceOnUse"><stop offset="0" style="stop-color:#00a800"/><stop offset="1" style="stop-color:#00e700"/></linearGradient><path id="path3915" d="M454.8 21.3c-13.3 0-26.5 1.8-39.4 5.1-29.4 7.6-58.9 23.3-74.9 50-11.5 19.2-11.4 43.6-2.5 63.7h.1c0 .1.1.2.1.3l.3-.3c2.8-.2 5.6-.5 8.3-.8 29.1-3.1 59.9-11.1 80.7-33 21.4-22.7 30-53.8 35.4-83.7l1.1-1.1c-3.1-.1-6.1-.2-9.2-.2" style="fill:url(#path3915_00000181046024818449407710000014278626011484933562_)"/></g></g></svg>