<svg xmlns="http://www.w3.org/2000/svg" version="1.0" viewBox="16 1.28 368.2 398.63"><path fill="#fff" d="M92 2.3C86.8 4 80.4 10.9 78.7 16.7c-1.1 4-1.3 34-1.2 185.3.1 173.1.1 180.7 1.9 184.3 1 2.1 3.4 5.3 5.3 7.2 6.8 6.8 2.3 6.6 118 6.3l104-.3 4.9-3c3-1.9 6-4.9 7.9-7.9l3-4.9.3-181c.1-119.3-.1-182.2-.8-184.7-1.4-5.3-4.8-9.9-9.9-13.5l-4.3-3-106.1-.2c-76.1-.1-107.2.2-109.7 1M32.5 63.6c-.7.8-1.2 2.5-1.1 3.9.3 2.4.2 2.5-6.3 2.5-3.9 0-7.2.5-7.9 1.2-1.6 1.6-1.5 11.3.1 12.6.7.6 4.1 1.2 7.6 1.4 6.2.3 6.4.4 6.7 3.2.2 1.6.9 3.3 1.6 3.7s7.4.7 15 .7l13.8-.1V62.3H48c-10.7-.1-14.4.3-15.5 1.3m306.1-.7c-.2.5 0 27.7.3 29.3.2 1 26.4.7 28.4-.4 1-.5 1.7-2 1.7-3.8v-3h6.9c4.1 0 7.3-.5 7.7-1.1 1.1-1.9.5-12.2-.8-13.1-.7-.4-4.1-.8-7.5-.8H369v-3c0-1.8-.7-3.3-1.7-3.8-2-1-28.2-1.3-28.7-.3M37.3 123.8c-3.2.2-5.3.8-5.4 1.5s-.1 2.2-.2 3.4c0 1.3-.5 2.3-1.1 2.4-.6 0-3.6.2-6.6.3-3.1.1-6.1.5-6.8 1-.7.4-1.2 3-1.2 6.7 0 6.9.2 7.1 9.2 7.3 5.9.2 6.2.3 6.3 2.7.3 4.7.8 4.9 16.1 4.9H62v-15c0-8.3-.3-15-.7-15-4.5-.3-19.9-.4-24-.2m301.3.2c-.1.3-.2 7-.2 15l.1 14.5 13.9.3c15 .3 16.6-.2 16.6-4.7 0-2.7.1-2.7 6.5-2.8 3.6 0 7.1-.5 7.7-1.1 1.4-1.4 1.1-11.3-.3-12.7-.6-.6-3.6-1.1-6.7-1.2-3.1 0-6-.1-6.4-.2-.5-.1-.8-1.1-.8-2.4 0-4.6-.9-4.9-16-5-7.8-.1-14.3 0-14.4.3M33.1 185.9c-.8.5-1.5 2.2-1.5 3.8-.2 2.8-.3 2.8-7.1 3.1-4 .2-7.3.8-7.7 1.5-1.2 1.9-.9 11.2.4 12.5.7.7 4 1.2 7.9 1.2 6.5 0 6.7.1 6.4 2.2-.9 4.8.3 5.2 15.7 5.2l14.3.1.3-15.3.3-15.2H48.3c-7.6 0-14.4.4-15.2.9M338.5 200c0 12.6.2 15 1.5 15.1 6.3.6 25.8.3 27.3-.3 1-.6 1.7-2 1.7-3.8v-3h6.3c3.4 0 6.8-.4 7.5-.9.9-.5 1.2-2.7 1-7.2l-.3-6.4-7.2-.3c-7.2-.3-7.3-.3-7.3-3 0-4.8-1.3-5.2-16.5-5.2h-14zM33.7 246.8c-1.7.3-1.8.6-2.1 3.9-.2 3.3-1.4 3.9-6.6 3.6-7.4-.5-9 .7-9 6.7 0 7.7.3 8 8.1 8 3.8 0 6.9.3 7 .7.7 7.4.5 7.3 16.4 7.3h14.6l-.3-15.2-.3-15.2H48.4c-7.2-.1-13.8 0-14.7.2m306.8 0c-2 .3-2 1-2 15.2v15h14c15.2 0 16.5-.4 16.5-5.2 0-2.7.1-2.7 7.3-3l7.2-.3.5-5.3c.8-7.4-.7-9.3-6.8-9.1-7.7.2-8.2.1-8.2-2.4 0-4.6-1-4.9-14.1-5.1-6.8 0-13.3 0-14.4.2M32.3 309.2c-.4.7-.7 2.4-.8 3.8 0 2.4-.3 2.5-6.9 2.6-4.6.1-7.1.6-7.7 1.5-1.3 2.1-1.1 11.3.3 12.7.7.7 4 1.2 7.8 1.2h6.7v3c0 1.7.2 3.3.6 3.6.3.3 7.1.7 15.1.7l14.6.2V308H47.6c-10.5 0-14.7.3-15.3 1.2M338.5 323c0 12.6.2 15 1.5 15.1.8.1 7.3.1 14.4.1 13.6 0 14.6-.3 14.6-5 0-2 .4-2.2 6.4-2.2 4 0 6.8-.5 7.5-1.3 1.4-1.8 1.7-11.5.3-12.9-.6-.6-4-1-7.6-1-6.5 0-6.6 0-6.6-2.7 0-4.7-1.3-5.1-16.5-5.1h-14z"/></svg>