<svg xmlns="http://www.w3.org/2000/svg" xml:space="preserve" viewBox="0 0 25 25"><path d="M0 20V5c0-.33.03-.65.1-.98.06-.32.15-.63.28-.93s.28-.59.46-.86c.19-.28.39-.53.62-.77.24-.23.49-.43.76-.62s.56-.34.86-.46.62-.22.94-.28S4.67 0 5 0h15c.33 0 .65.03.98.1.32.06.63.16.94.28s.59.28.86.46.53.39.76.62.44.48.62.76c.18.27.34.56.46.86.13.3.22.62.28.94.07.33.1.65.1.98v15c0 .33-.03.65-.1.98-.06.32-.16.63-.28.94s-.28.59-.46.86-.39.53-.62.76-.48.44-.76.62c-.27.18-.56.34-.86.46-.3.13-.62.22-.94.28-.33.07-.65.1-.98.1H5c-.33 0-.65-.03-.98-.1s-.63-.16-.94-.28-.59-.28-.86-.46a5 5 0 0 1-.76-.62c-.23-.23-.44-.48-.62-.76-.18-.27-.34-.56-.46-.86s-.22-.62-.28-.94c-.07-.33-.1-.65-.1-.98" style="fill:#4d87e2"/><path d="M16.77 10.45c-.63.69-1.71.69-2.34 0-.54-.59-.54-1.51 0-2.1.63-.69 1.71-.69 2.34 0 .54.59.54 1.51 0 2.1m1.29-3.56a4.86 4.86 0 0 0-6.83.03 4.82 4.82 0 0 0-.89 5.62c.03.07.02.16-.03.21l-4.75 4.74a.2.2 0 0 0-.05.13v1.7c0 .1.08.18.18.18H7.4c.05 0 .09-.02.13-.05l1.44-1.43a.2.2 0 0 1 .13-.05H11c.2 0 .37-.16.37-.37v-1.9c0-.05.02-.09.05-.13l.87-.87c.06-.06.14-.07.21-.03 1.82.91 4.09.61 5.6-.9 1.88-1.9 1.87-5.01-.04-6.88" style="fill:#fff"/></svg>