<svg xmlns="http://www.w3.org/2000/svg" viewBox="3.74 1.52 54.57 60.19"><path d="m47.88 52.22-23.39 8.59a4.87 4.87 0 0 1-6.24-2.89L4.69 21a4.87 4.87 0 0 1 2.89-6.24L41 2.49a4.87 4.87 0 0 1 6.24 2.89l10.15 27.69C59 37.17 53 50.35 47.88 52.22" style="fill:#000"/><path fill="#000000fff" d="M39.78 55.86 24.71 61.4a5.51 5.51 0 0 1-7-3.26L4.1 21.22a5.5 5.5 0 0 1 3.26-7L40.76 1.9a5.51 5.51 0 0 1 7.05 3.26L58 32.86c.77 1.93.09 5.66-1.83 10-1.73 3.88-4.88 8.82-8 10ZM7.8 15.35a4.23 4.23 0 0 0-2.52 5.43L18.84 57.7a4.26 4.26 0 0 0 5.44 2.52l23.38-8.59c2.28-.84 5.22-4.59 7.34-9.32 1.73-3.88 2.44-7.41 1.81-9L46.63 5.6a4.24 4.24 0 0 0-5.44-2.52Z"/><path d="M15.48 18a8.2 8.2 0 0 1 2.16 3.53 8 8 0 0 1 .63 4.07 3 3 0 0 1-2.18 2.4 3 3 0 0 1-3.15-.36 8.13 8.13 0 0 1-2.16-3.51 8.26 8.26 0 0 1-.64-4.13 3 3 0 0 1 2.18-2.32 3 3 0 0 1 3.16.32M14 25.87a1.21 1.21 0 0 0 1.49.48 1.19 1.19 0 0 0 .83-1.35 10.3 10.3 0 0 0-.7-2.72 10 10 0 0 0-1.25-2.57 1.17 1.17 0 0 0-1.46-.44 1.18 1.18 0 0 0-.83 1.29 9.7 9.7 0 0 0 .69 2.76A10 10 0 0 0 14 25.87m11.22-11.42A8.2 8.2 0 0 1 27.38 18a8.07 8.07 0 0 1 .62 4.06 3 3 0 0 1-2.18 2.31 3 3 0 0 1-3.14-.37 8.24 8.24 0 0 1-2.16-3.52 8.24 8.24 0 0 1-.64-4.09 3 3 0 0 1 2.18-2.31 3 3 0 0 1 3.16.37m-1.46 7.84a1.26 1.26 0 0 0 2.3-.85 10.3 10.3 0 0 0-.7-2.72 10 10 0 0 0-1.25-2.57 1.27 1.27 0 0 0-2.29.85 9.8 9.8 0 0 0 .69 2.77 10 10 0 0 0 1.25 2.52m11.7-3.7-2.89-7.85-1.45.54a1.3 1.3 0 0 1 .06.38 1.7 1.7 0 0 1-.11.76 1.75 1.75 0 0 1-.68.78 9 9 0 0 1-1.11.53l.43 1.19 2.09-.77 1.87 5.1-2.25.82.58 1.53 5.9-2.17-.56-1.53Zm8.33-3.06-2.88-7.85-1.46.53a2 2 0 0 1 .07.38 1.56 1.56 0 0 1-.8 1.54 8 8 0 0 1-1.11.54l.44 1.18 2.08-.76L42 16.18l-2.24.82.56 1.53 5.9-2.17-.56-1.53ZM20.17 39.14l-2.88-7.85-1.46.53a2 2 0 0 1 .07.38 1.6 1.6 0 0 1-.11.76 1.65 1.65 0 0 1-.68.78 9 9 0 0 1-1.12.54l.44 1.18 2.08-.76 1.88 5.09-2.25.83.56 1.53L22.6 40l-.6-1.55Zm8.36-10.97a8.4 8.4 0 0 1 2.16 3.53 8.3 8.3 0 0 1 .63 4.07 3 3 0 0 1-2.18 2.32 3 3 0 0 1-3.14-.36 8.3 8.3 0 0 1-2.16-3.51 8.3 8.3 0 0 1-.63-4.09 3 3 0 0 1 2.18-2.32 3 3 0 0 1 3.14.36M27.07 36a1.26 1.26 0 0 0 2.29-.85 10.2 10.2 0 0 0-.69-2.72 10.4 10.4 0 0 0-1.25-2.57 1.17 1.17 0 0 0-1.42-.43 1.2 1.2 0 0 0-.84 1.29 10 10 0 0 0 .7 2.76A10 10 0 0 0 27.07 36m11.19-11.4a8.2 8.2 0 0 1 2.16 3.52 8.2 8.2 0 0 1 .63 4.08 3 3 0 0 1-2.18 2.31 3 3 0 0 1-3.15-.35 8.2 8.2 0 0 1-2.17-3.52 8.3 8.3 0 0 1-.63-4.08 3 3 0 0 1 2.18-2.32 3 3 0 0 1 3.16.36m-1.46 7.83a1.21 1.21 0 0 0 1.49.49 1.2 1.2 0 0 0 .81-1.33 11 11 0 0 0-.7-2.73 10 10 0 0 0-1.25-2.56 1.19 1.19 0 0 0-1.46-.45 1.2 1.2 0 0 0-.83 1.29 9.7 9.7 0 0 0 .69 2.77 10 10 0 0 0 1.25 2.52M48.18 21a8.3 8.3 0 0 1 2.17 3.53 8.3 8.3 0 0 1 .65 4.02 3 3 0 0 1-2.18 2.32 3 3 0 0 1-3.16-.36A8.13 8.13 0 0 1 43.48 27a8.35 8.35 0 0 1-.63-4.09A3 3 0 0 1 45 20.59a3 3 0 0 1 3.18.41m-1.46 7.84a1.21 1.21 0 0 0 1.49.48 1.19 1.19 0 0 0 .79-1.38 10.2 10.2 0 0 0-.69-2.72 10.4 10.4 0 0 0-1.25-2.57 1.17 1.17 0 0 0-1.46-.44 1.2 1.2 0 0 0-.84 1.29 10.2 10.2 0 0 0 .7 2.76 10 10 0 0 0 1.26 2.53ZM33.45 41.58a8.2 8.2 0 0 1 2.16 3.52 8.07 8.07 0 0 1 .63 4.08 3 3 0 0 1-2.18 2.31 3 3 0 0 1-3.15-.35 8.1 8.1 0 0 1-2.16-3.52 8.2 8.2 0 0 1-.64-4.08 3 3 0 0 1 2.18-2.32 3 3 0 0 1 3.16.36M32 49.41a1.21 1.21 0 0 0 1.49.49 1.2 1.2 0 0 0 .81-1.33 10.5 10.5 0 0 0-.7-2.73 10 10 0 0 0-1.25-2.56 1.19 1.19 0 0 0-1.46-.45 1.2 1.2 0 0 0-.83 1.29 9.7 9.7 0 0 0 .69 2.77A10.4 10.4 0 0 0 32 49.41m-6.33 2.92-2.88-7.85-1.45.52a3 3 0 0 1 .06.37 1.7 1.7 0 0 1-.11.77 1.75 1.75 0 0 1-.68.78 10 10 0 0 1-1.11.53l.43 1.19 2.07-.75L23.89 53l-2.25.83.56 1.53 5.9-2.17-.56-1.53Zm18.07-6.64-2.88-7.85-1.45.54a3 3 0 0 1 .06.38 1.7 1.7 0 0 1-.11.76 1.75 1.75 0 0 1-.68.78 8 8 0 0 1-1.12.53L38 42l2.09-.77L42 46.35l-2.25.82.56 1.53 5.9-2.16-.6-1.54Z" style="fill:#dbdbdb"/><path d="M40.73 1.86 7.33 14.12a5.51 5.51 0 0 0-3.26 7.05l13.56 36.92a5.5 5.5 0 0 0 7.05 3.26l15.07-5.53 8.32-3.06c3.17-1.17 6.32-6.11 8-10 1.92-4.31 2.61-8 1.84-10L47.78 5.12a5.49 5.49 0 0 0-7.05-3.26M24.25 60.17a4.24 4.24 0 0 1-5.44-2.51L5.25 20.74a4.24 4.24 0 0 1 2.51-5.44L41.16 3a4.24 4.24 0 0 1 5.44 2.55l9.66 26.31h-.14s-.65 3.45-5.18 3.79a7.58 7.58 0 0 0-5.76 3.89 6.56 6.56 0 0 0 .33 6.71c1.56 2.3.65 5.21.36 6ZM55 42.26c-2.12 4.74-5.06 8.48-7.34 9.32l-.27.1a7.63 7.63 0 0 0-.81-6.16 5.26 5.26 0 0 1-.26-5.39A6.32 6.32 0 0 1 51 36.89a6.69 6.69 0 0 0 5.79-3.44c.56 1.66-.15 5.07-1.79 8.81" style="fill:#ebebeb"/><path d="M55 42.35c-2.11 4.73-5.06 8.48-7.33 9.31l-.28.11a7.58 7.58 0 0 0-.81-6.16 5.3 5.3 0 0 1-.26-5.4s1.61-3 4.74-3.24a6.69 6.69 0 0 0 5.8-3.44c.51 1.66-.2 5.07-1.86 8.82" style="fill:#262626"/></svg>