<svg xmlns="http://www.w3.org/2000/svg" xmlns:xlink="http://www.w3.org/1999/xlink" zoomAndPan="magnify" preserveAspectRatio="xMidYMid meet" version="1.0" viewBox="29.16 28.66 274.06 321.12"><defs><g/><clipPath id="d62632d413"><path d="M 29 28 L 304 28 L 304 350 L 29 350 Z M 29 28 " clip-rule="nonzero"/></clipPath><clipPath id="ecc8b4d8ed"><path d="M 187.496094 -39.996094 L 416.601562 189.105469 L 187.496094 418.207031 L -41.605469 189.105469 Z M 187.496094 -39.996094 " clip-rule="nonzero"/></clipPath><clipPath id="3016db942f"><path d="M 187.496094 -39.996094 L 416.601562 189.105469 L 187.496094 418.207031 L -41.605469 189.105469 Z M 187.496094 -39.996094 " clip-rule="nonzero"/></clipPath><clipPath id="029f8ae6a8"><path d="M 29 28 L 304 28 L 304 350 L 29 350 Z M 29 28 " clip-rule="nonzero"/></clipPath><clipPath id="2d374b5e76"><path d="M 187.496094 -39.996094 L 416.601562 189.105469 L 187.496094 418.207031 L -41.605469 189.105469 Z M 187.496094 -39.996094 " clip-rule="nonzero"/></clipPath><clipPath id="544d823606"><path d="M 187.496094 -39.996094 L 416.601562 189.105469 L 187.496094 418.207031 L -41.605469 189.105469 Z M 187.496094 -39.996094 " clip-rule="nonzero"/></clipPath><clipPath id="b88a276116"><path d="M 187.496094 -39.996094 L 416.601562 189.105469 L 187.496094 418.207031 L -41.605469 189.105469 Z M 187.496094 -39.996094 " clip-rule="nonzero"/></clipPath><clipPath id="98c26e11a4"><rect x="0" width="103" y="0" height="208"/></clipPath></defs><g clip-path="url(#d62632d413)"><g clip-path="url(#ecc8b4d8ed)"><g clip-path="url(#3016db942f)"><path fill="#ff751f" d="M 303.214844 302.761719 C 280.765625 325.214844 252.160156 340.503906 221.015625 346.699219 C 189.875 352.890625 157.59375 349.714844 128.261719 337.5625 C 98.925781 325.410156 73.851562 304.835938 56.210938 278.433594 C 38.570312 252.03125 29.15625 220.992188 29.15625 189.242188 C 29.15625 157.488281 38.570312 126.449219 56.210938 100.050781 C 73.851562 73.648438 98.925781 53.070312 128.261719 40.921875 C 157.59375 28.769531 189.875 25.589844 221.015625 31.785156 C 252.160156 37.980469 280.765625 53.269531 303.214844 75.722656 L 189.695312 189.242188 Z M 303.214844 302.761719 " fill-opacity="1" fill-rule="nonzero"/></g></g></g><g clip-path="url(#029f8ae6a8)"><g clip-path="url(#2d374b5e76)"><g clip-path="url(#544d823606)"><g clip-path="url(#b88a276116)"><path fill="#61b33a" d="M 303.144531 302.550781 C 280.707031 324.988281 252.117188 340.269531 220.996094 346.460938 C 189.875 352.652344 157.613281 349.472656 128.296875 337.332031 C 98.980469 325.1875 73.921875 304.621094 56.292969 278.238281 C 38.664062 251.851562 29.253906 220.832031 29.253906 189.101562 C 29.253906 157.367188 38.664062 126.347656 56.292969 99.964844 C 73.921875 73.578125 98.980469 53.015625 128.296875 40.871094 C 157.613281 28.726562 189.875 25.550781 220.996094 31.742188 C 252.117188 37.929688 280.707031 53.210938 303.144531 75.652344 L 189.695312 189.101562 Z M 303.144531 302.550781 " fill-opacity="1" fill-rule="nonzero"/></g></g></g></g><g transform="matrix(1, 0, 0, 1, 136, 0)"><g clip-path="url(#98c26e11a4)"><g fill="#ff751f" fill-opacity="1"><g transform="translate(0.457164, 116.403543)"><g><path d="M 19.734375 -18.71875 C 19.734375 -21.664062 20.015625 -24.441406 20.578125 -27.046875 C 21.148438 -29.660156 22.0625 -32.210938 23.3125 -34.703125 C 24.5625 -37.203125 26.207031 -39.359375 28.25 -41.171875 C 33.6875 -47.066406 41.285156 -50.015625 51.046875 -50.015625 C 59.210938 -50.015625 66.46875 -46.953125 72.8125 -40.828125 C 79.164062 -34.703125 82.34375 -27.332031 82.34375 -18.71875 C 82.34375 -9.414062 79.28125 -1.925781 73.15625 3.75 C 67.257812 9.644531 59.890625 12.59375 51.046875 12.59375 C 42.648438 12.59375 35.332031 9.472656 29.09375 3.234375 C 22.851562 -3.003906 19.734375 -10.320312 19.734375 -18.71875 Z M 19.734375 -18.71875 "/></g></g></g></g></g></svg>