<svg width="850" height="999" viewBox="0 0 850 999" fill="none" xmlns="http://www.w3.org/2000/svg">
<g clip-path="url(#clip0_7123_4112)">
<path d="M605.888 876.551C602.668 872.607 597.798 866.349 595.01 862.574C594.265 861.551 593.614 860.675 593.028 859.899L592.437 859.119L425.069 955.749L257.701 859.118L257.102 859.909C256.517 860.681 255.868 861.553 255.192 862.482C252.36 866.318 247.492 872.577 244.274 876.519C241.832 879.498 237.66 884.063 232.922 889.039L425.069 999.977L617.213 889.041C612.481 884.071 608.318 879.517 605.888 876.551Z" fill="#F9682F"/>
<path d="M661.099 207.041L808.275 292.013V734.504L773.822 754.396C773.559 755.413 773.278 756.457 772.963 757.56C771.622 762.189 769.554 767.193 767.167 771.793C775.127 776.615 781.536 781.841 785.176 789.764C786.027 789.987 786.948 790.228 787.92 790.481L846.576 756.616V269.9L661.099 162.815V207.041Z" fill="#F9682F"/>
<path d="M345.542 89.2081C348.93 92.2988 351.906 96.3135 353.257 100.784C353.829 102.661 354.228 104.592 354.313 111.62L425.069 70.7694L495.821 111.619C495.905 104.609 496.305 102.675 496.88 100.772C498.237 96.2948 501.222 92.2761 504.593 89.1975L504.638 72.4828L425.069 26.5428L345.498 72.4841L345.542 89.2081Z" fill="#F9682F"/>
<path d="M64.9359 789.77C68.5519 781.866 74.9746 776.634 82.9666 771.795C80.5839 767.206 78.5239 762.222 77.1919 757.631C76.8693 756.502 76.5826 755.435 76.3133 754.394L41.8626 734.505V292.014L189.036 207.043V162.817L3.56128 269.901V756.617L62.2159 790.482C63.1773 790.23 64.0919 789.991 64.9359 789.77Z" fill="#F9682F"/>
<path d="M56.5017 895.757C56.1897 889.679 56.1377 886.51 56.3977 886.51C56.5537 886.51 58.891 888.173 61.5923 890.146L66.527 893.834V899.549V905.315L63.9297 903.809C62.527 902.977 60.2937 901.574 59.047 900.691C56.7617 899.081 56.7097 898.977 56.5017 895.757Z" fill="white"/>
<path d="M189.381 553.274L189.225 558.573C189.017 564.183 189.953 568.91 191.458 570.157C193.017 571.455 192.29 571.819 189.225 571.455C183.251 570.727 178.731 568.13 175.978 563.923C174.679 561.897 174.523 561.222 174.731 558.781C174.887 556.546 175.199 555.715 176.29 554.781C177.901 553.378 180.758 552.91 185.745 553.118L189.381 553.274Z" fill="white"/>
<path d="M66.7872 910.146L66.9432 915.185C66.9952 917.99 66.9432 920.275 66.7352 920.275C66.5792 920.275 64.6058 919.341 62.3712 918.146L58.2685 916.015L57.9565 913.107C57.8005 911.497 57.5925 909.678 57.4885 909.107C57.3845 908.535 57.2805 907.081 57.2285 905.834L57.1765 903.601L61.9565 906.874L66.7872 910.146Z" fill="white"/>
<path d="M69.5923 886.874C69.4363 884.225 69.2803 881.575 69.2283 880.901C69.1763 880.277 69.3323 879.758 69.5403 879.758C69.7483 879.758 72.1897 881.211 74.943 882.978C77.6963 884.797 80.3457 886.51 80.8643 886.822C81.6443 887.29 81.8523 888.225 82.007 892.641C82.163 896.587 82.059 897.938 81.5923 897.938C80.9163 897.938 71.307 892.951 70.423 892.121C70.1643 891.861 69.8003 889.523 69.5923 886.874Z" fill="white"/>
<path d="M80.4489 902.146C81.8516 902.925 81.9556 903.185 82.3196 907.497C82.4743 909.99 82.5263 912.223 82.3703 912.483C82.1116 912.899 72.6049 908.847 71.7743 908.015C71.4103 907.705 70.2676 897.315 70.5276 896.795C70.6316 896.639 72.5529 897.575 74.7863 898.874C77.0729 900.225 79.6183 901.678 80.4489 902.146Z" fill="white"/>
<path d="M52.9694 889.471C52.8134 892.693 52.5534 895.497 52.3467 895.653C52.0347 896.017 45.0214 890.718 43.7747 889.211C43.1 888.329 42.84 875.342 43.5667 874.874C43.7747 874.77 46.06 876.693 48.6054 879.134L53.2814 883.653L52.9694 889.471Z" fill="white"/>
<path d="M327.194 571.507L327.038 566.261L323.766 565.118C320.701 564.027 319.714 564.131 321.273 565.43C322.208 566.209 322.778 569.17 322.364 571.403C322.156 572.494 321.584 573.378 320.909 573.689C320.285 574.001 319.87 574.261 320.025 574.313C320.181 574.313 321.896 574.883 323.818 575.559L327.35 576.754L327.194 571.507Z" fill="white"/>
<path d="M39.4633 895.393C39.2033 898.925 38.8393 901.886 38.7366 902.042C38.2166 902.509 29.126 893.056 29.126 892.017C29.126 891.393 29.386 888.328 29.698 885.212C30.0606 882.042 30.4766 879.341 30.6846 879.082C30.8406 878.874 33.022 881.004 35.5153 883.861L39.9833 889.004L39.4633 895.393Z" fill="white"/>
<path d="M24.7103 893.523C24.0863 899.965 23.8276 901.263 23.3076 900.329C22.009 898.042 19.4116 883.342 20.5023 884.485C20.6063 884.589 21.697 885.991 22.8916 887.55C24.9703 890.354 25.0223 890.458 24.7103 893.523Z" fill="white"/>
<path d="M190.939 468.186C189.224 470.627 189.12 475.302 190.679 477.329C191.251 478.055 191.718 478.731 191.718 478.887C191.718 478.991 190.004 479.25 187.926 479.406C185.9 479.614 182.212 480.238 179.823 480.861C176.238 481.743 175.407 481.847 175.043 481.277C174.212 479.926 174.576 476.394 175.823 473.745C177.122 470.939 178.783 469.485 182.472 467.822C184.81 466.783 191.043 465.589 191.77 466.057C191.978 466.159 191.614 467.147 190.939 468.186Z" fill="white"/>
<path d="M34.1647 900.9C37.8007 904.744 38.9434 906.25 38.7354 907.029C38.6327 907.601 38.4767 910.354 38.4767 913.108C38.4767 916.328 38.2687 918.198 37.9567 918.198C37.6447 918.198 35.5674 916.64 33.282 914.769C29.23 911.393 29.178 911.289 28.97 908.64C28.606 903.549 28.606 895.861 28.97 895.861C29.126 895.861 31.4634 898.146 34.1647 900.9Z" fill="white"/>
<path d="M52.5018 916.795V922.198C52.5018 928.379 52.7618 928.223 48.1378 925.262L45.3338 923.445L45.0218 920.171C44.8658 918.354 44.6058 916.171 44.5538 915.341C44.1898 912.431 44.1898 910.926 44.5018 910.926C44.7098 910.926 46.5805 912.225 48.6578 913.834L52.5018 916.795Z" fill="white"/>
<path d="M43.6188 900.38C43.4628 897.16 43.3068 894.147 43.2548 893.627C43.2028 893.16 43.4108 892.744 43.7228 892.744C44.0348 892.744 46.1121 894.407 48.3975 896.484L52.5015 900.224V906.095C52.5015 909.315 52.2935 911.964 52.0855 911.964C51.7228 911.964 45.6441 907.756 44.4495 906.665C44.1388 906.405 43.7748 903.601 43.6188 900.38Z" fill="white"/>
<path d="M85.5918 889.627C85.8518 889.627 88.1891 890.77 90.8904 892.12L95.7731 894.614L96.0331 899.392C96.1371 902.042 96.1371 904.172 96.0331 904.172C95.5131 904.12 87.1504 900.536 86.7864 900.172C86.5264 899.964 86.1118 897.887 85.8518 895.6C85.1758 889.939 85.1758 889.627 85.5918 889.627Z" fill="white"/>
<path d="M101.539 896.848C101.851 897.056 104.189 898.042 106.682 898.977C109.175 899.913 111.357 900.848 111.461 901.108C111.617 901.316 111.877 903.289 112.085 905.522C112.397 909.314 112.345 909.522 111.409 909.158C110.89 908.952 108.553 908.172 106.318 907.497C104.033 906.821 102.059 906.146 101.955 905.99C101.799 905.834 101.383 904.016 101.071 901.99C100.241 897.056 100.241 897.108 100.657 896.744C100.813 896.536 101.227 896.588 101.539 896.848Z" fill="white"/>
<path d="M83.1502 923.496V927.496L78.3195 925.521L73.5395 923.6L72.9688 919.444C72.2408 914.353 72.1888 913.523 72.5008 913.523C73.1768 913.523 82.4235 918.405 82.7342 918.925C82.9422 919.236 83.1502 921.315 83.1502 923.496Z" fill="white"/>
<path d="M157.174 875.809C157.538 879.133 157.486 879.341 156.602 879.081C156.031 878.926 153.746 878.51 151.459 878.146C149.174 877.834 147.045 877.316 146.785 877.056C146.058 876.381 144.603 868.848 145.174 868.848C146.11 868.848 156.135 871.497 156.447 871.809C156.654 872.069 156.966 873.834 157.174 875.809Z" fill="white"/>
<path d="M199.77 869.783L196.134 869.627L195.51 867.29C194.939 864.953 194.887 864.121 195.354 864.069C196.756 863.81 205.016 864.901 205.328 865.367C205.536 865.731 205.743 866.77 205.743 867.654C205.743 869.731 204.912 869.991 199.77 869.783Z" fill="white"/>
<path d="M67.3066 926.301L67.6706 930.405C67.8266 932.69 67.8786 934.716 67.7746 934.924C67.6186 935.132 65.8519 934.509 63.7746 933.573L60.0346 931.912L59.4626 927.496C58.6839 921.833 58.6839 921.314 59.0986 921.366C59.3586 921.366 61.2813 922.457 63.4106 923.808L67.3066 926.301Z" fill="white"/>
<path d="M140.499 876.121C139.2 876.121 129.902 873.68 129.486 873.264C129.123 872.952 127.98 866.926 127.876 864.797C127.824 864.069 128.085 863.654 128.447 863.758C128.811 863.862 131.616 864.745 134.68 865.732C140.863 867.706 140.447 867.186 141.122 873.108C141.434 875.809 141.33 876.121 140.499 876.121Z" fill="white"/>
<path d="M124.499 871.965C123.669 871.965 112.603 868.329 112.137 867.861C111.773 867.549 110.89 861.212 110.734 857.888L110.682 856.537L116.499 859.031C119.721 860.433 122.629 861.576 122.941 861.576C124.135 861.576 124.603 862.979 124.863 867.395C125.019 870.719 124.967 871.965 124.499 871.965Z" fill="white"/>
<path d="M112.967 761.891C114.63 765.267 115.513 767.554 115.097 767.554C114.11 767.554 109.487 762.359 107.721 759.242C105.331 755.034 102.994 747.918 101.851 741.372C100.397 733.164 100.397 732.438 100.605 722.36C100.759 715.191 101.071 712.075 102.058 707.555C104.501 696.491 108.447 687.348 115.149 677.426C117.227 674.258 120.239 670.31 121.85 668.595L124.707 665.479L121.331 670.778C101.643 701.686 98.7339 733.216 112.967 761.891Z" fill="white"/>
<path d="M110.838 894.925C110.578 895.393 100.916 892.016 100.084 891.185C99.7736 890.873 99.2536 888.848 98.9416 886.613C98.1109 881.056 98.1109 880.64 98.8376 880.952C101.124 881.835 109.955 885.627 110.163 885.835C110.474 886.147 111.15 894.457 110.838 894.925Z" fill="white"/>
<path d="M67.0985 877.835L66.7345 883.602C66.5265 886.77 66.3199 889.471 66.2159 889.575C66.1119 889.679 63.8265 888.173 61.1252 886.302L56.1372 882.822V875.862C56.1372 872.017 56.2412 868.849 56.2932 868.849C56.3972 868.849 57.0732 869.369 57.7479 869.939C58.4239 870.563 60.8132 872.589 63.0465 874.459L67.0985 877.835Z" fill="white"/>
<path d="M113.643 872.64C114.163 872.796 117.019 873.835 120.032 874.926L125.487 876.9L125.903 881.263C126.161 883.652 126.213 885.679 126.109 885.835C125.955 885.939 123.201 885.263 119.928 884.328L114.059 882.614L113.487 879.238C112.552 873.939 112.604 872.328 113.643 872.64Z" fill="white"/>
<path d="M85.5397 884.952C85.0717 884.484 84.5531 882.355 84.2931 879.497C83.6171 872.952 83.6171 872.9 84.1371 873.108C84.3451 873.16 86.8904 874.563 89.7477 876.121L94.9944 878.979L95.2024 883.913C95.3571 886.615 95.3051 889.004 95.1504 889.16C94.7344 889.627 86.5784 885.991 85.5397 884.952Z" fill="white"/>
<path d="M81.5916 871.498V877.16C81.5916 880.588 81.3836 882.874 81.0716 882.874C80.813 882.874 78.0076 881.367 74.8903 879.498L69.177 876.12L68.969 873.108C68.605 866.979 68.605 862.615 69.021 862.615C69.281 862.615 70.8383 863.706 72.553 865.004C74.2156 866.355 76.969 868.328 78.5783 869.472L81.5916 871.498Z" fill="white"/>
<path d="M94.7342 874.666C94.5262 875.082 86.8902 871.446 84.6049 869.784C83.3062 868.9 83.2022 868.485 82.9942 864.797C82.9422 862.614 82.7862 859.81 82.7342 858.562C82.6822 857.368 82.7862 856.381 82.9422 856.381C83.0982 856.381 85.7476 857.94 88.8649 859.861L94.4742 863.394L94.6822 868.849C94.8382 871.861 94.8382 874.458 94.7342 874.666Z" fill="white"/>
<path d="M109.331 872.225C109.955 876.277 110.006 880.796 109.435 880.796C108.501 880.796 99.0459 877.108 98.3192 876.433C97.3832 875.549 96.1366 864.381 97.0206 864.797C107.825 869.888 109.123 870.667 109.331 872.225Z" fill="white"/>
<path d="M237.067 722.1C245.067 718.152 254.625 723.867 254.677 732.698C254.781 742.307 244.755 748.386 236.547 743.658C233.691 741.996 231.925 739.97 230.886 736.956C228.859 731.347 231.561 724.854 237.067 722.1ZM227.561 726.048C226.834 727.451 226.366 729.528 226.21 731.918C225.899 737.58 227.509 741.58 231.613 745.268C236.547 749.736 243.873 750.723 249.794 747.814C255.561 744.904 258.937 739.451 258.937 732.958C258.937 729.84 258.677 728.75 257.274 725.84C254.158 719.503 248.703 716.334 241.586 716.75C235.301 717.114 230.47 720.334 227.561 726.048Z" fill="white"/>
<path d="M260.287 106.303C260.287 109.525 260.859 110.771 262.677 111.758C263.871 112.381 262.677 112.537 252.443 112.797C237.171 113.213 223.354 114.978 214.159 117.627C211.822 118.303 209.639 118.874 209.379 118.874C209.069 118.874 208.861 116.745 208.861 113.679C208.861 108.901 208.965 108.433 210.003 107.758C214.315 104.953 238.158 101.265 257.17 100.434L264.703 100.07L262.885 101.213C260.495 102.771 260.287 103.082 260.287 106.303Z" fill="white"/>
<path d="M249.638 725.477C249.794 725.685 249.326 726.049 248.6 726.203C244.08 727.347 244.08 738.671 248.6 739.814C250.262 740.23 249.794 740.905 247.093 742.151C243.405 743.814 239.976 743.346 236.548 740.749C234.678 739.346 234.366 738.463 235.665 738.463C236.08 738.463 236.808 737.581 237.276 736.541C238.314 733.943 237.95 730.047 236.392 727.97L235.197 726.359L236.652 725.217C238.21 723.918 241.224 722.879 243.353 722.879C244.704 722.879 249.17 724.698 249.638 725.477Z" fill="white"/>
<path d="M163.927 821.785L162.108 822.149C157.485 823.136 155.511 830.876 158.472 836.693C159.615 838.824 160.861 839.759 162.68 839.759C163.771 839.759 163.771 839.811 162.472 840.797C160.291 842.512 157.641 843.395 154.576 843.395C151.252 843.395 148.811 842.512 145.953 840.227L143.875 838.564L145.433 837.629C146.42 837.005 147.148 836.019 147.512 834.72C148.707 830.408 147.875 825.265 145.693 823.863C144.499 823.032 144.447 822.928 145.329 821.993C146.784 820.383 149.329 819.032 152.083 818.461C155.252 817.785 158.005 818.357 161.589 820.435L163.927 821.785Z" fill="white"/>
<path d="M344.648 705.581C343.402 710.516 340.544 715.762 336.908 719.71C332.804 724.178 331.974 725.788 331.974 728.957C331.974 731.034 332.44 732.281 334.987 736.645C341.012 747.086 342.83 752.8 343.246 762.878C343.454 767.605 343.298 770.67 342.675 774.046C341.687 779.605 339.714 785.89 338.986 785.682C338.675 785.63 337.739 783.553 336.856 781.112C331.87 767.241 320.442 750.048 308.806 738.982C296.338 727.086 281.794 719.398 269.014 717.892C267.092 717.685 265.742 717.217 265.171 716.593C264.287 715.658 264.339 715.606 266.676 715.606C278.002 715.606 296.754 724.541 309.74 736.125C319.766 745.112 328.752 757.112 334.311 768.956C335.558 771.605 336.7 773.786 336.856 773.786C337.012 773.786 337.064 773.474 336.908 773.112C336.804 772.8 336.234 770.566 335.662 768.177C332.908 757.372 325.895 742.67 318.935 733.217C316.078 729.321 315.507 727.45 316.39 724.749C316.908 723.19 317.896 722.256 322.207 719.45C325.012 717.581 327.246 715.918 327.143 715.762C326.987 715.658 325.532 715.918 323.87 716.438C321.584 717.061 319.558 717.217 315.143 717.061C308.286 716.749 304.65 715.658 291.195 709.737C281.118 705.321 272.703 702.464 266.884 701.581C261.846 700.75 246.938 701.217 242.054 702.308C228.08 705.477 219.51 712.749 217.224 723.294C216.496 726.724 216.496 733.788 217.224 736.905C217.951 740.073 220.03 744.073 222.003 746.152C225.223 749.58 230.73 752.541 235.094 753.268L237.171 753.58L234.314 751.969C225.691 747.086 221.224 738.464 222.419 728.957C223.614 719.294 229.847 713.009 239.768 711.452C244.028 710.776 247.196 711.088 252.184 712.594C255.3 713.581 256.339 714.256 259.612 717.321C264.131 721.581 266.624 726.152 267.56 731.71C270.468 749.06 252.859 763.034 234.107 758.202C228.704 756.852 225.327 754.93 221.587 751.19C217.899 747.554 215.978 744.125 214.575 738.878C213.172 733.84 213.432 724.385 215.094 718.984C218.886 706.828 227.716 698.257 240.028 694.984C244.859 693.685 260.703 693.685 267.456 694.984C278.312 697.114 290.104 701.321 300.546 706.828C308.026 710.776 311.507 711.658 318.207 711.296C325.74 710.932 333.428 708.126 340.908 703.088C342.519 701.945 344.076 701.061 344.336 701.061C345.323 701.061 345.427 702.62 344.648 705.581ZM105.591 821.837C107.98 823.188 111.15 824.85 112.604 825.629C115.202 826.928 116.084 827.81 114.786 827.81C114.214 827.81 105.331 822.772 102.734 820.954C100.084 819.084 101.331 819.5 105.591 821.837ZM107.41 837.473C111.824 839.654 115.564 841.785 115.72 842.148C116.292 843.758 115.41 843.654 111.876 841.889C104.864 838.356 97.0202 833.369 87.4096 826.253C86.5269 825.577 85.8509 824.954 85.9549 824.85C86.0069 824.746 89.1242 826.668 92.7602 829.057C96.3962 831.5 102.994 835.292 107.41 837.473ZM119.876 815.188C119.72 815.292 119.098 815.136 118.474 814.824C117.851 814.513 117.487 814.097 117.591 813.941C117.747 813.837 118.37 813.993 118.994 814.305C119.616 814.617 119.98 815.032 119.876 815.188ZM294.052 735.71C293.482 737.061 291.715 741.684 290.104 745.996C286.78 754.826 282.624 764.644 278.054 774.566C277.014 776.817 275.975 779.068 274.936 781.318C271.47 789.286 267.212 797.961 261.97 807.052C257.422 814.936 252.783 822.008 248.288 828.278L242.262 836.745C216.132 873.316 186.679 900.744 152.239 920.64C123.824 937.054 91.0976 946.457 70.3709 944.17C60.3456 943.08 51.3589 940.482 44.2429 936.586C33.4895 930.717 23.9829 920.484 17.8016 908.068C14.5816 901.574 12.9709 895.549 12.0349 886.25C11.1522 877.628 11.6202 869.16 13.5415 860.381C17.3855 842.668 28.2949 829.525 43.7749 824.07C46.0082 823.292 55.5669 820.434 64.9695 817.681C86.2669 811.552 92.5522 809.474 102.526 805.162C121.591 797.006 136.707 786.981 151.148 773.008C165.174 759.397 175.251 745.476 184.706 726.568C190.056 715.918 192.964 708.802 196.912 696.906C204.912 672.802 210.263 643.193 212.496 610.674C212.808 606.26 213.12 601.584 213.224 600.286C213.328 598.988 213.328 604.857 213.224 613.272C212.86 646.985 208.964 672.284 200.29 698.257C186.575 739.086 162.784 771.969 132.239 792.228C116.032 802.981 101.227 809.837 68.8135 821.629C48.8135 828.902 41.5416 831.914 36.7616 835.084C31.8789 838.304 30.8922 839.446 27.3602 846.148C22.0615 856.07 20.3989 862.562 19.9309 874.354L19.6202 882.25L22.1656 885.368C23.5682 887.081 24.9189 888.432 25.1776 888.38C25.4376 888.329 26.1655 885.938 26.8402 883.082C27.4642 880.277 28.1389 877.368 28.2949 876.641C28.5549 875.601 28.1389 874.666 26.0615 871.965C24.6589 870.096 23.6202 868.485 23.7749 868.329C23.9309 868.173 24.3989 868.537 24.8669 869.16C25.3856 869.732 26.4762 871.134 27.3602 872.225L28.9695 874.2L30.6322 869.056C31.5669 866.252 32.5549 863.654 32.8655 863.394C33.3855 862.822 33.2815 863.758 31.7229 871.654L30.8402 876.277L32.6589 878.406C36.1909 882.51 39.2029 885.472 39.7749 885.472C40.1389 885.472 40.6055 883.341 40.9695 880.121C41.3335 877.212 41.7482 874.354 41.9042 873.732C42.1122 872.953 41.1256 871.394 37.8536 867.498C33.8536 862.77 27.7229 854.304 28.2429 854.304C28.3989 854.304 30.1135 856.329 32.0869 858.822C36.1909 864.017 41.4896 869.888 42.1122 869.888C42.3202 869.888 42.8922 868.069 43.3589 865.836L44.1389 861.836L43.9309 866.874L43.7229 871.913L48.1376 875.965C50.5282 878.198 52.7615 880.069 52.9695 880.173C53.5402 880.381 53.9042 878.044 54.3722 871.809L54.6829 867.29L50.3722 862.718C45.6962 857.888 41.0735 852.329 37.4895 847.29C35.1002 843.914 36.1909 845.005 41.8522 851.706C43.8269 854.044 48.0349 858.408 51.1509 861.42C57.0215 866.978 66.3189 874.406 66.8389 873.94C66.9949 873.784 67.3069 870.978 67.5136 867.758L67.8775 861.836L61.0735 855.29C54.8389 849.265 47.2029 840.901 46.0602 838.824C45.8002 838.356 48.4495 841.005 52.0349 844.641C55.5669 848.33 60.8135 853.265 63.6709 855.602C68.8135 859.81 80.2415 867.809 81.1242 867.809C81.3842 867.809 81.6442 865.628 81.6962 862.978C81.7469 857.369 81.7469 857.317 82.2669 856.589C82.4749 856.225 81.4882 855.134 79.7735 853.836C72.8122 848.589 63.6696 840.382 60.0856 836.174C57.7482 833.473 58.5269 834.097 64.7616 839.862C68.9682 843.706 77.0202 849.888 82.1109 853.109C87.3055 856.381 93.5909 860.017 94.1109 860.017C94.3709 860.017 94.5789 857.524 94.5789 854.512C94.5789 851.498 94.7856 849.161 95.0456 849.317C95.2536 849.473 95.6695 852.174 95.8775 855.342L96.2402 861.057L98.3709 862.2C102.059 864.069 108.76 866.822 109.019 866.562C109.123 866.408 109.071 863.81 108.864 860.797L108.5 855.29L104.552 853.265C93.7469 847.706 83.4615 840.538 73.7482 831.758C70.0602 828.434 71.4109 829.213 76.9162 833.525C82.2669 837.733 89.2282 842.46 94.8375 845.577C100.5 848.797 107.41 852.226 108.136 852.226C108.604 852.226 108.656 850.72 108.5 846.772C108.136 840.486 108.864 839.396 109.383 845.317C110.111 853.265 110.111 853.265 113.019 854.408C114.474 854.978 117.591 856.122 119.98 857.005C122.63 857.94 125.175 859.238 126.474 860.329C129.175 862.666 134.784 865.316 139.512 866.562C142.576 867.394 144.863 867.498 153.694 867.446C159.511 867.394 165.952 867.55 167.979 867.809C170.888 868.173 171.875 868.121 172.498 867.55C172.914 867.186 174.368 866.718 175.719 866.51C178.004 866.148 178.212 866.2 178.212 867.186C178.212 867.809 178.42 868.381 178.627 868.537C178.835 868.641 181.328 868.953 184.082 869.16L189.172 869.524L188.81 866.408L188.498 863.238L190.471 862.614C191.614 862.252 194.679 860.901 197.38 859.654C200.03 858.46 202.523 857.421 202.939 857.421C203.302 857.421 203.822 857.109 204.03 856.745C204.446 856.07 209.016 852.745 209.536 852.745C209.691 852.745 210.055 853.784 210.367 855.082C210.991 857.524 211.094 857.576 214.055 857.472C215.458 857.421 216.288 856.901 217.899 855.186L219.874 853.005L215.822 852.641C213.536 852.485 211.562 852.433 211.302 852.589C211.094 852.693 210.938 852.589 210.938 852.329C210.938 852.07 213.224 850.096 215.978 847.914C218.782 845.732 221.951 843.238 222.99 842.356L224.912 840.745L225.275 842.616C225.431 843.602 225.795 844.537 226.003 844.693C226.47 845.005 229.691 841.005 229.275 840.59C229.068 840.434 228.132 840.278 227.146 840.278H225.379L231.458 834.148C234.782 830.824 239.56 825.369 242.054 822.045C244.496 818.772 259.055 801.99 268.911 777.682C274.051 765.002 279.196 756.385 284.962 742.152C287.559 735.71 289.948 730.412 290.208 730.308C290.52 730.204 291.715 730.826 292.91 731.658L295.039 733.217L294.052 735.71ZM87.6176 798.617C89.1762 796.176 92.5522 793.942 103.928 787.605C119.824 778.773 128.655 772.384 139.408 761.838C163.2 738.722 181.9 705.373 190.419 670.777C194.783 652.96 196.29 639.349 196.912 611.454C197.38 590.624 197.848 585.585 199.614 582.52C200.238 581.429 200.29 581.689 200.55 585.273C200.86 589.793 201.484 590.884 204.964 592.597C206.107 593.169 207.146 593.741 207.25 593.845C207.978 594.468 206.731 619.194 205.224 633.532C199.147 692.074 180.394 737.061 149.59 766.774C134.214 781.63 115.306 793.266 92.9682 801.63C89.5909 802.877 86.5789 803.916 86.2669 803.916C85.3842 803.916 86.1629 800.85 87.6176 798.617ZM165.07 707.554C162.992 708.49 159.823 709.633 157.954 710.101C153.122 711.348 143.512 711.762 138.732 710.88C136.603 710.464 133.175 710.153 131.096 710.153C127.72 710.153 127.2 710.308 125.383 711.762C120.967 715.294 120.032 720.23 122.734 725.996C126.162 733.321 133.694 738.412 143.668 740.021C145.33 740.281 146.784 740.645 146.94 740.749C147.564 741.372 133.798 756.125 132.551 756.125C130.578 756.125 124.551 751.19 122.318 747.709C120.707 745.216 119.046 740.177 118.214 735.346C117.123 728.957 117.279 718.464 118.526 712.386C122.006 695.504 131.148 679.296 142.058 670.517C152.551 662.102 165.434 658.985 173.796 662.829C177.434 664.492 181.224 667.556 181.64 669.166C182.264 671.66 174.524 694.517 170.056 703.296C168.914 705.581 168.394 705.997 165.07 707.554ZM141.123 728.489C142.94 729.528 144.655 730.1 151.719 732.125C153.226 732.541 153.018 732.593 150.162 732.385C140.603 731.658 134.162 728.645 130.89 723.502C128.084 719.088 129.123 717.737 134.422 718.776C138.992 719.71 153.486 719.71 157.694 718.776C159.407 718.412 162.42 717.529 164.395 716.853C166.368 716.178 168.083 715.71 168.187 715.814C168.291 715.918 167.563 717.425 166.524 719.14C164.862 721.996 164.395 722.412 162.16 723.086C157.226 724.541 151.148 725.529 145.122 725.892C141.538 726.1 138.992 726.464 139.044 726.776C139.096 727.034 140.031 727.814 141.123 728.489ZM105.02 762.15C101.175 755.449 98.6816 746.722 97.7469 736.905C96.8122 727.346 97.4869 713.996 99.2535 705.113C101.123 696.022 105.487 685.218 110.838 676.646C118.37 664.544 129.435 654.154 140.707 648.596C157.538 640.285 176.862 641.012 186.887 650.362L189.744 653.012L188.862 657.842C188.394 660.44 187.874 662.621 187.719 662.621C187.563 662.621 186.16 661.426 184.55 659.972C172.29 648.752 153.174 650.829 135.772 665.374C119.72 678.725 109.019 702.257 109.071 723.814C109.123 743.45 114.422 755.501 125.85 762.202C128.084 763.501 129.902 764.696 129.902 764.8C129.902 765.528 117.279 774.825 116.344 774.825C114.942 774.825 107.462 766.514 105.02 762.15ZM181.796 572.806C177.07 570.988 173.33 567.248 171.927 562.884C171.199 560.754 171.771 555.612 172.862 554.105C174.108 552.39 176.706 551.092 180.238 550.417C183.303 549.846 195.51 549.742 198.575 550.209L200.55 550.573V561.066C200.55 568.858 200.394 571.716 199.874 572.13C199.562 572.39 197.848 573.066 196.186 573.533C192.186 574.728 185.848 574.365 181.796 572.806ZM177.692 517.64C177.692 548.702 177.796 547.3 175.303 547.3C174.68 547.3 174.576 543.145 174.576 519.457C174.576 499.509 174.732 491.354 175.147 490.522C175.771 489.38 176.602 488.601 177.278 488.601C177.536 488.601 177.692 501.692 177.692 517.64ZM204.186 506.73V523.145L202.367 524.912L200.55 526.677V536.34V546.053L195.718 545.846C193.12 545.742 190.627 545.586 190.264 545.482C189.796 545.274 189.64 538.833 189.64 515.561V485.848L193.588 486.16C197.484 486.524 201.484 487.874 203.251 489.484C204.134 490.264 204.186 491.614 204.186 506.73ZM172.966 473.121C174.576 470.004 177.174 467.614 181.174 465.641C184.498 464.03 184.966 463.926 190.419 463.926C197.068 463.978 200.446 465.017 204.134 468.186C207.978 471.458 208.86 473.381 208.86 478.472C208.86 482.42 208.238 485.069 206.991 486.472C206.887 486.574 205.899 486.056 204.808 485.328C201.224 482.99 198.159 482.212 191.199 482.004C184.134 481.744 179.511 482.472 175.563 484.445L173.486 485.536L172.81 483.822C172.446 482.886 171.979 481.744 171.771 481.329C171.199 479.874 171.875 475.25 172.966 473.121ZM209.899 427.616C217.068 424.966 231.716 422.629 248.599 421.538C265.067 420.448 293.948 421.486 307.819 423.668C319.766 425.538 329.272 428.55 330.103 430.681C330.259 431.148 330.415 436.342 330.415 442.213V452.862L328.804 454.369C326.623 456.394 325.896 456.29 327.506 454.161C329.064 452.134 329.168 450.732 328.078 448.602C326.571 445.641 320.598 443.72 307.299 441.849C293.326 439.928 286.832 439.564 267.56 439.564C239.354 439.564 218.055 442.005 207.666 446.473C206.263 447.096 205.016 447.564 204.912 447.564C204.808 447.564 204.704 443.72 204.704 439.096C204.704 429.278 204.498 429.642 209.899 427.616ZM227.82 129.368C224.6 129.576 222.315 129.99 220.652 130.718L218.211 131.809V318.581V420.862L216.03 421.434C214.834 421.746 213.691 421.953 213.536 421.85C213.38 421.748 213.328 375.565 213.38 319.204C213.484 241.284 213.691 132.069 214.159 131.497C215.25 130.146 218.523 128.848 222.834 127.965C228.652 126.77 240.236 127.03 242.262 128.381L243.664 129.264V315.828V417.798L238.522 418.109C235.716 418.317 232.704 418.629 231.768 418.785L230.159 419.097V317.541V131.393L231.302 130.25L232.496 129.16L227.82 129.368ZM264.079 126.354C261.171 126.51 258.002 126.978 256.963 127.393L255.092 128.173V314.788V416.914H253.535H251.976V314.685V127.861L253.119 126.822C254.988 125.056 258.47 124.433 266.002 124.381C273.482 124.381 278.572 125.264 281.066 127.134L282.364 128.069L282.52 314.788L282.624 416.914H274.832H267.04V314.633V127.809L268.183 126.978C269.326 126.146 269.118 126.094 264.079 126.354ZM304.91 127.705C300.754 127.705 295.975 128.848 294.468 130.146C293.586 130.926 293.534 221.389 293.534 316.554C293.534 372.137 293.43 417.694 293.326 417.85C293.17 417.954 292.598 417.902 292.027 417.694L290.936 417.382V316.14C290.936 220.921 290.988 130.302 291.819 129.472C293.43 127.861 296.91 126.718 301.792 126.146C309.324 125.316 316.338 126.562 319.714 129.368L321.584 130.874V318.788C321.584 417.018 321.532 422.161 320.65 421.902C318.207 421.174 315.247 420.604 311.714 420.032C309.584 419.72 307.299 419.357 306.624 419.201L305.48 418.993V317.022C305.48 236.193 305.636 130.354 306.104 129.68C306.468 129.264 307.247 128.641 307.819 128.329C308.65 127.861 308.078 127.757 304.91 127.705ZM204.704 106.926L207.302 105.628C214.99 101.732 233.899 98.8223 255.612 98.1476C286.52 97.2649 314.415 99.9663 326.519 105.057C330.571 106.77 330.415 106.304 330.415 118.666V129.732L328.804 131.601C326.727 133.938 326.103 133.938 327.35 131.497C327.87 130.406 328.338 129.108 328.338 128.588C328.338 126.094 325.74 123.394 321.844 121.784C317.272 119.861 304.027 117.888 288.443 116.745C278.78 116.069 247.664 116.381 238.99 117.264C224.34 118.77 212.964 121.004 207.874 123.29C206.367 124.017 205.016 124.589 204.912 124.589C204.808 124.589 204.704 120.641 204.704 115.758V106.926ZM213.484 22.7729C213.691 20.5916 215.25 18.7743 217.639 17.7343C222.315 15.7609 235.768 15.9169 239.872 18.0463C243.924 20.0716 243.664 17.3716 243.664 58.097C243.664 82.9276 243.508 94.4596 243.146 94.4596C242.002 94.4596 232.444 95.5503 231.302 95.7583L230.159 96.0183L230.211 59.8117C230.211 39.8637 230.418 23.137 230.574 22.6183C230.782 22.0983 231.664 21.2676 232.496 20.6956L234.055 19.657H229.847C224.704 19.657 220.704 20.7476 219.302 22.6183C218.211 23.917 218.211 24.4356 218.211 60.7463C218.211 80.953 218.055 97.629 217.795 97.7837C217.587 97.8877 216.548 98.1476 215.458 98.3556L213.536 98.7196L213.432 61.681C213.328 41.2663 213.38 23.7609 213.484 22.7729ZM252.495 14.8769C253.586 10.9809 257.534 9.57965 267.56 9.57965C275.663 9.52765 279.144 10.4103 281.326 12.9556L282.624 14.5663V54.253V93.9397H279.871C278.416 93.9397 274.884 93.7836 272.079 93.577L267.04 93.2649V54.565V15.917L268.963 14.0983L270.936 12.2796L266.262 12.5396C260.599 12.8516 257.95 13.5783 256.339 15.3449L255.092 16.6956V55.2916V93.9397H253.898C253.223 93.9397 252.495 93.785 252.339 93.577C251.716 93.005 251.924 17.0076 252.495 14.8769ZM294.832 18.0463C300.13 15.7089 312.858 15.761 317.74 18.1503C321.792 20.073 321.584 17.5783 321.584 60.4343C321.584 90.0436 321.428 98.6156 320.96 98.6156C320.598 98.6156 318.104 98.1476 315.351 97.629C312.65 97.057 309.376 96.433 308.078 96.1743L305.74 95.7583V59.1876V22.6689L307.559 21.1116L309.376 19.553L304.182 19.761C298.312 20.021 295.247 21.1636 294.156 23.553C293.638 24.6436 293.534 33.2143 293.534 59.5516C293.586 82.5116 293.43 94.2516 293.066 94.6156C292.702 94.9796 292.287 94.9276 291.715 94.4596C291.04 93.8889 290.936 89.681 290.936 58.253C290.936 17.9423 290.728 19.8649 294.832 18.0463ZM297.274 450.992C295.247 451.564 294.416 452.082 294.052 453.017C293.792 453.745 293.586 467.146 293.586 484.445C293.586 501.016 293.43 514.834 293.274 515.093C293.066 515.457 292.598 515.457 291.923 515.093C290.988 514.574 290.936 513.692 290.936 483.51C290.936 448.602 290.676 450.94 294.936 449.277C296.962 448.498 298.883 448.342 305.222 448.342C312.078 448.394 313.376 448.498 315.922 449.537C317.584 450.213 319.507 451.304 320.234 452.082L321.584 453.433V486.524V519.613L317.532 518.73C315.351 518.21 311.767 517.484 309.636 517.068L305.74 516.392L305.584 484.341C305.48 452.81 305.48 452.238 306.52 451.2C307.091 450.628 307.559 450.005 307.559 449.849C307.559 449.329 300.286 450.161 297.274 450.992ZM264.651 448.81C261.171 448.966 258.158 449.329 257.015 449.849L255.092 450.628V482.576V514.574H253.898C253.223 514.574 252.495 514.418 252.339 514.21C252.132 514.054 251.976 499.458 251.976 481.796C251.976 445.953 251.664 448.654 255.768 447.46C259.3 446.473 274.314 446.732 278.728 447.926L282.364 448.862L282.52 481.692L282.624 514.574H276.807C273.586 514.574 270.054 514.418 268.963 514.262L267.04 513.898V482.576V451.252L268.703 449.953L270.416 448.602L264.651 448.81ZM213.328 486.264L213.432 453.225L214.627 451.926C216.392 450.057 220.34 449.07 227.354 448.758C233.951 448.446 239.56 449.122 242.21 450.473L243.664 451.252V483.146V515.041L241.431 515.301C240.236 515.457 237.587 515.717 235.612 515.873C233.587 516.081 231.562 516.34 231.042 516.444C230.211 516.704 230.159 514.938 230.159 484.549V452.342L231.562 451.252L233.015 450.213H230.678C226.73 450.213 220.704 451.148 219.406 451.978L218.211 452.758V485.64V518.47L215.874 519.041C214.575 519.353 213.484 519.509 213.38 519.457C213.328 519.405 213.328 504.445 213.328 486.264ZM330.415 535.82C330.415 541.846 330.259 543.664 329.584 544.6C328.494 546.157 327.714 546.053 328.13 544.392C328.856 541.43 324.856 539.508 313.948 537.482C299.455 534.885 289.482 534.106 268.079 534.106C238.055 534.054 218.419 536.496 205.588 541.846C204.756 542.209 204.704 541.69 204.704 535.249C204.704 527.353 204.704 527.405 208.964 525.534C218.886 521.276 240.859 518.73 267.56 518.73C293.948 518.73 314.363 521.12 325.896 525.482C330.415 527.197 330.415 527.197 330.415 535.82ZM319.507 549.794C319.507 544.754 319.662 543.56 320.286 543.353C322.155 542.625 322.623 544.08 322.623 550.469C322.623 556.598 322.623 556.65 321.428 556.65C320.754 556.65 320.026 556.494 319.87 556.286C319.662 556.132 319.507 553.17 319.507 549.794ZM313.792 541.846H315.091L315.247 548.444L315.403 555.092H314.104C312.806 555.092 312.806 555.092 312.598 549.222C312.39 541.43 312.338 541.846 313.792 541.846ZM305.48 546.989V540.548H306.779H308.078V547.3C308.078 553.949 307.974 554.365 306.312 553.742C305.636 553.482 305.48 552.392 305.48 546.989ZM298.208 545.898C298.208 539.249 298.312 538.989 300.494 539.82C301.17 540.08 301.326 541.17 301.326 546.573C301.326 552.962 301.326 553.014 300.13 553.014C299.455 553.014 298.728 552.858 298.572 552.65C298.364 552.494 298.208 549.43 298.208 545.898ZM291.455 552.494V545.69C291.455 538.937 291.455 538.937 292.598 539.093C293.74 539.249 293.792 539.457 293.948 545.846L294.104 552.494H292.754H291.455ZM284.287 545.118L284.443 538.729H285.742H287.04L287.195 545.118C287.299 550.417 287.195 551.508 286.52 551.768C286.104 551.924 285.378 551.924 284.962 551.768C284.287 551.508 284.183 550.417 284.287 545.118ZM276.91 551.456V545.014C276.91 541.222 277.118 538.417 277.43 538.209C277.742 538.054 278.416 538.054 278.988 538.209C279.975 538.521 280.027 538.989 280.027 545.014V551.456H278.468H276.91ZM270.158 551.456V544.704V537.95H271.456H272.755V544.704V551.456H271.456H270.158ZM262.884 551.508V544.754V537.95H264.183C265.638 537.95 265.534 537.43 265.638 546.365L265.69 551.196L264.287 551.352L262.884 551.508ZM255.612 551.456V545.326C255.612 538.885 255.924 537.742 257.482 538.054C258.366 538.209 258.47 538.833 258.626 544.858L258.78 551.456H257.171H255.612ZM248.859 545.274V538.469H250.158H251.508L251.352 545.066C251.196 551.508 251.144 551.716 250.002 551.872C248.859 552.028 248.859 552.028 248.859 545.274ZM241.587 545.482V538.989H243.146H244.703V545.482C244.703 552.288 244.444 553.118 242.366 552.288C241.743 552.08 241.587 550.781 241.587 545.482ZM234.834 539.872C234.834 539.664 235.406 539.508 236.132 539.508H237.431V546.002C237.431 551.3 237.275 552.598 236.652 552.806C236.236 553.014 235.562 553.014 235.198 552.858C234.626 552.65 234.522 549.066 234.834 539.872ZM227.562 547.353C227.562 543.56 227.768 540.548 228.028 540.548C228.288 540.548 228.86 540.392 229.327 540.236C230.055 539.976 230.159 540.756 230.159 546.729C230.159 550.521 229.951 553.534 229.691 553.534C229.431 553.534 228.86 553.689 228.392 553.845C227.666 554.105 227.562 553.326 227.562 547.353ZM220.392 548.444L220.548 541.846L221.951 541.69L223.406 541.534V547.976C223.406 554.729 223.302 555.092 221.016 555.092C220.392 555.092 220.288 553.949 220.392 548.444ZM213.328 546.365C213.639 543.405 213.743 543.145 214.886 543.145H216.132V549.586C216.132 555.716 216.082 556.08 215.042 556.39C214.367 556.598 213.743 556.494 213.536 556.132C213.016 555.3 212.912 550.261 213.328 546.365ZM330.415 575.818C330.415 585.481 330.363 586.208 329.324 587.506C328.442 588.649 324.856 590.936 324.026 590.936C323.87 590.936 324.856 589.897 326.155 588.598C328.286 586.468 328.442 586.105 328.182 584.39C327.35 579.3 321.532 577.066 303.143 574.884C277.378 571.768 247.3 572.13 224.444 575.87C212.808 577.793 209.795 578.832 207.614 581.741C206.263 583.612 206.211 586.832 207.51 588.286C208.912 589.845 207.562 589.689 206.003 588.078C204.704 586.832 204.704 586.78 204.704 576.182V565.585L206.263 564.234C208.756 562.157 217.743 559.612 227.666 558.209C263.404 553.066 318.311 556.39 328.7 564.234L330.415 565.533V575.818ZM170.68 830.928C170.68 836.226 169.59 839.032 166.264 842.356C162.888 845.732 159.044 847.29 154.316 847.29C150.888 847.238 150.006 847.032 147.148 845.473C143.252 843.446 140.707 840.59 139.304 836.953C138.058 833.681 137.954 829.421 139.044 825.733C140.135 821.993 145.07 816.954 148.811 815.708C152.031 814.617 157.07 814.565 160.187 815.656C163.355 816.694 167.199 820.226 169.122 823.76C170.472 826.201 170.68 827.032 170.68 830.928ZM271.196 644.44C270.624 644.44 264.079 646.778 255.352 650.102C247.456 653.116 244.911 653.842 246.054 652.804C247.042 651.817 272.651 637.532 280.806 633.376C286.988 630.258 286.988 629.896 280.754 631.505C272.963 633.584 272.807 633.532 273.066 630.778C273.742 624.856 272.547 626.154 283.663 619.142C285.222 618.156 286.052 617.48 285.482 617.584C284.235 617.896 272.443 621.532 266.884 623.298C264.703 624.025 262.884 624.493 262.884 624.441C262.884 624.337 265.326 622.362 268.391 620.025C271.404 617.688 274.054 615.298 274.312 614.674C275.04 612.909 276.443 586.105 275.819 585.481C275.508 585.169 270.468 585.013 262.47 585.065C251.924 585.117 248.236 585.377 241.847 586.364L234.055 587.558L233.743 608.857C233.535 620.597 233.119 632.701 232.808 635.869C230.522 658.05 227.198 675.452 222.159 692.23C219.51 701.165 218.782 702.88 216.652 705.945C213.172 711.088 210.835 717.269 209.64 724.697C209.276 726.776 203.666 738.048 199.406 745.216C186.16 767.501 170.836 785.214 151.46 800.746C138.11 811.396 132.136 817.785 128.915 824.694C123.876 835.448 124.967 845.265 131.876 851.966C135.824 855.758 138.578 857.005 135.772 853.68C134.318 852.07 135.148 850.512 138.266 848.849L141.227 847.342L144.551 849.057C153.33 853.473 162.94 851.966 169.434 845.109C173.33 840.953 174.732 837.473 174.939 831.5L175.095 826.616L181.018 821.837C188.03 816.226 193.172 811.76 198.211 806.929C200.964 804.228 201.692 803.292 201.12 802.929C200.756 802.669 196.654 801.734 192.03 800.798C187.459 799.916 183.303 798.929 182.887 798.669C182.056 798.149 190.783 798.409 203.666 799.293C207.51 799.552 211.51 799.76 212.496 799.708C214.159 799.708 214.055 799.604 211.302 798.721C209.64 798.201 208.134 797.63 207.978 797.474C207.77 797.318 208.082 796.696 208.6 796.124C209.172 795.5 209.38 794.877 209.068 794.617C208.808 794.357 205.848 793.682 202.471 793.006C199.147 792.384 196.394 791.656 196.394 791.449C196.394 790.981 199.458 790.669 213.795 789.63C226.159 788.748 229.119 788.384 229.119 787.812C229.119 787.605 227.562 787.241 225.587 787.085C217.276 786.306 217.068 786.254 217.795 785.214C218.159 784.696 220.236 781.838 222.367 778.929C224.548 775.969 227.768 771.189 229.639 768.332C231.458 765.476 233.171 762.982 233.431 762.826C233.691 762.618 234.73 762.67 235.82 762.93C238.73 763.605 245.067 763.449 249.015 762.618C259.716 760.385 268.391 752.437 271.404 742.152C273.014 736.593 272.443 729.113 269.898 723.19C269.482 722.308 269.638 722.256 271.508 722.568C274.728 723.19 280.547 725.009 280.547 725.477C280.547 726.1 274.106 741.892 271.508 747.709C249.794 795.916 217.12 833.213 180.81 851.238C166.628 858.252 153.278 861.68 144.395 860.537C132.655 859.082 124.759 852.174 122.63 841.577C120.707 831.862 124.967 820.382 134.888 808.59C138.37 804.488 142.94 800.176 151.2 793.266C158.628 787.085 172.083 773.372 178.316 765.58C184.238 758.15 191.874 746.93 196.342 739.138C200.134 732.437 207.25 717.477 210.055 710.412C222.834 677.79 229.639 637.842 229.639 595.766V585.793L231.094 585.013C233.379 583.818 238.159 582.728 245.223 581.793C254.054 580.598 278.106 580.546 287.092 581.741C293.534 582.572 302.052 584.39 303.351 585.169C303.923 585.533 304.078 587.04 303.975 592.338C303.715 612.753 300.494 642.258 295.871 667.868C293.948 678.309 290 695.92 289.482 696.438C289.274 696.646 286.052 695.764 282.364 694.569C278.624 693.322 272.807 691.764 269.378 691.14C265.95 690.465 263.04 689.893 262.936 689.841C262.832 689.737 263.508 686.725 264.391 683.036C266.47 674.309 268.235 665.322 269.846 655.089C270.572 650.518 271.3 646.258 271.404 645.582C271.508 644.96 271.404 644.44 271.196 644.44ZM315.299 642.102C313.896 653.168 312.598 661.426 310.364 673.01C308.806 681.322 304.806 699.504 304.182 701.425C304.026 701.893 303.455 701.789 302.052 700.958C300.65 700.126 300.234 699.608 300.442 698.776C300.598 698.153 302 693.114 303.663 687.556C308.338 671.401 312.078 655.089 315.299 636.908C316.65 629.324 316.65 631.817 315.299 642.102ZM336.648 695.868C331.818 699.036 326.727 701.373 322.467 702.36C319.091 703.14 313.168 703.4 312.546 702.776C312.338 702.568 331.175 649.697 333.39 604.814C334.995 572.296 335.794 521.921 335.662 521.846C335.09 521.586 334.467 521.068 334.311 520.808C334.103 520.496 333.064 519.821 331.922 519.249L329.895 518.21V491.51C329.895 476.809 330.051 464.446 330.207 463.978C330.363 463.51 330.779 463.148 331.039 463.148C332.338 463.148 336.648 459.304 337.635 457.277C338.623 455.2 338.727 454.109 338.727 442.473C338.727 428.758 338.519 427.46 335.714 424.552C334.935 423.72 333.324 422.473 332.078 421.746L329.895 420.448V322.944V140.9L332.596 139.133C334.051 138.146 336.026 136.432 336.856 135.341L338.467 133.316L338.623 120.277C338.727 112.017 338.623 106.512 338.259 105.317C337.584 103.082 334.727 100.018 331.974 98.6156L329.895 97.577L329.791 58.461L329.636 19.3449L328.286 16.7996C325.792 11.865 320.442 9.11164 311.455 8.12498C305.17 7.44898 298.104 8.07299 293.274 9.73565C290.416 10.7223 290.104 10.7223 289.638 9.94228C288.235 7.60494 285.378 5.00763 282.936 3.81296C275.456 0.176964 259.82 0.0209561 252.287 3.60496C249.742 4.79962 246.626 7.44893 245.223 9.68227L244.444 10.8263L241.743 9.78627C234.159 6.87827 219.146 7.39697 212.6 10.7743C210.055 12.073 207.043 15.2409 205.899 17.8383C205.016 19.7609 204.964 22.669 204.808 58.721L204.652 97.473L202.055 99.1863C200.602 100.07 198.835 101.68 198.055 102.668L196.654 104.485L196.498 118.51L196.342 132.484L197.692 134.77C198.575 136.277 200.134 137.782 201.9 138.925L204.704 140.744V322.84V420.448L201.692 422.473C196.498 426.057 196.394 426.369 196.394 441.953V455.356H191.043C182.316 455.356 176.238 457.589 170.576 462.836C163.563 469.329 161.33 478.938 164.966 486.886L166.264 489.744V518.989V548.236L164.862 551.248C163.563 553.949 163.407 554.937 163.407 559.508C163.407 564.286 163.563 564.962 165.07 568.234C168.914 576.286 178.991 582.624 187.978 582.624H190.316L189.952 584.806C189.068 590.676 188.654 597.844 188.602 608.025C188.602 617.428 187.719 639.193 187.303 639.661C187.251 639.713 185.692 639.089 183.874 638.258C178.316 635.765 174.887 635.038 166.784 634.726C155.044 634.31 147.044 636.025 136.343 641.376C126.006 646.518 114.682 656.492 106.89 667.349C102.319 673.79 96.2922 685.737 93.6949 693.789C90.2149 704.438 89.2282 711.554 89.1762 726.256C89.1762 739.762 89.6949 744.333 92.2402 753.268C94.2149 760.073 98.5269 768.644 102.371 773.164C104.136 775.293 105.487 777.06 105.383 777.164C105.279 777.266 101.695 779.241 97.4349 781.578C83.6695 789.11 79.4615 793.11 77.9549 800.124L77.3842 802.669L74.1629 803.552C72.3975 804.02 64.6055 806.045 56.9175 808.072C33.4375 814.097 30.8922 815.188 23.5162 822.253C10.6842 834.72 3.25622 848.537 0.814886 864.693C-1.10645 877.108 0.398894 891.393 5.02289 905.938C8.39889 916.38 13.9576 924.846 23.5682 934.093C44.8656 954.612 73.8002 960.897 107.098 952.222C133.954 945.262 168.966 925.782 197.172 902.198C204.652 895.913 225.743 874.406 232.132 866.614C235.354 862.668 240.028 856.641 242.522 853.265C243.262 852.248 243.972 851.293 244.612 850.448C244.427 850.285 252.308 839.41 256.602 831.896C267.451 814.868 271.631 807.512 281.292 786.501C283.268 782.776 287.72 771.742 288.323 770.976C288.69 770.088 289.1 769.102 289.534 768.073C291.091 764.489 293.948 757.268 295.871 751.969C297.844 746.67 299.507 742.256 299.611 742.152C299.975 741.684 307.715 749.736 311.87 754.826C319.766 764.592 325.636 774.774 329.376 785.06C331.818 791.708 332.544 792.852 335.246 794.098C338.103 795.397 340.078 795.345 342.882 793.89C344.804 792.954 345.479 792.176 346.882 789.37C350.311 782.462 352.024 772.54 351.558 762.098C351.142 751.502 348.44 742.722 342.83 733.425C341.427 731.086 340.284 728.957 340.284 728.697C340.284 728.489 341.116 727.45 342.155 726.464C346.934 721.892 351.402 713.737 353.012 706.776C354.155 701.529 353.739 698.984 351.298 696.282L351.043 696C350.542 695.385 349.299 694.028 347.195 693.298C344.704 692.434 342.563 692.989 341.832 693.214C340.452 693.662 338.564 694.618 336.648 695.868Z" fill="white"/>
<path d="M327.09 538.469C327.246 538.469 327.246 536.184 327.194 533.431L327.038 528.392L323.973 527.197C320.649 525.847 319.87 525.951 321.324 527.56C321.896 528.184 322.364 529.691 322.52 531.405C322.726 533.899 322.622 534.261 321.324 535.248L319.974 536.34L322.208 536.911C323.454 537.223 324.961 537.691 325.636 537.949C326.312 538.261 326.934 538.469 327.09 538.469Z" fill="white"/>
<path d="M320.805 117.524C321.377 117.108 321.948 116.797 322.156 116.797C322.416 116.797 322.52 114.822 322.468 112.433C322.364 109.005 322.104 107.81 321.377 106.978C320.805 106.356 320.493 105.784 320.597 105.68C320.857 105.42 326.312 107.29 326.83 107.81C327.142 108.121 327.558 119.342 327.35 121.68C327.298 121.94 326.778 121.68 326.104 121.056C325.428 120.433 323.766 119.549 322.364 119.082C320.078 118.25 319.922 118.148 320.805 117.524Z" fill="white"/>
<path d="M320.493 440.81C321.428 440.602 321.948 439.979 322.26 438.733C322.934 436.135 322.364 431.045 321.272 429.85C320.129 428.602 320.857 428.602 324.389 429.901L327.194 430.993L327.402 437.849C327.506 441.641 327.506 444.758 327.506 444.862C327.454 444.966 326.518 444.498 325.376 443.771C324.285 443.095 322.466 442.213 321.324 441.849C319.402 441.174 319.35 441.122 320.493 440.81Z" fill="white"/>
<path d="M74.7868 930.145C74.9948 930.145 77.2282 931.08 79.7215 932.222C85.9549 935.08 85.5402 936.69 78.6308 936.846C77.1762 936.898 75.7735 936.638 75.6175 936.326C75.3068 935.912 74.8908 933.937 74.3708 930.509C74.3708 930.301 74.5268 930.145 74.7868 930.145Z" fill="white"/>
<path d="M97.0199 918.197C95.9292 918.197 89.3839 915.808 88.8119 915.236C87.9812 914.405 86.8385 905.731 87.5652 905.731C87.6692 905.731 89.7999 906.665 92.1892 907.756L96.5519 909.781L96.9159 912.328C97.0719 913.677 97.3319 915.6 97.4879 916.483C97.6439 917.729 97.5399 918.197 97.0199 918.197Z" fill="white"/>
<path d="M90.1111 927.288C89.3845 924.223 89.2285 921.833 89.7471 921.833C90.0071 921.833 91.9298 922.509 94.0591 923.34C98.3191 925.003 98.5258 925.313 98.6818 930.041C98.7338 932.535 98.9418 932.483 93.2805 930.716C90.7858 929.937 90.6831 929.781 90.1111 927.288Z" fill="white"/>
<path d="M113.019 915.548L113.591 918.82C113.902 920.639 114.006 922.249 113.85 922.457C113.539 922.82 112.343 922.613 106.734 921.055L104.085 920.275L103.565 917.055C103.254 915.236 102.994 913.419 102.942 912.951C102.89 912.224 103.721 912.379 107.929 913.833L113.019 915.548Z" fill="white"/>
<path d="M105.539 928.119C105.487 927.651 105.851 927.547 106.63 927.755C107.306 927.963 108.915 928.379 110.266 928.743C111.668 929.054 112.759 929.522 112.759 929.73C112.759 930.092 107.876 931.703 106.734 931.703C106.163 931.703 105.851 930.768 105.539 928.119Z" fill="white"/>
<path d="M126.681 891.497C126.993 891.705 127.824 899.133 127.564 899.393C127.305 899.653 118.058 897.47 116.916 896.848C116.448 896.64 115.928 895.029 115.565 892.9C114.733 887.965 114.733 887.445 115.461 887.705C115.824 887.861 118.473 888.744 121.33 889.678C124.188 890.666 126.577 891.445 126.681 891.497Z" fill="white"/>
<path d="M129.019 910.25C129.175 911.496 129.123 912.587 128.915 912.691C128.499 912.951 119.512 911.132 119.045 910.666C118.733 910.302 117.591 905.627 117.487 904.016C117.487 903.548 117.695 903.134 117.955 903.134C118.265 903.134 120.707 903.756 123.408 904.535C128.759 906.042 128.551 905.834 129.019 910.25Z" fill="white"/>
<path d="M120.5 918.094C120.656 917.886 122.889 918.302 125.486 918.925C129.954 920.067 130.162 920.171 130.317 921.626C130.421 922.977 130.214 923.237 128.24 924.015C125.85 925.003 123.305 925.21 122.214 924.483C121.434 924.015 120.032 918.666 120.5 918.094Z" fill="white"/>
<path d="M142.941 889.264C142.629 889.576 132.031 887.757 131.513 887.238C131.357 887.082 130.162 881.004 129.954 879.342C129.954 879.03 130.11 878.718 130.422 878.718C130.993 878.718 141.954 881.784 142.11 881.94C142.525 882.458 143.201 888.952 142.941 889.264Z" fill="white"/>
<path d="M132.707 893.264C133.642 893.264 143.668 895.913 143.979 896.225C144.187 896.484 144.499 897.99 144.707 899.705L145.07 902.718L142.524 902.354C141.174 902.198 138.628 901.73 136.915 901.42L133.798 900.796L133.175 897.938C132.551 894.77 132.395 893.264 132.707 893.264Z" fill="white"/>
<path d="M135.149 908.38C135.097 907.86 135.513 907.757 136.655 908.016C137.538 908.172 139.823 908.588 141.746 908.9C143.667 909.262 145.538 909.782 145.85 910.042C146.577 910.561 146.785 914.873 146.109 915.289C145.694 915.548 136.759 914.353 136.447 913.99C136.239 913.73 135.253 909.366 135.149 908.38Z" fill="white"/>
<path d="M158.265 891.705C157.538 891.705 155.199 891.445 153.07 891.133L149.122 890.562L148.81 888.639C148.654 887.601 148.343 886.198 148.083 885.471C147.459 883.653 147.459 883.393 148.187 883.393C148.499 883.393 150.889 883.809 153.434 884.277C158.473 885.263 158.525 885.263 159.199 889.471C159.511 891.601 159.459 891.705 158.265 891.705Z" fill="white"/>
<path d="M151.408 901.003C150.525 897.782 150.577 897.419 151.564 897.471C152.082 897.471 154.265 897.782 156.394 898.146C160.602 898.822 160.914 899.132 161.018 902.976L161.07 904.639L158.057 904.327C152.55 903.808 152.082 903.6 151.408 901.003Z" fill="white"/>
<path d="M174.472 880.588C173.952 880.9 164.187 879.914 163.719 879.498C163.252 878.978 162.264 873.316 162.576 872.9C162.732 872.692 164.499 872.9 166.524 873.264C168.499 873.627 170.992 874.095 171.979 874.251C173.745 874.563 173.848 874.667 174.368 877.471C174.628 879.03 174.732 880.432 174.472 880.588Z" fill="white"/>
<path d="M166.42 892.121C165.9 891.705 165.59 890.458 165.33 887.394C165.278 886.874 165.59 886.51 166.108 886.51C166.628 886.562 169.018 886.874 171.459 887.186C176.238 887.913 176.394 888.069 176.602 892.173L176.654 893.367L171.823 893.003C169.226 892.795 166.784 892.381 166.42 892.121Z" fill="white"/>
<path d="M181.589 881.056L180.966 878.718C180.186 875.705 180.342 875.289 182.161 875.549C182.991 875.653 185.173 875.861 187.043 876.069L190.367 876.381L190.835 878.666C191.095 879.913 191.095 881.108 190.835 881.316C190.627 881.524 188.446 881.524 186.005 881.368L181.589 881.056Z" fill="white"/>
<path d="M793.576 895.757C793.888 889.679 793.94 886.51 793.68 886.51C793.524 886.51 791.187 888.173 788.485 890.146L783.551 893.834V899.549V905.315L786.148 903.809C787.551 902.977 789.784 901.574 791.031 900.691C793.316 899.081 793.368 898.977 793.576 895.757Z" fill="white"/>
<path d="M660.697 553.274L660.853 558.573C661.061 564.183 660.125 568.91 658.62 570.157C657.061 571.455 657.788 571.819 660.853 571.455C666.826 570.727 671.346 568.13 674.1 563.923C675.398 561.897 675.553 561.222 675.346 558.781C675.19 556.546 674.878 555.715 673.788 554.781C672.177 553.378 669.32 552.91 664.333 553.118L660.697 553.274Z" fill="white"/>
<path d="M783.291 910.146L783.135 915.185C783.083 917.99 783.135 920.275 783.343 920.275C783.499 920.275 785.472 919.341 787.707 918.146L791.809 916.015L792.121 913.107C792.277 911.497 792.485 909.678 792.589 909.107C792.693 908.535 792.797 907.081 792.849 905.834L792.901 903.601L788.121 906.874L783.291 910.146Z" fill="white"/>
<path d="M780.485 886.874C780.641 884.225 780.797 881.575 780.849 880.901C780.901 880.277 780.745 879.758 780.537 879.758C780.329 879.758 777.888 881.211 775.135 882.978C772.381 884.797 769.732 886.51 769.213 886.822C768.433 887.29 768.227 888.225 768.071 892.641C767.915 896.587 768.019 897.938 768.485 897.938C769.161 897.938 778.771 892.951 779.655 892.121C779.915 891.861 780.277 889.523 780.485 886.874Z" fill="white"/>
<path d="M769.629 902.146C768.226 902.925 768.122 903.185 767.758 907.497C767.603 909.99 767.551 912.223 767.706 912.483C767.966 912.899 777.473 908.847 778.303 908.015C778.667 907.705 779.81 897.315 779.55 896.795C779.446 896.639 777.525 897.575 775.291 898.874C773.005 900.225 770.459 901.678 769.629 902.146Z" fill="white"/>
<path d="M797.108 889.471C797.264 892.693 797.524 895.497 797.731 895.653C798.043 896.017 805.056 890.718 806.303 889.211C806.978 888.329 807.238 875.342 806.511 874.874C806.303 874.77 804.018 876.693 801.472 879.134L796.796 883.653L797.108 889.471Z" fill="white"/>
<path d="M522.883 571.507L523.039 566.261L526.311 565.118C529.377 564.027 530.363 564.131 528.805 565.43C527.87 566.209 527.299 569.17 527.714 571.403C527.922 572.494 528.494 573.378 529.169 573.689C529.793 574.001 530.207 574.261 530.051 574.313C529.897 574.313 528.182 574.883 526.259 575.559L522.727 576.754L522.883 571.507Z" fill="white"/>
<path d="M810.614 895.393C810.874 898.925 811.238 901.886 811.341 902.042C811.861 902.509 820.952 893.056 820.952 892.017C820.952 891.393 820.692 888.328 820.38 885.212C820.017 882.042 819.601 879.341 819.393 879.082C819.237 878.874 817.056 881.004 814.562 883.861L810.094 889.004L810.614 895.393Z" fill="white"/>
<path d="M825.367 893.523C825.991 899.965 826.25 901.263 826.77 900.329C828.068 898.042 830.666 883.342 829.575 884.485C829.471 884.589 828.38 885.991 827.186 887.55C825.107 890.354 825.055 890.458 825.367 893.523Z" fill="white"/>
<path d="M659.139 468.186C660.853 470.627 660.957 475.302 659.399 477.329C658.827 478.055 658.36 478.731 658.36 478.887C658.36 478.991 660.073 479.25 662.152 479.406C664.177 479.614 667.865 480.238 670.255 480.861C673.84 481.743 674.671 481.847 675.035 481.277C675.865 479.926 675.501 476.394 674.255 473.745C672.956 470.939 671.295 469.485 667.605 467.822C665.268 466.783 659.035 465.589 658.308 466.057C658.1 466.159 658.464 467.147 659.139 468.186Z" fill="white"/>
<path d="M815.913 900.9C812.277 904.744 811.134 906.25 811.342 907.029C811.446 907.601 811.601 910.354 811.601 913.108C811.601 916.328 811.809 918.198 812.121 918.198C812.433 918.198 814.51 916.64 816.796 914.769C820.848 911.393 820.9 911.289 821.108 908.64C821.472 903.549 821.472 895.861 821.108 895.861C820.952 895.861 818.614 898.146 815.913 900.9Z" fill="white"/>
<path d="M797.576 916.795V922.198C797.576 928.379 797.316 928.223 801.94 925.262L804.744 923.445L805.056 920.171C805.212 918.354 805.472 916.171 805.524 915.341C805.888 912.431 805.888 910.926 805.576 910.926C805.368 910.926 803.497 912.225 801.42 913.834L797.576 916.795Z" fill="white"/>
<path d="M806.459 900.38C806.615 897.16 806.771 894.147 806.823 893.627C806.875 893.16 806.667 892.744 806.355 892.744C806.043 892.744 803.965 894.407 801.68 896.484L797.576 900.224V906.095C797.576 909.315 797.784 911.964 797.992 911.964C798.355 911.964 804.433 907.756 805.628 906.665C805.939 906.405 806.303 903.601 806.459 900.38Z" fill="white"/>
<path d="M764.486 889.627C764.226 889.627 761.889 890.77 759.187 892.12L754.305 894.614L754.045 899.392C753.941 902.042 753.941 904.172 754.045 904.172C754.565 904.12 762.927 900.536 763.291 900.172C763.551 899.964 763.966 897.887 764.226 895.6C764.902 889.939 764.902 889.627 764.486 889.627Z" fill="white"/>
<path d="M748.538 896.848C748.226 897.056 745.889 898.042 743.396 898.977C740.902 899.913 738.721 900.848 738.617 901.108C738.461 901.316 738.201 903.289 737.993 905.522C737.681 909.314 737.733 909.522 738.669 909.158C739.188 908.952 741.525 908.172 743.76 907.497C746.045 906.821 748.018 906.146 748.122 905.99C748.278 905.834 748.694 904.016 749.006 901.99C749.837 897.056 749.837 897.108 749.421 896.744C749.266 896.536 748.85 896.588 748.538 896.848Z" fill="white"/>
<path d="M766.928 923.496V927.496L771.758 925.521L776.538 923.6L777.109 919.444C777.837 914.353 777.888 913.523 777.577 913.523C776.901 913.523 767.654 918.405 767.344 918.925C767.136 919.236 766.928 921.315 766.928 923.496Z" fill="white"/>
<path d="M692.904 875.809C692.54 879.133 692.592 879.341 693.476 879.081C694.046 878.926 696.332 878.51 698.618 878.146C700.904 877.834 703.033 877.316 703.293 877.056C704.021 876.381 705.474 868.848 704.904 868.848C703.968 868.848 693.942 871.497 693.632 871.809C693.424 872.069 693.112 873.834 692.904 875.809Z" fill="white"/>
<path d="M650.308 869.783L653.944 869.627L654.568 867.29C655.138 864.953 655.19 864.121 654.724 864.069C653.321 863.81 645.061 864.901 644.749 865.367C644.542 865.731 644.334 866.77 644.334 867.654C644.334 869.731 645.165 869.991 650.308 869.783Z" fill="white"/>
<path d="M782.771 926.301L782.407 930.405C782.251 932.69 782.199 934.716 782.303 934.924C782.459 935.132 784.226 934.509 786.303 933.573L790.043 931.912L790.615 927.496C791.394 921.833 791.394 921.314 790.979 921.366C790.719 921.366 788.796 922.457 786.667 923.808L782.771 926.301Z" fill="white"/>
<path d="M709.579 876.121C710.877 876.121 720.176 873.68 720.592 873.264C720.955 872.952 722.097 866.926 722.201 864.797C722.253 864.069 721.993 863.654 721.631 863.758C721.267 863.862 718.461 864.745 715.397 865.732C709.215 867.706 709.631 867.186 708.956 873.108C708.644 875.809 708.748 876.121 709.579 876.121Z" fill="white"/>
<path d="M725.578 871.965C726.409 871.965 737.474 868.329 737.941 867.861C738.305 867.549 739.189 861.212 739.343 857.888L739.395 856.537L733.578 859.031C730.357 860.433 727.449 861.576 727.137 861.576C725.942 861.576 725.474 862.979 725.214 867.395C725.058 870.719 725.11 871.965 725.578 871.965Z" fill="white"/>
<path d="M737.11 761.891C735.447 765.267 734.565 767.554 734.981 767.554C735.967 767.554 740.59 762.359 742.357 759.242C744.746 755.034 747.083 747.918 748.226 741.372C749.681 733.164 749.681 732.438 749.473 722.36C749.318 715.191 749.006 712.075 748.019 707.555C745.577 696.491 741.63 687.348 734.929 677.426C732.85 674.258 729.838 670.31 728.227 668.595L725.37 665.479L728.747 670.778C748.434 701.686 751.343 733.216 737.11 761.891Z" fill="white"/>
<path d="M739.24 894.925C739.5 895.393 749.161 892.016 749.993 891.185C750.304 890.873 750.824 888.848 751.136 886.613C751.967 881.056 751.967 880.64 751.24 880.952C748.955 881.835 740.123 885.627 739.915 885.835C739.604 886.147 738.928 894.457 739.24 894.925Z" fill="white"/>
<path d="M782.979 877.835L783.343 883.602C783.55 886.77 783.758 889.471 783.862 889.575C783.966 889.679 786.251 888.173 788.952 886.302L793.939 882.822V875.862C793.939 872.017 793.835 868.849 793.784 868.849C793.68 868.849 793.004 869.369 792.33 869.939C791.654 870.563 789.264 872.589 787.031 874.459L782.979 877.835Z" fill="white"/>
<path d="M736.435 872.64C735.915 872.796 733.059 873.835 730.046 874.926L724.591 876.9L724.175 881.263C723.916 883.652 723.864 885.679 723.968 885.835C724.123 885.939 726.876 885.263 730.15 884.328L736.019 882.614L736.591 879.238C737.526 873.939 737.474 872.328 736.435 872.64Z" fill="white"/>
<path d="M764.538 884.952C765.006 884.484 765.525 882.355 765.785 879.497C766.461 872.952 766.461 872.9 765.941 873.108C765.733 873.16 763.187 874.563 760.33 876.121L755.083 878.979L754.877 883.913C754.721 886.615 754.773 889.004 754.927 889.16C755.343 889.627 763.499 885.991 764.538 884.952Z" fill="white"/>
<path d="M768.486 871.498V877.16C768.486 880.588 768.694 882.874 769.006 882.874C769.264 882.874 772.07 881.367 775.187 879.498L780.9 876.12L781.108 873.108C781.472 866.979 781.472 862.615 781.056 862.615C780.798 862.615 779.239 863.706 777.524 865.004C775.862 866.355 773.108 868.328 771.499 869.472L768.486 871.498Z" fill="white"/>
<path d="M755.343 874.666C755.551 875.082 763.187 871.446 765.473 869.784C766.771 868.9 766.875 868.485 767.083 864.797C767.135 862.614 767.291 859.81 767.343 858.562C767.395 857.368 767.291 856.381 767.135 856.381C766.979 856.381 764.33 857.94 761.213 859.861L755.603 863.394L755.395 868.849C755.239 871.861 755.239 874.458 755.343 874.666Z" fill="white"/>
<path d="M740.747 872.225C740.123 876.277 740.072 880.796 740.643 880.796C741.577 880.796 751.032 877.108 751.759 876.433C752.695 875.549 753.941 864.381 753.057 864.797C742.253 869.888 740.955 870.667 740.747 872.225Z" fill="white"/>
<path d="M619.192 736.957C618.153 739.97 616.387 741.995 613.529 743.658C605.323 748.385 595.296 742.307 595.4 732.697C595.452 723.866 605.011 718.153 613.011 722.101C618.517 724.853 621.219 731.346 619.192 736.957ZM608.491 716.75C601.375 716.334 595.92 719.502 592.803 725.841C591.4 728.749 591.141 729.839 591.141 732.957C591.141 739.45 594.517 744.905 600.284 747.814C606.205 750.722 613.529 749.735 618.465 745.269C622.568 741.579 624.179 737.581 623.867 731.918C623.712 729.529 623.244 727.45 622.517 726.047C619.608 720.334 614.776 717.113 608.491 716.75Z" fill="white"/>
<path d="M589.79 106.303C589.79 109.525 589.218 110.771 587.401 111.758C586.206 112.381 587.401 112.537 597.634 112.797C612.906 113.213 626.724 114.978 635.918 117.627C638.256 118.303 640.438 118.874 640.698 118.874C641.009 118.874 641.217 116.745 641.217 113.679C641.217 108.901 641.113 108.433 640.074 107.758C635.762 104.953 611.92 101.265 592.908 100.434L585.374 100.07L587.193 101.213C589.582 102.771 589.79 103.082 589.79 106.303Z" fill="white"/>
<path d="M600.439 725.477C600.283 725.685 600.751 726.049 601.478 726.203C605.998 727.347 605.998 738.671 601.478 739.814C599.815 740.23 600.283 740.905 602.985 742.151C606.673 743.814 610.102 743.346 613.53 740.749C615.399 739.346 615.711 738.463 614.413 738.463C613.997 738.463 613.27 737.581 612.802 736.541C611.763 733.943 612.127 730.047 613.686 727.97L614.881 726.359L613.426 725.217C611.867 723.918 608.855 722.879 606.725 722.879C605.374 722.879 600.907 724.698 600.439 725.477Z" fill="white"/>
<path d="M686.151 821.785L687.97 822.149C692.592 823.136 694.567 830.876 691.606 836.693C690.463 838.824 689.216 839.759 687.398 839.759C686.307 839.759 686.307 839.811 687.606 840.797C689.787 842.512 692.436 843.395 695.502 843.395C698.826 843.395 701.267 842.512 704.124 840.227L706.202 838.564L704.644 837.629C703.658 837.005 702.93 836.019 702.566 834.72C701.371 830.408 702.203 825.265 704.384 823.863C705.579 823.032 705.631 822.928 704.748 821.993C703.294 820.383 700.748 819.032 697.995 818.461C694.826 817.785 692.072 818.357 688.488 820.435L686.151 821.785Z" fill="white"/>
<path d="M505.741 701.061C506.001 701.061 507.56 701.944 509.169 703.087C516.65 708.127 524.338 710.931 531.87 711.295C538.572 711.659 542.052 710.775 549.532 706.828C559.973 701.321 571.765 697.113 582.622 694.984C589.374 693.685 605.218 693.685 610.049 694.984C622.361 698.256 631.192 706.828 634.984 718.983C636.646 724.385 636.906 733.84 635.504 738.879C634.101 744.125 632.178 747.553 628.49 751.189C624.75 754.929 621.373 756.852 615.972 758.203C597.218 763.033 579.609 749.06 582.518 731.709C583.453 726.152 585.946 721.58 590.465 717.32C593.738 714.256 594.777 713.58 597.894 712.593C602.881 711.087 606.049 710.775 610.309 711.451C620.23 713.009 626.465 719.295 627.66 728.956C628.854 738.463 624.386 747.085 615.764 751.969L612.906 753.579L614.984 753.268C619.348 752.54 624.854 749.579 628.074 746.151C630.049 744.073 632.126 740.073 632.854 736.904C633.581 733.788 633.581 726.723 632.854 723.295C630.568 712.749 621.997 705.477 608.024 702.308C603.141 701.217 588.232 700.749 583.193 701.581C577.376 702.464 568.96 705.321 558.882 709.736C545.428 715.659 541.792 716.749 534.934 717.061C530.52 717.216 528.493 717.061 526.208 716.437C524.546 715.917 523.09 715.659 522.936 715.763C522.832 715.917 525.065 717.58 527.87 719.451C532.182 722.256 533.169 723.191 533.688 724.749C534.572 727.451 534 729.32 531.142 733.216C524.182 742.671 517.169 757.371 514.416 768.176C513.845 770.565 513.273 772.799 513.169 773.111C513.013 773.475 513.065 773.787 513.221 773.787C513.377 773.787 514.52 771.604 515.766 768.955C521.325 757.112 530.312 745.112 540.337 736.125C553.324 724.541 572.077 715.607 583.401 715.607C585.738 715.607 585.79 715.659 584.908 716.593C584.336 717.216 582.985 717.684 581.064 717.892C568.285 719.399 553.74 727.087 541.272 738.983C529.637 750.047 518.208 767.241 513.221 781.111C512.338 783.552 511.404 785.631 511.092 785.681C510.364 785.889 508.39 779.604 507.404 774.047C506.78 770.669 506.624 767.604 506.832 762.877C507.248 752.8 509.065 747.085 515.092 736.644C517.637 732.281 518.104 731.035 518.104 728.956C518.104 725.788 517.273 724.177 513.169 719.711C509.533 715.763 506.676 710.516 505.429 705.581C504.65 702.62 504.754 701.061 505.741 701.061ZM747.344 820.953C744.746 822.772 735.864 827.811 735.292 827.811C733.993 827.811 734.877 826.928 737.474 825.629C738.929 824.849 742.097 823.187 744.486 821.837C748.746 819.499 749.993 819.084 747.344 820.953ZM757.317 829.057C760.953 826.668 764.07 824.745 764.122 824.849C764.226 824.953 763.55 825.577 762.668 826.252C753.058 833.369 745.214 838.356 738.201 841.888C734.669 843.655 733.786 843.759 734.357 842.148C734.513 841.784 738.253 839.655 742.669 837.472C747.084 835.291 753.681 831.499 757.317 829.057ZM731.085 814.304C731.708 813.993 732.332 813.837 732.488 813.941C732.59 814.097 732.228 814.512 731.604 814.824C730.981 815.136 730.357 815.292 730.201 815.188C730.097 815.032 730.461 814.616 731.085 814.304ZM555.038 733.216L557.168 731.657C558.362 730.827 559.557 730.203 559.869 730.307C560.129 730.411 562.518 735.709 565.116 742.151C570.882 756.384 576.026 765.001 581.168 777.683C591.022 801.991 605.582 818.772 608.024 822.044C610.517 825.369 615.296 830.824 618.621 834.148L624.698 840.277H622.932C621.945 840.277 621.01 840.433 620.802 840.589C620.386 841.005 623.608 845.005 624.074 844.693C624.282 844.537 624.646 843.603 624.802 842.615L625.165 840.745L627.088 842.356C628.126 843.239 631.296 845.732 634.101 847.913C636.853 850.096 639.14 852.069 639.14 852.329C639.14 852.589 638.984 852.693 638.776 852.589C638.516 852.433 636.542 852.485 634.256 852.641L630.205 853.004L632.178 855.187C633.789 856.9 634.62 857.42 636.022 857.472C638.984 857.576 639.088 857.524 639.71 855.083C640.022 853.784 640.386 852.745 640.542 852.745C641.061 852.745 645.633 856.069 646.048 856.745C646.256 857.108 646.776 857.42 647.14 857.42C647.554 857.42 650.048 858.459 652.697 859.653C655.398 860.9 658.464 862.251 659.606 862.615L661.58 863.239L661.269 866.407L660.905 869.524L665.996 869.16C668.749 868.952 671.242 868.64 671.45 868.536C671.658 868.381 671.865 867.809 671.865 867.187C671.865 866.199 672.073 866.147 674.36 866.511C675.709 866.719 677.164 867.187 677.58 867.549C678.204 868.121 679.19 868.173 682.098 867.809C684.125 867.549 690.566 867.393 696.384 867.445C705.216 867.497 707.501 867.393 710.566 866.563C715.293 865.316 720.902 862.667 723.604 860.329C724.902 859.239 727.448 857.94 730.097 857.004C732.488 856.121 735.604 854.979 737.058 854.407C739.968 853.264 739.968 853.264 740.694 845.316C741.214 839.395 741.941 840.485 741.577 846.771C741.422 850.719 741.474 852.225 741.941 852.225C742.669 852.225 749.577 848.797 755.24 845.576C760.849 842.46 767.81 837.732 773.161 833.525C778.668 829.213 780.018 828.433 776.33 831.759C766.616 840.537 756.33 847.707 745.525 853.264L741.577 855.291L741.214 860.796C741.006 863.809 740.954 866.407 741.058 866.563C741.318 866.823 748.018 864.069 751.708 862.199L753.837 861.056L754.201 855.343C754.408 852.173 754.824 849.472 755.032 849.316C755.292 849.16 755.5 851.499 755.5 854.511C755.5 857.524 755.706 860.017 755.966 860.017C756.486 860.017 762.772 856.381 767.966 853.108C773.057 849.888 781.109 843.707 785.317 839.863C791.55 834.096 792.329 833.473 789.992 836.173C786.408 840.381 777.265 848.589 770.304 853.836C768.589 855.135 767.602 856.225 767.81 856.589C768.33 857.316 768.33 857.368 768.382 862.979C768.434 865.628 768.693 867.809 768.953 867.809C769.837 867.809 781.265 859.809 786.408 855.601C789.264 853.264 794.51 848.329 798.044 844.641C801.628 841.005 804.277 838.356 804.017 838.823C802.874 840.901 795.238 849.264 789.005 855.291L782.2 861.836L782.564 867.757C782.77 870.979 783.082 873.783 783.238 873.939C783.758 874.407 793.057 866.979 798.926 861.42C802.044 858.407 806.25 854.044 808.225 851.705C813.886 845.005 814.978 843.913 812.588 847.291C809.004 852.329 804.381 857.888 799.706 862.719L795.394 867.289L795.706 871.809C796.173 878.043 796.537 880.38 797.109 880.172C797.316 880.068 799.55 878.199 801.94 875.965L806.354 871.913L806.146 866.875L805.94 861.836L806.718 865.836C807.186 868.069 807.757 869.887 807.965 869.887C808.588 869.887 813.886 864.017 817.99 858.823C819.965 856.329 821.678 854.303 821.834 854.303C822.354 854.303 816.225 862.771 812.225 867.497C808.952 871.393 807.965 872.952 808.173 873.731C808.329 874.355 808.744 877.212 809.108 880.12C809.472 883.341 809.94 885.471 810.302 885.471C810.874 885.471 813.886 882.511 817.42 878.407L819.237 876.276L818.354 871.653C816.796 863.757 816.692 862.823 817.212 863.393C817.524 863.653 818.51 866.251 819.445 869.056L821.108 874.199L822.718 872.225C823.601 871.133 824.692 869.732 825.212 869.16C825.678 868.536 826.146 868.173 826.302 868.329C826.458 868.485 825.42 870.095 824.017 871.965C821.938 874.667 821.524 875.601 821.782 876.64C821.938 877.368 822.614 880.276 823.237 883.081C823.913 885.939 824.64 888.328 824.9 888.38C825.16 888.432 826.51 887.081 827.913 885.367L830.458 882.251L830.146 874.355C829.678 862.563 828.017 856.069 822.718 846.148C819.185 839.447 818.198 838.304 813.316 835.083C808.537 831.915 801.264 828.901 781.265 821.629C748.85 809.837 734.045 802.98 717.838 792.228C687.293 771.968 663.502 739.087 649.789 698.256C641.113 672.283 637.217 646.985 636.853 613.272C636.75 604.856 636.75 598.987 636.853 600.285C636.957 601.584 637.269 606.259 637.581 610.675C639.814 643.193 645.165 672.803 653.165 696.905C657.113 708.801 660.022 715.919 665.372 726.567C674.826 745.476 684.904 759.397 698.929 773.007C713.37 786.981 728.488 797.007 747.552 805.161C757.525 809.473 763.81 811.551 785.109 817.681C794.51 820.435 804.069 823.291 806.302 824.071C821.782 829.525 832.692 842.667 836.536 860.381C838.457 869.16 838.925 877.627 838.042 886.251C837.108 895.549 835.497 901.575 832.276 908.068C826.094 920.483 816.588 930.716 805.836 936.587C798.718 940.483 789.732 943.08 779.706 944.171C758.98 946.456 726.253 937.053 697.838 920.639C663.398 900.743 633.945 873.316 607.816 836.745L601.79 828.279C597.294 822.007 592.656 814.936 588.109 807.051C582.866 797.96 578.609 789.287 575.141 781.319C574.102 779.068 573.064 776.816 572.025 774.565C567.453 764.644 563.297 754.825 559.973 745.995C558.362 741.684 556.597 737.06 556.025 735.709L555.038 733.216ZM763.81 803.915C763.498 803.915 760.486 802.876 757.109 801.629C734.773 793.267 715.864 781.631 700.488 766.773C669.684 737.06 650.932 692.075 644.853 633.531C643.346 619.193 642.1 594.468 642.828 593.844C642.932 593.74 643.97 593.169 645.113 592.597C648.593 590.883 649.217 589.792 649.529 585.273C649.789 581.688 649.84 581.429 650.464 582.52C652.23 585.584 652.697 590.624 653.165 611.453C653.788 639.349 655.294 652.959 659.658 670.776C668.177 705.373 686.878 738.723 710.669 761.839C721.422 772.384 730.253 778.773 746.149 787.604C757.525 793.941 760.902 796.175 762.46 798.617C763.914 800.851 764.694 803.915 763.81 803.915ZM680.021 703.295C675.553 694.516 667.814 671.66 668.437 669.167C668.853 667.556 672.645 664.491 676.281 662.829C684.644 658.985 697.526 662.101 708.02 670.517C718.929 679.296 728.072 695.503 731.552 712.385C732.798 718.464 732.954 728.956 731.864 735.345C731.033 740.176 729.37 745.216 727.76 747.709C725.526 751.189 719.5 756.124 717.526 756.124C716.28 756.124 702.514 741.372 703.137 740.748C703.293 740.644 704.748 740.281 706.41 740.021C716.384 738.411 723.916 733.32 727.344 725.996C730.045 720.229 729.11 715.295 724.694 711.763C722.877 710.308 722.357 710.152 718.981 710.152C716.904 710.152 713.474 710.464 711.345 710.879C706.566 711.763 696.956 711.347 692.125 710.1C690.254 709.632 687.086 708.489 685.008 707.555C681.684 705.996 681.164 705.581 680.021 703.295ZM711.033 726.775C711.085 726.463 708.54 726.1 704.956 725.892C698.929 725.528 692.852 724.541 687.917 723.087C685.684 722.412 685.216 721.996 683.553 719.139C682.514 717.424 681.788 715.919 681.892 715.815C681.996 715.711 683.709 716.177 685.684 716.853C687.657 717.528 690.67 718.412 692.385 718.775C696.592 719.711 711.085 719.711 715.657 718.775C720.954 717.736 721.994 719.087 719.189 723.503C715.916 728.645 709.474 731.657 699.917 732.385C697.06 732.593 696.852 732.541 698.358 732.125C705.422 730.1 707.137 729.528 708.956 728.489C710.046 727.813 710.981 727.035 711.033 726.775ZM733.734 774.825C732.798 774.825 720.176 765.527 720.176 764.8C720.176 764.696 721.994 763.501 724.228 762.203C735.656 755.501 740.954 743.449 741.006 723.813C741.058 702.256 730.357 678.724 714.305 665.375C696.904 650.829 677.788 648.752 665.528 659.972C663.918 661.427 662.516 662.621 662.36 662.621C662.204 662.621 661.684 660.439 661.217 657.841L660.333 653.011L663.19 650.361C673.216 641.011 692.54 640.284 709.37 648.596C720.644 654.153 731.708 664.543 739.24 676.647C744.59 685.217 748.954 696.023 750.824 705.113C752.59 713.996 753.265 727.347 752.33 736.904C751.396 746.723 748.902 755.449 745.058 762.151C742.617 766.513 735.136 774.825 733.734 774.825ZM653.892 573.533C652.23 573.065 650.516 572.391 650.204 572.131C649.685 571.715 649.529 568.857 649.529 561.065V550.572L651.502 550.209C654.568 549.741 666.774 549.845 669.84 550.417C673.372 551.092 675.969 552.391 677.216 554.105C678.306 555.612 678.878 560.755 678.15 562.884C676.749 567.248 673.008 570.988 668.281 572.805C664.229 574.364 657.892 574.728 653.892 573.533ZM672.801 488.6C673.476 488.6 674.306 489.38 674.93 490.523C675.346 491.353 675.502 499.509 675.502 519.457C675.502 543.144 675.398 547.3 674.774 547.3C672.281 547.3 672.385 548.703 672.385 517.639C672.385 501.691 672.541 488.6 672.801 488.6ZM646.828 489.484C648.593 487.873 652.593 486.523 656.489 486.159L660.437 485.848V515.561C660.437 538.833 660.281 545.275 659.814 545.481C659.45 545.585 656.957 545.741 654.36 545.845L649.529 546.053V536.34V526.677L647.71 524.911L645.893 523.145V506.731C645.893 491.613 645.944 490.263 646.828 489.484ZM678.306 481.328H678.308C678.1 481.744 677.632 482.887 677.268 483.821L676.593 485.536L674.514 484.445C670.566 482.471 665.944 481.744 658.878 482.004C651.918 482.211 648.853 482.991 645.269 485.328C644.178 486.055 643.192 486.575 643.088 486.471C641.841 485.068 641.217 482.419 641.217 478.471C641.217 473.38 642.1 471.459 645.944 468.185C649.633 465.017 653.009 463.977 659.658 463.927C665.113 463.927 665.58 464.031 668.905 465.64C672.905 467.615 675.502 470.004 677.112 473.12C678.204 475.251 678.878 479.873 678.306 481.328ZM645.373 439.096C645.373 443.719 645.269 447.563 645.165 447.563C645.061 447.563 643.814 447.096 642.412 446.472C632.022 442.005 610.725 439.563 582.518 439.563C563.246 439.563 556.753 439.927 542.778 441.849C529.481 443.719 523.506 445.641 522 448.601C520.909 450.732 521.013 452.135 522.572 454.16C524.182 456.289 523.454 456.393 521.273 454.368L519.662 452.861V442.212C519.662 436.343 519.818 431.148 519.974 430.68C520.805 428.551 530.312 425.537 542.26 423.668C556.129 421.485 585.012 420.447 601.478 421.537C618.361 422.629 633.009 424.967 640.178 427.616C645.581 429.641 645.373 429.277 645.373 439.096ZM617.581 129.16L618.776 130.251L619.92 131.393V317.541V419.096L618.309 418.785C617.374 418.628 614.361 418.317 611.556 418.109L606.413 417.797V315.827V129.263L607.816 128.38C609.841 127.029 621.426 126.769 627.244 127.964C631.556 128.848 634.828 130.147 635.918 131.497C636.386 132.068 636.594 241.284 636.698 319.204C636.75 375.565 636.698 421.745 636.542 421.849C636.386 421.953 635.244 421.745 634.049 421.433L631.866 420.863V318.58V131.808L629.425 130.717C627.762 129.991 625.477 129.575 622.257 129.367L617.581 129.16ZM581.894 126.977L583.037 127.809V314.632V416.915H575.245H567.453L567.557 314.788L567.713 128.069L569.012 127.133C571.505 125.264 576.596 124.38 584.076 124.38C591.609 124.432 595.089 125.056 596.958 126.821L598.102 127.861V314.684V416.915H596.544H594.985V314.788V128.172L593.114 127.393C592.076 126.977 588.908 126.511 585.998 126.355C580.96 126.095 580.752 126.147 581.894 126.977ZM542.26 128.328C542.83 128.64 543.61 129.264 543.973 129.679C544.441 130.355 544.597 236.193 544.597 317.021V418.992L543.454 419.2C542.778 419.356 540.493 419.72 538.364 420.032C534.832 420.603 531.87 421.175 529.429 421.901C528.545 422.161 528.493 417.019 528.493 318.788V130.873L530.364 129.368C533.74 126.563 540.753 125.316 548.285 126.147C553.168 126.719 556.649 127.861 558.258 129.471C559.09 130.303 559.142 220.921 559.142 316.139V417.383L558.05 417.693C557.48 417.901 556.908 417.953 556.753 417.849C556.649 417.693 556.545 372.137 556.545 316.555C556.545 221.388 556.493 130.925 555.609 130.147C554.104 128.848 549.324 127.705 545.168 127.705C542 127.757 541.428 127.861 542.26 128.328ZM645.373 115.757C645.373 120.64 645.269 124.588 645.165 124.588C645.061 124.588 643.71 124.017 642.204 123.289C637.113 121.004 625.737 118.771 611.088 117.264C602.413 116.381 571.297 116.069 561.636 116.744C546.052 117.887 532.805 119.861 528.234 121.783C524.338 123.393 521.741 126.095 521.741 128.588C521.741 129.108 522.208 130.407 522.728 131.497C523.974 133.939 523.35 133.939 521.273 131.601L519.662 129.731V118.667C519.662 106.303 519.506 106.771 523.558 105.056C535.662 99.9654 563.557 97.264 594.465 98.148C616.178 98.8227 635.088 101.732 642.776 105.628L645.373 106.927V115.757ZM636.646 61.6814L636.542 98.7187L634.62 98.356C633.529 98.148 632.49 97.888 632.282 97.784C632.022 97.628 631.866 80.9534 631.866 60.7467C631.866 24.4361 631.866 23.916 630.776 22.6173C629.373 20.748 625.373 19.6561 620.23 19.6561H616.024L617.581 20.696C618.413 21.2667 619.296 22.0987 619.504 22.6173C619.66 23.1373 619.868 39.864 619.868 59.8107L619.92 96.0174L618.776 95.7574C617.633 95.5507 608.076 94.46 606.933 94.46C606.569 94.46 606.413 82.9267 606.413 58.0974C606.413 17.3707 606.153 20.072 610.205 18.0467C614.309 15.916 627.762 15.76 632.438 17.7347C634.828 18.7733 636.386 20.592 636.594 22.7733C636.698 23.76 636.75 41.2667 636.646 61.6814ZM597.738 93.576C597.582 93.784 596.854 93.94 596.18 93.94H594.985V55.292V16.696L593.738 15.3453C592.128 13.5787 589.478 12.852 583.817 12.54L579.141 12.28L581.116 14.0987L583.037 15.916V54.564V93.2641L577.998 93.576C575.193 93.784 571.661 93.94 570.206 93.94H567.453V54.2534V14.5653L568.752 12.9546C570.933 10.4093 574.414 9.52667 582.518 9.57867C592.544 9.57867 596.492 10.9813 597.582 14.8773C598.153 17.0067 598.361 93.004 597.738 93.576ZM559.142 58.252C559.142 89.68 559.038 93.888 558.362 94.46C557.792 94.9267 557.376 94.9787 557.012 94.6147C556.649 94.2521 556.493 82.5121 556.545 59.5521C556.545 33.2147 556.441 24.6441 555.921 23.5521C554.83 21.1627 551.765 20.02 545.896 19.76L540.701 19.5521L542.518 21.1106L544.337 22.6693V59.188V95.7574L542 96.1734C540.701 96.4334 537.429 97.0573 534.728 97.628C531.974 98.148 529.481 98.6147 529.117 98.6147C528.649 98.6147 528.493 90.044 528.493 60.4347C528.493 17.5787 528.286 20.072 532.337 18.1507C537.221 15.76 549.948 15.7094 555.246 18.0467C559.35 19.864 559.142 17.9427 559.142 58.252ZM542.518 449.849C542.518 450.004 542.986 450.628 543.558 451.199C544.597 452.239 544.597 452.809 544.493 484.341L544.337 516.392L540.441 517.067C538.312 517.483 534.728 518.211 532.545 518.729L528.493 519.613V486.523V453.433L529.844 452.083C530.572 451.303 532.493 450.212 534.156 449.537C536.701 448.497 538 448.395 544.857 448.343C551.194 448.343 553.116 448.497 555.142 449.277C559.401 450.94 559.142 448.601 559.142 483.509C559.142 513.691 559.09 514.573 558.154 515.093C557.48 515.457 557.012 515.457 556.804 515.093C556.649 514.833 556.493 501.016 556.493 484.445C556.493 467.147 556.285 453.744 556.025 453.017C555.661 452.083 554.83 451.563 552.804 450.992C549.792 450.16 542.518 449.329 542.518 449.849ZM579.661 448.601L581.374 449.952L583.037 451.251V482.575V513.899L581.116 514.263C580.025 514.417 576.492 514.573 573.272 514.573H567.453L567.557 481.692L567.713 448.861L571.349 447.927C575.765 446.732 590.777 446.472 594.309 447.459C598.413 448.653 598.102 445.952 598.102 481.796C598.102 499.457 597.946 514.055 597.738 514.211C597.582 514.417 596.854 514.573 596.18 514.573H594.985V482.575V450.628L593.062 449.849C591.92 449.329 588.908 448.965 585.426 448.809L579.661 448.601ZM636.698 519.457C636.594 519.509 635.504 519.353 634.205 519.041L631.866 518.469V485.64V452.757L630.672 451.979C629.373 451.148 623.348 450.212 619.4 450.212H617.062L618.517 451.251L619.92 452.343V484.549C619.92 514.937 619.868 516.704 619.036 516.444C618.517 516.34 616.49 516.08 614.465 515.872C612.49 515.717 609.841 515.457 608.646 515.301L606.413 515.041V483.147V451.251L607.868 450.472C610.517 449.121 616.128 448.447 622.725 448.757C629.737 449.069 633.685 450.056 635.452 451.927L636.646 453.225L636.75 486.263C636.75 504.444 636.75 519.405 636.698 519.457ZM524.182 525.483C535.714 521.119 556.129 518.729 582.518 518.729C609.218 518.729 631.192 521.275 641.113 525.535C645.373 527.404 645.373 527.352 645.373 535.248C645.373 541.689 645.321 542.209 644.49 541.845C631.66 536.495 612.024 534.053 581.998 534.105C560.596 534.105 550.622 534.885 536.129 537.483C525.221 539.508 521.221 541.431 521.949 544.391C522.364 546.053 521.585 546.157 520.494 544.599C519.818 543.664 519.662 541.845 519.662 535.82C519.662 527.197 519.662 527.197 524.182 525.483ZM530.208 556.287C530.052 556.495 529.325 556.651 528.649 556.651C527.454 556.651 527.454 556.599 527.454 550.469C527.454 544.079 527.922 542.625 529.792 543.352C530.416 543.56 530.572 544.755 530.572 549.793C530.572 553.169 530.416 556.131 530.208 556.287ZM537.48 549.223C537.273 555.092 537.273 555.092 535.974 555.092H534.676L534.832 548.443L534.986 541.845H536.285C537.74 541.845 537.688 541.431 537.48 549.223ZM543.766 553.741C542.104 554.365 542 553.949 542 547.3V540.547H543.298H544.597V546.988C544.597 552.391 544.441 553.481 543.766 553.741ZM551.505 552.651C551.35 552.859 550.622 553.015 549.948 553.015C548.753 553.015 548.753 552.963 548.753 546.573C548.753 541.171 548.908 540.08 549.584 539.82C551.765 538.988 551.869 539.248 551.869 545.897C551.869 549.429 551.713 552.495 551.505 552.651ZM557.324 552.495H555.973L556.129 545.845C556.285 539.456 556.337 539.248 557.48 539.092C558.622 538.936 558.622 538.936 558.622 545.689V552.495H557.324ZM565.116 551.768C564.7 551.923 563.973 551.923 563.557 551.768C562.882 551.508 562.778 550.417 562.882 545.119L563.038 538.729H564.337H565.636L565.79 545.119C565.894 550.417 565.79 551.508 565.116 551.768ZM571.609 551.456H570.05V545.015C570.05 538.988 570.102 538.521 571.089 538.209C571.661 538.053 572.336 538.053 572.648 538.209C572.96 538.417 573.168 541.223 573.168 545.015V551.456H571.609ZM578.622 551.456H577.324V544.703V537.949H578.622H579.921V544.703V551.456H578.622ZM585.79 551.352L584.388 551.196L584.44 546.365C584.544 537.431 584.44 537.949 585.894 537.949H587.193V544.755V551.508L585.79 551.352ZM592.908 551.456H591.297L591.453 544.859C591.609 538.833 591.712 538.209 592.596 538.053C594.154 537.741 594.465 538.885 594.465 545.327V551.456H592.908ZM600.076 551.871C598.933 551.716 598.881 551.508 598.725 545.067L598.569 538.469H599.92H601.218V545.275C601.218 552.027 601.218 552.027 600.076 551.871ZM607.712 552.287C605.634 553.117 605.374 552.287 605.374 545.481V538.988H606.933H608.49V545.481C608.49 550.78 608.336 552.079 607.712 552.287ZM614.88 552.859C614.517 553.015 613.841 553.015 613.426 552.807C612.802 552.599 612.646 551.3 612.646 546.001V539.508H613.945C614.673 539.508 615.244 539.664 615.244 539.872C615.556 549.067 615.452 552.651 614.88 552.859ZM621.685 553.845C621.218 553.689 620.646 553.533 620.386 553.533C620.126 553.533 619.92 550.521 619.92 546.729C619.92 540.755 620.024 539.976 620.75 540.236C621.218 540.391 621.789 540.547 622.049 540.547C622.309 540.547 622.517 543.56 622.517 547.352C622.517 553.325 622.413 554.105 621.685 553.845ZM629.061 555.092C626.776 555.092 626.672 554.728 626.672 547.975V541.533L628.126 541.689L629.529 541.845L629.685 548.443C629.789 553.949 629.685 555.092 629.061 555.092ZM636.542 556.131C636.334 556.495 635.71 556.599 635.036 556.391C633.997 556.079 633.945 555.716 633.945 549.585V543.144H635.192C636.334 543.144 636.438 543.404 636.75 546.365C637.165 550.261 637.061 555.3 636.542 556.131ZM519.662 565.533L521.377 564.235C531.766 556.391 586.673 553.067 622.413 558.209C632.334 559.612 641.321 562.156 643.814 564.235L645.373 565.585V576.183C645.373 586.78 645.373 586.831 644.074 588.079C642.516 589.688 641.165 589.844 642.568 588.285C643.866 586.831 643.814 583.611 642.464 581.74C640.282 578.832 637.269 577.793 625.633 575.871C602.777 572.131 572.7 571.767 546.934 574.884C528.545 577.065 522.728 579.299 521.896 584.389C521.637 586.104 521.793 586.468 523.922 588.597C525.221 589.896 526.208 590.935 526.052 590.935C525.221 590.935 521.637 588.649 520.753 587.507C519.714 586.208 519.662 585.48 519.662 575.819V565.533ZM680.956 823.759C682.878 820.227 686.722 816.695 689.892 815.655C693.008 814.564 698.046 814.616 701.268 815.707C705.008 816.953 709.942 821.992 711.033 825.732C712.124 829.421 712.02 833.68 710.773 836.953C709.37 840.589 706.825 843.447 702.929 845.472C700.073 847.031 699.189 847.239 695.761 847.291C691.034 847.291 687.19 845.732 683.813 842.356C680.489 839.031 679.398 836.225 679.398 830.928C679.398 827.032 679.605 826.2 680.956 823.759ZM578.673 645.583C578.777 646.259 579.505 650.517 580.232 655.089C581.842 665.323 583.609 674.309 585.686 683.036C586.569 686.724 587.245 689.737 587.141 689.841C587.037 689.893 584.128 690.464 580.7 691.14C577.272 691.763 571.453 693.321 567.713 694.568C564.025 695.763 560.804 696.645 560.596 696.439C560.077 695.919 556.129 678.309 554.206 667.868C549.584 642.259 546.364 612.752 546.104 592.337C546 587.039 546.156 585.533 546.726 585.169C548.025 584.389 556.545 582.572 562.986 581.74C571.973 580.545 596.024 580.597 604.854 581.792C611.92 582.728 616.698 583.819 618.984 585.013L620.438 585.792V595.767C620.438 637.843 627.244 677.789 640.022 710.412C642.828 717.476 649.944 732.437 653.736 739.139C658.204 746.931 665.84 758.151 671.762 765.579C677.996 773.371 691.449 787.084 698.878 793.267C707.137 800.175 711.709 804.487 715.189 808.591C725.11 820.383 729.37 831.863 727.448 841.576C725.318 852.173 717.422 859.083 705.682 860.537C696.8 861.68 683.449 858.251 669.269 851.239C632.958 833.213 600.284 795.916 578.57 747.709C575.973 741.891 569.532 726.1 569.532 725.476C569.532 725.009 575.349 723.191 578.57 722.567C580.44 722.256 580.596 722.308 580.18 723.191C577.634 729.112 577.064 736.592 578.673 742.151C581.686 752.436 590.362 760.384 601.062 762.617C605.01 763.449 611.348 763.605 614.257 762.929C615.348 762.669 616.386 762.617 616.646 762.825C616.906 762.981 618.621 765.475 620.438 768.332C622.309 771.189 625.529 775.968 627.712 778.929C629.841 781.839 631.918 784.695 632.282 785.215C633.009 786.253 632.802 786.305 624.49 787.084C622.517 787.24 620.958 787.604 620.958 787.812C620.958 788.383 623.92 788.747 636.282 789.629C650.62 790.669 653.685 790.98 653.685 791.448C653.685 791.656 650.932 792.383 647.606 793.007C644.23 793.681 641.269 794.357 641.009 794.617C640.698 794.876 640.905 795.5 641.477 796.124C641.997 796.695 642.308 797.319 642.1 797.473C641.945 797.629 640.438 798.201 638.776 798.72C636.022 799.604 635.918 799.708 637.581 799.708C638.568 799.76 642.568 799.552 646.412 799.292C659.294 798.409 668.021 798.149 667.19 798.668C666.774 798.928 662.62 799.916 658.048 800.799C653.425 801.733 649.321 802.668 648.957 802.928C648.386 803.292 649.113 804.227 651.866 806.928C656.905 811.759 662.048 816.227 669.061 821.837L674.982 826.616L675.138 831.499C675.346 837.472 676.749 840.953 680.645 845.109C687.137 851.965 696.748 853.472 705.526 849.057L708.852 847.343L711.812 848.849C714.929 850.511 715.76 852.069 714.305 853.68C711.501 857.004 714.254 855.757 718.202 851.965C725.11 845.264 726.201 835.447 721.162 824.693C717.942 817.785 711.968 811.396 698.618 800.747C679.242 785.215 663.918 767.501 650.672 745.216C646.412 738.047 640.801 726.775 640.438 724.697C639.244 717.269 636.906 711.087 633.425 705.944C631.296 702.88 630.568 701.165 627.918 692.231C622.88 675.452 619.556 658.049 617.27 635.869C616.958 632.7 616.542 620.596 616.334 608.856L616.024 587.559L608.232 586.364C601.842 585.377 598.153 585.117 587.609 585.065C579.609 585.013 574.57 585.169 574.258 585.481C573.634 586.104 575.037 612.908 575.765 614.675C576.025 615.297 578.673 617.688 581.686 620.025C584.752 622.363 587.193 624.336 587.193 624.44C587.193 624.492 585.374 624.025 583.193 623.297C577.634 621.532 565.842 617.895 564.596 617.584C564.025 617.48 564.856 618.155 566.414 619.141C577.53 626.155 576.336 624.856 577.012 630.779C577.272 633.531 577.116 633.583 569.324 631.505C563.09 629.895 563.09 630.259 569.272 633.375C577.428 637.531 603.037 651.816 604.024 652.803C605.166 653.843 602.621 653.115 594.725 650.103C585.998 646.777 579.453 644.44 578.881 644.44C578.673 644.44 578.57 644.96 578.673 645.583ZM534.78 636.908C538 655.089 541.74 671.4 546.414 687.555C548.077 693.113 549.48 698.152 549.636 698.776C549.844 699.607 549.428 700.127 548.025 700.957C546.622 701.788 546.052 701.892 545.896 701.425C545.272 699.503 541.272 681.321 539.714 673.011C537.48 661.427 536.181 653.167 534.78 642.103C533.429 631.817 533.429 629.324 534.78 636.908ZM508.245 693.215C507.514 692.989 505.373 692.433 502.882 693.297C500.778 694.028 499.536 695.385 499.036 696L498.78 696.283C496.338 698.984 495.924 701.529 497.066 706.776C498.676 713.736 503.144 721.892 507.922 726.463C508.962 727.451 509.793 728.489 509.793 728.697C509.793 728.957 508.65 731.087 507.248 733.424C501.637 742.723 498.936 751.501 498.521 762.099C498.053 772.54 499.768 782.461 503.196 789.371C504.598 792.176 505.273 792.955 507.196 793.889C510.001 795.344 511.974 795.396 514.832 794.097C517.533 792.851 518.26 791.708 520.701 785.059C524.442 774.773 530.312 764.592 538.208 754.825C542.364 749.735 550.104 741.684 550.466 742.151C550.57 742.255 552.233 746.671 554.206 751.969C556.129 757.268 558.986 764.488 560.545 768.072C560.977 769.103 561.388 770.087 561.754 770.976C562.357 771.741 566.809 782.776 568.785 786.501C578.448 807.511 582.626 814.868 593.476 831.895C597.77 839.409 605.65 850.285 605.466 850.447C606.106 851.292 606.816 852.248 607.556 853.264C610.049 856.641 614.725 862.667 617.945 866.615C624.334 874.407 645.425 895.912 652.905 902.197C681.112 925.781 716.124 945.261 742.98 952.223C776.278 960.897 805.212 954.612 826.51 934.093C836.12 924.847 841.678 916.38 845.054 905.939C849.678 891.393 851.185 877.108 849.262 864.693C846.821 848.539 839.393 834.72 826.562 822.252C819.185 815.188 816.64 814.097 793.161 808.071C785.472 806.045 777.68 804.019 775.914 803.552L772.693 802.668L772.122 800.123C770.616 793.111 766.408 789.111 752.642 781.579C748.382 779.241 744.798 777.267 744.694 777.163C744.59 777.059 745.941 775.293 747.708 773.163C751.552 768.644 755.862 760.072 757.837 753.268C760.382 744.333 760.902 739.761 760.902 726.256C760.85 711.555 759.862 704.437 756.382 693.789C753.785 685.737 747.76 673.789 743.188 667.348C735.396 656.492 724.072 646.517 713.734 641.375C703.033 636.024 695.033 634.311 683.294 634.725C675.19 635.037 671.762 635.765 666.204 638.259C664.385 639.089 662.826 639.712 662.776 639.66C662.36 639.193 661.476 617.428 661.476 608.025C661.425 597.844 661.009 590.675 660.125 584.805L659.762 582.624H662.1C671.086 582.624 681.164 576.287 685.008 568.235C686.514 564.961 686.67 564.287 686.67 559.508C686.67 554.936 686.514 553.949 685.216 551.248L683.813 548.235V518.989V489.744L685.112 486.887C688.748 478.939 686.514 469.328 679.502 462.835C673.84 457.588 667.762 455.355 659.034 455.355H653.685V441.953C653.685 426.369 653.581 426.057 648.386 422.473L645.373 420.447V322.84V140.744L648.178 138.925C649.944 137.783 651.502 136.276 652.386 134.769L653.736 132.484L653.581 118.511L653.425 104.485L652.022 102.667C651.242 101.68 649.477 100.069 648.022 99.1867L645.425 97.4721L645.269 58.72C645.113 22.6694 645.061 19.76 644.178 17.8387C643.036 15.2413 640.022 12.072 637.477 10.7733C630.932 7.39733 615.92 6.87734 608.336 9.78667L605.634 10.8253L604.854 9.68267C603.452 7.44934 600.336 4.80003 597.79 3.60536C590.258 0.0213589 574.622 0.176033 567.142 3.81337C564.7 5.00803 561.844 7.60535 560.441 9.94268C559.973 10.7213 559.661 10.7213 556.804 9.73467C551.973 8.07201 544.909 7.44933 538.622 8.124C529.637 9.112 524.286 11.864 521.793 16.8L520.442 19.3453L520.286 58.46L520.182 97.576L518.104 98.6147C515.352 100.017 512.494 103.083 511.818 105.316C511.456 106.511 511.352 112.017 511.456 120.276L511.61 133.315L513.221 135.341C514.053 136.432 516.026 138.147 517.481 139.133L520.182 140.9V322.944V420.447L518.001 421.745C516.754 422.473 515.144 423.72 514.364 424.551C511.56 427.46 511.352 428.759 511.352 442.472C511.352 454.108 511.456 455.199 512.442 457.277C513.429 459.303 517.741 463.147 519.04 463.147C519.298 463.147 519.714 463.511 519.87 463.979C520.026 464.445 520.182 476.809 520.182 491.509V518.211L518.156 519.249C517.013 519.82 515.974 520.496 515.766 520.808C515.61 521.067 514.988 521.587 514.416 521.847C514.284 521.921 515.082 572.295 516.688 604.813C518.902 649.697 537.74 702.568 537.532 702.776C536.909 703.399 530.986 703.139 527.61 702.36C523.35 701.373 518.26 699.036 513.429 695.867C511.513 694.617 509.625 693.661 508.245 693.215Z" fill="white"/>
<path d="M522.987 538.469C522.831 538.469 522.831 536.184 522.883 533.431L523.039 528.392L526.105 527.197C529.429 525.847 530.207 525.951 528.753 527.56C528.182 528.184 527.714 529.691 527.558 531.405C527.35 533.899 527.454 534.261 528.753 535.248L530.103 536.34L527.87 536.911C526.623 537.223 525.117 537.691 524.442 537.949C523.766 538.261 523.143 538.469 522.987 538.469Z" fill="white"/>
<path d="M529.273 117.524C528.701 117.108 528.13 116.797 527.922 116.797C527.662 116.797 527.558 114.822 527.61 112.433C527.714 109.005 527.974 107.81 528.701 106.978C529.273 106.356 529.585 105.784 529.481 105.68C529.221 105.42 523.766 107.29 523.247 107.81C522.935 108.121 522.519 119.342 522.727 121.68C522.779 121.94 523.299 121.68 523.974 121.056C524.65 120.433 526.311 119.549 527.714 119.082C529.999 118.25 530.155 118.148 529.273 117.524Z" fill="white"/>
<path d="M529.584 440.81C528.65 440.602 528.13 439.979 527.818 438.733C527.143 436.135 527.714 431.045 528.806 429.85C529.948 428.602 529.22 428.602 525.688 429.901L522.883 430.993L522.675 437.849C522.571 441.641 522.571 444.758 522.571 444.862C522.623 444.966 523.559 444.498 524.702 443.771C525.792 443.095 527.611 442.213 528.754 441.849C530.675 441.174 530.727 441.122 529.584 440.81Z" fill="white"/>
<path d="M775.291 930.145C775.083 930.145 772.849 931.08 770.356 932.222C764.123 935.08 764.537 936.69 771.447 936.846C772.901 936.898 774.304 936.638 774.46 936.326C774.771 935.912 775.187 933.937 775.707 930.509C775.707 930.301 775.551 930.145 775.291 930.145Z" fill="white"/>
<path d="M753.058 918.197C754.148 918.197 760.694 915.808 761.266 915.236C762.096 914.405 763.239 905.731 762.512 905.731C762.408 905.731 760.278 906.665 757.888 907.756L753.526 909.781L753.162 912.328C753.006 913.677 752.746 915.6 752.59 916.483C752.434 917.729 752.538 918.197 753.058 918.197Z" fill="white"/>
<path d="M759.967 927.288C760.695 924.223 760.849 921.833 760.331 921.833C760.071 921.833 758.148 922.509 756.019 923.34C751.759 925.003 751.552 925.313 751.396 930.041C751.344 932.535 751.136 932.483 756.799 930.716C759.292 929.937 759.396 929.781 759.967 927.288Z" fill="white"/>
<path d="M737.058 915.548L736.488 918.82C736.176 920.639 736.072 922.249 736.228 922.457C736.538 922.82 737.734 922.613 743.344 921.055L745.993 920.275L746.513 917.055C746.824 915.236 747.084 913.419 747.136 912.951C747.188 912.224 746.357 912.379 742.149 913.833L737.058 915.548Z" fill="white"/>
<path d="M744.539 928.119C744.591 927.651 744.227 927.547 743.448 927.755C742.772 927.963 741.163 928.379 739.812 928.743C738.409 929.054 737.319 929.522 737.319 929.73C737.319 930.092 742.201 931.703 743.344 931.703C743.915 931.703 744.227 930.768 744.539 928.119Z" fill="white"/>
<path d="M723.396 891.497C723.084 891.705 722.254 899.133 722.514 899.393C722.772 899.653 732.019 897.47 733.162 896.848C733.63 896.64 734.15 895.029 734.512 892.9C735.344 887.965 735.344 887.445 734.616 887.705C734.254 887.861 731.604 888.744 728.747 889.678C725.89 890.666 723.5 891.445 723.396 891.497Z" fill="white"/>
<path d="M721.059 910.25C720.903 911.496 720.955 912.587 721.163 912.691C721.579 912.951 730.566 911.132 731.032 910.666C731.344 910.302 732.487 905.627 732.591 904.016C732.591 903.548 732.383 903.134 732.123 903.134C731.812 903.134 729.371 903.756 726.67 904.535C721.319 906.042 721.527 905.834 721.059 910.25Z" fill="white"/>
<path d="M729.578 918.094C729.422 917.886 727.189 918.302 724.591 918.925C720.123 920.067 719.917 920.171 719.761 921.626C719.657 922.977 719.865 923.237 721.838 924.015C724.227 925.003 726.773 925.21 727.863 924.483C728.643 924.015 730.046 918.666 729.578 918.094Z" fill="white"/>
<path d="M707.137 889.264C707.449 889.576 718.047 887.757 718.565 887.238C718.721 887.082 719.916 881.004 720.124 879.342C720.124 879.03 719.968 878.718 719.656 878.718C719.085 878.718 708.124 881.784 707.968 881.94C707.553 882.458 706.877 888.952 707.137 889.264Z" fill="white"/>
<path d="M717.371 893.264C716.436 893.264 706.411 895.913 706.099 896.225C705.891 896.484 705.579 897.99 705.371 899.705L705.008 902.718L707.553 902.354C708.904 902.198 711.449 901.73 713.163 901.42L716.28 900.796L716.903 897.938C717.527 894.77 717.683 893.264 717.371 893.264Z" fill="white"/>
<path d="M714.929 908.38C714.981 907.86 714.565 907.757 713.422 908.016C712.54 908.172 710.254 908.588 708.332 908.9C706.41 909.262 704.54 909.782 704.228 910.042C703.501 910.561 703.293 914.873 703.968 915.289C704.384 915.548 713.318 914.353 713.63 913.99C713.838 913.73 714.825 909.366 714.929 908.38Z" fill="white"/>
<path d="M691.813 891.705C692.541 891.705 694.878 891.445 697.008 891.133L700.956 890.562L701.268 888.639C701.424 887.601 701.734 886.198 701.994 885.471C702.618 883.653 702.618 883.393 701.89 883.393C701.578 883.393 699.189 883.809 696.644 884.277C691.605 885.263 691.553 885.263 690.878 889.471C690.566 891.601 690.618 891.705 691.813 891.705Z" fill="white"/>
<path d="M698.67 901.003C699.553 897.782 699.501 897.419 698.514 897.471C697.995 897.471 695.813 897.782 693.683 898.146C689.475 898.822 689.163 899.132 689.059 902.976L689.009 904.639L692.021 904.327C697.527 903.808 697.995 903.6 698.67 901.003Z" fill="white"/>
<path d="M675.606 880.588C676.126 880.9 685.891 879.914 686.359 879.498C686.826 878.978 687.814 873.316 687.502 872.9C687.346 872.692 685.579 872.9 683.554 873.264C681.579 873.627 679.086 874.095 678.099 874.251C676.333 874.563 676.23 874.667 675.71 877.471C675.45 879.03 675.346 880.432 675.606 880.588Z" fill="white"/>
<path d="M683.657 892.121C684.177 891.705 684.488 890.458 684.748 887.394C684.8 886.874 684.488 886.51 683.969 886.51C683.449 886.562 681.06 886.874 678.619 887.186C673.84 887.913 673.684 888.069 673.476 892.173L673.424 893.367L678.255 893.003C680.852 892.795 683.293 892.381 683.657 892.121Z" fill="white"/>
<path d="M668.489 881.056L669.113 878.718C669.892 875.705 669.736 875.289 667.917 875.549C667.086 875.653 664.905 875.861 663.034 876.069L659.71 876.381L659.242 878.666C658.982 879.913 658.982 881.108 659.242 881.316C659.45 881.524 661.632 881.524 664.073 881.368L668.489 881.056Z" fill="white"/>
</g>
<defs>
<clipPath id="clip0_7123_4112">
<rect width="850" height="999" fill="white"/>
</clipPath>
</defs>
</svg>
