<svg xmlns="http://www.w3.org/2000/svg" xml:space="preserve" id="svg2" x="0" y="0" version="1.1" viewBox="0 0 512 512"><style>.st2{fill-rule:evenodd;clip-rule:evenodd;fill:red}.st3{fill-opacity:0}</style><g id="layer1" transform="translate(-278 -494.36)"><g id="g4525"><linearGradient id="path3168_00000178207029376651229830000011313847122461221031_" x1="1355.829" x2="1992.487" y1="-807.007" y2="-807.007" gradientTransform="matrix(.32 0 0 -.32 66.765 609.117)" gradientUnits="userSpaceOnUse"><stop offset="0" style="stop-color:red"/><stop offset=".889" style="stop-color:#f30000"/><stop offset="1" style="stop-color:#e70000"/></linearGradient><path id="path3168" d="M534 748.8s-35.2 21.8-31.6 60.9c3.6 39 68.4 101.1 90.4 129.9 13 16.9 19 34.5 21.8 46.2 33.1-11.3 63-29.5 88.1-52.8-10.6-10.2-28.6-26.7-42.7-36-20.9-13.8-86-30.1-122.3-64.3-35.2-33.3-3.7-83.9-3.7-83.9" style="fill-rule:evenodd;clip-rule:evenodd;fill:url(#path3168_00000178207029376651229830000011313847122461221031_)"/><circle id="path3223" cx="534" cy="750.4" r="248.9" style="fill:#fff;stroke:red;stroke-width:1.7777;stroke-linejoin:round;stroke-miterlimit:4.2667"/><path id="use3230" d="M534 748.1s-35.2 22.6-31.6 61.7c3.6 39 68.4 101.1 90.4 129.9 13 16.9 19 34.5 21.8 46.2 33.1-11.3 63-29.5 88.1-52.8-10.6-10.2-28.6-26.7-42.7-36-20.9-13.8-86-30.1-122.3-64.3-35.2-33.4-3.7-84.7-3.7-84.7" class="st2"/><path id="path3291" d="M516.5 1005.3c-2.8-.3-11.6-1.4-19.4-2.5-101.4-14.4-185.8-90.7-210.6-190.3-10.3-41.3-9.9-89.2 1.1-128.6 12.2-44 34.7-82.6 66.3-113.7 15.4-15.2 23.1-21.5 39.5-32.5 67.2-44.9 153-54.8 229.2-26.5 61.1 22.7 111.2 68 140.6 127.1 30.2 60.6 34.2 134.8 10.8 198.8-13.2 36-32.6 66.5-59.6 93.5-38.6 38.6-86.2 63-140.3 71.8-14.4 2.3-47 4-57.6 2.9m53-15.5c12.1-1.8 28.2-5.4 38-8.4 5.3-1.7 5.1-3-2.9-19.8-6.6-13.9-12.4-21.8-38.6-52-24.7-28.5-35.4-41.8-44.9-55.9-15.4-22.8-20-35.6-19.2-53 .7-14.7 6.2-26.8 17.8-39.2 4.4-4.8 7.7-8.6 7.3-8.6-2.6 0-19.1 8.6-25.1 13.1-9.8 7.4-13.8 12.1-18.7 21.8-4 8-4.2 9.1-4.2 23.3 0 23.4 6.2 45.6 25.6 92.6 15.1 36.5 16.7 42.8 18.5 72.9.5 8.3 1.5 15.3 2.3 15.9 1.9 1.1 27.9-.3 44.1-2.7m-138.6-33.3c7.6-18 8.5-23.6 13.3-86.1 3.1-40.4 5.9-58.6 11.8-76.9 4.8-14.8 7.5-19.7 16.4-28.5 12-11.9 25.8-17.3 44.7-17.5l9.8-.1-6.7-3.2c-16.4-7.8-39-8.9-52.7-2.6-14.6 6.7-31.2 27-45.6 55.8-3.6 7.1-11.7 25.4-18.1 40.8-6.4 15.3-13 30.1-14.6 33-4 6.9-17.8 24.8-26.6 34.2l-7.1 7.7 2.7 3.7c3.4 4.6 18.6 18.4 29.7 26.9 11.2 8.6 35 22.7 37.3 22.3 1-.5 3.6-4.6 5.7-9.5m279.2-40c5.5-5.9 13.9-16 18.7-22.5 9.7-13.2 22.7-35.3 22-37.3s-20-9.4-30.1-11.6c-4.9-1.1-27.5-3.4-50.3-5.2-50.7-4-68.6-6.4-88.6-11.9-31.6-8.7-48.9-30.6-49.2-62.4l-.1-9.8-3.2 6.7c-7.8 16.4-8.9 38.9-2.7 52.5 9.5 20.8 40.9 41.5 98.5 64.9 31.8 12.9 43.4 20.1 64.7 39.9 4.2 4 8.3 7.2 9 7.3s5.8-4.7 11.3-10.6m-390-96.6c15-7 20.5-11 53.8-39.6 43.9-37.8 62.9-51.4 82.7-59.8 7.2-3 9.9-3.5 22.4-3.5 13.7 0 14.6.2 24 4.7 6.3 3 12.9 7.6 18.4 12.8 4.8 4.4 8.6 7.7 8.6 7.2s-2-5.1-4.3-10.2c-8.1-17.4-19.5-29.3-33.2-34.8-5.9-2.4-9.5-2.9-21.3-2.8-23.1.2-41.9 5.3-89.9 24.7-16.7 6.8-33 13-36.2 14-8.3 2.4-21.7 4.3-38.5 5.3l-14.5.9V755c0 20.7 4.1 47.1 10.5 67.2 1.7 5 1.9 5 17.5-2.3M625.8 800c17.1-4.1 34-10 63.1-22 35.6-14.7 42.1-16.3 73.7-18.4l13.3-.9v-15c-.1-19.8-5.7-53.9-11.6-69.3l-1.3-3.3-6.5 2.6c-19.2 7.6-27.3 13.2-61.7 43-28.5 24.7-41.9 35.4-56 44.9-22.8 15.4-35.6 20-52.9 19.1-14.8-.7-26.8-6.2-39.4-18-9.7-9.1-10.1-8.3-2.9 6 8.9 17.7 23 30.4 38.1 34.2 7.8 2.2 29.2.7 44.1-2.9m-25.5-43.8c20.6-9.5 39.2-37.3 62.5-93.2 16-38.5 19.4-44.1 39.8-67.3l9-10.2-10.3-9.9c-17.6-17-54.4-42.2-59.9-41.1-2.4.5-8.7 16.4-11.1 28.2-1.1 5.1-2.6 16.4-3.3 25s-2.4 29.3-3.8 46c-4.7 57.5-11.3 82-26 97.6-11.8 12.5-22.7 17.2-43.2 18.6l-13 .9 5.2 2.3c18.1 8.1 40.4 9.4 54.1 3.1M554 739.4c14.9-7.5 25.3-17.5 31.5-30.7 3-6.4 3.4-8.6 3.4-22 0-23.4-6.1-45.6-25.6-92.6-14.9-36.1-16.5-42.5-18.5-72.6l-.8-13.3h-13.4c-16.9 0-38.4 2.9-57.3 7.8-8.1 2.1-14.9 3.8-15.2 3.8-2.6 0 6.5 21 14 32.1 2.5 3.7 16.1 20.2 30.3 36.7 37.7 43.9 51.4 62.9 59.8 82.7 3 7.2 3.5 9.9 3.5 22.4 0 13.7-.2 14.6-4.7 24-3 6.3-7.6 12.9-13 18.6-9 9.9-8.3 10.2 6 3.1m-12.8-10.7c3-8.7 3.6-12.5 3.7-24.6.1-12.9-.3-14.9-3.4-21.7-9.8-20.8-39.8-40.7-96.1-63.7-34.3-14-39.5-17-61.3-35.9l-13.5-11.7-10.5 10.9c-5.8 6-14.2 15.8-18.8 21.8-9.1 12-23.3 34.6-23.3 37.1 0 1.9 17.2 8.7 28.8 11.5 4.4 1.1 26.7 3.4 49.5 5.2 45.6 3.6 64.3 5.8 80.8 9.7 23.9 5.7 36.4 12.8 46.9 26.5 6.8 9 10.1 19.5 11 34.6.4 7 1.2 12.2 1.7 11.6.5-.4 2.6-5.6 4.5-11.3" class="st3"/><path id="path3293" d="M516.5 1005.3c-2.8-.3-11.6-1.4-19.4-2.5-101.4-14.4-185.8-90.7-210.6-190.3-10.3-41.3-9.9-89.2 1.1-128.6 12.2-44 34.7-82.6 66.3-113.7 15.4-15.2 23.1-21.5 39.5-32.5 67.2-44.9 153-54.8 229.2-26.5 61.1 22.7 111.2 68 140.6 127.1 30.2 60.6 34.2 134.8 10.8 198.8-13.2 36-32.6 66.5-59.6 93.5-38.6 38.6-86.2 63-140.3 71.8-14.4 2.3-47 4-57.6 2.9m53-15.5c12.1-1.8 28.2-5.4 38-8.4 5.3-1.7 5.1-3-2.9-19.8-6.6-13.9-12.4-21.8-38.6-52-24.7-28.5-35.4-41.8-44.9-55.9-15.4-22.8-20-35.6-19.2-53 .7-14.7 6.2-26.8 17.8-39.2 4.4-4.8 7.7-8.6 7.3-8.6-2.6 0-19.1 8.6-25.1 13.1-9.8 7.4-13.8 12.1-18.7 21.8-4 8-4.2 9.1-4.2 23.3 0 23.4 6.2 45.6 25.6 92.6 15.1 36.5 16.7 42.8 18.5 72.9.5 8.3 1.5 15.3 2.3 15.9 1.9 1.1 27.9-.3 44.1-2.7m-138.6-33.3c7.6-18 8.5-23.6 13.3-86.1 3.1-40.4 5.9-58.6 11.8-76.9 4.8-14.8 7.5-19.7 16.4-28.5 12-11.9 25.8-17.3 44.7-17.5l9.8-.1-6.7-3.2c-16.4-7.8-39-8.9-52.7-2.6-14.6 6.7-31.2 27-45.6 55.8-3.6 7.1-11.7 25.4-18.1 40.8-6.4 15.3-13 30.1-14.6 33-4 6.9-17.8 24.8-26.6 34.2l-7.1 7.7 2.7 3.7c3.4 4.6 18.6 18.4 29.7 26.9 11.2 8.6 35 22.7 37.3 22.3 1-.5 3.6-4.6 5.7-9.5m279.2-40c5.5-5.9 13.9-16 18.7-22.5 9.7-13.2 22.7-35.3 22-37.3s-20-9.4-30.1-11.6c-4.9-1.1-27.5-3.4-50.3-5.2-50.7-4-68.6-6.4-88.6-11.9-31.6-8.7-48.9-30.6-49.2-62.4l-.1-9.8-3.2 6.7c-7.8 16.4-8.9 38.9-2.7 52.5 9.5 20.8 40.9 41.5 98.5 64.9 31.8 12.9 43.4 20.1 64.7 39.9 4.2 4 8.3 7.2 9 7.3s5.8-4.7 11.3-10.6m-390-96.6c15-7 20.5-11 53.8-39.6 43.9-37.8 62.9-51.4 82.7-59.8 7.2-3 9.9-3.5 22.4-3.5 13.7 0 14.6.2 24 4.7 6.3 3 12.9 7.6 18.4 12.8 4.8 4.4 8.6 7.7 8.6 7.2s-2-5.1-4.3-10.2c-8.1-17.4-19.5-29.3-33.2-34.8-5.9-2.4-9.5-2.9-21.3-2.8-23.1.2-41.9 5.3-89.9 24.7-16.7 6.8-33 13-36.2 14-8.3 2.4-21.7 4.3-38.5 5.3l-14.5.9V755c0 20.7 4.1 47.1 10.5 67.2 1.7 5 1.9 5 17.5-2.3M625.8 800c17.1-4.1 34-10 63.1-22 35.6-14.7 42.1-16.3 73.7-18.4l13.3-.9v-15c-.1-19.8-5.7-53.9-11.6-69.3l-1.3-3.3-6.5 2.6c-19.2 7.6-27.3 13.2-61.7 43-28.5 24.7-41.9 35.4-56 44.9-22.8 15.4-35.6 20-52.9 19.1-14.8-.7-26.8-6.2-39.4-18-9.7-9.1-10.1-8.3-2.9 6 8.9 17.7 23 30.4 38.1 34.2 7.8 2.2 29.2.7 44.1-2.9m-25.5-43.8c20.6-9.5 39.2-37.3 62.5-93.2 16-38.5 19.4-44.1 39.8-67.3l9-10.2-10.3-9.9c-17.6-17-54.4-42.2-59.9-41.1-2.4.5-8.7 16.4-11.1 28.2-1.1 5.1-2.6 16.4-3.3 25s-2.4 29.3-3.8 46c-4.7 57.5-11.3 82-26 97.6-11.8 12.5-22.7 17.2-43.2 18.6l-13 .9 5.2 2.3c18.1 8.1 40.4 9.4 54.1 3.1M554 739.4c14.9-7.5 25.3-17.5 31.5-30.7 3-6.4 3.4-8.6 3.4-22 0-23.4-6.1-45.6-25.6-92.6-14.9-36.1-16.5-42.5-18.5-72.6l-.8-13.3h-13.4c-16.9 0-38.4 2.9-57.3 7.8-8.1 2.1-14.9 3.8-15.2 3.8-2.6 0 6.5 21 14 32.1 2.5 3.7 16.1 20.2 30.3 36.7 37.7 43.9 51.4 62.9 59.8 82.7 3 7.2 3.5 9.9 3.5 22.4 0 13.7-.2 14.6-4.7 24-3 6.3-7.6 12.9-13 18.6-9 9.9-8.3 10.2 6 3.1m-12.8-10.7c3-8.7 3.6-12.5 3.7-24.6.1-12.9-.3-14.9-3.4-21.7-9.8-20.8-39.8-40.7-96.1-63.7-34.3-14-39.5-17-61.3-35.9l-13.5-11.7-10.5 10.9c-5.8 6-14.2 15.8-18.8 21.8-9.1 12-23.3 34.6-23.3 37.1 0 1.9 17.2 8.7 28.8 11.5 4.4 1.1 26.7 3.4 49.5 5.2 45.6 3.6 64.3 5.8 80.8 9.7 23.9 5.7 36.4 12.8 46.9 26.5 6.8 9 10.1 19.5 11 34.6.4 7 1.2 12.2 1.7 11.6.5-.4 2.6-5.6 4.5-11.3" class="st3"/><path id="path3295" d="M516.5 1005.3c-2.8-.3-11.6-1.4-19.4-2.5-101.4-14.4-185.8-90.7-210.6-190.3-10.3-41.3-9.9-89.2 1.1-128.6 12.2-44 34.7-82.6 66.3-113.7 15.4-15.2 23.1-21.5 39.5-32.5 67.2-44.9 153-54.8 229.2-26.5 61.1 22.7 111.2 68 140.6 127.1 30.2 60.6 34.2 134.8 10.8 198.8-13.2 36-32.6 66.5-59.6 93.5-38.6 38.6-86.2 63-140.3 71.8-14.4 2.3-47 4-57.6 2.9m53-15.5c12.1-1.8 28.2-5.4 38-8.4 5.3-1.7 5.1-3-2.9-19.8-6.6-13.9-12.4-21.8-38.6-52-24.7-28.5-35.4-41.8-44.9-55.9-15.4-22.8-20-35.6-19.2-53 .7-14.7 6.2-26.8 17.8-39.2 4.4-4.8 7.7-8.6 7.3-8.6-2.6 0-19.1 8.6-25.1 13.1-9.8 7.4-13.8 12.1-18.7 21.8-4 8-4.2 9.1-4.2 23.3 0 23.4 6.2 45.6 25.6 92.6 15.1 36.5 16.7 42.8 18.5 72.9.5 8.3 1.5 15.3 2.3 15.9 1.9 1.1 27.9-.3 44.1-2.7m-138.6-33.3c7.6-18 8.5-23.6 13.3-86.1 3.1-40.4 5.9-58.6 11.8-76.9 4.8-14.8 7.5-19.7 16.4-28.5 12-11.9 25.8-17.3 44.7-17.5l9.8-.1-6.7-3.2c-16.4-7.8-39-8.9-52.7-2.6-14.6 6.7-31.2 27-45.6 55.8-3.6 7.1-11.7 25.4-18.1 40.8-6.4 15.3-13 30.1-14.6 33-4 6.9-17.8 24.8-26.6 34.2l-7.1 7.7 2.7 3.7c3.4 4.6 18.6 18.4 29.7 26.9 11.2 8.6 35 22.7 37.3 22.3 1-.5 3.6-4.6 5.7-9.5m279.2-40c5.5-5.9 13.9-16 18.7-22.5 9.7-13.2 22.7-35.3 22-37.3s-20-9.4-30.1-11.6c-4.9-1.1-27.5-3.4-50.3-5.2-50.7-4-68.6-6.4-88.6-11.9-31.6-8.7-48.9-30.6-49.2-62.4l-.1-9.8-3.2 6.7c-7.8 16.4-8.9 38.9-2.7 52.5 9.5 20.8 40.9 41.5 98.5 64.9 31.8 12.9 43.4 20.1 64.7 39.9 4.2 4 8.3 7.2 9 7.3s5.8-4.7 11.3-10.6m-390-96.6c15-7 20.5-11 53.8-39.6 43.9-37.8 62.9-51.4 82.7-59.8 7.2-3 9.9-3.5 22.4-3.5 13.7 0 14.6.2 24 4.7 6.3 3 12.9 7.6 18.4 12.8 4.8 4.4 8.6 7.7 8.6 7.2s-2-5.1-4.3-10.2c-8.1-17.4-19.5-29.3-33.2-34.8-5.9-2.4-9.5-2.9-21.3-2.8-23.1.2-41.9 5.3-89.9 24.7-16.7 6.8-33 13-36.2 14-8.3 2.4-21.7 4.3-38.5 5.3l-14.5.9V755c0 20.7 4.1 47.1 10.5 67.2 1.7 5 1.9 5 17.5-2.3M625.8 800c17.1-4.1 34-10 63.1-22 35.6-14.7 42.1-16.3 73.7-18.4l13.3-.9v-15c-.1-19.8-5.7-53.9-11.6-69.3l-1.3-3.3-6.5 2.6c-19.2 7.6-27.3 13.2-61.7 43-28.5 24.7-41.9 35.4-56 44.9-22.8 15.4-35.6 20-52.9 19.1-14.8-.7-26.8-6.2-39.4-18-9.7-9.1-10.1-8.3-2.9 6 8.9 17.7 23 30.4 38.1 34.2 7.8 2.2 29.2.7 44.1-2.9m-25.5-43.8c20.6-9.5 39.2-37.3 62.5-93.2 16-38.5 19.4-44.1 39.8-67.3l9-10.2-10.3-9.9c-17.6-17-54.4-42.2-59.9-41.1-2.4.5-8.7 16.4-11.1 28.2-1.1 5.1-2.6 16.4-3.3 25s-2.4 29.3-3.8 46c-4.7 57.5-11.3 82-26 97.6-11.8 12.5-22.7 17.2-43.2 18.6l-13 .9 5.2 2.3c18.1 8.1 40.4 9.4 54.1 3.1M554 739.4c14.9-7.5 25.3-17.5 31.5-30.7 3-6.4 3.4-8.6 3.4-22 0-23.4-6.1-45.6-25.6-92.6-14.9-36.1-16.5-42.5-18.5-72.6l-.8-13.3h-13.4c-16.9 0-38.4 2.9-57.3 7.8-8.1 2.1-14.9 3.8-15.2 3.8-2.6 0 6.5 21 14 32.1 2.5 3.7 16.1 20.2 30.3 36.7 37.7 43.9 51.4 62.9 59.8 82.7 3 7.2 3.5 9.9 3.5 22.4 0 13.7-.2 14.6-4.7 24-3 6.3-7.6 12.9-13 18.6-9 9.9-8.3 10.2 6 3.1m-12.8-10.7c3-8.7 3.6-12.5 3.7-24.6.1-12.9-.3-14.9-3.4-21.7-9.8-20.8-39.8-40.7-96.1-63.7-34.3-14-39.5-17-61.3-35.9l-13.5-11.7-10.5 10.9c-5.8 6-14.2 15.8-18.8 21.8-9.1 12-23.3 34.6-23.3 37.1 0 1.9 17.2 8.7 28.8 11.5 4.4 1.1 26.7 3.4 49.5 5.2 45.6 3.6 64.3 5.8 80.8 9.7 23.9 5.7 36.4 12.8 46.9 26.5 6.8 9 10.1 19.5 11 34.6.4 7 1.2 12.2 1.7 11.6.5-.4 2.6-5.6 4.5-11.3" class="st3"/><path id="path3297" d="M516.5 1005.3c-2.8-.3-11.6-1.4-19.4-2.5-101.4-14.4-185.8-90.7-210.6-190.3-10.3-41.3-9.9-89.2 1.1-128.6 12.2-44 34.7-82.6 66.3-113.7 15.4-15.2 23.1-21.5 39.5-32.5 67.2-44.9 153-54.8 229.2-26.5 61.1 22.7 111.2 68 140.6 127.1 30.2 60.6 34.2 134.8 10.8 198.8-13.2 36-32.6 66.5-59.6 93.5-38.6 38.6-86.2 63-140.3 71.8-14.4 2.3-47 4-57.6 2.9m53-15.5c12.1-1.8 28.2-5.4 38-8.4 5.3-1.7 5.1-3-2.9-19.8-6.6-13.9-12.4-21.8-38.6-52-24.7-28.5-35.4-41.8-44.9-55.9-15.4-22.8-20-35.6-19.2-53 .7-14.7 6.2-26.8 17.8-39.2 4.4-4.8 7.7-8.6 7.3-8.6-2.6 0-19.1 8.6-25.1 13.1-9.8 7.4-13.8 12.1-18.7 21.8-4 8-4.2 9.1-4.2 23.3 0 23.4 6.2 45.6 25.6 92.6 15.1 36.5 16.7 42.8 18.5 72.9.5 8.3 1.5 15.3 2.3 15.9 1.9 1.1 27.9-.3 44.1-2.7m-138.6-33.3c7.6-18 8.5-23.6 13.3-86.1 3.1-40.4 5.9-58.6 11.8-76.9 4.8-14.8 7.5-19.7 16.4-28.5 12-11.9 25.8-17.3 44.7-17.5l9.8-.1-6.7-3.2c-16.4-7.8-39-8.9-52.7-2.6-14.6 6.7-31.2 27-45.6 55.8-3.6 7.1-11.7 25.4-18.1 40.8-6.4 15.3-13 30.1-14.6 33-4 6.9-17.8 24.8-26.6 34.2l-7.1 7.7 2.7 3.7c3.4 4.6 18.6 18.4 29.7 26.9 11.2 8.6 35 22.7 37.3 22.3 1-.5 3.6-4.6 5.7-9.5m279.2-40c5.5-5.9 13.9-16 18.7-22.5 9.7-13.2 22.7-35.3 22-37.3s-20-9.4-30.1-11.6c-4.9-1.1-27.5-3.4-50.3-5.2-50.7-4-68.6-6.4-88.6-11.9-31.6-8.7-48.9-30.6-49.2-62.4l-.1-9.8-3.2 6.7c-7.8 16.4-8.9 38.9-2.7 52.5 9.5 20.8 40.9 41.5 98.5 64.9 31.8 12.9 43.4 20.1 64.7 39.9 4.2 4 8.3 7.2 9 7.3s5.8-4.7 11.3-10.6m-390-96.6c15-7 20.5-11 53.8-39.6 43.9-37.8 62.9-51.4 82.7-59.8 7.2-3 9.9-3.5 22.4-3.5 13.7 0 14.6.2 24 4.7 6.3 3 12.9 7.6 18.4 12.8 4.8 4.4 8.6 7.7 8.6 7.2s-2-5.1-4.3-10.2c-8.1-17.4-19.5-29.3-33.2-34.8-5.9-2.4-9.5-2.9-21.3-2.8-23.1.2-41.9 5.3-89.9 24.7-16.7 6.8-33 13-36.2 14-8.3 2.4-21.7 4.3-38.5 5.3l-14.5.9V755c0 20.7 4.1 47.1 10.5 67.2 1.7 5 1.9 5 17.5-2.3M625.8 800c17.1-4.1 34-10 63.1-22 35.6-14.7 42.1-16.3 73.7-18.4l13.3-.9v-15c-.1-19.8-5.7-53.9-11.6-69.3l-1.3-3.3-6.5 2.6c-19.2 7.6-27.3 13.2-61.7 43-28.5 24.7-41.9 35.4-56 44.9-22.8 15.4-35.6 20-52.9 19.1-14.8-.7-26.8-6.2-39.4-18-9.7-9.1-10.1-8.3-2.9 6 8.9 17.7 23 30.4 38.1 34.2 7.8 2.2 29.2.7 44.1-2.9m-25.5-43.8c20.6-9.5 39.2-37.3 62.5-93.2 16-38.5 19.4-44.1 39.8-67.3l9-10.2-10.3-9.9c-17.6-17-54.4-42.2-59.9-41.1-2.4.5-8.7 16.4-11.1 28.2-1.1 5.1-2.6 16.4-3.3 25s-2.4 29.3-3.8 46c-4.7 57.5-11.3 82-26 97.6-11.8 12.5-22.7 17.2-43.2 18.6l-13 .9 5.2 2.3c18.1 8.1 40.4 9.4 54.1 3.1M554 739.4c14.9-7.5 25.3-17.5 31.5-30.7 3-6.4 3.4-8.6 3.4-22 0-23.4-6.1-45.6-25.6-92.6-14.9-36.1-16.5-42.5-18.5-72.6l-.8-13.3h-13.4c-16.9 0-38.4 2.9-57.3 7.8-8.1 2.1-14.9 3.8-15.2 3.8-2.6 0 6.5 21 14 32.1 2.5 3.7 16.1 20.2 30.3 36.7 37.7 43.9 51.4 62.9 59.8 82.7 3 7.2 3.5 9.9 3.5 22.4 0 13.7-.2 14.6-4.7 24-3 6.3-7.6 12.9-13 18.6-9 9.9-8.3 10.2 6 3.1m-12.8-10.7c3-8.7 3.6-12.5 3.7-24.6.1-12.9-.3-14.9-3.4-21.7-9.8-20.8-39.8-40.7-96.1-63.7-34.3-14-39.5-17-61.3-35.9l-13.5-11.7-10.5 10.9c-5.8 6-14.2 15.8-18.8 21.8-9.1 12-23.3 34.6-23.3 37.1 0 1.9 17.2 8.7 28.8 11.5 4.4 1.1 26.7 3.4 49.5 5.2 45.6 3.6 64.3 5.8 80.8 9.7 23.9 5.7 36.4 12.8 46.9 26.5 6.8 9 10.1 19.5 11 34.6.4 7 1.2 12.2 1.7 11.6.5-.4 2.6-5.6 4.5-11.3" class="st3"/><g id="use3341" transform="rotate(45 308 524.092)"><path id="use3230_00000163042740422760748250000001643100886188746925_" d="M534 748.1s-40.9-8.9-65.9 21.3-23.2 119.9-27.9 155.8c-2.8 21.2-11 37.8-17.3 48.1 31.4 15.4 65.4 23.6 99.6 25-.3-14.7-1.3-39.1-4.7-55.6-5.1-24.6-39.6-82.1-41-132-1.4-48.6 57.2-62.6 57.2-62.6" class="st2"/></g><g id="use3343" transform="rotate(90 308 524.093)"><path id="use3230_00000109713038484084319690000004924300452325199510_" d="M534 748.1s-22.6-35.2-61.7-31.6c-39 3.6-101.1 68.4-129.9 90.4-16.9 13-34.5 19-46.2 21.8 11.3 33.1 29.5 63 52.8 88.1 10.2-10.6 26.7-28.6 36-42.7 13.8-20.9 30.1-86 64.3-122.3 33.3-35.2 84.7-3.7 84.7-3.7" class="st2"/></g><g id="use3345" transform="rotate(135 307.998 524.092)"><path id="use3230_00000114796345002747773110000013244598418226107543_" d="M534 748.1s8.9-40.9-21.3-65.9-119.9-23.2-155.8-27.9c-21.2-2.8-37.8-11-48.1-17.3-15.4 31.4-23.6 65.4-25 99.6 14.7-.3 39.1-1.3 55.6-4.7 24.6-5.1 82.1-39.6 132-41 48.5-1.4 62.6 57.2 62.6 57.2" class="st2"/></g><g id="use3347" transform="rotate(180 308 524.093)"><path id="use3230_00000178893738348154861990000001568008967946538665_" d="M534 748.1s35.2-22.6 31.6-61.7c-3.6-39-68.4-101.1-90.4-129.9-13-16.9-19-34.5-21.8-46.2-33.1 11.3-63 29.5-88.1 52.8 10.6 10.2 28.6 26.7 42.7 36 20.9 13.8 86 30.1 122.3 64.3 35.2 33.3 3.7 84.7 3.7 84.7" class="st2"/></g><g id="use3349" transform="rotate(-135 307.998 524.094)"><path id="use3230_00000043416380945085416520000013550710077283009426_" d="M534 748.1s40.9 8.9 65.9-21.3 23.2-119.9 27.9-155.8c2.8-21.2 11-37.8 17.3-48.1-31.4-15.4-65.4-23.6-99.6-25 .3 14.7 1.3 39.1 4.7 55.6 5.1 24.6 39.6 82.1 41 132 1.4 48.5-57.2 62.6-57.2 62.6" class="st2"/></g><g id="use3351" transform="rotate(-90 308 524.093)"><path id="use3230_00000180329497408841900710000015780833188398746020_" d="M534 748.1s22.6 35.2 61.7 31.6c39-3.6 101.1-68.4 129.9-90.4 16.9-13 34.5-19 46.2-21.8-11.3-33.1-29.5-63-52.8-88.1-10.2 10.6-26.7 28.6-36 42.7-13.8 20.9-30.1 86-64.3 122.3-33.3 35.1-84.7 3.7-84.7 3.7" class="st2"/></g><g id="use3353" transform="rotate(-45 307.996 524.092)"><path id="use3230_00000150816031162710549280000005959824376533342397_" d="M534 748.1s-8.9 40.9 21.3 65.9 119.9 23.2 155.8 27.9c21.2 2.8 37.8 11 48.1 17.3 15.4-31.4 23.6-65.4 25-99.6-14.7.3-39.1 1.3-55.6 4.7-24.6 5.1-82.1 39.6-132 41-48.5 1.3-62.6-57.2-62.6-57.2" class="st2"/></g><radialGradient id="path3355_00000055697748384680328690000003183386167067134362_" cx="1182.153" cy="-87.036" r="800.023" gradientTransform="matrix(.32 0 0 -.32 155.722 722.51)" gradientUnits="userSpaceOnUse"><stop offset="0" style="stop-color:#fff;stop-opacity:0"/><stop offset=".806" style="stop-color:#fff;stop-opacity:0"/><stop offset="1" style="stop-color:#b00000;stop-opacity:.7345"/></radialGradient><circle id="path3355" cx="534" cy="750.4" r="256" style="fill:url(#path3355_00000055697748384680328690000003183386167067134362_)"/></g></g></svg>