<svg xmlns="http://www.w3.org/2000/svg" xml:space="preserve" viewBox="0 5 163.25 131.9"><g fill-rule="evenodd" clip-rule="evenodd"><radialGradient id="a" cx="81.4" cy="114.8" r="70.362" gradientTransform="matrix(1 0 0 -.2667 0 145.41)" gradientUnits="userSpaceOnUse"><stop offset="0" stop-opacity=".4"/><stop offset="1" stop-opacity="0"/></radialGradient><path fill="url(#a)" d="M23.9 98.7q23.901-6.55 57.75-6.55 33.8 0 57.699 6.55t23.9 15.8q0 9.3-23.9 15.85c-23.9 6.55-35.166 6.551-57.699 6.551q-33.85 0-57.75-6.551C7.966 125.98-.001 120.7-.001 114.5c0-6.17 7.967-11.43 23.9-15.8z"/><radialGradient id="b" cx="81.75" cy="114.35" r="43.818" gradientTransform="matrix(1 0 0 -1 0 228.7)" gradientUnits="userSpaceOnUse"><stop offset=".09" stop-opacity=".137"/><stop offset=".176" stop-opacity=".137"/></radialGradient><path fill="url(#b)" d="M27.8 108.25q.85 0 1-1.8v-1.85q8.95-.35 28.8-2.649 11.45-1.35 17.3-.2 2.35.55 3.3.7 1.55.25 3.399-.2 3.35-.75 13.551-.9 11.049-.15 12.6-.35 2.7-.3 13.1.9 11.151 1.35 11.5 1.35 1.35 0 1.801.4.55.5 1.25.6 1.099.2 1 1.3a2.9 2.9 0 0 1-.301 1.05l6.15 1.65-1.5.5q-1.599.5-2.25.5-.7 0-1.75.6-.85.5-3.05 2.101-1.7 1.25-1.9 1.6-.032.098.075.101l-.925.25q-1.15.45-1.351 1.05-.199.6-1.55 1.1-.75.3-2.55.9-1.15.45-1.35 1.25-.05.15-.051 1.75 0 .65-1.899 1.25-2.6.8-3.9 1.75-1.75 1.3-3.85 1.55-1.751.201-9.55.75-6.151.6-5.851.9.05.05.55.1h-.5q-1.3 0-4.699.35-3.451.35-4.25.351-1.7 0-5.45.649l-3.7.15q-3.9.05-5.2-.15t-4.85-.149q-1.85.05-4.1.149-1.05 0-3.05-2-.65-.65-2.05-.699-.8-.05-2.1.05-1 0-4.45-.7l-5.8-1.65-3.05-.05q-3.15-.099-3.8-.3-1.2-.35-3.7-1.55-2.95-1.45-3.2-2.101-.2-.599-1.45-.85-.65-.15-1.25-.15l-1.05-.1q-1.2-.15-2.05-.55-1.2-.6-1.6-.95-.55-.6-.8-1.75-.2-.9-2.35-1.5-2.8-.75-3.85-1.5l3.1-2c1.357-.67 2.507-1 3.44-1z"/><radialGradient id="c" cx="-122.5" cy="84.543" r="99.922" gradientTransform="scale(1 -1)rotate(88.797 86.338 84.54)" gradientUnits="userSpaceOnUse"><stop offset=".024" stop-color="#9DDABE"/><stop offset=".235" stop-color="#A0DCC1"/><stop offset=".451" stop-color="#A9E1C8"/><stop offset=".663" stop-color="#B7EAD4"/><stop offset=".878" stop-color="#CCF6E4"/><stop offset=".977" stop-color="#D8FDED"/></radialGradient><path fill="url(#c)" d="M114.25 45q1 1.25 2.2 2.9 2.45 3.3 3.55 5.35.15.25 1.9 4 .9 1.9 2.1 3.25l2 2.25.15 5.95q.249 6.45.85 8.8.35 1.3 1 6.85.6 5.2 1.75 8.9 1.25 4.05 1.65 9.55.15 2.75.1 4.7l-7.1 4.55q-7.701 5-10.65 7.2-3.5 2.6-6.25 3.45-2.6.8-7 .8-2.95 0-7.55 1.15-4.65 1.1-7.2 1.1-2.6 0-7.4.25-4.1.1-6.85-.5-2.15-.5-5.55-2.05-3-1.45-4.95-1.7-1.4-.2-3.6-.2-1.9 0-5.15-.55-8.35-1.45-11.5-3.25-1.75-1-2.75-1.75l-2.8-3.05q-3-3.05-3.95-3.2 1.2-1 2.45-2.8 2.6-3.65 3.05-7.7.4-3.25-.05-6.6-.45-3.901-.2-8.15.3-5 1.7-9.7 2.1-6.75 2.3-7.8.95-6.55 1.4-9.8.85-5.75 2.35-7.7 1.15-1.5 2.05-3.45 1.1-2.25 3.2-5.3l6-8.5q.55-1.85 1.55-4.15 2-4.55 4.2-6.6Q67.5 15.7 71 12a89 89 0 0 1 5.45-5.3L78.5 5q1 .4 2.3 1.15 2.65 1.5 4.2 3.35.75.9 4.4 2.85 2.9 1.6 4.35 4.9.95 2.2 1.95 9.15.9 6.05 3.3 9.85a52 52 0 0 1 4.45 8.8q.95 2.25 1.3 3.7 1.05-.1 2.3-.5 2.5-.75 3.45-2c.95-1.25 1.45-1.283 2.45-1.35z"/><path fill="#84C5A2" d="m70.1 46.35 1.5-7.75.35.85q.45 1 .65 1.8.35 1.35.35 5 0 .5.1 2a14.7 14.7 0 0 1-.1 3q-.35 2.35-5 8v5.35l-.85.5q-1 .5-1.85.5-.65 0-1.65-.15-1-.2-1.65-.2-.45 0-1.9.5-1.4.5-3.1.5-3 0-6.35-1.3 3.65-.35 6-1.7 1.45-.8 2.2-1.8.65-1.15 1.15-1.85.55-.7 2.2-2.6 2.65-2.95 4.45-5.05 2.5-2.95 3.5-5.6m8.5 33.25q-2.35 0-4.65-1 5-.65 8-1.649 1.9-.6 3.649-3.55L86.95 70.6v5.351q0 1.05-.851 1.649-.549.4-2.85 1.65-1.6 1-2.45.8-1.949-.45-2.199-.45"/><path fill="#DEF4EB" d="M62.95 39.25q.65-.3 8.65-.65l-.35 2v2.35q0 2.3-1.65 4l-1.5.3q-2 .2-4.5 0-2.45-.2-3.6.25-.9.35-4.4 1.75-5 1.7-5.35 1.7z"/><path fill="#CFF3E4" d="m85.05 70.55 1.9.05-1.25 2.15q-1.701 2.5-3.75 4.2-2.1 1.65-5.25 1.8-1.6.1-2.75-.15 2.65-3.35 4.3-4 .9-.35 1.85-1.55 1.05-1.35 1.85-1.8 1.05-.6 3.1-.7"/><path fill="#9DDABE" d="M98.95 45.6q1-2.6 1.3-1.6.3.8.35.6.201-.7.15-2.45-.05-2.1-.1-3.15a52 52 0 0 1 3.199 6.95q.65 1.75.9 2.8l.65-.1q-2.901 2.75-4.5 8.25-1.1 3.6-1.351 7-.1-.9-1.1-4.35-1.05-3.5-1.2-5.3-.2-2.6.1-4.05.252-1.1 1.601-4.6zm-5.7-18.65q1.45-.9 2.25-2.4.4 3.15.8 4.9.6 2.75 1.75 5.05-.55-.5-.8-.9-.5-1.1-1.1-1.1-.75-.05-2.9 1.1-1.85 1.05-3.45 2.8-.8.9-1.2 1.55v-8z"/><path fill="#EAFEF5" d="M92.8 15.45q-1 .4-2.3.55-3.05.45-7 3l-5.1-.1q-5.5-.05-7.8.35-1.8.35-3.8.65-1.25.3-2.55 1.35-1.2 1.05-2.3 3.5-.7 1.45-2.35 5.2-1.1 2.25-6.7 6.05l2.6-3.75q.55-1.85 1.55-4.15 2-4.55 4.2-6.6Q67.5 15.7 71 12a89 89 0 0 1 5.45-5.3L78.5 5q1 .4 2.3 1.15 2.65 1.5 4.2 3.35.9 1.1 3.85 2.55 2.65 1.35 3.95 3.4"/><path fill="#9DDABE" d="M63.2 79.55q.95-.25 2.05.7 1.75 1.45 2.5 2.1 1.3 1.1 1.75 1.9.4.65 1.7 1.6 1.3.901 1.55 1.4.5 1 4.25 3.5l.35 1.45q.7 1.599 2.4 2.55 2.65 1.45 2.9 1.55.95.3 1.6-.55 1-1.5 2.5-3.5 1.4-1.85 1.65-2.25.5-.9.85-2.25.3-1.25.3-2.5l-.05-1q-1-4-1-4.5 0-.55 1.2-2.6 1.25-2.001 1.8-2.4.45-.3 1.9-.7l1.35-.3 2.25 5 2.75 3.5q0-.3.15-.35.299-.051 1.1 1.35c.801 1.401.934 1.917 1.2 2.95q.25.8.3 1.3l1.25 3q.25.75 1.7 1.35 1.55.65 2.05-.35.75-1.5 1.75-3.25.4-.7 1.65-2.15.85-1.049.85-1.6 0-.05.6-1.15.55-1.049.4-3.6-.2-3.1-.05-5.6.15-2.4.55-3.15.2-.45.9-1.3a10.4 10.4 0 0 0 1.1-1.7l1.4-2.05q.85-1.25.85-2.45v-3.25q.25-.75 0-2.5-.1-.7-.45-2.1-.3-1.05-.3-1.9 0-.95.4-2.05l.35-.95v-1.4q1.8 2.55 2.5 3.9.15.25 1.9 4 .9 1.9 2.1 3.25l2 2.25.15 5.95q.249 6.45.85 8.8.35 1.3 1 6.85.6 5.2 1.75 8.9 1.25 4.05 1.65 9.55.15 2.75.1 4.7l-7.1 4.55q-7.701 5-10.65 7.2-3.5 2.6-6.25 3.45-2.6.8-7 .8-2.95 0-7.55 1.15-4.65 1.1-7.2 1.1-2.6 0-7.4.25-4.1.1-6.85-.5-2.15-.5-5.55-2.05-3-1.45-4.95-1.7-1.4-.2-3.6-.2-1.9 0-5.15-.55-8.35-1.45-11.5-3.25-1.75-1-2.75-1.75l-2.8-3.05q-3-3.05-3.95-3.2 2.25 0 3.5-1.5.45-.75.65-1 .25-.35 2.85-2.5 2.75-2.25 3.4-3.2.5-1.15 1.1-2.3.05-.1 1.4-2.35.45-.8.6-1.4.5-3 .75-3.75.5-.85.85-1.6.65-1.35.65-2.9 0-1.2.35-3.6.3-2 .15-2.65-.15-.8.3-2.1l.45-1.15q.5-1.25.75-3.25l.5-4.25q.7.8 1.5 1.85 1.65 2.05 2.25 3.15 1 1.75 4 4.25 0 .45.4.8.75.65 2.6.2 2.3-.8 2.95-.95"/><path fill="#84C5A2" d="m61.75 88.5 1.25-1 .8 3.2a53 53 0 0 1 .95 8.3q.15 4.1 3 5.4 3.4.85 4.5 1.85 1.35 1.2 2.25 1.6 2.349 1.05 3 1.4 2.3 1.25 4.6 1.7 2.1.45 2.9.05l2.4-.4q1.6-.299 1.6-1.35 0-1.25.6-3.2.55-1.8 1.15-2.8 2-2.75 3.25-5.25 2-4 3-5l3-2.5q.4-.3.85-.45.951-.35 1.4.45.45.75 1.6 3.35a249 249 0 0 0 1.4 3.15q.5 1 2 2.75L108 101q.3.5.85.55 1.05.05 2.15-2.3a35 35 0 0 0 1.65-4.3q.549-1.95.85-2.45.45-.75 1.4-1.3l1.6-.95q.1-.1 1.95-.25 1.25-.1 1.55-1.75.15-.85.3-3.45.15-1.85.7-3.3.3-.7.8-3.6.25-1.4.95-.4 1.95 2.7 2.25 4.25.1.5.6 1.2.401.55.4 1.55 0 1.75 2 3.5l.55.05q.55 3.151 1.2 5.2 1.25 4.05 1.65 9.55.15 2.75.1 4.7l-7.1 4.55q-7.701 5-10.65 7.2-3.5 2.6-6.25 3.45-2.6.8-7 .8-2.95 0-7.55 1.15-4.65 1.1-7.2 1.1-2.6 0-7.4.25-4.1.1-6.85-.5-2.15-.5-5.55-2.05-3-1.45-4.95-1.7-1.4-.2-3.6-.2-1.9 0-5.15-.55-8.35-1.45-11.5-3.25-1.75-1-2.75-1.75l-3.1-3.3a95 95 0 0 1 1.95-1.3q1.1-.6 2.4-.9.2-.05 4.85-.25 2.4-.1 3.15-1.75 1.15-2.8 1.7-4 .95-2.05 2.05-2.5.4-.2 2.45-.1 1.3.05 2.05-1.4.45-.85 1.7-2.9a15 15 0 0 0 1.55-3.1q.65-1.7 1.9-4.05z"/><path fill="#70AC8B" d="M62.25 92.75q0-.8.65-1.7l.6-.8 1.15 6.85.1 1.9q.05 1.85.65 3.1.7 5.401.6 6.65-.2 2.15.55 4.7.7 2.35 1.7 3.55.8 1.15 1.15 1.4.4.35 2.1.85 1.1.35 2.6.3 1.85-.099 4.65.45 3.45.65 4.65.8 1.5.1 3.1.2.95.05 3.4.5 1.049.2 1.35-.25.6-.9.8-1.35.35-1 .2-2.15-.25-1.2-.3-1.65-.1-.7.05-2.6.15-1.85.6-3.35L93 109l2.25 5q1 3 3.75 3 2.75.2 3.85.25 1.85.1 2.15-.5c.3-.6.55-.9 1.05-1.5l.7-.75 2.25-1.75h2.25q4.75-3.25 5.25-4.5.3-.8.95-1.6l.55-.65q.25-1.5.75-2.25.05-1 .2-1.95.35-1.9 2.3-4.05 2.05-2.25 2.9-4.45.15-.45.6-2.8l.25-1.25q.8.45 1.7 1.05 1.75 1.25 2.05 2.2.6 1.7 1.5 2.6 1.5 6.05 1.25 12.4l-7.1 4.55q-7.701 5-10.65 7.2-3.5 2.6-6.25 3.45-2.6.8-7 .8-2.95 0-7.55 1.15-4.65 1.1-7.2 1.1-2.6 0-7.4.25-4.1.1-6.85-.5-2.15-.5-5.55-2.05-3-1.45-4.95-1.7-1.4-.2-3.6-.2-1.9 0-5.15-.55-8.35-1.45-11.5-3.25l-.1-.05q2.9-.2 5.1-.851 2.15-.799 3.5-1.1.55-.1 3.4-.35.95-.1 1.85-1.15 3-3.5 3-5 0-.65.95-1.65 1.05-1.15 1.3-1.85.15-.45.2-1.65.1-1 .8-2.6.4-.9 1.55-2.45.6-.75.45-2.05-.5-3-.5-4.25z"/><path fill="#578E6D" d="M61 121.75q-1.4-.2-3.6-.2-1.9 0-5.15-.55-5.45-.95-8.9-2.15 2.95.1 6.55.051 4.8-.15 5.35-.15 2.85 0 4.35-.7 1.3-.9 1.9-1.3.85-.5 1.3-.25.7.65 1.45 1.25 2.15 1.8 5 3.5.95 1.15 1.25 1.4.45.4 5 .85 4.7.45 8.9-.05 4.25-.7 6.1-.95 2.35-.3 3.9-1.2l1.1-.8q.7.8 2.05 1.4 2.65 1.2 5.95.1 3.95-1.3 4.45-1.55t2.55-1.95q3.6-2.95 7.75-5.5 3.9-2.4 6.25-4.75.95-.95 1.95-1.45l.8-.3q1.95.45 4.3.65l-.05.35-7.1 4.55q-7.701 5-10.65 7.2-3.5 2.6-6.25 3.45-2.6.8-7 .8-2.95 0-7.55 1.15-4.65 1.1-7.2 1.1-2.6 0-7.4.25-4.1.1-6.85-.5-2.15-.5-5.55-2.05c-2-.97-3.65-1.53-4.95-1.7z"/><radialGradient id="d" cx="107.51" cy="69.45" r="41.819" gradientTransform="matrix(1 0 0 -1 0 138.9)" gradientUnits="userSpaceOnUse"><stop offset=".176" stop-color="#437052" stop-opacity=".439"/><stop offset=".557" stop-color="#437052" stop-opacity=".439"/></radialGradient><path fill="url(#d)" d="M88 45.05q-.25-6.7-.5-8.8-.3-2.5-2.2-10.1L83.5 19q4.5-3 7-3 1.1 0 2.3-.6.5.75.95 1.85.95 2.2 1.95 9.15.9 6.05 3.3 9.85a52.7 52.7 0 0 1 4.45 8.75q.95 2.3 1.3 3.75a19 19 0 0 0-1.5 2.25q-2.05 3.8-3.75 13.5-.6 3.6 1 7.15.8 1.799 1.75 2.85 1.5-3.75 2-9 .3-2.95 1.65-3.75 1.798-1.05 2.35-2.25.9-2 1.3-2.6.6-.9 1.45-2.4l4.5-7.95q3.35 4.5 4.5 6.7.15.25 1.9 4 .9 1.9 2.1 3.25l2 2.25.15 5.95q.249 6.45.85 8.8.35 1.3 1 6.85.6 5.2 1.75 8.9 1.25 4.05 1.65 9.55.15 2.75.1 4.7l-7.1 4.55q-7.701 5-10.65 7.2-3.35 2.5-5.95 3.35-2.5.85-6.45.9 2.3-1.85 4.051-4.9 1.7-2.95 1.35-4.1-.2-.7-1.8-2.15-1.7-1.6-2.7-3.85-4.7-10.8-6.75-15.75-1.05-2.6-2.35-7.05-1.202-4.1-2.4-6.7-1.25-2.85-.85-8.25.45-5.7.1-6.75-.7-2.15-.95-3.55-.15-1.05-.55-5.45-.25-2.65-.5-9.95z"/><path fill="#9DDABE" d="m88 47.5 1.4 6.1q1.35 6.7 1.35 9.8 0 4.35.35 7.15.451 3.65 1.65 6.95.9 2.5 2.2 7.45 1.2 4.8 1.8 6.3.55 1.45 2.5 7.45 1.85 5.7 2.5 7.3.5 1.2 2.9 4.35 1.95 2.6 2.1 4.15a6.96 6.96 0 0 1-.7 3.65q-.6 1.2-2.55 3.85-1.4 1.9-4.55.65a13 13 0 0 1-2.226-1.2q.686.25 2.025.25 1.85 0 2.9-.55 1.299-.65 2.35-2.4 1.1-1.85.55-4.6-.55-2.65-2.45-4.95-1.45-1.7-3.1-6.4-2.35-6.35-3.15-8.05-1.55-3.25-3.699-9.9-2.001-6.55-2.4-7.699-.4-1.251-.7-6-.35-5.65-.55-6.9-.3-2.2-.45-9.7l-.051-7.051z"/></g></svg>