<svg xmlns="http://www.w3.org/2000/svg" xml:space="preserve" viewBox="0 0 512 512"><path d="M487.3 311.2c3.3.7 6.3 1.3 9.2 2.1 12.2 3.3 17.9 12.5 14.5 24.2-4.8 16.9-12.5 32.8-20.5 48.5-15.7 30.8-40 54.6-67.8 75.1-19.6 14.5-40.6 27.2-64.1 35.2-19.5 6.7-39.5 11.9-60.4 13.9-19.6 1.9-39.3 1.9-58.7.2-28.8-2.5-56.4-9.7-82.9-21.2-41.7-18.1-76.1-45.1-103.9-79.7C28.4 379.1 11.6 345.1 4.6 307-5.1 254.2.3 203.1 24.3 154.2 39.1 123.9 60 97.6 84.7 74.1c31.6-30 69-50.6 111.5-63.2C222.7 3 249.6-.7 277.2.5c38.4 1.8 75 10.4 109.3 27.3 9.7 4.8 19.2 10.1 28.8 15.2 2-1 1.9-3 2.6-4.6 3.4-8 9.1-11.9 17-11.9 9.2.1 15.8 4 18.4 12.5 6.3 20.3 13.8 40.3 18.7 61 .8 3.2 1.6 6.5.7 9.8-1.8 6.7-6.4 10.7-13.5 11.6-.6.1-1.2.2-1.7.1-23-.8-45.8 2.2-68.8 1.8-9.6-.2-16.2-6.6-16.3-15.8 0-3.2-.4-6.4 1.3-9.4 1.5-2.7-.7-4.1-2.6-5.4-7.2-5-15-8.8-23.1-12.3-25.1-10.7-51.5-16.5-79-16.1-36 .5-69.8 9.6-100.4 28.5-21.7 13.3-41.7 28.6-57.8 47.9-16.2 19.5-29.7 40.7-37.1 65-7.6 24.7-9.8 50-7.7 75.8 3 37.4 19.1 69.5 43.6 97.9 26.3 30.5 59.5 51.5 99.1 62.7 14.1 4 28.6 6.1 43.4 6.8 16.2.7 32.3.6 48.3-1.7 31-4.5 58.6-16.3 83-35 18.2-14 33.4-30.8 46.3-49.2 7.1-10.1 11.5-21.8 15.8-33.2 1.1-2.8.8-6 1.2-9 1.1-8.4 11.6-17 21.8-13.8 6.3 1.7 12.4 2.7 18.8 4.2" style="fill:#233346"/><path d="M395.7 84c2.9 1.8 5.5 4 7.9 6.5 2 2.1 2 3.8-.6 5.5-2.1 1.4-4.6 2.5-6 4.7-.7 1.1-1.5 2.2-.9 3.5.6 1.5 2.1 1.3 3.4 1.2 3.6-.2 7.2-.6 10.8-.8 12.1-.6 24.2-1.2 36.3-1.6 3.4-.1 4.3-1.4 3.4-4.5-1.4-4.8-2.4-9.7-3.7-14.5-3.2-11.6-6.5-23.2-10.2-36-3.6 5.7-6.4 10.4-9.5 15-4.9 7.5-8.1 8.2-15.8 3.3-5.4-3.5-10.2-7.7-15.7-11-47.8-28.8-100-40.5-155.9-33.9-37.6 4.4-72.3 17.5-103.9 37.9-22.9 14.8-43.1 32.4-60.4 53.2-16.9 20.4-31.4 42.2-41.2 66.6-9.2 23.1-13.6 47.2-14.4 72-.9 29.3 2.4 57.9 13 85.5C49 380 77.1 415.5 114.8 444.1c27.4 20.7 57.9 35.2 91.9 43.1 31.3 7.2 62.9 7.8 94.6 4.7 18.9-1.9 36.8-7.8 54.6-14.2 28.6-10.3 53.1-26.8 75.2-46.7 26.2-23.6 44.5-52.3 56.6-84.7 1.7-4.5 3.4-9.1 4.2-14-6.5-2.3-13.1-3.3-19.4-4.9-3.7-1-5.4 0-6.6 3.5-8.4 23.3-19.9 44.8-37 63.4-13.8 14.9-27.9 29.3-45.2 40.4-43.1 27.5-90.6 37.9-141.8 31.9-32.6-3.8-63.2-13.5-91.2-30.5-47.6-28.9-80.4-68.7-96.9-120.5-8.2-25.7-8.9-52.1-6-78.7 2.6-24 9-46.9 20.6-68.3 12.4-22.9 28.4-43 47.8-60.8 26.1-24 55.9-41.9 90.4-52.3 27.1-8.1 54.8-11.9 83.2-9.1 17.3 1.7 34.2 4.8 50.6 10.4 19.4 6.4 37 16.7 55.3 27.2" style="fill:#fff"/><path d="M344 131.5c11.9 3.8 22 10 31.5 17 18.8 13.8 34.2 30.2 43.2 51.6 1.5 3.5 3.3 6.8 5.9 9.7 8.3 9 16.2 6.4 21.9-2.7 2.7-4.4 2.9-9.3 2.2-14.2-1.1-7.5-2.6-14.9-5.8-22.1-4.9-10.7 2.5-20.6 15.6-21.3 10.1-.6 20.2-1 30.3-.9 12.3.2 18.6 5.7 19.7 17.4 1.2 13 2.8 25.9 3.2 38.9.8 23.8-7.9 44.4-24.5 62.2-14.4 15.4-33.1 21.7-53.5 24.5-15.4 2.1-30.5.7-44.3-7.3-2-1.2-3.5-.7-5.1.4-2.2 1.6-4.2 3.5-6.9 4.2-5 1.2-5.5 4.4-5.1 8.6 2.1 18.4 2.4 36.8 2.4 55.3 0 2.4 0 4.7-.2 7.1-1.2 16-13.7 27.3-30.4 27.6-12.4.2-24.8.2-37.2.9-19.5 1.1-31.8-14-32.2-30.4q-.15-4.35 0-8.7c.1-2.4-.8-3.5-3.5-3.5-15.7 0-31.5-.1-47.2-.3-3.1 0-4.5 1.1-4.3 4.2.4 5.7-.4 11.4-.8 17-.6 7.6-6.3 11.9-12.1 15.9-3.7 2.5-7.9 4.1-12.5 4.3-16 .7-32 2.1-48 .7-11.7-1-21.9-9.9-25-20.8q-1.8-6.45-1.8-13.2v-86.2c0-1.6.3-3.3-.4-5-2.1-.8-3.9.4-5.7 1.1-5.9 2.2-11.4 5.4-17.6 6.9-5.7 1.3-9.5 0-12.3-4.4-2.9-4.5-2.6-7.6 1.4-12.1 4.6-5 10.9-8.2 16-12.7q8.25-7.35 16.8-14.4c3.1-2.6 4.3-6.2 5.4-9.8 6.4-20.1 17.1-37.9 32.5-52.9 14.2-13.8 32-22.1 50.4-29.4 3.5-1.4 7.4-1.5 11.1-1.6 2.9-.1 4.8-1.2 6.7-3.1 26-25.7 61-31.2 93.4-10.6 6.4 8.8 17 9.2 26.8 12.1" style="fill:#213040"/><path d="M206.1 205.3c-2.3-9.3-4-18.7-2.7-28.4.6-4.5.8-9.1 1.1-13.7.2-2.2-.4-3.7-3.2-2.8-9.3 3-18.4 6.4-26.2 12.6-18 14.2-26.6 33.8-33.4 54.3-1.1 3.4-1.8 7-1.8 10.6 0 39.2-.6 78.3.6 117.5.2 7.8 3.9 11.7 12.1 11.5 12.4-.3 24.8-.6 37.2-.7 5.2 0 9.3-4.5 9.3-9.6 0-5.3-.1-10.6-.2-15.8-.2-7.3 3.3-15.6 13.8-15.7 4 0 8.1-.3 12.1-.3 15.2.2 30.3.4 45.5.5 4.2 0 8.4-.1 12.6 0 8.2.2 11.7 3 12.3 10.8.5 7.1.6 14.1.6 21.2.1 7.3 2.9 10.4 10.7 10.4 11.3.1 22.5.1 33.8 0 9.3-.1 13.5-4.3 13.4-13.4-.3-24.6-.7-49.1-1-73.7-.1-7.7 2.4-11.1 9.9-13.9 2.6-1 5-2 7.3-3.5 6.1-4 11.9-4.5 18.9-.9 21.2 11.1 43.1 12.3 65.2 2.1 22.4-10.4 33.7-28.2 36.4-51.5 1.7-14.6-2.6-29-1.8-43.6.1-1.9-1-3-2.9-2.8-6.8.9-13.8.5-20.8.9-.2 3.4.9 6.3 1.5 9.2 2.7 11.7 4.1 23.5.4 35.3-2.8 8.9-7.2 16.7-15.8 21.5-14.1 7.9-33.6 3-43.3-10.6-3.4-4.7-6-9.8-8.2-15.1-4.9-11.8-11-22.9-20.6-31.9-8.7-8.1-18.4-14.8-28.8-20.5-5.2-2.8-10.8-4.9-16.9-3.2-7 2-11.8-.6-16.3-5.5-7.3-7.9-15.8-14.5-26.4-17.6-27.9-8.2-57.3 8.7-63.7 36.2-1.9 8.4-2.2 16.7-.8 25.2 1.5 9.1 3.9 17.8 9.9 25.4 18.3 23.1 56.1 29 78 8 4.3-4.1 8.3-4.2 12.6-.8 4.9 3.9 5.4 7.1 1.9 12.3-5.8 8.8-14.5 14.3-24.4 17.8-14.1 5-28.9 5.3-43.1 1.7-27.1-6.3-45.6-23-54.8-49.5" style="fill:#5dedcf"/><path d="M375.7 218.5c-5.8 3.5-11.5 3.1-15.6-.9-4.4-4.3-5.2-10-2.1-14.8 3.2-4.9 9.2-6.9 15-4.9 8.8 3.2 10.3 13.4 2.7 20.6" style="fill:#121e30"/></svg>