<svg xmlns="http://www.w3.org/2000/svg" viewBox="5.23 5.43 1013.4 1012.31"><path d="M969.814 620.762c6.529 1.462 12.398 2.668 18.159 4.24 24.19 6.601 35.407 24.705 28.782 47.985-9.537 33.514-24.727 64.848-40.604 95.969-31.13 61.014-79.075 108.043-134.141 148.702-38.824 28.666-80.438 53.753-126.802 69.711-38.654 13.304-78.203 23.531-119.525 27.488a634 634 0 0 1-116.283.418c-56.913-5.021-111.722-19.133-164.004-41.892-82.444-35.89-150.573-89.182-205.565-157.817-48.306-60.29-81.688-127.642-95.554-202.982C-4.954 508.081 5.786 406.86 53.214 310.211c29.499-60.106 70.778-112.177 119.749-158.626 62.618-59.391 136.654-100.159 220.703-125.18C446.139 10.783 499.327 3.38 554.033 5.919c75.97 3.529 148.389 20.625 216.269 54.068 19.287 9.5 38.04 19.998 57.072 30.056 3.998-2.012 3.858-6.015 5.211-9.147 6.813-15.761 18.008-23.647 33.688-23.528 18.122.135 31.283 7.996 36.431 24.665 12.423 40.238 27.411 79.761 37.073 120.774 1.497 6.353 3.174 12.889 1.457 19.496-3.469 13.345-12.703 21.152-26.819 22.873-1.134.138-2.281.319-3.414.279-45.465-1.625-90.706 4.394-136.142 3.646-18.906-.311-32.063-12.979-32.203-31.25-.047-6.272-.712-12.605 2.532-18.569 2.912-5.349-1.348-8.124-5.056-10.724-14.162-9.929-29.721-17.509-45.667-24.299-49.751-21.179-102.02-32.75-156.293-31.931-71.313 1.075-138.086 19.096-198.681 56.327-42.896 26.354-82.55 56.597-114.423 94.88-32.123 38.583-58.745 80.653-73.425 128.557-15.004 48.957-19.397 99.046-15.245 149.947 6.036 73.994 37.819 137.504 86.232 193.727 52.038 60.429 117.687 101.991 196.079 124.068 27.947 7.87 56.67 12.122 85.985 13.417 32.057 1.416 63.903 1.275 95.654-3.328 61.276-8.883 115.974-32.242 164.37-69.349 36.08-27.664 66.014-60.868 91.688-97.446 14.087-20.065 22.694-43.091 31.304-65.811 2.092-5.518 1.648-11.918 2.445-17.904 2.217-16.71 23.05-33.676 43.211-27.239 11.61 3.708 23.806 5.723 36.448 8.588M788.436 171.064c5.756 3.643 10.965 7.897 15.617 12.792 3.877 4.085 3.894 7.52-1.232 10.828-4.229 2.729-9.034 4.904-11.873 9.282-1.356 2.093-2.884 4.358-1.816 6.919 1.227 2.944 4.213 2.501 6.698 2.36 7.112-.405 14.207-1.181 21.322-1.525 23.946-1.151 47.894-2.278 71.85-3.188 6.667-.254 8.478-2.793 6.722-8.917-2.726-9.51-4.727-19.214-7.376-28.748-6.377-22.966-12.953-45.881-20.13-71.228-7.054 11.221-12.719 20.593-18.75 29.742-9.764 14.808-16.12 16.264-31.281 6.451-10.65-6.893-20.273-15.3-31.131-21.842C692.409 56.945 589.16 33.891 478.51 46.808c-74.406 8.685-143.125 34.688-205.568 74.97-45.358 29.259-85.372 64.149-119.482 105.371C120 267.582 91.257 310.7 71.964 359.025c-18.253 45.721-26.838 93.33-28.424 142.411-1.874 57.999 4.675 114.601 25.682 169.161 33.103 85.985 88.69 156.229 163.311 212.779 54.171 41.053 114.629 69.675 181.865 85.216 61.856 14.296 124.416 15.533 187.151 9.38 37.331-3.663 72.937-15.476 107.977-28.101 56.542-20.372 105.167-53.112 148.824-92.444 51.814-46.678 88.173-103.445 111.992-167.665 3.316-8.943 6.727-17.927 8.288-27.705-12.901-4.459-25.88-6.447-38.488-9.752-7.321-1.921-10.614-.077-13.157 6.98-16.608 46.041-39.31 88.74-73.326 125.566-27.222 29.471-55.171 58.085-89.498 79.999-85.332 54.474-179.361 75.069-280.618 63.2-64.433-7.55-125.106-26.732-180.524-60.4-94.126-57.187-159.041-135.991-191.792-238.504-16.255-50.871-17.665-103.132-11.952-155.755 5.148-47.433 17.789-92.762 40.733-135.204 24.476-45.27 56.304-85.102 94.671-120.407 51.651-47.526 110.668-82.917 179.024-103.441 53.659-16.11 108.408-23.469 164.655-18.025 34.178 3.309 67.64 9.437 100.168 20.514 38.834 13.223 73.772 33.496 109.91 54.236" style="fill:#fff"/><path d="M686.025 265.253c23.456 7.506 43.467 19.721 62.366 33.599 37.138 27.269 67.697 59.751 85.477 102.098 2.895 6.895 6.575 13.519 11.707 19.111 16.359 17.816 31.968 12.73 43.268-5.268 5.416-8.625 5.743-18.451 4.377-28.047-2.122-14.928-5.09-29.587-11.546-43.67-9.711-21.179 4.932-40.706 30.824-42.252 19.958-1.192 39.929-2.039 59.945-1.696 24.371.416 36.893 11.243 38.992 34.374 2.334 25.663 5.542 51.317 6.354 77.033 1.491 47.171-15.548 87.933-48.404 123.107-28.469 30.478-65.524 42.983-105.837 48.546-30.548 4.216-60.403 1.292-87.586-14.522-3.951-2.3-6.951-1.476-10.123.873-4.301 3.182-8.384 7.019-13.692 8.281-9.883 2.347-10.985 8.758-10.064 16.943 4.088 36.363 4.774 72.875 4.784 109.411 0 4.669-.04 9.353-.385 14.009-2.334 31.645-27.119 54.054-60.218 54.685-24.555.47-49.15.414-73.652 1.794-38.52 2.171-63.034-27.794-63.644-60.13-.107-5.77-.231-11.551-.008-17.314.185-4.827-1.616-6.951-6.903-6.958-31.146-.038-62.292-.222-93.439-.504-6.134-.057-8.947 2.152-8.5 8.286.824 11.279-.738 22.491-1.629 33.705-1.2 15.11-12.383 23.6-23.894 31.411-7.273 4.936-15.658 8.139-24.722 8.553-31.641 1.445-63.33 4.095-94.961 1.324-23.169-2.03-43.275-19.694-49.462-41.252-2.445-8.525-3.502-17.195-3.495-26.06.046-56.896-.015-113.791-.094-170.687-.005-3.242.664-6.582-.833-9.901-4.212-1.61-7.665.783-11.259 2.117-11.708 4.337-22.525 10.763-34.872 13.626-11.362 2.635-18.711.082-24.342-8.694-5.655-8.821-5.163-15.134 2.835-23.92 9.095-9.995 21.606-16.141 31.609-25.2 10.809-9.788 21.984-19.214 33.182-28.595 6.2-5.193 8.473-12.227 10.739-19.309 12.746-39.841 33.803-75.019 64.297-104.698 28.109-27.354 63.264-43.833 99.68-58.105 6.905-2.706 14.558-2.882 21.929-3.15 5.687-.206 9.481-2.46 13.282-6.208 51.473-50.779 120.793-61.759 184.882-20.952 12.774 17.486 33.721 18.442 53.035 24.206M413.259 411.264c-4.62-18.494-7.965-37.051-5.287-56.231 1.251-8.955 1.542-18.033 2.276-27.055.358-4.391-.847-7.363-6.239-5.623-18.469 5.965-36.507 12.748-51.807 24.889-35.531 28.198-52.597 66.939-66.188 107.56-2.236 6.69-3.653 13.8-3.648 21.055.038 77.501-1.122 155.006 1.265 232.495.475 15.409 7.755 23.118 23.923 22.675a3741 3741 0 0 1 73.688-1.294c10.292-.078 18.353-8.867 18.39-19.026.042-10.438-.188-20.883-.455-31.321-.371-14.412 6.509-30.805 27.389-31.044 7.965-.09 15.967-.653 23.96-.572 29.998.305 59.994.695 89.992 1.011 8.288.087 16.581-.112 24.864.068 16.304.354 23.148 6.007 24.298 21.475 1.038 13.961 1.12 28.001 1.231 42.009.118 14.493 5.756 20.506 21.09 20.654 22.287.212 44.579.116 66.868-.026 18.485-.121 26.784-8.486 26.531-26.446-.681-48.636-1.481-97.27-2.035-145.905-.173-15.313 4.754-21.881 19.616-27.432 5.076-1.893 9.987-3.96 14.518-6.945 12.036-7.936 23.587-8.907 37.355-1.707 41.971 21.948 85.348 24.413 129.007 4.236 44.421-20.527 66.683-55.877 72.055-101.99 3.367-28.902-5.171-57.407-3.558-86.28.209-3.753-1.989-5.926-5.777-5.446-13.556 1.722-27.268.948-41.167 1.87-.458 6.808 1.683 12.496 3.034 18.287 5.423 23.246 8.194 46.422.796 69.898-5.575 17.694-14.292 33.125-31.355 42.628-27.959 15.573-66.467 5.949-85.611-20.895-6.666-9.349-11.831-19.45-16.174-29.93-9.704-23.423-21.691-45.394-40.829-63.215-17.153-15.975-36.389-29.197-57.054-40.495-10.309-5.635-21.454-9.752-33.546-6.307-13.774 3.922-23.311-1.129-32.338-10.861-14.412-15.541-31.21-28.633-52.245-34.817-55.249-16.243-113.42 17.132-126.047 71.601-3.838 16.556-4.356 33.062-1.527 49.799 3.046 18.036 7.675 35.208 19.578 50.227 36.281 45.769 111.002 57.413 154.297 15.923 8.43-8.083 16.478-8.319 24.912-1.532 9.642 7.762 10.636 14.109 3.848 24.352-11.568 17.447-28.683 28.27-48.239 35.18-27.841 9.841-57.191 10.457-85.234 3.405-53.707-13.502-90.264-46.4-108.421-98.902" style="fill:#fff"/><path d="M748.905 437.404c-11.42 6.965-22.684 6.175-30.789-1.697-8.71-8.46-10.344-19.737-4.232-29.217 6.293-9.764 18.221-13.615 29.732-9.604 17.26 6.016 20.183 26.298 5.289 40.518" style="fill:#fff"/></svg>