<svg xmlns="http://www.w3.org/2000/svg" xml:space="preserve" viewBox="30.73 0 430.04 491.49"><g fill="#fff"><path d="M39.302 138.132c3.291.714 6.346.662 15.728-6.54 4.168-3.204 10.325-8.59 16.01-16.117l2.491-3.301C94.832 83.842 144.7 17.512 216.727 21.121c59.398 4.331 101.508 49.187 121.757 129.725.691 2.738 1.107 4.413 1.571 5.71 3.097 13.167 8.288 29.575 15.771 34.98a10.4 10.4 0 0 0 6.127 1.98c3.246 0 6.461-1.505 8.509-4.347 3.274-4.533 2.404-10.805-1.891-14.28-2.069-2.68-5.959-13.888-8.276-23.913a10.4 10.4 0 0 0-.566-1.732c-.195-.686-.568-2.18-.908-3.517-3.209-12.77-11.735-46.678-32.417-78.567C299.692 25.977 263.262 3.442 218.121.19c-.07-.011-.14-.011-.221-.011C134.7-4.07 80.083 68.559 56.768 99.568l-2.451 3.257c-6.383 8.44-13.925 13.694-16.524 15.215-.875.351-1.727.821-2.518 1.417-3.263 2.472-4.857 6.689-3.979 10.685a10.5 10.5 0 0 0 8.006 7.99"/><path d="M43.97 245.815c34.618-9.417 66.601-28.597 68-29.437 45.162-27.656 86.126-71.235 86.469-71.646 16.91-19.369 41.931-37.94 61.447-31.966 11.491 3.519 19.46 9.777 23.681 18.605 5.056 10.563 4.663 24.853-1.075 39.198a71 71 0 0 1-2.046 4.599c7.374.396 14.57 1.464 21.534 3.136 7.892-19.76 8.087-40.166.501-55.993-6.753-14.137-19.363-24.372-36.447-29.605-25.08-7.675-55.478 6.251-83.33 38.163-.354.392-40 42.09-81.631 67.583-.305.184-30.782 18.461-62.61 27.139-5.589 1.515-8.885 7.286-7.364 12.866 1.514 5.59 7.278 8.892 12.871 7.358m109.906 49.239c0-4.156.213-8.263.627-12.312-29.438 17.887-67.814 39.939-97.787 52.746-5.327 2.28-7.796 8.434-5.522 13.768a10.49 10.49 0 0 0 9.65 6.369c1.377 0 2.777-.275 4.122-.842 27.386-11.718 61.274-30.707 89.523-47.556a121 121 0 0 1-.613-12.173m74.51-250.155c-37.917 3.934-70.342 27.636-95.327 55.151-4.757 5.246-9.028 10.879-13.631 16.25-6.023 7.042-12.607 13.623-19.485 19.829-7.069 6.386-12.791 10.948-21.127 15.746-8.847 5.068-17.865 10.201-27.027 14.666-3.153 1.54-5.865 2.534-9.41 3.601-5.467 1.646-8.863 7.289-7.321 12.902 1.483 5.411 7.424 8.975 12.902 7.332 10.722-3.23 20.441-8.752 30.117-14.252 8.183-4.646 16.301-8.833 23.813-14.55 14.65-11.135 27.252-24.137 38.844-38.373 4.697-5.765 9.713-11.251 14.96-16.525 2.861-2.876 5.818-5.649 8.844-8.366a210 210 0 0 1 4.793-4.149q1.227-1.029 2.485-2.045c.213-.178 1.843-1.461 2.255-1.793 7.305-5.595 15.087-10.568 23.275-14.771 7.734-3.979 15.49-6.756 24.902-8.721 3.123-.648 3.803-.718 6.138-.956 5.683-.586 10.487-4.328 10.487-10.484 0-5.28-4.793-11.082-10.487-10.492"/><path d="M51.445 300.867c13.922-4.779 63.021-22.953 114.054-57.316 14.353-30.099 40.872-53.322 73.158-63.269 6.34-7.227 12.397-14.798 18.062-22.738 3.358-4.713 2.269-11.257-2.449-14.628-4.716-3.363-11.271-2.267-14.635 2.448-61.784 86.615-173.28 128.203-195.007 135.677-.464.15-.751.248-.851.281-5.417 2.062-8.145 8.114-6.092 13.528 1.588 4.192 5.576 6.765 9.814 6.765 1.184 0 2.396-.195 3.574-.617zm119.327 55.535a119.6 119.6 0 0 1-9.196-19.049c-3.44 2.251-7.009 4.598-10.725 7.045-26.179 17.262-55.862 36.825-68.769 40.299-5.592 1.514-8.906 7.262-7.402 12.854 1.261 4.689 5.494 7.764 10.125 7.764.902 0 1.817-.113 2.725-.355 16.185-4.367 44.692-23.156 74.873-43.045 2.727-1.8 5.532-3.647 8.369-5.513m139.784 58.27c-2.114-.764-4.56-1.867-7.245-3.221a120 120 0 0 1-29.371 3.666c-2.133 0-4.251-.059-6.356-.168 13.534 8.344 26.191 15.965 35.858 19.467 5.435 1.967 11.453-.854 13.42-6.311 1.967-5.459-.849-11.466-6.306-13.433m-119.866-33.19c-14.76 9.119-34.594 23.168-60.247 41.904-5.6 4.078-10.431 7.605-13.783 9.979-4.725 3.35-5.854 9.887-2.518 14.619a10.5 10.5 0 0 0 8.577 4.438c2.091 0 4.204-.627 6.041-1.918 3.484-2.465 8.376-6.045 14.047-10.168 14.189-10.367 46.716-34.113 65.317-44.916a121 121 0 0 1-17.434-13.938m84.452 85.327c-5.896-3.846-11.304-7.715-16.556-11.441-17.191-12.291-32.06-22.904-48.355-20.066-18.35 3.17-47.568 32.557-53.244 38.402a10.496 10.496 0 0 0 7.529 17.791c2.744 0 5.483-1.064 7.537-3.193 14.047-14.512 34.003-30.99 41.745-32.33 7.65-1.318 19.229 6.916 32.611 16.469 5.155 3.684 11.001 7.844 17.269 11.939 4.847 3.166 11.352 1.799 14.517-3.053 3.16-4.858 1.787-11.347-3.053-14.518"/><path d="m454.778 451.717-94.13-94.131c14.188-17.851 22.678-40.424 22.678-64.946 0-57.654-46.905-104.559-104.559-104.559S174.208 234.986 174.208 292.64s46.905 104.558 104.559 104.558c18.336 0 35.58-4.75 50.578-13.074l96.514 96.514a20.4 20.4 0 0 0 14.459 5.988 20.4 20.4 0 0 0 14.459-5.988c7.986-7.988 7.986-20.935.001-28.921M227.075 346.916q-.438 1.377-1.5 1.377a1.3 1.3 0 0 1-.44-.076c-.283-.272-.576-.536-.855-.814a3 3 0 0 1-.198-.443q-.445-1.335-.445-4.896 0-3.588.445-4.938.444-1.348 1.493-1.349 1.047 0 1.493 1.4.444 1.4.444 4.887.001 3.475-.437 4.852m118.601-15.654c-2.321.104-4.072.961-5.237 2.591-1.184 1.655-1.798 4.224-1.854 7.677a77 77 0 0 1-4.749 5.279v-15.268h-5.11l-7.205 5.871 2.941 3.619 2.383-1.968q.79-.703 1.321-1.349a72 72 0 0 0-.086 3.703v10.691c-13.392 11.123-30.583 17.822-49.312 17.822-18.805 0-36.057-6.758-49.473-17.961.786-.424 1.454-1 1.992-1.747q1.866-2.591 1.866-8.16 0-5.383-1.916-8.103t-5.663-2.721q-3.847 0-5.713 2.612c-1.048 1.467-1.648 3.647-1.814 6.526a78 78 0 0 1-2.806-3.783c-.307-1.021-.713-1.904-1.229-2.637a6.3 6.3 0 0 0-1.447-1.471 76.8 76.8 0 0 1-10.172-27.947c.094.156.185.315.287.461q1.909 2.705 5.67 2.705 3.846 0 5.713-2.59t1.866-8.162q0-5.382-1.916-8.103c-1.916-2.721-3.165-2.72-5.663-2.72q-3.847 0-5.713 2.611-.689.968-1.123 2.34c.2-10.092 2.322-19.724 6.051-28.521.256.021.515.037.785.037q3.846 0 5.713-2.591 1.866-2.59 1.866-8.16-.001-2.064-.284-3.734c14.01-19.804 37.074-32.771 63.123-32.771 25.082 0 47.402 12.017 61.532 30.587l-1.556 1.268 2.942 3.617 1.327-1.096a76 76 0 0 1 2.29 3.648v8.944h4.553a76.9 76.9 0 0 1 6.205 30.324 76.8 76.8 0 0 1-10.385 38.63m-139.263-34.305q0-3.587.445-4.938.444-1.349 1.493-1.35 1.047 0 1.493 1.398.445 1.4.445 4.889 0 3.473-.438 4.853-.438 1.377-1.5 1.378-1.049 0-1.493-1.336-.446-1.332-.445-4.894"/><path d="M223.494 248.852q.79-.703 1.321-1.35a73 73 0 0 0-.086 3.703v11.11h5.756V241.33h-5.11l-7.206 5.872 2.943 3.617zm19.307-7.823q-3.847 0-5.713 2.613t-1.867 8.21q0 5.341 1.91 8.045 1.908 2.707 5.67 2.706 3.847 0 5.712-2.591 1.865-2.59 1.865-8.16 0-5.382-1.916-8.103t-5.661-2.72m1.5 15.674q-.438 1.38-1.5 1.379-1.048 0-1.493-1.336-.445-1.334-.445-4.895 0-3.589.445-4.938.445-1.35 1.493-1.351 1.047.001 1.493 1.399.445 1.4.445 4.888-.001 3.478-.438 4.854m13.643-7.851q.79-.703 1.32-1.35a71 71 0 0 0-.086 3.703v11.11h5.756V241.33h-5.11l-7.206 5.872 2.942 3.617zm19.306-7.823q-3.847 0-5.712 2.613-1.866 2.613-1.866 8.21.001 5.341 1.909 8.045 1.91 2.707 5.67 2.706 3.848 0 5.713-2.591 1.866-2.59 1.866-8.16 0-5.382-1.917-8.103-1.916-2.72-5.663-2.72m1.5 15.674q-.438 1.38-1.5 1.379-1.046 0-1.493-1.336-.445-1.334-.444-4.895 0-3.589.444-4.938.446-1.35 1.493-1.351 1.048.001 1.493 1.399.445 1.4.445 4.888 0 3.478-.438 4.854m15.726-15.674q-3.847 0-5.713 2.613t-1.866 8.21q0 5.341 1.91 8.045 1.908 2.707 5.669 2.706 3.846 0 5.713-2.591c1.867-2.591 1.866-4.447 1.866-8.16q0-5.382-1.917-8.103-1.915-2.72-5.662-2.72m1.5 15.674q-.438 1.38-1.5 1.379-1.048 0-1.493-1.336-.444-1.334-.444-4.895 0-3.589.444-4.938.445-1.35 1.493-1.351 1.047.001 1.493 1.399.445 1.4.444 4.888 0 3.478-.437 4.854m13.644-7.851q.79-.703 1.321-1.35a72 72 0 0 0-.086 3.703v11.11h5.756V241.33h-5.11l-7.207 5.872 2.943 3.617zm11.899-1.651 2.941 3.617 2.383-1.967a12 12 0 0 0 1.321-1.35 72 72 0 0 0-.086 3.703v11.11h5.756V241.33h-5.109zm-95.944 38.934q-3.847 0-5.713 2.611-1.866 2.613-1.866 8.211 0 5.341 1.909 8.045 1.91 2.707 5.67 2.707 3.847 0 5.713-2.592c1.866-2.592 1.866-4.447 1.866-8.16q0-5.382-1.916-8.104-1.917-2.72-5.663-2.718m1.5 15.676q-.438 1.377-1.5 1.378-1.048.001-1.493-1.336-.445-1.334-.445-4.896 0-3.587.445-4.938.444-1.349 1.493-1.35 1.047 0 1.493 1.398.444 1.4.444 4.889.001 3.475-.437 4.855m14.879 5.611h5.756v-20.985h-5.11l-7.206 5.871 2.942 3.616 2.383-1.967q.789-.702 1.32-1.349a72 72 0 0 0-.086 3.703zm18.071-21.287q-3.847 0-5.713 2.611-1.866 2.613-1.866 8.211 0 5.341 1.909 8.045 1.909 2.707 5.67 2.707 3.846 0 5.713-2.592 1.867-2.59 1.866-8.16-.001-5.382-1.916-8.104-1.916-2.718-5.663-2.718m1.501 15.676q-.438 1.377-1.5 1.378-1.048.001-1.493-1.336-.444-1.334-.444-4.896 0-3.587.444-4.938.445-1.349 1.493-1.35 1.047 0 1.493 1.398.443 1.4.443 4.889 0 3.475-.436 4.855m8.318-9.503 2.941 3.616 2.383-1.967q.79-.702 1.32-1.349a73 73 0 0 0-.086 3.703v11.11h5.756v-20.985h-5.11zm24.632-6.173q-3.847 0-5.713 2.611-1.866 2.613-1.866 8.211 0 5.341 1.91 8.045 1.908 2.707 5.669 2.707 3.846 0 5.713-2.592c1.867-2.592 1.866-4.447 1.866-8.16q0-5.382-1.917-8.104-1.915-2.718-5.662-2.718m1.5 15.676q-.438 1.377-1.5 1.378-1.048.001-1.493-1.336-.444-1.334-.444-4.896 0-3.587.444-4.938.445-1.349 1.493-1.35 1.047 0 1.493 1.398.445 1.4.444 4.889 0 3.475-.437 4.855m15.725-15.676q-3.847 0-5.713 2.611-1.866 2.613-1.866 8.211 0 5.341 1.909 8.045 1.908 2.707 5.67 2.707 3.846 0 5.713-2.592c1.867-2.592 1.866-4.447 1.866-8.16q-.001-5.382-1.916-8.104-1.917-2.72-5.663-2.718m1.5 15.676q-.438 1.377-1.5 1.378-1.049.001-1.493-1.336-.445-1.334-.445-4.896 0-3.587.445-4.938.444-1.349 1.493-1.35 1.047 0 1.493 1.398.444 1.4.443 4.889.002 3.475-.436 4.855m8.318-9.503 2.941 3.616 2.383-1.967a12 12 0 0 0 1.321-1.349 72 72 0 0 0-.086 3.703v11.11h5.756v-20.985h-5.109zm24.632-6.173q-3.848 0-5.713 2.611-1.867 2.613-1.866 8.211 0 5.341 1.909 8.045 1.908 2.707 5.67 2.707 3.846 0 5.713-2.592c1.867-2.592 1.866-4.447 1.866-8.16q0-5.382-1.916-8.104-1.916-2.718-5.663-2.718m1.5 15.676q-.438 1.377-1.5 1.378-1.048.001-1.493-1.336-.444-1.334-.444-4.896 0-3.587.444-4.938.445-1.349 1.493-1.35 1.046 0 1.493 1.398.443 1.4.443 4.889.002 3.475-.436 4.855m-104.85 29.431q-3.847 0-5.713 2.611-1.867 2.613-1.867 8.211 0 5.34 1.91 8.046t5.67 2.706q3.847 0 5.712-2.591t1.865-8.16q0-5.383-1.916-8.103-1.916-2.721-5.661-2.72m1.5 15.674q-.438 1.377-1.5 1.377-1.048 0-1.493-1.334t-.445-4.896q0-3.588.445-4.938.445-1.348 1.493-1.349 1.047 0 1.493 1.4.445 1.4.445 4.887-.001 3.476-.438 4.853m8.318-9.502 2.942 3.617 2.383-1.967q.79-.703 1.32-1.35a71 71 0 0 0-.086 3.703v11.11h5.756v-20.985h-5.11zm17.225 0 2.941 3.617 2.383-1.967q.79-.703 1.32-1.35a73 73 0 0 0-.086 3.703v11.11h5.756v-20.985h-5.11zm17.225 0 2.943 3.617 2.383-1.967q.788-.703 1.32-1.35a72 72 0 0 0-.087 3.703v11.11h5.757v-20.985h-5.11zm24.632-6.172q-3.847 0-5.713 2.611-1.866 2.613-1.866 8.211 0 5.34 1.909 8.046 1.908 2.706 5.67 2.706 3.846 0 5.713-2.591c1.867-2.591 1.866-4.447 1.866-8.16q-.001-5.383-1.916-8.103-1.917-2.721-5.663-2.72m1.5 15.674q-.438 1.377-1.5 1.377-1.049 0-1.493-1.334t-.445-4.896q0-3.588.445-4.938.444-1.348 1.493-1.349 1.047 0 1.493 1.4.444 1.4.443 4.887.002 3.476-.436 4.853"/></g></svg>