<svg xmlns="http://www.w3.org/2000/svg" xml:space="preserve" viewBox="0 0 512 512"><path d="M103.98 16.49C37.51 49.73.25 136.34 22.4 209.86 33.48 247.13 236.92 512 255.05 512c14.1 0 211.5-248.76 226.6-287.03 19.14-44.31 19.14-76.54 0-123.88-22.15-51.36-52.37-81.57-97.69-93.66-32.23-8.06-46.33-6.04-83.59 10.07-44.31 19.14-45.32 19.14-84.6 0-48.34-23.16-66.47-23.16-111.79-1.01m111.79 175.24 39.28 31.22 40.29-32.23c22.16-18.13 45.32-31.22 51.36-29.21 11.08 4.03-77.55 128.91-90.64 128.91-8.06 0-101.72-114.81-101.72-124.88 0-14.09 24.17-4.02 61.43 26.19"/></svg>