<svg xmlns="http://www.w3.org/2000/svg" xml:space="preserve" viewBox="0 0 266 266"><linearGradient id="a" x1="45.042" x2="231.718" y1="36.282" y2="222.958" fill="#000" gradientTransform="matrix(1 0 0 -1 -5.38 262.62)" gradientUnits="userSpaceOnUse"><stop offset="0" style="stop-color:#fff"/><stop offset="0" style="stop-color:#b8edff"/><stop offset="1" style="stop-color:#d4b8ff"/></linearGradient><circle cx="133" cy="133" r="132" style="fill:url(#a)"/><path d="m224.2 176.5-4 24.2M41.9 177.5l14.8 14m95.8-137.7L56.6 191.3v.1h.1l163.4 9.4s.1 0 .1-.1v-.1L152.6 53.9c0-.1-.1-.1-.1-.1zm-19.8-13.2L41.8 177.3c0 .1 0 .1.1.2h.1l182.2-.8c.1 0 .1-.1.1-.1v-.1L132.9 40.6c0-.1-.1-.1-.2 0q.15-.15 0 0zm.1-.2 19.8 13.3" style="fill:none;stroke:#fff;stroke-width:6;stroke-miterlimit:10"/></svg>