<?xml version="1.0" encoding="UTF-8"?>
<svg id="_图层_1" data-name="图层_1" xmlns="http://www.w3.org/2000/svg" version="1.1" viewBox="0 0 1024 1024">
  <!-- Generator: Adobe Illustrator 29.6.1, SVG Export Plug-In . SVG Version: 2.1.1 Build 9)  -->
  <defs>
    <style>
      .st0 {
        fill: #949393;
      }

      .st1 {
        fill: #e99d77;
      }

      .st2 {
        fill: none;
      }

      .st3 {
        fill: #325782;
      }

      .st4 {
        fill: #81afd2;
      }

      .st5 {
        fill: #6794bc;
      }

      .st6 {
        fill: #d57d60;
      }

      .st7 {
        fill: #fefefe;
      }
    </style>
  </defs>
  <path class="st4" d="M655.1,568.1c-1.7-14.9-4.5-29-8.2-42.1-2.5-11.8-5.5-22.8-8.8-32.9-6.3-19.3-12.8-38.5-19.6-57.6-5.3-15.4-11.2-30.4-14.1-46.5-3.2-17.8,3.4-33.8,14.7-47.7l-10.6-11.6-7.7-8.4c-1.2-1-1.5-2.1-.9-3.4,3.8-8.8,10.3-15.5,18.5-26.3.8-1.1,1-2.6.4-3.9-7.5-16.4-16.2-29.4-32.2-38.6-19-10.9-39.6-14.8-61.8-11.9-32.9,4.4-60.5,27.5-69.5,59.4-9,31.7-10.6,67.6-14.1,100.8-1.2,11.1-2.7,21.3-4.7,30.7-4.9,23.2-10.2,41.4-20.6,61.9-.4.8-.5,1.4-.5,1.9,0,.1,0,.2,0,.3.2.4.7.5,1.1.3,11.7-6.6,24.3-11.4,37.8-14.3,8.8-1.9,18.6-2.5,29.4-1.8,9.9.7,19.6,2.3,29.1,4.9,14.6,5.4,27.3,13.2,38.1,23.3,10.8,10.1,19,22.5,24.6,37.1,15.8,41.2,5.3,86.8-23.1,120.5-15,16.9-31.9,31-50.7,42.4-1.5.9-3.1,1.3-4.7,1.1-3.5,3.4-8,6.3-13.4,8.6-10.9,4.7-20,9.3-28.2,11.5-1.6.4-2.8.9-3.7,1.5-14.7,4.2-29,8.1-43,11.4-3.2.8-6,1-8.3.9-20.2,4.1-35.5,6.6-45.9,7.5-.8,0-1.6.1-2.3.2-12.8.9-34.3,1.1-64.3.6-18.6-.3-41.7-2.7-69.3-7.2-4.7,5.2-9.7,9.6-14.9,13.3l-106.9,82.5c-.1,0-.2.2-.3.4-.3.6,0,1.3.5,1.6l56.1,29.2,51.2,25.7c.9.4,1.9.2,2.5-.6l86.4-115.5c1.1-.3,2.1-.4,3-.1,31,7.8,62.1,12.7,93.3,14.7.4,0,.7.3.8.6,3.4,10.4,8.8,19.6,16.1,27.7,7.4,8.3,17.3,12.4,29.7,12.5,3.5-.4,5.8-.8,6.8-1.2,3.6-1.3,5.8-2.3,6.6-2.9,1.4-1,2.9-1.7,4.5-2,7.7-4.7,14.5-10.7,20.4-18.1.2-.2.5-.4.8-.5.6-.2.9-.2,1.1,0l16.7-27.5c.4-.7,1.1-1.2,1.9-1.3,9.3-1.9,18-4.6,26.2-7.9,13.3-5.5,27.7-12,40.9-20.2.3-.2.6-.1.9.3l.7-1.2c.2-.3.5-.6.8-.8,9.3-5.3,19.4-13,30.4-23.2,44-40.9,67.6-98.1,60.7-158.1ZM570.4,303.5c-.6,1.1-1.3,2.1-2,3-1.1,1.4-2.5,2.6-4,3.7-1,.7-2.1,1.3-3.2,1.7-1.7.7-3.5,1.2-5.4,1.4-.6,0-1.3,0-1.9,0-10.5,0-18.9-8.5-18.9-18.9s8.5-18.9,18.9-18.9,1.3,0,1.9,0c1.9.2,3.7.7,5.4,1.4,1.1.5,2.2,1.1,3.2,1.7,1.5,1,2.9,2.2,4,3.7.8.9,1.5,2,2,3,1.5,2.7,2.3,5.8,2.3,9s-.8,6.3-2.3,9ZM554.8,661.5s0,0,0,0c0,0,0,0,0,0h0s0,0,0,0c0,0,0,0,0,0,0,0,0,0,0,0Z"/>
  <path class="st7" d="M572.7,294.5c0,3.3-.8,6.3-2.3,9-.6,1.1-1.3,2.1-2,3-1.2,1.4-2.5,2.6-4,3.7-1,.7-2.1,1.3-3.2,1.7-1.7.7-3.5,1.2-5.4,1.4-.6,0-1.3,0-1.9,0-10.5,0-18.9-8.5-18.9-18.9s8.5-18.9,18.9-18.9,1.3,0,1.9,0c1.9.2,3.7.7,5.4,1.4,1.1.5,2.2,1.1,3.2,1.7,1.5,1,2.9,2.2,4,3.7.8.9,1.4,2,2,3,1.5,2.7,2.3,5.8,2.3,9Z"/>
  <path class="st2" d="M241.4,782.8c0,.1,0,.3,0,.4,0-.1,0-.3,0-.4Z"/>
  <path class="st2" d="M260.5,766.2c0,0,0,.1,0,.2,0,0,0-.1,0-.2Z"/>
  <path class="st2" d="M241.3,782.4c0,0,0,.1,0,.2,0,0,0-.1,0-.2Z"/>
  <path class="st2" d="M260.5,767s0,0,0,0c0,0,0,0,0,0Z"/>
  <path class="st2" d="M543.1,294c0-.7.2-1.5.3-2.2-.2.7-.3,1.4-.3,2.2Z"/>
  <path class="st2" d="M475.9,808.1c-.1-.2-.5-.2-1.1,0-.3.1-.6.3-.8.5-5.9,7.4-12.7,13.4-20.4,18.1l.3,57.9c0,.9.7,1.6,1.5,1.6l22.2,1.1c1,0,2-.1,2.9-.5,8.2-3.3,15-3.9,24.1-5.1.5,0,.9-.5.9-1.1l1.1-58.9c-12.3,1.6-22.5-3-30.8-13.6Z"/>
  <path class="st2" d="M261.3,765.7c-.2,0-.3,0-.4,0,.1,0,.3-.1.4,0Z"/>
  <path class="st2" d="M568.4,282.4c-1.2-1.4-2.5-2.6-4-3.7,1.5,1,2.9,2.3,4,3.7Z"/>
  <path class="st2" d="M543.1,295.1c0-.4,0-.7,0-1.1,0,.4,0,.7,0,1.1Z"/>
  <path class="st2" d="M546.8,286.3c-1.1,1-2,2.2-2.7,3.5.6-1.3,1.5-2.5,2.7-3.5Z"/>
  <path class="st2" d="M555.7,275.7c1.9.2,3.7.7,5.4,1.4-1.7-.7-3.5-1.2-5.4-1.4Z"/>
  <path class="st2" d="M561.2,277c1.1.5,2.2,1.1,3.2,1.7-1-.7-2.1-1.3-3.2-1.7Z"/>
  <path class="st2" d="M260.5,766.1c0-.1.2-.2.3-.3-.1,0-.2.2-.3.3Z"/>
  <path class="st2" d="M260.4,766.6s0,0,0,0c0,0,0,0,0,0,0,0,0,0,0,0Z"/>
  <path class="st2" d="M241.1,782c0,0-.2-.2-.3-.2.1,0,.2.1.3.2,0,0,0,0,0,0Z"/>
  <path class="st2" d="M563.6,288.4c1.4,1.9,2.1,4.2,2.2,6.4,0-2.2-.8-4.4-2.2-6.4h0c-2.8-3.9-7.5-5.6-11.8-4.7,4.3-.9,9,.8,11.8,4.7Z"/>
  <path class="st2" d="M545.2,301.5c.5.6,1,1.2,1.5,1.8-.6-.5-1.1-1.1-1.5-1.8h0Z"/>
  <path class="st2" d="M543.4,297.3c-.2-.7-.3-1.4-.3-2.1,0,.7.1,1.4.3,2.1Z"/>
  <path class="st2" d="M543.4,291.8c.2-.7.4-1.4.7-2.1-.3.7-.6,1.3-.7,2.1Z"/>
  <path class="st2" d="M565.6,297.2c-.1.6-.3,1.3-.5,1.9.2-.6.4-1.3.5-1.9Z"/>
  <path class="st2" d="M568.4,282.4c.8.9,1.5,1.9,2,3-.6-1.1-1.3-2.1-2-3Z"/>
  <path class="st3" d="M543.4,297.3c.3,1.5,1,2.9,1.9,4.2.5.6,1,1.2,1.5,1.8.6.5,1.2,1,1.8,1.4s1.3.7,2,1c.7.3,1.4.5,2.1.6,2.9.5,5.9,0,8.4-1.9.6-.5,1.2-1,1.7-1.5s1-1.1,1.3-1.8c.4-.6.7-1.3.9-2,.2-.6.4-1.3.5-1.9.1-.8.2-1.6.2-2.4,0-2.2-.8-4.4-2.2-6.4-2.8-3.9-7.5-5.6-11.8-4.7-1.4.3-2.8.9-4.1,1.8-.3.2-.6.5-.9.7-1.1,1-2,2.2-2.7,3.5-.3.7-.6,1.3-.7,2.1-.2.7-.3,1.4-.3,2.2,0,.4,0,.7,0,1.1,0,0,0,0,0,0,0,.7.1,1.4.3,2.1Z"/>
  <path class="st3" d="M552.7,306.2c-.7-.1-1.4-.3-2.1-.6.7.3,1.4.5,2.1.6Z"/>
  <path class="st3" d="M565.1,299.1c-.2.7-.6,1.3-.9,2,.4-.6.7-1.3.9-2Z"/>
  <path class="st3" d="M552.7,306.2c2.9.5,5.9,0,8.4-1.9.6-.5,1.2-1,1.7-1.5-.5.6-1.1,1.1-1.7,1.5-2.5,1.8-5.6,2.4-8.4,1.9Z"/>
  <path class="st3" d="M565.7,294.8c0,.8,0,1.6-.2,2.4.1-.8.2-1.6.2-2.4Z"/>
  <path class="st3" d="M543.1,295.2s0,0,0,0c0,0,0,0,0,0Z"/>
  <path class="st3" d="M550.5,305.6c-.7-.3-1.4-.6-2-1,.6.4,1.3.7,2,1Z"/>
  <path class="st1" d="M666.9,330.6c-.2.2-.5.3-.7.3h0c-15.2,2.7-28.1,5.2-38.7,7.4-2.9.6-5.6,1.6-8.3,2.9l-10.7-11.7-7.7-8.4c.3.1.6.2,1,.2.1,0,.3,0,.4,0,.4,0,.7-.2,1-.4l25.5-18.9c.6-.4,1.3-.4,1.9,0,7.6,5.2,18.3,12.6,32,22.3,1.5,1.1,3,2.4,4.4,4,.5.6.5,1.6-.2,2.1Z"/>
  <path class="st5" d="M638,493.1c-6.3-19.3-12.8-38.5-19.6-57.6l-2.3-.9c-.4-.2-.9-.1-1.3,0-6.5,3.3-13.7,6.2-21.8,8.7-35.9,11.3-72.3,12.6-108.9,3.9-13.8-3.3-29.6-9.7-47.6-19.3-4.9,23.2-10.2,41.4-20.6,61.9-.4.8-.6,1.4-.5,1.9,0,.1,0,.2,0,.3.2.4.7.5,1.1.3,11.7-6.6,24.3-11.4,37.8-14.3,8.8-1.9,18.6-2.5,29.4-1.8,9.9.7,19.6,2.3,29.1,4.9,3.4-.6,6.7-1.2,10-1.8.7-.1,4.1.3,10.4,1.2,2.6.4,5.9,1.3,10.1,2.7,6.1,2,17.8,5.3,35.1,10,4.6,1.2,10.8,3.5,18.8,6.8,2.1.9,4.3,1.9,6.5,2.9,3.6,1.7,7.4,3.6,11.4,5.8,10.3,5.6,20.9,11.3,31.7,17.2-2.5-11.8-5.5-22.8-8.8-32.9Z"/>
  <path class="st7" d="M618.7,287.6c.6,1.3.4,2.8-.4,3.9-8.2,10.8-14.6,17.6-18.5,26.3-.6,1.3-.3,2.4.9,3.4.3.1.6.2,1,.2.5,0,1-.1,1.4-.4l25.5-18.9c.6-.4,1.3-.4,1.9,0-7.4-5.1-11.8-14.6-11.8-14.6Z"/>
  <path class="st7" d="M554.7,661.4s0,0,0,0c0,0,0,0,0,0,0,0,0,0,0,0Z"/>
  <path class="st7" d="M301.4,633.8c-3.2-4.3-6.2-9.5-8.9-15.4-.2-.4-.1-.9.2-1.3l-19.3,17.8h0c.3-.2.8-.1,1,.2,0,0,0,.1.1.2,5.1,9.1,10,17.8,16.5,26.5,27.5,37,63.9,63,109.2,77.9,2.4.2,5.1,0,8.4-.9,14-3.4,28.3-7.2,43-11.4-60.7-9.5-114.3-44.5-150.2-93.6Z"/>
  <path class="st7" d="M550.9,504.6c-10.8-10.1-23.5-17.9-38.1-23.3-9.5-2.6-19.2-4.2-29.1-4.9-10.8-.7-20.6-.1-29.4,1.8-13.5,2.9-26.2,7.7-37.8,14.3-.4.2-.9,0-1.1-.3,0-.1,0-.2,0-.3,0,0-67.3,70.1-93.4,96.2l2.3-2.3c.5-.5,1.2-.5,1.7,0,0,0,.2.2.2.3,12,23.6,25.7,45.4,44,63.7,34.6,34.5,76.8,53.2,126.8,56.2,1.6.2,3.2-.2,4.7-1.1,18.9-11.4,35.8-25.5,50.7-42.4,28.4-33.7,38.9-79.4,23.1-120.6-5.6-14.6-13.8-26.9-24.6-37.1Z"/>
  <path class="st3" d="M307.1,602.7l-4.4,4.4,4.4-4.4Z"/>
  <path class="st3" d="M310.3,599.6l-1.6,1.6c.5-.5,1-1,1.6-1.6Z"/>
  <path class="st3" d="M302,607.8l-5.8,5.8c1.4-1.4,3.2-3.2,5.8-5.8Z"/>
  <path class="st3" d="M294.6,615.3l-.7.7.7-.7Z"/>
  <path class="st3" d="M321.9,587.9l-9.5,9.5c2.8-2.8,5.9-5.9,9.4-9.4h0Z"/>
  <path class="st3" d="M296.1,613.8l-1,1c.3-.3.6-.6,1-1Z"/>
  <path class="st3" d="M293.8,616l-.5.5.5-.5Z"/>
  <path class="st3" d="M292.4,618.4c2.8,5.9,5.7,11,8.9,15.4,35.9,49.1,89.5,84.1,150.2,93.6.9-.6,2.2-1.1,3.7-1.5,8.2-2.2,17.4-6.8,28.2-11.5,5.4-2.3,9.9-5.2,13.4-8.6-50-3-92.2-21.7-126.8-56.2-18.3-18.3-32.1-40.1-44-63.7,0-.1-.1-.2-.2-.3-.5-.5-1.2-.5-1.7,0l-2.3,2.3h0c-3.6,3.6-6.7,6.7-9.4,9.5l-2.2,2.2c-.5.5-1.1,1.1-1.6,1.6l-1.5,1.5-4.4,4.4-.7.7c-2.5,2.5-4.4,4.4-5.8,5.8h-.1c-.4.5-.7.8-1,1.1l-.5.5-.7.7h0c-.2.2-.4.4-.5.5l-.7.7c-.3.3-.4.8-.2,1.3Z"/>
  <path class="st3" d="M291,661.8c-6.5-8.7-11.4-17.5-16.5-26.5,0,0,0-.1-.1-.2-.3-.3-.7-.3-1-.1,0,0-.1,0-.2.1-36.7,35-77.1,64.6-121.2,88.8,0,0-.2.1-.2.2-.3.3-.3.9,0,1.1.2.2.5.3,1.1.5,20.9,6.6,42.6,11.6,65.4,15,27.6,4.5,50.7,6.9,69.3,7.2,30.1.5,51.5.3,64.3-.6.7,0,1.5-.1,2.3-.2,10.4-.9,25.7-3.4,45.9-7.5-45.3-14.9-81.7-40.9-109.2-77.9Z"/>
  <path class="st5" d="M554.8,661.5s0,0,0,0c0,0,0,0,0,0,0,0-.1,0-.2,0-.7.4-1.4.7-2.1.8-15,16.9-31.9,31-50.7,42.4-1.5.9-3.1,1.3-4.7,1.1-3.5,3.4-8,6.3-13.4,8.6-10.9,4.7-20,9.3-28.2,11.5-1.6.4-2.8.9-3.7,1.5-14.7,4.3-29.1,8.1-43,11.4-3.2.8-6,1-8.4.9-20.2,4.1-35.5,6.6-45.9,7.5-.8,0-1.6.1-2.3.2-12.8.9-34.3,1.1-64.3.6-18.6-.3-41.7-2.7-69.3-7.2-4.7,5.2-9.7,9.6-14.9,13.3,10.6,12.2,23.1,21.5,37.4,27.8.1,0,.2.1.3.2,0,0,0,0,0,0,0,.1.2.2.2.3,0,0,0,.1,0,.2,0,0,0,.1,0,.2,0,.1,0,.3,0,.4,0,0,0,0,0,0,0,.1-.1.2-.2.3-12.1,12.1-24,23.7-35.5,34.7,0,0-8,7.8-23.8,23.4-9.2,9-18.9,17.8-29.1,26.3l51.2,25.7c.9.4,1.9.2,2.5-.6l86.4-115.5c.2-1-.5-1.6-1.9-1.9-9.8-2-16.9-3.9-21.5-5.7-2.8-1.1-6.3-.9-8.6-2.3-.1,0-.2-.2-.3-.3,0,0,0,0,0,0,0-.1,0-.2,0-.4,0,0,0,0,0,0,0,0,0,0,0,0,0,0,0-.1,0-.2,0,0,0-.1,0-.2,0,0,0,0,0,0,0,0,0,0,0,0,0-.1.2-.2.3-.3,0,0,0,0,0,0,.1,0,.3-.1.4,0,2,.2,6-.1,12.2-.8,4.7-.5,8.9-.7,12.4-.6,3.8.2,13.2,0,28.3-.4,15.1-.4,28.6-1.5,40.5-3,2.8-.4,6.2-1.3,9.3-1.7,9.4-1.1,17.6-2,24.5-2.9,4.1-.5,7.7-1,10.9-1.5,17.9-2.6,35.6-7.6,53.4-15,6.4-2.7,13.3-5.7,20.5-9.1,10.4-4.9,17.1-8.3,19.9-10.3,14.2-9.9,23.2-16.5,27-19.7,12.6-10.7,24.1-23.7,34.6-38.9,0,0,0-.1,0-.2Z"/>
  <path class="st5" d="M260.8,767.4c-.1,0-.2-.2-.3-.3,0,.1.2.2.3.3Z"/>
  <path class="st5" d="M260.5,766.2s0,0,0,0c0,0,0,0,0,0,0,0,0,0,0,0Z"/>
  <path class="st5" d="M260.4,766.5c0,0,0-.1,0-.2,0,0,0,.1,0,.2Z"/>
  <path class="st5" d="M260.4,766.6c0,.1,0,.3,0,.4,0-.1,0-.2,0-.4Z"/>
  <path class="st5" d="M260.9,765.8s0,0,0,0c0,0,0,0,0,0Z"/>
  <path class="st5" d="M554.5,661.4c0,0,.1,0,.2,0,0,0-.1,0-.2,0Z"/>
  <path class="st5" d="M554.8,661.5s0,0,0,0c0,0,0,0,0,0,0,0,0,0,0,0Z"/>
  <path class="st3" d="M561.6,751.2c-13.2,8.2-27.6,14.8-40.9,20.2-8.2,3.3-16.9,6-26.1,7.9-.8.2-1.5.6-1.9,1.3l-16.7,27.5c8.3,10.7,18.6,15.2,30.8,13.6,7.4-1,12-3.3,18.5-7,11.5-9.2,20.5-21,27.1-35.7,4.6-10.1,7.9-19.3,10.1-27.7-.2-.4-.5-.5-.9-.3Z"/>
  <g>
    <g>
      <rect class="st5" x="723.4" y="230.5" width="2.6" height="15.6" rx="1.2" ry="1.2" transform="translate(391.5 924.6) rotate(-82.3)"/>
      <path class="st5" d="M754.5,240.7h0c.7,0,1.3.6,1.3,1.3v14.9c0,.7-.6,1.3-1.3,1.3h0c-.7,0-1.3-.6-1.3-1.3v-14.9c0-.7.6-1.3,1.3-1.3Z" transform="translate(149.1 764.2) rotate(-58.7)"/>
      <path class="st5" d="M778.9,263.2h0c.8,0,1.5.7,1.5,1.5v13.7c0,.8-.7,1.5-1.5,1.5h0c-.8,0-1.5-.7-1.5-1.5v-13.7c0-.8.7-1.5,1.5-1.5Z" transform="translate(-31 427.8) rotate(-30.1)"/>
      <path class="st5" d="M791.1,291.3h0c.9,0,1.7.8,1.7,1.7v16c0,.9-.8,1.7-1.7,1.7h0c-.9,0-1.7-.8-1.7-1.7v-16c0-.9.8-1.7,1.7-1.7Z" transform="translate(-45 169) rotate(-11.9)"/>
      <path class="st5" d="M784.1,332h16.1c.7,0,1.3.6,1.3,1.3h0c0,.9-.6,1.4-1.3,1.4h-16.1c-.7,0-1.3-.6-1.3-1.3h0c0-.9.6-1.4,1.3-1.4Z" transform="translate(341.5 1065.2) rotate(-81.2)"/>
    </g>
    <g>
      <path class="st5" d="M712.2,281c.6,0,1.1-.5,1.1-1.1s-.5-1.1-1.1-1.1-1.1.5-1.1,1.1.5,1.1,1.1,1.1Z"/>
      <path class="st5" d="M727.1,285.1h-.1c0,.1,0,.1,0,.1-.1.1,0,.4,0,.5l12.2,9s0,0,0,0c.1.1.4,0,.5,0h.1c0-.1,0-.1,0-.1.7-1,.4-2.5-.8-3.3l-8.6-6.3c-1.2-.8-2.7-.7-3.4.2Z"/>
      <rect class="st5" x="746" y="306.1" width="3.2" height="16.1" rx="1.4" ry="1.4" transform="translate(-47.9 156.8) rotate(-11.6)"/>
      <path class="st5" d="M746.4,333.2c-.8,0-1.5,1.1-1.5,2.3,0,1.3.7,2.3,1.5,2.3s1.5-1.1,1.5-2.3c0-1.3-.7-2.3-1.5-2.3Z"/>
    </g>
    <g>
      <path class="st5" d="M729.5,182.3h0c.7,0,1.3.6,1.3,1.3v13.5c0,.7-.6,1.3-1.3,1.3h0c-.7,0-1.3-.6-1.3-1.3v-13.5c0-.7.6-1.3,1.3-1.3Z" transform="translate(466.8 897) rotate(-84.2)"/>
      <path class="st5" d="M761,188.9h.1c1,0,1.8.8,1.8,1.8v15.1c0,1-.8,1.8-1.8,1.8h-.1c-1,0-1.8-.8-1.8-1.8v-15.1c0-1,.8-1.8,1.8-1.8Z" transform="translate(278.1 819) rotate(-66.7)"/>
      <path class="st5" d="M789.3,206.7h.1c1,0,1.9.8,1.9,1.9v14c0,1-.8,1.9-1.9,1.9h-.1c-1,0-1.9-.8-1.9-1.9v-14c0-1,.8-1.9,1.9-1.9Z" transform="translate(156.6 734.4) rotate(-54.6)"/>
      <path class="st5" d="M813.5,229.4h.1c1.1,0,1.9.9,1.9,1.9v14.4c0,1.1-.9,1.9-1.9,1.9h-.1c-1.1,0-1.9-.9-1.9-1.9v-14.4c0-1.1.9-1.9,1.9-1.9Z" transform="translate(10.4 510.1) rotate(-35)"/>
      <path class="st5" d="M829.8,259h.1c1,0,1.9.8,1.9,1.9v14.9c0,1-.8,1.9-1.9,1.9h-.1c-1,0-1.9-.8-1.9-1.9v-14.9c0-1,.8-1.9,1.9-1.9Z" transform="translate(-39.1 342.7) rotate(-22.8)"/>
      <rect class="st5" x="836.7" y="292.1" width="3.1" height="18.4" rx="1.5" ry="1.5" transform="translate(-32.9 115.4) rotate(-7.7)"/>
      <rect class="st5" x="828.6" y="332.8" width="18.4" height="3" rx="1.4" ry="1.4" transform="translate(391.5 1118.2) rotate(-82.1)"/>
      <rect class="st5" x="827.3" y="360.5" width="8.5" height="3.4" rx="1.5" ry="1.5" transform="translate(199.9 1013.2) rotate(-69.4)"/>
    </g>
    <g>
      <rect class="st5" x="724.4" y="136.1" width="3" height="16.2" rx="1.5" ry="1.5" transform="translate(534 859) rotate(-86.2)"/>
      <path class="st5" d="M756.5,140.9h.2c1,0,1.8.8,1.8,1.8v13.4c0,1-.8,1.8-1.8,1.8h-.2c-1,0-1.8-.8-1.8-1.8v-13.4c0-1,.8-1.8,1.8-1.8Z" transform="translate(410.3 838.4) rotate(-74.5)"/>
      <rect class="st5" x="810.2" y="167" width="4.2" height="16.2" rx="2" ry="2" transform="translate(208 745.4) rotate(-55.5)"/>
      <rect class="st5" x="853.8" y="212.6" width="3.7" height="17.9" rx="1.8" ry="1.8" transform="translate(13.6 490.1) rotate(-32.2)"/>
      <path class="st5" d="M869.5,239.9h.1c1,0,1.9.8,1.9,1.9v15.5c0,1-.8,1.9-1.9,1.9h-.1c-1,0-1.9-.8-1.9-1.9v-15.5c0-1,.8-1.9,1.9-1.9Z" transform="translate(-25.1 383.5) rotate(-24.5)"/>
      <rect class="st5" x="877.7" y="271" width="3.4" height="17.1" rx="1.7" ry="1.7" transform="translate(-41.9 227.4) rotate(-14.4)"/>
      <path class="st5" d="M883.2,302.5h.1c.8,0,1.5.7,1.5,1.5v14.4c0,.8-.7,1.5-1.5,1.5h-.1c-.8,0-1.5-.7-1.5-1.5v-14.4c0-.8.7-1.5,1.5-1.5Z" transform="translate(-11.7 35.3) rotate(-2.3)"/>
      <rect class="st5" x="871.7" y="341.4" width="18.3" height="3.5" rx="1.7" ry="1.7" transform="translate(403.9 1159.4) rotate(-81)"/>
      <path class="st5" d="M865.2,373.9h15.7c1,0,1.8.8,1.8,1.8h0c0,1.1-.8,1.9-1.8,1.9h-15.7c-1,0-1.8-.8-1.8-1.8h0c0-1.1.8-1.9,1.8-1.9Z" transform="translate(248.8 1092.4) rotate(-72.2)"/>
      <path class="st5" d="M785.2,152.2h.4c1,0,1.9.8,1.9,1.9v12.9c0,1-.8,1.9-1.9,1.9h-.4c-1,0-1.9-.8-1.9-1.9v-12.9c0-1,.8-1.9,1.9-1.9Z" transform="translate(300.2 798.6) rotate(-64.3)"/>
      <path class="st5" d="M836.5,187.4h.1c1,0,1.9.8,1.9,1.9v13.9c0,1-.8,1.9-1.9,1.9h-.1c-1,0-1.9-.8-1.9-1.9v-13.9c0-1,.8-1.9,1.9-1.9Z" transform="translate(88.1 618.3) rotate(-42.6)"/>
    </g>
    <g>
      <rect class="st5" x="752" y="96.8" width="3.1" height="16.1" rx="1.5" ry="1.5" transform="translate(527 831.1) rotate(-80.6)"/>
      <rect class="st5" x="780.7" y="106.4" width="3.6" height="15.8" rx="1.8" ry="1.8" transform="translate(412.3 813.2) rotate(-70.4)"/>
      <path class="st5" d="M810.4,117.8h.1c1,0,1.9.8,1.9,1.9v11.8c0,1-.8,1.9-1.9,1.9h-.1c-1,0-1.9-.8-1.9-1.9v-11.8c0-1,.8-1.9,1.9-1.9Z" transform="translate(343.2 799.7) rotate(-64.1)"/>
      <path class="st5" d="M835.7,133.5h.2c1,0,1.8.8,1.8,1.8v11.5c0,1-.8,1.8-1.8,1.8h-.2c-1,0-1.8-.8-1.8-1.8v-11.5c0-1,.8-1.8,1.8-1.8Z" transform="translate(244.9 748.6) rotate(-55.4)"/>
      <path class="st5" d="M858.7,152h.1c1,0,1.7.8,1.7,1.7v13c0,1-.8,1.7-1.7,1.7h-.1c-1,0-1.7-.8-1.7-1.7v-13c0-1,.8-1.7,1.7-1.7Z" transform="translate(154 676.6) rotate(-46.8)"/>
      <path class="st5" d="M879.7,174.7h.1c1,0,1.9.8,1.9,1.9v13.6c0,1-.8,1.9-1.9,1.9h-.1c-1,0-1.9-.8-1.9-1.9v-13.6c0-1,.8-1.9,1.9-1.9Z" transform="translate(52.7 535) rotate(-34.8)"/>
      <path class="st5" d="M897.1,199.7h.2c1.1,0,1.9.9,1.9,1.9v13.8c0,1.1-.9,1.9-1.9,1.9h-.2c-1.1,0-1.9-.9-1.9-1.9v-13.8c0-1.1.9-1.9,1.9-1.9Z" transform="translate(6.7 444.2) rotate(-27.9)"/>
      <rect class="st5" x="918.7" y="257.2" width="3.5" height="16.7" rx="1.4" ry="1.4" transform="translate(-37.1 237.1) rotate(-14.4)"/>
      <path class="st5" d="M925.5,287h0c.9,0,1.6.7,1.6,1.6v14.2c0,.9-.7,1.6-1.6,1.6h0c-.9,0-1.6-.7-1.6-1.6v-14.2c0-.9.7-1.6,1.6-1.6Z" transform="translate(-24.8 93.4) rotate(-5.7)"/>
      <rect class="st5" x="913.9" y="354.6" width="17.3" height="3.2" rx="1.4" ry="1.4" transform="translate(408.7 1201.1) rotate(-79.8)"/>
      <path class="st5" d="M908.6,383h14.2c1,0,1.8.8,1.8,1.8h0c0,1.1-.8,1.9-1.8,1.9h-14.2c-1,0-1.8-.8-1.8-1.8h0c0-1.1.8-1.9,1.8-1.9Z" transform="translate(277.5 1146) rotate(-72.8)"/>
      <rect class="st5" x="722.1" y="93.4" width="2.5" height="16.5" rx="1.2" ry="1.2" transform="translate(582.8 818.5) rotate(-86.9)"/>
      <path class="st5" d="M910.7,228.4h.1c1,0,1.9.8,1.9,1.9v13c0,1-.8,1.9-1.9,1.9h-.1c-1,0-1.9-.8-1.9-1.9v-13c0-1,.8-1.9,1.9-1.9Z" transform="translate(-25.4 332.3) rotate(-20.4)"/>
      <rect class="st5" x="918.1" y="324.6" width="16.1" height="2.9" rx="1.4" ry="1.4" transform="translate(544.1 1230.6) rotate(-86.5)"/>
    </g>
  </g>
  <path class="st6" d="M599.9,906.8c-.1,0-.2.1-.4,0-2.4-.6-5.9-1.8-8.8-2.2-1.3-.2-7.5-.9-18.8-2.3-.4,0-.7.2-.7.6,0,.2,0,.3.1.4,3.1,4.9,5.1,9.6,5.8,14.4,0,.4-.2.8-.6.9-.2,0-.3,0-.5,0-1.6-.9-3.1-1.6-4.7-2.2-10.1-4-22.5-8.2-37.4-12.5-7.5-2.2-10.8-3.6-18.8-6.8-.3-.1-.6,0-.7.3,0,.2,0,.4.1.5.1.1.3.3.4.4-.7-.3-12.7-6.1-36.5-10.8,0,0,0,0,0,0,.8,0,1.5-.2,2.2-.5,8.2-3.3,15-3.9,24.1-5.1.5,0,.9-.5.9-1.1l1.1-58.9c7.4-1,12-3.3,18.5-7v65.1c0,.5.3.9.8.9,11.5,1.1,25.6,2.5,42.2,4.3,14.8,1.6,23.7,8.9,31.8,21.1.1.2,0,.5-.1.6Z"/>
  <path class="st1" d="M529.3,913.3c-.1,0-.2,0-.3,0-9.5-1.6-19.1-3.9-28.9-7.1-.5-.2-.8-.2-1-.2-.5,0-.8.5-.7,1,0,.2.1.3.3.5,4.7,4.5,6.9,9.7,6.8,15.7,0,.4-.4.8-.8.7-.1,0-.2,0-.3,0-5.4-3.1-13.1-6.1-19.3-8.1-11.6-3.6-23.9-8.1-36.9-13.3-3-1.2-6-1.7-9.1-1.5-14.5,1-29,3.1-43.4,6.5-.7.2-1.3-.3-1.5-.9,0-.2,0-.4,0-.6.9-2.6,3-5.1,5.2-7.4,5.6-5.8,11.7-9.1,18.1-9.9,8.2-1.1,13.7-1.8,16.7-2.1.5,0,.9-.5.9-1-.5-16.2-.4-32.7.2-49.4,0-1,.3-2.1.7-3.3,3.5-.4,5.8-.8,6.8-1.2,3.6-1.3,5.7-2.3,6.6-2.9,1.4-1,2.9-1.7,4.5-2l.3,57.9c0,.9.7,1.6,1.5,1.6l22.2,1.1c.2,0,.5,0,.7,0,0,0,0,0,0,0,23.7,4.8,35.7,10.5,36.5,10.8,0,0,0,0,0,0,1.7,1.6,4,2.6,5.9,4.3,3.2,2.8,6.1,6.1,8.5,10.1.2.3,0,.6-.2.7Z"/>
  <g>
    <path class="st2" d="M705.1,449.2c0,1.5-.5,3-1.4,4.1,1-1.1,1.5-2.6,1.4-4.1Z"/>
    <path class="st2" d="M700.6,455.2l-34.9,8.6c-.8.2-1.6-.1-2-.7.5.6,1.3.9,2,.7l34.9-8.6c.4,0,.8-.2,1.1-.4-.4.2-.7.3-1.1.4,0,0,0,0,0,0Z"/>
    <path class="st2" d="M702.7,454.2c-.2.2-.5.3-.8.5.3-.1.5-.3.8-.5Z"/>
    <path class="st2" d="M703.6,453.4c-.2.2-.4.4-.6.6.2-.2.4-.4.6-.6Z"/>
    <path class="st3" d="M789,883.9c-2.4-1.8-4.4-3-6-3.6-16.2-6.5-34.5-9.4-52.1-10.1-.5,0-.9-.4-.9-.9v-320.4c0-.7.5-1.3,1.2-1.4,17.1-2.8,31-9.2,42.8-22.9,14.2-16.5,20.9-38.2,17.1-60-1.1-6.3-2-10.6-2.8-12.9-2.2-7-10-10-14.1-2.5-1.3,2.3-1.7,4.6-1.2,6.8,1.5,6.4,2.4,8.8,2.8,14.5,1.2,16.6-3.7,35.3-16,46.6-12.8,11.8-33.4,19.4-51.2,14.6-23.6-6.3-37.8-21.1-42.6-44.6-1.2-5.8-.2-16.6-8-18.1-11.8-2.3-9.9,14.2-8.4,20.9,6.9,31.4,31.3,54.3,63.5,58.5.5,0,.9.5.9,1v319.6c0,.8-.6,1.4-1.4,1.4-14.8.4-28.9,2.7-42.4,7-5.5,1.7-16,7-17.8,13.4-4.2,15.1,30.2,22.1,40.5,23.7,19.3,3,38.8,3.3,58.7.7,10.3-1.3,20.2-3.9,29.8-7.8,10-4,20.5-14,7.8-23.6Z"/>
    <g>
      <path class="st7" d="M721.3,429.9l34.9-8.8-3.3-11-34.8,8.8c-2.8.7-4.4,3.5-3.7,6.2l.2.9c.7,2.9,3.7,4.7,6.6,3.9Z"/>
      <path class="st7" d="M716.4,411.2l34.4-8.7-3.3-11.2-34,8.6c-2.9.7-4.6,3.7-3.9,6.5l.2.8c.7,2.9,3.7,4.7,6.7,4Z"/>
      <path class="st7" d="M758.4,428.3l-35.2,8.9c-3.2.8-5.2,3.9-4.8,7.1v.6c.4,2.7,2.9,4.6,5.7,4.3.2,0,.3,0,.5,0,4.7-1.1,14.1-3.5,28.4-7.2,3.1-.8,5.9-1.9,8.5-3.2h0l-3.1-10.4Z"/>
      <path class="st7" d="M691,417.4s0,0,0,0c.4-.1.8-.2,1.2-.4,0,0,.2,0,.3-.1.3-.1.6-.3.8-.4,0,0,0,0,.2-.1,1.6-1.1,2.6-2.8,2.6-4.5,0-.3,0-.5,0-.8,0,0,0-.2,0-.3v-.3c0,0,0,0,0,0,0-.4-.2-.7-.4-1,0,0-.1-.2-.2-.2-.1-.2-.3-.5-.4-.7,0,0,0,0-.1-.1-.7-.8-1.6-1.3-2.6-1.6,0,0-.2,0-.3,0-.3,0-.6-.1-.9-.2-.8,0-1.6,0-2.5.2l-33.8,8.1c-.8.2-1.5.9-1.6,1.7,0,0,0,0,0,0,0,.1,0,.2,0,.3,0,0,0,0,0,0,0,.1,0,.3,0,.4l1.6,6.6s0,0,0,0c0,.3.2.5.3.7,0,0,0,0,0,0,0,0,0,0,0,0,.4.5,1,.8,1.7.8.1,0,.3,0,.4,0,0,0,0,0,0,0l33.8-8.1Z"/>
      <path class="st7" d="M693.8,436.7c1-.2,2-.6,2.8-1.1.3-.2.6-.4.8-.5.1,0,.2-.1.3-.2.3-.2.5-.5.8-.7,0,0,.1-.1.2-.2.2-.2.3-.3.4-.5.1-.1.2-.3.3-.4,0,0,0,0,0-.1.6-.9.8-2,.5-2.9l-.3-1.1h0c0-.4-.2-.7-.4-1,0,0,0,0-.1-.1-.2-.2-.3-.5-.5-.7-.1-.1-.3-.3-.5-.4-.1,0-.2-.2-.4-.3-1.6-1-4.1-1.4-6.7-.7l-32.5,7.6s0,0,0,0c-1.1.3-1.8,1.3-1.5,2.4l1.7,7.1s0,0,0,0c.2.9,1.1,1.6,2,1.5,0,0,0,0,0,0,.1,0,.3,0,.4,0,0,0,0,0,0,0l32.5-7.6s0,0,0,0Z"/>
      <path class="st7" d="M704.9,448c-.2-.9-.6-1.6-1.2-2.3-1.4-1.7-3.7-2.6-6-2l-34.9,8.6c-1.1.3-1.7,1.3-1.4,2.4l1.9,7.7c0,.3.2.5.3.7.5.6,1.3.9,2,.7l34.9-8.6s0,0,0,0c.4,0,.8-.2,1.1-.4,0,0,.1,0,.2-.1.3-.1.5-.3.8-.5,0,0,.2-.1.2-.2.2-.2.4-.4.6-.6,0,0,0,0,0-.1.9-1.1,1.5-2.6,1.4-4.1,0-.4,0-.8-.2-1.2,0,0,0,0,0,0Z"/>
      <path class="st0" d="M767.7,461.6c-1-7.6-2.5-14.6-4.6-20.9-.2-.5-.3-1-.5-1.5,0,0,0,0,0-.1l-11.2-42c-1.4-4.9-2.6-9-3.7-12.2-.1-.4-.2-.7-.4-1.1-5.2-14.5-19.9-27.3-34.5-29.2-12.7-1.6-26.3-.9-37.4,5.5-15.3,8.9-24.4,21.1-24.6,39.4-.1,6.8.6,13.6,2.3,20.2,2.6,10.8,5.2,25.2,6.4,32.5,1.6,10,5.2,18.9,8.2,28.4,2.5,8,7.3,15,14.4,21,15,12.8,32.1,16.2,51.2,10.1,22.1-7,37.6-26.4,34.5-50.1ZM656.7,425.5c-.7,0-1.3-.3-1.7-.8,0,0,0,0,0,0,0,0,0,0,0,0-.1-.2-.3-.4-.3-.7,0,0,0,0,0,0l-1.6-6.6c0-.1,0-.3,0-.4,0,0,0,0,0,0,0-.1,0-.2,0-.3,0,0,0,0,0,0,.1-.8.7-1.5,1.6-1.7l33.8-8.1c.9-.2,1.7-.2,2.5-.2.3,0,.6.1.9.2,0,0,.2,0,.3,0,1.1.3,2,.9,2.6,1.6,0,0,0,0,.1.1.2.2.3.4.4.7,0,0,.1.1.2.2.2.3.3.7.4,1,0,0,0,0,0,0v.3c0,0,0,.2,0,.3,0,.3,0,.5,0,.8,0,1.7-1,3.4-2.6,4.5,0,0,0,0-.2.1-.3.2-.5.3-.8.4,0,0-.2,0-.3.1-.4.2-.8.3-1.2.4,0,0,0,0,0,0l-33.8,8.1s0,0,0,0c-.1,0-.3,0-.4,0ZM660.9,444.4s0,0,0,0c-.9,0-1.8-.6-2-1.5,0,0,0,0,0,0l-1.7-7.1c-.3-1.1.4-2.2,1.5-2.4,0,0,0,0,0,0l32.5-7.6c2.6-.6,5-.3,6.7.7.1,0,.2.2.4.3.2.1.4.2.5.4.2.2.4.5.5.7,0,0,0,0,.1.1.2.3.3.6.4,1,0,0,0,0,0,0l.3,1.1c.2,1,0,2-.5,2.9,0,0,0,0,0,.1,0,.2-.2.3-.3.4-.1.2-.2.3-.4.5,0,0-.1.1-.2.2-.2.2-.5.5-.8.7,0,0-.2.1-.3.2-.3.2-.5.4-.8.5-.8.5-1.8.8-2.8,1.1,0,0,0,0,0,0l-32.5,7.6s0,0,0,0c-.1,0-.3,0-.4,0ZM703.7,453.3s0,0,0,.1c-.2.2-.4.4-.6.6,0,0-.2.2-.2.2-.2.2-.5.3-.8.5,0,0-.1,0-.2.1-.4.2-.7.3-1.1.4l-34.9,8.6c-.8.2-1.6-.1-2-.7-.2-.2-.3-.4-.3-.7l-1.9-7.7c-.3-1.1.4-2.1,1.4-2.4l34.9-8.6c2.3-.6,4.6.3,6,2,.5.7.9,1.4,1.2,2.3,0,0,0,0,0,0,0,.4.2.8.2,1.2,0,1.5-.5,3-1.4,4.1ZM709.7,407.3l-.2-.8c-.7-2.9,1-5.8,3.9-6.5l30.6-7.7c1.9-.5,3.8.6,4.4,2.5l1.2,4.2c.6,2-.6,4.1-2.6,4.6l-30.7,7.8c-2.9.7-5.9-1-6.7-4ZM714.7,426l-.2-.9c-.7-2.7,1-5.5,3.7-6.2l31.4-7.9c1.9-.5,3.8.6,4.4,2.5l1.2,4c.6,2-.6,4.1-2.6,4.6l-31.2,7.9c-2.9.7-5.9-1-6.6-3.9ZM759.4,439.6c-2,.9-4.2,1.6-6.5,2.2-14.3,3.7-23.7,6.1-28.4,7.2-.2,0-.3,0-.5,0-2.7.4-5.2-1.5-5.6-4.3v-.6c-.5-3.3,1.6-6.3,4.7-7.1l31.8-8c1.9-.5,3.8.6,4.4,2.5l1.2,4s1,3.1-1.2,4Z"/>
    </g>
  </g>
  <path class="st6" d="M666.9,330.6l-.7.3h0c-15.2,2.7-28.1,5.2-38.7,7.4-2.9.6-5.6,1.6-8.3,2.9l-10.7-11.7-7.7-8.4,1.4.2,64.7,9.2Z"/>
</svg>