<?xml version="1.0" encoding="UTF-8"?>
<svg version="1.1" xmlns="http://www.w3.org/2000/svg" width="508" height="436">
<path d="M0 0 C2.5603247 3.55113529 2.34537016 7.48011914 2.3125 11.6875 C2.30758545 12.43644531 2.3026709 13.18539063 2.29760742 13.95703125 C1.7490607 40.8723905 -8.47787156 70.55999287 -26.75 90.4375 C-39.2872306 102.30886858 -58.52606641 103.3271115 -75 104 C-76.60294922 104.06550049 -76.60294922 104.06550049 -78.23828125 104.13232422 C-86.15796176 104.44813318 -94.07851931 104.73343643 -102 105 C-112.90038608 148.49960351 -121.36855568 193.00051972 -122 238 C-122.02046387 239.31097656 -122.04092773 240.62195313 -122.06201172 241.97265625 C-123.18577499 290.30067683 -123.18577499 290.30067683 -101.8671875 332.32421875 C-94.54046427 339.22971921 -87.32615467 342.57211265 -77.23828125 343.09765625 C-55.95780413 342.45590483 -40.39335158 331.01245861 -26.18359375 316.359375 C-23.56816099 313.53339756 -21.03110192 310.65300959 -18.5703125 307.69140625 C-14.22396924 303.00989722 -10.30615094 301.87997378 -4.0625 301.5625 C0.41768256 301.59553969 0.41768256 301.59553969 2.7265625 303.19921875 C6.84401988 307.97884033 7.43876315 312.92814795 7.32421875 319.0078125 C4.58179265 344.31743169 -13.50451477 370.42944577 -30 389 C-31.00232655 390.2481352 -32.00279813 391.49776662 -33 392.75 C-54.88163534 418.06038162 -90.64502661 431.41960954 -123.0625 434.6875 C-149.112307 436.39335366 -174.72169953 433.63145659 -195.4609375 416.25 C-210.77122706 402.68272802 -219.61907695 388.11328138 -224.1875 368.1875 C-224.34250977 367.51372314 -224.49751953 366.83994629 -224.65722656 366.14575195 C-227.51079407 352.7591632 -228.3797997 339.39837997 -228.3125 325.75 C-228.30976578 324.58612762 -228.30976578 324.58612762 -228.30697632 323.39874268 C-228.00486007 246.25183211 -195.10608098 175.26520245 -167 105 C-209.24 104.67 -251.48 104.34 -295 104 C-295.66 109.61 -296.32 115.22 -297 121 C-297.54583066 124.73224452 -298.10777286 128.45028351 -298.72070312 132.1706543 C-298.88049652 133.1592897 -299.04028992 134.14792511 -299.20492554 135.16651917 C-299.72649936 138.38639492 -300.25357938 141.60533694 -300.78125 144.82421875 C-301.15816138 147.13675852 -301.53490711 149.4493253 -301.91149902 151.76191711 C-302.70241267 156.61278191 -303.4962373 161.46315955 -304.29199219 166.31323242 C-305.08732776 171.16247454 -305.87843559 176.01237095 -306.66503906 180.86303711 C-313.70651781 224.28109747 -321.26115589 267.61806542 -330.06958008 310.71679688 C-330.71020116 313.86143393 -331.33649089 317.00875229 -331.96289062 320.15625 C-348.79660939 403.6200511 -348.79660939 403.6200511 -377.875 424.6875 C-379.57094924 425.81059527 -381.27858254 426.91634474 -383 428 C-383.62519531 428.40347656 -384.25039063 428.80695313 -384.89453125 429.22265625 C-399.14646873 437.38879908 -418.36219543 436.39825935 -433.81835938 432.63818359 C-445.86533073 429.11414788 -456.49866708 422.53997685 -462.8125 411.5 C-468.62349376 398.6804766 -470.73739327 380.62641401 -466.05078125 367.27734375 C-464.16467596 363.1896137 -461.71503479 359.57800428 -459 356 C-458.43410156 355.20722656 -457.86820312 354.41445313 -457.28515625 353.59765625 C-454.33568922 350.2448433 -450.98927213 347.844397 -447.375 345.25 C-436.83447111 337.48936469 -428.0050492 329.41532861 -420 319 C-419.35546875 318.19433594 -418.7109375 317.38867188 -418.046875 316.55859375 C-375.77304194 261.65416422 -361.32380967 178.11909715 -350.91569519 111.34719849 C-350.10099638 106.20199276 -350.10099638 106.20199276 -349 104 C-414.10155309 105.4997639 -414.10155309 105.4997639 -470 135 C-473.16300313 138.54776022 -476.09155564 142.24278783 -479 146 C-484.5641791 152.78208955 -484.5641791 152.78208955 -487 154 C-493.07894737 154.5628655 -493.07894737 154.5628655 -496.25 152.625 C-500.88324847 145.67512729 -501.50263245 137.58045023 -501.375 129.4375 C-501.36412354 128.47932373 -501.35324707 127.52114746 -501.34204102 126.53393555 C-500.65376449 95.33812686 -486.33564008 64.42089998 -464.08984375 42.62329102 C-431.07730009 11.48254327 -386.4323395 9.87894091 -343.44335938 9.81054688 C-340.66389154 9.80313108 -337.88442884 9.7942523 -335.10496521 9.78541565 C-329.14009592 9.76716507 -323.17522611 9.75227851 -317.21034241 9.73963928 C-308.55264026 9.72120711 -299.89496395 9.69654282 -291.23728245 9.67026538 C-277.14208349 9.62756608 -263.04687725 9.58844428 -248.95166016 9.55224609 C-247.68912172 9.54900189 -247.68912172 9.54900189 -246.40107745 9.54569215 C-241.28655176 9.53256833 -236.17202585 9.51952721 -231.05749989 9.50651073 C-223.41642536 9.48705853 -215.77535111 9.46750214 -208.13427734 9.44775391 C-206.88057827 9.4445156 -206.88057827 9.4445156 -205.60155195 9.44121188 C-191.57407358 9.40486485 -177.54660767 9.36488696 -163.51914644 9.32245111 C-154.90500848 9.29656585 -146.29087388 9.27384451 -137.67671657 9.25546753 C-131.74950593 9.24261511 -125.82230999 9.22642608 -119.89511466 9.20781839 C-116.49681884 9.19726423 -113.09854893 9.18860125 -109.70023918 9.18312263 C-95.6142546 9.1595638 -81.54323202 8.99170308 -67.46472168 8.54284668 C-65.58236085 8.48350976 -65.58236085 8.48350976 -63.66197252 8.42297411 C-35.00881554 7.88631351 -35.00881554 7.88631351 -7.90234375 -0.265625 C-4.93589003 -1.41078578 -2.91771413 -1.13862015 0 0 Z " fill="#000000" transform="translate(501,1)"/>
</svg>
