<svg xmlns="http://www.w3.org/2000/svg" xml:space="preserve" id="Layer_1" x="0" y="0" version="1.1" viewBox="0 0 512 512"><style>.st0{fill:#f58127}.st1{fill:#fff}</style><g id="Symbole_24_1" transform="translate(-577 -446.516)"><path id="Tracé_3467" d="M593.6 831.6V606.5c0-70.1 56.8-126.9 126.9-126.9h298.2l36.4 17 17.3 36.9v298.1c0 70.1-56.8 126.9-126.9 126.9H720.4c-70 0-126.8-56.8-126.8-126.9" class="st0"/><path id="Tracé_3469" d="M984.7 446.5c47.5 0 87.6 38.3 87.6 85.8s-40.1 86.3-87.6 86.3-214.4-138.8-210.6-138.8-96.2-.3 32.2 0 123.1-32 178.4-33.3" class="st0"/><circle id="Ellipse_69" cx="986.6" cy="530.9" r="30.1" class="st1"/><circle id="Ellipse_67" cx="833" cy="719.1" r="142" class="st1"/><circle id="Ellipse_68" cx="833" cy="719.1" r="100.5" style="fill:#424242"/></g></svg>