<svg xmlns="http://www.w3.org/2000/svg" xml:space="preserve" viewBox="0 0 512 512"><linearGradient id="a" x1="522.328" x2="214.869" y1="497.767" y2="484.513" gradientTransform="matrix(.6401 .5371 .7693 -.9168 -499.12 475.68)" gradientUnits="userSpaceOnUse"><stop offset="0" style="stop-color:#ff5c34"/><stop offset="1" style="stop-color:#eb0256"/></linearGradient><path d="M256 256c-41.9-57.3-122-70.5-179-29.3S7.9 347.6 49.8 404.9l3.2 4.3c-68.3-89.4-71.7-214.7-3.6-306.6l1.2-1.6C92.8 45 173 34.2 229.7 77s68.5 122.9 26.3 179" style="fill:url(#a)"/><linearGradient id="b" x1="297.013" x2="409.819" y1="195.858" y2="461.966" gradientTransform="matrix(.9332 .783 .5277 -.6289 -326.97 299.689)" gradientUnits="userSpaceOnUse"><stop offset="0" style="stop-color:#a63fdb"/><stop offset="1" style="stop-color:#ff257e"/></linearGradient><path d="M256 256c-66.7 22.6-101.8 95-78.4 161.9s96.5 102.7 163.2 80.2l4.4-1.5c-82.9 29.7-179.6 15.4-252.6-45.9-15-12.6-28.2-26.5-39.7-41.5l-3.2-4.3C7.9 347.6 20.1 267.8 77 226.7s137.1-28 179 29.3" style="fill:url(#b)"/><linearGradient id="c" x1="526.922" x2="776.662" y1="557.506" y2="502.516" gradientTransform="matrix(.6731 .5648 .7316 -.8719 -472.875 447.687)" gradientUnits="userSpaceOnUse"><stop offset="0" style="stop-color:#00fff0"/><stop offset="1" style="stop-color:#0087ff"/></linearGradient><path d="M256 256c.4 70.5 58.1 128.1 128.8 128.5S512.4 328.1 512 257.6V256c.8 58.5-18.5 117.4-58.9 165.4-29.7 35.4-67.1 60.6-107.9 75.2l-4.4 1.5c-66.7 22.6-139.8-13.3-163.2-80.2S189.3 278.6 256 256" style="fill:url(#c)"/><linearGradient id="d" x1="561.674" x2="372.041" y1="757.16" y2="554.756" gradientTransform="matrix(.8028 .6736 .6133 -.731 -389.306 361.006)" gradientUnits="userSpaceOnUse"><stop offset="0" style="stop-color:#17c934"/><stop offset="1" style="stop-color:#03ff6e"/></linearGradient><path d="M256 256c67.4 22.2 139.3-14.1 160.8-81 21.4-67-15.8-139.2-83.2-161.4l-5.5-1.8c32.5 9.9 63.5 26.4 91.2 49.6 60.2 50.5 91.7 122.3 92.6 194.6v1.6c.4 70.5-56.5 127.4-127.2 126.9-70.6-.4-128.3-58-128.7-128.5" style="fill:url(#d)"/><linearGradient id="e" x1="313.405" x2="255.769" y1="458.084" y2="789.885" gradientTransform="matrix(.8728 .7323 .5642 -.6724 -353.784 325.631)" gradientUnits="userSpaceOnUse"><stop offset="0" style="stop-color:#ffb000"/><stop offset="1" style="stop-color:#ff7725"/></linearGradient><path d="M256 256c42.2-56.1 30.4-136.2-26.3-179S92.8 45 50.6 101l-1.2 1.6c3-4.1 6.2-8.1 9.5-12C126.2 10.5 233-17.2 328.1 11.7l5.5 1.8C401 35.7 438.2 108 416.8 175c-21.5 66.9-93.4 103.2-160.8 81" style="fill:url(#e)"/><g style="opacity:.5443" transform="rotate(112 33.705 24.279)"><linearGradient id="f" x1="1035.026" x2="1459.374" y1="-334.307" y2="-308.286" gradientTransform="matrix(-.3201 -1.0852 -.7922 .4384 -9.836 859.279)" gradientUnits="userSpaceOnUse"><stop offset="0" style="stop-color:#9ee85d"/><stop offset="1" style="stop-color:#0ed061"/></linearGradient><path d="m67.3-504.3 1.9-.8c65.9-26.3 140.9 5.1 167.5 70.2s-5.2 139.1-71.1 165.4c-.6-10.4-2.3-20.4-5.2-29.9 35.3-19.1 59.3-56.2 59.3-98.8 0-62.2-51.1-112.6-114-112.6-13.5-.1-26.4 2.2-38.4 6.5" style="fill:url(#f)"/><path d="m67.3-504.3 1.9-.8c65.9-26.3 140.9 5.1 167.5 70.2s-5.2 139.1-71.1 165.4c-.6-10.4-2.3-20.4-5.2-29.9 35.3-19.1 59.3-56.2 59.3-98.8 0-62.2-51.1-112.6-114-112.6-13.5-.1-26.4 2.2-38.4 6.5" style="fill-opacity:.4999"/></g><linearGradient id="g" x1="313.405" x2="255.769" y1="458.084" y2="789.885" gradientTransform="matrix(.8728 .7323 .5642 -.6724 -353.784 325.631)" gradientUnits="userSpaceOnUse"><stop offset="0" style="stop-color:#ffb000"/><stop offset="1" style="stop-color:#ff7725"/></linearGradient><path d="M256 256c42.2-56.1 30.4-136.2-26.3-179S92.8 45 50.6 101l-1.2 1.6c3-4.1 6.2-8.1 9.5-12C126.2 10.5 233-17.2 328.1 11.7l5.5 1.8C401 35.7 438.2 108 416.8 175c-21.5 66.9-93.4 103.2-160.8 81" style="opacity:.1;fill:url(#g)"/><linearGradient id="h" x1="119.825" x2="-89.437" y1="341.308" y2="332.286" gradientTransform="matrix(.7324 -.4401 -.6028 -1.0032 375.072 498.715)" gradientUnits="userSpaceOnUse"><stop offset="0" style="stop-color:#ff5c34"/><stop offset="1" style="stop-color:#eb0256"/></linearGradient><path d="m49.7 104.3 1.3-1.7c42.9-56.5 123.4-68.1 179.7-26.1s67.2 121.9 24.3 178.4c-5.8-8.6-12.5-16.3-19.9-23 20.4-34.6 21.9-78.7-.1-115.3-32.1-53.1-101.8-70-155.8-37.6-11.5 6.9-21.4 15.5-29.5 25.3" style="opacity:.1801;fill:url(#h)"/><g style="opacity:.1801" transform="rotate(-31 5.178 11.673)"><linearGradient id="i" x1="-64.845" x2="-274.107" y1="352.125" y2="343.104" gradientTransform="matrix(.7324 .6028 .4401 -1.0032 66.95 614.806)" gradientUnits="userSpaceOnUse"><stop offset="0" style="stop-color:#ff5c34"/><stop offset="1" style="stop-color:#eb0256"/></linearGradient><path d="m-3.7 116.3 1.9-.8c65.9-26.3 140.9 5.1 167.5 70.2s-5.2 139.1-71.1 165.4c-.6-10.4-2.3-20.4-5.2-29.9 35.3-19.1 59.3-56.2 59.3-98.8 0-62.2-51.1-112.6-114-112.6-13.5 0-26.5 2.3-38.4 6.5" style="fill:url(#i)"/><path d="m-3.7 116.3 1.9-.8c65.9-26.3 140.9 5.1 167.5 70.2s-5.2 139.1-71.1 165.4c-.6-10.4-2.3-20.4-5.2-29.9 35.3-19.1 59.3-56.2 59.3-98.8 0-62.2-51.1-112.6-114-112.6-13.5 0-26.5 2.3-38.4 6.5" style="fill-opacity:.7728"/></g><g style="opacity:.5842" transform="rotate(-103 14.085 34.04)"><linearGradient id="j" x1="-404.271" x2="-801.136" y1="-518.103" y2="-484.391" gradientTransform="matrix(-.1922 1.1404 .8325 .2633 174.73 682.921)" gradientUnits="userSpaceOnUse"><stop offset="0" style="stop-color:#a63fdb"/><stop offset="1" style="stop-color:#ff257e"/></linearGradient><path d="m-355.7-14.5 1.9-.8c65.9-26.3 140.9 5.1 167.5 70.2s-5.2 139.1-71.1 165.4c-.6-10.4-2.3-20.4-5.2-29.9 35.3-19.1 59.3-56.2 59.3-98.8 0-62.2-51.1-112.6-114-112.6-13.5-.1-26.4 2.2-38.4 6.5" style="fill:url(#j)"/><path d="m-355.7-14.5 1.9-.8c65.9-26.3 140.9 5.1 167.5 70.2s-5.2 139.1-71.1 165.4c-.6-10.4-2.3-20.4-5.2-29.9 35.3-19.1 59.3-56.2 59.3-98.8 0-62.2-51.1-112.6-114-112.6-13.5-.1-26.4 2.2-38.4 6.5" style="fill-opacity:.5031"/></g><g style="opacity:.5622" transform="rotate(-177.002 29.527 35.526)"><linearGradient id="k" x1="320.013" x2="224.777" y1="-854.815" y2="-1107.722" gradientTransform="matrix(-.8533 .06125 .04472 1.1688 146.908 815.596)" gradientUnits="userSpaceOnUse"><stop offset="0" style="stop-color:#21efe3"/><stop offset="1" style="stop-color:#2598ff"/></linearGradient><path d="m-307.2-408.3 1.9-.8c65.9-26.3 140.9 5.1 167.5 70.2s-5.2 139.1-71.1 165.4c-.6-10.4-2.3-20.4-5.2-29.9 35.3-19.1 59.3-56.2 59.3-98.8 0-62.2-51.1-112.6-114-112.6-13.5 0-26.4 2.3-38.4 6.5" style="fill:url(#k)"/><path d="m-307.2-408.3 1.9-.8c65.9-26.3 140.9 5.1 167.5 70.2s-5.2 139.1-71.1 165.4c-.6-10.4-2.3-20.4-5.2-29.9 35.3-19.1 59.3-56.2 59.3-98.8 0-62.2-51.1-112.6-114-112.6-13.5 0-26.4 2.3-38.4 6.5"/></g><path d="m331.7 12.9 2 .6C401 35.7 438.2 108 416.8 175S323.4 278.2 256 256c6.2-8.3 11.3-17.1 15.2-26.3 39.4 8.1 81.6-4.9 109-37.6 40-47.7 33.3-119.1-15-159.6-10.3-8.6-21.6-15.1-33.5-19.6" style="fill-opacity:.4962"/><path d="M235.8 310.8h46.8c44.1 0 79.9-34.7 79.9-77.4S326.7 156 282.6 156H215c-25.5 0-46.1 20-46.1 44.7v173.8z"/><path d="M235.8 310.8h46.8c44.1 0 79.9-34.7 79.9-77.4S326.7 156 282.6 156H215c-25.5 0-46.1 20-46.1 44.7v173.8z" style="fill:#fff"/></svg>