<svg xmlns="http://www.w3.org/2000/svg" xmlns:xlink="http://www.w3.org/1999/xlink" viewBox="0 0 29.66 30"><linearGradient id="a" x1="30.265%" x2="98.872%" y1="70.19%" y2="0%"><stop offset="0" stop-color="#004eea"/><stop offset="1" stop-color="#00b1fb"/></linearGradient><linearGradient id="b" x1="-15.92%" x2="133.864%" y1="117.442%" y2="-35.798%"><stop offset=".1721" stop-color="#0fd850"/><stop offset=".5164" stop-color="#3cf2ad"/></linearGradient><g fill="none"><path d="m5.93195876 0h17.79587634c3.2761303 0 5.9319587 2.6862915 5.9319587 6v18c0 3.3137085-2.6558284 6-5.9319587 6h-17.79587634c-3.27613036 0-5.93195876-2.6862915-5.93195876-6v-18c0-3.3137085 2.6558284-6 5.93195876-6z" fill="url(#a)"/><path d="m24.1797938 15.4428571-.4519587-1.9142857 1.2231134-1.2371428c.1553608-.1571429.1553608-.4171429 0-.5742857l-.8163506-.8257143c-.1553608-.1571429-.4124123-.1571429-.5677732 0l-.3728659.3771428-.4293609-1.82571426 1.6694227-1.70285714c.5282268-.54.9039175-1.14857143 1.1242474-1.82857143.2146805-.66285714.2344536-1.12-.0508453-1.48-.0141237-.01714286-.0282474-.03428571-.0451959-.04571428-.3587423-.29142858-.8078763-.26857143-1.4632165-.05142858-.6722887.22285715-1.2739588.60285715-1.807835 1.13714286l-1.6835464 1.68857143-1.8050103-.43428571.3728659-.37714286c.1553609-.15714286.1553609-.41714286 0-.57428572l-.8163505-.82571428c-.1553608-.15714286-.4124124-.15714286-.5677732 0l-1.2231134 1.23714286-1.8925773-.45714286c-1.37-.28285714-2.0564124.5-2.290866.74l-.711835.72 5.9686804 2.94571427s-1.0338557 1.1057143-1.4603918 1.5371429c-.4265361.4314285-.9123917 1.5371428-.9123917 1.5371428s-2.3586598-.5714285-2.3925567-.5771428c-.4039382-.0657143-.4576083.0542857-.6016701.1857143l-1.1609691 1.1371428 3.1439381 1.9142857 1.8925774 3.18 1.1242474-1.1742857c.1299381-.1457143.2514021-.2.1836082-.6085714-.0056494-.0342857-.5705979-2.42-.5705979-2.42s1.096-.4914286 1.5197113-.9228572c.4265361-.4314285 1.5197114-1.4771428 1.5197114-1.4771428l2.9123093 6.0371428.711835-.72c.2344536-.24 1.008433-.9314285.7287835-2.32z" fill="#fff"/><path d="m13.4175258 30h-7.76804126c-3.12012416 0-5.64948454-2.5583729-5.64948454-5.7142857v-7.8571429c5.20035052 2.8657143 10.0645567 3.3914286 12.5503299.8771429-2.4857732 2.5142857-1.9660206 7.4342857.8671959 12.6942857z" fill="url(#b)"/></g></svg>