<svg xmlns="http://www.w3.org/2000/svg" xml:space="preserve" viewBox="0.05 61.53 511.88 389"><path d="m337.9 455.3-.3 308.1-82.6-26.9V374.4l105.4 27.9c67.4 18.1 108.7 53.4 108.1 115.1-.7 71.8-33.9 100.7-98.7 81.9V457.6c0-17.1-31.9-18.1-31.9-2.3" style="fill-rule:evenodd;clip-rule:evenodd;fill:#de0029" transform="translate(-61.686 -312.868)"/><path d="m217.1 676.8-38.9 13.1c-25.2 8.7-46.6-11.7-23.5-20.1l18.8-6.7-70.8-22.5c-21.8 7.4-42.3 23.2-40.9 45.3 1.3 22.5 52.7 27.9 92.3 34.2 36.9 6 70.5 2.7 101-8.1v-23.2zm121.2 86.6 72.2-25.2-72.9-23.2v46.6z" style="fill-rule:evenodd;clip-rule:evenodd;fill:#f3c202" transform="translate(-61.686 -312.868)"/><path d="m530.2 695.9 1.3-.3c31.5-11.1 45-26.5 41.6-40.9-5.4-24.2-44-37.3-103.4-41.6-42.6-3-84.6 6.4-125.5 20.5l-6.7 2.4 73.5 22.8 43-14.4c45-8.4 63.1 6.4 19.8 20.1l-21.5 7.4zM255 589.2l-32.6 11.1 32.6 10.1z" style="fill-rule:evenodd;clip-rule:evenodd;fill:#326db3" transform="translate(-61.686 -312.868)"/><path d="m410.4 738.2 119.8-42.3-77.9-24.2L337.6 711v4zM255 664l-37.9 12.8 37.9 12.1zm82.6 19.8v-48l73.5 22.8zM173.5 663l81.5-29.2v-23.5l-32.6-10.1-118.1 39.9c-.3 0-1 .3-1.7.3z" style="fill-rule:evenodd;clip-rule:evenodd;fill:#00aa9e" transform="translate(-61.686 -312.868)"/></svg>