<svg xmlns="http://www.w3.org/2000/svg" xml:space="preserve" viewBox="40.6 36.4 418.8 173.8"><path d="M53.3 210.2H40.6V77.1c10.6-3.3 21.1-4.9 31.3-4.9 7.5 0 14.2 1.2 20.3 3.5s11.3 5.6 15.7 9.7c4.3 4.2 7.7 9.1 10 14.8s3.5 12 3.5 18.7c0 8.2-1.4 15.2-4.2 21.1s-6.5 10.7-11.1 14.5-9.8 6.6-15.7 8.3q-8.85 2.7-18 2.7c-3.3 0-6.5-.2-9.7-.7s-6.4-1.2-9.5-2v47.4zm53.7-91.5c0-10.6-3-19.2-8.9-25.7s-14.3-9.8-25-9.8c-3.4 0-6.8.2-10.1.6s-6.5 1.2-9.7 2.3V151c2.9 1 6 1.8 9.1 2.5s6.1 1 9.1 1c10.9 0 19.5-3.1 25.9-9.3s9.6-15 9.6-26.5m40.1 46V36.4h12.8v128.3zm117.7-13.4c-4.3 4.6-9.2 8.2-14.8 10.5-5.6 2.4-12.4 3.6-20.3 3.6-7.3 0-13.7-1.3-19.2-3.8s-10.1-5.9-13.7-10.2c-3.7-4.3-6.4-9.2-8.2-14.7q-2.7-8.25-2.7-17.4 0-12.15 3.3-21c2.2-5.9 5.2-10.8 9-14.8q5.7-5.85 13.2-8.7c5-1.9 10.3-2.8 15.9-2.8 13.4 0 23.6 4.1 30.4 12.4q10.2 12.3 9.9 36h-68.7c.4 10.4 3.4 18.6 9 24.7s13.3 9.2 22.9 9.2q8.1 0 14.7-2.7c4.4-1.8 8.4-4.6 11.9-8.5zm-10.3-41.6c0-3.8-.6-7.3-1.7-10.6-1.2-3.3-2.8-6.1-4.9-8.4s-4.9-4.2-8.3-5.6-7.4-2.1-11.9-2.1q-6.9 0-12 2.1c-3.4 1.4-6 3.2-8 5.4s-3.8 5-5.4 8.3c-1.7 3.4-2.7 7-3.2 10.9zm96.8-15c-3.2-4-6.7-7-10.4-8.9s-8.1-2.8-13.2-2.8c-6.5 0-11.1 1.2-13.7 3.5s-3.9 5.3-3.9 8.8c0 2.4.6 4.5 1.8 6.2s2.8 3.2 4.8 4.4 4.3 2.3 6.9 3.2 5.3 1.8 8.2 2.7c3.5 1.1 6.9 2.3 10.4 3.6s6.6 3 9.5 5c2.9 2.1 5.2 4.6 7 7.6s2.7 6.8 2.7 11.3c0 4.2-.9 7.9-2.7 11.2s-4.2 6.1-7.3 8.3q-4.65 3.45-10.8 5.1c-4.2 1.2-8.6 1.7-13.3 1.7-7.3 0-13.8-1.2-19.4-3.6s-10.9-6.3-15.9-11.8l10-8.8c6.7 8.6 15.3 12.8 25.9 12.8 6.9 0 12-1.3 15.4-3.9 3.3-2.6 5-5.7 5-9.3 0-2.8-.6-5.2-1.8-7.1s-2.9-3.5-5-4.9c-2.1-1.3-4.5-2.5-7.3-3.4q-4.2-1.35-8.7-2.7c-3.5-1-6.9-2.1-10.3-3.3s-6.4-2.8-9.1-4.7q-4.05-2.85-6.6-7.2c-1.7-2.9-2.6-6.7-2.6-11.2 0-8.1 2.9-14.3 8.8-18.7s13.5-6.6 22.9-6.6c6.6 0 12.6 1.1 17.8 3.3s10.1 6 14.9 11.5l-9.4 8.6zm34.1 70V36.6h12.8v128.1zm12.8-47.3 44-44.4h17.2l-45.1 44 44.9 47.6h-17.8z" style="fill:#fff"/><path fill="#53bce6" d="M191.7 210.2h-77.2v-12.1h77.2z"/></svg>