<svg xmlns="http://www.w3.org/2000/svg" fill="none" viewBox="1.53 1.53 30.93 30.93">
      <path d="M32.3745 18.6111C33.2643 10.1161 27.0991 2.50814 18.6041 1.61828C10.1091 0.728411 2.50111 6.89362 1.61124 15.3886C0.721379 23.8837 6.88658 31.4916 15.3816 32.3815C23.8766 33.2714 31.4846 27.1062 32.3745 18.6111Z" fill="url(#paint0_linear_4997_19950)"/>
      <path d="M9.54199 23.8027L12.9465 21.8368V25.6691L27.9622 17.0012L12.9465 8.33325V12.1656L9.54199 10.1996V23.8027ZM14.503 14.8619L18.2099 17.0012L14.503 19.1405V14.8619ZM14.503 20.9405L14.5473 20.9146L21.323 17.0012L14.503 13.0619V11.0295L24.8455 17.0012L14.503 22.9728V20.9405ZM11.0985 12.8959L12.9428 13.9619V20.0405L11.0985 21.1064V12.8959Z" fill="white"/>
      
      
      
      
      
      
      
      
      
      
      
      <defs>
        <linearGradient id="paint0_linear_4997_19950" x1="16.9928" y1="2.03704" x2="16.9928" y2="32.644" gradientUnits="userSpaceOnUse">
          <stop stop-color="#FF1675"/>
          <stop offset="0.15" stop-color="#FF2C5B"/>
          <stop offset="0.4" stop-color="#FF4E34"/>
          <stop offset="0.64" stop-color="#FF6618"/>
          <stop offset="0.85" stop-color="#FF7507"/>
          <stop offset="1" stop-color="#FF7B01"/>
        </linearGradient>
      </defs>
    </svg>