<svg xmlns="http://www.w3.org/2000/svg" id="Layer_1" data-name="Layer 1" viewBox="0 0 125 120"><defs><style>.cls-1{fill:#faf7ef}.cls-2{fill:#416ab2}</style></defs><path d="M19.734 42.757c-.282.237-.577.48-.787.777-5.54 7.838-5.964 16.056-1.791 24.601.144.296.174.896.637.75.447-.141.323-.696.264-1.09-.21-1.395-.4-2.794-.675-4.176-1.17-5.894-.685-11.592 1.914-17.063.397-.836.698-1.718 1.02-2.586.146-.39.178-.798-.059-1.145-.178-.194-.377-.19-.523-.068M77.313 7.941c.833.257 1.665.526 2.509.744 3.6.926 6.647 2.724 9 5.64.36.445.771.85 1.17 1.262.178.185.397.313.654.273.155-.047.207-.159.178-.273-.057-.22-.113-.45-.223-.647-2.885-5.19-7.354-7.629-13.236-7.592-.204 0-.547-.143-.59.153-.04.288.302.368.538.44m28.692 51.719c.164-21.712-15.235-40.886-36.175-45.253-23.32-4.865-42.465 8.486-49.303 22.143 1.496-1.844 2.75-3.61 4.22-5.168 12.161-12.884 29.567-17.537 45.57-13.615 6.893 1.69 13.527 4.96 19.368 9.867 10.47 8.795 15.773 22.214 14.623 35.353a39.7 39.7 0 0 1-2.493 10.813c-7.616 19.794-28.798 31.479-50.545 27.796-11.997-2.033-21.763-7.902-29.348-17.453 6.734 12.659 25.422 24.22 45.797 20.545 22.327-4.027 38.118-22.685 38.286-45.028" class="cls-1"/><path d="M105.878 83.145c-.428-.19-.703.307-.92.64-.769 1.183-1.554 2.357-2.265 3.573-3.034 5.188-7.176 9.13-12.75 11.5-.851.362-1.662.822-2.48 1.259-.367.196-.661.48-.714.896.005.263.156.393.346.398.368.01.75.024 1.105-.06 9.344-2.19 15.113-8.06 17.658-17.222.088-.318.463-.786.02-.984" class="cls-1"/><path d="M120.607 52.085c-2.621-5.287-6.295-9.23-10.665-12.978-7.1-6.088-7.907-9.55-10.355-19.015C96.926 9.798 82.657.862 72.207 3.095c-8 1.71-15.812 2.16-23.76.265-.84-.2-1.732-.223-2.603-.263-4.226-.19-7.663 1.347-10.286 4.7a39 39 0 0 0-4.111 6.434c-3.05 6.019-7.724 10.29-13.654 13.363-2.71 1.404-5.386 2.922-7.893 4.656-3.861 2.669-7.016 5.961-7.62 10.94-.44 3.628.673 6.977 2.379 10.05 3.135 5.647 4.677 11.585 4.057 17.443 0 2.42-.065 4.244.012 6.061.265 6.26 1.73 11.986 7.25 15.852 2.095 1.468 4.321 2.739 6.675 3.698 6.898 2.81 12.455 7.144 16.245 13.644.506.87 1.244 1.615 1.937 2.36 3.146 3.388 7.006 5.096 11.668 4.943 3.474-.115 6.794-.943 9.924-2.358 9.367-4.235 18.844-7.888 29.124-9.537 7.275-1.167 12.018-6.128 14.537-13.107.824-2.282 1.23-4.648 1.578-7.017.692-4.717 2.985-8.285 7.15-10.645.947-.537 1.317-1.16 2.2-1.8 3.165-2.296 5.046-5.387 5.611-9.26.588-4.03-.229-7.817-2.02-11.432M77.365 7.348C83.247 7.31 87.716 9.75 90.6 14.94c.11.197.166.427.223.647.029.114-.023.226-.178.273-.257.04-.476-.088-.655-.273-.398-.412-.809-.817-1.168-1.262-2.354-2.916-5.4-4.714-9.001-5.64-.844-.218-1.676-.487-2.51-.744-.235-.072-.577-.152-.536-.44.042-.296.385-.152.589-.153M20.317 43.97c-.323.868-.624 1.75-1.02 2.586-2.6 5.471-3.086 11.169-1.915 17.063.275 1.382.466 2.781.675 4.176.059.394.183.949-.264 1.09-.463.146-.493-.454-.637-.75-4.173-8.545-3.75-16.763 1.79-24.601.21-.297.506-.54.788-.777.146-.122.345-.126.523.068.237.347.205.754.06 1.145m1.605 40.173c7.585 9.551 17.351 15.42 29.348 17.453 21.747 3.683 42.93-8.002 50.545-27.796a39.7 39.7 0 0 0 2.493-10.813c1.15-13.139-4.153-26.558-14.623-35.353-5.84-4.907-12.475-8.178-19.369-9.867-16.002-3.922-33.408.731-45.568 13.615-1.471 1.559-2.725 3.324-4.221 5.168C27.365 22.893 46.509 9.542 69.83 14.407c20.94 4.367 36.339 23.54 36.175 45.253-.168 22.343-15.959 41-38.286 45.028-20.375 3.675-39.063-7.886-45.797-20.545m15.336-39.101a2.01 2.01 0 0 1 1.034-1.379l21.482-11.312c.058-.031.122-.043.182-.068.083-.034.164-.07.25-.093.083-.022.167-.03.252-.04s.168-.025.253-.025c.086 0 .169.014.254.025.085.01.169.018.252.04.086.022.166.059.249.092.06.025.124.038.183.069L83.13 43.663a2.01 2.01 0 0 1 1.034 1.379c.058.281 5.413 28.314-22.377 42.616-.29.15-.605.224-.92.224-.053 0-.104-.017-.157-.021-.052.004-.103.02-.155.02-.316 0-.632-.073-.921-.223C45.132 80.195 39.81 69.018 37.9 60.957c-2.066-8.717-.702-15.626-.643-15.915m68.6 39.087c-2.545 9.161-8.314 15.031-17.658 17.223-.354.083-.737.068-1.105.059-.19-.005-.341-.135-.346-.398.053-.417.347-.7.714-.896.818-.437 1.629-.897 2.48-1.259 5.574-2.37 9.716-6.312 12.75-11.5.71-1.216 1.496-2.39 2.265-3.572.217-.334.492-.832.92-.64.443.197.068.665-.02.983" class="cls-2"/><path d="M80.371 46.758 62.734 37.47l.135 44.974C82.422 70.576 81 51.245 80.371 46.758M58.554 82.445l.135-44.974-17.637 9.287c-.628 4.478-2.056 23.816 17.502 35.687" class="cls-2"/><path d="M59.635 87.658c.29.15.605.224.92.224.053 0 .104-.017.156-.021.053.004.104.02.156.02.316 0 .632-.073.921-.223 27.79-14.302 22.435-42.335 22.377-42.616a2.01 2.01 0 0 0-1.034-1.379L61.649 32.351c-.059-.031-.122-.044-.183-.069-.083-.033-.163-.07-.249-.092-.083-.022-.167-.03-.252-.04s-.168-.025-.254-.025-.168.014-.253.025c-.085.01-.169.018-.252.04-.086.022-.167.059-.25.093-.06.025-.124.037-.182.068L38.292 43.663a2.01 2.01 0 0 0-1.034 1.379c-.06.289-1.423 7.198.643 15.915 1.91 8.062 7.231 19.238 21.734 26.701m20.736-40.9C81 51.244 82.422 70.576 62.87 82.445l-.135-44.974zm-39.32 0L58.69 37.47l-.135 44.974c-19.558-11.87-18.13-31.209-17.502-35.687" class="cls-1"/></svg>