<svg xmlns="http://www.w3.org/2000/svg" fill="none" viewBox="3.94 3.96 21.85 21.99">
<path d="M15.3225 24.9499C17.5242 24.8682 19.6374 24.0618 21.3337 22.6557C23.03 21.2496 24.2144 19.3227 24.703 17.1743" stroke="black" stroke-width="2" stroke-linecap="round" stroke-linejoin="round"/>
<path d="M24.7891 13.1733L24.7823 13.1807" stroke="black" stroke-width="2" stroke-linecap="round" stroke-linejoin="round"/>
<path d="M23.2946 9.45791C22.43 8.14458 21.2678 7.05367 19.9024 6.27373C18.5371 5.4938 17.0071 5.04682 15.4366 4.9691C13.8661 4.89138 12.2994 5.18511 10.8637 5.82643C9.42804 6.46774 8.16382 7.43858 7.17371 8.66012C6.1836 9.88166 5.49551 11.3195 5.16529 12.8568C4.83507 14.3942 4.87204 15.9877 5.2732 17.5081C5.67435 19.0285 6.42838 20.4328 7.47407 21.6071C8.51976 22.7814 9.82763 23.6926 11.2915 24.2666" stroke="black" stroke-width="2" stroke-linecap="round" stroke-linejoin="round"/>
<path d="M15.1741 20.9505C15.9899 20.9222 16.7912 20.7278 17.5292 20.3791C18.2672 20.0304 18.9263 19.5348 19.4662 18.9226C20.0061 18.3104 20.4153 17.5944 20.669 16.8186C20.9226 16.0428 21.0153 15.2234 20.9413 14.4105C20.8674 13.5976 20.6284 12.8084 20.2389 12.0911C19.8494 11.3738 19.3176 10.7435 18.6761 10.2387C18.0347 9.73401 17.297 9.36548 16.5081 9.1557C15.7193 8.94591 14.896 8.89927 14.0885 9.01864" stroke="black" stroke-width="2" stroke-linecap="round" stroke-linejoin="round"/>
<path d="M13.4806 13.5985C12.7295 14.4084 12.7771 15.6738 13.5869 16.4249C14.3968 17.1761 15.6622 17.1285 16.4134 16.3187C17.1645 15.5088 17.1169 14.2434 16.3071 13.4922C15.4972 12.7411 14.2318 12.7887 13.4806 13.5985Z" stroke="black" stroke-width="2" stroke-linecap="round" stroke-linejoin="round"/>
<path d="M12.9953 14L11.4898 23.9999" stroke="black" stroke-width="2" stroke-linecap="round" stroke-linejoin="round"/>
<path d="M9 18L8.99039 18.0028" stroke="black" stroke-width="2" stroke-linecap="round" stroke-linejoin="round"/>
<path d="M8.58898 14.5637C9.99346 8.99994 14.497 8.99985 13.9962 8.99984" stroke="black" stroke-width="2" stroke-linecap="round" stroke-linejoin="round"/>
<path d="M15.3225 24.9499C17.5242 24.8682 19.6374 24.0618 21.3337 22.6557C23.03 21.2496 24.2144 19.3227 24.703 17.1743" stroke="black" stroke-width="2" stroke-linecap="round" stroke-linejoin="round"/>
<path d="M24.7891 13.1733L24.7823 13.1807" stroke="black" stroke-width="2" stroke-linecap="round" stroke-linejoin="round"/>
<path d="M23.2946 9.45791C22.43 8.14458 21.2678 7.05367 19.9024 6.27373C18.5371 5.4938 17.0071 5.04682 15.4366 4.9691C13.8661 4.89138 12.2994 5.18511 10.8637 5.82643C9.42804 6.46774 8.16382 7.43858 7.17371 8.66012C6.1836 9.88166 5.49551 11.3195 5.16529 12.8568C4.83507 14.3942 4.87204 15.9877 5.2732 17.5081C5.67435 19.0285 6.42838 20.4328 7.47407 21.6071C8.51976 22.7814 9.82763 23.6926 11.2915 24.2666" stroke="black" stroke-width="2" stroke-linecap="round" stroke-linejoin="round"/>
<path d="M15.1741 20.9505C15.9899 20.9222 16.7912 20.7278 17.5292 20.3791C18.2672 20.0304 18.9263 19.5348 19.4662 18.9226C20.0061 18.3104 20.4153 17.5944 20.669 16.8186C20.9226 16.0428 21.0153 15.2234 20.9413 14.4105C20.8674 13.5976 20.6284 12.8084 20.2389 12.0911C19.8494 11.3738 19.3176 10.7435 18.6761 10.2387C18.0347 9.73401 17.297 9.36548 16.5081 9.1557C15.7193 8.94591 14.896 8.89927 14.0885 9.01864" stroke="black" stroke-width="2" stroke-linecap="round" stroke-linejoin="round"/>
<path d="M13.4806 13.5985C12.7295 14.4084 12.7771 15.6738 13.5869 16.4249C14.3968 17.1761 15.6622 17.1285 16.4134 16.3187C17.1645 15.5088 17.1169 14.2434 16.3071 13.4922C15.4972 12.7411 14.2318 12.7887 13.4806 13.5985Z" stroke="black" stroke-width="2" stroke-linecap="round" stroke-linejoin="round"/>
<path d="M12.9953 14L11.4898 23.9999" stroke="black" stroke-width="2" stroke-linecap="round" stroke-linejoin="round"/>
<path d="M9 18L8.99039 18.0028" stroke="black" stroke-width="2" stroke-linecap="round" stroke-linejoin="round"/>
<path d="M8.58898 14.5637C9.99346 8.99994 14.497 8.99985 13.9962 8.99984" stroke="black" stroke-width="2" stroke-linecap="round" stroke-linejoin="round"/>
</svg>