<svg xmlns="http://www.w3.org/2000/svg" xml:space="preserve" id="Layer_1" x="0" y="0" version="1.1" viewBox="0 0 512 512"><style>.st1,.st2{fill:#fff}.st2{fill-rule:evenodd;clip-rule:evenodd}</style><circle cx="256" cy="256" r="256" style="fill:#13bef9"/><path d="M207.3 141.3H201v32.4h6.2v-32.4zm26.8 0h-6.2v32.4h6.2zm36.7-61.8-6.4-11.1-106.8 61.8 6.4 11.1z" class="st1"/><path d="m270.2 79.5 6.4-11.1 106.8 61.8-6.4 11.1z" class="st1"/><path d="M402.4 141.4v-12.8H109.6v12.8z" class="st1"/><path d="M286.5 322.4V132.5h12.8v199.2c-3.5-3.9-7.8-6.8-12.8-9.3m-21.9-3.2v-268h12.8v269.5c-3.6-1.7-12.3-1.5-12.8-1.5m-121.4 26.7c-15.6-11.6-25.9-30-25.9-51 0-11.1 3-22 8.4-31.6H235c5.6 9.5 8.4 20.5 8.4 31.6 0 9.7-1.2 18.8-5.2 26.9-8.3-8-20.5-11.4-32.8-11.4-21.9 0-40.6 13.6-45.5 33.9-1.7-.2-2.8-.3-4.5-.3-4.1.2-8.1.8-12.2 1.9" class="st2"/><path d="M197 188h-33.1v33.3H197zm-37.4 0h-33.1v33.3h33.1zm0 37h-33.1v33.3h33.1zm37.4 0h-33.1v33.3H197zm37.1 0H201v33.3h33.1zm0-54.8H201v33.3h33.1z" class="st1"/><path d="M165.6 350.9c4.5-19.2 21.9-33.6 42.5-33.6 13.3 0 25.1 5.9 33.3 15.3 7-4.8 15.5-7.7 24.7-7.7 24.1 0 43.6 19.5 43.6 43.6 0 5-.8 9.7-2.3 14.2 5.3 7.2 8.6 16.3 8.6 26 0 24.1-19.5 43.6-43.6 43.6-10.6 0-20.3-3.8-27.8-10-8 11.1-20.9 18.4-35.6 18.4-16.9 0-31.6-9.7-38.9-23.8-3 .6-5.9.9-9.1.9-24.1 0-43.7-19.5-43.7-43.6s19.5-43.6 43.7-43.6c1.4 0 3 0 4.6.3" class="st2"/></svg>