<svg xmlns="http://www.w3.org/2000/svg" fill="none" viewBox="5 94 1000 811.84">
<g clip-path="url(#clip0_217_242)">
<path d="M213 149H388L725.5 233.5L856.5 602.5L811.5 685L733 650L679.5 631.5L581 591.5L492.5 570.5L430.5 545.5L371.5 494.5L166.5 386.5L213 149Z" fill="#155DFC"/>
<path d="M66.5436 450.256C242.608 569.316 275.646 627.237 321.721 606.141C333.899 600.56 366.664 580.46 376.871 491.549C373.963 491.413 368.225 491.432 361.922 493.872C322.424 509.249 323.556 596.384 303.865 596.481C303.553 596.481 302.87 596.481 301.992 596.228C300.06 595.876 297.679 595.135 294.108 593.476C283.667 588.597 278.437 586.138 270.514 581.357C270.514 581.357 262.415 576.537 255.039 571.385C244.149 563.774 237.924 554.602 225.708 543.635C215.482 534.463 215.345 536.863 191.478 519.339C183.263 513.308 177.233 508.547 165.504 499.258C146.243 484.016 132.934 473.478 121.576 463.662C107.369 451.387 88.1466 433.258 66.8558 408.103C47.4969 371.708 24.4303 333.868 12.7213 337.674C5.24705 340.113 4.09568 358.535 5.53979 370.888C10.36 412.553 50.6584 439.542 66.5436 450.275V450.256Z" fill="#003A86"/>
<path d="M86.9766 439.249C181.683 457.672 276.369 476.113 371.076 494.535C382.082 511.572 393.752 522.169 401.734 528.394C401.734 528.394 448.823 565.101 520.326 562.369C523.761 562.233 532.289 561.569 543.881 562.818C555.785 564.106 557.853 565.375 576.763 568.79C596.2 572.302 598.386 571.756 606.153 574.761C615.188 578.255 621.589 582.626 626.078 585.729C633.513 590.861 635.269 593.359 649.496 605.654C657.38 612.464 661.322 615.879 664.932 618.611C671.567 623.627 682.203 631.608 697.327 638.048C705.933 641.698 714.402 644.196 722.443 646.557C726.853 647.845 730.561 648.84 733.195 649.504C734.522 662.227 735.459 680.337 733.195 701.823C730.834 724.285 729.195 739.936 719.75 757.636C715.554 765.501 700.313 792.978 667.43 804.979C660.795 807.399 640.441 814.503 616.106 807.965C607.929 805.78 592.746 801.467 580.725 787.045C568.391 772.233 567.084 756.016 566.772 751.177C566.167 741.868 565.328 729.008 574.246 718.294C581.291 709.844 593.039 704.38 604.143 705.336C617.433 706.487 621.101 716.128 630.371 713.708C634.801 712.557 634.762 710.156 646.978 697.374C657.985 685.86 660.541 685.158 660.931 681.138C661.849 671.497 648.383 662.93 642.997 659.495C638.977 656.939 629.142 651.299 611.598 649.035C601.586 647.747 582.169 645.464 559.785 654.519C532.484 665.545 518.804 686.114 514.452 692.885C503.016 710.605 500.245 727.212 498.508 738.219C497.552 744.327 494.937 763.666 500.011 788.04C507.114 822.231 524.756 844.595 530.396 851.328C554.868 880.522 584.335 891.314 598.152 896.173C662.766 918.908 720.959 895.061 732.181 890.201C793.848 863.524 821.325 811.575 834.829 786.069C860.492 737.575 863.75 693.959 867.224 647.552C868.395 632.018 871.03 586.314 861.253 527.964C854.286 486.476 844.138 457.086 833.346 425.823C810.826 360.585 786.022 313.944 778.041 299.269C778.041 299.269 746.075 240.548 692.838 177.69C682.456 165.435 671.996 153.901 654.979 144.3C644.129 138.192 624.614 129.469 574.265 128.356C548.798 127.79 512.735 129.098 469.626 137.821C471.792 141.139 473.939 144.456 476.105 147.793C464.24 141.568 446.969 133.333 425.288 125.878C403.9 118.521 387.702 115.164 362.001 109.934C321.82 101.757 291.572 98.2838 284.273 97.4837C251.644 93.8539 227.758 93.1318 203.559 94.9858C188.259 96.1567 174.267 98.2447 159.709 106.441C150.459 111.652 144.019 117.623 136.291 124.883C121.342 138.914 111.878 151.657 107.389 157.765C75.5994 201.011 59.7142 222.653 44.6096 247.944C44.6096 247.944 33.6227 266.347 15.22 306.743C12.2538 313.241 7.12134 324.775 5.87238 340.64C5.67723 343.08 5.05274 351.003 6.26267 358.574C9.32652 377.816 23.5724 390.911 38.1501 403.42C70.3693 431.073 92.9677 446.763 92.9677 446.763C96.617 449.202 131.92 473.908 162.226 497.58C211.697 536.239 236.422 555.578 251.566 569.219C251.566 569.219 264.192 580.596 289.757 592.13C297.367 595.564 303.261 597.594 310.189 596.482C320.22 594.862 326.523 587.544 332.631 580.284C334.836 577.65 339.383 571.893 353.922 539.381C357.532 531.321 359.328 527.281 361.513 521.817C363.328 517.29 367.778 505.893 372.656 489.325C376.501 476.308 384.112 450.51 388.424 421.823C392.347 395.77 398.026 358.028 387.917 310.704C387 306.45 376.95 261.117 348.731 218.359C334.036 196.093 319.712 182.53 316.668 179.661C307.457 171.055 298.851 164.674 292.255 160.224C298.675 160.537 307.476 161.395 317.663 163.718C325.176 165.415 345.374 170.626 367.485 185.145C389.107 199.332 402.065 215.549 407.842 223.511C428.254 251.632 433.66 279.539 436.997 296.751C440.9 316.91 441.915 337.752 442.735 354.047C443.691 373.64 443.008 379.592 445.232 393.916C446.755 403.752 449.409 420.164 458.015 439.249C470.953 467.936 489.531 485.402 496.537 491.569C509.007 502.517 520.131 508.157 542.378 519.475C560.995 528.94 573.134 532.98 586.716 534.424C592.668 535.048 597.683 535.048 601.157 534.931C597.722 526.794 595.576 519.515 594.19 513.758C593 508.84 591.165 501.034 590.697 490.593C590.326 482.358 590.951 475.372 591.692 470.161C593.156 476.504 595.342 484.719 598.659 494.086C600.259 498.594 606.036 514.441 618.096 534.951C627.053 550.212 637.904 563.618 655.955 582.294C673.167 600.072 698.517 623.959 733.176 649.562C623.326 589.359 513.496 529.155 403.646 468.951" fill="#155DFC"/>
<path d="M562.652 325.145C573.171 318.588 582.07 313.885 588.568 310.704C594.501 307.777 597.565 306.645 601.194 305.728C603.712 305.084 611.811 303.249 622.29 304.674C626.642 305.279 632.77 306.177 639.736 310.041C648.069 314.666 652.577 320.774 653.69 322.335C655.017 324.209 657.905 328.326 659.661 334.298C660.754 337.947 660.52 339.313 661.984 342.611C663.525 346.065 665.223 347.9 667.955 351.256C670.16 353.949 673.166 357.852 676.6 362.887C674.785 361.872 665.594 356.896 656.012 357.072C651.68 357.15 647.367 358.243 647.367 358.243C643.893 359.121 641.571 360.214 640.732 360.565C632.984 363.785 615.284 359.511 608.181 347.939C603.692 340.64 606.834 335.918 601.507 331.156C599.536 329.4 596.94 328.092 585.27 326.687C579.748 326.023 572.039 325.321 562.691 325.184L562.652 325.145Z" fill="#003C8D"/>
<path d="M820.797 391.692C811.059 390.95 795.467 391.009 777.572 396.726C763.833 401.117 753.373 407.343 746.348 412.338C752.319 411.031 760.086 409.509 769.258 408.182C771.444 407.87 778.489 406.874 788.363 406.016C797.906 405.196 810.552 404.435 825.715 404.513C824.076 400.239 822.437 395.965 820.797 391.672V391.692Z" fill="#0052C9"/>
<path d="M841.795 450.627C830.925 450.256 815.625 450.997 798.218 456.032C786.177 459.506 776.283 464.15 768.711 468.405C774.019 467.624 780.693 466.765 788.401 466.043C790.977 465.809 798.549 465.107 808.834 464.677C818.455 464.267 831.12 464.033 846.244 464.599C844.761 459.955 843.278 455.291 841.814 450.646L841.795 450.627Z" fill="#0052C9"/>
<path d="M855.848 500.39C845.895 499.824 829.952 500.331 812.583 507.65C805.694 510.557 799.938 513.953 795.273 517.231C798.415 516.607 802.748 515.846 807.919 515.143C818.808 513.699 827.141 513.445 835.494 513.231C841.524 513.075 849.369 513.016 858.6 513.328L855.848 500.37V500.39Z" fill="#0052C9"/>
<path d="M570.282 597.028C599.399 605.985 630.096 616.016 657.475 624.934C674.434 630.457 688.289 635.043 697.344 638.048C665.281 603.663 633.238 569.297 601.174 534.912C596.471 534.853 589.095 534.502 580.254 532.824C573.971 531.633 559.627 528.394 529.769 512.157C516.031 504.683 509.161 500.956 502.526 496.038C469.975 471.917 457.427 437.142 453.836 426.799C450.656 417.607 448.47 397.116 444.235 356.525C438.732 303.893 439.552 300.537 435.766 285.276C432.819 273.392 426.203 245.329 407.859 219.511C401.81 210.983 378.099 178.607 333.858 164.927C315.378 159.209 299.141 158.565 288.271 158.956C297.034 165.298 309.016 174.86 321.662 188.111C327.926 194.668 354.408 223.16 373.493 269.859C379.465 284.457 389.866 310.489 392.423 346.085C394.316 372.371 391.154 392.94 390.432 397.409C385.671 426.877 376.264 444.87 371.854 486.436C371.483 489.91 371.23 492.759 371.093 494.555C377.318 504.059 383.368 511.142 387.973 516.06C392.442 520.822 396.092 523.964 397.224 525.076C397.224 525.076 403.605 530.716 410.923 535.614C444.43 558.095 570.282 597.028 570.282 597.028Z" fill="#0051C8"/>
<path d="M591.456 468.893C590.109 479.079 589.289 494.594 593.427 512.626C595.495 521.602 598.013 527.886 600.881 534.912C607.555 551.304 615.908 571.619 634.018 591.915C647.424 606.941 661.007 616.035 671.916 623.393C676.56 626.515 682.786 630.691 691.47 635.16C708.175 643.786 723.24 648.001 733.759 650.226C732.139 643.434 730.5 636.663 728.88 629.872C712.097 621.968 691.86 610.435 671.155 593.476C663.622 587.29 658.177 582.157 655.64 579.718C646.019 570.448 627.792 552.729 612.512 524.881C600.53 503.044 594.597 483.021 591.456 468.854V468.893Z" fill="#00398B"/>
<path d="M680.074 799.203C689.988 795.768 704.312 789.367 718.519 777.307C731.438 766.34 738.912 755.236 741.937 750.396C750.816 736.248 754.251 723.836 756.631 715.015C759.305 705.121 762.154 690.485 761.861 672.414C765.569 674.502 770.819 677.215 777.298 679.888C791.524 685.743 803.175 687.85 810.434 689.099C824.914 691.617 836.272 691.773 845.054 691.831C852.469 691.89 858.695 691.617 863.222 691.324C863.749 686.64 864.257 681.898 864.725 677.117C865.72 667.047 866.54 657.153 867.223 647.474C861.134 647.396 854.733 647.142 848.039 646.674C842.927 646.303 837.989 645.815 833.267 645.269C826.846 646.147 818.24 647.006 808.053 647.064C778.586 647.201 757.178 640.507 751.87 638.77C741.917 635.511 733.955 631.862 728.452 629.052C729.428 632.682 730.696 637.853 731.808 644.117C733.135 651.553 736.238 671.458 733.174 701.784C731.125 722.06 730.091 732.423 725.368 744.854C721.309 755.567 710.322 778.888 680.035 799.144L680.074 799.203Z" fill="#0050C8"/>
<path d="M493.94 571.483C489.179 567.034 474.133 552.846 461.233 537.625C458.15 533.995 453.017 527.867 446.89 519.183C444.86 516.295 442.733 513.153 440.547 509.718C435.395 501.62 428.682 490.925 422.789 475.626C419.139 466.141 416.934 457.847 415.568 451.7C411.88 469.225 412.465 483.783 413.578 493.306C414.846 504.274 417.246 512.255 419.315 518.968C421.54 526.208 424.857 535.497 429.931 545.918C436.937 549.49 442.967 552.28 447.553 554.31C460.453 560.028 470.756 563.677 477.45 566.019C484.144 568.38 489.823 570.195 493.96 571.483H493.94Z" fill="#003C8D"/>
<path d="M668.582 578.489C670.768 569.18 674.593 562.799 677.13 559.228C684.135 549.333 692.507 545.587 701.855 541.293C709.407 537.82 715.437 535.166 720.999 537.781C722.014 538.249 722.482 538.659 728.337 542.425C730.366 543.772 733.333 545.704 736.982 547.909C746.525 553.685 784.618 575.854 840.177 582.294C877.822 586.666 906.762 581.865 923.467 578.957C957.599 573.025 985.271 562.545 1005 553.393C994.15 582.002 979.26 598.999 970.186 607.8C935.371 641.581 892.731 644.976 865.839 647.591C859.79 648.177 838.518 649.758 809.344 645.269C745.822 635.512 697.503 602.824 668.582 578.508V578.489Z" fill="#8BC7FE"/>
<path d="M664.367 591.271C671.002 599.311 678.789 607.839 687.824 616.426C700.763 628.72 713.389 638.38 724.629 645.913C724.473 642.595 723.888 638.341 722.17 633.794C721.663 632.467 721.117 631.257 720.57 630.145C726.015 633.15 732.006 636.019 738.485 638.536C769.475 650.538 798.181 649.387 817.872 646.225C791.351 642.654 756.79 634.262 720.141 614.318C707.359 607.351 695.962 599.877 685.951 592.442C685.482 592.091 681.872 589.202 676.798 585.221C673.402 582.567 670.612 580.382 668.777 578.957C667.294 583.075 665.811 587.173 664.328 591.29L664.367 591.271Z" fill="#00398B"/>
<path d="M992.764 578.938C975.416 607.683 953.071 622.066 944.133 627.237C936.23 631.804 924.364 637.561 908.908 641.093C908.713 641.151 888.808 646.401 853.954 648.235C848.861 648.508 843.885 648.567 843.885 648.567C843.885 648.567 837.757 648.645 831.434 648.391C776.539 646.284 723.36 623.881 723.36 623.881C715.144 620.641 701.64 614.865 687.745 606.434C675.51 599.018 668.738 593.066 665.147 589.71C663.43 588.09 662.044 586.705 661.107 585.729C668.445 572.771 675.783 559.832 683.14 546.875C690.009 553.744 700.196 563.228 713.466 573.025C732.005 586.705 785.105 625.949 857.057 623.588C937.498 620.973 991.067 568.029 1005 553.334C1002.6 559.852 998.775 568.926 992.745 578.899L992.764 578.938Z" fill="#0087F7"/>
<path d="M649.904 574.118C651.231 571.268 653.144 567.424 655.759 563.111C656.969 561.121 661.321 553.998 666.531 548.416C670.668 543.987 682.045 531.79 698.731 531.282C708.117 530.99 715.845 534.502 721.017 537.761C717.602 538.073 712.938 538.737 707.532 540.24C701.795 541.859 695.277 543.323 689.5 547.909C681.46 554.29 677.011 562.897 668.58 580.792C666.882 584.422 665.575 587.427 664.755 589.359C661.594 586.295 658.413 583.095 655.193 579.738C653.378 577.845 651.622 575.972 649.904 574.098V574.118Z" fill="#0051CB"/>
</g>
<defs>
<clipPath id="clip0_217_242">
<rect width="1000" height="1000" fill="white"/>
</clipPath>
</defs>
</svg>