<svg xmlns:inkscape="http://www.inkscape.org/namespaces/inkscape" xmlns="http://www.w3.org/2000/svg" xmlns:svg="http://www.w3.org/2000/svg" version="1.1" id="svg1" xml:space="preserve" inkscape:version="1.4 (86a8ad7, 2024-10-11)" viewBox="20.94 16.09 286.16 263.33">
  
  <g id="layer1">
    <g id="g1" transform="matrix(11.659996,0,0,10.722209,189.2271,704.3276)">
      <path style="fill: #2dd4bf;fill-opacity:1;stroke-width:0.950113" d="m 10.109308,-59.47752 c 0,3.731091 -1.6265938,6.441762 -1.6950008,6.554825 -0.137761,0.225178 -0.376243,0.348691 -0.622323,0.348691 -0.129232,0 -0.25938,-0.03421 -0.377194,-0.105461 -0.343942,-0.209026 -0.454153,-0.656528 -0.24608,-1.000469 0.01534,-0.0247 1.483125,-2.492144 1.483125,-5.797585 0,-1.885023 -1.225645,-3.253185 -2.914946,-3.253185 -1.607589,0 -2.914943,1.307355 -2.914943,2.915895 0,0.685031 0.331589,2.425637 0.458905,3.038459 0.08266,0.394297 -0.171,0.780043 -0.565319,0.862703 -0.394296,0.08076 -0.780042,-0.171021 -0.861749,-0.564367 -0.05034,-0.240379 -0.491208,-2.377181 -0.491208,-3.336795 0,-2.411385 1.961983,-4.373366 4.374314,-4.373366 2.492148,0 4.3724188,2.024689 4.3724188,4.710655 z m -4.2489048,1.146786 c 0.289785,2.421836 0.709733,7.141045 0.227089,7.621802 l -10.589951,10.590899 c -0.650829,0.651779 -1.708303,0.651779 -2.360082,-9.5e-4 l -7.0811862,-7.080236 c -0.651776,-0.650826 -0.651776,-1.708303 0,-2.360077 l 10.5908952,-10.589953 c 0.168157,-0.168169 1.999985,-0.175771 4.05982701,-0.06841 -0.01128,0.135866 -0.04087,0.264131 -0.04087,0.402847 0,0.528263 0.116866,1.347259 0.239432,2.067445 -0.215657,0.320188 -0.342042,0.704983 -0.342042,1.120182 0,1.105931 0.89690899,2.002837 2.00283999,2.002837 1.105931,0 2.002835,-0.896906 2.002835,-2.002837 0,-0.68123 -0.341089,-1.281701 -0.860801,-1.642744 -0.106396,-0.633725 -0.191919,-1.245597 -0.191919,-1.544883 0,-0.06461 0.01331,-0.124463 0.01895,-0.188123 0.25368,0.0266 0.503556,0.05416 0.740136,0.08361 1.399513,0.171971 1.413768,0.169121 1.584786,1.588588 z m -5.64461599,7.925839 c -0.164373,-0.457005 -0.438001,-1.005222 -1.031822,-1.636096 l 0.803794,-0.804745 -0.895003,-0.894056 -0.86745401,0.868403 c -1.161036,-0.795244 -2.358179,-0.730636 -3.170523,0.08171 -0.885506,0.885504 -0.676481,2.009489 -0.0266,3.315889 0.446553,0.904509 0.52826,1.425171 0.181471,1.771962 -0.356294,0.356294 -0.931113,0.201441 -1.452723,-0.319239 -0.59286,-0.592869 -0.940604,-1.325407 -1.113522,-1.919226 l -1.343459,0.796195 c 0.155813,0.537762 0.575766,1.304502 1.168638,1.935378 l -0.876004,0.876954 0.894056,0.895003 0.941561,-0.940608 c 1.241795,0.876004 2.494045,0.75819 3.306389,-0.05413 0.831349,-0.833249 0.904509,-1.764362 0.191919,-3.243685 -0.494058,-1.060327 -0.612822,-1.580987 -0.320189,-1.872674 0.256532,-0.256529 0.712587,-0.329688 1.306406,0.264133 0.658429,0.658428 0.876952,1.297854 0.995718,1.636093 z" id="path1"/>
    </g>
  </g>
</svg>