<svg xmlns="http://www.w3.org/2000/svg" xmlns:xlink="http://www.w3.org/1999/xlink" version="1.1" viewBox="0 0 512 512">
<g id="surface1">
<rect x="0" y="0" width="512" height="512" style="fill:rgb(2.745098%,47.450981%,100%);fill-opacity:0;stroke:none;"/>
<path style=" stroke:none;fill-rule:nonzero;fill:rgb(100%,100%,100%);fill-opacity:1;" d="M 236.574219 457.96875 C 200.128906 455.082031 171.511719 447.503906 143.433594 433.304688 C 124.277344 423.621094 111.984375 414.890625 98.730469 401.5625 C 88.390625 391.167969 83.21875 384.304688 82.164062 379.59375 C 81.300781 375.742188 82.863281 373.390625 86.28125 373.390625 C 88.496094 373.390625 92.167969 375.5 98.414062 380.363281 C 125.664062 401.570312 163.707031 416.949219 205.925781 423.816406 C 245.277344 430.21875 285.277344 429.433594 325.902344 421.464844 C 339.164062 418.863281 350.875 415.804688 362.914062 411.796875 C 371.972656 408.78125 377.851562 406.359375 387.074219 401.832031 C 393.1875 398.828125 395.042969 398.105469 397.035156 397.953125 C 399.367188 397.773438 399.546875 397.832031 400.792969 399.199219 C 402.71875 401.304688 402.648438 403.984375 400.585938 407.089844 C 398.679688 409.964844 395.257812 413.382812 390.296875 417.375 C 364.527344 438.105469 322.664062 452.984375 277.792969 457.363281 C 269.753906 458.148438 243.65625 458.53125 236.574219 457.96875 Z M 404.960938 433.503906 C 402.40625 431.261719 402.84375 428.800781 407.03125 421.855469 C 412.621094 412.589844 417.308594 401.417969 418.484375 394.570312 C 419.46875 388.828125 418.023438 386.976562 411.671875 385.851562 C 405.707031 384.796875 391.8125 385.535156 383.078125 387.371094 C 381.464844 387.710938 378.550781 387.988281 376.601562 387.988281 C 373.410156 387.988281 372.957031 387.878906 372.085938 386.957031 C 371.550781 386.390625 371.011719 385.164062 370.886719 384.234375 C 370.691406 382.769531 370.847656 382.328125 372.070312 380.9375 C 374.019531 378.71875 377.792969 376.238281 382.9375 373.796875 C 391.878906 369.558594 399.734375 367.804688 409.800781 367.808594 C 422.792969 367.8125 433.175781 370.9375 436.648438 375.886719 C 437.921875 377.703125 437.949219 377.859375 438.105469 383.835938 C 438.21875 388.269531 438.066406 390.980469 437.546875 393.789062 C 435.839844 402.980469 431.078125 413.589844 425.601562 420.390625 C 422.039062 424.8125 414.109375 432.070312 411.316406 433.464844 C 408.078125 435.082031 406.769531 435.089844 404.960938 433.511719 Z M 222.027344 338.113281 C 211.277344 336.054688 202.191406 325.183594 198.582031 310.054688 C 196.109375 299.699219 195.945312 284.738281 198.191406 274.304688 C 201.164062 260.492188 207.859375 250.460938 216.929688 246.238281 C 228.46875 240.867188 240.457031 244.195312 247.578125 254.746094 C 248.75 256.484375 249.894531 257.792969 250.117188 257.65625 C 250.367188 257.5 250.527344 249.835938 250.527344 238.105469 C 250.527344 219.21875 250.542969 218.789062 251.40625 217.929688 C 252.253906 217.078125 252.6875 217.050781 262.335938 217.175781 C 269.640625 217.265625 272.53125 217.449219 272.917969 217.839844 C 273.90625 218.828125 274.035156 227.621094 273.839844 281.285156 L 273.644531 334.53125 L 272.746094 335.496094 C 271.875 336.433594 271.59375 336.460938 263.796875 336.460938 C 259.371094 336.460938 255.4375 336.339844 255.054688 336.195312 C 253.902344 335.753906 253.234375 333.921875 252.210938 328.40625 C 251.671875 325.515625 251.125 323.152344 250.988281 323.152344 C 250.851562 323.152344 250.171875 324.261719 249.476562 325.621094 C 247.601562 329.277344 242.496094 334.164062 238.480469 336.140625 C 236.699219 337.023438 234.210938 337.933594 232.949219 338.175781 C 230.203125 338.695312 224.917969 338.664062 222.027344 338.113281 Z M 240.867188 317.773438 C 247.828125 314.402344 251.558594 303.175781 250.785156 287.9375 C 250.082031 274.132812 246 266.0625 238.71875 264.09375 C 236.316406 263.441406 235.574219 263.40625 233.597656 263.847656 C 226.664062 265.398438 222.757812 271.703125 221.332031 283.632812 C 220.449219 291.027344 220.957031 299.679688 222.636719 305.886719 C 224.316406 312.097656 227.15625 316.113281 231.203125 317.988281 C 233.65625 319.125 238.289062 319.023438 240.867188 317.773438 Z M 317.511719 337.996094 C 313.265625 337.101562 310.265625 335.972656 306.683594 333.925781 C 296.359375 328.019531 289.054688 316.566406 286.78125 302.734375 C 285.855469 297.078125 285.855469 286.53125 286.78125 280.875 C 288.964844 267.558594 296.21875 255.597656 305.898438 249.339844 C 310.980469 246.054688 319.03125 243.710938 325.242188 243.710938 C 328.839844 243.710938 334.769531 244.847656 338.28125 246.210938 C 346.8125 249.523438 354.359375 257.445312 358.632812 267.566406 C 361.503906 274.367188 362.683594 280.703125 362.757812 289.714844 C 362.804688 295.757812 362.730469 296.519531 361.996094 297.335938 C 361.179688 298.242188 361.097656 298.246094 335.910156 298.246094 L 310.640625 298.246094 L 310.640625 299.710938 C 310.640625 302.335938 311.84375 307.546875 313.203125 310.816406 C 314.847656 314.761719 316.929688 317.253906 319.8125 318.734375 C 322.828125 320.28125 327.796875 320.339844 331.15625 318.871094 C 333.859375 317.691406 336.921875 314.480469 337.835938 311.867188 C 338.183594 310.871094 338.738281 309.28125 339.0625 308.335938 C 339.589844 306.8125 339.828125 306.605469 341.179688 306.488281 C 343.09375 306.328125 358.59375 309.691406 359.964844 310.566406 C 361.378906 311.46875 361.054688 313.414062 358.636719 318.496094 C 356.222656 323.578125 352.328125 328.472656 348.328125 331.460938 C 341.660156 336.441406 336.210938 338.199219 326.742188 338.425781 C 322.382812 338.535156 319.402344 338.398438 317.511719 337.996094 Z M 338.492188 282.394531 C 338.953125 282.109375 338.925781 281.347656 338.339844 278.230469 C 336.925781 270.664062 333.933594 265.5625 329.773438 263.625 C 323.398438 260.65625 316.246094 264.476562 313.1875 272.480469 C 311.761719 276.203125 310.652344 281.765625 311.21875 282.332031 C 311.777344 282.894531 337.589844 282.953125 338.492188 282.394531 Z M 403.046875 337.957031 C 392.359375 335.511719 382.636719 327.433594 377.007812 316.328125 C 375.136719 312.636719 372.90625 305.28125 372.242188 300.617188 C 369.644531 282.335938 374.828125 264.675781 385.867188 254.195312 C 391.632812 248.726562 396.820312 245.914062 403.710938 244.527344 C 427.96875 239.648438 448.8125 259.472656 450.074219 288.625 C 450.601562 300.796875 447.652344 312.386719 441.757812 321.292969 C 436.832031 328.738281 429.066406 334.671875 420.78125 337.324219 C 416.902344 338.566406 407.222656 338.910156 403.046875 337.957031 Z M 416.058594 318.53125 C 419.96875 316.503906 422.957031 311.734375 424.558594 304.964844 C 425.363281 301.550781 425.488281 299.765625 425.492188 291.375 C 425.496094 283.605469 425.351562 281.082031 424.738281 278.496094 C 422.523438 269.132812 418.804688 264.230469 413.007812 263.027344 C 405.433594 261.453125 399.394531 267.121094 397.167969 277.894531 C 394.472656 290.949219 396.089844 307.078125 400.804688 314.203125 C 402.136719 316.210938 405.214844 318.683594 407.171875 319.316406 C 409.148438 319.957031 414.160156 319.511719 416.058594 318.53125 Z M 94.050781 335.644531 C 93.210938 334.71875 92.796875 333.460938 90.148438 323.792969 C 88.730469 318.636719 87.300781 313.484375 85.859375 308.335938 C 83.683594 300.613281 81.539062 292.886719 79.421875 285.148438 C 76.730469 275.316406 74 265.5 71.230469 255.691406 C 70.179688 252.003906 69.324219 248.585938 69.324219 248.089844 C 69.324219 246.074219 70.480469 245.859375 81.394531 245.859375 C 90.511719 245.859375 91.65625 245.9375 92.503906 246.628906 C 93.300781 247.273438 93.980469 249.789062 96.8125 262.621094 C 100.203125 277.984375 101.320312 282.988281 102.828125 289.65625 C 105.019531 299.332031 107.539062 311.195312 107.539062 311.855469 C 107.539062 313.199219 108.242188 311.824219 108.785156 309.410156 C 109.339844 306.941406 110.472656 301.773438 115.863281 277.203125 C 121.554688 251.246094 122.453125 247.507812 123.183594 246.777344 C 123.789062 246.171875 125.308594 246.058594 134.070312 245.960938 C 144.988281 245.839844 146.269531 246.039062 146.539062 247.914062 C 146.65625 248.753906 145.175781 254.304688 138.628906 277.550781 C 135.515625 288.734375 132.433594 299.925781 129.378906 311.125 C 127.886719 316.601562 126.761719 320.5625 123.375 332.257812 C 122.917969 333.839844 122.246094 335.433594 121.878906 335.800781 C 121.3125 336.367188 119.335938 336.460938 108.003906 336.460938 C 95.554688 336.460938 94.75 336.414062 94.050781 335.644531 Z M 161.050781 335.566406 L 159.914062 334.671875 L 160.027344 291.140625 C 160.132812 250.027344 160.183594 247.5625 160.90625 246.839844 C 161.585938 246.160156 162.734375 246.058594 171.296875 245.945312 C 179.402344 245.835938 181.128906 245.910156 182.230469 246.492188 L 183.542969 247.167969 L 183.542969 290.503906 C 183.542969 321.621094 183.40625 334.140625 183.0625 334.902344 C 182.796875 335.484375 182.167969 336.070312 181.664062 336.203125 C 181.164062 336.339844 176.574219 336.453125 171.46875 336.453125 C 162.710938 336.460938 162.125 336.40625 161.050781 335.566406 Z M 167.796875 239.035156 C 163.984375 238.046875 160.164062 234.472656 158.898438 230.707031 C 158.03125 228.125 158.011719 223.917969 158.855469 221.074219 C 159.628906 218.464844 162.660156 214.894531 165.242188 213.550781 C 167.929688 212.152344 174.523438 211.945312 177.289062 213.167969 C 180.5 214.589844 182.507812 216.445312 183.945312 219.320312 C 185.125 221.679688 185.257812 222.347656 185.25 225.855469 C 185.238281 230.394531 184.441406 232.636719 181.90625 235.269531 C 179.363281 237.910156 176.644531 239.070312 172.609375 239.238281 C 170.710938 239.316406 168.542969 239.226562 167.796875 239.03125 Z M 65.671875 216.78125 C 63.355469 215.277344 63.3125 211.960938 63.320312 157.660156 C 63.320312 125.992188 63.46875 99.867188 63.640625 99.609375 C 64.460938 98.378906 66.046875 98.148438 73.554688 98.148438 C 77.800781 98.148438 81.585938 98.269531 81.96875 98.414062 C 83.042969 98.828125 83.433594 99.886719 84.585938 105.53125 C 85.171875 108.421875 85.800781 110.929688 85.976562 111.105469 C 86.152344 111.28125 86.867188 110.320312 87.5625 108.972656 C 89.058594 106.074219 93.589844 101.371094 96.539062 99.652344 C 101.691406 96.648438 107.421875 95.511719 113.023438 96.386719 C 126.054688 98.410156 135.125 109.53125 139.15625 128.421875 C 140.160156 133.117188 140.425781 149.121094 139.601562 155.257812 C 138.140625 166.132812 133.988281 176.214844 128.585938 182 C 123.082031 187.894531 118.089844 190.378906 110.972656 190.769531 C 105.875 191.050781 102.585938 190.457031 98.71875 188.558594 C 95.246094 186.851562 91.261719 183.125 88.761719 179.246094 C 87.871094 177.863281 87 176.734375 86.820312 176.730469 C 86.644531 176.730469 86.5 185.121094 86.5 195.378906 C 86.5 205.816406 86.324219 214.488281 86.101562 215.078125 C 85.453125 216.785156 83.660156 217.09375 74.734375 217.039062 C 70.222656 217.007812 66.144531 216.902344 65.671875 216.78125 Z M 105.203125 170.425781 C 108.320312 169.363281 111.332031 166.160156 113.003906 162.128906 C 114.898438 157.550781 115.742188 152.96875 116.007812 145.8125 C 116.464844 133.34375 113.632812 122.652344 108.789062 118.578125 C 107.246094 117.277344 103.242188 115.753906 101.375 115.753906 C 92.058594 115.753906 86.0625 126.414062 86.074219 142.945312 C 86.082031 154.726562 88.425781 163.152344 92.945312 167.675781 C 96.1875 170.914062 100.757812 171.941406 105.203125 170.425781 Z M 412.722656 190.476562 C 397.863281 187.792969 386.253906 176.257812 382.179688 160.136719 C 376.691406 138.402344 382.6875 115.527344 396.867188 104.105469 C 410.261719 93.320312 429.496094 93.34375 441.761719 104.167969 C 447.125 108.894531 450.230469 113.375 453.207031 120.660156 C 455.671875 126.695312 456.664062 131.839844 456.941406 140.09375 C 457.070312 143.914062 457.054688 147.523438 456.90625 148.113281 C 456.265625 150.660156 457.574219 150.539062 430.222656 150.539062 C 416.4375 150.539062 405.054688 150.707031 404.929688 150.910156 C 404.46875 151.660156 406.023438 159.300781 407.335938 162.699219 C 409.0625 167.183594 412.289062 170.644531 415.628906 171.605469 C 422.902344 173.699219 429.796875 170.429688 432.121094 163.785156 C 433.710938 159.238281 433.933594 158.929688 435.722656 158.777344 C 437.066406 158.671875 446.914062 160.621094 452.898438 162.179688 C 455.394531 162.832031 455.628906 164.015625 454.066406 168.058594 C 452.25 172.757812 449.972656 176.453125 446.8125 179.828125 C 439.792969 187.320312 432.25 190.480469 420.78125 190.726562 C 417.476562 190.800781 413.847656 190.695312 412.722656 190.484375 Z M 433.019531 133.769531 C 433.019531 129.433594 430.261719 121.488281 427.710938 118.46875 C 425.953125 116.390625 422.585938 114.890625 419.734375 114.914062 C 415.183594 114.945312 411.726562 117.066406 409.210938 121.355469 C 407.566406 124.164062 405.730469 129.554688 405.289062 132.886719 L 405 135.074219 L 433.019531 135.074219 Z M 152.496094 187.882812 L 151.335938 186.96875 L 151.335938 143.257812 C 151.335938 103.152344 151.394531 99.492188 152.042969 98.953125 C 152.992188 98.164062 168.054688 97.855469 169.824219 98.585938 C 171.316406 99.203125 171.71875 100.203125 172.832031 106.089844 C 173.324219 108.691406 173.859375 110.953125 174.023438 111.121094 C 174.183594 111.285156 174.988281 110.128906 175.8125 108.542969 C 177.632812 105.03125 182.074219 100.394531 185.074219 98.878906 C 190.078125 96.351562 197.394531 95.683594 203.007812 97.238281 C 206.554688 98.222656 208.015625 99.453125 208.015625 101.460938 C 208.015625 102.898438 205.15625 114.953125 203.886719 118.871094 C 202.917969 121.847656 202.296875 122.011719 198.0625 120.425781 C 193.0625 118.554688 190.523438 117.910156 188.132812 117.90625 C 181.679688 117.890625 177.621094 121.285156 175.523438 128.453125 C 174.867188 130.710938 174.753906 134.167969 174.546875 159.207031 C 174.359375 181.511719 174.191406 187.535156 173.753906 187.976562 C 173.335938 188.394531 170.722656 188.566406 163.425781 188.664062 C 154.015625 188.785156 153.609375 188.753906 152.496094 187.878906 Z M 215.910156 188.328125 C 215.414062 188.128906 214.894531 187.667969 214.753906 187.304688 C 214.566406 186.820312 214.28125 108.585938 214.433594 100.628906 C 214.476562 98.425781 215.832031 98.148438 226.605469 98.148438 C 237.242188 98.148438 237.46875 98.207031 237.652344 100.9375 C 237.699219 101.648438 237.714844 121.308594 237.691406 144.628906 C 237.644531 186.429688 237.632812 187.042969 236.789062 187.890625 C 235.976562 188.699219 235.375 188.746094 226.375 188.722656 C 221.117188 188.707031 216.410156 188.53125 215.914062 188.328125 Z M 253.632812 188.296875 C 253.097656 188.085938 252.46875 187.40625 252.238281 186.796875 C 251.96875 186.089844 251.8125 169.945312 251.8125 142.851562 C 251.8125 106.554688 251.90625 99.894531 252.421875 99.1875 C 252.980469 98.425781 253.707031 98.34375 261.253906 98.207031 C 266.816406 98.101562 269.863281 98.222656 270.671875 98.558594 C 271.96875 99.09375 272.125 99.558594 273.65625 107.25 C 274.066406 109.308594 274.523438 111.117188 274.671875 111.265625 C 274.824219 111.417969 275.625 110.195312 276.449219 108.554688 C 279.144531 103.203125 283.585938 99.191406 288.992188 97.21875 C 291.007812 96.480469 292.554688 96.28125 296.472656 96.25 C 301.730469 96.203125 303.839844 96.679688 308.277344 98.90625 C 311.175781 100.355469 315.71875 105.015625 317.691406 108.554688 C 318.578125 110.148438 319.433594 111.449219 319.589844 111.441406 C 319.746094 111.433594 320.492188 110.519531 321.25 109.402344 C 325.226562 103.539062 331.003906 98.921875 336.546875 97.175781 C 340.898438 95.808594 347.859375 95.828125 351.945312 97.222656 C 360.730469 100.210938 365.917969 106.757812 369.148438 118.9375 C 370.042969 122.3125 370.074219 123.304688 370.21875 154.613281 C 370.34375 182.363281 370.277344 186.9375 369.738281 187.675781 C 369.144531 188.484375 368.53125 188.542969 359.292969 188.667969 C 349.871094 188.808594 349.429688 188.777344 348.332031 187.90625 L 347.1875 187.007812 L 347.042969 157.929688 C 346.902344 129.265625 346.886719 128.808594 345.953125 126.019531 C 344.023438 120.273438 340.875 117.757812 335.546875 117.710938 C 330.15625 117.664062 326.351562 120.570312 324.347656 126.273438 C 322.917969 130.335938 322.671875 135.523438 322.667969 161.589844 C 322.664062 186.457031 322.644531 187.050781 321.804688 187.890625 C 321 188.699219 320.375 188.75 311.472656 188.75 C 301.789062 188.75 300.742188 188.59375 299.90625 187.027344 C 299.601562 186.460938 299.457031 177.269531 299.464844 159.234375 C 299.476562 132.238281 299.328125 128.972656 297.902344 124.59375 C 295.886719 118.398438 288.308594 115.742188 282.179688 119.078125 C 278.257812 121.214844 276.179688 125.609375 275.421875 133.355469 C 275.203125 135.601562 275.019531 148.589844 275.015625 162.21875 L 275.003906 187 L 274.0625 187.875 C 273.175781 188.699219 272.609375 188.746094 263.863281 188.722656 C 258.773438 188.707031 254.167969 188.519531 253.632812 188.300781 Z M 222.1875 91.300781 C 218.4375 90.15625 215.113281 87.257812 213.527344 83.757812 C 212.152344 80.722656 212.15625 75.230469 213.535156 72.121094 C 214.753906 69.378906 217.460938 66.695312 220.253906 65.460938 C 223.3125 64.105469 228.796875 64.125 231.964844 65.503906 C 235.066406 66.847656 238.113281 70.238281 239.132812 73.46875 C 240.164062 76.746094 239.847656 81.339844 238.367188 84.570312 C 237.070312 87.402344 233.859375 90.105469 230.667969 91.054688 C 228.371094 91.734375 224.019531 91.867188 222.1875 91.304688 Z M 222.1875 91.300781 "/>
</g>
</svg>