<svg xmlns="http://www.w3.org/2000/svg" width="169" height="169"><path d="M59.063 38.75c-7.774 0-12.666 1.978-14.72 5.938-1.026 2.053-1.706 3.886-2 5.5-.146 1.613-.218 4.126-.218 7.5V179.5H79.75v-38c5.427 6.747 14.16 10.125 26.188 10.125 12.026 0 23.314-5.644 33.875-16.937 10.706-11.294 16.062-24.415 16.062-39.375s-5.356-28.113-16.062-39.407-22.068-16.937-34.094-16.937c-11.88 0-20.614 3.81-26.188 11.437-.44-3.813-2.057-6.655-4.844-8.562-2.64-2.053-7.851-3.094-15.624-3.094m40.062 37.844c5.72 0 10.324 1.977 13.844 5.937 3.52 3.814 5.28 8.16 5.281 13s-1.905 9.156-5.719 12.969c-3.666 3.813-8.23 5.719-13.656 5.719-5.28 0-9.668-1.906-13.187-5.719-3.374-3.96-5.063-8.275-5.063-12.969s1.69-9.04 5.063-13 7.864-5.937 13.437-5.937" style="fill:#fff;fill-opacity:1;stroke:none" transform="translate(-10.5 -10.5)"/><path d="M0 0v169h31.625V47.188c0-3.374.072-5.887.219-7.5.293-1.614.973-3.447 2-5.5 2.053-3.96 6.945-5.938 14.718-5.938 7.774 0 12.985 1.04 15.626 3.094 2.786 1.907 4.403 4.749 4.843 8.562C74.605 32.28 83.34 28.47 95.22 28.47c12.026 0 23.387 5.644 34.094 16.937 10.706 11.294 16.062 24.447 16.062 39.407s-5.356 28.081-16.062 39.375q-15.838 16.938-33.875 16.937c-12.027 0-20.761-3.378-26.188-10.125v38H169V0zm88.625 66.094c-5.573 0-10.064 1.977-13.437 5.937-3.374 3.96-5.063 8.307-5.063 13 0 4.694 1.69 9.009 5.063 12.969 3.52 3.813 7.907 5.719 13.187 5.719 5.427 0 9.99-1.906 13.656-5.719 3.813-3.813 5.719-8.129 5.719-12.969s-1.761-9.186-5.281-13c-3.52-3.96-8.124-5.937-13.844-5.937" style="fill:#2e4153;fill-opacity:1;stroke:none"/></svg>