<?xml version="1.0" encoding="UTF-8" standalone="no"?>
<!DOCTYPE svg PUBLIC "-//W3C//DTD SVG 1.1//EN" "http://www.w3.org/Graphics/SVG/1.1/DTD/svg11.dtd">
<svg width="100%" height="100%" viewBox="0 0 40 40" version="1.1" xmlns="http://www.w3.org/2000/svg" xmlns:xlink="http://www.w3.org/1999/xlink" xml:space="preserve" xmlns:serif="http://www.serif.com/" style="fill-rule:evenodd;clip-rule:evenodd;stroke-linejoin:round;stroke-miterlimit:2;">
    <g transform="matrix(1,0,0,1,0.467125,5.81045)">
        <path d="M19.519,20.543C19.911,20.543 20.312,20.738 20.538,21.121L21.716,23.063C22.426,24.233 23.694,24.946 25.06,24.946L38.469,24.946C38.726,24.946 38.945,24.751 38.975,24.496C39.103,23.333 39.088,21.968 38.975,20.866C38.945,20.573 38.666,20.371 38.371,20.423L25.619,22.86C25.144,22.951 24.917,22.305 25.347,22.081L37.186,16.043C37.42,15.923 37.518,15.646 37.42,15.406C36.952,14.236 36.219,12.871 35.547,11.911C35.381,11.671 35.034,11.626 34.808,11.798C32.354,13.703 27.22,17.791 24.245,20.168C23.837,20.491 23.286,19.996 23.573,19.561C25.876,16.081 29.968,9.885 31.229,7.965C31.372,7.748 31.319,7.448 31.116,7.29C30.006,6.443 28.888,5.79 27.597,5.198C27.34,5.078 27.031,5.198 26.918,5.468L21.346,18.886C21.187,19.276 20.598,19.133 20.636,18.713L21.95,4.11C21.973,3.84 21.776,3.615 21.504,3.563C20.629,3.39 18.394,3.39 17.526,3.563C17.254,3.615 17.057,3.84 17.08,4.11L18.379,18.698C18.416,19.118 17.835,19.253 17.669,18.871L12.12,5.475C12.007,5.213 11.697,5.093 11.44,5.205C10.149,5.798 9.032,6.45 7.922,7.298C7.711,7.455 7.658,7.755 7.809,7.973L15.464,19.568C15.751,20.003 15.2,20.498 14.792,20.176L4.23,11.806C4.003,11.626 3.656,11.678 3.49,11.918C2.818,12.878 2.086,14.243 1.618,15.413C1.52,15.653 1.618,15.931 1.852,16.051L13.705,22.088C14.136,22.305 13.909,22.958 13.433,22.868L0.689,20.423C0.395,20.371 0.115,20.573 0.085,20.866C-0.021,21.968 -0.036,23.333 0.085,24.496C0.115,24.751 0.334,24.946 0.591,24.946L14,24.946C15.374,24.946 16.642,24.233 17.344,23.063L18.522,21.121C18.756,20.738 19.149,20.543 19.541,20.543" style="fill:rgb(15,43,202);fill-rule:nonzero;"/>
    </g>
</svg>
