<svg xmlns="http://www.w3.org/2000/svg" xmlns:xlink="http://www.w3.org/1999/xlink" version="1.1" style="shape-rendering:geometricPrecision; text-rendering:geometricPrecision; image-rendering:optimizeQuality; fill-rule:evenodd; clip-rule:evenodd" viewBox="-0.5 -0.5 323 341">
<g><path style="opacity:1" fill="#6d4afe" d="M 52.5,-0.5 C 57.1667,-0.5 61.8333,-0.5 66.5,-0.5C 80.5677,8.71264 94.901,17.7126 109.5,26.5C 117.257,23.4688 125.257,21.4688 133.5,20.5C 142.306,19.5607 151.139,18.894 160,18.5C 169.523,18.9101 179.023,19.5768 188.5,20.5C 197.652,21.6628 206.485,23.9962 215,27.5C 229.513,18.0054 244.013,8.67206 258.5,-0.5C 263.167,-0.5 267.833,-0.5 272.5,-0.5C 278.89,2.22448 283.223,6.89115 285.5,13.5C 285.549,17.0781 286.215,20.4115 287.5,23.5C 287.5,23.8333 287.5,24.1667 287.5,24.5C 287.335,28.1817 287.501,31.8484 288,35.5C 288.232,36.7375 288.732,37.7375 289.5,38.5C 291.431,55.1832 293.597,71.8498 296,88.5C 310.046,108.485 318.879,130.485 322.5,154.5C 322.5,163.167 322.5,171.833 322.5,180.5C 318.205,205.321 305.538,224.821 284.5,239C 278.461,243.02 272.128,246.52 265.5,249.5C 265.167,249.5 264.833,249.5 264.5,249.5C 235.26,262.416 204.594,269.082 172.5,269.5C 163.5,269.5 154.5,269.5 145.5,269.5C 114.842,267.835 85.509,260.835 57.5,248.5C 57.5,247.833 57.1667,247.5 56.5,247.5C 33.7391,237.575 16.5725,221.575 5,199.5C 2.6729,193.172 0.839566,186.838 -0.5,180.5C -0.5,171.833 -0.5,163.167 -0.5,154.5C 0.166667,151.5 0.833333,148.5 1.5,145.5C 3.10161,141.761 4.10161,137.761 4.5,133.5C 9.47868,115.543 17.6453,99.2093 29,84.5C 30.0959,79.5348 30.9293,74.5348 31.5,69.5C 33.7479,60.0936 35.0813,50.427 35.5,40.5C 35.1936,37.6146 35.5269,34.9479 36.5,32.5C 37.889,27.7312 38.5557,22.7312 38.5,17.5C 39.8138,8.86401 44.4804,2.86401 52.5,-0.5 Z"/></g>
<g><path style="opacity:0.184" fill="#b5a5ff" d="M 188.5,20.5 C 179.023,19.5768 169.523,18.9101 160,18.5C 151.139,18.894 142.306,19.5607 133.5,20.5C 151.833,16.5 170.167,16.5 188.5,20.5 Z"/></g>
<g><path style="opacity:0.196" fill="#bcaeff" d="M 285.5,13.5 C 287.011,16.5443 287.678,19.8776 287.5,23.5C 286.215,20.4115 285.549,17.0781 285.5,13.5 Z"/></g>
<g><path style="opacity:0.627" fill="#a08bff" d="M 38.5,17.5 C 38.5557,22.7312 37.889,27.7312 36.5,32.5C 36.4443,27.2688 37.111,22.2688 38.5,17.5 Z"/></g>
<g><path style="opacity:1" fill="#4b2ec7" d="M 54.5,31.5 C 62.1857,33.3427 69.1857,36.8427 75.5,42C 66.8044,48.017 58.4711,54.517 50.5,61.5C 49.3452,58.5541 49.1786,55.5541 50,52.5C 50.6109,45.2155 52.1109,38.2155 54.5,31.5 Z"/></g>
<g><path style="opacity:1" fill="#4b2ec7" d="M 261.5,31.5 C 265.509,30.6857 268.176,32.1857 269.5,36C 270.261,43.0306 271.261,50.0306 272.5,57C 272.167,58.5 271.833,60 271.5,61.5C 263.451,54.7829 255.117,48.4496 246.5,42.5C 251.352,38.5798 256.352,34.9131 261.5,31.5 Z"/></g>
<g><path style="opacity:1" fill="#af98ff" d="M 287.5,24.5 C 288.521,28.9804 289.187,33.647 289.5,38.5C 288.732,37.7375 288.232,36.7375 288,35.5C 287.501,31.8484 287.335,28.1817 287.5,24.5 Z"/></g>
<g><path style="opacity:1" fill="#b2a0ff" d="M 35.5,40.5 C 35.0813,50.427 33.7479,60.0936 31.5,69.5C 32.2748,59.6208 33.6082,49.9541 35.5,40.5 Z"/></g>
<g><path style="opacity:1" fill="#382483" d="M 120.5,136.5 C 105.579,113.209 84.2456,103.042 56.5,106C 31.7076,113.052 19.7076,129.552 20.5,155.5C 14.4913,125.392 26.4913,106.225 56.5,98C 80.8138,95.6537 100.314,104.154 115,123.5C 117.403,127.635 119.237,131.968 120.5,136.5 Z"/></g>
<g><path style="opacity:1" fill="#382382" d="M 272.5,154.5 C 272.889,129.065 260.889,112.898 236.5,106C 209.295,102.94 188.295,112.773 173.5,135.5C 178.732,119.762 189.066,108.595 204.5,102C 228.663,92.8306 249.497,97.664 267,116.5C 275.167,128.45 277,141.117 272.5,154.5 Z"/></g>
<g><path style="opacity:1" fill="#fcfbfd" d="M 120.5,136.5 C 120.5,137.167 120.5,137.833 120.5,138.5C 122.202,146.046 122.868,153.713 122.5,161.5C 117.544,180.955 105.211,192.788 85.5,197C 58.8535,200.092 38.6869,190.259 25,167.5C 23.3695,163.429 21.8695,159.429 20.5,155.5C 19.7076,129.552 31.7076,113.052 56.5,106C 84.2456,103.042 105.579,113.209 120.5,136.5 Z"/></g>
<g><path style="opacity:1" fill="#fcfbfd" d="M 272.5,154.5 C 267.907,172.27 257.24,185.103 240.5,193C 236.371,194.949 232.037,196.116 227.5,196.5C 218.051,196.94 208.718,196.273 199.5,194.5C 180.987,187.168 170.987,173.501 169.5,153.5C 169.576,147.198 170.909,141.198 173.5,135.5C 188.295,112.773 209.295,102.94 236.5,106C 260.889,112.898 272.889,129.065 272.5,154.5 Z"/></g>
<g><path style="opacity:1" fill="#4129a3" d="M 79.5,123.5 C 78.0567,125.621 77.0567,127.954 76.5,130.5C 76.4759,134.973 78.6426,137.307 83,137.5C 84.8784,137.304 86.7117,136.971 88.5,136.5C 88.5,136.833 88.5,137.167 88.5,137.5C 89.3197,143.797 89.653,150.131 89.5,156.5C 88.7487,165.504 84.7487,172.671 77.5,178C 70.9888,179.874 65.8221,178.041 62,172.5C 53.6807,158.061 53.3473,143.395 61,128.5C 65.587,121.26 71.7537,119.594 79.5,123.5 Z"/></g>
<g><path style="opacity:1" fill="#4128a3" d="M 232.5,123.5 C 228.529,126.855 227.696,130.855 230,135.5C 233.303,137.744 236.803,138.077 240.5,136.5C 241.159,139.455 241.492,142.455 241.5,145.5C 241.799,152.283 241.133,158.949 239.5,165.5C 236.708,175.136 230.374,179.302 220.5,178C 213.967,173.121 209.801,166.621 208,158.5C 205.757,146.48 208.09,135.48 215,125.5C 220.372,121.016 226.206,120.35 232.5,123.5 Z"/></g>
<g><path style="opacity:1" fill="#bcb4dd" d="M 79.5,123.5 C 83.707,126.886 86.707,131.219 88.5,136.5C 86.7117,136.971 84.8784,137.304 83,137.5C 78.6426,137.307 76.4759,134.973 76.5,130.5C 77.0567,127.954 78.0567,125.621 79.5,123.5 Z"/></g>
<g><path style="opacity:1" fill="#beb6de" d="M 232.5,123.5 C 236.417,126.988 239.083,131.321 240.5,136.5C 236.803,138.077 233.303,137.744 230,135.5C 227.696,130.855 228.529,126.855 232.5,123.5 Z"/></g>
<g><path style="opacity:0.545" fill="#b6a5ff" d="M 4.5,133.5 C 4.10161,137.761 3.10161,141.761 1.5,145.5C 1.58413,141.163 2.58413,137.163 4.5,133.5 Z"/></g>
<g><path style="opacity:1" fill="#9188c2" d="M 88.5,137.5 C 90.0392,140.865 90.7058,144.531 90.5,148.5C 90.4975,151.355 90.1641,154.022 89.5,156.5C 89.653,150.131 89.3197,143.797 88.5,137.5 Z"/></g>
<g><path style="opacity:1" fill="#c8befe" d="M 120.5,138.5 C 121.6,140.277 122.434,142.277 123,144.5C 123.818,150.349 123.652,156.015 122.5,161.5C 122.868,153.713 122.202,146.046 120.5,138.5 Z"/></g>
<g><path style="opacity:1" fill="#a8a0d0" d="M 241.5,145.5 C 242.648,149.981 242.815,154.648 242,159.5C 241.963,161.974 241.13,163.974 239.5,165.5C 241.133,158.949 241.799,152.283 241.5,145.5 Z"/></g>
<g><path style="opacity:1" fill="#f5f2ff" d="M 128.5,189.5 C 133.371,188.784 137.537,190.117 141,193.5C 144.804,190.036 149.304,188.703 154.5,189.5C 154.898,193.759 152.898,195.592 148.5,195C 144.945,197.21 143.112,200.377 143,204.5C 141.667,205.833 140.333,205.833 139,204.5C 138.058,198.181 134.391,194.515 128,193.5C 127.421,192.072 127.588,190.738 128.5,189.5 Z"/></g>
<g><path style="opacity:1" fill="#d8d0ff" d="M 199.5,194.5 C 208.718,196.273 218.051,196.94 227.5,196.5C 220.345,197.655 213.012,197.822 205.5,197C 203.277,196.434 201.277,195.6 199.5,194.5 Z"/></g>
<g><path style="opacity:1" fill="#4028a2" d="M 57.5,248.5 C 85.509,260.835 114.842,267.835 145.5,269.5C 144.5,270.167 143.5,270.833 142.5,271.5C 137.601,272.952 133.267,275.452 129.5,279C 126.547,281.752 124.214,284.918 122.5,288.5C 100.833,288.5 79.1667,288.5 57.5,288.5C 57.5,275.167 57.5,261.833 57.5,248.5 Z"/></g>
<g><path style="opacity:1" fill="#4128a2" d="M 264.5,249.5 C 264.5,262.5 264.5,275.5 264.5,288.5C 242.167,288.5 219.833,288.5 197.5,288.5C 191.927,278.584 183.594,272.584 172.5,270.5C 172.5,270.167 172.5,269.833 172.5,269.5C 204.594,269.082 235.26,262.416 264.5,249.5 Z"/></g>
<g><path style="opacity:1" fill="#b87694" d="M 145.5,269.5 C 154.5,269.5 163.5,269.5 172.5,269.5C 172.5,269.833 172.5,270.167 172.5,270.5C 169.167,270.5 165.833,270.5 162.5,270.5C 155.798,270.336 149.131,270.669 142.5,271.5C 143.5,270.833 144.5,270.167 145.5,269.5 Z"/></g>
<g><path style="opacity:1" fill="#fc9219" d="M 162.5,270.5 C 165.833,270.5 169.167,270.5 172.5,270.5C 183.594,272.584 191.927,278.584 197.5,288.5C 197.5,289.167 197.833,289.5 198.5,289.5C 205.9,311.182 199.566,327.349 179.5,338C 177.26,338.977 174.927,339.477 172.5,339.5C 168.818,339.665 165.152,339.499 161.5,339C 182.176,331.833 190.676,317.333 187,295.5C 182.64,283.307 174.473,274.974 162.5,270.5 Z"/></g>
<g><path style="opacity:1" fill="#feab30" d="M 162.5,270.5 C 174.473,274.974 182.64,283.307 187,295.5C 190.676,317.333 182.176,331.833 161.5,339C 165.152,339.499 168.818,339.665 172.5,339.5C 172.5,339.833 172.5,340.167 172.5,340.5C 164.167,340.5 155.833,340.5 147.5,340.5C 122.176,332.188 113.51,315.188 121.5,289.5C 122.167,289.5 122.5,289.167 122.5,288.5C 124.214,284.918 126.547,281.752 129.5,279C 133.267,275.452 137.601,272.952 142.5,271.5C 149.131,270.669 155.798,270.336 162.5,270.5 Z"/></g>
<g><path style="opacity:0.576" fill="#8475c1" d="M 56.5,247.5 C 57.1667,247.5 57.5,247.833 57.5,248.5C 57.5,261.833 57.5,275.167 57.5,288.5C 79.1667,288.5 100.833,288.5 122.5,288.5C 122.5,289.167 122.167,289.5 121.5,289.5C 99.8333,289.5 78.1667,289.5 56.5,289.5C 56.5,275.5 56.5,261.5 56.5,247.5 Z"/></g>
<g><path style="opacity:0.576" fill="#7d6dbf" d="M 264.5,249.5 C 264.833,249.5 265.167,249.5 265.5,249.5C 265.5,262.833 265.5,276.167 265.5,289.5C 243.167,289.5 220.833,289.5 198.5,289.5C 197.833,289.5 197.5,289.167 197.5,288.5C 219.833,288.5 242.167,288.5 264.5,288.5C 264.5,275.5 264.5,262.5 264.5,249.5 Z"/></g>
<g><path style="opacity:1" fill="#3a257f" d="M 148.5,289.5 C 155.648,287.705 160.815,290.039 164,296.5C 164.964,301.244 163.631,305.244 160,308.5C 159.667,311.833 159.333,315.167 159,318.5C 155.829,323.414 152.163,323.747 148,319.5C 147.667,315.833 147.333,312.167 147,308.5C 140.768,301.625 141.268,295.292 148.5,289.5 Z"/></g>
</svg>