<svg xmlns="http://www.w3.org/2000/svg" xmlns:xlink="http://www.w3.org/1999/xlink" xml:space="preserve" viewBox="0 0 512 512"><defs><path id="a" d="M0 0h512v512H0z"/></defs><clipPath id="b"><use xlink:href="#a" style="overflow:visible"/></clipPath><g style="clip-path:url(#b)"><radialGradient id="c" cx="-82.144" cy="628.629" r="32" gradientTransform="matrix(7.0496 -11.3441 -17.7399 -11.0241 11885.397 6520.166)" gradientUnits="userSpaceOnUse"><stop offset="0" style="stop-color:#ffd580"/><stop offset=".094" style="stop-color:#f6c592"/><stop offset=".205" style="stop-color:#ebb6a2"/><stop offset=".325" style="stop-color:#dfa5af"/><stop offset=".429" style="stop-color:#d397be"/><stop offset=".534" style="stop-color:#c486cb"/><stop offset=".649" style="stop-color:#b578d9"/><stop offset=".771" style="stop-color:#a166e5"/><stop offset=".891" style="stop-color:#8b57f2"/><stop offset="1" style="stop-color:#704cff"/></radialGradient><path d="M154 64.7c35.7-35.7 53.6-53.6 74.2-60.3 18.1-5.9 37.6-5.9 55.7 0 20.6 6.7 38.4 24.5 74.2 60.3l89.3 89.3c35.7 35.7 53.6 53.6 60.3 74.2 5.9 18.1 5.9 37.6 0 55.7-6.7 20.6-24.6 38.4-60.3 74.2L358 447.3c-35.7 35.7-53.6 53.6-74.2 60.3-18.1 5.9-37.6 5.9-55.7 0-20.6-6.7-38.5-24.6-74.2-60.3l-16.8-18.8c-10.2-11.4-15.2-17.1-18.9-23.6-3.2-5.7-5.6-11.9-7-18.4-1.6-7.2-1.6-14.9-1.6-30.1V155.5c0-15.3 0-22.9 1.6-30.1 1.4-6.4 3.8-12.6 7-18.3 3.6-6.5 8.7-12.2 18.9-23.6z" style="fill:url(#c)"/><linearGradient id="d" x1="240.161" x2="339.73" y1="632.582" y2="24.797" gradientTransform="matrix(1 0 0 -1 0 514)" gradientUnits="userSpaceOnUse"><stop offset="0" style="stop-color:#6d4aff"/><stop offset=".392" style="stop-color:#b39ffb;stop-opacity:.978"/><stop offset="1" style="stop-color:#ffe8db;stop-opacity:.8"/></linearGradient><path d="M154 64.7c35.7-35.7 53.6-53.6 74.2-60.3 18.1-5.9 37.6-5.9 55.7 0 20.6 6.7 38.4 24.5 74.2 60.3l89.3 89.3c35.7 35.7 53.6 53.6 60.3 74.2 5.9 18.1 5.9 37.6 0 55.7-6.7 20.6-24.6 38.4-60.3 74.2L358 447.3c-35.7 35.7-53.6 53.6-74.2 60.3-18.1 5.9-37.6 5.9-55.7 0-20.6-6.7-38.5-24.6-74.2-60.3l-16.8-18.8c-10.2-11.4-15.2-17.1-18.9-23.6-3.2-5.7-5.6-11.9-7-18.4-1.6-7.2-1.6-14.9-1.6-30.1V155.5c0-15.3 0-22.9 1.6-30.1 1.4-6.4 3.8-12.6 7-18.3 3.6-6.5 8.7-12.2 18.9-23.6z" style="fill:url(#d)"/><radialGradient id="e" cx="-88.008" cy="626.123" r="32" gradientTransform="matrix(5.6703 -9.1246 -14.2691 -8.8672 9550.194 5218.864)" gradientUnits="userSpaceOnUse"><stop offset="0" style="stop-color:#ffd580"/><stop offset=".094" style="stop-color:#f6c592"/><stop offset=".205" style="stop-color:#ebb6a2"/><stop offset=".325" style="stop-color:#dfa5af"/><stop offset=".429" style="stop-color:#d397be"/><stop offset=".534" style="stop-color:#c486cb"/><stop offset=".649" style="stop-color:#b578d9"/><stop offset=".771" style="stop-color:#a166e5"/><stop offset=".891" style="stop-color:#8b57f2"/><stop offset="1" style="stop-color:#704cff"/></radialGradient><path d="M147.6 71.1c17.9-17.9 26.8-26.8 37.1-30.1 9.1-2.9 18.8-2.9 27.9 0 10.3 3.3 19.2 12.3 37.1 30.1L383.5 205c17.9 17.9 26.8 26.8 30.1 37.1 2.9 9.1 2.9 18.8 0 27.9-3.3 10.3-12.3 19.2-30.1 37.1L249.6 440.9c-17.9 17.9-26.8 26.8-37.1 30.1-9.1 2.9-18.8 2.9-27.9 0-10.3-3.3-19.2-12.3-37.1-30.1L64.7 358C29 322.3 11.1 304.5 4.4 283.9c-5.9-18.1-5.9-37.6 0-55.7 6.7-20.6 24.5-38.5 60.3-74.2z" style="fill:url(#e)"/></g></svg>