<svg xmlns="http://www.w3.org/2000/svg" fill="none" viewBox="0.11 2.67 35.78 31.01"><g clip-path="url(#clip0_4501_1103)"><mask id="a" width="36" height="32" x="0" y="2" maskUnits="userSpaceOnUse" style="mask-type:alpha"><path fill="#fff" fill-rule="evenodd" d="M.111 29.906a3.775 3.775 0 0 0 3.775 3.775l28.228-.059a3.775 3.775 0 0 0 3.775-3.775v-12.08c0-8.34-6.76-15.1-15.1-15.1l-16.903.058A3.775 3.775 0 0 0 .111 6.5v23.405m0-1.165h7.462c2.69 0 4.87-2.33 4.87-5.202 0-2.873-2.18-5.203-4.87-5.203H.111zm7.087-7.954a2.768 2.768 0 1 1 0 5.537 2.768 2.768 0 0 1 0-5.537" clip-rule="evenodd"/></mask><g mask="url(#a)"><path fill="url(#b)" d="M3.891 33.622a3.775 3.775 0 0 1-3.775-3.775V6.442a3.775 3.775 0 0 1 3.775-3.775h16.897c8.34 0 15.1 6.76 15.1 15.1v12.08a3.775 3.775 0 0 1-3.774 3.775z"/><path fill="#6D4AFF" d="M3.886 33.7a3.775 3.775 0 0 1-3.775-3.775V7.778h16.902c6.255 0 11.326 5.07 11.326 11.325V33.7z"/><path fill="url(#c)" fill-opacity=".9" d="M3.886 33.7a3.775 3.775 0 0 1-3.775-3.775V7.778h16.902c6.255 0 11.326 5.07 11.326 11.325V33.7z"/><path fill="#FFBB93" d="m5.465 33.622 5.76-6.543L.11 28.463v1.384a3.775 3.775 0 0 0 3.775 3.775z"/><path fill="#fff" fill-rule="evenodd" d="M7.573 28.742c2.69 0 4.87-2.33 4.87-5.203s-2.18-5.203-4.87-5.203H.111v10.406zm2.394-5.187a2.768 2.768 0 1 0-5.537 0 2.768 2.768 0 0 0 5.537 0" clip-rule="evenodd"/></g></g><defs><linearGradient id="b" x1="-4.379" x2="39.88" y1="6.269" y2="23.51" gradientUnits="userSpaceOnUse"><stop stop-color="#957AFD"/><stop offset="1" stop-color="#FFC6C6"/></linearGradient><linearGradient id="c" x1="26.743" x2="13.015" y1="11.758" y2="39.691" gradientUnits="userSpaceOnUse"><stop offset=".15" stop-color="#FA528E" stop-opacity="0"/><stop offset=".721" stop-color="#FF8065"/><stop offset="1" stop-color="#FFA51F"/></linearGradient></defs></svg>