<svg xmlns="http://www.w3.org/2000/svg" width="839" height="512" version="1.2"><style>.s0{fill:#000}</style><g id="Layer 1"><path id="&lt;Compound Path&gt;" fill-rule="evenodd" d="M41.2 117h40.7q16.5 0 28.1-4.8 11.5-4.8 18.8-12.7t10.6-18.1 3.3-20.8q0-10.9-3.3-21-3.3-10-10.6-17.9T110 9Q98.4 4.2 81.9 4.2H2.6V180h38.6zm0-82.7h30.1q6.6 0 12.8 1 6.2.9 10.8 3.8 4.7 2.8 7.5 8 2.9 5.2 2.9 13.5 0 8.4-2.9 13.6-2.8 5.1-7.5 8Q90.3 85 84.1 86t-12.8 1H41.2z" class="s0"/><path fill-rule="evenodd" d="M205 111.3h38.7q14.5 0 20.9 6.4t8.4 20.2q1.5 10.6 2.2 22.2.7 11.5 3.9 19.9h38.7q-2.7-3.7-4.1-9-1.3-5.3-1.9-11.2-.7-5.9-.9-11.6-.3-5.6-.5-9.8-.5-6.7-1.8-13.3-1.4-6.6-4.4-12.2-2.9-5.5-7.6-9.6t-11.8-6v-.5q14.8-5.9 21.3-17.3 6.5-11.3 6.5-26.8 0-10.1-3.5-18.8-3.6-8.8-10.4-15.4-6.8-6.7-16.2-10.5-9.5-3.8-21.3-3.8h-94.9V180H205zm0-77.1h42.4q13.3 0 19.9 5.8 6.7 5.8 6.7 18.6 0 13.3-6.7 19.2-6.6 5.9-19.9 5.9H205z" class="s0"/><path id="&lt;Path&gt;" fill-rule="evenodd" d="M417.8 184q35.2 0 55.1-17.4 20-17.4 20-53.1V4.2h-38.7v109.3q0 19.7-7.9 29-7.8 9.2-28.5 9.2-11.8 0-18.9-3.3-7-3.4-10.9-8.6-4-5.3-5.2-12.2t-1.2-14.1V4.2h-38.7v109.3q0 36 19.6 53.2 19.6 17.3 55.3 17.3" class="s0"/><path fill-rule="evenodd" d="M613.1 150q-5.2 2.4-11.1 3.3t-11.1.9q-7.6 0-14.8-1.9-7.1-1.8-12.4-5.7-5.3-3.8-8.5-9.9-3.2-6.2-3.2-15h-37.5q-.2 16.2 6 28 6.1 11.8 16.6 19.5 10.4 7.6 24.1 11.2t28.2 3.6q18 0 31.7-4.2 13.6-4.2 22.9-11.7 9.2-7.5 13.9-17.9 4.6-10.3 4.6-22.4 0-14.8-6.2-24.2-6.3-9.5-14.9-15.2-8.7-5.7-17.4-8.2-8.7-2.6-13.7-3.6-16.5-4.2-26.7-6.9t-16-5.4-7.7-5.9q-2-3.2-2-8.4 0-5.7 2.5-9.4 2.4-3.7 6.2-6.1 3.8-2.5 8.5-3.5t9.4-1q7.1 0 13.2 1.3 6 1.2 10.7 4.2 4.6 2.9 7.5 8.1 2.8 5.2 3.3 13h37.4q0-15.2-5.7-25.9-5.8-10.8-15.7-17.6-9.8-6.9-22.5-10T586.2 0q-11.8 0-23.6 3.2-11.9 3.2-21.2 9.9-9.4 6.6-15.2 16.6-5.7 9.9-5.7 23.5 0 12.1 4.5 20.6 4.6 8.5 12 14.1 7.3 5.7 16.7 9.2 9.4 3.6 19.2 6.1 9.6 2.7 19 4.9 9.3 2.2 16.7 5.2 7.4 2.9 12 7.4 4.5 4.4 4.5 11.5 0 6.7-3.4 11-3.5 4.3-8.6 6.8m106.1-9.1h65.7l13.3 39.1h40.2L772.6 4.2H733L666.5 180h38.9zm33-93.3h.5l22.2 64.5h-45.6zm-650 245.3q3.8-3.4 3.8-10.8 0-7.2-3.8-10.5-3.7-3.3-11.2-3.3H67.2v27.9H91q7.5 0 11.2-3.3m463 0q3.7-3.4 3.7-10.8 0-7.2-3.7-10.5-3.8-3.3-11.3-3.3h-23.8v27.9h23.8q7.5 0 11.3-3.3m-113.4-17.1h-.2l-12.9 36.3h25.6z" class="s0"/><path fill-rule="evenodd" d="M2 200.5h835.2v199.1H2zm708.5 50.9h21.7v38h40v-38H794v98.9h-21.8v-42.7h-40v42.7h-21.7zm-103.4 29.3q3.3-9.5 9.6-16.6 6.2-7 15.3-11 9.1-4.1 20.4-4.1 8.2 0 15.5 2.4 7.2 2.4 13 6.9 5.7 4.5 9.5 11.1 3.7 6.7 4.7 15.2H674q-.5-3.7-2.5-6.8-1.9-3.1-4.8-5.5-2.9-2.3-6.6-3.7-3.7-1.3-7.7-1.3-7.3 0-12.4 2.9-5.2 2.8-8.4 7.6-3.1 4.8-4.6 10.9t-1.5 12.6q0 6.2 1.5 12.1t4.6 10.6q3.2 4.7 8.4 7.5 5.1 2.9 12.4 2.9 10 0 15.6-6.1t6.9-16.1h21q-.8 9.3-4.3 16.8-3.4 7.5-9.1 12.7-5.7 5.3-13.3 8.1-7.6 2.7-16.8 2.7-11.3 0-20.4-3.9-9.1-4-15.3-10.9-6.3-6.9-9.6-16.3-3.3-9.3-3.3-20.1 0-11.1 3.3-20.6m-98.7-29.3h53.3q6.6 0 12 2.1 5.3 2.2 9.1 5.9 3.8 3.8 5.8 8.7t2 10.6q0 8.7-3.6 15.1-3.7 6.4-12 9.7v.3q4 1.1 6.6 3.4 2.7 2.2 4.3 5.4 1.7 3.1 2.5 6.8.7 3.8 1 7.5.1 2.4.3 5.5.1 3.2.5 6.5.3 3.4 1.1 6.3.7 3 2.2 5.1h-21.7q-1.8-4.7-2.2-11.2t-1.3-12.5q-1.1-7.7-4.7-11.3t-11.7-3.6h-21.8v38.6h-21.7zm-67.6 0h22.3l36.9 98.9h-22.5l-7.5-22h-37l-7.8 22h-21.8zm-116.5 0h73.9v18.3H346v21.2h47.9v16.9H346V332h53.3v18.3h-75zM288 316.9q-2.5-2.5-6.7-4.1-4.1-1.7-9.4-2.9-5.3-1.3-10.7-2.8-5.5-1.4-10.8-3.4-5.2-2-9.4-5.2-4.1-3.2-6.7-8-2.6-4.7-2.6-11.5 0-7.6 3.3-13.3 3.2-5.6 8.5-9.3t11.9-5.5q6.7-1.8 13.3-1.8 7.8 0 14.9 1.7t12.7 5.6q5.5 3.9 8.8 9.9 3.2 6 3.2 14.6h-21q-.3-4.4-1.9-7.3t-4.2-4.6-6-2.4q-3.4-.6-7.4-.6-2.7 0-5.3.5-2.6.6-4.8 1.9-2.1 1.4-3.5 3.5t-1.4 5.3q0 2.9 1.1 4.7t4.4 3.3q3.2 1.5 9 3.1 5.7 1.5 15 3.8 2.8.6 7.7 2 4.9 1.5 9.7 4.7 4.9 3.2 8.4 8.5 3.6 5.3 3.6 13.6 0 6.8-2.7 12.7-2.6 5.8-7.8 10t-12.9 6.6q-7.7 2.3-17.8 2.3-8.2 0-15.8-2-7.7-2-13.6-6.3t-9.4-10.9q-3.4-6.7-3.3-15.8h21.1q0 5 1.8 8.4 1.8 3.5 4.7 5.6 3 2.2 7 3.2 4.1 1.1 8.4 1.1 2.9 0 6.2-.5t6.2-1.9 4.9-3.8q1.9-2.4 1.9-6.2 0-4-2.6-6.5m-142.8-65.5h73.9v18.3h-52.2v21.2h47.9v16.9h-47.9V332h53.3v18.3h-75zm-99.8 0h53.4q6.6 0 11.9 2.2 5.4 2.1 9.2 5.8 3.8 3.8 5.8 8.7t2 10.6q0 8.7-3.7 15.1-3.6 6.4-11.9 9.7v.3q4 1.1 6.6 3.4t4.3 5.4 2.4 6.8q.8 3.8 1.1 7.5.1 2.4.2 5.5.2 3.2.5 6.6.4 3.3 1.1 6.3.8 2.9 2.3 5h-21.7q-1.8-4.7-2.2-11.2-.5-6.5-1.3-12.5-1.1-7.7-4.7-11.3t-11.8-3.6H67.2v38.6H45.4zM19.8 460.6q-3.9 0-6.5 1.6-2.2 1.4-4 3.9v-17.4H-.1v48.7h9.3v-4.5q1.9 2.6 3.5 3.7 2.8 1.8 7.2 1.8 7.2 0 11.2-5.5 4-5.6 4-14 0-8.1-4.1-13.2-4-5.1-11.2-5.1m3.3 27.1q-2 2.9-5.7 2.9-4.2 0-6.3-3-2-3.1-2-7.7 0-3.9 1-6.4 1.9-4.7 7.1-4.7 5.1 0 7 4.8 1 2.5 1 6.3 0 4.8-2.1 7.8m33.1.3-7.8-26.6H37.9L51.1 499q.1.4-.6 2.2t-1.5 2.3q-.9.6-2.1.8-1.3.2-2.7.1l-1.2-.1v7.6q1.6.1 2.3.1h2q6.3 0 8.4-2.5 2.1-2.4 5.7-12.7l12.3-35.4h-10zm71.3-13.2q0 5.4-1 7.7-1.7 3.9-6.9 3.9-5.3 0-6.9-3.5-1.6-3.6-1.8-12.3v-1.7H96v1.7q0 13.3 4.9 21t19.2 7.7q14.4 0 19.9-9.5 3.2-5.7 3.2-15.3v-52.4h-15.7zm65.7-55q-16.2 0-24.7 8.8-11.4 10.4-11.4 31.1 0 20.2 11.4 31 8.5 8.8 24.7 8.8 16.1 0 24.7-8.8 11.4-10.8 11.4-31 0-20.7-11.4-31.1-8.6-8.8-24.7-8.8m14.8 59.5q-5.5 6.9-14.8 6.9-9.4 0-14.9-6.9-5.6-6.9-5.6-19.6 0-12.8 5.6-19.7 5.5-6.9 14.9-6.9 9.3 0 14.8 7 5.5 6.9 5.5 19.6t-5.5 19.6m85.3-19.3q-4.3-3.4-13-5.5l-13.2-3.1q-7.7-1.8-10-3.1-3.7-2-3.7-6 0-4.4 3.7-6.9 3.7-2.4 10-2.4 5.6 0 9.3 1.9 5.7 2.8 6.1 9.6h15.2q-.5-12-9-18.3t-20.5-6.3q-14.5 0-21.9 6.7-7.5 6.7-7.5 16.8 0 11.1 7.6 16.3 4.5 3.1 16.6 5.8l8.1 1.8q7.2 1.5 10.5 3.5t3.3 5.8q0 6.4-6.8 8.7-3.5 1.2-9.2 1.2-9.5 0-13.4-4.6-2.1-2.6-2.9-7.7h-15q0 11.7 8.5 18.4 8.5 6.8 23.4 6.8 14.6 0 22.6-6.9 8-6.8 8-17.1 0-10.1-6.8-15.4m33.6 4.5h36.6v-13.1h-36.6v-16h39.9v-13.3h-55.2v75.3h57v-13.5h-41.7zm54 32.9h15.6v-31.6h33.4v-13h-33.4v-17.4h38.1v-13.2h-53.7zm143.5-69.5q-6.6-5.8-17.8-5.8h-32.3v75.3h15.6v-27.1h15.7q12.3 0 18.9-5.5t6.6-18.8q0-12.3-6.7-18.1m-11.9 26.7q-3 2.8-8.4 2.8h-14.2v-22.2h14.2q5.4 0 8.4 2.5t3 8.4q0 5.8-3 8.5m90 36.6q-.4-1.8-.4-7v-5q0-7.9-2.1-11.8-2.2-3.9-7.4-6 6.2-2.1 8.9-7.3t2.7-10.5q0-4.5-1.4-8-1.4-3.4-3.8-6.3-2.9-3.5-7-5.3-4.2-1.8-11.9-1.9h-36v75.3h15.4v-29.5h15.3q6.6 0 9 2.4t2.5 9.6l.1 7q0 3.3.7 6.5.3 1.5 1 4h17.3v-1.9q-2.2-1.4-2.9-4.3m-18.5-37q-2.6 1.2-7.6 1.2h-16.9v-20.2h17.3q4.9 0 7.3 1.3 4.3 2.4 4.3 9.2 0 6.3-4.4 8.5m79.8 14.2q0 7.7-1.9 11.3-2.8 6.3-12.3 6.3-9.6 0-12.5-6.3-1.8-3.6-1.8-11.3v-46.3h-16v46.3q0 12 3.7 18.7 7 12.3 26.6 12.3 19.5 0 26.4-12.3 3.8-6.7 3.8-18.7v-46.3h-16zm83.1-8.4q-4.3-3.4-13-5.5l-13.2-3.1q-7.7-1.8-10-3.1-3.7-2-3.7-6 0-4.4 3.7-6.9 3.7-2.4 10-2.4 5.6 0 9.3 1.9 5.7 2.8 6.1 9.6h15.1q-.4-12-8.9-18.3t-20.5-6.3q-14.5 0-21.9 6.7-7.5 6.7-7.5 16.8 0 11.1 7.6 16.3 4.5 3.1 16.6 5.8l8.1 1.8q7.2 1.5 10.5 3.5t3.3 5.8q0 6.4-6.8 8.7-3.5 1.2-9.2 1.2-9.5 0-13.4-4.6-2.1-2.6-2.9-7.7h-15q0 11.7 8.5 18.4 8.5 6.8 23.4 6.8 14.6 0 22.6-6.9 7.9-6.8 7.9-17.1 0-10.1-6.7-15.4m39.3-37.9-26.9 75.3h16.5l5.1-15.5h27.7l5 15.5h17.1L804 422.1zm-1 46.9 9.8-29.7 9.5 29.7z" class="s0"/></g></svg>