<svg version="1.1" id="Layer_1" xmlns:x="ns_extend;" xmlns:i="ns_ai;" xmlns:graph="ns_graphs;" xmlns="http://www.w3.org/2000/svg" xmlns:xlink="http://www.w3.org/1999/xlink" x="0px" y="0px" viewBox="0 0 88.7 79.6" style="enable-background:new 0 0 88.7 79.6;" xml:space="preserve">
 <style type="text/css">
  .st0{fill-rule:evenodd;clip-rule:evenodd;fill:#FE5000;}
 </style>
 <metadata>
  <sfw xmlns="ns_sfw;">
   <slices>
   </slices>
   <sliceSourceBounds bottomLeftOrigin="true" height="79.6" width="88.7" x="-230.9" y="-292.8">
   </sliceSourceBounds>
  </sfw>
 </metadata>
 <g>
  <path class="st0" d="M47.5,79.6H27.9c-4.1,0-7.8-2.2-9.9-5.7L1.5,45.5c-2-3.5-2-7.8,0-11.3L18,5.7C20,2.2,23.8,0,27.9,0h33
		c4.1,0,7.8,2.2,9.9,5.7l16.5,28.5c2,3.5,2,7.8,0,11.3L83,52.2c-2,3.4-5.8,5.6-9.8,5.6H53.5l10.7-18l-9.9-17.1H34.4l-9.9,17.1
		L47.5,79.6z">
  </path>
 </g>
</svg>