<svg xmlns="http://www.w3.org/2000/svg" width="400" height="400"><g fill="none" fill-rule="evenodd"><path fill="#000" stroke="#000" stroke-width="7" d="m191.102 30 .484 95.996h-7.304l-26.721 28.528v45.185h210.662l25.49-25.5v-48.213h-26.49l-.217-120.78-150.986-.462z"/><path fill="#BFBFBF" d="m184.758 129.49-23.732 25.034h192.75l24.25-25.034zM218.293 7.244 195 30.49h144l24.624-22.966z"/><path fill="gray" d="M334 30.49v117H195z"/><path fill="#FFF" d="M331 36v93H201z"/><path fill="#FFF" d="M195 148V30h144z"/><path fill="gray" d="M201 129.49v-93h130z"/><path fill="#007" d="M207 42h117v82H207z"/><path fill="#0000DB" d="M214 49h110v75H214z"/><path fill="#BFBFBF" d="M201 129h130v13H201zm-28 39h181v19H173z"/><path fill="#000" d="M279 177h63v10h-63z"/><path fill="#BFBFBF" d="M161 187h12v10h-12z"/><path fill="gray" d="m330.624 36.392 33-28.868V129L342 147.524h-11.376z"/><path fill="#FFF" d="M390.432 129.49 354 168.217H173.41v18.586h-12.9v-32.28H354l24.026-25.033z"/><path fill="gray" d="M390.432 129.49 354 168.217V187H173v10h193.399l24.033-23.031z"/><path stroke="#000" stroke-width="7" d="M367.223 125.996 342 151.018H191.586v-25.022"/><path fill="#000" stroke="#000" stroke-width="7" d="m37.102 225 .484 95.996h-7.304L3.56 349.524v45.185h210.662l25.49-25.5v-48.213h-26.49l-.217-120.78-150.986-.462z"/><path fill="#BFBFBF" d="M30.758 324.49 7.026 349.524h192.75l24.25-25.034zm33.535-122.246L41 225.49h144l24.624-22.966z"/><path fill="gray" d="M180 225.49v117H41z"/><path fill="#FFF" d="M177 231v93H47z"/><path fill="#FFF" d="M41 343V225h144z"/><path fill="gray" d="M47 324.49v-93h130z"/><path fill="#007" d="M53 237h117v82H53z"/><path fill="#0000DB" d="M60 244h110v75H60z"/><path fill="#BFBFBF" d="M47 324h130v13H47zm-28 39h181v19H19z"/><path fill="#000" d="M125 372h63v10h-63z"/><path fill="#BFBFBF" d="M7 382h12v10H7z"/><path fill="gray" d="m176.624 231.392 33-28.868V324L188 342.524h-11.376z"/><path fill="#FFF" d="M236.432 324.49 200 363.217H19.41v18.586H6.51v-32.28H200l24.026-25.033z"/><path fill="gray" d="M236.432 324.49 200 363.217V382H19v10h193.399l24.033-23.031z"/><path stroke="#000" stroke-width="7" d="M213.223 320.996 188 346.018H37.586v-25.022"/><path fill="#FF0" stroke="#000" stroke-linejoin="round" stroke-width="6" d="m288.129 71.273-83.984 90.514h58.294L108.258 279.775l86.053-92.015h-61.7z"/></g></svg>