<?xml version="1.0" encoding="UTF-8"?>
<svg xmlns="http://www.w3.org/2000/svg" width="160mm" height="160mm" xmlns:xlink="http://www.w3.org/1999/xlink" viewBox="0 0 453.54 453.54">
  <defs>
    <linearGradient id="o" data-name="Unbenannter Verlauf 6" x1="188.16" y1="114.15" x2="257.71" y2="154.3" gradientUnits="userSpaceOnUse">
      <stop offset="0" stop-color="#ee7159"/>
      <stop offset=".84" stop-color="#e62e27"/>
    </linearGradient>
  </defs>
  <g id="h" data-name="color">
    <g id="j" data-name="shield">
      <path id="k" data-name="bg" d="M226.88,378.09s.02,0,.03,0c22.5-2.4,80-45.4,98.9-95.7,28.7-52.9,34.6-152.1,36.3-157.6s5.4-10,10-13.3c4.7-3.3,10.7-5,18.1-5h42.9s0,.03.01.04c-3.18-12.11-12.03-22.68-24.21-27.74L242.91,9.4c-4.2-1.8-11.53-3.2-16.03-3.2h-.16c-4.6,0-11.67,1.4-15.87,3.2L44.95,78.8c-12.25,5.06-21.11,15.61-24.3,27.7h.02s42.98,0,42.98,0c7.4,0,13.4,1.7,18.1,5,4.7,3.4,8.4,7.8,10,13.3,1.7,5.5,7.7,104.7,36.3,157.6,18.89,50.28,76.15,93.26,98.67,95.7h.16Z" fill="#0967ad" isolation="isolate" opacity=".4" stroke-width="0"/>
      <path id="l" data-name="bg-r" d="M325.65,282.4c28.7-52.9,34.6-152.1,36.3-157.6s5.4-10,10-13.3c4.7-3.3,10.7-5,18.1-5h42.9s0,.03.01.04c-3.18-12.11-12.03-22.68-24.21-27.74L242.75,9.4c-4.2-1.8-11.53-3.2-16.03-3.2v371.9s.02,0,.03,0c22.5-2.4,80-45.4,98.9-95.7Z" fill="#0967ad" isolation="isolate" opacity=".2" stroke-width="0"/>
      <path id="m" data-name="v-shape" d="M226.75,378.1c22.5-2.4,80-45.4,98.9-95.7,28.7-52.9,34.6-152.1,36.3-157.6,1.7-5.5,5.4-10,10-13.3,4.7-3.3,10.7-5,18.1-5h42.9c1.7,5.2,2.4,11.5,1.5,30.1h0c-2.1,42.9-9.5,96-44.4,166.4-43.8,81.8-98,119.6-124.8,133.9-13.4,7-28,13.1-38.5,13.1h0c-10.5,0-24.9-6.1-38.3-13.1-26.9-14.3-81.1-52.2-124.8-133.9C28.85,232.6,21.35,179.6,19.25,136.6c-.8-18.6-.1-24.9,1.5-30.1h42.9c7.4,0,13.4,1.7,18.1,5,4.7,3.4,8.4,7.8,10,13.3,1.7,5.5,7.7,104.7,36.3,157.6,18.9,50.3,76.2,93.3,98.7,95.7h0Z" fill="#0967ad" stroke-width="0"/>
    </g>
  </g>
  <g id="n" data-name="icon">
    <path d="M270.43,254.62v-101.36c1.17-2.31,2.24-4.59,3.22-6.87.17-.44.33-.84.5-1.27l38.86-15.54c5.29-2.11,11.02,1.78,11.02,7.47v90.71c0,3.28-2.01,6.23-5.06,7.47l-48.54,19.39ZM136.14,148.87l41.04-16.41c.8,4.76,2.45,9.48,4.29,13.93.97,2.28,2.04,4.56,3.22,6.87v84.21l-42.57,17.05c-5.28,1.81-11.02-1.78-11.02-7.47v-90.71c0-3.28,2-6.53,5.05-7.47h0ZM259.71,255.06l-64.61-18.39v-65.12c7.17,10.48,14.47,19.96,19.13,25.49,6.87,8.88,19.8,8.88,26.66,0,4.66-5.53,11.96-15.01,18.83-25.49v83.51Z" fill="#f6f6f6" isolation="isolate" stroke-width="0"/>
    <path d="M222.59,190.34c-10.75-13.13-35.24-45.72-35.24-64.01,0-22.2,17.99-40.2,40.2-40.2s40.2,18,40.2,40.2c0,18.29-24.49,50.88-35.24,64.01-2.58,3.52-7.34,3.52-9.91,0h0ZM227.55,137.05c7.4,0,13.4-6,13.4-13.4s-6-13.4-13.4-13.4-13.4,6-13.4,13.4,6,13.4,13.4,13.4Z" fill="url(#o)" stroke-width="0"/>
  </g>
</svg>