<?xml version="1.0" encoding="UTF-8"?>
<svg id="g" data-name="color" xmlns="http://www.w3.org/2000/svg" xmlns:xlink="http://www.w3.org/1999/xlink" viewBox="0 0 2049.4488 510.2362">
  <defs>
    <linearGradient id="m" data-name="keyhole" x1="419.0053" y1="189.2765" x2="524.0764" y2="249.9393" gradientUnits="userSpaceOnUse">
      <stop offset="0" stop-color="#ee7159"/>
      <stop offset=".85" stop-color="#e62e27"/>
    </linearGradient>
    <linearGradient id="r" data-name="Unbenannter Verlauf 2" x1="1078.7659" y1="554.6363" x2="1938.0665" y2="58.5188" gradientUnits="userSpaceOnUse">
      <stop offset="0" stop-color="#ee7159"/>
      <stop offset=".3961" stop-color="#e62e27"/>
    </linearGradient>
  </defs>
  <g id="h" data-name="logo-shield">
    <path id="i" data-name="bg" d="M476.7839,378.0913c.0098.001.0201.0029.0299.0039,22.5-2.4,80-45.4,98.9-95.7,28.7-52.9,34.6-152.1,36.3-157.6s5.4-10,10-13.3c4.7-3.3,10.7-5,18.1-5h42.9c.0042.0129.0082.0262.0125.0392-3.1755-12.1116-12.0338-22.678-24.2125-27.7393L492.8138,9.395c-4.2-1.7999-11.5299-3.2-16.0299-3.2h-.1608c-4.6.0001-11.6701,1.4001-15.8701,3.2002l-165.9,69.3999c-12.245,5.056-21.1113,15.6061-24.2982,27.7021l.0157-.0021h42.9826c7.4,0,13.4,1.7,18.1,5,4.7,3.4,8.4,7.8,10,13.3,1.7,5.5,7.7,104.7,36.3,157.6,18.8918,50.2782,76.1498,93.262,98.6701,95.6961h.1608Z" style="fill: #0967ad; isolation: isolate; opacity: .4;"/>
    <path id="j" data-name="bg-r" d="M575.553,282.3952c28.7-52.9,34.6-152.1,36.3-157.6s5.4-10,10-13.3c4.7-3.3,10.7-5,18.1-5h42.9c.0042.0129.0082.0262.0125.0392-3.1755-12.1116-12.0338-22.678-24.2125-27.7393L492.653,9.395c-4.2-1.7999-11.5299-3.2-16.0299-3.2v371.8962c.0098.001.0201.0029.0299.0039,22.5-2.4,80-45.4,98.9-95.7Z" style="fill: #0967ad; isolation: isolate; opacity: .2;"/>
    <path id="k" data-name="v-shape" d="M476.653,378.0952c22.5-2.4,80-45.4,98.9-95.7,28.7-52.9,34.6-152.1,36.3-157.6,1.7-5.5,5.4-10,10-13.3,4.7-3.3,10.7-5,18.1-5h42.9c1.7,5.2,2.4,11.5,1.5,30.1h0c-2.1,42.9-9.5,96-44.4,166.4-43.8,81.8-98,119.6-124.8,133.9-13.4,7-28,13.1-38.5,13.1h0c-10.5,0-24.9-6.1-38.3-13.1-26.9-14.3-81.1-52.2-124.8-133.9-34.8-70.4-42.3-123.4-44.4-166.4-.8-18.6-.1-24.9,1.5-30.1h42.9c7.4,0,13.4,1.7,18.1,5,4.7,3.4,8.4,7.8,10,13.3,1.7,5.5,7.7,104.7,36.3,157.6,18.9,50.3,76.2,93.3,98.7,95.7h0Z" style="fill: #0967ad;"/>
  </g>
  <g id="l" data-name="logo-icon">
    <path id="n" data-name="keyhole" d="M476.5339,137.995c-26.7,0-48.4,21.7-48.4,48.5,0,19.3,11.4,35.9,27.7,43.7v60.3c0,11.5,9.3,20.8,20.8,20.8s20.8-9.3,20.8-20.8v-60.3c16.3-7.8,27.6-24.4,27.5001-43.7,0-26.8-21.7-48.5-48.4-48.5ZM503.5339,193.695h-18.7v18.7h-16.1v-18.7h-18.7v-16.1h18.7v-18.8h16.1v18.8h18.7v16.1Z" style="fill: url(#m);"/>
    <polygon id="o" data-name="cross" points="468.7339 177.5951 450.0339 177.5951 450.0339 193.6951 468.7339 193.6951 468.7339 212.3951 484.8339 212.3951 484.8339 193.6951 503.5339 193.6951 503.5339 177.5951 484.8339 177.5951 484.8339 158.7951 468.7339 158.7951 468.7339 177.5951" style="fill: #fff;"/>
  </g>
  <g id="p" data-name="PV">
    <path d="M902.9338,306.1951v116.3h-70.9v-116.3l-110.7999-189.5h62.5c6.2,0,11,1.4,14.7,4.3,3.6,2.9,6.6,6.5,8.8,11l43.2,89c3.5,7.1,6.7,13.7,9.6,19.7,3,6,5.6,11.9,7.8,17.9,2.1-6,4.6-12,7.6-18s6.1-12.5,9.4-19.5l42.8-89c.8-1.8,2-3.6,3.5-5.5,1.5-1.8,3.1-3.5,5-4.9,1.9-1.4,4.1-2.7,6.5-3.6,2.4-.9,5.1-1.3,8.1-1.3h62.9l-110.7,189.4h0Z" style="fill: #0967ad;"/>
    <path d="M79.3339,320.8951v102.2H8.3339V117.3951h107.8c21.5,0,40,2.5,55.5,7.6,15.4,5.1,28.2,12.2,38.2,21.1,10,9,17.3,19.5,22.2,31.7,4.7,12.2,7.1,25.3,7.1,39.4,0,15.3-2.4,29.2-7.3,42-4.9,12.8-12.4,23.7-22.5,32.7-10.1,9.1-22.8,16.2-38.3,21.3s-33.7,7.6-54.9,7.6h-36.8v.1h0ZM79.3339,267.4951h36.9c18.5,0,31.7-4.4,39.9-13.2,8.1-8.8,12.2-21.1,12.2-36.9,0-7-1-13.3-3.1-19.1-2.1-5.7-5.3-10.7-9.6-14.8-4.3-4.2-9.6-7.3-16.2-9.6-6.6-2.3-14.2-3.3-23.2-3.3h-36.9v96.9h0Z" style="fill: #0967ad;"/>
  </g>
  <path d="M1003.0515,423.495v-218.3057h40.4189c4.0693,0,7.4736.9146,10.21,2.7368,2.7373,1.8252,4.6641,4.562,5.7891,8.21l3.79,12.6309c4.21-3.9272,8.5586-7.5786,13.0518-10.9468,4.4893-3.3682,9.2959-6.21,14.4199-8.5259,5.1221-2.3154,10.6641-4.1377,16.6309-5.4736,5.9639-1.332,12.4531-1.9995,19.4727-1.9995,11.9277,0,22.4893,2.0723,31.6826,6.21,9.1904,4.1416,16.9473,9.8945,23.2627,17.2622,6.3154,7.3682,11.085,16.1406,14.3145,26.3145,3.2275,10.1782,4.8418,21.23,4.8418,33.1567v138.7305h-65.2598v-138.7305c0-10.6641-2.457-18.9785-7.3682-24.9468-4.9141-5.9629-12.1406-8.9463-21.6826-8.9463-7.1582,0-13.8945,1.5459-20.21,4.6309-6.3154,3.0889-12.3516,7.231-18.1045,12.4214v155.5713h-65.2598ZM1344.5027,201.8212c16.5586,0,31.6465,2.5986,45.2607,7.7891,13.6113,5.1938,25.2949,12.6309,35.0508,22.3145,9.7529,9.6841,17.332,21.4399,22.7363,35.2617,5.4004,13.8252,8.1045,29.3672,8.1045,46.6299,0,17.4033-2.7041,33.0869-8.1045,47.0498-5.4043,13.9668-12.9834,25.8252-22.7363,35.5771-9.7559,9.7568-21.4395,17.2627-35.0508,22.5254-13.6143,5.2627-28.7021,7.8945-45.2607,7.8945-16.7031,0-31.8936-2.6318-45.5762-7.8945-13.6836-5.2627-25.4727-12.7686-35.3672-22.5254-9.8945-9.752-17.5449-21.6104-22.9463-35.5771-5.4043-13.9629-8.1045-29.6465-8.1045-47.0498,0-17.2627,2.7002-32.8047,8.1045-46.6299,5.4014-13.8218,13.0518-25.5776,22.9463-35.2617,9.8945-9.6836,21.6836-17.1206,35.3672-22.3145,13.6826-5.1904,28.873-7.7891,45.5762-7.7891ZM1344.5027,378.4443c15.0156,0,26.0674-5.2959,33.1562-15.8936,7.085-10.5947,10.6309-26.6992,10.6309-48.3135s-3.5459-37.6826-10.6309-48.208c-7.0889-10.5269-18.1406-15.7896-33.1562-15.7896-15.4404,0-26.7354,5.2627-33.8926,15.7896-7.1582,10.5254-10.7363,26.5967-10.7363,48.208s3.5781,37.7188,10.7363,48.3135c7.1572,10.5977,18.4521,15.8936,33.8926,15.8936ZM1568.0652,426.8632c-10.3877,0-19.5449-1.5098-27.4727-4.5264-7.9297-3.0156-14.5977-7.2949-19.999-12.8408-5.4043-5.543-9.5088-12.2432-12.3145-20.1045-2.8096-7.8584-4.2109-16.6309-4.2109-26.3145v-112.8374h-18.5254c-3.3682,0-6.2461-1.085-8.6309-3.2627-2.3877-2.1748-3.5791-5.3682-3.5791-9.5791v-25.4722l34.7354-6.7363,12.8418-53.2607c1.6836-6.7363,6.4531-10.1045,14.3145-10.1045h34.1045v63.7861h53.0498v44.6294h-53.0498v108.4165c0,5.0527,1.2266,9.2295,3.6836,12.5254,2.4541,3.2998,6,4.9473,10.6309,4.9473,2.3848,0,4.3848-.2432,6-.7363,1.6113-.4902,3.0166-1.0527,4.21-1.6846,1.1914-.6318,2.3164-1.1904,3.3682-1.6836,1.0527-.4902,2.2803-.7373,3.6846-.7373,1.9639,0,3.542.457,4.7363,1.3682,1.1904.915,2.4209,2.3525,3.6846,4.3154l19.7881,30.9463c-8.4209,6.3154-17.8936,11.0518-28.4199,14.21-10.5254,3.1572-21.4033,4.7363-32.6299,4.7363ZM1753.3171,201.8212c14.4531,0,27.6826,2.2466,39.6816,6.7363,12,4.4932,22.3154,11.019,30.9463,19.5781,8.6309,8.562,15.3672,19.0513,20.209,31.4722,4.8428,12.4204,7.2637,26.4927,7.2637,42.2085,0,4.915-.2109,8.9141-.6318,12-.4209,3.0889-1.1943,5.5459-2.3154,7.3682-1.125,1.8252-2.6318,3.0879-4.5264,3.7891-1.8945.7041-4.3154,1.0527-7.2627,1.0527h-125.8887c2.1045,18.2461,7.6475,31.4717,16.6309,39.6816,8.9795,8.2109,20.5576,12.3154,34.7354,12.3154,7.5781,0,14.1045-.9111,19.5771-2.7363,5.4736-1.8223,10.3486-3.8584,14.6309-6.1055,4.2793-2.2432,8.2109-4.2793,11.7891-6.1045,3.5791-1.8223,7.332-2.7373,11.2627-2.7373,5.1904,0,9.1211,1.8955,11.7891,5.6846l18.9463,23.3672c-6.7363,7.7197-13.999,13.999-21.7881,18.8408s-15.7891,8.6318-23.999,11.3682-16.4199,4.6309-24.6309,5.6836c-8.21,1.0527-16.0352,1.5791-23.4717,1.5791-15.2988,0-29.6504-2.4932-43.0508-7.4736-13.4043-4.9795-25.124-12.3838-35.1562-22.209-10.0361-9.8223-17.9668-22.0322-23.7881-36.6299-5.8262-14.5947-8.7363-31.5771-8.7363-50.9453,0-14.5947,2.4893-28.4189,7.4727-41.4717,4.9805-13.0522,12.1377-24.4888,21.4727-34.314,9.332-9.8223,20.6309-17.6113,33.8936-23.3677,13.2627-5.7529,28.2422-8.6309,44.9453-8.6309ZM1754.5798,246.8715c-12.4932,0-22.2451,3.5459-29.2617,10.6309-7.0195,7.0894-11.6504,17.2993-13.8936,30.6304h81.4697c0-5.1904-.668-10.2422-2-15.1562-1.3359-4.9111-3.5098-9.2959-6.5264-13.1587-3.0195-3.8574-6.9834-6.9795-11.8945-9.3672-4.9141-2.3848-10.877-3.5791-17.8936-3.5791ZM2022.3532,252.977c-1.6846,2.667-3.4736,4.5615-5.3682,5.6836-1.8945,1.125-4.3164,1.6836-7.2627,1.6836-3.0889,0-6.1777-.6641-9.2627-2-3.0889-1.332-6.4209-2.7695-10-4.3154-3.5791-1.542-7.6143-2.9795-12.1045-4.3154-4.4932-1.332-9.6152-2-15.3682-2-8.2822,0-14.6309,1.5791-19.0518,4.7373-4.4209,3.1572-6.6309,7.5449-6.6309,13.1577,0,4.0723,1.4375,7.4404,4.3154,10.1045,2.875,2.668,6.7002,5.0195,11.4736,7.0518,4.7695,2.0361,10.1738,3.9678,16.209,5.79,6.0332,1.8252,12.21,3.8613,18.5254,6.1045,6.3154,2.2471,12.4902,4.8779,18.5254,7.8945,6.0332,3.0195,11.4375,6.7363,16.21,11.1572,4.7695,4.4209,8.5947,9.7891,11.4736,16.1045,2.875,6.3154,4.3154,13.8945,4.3154,22.7354,0,10.8096-1.9668,20.7725-5.8945,29.8936-3.9307,9.125-9.7891,16.9824-17.5781,23.5781-7.7891,6.5986-17.4033,11.7197-28.8408,15.3672-11.4404,3.6484-24.5977,5.4736-39.4717,5.4736-7.4404,0-14.8779-.7041-22.3145-2.1055-7.4404-1.4004-14.6309-3.2959-21.5781-5.6836-6.9473-2.3848-13.3682-5.2266-19.2627-8.5254-5.8936-3.2959-10.9463-6.8418-15.1562-10.6318l15.1562-23.998c1.8223-2.8066,4-5.0166,6.5264-6.6318,2.5264-1.6113,5.8223-2.4209,9.8945-2.4209,3.7891,0,7.1904.8418,10.21,2.5264,3.0166,1.6836,6.2793,3.5098,9.7891,5.4736,3.5059,1.9668,7.6113,3.7891,12.3154,5.4727,4.7002,1.6846,10.6309,2.5264,17.7881,2.5264,5.0527,0,9.332-.5264,12.8418-1.5781,3.5059-1.0527,6.3154-2.4902,8.4209-4.3164,2.1045-1.8223,3.6475-3.8584,4.6309-6.1045.9805-2.2432,1.4736-4.5596,1.4736-6.9473,0-4.3486-1.4736-7.9268-4.4209-10.7363-2.9473-2.8057-6.8086-5.2266-11.5781-7.2627-4.7734-2.0332-10.21-3.9277-16.3154-5.6836-6.1045-1.7539-12.3154-3.7539-18.6309-6-6.3154-2.2432-12.5254-4.9473-18.6299-8.1045-6.1055-3.1582-11.5459-7.1582-16.3154-12-4.7725-4.8418-8.6309-10.7695-11.5781-17.7881-2.9473-7.0166-4.4209-15.5059-4.4209-25.4727,0-9.2627,1.7891-18.0688,5.3682-26.4204,3.5781-8.3486,8.9463-15.6836,16.1045-21.999,7.1572-6.3154,16.1367-11.3315,26.9463-15.0518,10.8047-3.7168,23.4355-5.5786,37.8926-5.5786,7.8584,0,15.4727.7036,22.8408,2.105,7.3682,1.4048,14.2793,3.3682,20.7363,5.8945,6.4531,2.5264,12.3477,5.5098,17.6826,8.9468,5.332,3.4409,10.0332,7.1938,14.1045,11.2627l-14.7354,22.9468Z" style="fill: url(#r);"/>
</svg>