<?xml version="1.0" encoding="UTF-8"?>
<svg xmlns="http://www.w3.org/2000/svg" width="160mm" height="160mm" xmlns:xlink="http://www.w3.org/1999/xlink" viewBox="0 0 453.54 453.54">
  <defs>
    <linearGradient id="n" data-name="Unbenannter Verlauf 6" x1="138.27" y1="212.96" x2="297.09" y2="121.26" gradientUnits="userSpaceOnUse">
      <stop offset="0" stop-color="#ee7159"/>
      <stop offset=".3" stop-color="#e62e27"/>
    </linearGradient>
  </defs>
  <g id="d" data-name="white">
    <g id="f" data-name="shield">
      <path id="g" data-name="bg" d="M227.54,377.43s.02,0,.03,0c22.5-2.4,80-45.4,98.9-95.7,28.7-52.9,34.6-152.1,36.3-157.6s5.4-10,10-13.3c4.7-3.3,10.7-5,18.1-5h42.9s0,.03.01.04c-3.18-12.11-12.03-22.68-24.21-27.74L243.57,8.73c-4.2-1.8-11.53-3.2-16.03-3.2h-.16c-4.6,0-11.67,1.4-15.87,3.2L45.61,78.13c-12.25,5.06-21.11,15.61-24.3,27.7h.02s42.98,0,42.98,0c7.4,0,13.4,1.7,18.1,5,4.7,3.4,8.4,7.8,10,13.3,1.7,5.5,7.7,104.7,36.3,157.6,18.89,50.28,76.15,93.26,98.67,95.7h.16Z" fill="#fff" isolation="isolate" opacity=".4" stroke-width="0"/>
      <path id="h" data-name="bg-r" d="M326.31,281.73c28.7-52.9,34.6-152.1,36.3-157.6s5.4-10,10-13.3c4.7-3.3,10.7-5,18.1-5h42.9s0,.03.01.04c-3.18-12.11-12.03-22.68-24.21-27.74L243.41,8.73c-4.2-1.8-11.53-3.2-16.03-3.2v371.9s.02,0,.03,0c22.5-2.4,80-45.4,98.9-95.7Z" fill="#fff" isolation="isolate" opacity=".2" stroke-width="0"/>
      <path id="i" data-name="v-shape" d="M227.41,377.43c22.5-2.4,80-45.4,98.9-95.7,28.7-52.9,34.6-152.1,36.3-157.6,1.7-5.5,5.4-10,10-13.3,4.7-3.3,10.7-5,18.1-5h42.9c1.7,5.2,2.4,11.5,1.5,30.1h0c-2.1,42.9-9.5,96-44.4,166.4-43.8,81.8-98,119.6-124.8,133.9-13.4,7-28,13.1-38.5,13.1h0c-10.5,0-24.9-6.1-38.3-13.1-26.9-14.3-81.1-52.2-124.8-133.9C29.51,231.93,22.01,178.93,19.91,135.93c-.8-18.6-.1-24.9,1.5-30.1h42.9c7.4,0,13.4,1.7,18.1,5,4.7,3.4,8.4,7.8,10,13.3,1.7,5.5,7.7,104.7,36.3,157.6,18.9,50.3,76.2,93.3,98.7,95.7h0Z" fill="#fff" stroke-width="0"/>
    </g>
  </g>
  <g id="m" data-name="icon">
    <g>
      <g>
        <path d="M256.39,178.99c2.07-2.05,5.41-2.05,7.28,0l17.59,17.59c2.24,2.07,2.24,5.41,0,7.28-1.87,2.24-5.21,2.24-7.28,0l-17.59-17.59c-2.05-1.87-2.05-5.21,0-7.28h0Z" fill="#fff" stroke-width="0"/>
        <path d="M192.84,115.14c0-4.41,3.56-7.97,7.97-7.97s7.97,3.56,7.97,7.97v47.84c0,4.41-3.56,7.97-7.97,7.97s-7.97-3.56-7.97-7.97v-47.84ZM145.01,115.14c0-4.41,3.56-7.97,7.97-7.97s7.97,3.56,7.97,7.97v31.89c0,4.41-3.56,7.97-7.97,7.97s-7.97-3.56-7.97-7.97v-31.89ZM176.9,139.06c-4.41,0-7.97-3.56-7.97-7.97v-15.95c0-4.41,3.56-7.97,7.97-7.97s7.97,3.56,7.97,7.97v15.95c0,4.41-3.56,7.97-7.97,7.97Z" fill="#fff" stroke-width="0"/>
      </g>
      <path d="M270.68,151.06c0-3.89,3.14-7.04,7.04-7.04,31.1,0,56.3,25.2,56.3,56.3s-25.2,56.3-56.3,56.3-56.3-25.2-56.3-56.3c0-15.75,6.48-30,16.9-40.21,2.78-2.72,7.23-2.67,9.95.1,2.73,2.78,2.68,7.24-.11,9.96-7.82,7.65-12.67,18.34-12.67,30.15,0,23.31,18.71,42.22,42.22,42.22s42.22-18.91,42.22-42.22c0-20.91-15.22-38.29-35.19-41.64v6.45c0,3.89-3.14,7.04-7.04,7.04s-7.04-3.14-7.04-7.04v-14.07ZM230.33,152.4c.7-.69,1.51-1.2,2.38-1.53v-51.67c0-8.81-7.15-15.95-15.95-15.95h-79.73c-8.81,0-15.95,7.14-15.95,15.95v79.73c0,8.8,7.14,15.95,15.95,15.95h76.45c-.03-.75-.05-1.51-.05-2.26,0-15.75,6.48-30,16.9-40.21ZM160.95,147.04c0,4.41-3.56,7.97-7.97,7.97s-7.97-3.56-7.97-7.97v-31.89c0-4.41,3.56-7.97,7.97-7.97s7.97,3.56,7.97,7.97v31.89ZM184.87,131.09c0,4.41-3.56,7.97-7.97,7.97s-7.97-3.56-7.97-7.97v-15.95c0-4.41,3.56-7.97,7.97-7.97s7.97,3.56,7.97,7.97v15.95ZM208.79,162.98c0,4.41-3.56,7.97-7.97,7.97s-7.97-3.56-7.97-7.97v-47.84c0-4.41,3.56-7.97,7.97-7.97s7.97,3.56,7.97,7.97v47.84Z" fill="url(#n)" stroke-width="0"/>
    </g>
  </g>
</svg>