<?xml version="1.0" encoding="UTF-8"?>
<svg xmlns="http://www.w3.org/2000/svg" width="160mm" height="160mm" xmlns:xlink="http://www.w3.org/1999/xlink" viewBox="0 0 453.54 453.54">
  <defs>
    <linearGradient id="n" data-name="Unbenannter Verlauf 6" x1="167.36" y1="236.44" x2="346.66" y2="132.92" gradientUnits="userSpaceOnUse">
      <stop offset="0" stop-color="#ee7159"/>
      <stop offset=".8" stop-color="#e62e27"/>
    </linearGradient>
  </defs>
  <g id="d" data-name="white">
    <g id="f" data-name="shield">
      <path id="g" data-name="bg" d="M227.54,377.43s.02,0,.03,0c22.5-2.4,80-45.4,98.9-95.7,28.7-52.9,34.6-152.1,36.3-157.6s5.4-10,10-13.3c4.7-3.3,10.7-5,18.1-5h42.9s0,.03.01.04c-3.18-12.11-12.03-22.68-24.21-27.74L243.57,8.73c-4.2-1.8-11.53-3.2-16.03-3.2h-.16c-4.6,0-11.67,1.4-15.87,3.2L45.61,78.13c-12.25,5.06-21.11,15.61-24.3,27.7h.02s42.98,0,42.98,0c7.4,0,13.4,1.7,18.1,5,4.7,3.4,8.4,7.8,10,13.3,1.7,5.5,7.7,104.7,36.3,157.6,18.89,50.28,76.15,93.26,98.67,95.7h.16Z" fill="#fff" isolation="isolate" opacity=".4" stroke-width="0"/>
      <path id="h" data-name="bg-r" d="M326.31,281.73c28.7-52.9,34.6-152.1,36.3-157.6s5.4-10,10-13.3c4.7-3.3,10.7-5,18.1-5h42.9s0,.03.01.04c-3.18-12.11-12.03-22.68-24.21-27.74L243.41,8.73c-4.2-1.8-11.53-3.2-16.03-3.2v371.9s.02,0,.03,0c22.5-2.4,80-45.4,98.9-95.7Z" fill="#fff" isolation="isolate" opacity=".2" stroke-width="0"/>
      <path id="i" data-name="v-shape" d="M227.41,377.43c22.5-2.4,80-45.4,98.9-95.7,28.7-52.9,34.6-152.1,36.3-157.6,1.7-5.5,5.4-10,10-13.3,4.7-3.3,10.7-5,18.1-5h42.9c1.7,5.2,2.4,11.5,1.5,30.1h0c-2.1,42.9-9.5,96-44.4,166.4-43.8,81.8-98,119.6-124.8,133.9-13.4,7-28,13.1-38.5,13.1h0c-10.5,0-24.9-6.1-38.3-13.1-26.9-14.3-81.1-52.2-124.8-133.9C29.51,231.93,22.01,178.93,19.91,135.93c-.8-18.6-.1-24.9,1.5-30.1h42.9c7.4,0,13.4,1.7,18.1,5,4.7,3.4,8.4,7.8,10,13.3,1.7,5.5,7.7,104.7,36.3,157.6,18.9,50.3,76.2,93.3,98.7,95.7h0Z" fill="#fff" stroke-width="0"/>
    </g>
  </g>
  <g id="m" data-name="icon">
    <g>
      <path d="M163.45,140.31h28.23v-7.06c0-3.9,3.15-7.06,7.06-7.06s7.06,3.16,7.06,7.06v7.06h10.59c5.85,0,10.59,4.74,10.59,10.59v17.65h-98.82v-17.65c0-5.85,4.74-10.59,10.59-10.59h10.59v-7.06c0-3.9,3.15-7.06,7.06-7.06s7.06,3.16,7.06,7.06v7.06ZM256.7,250.63c7.8,0,14.12-6.32,14.12-14.12s-6.32-14.12-14.12-14.12-14.12,6.32-14.12,14.12,6.33,14.12,14.12,14.12ZM263.76,257.69h-14.12c-9.75,0-17.65,7.9-17.65,17.65,0,1.94,1.59,3.53,3.53,3.53h42.35c1.95,0,3.53-1.58,3.53-3.53,0-9.75-7.9-17.65-17.65-17.65ZM313.17,236.52h-10.59v21.17h10.59c1.94,0,3.53-1.59,3.53-3.53v-14.12c0-1.94-1.59-3.53-3.53-3.53ZM313.17,208.28h-10.59v21.17h10.59c1.94,0,3.53-1.59,3.53-3.53v-14.12c0-1.95-1.59-3.53-3.53-3.53ZM313.17,264.75h-10.59v21.17h10.59c1.95,0,3.53-1.58,3.53-3.53v-14.12c0-1.94-1.59-3.53-3.53-3.53ZM307.61,75.87h-91.76c-5.85,0-10.59,4.74-10.59,10.59,0,3.33,1.57,6.46,4.23,8.47l48,36c2.51,1.87,5.96,1.87,8.47,0l48-36c2.67-2.01,4.23-5.14,4.23-8.47,0-5.85-4.74-10.59-10.59-10.59Z" fill="url(#n)" stroke-width="0"/>
      <path d="M128.16,168.55h98.82v60c0,5.85-4.74,10.59-10.59,10.59h-77.64c-5.85,0-10.59-4.74-10.59-10.59v-60ZM291.99,194.17h-58.02v42.35c0,5.85-4.74,10.59-10.59,10.59h-12.56v49.41c0,5.85,4.74,10.59,10.59,10.59h70.58c5.85,0,10.59-4.74,10.59-10.59v-91.76c0-5.85-4.74-10.59-10.59-10.59ZM256.7,222.4c7.8,0,14.12,6.32,14.12,14.12s-6.32,14.12-14.12,14.12-14.12-6.32-14.12-14.12,6.33-14.12,14.12-14.12ZM277.88,278.87h-42.35c-1.94,0-3.53-1.59-3.53-3.53,0-9.75,7.9-17.65,17.65-17.65h14.12c9.74,0,17.65,7.9,17.65,17.65,0,1.94-1.59,3.53-3.53,3.53ZM313.96,94.92l-48,36c-2.51,1.87-5.96,1.87-8.47,0l-48-36c-2.67-2.01-4.23-5.14-4.23-8.47v33.98c.1,0,.2-.02.3-.02,3.9,0,7.06,3.16,7.06,7.06v7.06h10.59c5.85,0,10.59,4.74,10.59,10.59v15.44h70.28c7.79,0,14.12-6.33,14.12-14.12v-60c0,3.33-1.57,6.46-4.23,8.47Z" fill="#fff" isolation="isolate" stroke-width="0"/>
    </g>
  </g>
</svg>