<?xml version="1.0" encoding="UTF-8"?>
<svg xmlns="http://www.w3.org/2000/svg" width="160mm" height="160mm" xmlns:xlink="http://www.w3.org/1999/xlink" viewBox="0 0 453.54 453.54">
  <defs>
    <linearGradient id="n" data-name="Unbenannter Verlauf 44" x1="164.31" y1="178.19" x2="298.65" y2="100.62" gradientUnits="userSpaceOnUse">
      <stop offset="0" stop-color="#ee7159"/>
      <stop offset=".42" stop-color="#e62e27"/>
    </linearGradient>
  </defs>
  <g id="g" data-name="color">
    <g id="i" data-name="shield">
      <path id="j" data-name="bg" d="M226.88,378.09s.02,0,.03,0c22.5-2.4,80-45.4,98.9-95.7,28.7-52.9,34.6-152.1,36.3-157.6s5.4-10,10-13.3c4.7-3.3,10.7-5,18.1-5h42.9s0,.03.01.04c-3.18-12.11-12.03-22.68-24.21-27.74L242.91,9.4c-4.2-1.8-11.53-3.2-16.03-3.2h-.16c-4.6,0-11.67,1.4-15.87,3.2L44.95,78.8c-12.25,5.06-21.11,15.61-24.3,27.7h.02s42.98,0,42.98,0c7.4,0,13.4,1.7,18.1,5,4.7,3.4,8.4,7.8,10,13.3,1.7,5.5,7.7,104.7,36.3,157.6,18.89,50.28,76.15,93.26,98.67,95.7h.16Z" fill="#0967ad" isolation="isolate" opacity=".4" stroke-width="0"/>
      <path id="k" data-name="bg-r" d="M325.65,282.4c28.7-52.9,34.6-152.1,36.3-157.6s5.4-10,10-13.3c4.7-3.3,10.7-5,18.1-5h42.9s0,.03.01.04c-3.18-12.11-12.03-22.68-24.21-27.74L242.75,9.4c-4.2-1.8-11.53-3.2-16.03-3.2v371.9s.02,0,.03,0c22.5-2.4,80-45.4,98.9-95.7Z" fill="#0967ad" isolation="isolate" opacity=".2" stroke-width="0"/>
      <path id="l" data-name="v-shape" d="M226.75,378.1c22.5-2.4,80-45.4,98.9-95.7,28.7-52.9,34.6-152.1,36.3-157.6,1.7-5.5,5.4-10,10-13.3,4.7-3.3,10.7-5,18.1-5h42.9c1.7,5.2,2.4,11.5,1.5,30.1h0c-2.1,42.9-9.5,96-44.4,166.4-43.8,81.8-98,119.6-124.8,133.9-13.4,7-28,13.1-38.5,13.1h0c-10.5,0-24.9-6.1-38.3-13.1-26.9-14.3-81.1-52.2-124.8-133.9C28.85,232.6,21.35,179.6,19.25,136.6c-.8-18.6-.1-24.9,1.5-30.1h42.9c7.4,0,13.4,1.7,18.1,5,4.7,3.4,8.4,7.8,10,13.3,1.7,5.5,7.7,104.7,36.3,157.6,18.9,50.3,76.2,93.3,98.7,95.7h0Z" fill="#0967ad" stroke-width="0"/>
    </g>
  </g>
  <g id="m" data-name="icon">
    <g>
      <path d="M203.87,90.61v11.43h45.71v-11.43c0-6.31,5.11-11.43,11.43-11.43s11.43,5.12,11.43,11.43v11.43h17.14c9.46,0,17.14,7.67,17.14,17.14v28.57h-159.98v-28.57c0-9.47,7.67-17.14,17.14-17.14h17.14v-11.43c0-6.31,5.11-11.43,11.43-11.43s11.43,5.12,11.43,11.43ZM223.9,227.76c-3.04,3.64-8.46,3.64-11.82,0l-22.85-22.85c-3.32-3.04-3.32-8.46,0-11.82,3.36-3.32,8.78-3.32,11.82,0l17.1,16.82,33.92-33.96c3.36-3.32,8.78-3.32,11.82,0,3.64,3.36,3.64,8.78,0,11.82l-39.99,39.99Z" fill="url(#n)" stroke-width="0"/>
      <path d="M306.71,244.87c0,9.46-7.68,17.14-17.14,17.14h-125.69c-9.47,0-17.14-7.68-17.14-17.14v-97.13h159.98v97.13ZM263.89,187.77c3.64-3.04,3.64-8.46,0-11.82-3.04-3.32-8.46-3.32-11.82,0l-33.92,33.96-17.1-16.82c-3.04-3.32-8.46-3.32-11.82,0-3.32,3.36-3.32,8.78,0,11.82l22.85,22.85c3.36,3.64,8.78,3.64,11.82,0l39.99-39.99Z" fill="#fff" stroke-width="0"/>
    </g>
  </g>
</svg>