<?xml version="1.0" encoding="UTF-8"?>
<svg id="d" data-name="white" xmlns="http://www.w3.org/2000/svg" width="926mm" height="180mm" xmlns:xlink="http://www.w3.org/1999/xlink" viewBox="0 0 2624.88 510.24">
  <defs>
    <linearGradient id="j" data-name="font-red" x1="1170.65" y1="688.91" x2="2459.54" y2="-55.23" gradientUnits="userSpaceOnUse">
      <stop offset="0" stop-color="#ee7159"/>
      <stop offset=".3" stop-color="#e62e27"/>
    </linearGradient>
    <linearGradient id="l" data-name="keyhole" x1="419.67" y1="188.62" x2="524.74" y2="249.28" gradientUnits="userSpaceOnUse">
      <stop offset="0" stop-color="#ee7159"/>
      <stop offset=".85" stop-color="#e62e27"/>
    </linearGradient>
  </defs>
  <g id="e" data-name="logo-shield">
    <path id="f" data-name="bg" d="M477.45,377.43s.02,0,.03,0c22.5-2.4,80-45.4,98.9-95.7,28.7-52.9,34.6-152.1,36.3-157.6s5.4-10,10-13.3c4.7-3.3,10.7-5,18.1-5h42.9s0,.03.01.04c-3.18-12.11-12.03-22.68-24.21-27.74L493.48,8.73c-4.2-1.8-11.53-3.2-16.03-3.2h-.16c-4.6,0-11.67,1.4-15.87,3.2l-165.9,69.4c-12.25,5.06-21.11,15.61-24.3,27.7h.02s42.98,0,42.98,0c7.4,0,13.4,1.7,18.1,5,4.7,3.4,8.4,7.8,10,13.3,1.7,5.5,7.7,104.7,36.3,157.6,18.89,50.28,76.15,93.26,98.67,95.7h.16Z" fill="#fff" isolation="isolate" opacity=".4" stroke-width="0"/>
    <path id="g" data-name="bg-r" d="M576.21,281.73c28.7-52.9,34.6-152.1,36.3-157.6s5.4-10,10-13.3c4.7-3.3,10.7-5,18.1-5h42.9s0,.03.01.04c-3.18-12.11-12.03-22.68-24.21-27.74L493.31,8.73c-4.2-1.8-11.53-3.2-16.03-3.2v371.9s.02,0,.03,0c22.5-2.4,80-45.4,98.9-95.7Z" fill="#fff" isolation="isolate" opacity=".2" stroke-width="0"/>
    <path id="h" data-name="v-shape" d="M477.31,377.43c22.5-2.4,80-45.4,98.9-95.7,28.7-52.9,34.6-152.1,36.3-157.6,1.7-5.5,5.4-10,10-13.3,4.7-3.3,10.7-5,18.1-5h42.9c1.7,5.2,2.4,11.5,1.5,30.1h0c-2.1,42.9-9.5,96-44.4,166.4-43.8,81.8-98,119.6-124.8,133.9-13.4,7-28,13.1-38.5,13.1h0c-10.5,0-24.9-6.1-38.3-13.1-26.9-14.3-81.1-52.2-124.8-133.9-34.8-70.4-42.3-123.4-44.4-166.4-.8-18.6-.1-24.9,1.5-30.1h42.9c7.4,0,13.4,1.7,18.1,5,4.7,3.4,8.4,7.8,10,13.3,1.7,5.5,7.7,104.7,36.3,157.6,18.9,50.3,76.2,93.3,98.7,95.7h0Z" fill="#fff" stroke-width="0"/>
  </g>
  <path d="M1156.15,422.43c-6.18,0-10.84-.84-14-2.53-3.16-1.68-5.79-5.19-7.89-10.53l-4.63-12c-5.47,4.63-10.74,8.7-15.79,12.21-5.05,3.51-10.28,6.49-15.68,8.95-5.4,2.46-11.16,4.28-17.26,5.47-6.1,1.19-12.88,1.79-20.31,1.79-9.97,0-19.02-1.3-27.16-3.91-8.14-2.61-15.05-6.44-20.74-11.51-5.68-5.07-10.07-11.37-13.16-18.9-3.09-7.53-4.63-16.23-4.63-26.08,0-7.74,1.96-15.7,5.89-23.87,3.93-8.16,10.74-15.59,20.42-22.28,9.68-6.69,22.74-12.28,39.16-16.79,16.42-4.51,37.12-6.76,62.1-6.76v-9.35c0-12.89-2.63-22.2-7.89-27.94s-12.74-8.6-22.42-8.6c-7.72,0-14.04.84-18.95,2.53-4.91,1.68-9.3,3.58-13.16,5.68-3.86,2.11-7.62,4-11.26,5.68-3.65,1.68-8,2.53-13.05,2.53-4.49,0-8.32-1.08-11.47-3.26-3.16-2.17-5.65-4.88-7.47-8.11l-11.79-20.42c13.19-11.65,27.82-20.31,43.89-26,16.07-5.68,33.29-8.53,51.68-8.53,13.19,0,25.08,2.14,35.68,6.42,10.59,4.28,19.58,10.25,26.95,17.89,7.37,7.65,13.02,16.74,16.95,27.26,3.93,10.53,5.89,22.04,5.89,34.53v136.41h-29.89ZM1081.21,382.65c8.42,0,15.79-1.47,22.1-4.42s12.7-7.72,19.16-14.32v-29.89c-13.05,0-23.79.85-32.21,2.55s-15.09,3.82-20,6.37c-4.91,2.55-8.32,5.45-10.21,8.71-1.89,3.26-2.84,6.79-2.84,10.61,0,7.51,2.03,12.78,6.1,15.82,4.07,3.05,10.03,4.57,17.89,4.57ZM1293.4,204.13v138.52c0,10.81,2.45,19.16,7.37,25.05,4.91,5.89,12.14,8.84,21.68,8.84,7.16,0,13.86-1.47,20.1-4.42,6.24-2.95,12.32-7.08,18.21-12.42v-155.57h65.26v218.31h-40.42c-8.14,0-13.47-3.65-16-10.95l-4-12.63c-4.21,4.07-8.56,7.76-13.05,11.05-4.49,3.3-9.3,6.1-14.42,8.42-5.12,2.32-10.63,4.14-16.53,5.47-5.89,1.33-12.35,2-19.37,2-11.93,0-22.49-2.07-31.68-6.21-9.19-4.14-16.95-9.93-23.26-17.37-6.32-7.44-11.09-16.21-14.31-26.31-3.23-10.1-4.84-21.19-4.84-33.26v-138.52h65.26ZM1553.17,425.8c-10.39,0-19.54-1.51-27.47-4.53-7.93-3.02-14.6-7.29-20-12.84-5.4-5.54-9.51-12.24-12.31-20.1-2.81-7.86-4.21-16.63-4.21-26.31v-112.84h-18.53c-3.37,0-6.25-1.08-8.63-3.26-2.39-2.17-3.58-5.37-3.58-9.58v-25.47l34.74-6.74,12.84-53.26c1.68-6.74,6.45-10.1,14.31-10.1h34.1v63.79h53.05v44.63h-53.05v108.42c0,5.05,1.23,9.23,3.68,12.53,2.45,3.3,6,4.95,10.63,4.95,2.38,0,4.38-.24,6-.74,1.61-.49,3.02-1.05,4.21-1.68,1.19-.63,2.32-1.19,3.37-1.68,1.05-.49,2.28-.74,3.68-.74,1.96,0,3.54.46,4.74,1.37,1.19.92,2.42,2.35,3.68,4.32l19.79,30.95c-8.42,6.32-17.89,11.05-28.42,14.21-10.53,3.16-21.4,4.74-32.63,4.74ZM1742.22,200.76c16.56,0,31.65,2.6,45.26,7.79,13.61,5.19,25.29,12.63,35.05,22.31,9.75,9.68,17.33,21.44,22.74,35.26,5.4,13.83,8.1,29.37,8.1,46.63s-2.7,33.09-8.1,47.05c-5.4,13.97-12.98,25.83-22.74,35.58-9.76,9.76-21.44,17.26-35.05,22.53-13.61,5.26-28.7,7.89-45.26,7.89s-31.89-2.63-45.58-7.89-25.47-12.77-35.37-22.53c-9.89-9.75-17.55-21.61-22.95-35.58-5.4-13.96-8.11-29.65-8.11-47.05s2.7-32.8,8.11-46.63c5.4-13.82,13.05-25.58,22.95-35.26,9.89-9.68,21.68-17.12,35.37-22.31,13.68-5.19,28.87-7.79,45.58-7.79ZM1742.22,377.38c15.02,0,26.07-5.3,33.16-15.89,7.08-10.59,10.63-26.7,10.63-48.31s-3.55-37.68-10.63-48.21c-7.09-10.53-18.14-15.79-33.16-15.79s-26.74,5.26-33.89,15.79c-7.16,10.53-10.74,26.6-10.74,48.21s3.58,37.72,10.74,48.31c7.16,10.6,18.45,15.89,33.89,15.89ZM1889.15,422.43v-218.31h40.42c4.07,0,7.47.92,10.21,2.74,2.74,1.83,4.67,4.56,5.79,8.21l3.58,11.79c3.65-3.79,7.44-7.26,11.37-10.42,3.93-3.16,8.17-5.89,12.74-8.21,4.56-2.32,9.47-4.14,14.74-5.47,5.26-1.33,11.05-2,17.37-2,13.19,0,24.1,3.4,32.74,10.21,8.63,6.81,15.19,15.89,19.68,27.26,3.65-6.74,8.1-12.49,13.37-17.26,5.26-4.77,10.95-8.63,17.05-11.58,6.11-2.95,12.56-5.12,19.37-6.53,6.8-1.4,13.58-2.11,20.31-2.11,12.49,0,23.58,1.86,33.26,5.58,9.68,3.72,17.79,9.12,24.31,16.21,6.53,7.09,11.47,15.79,14.84,26.1,3.37,10.32,5.05,22,5.05,35.05v138.73h-65.26v-138.73c0-22.59-9.68-33.89-29.05-33.89-8.84,0-16.18,2.91-22,8.74-5.83,5.83-8.74,14.21-8.74,25.16v138.73h-65.26v-138.73c0-12.49-2.46-21.26-7.37-26.31-4.91-5.05-12.14-7.58-21.68-7.58-5.89,0-11.47,1.33-16.74,4-5.26,2.67-10.21,6.25-14.84,10.74v157.89h-65.26ZM2402.39,422.43c-6.18,0-10.84-.84-14-2.53-3.16-1.68-5.79-5.19-7.89-10.53l-4.63-12c-5.47,4.63-10.74,8.7-15.79,12.21-5.05,3.51-10.28,6.49-15.68,8.95-5.4,2.46-11.16,4.28-17.26,5.47-6.11,1.19-12.88,1.79-20.32,1.79-9.97,0-19.02-1.3-27.16-3.91-8.14-2.61-15.05-6.44-20.74-11.51-5.68-5.07-10.07-11.37-13.16-18.9-3.09-7.53-4.63-16.23-4.63-26.08,0-7.74,1.96-15.7,5.89-23.87,3.93-8.16,10.74-15.59,20.42-22.28,9.68-6.69,22.74-12.28,39.16-16.79,16.42-4.51,37.12-6.76,62.1-6.76v-9.35c0-12.89-2.63-22.2-7.89-27.94-5.26-5.74-12.74-8.6-22.42-8.6-7.72,0-14.04.84-18.95,2.53-4.91,1.68-9.3,3.58-13.16,5.68-3.86,2.11-7.61,4-11.26,5.68-3.65,1.68-8,2.53-13.05,2.53-4.49,0-8.32-1.08-11.47-3.26-3.16-2.17-5.65-4.88-7.47-8.11l-11.79-20.42c13.19-11.65,27.82-20.31,43.89-26,16.07-5.68,33.29-8.53,51.68-8.53,13.19,0,25.08,2.14,35.68,6.42,10.59,4.28,19.58,10.25,26.95,17.89,7.37,7.65,13.02,16.74,16.95,27.26,3.93,10.53,5.89,22.04,5.89,34.53v136.41h-29.89ZM2327.44,382.65c8.42,0,15.79-1.47,22.1-4.42s12.7-7.72,19.16-14.32v-29.89c-13.05,0-23.79.85-32.21,2.55-8.42,1.7-15.09,3.82-20,6.37-4.91,2.55-8.32,5.45-10.21,8.71-1.89,3.26-2.84,6.79-2.84,10.61,0,7.51,2.03,12.78,6.11,15.82,4.07,3.05,10.03,4.57,17.89,4.57ZM2555.21,425.8c-10.39,0-19.54-1.51-27.47-4.53-7.93-3.02-14.6-7.29-20-12.84-5.4-5.54-9.51-12.24-12.31-20.1-2.81-7.86-4.21-16.63-4.21-26.31v-112.84h-18.53c-3.37,0-6.25-1.08-8.63-3.26-2.39-2.17-3.58-5.37-3.58-9.58v-25.47l34.74-6.74,12.84-53.26c1.68-6.74,6.45-10.1,14.31-10.1h34.1v63.79h53.05v44.63h-53.05v108.42c0,5.05,1.23,9.23,3.68,12.53,2.45,3.3,6,4.95,10.63,4.95,2.38,0,4.38-.24,6-.74,1.61-.49,3.02-1.05,4.21-1.68,1.19-.63,2.32-1.19,3.37-1.68,1.05-.49,2.28-.74,3.68-.74,1.96,0,3.54.46,4.74,1.37,1.19.92,2.42,2.35,3.68,4.32l19.79,30.95c-8.42,6.32-17.89,11.05-28.42,14.21-10.53,3.16-21.4,4.74-32.63,4.74Z" fill="url(#j)" stroke-width="0"/>
  <g id="k" data-name="logo-icon">
    <path id="m" data-name="keyhole" d="M477.2,137.33c-26.7,0-48.4,21.7-48.4,48.5,0,19.3,11.4,35.9,27.7,43.7v60.3c0,11.5,9.3,20.8,20.8,20.8s20.8-9.3,20.8-20.8v-60.3c16.3-7.8,27.6-24.4,27.5-43.7,0-26.8-21.7-48.5-48.4-48.5ZM504.2,193.03h-18.7v18.7h-16.1v-18.7h-18.7v-16.1h18.7v-18.8h16.1v18.8h18.7v16.1Z" fill="url(#l)" stroke-width="0"/>
    <polygon id="n" data-name="cross" points="469.4 176.93 450.7 176.93 450.7 193.03 469.4 193.03 469.4 211.73 485.5 211.73 485.5 193.03 504.2 193.03 504.2 176.93 485.5 176.93 485.5 158.13 469.4 158.13 469.4 176.93" fill="#fff" stroke-width="0"/>
  </g>
  <g id="o" data-name="PV">
    <path d="M903.6,305.53v116.3h-70.9v-116.3l-110.8-189.5h62.5c6.2,0,11,1.4,14.7,4.3,3.6,2.9,6.6,6.5,8.8,11l43.2,89c3.5,7.1,6.7,13.7,9.6,19.7,3,6,5.6,11.9,7.8,17.9,2.1-6,4.6-12,7.6-18s6.1-12.5,9.4-19.5l42.8-89c.8-1.8,2-3.6,3.5-5.5,1.5-1.8,3.1-3.5,5-4.9s4.1-2.7,6.5-3.6c2.4-.9,5.1-1.3,8.1-1.3h62.9l-110.7,189.4h0Z" fill="#fff" stroke-width="0"/>
    <path d="M80,320.23v102.2H9V116.73h107.8c21.5,0,40,2.5,55.5,7.6,15.4,5.1,28.2,12.2,38.2,21.1,10,9,17.3,19.5,22.2,31.7,4.7,12.2,7.1,25.3,7.1,39.4,0,15.3-2.4,29.2-7.3,42-4.9,12.8-12.4,23.7-22.5,32.7-10.1,9.1-22.8,16.2-38.3,21.3s-33.7,7.6-54.9,7.6h-36.8v.1h0ZM80,266.83h36.9c18.5,0,31.7-4.4,39.9-13.2,8.1-8.8,12.2-21.1,12.2-36.9,0-7-1-13.3-3.1-19.1-2.1-5.7-5.3-10.7-9.6-14.8-4.3-4.2-9.6-7.3-16.2-9.6-6.6-2.3-14.2-3.3-23.2-3.3h-36.9v96.9h0Z" fill="#fff" stroke-width="0"/>
  </g>
</svg>