<?xml version="1.0" encoding="UTF-8"?>
<svg xmlns="http://www.w3.org/2000/svg" width="160mm" height="160mm" xmlns:xlink="http://www.w3.org/1999/xlink" viewBox="0 0 453.54 453.54">
  <defs>
    <linearGradient id="n" data-name="Unbenannter Verlauf 17" x1="124.93" y1="169.93" x2="328.52" y2="169.93" gradientUnits="userSpaceOnUse">
      <stop offset="0" stop-color="#ee7159"/>
      <stop offset=".6" stop-color="#e62e27"/>
    </linearGradient>
  </defs>
  <g id="d" data-name="white">
    <g id="f" data-name="shield">
      <path id="g" data-name="bg" d="M227.54,377.43s.02,0,.03,0c22.5-2.4,80-45.4,98.9-95.7,28.7-52.9,34.6-152.1,36.3-157.6s5.4-10,10-13.3c4.7-3.3,10.7-5,18.1-5h42.9s0,.03.01.04c-3.18-12.11-12.03-22.68-24.21-27.74L243.57,8.73c-4.2-1.8-11.53-3.2-16.03-3.2h-.16c-4.6,0-11.67,1.4-15.87,3.2L45.61,78.13c-12.25,5.06-21.11,15.61-24.3,27.7h.02s42.98,0,42.98,0c7.4,0,13.4,1.7,18.1,5,4.7,3.4,8.4,7.8,10,13.3,1.7,5.5,7.7,104.7,36.3,157.6,18.89,50.28,76.15,93.26,98.67,95.7h.16Z" fill="#fff" isolation="isolate" opacity=".4" stroke-width="0"/>
      <path id="h" data-name="bg-r" d="M326.31,281.73c28.7-52.9,34.6-152.1,36.3-157.6s5.4-10,10-13.3c4.7-3.3,10.7-5,18.1-5h42.9s0,.03.01.04c-3.18-12.11-12.03-22.68-24.21-27.74L243.41,8.73c-4.2-1.8-11.53-3.2-16.03-3.2v371.9s.02,0,.03,0c22.5-2.4,80-45.4,98.9-95.7Z" fill="#fff" isolation="isolate" opacity=".2" stroke-width="0"/>
      <path id="i" data-name="v-shape" d="M227.41,377.43c22.5-2.4,80-45.4,98.9-95.7,28.7-52.9,34.6-152.1,36.3-157.6,1.7-5.5,5.4-10,10-13.3,4.7-3.3,10.7-5,18.1-5h42.9c1.7,5.2,2.4,11.5,1.5,30.1h0c-2.1,42.9-9.5,96-44.4,166.4-43.8,81.8-98,119.6-124.8,133.9-13.4,7-28,13.1-38.5,13.1h0c-10.5,0-24.9-6.1-38.3-13.1-26.9-14.3-81.1-52.2-124.8-133.9C29.51,231.93,22.01,178.93,19.91,135.93c-.8-18.6-.1-24.9,1.5-30.1h42.9c7.4,0,13.4,1.7,18.1,5,4.7,3.4,8.4,7.8,10,13.3,1.7,5.5,7.7,104.7,36.3,157.6,18.9,50.3,76.2,93.3,98.7,95.7h0Z" fill="#fff" stroke-width="0"/>
    </g>
  </g>
  <g id="m" data-name="icon">
    <g>
      <path d="M262.49,142.71c-24.68,0-44.85,20.17-44.85,45.04s20.16,45.04,44.85,45.04,45.04-20.17,45.04-45.04-19.97-45.04-45.04-45.04ZM262.49,215.46c-15.28,0-27.72-12.43-27.72-27.72s12.43-27.72,27.72-27.72,27.72,12.43,27.72,27.72-12.23,27.72-27.72,27.72Z" fill="#fff" isolation="isolate" stroke-width="0"/>
      <path d="M325.98,238.78l-25.92-25.92c-3.25,4.83-7.42,9-12.25,12.25l25.92,25.92c3.38,3.38,8.87,3.38,12.25,0,3.38-3.37,3.38-8.87,0-12.25ZM281.2,90.02c3.69,4.28,3.01,10.52-1.55,13.94l-49.6,39.4c-3.26,3.1-8.25,3.19-11.87.47l-33.54-25.14-43.59,34.6c-4.28,3.69-10.52,3.01-13.94-1.55-3.42-4-2.73-10.23,1.55-13.67l49.6-39.68c3.53-2.82,8.53-2.9,12.15-.19l33.54,25.14,43.59-34.87c4.28-3.42,10.51-2.73,13.67,1.55h0Z" fill="url(#n)" stroke-width="0"/>
      <path d="M194.37,155.74v59.52c0,5.49-4.43,9.92-9.92,9.92s-9.92-4.43-9.92-9.92v-59.52c0-5.49,4.43-9.92,9.92-9.92s9.92,4.43,9.92,9.92ZM154.69,185.5v29.76c0,5.49-4.44,9.92-9.92,9.92s-9.92-4.43-9.92-9.92v-29.76c0-5.49,4.44-9.92,9.92-9.92s9.92,4.43,9.92,9.92Z" fill="#fff" isolation="isolate" stroke-width="0"/>
    </g>
  </g>
</svg>