<?xml version="1.0" encoding="UTF-8"?>
<svg xmlns="http://www.w3.org/2000/svg" xmlns:xlink="http://www.w3.org/1999/xlink" viewBox="0 0 453.5433 453.5433">
  <defs>
    <linearGradient id="n" data-name="keyhole" x1="188.0232" y1="234.4252" x2="262.0073" y2="106.2811" gradientUnits="userSpaceOnUse">
      <stop offset="0" stop-color="#ee7159"/>
      <stop offset=".85" stop-color="#e62e27"/>
    </linearGradient>
  </defs>
  <g id="g" data-name="color">
    <g id="i" data-name="shield">
      <path id="j" data-name="bg" d="M226.883,378.0913c.0098.001.0201.0029.0299.0039,22.5-2.4,80-45.4,98.9-95.7,28.7-52.9,34.6-152.1,36.3-157.6s5.4-10,10-13.3c4.7-3.3,10.7-5,18.1-5h42.9c.0042.0129.0082.0262.0125.0392-3.1755-12.1116-12.0338-22.678-24.2125-27.7393L242.9129,9.395c-4.2-1.7999-11.5299-3.2-16.0299-3.2h-.1608c-4.6.0001-11.6701,1.4001-15.8701,3.2002L44.952,78.7952c-12.245,5.056-21.1113,15.6061-24.2982,27.7021l.0157-.0021h42.9826c7.4,0,13.4,1.7,18.1,5,4.7,3.4,8.4,7.8,10,13.3,1.7,5.5,7.7,104.7,36.3,157.6,18.8918,50.2782,76.1498,93.262,98.6701,95.6961h.1608Z" style="fill: #0967ad; isolation: isolate; opacity: .4;"/>
      <path id="k" data-name="bg-r" d="M325.6521,282.3952c28.7-52.9,34.6-152.1,36.3-157.6s5.4-10,10-13.3c4.7-3.3,10.7-5,18.1-5h42.9c.0042.0129.0082.0262.0125.0392-3.1755-12.1116-12.0338-22.678-24.2125-27.7393L242.7521,9.395c-4.2-1.7999-11.5299-3.2-16.0299-3.2v371.8962c.0098.001.0201.0029.0299.0039,22.5-2.4,80-45.4,98.9-95.7Z" style="fill: #0967ad; isolation: isolate; opacity: .2;"/>
      <path id="l" data-name="v-shape" d="M226.7521,378.0952c22.5-2.4,80-45.4,98.9-95.7,28.7-52.9,34.6-152.1,36.3-157.6,1.7-5.5,5.4-10,10-13.3,4.7-3.3,10.7-5,18.1-5h42.9c1.7,5.2,2.4,11.5,1.5,30.1h0c-2.1,42.9-9.5,96-44.4,166.4-43.8,81.8-98,119.6-124.8,133.9-13.4,7-28,13.1-38.5,13.1h0c-10.5,0-24.9-6.1-38.3-13.1-26.9-14.3-81.1-52.2-124.8-133.9C28.8521,232.5952,21.3521,179.5952,19.2521,136.5952c-.8-18.6-.1-24.9,1.5-30.1h42.9c7.4,0,13.4,1.7,18.1,5,4.7,3.4,8.4,7.8,10,13.3,1.7,5.5,7.7,104.7,36.3,157.6,18.9,50.3,76.2,93.3,98.7,95.7h0Z" style="fill: #0967ad;"/>
    </g>
  </g>
  <g id="m" data-name="icon">
    <g>
      <path d="M292.7394,124.4578l38.191,38.1909c4.2624,4.2624,4.2624,11.1504,0,15.4128l-38.191,38.191c-4.2624,4.2624-11.1504,4.2624-15.4128,0s-4.2624-11.1504,0-15.4128l30.4505-30.4846-30.4505-30.4846c-4.2624-4.2624-4.2624-11.1504,0-15.4128,4.2624-4.2624,11.1504-4.2624,15.4128,0h0ZM172.7107,139.8705l-30.4675,30.4846,30.4675,30.4846c4.2624,4.2624,4.2624,11.1504,0,15.4128s-11.1504,4.2624-15.4128,0l-38.2005-38.191c-4.261-4.2624-4.261-11.1504,0-15.4128l38.2005-38.1909c4.2624-4.2624,11.1504-4.2624,15.4128,0,4.2624,4.2624,4.2624,11.1504,0,15.4128h0Z" style="fill: url(#n);"/>
      <path d="M257.3445,96.9705l-43.6468,152.7672c-1.6709,5.7968-7.7064,9.1385-13.5032,7.5018-5.7968-1.6709-9.1386-7.7064-7.5018-13.5032l43.6468-152.7604c1.6709-5.7948,7.7064-9.1501,13.5032-7.4943,5.7968,1.6555,9.1386,7.6955,7.5018,13.4889Z" style="fill: #fff; isolation: isolate;"/>
    </g>
  </g>
</svg>