<?xml version="1.0" encoding="UTF-8"?>
<svg id="d" data-name="white" xmlns="http://www.w3.org/2000/svg" xmlns:xlink="http://www.w3.org/1999/xlink" viewBox="0 0 1970.0787 510.2362">
  <defs>
    <linearGradient id="k" data-name="keyhole" x1="419.6668" y1="188.6166" x2="524.7375" y2="249.276" gradientUnits="userSpaceOnUse">
      <stop offset="0" stop-color="#ee7159"/>
      <stop offset=".85" stop-color="#e62e27"/>
    </linearGradient>
    <linearGradient id="o" data-name="font-red" x1="1114.3042" y1="510.9637" x2="1878.709" y2="69.6344" gradientUnits="userSpaceOnUse">
      <stop offset="0" stop-color="#ee7159"/>
      <stop offset=".3" stop-color="#e62e27"/>
    </linearGradient>
  </defs>
  <g id="e" data-name="logo-shield">
    <path id="f" data-name="bg" d="M477.4456,377.4295c.0098.001.0201.0029.0299.0039,22.5-2.4,80-45.4,98.9-95.7,28.7-52.9,34.6-152.1,36.3-157.6s5.4-10,10-13.3c4.7-3.3,10.7-5,18.1-5h42.9c.0042.0129.0082.0262.0125.0392-3.1755-12.1116-12.0338-22.678-24.2125-27.7393L493.4755,8.7333c-4.2-1.7999-11.5299-3.2-16.0299-3.2h-.1608c-4.6.0001-11.6701,1.4001-15.8701,3.2002l-165.9,69.3999c-12.245,5.056-21.1113,15.6061-24.2982,27.7021l.0157-.0021h42.9826c7.4,0,13.4,1.7,18.1,5,4.7,3.4,8.4,7.8,10,13.3,1.7,5.5,7.7,104.7,36.3,157.6,18.8918,50.2782,76.1498,93.262,98.6701,95.6961h.1608Z" style="fill: #fff; isolation: isolate; opacity: .4;"/>
    <path id="g" data-name="bg-r" d="M576.2147,281.7335c28.7-52.9,34.6-152.1,36.3-157.6s5.4-10,10-13.3c4.7-3.3,10.7-5,18.1-5h42.9c.0042.0129.0082.0262.0125.0392-3.1755-12.1116-12.0338-22.678-24.2125-27.7393L493.3147,8.7333c-4.2-1.7999-11.5299-3.2-16.0299-3.2v371.8962c.0098.001.0201.0029.0299.0039,22.5-2.4,80-45.4,98.9-95.7Z" style="fill: #fff; isolation: isolate; opacity: .2;"/>
    <path id="h" data-name="v-shape" d="M477.3147,377.4335c22.5-2.4,80-45.4,98.9-95.7,28.7-52.9,34.6-152.1,36.3-157.6,1.7-5.5,5.4-10,10-13.3,4.7-3.3,10.7-5,18.1-5h42.9c1.7,5.2,2.4,11.5,1.5,30.1h0c-2.1,42.9-9.5,96-44.4,166.4-43.8,81.8-98,119.6-124.8,133.9-13.4,7-28,13.1-38.5,13.1h0c-10.5,0-24.9-6.1-38.3-13.1-26.9-14.3-81.1-52.2-124.8-133.9-34.8-70.4-42.3-123.4-44.4-166.4-.8-18.6-.1-24.9,1.5-30.1h42.9c7.4,0,13.4,1.7,18.1,5,4.7,3.4,8.4,7.8,10,13.3,1.7,5.5,7.7,104.7,36.3,157.6,18.9,50.3,76.2,93.3,98.7,95.7h0Z" style="fill: #fff;"/>
  </g>
  <g id="j" data-name="logo-icon">
    <path id="l" data-name="keyhole" d="M477.1956,137.3333c-26.7,0-48.4,21.7-48.4,48.5,0,19.3,11.4,35.9,27.7,43.7v60.3c0,11.5,9.3,20.8,20.8,20.8s20.8-9.3,20.8-20.8v-60.3c16.3-7.8,27.6-24.4,27.5001-43.7,0-26.8-21.7-48.5-48.4-48.5ZM504.1956,193.0333h-18.7v18.7h-16.1v-18.7h-18.7v-16.1h18.7v-18.8h16.1v18.8h18.7v16.1Z" style="fill: url(#k);"/>
    <polygon id="m" data-name="cross" points="469.3956 176.9333 450.6956 176.9333 450.6956 193.0333 469.3956 193.0333 469.3956 211.7333 485.4956 211.7333 485.4956 193.0333 504.1956 193.0333 504.1956 176.9333 485.4956 176.9333 485.4956 158.1333 469.3956 158.1333 469.3956 176.9333" style="fill: #fff;"/>
  </g>
  <g id="n" data-name="PV">
    <path d="M903.5956,305.5333v116.3h-70.9v-116.3l-110.7999-189.5h62.5c6.2,0,11,1.4,14.7,4.3,3.6,2.9,6.6,6.5,8.8,11l43.2,89c3.5,7.1,6.7,13.7,9.6,19.7,3,6,5.6,11.9,7.8,17.9,2.1-6,4.6-12,7.6-18s6.1-12.5,9.4-19.5l42.8-89c.8-1.8,2-3.6,3.5-5.5,1.5-1.8,3.1-3.5,5-4.9s4.1-2.7,6.5-3.6c2.4-.9,5.1-1.3,8.1-1.3h62.9l-110.7,189.4h0Z" style="fill: #fff;"/>
    <path d="M79.9956,320.2333v102.2H8.9956V116.7333h107.8c21.5,0,40,2.5,55.5,7.6,15.4,5.1,28.2,12.2,38.2,21.1,10,9,17.3,19.5,22.2,31.7,4.7,12.2,7.1,25.3,7.1,39.4,0,15.3-2.4,29.2-7.3,42-4.9,12.8-12.4,23.7-22.5,32.7-10.1,9.1-22.8,16.2-38.3,21.3s-33.7,7.6-54.9,7.6h-36.8v.1h0ZM79.9956,266.8333h36.9c18.5,0,31.7-4.4,39.9-13.2,8.1-8.8,12.2-21.1,12.2-36.9,0-7-1-13.3-3.1-19.1-2.1-5.7-5.3-10.7-9.6-14.8-4.3-4.2-9.6-7.3-16.2-9.6-6.6-2.3-14.2-3.3-23.2-3.3h-36.9v96.9h0Z" style="fill: #fff;"/>
  </g>
  <path d="M1122.2097,421.8328h-59.3652l-84.6279-218.3047h54.3135c4.6318,0,8.5264,1.0889,11.6836,3.2627,3.1582,2.1777,5.2959,4.8779,6.4209,8.1045l30.3145,97.8906c2.3848,7.999,4.6641,15.7881,6.8418,23.3672,2.1738,7.5781,4.0322,15.1572,5.5781,22.7354,1.543-7.5781,3.4375-15.1572,5.6846-22.7354,2.2432-7.5791,4.6309-15.3682,7.1572-23.3672l31.5771-97.8906c1.1221-3.2266,3.2275-5.9268,6.3154-8.1045,3.0859-2.1738,6.7373-3.2627,10.9473-3.2627h51.7871l-84.6279,218.3047ZM1384.9304,421.8328c-6.1758,0-10.8398-.8418-13.998-2.5264-3.1582-1.6836-5.7891-5.1904-7.8945-10.5254l-4.6309-12c-5.4746,4.6318-10.7363,8.7041-15.7891,12.21-5.0527,3.5098-10.2832,6.4932-15.6836,8.9473-5.4043,2.457-11.1582,4.2793-17.2627,5.4736-6.1045,1.1904-12.877,1.7891-20.3145,1.7891-9.9668,0-19.0186-1.3027-27.1562-3.9072-8.1416-2.6055-15.0527-6.4404-20.7363-11.5098-5.6836-5.0684-10.0723-11.3711-13.1572-18.9033-3.0889-7.5332-4.6309-16.2266-4.6309-26.0811,0-7.7432,1.9629-15.7002,5.8936-23.8672,3.9277-8.1641,10.7363-15.5918,20.4209-22.2822,9.6836-6.6875,22.7354-12.2822,39.1553-16.7881,16.4209-4.5068,37.1201-6.7598,62.1025-6.7598v-9.3486c0-12.8877-2.6309-22.2031-7.8945-27.9395s-12.7363-8.6045-22.4199-8.6045c-7.7197,0-14.0352.8418-18.9463,2.5264-4.9141,1.6836-9.2988,3.5781-13.1572,5.6836-3.8613,2.1055-7.6152,4-11.2627,5.6836-3.6514,1.6846-8,2.5264-13.0518,2.5264-4.4932,0-8.3154-1.085-11.4736-3.2627-3.1572-2.1748-5.6504-4.875-7.4727-8.1055l-11.7891-20.4199c13.1904-11.6465,27.8213-20.3145,43.8926-25.998,16.0684-5.6846,33.2939-8.5264,51.6807-8.5264,13.1914,0,25.0859,2.1416,35.6836,6.4209,10.5938,4.2832,19.5781,10.2461,26.9453,17.8936,7.3691,7.6514,13.0156,16.7363,16.9473,27.2617,3.9277,10.5264,5.8945,22.0352,5.8945,34.5254v136.4141h-29.8945ZM1309.988,382.0457c8.4209,0,15.7881-1.4736,22.1045-4.4209,6.3145-2.9473,12.6992-7.7168,19.1562-14.3154v-29.8936c-13.0527,0-23.7891.8525-32.209,2.5498-8.4209,1.6973-15.0879,3.8223-19.999,6.3711-4.9141,2.5488-8.3154,5.4502-10.21,8.707-1.8945,3.2559-2.8418,6.792-2.8418,10.6143,0,7.5059,2.0322,12.7793,6.1045,15.8213,4.0693,3.0459,10.0332,4.5664,17.8945,4.5664ZM1522.1814,203.5281v138.5195c0,10.8086,2.4541,19.1562,7.3682,25.0508,4.9111,5.8945,12.1377,8.8418,21.6836,8.8418,7.1572,0,13.8574-1.4736,20.1035-4.4209,6.2432-2.9473,12.3154-7.085,18.21-12.4199v-155.5713h65.2598v218.3047h-40.4189c-8.1406,0-13.4727-3.6475-15.999-10.9473l-4-12.6309c-4.21,4.0723-8.5615,7.7568-13.0518,11.0527-4.4932,3.2988-9.2988,6.1045-14.4209,8.4199-5.124,2.3164-10.6309,4.1387-16.5254,5.4736-5.8945,1.332-12.3516,2-19.3672,2-11.9307,0-22.4922-2.0723-31.6826-6.21-9.1934-4.1377-16.9463-9.9277-23.2617-17.3682-6.3154-7.4365-11.0889-16.209-14.3154-26.3145-3.2305-10.1045-4.8418-21.1895-4.8418-33.2607v-138.5195h65.2598ZM1772.6902,106.6903v315.1426h-65.2598V106.6903h65.2598ZM1901.9421,425.201c-10.3877,0-19.5449-1.5098-27.4727-4.5264-7.9297-3.0156-14.5977-7.2949-19.999-12.8408-5.4043-5.543-9.5088-12.2432-12.3145-20.1045-2.8096-7.8584-4.2109-16.6309-4.2109-26.3145v-112.8369h-18.5254c-3.3682,0-6.2461-1.085-8.6309-3.2627-2.3877-2.1748-3.5791-5.3682-3.5791-9.5791v-25.4717l34.7354-6.7363,12.8418-53.2607c1.6836-6.7363,6.4531-10.1045,14.3145-10.1045h34.1045v63.7861h53.0498v44.6289h-53.0498v108.416c0,5.0527,1.2266,9.2295,3.6836,12.5254,2.4541,3.2998,6,4.9473,10.6309,4.9473,2.3848,0,4.3848-.2432,6-.7363,1.6113-.4902,3.0166-1.0527,4.21-1.6846,1.1914-.6318,2.3164-1.1904,3.3682-1.6836,1.0527-.4902,2.2803-.7373,3.6846-.7373,1.9639,0,3.542.457,4.7363,1.3682,1.1904.915,2.4209,2.3525,3.6846,4.3154l19.7881,30.9463c-8.4209,6.3154-17.8936,11.0518-28.4199,14.21-10.5254,3.1572-21.4033,4.7363-32.6299,4.7363Z" style="fill: url(#o);"/>
</svg>