<?xml version="1.0" encoding="UTF-8"?>
<svg xmlns="http://www.w3.org/2000/svg" xmlns:xlink="http://www.w3.org/1999/xlink" viewBox="0 0 453.5433 453.5433">
  <defs>
    <linearGradient id="n" data-name="Unbenannter Verlauf 4" x1="143.2103" y1="206.3489" x2="310.234" y2="109.9177" gradientUnits="userSpaceOnUse">
      <stop offset="0" stop-color="#ee7159"/>
      <stop offset=".4" stop-color="#e62e27"/>
    </linearGradient>
  </defs>
  <g id="d" data-name="white">
    <g id="f" data-name="shield">
      <path id="g" data-name="bg" d="M227.5447,377.4295c.0098.001.0201.0029.0299.0039,22.5-2.4,80-45.4,98.9-95.7,28.7-52.9,34.6-152.1,36.3-157.6s5.4-10,10-13.3c4.7-3.3,10.7-5,18.1-5h42.9c.0042.0129.0082.0262.0125.0392-3.1755-12.1116-12.0338-22.678-24.2125-27.7393L243.5746,8.7333c-4.2-1.7999-11.5299-3.2-16.0299-3.2h-.1608c-4.6.0001-11.6701,1.4001-15.8701,3.2002L45.6138,78.1334c-12.245,5.056-21.1113,15.6061-24.2982,27.7021l.0157-.0021h42.9826c7.4,0,13.4,1.7,18.1,5,4.7,3.4,8.4,7.8,10,13.3,1.7,5.5,7.7,104.7,36.3,157.6,18.8918,50.2782,76.1498,93.262,98.6701,95.6961h.1608Z" style="fill: #fff; isolation: isolate; opacity: .4;"/>
      <path id="h" data-name="bg-r" d="M326.3138,281.7335c28.7-52.9,34.6-152.1,36.3-157.6s5.4-10,10-13.3c4.7-3.3,10.7-5,18.1-5h42.9c.0042.0129.0082.0262.0125.0392-3.1755-12.1116-12.0338-22.678-24.2125-27.7393L243.4138,8.7333c-4.2-1.7999-11.5299-3.2-16.0299-3.2v371.8962c.0098.001.0201.0029.0299.0039,22.5-2.4,80-45.4,98.9-95.7Z" style="fill: #fff; isolation: isolate; opacity: .2;"/>
      <path id="i" data-name="v-shape" d="M227.4138,377.4335c22.5-2.4,80-45.4,98.9-95.7,28.7-52.9,34.6-152.1,36.3-157.6,1.7-5.5,5.4-10,10-13.3,4.7-3.3,10.7-5,18.1-5h42.9c1.7,5.2,2.4,11.5,1.5,30.1h0c-2.1,42.9-9.5,96-44.4,166.4-43.8,81.8-98,119.6-124.8,133.9-13.4,7-28,13.1-38.5,13.1h0c-10.5,0-24.9-6.1-38.3-13.1-26.9-14.3-81.1-52.2-124.8-133.9C29.5139,231.9334,22.0139,178.9334,19.9138,135.9334c-.8-18.6-.1-24.9,1.5-30.1h42.9c7.4,0,13.4,1.7,18.1,5,4.7,3.4,8.4,7.8,10,13.3,1.7,5.5,7.7,104.7,36.3,157.6,18.9,50.3,76.2,93.3,98.7,95.7h0Z" style="fill: #fff;"/>
    </g>
  </g>
  <g id="m" data-name="icon">
    <g>
      <circle cx="226.7222" cy="158.1333" r="96.415" style="fill: url(#n);"/>
      <path d="M268.0675,144.3981c1.9194-12.829-7.8497-19.7258-21.2074-24.3265l4.3332-17.3788-10.5796-2.6363-4.2186,16.9208c-2.7813-.6932-5.638-1.3467-8.4764-1.9944l4.2489-17.032-10.5738-2.6363-4.336,17.3726c-2.3023-.5245-4.5622-1.0427-6.7557-1.5877l.0121-.0544-14.5905-3.6428-2.8143,11.2984s7.8497,1.7988,7.684,1.91c4.285,1.0695,5.0595,3.9048,4.9296,6.1523l-4.9358,19.7981c.2955.0754.678.1839,1.0998.3526-.3526-.0875-.7293-.1839-1.1181-.2772l-6.9186,27.7341c-.5245,1.3016-1.8533,3.254-4.8484,2.513.1054.1536-7.6899-1.9194-7.6899-1.9194l-5.2523,12.109,13.7679,3.4317c2.5612.6419,5.0715,1.3137,7.5421,1.9462l-4.3783,17.5775,10.5676,2.6363,4.336-17.3909c2.8025.7595,5.6131,1.4888,8.4313,2.1876l-4.3212,17.3092,10.5796,2.6363,4.3783-17.5444c18.0405,3.4138,31.6066,2.0368,37.3165-14.2784,4.6015-13.1365-.229-20.7141-9.7208-25.6553,6.9123-1.5932,12.1195-6.1395,13.5086-15.531h0ZM243.8949,178.2907c-3.2696,13.1365-25.3898,6.0349-32.5615,4.2543l5.8098-23.2869c7.1713,1.7895,30.1686,5.3328,26.7517,19.0326ZM247.1672,144.2084c-2.983,11.9492-21.3944,5.8782-27.3667,4.39l5.2671-21.1207c5.9727,1.4882,25.2063,4.266,22.0996,16.7307Z" style="fill: #fff;"/>
    </g>
  </g>
</svg>