<?xml version="1.0" encoding="UTF-8"?>
<svg xmlns="http://www.w3.org/2000/svg" width="160mm" height="160mm" xmlns:xlink="http://www.w3.org/1999/xlink" viewBox="0 0 453.54 453.54">
  <defs>
    <linearGradient id="n" data-name="Unbenannter Verlauf 6" x1="169.24" y1="217.03" x2="335.37" y2="121.11" gradientUnits="userSpaceOnUse">
      <stop offset="0" stop-color="#ee7159"/>
      <stop offset=".48" stop-color="#e62e27"/>
    </linearGradient>
  </defs>
  <g id="d" data-name="white">
    <g id="f" data-name="shield">
      <path id="g" data-name="bg" d="M227.54,377.43s.02,0,.03,0c22.5-2.4,80-45.4,98.9-95.7,28.7-52.9,34.6-152.1,36.3-157.6s5.4-10,10-13.3c4.7-3.3,10.7-5,18.1-5h42.9s0,.03.01.04c-3.18-12.11-12.03-22.68-24.21-27.74L243.57,8.73c-4.2-1.8-11.53-3.2-16.03-3.2h-.16c-4.6,0-11.67,1.4-15.87,3.2L45.61,78.13c-12.25,5.06-21.11,15.61-24.3,27.7h.02s42.98,0,42.98,0c7.4,0,13.4,1.7,18.1,5,4.7,3.4,8.4,7.8,10,13.3,1.7,5.5,7.7,104.7,36.3,157.6,18.89,50.28,76.15,93.26,98.67,95.7h.16Z" fill="#fff" isolation="isolate" opacity=".4" stroke-width="0"/>
      <path id="h" data-name="bg-r" d="M326.31,281.73c28.7-52.9,34.6-152.1,36.3-157.6s5.4-10,10-13.3c4.7-3.3,10.7-5,18.1-5h42.9s0,.03.01.04c-3.18-12.11-12.03-22.68-24.21-27.74L243.41,8.73c-4.2-1.8-11.53-3.2-16.03-3.2v371.9s.02,0,.03,0c22.5-2.4,80-45.4,98.9-95.7Z" fill="#fff" isolation="isolate" opacity=".2" stroke-width="0"/>
      <path id="i" data-name="v-shape" d="M227.41,377.43c22.5-2.4,80-45.4,98.9-95.7,28.7-52.9,34.6-152.1,36.3-157.6,1.7-5.5,5.4-10,10-13.3,4.7-3.3,10.7-5,18.1-5h42.9c1.7,5.2,2.4,11.5,1.5,30.1h0c-2.1,42.9-9.5,96-44.4,166.4-43.8,81.8-98,119.6-124.8,133.9-13.4,7-28,13.1-38.5,13.1h0c-10.5,0-24.9-6.1-38.3-13.1-26.9-14.3-81.1-52.2-124.8-133.9C29.51,231.93,22.01,178.93,19.91,135.93c-.8-18.6-.1-24.9,1.5-30.1h42.9c7.4,0,13.4,1.7,18.1,5,4.7,3.4,8.4,7.8,10,13.3,1.7,5.5,7.7,104.7,36.3,157.6,18.9,50.3,76.2,93.3,98.7,95.7h0Z" fill="#fff" stroke-width="0"/>
    </g>
  </g>
  <g id="m" data-name="icon">
    <g>
      <path d="M329.93,199.09c0,11.29-9.18,20.48-20.48,20.48h-81.91v-122.86h81.91c11.29,0,20.48,9.17,20.48,20.48v81.91ZM285.14,135.1c0-3.81-2.88-6.4-6.4-6.4-3.81,0-6.4,2.59-6.4,6.4v1.28h-16.64c-3.81,0-6.4,2.59-6.4,6.4,0,3.52,2.59,6.4,6.4,6.4h34.27c-2.34,5.34-5.57,10.21-9.53,14.11l-.19.1-4.67-4.64c-2.5-2.53-6.53-2.53-9.02,0-2.53,2.5-2.53,6.53,0,9.02l3.87,3.9c-1.89.9-3.87,2.21-5.92,3.14l-1.15.51c-3.23,1.44-4.7,5.22-3.26,8.45s5.22,4.7,8.45,3.26l1.18-.51c3.84-1.73,7.49-3.81,10.85-6.21,1.09.96,2.78,1.86,4.19,2.72l6.05,3.62c3.04,1.82,6.97.86,8.8-2.18,1.79-3.04.83-6.97-2.21-8.77l-6.05-3.65c-.29-.45-.58-.35-.86-.51,5.5-6.01,9.85-13.37,12.7-20.92l.51-1.44h.64c3.52,0,6.4-2.88,6.4-6.4,0-3.81-2.88-6.4-6.4-6.4h-19.2v-1.28ZM176.36,128.7c2.53,0,4.83,1.5,5.85,3.81l20.48,46.07c1.44,2.94-.03,7.01-3.26,8.45-3.23,1.44-7.01-.03-8.45-3.26l-2.85-6.72h-23.55l-2.85,6.72c-1.44,3.23-5.22,4.7-8.45,3.26-3.23-1.44-4.68-5.5-3.25-8.45l20.47-46.07c1.02-2.3,3.33-3.81,5.85-3.81h0ZM169.99,164.53h12.45l-6.08-13.69-6.37,13.69Z" fill="url(#n)" stroke-width="0"/>
      <path d="M176.36,150.84l6.08,13.69h-12.45l6.37-13.69ZM125.17,117.18c0-11.31,9.17-20.48,20.48-20.48h81.91v122.86h-81.91c-11.31,0-20.48-9.18-20.48-20.48v-81.91ZM170.51,132.5l-20.47,46.07c-1.43,2.94.02,7.01,3.25,8.45,3.23,1.44,7.01-.03,8.45-3.26l2.85-6.72h23.55l2.85,6.72c1.44,3.23,5.22,4.7,8.45,3.26,3.23-1.44,4.7-5.5,3.26-8.45l-20.48-46.07c-1.02-2.3-3.33-3.81-5.85-3.81s-4.83,1.5-5.85,3.81h0Z" fill="#fff" isolation="isolate" stroke-width="0"/>
    </g>
  </g>
</svg>