<?xml version="1.0" encoding="UTF-8"?>
<svg xmlns="http://www.w3.org/2000/svg" xmlns:xlink="http://www.w3.org/1999/xlink" viewBox="0 0 453.5433 453.5433">
  <defs>
    <linearGradient id="n" data-name="keyhole" x1="165.9216" y1="184.8095" x2="314.9777" y2="184.8095" gradientUnits="userSpaceOnUse">
      <stop offset="0" stop-color="#ee7159"/>
      <stop offset=".85" stop-color="#e62e27"/>
    </linearGradient>
  </defs>
  <g id="d" data-name="white">
    <g id="f" data-name="shield">
      <path id="g" data-name="bg" d="M227.5447,377.4295c.0098.001.0201.0029.0299.0039,22.5-2.4,80-45.4,98.9-95.7,28.7-52.9,34.6-152.1,36.3-157.6s5.4-10,10-13.3c4.7-3.3,10.7-5,18.1-5h42.9c.0042.0129.0082.0262.0125.0392-3.1755-12.1116-12.0338-22.678-24.2125-27.7393L243.5746,8.7333c-4.2-1.7999-11.5299-3.2-16.0299-3.2h-.1608c-4.6.0001-11.6701,1.4001-15.8701,3.2002L45.6138,78.1334c-12.245,5.056-21.1113,15.6061-24.2982,27.7021l.0157-.0021h42.9826c7.4,0,13.4,1.7,18.1,5,4.7,3.4,8.4,7.8,10,13.3,1.7,5.5,7.7,104.7,36.3,157.6,18.8918,50.2782,76.1498,93.262,98.6701,95.6961h.1608Z" style="fill: #fff; isolation: isolate; opacity: .4;"/>
      <path id="h" data-name="bg-r" d="M326.3138,281.7335c28.7-52.9,34.6-152.1,36.3-157.6s5.4-10,10-13.3c4.7-3.3,10.7-5,18.1-5h42.9c.0042.0129.0082.0262.0125.0392-3.1755-12.1116-12.0338-22.678-24.2125-27.7393L243.4138,8.7333c-4.2-1.7999-11.5299-3.2-16.0299-3.2v371.8962c.0098.001.0201.0029.0299.0039,22.5-2.4,80-45.4,98.9-95.7Z" style="fill: #fff; isolation: isolate; opacity: .2;"/>
      <path id="i" data-name="v-shape" d="M227.4138,377.4335c22.5-2.4,80-45.4,98.9-95.7,28.7-52.9,34.6-152.1,36.3-157.6,1.7-5.5,5.4-10,10-13.3,4.7-3.3,10.7-5,18.1-5h42.9c1.7,5.2,2.4,11.5,1.5,30.1h0c-2.1,42.9-9.5,96-44.4,166.4-43.8,81.8-98,119.6-124.8,133.9-13.4,7-28,13.1-38.5,13.1h0c-10.5,0-24.9-6.1-38.3-13.1-26.9-14.3-81.1-52.2-124.8-133.9C29.5139,231.9334,22.0139,178.9334,19.9138,135.9334c-.8-18.6-.1-24.9,1.5-30.1h42.9c7.4,0,13.4,1.7,18.1,5,4.7,3.4,8.4,7.8,10,13.3,1.7,5.5,7.7,104.7,36.3,157.6,18.9,50.3,76.2,93.3,98.7,95.7h0Z" style="fill: #fff;"/>
    </g>
  </g>
  <g id="m" data-name="icon">
    <path d="M296.2435,71.4877h-137.3843c-10.3468,0-18.7342,9.4257-18.7342,21.0532v154.3901c0,12.0179,8.3875,21.4479,18.7342,21.4479h106.1606v-56.1418h49.9579v-119.3014c0-11.6275-8.3914-21.4479-18.7342-21.4479Z" style="fill: #fff; isolation: isolate;"/>
    <path d="M314.9777,212.2371l-49.9579,56.1418v-56.1418h49.9579ZM165.9216,177.8004c0-3.2391,2.6502-5.8893,5.8893-5.8893h118.1878c3.2391,0,5.8893,2.6502,5.8893,5.8893,0,3.2523-2.6369,5.8893-5.8893,5.8893h-118.1878c-3.2391,0-5.8893-2.6502-5.8893-5.8893ZM213.0357,213.136c0,3.2523-2.6369,5.8893-5.8893,5.8893h-35.3355c-3.2523,0-5.8893-2.6369-5.8893-5.8893s2.6369-5.8893,5.8893-5.8893h35.3355c3.2391,0,5.8893,2.6502,5.8893,5.8893ZM165.9216,107.1294c0-3.2391,2.6502-5.8893,5.8893-5.8893h118.1878c3.2391,0,5.8893,2.6502,5.8893,5.8893,0,3.2523-2.6369,5.8893-5.8893,5.8893h-118.1878c-3.2391,0-5.8893-2.6502-5.8893-5.8893ZM295.888,142.4649c0,3.2523-2.6369,5.8893-5.8893,5.8893h-118.1878c-3.2523,0-5.8893-2.6369-5.8893-5.8893s2.6369-5.8893,5.8893-5.8893h118.1878c3.2391,0,5.8893,2.6502,5.8893,5.8893Z" style="fill: url(#n);"/>
  </g>
</svg>