<?xml version="1.0" encoding="UTF-8"?>
<svg xmlns="http://www.w3.org/2000/svg" width="160mm" height="160mm" xmlns:xlink="http://www.w3.org/1999/xlink" viewBox="0 0 453.54 453.54">
  <defs>
    <linearGradient id="n" data-name="Unbenannter Verlauf 4" x1="174.01" y1="215.16" x2="300.17" y2="142.32" gradientUnits="userSpaceOnUse">
      <stop offset="0" stop-color="#ee7159"/>
      <stop offset=".8" stop-color="#e62e27"/>
    </linearGradient>
  </defs>
  <g id="g" data-name="color">
    <g id="i" data-name="shield">
      <path id="j" data-name="bg" d="M226.88,378.09s.02,0,.03,0c22.5-2.4,80-45.4,98.9-95.7,28.7-52.9,34.6-152.1,36.3-157.6s5.4-10,10-13.3c4.7-3.3,10.7-5,18.1-5h42.9s0,.03.01.04c-3.18-12.11-12.03-22.68-24.21-27.74L242.91,9.4c-4.2-1.8-11.53-3.2-16.03-3.2h-.16c-4.6,0-11.67,1.4-15.87,3.2L44.95,78.8c-12.25,5.06-21.11,15.61-24.3,27.7h.02s42.98,0,42.98,0c7.4,0,13.4,1.7,18.1,5,4.7,3.4,8.4,7.8,10,13.3,1.7,5.5,7.7,104.7,36.3,157.6,18.89,50.28,76.15,93.26,98.67,95.7h.16Z" fill="#0967ad" isolation="isolate" opacity=".4" stroke-width="0"/>
      <path id="k" data-name="bg-r" d="M325.65,282.4c28.7-52.9,34.6-152.1,36.3-157.6s5.4-10,10-13.3c4.7-3.3,10.7-5,18.1-5h42.9s0,.03.01.04c-3.18-12.11-12.03-22.68-24.21-27.74L242.75,9.4c-4.2-1.8-11.53-3.2-16.03-3.2v371.9s.02,0,.03,0c22.5-2.4,80-45.4,98.9-95.7Z" fill="#0967ad" isolation="isolate" opacity=".2" stroke-width="0"/>
      <path id="l" data-name="v-shape" d="M226.75,378.1c22.5-2.4,80-45.4,98.9-95.7,28.7-52.9,34.6-152.1,36.3-157.6,1.7-5.5,5.4-10,10-13.3,4.7-3.3,10.7-5,18.1-5h42.9c1.7,5.2,2.4,11.5,1.5,30.1h0c-2.1,42.9-9.5,96-44.4,166.4-43.8,81.8-98,119.6-124.8,133.9-13.4,7-28,13.1-38.5,13.1h0c-10.5,0-24.9-6.1-38.3-13.1-26.9-14.3-81.1-52.2-124.8-133.9C28.85,232.6,21.35,179.6,19.25,136.6c-.8-18.6-.1-24.9,1.5-30.1h42.9c7.4,0,13.4,1.7,18.1,5,4.7,3.4,8.4,7.8,10,13.3,1.7,5.5,7.7,104.7,36.3,157.6,18.9,50.3,76.2,93.3,98.7,95.7h0Z" fill="#0967ad" stroke-width="0"/>
    </g>
  </g>
  <g id="m" data-name="icon">
    <g>
      <path d="M292.27,197.73c.78.79,1.15,1.8,1.15,2.6,0,1.02-.39,2.03-1.16,2.81l-34.33,34.54c-.78.78-1.79,1.16-2.81,1.16s-2.03-.39-2.8-1.16l-18.46-18.44c-.77-.77-1.17-1.79-1.17-3.03,0-1.02.39-2.03,1.16-2.81l2.81-2.81c.79-.57,1.59-.94,2.8-.94s2.04.37,2.83,1.14l12.84,12.84,28.71-28.71c.78-.78,1.79-1.16,2.81-1.16s2.03.39,2.81,1.16l2.81,2.81ZM241.58,100.14c0-8.77-7.12-15.88-15.88-15.88h-79.42c-8.77,0-15.88,7.11-15.88,15.88v79.42c0,8.76,7.11,15.88,15.88,15.88h49.42c-.77-5.48-1.2-11.26-1.2-17.33,0-4.59,2.9-8.93,7.35-10.77l39.73-16.56v-50.65Z" fill="#fff" isolation="isolate" stroke-width="0"/>
      <path d="M315.29,173.43l-47.65-19.85c-1.21-.5-3.27-.92-4.58-.92s-3.36.41-4.58.92l-47.65,19.85c-4.44,1.83-7.35,6.18-7.35,10.77,0,64.06,46.96,95.53,59.54,95.53s59.59-31.82,59.59-95.53c0-4.59-2.9-8.93-7.32-10.77ZM292.26,203.13l-34.33,34.54c-.78.78-1.79,1.16-2.81,1.16s-2.03-.39-2.8-1.16l-18.46-18.44c-.77-.77-1.17-1.79-1.17-3.03,0-1.02.39-2.03,1.16-2.81l2.81-2.81c.79-.57,1.59-.94,2.8-.94s2.04.37,2.83,1.14l12.84,12.84,28.71-28.71c.78-.78,1.79-1.16,2.81-1.16s2.03.39,2.81,1.16l2.81,2.81c.78.79,1.15,1.8,1.15,2.6,0,1.02-.39,2.03-1.16,2.81ZM161.06,164.8c0,4.13-3.35,7.49-7.49,7.49s-7.49-3.35-7.49-7.49,3.35-7.49,7.49-7.49,7.49,3.35,7.49,7.49ZM170.08,136.12l-11.22,12.48c-.69.75-1.66,1.2-2.68,1.09-1.03.17-2.02-.23-2.74-1.09l-6.24-6.24c-1.46-1.33-1.46-3.7,0-5.16,1.46-1.45,3.83-1.45,5.29,0l3.45,3.45,8.6-9.54c1.37-1.53,3.74-1.65,5.29-.27,1.53,1.37,1.65,3.74.27,5.29ZM181.03,139.84c0-2.76,2.23-4.99,4.99-4.99h34.93c2.76,0,4.99,2.23,4.99,4.99s-2.23,4.99-4.99,4.99h-34.93c-2.76,0-4.99-2.23-4.99-4.99ZM181.03,114.89c0-2.76,2.23-4.99,4.99-4.99h34.93c2.76,0,4.99,2.23,4.99,4.99s-2.23,4.99-4.99,4.99h-34.93c-2.76,0-4.99-2.23-4.99-4.99ZM201.85,167.34c-1.42.58-2.67,1.42-3.73,2.44h-22.08c-2.76,0-4.99-2.23-4.99-4.99s2.23-4.99,4.99-4.99h43.9l-18.09,7.54ZM169.81,105.87c1.53,1.38,1.65,3.75.27,5.29l-11.22,12.48c-.69.75-1.66,1.2-2.68,1.09-1.03.17-2.02-.23-2.74-1.09l-6.24-6.24c-1.46-1.33-1.46-3.7,0-5.16,1.46-1.46,3.83-1.46,5.29,0l3.45,3.44,8.6-9.54c1.37-1.54,3.74-1.66,5.29-.28Z" fill="url(#n)" stroke-width="0"/>
    </g>
  </g>
</svg>