<?xml version="1.0" encoding="UTF-8"?>
<svg id="d" data-name="white" xmlns="http://www.w3.org/2000/svg" width="1086mm" height="180mm" xmlns:xlink="http://www.w3.org/1999/xlink" viewBox="0 0 3078.43 510.24">
  <defs>
    <linearGradient id="j" data-name="font-red" x1="1184.98" y1="801.2" x2="2826.23" y2="-146.38" gradientUnits="userSpaceOnUse">
      <stop offset="0" stop-color="#ee7159"/>
      <stop offset=".3" stop-color="#e62e27"/>
    </linearGradient>
    <linearGradient id="l" data-name="keyhole" x1="419.67" y1="188.62" x2="524.74" y2="249.28" gradientUnits="userSpaceOnUse">
      <stop offset="0" stop-color="#ee7159"/>
      <stop offset=".85" stop-color="#e62e27"/>
    </linearGradient>
  </defs>
  <g id="e" data-name="logo-shield">
    <path id="f" data-name="bg" d="M477.45,377.43s.02,0,.03,0c22.5-2.4,80-45.4,98.9-95.7,28.7-52.9,34.6-152.1,36.3-157.6s5.4-10,10-13.3c4.7-3.3,10.7-5,18.1-5h42.9s0,.03.01.04c-3.18-12.11-12.03-22.68-24.21-27.74L493.48,8.73c-4.2-1.8-11.53-3.2-16.03-3.2h-.16c-4.6,0-11.67,1.4-15.87,3.2l-165.9,69.4c-12.25,5.06-21.11,15.61-24.3,27.7h.02s42.98,0,42.98,0c7.4,0,13.4,1.7,18.1,5,4.7,3.4,8.4,7.8,10,13.3,1.7,5.5,7.7,104.7,36.3,157.6,18.89,50.28,76.15,93.26,98.67,95.7h.16Z" fill="#fff" isolation="isolate" opacity=".4" stroke-width="0"/>
    <path id="g" data-name="bg-r" d="M576.21,281.73c28.7-52.9,34.6-152.1,36.3-157.6s5.4-10,10-13.3c4.7-3.3,10.7-5,18.1-5h42.9s0,.03.01.04c-3.18-12.11-12.03-22.68-24.21-27.74L493.31,8.73c-4.2-1.8-11.53-3.2-16.03-3.2v371.9s.02,0,.03,0c22.5-2.4,80-45.4,98.9-95.7Z" fill="#fff" isolation="isolate" opacity=".2" stroke-width="0"/>
    <path id="h" data-name="v-shape" d="M477.31,377.43c22.5-2.4,80-45.4,98.9-95.7,28.7-52.9,34.6-152.1,36.3-157.6,1.7-5.5,5.4-10,10-13.3,4.7-3.3,10.7-5,18.1-5h42.9c1.7,5.2,2.4,11.5,1.5,30.1h0c-2.1,42.9-9.5,96-44.4,166.4-43.8,81.8-98,119.6-124.8,133.9-13.4,7-28,13.1-38.5,13.1h0c-10.5,0-24.9-6.1-38.3-13.1-26.9-14.3-81.1-52.2-124.8-133.9-34.8-70.4-42.3-123.4-44.4-166.4-.8-18.6-.1-24.9,1.5-30.1h42.9c7.4,0,13.4,1.7,18.1,5,4.7,3.4,8.4,7.8,10,13.3,1.7,5.5,7.7,104.7,36.3,157.6,18.9,50.3,76.2,93.3,98.7,95.7h0Z" fill="#fff" stroke-width="0"/>
  </g>
  <path d="M1082.47,200.34c9.26,0,18,.91,26.21,2.74,8.21,1.83,15.82,4.42,22.84,7.79h65.89v23.79c0,3.65-1.02,6.53-3.05,8.63-2.04,2.11-5.51,3.72-10.42,4.84l-16,3.58c1.96,6.32,2.95,12.84,2.95,19.58,0,10.95-2.28,20.77-6.84,29.47-4.56,8.7-10.81,16.1-18.74,22.21-7.93,6.1-17.3,10.81-28.1,14.1-10.81,3.3-22.39,4.95-34.74,4.95-6.88,0-13.33-.42-19.37-1.26-4.77,2.84-7.16,6.09-7.16,9.78s1.93,6.34,5.79,7.97c3.86,1.63,8.95,2.76,15.26,3.4s13.54.96,21.68.96,16.42.39,24.84,1.16c8.42.78,16.7,2.08,24.84,3.91,8.14,1.83,15.37,4.79,21.68,8.87,6.32,4.09,11.4,9.54,15.26,16.37,3.86,6.83,5.79,15.52,5.79,26.08,0,9.85-2.39,19.5-7.16,28.93-4.77,9.43-11.79,17.8-21.05,25.13-9.26,7.32-20.63,13.2-34.1,17.63-13.47,4.43-28.91,6.65-46.31,6.65s-31.89-1.62-44.31-4.84c-12.42-3.23-22.74-7.48-30.95-12.75-8.21-5.27-14.28-11.35-18.21-18.23-3.93-6.89-5.89-14.05-5.89-21.5,0-9.7,2.95-17.88,8.84-24.55,5.89-6.67,13.96-11.9,24.21-15.7-4.91-3.22-8.84-7.35-11.79-12.4s-4.42-11.42-4.42-19.13c0-3.22.56-6.62,1.68-10.19,1.12-3.57,2.88-7.04,5.26-10.41,2.38-3.36,5.4-6.58,9.05-9.67,3.65-3.08,8-5.82,13.05-8.2-11.37-6.03-20.32-14.03-26.84-24-6.53-9.96-9.79-21.54-9.79-34.74,0-10.95,2.32-20.8,6.95-29.58,4.63-8.77,10.98-16.21,19.05-22.31,8.07-6.11,17.58-10.81,28.53-14.1,10.95-3.3,22.8-4.95,35.58-4.95ZM1130.89,429.96c0-3.58-1.09-6.45-3.26-8.6-2.18-2.15-5.12-3.87-8.84-5.16-3.72-1.29-8.07-2.22-13.05-2.8-4.98-.57-10.35-.86-16.1-.86h-17.89c-6.18,0-12.28-.59-18.31-1.79-4.07,2.82-7.4,5.94-10,9.39-2.6,3.45-3.89,7.35-3.89,11.71,0,3.09.66,5.91,2,8.44,1.33,2.53,3.68,4.71,7.05,6.54,3.37,1.83,7.89,3.27,13.58,4.33,5.68,1.05,12.87,1.58,21.58,1.58,9.4,0,17.12-.58,23.16-1.72,6.03-1.15,10.84-2.72,14.42-4.73,3.58-2.01,6.07-4.41,7.47-7.2,1.4-2.8,2.11-5.84,2.11-9.14ZM1082.47,301.81c10.81,0,18.63-2.7,23.47-8.1,4.84-5.4,7.26-12.38,7.26-20.95s-2.42-15.79-7.26-20.84c-4.84-5.05-12.67-7.58-23.47-7.58s-18.63,2.53-23.47,7.58c-4.84,5.05-7.26,12-7.26,20.84,0,4.21.6,8.07,1.79,11.58,1.19,3.51,3.05,6.56,5.58,9.16,2.53,2.6,5.72,4.63,9.58,6.11,3.86,1.47,8.45,2.21,13.79,2.21ZM1225.62,422.43v-218.31h38.74c3.23,0,5.93.28,8.1.84,2.17.56,4,1.44,5.47,2.63,1.47,1.19,2.6,2.77,3.37,4.74.77,1.97,1.44,4.35,2,7.16l3.58,20.42c8-12.35,16.98-22.1,26.95-29.26,9.96-7.16,20.84-10.74,32.63-10.74,9.96,0,17.96,2.39,24,7.16l-8.42,48c-.56,2.95-1.68,5.02-3.37,6.21-1.68,1.19-3.93,1.79-6.74,1.79-2.39,0-5.19-.32-8.42-.95-3.23-.63-7.3-.95-12.21-.95-17.12,0-30.6,9.12-40.42,27.37v133.89h-65.26ZM1496.76,200.76c16.56,0,31.65,2.6,45.26,7.79,13.61,5.19,25.29,12.63,35.05,22.31,9.75,9.68,17.33,21.44,22.74,35.26,5.4,13.83,8.1,29.37,8.1,46.63s-2.7,33.09-8.1,47.05c-5.4,13.97-12.98,25.83-22.74,35.58-9.76,9.76-21.44,17.26-35.05,22.53-13.61,5.26-28.7,7.89-45.26,7.89s-31.89-2.63-45.58-7.89-25.47-12.77-35.37-22.53c-9.89-9.75-17.55-21.61-22.95-35.58-5.4-13.96-8.11-29.65-8.11-47.05s2.7-32.8,8.11-46.63c5.4-13.82,13.05-25.58,22.95-35.26,9.89-9.68,21.68-17.12,35.37-22.31,13.68-5.19,28.87-7.79,45.58-7.79ZM1496.76,377.38c15.02,0,26.07-5.3,33.16-15.89,7.08-10.59,10.63-26.7,10.63-48.31s-3.55-37.68-10.63-48.21c-7.09-10.53-18.14-15.79-33.16-15.79s-26.74,5.26-33.89,15.79c-7.16,10.53-10.74,26.6-10.74,48.21s3.58,37.72,10.74,48.31c7.16,10.6,18.45,15.89,33.89,15.89ZM1704.75,204.13v138.52c0,10.81,2.45,19.16,7.37,25.05,4.91,5.89,12.14,8.84,21.68,8.84,7.16,0,13.86-1.47,20.1-4.42,6.24-2.95,12.32-7.08,18.21-12.42v-155.57h65.26v218.31h-40.42c-8.14,0-13.47-3.65-16-10.95l-4-12.63c-4.21,4.07-8.56,7.76-13.05,11.05-4.49,3.3-9.3,6.1-14.42,8.42-5.12,2.32-10.63,4.14-16.53,5.47-5.89,1.33-12.35,2-19.37,2-11.93,0-22.49-2.07-31.68-6.21-9.19-4.14-16.95-9.93-23.26-17.37-6.32-7.44-11.09-16.21-14.32-26.31-3.23-10.1-4.84-21.19-4.84-33.26v-138.52h65.26ZM1887.89,491.69V204.13h40.42c4.07,0,7.47.92,10.21,2.74,2.74,1.83,4.67,4.56,5.79,8.21l4.84,16c4.21-4.63,8.74-8.84,13.58-12.63s10.03-7.05,15.58-9.79c5.54-2.74,11.51-4.88,17.89-6.42,6.38-1.54,13.37-2.32,20.95-2.32,11.37,0,21.89,2.53,31.58,7.58,9.68,5.05,18.03,12.35,25.05,21.89,7.02,9.55,12.53,21.23,16.53,35.05,4,13.83,6,29.51,6,47.05,0,16.42-2.28,31.58-6.84,45.47-4.56,13.89-10.95,25.97-19.16,36.21-8.21,10.25-18.04,18.25-29.47,24-11.44,5.75-24.1,8.63-38,8.63-11.37,0-20.91-1.62-28.63-4.84-7.72-3.23-14.74-7.58-21.05-13.05v83.79h-65.26ZM1994.41,249.81c-4.77,0-9.09.46-12.95,1.37-3.86.91-7.44,2.21-10.74,3.89-3.3,1.68-6.35,3.83-9.16,6.42-2.81,2.6-5.61,5.58-8.42,8.95v92.63c4.91,5.47,10.24,9.3,16,11.47,5.75,2.18,11.79,3.26,18.1,3.26s11.58-1.19,16.63-3.58c5.05-2.38,9.44-6.21,13.16-11.47,3.72-5.26,6.63-12.1,8.74-20.53,2.1-8.42,3.16-18.66,3.16-30.74s-.84-21.19-2.53-29.05c-1.68-7.86-4.04-14.21-7.05-19.05-3.02-4.84-6.63-8.32-10.84-10.42-4.21-2.1-8.91-3.16-14.1-3.16ZM2105.98,204.13h52.21c4.63,0,8.63,1.05,12,3.16,3.37,2.1,5.4,4.84,6.11,8.21l21.89,97.89c1.68,7.44,3.23,14.67,4.63,21.68,1.4,7.02,2.66,13.97,3.79,20.84,1.96-6.87,4.03-13.79,6.21-20.74,2.17-6.95,4.32-14.21,6.42-21.79l27.37-98.1c.84-3.23,2.88-5.93,6.1-8.1,3.23-2.17,6.95-3.26,11.16-3.26h29.05c4.63,0,8.59,1.09,11.89,3.26,3.3,2.18,5.37,4.88,6.21,8.1l26.1,98.1c1.96,7.44,3.96,14.67,6,21.68,2.03,7.02,3.96,14.1,5.79,21.26,1.12-7.02,2.49-14,4.11-20.95,1.61-6.95,3.33-14.28,5.16-22l23.16-97.89c.7-3.37,2.7-6.11,6-8.21,3.3-2.11,7.05-3.16,11.26-3.16h49.68l-67.79,218.31h-53.05c-2.81,0-5.19-.84-7.16-2.53-1.97-1.68-3.51-4.49-4.63-8.42l-31.16-108.84c-1.4-4.91-2.74-9.75-4-14.53-1.26-4.77-2.39-9.54-3.37-14.31-.98,4.91-2.07,9.79-3.26,14.63-1.19,4.84-2.56,9.72-4.11,14.63l-31.58,108.42c-2.11,7.3-6.74,10.95-13.89,10.95h-50.52l-67.79-218.31ZM2624.27,422.43c-6.18,0-10.84-.84-14-2.53-3.16-1.68-5.79-5.19-7.89-10.53l-4.63-12c-5.47,4.63-10.74,8.7-15.79,12.21-5.05,3.51-10.28,6.49-15.68,8.95-5.4,2.46-11.16,4.28-17.26,5.47-6.11,1.19-12.88,1.79-20.32,1.79-9.97,0-19.02-1.3-27.16-3.91-8.14-2.61-15.05-6.44-20.74-11.51-5.68-5.07-10.07-11.37-13.16-18.9-3.09-7.53-4.63-16.23-4.63-26.08,0-7.74,1.96-15.7,5.89-23.87,3.93-8.16,10.74-15.59,20.42-22.28,9.68-6.69,22.74-12.28,39.16-16.79,16.42-4.51,37.12-6.76,62.1-6.76v-9.35c0-12.89-2.63-22.2-7.89-27.94-5.26-5.74-12.74-8.6-22.42-8.6-7.72,0-14.04.84-18.95,2.53-4.91,1.68-9.3,3.58-13.16,5.68-3.86,2.11-7.61,4-11.26,5.68-3.65,1.68-8,2.53-13.05,2.53-4.49,0-8.32-1.08-11.47-3.26-3.16-2.17-5.65-4.88-7.47-8.11l-11.79-20.42c13.19-11.65,27.82-20.31,43.89-26,16.07-5.68,33.29-8.53,51.68-8.53,13.19,0,25.08,2.14,35.68,6.42,10.59,4.28,19.58,10.25,26.95,17.89,7.37,7.65,13.02,16.74,16.95,27.26,3.93,10.53,5.89,22.04,5.89,34.53v136.41h-29.89ZM2549.32,382.65c8.42,0,15.79-1.47,22.1-4.42s12.7-7.72,19.16-14.32v-29.89c-13.05,0-23.79.85-32.21,2.55-8.42,1.7-15.09,3.82-20,6.37-4.91,2.55-8.32,5.45-10.21,8.71-1.89,3.26-2.84,6.79-2.84,10.61,0,7.51,2.03,12.78,6.11,15.82,4.07,3.05,10.03,4.57,17.89,4.57ZM2700.47,422.43v-218.31h38.74c3.23,0,5.93.28,8.1.84,2.17.56,4,1.44,5.47,2.63,1.47,1.19,2.6,2.77,3.37,4.74.77,1.97,1.44,4.35,2,7.16l3.58,20.42c8-12.35,16.98-22.1,26.95-29.26,9.96-7.16,20.84-10.74,32.63-10.74,9.96,0,17.96,2.39,24,7.16l-8.42,48c-.56,2.95-1.68,5.02-3.37,6.21-1.68,1.19-3.93,1.79-6.74,1.79-2.39,0-5.19-.32-8.42-.95-3.23-.63-7.3-.95-12.21-.95-17.12,0-30.6,9.12-40.42,27.37v133.89h-65.26ZM2967.82,200.76c14.45,0,27.68,2.25,39.68,6.74,12,4.49,22.32,11.02,30.95,19.58,8.63,8.56,15.37,19.05,20.21,31.47,4.84,12.42,7.26,26.49,7.26,42.21,0,4.92-.21,8.91-.63,12-.42,3.09-1.19,5.55-2.32,7.37-1.12,1.83-2.63,3.09-4.53,3.79-1.89.7-4.32,1.05-7.26,1.05h-125.89c2.1,18.25,7.65,31.47,16.63,39.68,8.98,8.21,20.56,12.32,34.74,12.32,7.58,0,14.1-.91,19.58-2.74,5.47-1.82,10.35-3.86,14.63-6.11,4.28-2.24,8.21-4.28,11.79-6.1,3.58-1.82,7.33-2.74,11.26-2.74,5.19,0,9.12,1.9,11.79,5.68l18.95,23.37c-6.74,7.72-14,14-21.79,18.84s-15.79,8.63-24,11.37-16.42,4.63-24.63,5.68c-8.21,1.05-16.04,1.58-23.47,1.58-15.3,0-29.65-2.49-43.05-7.47-13.4-4.98-25.12-12.38-35.16-22.21-10.04-9.82-17.97-22.03-23.79-36.63-5.83-14.59-8.74-31.58-8.74-50.95,0-14.59,2.49-28.42,7.47-41.47,4.98-13.05,12.14-24.49,21.47-34.31,9.33-9.82,20.63-17.61,33.89-23.37,13.26-5.75,28.24-8.63,44.95-8.63ZM2969.08,245.81c-12.49,0-22.25,3.55-29.26,10.63-7.02,7.09-11.65,17.3-13.89,30.63h81.47c0-5.19-.67-10.24-2-15.16-1.34-4.91-3.51-9.3-6.53-13.16-3.02-3.86-6.98-6.98-11.89-9.37-4.91-2.38-10.88-3.58-17.89-3.58Z" fill="url(#j)" stroke-width="0"/>
  <g id="k" data-name="logo-icon">
    <path id="m" data-name="keyhole" d="M477.2,137.33c-26.7,0-48.4,21.7-48.4,48.5,0,19.3,11.4,35.9,27.7,43.7v60.3c0,11.5,9.3,20.8,20.8,20.8s20.8-9.3,20.8-20.8v-60.3c16.3-7.8,27.6-24.4,27.5-43.7,0-26.8-21.7-48.5-48.4-48.5ZM504.2,193.03h-18.7v18.7h-16.1v-18.7h-18.7v-16.1h18.7v-18.8h16.1v18.8h18.7v16.1Z" fill="url(#l)" stroke-width="0"/>
    <polygon id="n" data-name="cross" points="469.4 176.93 450.7 176.93 450.7 193.03 469.4 193.03 469.4 211.73 485.5 211.73 485.5 193.03 504.2 193.03 504.2 176.93 485.5 176.93 485.5 158.13 469.4 158.13 469.4 176.93" fill="#fff" stroke-width="0"/>
  </g>
  <g id="o" data-name="PV">
    <path d="M903.6,305.53v116.3h-70.9v-116.3l-110.8-189.5h62.5c6.2,0,11,1.4,14.7,4.3,3.6,2.9,6.6,6.5,8.8,11l43.2,89c3.5,7.1,6.7,13.7,9.6,19.7,3,6,5.6,11.9,7.8,17.9,2.1-6,4.6-12,7.6-18s6.1-12.5,9.4-19.5l42.8-89c.8-1.8,2-3.6,3.5-5.5,1.5-1.8,3.1-3.5,5-4.9s4.1-2.7,6.5-3.6c2.4-.9,5.1-1.3,8.1-1.3h62.9l-110.7,189.4h0Z" fill="#fff" stroke-width="0"/>
    <path d="M80,320.23v102.2H9V116.73h107.8c21.5,0,40,2.5,55.5,7.6,15.4,5.1,28.2,12.2,38.2,21.1,10,9,17.3,19.5,22.2,31.7,4.7,12.2,7.1,25.3,7.1,39.4,0,15.3-2.4,29.2-7.3,42-4.9,12.8-12.4,23.7-22.5,32.7-10.1,9.1-22.8,16.2-38.3,21.3s-33.7,7.6-54.9,7.6h-36.8v.1h0ZM80,266.83h36.9c18.5,0,31.7-4.4,39.9-13.2,8.1-8.8,12.2-21.1,12.2-36.9,0-7-1-13.3-3.1-19.1-2.1-5.7-5.3-10.7-9.6-14.8-4.3-4.2-9.6-7.3-16.2-9.6-6.6-2.3-14.2-3.3-23.2-3.3h-36.9v96.9h0Z" fill="#fff" stroke-width="0"/>
  </g>
</svg>