<?xml version="1.0" encoding="UTF-8"?>
<svg xmlns="http://www.w3.org/2000/svg" width="160mm" height="160mm" xmlns:xlink="http://www.w3.org/1999/xlink" viewBox="0 0 453.54 453.54">
  <defs>
    <linearGradient id="n" data-name="Unbenannter Verlauf 4" x1="137.71" y1="258.98" x2="308.82" y2="160.19" gradientUnits="userSpaceOnUse">
      <stop offset="0" stop-color="#ee7159"/>
      <stop offset=".25" stop-color="#e62e27"/>
    </linearGradient>
  </defs>
  <g id="g" data-name="color">
    <g id="i" data-name="shield">
      <path id="j" data-name="bg" d="M226.88,378.09s.02,0,.03,0c22.5-2.4,80-45.4,98.9-95.7,28.7-52.9,34.6-152.1,36.3-157.6s5.4-10,10-13.3c4.7-3.3,10.7-5,18.1-5h42.9s0,.03.01.04c-3.18-12.11-12.03-22.68-24.21-27.74L242.91,9.4c-4.2-1.8-11.53-3.2-16.03-3.2h-.16c-4.6,0-11.67,1.4-15.87,3.2L44.95,78.8c-12.25,5.06-21.11,15.61-24.3,27.7h.02s42.98,0,42.98,0c7.4,0,13.4,1.7,18.1,5,4.7,3.4,8.4,7.8,10,13.3,1.7,5.5,7.7,104.7,36.3,157.6,18.89,50.28,76.15,93.26,98.67,95.7h.16Z" fill="#0967ad" isolation="isolate" opacity=".4" stroke-width="0"/>
      <path id="k" data-name="bg-r" d="M325.65,282.4c28.7-52.9,34.6-152.1,36.3-157.6s5.4-10,10-13.3c4.7-3.3,10.7-5,18.1-5h42.9s0,.03.01.04c-3.18-12.11-12.03-22.68-24.21-27.74L242.75,9.4c-4.2-1.8-11.53-3.2-16.03-3.2v371.9s.02,0,.03,0c22.5-2.4,80-45.4,98.9-95.7Z" fill="#0967ad" isolation="isolate" opacity=".2" stroke-width="0"/>
      <path id="l" data-name="v-shape" d="M226.75,378.1c22.5-2.4,80-45.4,98.9-95.7,28.7-52.9,34.6-152.1,36.3-157.6,1.7-5.5,5.4-10,10-13.3,4.7-3.3,10.7-5,18.1-5h42.9c1.7,5.2,2.4,11.5,1.5,30.1h0c-2.1,42.9-9.5,96-44.4,166.4-43.8,81.8-98,119.6-124.8,133.9-13.4,7-28,13.1-38.5,13.1h0c-10.5,0-24.9-6.1-38.3-13.1-26.9-14.3-81.1-52.2-124.8-133.9C28.85,232.6,21.35,179.6,19.25,136.6c-.8-18.6-.1-24.9,1.5-30.1h42.9c7.4,0,13.4,1.7,18.1,5,4.7,3.4,8.4,7.8,10,13.3,1.7,5.5,7.7,104.7,36.3,157.6,18.9,50.3,76.2,93.3,98.7,95.7h0Z" fill="#0967ad" stroke-width="0"/>
    </g>
  </g>
  <g id="m" data-name="icon">
    <g>
      <path d="M226.72,201.47c11.16.22,20.23-8.81,20.23-20.01s-9.07-20.23-20.23-20.29c-11.16.06-20.23,9.1-20.23,20.29s9.07,20.23,20.23,20.01ZM234.27,211.9h-15.06c-12.65,0-22.92,10.62-22.92,23.68,0,3.71,2.95,6.75,6.59,6.75h47.65c3.68,0,6.63-3.04,6.63-6.75,0-13.06-10.27-23.68-22.89-23.68ZM305.28,211.9h-15.06c-12.65,0-22.92,10.62-22.92,23.68,0,3.71,2.95,6.75,6.59,6.75h47.65c3.68,0,6.63-3.04,6.63-6.75,0-13.06-10.27-23.68-22.89-23.68ZM297.74,201.47c11.16.22,20.23-8.81,20.23-20.01s-9.07-20.23-20.23-20.29c-11.16.06-20.23,9.1-20.23,20.29s9.07,20.23,20.23,20.01ZM155.7,201.47c11.16.22,20.23-8.81,20.23-20.01s-9.07-20.23-20.23-20.29c-11.17.06-20.22,9.1-20.22,20.29s9.06,20.23,20.22,20.01ZM163.25,211.9h-15.06c-12.64,0-22.92,10.62-22.92,23.68,0,3.71,2.96,6.75,6.6,6.75h47.65c3.67,0,6.62-3.04,6.62-6.75,0-13.06-10.27-23.68-22.89-23.68Z" fill="url(#n)" stroke-width="0"/>
      <path d="M155.7,100.3h142.03v50.73c7.81,0,14.9,3.05,20.29,7.93v-63.21c0-8.68-6.82-15.73-15.22-15.73h-152.18c-8.4,0-15.22,7.05-15.22,15.73v63.22c5.39-4.88,12.49-7.93,20.29-7.93v-50.74Z" fill="#fff" isolation="isolate" stroke-width="0"/>
    </g>
  </g>
</svg>