<?xml version="1.0" encoding="UTF-8"?>
<svg xmlns="http://www.w3.org/2000/svg" width="160mm" height="160mm" xmlns:xlink="http://www.w3.org/1999/xlink" viewBox="0 0 453.54 453.54">
  <defs>
    <linearGradient id="n" data-name="Unbenannter Verlauf 7" x1="133.8" y1="229.77" x2="319.63" y2="122.48" gradientUnits="userSpaceOnUse">
      <stop offset="0" stop-color="#ee7159"/>
      <stop offset=".62" stop-color="#e62e27"/>
    </linearGradient>
  </defs>
  <g id="d" data-name="white">
    <g id="f" data-name="shield">
      <path id="g" data-name="bg" d="M227.54,377.43s.02,0,.03,0c22.5-2.4,80-45.4,98.9-95.7,28.7-52.9,34.6-152.1,36.3-157.6s5.4-10,10-13.3c4.7-3.3,10.7-5,18.1-5h42.9s0,.03.01.04c-3.18-12.11-12.03-22.68-24.21-27.74L243.57,8.73c-4.2-1.8-11.53-3.2-16.03-3.2h-.16c-4.6,0-11.67,1.4-15.87,3.2L45.61,78.13c-12.25,5.06-21.11,15.61-24.3,27.7h.02s42.98,0,42.98,0c7.4,0,13.4,1.7,18.1,5,4.7,3.4,8.4,7.8,10,13.3,1.7,5.5,7.7,104.7,36.3,157.6,18.89,50.28,76.15,93.26,98.67,95.7h.16Z" fill="#fff" isolation="isolate" opacity=".4" stroke-width="0"/>
      <path id="h" data-name="bg-r" d="M326.31,281.73c28.7-52.9,34.6-152.1,36.3-157.6s5.4-10,10-13.3c4.7-3.3,10.7-5,18.1-5h42.9s0,.03.01.04c-3.18-12.11-12.03-22.68-24.21-27.74L243.41,8.73c-4.2-1.8-11.53-3.2-16.03-3.2v371.9s.02,0,.03,0c22.5-2.4,80-45.4,98.9-95.7Z" fill="#fff" isolation="isolate" opacity=".2" stroke-width="0"/>
      <path id="i" data-name="v-shape" d="M227.41,377.43c22.5-2.4,80-45.4,98.9-95.7,28.7-52.9,34.6-152.1,36.3-157.6,1.7-5.5,5.4-10,10-13.3,4.7-3.3,10.7-5,18.1-5h42.9c1.7,5.2,2.4,11.5,1.5,30.1h0c-2.1,42.9-9.5,96-44.4,166.4-43.8,81.8-98,119.6-124.8,133.9-13.4,7-28,13.1-38.5,13.1h0c-10.5,0-24.9-6.1-38.3-13.1-26.9-14.3-81.1-52.2-124.8-133.9C29.51,231.93,22.01,178.93,19.91,135.93c-.8-18.6-.1-24.9,1.5-30.1h42.9c7.4,0,13.4,1.7,18.1,5,4.7,3.4,8.4,7.8,10,13.3,1.7,5.5,7.7,104.7,36.3,157.6,18.9,50.3,76.2,93.3,98.7,95.7h0Z" fill="#fff" stroke-width="0"/>
    </g>
  </g>
  <g id="m" data-name="icon">
    <g>
      <path d="M187.22,125.68c.26.22.49.49.71.75,5.36-2.74,11.39-4.27,17.47-4.27h42.31c6.41,0,12.44,1.54,17.8,4.27.22-.26.45-.52.71-.75l23.99-23.99c4.68-4.69,12.26-4.69,16.94,0,4.68,4.68,4.68,12.26,0,16.94l-23.99,23.99c-.56.26-.49.49-.75.71,2.29,4.5,3.75,9.52,4.16,14.8h24.1c6.63,0,11.99,5.36,11.99,11.99s-5.36,11.99-11.99,11.99h-23.99c0,9.22-2.06,17.92-5.77,25.71.79.49,1.57,1.09,2.25,1.8l23.99,23.99c4.68,4.68,4.68,12.26,0,16.94-4.68,4.68-12.26,4.68-16.94,0l-23.65-23.61c-9.18,8.17-20.91,13.57-33.84,14.84v-89.65c0-3.3-2.7-6-6.33-6-2.96,0-6,2.7-6,6v89.65c-12.59-1.27-24.32-6.67-33.51-14.84l-23.64,23.61c-4.68,4.68-12.28,4.68-16.96,0-4.68-4.68-4.68-12.26,0-16.94l24-23.99c.67-.71,1.46-1.31,2.25-1.8-3.71-7.8-5.77-16.49-5.77-25.71h-23.99c-6.62,0-11.99-5.36-11.99-11.99s5.37-11.99,11.99-11.99h24.1c.4-5.28,1.87-10.31,4.16-14.8-.26-.22-.52-.45-.75-.71l-24-23.99c-4.68-4.68-4.68-12.26,0-16.94,4.68-4.69,12.28-4.69,16.96,0l23.98,23.99Z" fill="url(#n)" stroke-width="0"/>
      <path d="M262.7,98.17v1.33c0,5.9-4.76,10.66-10.64,10.66h-50.67c-5.88,0-10.64-4.76-10.64-10.66v-1.33c0-19.87,15.78-35.98,35.98-35.98s35.98,16.11,35.98,35.98ZM220.73,241.79v-89.65c0-3.3,2.7-6,6-6s6,2.7,6,6v89.65c-1.99.19-3.97.3-6,.3s-4.01-.11-6-.3Z" fill="#fff" isolation="isolate" stroke-width="0"/>
    </g>
  </g>
</svg>