<?xml version="1.0" encoding="UTF-8"?>
<svg xmlns="http://www.w3.org/2000/svg" width="160mm" height="160mm" xmlns:xlink="http://www.w3.org/1999/xlink" viewBox="0 0 453.54 453.54">
  <defs>
    <linearGradient id="n" data-name="Unbenannter Verlauf 2" x1="145.45" y1="175.55" x2="307.99" y2="175.55" gradientUnits="userSpaceOnUse">
      <stop offset="0" stop-color="#ee7159"/>
      <stop offset=".84" stop-color="#e62e27"/>
    </linearGradient>
  </defs>
  <g id="d" data-name="white">
    <g id="f" data-name="shield">
      <path id="g" data-name="bg" d="M227.54,377.43s.02,0,.03,0c22.5-2.4,80-45.4,98.9-95.7,28.7-52.9,34.6-152.1,36.3-157.6s5.4-10,10-13.3c4.7-3.3,10.7-5,18.1-5h42.9s0,.03.01.04c-3.18-12.11-12.03-22.68-24.21-27.74L243.57,8.73c-4.2-1.8-11.53-3.2-16.03-3.2h-.16c-4.6,0-11.67,1.4-15.87,3.2L45.61,78.13c-12.25,5.06-21.11,15.61-24.3,27.7h.02s42.98,0,42.98,0c7.4,0,13.4,1.7,18.1,5,4.7,3.4,8.4,7.8,10,13.3,1.7,5.5,7.7,104.7,36.3,157.6,18.89,50.28,76.15,93.26,98.67,95.7h.16Z" fill="#fff" isolation="isolate" opacity=".4" stroke-width="0"/>
      <path id="h" data-name="bg-r" d="M326.31,281.73c28.7-52.9,34.6-152.1,36.3-157.6s5.4-10,10-13.3c4.7-3.3,10.7-5,18.1-5h42.9s0,.03.01.04c-3.18-12.11-12.03-22.68-24.21-27.74L243.41,8.73c-4.2-1.8-11.53-3.2-16.03-3.2v371.9s.02,0,.03,0c22.5-2.4,80-45.4,98.9-95.7Z" fill="#fff" isolation="isolate" opacity=".2" stroke-width="0"/>
      <path id="i" data-name="v-shape" d="M227.41,377.43c22.5-2.4,80-45.4,98.9-95.7,28.7-52.9,34.6-152.1,36.3-157.6,1.7-5.5,5.4-10,10-13.3,4.7-3.3,10.7-5,18.1-5h42.9c1.7,5.2,2.4,11.5,1.5,30.1h0c-2.1,42.9-9.5,96-44.4,166.4-43.8,81.8-98,119.6-124.8,133.9-13.4,7-28,13.1-38.5,13.1h0c-10.5,0-24.9-6.1-38.3-13.1-26.9-14.3-81.1-52.2-124.8-133.9C29.51,231.93,22.01,178.93,19.91,135.93c-.8-18.6-.1-24.9,1.5-30.1h42.9c7.4,0,13.4,1.7,18.1,5,4.7,3.4,8.4,7.8,10,13.3,1.7,5.5,7.7,104.7,36.3,157.6,18.9,50.3,76.2,93.3,98.7,95.7h0Z" fill="#fff" stroke-width="0"/>
    </g>
  </g>
  <g id="m" data-name="icon">
    <g>
      <path d="M278.97,100.08h-104.49c-16.04,0-29.03,12.99-29.03,29.03v98.69c0,12.84,10.38,23.22,23.22,23.22h116.1c12.84,0,23.22-10.38,23.22-23.22v-98.69c0-16.04-12.95-29.03-29.03-29.03ZM203.5,216.18h-23.22v-11.61h23.22v11.61ZM191.89,172.65c-8.02,0-14.51-6.49-14.51-14.51s6.49-14.51,14.51-14.51,14.51,6.49,14.51,14.51-6.49,14.51-14.51,14.51ZM238.33,216.18h-23.22v-11.61h23.22v11.61ZM273.16,216.18h-23.22v-11.61h23.22v11.61ZM261.55,172.65c-8.03,0-14.51-6.49-14.51-14.51s6.49-14.51,14.51-14.51,14.51,6.49,14.51,14.51-6.49,14.51-14.51,14.51Z" fill="url(#n)" stroke-width="0"/>
      <path d="M125.63,149.93c-2.18,2.18-3.4,5.12-3.4,8.2v46.44c0,3.08,1.22,6.03,3.4,8.21s5.12,3.4,8.21,3.4h11.61v-69.66h-11.61c-3.08,0-6.03,1.23-8.21,3.41ZM327.8,149.93c-2.18-2.18-5.12-3.41-8.2-3.41h-11.61v69.66h11.61c3.08,0,6.03-1.22,8.21-3.4s3.4-5.12,3.4-8.21v-46.44c0-3.08-1.23-6.02-3.41-8.2ZM226.72,65.25c-6.39,0-11.61,5.22-11.61,11.61v23.22h23.22v-23.22c0-6.39-5.22-11.61-11.61-11.61ZM180.28,216.18h23.22v-11.61h-23.22v11.61ZM215.11,216.18h23.22v-11.61h-23.22v11.61ZM249.94,216.18h23.22v-11.61h-23.22v11.61Z" fill="#fff" isolation="isolate" stroke-width="0"/>
    </g>
  </g>
</svg>