<?xml version="1.0" encoding="UTF-8"?>
<svg xmlns="http://www.w3.org/2000/svg" width="160mm" height="160mm" xmlns:xlink="http://www.w3.org/1999/xlink" viewBox="0 0 453.54 453.54">
  <defs>
    <linearGradient id="n" data-name="Unbenannter Verlauf 6" x1="125.98" y1="234.88" x2="297.24" y2="136" gradientUnits="userSpaceOnUse">
      <stop offset="0" stop-color="#ee7159"/>
      <stop offset=".3" stop-color="#e62e27"/>
    </linearGradient>
  </defs>
  <g id="d" data-name="white">
    <g id="f" data-name="shield">
      <path id="g" data-name="bg" d="M227.54,377.43s.02,0,.03,0c22.5-2.4,80-45.4,98.9-95.7,28.7-52.9,34.6-152.1,36.3-157.6s5.4-10,10-13.3c4.7-3.3,10.7-5,18.1-5h42.9s0,.03.01.04c-3.18-12.11-12.03-22.68-24.21-27.74L243.57,8.73c-4.2-1.8-11.53-3.2-16.03-3.2h-.16c-4.6,0-11.67,1.4-15.87,3.2L45.61,78.13c-12.25,5.06-21.11,15.61-24.3,27.7h.02s42.98,0,42.98,0c7.4,0,13.4,1.7,18.1,5,4.7,3.4,8.4,7.8,10,13.3,1.7,5.5,7.7,104.7,36.3,157.6,18.89,50.28,76.15,93.26,98.67,95.7h.16Z" fill="#fff" isolation="isolate" opacity=".4" stroke-width="0"/>
      <path id="h" data-name="bg-r" d="M326.31,281.73c28.7-52.9,34.6-152.1,36.3-157.6s5.4-10,10-13.3c4.7-3.3,10.7-5,18.1-5h42.9s0,.03.01.04c-3.18-12.11-12.03-22.68-24.21-27.74L243.41,8.73c-4.2-1.8-11.53-3.2-16.03-3.2v371.9s.02,0,.03,0c22.5-2.4,80-45.4,98.9-95.7Z" fill="#fff" isolation="isolate" opacity=".2" stroke-width="0"/>
      <path id="i" data-name="v-shape" d="M227.41,377.43c22.5-2.4,80-45.4,98.9-95.7,28.7-52.9,34.6-152.1,36.3-157.6,1.7-5.5,5.4-10,10-13.3,4.7-3.3,10.7-5,18.1-5h42.9c1.7,5.2,2.4,11.5,1.5,30.1h0c-2.1,42.9-9.5,96-44.4,166.4-43.8,81.8-98,119.6-124.8,133.9-13.4,7-28,13.1-38.5,13.1h0c-10.5,0-24.9-6.1-38.3-13.1-26.9-14.3-81.1-52.2-124.8-133.9C29.51,231.93,22.01,178.93,19.91,135.93c-.8-18.6-.1-24.9,1.5-30.1h42.9c7.4,0,13.4,1.7,18.1,5,4.7,3.4,8.4,7.8,10,13.3,1.7,5.5,7.7,104.7,36.3,157.6,18.9,50.3,76.2,93.3,98.7,95.7h0Z" fill="#fff" stroke-width="0"/>
    </g>
  </g>
  <g id="m" data-name="icon">
    <g>
      <path d="M182.72,224.3c-3.35,0-6.69-1.02-9.54-3.05l-45.39-34.18v48.02c0,6.05,4.94,10.99,10.99,10.99h87.94c6.05,0,10.99-4.94,10.99-10.99v-48.02l-45.28,34.11c-2.92,2.1-6.32,3.13-9.72,3.13ZM226.72,158.13h-87.94c-6.05,0-10.99,4.95-10.99,10.99v4.18l51.87,39.09c1.8,1.28,4.36,1.28,6.28-.09l51.78-39v-4.19c0-6.05-4.95-10.99-10.99-10.99ZM281.69,147.14v21.99h21.99v-21.99h-21.99Z" fill="url(#n)" stroke-width="0"/>
      <path d="M182.75,136.15c0-12.11,9.88-21.99,21.99-21.99h76.95v-32.98c0-6.05-4.94-10.99-10.99-10.99h-109.93c-6.05,0-10.99,4.94-10.99,10.99v65.96h32.98v-10.99ZM314.66,125.16h-109.93c-6.05,0-10.99,4.95-10.99,10.99v10.99h32.98c11.42,0,20.83,8.72,21.9,19.88l.09,46.07h65.96c6.05,0,10.99-4.94,10.99-10.99v-65.96c0-6.05-4.95-10.99-10.99-10.99ZM303.67,169.13h-21.99v-21.99h21.99v21.99ZM179.66,212.38l-51.87-39.06v13.76l45.38,34.18c2.85,2.03,6.19,3.05,9.54,3.05s6.79-1.04,9.73-3.14l45.27-34.12v-13.74l-51.77,38.99c-1.92,1.37-4.47,1.37-6.29.07Z" fill="#fff" isolation="isolate" stroke-width="0"/>
    </g>
  </g>
</svg>