<?xml version="1.0" encoding="UTF-8"?>
<svg id="g" data-name="color" xmlns="http://www.w3.org/2000/svg" width="746mm" height="180mm" xmlns:xlink="http://www.w3.org/1999/xlink" viewBox="0 0 2114.65 510.24">
  <defs>
    <linearGradient id="h" data-name="font-red" x1="1100.87" y1="539.59" x2="1988.28" y2="27.25" gradientUnits="userSpaceOnUse">
      <stop offset="0" stop-color="#ee7159"/>
      <stop offset=".3" stop-color="#e62e27"/>
    </linearGradient>
    <linearGradient id="n" data-name="keyhole" x1="419.01" y1="189.28" x2="524.08" y2="249.94" gradientUnits="userSpaceOnUse">
      <stop offset="0" stop-color="#ee7159"/>
      <stop offset=".85" stop-color="#e62e27"/>
    </linearGradient>
  </defs>
  <path d="M1033.61,423.1v-173.47l-14.32-2.95c-4.91-1.12-8.88-2.88-11.89-5.26-3.02-2.38-4.53-5.89-4.53-10.53v-25.68h30.74v-12.42c0-12.49,2-23.79,6-33.89s9.75-18.74,17.26-25.89c7.51-7.16,16.66-12.7,27.47-16.63,10.81-3.93,23.08-5.89,36.84-5.89,5.33,0,10.28.32,14.84.95,4.56.63,9.3,1.65,14.21,3.05l-1.26,31.79c-.14,2.25-.74,4.1-1.79,5.58-1.05,1.47-2.35,2.67-3.89,3.58-1.55.91-3.26,1.58-5.16,2s-3.76.63-5.58.63c-5.76,0-10.88.56-15.37,1.68-4.49,1.12-8.25,3.12-11.26,6-3.02,2.88-5.3,6.67-6.84,11.37-1.55,4.7-2.32,10.63-2.32,17.79v10.32h51.37v44.63h-49.26v173.26h-65.26ZM1273.6,201.42c16.56,0,31.65,2.6,45.26,7.79,13.61,5.19,25.29,12.63,35.05,22.31,9.75,9.68,17.33,21.44,22.74,35.26,5.4,13.83,8.1,29.37,8.1,46.63s-2.7,33.09-8.1,47.05c-5.4,13.97-12.98,25.83-22.74,35.58-9.76,9.76-21.44,17.26-35.05,22.53-13.61,5.26-28.7,7.89-45.26,7.89s-31.89-2.63-45.58-7.89c-13.68-5.26-25.47-12.77-35.37-22.53-9.89-9.75-17.54-21.61-22.95-35.58-5.4-13.96-8.1-29.65-8.1-47.05s2.7-32.8,8.1-46.63c5.4-13.82,13.05-25.58,22.95-35.26,9.89-9.68,21.68-17.12,35.37-22.31,13.68-5.19,28.87-7.79,45.58-7.79ZM1273.6,378.04c15.02,0,26.07-5.3,33.16-15.89,7.08-10.59,10.63-26.7,10.63-48.31s-3.55-37.68-10.63-48.21c-7.09-10.53-18.14-15.79-33.16-15.79s-26.74,5.26-33.89,15.79c-7.16,10.53-10.74,26.6-10.74,48.21s3.58,37.72,10.74,48.31c7.16,10.6,18.45,15.89,33.89,15.89ZM1420.53,423.1v-218.31h38.74c3.23,0,5.93.28,8.1.84,2.17.56,4,1.44,5.47,2.63,1.47,1.19,2.6,2.77,3.37,4.74.77,1.97,1.44,4.35,2,7.16l3.58,20.42c8-12.35,16.98-22.1,26.95-29.26,9.96-7.16,20.84-10.74,32.63-10.74,9.96,0,17.96,2.39,24,7.16l-8.42,48c-.56,2.95-1.68,5.02-3.37,6.21-1.68,1.19-3.93,1.79-6.74,1.79-2.39,0-5.19-.32-8.42-.95-3.23-.63-7.3-.95-12.21-.95-17.12,0-30.6,9.12-40.42,27.37v133.89h-65.26ZM1594.42,423.1v-218.31h40.42c4.07,0,7.47.91,10.21,2.74,2.74,1.83,4.67,4.56,5.79,8.21l3.58,11.79c3.65-3.79,7.44-7.26,11.37-10.42,3.93-3.16,8.17-5.89,12.74-8.21,4.56-2.32,9.47-4.14,14.74-5.47,5.26-1.33,11.05-2,17.37-2,13.19,0,24.1,3.4,32.74,10.21,8.63,6.81,15.19,15.89,19.68,27.26,3.65-6.74,8.1-12.49,13.37-17.26,5.26-4.77,10.95-8.63,17.05-11.58,6.11-2.95,12.56-5.12,19.37-6.53,6.8-1.4,13.58-2.1,20.31-2.1,12.49,0,23.58,1.86,33.26,5.58,9.68,3.72,17.79,9.12,24.31,16.21,6.53,7.09,11.47,15.79,14.84,26.1,3.37,10.32,5.05,22,5.05,35.05v138.73h-65.26v-138.73c0-22.59-9.68-33.89-29.05-33.89-8.84,0-16.18,2.91-22,8.74-5.83,5.83-8.74,14.21-8.74,25.16v138.73h-65.26v-138.73c0-12.49-2.46-21.26-7.37-26.31-4.91-5.05-12.14-7.58-21.68-7.58-5.89,0-11.47,1.33-16.74,4-5.26,2.67-10.21,6.25-14.84,10.74v157.89h-65.26ZM2090.39,252.58c-1.68,2.67-3.47,4.56-5.37,5.68-1.89,1.12-4.32,1.68-7.26,1.68s-6.18-.66-9.26-2c-3.09-1.33-6.42-2.77-10-4.32-3.58-1.54-7.61-2.98-12.1-4.32-4.49-1.33-9.62-2-15.37-2-8.28,0-14.63,1.58-19.05,4.74-4.42,3.16-6.63,7.54-6.63,13.16,0,4.07,1.44,7.44,4.32,10.1,2.88,2.67,6.7,5.02,11.47,7.05,4.77,2.04,10.17,3.97,16.21,5.79,6.03,1.83,12.21,3.86,18.53,6.1,6.32,2.25,12.49,4.88,18.53,7.89,6.03,3.02,11.44,6.74,16.21,11.16,4.77,4.42,8.59,9.79,11.47,16.1,2.88,6.32,4.32,13.89,4.32,22.74,0,10.81-1.97,20.77-5.89,29.89-3.93,9.12-9.79,16.98-17.58,23.58-7.79,6.6-17.4,11.72-28.84,15.37-11.44,3.65-24.6,5.47-39.47,5.47-7.44,0-14.88-.7-22.31-2.11-7.44-1.4-14.63-3.3-21.58-5.68-6.95-2.38-13.37-5.23-19.26-8.53-5.89-3.3-10.95-6.84-15.16-10.63l15.16-24c1.82-2.81,4-5.02,6.53-6.63,2.53-1.61,5.82-2.42,9.89-2.42,3.79,0,7.19.84,10.21,2.53,3.02,1.68,6.28,3.51,9.79,5.47,3.51,1.97,7.61,3.79,12.32,5.47,4.7,1.68,10.63,2.53,17.79,2.53,5.05,0,9.33-.53,12.84-1.58,3.51-1.05,6.32-2.49,8.42-4.32,2.1-1.82,3.65-3.86,4.63-6.1.98-2.24,1.47-4.56,1.47-6.95,0-4.35-1.47-7.93-4.42-10.74-2.95-2.81-6.81-5.23-11.58-7.26-4.77-2.03-10.21-3.93-16.32-5.68-6.1-1.75-12.32-3.75-18.63-6-6.32-2.24-12.53-4.95-18.63-8.1-6.11-3.16-11.55-7.16-16.32-12-4.77-4.84-8.63-10.77-11.58-17.79-2.95-7.02-4.42-15.51-4.42-25.47,0-9.26,1.79-18.07,5.37-26.42,3.58-8.35,8.95-15.68,16.1-22,7.16-6.32,16.14-11.33,26.95-15.05,10.8-3.72,23.44-5.58,37.89-5.58,7.86,0,15.47.7,22.84,2.1,7.37,1.4,14.28,3.37,20.74,5.89,6.45,2.53,12.35,5.51,17.68,8.95,5.33,3.44,10.03,7.19,14.1,11.26l-14.74,22.95Z" fill="url(#h)" stroke-width="0"/>
  <g id="i" data-name="logo-shield">
    <path id="j" data-name="bg" d="M476.78,378.09s.02,0,.03,0c22.5-2.4,80-45.4,98.9-95.7,28.7-52.9,34.6-152.1,36.3-157.6s5.4-10,10-13.3c4.7-3.3,10.7-5,18.1-5h42.9s0,.03.01.04c-3.18-12.11-12.03-22.68-24.21-27.74L492.81,9.4c-4.2-1.8-11.53-3.2-16.03-3.2h-.16c-4.6,0-11.67,1.4-15.87,3.2l-165.9,69.4c-12.25,5.06-21.11,15.61-24.3,27.7h.02s42.98,0,42.98,0c7.4,0,13.4,1.7,18.1,5,4.7,3.4,8.4,7.8,10,13.3,1.7,5.5,7.7,104.7,36.3,157.6,18.89,50.28,76.15,93.26,98.67,95.7h.16Z" fill="#0967ad" isolation="isolate" opacity=".4" stroke-width="0"/>
    <path id="k" data-name="bg-r" d="M575.55,282.4c28.7-52.9,34.6-152.1,36.3-157.6s5.4-10,10-13.3c4.7-3.3,10.7-5,18.1-5h42.9s0,.03.01.04c-3.18-12.11-12.03-22.68-24.21-27.74L492.65,9.4c-4.2-1.8-11.53-3.2-16.03-3.2v371.9s.02,0,.03,0c22.5-2.4,80-45.4,98.9-95.7Z" fill="#0967ad" isolation="isolate" opacity=".2" stroke-width="0"/>
    <path id="l" data-name="v-shape" d="M476.65,378.1c22.5-2.4,80-45.4,98.9-95.7,28.7-52.9,34.6-152.1,36.3-157.6,1.7-5.5,5.4-10,10-13.3,4.7-3.3,10.7-5,18.1-5h42.9c1.7,5.2,2.4,11.5,1.5,30.1h0c-2.1,42.9-9.5,96-44.4,166.4-43.8,81.8-98,119.6-124.8,133.9-13.4,7-28,13.1-38.5,13.1h0c-10.5,0-24.9-6.1-38.3-13.1-26.9-14.3-81.1-52.2-124.8-133.9-34.8-70.4-42.3-123.4-44.4-166.4-.8-18.6-.1-24.9,1.5-30.1h42.9c7.4,0,13.4,1.7,18.1,5,4.7,3.4,8.4,7.8,10,13.3,1.7,5.5,7.7,104.7,36.3,157.6,18.9,50.3,76.2,93.3,98.7,95.7h0Z" fill="#0967ad" stroke-width="0"/>
  </g>
  <g id="m" data-name="logo-icon">
    <path id="o" data-name="keyhole" d="M476.53,138c-26.7,0-48.4,21.7-48.4,48.5,0,19.3,11.4,35.9,27.7,43.7v60.3c0,11.5,9.3,20.8,20.8,20.8s20.8-9.3,20.8-20.8v-60.3c16.3-7.8,27.6-24.4,27.5-43.7,0-26.8-21.7-48.5-48.4-48.5ZM503.53,193.7h-18.7v18.7h-16.1v-18.7h-18.7v-16.1h18.7v-18.8h16.1v18.8h18.7v16.1Z" fill="url(#n)" stroke-width="0"/>
    <polygon id="p" data-name="cross" points="468.73 177.6 450.03 177.6 450.03 193.7 468.73 193.7 468.73 212.4 484.83 212.4 484.83 193.7 503.53 193.7 503.53 177.6 484.83 177.6 484.83 158.8 468.73 158.8 468.73 177.6" fill="#fff" stroke-width="0"/>
  </g>
  <g id="q" data-name="PV">
    <path d="M902.93,306.2v116.3h-70.9v-116.3l-110.8-189.5h62.5c6.2,0,11,1.4,14.7,4.3,3.6,2.9,6.6,6.5,8.8,11l43.2,89c3.5,7.1,6.7,13.7,9.6,19.7,3,6,5.6,11.9,7.8,17.9,2.1-6,4.6-12,7.6-18s6.1-12.5,9.4-19.5l42.8-89c.8-1.8,2-3.6,3.5-5.5,1.5-1.8,3.1-3.5,5-4.9,1.9-1.4,4.1-2.7,6.5-3.6,2.4-.9,5.1-1.3,8.1-1.3h62.9l-110.7,189.4h0Z" fill="#0967ad" stroke-width="0"/>
    <path d="M79.33,320.9v102.2H8.33V117.4h107.8c21.5,0,40,2.5,55.5,7.6,15.4,5.1,28.2,12.2,38.2,21.1,10,9,17.3,19.5,22.2,31.7,4.7,12.2,7.1,25.3,7.1,39.4,0,15.3-2.4,29.2-7.3,42-4.9,12.8-12.4,23.7-22.5,32.7-10.1,9.1-22.8,16.2-38.3,21.3s-33.7,7.6-54.9,7.6h-36.8v.1h0ZM79.33,267.5h36.9c18.5,0,31.7-4.4,39.9-13.2,8.1-8.8,12.2-21.1,12.2-36.9,0-7-1-13.3-3.1-19.1-2.1-5.7-5.3-10.7-9.6-14.8-4.3-4.2-9.6-7.3-16.2-9.6-6.6-2.3-14.2-3.3-23.2-3.3h-36.9v96.9h0Z" fill="#0967ad" stroke-width="0"/>
  </g>
</svg>