<?xml version="1.0" encoding="UTF-8"?>
<svg xmlns="http://www.w3.org/2000/svg" width="160mm" height="160mm" xmlns:xlink="http://www.w3.org/1999/xlink" viewBox="0 0 453.54 453.54">
  <defs>
    <linearGradient id="n" data-name="Unbenannter Verlauf 8" x1="130.17" y1="214.61" x2="339.06" y2="94.01" gradientUnits="userSpaceOnUse">
      <stop offset="0" stop-color="#ee7159"/>
      <stop offset=".37" stop-color="#e62e27"/>
    </linearGradient>
  </defs>
  <g id="g" data-name="color">
    <g id="i" data-name="shield">
      <path id="j" data-name="bg" d="M226.88,378.09s.02,0,.03,0c22.5-2.4,80-45.4,98.9-95.7,28.7-52.9,34.6-152.1,36.3-157.6s5.4-10,10-13.3c4.7-3.3,10.7-5,18.1-5h42.9s0,.03.01.04c-3.18-12.11-12.03-22.68-24.21-27.74L242.91,9.4c-4.2-1.8-11.53-3.2-16.03-3.2h-.16c-4.6,0-11.67,1.4-15.87,3.2L44.95,78.8c-12.25,5.06-21.11,15.61-24.3,27.7h.02s42.98,0,42.98,0c7.4,0,13.4,1.7,18.1,5,4.7,3.4,8.4,7.8,10,13.3,1.7,5.5,7.7,104.7,36.3,157.6,18.89,50.28,76.15,93.26,98.67,95.7h.16Z" fill="#0967ad" isolation="isolate" opacity=".4" stroke-width="0"/>
      <path id="k" data-name="bg-r" d="M325.65,282.4c28.7-52.9,34.6-152.1,36.3-157.6s5.4-10,10-13.3c4.7-3.3,10.7-5,18.1-5h42.9s0,.03.01.04c-3.18-12.11-12.03-22.68-24.21-27.74L242.75,9.4c-4.2-1.8-11.53-3.2-16.03-3.2v371.9s.02,0,.03,0c22.5-2.4,80-45.4,98.9-95.7Z" fill="#0967ad" isolation="isolate" opacity=".2" stroke-width="0"/>
      <path id="l" data-name="v-shape" d="M226.75,378.1c22.5-2.4,80-45.4,98.9-95.7,28.7-52.9,34.6-152.1,36.3-157.6,1.7-5.5,5.4-10,10-13.3,4.7-3.3,10.7-5,18.1-5h42.9c1.7,5.2,2.4,11.5,1.5,30.1h0c-2.1,42.9-9.5,96-44.4,166.4-43.8,81.8-98,119.6-124.8,133.9-13.4,7-28,13.1-38.5,13.1h0c-10.5,0-24.9-6.1-38.3-13.1-26.9-14.3-81.1-52.2-124.8-133.9C28.85,232.6,21.35,179.6,19.25,136.6c-.8-18.6-.1-24.9,1.5-30.1h42.9c7.4,0,13.4,1.7,18.1,5,4.7,3.4,8.4,7.8,10,13.3,1.7,5.5,7.7,104.7,36.3,157.6,18.9,50.3,76.2,93.3,98.7,95.7h0Z" fill="#0967ad" stroke-width="0"/>
    </g>
  </g>
  <g id="m" data-name="icon">
    <g>
      <path d="M134.52,247.68l-.02-62.6,78.99-69.11,79.03,69.15.14,62.52c.04,12.48-10.09,22.6-22.57,22.6h-112.99c-12.47,0-22.57-10.09-22.58-22.57h0ZM217.48,240.87l32.69-32.69c7.79-7.79,7.79-20.42,0-28.21s-20.42-7.79-28.21,0l-8.46,8.46-8.46-8.46c-7.79-7.79-20.42-7.79-28.21,0-7.79,7.79-7.79,20.42,0,28.21l32.69,32.69c2.19,2.19,5.78,2.19,7.97,0h0Z" fill="#fff" isolation="isolate" stroke-width="0"/>
      <path d="M311.21,171.47c4.69,4.13,5.15,11.25,1.06,15.94-4.13,4.69-11.25,5.15-15.94,1.06l-82.84-72.5-82.85,72.5c-4.69,4.09-11.82,3.63-15.92-1.06-4.1-4.69-3.63-11.81,1.06-15.94l90.27-78.99c3.95-3.72,10.61-3.72,14.88,0l90.28,78.99ZM209.51,240.87l-32.69-32.69c-7.79-7.79-7.79-20.42,0-28.21,7.79-7.79,20.42-7.79,28.21,0l8.46,8.46,8.46-8.46c7.79-7.79,20.42-7.79,28.21,0s7.79,20.42,0,28.21l-32.69,32.69c-2.19,2.19-5.78,2.19-7.97,0h0ZM279.62,63.41c0-3.23,2.61-5.83,5.83-5.83,31.14,0,56.4,25.26,56.4,56.4,0,3.23-2.6,5.83-5.83,5.83s-5.83-2.6-5.83-5.83c0-24.7-20.03-44.73-44.73-44.73-3.22,0-5.83-2.6-5.83-5.83ZM295.18,112.03c0,4.3-3.48,7.78-7.78,7.78s-7.78-3.48-7.78-7.78,3.48-7.78,7.78-7.78,7.78,3.48,7.78,7.78ZM318.51,113.97c0,3.23-2.6,5.83-5.83,5.83s-5.83-2.6-5.83-5.83c0-11.81-9.58-21.39-21.39-21.39-3.22,0-5.83-2.6-5.83-5.83s2.61-5.83,5.83-5.83c18.26,0,33.06,14.8,33.06,33.06Z" fill="url(#n)" stroke-width="0"/>
    </g>
  </g>
</svg>