<?xml version="1.0" encoding="UTF-8"?>
<svg xmlns="http://www.w3.org/2000/svg" width="160mm" height="160mm" xmlns:xlink="http://www.w3.org/1999/xlink" viewBox="0 0 453.54 453.54">
  <defs>
    <linearGradient id="n" data-name="Unbenannter Verlauf 2" x1="128.68" y1="218.62" x2="317.22" y2="109.77" gradientUnits="userSpaceOnUse">
      <stop offset="0" stop-color="#ee7159"/>
      <stop offset=".84" stop-color="#e62e27"/>
    </linearGradient>
  </defs>
  <g id="d" data-name="white">
    <g id="f" data-name="shield">
      <path id="g" data-name="bg" d="M227.54,377.43s.02,0,.03,0c22.5-2.4,80-45.4,98.9-95.7,28.7-52.9,34.6-152.1,36.3-157.6s5.4-10,10-13.3c4.7-3.3,10.7-5,18.1-5h42.9s0,.03.01.04c-3.18-12.11-12.03-22.68-24.21-27.74L243.57,8.73c-4.2-1.8-11.53-3.2-16.03-3.2h-.16c-4.6,0-11.67,1.4-15.87,3.2L45.61,78.13c-12.25,5.06-21.11,15.61-24.3,27.7h.02s42.98,0,42.98,0c7.4,0,13.4,1.7,18.1,5,4.7,3.4,8.4,7.8,10,13.3,1.7,5.5,7.7,104.7,36.3,157.6,18.89,50.28,76.15,93.26,98.67,95.7h.16Z" fill="#fff" isolation="isolate" opacity=".4" stroke-width="0"/>
      <path id="h" data-name="bg-r" d="M326.31,281.73c28.7-52.9,34.6-152.1,36.3-157.6s5.4-10,10-13.3c4.7-3.3,10.7-5,18.1-5h42.9s0,.03.01.04c-3.18-12.11-12.03-22.68-24.21-27.74L243.41,8.73c-4.2-1.8-11.53-3.2-16.03-3.2v371.9s.02,0,.03,0c22.5-2.4,80-45.4,98.9-95.7Z" fill="#fff" isolation="isolate" opacity=".2" stroke-width="0"/>
      <path id="i" data-name="v-shape" d="M227.41,377.43c22.5-2.4,80-45.4,98.9-95.7,28.7-52.9,34.6-152.1,36.3-157.6,1.7-5.5,5.4-10,10-13.3,4.7-3.3,10.7-5,18.1-5h42.9c1.7,5.2,2.4,11.5,1.5,30.1h0c-2.1,42.9-9.5,96-44.4,166.4-43.8,81.8-98,119.6-124.8,133.9-13.4,7-28,13.1-38.5,13.1h0c-10.5,0-24.9-6.1-38.3-13.1-26.9-14.3-81.1-52.2-124.8-133.9C29.51,231.93,22.01,178.93,19.91,135.93c-.8-18.6-.1-24.9,1.5-30.1h42.9c7.4,0,13.4,1.7,18.1,5,4.7,3.4,8.4,7.8,10,13.3,1.7,5.5,7.7,104.7,36.3,157.6,18.9,50.3,76.2,93.3,98.7,95.7h0Z" fill="#fff" stroke-width="0"/>
    </g>
  </g>
  <g id="m" data-name="icon">
    <path d="M305.23,75.9h-105.62c-7.74,0-14.01,6.14-14.01,14.35v74.1c0,7.91,6.26,14.34,14.01,14.34h42.53v-20.85l-21.43.29c-1.61,0-3.08-.9-3.82-2.34-.73-1.44-.59-3.16.36-4.46l18.74-25.7c.81-1.11,2.09-1.76,3.46-1.76s2.65.65,3.46,1.76l5.98,8.21,16.8-25.19c.8-1.19,1.86-1.9,3.56-1.9,1.43,0,2.77.72,3.56,1.91l13.48,20.23,32.93-10.96v-27.67c0-8.21-6.26-14.35-14.01-14.35ZM216.44,117.02c-5.69,0-10.28-4.59-10.28-10.28s4.6-10.28,10.28-10.28,10.28,4.6,10.28,10.28-4.59,10.28-10.28,10.28Z" fill="#fff" stroke-width="0"/>
    <path d="M180.47,201.82c-2.84,0-5.14-2.3-5.14-5.14v-89.94h-38.48c-7.42,0-12.91,5.49-12.91,12.91v87.27c0,7.13,5.76,12.88,12.89,12.88h80.24c1.9-8.07,8.2-14.59,16.8-17.99h-53.4ZM157.34,199.25c0,1.42-1.15,2.57-2.57,2.57h-10.28c-1.42,0-2.57-1.15-2.57-2.57v-10.28c0-1.42,1.15-2.57,2.57-2.57h10.28c1.42,0,2.57,1.15,2.57,2.57v10.28ZM157.34,168.41c0,1.42-1.15,2.57-2.57,2.57h-10.28c-1.42,0-2.57-1.16-2.57-2.57v-10.28c0-1.42,1.15-2.57,2.57-2.57h10.28c1.42,0,2.57,1.15,2.57,2.57v10.28ZM157.34,137.58c0,1.42-1.15,2.57-2.57,2.57h-10.28c-1.42,0-2.57-1.16-2.57-2.57v-10.28c0-1.42,1.15-2.57,2.57-2.57h10.28c1.42,0,2.57,1.15,2.57,2.57v10.28ZM322.73,127.55l-66.81,22.27c-2.09.7-3.5,2.69-3.5,4.87v55.38c-1.64-.32-3.34-.55-5.14-.55-11.36,0-20.56,6.9-20.56,15.42s9.2,15.42,20.56,15.42,20.56-6.9,20.56-15.42v-46.58l46.26-15.42v26.56c-1.64-.32-3.34-.55-5.14-.55-11.36,0-20.56,6.9-20.56,15.42s9.2,15.42,20.56,15.42,20.56-6.9,20.56-15.42v-71.95c0-3.5-3.44-5.97-6.78-4.88ZM220.72,158.13l21.43-.29v-3.15c0-6.65,4.24-12.52,10.55-14.63l33.63-11.21-13.48-20.23c-.79-1.18-2.14-1.9-3.58-1.9s-2.77.72-3.56,1.91l-16.8,25.19-5.98-8.21c-.81-1.11-2.09-1.76-3.46-1.76s-2.65.65-3.46,1.76l-18.74,25.7c-.95,1.3-1.09,3.03-.36,4.46.74,1.45,2.21,2.34,3.82,2.34Z" fill="url(#n)" stroke-width="0"/>
  </g>
</svg>