<?xml version="1.0" encoding="UTF-8"?>
<svg xmlns="http://www.w3.org/2000/svg" width="160mm" height="160mm" xmlns:xlink="http://www.w3.org/1999/xlink" viewBox="0 0 453.54 453.54">
  <defs>
    <linearGradient id="o" data-name="keyhole" x1="189.97" y1="153.8" x2="295.81" y2="92.69" gradientUnits="userSpaceOnUse">
      <stop offset="0" stop-color="#ee7159"/>
      <stop offset=".85" stop-color="#e62e27"/>
    </linearGradient>
  </defs>
  <g id="h" data-name="color">
    <g id="j" data-name="shield">
      <path id="k" data-name="bg" d="M226.88,378.09s.02,0,.03,0c22.5-2.4,80-45.4,98.9-95.7,28.7-52.9,34.6-152.1,36.3-157.6s5.4-10,10-13.3c4.7-3.3,10.7-5,18.1-5h42.9s0,.03.01.04c-3.18-12.11-12.03-22.68-24.21-27.74L242.91,9.4c-4.2-1.8-11.53-3.2-16.03-3.2h-.16c-4.6,0-11.67,1.4-15.87,3.2L44.95,78.8c-12.25,5.06-21.11,15.61-24.3,27.7h.02s42.98,0,42.98,0c7.4,0,13.4,1.7,18.1,5,4.7,3.4,8.4,7.8,10,13.3,1.7,5.5,7.7,104.7,36.3,157.6,18.89,50.28,76.15,93.26,98.67,95.7h.16Z" fill="#0967ad" isolation="isolate" opacity=".4"/>
      <path id="l" data-name="bg-r" d="M325.65,282.4c28.7-52.9,34.6-152.1,36.3-157.6s5.4-10,10-13.3c4.7-3.3,10.7-5,18.1-5h42.9s0,.03.01.04c-3.18-12.11-12.03-22.68-24.21-27.74L242.75,9.4c-4.2-1.8-11.53-3.2-16.03-3.2v371.9s.02,0,.03,0c22.5-2.4,80-45.4,98.9-95.7Z" fill="#0967ad" isolation="isolate" opacity=".2"/>
      <path id="m" data-name="v-shape" d="M226.75,378.1c22.5-2.4,80-45.4,98.9-95.7,28.7-52.9,34.6-152.1,36.3-157.6,1.7-5.5,5.4-10,10-13.3,4.7-3.3,10.7-5,18.1-5h42.9c1.7,5.2,2.4,11.5,1.5,30.1h0c-2.1,42.9-9.5,96-44.4,166.4-43.8,81.8-98,119.6-124.8,133.9-13.4,7-28,13.1-38.5,13.1h0c-10.5,0-24.9-6.1-38.3-13.1-26.9-14.3-81.1-52.2-124.8-133.9C28.85,232.6,21.35,179.6,19.25,136.6c-.8-18.6-.1-24.9,1.5-30.1h42.9c7.4,0,13.4,1.7,18.1,5,4.7,3.4,8.4,7.8,10,13.3,1.7,5.5,7.7,104.7,36.3,157.6,18.9,50.3,76.2,93.3,98.7,95.7h0Z" fill="#0967ad"/>
    </g>
  </g>
  <g id="n" data-name="icon">
    <g>
      <path d="M194.57,80.34c0-7.29,5.9-13.19,13.19-13.19h39.58c7.3,0,13.19,5.91,13.19,13.19s-5.9,13.19-13.19,13.19h-6.6v14.2c-4.29-.66-8.7-1.01-13.19-1.01s-8.91.35-13.19,1.01v-14.2h-6.6c-7.3,0-13.19-5.91-13.19-13.19ZM290.8,117.2c5.15-5.15,13.48-5.15,18.64,0,5.15,5.15,5.15,13.48,0,18.64l-9.94,9.98c-4.82-7.46-10.8-14.1-17.65-19.71l8.95-8.91ZM237.45,199.08c0,5.48-4.41,9.9-9.9,9.9s-9.9-4.41-9.9-9.9v-52.77c0-5.48,4.41-9.9,9.9-9.9s9.9,4.41,9.9,9.9v52.77Z" fill="url(#o)"/>
      <path d="M141.79,192.49c0-47.37,38.39-85.76,85.76-85.76s85.76,38.39,85.76,85.76-38.39,85.76-85.76,85.76-85.76-38.39-85.76-85.76ZM237.45,146.31c0-5.48-4.41-9.9-9.9-9.9s-9.9,4.41-9.9,9.9v52.77c0,5.48,4.41,9.9,9.9,9.9s9.9-4.41,9.9-9.9v-52.77Z" fill="#fff" isolation="isolate"/>
    </g>
  </g>
</svg>