<?xml version="1.0" encoding="UTF-8"?>
<svg xmlns="http://www.w3.org/2000/svg" xmlns:xlink="http://www.w3.org/1999/xlink" viewBox="0 0 453.5433 453.5433">
  <defs>
    <linearGradient id="n" data-name="Unbenannter Verlauf 9" x1="136.6424" y1="235.1218" x2="310.2317" y2="113.5733" gradientUnits="userSpaceOnUse">
      <stop offset="0" stop-color="#ee7159"/>
      <stop offset=".85" stop-color="#e62e27"/>
    </linearGradient>
  </defs>
  <g id="g" data-name="color">
    <g id="i" data-name="shield">
      <path id="j" data-name="bg" d="M226.883,378.0913c.0098.001.0201.0029.0299.0039,22.5-2.4,80-45.4,98.9-95.7,28.7-52.9,34.6-152.1,36.3-157.6s5.4-10,10-13.3c4.7-3.3,10.7-5,18.1-5h42.9c.0042.0129.0082.0262.0125.0392-3.1755-12.1116-12.0338-22.678-24.2125-27.7393L242.9129,9.395c-4.2-1.7999-11.5299-3.2-16.0299-3.2h-.1608c-4.6.0001-11.6701,1.4001-15.8701,3.2002L44.952,78.7952c-12.245,5.056-21.1113,15.6061-24.2982,27.7021l.0157-.0021h42.9826c7.4,0,13.4,1.7,18.1,5,4.7,3.4,8.4,7.8,10,13.3,1.7,5.5,7.7,104.7,36.3,157.6,18.8918,50.2782,76.1498,93.262,98.6701,95.6961h.1608Z" style="fill: #0967ad; isolation: isolate; opacity: .4;"/>
      <path id="k" data-name="bg-r" d="M325.6521,282.3952c28.7-52.9,34.6-152.1,36.3-157.6s5.4-10,10-13.3c4.7-3.3,10.7-5,18.1-5h42.9c.0042.0129.0082.0262.0125.0392-3.1755-12.1116-12.0338-22.678-24.2125-27.7393L242.7521,9.395c-4.2-1.7999-11.5299-3.2-16.0299-3.2v371.8962c.0098.001.0201.0029.0299.0039,22.5-2.4,80-45.4,98.9-95.7Z" style="fill: #0967ad; isolation: isolate; opacity: .2;"/>
      <path id="l" data-name="v-shape" d="M226.7521,378.0952c22.5-2.4,80-45.4,98.9-95.7,28.7-52.9,34.6-152.1,36.3-157.6,1.7-5.5,5.4-10,10-13.3,4.7-3.3,10.7-5,18.1-5h42.9c1.7,5.2,2.4,11.5,1.5,30.1h0c-2.1,42.9-9.5,96-44.4,166.4-43.8,81.8-98,119.6-124.8,133.9-13.4,7-28,13.1-38.5,13.1h0c-10.5,0-24.9-6.1-38.3-13.1-26.9-14.3-81.1-52.2-124.8-133.9C28.8521,232.5952,21.3521,179.5952,19.2521,136.5952c-.8-18.6-.1-24.9,1.5-30.1h42.9c7.4,0,13.4,1.7,18.1,5,4.7,3.4,8.4,7.8,10,13.3,1.7,5.5,7.7,104.7,36.3,157.6,18.9,50.3,76.2,93.3,98.7,95.7h0Z" style="fill: #0967ad;"/>
    </g>
  </g>
  <g id="m" data-name="icon">
    <path d="M200.582,184.0797c-3.7083,0-6.7423,3.0341-6.7423,6.7423v4.7618c5.9417,2.6127,10.1135,8.5543,10.1135,15.4652,0,9.3128-7.543,16.8558-16.8558,16.8558s-16.8558-7.543-16.8558-16.8558c0-6.9109,4.1718-12.8526,10.1135-15.4652v-4.7618c0-11.167,9.06-20.227,20.227-20.227h20.227v-40.454h-18.2464c-2.6127,5.9417-8.5543,10.1135-15.4652,10.1135-9.3128,0-16.8558-7.543-16.8558-16.8558s7.543-16.8558,16.8558-16.8558c6.9109,0,12.8526,4.1718,15.4652,10.1135h18.2464v-30.3405h13.4847v30.3405h20.227c11.167,0,20.227,9.06,20.227,20.227v4.7618c5.9417,2.6127,10.1135,8.5543,10.1135,15.4652,0,9.3128-7.543,16.8558-16.8558,16.8558s-16.8558-7.543-16.8558-16.8558c0-6.9109,4.1718-12.8526,10.1135-15.4652v-4.7618c0-3.7083-3.0341-6.7423-6.7423-6.7423h-20.227v80.908h28.3599c2.6127-5.9417,8.5543-10.1135,15.4652-10.1135,9.3128,0,16.8558,7.543,16.8558,16.8558s-7.543,16.8558-16.8558,16.8558c-6.9109,0-12.8526-4.1718-15.4652-10.1135h-28.3599v30.3405h-13.4847v-70.7945h-20.227ZM187.0973,130.1411c3.7083,0,6.7423-3.034,6.7423-6.7423s-3.034-6.7423-6.7423-6.7423-6.7423,3.034-6.7423,6.7423,3.034,6.7423,6.7423,6.7423ZM187.0973,217.7914c3.7083,0,6.7423-3.0341,6.7423-6.7423s-3.034-6.7423-6.7423-6.7423-6.7423,3.0341-6.7423,6.7423,3.034,6.7423,6.7423,6.7423ZM274.7476,157.1104c0-3.7083-3.0341-6.7423-6.7423-6.7423s-6.7423,3.034-6.7423,6.7423,3.0341,6.7423,6.7423,6.7423,6.7423-3.034,6.7423-6.7423ZM278.1188,224.5337c3.7083,0,6.7423-3.0341,6.7423-6.7423s-3.0341-6.7423-6.7423-6.7423-6.7423,3.0341-6.7423,6.7423,3.0341,6.7423,6.7423,6.7423Z" style="fill: #fff;"/>
    <path d="M197.2108,62.7177c13.0211,0,23.5982,10.5644,23.5982,23.5982v30.3405h-18.2464c-2.6127-5.9417-8.5543-10.1135-15.4652-10.1135-9.3128,0-16.8558,7.543-16.8558,16.8558s7.543,16.8558,16.8558,16.8558c6.9109,0,12.8526-4.1718,15.4652-10.1135h18.2464v40.454h-20.227c-11.167,0-20.227,9.06-20.227,20.227v4.7618c-5.9417,2.6127-10.1135,8.5543-10.1135,15.4652,0,9.3128,7.543,16.8558,16.8558,16.8558s16.8558-7.543,16.8558-16.8558c0-6.9109-4.1718-12.8526-10.1135-15.4652v-4.7618c0-3.7083,3.034-6.7423,6.7423-6.7423h20.227v70.7945c0,13.0211-10.577,23.5982-23.5982,23.5982-12.1783,0-22.2076-9.2286-23.4717-21.1119-2.1913.59-4.5089.8849-6.8688.8849-14.8963,0-26.9693-12.0941-26.9693-26.9693,0-3.1183.5352-6.1524,1.5128-8.9336-12.7093-4.8039-21.7398-17.1087-21.7398-31.5204,0-13.4425,7.8843-25.073,19.2873-30.4669-3.6324-4.5932-5.8026-10.7877-5.8026-16.7294,0-12.9368,9.0979-23.7246,21.2426-26.3794-.6616-2.3177-1.0156-4.8039-1.0156-7.3323,0-12.6166,8.6808-23.2105,20.3534-26.156,1.2642-11.8286,11.2934-21.0403,23.4717-21.0403ZM281.3636,83.758c11.6727,2.9456,20.3534,13.5394,20.3534,26.156,0,2.5284-.3371,5.0146-1.0113,7.3323,12.1362,2.6548,21.2383,13.4425,21.2383,26.3794,0,5.9417-2.1491,12.1362-5.8153,16.7294,11.4198,5.3939,19.2999,17.0244,19.2999,30.4669,0,14.4117-9.0179,26.7165-21.744,31.5204.9692,2.7812,1.517,5.8153,1.517,8.9336,0,14.8753-12.0941,26.9693-26.9693,26.9693-2.3598,0-4.6775-.295-6.8687-.8849-1.2642,11.8834-11.2934,21.1119-23.4717,21.1119-13.0211,0-23.5982-10.577-23.5982-23.5982v-30.3405h28.3599c2.6127,5.9417,8.5543,10.1135,15.4652,10.1135,9.3128,0,16.8558-7.543,16.8558-16.8558s-7.543-16.8558-16.8558-16.8558c-6.9109,0-12.8526,4.1718-15.4652,10.1135h-28.3599v-80.908h20.227c3.7083,0,6.7423,3.034,6.7423,6.7423v4.7618c-5.9417,2.6127-10.1135,8.5543-10.1135,15.4652,0,9.3128,7.543,16.8558,16.8558,16.8558s16.8558-7.543,16.8558-16.8558c0-6.9109-4.1718-12.8526-10.1135-15.4652v-4.7618c0-11.167-9.06-20.227-20.227-20.227h-20.227v-30.3405c0-13.0338,10.577-23.5982,23.5982-23.5982,12.1783,0,22.2076,9.2117,23.4717,21.0403Z" style="fill: url(#n); isolation: isolate;"/>
  </g>
</svg>