<?xml version="1.0" encoding="UTF-8"?>
<svg id="d" data-name="white" xmlns="http://www.w3.org/2000/svg" xmlns:xlink="http://www.w3.org/1999/xlink" viewBox="0 0 1743.31 510.24">
  <defs>
    <linearGradient id="k" data-name="keyhole" x1="419.67" y1="188.62" x2="524.74" y2="249.28" gradientUnits="userSpaceOnUse">
      <stop offset="0" stop-color="#ee7159"/>
      <stop offset=".85" stop-color="#e62e27"/>
    </linearGradient>
    <linearGradient id="o" data-name="Unbenannter Verlauf 3" x1="1043.67" y1="507.25" x2="1663.89" y2="149.16" gradientUnits="userSpaceOnUse">
      <stop offset="0" stop-color="#ee7159"/>
      <stop offset=".5" stop-color="#e62e27"/>
    </linearGradient>
  </defs>
  <g id="e" data-name="logo-shield">
    <path id="f" data-name="bg" d="M477.45,377.43s.02,0,.03,0c22.5-2.4,80-45.4,98.9-95.7,28.7-52.9,34.6-152.1,36.3-157.6s5.4-10,10-13.3c4.7-3.3,10.7-5,18.1-5h42.9s0,.03.01.04c-3.18-12.11-12.03-22.68-24.21-27.74L493.48,8.73c-4.2-1.8-11.53-3.2-16.03-3.2h-.16c-4.6,0-11.67,1.4-15.87,3.2l-165.9,69.4c-12.25,5.06-21.11,15.61-24.3,27.7h.02s42.98,0,42.98,0c7.4,0,13.4,1.7,18.1,5,4.7,3.4,8.4,7.8,10,13.3,1.7,5.5,7.7,104.7,36.3,157.6,18.89,50.28,76.15,93.26,98.67,95.7h.16Z" style="fill: #fff; isolation: isolate; opacity: .4;"/>
    <path id="g" data-name="bg-r" d="M576.21,281.73c28.7-52.9,34.6-152.1,36.3-157.6s5.4-10,10-13.3c4.7-3.3,10.7-5,18.1-5h42.9s0,.03.01.04c-3.18-12.11-12.03-22.68-24.21-27.74L493.31,8.73c-4.2-1.8-11.53-3.2-16.03-3.2v371.9s.02,0,.03,0c22.5-2.4,80-45.4,98.9-95.7Z" style="fill: #fff; isolation: isolate; opacity: .2;"/>
    <path id="h" data-name="v-shape" d="M477.31,377.43c22.5-2.4,80-45.4,98.9-95.7,28.7-52.9,34.6-152.1,36.3-157.6,1.7-5.5,5.4-10,10-13.3,4.7-3.3,10.7-5,18.1-5h42.9c1.7,5.2,2.4,11.5,1.5,30.1h0c-2.1,42.9-9.5,96-44.4,166.4-43.8,81.8-98,119.6-124.8,133.9-13.4,7-28,13.1-38.5,13.1h0c-10.5,0-24.9-6.1-38.3-13.1-26.9-14.3-81.1-52.2-124.8-133.9-34.8-70.4-42.3-123.4-44.4-166.4-.8-18.6-.1-24.9,1.5-30.1h42.9c7.4,0,13.4,1.7,18.1,5,4.7,3.4,8.4,7.8,10,13.3,1.7,5.5,7.7,104.7,36.3,157.6,18.9,50.3,76.2,93.3,98.7,95.7h0Z" style="fill: #fff;"/>
  </g>
  <g id="j" data-name="logo-icon">
    <path id="l" data-name="keyhole" d="M477.2,137.33c-26.7,0-48.4,21.7-48.4,48.5,0,19.3,11.4,35.9,27.7,43.7v60.3c0,11.5,9.3,20.8,20.8,20.8s20.8-9.3,20.8-20.8v-60.3c16.3-7.8,27.6-24.4,27.5-43.7,0-26.8-21.7-48.5-48.4-48.5ZM504.2,193.03h-18.7v18.7h-16.1v-18.7h-18.7v-16.1h18.7v-18.8h16.1v18.8h18.7v16.1Z" style="fill: url(#k);"/>
    <polygon id="m" data-name="cross" points="469.4 176.93 450.7 176.93 450.7 193.03 469.4 193.03 469.4 211.73 485.5 211.73 485.5 193.03 504.2 193.03 504.2 176.93 485.5 176.93 485.5 158.13 469.4 158.13 469.4 176.93" style="fill: #fff;"/>
  </g>
  <g id="n" data-name="PV">
    <path d="M903.6,305.53v116.3h-70.9v-116.3l-110.8-189.5h62.5c6.2,0,11,1.4,14.7,4.3,3.6,2.9,6.6,6.5,8.8,11l43.2,89c3.5,7.1,6.7,13.7,9.6,19.7,3,6,5.6,11.9,7.8,17.9,2.1-6,4.6-12,7.6-18s6.1-12.5,9.4-19.5l42.8-89c.8-1.8,2-3.6,3.5-5.5,1.5-1.8,3.1-3.5,5-4.9s4.1-2.7,6.5-3.6c2.4-.9,5.1-1.3,8.1-1.3h62.9l-110.7,189.4h0Z" style="fill: #fff;"/>
    <path d="M80,320.23v102.2H9V116.73h107.8c21.5,0,40,2.5,55.5,7.6,15.4,5.1,28.2,12.2,38.2,21.1,10,9,17.3,19.5,22.2,31.7,4.7,12.2,7.1,25.3,7.1,39.4,0,15.3-2.4,29.2-7.3,42-4.9,12.8-12.4,23.7-22.5,32.7-10.1,9.1-22.8,16.2-38.3,21.3s-33.7,7.6-54.9,7.6h-36.8v.1h0ZM80,266.83h36.9c18.5,0,31.7-4.4,39.9-13.2,8.1-8.8,12.2-21.1,12.2-36.9,0-7-1-13.3-3.1-19.1-2.1-5.7-5.3-10.7-9.6-14.8-4.3-4.2-9.6-7.3-16.2-9.6-6.6-2.3-14.2-3.3-23.2-3.3h-36.9v96.9h0Z" style="fill: #fff;"/>
  </g>
  <path d="M1134.84,251.32c-1.68,2.67-3.47,4.56-5.37,5.68-1.89,1.12-4.32,1.68-7.26,1.68s-6.18-.66-9.26-2c-3.09-1.33-6.42-2.77-10-4.32-3.58-1.54-7.62-2.98-12.1-4.32-4.49-1.33-9.62-2-15.37-2-8.28,0-14.63,1.58-19.05,4.74-4.42,3.16-6.63,7.54-6.63,13.16,0,4.07,1.44,7.44,4.32,10.1,2.88,2.67,6.7,5.02,11.47,7.05,4.77,2.04,10.17,3.97,16.21,5.79,6.03,1.83,12.21,3.86,18.53,6.1,6.32,2.25,12.49,4.88,18.53,7.89,6.03,3.02,11.44,6.74,16.21,11.16,4.77,4.42,8.59,9.79,11.47,16.1,2.88,6.32,4.32,13.89,4.32,22.74,0,10.81-1.97,20.77-5.89,29.89-3.93,9.12-9.79,16.98-17.58,23.58-7.79,6.6-17.4,11.72-28.84,15.37-11.44,3.65-24.6,5.47-39.47,5.47-7.44,0-14.88-.7-22.32-2.11-7.44-1.4-14.63-3.3-21.58-5.68-6.95-2.38-13.37-5.23-19.26-8.53-5.89-3.3-10.95-6.84-15.16-10.63l15.16-24c1.82-2.81,4-5.02,6.53-6.63,2.53-1.61,5.82-2.42,9.89-2.42,3.79,0,7.19.84,10.21,2.53,3.02,1.68,6.28,3.51,9.79,5.47,3.51,1.97,7.61,3.79,12.31,5.47,4.7,1.68,10.63,2.53,17.79,2.53,5.05,0,9.33-.53,12.84-1.58,3.51-1.05,6.32-2.49,8.42-4.32,2.11-1.82,3.65-3.86,4.63-6.1.98-2.24,1.47-4.56,1.47-6.95,0-4.35-1.47-7.93-4.42-10.74-2.95-2.81-6.81-5.23-11.58-7.26-4.77-2.03-10.21-3.93-16.32-5.68-6.11-1.75-12.32-3.75-18.63-6-6.32-2.24-12.53-4.95-18.63-8.1-6.1-3.16-11.54-7.16-16.31-12-4.77-4.84-8.63-10.77-11.58-17.79-2.95-7.02-4.42-15.51-4.42-25.47,0-9.26,1.79-18.07,5.37-26.42,3.58-8.35,8.95-15.68,16.1-22,7.16-6.32,16.14-11.33,26.95-15.05,10.81-3.72,23.44-5.58,37.89-5.58,7.86,0,15.47.7,22.84,2.1,7.37,1.41,14.28,3.37,20.74,5.89,6.45,2.53,12.35,5.51,17.68,8.95,5.33,3.44,10.03,7.19,14.1,11.26l-14.74,22.95ZM1261.57,143.74c0,5.19-1.05,10.07-3.16,14.63-2.11,4.56-4.98,8.56-8.63,12-3.65,3.44-7.89,6.18-12.74,8.21-4.84,2.04-10,3.05-15.47,3.05s-10.32-1.02-14.95-3.05c-4.63-2.03-8.74-4.77-12.32-8.21-3.58-3.44-6.39-7.44-8.42-12-2.04-4.56-3.05-9.44-3.05-14.63s1.02-10.32,3.05-14.95c2.03-4.63,4.84-8.7,8.42-12.21,3.58-3.51,7.68-6.24,12.32-8.21,4.63-1.96,9.61-2.95,14.95-2.95s10.63.98,15.47,2.95c4.84,1.97,9.08,4.7,12.74,8.21,3.65,3.51,6.53,7.58,8.63,12.21,2.11,4.63,3.16,9.61,3.16,14.95ZM1253.99,203.53v218.3h-65.26v-218.3h65.26ZM1383.66,199.74c9.26,0,18,.92,26.21,2.74,8.21,1.83,15.82,4.42,22.84,7.79h65.89v23.79c0,3.65-1.02,6.53-3.05,8.63-2.04,2.11-5.51,3.72-10.42,4.84l-16,3.58c1.96,6.32,2.95,12.84,2.95,19.58,0,10.95-2.28,20.77-6.84,29.47-4.56,8.7-10.81,16.1-18.73,22.21-7.93,6.1-17.3,10.81-28.11,14.1-10.81,3.3-22.39,4.95-34.73,4.95-6.88,0-13.34-.42-19.37-1.26-4.77,2.84-7.16,6.09-7.16,9.78s1.93,6.34,5.79,7.97c3.86,1.63,8.95,2.76,15.26,3.4,6.31.64,13.54.96,21.68.96s16.42.39,24.84,1.16c8.42.78,16.7,2.08,24.84,3.91,8.14,1.83,15.37,4.79,21.68,8.87,6.32,4.09,11.4,9.54,15.26,16.37,3.86,6.83,5.79,15.52,5.79,26.08,0,9.85-2.39,19.5-7.16,28.93-4.77,9.43-11.79,17.8-21.05,25.13-9.26,7.32-20.63,13.2-34.1,17.63-13.47,4.43-28.91,6.65-46.31,6.65s-31.89-1.62-44.31-4.84c-12.42-3.23-22.73-7.48-30.95-12.75-8.21-5.27-14.28-11.35-18.21-18.23-3.93-6.89-5.89-14.05-5.89-21.5,0-9.7,2.95-17.88,8.84-24.55,5.89-6.67,13.96-11.9,24.21-15.7-4.91-3.22-8.84-7.35-11.79-12.4s-4.42-11.42-4.42-19.13c0-3.22.56-6.62,1.68-10.19,1.12-3.57,2.88-7.04,5.26-10.41,2.38-3.36,5.4-6.58,9.05-9.67,3.65-3.08,8-5.82,13.05-8.2-11.37-6.03-20.32-14.03-26.84-24-6.53-9.96-9.79-21.54-9.79-34.74,0-10.95,2.32-20.8,6.95-29.58,4.63-8.77,10.98-16.21,19.05-22.31,8.07-6.1,17.58-10.8,28.52-14.1,10.95-3.3,22.8-4.95,35.58-4.95ZM1432.08,429.36c0-3.58-1.09-6.45-3.26-8.6-2.18-2.15-5.12-3.87-8.84-5.16-3.72-1.29-8.07-2.22-13.05-2.8-4.98-.57-10.35-.86-16.1-.86h-17.89c-6.18,0-12.28-.59-18.31-1.79-4.07,2.82-7.4,5.94-10,9.39-2.6,3.45-3.89,7.35-3.89,11.71,0,3.09.66,5.91,2,8.44,1.33,2.53,3.68,4.71,7.05,6.54,3.37,1.83,7.89,3.27,13.58,4.33,5.68,1.05,12.87,1.58,21.58,1.58,9.4,0,17.12-.58,23.16-1.72,6.03-1.15,10.84-2.72,14.42-4.73,3.58-2.01,6.07-4.41,7.47-7.2,1.4-2.8,2.11-5.84,2.11-9.14ZM1383.66,301.21c10.8,0,18.63-2.7,23.47-8.1,4.84-5.4,7.26-12.38,7.26-20.95s-2.42-15.79-7.26-20.84c-4.84-5.05-12.67-7.58-23.47-7.58s-18.63,2.53-23.47,7.58c-4.84,5.05-7.26,12-7.26,20.84,0,4.21.6,8.07,1.79,11.58,1.19,3.51,3.05,6.56,5.58,9.16,2.53,2.6,5.72,4.63,9.58,6.11,3.86,1.47,8.45,2.21,13.79,2.21ZM1526.81,421.83v-218.3h40.42c4.07,0,7.47.91,10.21,2.74,2.74,1.83,4.67,4.56,5.79,8.21l3.79,12.63c4.21-3.93,8.56-7.58,13.05-10.95,4.49-3.37,9.3-6.21,14.42-8.53,5.12-2.32,10.66-4.14,16.63-5.47,5.96-1.33,12.45-2,19.47-2,11.93,0,22.49,2.07,31.68,6.21,9.19,4.14,16.95,9.89,23.26,17.26,6.32,7.37,11.08,16.14,14.32,26.31,3.23,10.18,4.84,21.23,4.84,33.16v138.73h-65.26v-138.73c0-10.66-2.46-18.98-7.37-24.95-4.91-5.96-12.14-8.95-21.68-8.95-7.16,0-13.89,1.55-20.21,4.63-6.32,3.09-12.35,7.23-18.1,12.42v155.57h-65.26Z" style="fill: url(#o);"/>
</svg>