<?xml version="1.0" encoding="UTF-8"?>
<svg xmlns="http://www.w3.org/2000/svg" xmlns:xlink="http://www.w3.org/1999/xlink" viewBox="0 0 453.5433 453.5433">
  <defs>
    <linearGradient id="n" data-name="keyhole" x1="120.9693" y1="134.6853" x2="301.7529" y2="239.0607" gradientUnits="userSpaceOnUse">
      <stop offset="0" stop-color="#ee7159"/>
      <stop offset=".85" stop-color="#e62e27"/>
    </linearGradient>
  </defs>
  <g id="d" data-name="white">
    <g id="f" data-name="shield">
      <path id="g" data-name="bg" d="M227.5447,377.4295c.0098.001.0201.0029.0299.0039,22.5-2.4,80-45.4,98.9-95.7,28.7-52.9,34.6-152.1,36.3-157.6s5.4-10,10-13.3c4.7-3.3,10.7-5,18.1-5h42.9c.0042.0129.0082.0262.0125.0392-3.1755-12.1116-12.0338-22.678-24.2125-27.7393L243.5746,8.7333c-4.2-1.7999-11.5299-3.2-16.0299-3.2h-.1608c-4.6.0001-11.6701,1.4001-15.8701,3.2002L45.6138,78.1334c-12.245,5.056-21.1113,15.6061-24.2982,27.7021l.0157-.0021h42.9826c7.4,0,13.4,1.7,18.1,5,4.7,3.4,8.4,7.8,10,13.3,1.7,5.5,7.7,104.7,36.3,157.6,18.8918,50.2782,76.1498,93.262,98.6701,95.6961h.1608Z" style="fill: #fff; isolation: isolate; opacity: .4;"/>
      <path id="h" data-name="bg-r" d="M326.3138,281.7335c28.7-52.9,34.6-152.1,36.3-157.6s5.4-10,10-13.3c4.7-3.3,10.7-5,18.1-5h42.9c.0042.0129.0082.0262.0125.0392-3.1755-12.1116-12.0338-22.678-24.2125-27.7393L243.4138,8.7333c-4.2-1.7999-11.5299-3.2-16.0299-3.2v371.8962c.0098.001.0201.0029.0299.0039,22.5-2.4,80-45.4,98.9-95.7Z" style="fill: #fff; isolation: isolate; opacity: .2;"/>
      <path id="i" data-name="v-shape" d="M227.4138,377.4335c22.5-2.4,80-45.4,98.9-95.7,28.7-52.9,34.6-152.1,36.3-157.6,1.7-5.5,5.4-10,10-13.3,4.7-3.3,10.7-5,18.1-5h42.9c1.7,5.2,2.4,11.5,1.5,30.1h0c-2.1,42.9-9.5,96-44.4,166.4-43.8,81.8-98,119.6-124.8,133.9-13.4,7-28,13.1-38.5,13.1h0c-10.5,0-24.9-6.1-38.3-13.1-26.9-14.3-81.1-52.2-124.8-133.9C29.5139,231.9334,22.0139,178.9334,19.9138,135.9334c-.8-18.6-.1-24.9,1.5-30.1h42.9c7.4,0,13.4,1.7,18.1,5,4.7,3.4,8.4,7.8,10,13.3,1.7,5.5,7.7,104.7,36.3,157.6,18.9,50.3,76.2,93.3,98.7,95.7h0Z" style="fill: #fff;"/>
    </g>
  </g>
  <g id="m" data-name="icon">
    <g>
      <path d="M223.5795,269.4435h7.8524v9.1693h9.1205v7.8524h-9.1205v9.1205h-7.8524v-9.1205h-9.1205v-7.8524h9.1205v-9.1693ZM324.8227,114.5496v-26.4011c0-4.6966-3.8073-8.5039-8.5039-8.5039h-176.7249c-4.6966,0-8.5039,3.8073-8.5039,8.5039v26.4011c0,4.6966,3.8073,8.5039,8.5039,8.5039h176.7249c4.6966,0,8.5039-3.8073,8.5039-8.5039ZM316.3187,180.4289h-176.7249c-4.6966,0-8.5039-3.8073-8.5039-8.5039v-26.4011c0-4.6966,3.8073-8.5039,8.5039-8.5039h176.7249c4.6966,0,8.5039,3.8073,8.5039,8.5039v26.4011c0,4.6966-3.8073,8.5039-8.5039,8.5039ZM316.3187,237.8044h-176.7249c-4.6966,0-8.5039-3.8073-8.5039-8.5039v-26.4011c0-4.6966,3.8073-8.5039,8.5039-8.5039h176.7249c4.6966,0,8.5039,3.8073,8.5039,8.5039v26.4011c0,4.6966-3.8073,8.5039-8.5039,8.5039Z" style="fill: #fff;"/>
      <path d="M227.3838,259.2987c-13.0224,0-23.6061,10.5837-23.6061,23.6548,0,9.4132,5.5601,17.5095,13.5101,21.3137v29.41c0,5.6089,4.5359,10.1447,10.1447,10.1447s10.1447-4.5359,10.1447-10.1447v-29.41c7.95-3.8043,13.4613-11.9006,13.4126-21.3137,0-13.0711-10.5837-23.6548-23.6061-23.6548ZM240.5524,286.4652h-9.1205v9.1205h-7.8524v-9.1205h-9.1205v-7.8524h9.1205v-9.1693h7.8524v9.1693h9.1205v7.8524ZM142.014,158.4355c0-1.3335.2598-2.5869.7798-3.7603.52-1.1729,1.2266-2.1997,2.1201-3.0801.8931-.8799,1.9399-1.5728,3.1401-2.0796,1.1997-.5068,2.48-.7603,3.8398-.7603,1.373,0,2.6602.2534,3.8599.7603,1.2002.5068,2.25,1.1997,3.1499,2.0796.9004.8804,1.6104,1.9072,2.1304,3.0801.52,1.1733.7798,2.4268.7798,3.7603,0,1.3198-.2598,2.5669-.7798,3.7397-.52,1.1733-1.23,2.1934-2.1304,3.0601-.8999.8667-1.9497,1.5537-3.1499,2.0601-1.1997.5068-2.4868.7598-3.8599.7598-1.3599,0-2.6401-.2529-3.8398-.7598-1.2002-.5063-2.2471-1.1934-3.1401-2.0601-.8936-.8667-1.6001-1.8867-2.1201-3.0601-.52-1.1729-.7798-2.4199-.7798-3.7397ZM167.2137,158.4355c0-1.3335.2598-2.5869.7798-3.7603.52-1.1729,1.2266-2.1997,2.1201-3.0801.8931-.8799,1.9399-1.5728,3.1401-2.0796,1.1997-.5068,2.48-.7603,3.8398-.7603,1.373,0,2.6602.2534,3.8599.7603,1.2002.5068,2.25,1.1997,3.1499,2.0796.9004.8804,1.6104,1.9072,2.1304,3.0801.52,1.1733.7798,2.4268.7798,3.7603,0,1.3198-.2598,2.5669-.7798,3.7397-.52,1.1733-1.23,2.1934-2.1304,3.0601-.8999.8667-1.9497,1.5537-3.1499,2.0601-1.1997.5068-2.4868.7598-3.8599.7598-1.3599,0-2.6401-.2529-3.8398-.7598-1.2002-.5063-2.2471-1.1934-3.1401-2.0601-.8936-.8667-1.6001-1.8867-2.1201-3.0601-.52-1.1729-.7798-2.4199-.7798-3.7397ZM192.413,158.4355c0-1.3335.2598-2.5869.7798-3.7603.52-1.1729,1.2266-2.1997,2.1201-3.0801.8931-.8799,1.9399-1.5728,3.1401-2.0796,1.1997-.5068,2.48-.7603,3.8398-.7603,1.373,0,2.6602.2534,3.8599.7603,1.2002.5068,2.25,1.1997,3.1499,2.0796.9004.8804,1.6104,1.9072,2.1304,3.0801.52,1.1733.7798,2.4268.7798,3.7603,0,1.3198-.2598,2.5669-.7798,3.7397-.52,1.1733-1.23,2.1934-2.1304,3.0601-.8999.8667-1.9497,1.5537-3.1499,2.0601-1.1997.5068-2.4868.7598-3.8599.7598-1.3599,0-2.6401-.2529-3.8398-.7598-1.2002-.5063-2.2471-1.1934-3.1401-2.0601-.8936-.8667-1.6001-1.8867-2.1201-3.0601-.52-1.1729-.7798-2.4199-.7798-3.7397ZM217.6122,158.4355c0-1.3335.2598-2.5869.7798-3.7603.52-1.1729,1.2266-2.1997,2.1201-3.0801.8931-.8799,1.9399-1.5728,3.1401-2.0796,1.1997-.5068,2.48-.7603,3.8398-.7603,1.373,0,2.6602.2534,3.8599.7603,1.2002.5068,2.25,1.1997,3.1499,2.0796.9004.8804,1.6104,1.9072,2.1304,3.0801.52,1.1733.7798,2.4268.7798,3.7603,0,1.3198-.2598,2.5669-.7798,3.7397-.52,1.1733-1.23,2.1934-2.1304,3.0601-.8999.8667-1.9497,1.5537-3.1499,2.0601-1.1997.5068-2.4868.7598-3.8599.7598-1.3599,0-2.6401-.2529-3.8398-.7598-1.2002-.5063-2.2471-1.1934-3.1401-2.0601-.8936-.8667-1.6001-1.8867-2.1201-3.0601-.52-1.1729-.7798-2.4199-.7798-3.7397ZM242.8119,158.4355c0-1.3335.2598-2.5869.7798-3.7603.52-1.1729,1.2266-2.1997,2.1201-3.0801.8931-.8799,1.9399-1.5728,3.1401-2.0796,1.1997-.5068,2.48-.7603,3.8398-.7603,1.373,0,2.6602.2534,3.8599.7603,1.2002.5068,2.25,1.1997,3.1499,2.0796.9004.8804,1.6104,1.9072,2.1304,3.0801.52,1.1733.7798,2.4268.7798,3.7603,0,1.3198-.2598,2.5669-.7798,3.7397-.52,1.1733-1.23,2.1934-2.1304,3.0601-.8999.8667-1.9497,1.5537-3.1499,2.0601-1.1997.5068-2.4868.7598-3.8599.7598-1.3599,0-2.6401-.2529-3.8398-.7598-1.2002-.5063-2.2471-1.1934-3.1401-2.0601-.8936-.8667-1.6001-1.8867-2.1201-3.0601-.52-1.1729-.7798-2.4199-.7798-3.7397ZM268.0116,158.4355c0-1.3335.2598-2.5869.7798-3.7603.52-1.1729,1.2266-2.1997,2.1201-3.0801.8931-.8799,1.9399-1.5728,3.1401-2.0796,1.1997-.5068,2.48-.7603,3.8398-.7603,1.373,0,2.6602.2534,3.8599.7603,1.2002.5068,2.25,1.1997,3.1499,2.0796.9004.8804,1.6104,1.9072,2.1304,3.0801.52,1.1733.7798,2.4268.7798,3.7603,0,1.3198-.2598,2.5669-.7798,3.7397-.52,1.1733-1.23,2.1934-2.1304,3.0601-.8999.8667-1.9497,1.5537-3.1499,2.0601-1.1997.5068-2.4868.7598-3.8599.7598-1.3599,0-2.6401-.2529-3.8398-.7598-1.2002-.5063-2.2471-1.1934-3.1401-2.0601-.8936-.8667-1.6001-1.8867-2.1201-3.0601-.52-1.1729-.7798-2.4199-.7798-3.7397ZM293.2108,158.4355c0-1.3335.2598-2.5869.7798-3.7603.52-1.1729,1.2266-2.1997,2.1201-3.0801.8931-.8799,1.9399-1.5728,3.1401-2.0796,1.1992-.5068,2.4795-.7603,3.8389-.7603,1.374,0,2.6602.2534,3.8604.7603s2.25,1.1997,3.1504,2.0796c.8994.8804,1.6094,1.9072,2.1299,3.0801.5195,1.1733.7803,2.4268.7803,3.7603,0,1.3198-.2607,2.5669-.7803,3.7397-.5205,1.1733-1.2305,2.1934-2.1299,3.0601-.9004.8667-1.9502,1.5537-3.1504,2.0601-1.2002.5068-2.4863.7598-3.8604.7598-1.3594,0-2.6396-.2529-3.8389-.7598-1.2002-.5063-2.2471-1.1934-3.1401-2.0601-.8936-.8667-1.6001-1.8867-2.1201-3.0601-.52-1.1729-.7798-2.4199-.7798-3.7397ZM141.5511,101.5647c0-1.3335.2598-2.5869.7798-3.7603.52-1.1729,1.2266-2.1997,2.1201-3.0801.8931-.8799,1.9399-1.5728,3.1401-2.0796,1.1997-.5068,2.48-.7603,3.8398-.7603,1.373,0,2.6602.2534,3.8599.7603,1.2002.5068,2.25,1.1997,3.1499,2.0796.9004.8804,1.6104,1.9072,2.1304,3.0801.52,1.1733.7798,2.4268.7798,3.7603,0,1.3198-.2598,2.5669-.7798,3.7397-.52,1.1733-1.23,2.1934-2.1304,3.0601-.8999.8667-1.9497,1.5537-3.1499,2.0601-1.1997.5068-2.4868.7598-3.8599.7598-1.3599,0-2.6401-.2529-3.8398-.7598-1.2002-.5063-2.2471-1.1934-3.1401-2.0601-.8936-.8667-1.6001-1.8867-2.1201-3.0601-.52-1.1729-.7798-2.4199-.7798-3.7397ZM166.7508,101.5647c0-1.3335.2598-2.5869.7798-3.7603.52-1.1729,1.2266-2.1997,2.1201-3.0801.8931-.8799,1.9399-1.5728,3.1401-2.0796,1.1997-.5068,2.48-.7603,3.8398-.7603,1.373,0,2.6602.2534,3.8599.7603,1.2002.5068,2.25,1.1997,3.1499,2.0796.9004.8804,1.6104,1.9072,2.1304,3.0801.52,1.1733.7798,2.4268.7798,3.7603,0,1.3198-.2598,2.5669-.7798,3.7397-.52,1.1733-1.23,2.1934-2.1304,3.0601-.8999.8667-1.9497,1.5537-3.1499,2.0601-1.1997.5068-2.4868.7598-3.8599.7598-1.3599,0-2.6401-.2529-3.8398-.7598-1.2002-.5063-2.2471-1.1934-3.1401-2.0601-.8936-.8667-1.6001-1.8867-2.1201-3.0601-.52-1.1729-.7798-2.4199-.7798-3.7397ZM191.95,101.5647c0-1.3335.2598-2.5869.7798-3.7603.52-1.1729,1.2266-2.1997,2.1201-3.0801.8931-.8799,1.9399-1.5728,3.1401-2.0796,1.1997-.5068,2.48-.7603,3.8398-.7603,1.373,0,2.6602.2534,3.8599.7603,1.2002.5068,2.25,1.1997,3.1499,2.0796.9004.8804,1.6104,1.9072,2.1304,3.0801.52,1.1733.7798,2.4268.7798,3.7603,0,1.3198-.2598,2.5669-.7798,3.7397-.52,1.1733-1.23,2.1934-2.1304,3.0601-.8999.8667-1.9497,1.5537-3.1499,2.0601-1.1997.5068-2.4868.7598-3.8599.7598-1.3599,0-2.6401-.2529-3.8398-.7598-1.2002-.5063-2.2471-1.1934-3.1401-2.0601-.8936-.8667-1.6001-1.8867-2.1201-3.0601-.52-1.1729-.7798-2.4199-.7798-3.7397ZM217.1492,101.5647c0-1.3335.2598-2.5869.7798-3.7603.52-1.1729,1.2266-2.1997,2.1201-3.0801.8931-.8799,1.9399-1.5728,3.1401-2.0796,1.1997-.5068,2.48-.7603,3.8398-.7603,1.373,0,2.6602.2534,3.8599.7603,1.2002.5068,2.25,1.1997,3.1499,2.0796.9004.8804,1.6104,1.9072,2.1304,3.0801.52,1.1733.7798,2.4268.7798,3.7603,0,1.3198-.2598,2.5669-.7798,3.7397-.52,1.1733-1.23,2.1934-2.1304,3.0601-.8999.8667-1.9497,1.5537-3.1499,2.0601-1.1997.5068-2.4868.7598-3.8599.7598-1.3599,0-2.6401-.2529-3.8398-.7598-1.2002-.5063-2.2471-1.1934-3.1401-2.0601-.8936-.8667-1.6001-1.8867-2.1201-3.0601-.52-1.1729-.7798-2.4199-.7798-3.7397ZM242.3489,101.5647c0-1.3335.2598-2.5869.7798-3.7603.52-1.1729,1.2266-2.1997,2.1201-3.0801.8931-.8799,1.9399-1.5728,3.1401-2.0796,1.1997-.5068,2.48-.7603,3.8398-.7603,1.373,0,2.6602.2534,3.8599.7603,1.2002.5068,2.25,1.1997,3.1499,2.0796.9004.8804,1.6104,1.9072,2.1304,3.0801.52,1.1733.7798,2.4268.7798,3.7603,0,1.3198-.2598,2.5669-.7798,3.7397-.52,1.1733-1.23,2.1934-2.1304,3.0601-.8999.8667-1.9497,1.5537-3.1499,2.0601-1.1997.5068-2.4868.7598-3.8599.7598-1.3599,0-2.6401-.2529-3.8398-.7598-1.2002-.5063-2.2471-1.1934-3.1401-2.0601-.8936-.8667-1.6001-1.8867-2.1201-3.0601-.52-1.1729-.7798-2.4199-.7798-3.7397ZM267.5487,101.5647c0-1.3335.2598-2.5869.7798-3.7603.52-1.1729,1.2266-2.1997,2.1201-3.0801.8931-.8799,1.9399-1.5728,3.1401-2.0796,1.1997-.5068,2.48-.7603,3.8398-.7603,1.373,0,2.6602.2534,3.8599.7603,1.2002.5068,2.25,1.1997,3.1499,2.0796.9004.8804,1.6104,1.9072,2.1304,3.0801.52,1.1733.7798,2.4268.7798,3.7603,0,1.3198-.2598,2.5669-.7798,3.7397-.52,1.1733-1.23,2.1934-2.1304,3.0601-.8999.8667-1.9497,1.5537-3.1499,2.0601-1.1997.5068-2.4868.7598-3.8599.7598-1.3599,0-2.6401-.2529-3.8398-.7598-1.2002-.5063-2.2471-1.1934-3.1401-2.0601-.8936-.8667-1.6001-1.8867-2.1201-3.0601-.52-1.1729-.7798-2.4199-.7798-3.7397ZM292.7479,101.5647c0-1.3335.2598-2.5869.7798-3.7603.52-1.1729,1.2266-2.1997,2.1201-3.0801.8931-.8799,1.9399-1.5728,3.1401-2.0796,1.1992-.5068,2.4795-.7603,3.8389-.7603,1.374,0,2.6602.2534,3.8604.7603s2.25,1.1997,3.1504,2.0796c.8994.8804,1.6094,1.9072,2.1299,3.0801.5195,1.1733.7803,2.4268.7803,3.7603,0,1.3198-.2607,2.5669-.7803,3.7397-.5205,1.1733-1.2305,2.1934-2.1299,3.0601-.9004.8667-1.9502,1.5537-3.1504,2.0601-1.2002.5068-2.4863.7598-3.8604.7598-1.3594,0-2.6396-.2529-3.8389-.7598-1.2002-.5063-2.2471-1.1934-3.1401-2.0601-.8936-.8667-1.6001-1.8867-2.1201-3.0601-.52-1.1729-.7798-2.4199-.7798-3.7397ZM142.7659,215.7561c0-1.3335.2598-2.5869.7798-3.7603.52-1.1729,1.2266-2.1997,2.1201-3.0801.8931-.8799,1.9399-1.5728,3.1401-2.0796,1.1997-.5068,2.48-.7603,3.8398-.7603,1.373,0,2.6602.2534,3.8599.7603,1.2002.5068,2.25,1.1997,3.1499,2.0796.9004.8804,1.6104,1.9072,2.1304,3.0801.52,1.1733.7798,2.4268.7798,3.7603,0,1.3198-.2598,2.5669-.7798,3.7397-.52,1.1733-1.23,2.1934-2.1304,3.0601-.8999.8667-1.9497,1.5537-3.1499,2.0601-1.1997.5068-2.4868.7598-3.8599.7598-1.3599,0-2.6401-.2529-3.8398-.7598-1.2002-.5063-2.2471-1.1934-3.1401-2.0601-.8936-.8667-1.6001-1.8867-2.1201-3.0601-.52-1.1729-.7798-2.4199-.7798-3.7397ZM167.9656,215.7561c0-1.3335.2598-2.5869.7798-3.7603.52-1.1729,1.2266-2.1997,2.1201-3.0801.8931-.8799,1.9399-1.5728,3.1401-2.0796,1.1997-.5068,2.48-.7603,3.8398-.7603,1.373,0,2.6602.2534,3.8599.7603,1.2002.5068,2.25,1.1997,3.1499,2.0796.9004.8804,1.6104,1.9072,2.1304,3.0801.52,1.1733.7798,2.4268.7798,3.7603,0,1.3198-.2598,2.5669-.7798,3.7397-.52,1.1733-1.23,2.1934-2.1304,3.0601-.8999.8667-1.9497,1.5537-3.1499,2.0601-1.1997.5068-2.4868.7598-3.8599.7598-1.3599,0-2.6401-.2529-3.8398-.7598-1.2002-.5063-2.2471-1.1934-3.1401-2.0601-.8936-.8667-1.6001-1.8867-2.1201-3.0601-.52-1.1729-.7798-2.4199-.7798-3.7397ZM193.1648,215.7561c0-1.3335.2598-2.5869.7798-3.7603.52-1.1729,1.2266-2.1997,2.1201-3.0801.8931-.8799,1.9399-1.5728,3.1401-2.0796,1.1997-.5068,2.48-.7603,3.8398-.7603,1.373,0,2.6602.2534,3.8599.7603,1.2002.5068,2.25,1.1997,3.1499,2.0796.9004.8804,1.6104,1.9072,2.1304,3.0801.52,1.1733.7798,2.4268.7798,3.7603,0,1.3198-.2598,2.5669-.7798,3.7397-.52,1.1733-1.23,2.1934-2.1304,3.0601-.8999.8667-1.9497,1.5537-3.1499,2.0601-1.1997.5068-2.4868.7598-3.8599.7598-1.3599,0-2.6401-.2529-3.8398-.7598-1.2002-.5063-2.2471-1.1934-3.1401-2.0601-.8936-.8667-1.6001-1.8867-2.1201-3.0601-.52-1.1729-.7798-2.4199-.7798-3.7397ZM218.364,215.7561c0-1.3335.2598-2.5869.7798-3.7603.52-1.1729,1.2266-2.1997,2.1201-3.0801.8931-.8799,1.9399-1.5728,3.1401-2.0796,1.1997-.5068,2.48-.7603,3.8398-.7603,1.373,0,2.6602.2534,3.8599.7603,1.2002.5068,2.25,1.1997,3.1499,2.0796.9004.8804,1.6104,1.9072,2.1304,3.0801.52,1.1733.7798,2.4268.7798,3.7603,0,1.3198-.2598,2.5669-.7798,3.7397-.52,1.1733-1.23,2.1934-2.1304,3.0601-.8999.8667-1.9497,1.5537-3.1499,2.0601-1.1997.5068-2.4868.7598-3.8599.7598-1.3599,0-2.6401-.2529-3.8398-.7598-1.2002-.5063-2.2471-1.1934-3.1401-2.0601-.8936-.8667-1.6001-1.8867-2.1201-3.0601-.52-1.1729-.7798-2.4199-.7798-3.7397ZM243.5638,215.7561c0-1.3335.2598-2.5869.7798-3.7603.52-1.1729,1.2266-2.1997,2.1201-3.0801.8931-.8799,1.9399-1.5728,3.1401-2.0796,1.1997-.5068,2.48-.7603,3.8398-.7603,1.373,0,2.6602.2534,3.8599.7603,1.2002.5068,2.25,1.1997,3.1499,2.0796.9004.8804,1.6104,1.9072,2.1304,3.0801.52,1.1733.7798,2.4268.7798,3.7603,0,1.3198-.2598,2.5669-.7798,3.7397-.52,1.1733-1.23,2.1934-2.1304,3.0601-.8999.8667-1.9497,1.5537-3.1499,2.0601-1.1997.5068-2.4868.7598-3.8599.7598-1.3599,0-2.6401-.2529-3.8398-.7598-1.2002-.5063-2.2471-1.1934-3.1401-2.0601-.8936-.8667-1.6001-1.8867-2.1201-3.0601-.52-1.1729-.7798-2.4199-.7798-3.7397ZM268.7635,215.7561c0-1.3335.2598-2.5869.7798-3.7603.52-1.1729,1.2266-2.1997,2.1201-3.0801.8931-.8799,1.9399-1.5728,3.1401-2.0796,1.1997-.5068,2.48-.7603,3.8398-.7603,1.373,0,2.6602.2534,3.8599.7603,1.2002.5068,2.25,1.1997,3.1499,2.0796.9004.8804,1.6104,1.9072,2.1304,3.0801.52,1.1733.7798,2.4268.7798,3.7603,0,1.3198-.2598,2.5669-.7798,3.7397-.52,1.1733-1.23,2.1934-2.1304,3.0601-.8999.8667-1.9497,1.5537-3.1499,2.0601-1.1997.5068-2.4868.7598-3.8599.7598-1.3599,0-2.6401-.2529-3.8398-.7598-1.2002-.5063-2.2471-1.1934-3.1401-2.0601-.8936-.8667-1.6001-1.8867-2.1201-3.0601-.52-1.1729-.7798-2.4199-.7798-3.7397ZM293.9627,215.7561c0-1.3335.2598-2.5869.7798-3.7603.52-1.1729,1.2266-2.1997,2.1201-3.0801.8931-.8799,1.9399-1.5728,3.1401-2.0796,1.1992-.5068,2.4795-.7603,3.8389-.7603,1.374,0,2.6602.2534,3.8604.7603s2.25,1.1997,3.1504,2.0796c.8994.8804,1.6094,1.9072,2.1299,3.0801.5195,1.1733.7803,2.4268.7803,3.7603,0,1.3198-.2607,2.5669-.7803,3.7397-.5205,1.1733-1.2305,2.1934-2.1299,3.0601-.9004.8667-1.9502,1.5537-3.1504,2.0601-1.2002.5068-2.4863.7598-3.8604.7598-1.3594,0-2.6396-.2529-3.8389-.7598-1.2002-.5063-2.2471-1.1934-3.1401-2.0601-.8936-.8667-1.6001-1.8867-2.1201-3.0601-.52-1.1729-.7798-2.4199-.7798-3.7397Z" style="fill: url(#n);"/>
    </g>
  </g>
</svg>