<?xml version="1.0" encoding="UTF-8"?>
<svg xmlns="http://www.w3.org/2000/svg" width="160mm" height="160mm" xmlns:xlink="http://www.w3.org/1999/xlink" viewBox="0 0 453.54 453.54">
  <defs>
    <linearGradient id="n" data-name="keyhole" x1="177.87" y1="158.4" x2="275.57" y2="158.4" gradientUnits="userSpaceOnUse">
      <stop offset="0" stop-color="#ee7159"/>
      <stop offset=".85" stop-color="#e62e27"/>
    </linearGradient>
  </defs>
  <g id="d" data-name="white">
    <g id="f" data-name="shield">
      <path id="g" data-name="bg" d="M227.54,377.43s.02,0,.03,0c22.5-2.4,80-45.4,98.9-95.7,28.7-52.9,34.6-152.1,36.3-157.6s5.4-10,10-13.3c4.7-3.3,10.7-5,18.1-5h42.9s0,.03.01.04c-3.18-12.11-12.03-22.68-24.21-27.74L243.57,8.73c-4.2-1.8-11.53-3.2-16.03-3.2h-.16c-4.6,0-11.67,1.4-15.87,3.2L45.61,78.13c-12.25,5.06-21.11,15.61-24.3,27.7h.02s42.98,0,42.98,0c7.4,0,13.4,1.7,18.1,5,4.7,3.4,8.4,7.8,10,13.3,1.7,5.5,7.7,104.7,36.3,157.6,18.89,50.28,76.15,93.26,98.67,95.7h.16Z" fill="#fff" isolation="isolate" opacity=".4" stroke-width="0"/>
      <path id="h" data-name="bg-r" d="M326.31,281.73c28.7-52.9,34.6-152.1,36.3-157.6s5.4-10,10-13.3c4.7-3.3,10.7-5,18.1-5h42.9s0,.03.01.04c-3.18-12.11-12.03-22.68-24.21-27.74L243.41,8.73c-4.2-1.8-11.53-3.2-16.03-3.2v371.9s.02,0,.03,0c22.5-2.4,80-45.4,98.9-95.7Z" fill="#fff" isolation="isolate" opacity=".2" stroke-width="0"/>
      <path id="i" data-name="v-shape" d="M227.41,377.43c22.5-2.4,80-45.4,98.9-95.7,28.7-52.9,34.6-152.1,36.3-157.6,1.7-5.5,5.4-10,10-13.3,4.7-3.3,10.7-5,18.1-5h42.9c1.7,5.2,2.4,11.5,1.5,30.1h0c-2.1,42.9-9.5,96-44.4,166.4-43.8,81.8-98,119.6-124.8,133.9-13.4,7-28,13.1-38.5,13.1h0c-10.5,0-24.9-6.1-38.3-13.1-26.9-14.3-81.1-52.2-124.8-133.9C29.51,231.93,22.01,178.93,19.91,135.93c-.8-18.6-.1-24.9,1.5-30.1h42.9c7.4,0,13.4,1.7,18.1,5,4.7,3.4,8.4,7.8,10,13.3,1.7,5.5,7.7,104.7,36.3,157.6,18.9,50.3,76.2,93.3,98.7,95.7h0Z" fill="#fff" stroke-width="0"/>
    </g>
  </g>
  <g id="m" data-name="icon">
    <g>
      <path d="M281.68,73h-30.53c13.49,0,24.43,10.93,24.43,24.43v6.11c0,3.36-2.75,6.11-6.11,6.11h-85.49c-3.37,0-6.11-2.75-6.11-6.11v-6.11c0-13.49,10.93-24.43,24.43-24.43h-30.53c-10.12,0-18.32,8.2-18.32,18.32v181.66c0,10.11,8.2,18.32,18.32,18.32h109.91c10.12,0,18.32-8.2,18.32-18.32V91.32c0-10.12-8.21-18.32-18.32-18.32ZM190.08,268.22c-5.06,0-9.16-4.1-9.16-9.16s4.1-9.16,9.16-9.16,9.16,4.1,9.16,9.16-4.08,9.16-9.16,9.16ZM196.19,228.53c-1.56,0-3.12-.6-4.32-1.79l-12.21-12.21c-2.39-2.39-2.39-6.25,0-8.63s6.25-2.39,8.63,0l7.9,7.9,20.11-20.11c2.39-2.39,6.25-2.39,8.63,0s2.39,6.25,0,8.63l-24.43,24.43c-1.19,1.17-2.75,1.78-4.32,1.78ZM269.47,265.17h-48.85c-3.36,0-6.11-2.75-6.11-6.11s2.75-6.11,6.11-6.11h48.85c3.36,0,6.11,2.75,6.11,6.11s-2.75,6.11-6.11,6.11ZM269.47,228.53h-36.64c-3.36,0-6.11-2.75-6.11-6.11s2.75-6.11,6.11-6.11h36.64c3.36,0,6.11,2.75,6.11,6.11s-2.75,6.11-6.11,6.11ZM223.44,149.75h24.4c.94,0,1.7.8,1.57,1.74-1.64,11.97-11.91,21.19-24.33,21.19-13.56,0-24.57-10.99-24.57-24.57,0-12.42,9.22-22.69,21.1-24.34,1.03-.13,1.83.63,1.83,1.57v24.4Z" fill="#fff" isolation="isolate" stroke-width="0"/>
      <path d="M251.15,73c0-13.49-10.93-24.43-24.43-24.43s-24.43,10.93-24.43,24.43c-13.49,0-24.43,10.93-24.43,24.43v6.11c0,3.36,2.73,6.11,6.11,6.11h85.49c3.36,0,6.11-2.75,6.11-6.11v-6.11c0-13.49-10.95-24.43-24.43-24.43ZM226.72,82.16c-5.08,0-9.16-4.1-9.16-9.16s4.1-9.16,9.16-9.16,9.16,4.1,9.16,9.16-4.08,9.16-9.16,9.16ZM190.08,249.9c-5.06,0-9.16,4.1-9.16,9.16s4.1,9.16,9.16,9.16,9.16-4.1,9.16-9.16-4.08-9.16-9.16-9.16ZM216.3,193.69l-20.11,20.11-7.9-7.9c-2.39-2.39-6.25-2.39-8.63,0s-2.39,6.25,0,8.63l12.21,12.21c1.19,1.18,2.75,1.79,4.32,1.79s3.12-.6,4.32-1.79l24.43-24.43c2.39-2.39,2.39-6.25,0-8.63s-6.26-2.4-8.63,0ZM228.36,121.97c0-.92.62-1.7,1.64-1.7,12.66,0,22.93,10.27,22.93,22.93,0,.92-.78,1.64-1.7,1.64h-22.87v-22.87Z" fill="url(#n)" stroke-width="0"/>
    </g>
  </g>
</svg>