<?xml version="1.0" encoding="UTF-8"?>
<svg xmlns="http://www.w3.org/2000/svg" width="160mm" height="160mm" xmlns:xlink="http://www.w3.org/1999/xlink" viewBox="0 0 453.54 453.54">
  <defs>
    <linearGradient id="n" data-name="Unbenannter Verlauf 44" x1="132.42" y1="290.72" x2="244.02" y2="402.32" gradientTransform="translate(0 521.49) scale(1 -1)" gradientUnits="userSpaceOnUse">
      <stop offset="0" stop-color="#ee7159"/>
      <stop offset=".42" stop-color="#e62e27"/>
    </linearGradient>
  </defs>
  <g id="g" data-name="color">
    <g id="i" data-name="shield">
      <path id="j" data-name="bg" d="M226.88,378.09s.02,0,.03,0c22.5-2.4,80-45.4,98.9-95.7,28.7-52.9,34.6-152.1,36.3-157.6s5.4-10,10-13.3c4.7-3.3,10.7-5,18.1-5h42.9s0,.03.01.04c-3.18-12.11-12.03-22.68-24.21-27.74L242.91,9.4c-4.2-1.8-11.53-3.2-16.03-3.2h-.16c-4.6,0-11.67,1.4-15.87,3.2L44.95,78.8c-12.25,5.06-21.11,15.61-24.3,27.7h.02s42.98,0,42.98,0c7.4,0,13.4,1.7,18.1,5,4.7,3.4,8.4,7.8,10,13.3,1.7,5.5,7.7,104.7,36.3,157.6,18.89,50.28,76.15,93.26,98.67,95.7h.16Z" fill="#0967ad" isolation="isolate" opacity=".4" stroke-width="0"/>
      <path id="k" data-name="bg-r" d="M325.65,282.4c28.7-52.9,34.6-152.1,36.3-157.6s5.4-10,10-13.3c4.7-3.3,10.7-5,18.1-5h42.9s0,.03.01.04c-3.18-12.11-12.03-22.68-24.21-27.74L242.75,9.4c-4.2-1.8-11.53-3.2-16.03-3.2v371.9s.02,0,.03,0c22.5-2.4,80-45.4,98.9-95.7Z" fill="#0967ad" isolation="isolate" opacity=".2" stroke-width="0"/>
      <path id="l" data-name="v-shape" d="M226.75,378.1c22.5-2.4,80-45.4,98.9-95.7,28.7-52.9,34.6-152.1,36.3-157.6,1.7-5.5,5.4-10,10-13.3,4.7-3.3,10.7-5,18.1-5h42.9c1.7,5.2,2.4,11.5,1.5,30.1h0c-2.1,42.9-9.5,96-44.4,166.4-43.8,81.8-98,119.6-124.8,133.9-13.4,7-28,13.1-38.5,13.1h0c-10.5,0-24.9-6.1-38.3-13.1-26.9-14.3-81.1-52.2-124.8-133.9C28.85,232.6,21.35,179.6,19.25,136.6c-.8-18.6-.1-24.9,1.5-30.1h42.9c7.4,0,13.4,1.7,18.1,5,4.7,3.4,8.4,7.8,10,13.3,1.7,5.5,7.7,104.7,36.3,157.6,18.9,50.3,76.2,93.3,98.7,95.7h0Z" fill="#0967ad" stroke-width="0"/>
    </g>
  </g>
  <g id="m" data-name="icon">
    <g>
      <path d="M303.65,188.77l.27-14.47c.27-13.32-10.31-24.34-23.63-24.62-13.32-.27-24.34,10.31-24.62,23.63,0,.33,0,.65,0,.98v14.47c-5.33,0-9.65,4.32-9.65,9.65h0v38.34c-.12,5.36,4.12,9.8,9.48,9.92.06,0,.12,0,.17,0h48c5.39.09,9.83-4.21,9.92-9.6,0-.11,0-.22,0-.32v-38.34c-.03-5.36-4.39-9.68-9.75-9.65-.06,0-.13,0-.19,0ZM289.44,188.77h-19.3v-14.47c0-5.33,4.32-9.65,9.65-9.65s9.65,4.32,9.65,9.65v14.47ZM217.06,92.27v38.6h38.61l-38.61-38.6Z" fill="#fff" stroke-width="0"/>
      <path d="M217.06,130.87v-38.6h-62.68c-7.99-.03-14.49,6.43-14.52,14.42,0,.02,0,.03,0,.05v125.46c0,8,6.48,14.48,14.48,14.48.01,0,.03,0,.04,0h84.72c-1.77-3-2.7-6.43-2.69-9.92v-38.34c0-6.89,3.69-13.26,9.66-16.71v-7.41c0-8.82,3.47-17.28,9.65-23.57v-19.86h-38.66Z" fill="url(#n)" stroke-width="0"/>
      <path d="M193.86,154.03c0-7.48,6.07-13.55,13.55-13.55s13.55,6.07,13.55,13.55-6.07,13.55-13.55,13.55c0,0-.02,0-.03,0-7.44.03-13.49-5.98-13.52-13.42,0-.04,0-.09,0-.13ZM207.38,149.49c-2.5,0-4.52,2.02-4.52,4.52,0,2.5,2.02,4.52,4.52,4.52,2.5,0,4.52-2.02,4.52-4.52s-2.02-4.52-4.52-4.52h0ZM157.72,172.1c0-7.48,6.07-13.55,13.55-13.55s13.55,6.07,13.55,13.55-6.07,13.55-13.55,13.55c-7.44.04-13.51-5.95-13.55-13.39,0-.05,0-.11,0-.16ZM171.27,176.62c2.5,0,4.52-2.02,4.52-4.52s-2.02-4.52-4.52-4.52c-2.5,0-4.52,2.02-4.52,4.52s2.02,4.52,4.52,4.52h0ZM220.96,190.17c0,7.48-6.07,13.55-13.56,13.54-7.48,0-13.54-6.07-13.54-13.54,0-7.48,6.07-13.55,13.56-13.54,7.48,0,13.54,6.07,13.54,13.54ZM207.38,194.69c2.5,0,4.52-2.02,4.52-4.52,0-2.5-2.02-4.52-4.52-4.52-2.5,0-4.52,2.02-4.52,4.52s2.02,4.52,4.52,4.52h0Z" fill="#fff" stroke-width="0"/>
      <path d="M184.73,170.42c-.39-3.08-1.82-5.93-4.06-8.07l13.29-6.64c.37,3.07,1.78,5.92,4,8.08l-13.23,6.63ZM198.01,180.42c-2.22,2.15-3.63,5-4,8.07l-13.29-6.63c2.24-2.15,3.67-5,4.06-8.08l13.23,6.64Z" fill="#fff" stroke-width="0"/>
    </g>
  </g>
</svg>