<?xml version="1.0" encoding="UTF-8"?>
<svg id="g" data-name="color" xmlns="http://www.w3.org/2000/svg" width="632mm" height="180mm" xmlns:xlink="http://www.w3.org/1999/xlink" viewBox="0 0 1791.5 510.24">
  <defs>
    <linearGradient id="h" data-name="font-red" x1="1041.37" y1="449.94" x2="1696.69" y2="71.59" gradientUnits="userSpaceOnUse">
      <stop offset="0" stop-color="#ee7159"/>
      <stop offset=".3" stop-color="#e62e27"/>
    </linearGradient>
    <linearGradient id="n" data-name="keyhole" x1="419.01" y1="189.28" x2="524.08" y2="249.94" gradientUnits="userSpaceOnUse">
      <stop offset="0" stop-color="#ee7159"/>
      <stop offset=".85" stop-color="#e62e27"/>
    </linearGradient>
  </defs>
  <path d="M1091.13,107.95v315.14h-65.26V107.95h65.26ZM1143.75,423.1v-218.31h40.42c4.07,0,7.47.91,10.21,2.74,2.74,1.83,4.66,4.56,5.79,8.21l3.79,12.63c4.21-3.93,8.56-7.58,13.05-10.95,4.49-3.37,9.3-6.21,14.42-8.53,5.12-2.32,10.66-4.14,16.63-5.47,5.96-1.33,12.45-2,19.47-2,11.93,0,22.49,2.07,31.68,6.21,9.19,4.14,16.95,9.89,23.26,17.26,6.32,7.37,11.08,16.14,14.32,26.31,3.23,10.18,4.84,21.23,4.84,33.16v138.73h-65.26v-138.73c0-10.66-2.46-18.98-7.37-24.95-4.91-5.96-12.14-8.95-21.68-8.95-7.16,0-13.89,1.55-20.21,4.63-6.32,3.09-12.35,7.23-18.1,12.42v155.57h-65.26ZM1453.21,107.95v176.62h9.68c4.07,0,7.19-.56,9.37-1.68,2.17-1.12,4.24-3.16,6.21-6.1l41.26-61.47c2.38-3.65,5.23-6.32,8.53-8,3.3-1.68,7.47-2.53,12.53-2.53h59.79l-56.42,77.68c-2.67,3.65-5.58,6.88-8.74,9.68-3.16,2.81-6.56,5.34-10.21,7.58,6.32,4.77,11.79,11.09,16.42,18.95l61.47,104.42h-58.94c-4.91,0-9.16-.81-12.74-2.42-3.58-1.61-6.49-4.45-8.74-8.53l-41.26-77.26c-1.97-3.51-4-5.79-6.11-6.84s-5.26-1.58-9.47-1.58h-12.63v96.63h-65.26V107.95h65.26ZM1630.46,423.1v-218.31h38.74c3.23,0,5.93.28,8.1.84,2.17.56,4,1.44,5.47,2.63,1.47,1.19,2.6,2.77,3.37,4.74.77,1.97,1.44,4.35,2,7.16l3.58,20.42c8-12.35,16.98-22.1,26.95-29.26,9.96-7.16,20.84-10.74,32.63-10.74,9.96,0,17.96,2.39,24,7.16l-8.42,48c-.56,2.95-1.68,5.02-3.37,6.21-1.68,1.19-3.93,1.79-6.74,1.79-2.39,0-5.19-.32-8.42-.95-3.23-.63-7.3-.95-12.21-.95-17.12,0-30.6,9.12-40.42,27.37v133.89h-65.26Z" fill="url(#h)" stroke-width="0"/>
  <g id="i" data-name="logo-shield">
    <path id="j" data-name="bg" d="M476.78,378.09s.02,0,.03,0c22.5-2.4,80-45.4,98.9-95.7,28.7-52.9,34.6-152.1,36.3-157.6s5.4-10,10-13.3c4.7-3.3,10.7-5,18.1-5h42.9s0,.03.01.04c-3.18-12.11-12.03-22.68-24.21-27.74L492.81,9.4c-4.2-1.8-11.53-3.2-16.03-3.2h-.16c-4.6,0-11.67,1.4-15.87,3.2l-165.9,69.4c-12.25,5.06-21.11,15.61-24.3,27.7h.02s42.98,0,42.98,0c7.4,0,13.4,1.7,18.1,5,4.7,3.4,8.4,7.8,10,13.3,1.7,5.5,7.7,104.7,36.3,157.6,18.89,50.28,76.15,93.26,98.67,95.7h.16Z" fill="#0967ad" isolation="isolate" opacity=".4" stroke-width="0"/>
    <path id="k" data-name="bg-r" d="M575.55,282.4c28.7-52.9,34.6-152.1,36.3-157.6s5.4-10,10-13.3c4.7-3.3,10.7-5,18.1-5h42.9s0,.03.01.04c-3.18-12.11-12.03-22.68-24.21-27.74L492.65,9.4c-4.2-1.8-11.53-3.2-16.03-3.2v371.9s.02,0,.03,0c22.5-2.4,80-45.4,98.9-95.7Z" fill="#0967ad" isolation="isolate" opacity=".2" stroke-width="0"/>
    <path id="l" data-name="v-shape" d="M476.65,378.1c22.5-2.4,80-45.4,98.9-95.7,28.7-52.9,34.6-152.1,36.3-157.6,1.7-5.5,5.4-10,10-13.3,4.7-3.3,10.7-5,18.1-5h42.9c1.7,5.2,2.4,11.5,1.5,30.1h0c-2.1,42.9-9.5,96-44.4,166.4-43.8,81.8-98,119.6-124.8,133.9-13.4,7-28,13.1-38.5,13.1h0c-10.5,0-24.9-6.1-38.3-13.1-26.9-14.3-81.1-52.2-124.8-133.9-34.8-70.4-42.3-123.4-44.4-166.4-.8-18.6-.1-24.9,1.5-30.1h42.9c7.4,0,13.4,1.7,18.1,5,4.7,3.4,8.4,7.8,10,13.3,1.7,5.5,7.7,104.7,36.3,157.6,18.9,50.3,76.2,93.3,98.7,95.7h0Z" fill="#0967ad" stroke-width="0"/>
  </g>
  <g id="m" data-name="logo-icon">
    <path id="o" data-name="keyhole" d="M476.53,138c-26.7,0-48.4,21.7-48.4,48.5,0,19.3,11.4,35.9,27.7,43.7v60.3c0,11.5,9.3,20.8,20.8,20.8s20.8-9.3,20.8-20.8v-60.3c16.3-7.8,27.6-24.4,27.5-43.7,0-26.8-21.7-48.5-48.4-48.5ZM503.53,193.7h-18.7v18.7h-16.1v-18.7h-18.7v-16.1h18.7v-18.8h16.1v18.8h18.7v16.1Z" fill="url(#n)" stroke-width="0"/>
    <polygon id="p" data-name="cross" points="468.73 177.6 450.03 177.6 450.03 193.7 468.73 193.7 468.73 212.4 484.83 212.4 484.83 193.7 503.53 193.7 503.53 177.6 484.83 177.6 484.83 158.8 468.73 158.8 468.73 177.6" fill="#fff" stroke-width="0"/>
  </g>
  <g id="q" data-name="PV">
    <path d="M902.93,306.2v116.3h-70.9v-116.3l-110.8-189.5h62.5c6.2,0,11,1.4,14.7,4.3,3.6,2.9,6.6,6.5,8.8,11l43.2,89c3.5,7.1,6.7,13.7,9.6,19.7,3,6,5.6,11.9,7.8,17.9,2.1-6,4.6-12,7.6-18s6.1-12.5,9.4-19.5l42.8-89c.8-1.8,2-3.6,3.5-5.5,1.5-1.8,3.1-3.5,5-4.9,1.9-1.4,4.1-2.7,6.5-3.6,2.4-.9,5.1-1.3,8.1-1.3h62.9l-110.7,189.4h0Z" fill="#0967ad" stroke-width="0"/>
    <path d="M79.33,320.9v102.2H8.33V117.4h107.8c21.5,0,40,2.5,55.5,7.6,15.4,5.1,28.2,12.2,38.2,21.1,10,9,17.3,19.5,22.2,31.7,4.7,12.2,7.1,25.3,7.1,39.4,0,15.3-2.4,29.2-7.3,42-4.9,12.8-12.4,23.7-22.5,32.7-10.1,9.1-22.8,16.2-38.3,21.3s-33.7,7.6-54.9,7.6h-36.8v.1h0ZM79.33,267.5h36.9c18.5,0,31.7-4.4,39.9-13.2,8.1-8.8,12.2-21.1,12.2-36.9,0-7-1-13.3-3.1-19.1-2.1-5.7-5.3-10.7-9.6-14.8-4.3-4.2-9.6-7.3-16.2-9.6-6.6-2.3-14.2-3.3-23.2-3.3h-36.9v96.9h0Z" fill="#0967ad" stroke-width="0"/>
  </g>
</svg>