<?xml version="1.0" encoding="UTF-8"?>
<svg xmlns="http://www.w3.org/2000/svg" width="160mm" height="160mm" xmlns:xlink="http://www.w3.org/1999/xlink" viewBox="0 0 453.54 453.54">
  <defs>
    <linearGradient id="n" data-name="Unbenannter Verlauf 2" x1="218.73" y1="175.41" x2="236.27" y2="165.28" gradientUnits="userSpaceOnUse">
      <stop offset="0" stop-color="#ee7159"/>
      <stop offset=".84" stop-color="#e62e27"/>
    </linearGradient>
    <linearGradient id="o" data-name="Unbenannter Verlauf 2" x1="121.95" y1="177.7" x2="151.64" y2="160.56" xlink:href="#n"/>
    <linearGradient id="p" data-name="Unbenannter Verlauf 2" x1="285" y1="125.14" x2="314.68" y2="108" xlink:href="#n"/>
    <linearGradient id="q" data-name="Unbenannter Verlauf 2" x1="184.28" y1="263.37" x2="213.96" y2="246.23" xlink:href="#n"/>
    <linearGradient id="r" data-name="Unbenannter Verlauf 2" x1="285" y1="230.62" x2="314.68" y2="213.48" xlink:href="#n"/>
    <linearGradient id="s" data-name="Unbenannter Verlauf 2" x1="185.2" y1="93.64" x2="214.89" y2="76.5" xlink:href="#n"/>
  </defs>
  <g id="d" data-name="white">
    <g id="f" data-name="shield">
      <path id="g" data-name="bg" d="M227.54,377.43s.02,0,.03,0c22.5-2.4,80-45.4,98.9-95.7,28.7-52.9,34.6-152.1,36.3-157.6s5.4-10,10-13.3c4.7-3.3,10.7-5,18.1-5h42.9s0,.03.01.04c-3.18-12.11-12.03-22.68-24.21-27.74L243.57,8.73c-4.2-1.8-11.53-3.2-16.03-3.2h-.16c-4.6,0-11.67,1.4-15.87,3.2L45.61,78.13c-12.25,5.06-21.11,15.61-24.3,27.7h.02s42.98,0,42.98,0c7.4,0,13.4,1.7,18.1,5,4.7,3.4,8.4,7.8,10,13.3,1.7,5.5,7.7,104.7,36.3,157.6,18.89,50.28,76.15,93.26,98.67,95.7h.16Z" fill="#fff" isolation="isolate" opacity=".4" stroke-width="0"/>
      <path id="h" data-name="bg-r" d="M326.31,281.73c28.7-52.9,34.6-152.1,36.3-157.6s5.4-10,10-13.3c4.7-3.3,10.7-5,18.1-5h42.9s0,.03.01.04c-3.18-12.11-12.03-22.68-24.21-27.74L243.41,8.73c-4.2-1.8-11.53-3.2-16.03-3.2v371.9s.02,0,.03,0c22.5-2.4,80-45.4,98.9-95.7Z" fill="#fff" isolation="isolate" opacity=".2" stroke-width="0"/>
      <path id="i" data-name="v-shape" d="M227.41,377.43c22.5-2.4,80-45.4,98.9-95.7,28.7-52.9,34.6-152.1,36.3-157.6,1.7-5.5,5.4-10,10-13.3,4.7-3.3,10.7-5,18.1-5h42.9c1.7,5.2,2.4,11.5,1.5,30.1h0c-2.1,42.9-9.5,96-44.4,166.4-43.8,81.8-98,119.6-124.8,133.9-13.4,7-28,13.1-38.5,13.1h0c-10.5,0-24.9-6.1-38.3-13.1-26.9-14.3-81.1-52.2-124.8-133.9C29.51,231.93,22.01,178.93,19.91,135.93c-.8-18.6-.1-24.9,1.5-30.1h42.9c7.4,0,13.4,1.7,18.1,5,4.7,3.4,8.4,7.8,10,13.3,1.7,5.5,7.7,104.7,36.3,157.6,18.9,50.3,76.2,93.3,98.7,95.7h0Z" fill="#fff" stroke-width="0"/>
    </g>
  </g>
  <g id="m" data-name="icon">
    <g>
      <path d="M260.91,184.46c2.1-4.73,3.27-10,3.27-15.58,0-20.23-16.73-37.37-37.38-37.37-17.84,0-33.06,12.78-36.87,29.31h-38.15c1.38,2.46,2.16,5.29,2.16,8.3,0,3.33-.97,6.44-2.62,9.08h38.83c2.48,9.84,8.81,18.07,17.24,23.12l-11.85,36.72c1.16-.24,2.34-.38,3.57-.38,5.16,0,9.77,2.29,12.91,5.89l11.93-36.97c.94.07,1.88.1,2.83.1,8.94,0,17.15-3.14,23.58-8.41l32.35,23.4c.14-6.43,3.81-11.99,9.17-14.81l-30.99-22.41ZM226.77,190.67c-11.84,0-21.66-9.59-21.66-21.66s9.83-21.42,21.66-21.42,21.42,9.83,21.42,21.42-9.59,21.66-21.42,21.66Z" fill="#f0b4ac" isolation="isolate" stroke-width="0"/>
      <path d="M226.77,147.58c-11.84,0-21.66,9.83-21.66,21.42s9.83,21.66,21.66,21.66,21.42-9.59,21.42-21.66-9.59-21.42-21.42-21.42ZM230.14,172.12v10.08c0,1.92-1.55,3.48-3.48,3.48s-3.48-1.55-3.48-3.48v-10.08c-2.72-1.3-4.63-4.08-4.63-7.3,0-4.48,3.63-8.11,8.09-8.11s8.09,3.63,8.09,8.11c.02,3.23-1.87,6-4.6,7.3ZM308.53,131.33v75.97c-2.55-1.51-5.51-2.39-8.69-2.39s-6.14.88-8.69,2.39v-75.97c2.55,1.51,5.51,2.39,8.69,2.39s6.14-.88,8.69-2.39ZM195.98,101.7l-43.61,60.29c-2.54-5.52-7.91-9.46-14.26-9.94l45.36-62.71c1.57,6.09,6.39,10.86,12.51,12.36ZM216.29,79.62l72.92,23.53c-3.96,3.14-6.51,7.99-6.51,13.42,0,.96.1,1.9.25,2.82l-70.35-22.69c2.83-3.06,4.58-7.14,4.58-11.63,0-1.91-.32-3.73-.9-5.45Z" fill="#fff" isolation="isolate" stroke-width="0"/>
      <path d="M226.65,156.7c-4.46,0-8.09,3.63-8.09,8.11,0,3.23,1.91,6,4.63,7.3v10.08c0,1.92,1.55,3.48,3.48,3.48s3.48-1.55,3.48-3.48v-10.08c2.72-1.3,4.61-4.08,4.6-7.3,0-4.48-3.63-8.11-8.09-8.11Z" fill="url(#n)" stroke-width="0"/>
      <polygon points="225.42 163.32 222.3 163.32 222.3 166.02 225.42 166.02 225.42 169.14 228.11 169.14 228.11 166.02 231.24 166.02 231.24 163.32 228.11 163.32 228.11 160.18 225.42 160.18 225.42 163.32" fill="#fff" stroke-width="0"/>
      <path d="M136.8,151.99c-9.47,0-17.14,7.69-17.14,17.14s7.67,17.14,17.14,17.14,17.14-7.69,17.14-17.14-7.67-17.14-17.14-17.14Z" fill="url(#o)" stroke-width="0"/>
      <path d="M299.84,133.71c9.47,0,17.14-7.69,17.14-17.14s-7.67-17.14-17.14-17.14-17.14,7.69-17.14,17.14,7.67,17.14,17.14,17.14Z" fill="url(#p)" stroke-width="0"/>
      <path d="M199.12,237.66c-9.47,0-17.14,7.69-17.14,17.14s7.67,17.14,17.14,17.14,17.14-7.69,17.14-17.14-7.67-17.14-17.14-17.14Z" fill="url(#q)" stroke-width="0"/>
      <path d="M299.84,204.91c-9.47,0-17.14,7.69-17.14,17.14s7.67,17.14,17.14,17.14,17.14-7.69,17.14-17.14-7.67-17.14-17.14-17.14Z" fill="url(#r)" stroke-width="0"/>
      <path d="M200.05,67.93c-9.47,0-17.14,7.69-17.14,17.14s7.67,17.14,17.14,17.14,17.14-7.69,17.14-17.14-7.67-17.14-17.14-17.14Z" fill="url(#s)" stroke-width="0"/>
    </g>
  </g>
</svg>