<?xml version="1.0" encoding="UTF-8"?>
<svg xmlns="http://www.w3.org/2000/svg" width="160mm" height="160mm" xmlns:xlink="http://www.w3.org/1999/xlink" viewBox="0 0 453.54 453.54">
  <defs>
    <linearGradient id="n" data-name="Unbenannter Verlauf 2" x1="141.76" y1="232.85" x2="305.46" y2="138.34" gradientUnits="userSpaceOnUse">
      <stop offset="0" stop-color="#ee7159"/>
      <stop offset=".84" stop-color="#e62e27"/>
    </linearGradient>
  </defs>
  <g id="g" data-name="color">
    <g id="i" data-name="shield">
      <path id="j" data-name="bg" d="M226.88,378.09s.02,0,.03,0c22.5-2.4,80-45.4,98.9-95.7,28.7-52.9,34.6-152.1,36.3-157.6s5.4-10,10-13.3c4.7-3.3,10.7-5,18.1-5h42.9s0,.03.01.04c-3.18-12.11-12.03-22.68-24.21-27.74L242.91,9.4c-4.2-1.8-11.53-3.2-16.03-3.2h-.16c-4.6,0-11.67,1.4-15.87,3.2L44.95,78.8c-12.25,5.06-21.11,15.61-24.3,27.7h.02s42.98,0,42.98,0c7.4,0,13.4,1.7,18.1,5,4.7,3.4,8.4,7.8,10,13.3,1.7,5.5,7.7,104.7,36.3,157.6,18.89,50.28,76.15,93.26,98.67,95.7h.16Z" fill="#0967ad" isolation="isolate" opacity=".4" stroke-width="0"/>
      <path id="k" data-name="bg-r" d="M325.65,282.4c28.7-52.9,34.6-152.1,36.3-157.6s5.4-10,10-13.3c4.7-3.3,10.7-5,18.1-5h42.9s0,.03.01.04c-3.18-12.11-12.03-22.68-24.21-27.74L242.75,9.4c-4.2-1.8-11.53-3.2-16.03-3.2v371.9s.02,0,.03,0c22.5-2.4,80-45.4,98.9-95.7Z" fill="#0967ad" isolation="isolate" opacity=".2" stroke-width="0"/>
      <path id="l" data-name="v-shape" d="M226.75,378.1c22.5-2.4,80-45.4,98.9-95.7,28.7-52.9,34.6-152.1,36.3-157.6,1.7-5.5,5.4-10,10-13.3,4.7-3.3,10.7-5,18.1-5h42.9c1.7,5.2,2.4,11.5,1.5,30.1h0c-2.1,42.9-9.5,96-44.4,166.4-43.8,81.8-98,119.6-124.8,133.9-13.4,7-28,13.1-38.5,13.1h0c-10.5,0-24.9-6.1-38.3-13.1-26.9-14.3-81.1-52.2-124.8-133.9C28.85,232.6,21.35,179.6,19.25,136.6c-.8-18.6-.1-24.9,1.5-30.1h42.9c7.4,0,13.4,1.7,18.1,5,4.7,3.4,8.4,7.8,10,13.3,1.7,5.5,7.7,104.7,36.3,157.6,18.9,50.3,76.2,93.3,98.7,95.7h0Z" fill="#0967ad" stroke-width="0"/>
    </g>
  </g>
  <g id="m" data-name="icon">
    <g>
      <path d="M254.07,132.68c-2.03-1.22-4.46-1.58-6.75-1.01-15.57,3.88-31.86,3.88-47.44,0-4.74-1.18-9.57,1.71-10.75,6.5-3.85,15.36-11.8,29.39-22.66,40.58l-.89.56c-3.49,3.49-3.49,9.13,0,12.61l.56.59c11.19,11.18,19.13,25.18,22.98,40.51,1.19,4.77,6.02,7.67,10.79,6.48,15.57-3.88,31.86-3.88,47.44,0,4.76,1.18,9.58-1.72,10.77-6.48,3.84-15.34,11.77-29.36,22.95-40.54l.58-.58c3.48-3.47,3.48-9.12.01-12.6l-.88-.54c-11.19-11.19-19.13-25.22-22.98-40.58-.24-2.63-1.69-4.27-3.73-5.49ZM242.94,220.44c-13.01-2.23-26.31-2.23-38.99,0-4.34-12.76-11.09-24.59-19.92-34.83,8.83-10.28,15.58-22.11,19.92-35.24,13.01,2.23,26.31,2.23,38.99,0,4.33,12.81,11.1,24.65,19.91,34.9-8.49,10.58-15.24,22.41-19.91,35.17ZM326.96,177.23h0l-1.04-1.04c-21.1-21.12-36.07-47.59-43.33-76.53-1.6-6.36-8.04-10.26-14.4-8.67,0,0,0,0,0,0-29.29,7.3-59.95,7.29-89.25,0-6.33-1.6-12.71,2.26-14.31,8.61-7.25,28.97-22.23,55.46-43.33,76.6l-1.04,1.03c-4.64,4.3-4.64,12.17,0,16.8,0,0,0,0,0,0l1.07,1.07c21.09,21.1,36.06,47.52,43.33,76.49,1.6,6.35,8.03,10.2,14.38,8.62,29.29-7.3,59.95-7.3,89.25,0,6.35,1.58,12.73-2.28,14.33-8.62,7.25-28.94,22.22-55.38,43.33-76.49l1.06-1.06c4.59-4.64,4.59-12.17-.04-16.81ZM262.71,254.68c-25.84-4.93-52.38-4.93-78.23,0-8.09-25.56-21.54-49.11-39.43-69.03,17.92-19.98,31.37-43.55,39.47-69.14,25.84,4.93,52.38,4.93,78.2,0,8.08,25.59,21.53,49.15,39.47,69.14-17.92,19.92-31.35,43.47-39.47,69.03Z" fill="url(#n)" stroke-width="0"/>
      <path d="M189.12,138.17c1.19-4.79,6.01-7.68,10.79-6.53,1.16.29,2.35.41,3.52.65l-8.16-14.29c-3.59-.49-7.19-.85-10.75-1.53-1.23,3.84-2.79,7.52-4.23,11.24l7.46,13.64c.67-1.07,1.11-2.11,1.37-3.18ZM165.56,191.92c-3.49-3.49-3.49-9.13,0-12.61l.56-.56c.62-.62,1.14-1.37,1.77-2.03h-15.68c-2.36,3-4.61,6.08-7.16,8.9,2.56,2.85,4.81,5.92,7.18,8.91h15.67c-.6-.64-1.12-1.38-1.79-2.01l-.56-.59ZM189.12,233.02c-.27-1.08-.71-2.09-1.02-3.16l-7.79,13.64c1.44,3.71,2.99,7.36,4.2,11.16,3.58-.68,7.21-1.05,10.82-1.54l8.16-14.29c-1.18.25-2.39.37-3.56.66-4.78,1.2-9.61-1.69-10.79-6.48ZM257.78,233.02c-1.19,4.76-6.01,7.66-10.77,6.48-1.18-.29-2.4-.41-3.59-.66l8.16,14.29c3.61.49,7.23.86,10.82,1.54,1.2-3.8,2.76-7.46,4.2-11.16l-7.79-13.65c.02,1.08-.43,2.09-1.02,3.16ZM294.99,176.71h-15.66c.61.65,1.13,1.39,1.76,2.02l.54.56c3.47,3.48,3.47,9.13-.01,12.6l-.58.58c-.64.64-1.17,1.39-1.79,2.05h15.71c2.37-2.99,4.63-6.06,7.18-8.91-2.53-2.86-4.8-5.9-7.17-8.91ZM251.96,118.01l-8.16,14.29c1.17-.25,2.36-.36,3.52-.65,2.3-.58,4.73-.21,6.75,1.01,2.03,1.22,3.48,3.2,4.05,5.5.27,1.08.71,2.1,1.03,3.17l7.78-13.62c-1.45-3.73-3.01-7.41-4.22-11.24-3.55.68-7.15,1.04-10.75,1.53ZM238.97,194.48h17.41c2.13-3.07,4.34-6.05,6.79-8.89-2.44-2.84-4.66-5.84-6.77-8.91h-17.43s8.69-15.22,8.69-15.22c-1.64-3.51-3.14-7.09-4.39-10.77-3.55.61-7.13,1.02-10.71,1.29l-9.27,15.71-8.61-15.69c-3.6-.3-7.16-.7-10.72-1.63-1.26,4.01-2.75,7.6-4.38,11.09l8.67,15.21-17.43.03c-2.11,3.04-4.34,6.05-6.79,8.9,2.45,2.85,4.66,5.82,6.78,8.9h17.4s-8.65,15.24-8.65,15.24c1.63,3.49,3.13,7.05,4.37,10.71,3.57-.61,7.16-1.02,10.76-1.3l8.9-15.68,8.9,15.68c3.6.28,7.19.68,10.76,1.3,1.24-3.66,2.74-7.22,4.37-10.71l-8.66-15.28Z" fill="#fff" isolation="isolate" stroke-width="0"/>
    </g>
  </g>
</svg>