<?xml version="1.0" encoding="UTF-8"?>
<svg xmlns="http://www.w3.org/2000/svg" width="160mm" height="160mm" xmlns:xlink="http://www.w3.org/1999/xlink" viewBox="0 0 453.54 453.54">
  <defs>
    <linearGradient id="n" data-name="Unbenannter Verlauf 4" x1="125.92" y1="260.16" x2="370.16" y2="119.14" gradientUnits="userSpaceOnUse">
      <stop offset="0" stop-color="#ee7159"/>
      <stop offset=".25" stop-color="#e62e27"/>
    </linearGradient>
  </defs>
  <g id="d" data-name="white">
    <g id="f" data-name="shield">
      <path id="g" data-name="bg" d="M227.54,377.43s.02,0,.03,0c22.5-2.4,80-45.4,98.9-95.7,28.7-52.9,34.6-152.1,36.3-157.6s5.4-10,10-13.3c4.7-3.3,10.7-5,18.1-5h42.9s0,.03.01.04c-3.18-12.11-12.03-22.68-24.21-27.74L243.57,8.73c-4.2-1.8-11.53-3.2-16.03-3.2h-.16c-4.6,0-11.67,1.4-15.87,3.2L45.61,78.13c-12.25,5.06-21.11,15.61-24.3,27.7h.02s42.98,0,42.98,0c7.4,0,13.4,1.7,18.1,5,4.7,3.4,8.4,7.8,10,13.3,1.7,5.5,7.7,104.7,36.3,157.6,18.89,50.28,76.15,93.26,98.67,95.7h.16Z" fill="#fff" isolation="isolate" opacity=".4" stroke-width="0"/>
      <path id="h" data-name="bg-r" d="M326.31,281.73c28.7-52.9,34.6-152.1,36.3-157.6s5.4-10,10-13.3c4.7-3.3,10.7-5,18.1-5h42.9s0,.03.01.04c-3.18-12.11-12.03-22.68-24.21-27.74L243.41,8.73c-4.2-1.8-11.53-3.2-16.03-3.2v371.9s.02,0,.03,0c22.5-2.4,80-45.4,98.9-95.7Z" fill="#fff" isolation="isolate" opacity=".2" stroke-width="0"/>
      <path id="i" data-name="v-shape" d="M227.41,377.43c22.5-2.4,80-45.4,98.9-95.7,28.7-52.9,34.6-152.1,36.3-157.6,1.7-5.5,5.4-10,10-13.3,4.7-3.3,10.7-5,18.1-5h42.9c1.7,5.2,2.4,11.5,1.5,30.1h0c-2.1,42.9-9.5,96-44.4,166.4-43.8,81.8-98,119.6-124.8,133.9-13.4,7-28,13.1-38.5,13.1h0c-10.5,0-24.9-6.1-38.3-13.1-26.9-14.3-81.1-52.2-124.8-133.9C29.51,231.93,22.01,178.93,19.91,135.93c-.8-18.6-.1-24.9,1.5-30.1h42.9c7.4,0,13.4,1.7,18.1,5,4.7,3.4,8.4,7.8,10,13.3,1.7,5.5,7.7,104.7,36.3,157.6,18.9,50.3,76.2,93.3,98.7,95.7h0Z" fill="#fff" stroke-width="0"/>
    </g>
  </g>
  <g id="m" data-name="icon">
    <g>
      <path d="M278.49,192.17v75.21c0,10.04-8.16,18.2-18.2,18.2h-109.19c-10.05,0-18.2-8.16-18.2-18.2v-90.99c0-10.05,8.15-18.2,18.2-18.2h73.35c9.69,20.09,30.25,33.95,54.03,33.97ZM296.36,114.3h55.87c2.25,0,4.15-1.75,4.15-4,0-30.93-25.08-56.02-56.02-56.02-2.48,0-4,1.89-4,4.15v55.87Z" fill="url(#n)" stroke-width="0"/>
      <path d="M229.89,167.3h-78.78c-5.02,0-9.1,4.07-9.1,9.1v18.2h127.38v-3.12c-16.21-2.48-30.29-11.45-39.5-24.18Z" fill="#fff" stroke-width="0"/>
      <rect x="142.01" y="203.69" width="59.14" height="31.85" fill="#fff" stroke-width="0"/>
      <rect x="210.25" y="203.69" width="59.14" height="31.85" fill="#fff" stroke-width="0"/>
      <path d="M201.15,244.64h-59.14v22.75c0,5.03,4.07,9.1,9.1,9.1h50.04v-31.85Z" fill="#fff" stroke-width="0"/>
      <path d="M260.3,276.49c5.03,0,9.1-4.07,9.1-9.1v-22.75h-59.14v31.85h50.04Z" fill="#fff" stroke-width="0"/>
      <path d="M284.36,126.3h59.62c2.3,0,4.15,1.95,3.83,4.25-4,29.23-29.08,51.76-59.44,51.76-33.13,0-60.02-26.86-60.02-60.02,0-30.33,22.52-55.43,51.54-59.45,2.53-.32,4.48,1.53,4.48,3.84v59.61Z" fill="#fff" isolation="isolate" stroke-width="0"/>
    </g>
  </g>
</svg>