<?xml version="1.0" encoding="UTF-8"?>
<svg xmlns="http://www.w3.org/2000/svg" width="160mm" height="160mm" xmlns:xlink="http://www.w3.org/1999/xlink" viewBox="0 0 453.54 453.54">
  <defs>
    <linearGradient id="n" data-name="Unbenannter Verlauf 3" x1="135.31" y1="137.17" x2="280.15" y2="137.17" gradientUnits="userSpaceOnUse">
      <stop offset="0" stop-color="#ee7159"/>
      <stop offset=".2" stop-color="#e62e27"/>
    </linearGradient>
    <linearGradient id="o" data-name="Unbenannter Verlauf 3" x1="240.51" y1="253.8" x2="319.79" y2="253.8" xlink:href="#n"/>
  </defs>
  <g id="g" data-name="color">
    <g id="i" data-name="shield">
      <path id="j" data-name="bg" d="M226.88,378.09s.02,0,.03,0c22.5-2.4,80-45.4,98.9-95.7,28.7-52.9,34.6-152.1,36.3-157.6s5.4-10,10-13.3c4.7-3.3,10.7-5,18.1-5h42.9s0,.03.01.04c-3.18-12.11-12.03-22.68-24.21-27.74L242.91,9.4c-4.2-1.8-11.53-3.2-16.03-3.2h-.16c-4.6,0-11.67,1.4-15.87,3.2L44.95,78.8c-12.25,5.06-21.11,15.61-24.3,27.7h.02s42.98,0,42.98,0c7.4,0,13.4,1.7,18.1,5,4.7,3.4,8.4,7.8,10,13.3,1.7,5.5,7.7,104.7,36.3,157.6,18.89,50.28,76.15,93.26,98.67,95.7h.16Z" fill="#0967ad" isolation="isolate" opacity=".4" stroke-width="0"/>
      <path id="k" data-name="bg-r" d="M325.65,282.4c28.7-52.9,34.6-152.1,36.3-157.6s5.4-10,10-13.3c4.7-3.3,10.7-5,18.1-5h42.9s0,.03.01.04c-3.18-12.11-12.03-22.68-24.21-27.74L242.75,9.4c-4.2-1.8-11.53-3.2-16.03-3.2v371.9s.02,0,.03,0c22.5-2.4,80-45.4,98.9-95.7Z" fill="#0967ad" isolation="isolate" opacity=".2" stroke-width="0"/>
      <path id="l" data-name="v-shape" d="M226.75,378.1c22.5-2.4,80-45.4,98.9-95.7,28.7-52.9,34.6-152.1,36.3-157.6,1.7-5.5,5.4-10,10-13.3,4.7-3.3,10.7-5,18.1-5h42.9c1.7,5.2,2.4,11.5,1.5,30.1h0c-2.1,42.9-9.5,96-44.4,166.4-43.8,81.8-98,119.6-124.8,133.9-13.4,7-28,13.1-38.5,13.1h0c-10.5,0-24.9-6.1-38.3-13.1-26.9-14.3-81.1-52.2-124.8-133.9C28.85,232.6,21.35,179.6,19.25,136.6c-.8-18.6-.1-24.9,1.5-30.1h42.9c7.4,0,13.4,1.7,18.1,5,4.7,3.4,8.4,7.8,10,13.3,1.7,5.5,7.7,104.7,36.3,157.6,18.9,50.3,76.2,93.3,98.7,95.7h0Z" fill="#0967ad" stroke-width="0"/>
    </g>
  </g>
  <g id="m" data-name="icon">
    <g>
      <path d="M264.06,100.96h-50.29v23.65l9.81-9.81c2.36-2.36,6.18-2.36,8.53,0,2.36,2.36,2.36,6.18,0,8.53l-20.12,20.12c-2.36,2.36-6.18,2.36-8.53,0l-20.12-20.12c-2.36-2.36-2.36-6.18,0-8.53,1.17-1.19,2.71-1.77,4.27-1.77s3.09.59,4.27,1.77l9.81,9.82v-23.66h-50.29v56.33h112.65v-56.33Z" fill="#fff" stroke-width="0"/>
      <path d="M223.83,201.54l-4.02-12.07h-24.14l-4.02,12.07h-18.11c-3.32,0-6.03,2.72-6.03,6.04s2.72,6.04,6.03,6.04h60.25v-12.07h-9.96Z" fill="#fff" stroke-width="0"/>
      <path d="M245.11,167.56h35.04v-70.63c0-6.66-5.41-12.07-12.07-12.07h-54.32v16.09h50.29v56.33h-112.65v-56.33h50.29v-16.09h-54.32c-6.66,0-12.07,5.41-12.07,12.07v80.47c0,6.66,5.41,12.07,12.07,12.07h86.41v-10.58c0-6.26,5.07-11.33,11.33-11.33Z" fill="url(#n)" stroke-width="0"/>
      <path d="M319.79,185.85v56.63h-79.28v-56.63c0-6.26,5.07-11.33,11.33-11.33h56.63c6.25,0,11.33,5.07,11.33,11.33Z" fill="#fff" stroke-width="0"/>
      <path d="M240.51,242.48v11.33c0,6.26,5.07,11.33,11.33,11.33h56.63c6.26,0,11.33-5.07,11.33-11.33v-11.33h-79.28ZM280.15,259.46c-3.14,0-5.66-2.52-5.66-5.66s2.52-5.66,5.66-5.66,5.66,2.52,5.66,5.66-2.51,5.66-5.66,5.66Z" fill="url(#o)" stroke-width="0"/>
    </g>
  </g>
</svg>