<?xml version="1.0" encoding="UTF-8"?>
<svg xmlns="http://www.w3.org/2000/svg" xmlns:xlink="http://www.w3.org/1999/xlink" viewBox="0 0 453.5433 453.5433">
  <defs>
    <linearGradient id="n" data-name="Unbenannter Verlauf 6" x1="218.7822" y1="181.7805" x2="236.4459" y2="151.1861" gradientUnits="userSpaceOnUse">
      <stop offset="0" stop-color="#ee7159"/>
      <stop offset=".3135" stop-color="#e62e27"/>
    </linearGradient>
    <linearGradient id="o" data-name="Unbenannter Verlauf 6" x1="161.4881" y1="276.5561" x2="292.8372" y2="49.0528" xlink:href="#n"/>
  </defs>
  <g id="g" data-name="color">
    <g id="i" data-name="shield">
      <path id="j" data-name="bg" d="M226.883,378.0913c.0098.001.0201.0029.0299.0039,22.5-2.4,80-45.4,98.9-95.7,28.7-52.9,34.6-152.1,36.3-157.6s5.4-10,10-13.3c4.7-3.3,10.7-5,18.1-5h42.9c.0042.0129.0082.0262.0125.0392-3.1755-12.1116-12.0338-22.678-24.2125-27.7393L242.9129,9.395c-4.2-1.7999-11.5299-3.2-16.0299-3.2h-.1608c-4.6.0001-11.6701,1.4001-15.8701,3.2002L44.952,78.7952c-12.245,5.056-21.1113,15.6061-24.2982,27.7021l.0157-.0021h42.9826c7.4,0,13.4,1.7,18.1,5,4.7,3.4,8.4,7.8,10,13.3,1.7,5.5,7.7,104.7,36.3,157.6,18.8918,50.2782,76.1498,93.262,98.6701,95.6961h.1608Z" style="fill: #0967ad; isolation: isolate; opacity: .4;"/>
      <path id="k" data-name="bg-r" d="M325.6521,282.3952c28.7-52.9,34.6-152.1,36.3-157.6s5.4-10,10-13.3c4.7-3.3,10.7-5,18.1-5h42.9c.0042.0129.0082.0262.0125.0392-3.1755-12.1116-12.0338-22.678-24.2125-27.7393L242.7521,9.395c-4.2-1.7999-11.5299-3.2-16.0299-3.2v371.8962c.0098.001.0201.0029.0299.0039,22.5-2.4,80-45.4,98.9-95.7Z" style="fill: #0967ad; isolation: isolate; opacity: .2;"/>
      <path id="l" data-name="v-shape" d="M226.7521,378.0952c22.5-2.4,80-45.4,98.9-95.7,28.7-52.9,34.6-152.1,36.3-157.6,1.7-5.5,5.4-10,10-13.3,4.7-3.3,10.7-5,18.1-5h42.9c1.7,5.2,2.4,11.5,1.5,30.1h0c-2.1,42.9-9.5,96-44.4,166.4-43.8,81.8-98,119.6-124.8,133.9-13.4,7-28,13.1-38.5,13.1h0c-10.5,0-24.9-6.1-38.3-13.1-26.9-14.3-81.1-52.2-124.8-133.9C28.8521,232.5952,21.3521,179.5952,19.2521,136.5952c-.8-18.6-.1-24.9,1.5-30.1h42.9c7.4,0,13.4,1.7,18.1,5,4.7,3.4,8.4,7.8,10,13.3,1.7,5.5,7.7,104.7,36.3,157.6,18.9,50.3,76.2,93.3,98.7,95.7h0Z" style="fill: #0967ad;"/>
    </g>
  </g>
  <g id="m" data-name="icon">
    <g>
      <path d="M269.8843,178.4042l39.6201,11.7493,2.8873-9.7361-39.3422-11.6669c.5946-2.9135.9074-5.9296.9074-9.0188,0-8.9706-2.6432-17.3191-7.1783-24.3293l41.6028-35.2392-6.5637-7.749-41.4811,35.1362c-8.0788-7.8449-19.0936-12.6829-31.2442-12.6829-4.237,0-8.3315.6-12.2171,1.6978l-9.125-21.2147-9.3288,4.0125,9.0549,21.052c-9.5467,5.2601-16.9676,13.8944-20.6636,24.297l-42.9318-10.0752-2.3202,9.8866,42.9671,10.0835c-.1915,1.6828-.3,3.3908-.3,5.1249,0,11.628,4.4245,22.2223,11.6807,30.1927l-33.2876,37.0954,7.5582,6.7824,33.3742-37.1918c7.2496,5.0299,16.0471,7.9856,25.5391,7.9856,5.0886,0,9.9738-.8594,14.5333-2.4204l9.3009,21.6239,9.3289-4.0126-9.4512-21.9733c7.4311-4.6369,13.4013-11.386,17.0802-19.4093Z" style="fill: #fff;"/>
      <path d="M251.264,159.7414c-1.6786.3672-3.4447.6994-5.3856.9792v2.8886c0,3.6685-3.0075,6.6411-6.7145,6.6411h-2.156c-2.8781,0-5.2964-1.8168-6.2301-4.3697-.2693-.7187-.9163-1.2257-1.6856-1.2257s-1.4163.5071-1.6786,1.224c-.9442,2.5529-3.3572,4.3714-6.2249,4.3714h-2.156c-3.7192,0-6.7267-2.9726-6.7267-6.6446v-2.8851c-1.9409-.2798-3.707-.612-5.3821-.9792-.0682.5595-.2133,1.3814-.2133,2.1158,0,12.3606,10.021,22.3817,22.2243,22.3817s22.539-10.0193,22.539-22.3817c0-.7344-.1399-1.5562-.2098-2.1158Z" style="fill: url(#n); isolation: isolate; opacity: .4;"/>
      <path d="M239.1639,170.2503c3.707,0,6.7145-2.9726,6.7145-6.6446v-2.8851c10.0193-1.4513,16.7862-4.1441,16.7862-7.2566,0-2.8117-5.5517-5.2947-14.0427-6.8177-2.079-7.6692-5.3838-15.564-10.1924-15.564-1.815,0-3.4307.7869-4.7876,1.836-2.6666,2.0773-6.426,2.0773-9.0925,0-1.3499-1.0491-2.9586-1.836-4.7771-1.836-4.8086,0-8.0959,7.8965-10.1767,15.5587-8.5103,1.5213-14.076,4.0077-14.076,6.8229,0,3.1055,6.7617,5.8087,16.7862,7.2618v2.8886c0,3.6632,3.0075,6.6358,6.7145,6.6358h2.156c2.8781,0,5.2964-1.8168,6.2301-4.3697.2693-.7187.9162-1.2257,1.6856-1.2257s1.4172.5048,1.6812,1.2254c.7842,2.5515,3.3546,4.37,6.2398,4.37h2.1507ZM324.4169,218.7262c-4.9734-6.1167-16.0349-20.9415-16.0349-29.2686,0-10.103,8.1899-18.2929,18.2929-18.2929s18.2929,8.1899,18.2929,18.2929c0,8.3271-11.1472,23.1519-16.0349,29.2686-1.1719,1.4577-3.3442,1.4577-4.5161,0h0ZM326.675,195.5552c3.3632,0,6.0976-2.7344,6.0976-6.0976s-2.7344-6.0976-6.0976-6.0976-6.0976,2.7344-6.0976,6.0976,2.7344,6.0976,6.0976,6.0976ZM124.8461,166.4486c-4.9734-6.1167-16.0349-20.9415-16.0349-29.2686,0-10.103,8.1899-18.2929,18.2929-18.2929s18.2929,8.1899,18.2929,18.2929c0,8.3271-11.1472,23.1519-16.0349,29.2686-1.1719,1.4577-3.3442,1.4577-4.5161,0h0ZM127.1042,143.2776c3.3632,0,6.0976-2.7344,6.0976-6.0976s-2.7344-6.0976-6.0976-6.0976-6.0976,2.7344-6.0976,6.0976,2.7344,6.0976,6.0976,6.0976ZM314.4637,113.2366c-4.9734-6.1167-16.0349-20.9415-16.0349-29.2686,0-10.103,8.1899-18.2929,18.2929-18.2929s18.2929,8.1899,18.2929,18.2929c0,8.3271-11.1472,23.1519-16.0349,29.2686-1.1719,1.4577-3.3442,1.4577-4.5161,0h0ZM316.7217,90.0656c3.3632,0,6.0976-2.7344,6.0976-6.0976s-2.7344-6.0976-6.0976-6.0976-6.0976,2.7344-6.0976,6.0976,2.7344,6.0976,6.0976,6.0976ZM261.4659,265.7922c-4.9734-6.1167-16.0349-20.9415-16.0349-29.2686,0-10.103,8.1899-18.2929,18.2929-18.2929s18.2929,8.1899,18.2929,18.2929c0,8.3271-11.1472,23.1519-16.0349,29.2686-1.1719,1.4577-3.3442,1.4577-4.5161,0h0ZM263.7239,242.6212c3.3632,0,6.0976-2.7344,6.0976-6.0976s-2.7344-6.0976-6.0976-6.0976-6.0976,2.7344-6.0976,6.0976,2.7344,6.0976,6.0976,6.0976ZM152.7992,271.3058c-4.9734-6.1167-16.0349-20.9415-16.0349-29.2686,0-10.103,8.1899-18.2929,18.2929-18.2929s18.2929,8.1899,18.2929,18.2929c0,8.3271-11.1472,23.1519-16.0349,29.2686-1.1719,1.4577-3.3442,1.4577-4.5161,0h0ZM155.0572,248.1348c3.3632,0,6.0976-2.7344,6.0976-6.0976s-2.7344-6.0976-6.0976-6.0976-6.0976,2.7344-6.0976,6.0976,2.7344,6.0976,6.0976,6.0976ZM196.5422,110.6276c-4.9734-6.1167-16.0349-20.9415-16.0349-29.2686,0-10.103,8.1899-18.2929,18.2929-18.2929s18.2929,8.1899,18.2929,18.2929c0,8.3271-11.1472,23.1519-16.0349,29.2686-1.1719,1.4577-3.3442,1.4577-4.5161,0h0ZM198.8003,87.4567c3.3632,0,6.0976-2.7344,6.0976-6.0976s-2.7344-6.0976-6.0976-6.0976-6.0976,2.7344-6.0976,6.0976,2.7344,6.0976,6.0976,6.0976Z" style="fill: url(#o);"/>
    </g>
  </g>
</svg>