<?xml version="1.0" encoding="UTF-8"?>
<svg xmlns="http://www.w3.org/2000/svg" width="160mm" height="160mm" xmlns:xlink="http://www.w3.org/1999/xlink" viewBox="0 0 453.54 453.54">
  <defs>
    <linearGradient id="n" data-name="Unbenannter Verlauf 51" x1="115.83" y1="175.35" x2="247.71" y2="99.21" gradientUnits="userSpaceOnUse">
      <stop offset="0" stop-color="#ee7159"/>
      <stop offset=".45" stop-color="#e62e27"/>
    </linearGradient>
  </defs>
  <g id="d" data-name="white">
    <g id="f" data-name="shield">
      <path id="g" data-name="bg" d="M227.54,377.43s.02,0,.03,0c22.5-2.4,80-45.4,98.9-95.7,28.7-52.9,34.6-152.1,36.3-157.6s5.4-10,10-13.3c4.7-3.3,10.7-5,18.1-5h42.9s0,.03.01.04c-3.18-12.11-12.03-22.68-24.21-27.74L243.57,8.73c-4.2-1.8-11.53-3.2-16.03-3.2h-.16c-4.6,0-11.67,1.4-15.87,3.2L45.61,78.13c-12.25,5.06-21.11,15.61-24.3,27.7h.02s42.98,0,42.98,0c7.4,0,13.4,1.7,18.1,5,4.7,3.4,8.4,7.8,10,13.3,1.7,5.5,7.7,104.7,36.3,157.6,18.89,50.28,76.15,93.26,98.67,95.7h.16Z" fill="#fff" isolation="isolate" opacity=".4" stroke-width="0"/>
      <path id="h" data-name="bg-r" d="M326.31,281.73c28.7-52.9,34.6-152.1,36.3-157.6s5.4-10,10-13.3c4.7-3.3,10.7-5,18.1-5h42.9s0,.03.01.04c-3.18-12.11-12.03-22.68-24.21-27.74L243.41,8.73c-4.2-1.8-11.53-3.2-16.03-3.2v371.9s.02,0,.03,0c22.5-2.4,80-45.4,98.9-95.7Z" fill="#fff" isolation="isolate" opacity=".2" stroke-width="0"/>
      <path id="i" data-name="v-shape" d="M227.41,377.43c22.5-2.4,80-45.4,98.9-95.7,28.7-52.9,34.6-152.1,36.3-157.6,1.7-5.5,5.4-10,10-13.3,4.7-3.3,10.7-5,18.1-5h42.9c1.7,5.2,2.4,11.5,1.5,30.1h0c-2.1,42.9-9.5,96-44.4,166.4-43.8,81.8-98,119.6-124.8,133.9-13.4,7-28,13.1-38.5,13.1h0c-10.5,0-24.9-6.1-38.3-13.1-26.9-14.3-81.1-52.2-124.8-133.9C29.51,231.93,22.01,178.93,19.91,135.93c-.8-18.6-.1-24.9,1.5-30.1h42.9c7.4,0,13.4,1.7,18.1,5,4.7,3.4,8.4,7.8,10,13.3,1.7,5.5,7.7,104.7,36.3,157.6,18.9,50.3,76.2,93.3,98.7,95.7h0Z" fill="#fff" stroke-width="0"/>
    </g>
  </g>
  <g id="m" data-name="icon">
    <g>
      <g>
        <path d="M318.94,219.48c8.24-9.74,13.2-21.93,13.2-35.2,0-31.77-28.11-57.53-62.76-57.53-.1,0-.2.01-.31.01.14,1.72.31,3.45.31,5.22,0,32.23-26.04,59.23-60.83,66.19,6.8,25.04,31.12,43.64,60.83,43.64,11.01,0,21.35-2.62,30.35-7.18,7.96,3.92,18.06,7.18,29.89,7.18,1,0,1.88-.56,2.29-1.51.4-.94.22-2.01-.47-2.73-.09-.11-7.18-7.76-12.51-18.09ZM300.28,178.33l-27.46,28.76c-1.22,1.27-2.9,2-4.65,2.02-1.73,0-3.47-.69-4.7-1.92l-13.07-13.07c-2.55-2.55-2.55-6.69,0-9.24,2.55-2.55,6.69-2.55,9.24,0l8.34,8.34,22.83-23.93c2.5-2.61,6.64-2.71,9.24-.21,2.6,2.51,2.7,6.63.22,9.24Z" fill="#fff" isolation="isolate" stroke-width="0"/>
        <path d="M190.94,74.46c-37.55,0-67.99,25.76-67.99,57.53,0,12.93,5.11,24.83,13.62,34.45-5.36,10.71-12.82,18.74-12.94,18.85-.69.72-.87,1.79-.47,2.73.41.94,1.3,1.49,2.29,1.49,12.53,0,23.13-3.63,31.29-7.86,10.07,4.95,21.7,7.86,34.19,7.86,37.56,0,67.99-25.76,67.99-57.53s-30.43-57.53-67.99-57.53Z" fill="url(#n)" stroke-width="0"/>
      </g>
      <path d="M162.25,123.55c1.45,0,2.61-1.16,2.61-2.61v-2.61c0-14.39,11.7-26.08,26.08-26.08s26.08,11.7,26.08,26.08v2.61c0,7.19-5.85,13.04-13.04,13.04h-5.22c0-2.87-2.34-5.22-5.22-5.22h-5.22c-2.87,0-5.22,2.34-5.22,5.22s2.34,5.22,5.22,5.22h15.65c10.09-.02,18.24-8.17,18.26-18.26v-2.61c0-17.26-14.04-31.3-31.3-31.3s-31.3,14.04-31.3,31.3v2.61c0,1.45,1.16,2.61,2.61,2.61ZM205.73,144.41h-29.57c-12,0-21.73,9.73-21.73,21.73,0,2.41,1.95,4.35,4.35,4.35h64.33c2.41,0,4.35-1.94,4.35-4.35,0-12-9.73-21.73-21.73-21.73Z" fill="#fff" stroke-width="0"/>
      <path d="M188.34,123.55h5.22c3.73,0,7.17,1.99,9.02,5.21h1.41c4.32,0,7.82-3.5,7.82-7.67v-2.75c0-11.53-9.33-20.87-20.87-20.87s-20.87,9.33-20.87,20.87c0,6.58,3.12,12.39,7.88,16.22-.03-.21-.06-.36-.06-.57,0-5.77,4.66-10.43,10.43-10.43Z" fill="#fff" isolation="isolate" opacity=".7" stroke-width="0"/>
    </g>
  </g>
</svg>