<?xml version="1.0" encoding="UTF-8"?>
<svg xmlns="http://www.w3.org/2000/svg" width="160mm" height="160mm" xmlns:xlink="http://www.w3.org/1999/xlink" viewBox="0 0 453.54 453.54">
  <defs>
    <linearGradient id="n" data-name="Unbenannter Verlauf 2" x1="181.92" y1="196.34" x2="300.1" y2="128.12" gradientUnits="userSpaceOnUse">
      <stop offset="0" stop-color="#ee7159"/>
      <stop offset=".84" stop-color="#e62e27"/>
    </linearGradient>
  </defs>
  <g id="g" data-name="color">
    <g id="i" data-name="shield">
      <path id="j" data-name="bg" d="M226.88,378.09s.02,0,.03,0c22.5-2.4,80-45.4,98.9-95.7,28.7-52.9,34.6-152.1,36.3-157.6s5.4-10,10-13.3c4.7-3.3,10.7-5,18.1-5h42.9s0,.03.01.04c-3.18-12.11-12.03-22.68-24.21-27.74L242.91,9.4c-4.2-1.8-11.53-3.2-16.03-3.2h-.16c-4.6,0-11.67,1.4-15.87,3.2L44.95,78.8c-12.25,5.06-21.11,15.61-24.3,27.7h.02s42.98,0,42.98,0c7.4,0,13.4,1.7,18.1,5,4.7,3.4,8.4,7.8,10,13.3,1.7,5.5,7.7,104.7,36.3,157.6,18.89,50.28,76.15,93.26,98.67,95.7h.16Z" fill="#0967ad" isolation="isolate" opacity=".4" stroke-width="0"/>
      <path id="k" data-name="bg-r" d="M325.65,282.4c28.7-52.9,34.6-152.1,36.3-157.6s5.4-10,10-13.3c4.7-3.3,10.7-5,18.1-5h42.9s0,.03.01.04c-3.18-12.11-12.03-22.68-24.21-27.74L242.75,9.4c-4.2-1.8-11.53-3.2-16.03-3.2v371.9s.02,0,.03,0c22.5-2.4,80-45.4,98.9-95.7Z" fill="#0967ad" isolation="isolate" opacity=".2" stroke-width="0"/>
      <path id="l" data-name="v-shape" d="M226.75,378.1c22.5-2.4,80-45.4,98.9-95.7,28.7-52.9,34.6-152.1,36.3-157.6,1.7-5.5,5.4-10,10-13.3,4.7-3.3,10.7-5,18.1-5h42.9c1.7,5.2,2.4,11.5,1.5,30.1h0c-2.1,42.9-9.5,96-44.4,166.4-43.8,81.8-98,119.6-124.8,133.9-13.4,7-28,13.1-38.5,13.1h0c-10.5,0-24.9-6.1-38.3-13.1-26.9-14.3-81.1-52.2-124.8-133.9C28.85,232.6,21.35,179.6,19.25,136.6c-.8-18.6-.1-24.9,1.5-30.1h42.9c7.4,0,13.4,1.7,18.1,5,4.7,3.4,8.4,7.8,10,13.3,1.7,5.5,7.7,104.7,36.3,157.6,18.9,50.3,76.2,93.3,98.7,95.7h0Z" fill="#0967ad" stroke-width="0"/>
    </g>
  </g>
  <g id="m" data-name="icon">
    <g>
      <path d="M286.91,226.2c0,8.96-7.26,16.22-16.22,16.22s-16.22-7.26-16.22-16.22,7.26-16.22,16.22-16.22,16.22,7.27,16.22,16.22Z" fill="#fff" stroke-width="0"/>
      <path d="M323.68,169.71l-21.26-21.26c-1.75-1.74-5.6-3.35-8.39-3.35h-63.89c-8.96,0-16.22,7.26-16.22,16.22v81.1c0,8.96,7.26,16.22,16.22,16.22h81.1c8.96,0,16.22-7.26,16.22-16.22v-63.89c0-2.79-1.6-6.64-3.78-8.82ZM270.69,242.42c-8.96,0-16.22-7.26-16.22-16.22s7.26-16.22,16.22-16.22,16.22,7.26,16.22,16.22-7.27,16.22-16.22,16.22ZM295.02,189.71c0,2.23-1.82,4.05-4.05,4.05h-56.77c-2.24,0-4.05-1.82-4.05-4.05v-24.33c0-2.23,1.81-4.05,4.05-4.05h56.77c2.23,0,4.05,1.82,4.05,4.05v24.33ZM255.74,96.2c0-6.72-5.45-12.16-12.16-12.16h-105.43c-6.72,0-12.16,5.45-12.16,12.16,0,3.83,1.8,7.43,4.87,9.73l55.15,41.36c2.89,2.15,6.84,2.15,9.73,0l55.15-41.36c3.07-2.31,4.87-5.9,4.87-9.73Z" fill="url(#n)" stroke-width="0"/>
      <path d="M224.31,138.48h31.42v-42.28c0,3.83-1.8,7.43-4.87,9.73l-55.15,41.36c-2.89,2.15-6.84,2.15-9.73,0l-55.15-41.36c-3.06-2.31-4.87-5.9-4.87-9.73v68.93c0,8.95,7.26,16.22,16.22,16.22h65.89v-26.65c0-8.96,7.26-16.22,16.22-16.22Z" fill="#fff" isolation="isolate" opacity=".82" stroke-width="0"/>
    </g>
  </g>
</svg>