<?xml version="1.0" encoding="UTF-8"?>
<svg xmlns="http://www.w3.org/2000/svg" width="160mm" height="160mm" xmlns:xlink="http://www.w3.org/1999/xlink" viewBox="0 0 453.54 453.54">
  <defs>
    <linearGradient id="n" data-name="Unbenannter Verlauf 2" x1="138.77" y1="220.72" x2="314.73" y2="119.12" gradientUnits="userSpaceOnUse">
      <stop offset="0" stop-color="#ee7159"/>
      <stop offset=".84" stop-color="#e62e27"/>
    </linearGradient>
  </defs>
  <g id="d" data-name="white">
    <g id="f" data-name="shield">
      <path id="g" data-name="bg" d="M227.54,377.43s.02,0,.03,0c22.5-2.4,80-45.4,98.9-95.7,28.7-52.9,34.6-152.1,36.3-157.6s5.4-10,10-13.3c4.7-3.3,10.7-5,18.1-5h42.9s0,.03.01.04c-3.18-12.11-12.03-22.68-24.21-27.74L243.57,8.73c-4.2-1.8-11.53-3.2-16.03-3.2h-.16c-4.6,0-11.67,1.4-15.87,3.2L45.61,78.13c-12.25,5.06-21.11,15.61-24.3,27.7h.02s42.98,0,42.98,0c7.4,0,13.4,1.7,18.1,5,4.7,3.4,8.4,7.8,10,13.3,1.7,5.5,7.7,104.7,36.3,157.6,18.89,50.28,76.15,93.26,98.67,95.7h.16Z" fill="#fff" isolation="isolate" opacity=".4" stroke-width="0"/>
      <path id="h" data-name="bg-r" d="M326.31,281.73c28.7-52.9,34.6-152.1,36.3-157.6s5.4-10,10-13.3c4.7-3.3,10.7-5,18.1-5h42.9s0,.03.01.04c-3.18-12.11-12.03-22.68-24.21-27.74L243.41,8.73c-4.2-1.8-11.53-3.2-16.03-3.2v371.9s.02,0,.03,0c22.5-2.4,80-45.4,98.9-95.7Z" fill="#fff" isolation="isolate" opacity=".2" stroke-width="0"/>
      <path id="i" data-name="v-shape" d="M227.41,377.43c22.5-2.4,80-45.4,98.9-95.7,28.7-52.9,34.6-152.1,36.3-157.6,1.7-5.5,5.4-10,10-13.3,4.7-3.3,10.7-5,18.1-5h42.9c1.7,5.2,2.4,11.5,1.5,30.1h0c-2.1,42.9-9.5,96-44.4,166.4-43.8,81.8-98,119.6-124.8,133.9-13.4,7-28,13.1-38.5,13.1h0c-10.5,0-24.9-6.1-38.3-13.1-26.9-14.3-81.1-52.2-124.8-133.9C29.51,231.93,22.01,178.93,19.91,135.93c-.8-18.6-.1-24.9,1.5-30.1h42.9c7.4,0,13.4,1.7,18.1,5,4.7,3.4,8.4,7.8,10,13.3,1.7,5.5,7.7,104.7,36.3,157.6,18.9,50.3,76.2,93.3,98.7,95.7h0Z" fill="#fff" stroke-width="0"/>
    </g>
  </g>
  <g id="m" data-name="icon">
    <g>
      <path d="M218.46,81.74c5.24-2.42,11.29-2.42,16.53,0l76.87,35.53c2.99,1.37,4.89,4.36,4.89,7.35,0,3.59-1.9,6.58-4.89,7.98l-76.87,35.51c-5.24,2.43-11.29,2.43-16.53,0l-76.86-35.51c-2.99-1.41-4.9-4.4-4.9-7.98,0-2.99,1.91-5.98,4.9-7.35l76.86-35.53ZM311.85,207.28c2.99,1.37,4.89,4.36,4.89,7.35,0,3.59-1.9,6.58-4.89,7.98l-76.87,35.51c-5.24,2.43-11.29,2.43-16.53,0l-76.86-35.51c-2.99-1.41-4.9-4.4-4.9-7.98,0-2.99,1.91-5.98,4.9-7.35l18.71-8.65,53.44,24.68c8.23,3.83,17.72,3.83,25.95,0l53.45-24.68,18.71,8.65Z" fill="url(#n)" stroke-width="0"/>
      <path d="M239.7,178.31l53.45-24.68,18.71,8.65c2.99,1.37,4.89,4.36,4.89,7.35,0,3.59-1.9,6.58-4.89,7.98l-76.87,35.51c-5.24,2.43-11.29,2.43-16.53,0l-76.86-35.51c-2.99-1.41-4.9-4.4-4.9-7.98,0-2.99,1.91-5.98,4.9-7.35l18.71-8.65,53.44,24.68c8.23,3.83,17.72,3.83,25.95,0h0Z" fill="#fff" isolation="isolate" stroke-width="0"/>
    </g>
  </g>
</svg>