<?xml version="1.0" encoding="UTF-8"?>
<svg id="Ebene_1" xmlns="http://www.w3.org/2000/svg" xmlns:xlink="http://www.w3.org/1999/xlink" version="1.1" viewBox="0 0 453.5 453.5">
  <!-- Generator: Adobe Illustrator 30.1.0, SVG Export Plug-In . SVG Version: 2.1.1 Build 136)  -->
  <defs>
    <style>
      .st0 {
        fill: url(#Unbenannter_Verlauf);
      }

      .st1, .st2, .st3, .st4 {
        fill: #fff;
      }

      .st2, .st3, .st4 {
        isolation: isolate;
      }

      .st3 {
        opacity: .2;
      }

      .st4 {
        opacity: .4;
      }
    </style>
    <linearGradient id="Unbenannter_Verlauf" data-name="Unbenannter Verlauf" x1="122.6" y1="242.5" x2="300.1" y2="345" gradientTransform="translate(0 454) scale(1 -1)" gradientUnits="userSpaceOnUse">
      <stop offset="0" stop-color="#ee7159"/>
      <stop offset=".8" stop-color="#e62e27"/>
    </linearGradient>
  </defs>
  <g id="f">
    <g id="h">
      <path id="i" class="st4" d="M227.5,377.4h0c22.5-2.4,80-45.4,98.9-95.7,28.7-52.9,34.6-152.1,36.3-157.6s5.4-10,10-13.3c4.7-3.3,10.7-5,18.1-5h42.9s0,0,0,0c-3.2-12.1-12-22.7-24.2-27.7L243.6,8.7c-4.2-1.8-11.5-3.2-16-3.2h-.2c-4.6,0-11.7,1.4-15.9,3.2L45.6,78.1c-12.3,5.1-21.1,15.6-24.3,27.7h43c7.4,0,13.4,1.7,18.1,5,4.7,3.4,8.4,7.8,10,13.3,1.7,5.5,7.7,104.7,36.3,157.6,18.9,50.3,76.2,93.3,98.7,95.7h.2Z"/>
      <path id="j" class="st3" d="M326.3,281.7c28.7-52.9,34.6-152.1,36.3-157.6s5.4-10,10-13.3c4.7-3.3,10.7-5,18.1-5h42.9s0,0,0,0c-3.2-12.1-12-22.7-24.2-27.7L243.4,8.7c-4.2-1.8-11.5-3.2-16-3.2v371.9h0c22.5-2.4,80-45.4,98.9-95.7h0Z"/>
      <path id="k" class="st1" d="M227.4,377.4c22.5-2.4,80-45.4,98.9-95.7,28.7-52.9,34.6-152.1,36.3-157.6,1.7-5.5,5.4-10,10-13.3,4.7-3.3,10.7-5,18.1-5h42.9c1.7,5.2,2.4,11.5,1.5,30.1h0c-2.1,42.9-9.5,96-44.4,166.4-43.8,81.8-98,119.6-124.8,133.9-13.4,7-28,13.1-38.5,13.1h0c-10.5,0-24.9-6.1-38.3-13.1-26.9-14.3-81.1-52.2-124.8-133.9C29.5,231.9,22,178.9,19.9,135.9c-.8-18.6-.1-24.9,1.5-30.1h42.9c7.4,0,13.4,1.7,18.1,5,4.7,3.4,8.4,7.8,10,13.3,1.7,5.5,7.7,104.7,36.3,157.6,18.9,50.3,76.2,93.3,98.7,95.7h0Z"/>
    </g>
  </g>
  <g id="o">
    <g>
      <path class="st2" d="M308.3,75h-129.6c-6.5,0-11.8,5.3-11.8,11.8v135.5c0,9.8-7.9,17.7-17.7,17.7h147.2c13,0,23.6-10.6,23.6-23.6V86.8c0-6.5-5.3-11.8-11.8-11.8Z"/>
      <path class="st0" d="M131.6,110.4v111.9c0,9.8,7.9,17.7,17.7,17.7s17.7-7.9,17.7-17.7v-123.7h-23.6c-6.5,0-11.8,5.3-11.8,11.8h0ZM231.7,169.3h-35.3c-3.2,0-5.9,2.7-5.9,5.9s2.7,5.9,5.9,5.9h35.3c3.3,0,5.9-2.6,5.9-5.9s-2.7-5.9-5.9-5.9ZM255.3,181h35.3c3.3,0,5.9-2.6,5.9-5.9s-2.7-5.9-5.9-5.9h-35.3c-3.2,0-5.9,2.7-5.9,5.9s2.7,5.9,5.9,5.9h0ZM231.7,204.6h-35.3c-3.2,0-5.9,2.7-5.9,5.9s2.7,5.9,5.9,5.9h35.3c3.3,0,5.9-2.6,5.9-5.9s-2.7-5.9-5.9-5.9ZM290.6,204.6h-35.3c-3.3,0-5.9,2.6-5.9,5.9s2.6,5.9,5.9,5.9h35.3c3.3,0,5.9-2.6,5.9-5.9s-2.7-5.9-5.9-5.9ZM255.3,110.4h35.3c3.3,0,5.9-2.6,5.9-5.9s-2.7-5.9-5.9-5.9h-35.3c-3.2,0-5.9,2.7-5.9,5.9s2.7,5.9,5.9,5.9h0ZM290.6,133.9h-35.3c-3.3,0-5.9,2.6-5.9,5.9s2.6,5.9,5.9,5.9h35.3c3.3,0,5.9-2.6,5.9-5.9s-2.7-5.9-5.9-5.9ZM234.7,139.8c0,3.2-1.1,5.9-2.5,5.9h-39.3c-1.4,0-2.5-2.7-2.5-5.9v-35.3c0-3.2,1.1-5.9,2.5-5.9h39.3c1.4,0,2.5,2.7,2.5,5.9v35.3Z"/>
    </g>
  </g>
</svg>