<?xml version="1.0" encoding="UTF-8"?>
<svg xmlns="http://www.w3.org/2000/svg" width="160mm" height="160mm" xmlns:xlink="http://www.w3.org/1999/xlink" viewBox="0 0 453.54 453.54">
  <defs>
    <linearGradient id="n" data-name="Unbenannter Verlauf 49" x1="161.09" y1="225.37" x2="281.63" y2="155.77" gradientUnits="userSpaceOnUse">
      <stop offset="0" stop-color="#ee7159"/>
      <stop offset=".31" stop-color="#e62e27"/>
    </linearGradient>
  </defs>
  <g id="d" data-name="white">
    <g id="f" data-name="shield">
      <path id="g" data-name="bg" d="M227.54,377.43s.02,0,.03,0c22.5-2.4,80-45.4,98.9-95.7,28.7-52.9,34.6-152.1,36.3-157.6s5.4-10,10-13.3c4.7-3.3,10.7-5,18.1-5h42.9s0,.03.01.04c-3.18-12.11-12.03-22.68-24.21-27.74L243.57,8.73c-4.2-1.8-11.53-3.2-16.03-3.2h-.16c-4.6,0-11.67,1.4-15.87,3.2L45.61,78.13c-12.25,5.06-21.11,15.61-24.3,27.7h.02s42.98,0,42.98,0c7.4,0,13.4,1.7,18.1,5,4.7,3.4,8.4,7.8,10,13.3,1.7,5.5,7.7,104.7,36.3,157.6,18.89,50.28,76.15,93.26,98.67,95.7h.16Z" fill="#fff" isolation="isolate" opacity=".4" stroke-width="0"/>
      <path id="h" data-name="bg-r" d="M326.31,281.73c28.7-52.9,34.6-152.1,36.3-157.6s5.4-10,10-13.3c4.7-3.3,10.7-5,18.1-5h42.9s0,.03.01.04c-3.18-12.11-12.03-22.68-24.21-27.74L243.41,8.73c-4.2-1.8-11.53-3.2-16.03-3.2v371.9s.02,0,.03,0c22.5-2.4,80-45.4,98.9-95.7Z" fill="#fff" isolation="isolate" opacity=".2" stroke-width="0"/>
      <path id="i" data-name="v-shape" d="M227.41,377.43c22.5-2.4,80-45.4,98.9-95.7,28.7-52.9,34.6-152.1,36.3-157.6,1.7-5.5,5.4-10,10-13.3,4.7-3.3,10.7-5,18.1-5h42.9c1.7,5.2,2.4,11.5,1.5,30.1h0c-2.1,42.9-9.5,96-44.4,166.4-43.8,81.8-98,119.6-124.8,133.9-13.4,7-28,13.1-38.5,13.1h0c-10.5,0-24.9-6.1-38.3-13.1-26.9-14.3-81.1-52.2-124.8-133.9C29.51,231.93,22.01,178.93,19.91,135.93c-.8-18.6-.1-24.9,1.5-30.1h42.9c7.4,0,13.4,1.7,18.1,5,4.7,3.4,8.4,7.8,10,13.3,1.7,5.5,7.7,104.7,36.3,157.6,18.9,50.3,76.2,93.3,98.7,95.7h0Z" fill="#fff" stroke-width="0"/>
    </g>
  </g>
  <g id="m" data-name="icon">
    <g>
      <path d="M271.13,162.6v34.16h34.16l-34.16-34.16ZM275.4,265.08h-42.7c-2.35,0-4.27,1.92-4.27,4.27s1.92,4.27,4.27,4.27h42.7c2.36,0,4.27-1.91,4.27-4.27s-1.92-4.27-4.27-4.27ZM275.4,248h-42.7c-2.35,0-4.27,1.92-4.27,4.27s1.92,4.27,4.27,4.27h42.7c2.36,0,4.27-1.91,4.27-4.27s-1.92-4.27-4.27-4.27ZM275.4,230.92h-42.7c-2.35,0-4.27,1.92-4.27,4.27s1.92,4.27,4.27,4.27h42.7c2.35,0,4.27-1.92,4.27-4.27s-1.92-4.27-4.27-4.27Z" fill="#fff" stroke-width="0"/>
      <g>
        <path d="M192.99,186.72v-12.81h6.4v-4.56c0-1.39.22-2.73.63-3.98h-7.04v-12.81h12.81v5.7c1.88-1.09,4.07-1.72,6.4-1.72h2.13v-3.98h12.81v3.98h8.54v-16.79c0-2.38-1.89-4.27-4.27-4.27h-64.05c-2.37,0-4.27,1.9-4.27,4.27v51.24c0,2.37,1.9,4.27,4.27,4.27h32.02v-8.54h-6.4ZM184.45,186.72h-12.81v-12.81h12.81v12.81ZM184.45,165.37h-12.81v-12.81h12.81v12.81Z" fill="#fff" stroke-width="0"/>
        <polygon points="216.47 75.71 216.47 109.87 250.63 109.87 216.47 75.71" fill="#fff" stroke-width="0"/>
        <path d="M271.13,196.76v-34.16h-55.51c-7.07,0-12.81,5.73-12.81,12.81v111.01c0,7.07,5.73,12.81,12.81,12.81h76.85c7.07,0,12.81-5.73,12.81-12.81v-89.66h-34.16ZM275.4,273.62h-42.7c-2.35,0-4.27-1.92-4.27-4.27s1.92-4.27,4.27-4.27h42.7c2.36,0,4.27,1.91,4.27,4.27s-1.92,4.27-4.27,4.27ZM275.4,256.54h-42.7c-2.35,0-4.27-1.92-4.27-4.27s1.92-4.27,4.27-4.27h42.7c2.36,0,4.27,1.91,4.27,4.27s-1.92,4.27-4.27,4.27ZM275.4,239.46h-42.7c-2.35,0-4.27-1.92-4.27-4.27s1.92-4.27,4.27-4.27h42.7c2.35,0,4.27,1.92,4.27,4.27s-1.92,4.27-4.27,4.27ZM199.39,195.26v17.08h-38.43c-7.07,0-12.81-5.74-12.81-12.81v-111.01c0-7.07,5.73-12.81,12.81-12.81h55.51v34.16h34.16v46.68h-14.94v-16.79c0-2.37-1.9-4.27-4.27-4.27h-64.05c-2.37,0-4.27,1.9-4.27,4.27v51.24c0,2.37,1.9,4.27,4.27,4.27h32.02Z" fill="url(#n)" stroke-width="0"/>
      </g>
    </g>
  </g>
</svg>