<?xml version="1.0" encoding="UTF-8"?>
<svg id="g" data-name="color" xmlns="http://www.w3.org/2000/svg" width="683mm" height="180mm" xmlns:xlink="http://www.w3.org/1999/xlink" viewBox="0 0 1936.06 510.24">
  <defs>
    <linearGradient id="h" data-name="font-red" x1="1072.86" y1="541.04" x2="1837.99" y2="99.3" gradientUnits="userSpaceOnUse">
      <stop offset="0" stop-color="#ee7159"/>
      <stop offset=".3" stop-color="#e62e27"/>
    </linearGradient>
    <linearGradient id="n" data-name="keyhole" x1="419.01" y1="189.28" x2="524.08" y2="249.94" gradientUnits="userSpaceOnUse">
      <stop offset="0" stop-color="#ee7159"/>
      <stop offset=".85" stop-color="#e62e27"/>
    </linearGradient>
  </defs>
  <path d="M1004.76,423.1v-218.31h40.42c4.07,0,7.47.91,10.21,2.74,2.74,1.83,4.66,4.56,5.79,8.21l3.58,11.79c3.65-3.79,7.44-7.26,11.37-10.42,3.93-3.16,8.17-5.89,12.74-8.21,4.56-2.32,9.47-4.14,14.74-5.47,5.26-1.33,11.05-2,17.37-2,13.19,0,24.1,3.4,32.74,10.21,8.63,6.81,15.19,15.89,19.68,27.26,3.65-6.74,8.11-12.49,13.37-17.26,5.26-4.77,10.95-8.63,17.05-11.58s12.56-5.12,19.37-6.53c6.81-1.4,13.58-2.1,20.32-2.1,12.49,0,23.58,1.86,33.26,5.58,9.68,3.72,17.79,9.12,24.31,16.21,6.53,7.09,11.47,15.79,14.84,26.1,3.37,10.32,5.05,22,5.05,35.05v138.73h-65.26v-138.73c0-22.59-9.68-33.89-29.05-33.89-8.84,0-16.18,2.91-22,8.74s-8.74,14.21-8.74,25.16v138.73h-65.26v-138.73c0-12.49-2.46-21.26-7.37-26.31-4.91-5.05-12.14-7.58-21.68-7.58-5.89,0-11.47,1.33-16.74,4-5.26,2.67-10.21,6.25-14.84,10.74v157.89h-65.26ZM1520.52,423.1c-4.07,0-7.47-.91-10.21-2.74-2.74-1.82-4.67-4.56-5.79-8.21l-5.05-16.63c-4.35,4.63-8.91,8.84-13.68,12.63-4.77,3.79-9.93,7.05-15.47,9.79-5.55,2.74-11.51,4.84-17.89,6.32-6.39,1.47-13.3,2.21-20.74,2.21-11.37,0-21.89-2.53-31.58-7.58-9.68-5.05-18.04-12.35-25.05-21.89-7.02-9.54-12.53-21.23-16.53-35.05-4-13.82-6-29.58-6-47.26,0-16.28,2.24-31.4,6.74-45.37,4.49-13.96,10.84-26.03,19.05-36.21,8.21-10.17,18.07-18.14,29.58-23.89,11.51-5.75,24.21-8.63,38.1-8.63,11.23,0,20.74,1.65,28.52,4.95,7.79,3.3,14.84,7.61,21.16,12.95v-110.52h65.26v315.14h-40.42ZM1454.42,376.36c4.77,0,9.08-.45,12.95-1.37,3.86-.91,7.4-2.21,10.63-3.89,3.23-1.68,6.28-3.79,9.16-6.32,2.88-2.53,5.72-5.47,8.53-8.84v-92.63c-5.05-5.47-10.42-9.3-16.1-11.47-5.68-2.17-11.68-3.26-18-3.26s-11.58,1.19-16.63,3.58c-5.05,2.39-9.44,6.21-13.16,11.47-3.72,5.26-6.63,12.1-8.74,20.53s-3.16,18.6-3.16,30.52.84,21.19,2.53,29.05c1.68,7.86,4.03,14.21,7.05,19.05,3.02,4.84,6.63,8.32,10.84,10.42,4.21,2.11,8.91,3.16,14.11,3.16ZM1611.46,423.1v-218.31h40.42c4.07,0,7.47.91,10.21,2.74,2.74,1.83,4.67,4.56,5.79,8.21l3.58,11.79c3.65-3.79,7.44-7.26,11.37-10.42,3.93-3.16,8.17-5.89,12.74-8.21,4.56-2.32,9.47-4.14,14.74-5.47,5.26-1.33,11.05-2,17.37-2,13.19,0,24.1,3.4,32.74,10.21,8.63,6.81,15.19,15.89,19.68,27.26,3.65-6.74,8.1-12.49,13.37-17.26,5.26-4.77,10.95-8.63,17.05-11.58,6.11-2.95,12.56-5.12,19.37-6.53,6.8-1.4,13.58-2.1,20.31-2.1,12.49,0,23.58,1.86,33.26,5.58,9.68,3.72,17.79,9.12,24.31,16.21,6.53,7.09,11.47,15.79,14.84,26.1,3.37,10.32,5.05,22,5.05,35.05v138.73h-65.26v-138.73c0-22.59-9.68-33.89-29.05-33.89-8.84,0-16.18,2.91-22,8.74-5.83,5.83-8.74,14.21-8.74,25.16v138.73h-65.26v-138.73c0-12.49-2.46-21.26-7.37-26.31-4.91-5.05-12.14-7.58-21.68-7.58-5.89,0-11.47,1.33-16.74,4-5.26,2.67-10.21,6.25-14.84,10.74v157.89h-65.26Z" fill="url(#h)" stroke-width="0"/>
  <g id="i" data-name="logo-shield">
    <path id="j" data-name="bg" d="M476.78,378.09s.02,0,.03,0c22.5-2.4,80-45.4,98.9-95.7,28.7-52.9,34.6-152.1,36.3-157.6s5.4-10,10-13.3c4.7-3.3,10.7-5,18.1-5h42.9s0,.03.01.04c-3.18-12.11-12.03-22.68-24.21-27.74L492.81,9.4c-4.2-1.8-11.53-3.2-16.03-3.2h-.16c-4.6,0-11.67,1.4-15.87,3.2l-165.9,69.4c-12.25,5.06-21.11,15.61-24.3,27.7h.02s42.98,0,42.98,0c7.4,0,13.4,1.7,18.1,5,4.7,3.4,8.4,7.8,10,13.3,1.7,5.5,7.7,104.7,36.3,157.6,18.89,50.28,76.15,93.26,98.67,95.7h.16Z" fill="#0967ad" isolation="isolate" opacity=".4" stroke-width="0"/>
    <path id="k" data-name="bg-r" d="M575.55,282.4c28.7-52.9,34.6-152.1,36.3-157.6s5.4-10,10-13.3c4.7-3.3,10.7-5,18.1-5h42.9s0,.03.01.04c-3.18-12.11-12.03-22.68-24.21-27.74L492.65,9.4c-4.2-1.8-11.53-3.2-16.03-3.2v371.9s.02,0,.03,0c22.5-2.4,80-45.4,98.9-95.7Z" fill="#0967ad" isolation="isolate" opacity=".2" stroke-width="0"/>
    <path id="l" data-name="v-shape" d="M476.65,378.1c22.5-2.4,80-45.4,98.9-95.7,28.7-52.9,34.6-152.1,36.3-157.6,1.7-5.5,5.4-10,10-13.3,4.7-3.3,10.7-5,18.1-5h42.9c1.7,5.2,2.4,11.5,1.5,30.1h0c-2.1,42.9-9.5,96-44.4,166.4-43.8,81.8-98,119.6-124.8,133.9-13.4,7-28,13.1-38.5,13.1h0c-10.5,0-24.9-6.1-38.3-13.1-26.9-14.3-81.1-52.2-124.8-133.9-34.8-70.4-42.3-123.4-44.4-166.4-.8-18.6-.1-24.9,1.5-30.1h42.9c7.4,0,13.4,1.7,18.1,5,4.7,3.4,8.4,7.8,10,13.3,1.7,5.5,7.7,104.7,36.3,157.6,18.9,50.3,76.2,93.3,98.7,95.7h0Z" fill="#0967ad" stroke-width="0"/>
  </g>
  <g id="m" data-name="logo-icon">
    <path id="o" data-name="keyhole" d="M476.53,138c-26.7,0-48.4,21.7-48.4,48.5,0,19.3,11.4,35.9,27.7,43.7v60.3c0,11.5,9.3,20.8,20.8,20.8s20.8-9.3,20.8-20.8v-60.3c16.3-7.8,27.6-24.4,27.5-43.7,0-26.8-21.7-48.5-48.4-48.5ZM503.53,193.7h-18.7v18.7h-16.1v-18.7h-18.7v-16.1h18.7v-18.8h16.1v18.8h18.7v16.1Z" fill="url(#n)" stroke-width="0"/>
    <polygon id="p" data-name="cross" points="468.73 177.6 450.03 177.6 450.03 193.7 468.73 193.7 468.73 212.4 484.83 212.4 484.83 193.7 503.53 193.7 503.53 177.6 484.83 177.6 484.83 158.8 468.73 158.8 468.73 177.6" fill="#fff" stroke-width="0"/>
  </g>
  <g id="q" data-name="PV">
    <path d="M902.93,306.2v116.3h-70.9v-116.3l-110.8-189.5h62.5c6.2,0,11,1.4,14.7,4.3,3.6,2.9,6.6,6.5,8.8,11l43.2,89c3.5,7.1,6.7,13.7,9.6,19.7,3,6,5.6,11.9,7.8,17.9,2.1-6,4.6-12,7.6-18s6.1-12.5,9.4-19.5l42.8-89c.8-1.8,2-3.6,3.5-5.5,1.5-1.8,3.1-3.5,5-4.9,1.9-1.4,4.1-2.7,6.5-3.6,2.4-.9,5.1-1.3,8.1-1.3h62.9l-110.7,189.4h0Z" fill="#0967ad" stroke-width="0"/>
    <path d="M79.33,320.9v102.2H8.33V117.4h107.8c21.5,0,40,2.5,55.5,7.6,15.4,5.1,28.2,12.2,38.2,21.1,10,9,17.3,19.5,22.2,31.7,4.7,12.2,7.1,25.3,7.1,39.4,0,15.3-2.4,29.2-7.3,42-4.9,12.8-12.4,23.7-22.5,32.7-10.1,9.1-22.8,16.2-38.3,21.3s-33.7,7.6-54.9,7.6h-36.8v.1h0ZM79.33,267.5h36.9c18.5,0,31.7-4.4,39.9-13.2,8.1-8.8,12.2-21.1,12.2-36.9,0-7-1-13.3-3.1-19.1-2.1-5.7-5.3-10.7-9.6-14.8-4.3-4.2-9.6-7.3-16.2-9.6-6.6-2.3-14.2-3.3-23.2-3.3h-36.9v96.9h0Z" fill="#0967ad" stroke-width="0"/>
  </g>
</svg>