<?xml version="1.0" encoding="UTF-8"?>
<svg id="d" data-name="white" xmlns="http://www.w3.org/2000/svg" width="1203mm" height="180mm" xmlns:xlink="http://www.w3.org/1999/xlink" viewBox="0 0 3410.08 510.24">
  <defs>
    <linearGradient id="j" data-name="font-red" x1="1247.88" y1="842.38" x2="3139.12" y2="-249.53" gradientUnits="userSpaceOnUse">
      <stop offset="0" stop-color="#ee7159"/>
      <stop offset=".3" stop-color="#e62e27"/>
    </linearGradient>
    <linearGradient id="l" data-name="keyhole" x1="419.67" y1="188.62" x2="524.74" y2="249.28" gradientUnits="userSpaceOnUse">
      <stop offset="0" stop-color="#ee7159"/>
      <stop offset=".85" stop-color="#e62e27"/>
    </linearGradient>
  </defs>
  <g id="e" data-name="logo-shield">
    <path id="f" data-name="bg" d="M477.45,377.43s.02,0,.03,0c22.5-2.4,80-45.4,98.9-95.7,28.7-52.9,34.6-152.1,36.3-157.6s5.4-10,10-13.3c4.7-3.3,10.7-5,18.1-5h42.9s0,.03.01.04c-3.18-12.11-12.03-22.68-24.21-27.74L493.48,8.73c-4.2-1.8-11.53-3.2-16.03-3.2h-.16c-4.6,0-11.67,1.4-15.87,3.2l-165.9,69.4c-12.25,5.06-21.11,15.61-24.3,27.7h.02s42.98,0,42.98,0c7.4,0,13.4,1.7,18.1,5,4.7,3.4,8.4,7.8,10,13.3,1.7,5.5,7.7,104.7,36.3,157.6,18.89,50.28,76.15,93.26,98.67,95.7h.16Z" fill="#fff" isolation="isolate" opacity=".4" stroke-width="0"/>
    <path id="g" data-name="bg-r" d="M576.21,281.73c28.7-52.9,34.6-152.1,36.3-157.6s5.4-10,10-13.3c4.7-3.3,10.7-5,18.1-5h42.9s0,.03.01.04c-3.18-12.11-12.03-22.68-24.21-27.74L493.31,8.73c-4.2-1.8-11.53-3.2-16.03-3.2v371.9s.02,0,.03,0c22.5-2.4,80-45.4,98.9-95.7Z" fill="#fff" isolation="isolate" opacity=".2" stroke-width="0"/>
    <path id="h" data-name="v-shape" d="M477.31,377.43c22.5-2.4,80-45.4,98.9-95.7,28.7-52.9,34.6-152.1,36.3-157.6,1.7-5.5,5.4-10,10-13.3,4.7-3.3,10.7-5,18.1-5h42.9c1.7,5.2,2.4,11.5,1.5,30.1h0c-2.1,42.9-9.5,96-44.4,166.4-43.8,81.8-98,119.6-124.8,133.9-13.4,7-28,13.1-38.5,13.1h0c-10.5,0-24.9-6.1-38.3-13.1-26.9-14.3-81.1-52.2-124.8-133.9-34.8-70.4-42.3-123.4-44.4-166.4-.8-18.6-.1-24.9,1.5-30.1h42.9c7.4,0,13.4,1.7,18.1,5,4.7,3.4,8.4,7.8,10,13.3,1.7,5.5,7.7,104.7,36.3,157.6,18.9,50.3,76.2,93.3,98.7,95.7h0Z" fill="#fff" stroke-width="0"/>
  </g>
  <path d="M1005.42,422.43v-218.31h40.42c4.07,0,7.47.92,10.21,2.74,2.74,1.83,4.66,4.56,5.79,8.21l3.58,11.79c3.65-3.79,7.44-7.26,11.37-10.42,3.93-3.16,8.17-5.89,12.74-8.21,4.56-2.32,9.47-4.14,14.74-5.47,5.26-1.33,11.05-2,17.37-2,13.19,0,24.1,3.4,32.74,10.21,8.63,6.81,15.19,15.89,19.68,27.26,3.65-6.74,8.11-12.49,13.37-17.26,5.26-4.77,10.95-8.63,17.05-11.58s12.56-5.12,19.37-6.53c6.81-1.4,13.58-2.11,20.32-2.11,12.49,0,23.58,1.86,33.26,5.58,9.68,3.72,17.79,9.12,24.31,16.21,6.53,7.09,11.47,15.79,14.84,26.1,3.37,10.32,5.05,22,5.05,35.05v138.73h-65.26v-138.73c0-22.59-9.68-33.89-29.05-33.89-8.84,0-16.18,2.91-22,8.74s-8.74,14.21-8.74,25.16v138.73h-65.26v-138.73c0-12.49-2.46-21.26-7.37-26.31-4.91-5.05-12.14-7.58-21.68-7.58-5.89,0-11.47,1.33-16.74,4-5.26,2.67-10.21,6.25-14.84,10.74v157.89h-65.26ZM1518.66,422.43c-6.18,0-10.84-.84-14-2.53-3.16-1.68-5.79-5.19-7.89-10.53l-4.63-12c-5.47,4.63-10.74,8.7-15.79,12.21-5.05,3.51-10.28,6.49-15.68,8.95-5.4,2.46-11.16,4.28-17.26,5.47-6.11,1.19-12.88,1.79-20.32,1.79-9.97,0-19.02-1.3-27.16-3.91-8.14-2.61-15.05-6.44-20.74-11.51-5.68-5.07-10.07-11.37-13.16-18.9-3.09-7.53-4.63-16.23-4.63-26.08,0-7.74,1.96-15.7,5.89-23.87,3.93-8.16,10.74-15.59,20.42-22.28,9.68-6.69,22.74-12.28,39.16-16.79,16.42-4.51,37.12-6.76,62.1-6.76v-9.35c0-12.89-2.63-22.2-7.89-27.94-5.26-5.74-12.74-8.6-22.42-8.6-7.72,0-14.04.84-18.95,2.53-4.91,1.68-9.3,3.58-13.16,5.68-3.86,2.11-7.61,4-11.26,5.68-3.65,1.68-8,2.53-13.05,2.53-4.49,0-8.32-1.08-11.47-3.26-3.16-2.17-5.65-4.88-7.47-8.11l-11.79-20.42c13.19-11.65,27.82-20.31,43.89-26,16.07-5.68,33.29-8.53,51.68-8.53,13.19,0,25.08,2.14,35.68,6.42,10.59,4.28,19.58,10.25,26.95,17.89,7.37,7.65,13.02,16.74,16.95,27.26,3.93,10.53,5.89,22.04,5.89,34.53v136.41h-29.89ZM1443.71,382.65c8.42,0,15.79-1.47,22.1-4.42s12.7-7.72,19.16-14.32v-29.89c-13.05,0-23.79.85-32.21,2.55-8.42,1.7-15.09,3.82-20,6.37-4.91,2.55-8.32,5.45-10.21,8.71-1.89,3.26-2.84,6.79-2.84,10.61,0,7.51,2.03,12.78,6.11,15.82,4.07,3.05,10.03,4.57,17.89,4.57ZM1669.8,144.34c0,5.19-1.05,10.07-3.16,14.63-2.11,4.56-4.98,8.56-8.63,12-3.65,3.44-7.89,6.18-12.74,8.21-4.84,2.04-10,3.05-15.47,3.05s-10.32-1.02-14.95-3.05c-4.63-2.03-8.74-4.77-12.32-8.21-3.58-3.44-6.39-7.44-8.42-12-2.04-4.56-3.05-9.44-3.05-14.63s1.02-10.32,3.05-14.95c2.03-4.63,4.84-8.7,8.42-12.21,3.58-3.51,7.68-6.24,12.32-8.21,4.63-1.96,9.61-2.95,14.95-2.95s10.63.98,15.47,2.95c4.84,1.97,9.08,4.7,12.74,8.21,3.65,3.51,6.53,7.58,8.63,12.21,2.11,4.63,3.16,9.62,3.16,14.95ZM1662.22,204.13v218.31h-65.26v-218.31h65.26ZM1782.21,107.29v315.14h-65.26V107.29h65.26ZM1985.57,422.43c-6.18,0-10.84-.84-14-2.53-3.16-1.68-5.79-5.19-7.89-10.53l-4.63-12c-5.47,4.63-10.74,8.7-15.79,12.21-5.05,3.51-10.28,6.49-15.68,8.95-5.4,2.46-11.16,4.28-17.26,5.47-6.11,1.19-12.88,1.79-20.32,1.79-9.97,0-19.02-1.3-27.16-3.91-8.14-2.61-15.05-6.44-20.74-11.51-5.68-5.07-10.07-11.37-13.16-18.9-3.09-7.53-4.63-16.23-4.63-26.08,0-7.74,1.96-15.7,5.89-23.87,3.93-8.16,10.74-15.59,20.42-22.28,9.68-6.69,22.74-12.28,39.16-16.79,16.42-4.51,37.12-6.76,62.1-6.76v-9.35c0-12.89-2.63-22.2-7.89-27.94-5.26-5.74-12.74-8.6-22.42-8.6-7.72,0-14.04.84-18.95,2.53-4.91,1.68-9.3,3.58-13.16,5.68-3.86,2.11-7.61,4-11.26,5.68-3.65,1.68-8,2.53-13.05,2.53-4.49,0-8.32-1.08-11.47-3.26-3.16-2.17-5.65-4.88-7.47-8.11l-11.79-20.42c13.19-11.65,27.82-20.31,43.89-26,16.07-5.68,33.29-8.53,51.68-8.53,13.19,0,25.08,2.14,35.68,6.42,10.59,4.28,19.58,10.25,26.95,17.89,7.37,7.65,13.02,16.74,16.95,27.26,3.93,10.53,5.89,22.04,5.89,34.53v136.41h-29.89ZM1910.62,382.65c8.42,0,15.79-1.47,22.1-4.42s12.7-7.72,19.16-14.32v-29.89c-13.05,0-23.79.85-32.21,2.55-8.42,1.7-15.09,3.82-20,6.37-4.91,2.55-8.32,5.45-10.21,8.71-1.89,3.26-2.84,6.79-2.84,10.61,0,7.51,2.03,12.78,6.11,15.82,4.07,3.05,10.03,4.57,17.89,4.57ZM2061.77,422.43v-218.31h38.74c3.23,0,5.93.28,8.1.84,2.17.56,4,1.44,5.47,2.63,1.47,1.19,2.6,2.77,3.37,4.74.77,1.97,1.44,4.35,2,7.16l3.58,20.42c8-12.35,16.98-22.1,26.95-29.26,9.96-7.16,20.84-10.74,32.63-10.74,9.96,0,17.96,2.39,24,7.16l-8.42,48c-.56,2.95-1.68,5.02-3.37,6.21-1.68,1.19-3.93,1.79-6.74,1.79-2.39,0-5.19-.32-8.42-.95-3.23-.63-7.3-.95-12.21-.95-17.12,0-30.6,9.12-40.42,27.37v133.89h-65.26ZM2393.12,255.92c-1.97,2.39-3.86,4.28-5.68,5.68-1.83,1.4-4.42,2.1-7.79,2.1s-6.14-.77-8.74-2.32c-2.6-1.54-5.51-3.26-8.74-5.16-3.23-1.89-7.02-3.61-11.37-5.16-4.35-1.54-9.76-2.32-16.21-2.32-8,0-14.91,1.47-20.74,4.42-5.83,2.95-10.63,7.16-14.42,12.63-3.79,5.47-6.6,12.18-8.42,20.1-1.83,7.93-2.74,16.88-2.74,26.84,0,20.91,4.03,36.98,12.11,48.21,8.07,11.23,19.19,16.84,33.37,16.84,7.58,0,13.58-.95,18-2.84s8.17-4,11.26-6.32c3.09-2.32,5.93-4.45,8.53-6.42,2.59-1.96,5.86-2.95,9.79-2.95,5.19,0,9.12,1.9,11.79,5.68l18.95,23.37c-6.74,7.72-13.83,14-21.26,18.84-7.44,4.84-15.05,8.63-22.84,11.37s-15.61,4.63-23.47,5.68c-7.86,1.05-15.51,1.58-22.95,1.58-13.33,0-26.07-2.53-38.21-7.58-12.14-5.05-22.81-12.38-32-22-9.19-9.61-16.49-21.44-21.89-35.47-5.4-14.03-8.1-30.03-8.1-48,0-15.72,2.35-30.42,7.05-44.1,4.7-13.68,11.65-25.54,20.84-35.58,9.19-10.03,20.56-17.93,34.1-23.68,13.54-5.75,29.23-8.63,47.05-8.63s32.14,2.74,45.05,8.21c12.91,5.47,24.56,13.47,34.95,24l-17.26,22.95ZM2440.27,422.43V107.29h65.26v115.99c7.86-6.74,16.38-12.17,25.58-16.32,9.19-4.14,20.17-6.21,32.95-6.21,11.93,0,22.49,2.07,31.68,6.21,9.19,4.14,16.95,9.89,23.26,17.26s11.08,16.14,14.32,26.31c3.23,10.18,4.84,21.23,4.84,33.16v138.73h-65.26v-138.73c0-10.66-2.46-18.98-7.37-24.95-4.91-5.96-12.14-8.95-21.68-8.95-7.16,0-13.89,1.55-20.21,4.63-6.32,3.09-12.35,7.23-18.1,12.42v155.57h-65.26ZM2759.41,144.34c0,5.19-1.05,10.07-3.16,14.63-2.11,4.56-4.98,8.56-8.63,12-3.65,3.44-7.89,6.18-12.74,8.21-4.84,2.04-10,3.05-15.47,3.05s-10.32-1.02-14.95-3.05c-4.63-2.03-8.74-4.77-12.32-8.21-3.58-3.44-6.39-7.44-8.42-12-2.04-4.56-3.05-9.44-3.05-14.63s1.02-10.32,3.05-14.95c2.03-4.63,4.84-8.7,8.42-12.21,3.58-3.51,7.68-6.24,12.32-8.21,4.63-1.96,9.61-2.95,14.95-2.95s10.63.98,15.47,2.95c4.84,1.97,9.08,4.7,12.74,8.21,3.65,3.51,6.53,7.58,8.63,12.21,2.11,4.63,3.16,9.62,3.16,14.95ZM2751.83,204.13v218.31h-65.26v-218.31h65.26ZM2925.29,422.43h-59.37l-84.63-218.31h54.31c4.63,0,8.53,1.09,11.68,3.26,3.16,2.18,5.3,4.88,6.42,8.1l30.31,97.89c2.38,8,4.66,15.79,6.84,23.37,2.17,7.58,4.03,15.16,5.58,22.74,1.54-7.58,3.44-15.16,5.68-22.74,2.24-7.58,4.63-15.37,7.16-23.37l31.58-97.89c1.12-3.23,3.23-5.93,6.32-8.1,3.08-2.17,6.74-3.26,10.95-3.26h51.79l-84.63,218.31ZM3122.33,200.76c14.45,0,27.68,2.25,39.68,6.74,12,4.49,22.32,11.02,30.95,19.58,8.63,8.56,15.37,19.05,20.21,31.47,4.84,12.42,7.26,26.49,7.26,42.21,0,4.92-.21,8.91-.63,12-.42,3.09-1.19,5.55-2.32,7.37-1.12,1.83-2.63,3.09-4.53,3.79-1.89.7-4.32,1.05-7.26,1.05h-125.89c2.1,18.25,7.65,31.47,16.63,39.68,8.98,8.21,20.56,12.32,34.74,12.32,7.58,0,14.1-.91,19.58-2.74,5.47-1.82,10.35-3.86,14.63-6.11,4.28-2.24,8.21-4.28,11.79-6.1,3.58-1.82,7.33-2.74,11.26-2.74,5.19,0,9.12,1.9,11.79,5.68l18.95,23.37c-6.74,7.72-14,14-21.79,18.84s-15.79,8.63-24,11.37-16.42,4.63-24.63,5.68c-8.21,1.05-16.04,1.58-23.47,1.58-15.3,0-29.65-2.49-43.05-7.47-13.4-4.98-25.12-12.38-35.16-22.21-10.04-9.82-17.97-22.03-23.79-36.63-5.83-14.59-8.74-31.58-8.74-50.95,0-14.59,2.49-28.42,7.47-41.47,4.98-13.05,12.14-24.49,21.47-34.31,9.33-9.82,20.63-17.61,33.89-23.37,13.26-5.75,28.24-8.63,44.95-8.63ZM3123.6,245.81c-12.49,0-22.25,3.55-29.26,10.63-7.02,7.09-11.65,17.3-13.89,30.63h81.47c0-5.19-.67-10.24-2-15.16-1.34-4.91-3.51-9.3-6.53-13.16-3.02-3.86-6.98-6.98-11.89-9.37-4.91-2.38-10.88-3.58-17.89-3.58ZM3257.9,422.43v-218.31h38.74c3.23,0,5.93.28,8.1.84,2.17.56,4,1.44,5.47,2.63,1.47,1.19,2.6,2.77,3.37,4.74.77,1.97,1.44,4.35,2,7.16l3.58,20.42c8-12.35,16.98-22.1,26.95-29.26,9.96-7.16,20.84-10.74,32.63-10.74,9.96,0,17.96,2.39,24,7.16l-8.42,48c-.56,2.95-1.68,5.02-3.37,6.21-1.68,1.19-3.93,1.79-6.74,1.79-2.39,0-5.19-.32-8.42-.95-3.23-.63-7.3-.95-12.21-.95-17.12,0-30.6,9.12-40.42,27.37v133.89h-65.26Z" fill="url(#j)" stroke-width="0"/>
  <g id="k" data-name="logo-icon">
    <path id="m" data-name="keyhole" d="M477.2,137.33c-26.7,0-48.4,21.7-48.4,48.5,0,19.3,11.4,35.9,27.7,43.7v60.3c0,11.5,9.3,20.8,20.8,20.8s20.8-9.3,20.8-20.8v-60.3c16.3-7.8,27.6-24.4,27.5-43.7,0-26.8-21.7-48.5-48.4-48.5ZM504.2,193.03h-18.7v18.7h-16.1v-18.7h-18.7v-16.1h18.7v-18.8h16.1v18.8h18.7v16.1Z" fill="url(#l)" stroke-width="0"/>
    <polygon id="n" data-name="cross" points="469.4 176.93 450.7 176.93 450.7 193.03 469.4 193.03 469.4 211.73 485.5 211.73 485.5 193.03 504.2 193.03 504.2 176.93 485.5 176.93 485.5 158.13 469.4 158.13 469.4 176.93" fill="#fff" stroke-width="0"/>
  </g>
  <g id="o" data-name="PV">
    <path d="M903.6,305.53v116.3h-70.9v-116.3l-110.8-189.5h62.5c6.2,0,11,1.4,14.7,4.3,3.6,2.9,6.6,6.5,8.8,11l43.2,89c3.5,7.1,6.7,13.7,9.6,19.7,3,6,5.6,11.9,7.8,17.9,2.1-6,4.6-12,7.6-18s6.1-12.5,9.4-19.5l42.8-89c.8-1.8,2-3.6,3.5-5.5,1.5-1.8,3.1-3.5,5-4.9s4.1-2.7,6.5-3.6c2.4-.9,5.1-1.3,8.1-1.3h62.9l-110.7,189.4h0Z" fill="#fff" stroke-width="0"/>
    <path d="M80,320.23v102.2H9V116.73h107.8c21.5,0,40,2.5,55.5,7.6,15.4,5.1,28.2,12.2,38.2,21.1,10,9,17.3,19.5,22.2,31.7,4.7,12.2,7.1,25.3,7.1,39.4,0,15.3-2.4,29.2-7.3,42-4.9,12.8-12.4,23.7-22.5,32.7-10.1,9.1-22.8,16.2-38.3,21.3s-33.7,7.6-54.9,7.6h-36.8v.1h0ZM80,266.83h36.9c18.5,0,31.7-4.4,39.9-13.2,8.1-8.8,12.2-21.1,12.2-36.9,0-7-1-13.3-3.1-19.1-2.1-5.7-5.3-10.7-9.6-14.8-4.3-4.2-9.6-7.3-16.2-9.6-6.6-2.3-14.2-3.3-23.2-3.3h-36.9v96.9h0Z" fill="#fff" stroke-width="0"/>
  </g>
</svg>