<?xml version="1.0" encoding="UTF-8"?>
<svg id="g" data-name="color" xmlns="http://www.w3.org/2000/svg" xmlns:xlink="http://www.w3.org/1999/xlink" viewBox="0 0 1309.6063 510.2362">
  <defs>
    <linearGradient id="m" data-name="keyhole" x1="419.0053" y1="189.2765" x2="524.0764" y2="249.9393" gradientUnits="userSpaceOnUse">
      <stop offset="0" stop-color="#ee7159"/>
      <stop offset=".85" stop-color="#e62e27"/>
    </linearGradient>
    <linearGradient id="r" data-name="Unbenannter Verlauf 2" x1="1003.9461" y1="410.4968" x2="1346.5036" y2="212.7212" gradientUnits="userSpaceOnUse">
      <stop offset="0" stop-color="#ee7159"/>
      <stop offset=".4721" stop-color="#e62e27"/>
    </linearGradient>
  </defs>
  <g id="h" data-name="logo-shield">
    <path id="i" data-name="bg" d="M476.7839,378.0913c.0098.001.0201.0029.0299.0039,22.5-2.4,80-45.4,98.9-95.7,28.7-52.9,34.6-152.1,36.3-157.6s5.4-10,10-13.3c4.7-3.3,10.7-5,18.1-5h42.9c.0042.0129.0082.0262.0125.0392-3.1755-12.1116-12.0338-22.678-24.2125-27.7393L492.8138,9.395c-4.2-1.7999-11.5299-3.2-16.0299-3.2h-.1608c-4.6.0001-11.6701,1.4001-15.8701,3.2002l-165.9,69.3999c-12.245,5.056-21.1113,15.6061-24.2982,27.7021l.0157-.0021h42.9826c7.4,0,13.4,1.7,18.1,5,4.7,3.4,8.4,7.8,10,13.3,1.7,5.5,7.7,104.7,36.3,157.6,18.8918,50.2782,76.1498,93.262,98.6701,95.6961h.1608Z" style="fill: #0967ad; isolation: isolate; opacity: .4;"/>
    <path id="j" data-name="bg-r" d="M575.553,282.3952c28.7-52.9,34.6-152.1,36.3-157.6s5.4-10,10-13.3c4.7-3.3,10.7-5,18.1-5h42.9c.0042.0129.0082.0262.0125.0392-3.1755-12.1116-12.0338-22.678-24.2125-27.7393L492.653,9.395c-4.2-1.7999-11.5299-3.2-16.0299-3.2v371.8962c.0098.001.0201.0029.0299.0039,22.5-2.4,80-45.4,98.9-95.7Z" style="fill: #0967ad; isolation: isolate; opacity: .2;"/>
    <path id="k" data-name="v-shape" d="M476.653,378.0952c22.5-2.4,80-45.4,98.9-95.7,28.7-52.9,34.6-152.1,36.3-157.6,1.7-5.5,5.4-10,10-13.3,4.7-3.3,10.7-5,18.1-5h42.9c1.7,5.2,2.4,11.5,1.5,30.1h0c-2.1,42.9-9.5,96-44.4,166.4-43.8,81.8-98,119.6-124.8,133.9-13.4,7-28,13.1-38.5,13.1h0c-10.5,0-24.9-6.1-38.3-13.1-26.9-14.3-81.1-52.2-124.8-133.9-34.8-70.4-42.3-123.4-44.4-166.4-.8-18.6-.1-24.9,1.5-30.1h42.9c7.4,0,13.4,1.7,18.1,5,4.7,3.4,8.4,7.8,10,13.3,1.7,5.5,7.7,104.7,36.3,157.6,18.9,50.3,76.2,93.3,98.7,95.7h0Z" style="fill: #0967ad;"/>
  </g>
  <g id="l" data-name="logo-icon">
    <path id="n" data-name="keyhole" d="M476.5339,137.995c-26.7,0-48.4,21.7-48.4,48.5,0,19.3,11.4,35.9,27.7,43.7v60.3c0,11.5,9.3,20.8,20.8,20.8s20.8-9.3,20.8-20.8v-60.3c16.3-7.8,27.6-24.4,27.5001-43.7,0-26.8-21.7-48.5-48.4-48.5ZM503.5339,193.695h-18.7v18.7h-16.1v-18.7h-18.7v-16.1h18.7v-18.8h16.1v18.8h18.7v16.1Z" style="fill: url(#m);"/>
    <polygon id="o" data-name="cross" points="468.7339 177.5951 450.0339 177.5951 450.0339 193.6951 468.7339 193.6951 468.7339 212.3951 484.8339 212.3951 484.8339 193.6951 503.5339 193.6951 503.5339 177.5951 484.8339 177.5951 484.8339 158.7951 468.7339 158.7951 468.7339 177.5951" style="fill: #fff;"/>
  </g>
  <g id="p" data-name="PV">
    <path d="M902.9338,306.1951v116.3h-70.9v-116.3l-110.7999-189.5h62.5c6.2,0,11,1.4,14.7,4.3,3.6,2.9,6.6,6.5,8.8,11l43.2,89c3.5,7.1,6.7,13.7,9.6,19.7,3,6,5.6,11.9,7.8,17.9,2.1-6,4.6-12,7.6-18s6.1-12.5,9.4-19.5l42.8-89c.8-1.8,2-3.6,3.5-5.5,1.5-1.8,3.1-3.5,5-4.9,1.9-1.4,4.1-2.7,6.5-3.6,2.4-.9,5.1-1.3,8.1-1.3h62.9l-110.7,189.4h0Z" style="fill: #0967ad;"/>
    <path d="M79.3339,320.8951v102.2H8.3339V117.3951h107.8c21.5,0,40,2.5,55.5,7.6,15.4,5.1,28.2,12.2,38.2,21.1,10,9,17.3,19.5,22.2,31.7,4.7,12.2,7.1,25.3,7.1,39.4,0,15.3-2.4,29.2-7.3,42-4.9,12.8-12.4,23.7-22.5,32.7-10.1,9.1-22.8,16.2-38.3,21.3s-33.7,7.6-54.9,7.6h-36.8v.1h0ZM79.3339,267.4951h36.9c18.5,0,31.7-4.4,39.9-13.2,8.1-8.8,12.2-21.1,12.2-36.9,0-7-1-13.3-3.1-19.1-2.1-5.7-5.3-10.7-9.6-14.8-4.3-4.2-9.6-7.3-16.2-9.6-6.6-2.3-14.2-3.3-23.2-3.3h-36.9v96.9h0Z" style="fill: #0967ad;"/>
  </g>
  <path d="M1150.7995,423.495c-6.1777,0-10.8418-.8418-13.999-2.5264-3.1582-1.6836-5.7891-5.1904-7.8945-10.5254l-4.6318-12c-5.4727,4.6318-10.7363,8.7041-15.7881,12.21-5.0527,3.5098-10.2822,6.4932-15.6836,8.9473-5.4043,2.457-11.1572,4.2793-17.2627,5.4736-6.1045,1.1904-12.877,1.7891-20.3145,1.7891-9.9668,0-19.0186-1.3027-27.1562-3.9072-8.1416-2.6055-15.0527-6.4404-20.7363-11.5098-5.6836-5.0684-10.0723-11.3711-13.1572-18.9033-3.0889-7.5332-4.6309-16.2266-4.6309-26.0811,0-7.7432,1.9629-15.7002,5.8936-23.8672,3.9277-8.1641,10.7363-15.5918,20.4209-22.2822,9.6836-6.6875,22.7354-12.2822,39.1553-16.7881,16.4209-4.5068,37.1201-6.7598,62.1025-6.7598v-9.3486c0-12.8877-2.6318-22.2031-7.8945-27.9399-5.2627-5.7363-12.7363-8.6045-22.4199-8.6045-7.7197,0-14.0352.8418-18.9463,2.5264-4.9141,1.6836-9.2988,3.5781-13.1572,5.6836-3.8613,2.106-7.6152,4.0005-11.2627,5.6841-3.6514,1.6846-8,2.5264-13.0518,2.5264-4.4932,0-8.3154-1.085-11.4736-3.2627-3.1572-2.1748-5.6504-4.8755-7.4727-8.106l-11.7891-20.4199c13.1904-11.647,27.8213-20.3145,43.8926-25.9985,16.0684-5.6841,33.2939-8.5259,51.6816-8.5259,13.1904,0,25.084,2.1416,35.6826,6.4209,10.5947,4.2827,19.5781,10.2461,26.9463,17.8936,7.3672,7.6514,13.0156,16.7363,16.9463,27.2617,3.9277,10.5269,5.8945,22.0356,5.8945,34.5259v136.4141h-29.8936ZM1075.8562,383.7079c8.4199,0,15.7881-1.4736,22.1035-4.4209s12.7002-7.7168,19.1572-14.3154v-29.8936c-13.0518,0-23.7881.8525-32.209,2.5498s-15.0879,3.8223-19.999,6.3711c-4.9141,2.5488-8.3154,5.4502-10.21,8.707-1.8945,3.2559-2.8418,6.792-2.8418,10.6143,0,7.5059,2.0322,12.7793,6.1045,15.8213,4.0693,3.0459,10.0332,4.5664,17.8945,4.5664ZM1301.9441,145.4028c0,5.1938-1.0518,10.0718-3.1572,14.6309-2.1055,4.5625-4.9834,8.562-8.6309,11.9995-3.6514,3.4404-7.8945,6.1772-12.7363,8.21-4.8418,2.0361-10,3.0527-15.4736,3.0527-5.335,0-10.3154-1.0166-14.9463-3.0527-4.6318-2.0327-8.7363-4.7695-12.3154-8.21-3.5781-3.4375-6.3877-7.437-8.4209-11.9995-2.0352-4.5591-3.0518-9.437-3.0518-14.6309,0-5.332,1.0166-10.3154,3.0518-14.9468,2.0332-4.6313,4.8428-8.7002,8.4209-12.21,3.5791-3.5063,7.6836-6.2432,12.3154-8.21,4.6309-1.9639,9.6113-2.9473,14.9463-2.9473,5.4736,0,10.6318.9834,15.4736,2.9473,4.8418,1.9668,9.085,4.7036,12.7363,8.21,3.6475,3.5098,6.5254,7.5786,8.6309,12.21s3.1572,9.6147,3.1572,14.9468ZM1294.3659,205.1894v218.3057h-65.2598v-218.3057h65.2598Z" style="fill: url(#r);"/>
</svg>