<?xml version="1.0" encoding="UTF-8"?>
<svg xmlns="http://www.w3.org/2000/svg" xmlns:xlink="http://www.w3.org/1999/xlink" viewBox="0 0 1890.7087 510.2362">
  <defs>
    <linearGradient id="k" data-name="keyhole" x1="419.6668" y1="188.6166" x2="524.7375" y2="249.276" gradientUnits="userSpaceOnUse">
      <stop offset="0" stop-color="#ee7159"/>
      <stop offset=".85" stop-color="#e62e27"/>
    </linearGradient>
    <linearGradient id="s" data-name="font-red" x1="1076.6189" y1="521.3592" x2="1785.8246" y2="111.8991" gradientUnits="userSpaceOnUse">
      <stop offset="0" stop-color="#ee7159"/>
      <stop offset=".3" stop-color="#e62e27"/>
    </linearGradient>
  </defs>
  <g id="d" data-name="white">
    <g id="e" data-name="logo-shield">
      <path id="f" data-name="bg" d="M477.4456,377.4295c.0098.001.0201.0029.0299.0039,22.5-2.4,80-45.4,98.9-95.7,28.7-52.9,34.6-152.1,36.3-157.6s5.4-10,10-13.3c4.7-3.3,10.7-5,18.1-5h42.9c.0042.0129.0082.0262.0125.0392-3.1755-12.1116-12.0338-22.678-24.2125-27.7393L493.4755,8.7333c-4.2-1.7999-11.5299-3.2-16.0299-3.2h-.1608c-4.6.0001-11.6701,1.4001-15.8701,3.2002l-165.9,69.3999c-12.245,5.056-21.1113,15.6061-24.2982,27.7021l.0157-.0021h42.9826c7.4,0,13.4,1.7,18.1,5,4.7,3.4,8.4,7.8,10,13.3,1.7,5.5,7.7,104.7,36.3,157.6,18.8918,50.2782,76.1498,93.262,98.6701,95.6961h.1608Z" style="fill: #fff; isolation: isolate; opacity: .4;"/>
      <path id="g" data-name="bg-r" d="M576.2147,281.7335c28.7-52.9,34.6-152.1,36.3-157.6s5.4-10,10-13.3c4.7-3.3,10.7-5,18.1-5h42.9c.0042.0129.0082.0262.0125.0392-3.1755-12.1116-12.0338-22.678-24.2125-27.7393L493.3147,8.7333c-4.2-1.7999-11.5299-3.2-16.0299-3.2v371.8962c.0098.001.0201.0029.0299.0039,22.5-2.4,80-45.4,98.9-95.7Z" style="fill: #fff; isolation: isolate; opacity: .2;"/>
      <path id="h" data-name="v-shape" d="M477.3147,377.4335c22.5-2.4,80-45.4,98.9-95.7,28.7-52.9,34.6-152.1,36.3-157.6,1.7-5.5,5.4-10,10-13.3,4.7-3.3,10.7-5,18.1-5h42.9c1.7,5.2,2.4,11.5,1.5,30.1h0c-2.1,42.9-9.5,96-44.4,166.4-43.8,81.8-98,119.6-124.8,133.9-13.4,7-28,13.1-38.5,13.1h0c-10.5,0-24.9-6.1-38.3-13.1-26.9-14.3-81.1-52.2-124.8-133.9-34.8-70.4-42.3-123.4-44.4-166.4-.8-18.6-.1-24.9,1.5-30.1h42.9c7.4,0,13.4,1.7,18.1,5,4.7,3.4,8.4,7.8,10,13.3,1.7,5.5,7.7,104.7,36.3,157.6,18.9,50.3,76.2,93.3,98.7,95.7h0Z" style="fill: #fff;"/>
    </g>
    <g id="j" data-name="logo-icon">
      <path id="l" data-name="keyhole" d="M477.1956,137.3333c-26.7,0-48.4,21.7-48.4,48.5,0,19.3,11.4,35.9,27.7,43.7v60.3c0,11.5,9.3,20.8,20.8,20.8s20.8-9.3,20.8-20.8v-60.3c16.3-7.8,27.6-24.4,27.5001-43.7,0-26.8-21.7-48.5-48.4-48.5ZM504.1956,193.0333h-18.7v18.7h-16.1v-18.7h-18.7v-16.1h18.7v-18.8h16.1v18.8h18.7v16.1Z" style="fill: url(#k);"/>
      <polygon id="m" data-name="cross" points="469.3956 176.9333 450.6956 176.9333 450.6956 193.0333 469.3956 193.0333 469.3956 211.7333 485.4956 211.7333 485.4956 193.0333 504.1956 193.0333 504.1956 176.9333 485.4956 176.9333 485.4956 158.1333 469.3956 158.1333 469.3956 176.9333" style="fill: #fff;"/>
    </g>
    <g id="n" data-name="PV">
      <path d="M903.5956,305.5333v116.3h-70.9v-116.3l-110.7999-189.5h62.5c6.2,0,11,1.4,14.7,4.3,3.6,2.9,6.6,6.5,8.8,11l43.2,89c3.5,7.1,6.7,13.7,9.6,19.7,3,6,5.6,11.9,7.8,17.9,2.1-6,4.6-12,7.6-18s6.1-12.5,9.4-19.5l42.8-89c.8-1.8,2-3.6,3.5-5.5,1.5-1.8,3.1-3.5,5-4.9s4.1-2.7,6.5-3.6c2.4-.9,5.1-1.3,8.1-1.3h62.9l-110.7,189.4h0Z" style="fill: #fff;"/>
      <path d="M79.9956,320.2333v102.2H8.9956V116.7333h107.8c21.5,0,40,2.5,55.5,7.6,15.4,5.1,28.2,12.2,38.2,21.1,10,9,17.3,19.5,22.2,31.7,4.7,12.2,7.1,25.3,7.1,39.4,0,15.3-2.4,29.2-7.3,42-4.9,12.8-12.4,23.7-22.5,32.7-10.1,9.1-22.8,16.2-38.3,21.3s-33.7,7.6-54.9,7.6h-36.8v.1h0ZM79.9956,266.8333h36.9c18.5,0,31.7-4.4,39.9-13.2,8.1-8.8,12.2-21.1,12.2-36.9,0-7-1-13.3-3.1-19.1-2.1-5.7-5.3-10.7-9.6-14.8-4.3-4.2-9.6-7.3-16.2-9.6-6.6-2.3-14.2-3.3-23.2-3.3h-36.9v96.9h0Z" style="fill: #fff;"/>
    </g>
    <g id="o" data-name="font big">
      <g>
        <path d="M1149.2947,255.9149c-1.9678,2.3887-3.8623,4.2832-5.6846,5.6846-1.8252,1.4043-4.4209,2.1045-7.7891,2.1045-3.2295,0-6.1406-.7695-8.7363-2.3154-2.5986-1.543-5.5098-3.2627-8.7363-5.1572-3.2295-1.8945-7.0195-3.6123-11.3682-5.1582-4.3516-1.542-9.7559-2.3154-16.209-2.3154-8,0-14.9141,1.4736-20.7363,4.4209-5.8252,2.9473-10.6309,7.1572-14.4199,12.6309-3.79,5.4736-6.5986,12.1768-8.4209,20.1045-1.8252,7.9307-2.7363,16.877-2.7363,26.8408,0,20.9131,4.0322,36.9814,12.1045,48.208,8.0684,11.2295,19.1895,16.8408,33.3662,16.8408,7.5791,0,13.5791-.9473,17.999-2.8418,4.4209-1.8945,8.1748-3.999,11.2627-6.3154,3.0859-2.3154,5.9277-4.4531,8.5264-6.4209,2.5947-1.9629,5.8584-2.9473,9.7891-2.9473,5.1904,0,9.1211,1.8955,11.7891,5.6846l18.9463,23.3672c-6.7363,7.7197-13.8252,13.999-21.2627,18.8408-7.4404,4.8418-15.0518,8.6318-22.8408,11.3682s-15.6143,4.6309-23.4727,5.6836c-7.8613,1.0527-15.5088,1.5791-22.9463,1.5791-13.334,0-26.0703-2.5264-38.208-7.5781-12.1416-5.0527-22.8086-12.3848-31.999-21.999-9.1934-9.6113-16.4922-21.4365-21.8936-35.4727-5.4043-14.0322-8.1045-30.0312-8.1045-47.9971,0-15.7168,2.3486-30.4199,7.0518-44.1035,4.7012-13.6836,11.6475-25.541,20.8418-35.5771,9.1904-10.0322,20.5576-17.9268,34.1035-23.6836,13.542-5.7529,29.2256-8.6309,47.0498-8.6309,17.1211,0,32.1367,2.7373,45.0508,8.21,12.9102,5.4736,24.5576,13.4736,34.9453,24l-17.2617,22.9453Z" style="fill: #e62e27;"/>
        <path d="M1293.7058,200.7596c16.5586,0,31.6465,2.5986,45.2607,7.7891,13.6113,5.1943,25.2949,12.6309,35.0508,22.3145,9.7529,9.6846,17.332,21.4404,22.7363,35.2617,5.4004,13.8252,8.1045,29.3672,8.1045,46.6299,0,17.4033-2.7041,33.0869-8.1045,47.0498-5.4043,13.9668-12.9834,25.8252-22.7363,35.5771-9.7559,9.7568-21.4395,17.2627-35.0508,22.5254-13.6143,5.2627-28.7021,7.8945-45.2607,7.8945-16.7031,0-31.8936-2.6318-45.5771-7.8945s-25.4727-12.7686-35.3662-22.5254c-9.8945-9.752-17.5459-21.6104-22.9463-35.5771-5.4043-13.9629-8.1055-29.6465-8.1055-47.0498,0-17.2627,2.7012-32.8047,8.1055-46.6299,5.4004-13.8213,13.0518-25.5771,22.9463-35.2617,9.8936-9.6836,21.6826-17.1201,35.3662-22.3145,13.6836-5.1904,28.874-7.7891,45.5771-7.7891ZM1293.7058,377.3826c15.0156,0,26.0674-5.2959,33.1562-15.8936,7.085-10.5947,10.6309-26.6992,10.6309-48.3135s-3.5459-37.6826-10.6309-48.208c-7.0889-10.5264-18.1406-15.7891-33.1562-15.7891-15.4404,0-26.7363,5.2627-33.8936,15.7891-7.1572,10.5254-10.7363,26.5967-10.7363,48.208s3.5791,37.7188,10.7363,48.3135c7.1572,10.5977,18.4531,15.8936,33.8936,15.8936Z" style="fill: #e62e27;"/>
        <path d="M1593.8952,422.4334c-4.0723,0-7.4736-.9111-10.21-2.7363-2.7363-1.8223-4.668-4.5596-5.7891-8.2109l-5.0527-16.6299c-4.3516,4.6309-8.9141,8.8408-13.6836,12.6309-4.7725,3.7891-9.9297,7.0518-15.4727,9.7891-5.5459,2.7363-11.5098,4.8418-17.8936,6.3154-6.3877,1.4736-13.2988,2.21-20.7363,2.21-11.3682,0-21.8936-2.5264-31.5771-7.5781-9.6836-5.0527-18.0352-12.3486-25.0518-21.8936-7.0195-9.543-12.5254-21.2266-16.5254-35.0518-4-13.8213-6-29.5771-6-47.2607,0-16.2783,2.2441-31.3994,6.7373-45.3662,4.4893-13.9629,10.8408-26.0312,19.0518-36.209,8.21-10.1738,18.0674-18.1367,29.5771-23.8936,11.5059-5.7529,24.209-8.6309,38.1035-8.6309,11.2266,0,20.7354,1.6514,28.5244,4.9473,7.7891,3.2988,14.8418,7.6143,21.1572,12.9463v-110.5205h65.2598v315.1426h-40.4189ZM1527.7937,375.699c4.7695,0,9.085-.4541,12.9463-1.3682,3.8584-.9111,7.4014-2.2109,10.6309-3.8945,3.2275-1.6846,6.2793-3.79,9.1572-6.3154,2.875-2.5264,5.7178-5.4736,8.5264-8.8418v-92.627c-5.0527-5.4736-10.4209-9.2959-16.1045-11.4736-5.6836-2.1738-11.6836-3.2627-17.999-3.2627-6.0361,0-11.5781,1.1934-16.6309,3.5781-5.0527,2.3887-9.4404,6.2109-13.1572,11.4736-3.7207,5.2627-6.6309,12.1045-8.7363,20.5254s-3.1582,18.5977-3.1582,30.5244c0,11.5098.8428,21.1934,2.5264,29.0518,1.6846,7.8613,4.0332,14.21,7.0527,19.0518,3.0156,4.8418,6.6309,8.3154,10.8408,10.4199,4.2109,2.1055,8.9111,3.1582,14.1055,3.1582Z" style="fill: #e62e27;"/>
        <path d="M1778.3025,200.7596c14.4531,0,27.6826,2.2471,39.6816,6.7363,12,4.4932,22.3154,11.0195,30.9463,19.5781,8.6309,8.5625,15.3672,19.0518,20.209,31.4727,4.8428,12.4199,7.2637,26.4922,7.2637,42.208,0,4.915-.2109,8.9141-.6318,12-.4209,3.0889-1.1943,5.5459-2.3154,7.3682-1.125,1.8252-2.6318,3.0879-4.5264,3.7891-1.8945.7041-4.3154,1.0527-7.2627,1.0527h-125.8887c2.1045,18.2461,7.6475,31.4717,16.6309,39.6816,8.9795,8.2109,20.5576,12.3154,34.7354,12.3154,7.5781,0,14.1045-.9111,19.5771-2.7363,5.4736-1.8223,10.3486-3.8584,14.6309-6.1055,4.2793-2.2432,8.2109-4.2793,11.7891-6.1045,3.5791-1.8223,7.332-2.7373,11.2627-2.7373,5.1904,0,9.1211,1.8955,11.7891,5.6846l18.9463,23.3672c-6.7363,7.7197-13.999,13.999-21.7881,18.8408s-15.7891,8.6318-23.999,11.3682-16.4199,4.6309-24.6309,5.6836c-8.21,1.0527-16.0352,1.5791-23.4717,1.5791-15.2988,0-29.6504-2.4932-43.0508-7.4736-13.4043-4.9795-25.124-12.3838-35.1562-22.209-10.0361-9.8223-17.9668-22.0322-23.7881-36.6299-5.8262-14.5947-8.7363-31.5771-8.7363-50.9453,0-14.5947,2.4893-28.4189,7.4727-41.4717,4.9805-13.0518,12.1377-24.4883,21.4727-34.3135,9.332-9.8223,20.6309-17.6113,33.8936-23.3682,13.2627-5.7529,28.2422-8.6309,44.9453-8.6309ZM1779.5652,245.8104c-12.4932,0-22.2451,3.5459-29.2617,10.6309-7.0195,7.0889-11.6504,17.2988-13.8936,30.6299h81.4697c0-5.1904-.668-10.2422-2-15.1562-1.3359-4.9111-3.5098-9.2959-6.5264-13.1582-3.0195-3.8574-6.9834-6.9795-11.8945-9.3672-4.9141-2.3848-10.877-3.5791-17.8936-3.5791Z" style="fill: #e62e27;"/>
      </g>
    </g>
  </g>
  <g id="p" data-name="color">
    <path d="M1149.2947,255.9149c-1.9678,2.3887-3.8623,4.2832-5.6846,5.6846-1.8252,1.4043-4.4209,2.1045-7.7891,2.1045-3.2295,0-6.1406-.7695-8.7363-2.3154-2.5986-1.543-5.5098-3.2627-8.7363-5.1572-3.2295-1.8945-7.0195-3.6123-11.3682-5.1582-4.3516-1.542-9.7559-2.3154-16.209-2.3154-8,0-14.9141,1.4736-20.7363,4.4209-5.8252,2.9473-10.6309,7.1572-14.4199,12.6309-3.79,5.4736-6.5986,12.1768-8.4209,20.1045-1.8252,7.9307-2.7363,16.877-2.7363,26.8408,0,20.9131,4.0322,36.9814,12.1045,48.208,8.0684,11.2295,19.1895,16.8408,33.3662,16.8408,7.5791,0,13.5791-.9473,17.999-2.8418,4.4209-1.8945,8.1748-3.999,11.2627-6.3154,3.0859-2.3154,5.9277-4.4531,8.5264-6.4209,2.5947-1.9629,5.8584-2.9473,9.7891-2.9473,5.1904,0,9.1211,1.8955,11.7891,5.6846l18.9463,23.3672c-6.7363,7.7197-13.8252,13.999-21.2627,18.8408-7.4404,4.8418-15.0518,8.6318-22.8408,11.3682s-15.6143,4.6309-23.4727,5.6836c-7.8613,1.0527-15.5088,1.5791-22.9463,1.5791-13.334,0-26.0703-2.5264-38.208-7.5781-12.1416-5.0527-22.8086-12.3848-31.999-21.999-9.1934-9.6113-16.4922-21.4365-21.8936-35.4727-5.4043-14.0322-8.1045-30.0312-8.1045-47.9971,0-15.7168,2.3486-30.4199,7.0518-44.1035,4.7012-13.6836,11.6475-25.541,20.8418-35.5771,9.1904-10.0322,20.5576-17.9268,34.1035-23.6836,13.542-5.7529,29.2256-8.6309,47.0498-8.6309,17.1211,0,32.1367,2.7373,45.0508,8.21,12.9102,5.4736,24.5576,13.4736,34.9453,24l-17.2617,22.9453ZM1293.7058,200.7596c16.5586,0,31.6465,2.5986,45.2607,7.7891,13.6113,5.1943,25.2949,12.6309,35.0508,22.3145,9.7529,9.6846,17.332,21.4404,22.7363,35.2617,5.4004,13.8252,8.1045,29.3672,8.1045,46.6299,0,17.4033-2.7041,33.0869-8.1045,47.0498-5.4043,13.9668-12.9834,25.8252-22.7363,35.5771-9.7559,9.7568-21.4395,17.2627-35.0508,22.5254-13.6143,5.2627-28.7021,7.8945-45.2607,7.8945-16.7031,0-31.8936-2.6318-45.5771-7.8945s-25.4727-12.7686-35.3662-22.5254c-9.8945-9.752-17.5459-21.6104-22.9463-35.5771-5.4043-13.9629-8.1055-29.6465-8.1055-47.0498,0-17.2627,2.7012-32.8047,8.1055-46.6299,5.4004-13.8213,13.0518-25.5771,22.9463-35.2617,9.8936-9.6836,21.6826-17.1201,35.3662-22.3145,13.6836-5.1904,28.874-7.7891,45.5771-7.7891ZM1293.7058,377.3826c15.0156,0,26.0674-5.2959,33.1562-15.8936,7.085-10.5947,10.6309-26.6992,10.6309-48.3135s-3.5459-37.6826-10.6309-48.208c-7.0889-10.5264-18.1406-15.7891-33.1562-15.7891-15.4404,0-26.7363,5.2627-33.8936,15.7891-7.1572,10.5254-10.7363,26.5967-10.7363,48.208s3.5791,37.7188,10.7363,48.3135c7.1572,10.5977,18.4531,15.8936,33.8936,15.8936ZM1593.8952,422.4334c-4.0723,0-7.4736-.9111-10.21-2.7363-2.7363-1.8223-4.668-4.5596-5.7891-8.2109l-5.0527-16.6299c-4.3516,4.6309-8.9141,8.8408-13.6836,12.6309-4.7725,3.7891-9.9297,7.0518-15.4727,9.7891-5.5459,2.7363-11.5098,4.8418-17.8936,6.3154-6.3877,1.4736-13.2988,2.21-20.7363,2.21-11.3682,0-21.8936-2.5264-31.5771-7.5781-9.6836-5.0527-18.0352-12.3486-25.0518-21.8936-7.0195-9.543-12.5254-21.2266-16.5254-35.0518-4-13.8213-6-29.5771-6-47.2607,0-16.2783,2.2441-31.3994,6.7373-45.3662,4.4893-13.9629,10.8408-26.0312,19.0518-36.209,8.21-10.1738,18.0674-18.1367,29.5771-23.8936,11.5059-5.7529,24.209-8.6309,38.1035-8.6309,11.2266,0,20.7354,1.6514,28.5244,4.9473,7.7891,3.2988,14.8418,7.6143,21.1572,12.9463v-110.5205h65.2598v315.1426h-40.4189ZM1527.7937,375.699c4.7695,0,9.085-.4541,12.9463-1.3682,3.8584-.9111,7.4014-2.2109,10.6309-3.8945,3.2275-1.6846,6.2793-3.79,9.1572-6.3154,2.875-2.5264,5.7178-5.4736,8.5264-8.8418v-92.627c-5.0527-5.4736-10.4209-9.2959-16.1045-11.4736-5.6836-2.1738-11.6836-3.2627-17.999-3.2627-6.0361,0-11.5781,1.1934-16.6309,3.5781-5.0527,2.3887-9.4404,6.2109-13.1572,11.4736-3.7207,5.2627-6.6309,12.1045-8.7363,20.5254s-3.1582,18.5977-3.1582,30.5244c0,11.5098.8428,21.1934,2.5264,29.0518,1.6846,7.8613,4.0332,14.21,7.0527,19.0518,3.0156,4.8418,6.6309,8.3154,10.8408,10.4199,4.2109,2.1055,8.9111,3.1582,14.1055,3.1582ZM1778.3025,200.7596c14.4531,0,27.6826,2.2471,39.6816,6.7363,12,4.4932,22.3154,11.0195,30.9463,19.5781,8.6309,8.5625,15.3672,19.0518,20.209,31.4727,4.8428,12.4199,7.2637,26.4922,7.2637,42.208,0,4.915-.2109,8.9141-.6318,12-.4209,3.0889-1.1943,5.5459-2.3154,7.3682-1.125,1.8252-2.6318,3.0879-4.5264,3.7891-1.8945.7041-4.3154,1.0527-7.2627,1.0527h-125.8887c2.1045,18.2461,7.6475,31.4717,16.6309,39.6816,8.9795,8.2109,20.5576,12.3154,34.7354,12.3154,7.5781,0,14.1045-.9111,19.5771-2.7363,5.4736-1.8223,10.3486-3.8584,14.6309-6.1055,4.2793-2.2432,8.2109-4.2793,11.7891-6.1045,3.5791-1.8223,7.332-2.7373,11.2627-2.7373,5.1904,0,9.1211,1.8955,11.7891,5.6846l18.9463,23.3672c-6.7363,7.7197-13.999,13.999-21.7881,18.8408s-15.7891,8.6318-23.999,11.3682-16.4199,4.6309-24.6309,5.6836c-8.21,1.0527-16.0352,1.5791-23.4717,1.5791-15.2988,0-29.6504-2.4932-43.0508-7.4736-13.4043-4.9795-25.124-12.3838-35.1562-22.209-10.0361-9.8223-17.9668-22.0322-23.7881-36.6299-5.8262-14.5947-8.7363-31.5771-8.7363-50.9453,0-14.5947,2.4893-28.4189,7.4727-41.4717,4.9805-13.0518,12.1377-24.4883,21.4727-34.3135,9.332-9.8223,20.6309-17.6113,33.8936-23.3682,13.2627-5.7529,28.2422-8.6309,44.9453-8.6309ZM1779.5652,245.8104c-12.4932,0-22.2451,3.5459-29.2617,10.6309-7.0195,7.0889-11.6504,17.2988-13.8936,30.6299h81.4697c0-5.1904-.668-10.2422-2-15.1562-1.3359-4.9111-3.5098-9.2959-6.5264-13.1582-3.0195-3.8574-6.9834-6.9795-11.8945-9.3672-4.9141-2.3848-10.877-3.5791-17.8936-3.5791Z" style="fill: url(#s);"/>
  </g>
</svg>