<?xml version="1.0" encoding="UTF-8"?>
<svg xmlns="http://www.w3.org/2000/svg" xmlns:xlink="http://www.w3.org/1999/xlink" viewBox="0 0 453.5433 453.5433">
  <defs>
    <linearGradient id="o" data-name="keyhole" x1="198.9835" y1="233.6202" x2="252.2028" y2="141.4417" gradientUnits="userSpaceOnUse">
      <stop offset="0" stop-color="#ee7159"/>
      <stop offset=".85" stop-color="#e62e27"/>
    </linearGradient>
  </defs>
  <g id="h" data-name="color">
    <g id="j" data-name="shield">
      <path id="k" data-name="bg" d="M226.883,378.0913c.0098.001.0201.0029.0299.0039,22.5-2.4,80-45.4,98.9-95.7,28.7-52.9,34.6-152.1,36.3-157.6s5.4-10,10-13.3c4.7-3.3,10.7-5,18.1-5h42.9c.0042.0129.0082.0262.0125.0392-3.1755-12.1116-12.0338-22.678-24.2125-27.7393L242.9129,9.395c-4.2-1.7999-11.5299-3.2-16.0299-3.2h-.1608c-4.6.0001-11.6701,1.4001-15.8701,3.2002L44.952,78.7952c-12.245,5.056-21.1113,15.6061-24.2982,27.7021l.0157-.0021h42.9826c7.4,0,13.4,1.7,18.1,5,4.7,3.4,8.4,7.8,10,13.3,1.7,5.5,7.7,104.7,36.3,157.6,18.8918,50.2782,76.1498,93.262,98.6701,95.6961h.1608Z" style="fill: #0967ad; isolation: isolate; opacity: .4;"/>
      <path id="l" data-name="bg-r" d="M325.6521,282.3952c28.7-52.9,34.6-152.1,36.3-157.6s5.4-10,10-13.3c4.7-3.3,10.7-5,18.1-5h42.9c.0042.0129.0082.0262.0125.0392-3.1755-12.1116-12.0338-22.678-24.2125-27.7393L242.7521,9.395c-4.2-1.7999-11.5299-3.2-16.0299-3.2v371.8962c.0098.001.0201.0029.0299.0039,22.5-2.4,80-45.4,98.9-95.7Z" style="fill: #0967ad; isolation: isolate; opacity: .2;"/>
      <path id="m" data-name="v-shape" d="M226.7521,378.0952c22.5-2.4,80-45.4,98.9-95.7,28.7-52.9,34.6-152.1,36.3-157.6,1.7-5.5,5.4-10,10-13.3,4.7-3.3,10.7-5,18.1-5h42.9c1.7,5.2,2.4,11.5,1.5,30.1h0c-2.1,42.9-9.5,96-44.4,166.4-43.8,81.8-98,119.6-124.8,133.9-13.4,7-28,13.1-38.5,13.1h0c-10.5,0-24.9-6.1-38.3-13.1-26.9-14.3-81.1-52.2-124.8-133.9C28.8521,232.5952,21.3521,179.5952,19.2521,136.5952c-.8-18.6-.1-24.9,1.5-30.1h42.9c7.4,0,13.4,1.7,18.1,5,4.7,3.4,8.4,7.8,10,13.3,1.7,5.5,7.7,104.7,36.3,157.6,18.9,50.3,76.2,93.3,98.7,95.7h0Z" style="fill: #0967ad;"/>
    </g>
  </g>
  <g id="n" data-name="icon">
    <g>
      <path d="M141.8984,164.1701c0-2.0973-.4023-3.7831-1.2059-5.0596-.8045-1.2755-2.2545-1.9139-4.3518-1.9139v-9.0705c1.0487,0,1.9312-.1745,2.6478-.5243.7161-.349,1.2848-.8298,1.704-1.442.4195-.611.725-1.3452.9176-2.2021.1917-.856.2882-1.7909.2882-2.8051,0-1.5376-.0965-3.0936-.2882-4.6663-.1926-1.573-.4112-3.146-.6553-4.719-.245-1.573-.4639-3.1632-.6553-4.7714-.1926-1.6072-.2885-3.2153-.2885-4.8238,0-2.8313.4106-5.4085,1.2321-7.7336.8209-2.3242,2.0973-4.3075,3.8275-5.9507,1.7302-1.6427,3.9234-2.9102,6.5802-3.8013,2.6562-.8914,5.8373-1.3372,9.5427-1.3372h2.7264v7.0259c0,.5595-.123,1.0314-.3671,1.4158-.245.385-.5425.6994-.8914.9436-.3498.245-.7167.4285-1.1011.5505-.385.123-.7167.1837-.996.1837-2.2024,0-3.8195.6815-4.85,2.0446-1.0314,1.3634-1.5468,3.2508-1.5468,5.6628,0,1.9225.0786,3.7406.2358,5.4529.1575,1.7129.3228,3.3645.4981,4.9548.1745,1.5908.3409,3.1549.4981,4.6925.1572,1.5384.2361,3.0936.2361,4.6666,0,1.3288-.1754,2.6044-.5243,3.8275-.3498,1.2237-.8834,2.351-1.5992,3.3818-.717,1.0314-1.5992,1.9398-2.6478,2.7264-1.0487.7863-2.2545,1.3893-3.6179,1.8088,1.3634.4195,2.5692,1.0141,3.6179,1.7826,1.0487.7694,1.9309,1.6698,2.6478,2.7002.7158,1.0314,1.2493,2.1679,1.5992,3.4083.349,1.241.5243,2.5085.5243,3.801,0,1.573-.0789,3.1287-.2361,4.6666-.1572,1.5384-.3236,3.1025-.4981,4.6925-.1754,1.5911-.3406,3.2427-.4981,4.9551-.1572,1.7129-.2358,3.5307-.2358,5.4526,0,2.412.5154,4.2994,1.5468,5.6628,1.0305,1.3631,2.6475,2.0449,4.85,2.0449.2793,0,.611.0604.996.1834.3844.1221.7512.3055,1.1011.5505.349.2442.6464.5586.8914.9439.2442.3841.3671.856.3671,1.4155v7.0259h-2.7264c-3.7054,0-6.8865-.4457-9.5427-1.3369-2.6568-.8914-4.85-2.1679-6.5802-3.8275-1.7302-1.6608-3.0066-3.6441-3.8275-5.951-.8215-2.3069-1.2321-4.8762-1.2321-7.7074,0-1.6075.0959-3.2156.2885-4.8238.1914-1.6075.4103-3.1984.6553-4.7714.2442-1.573.4627-3.146.6553-4.7187.1917-1.573.2882-3.1281.2882-4.6666ZM311.546,230.0375c0,1.5384.0959,3.0936.2882,4.6666.1917,1.5727.4106,3.1457.6556,4.7187.2442,1.573.4627,3.1638.6553,4.7714.1917,1.6081.2882,3.2162.2882,4.8238,0,2.8313-.4112,5.4005-1.2321,7.7074-.8218,2.3069-2.0973,4.2902-3.8275,5.951-1.7302,1.6596-3.9243,2.9361-6.5802,3.8275-2.6568.8911-5.8379,1.3369-9.5424,1.3369h-2.7264v-7.0259c0-.5595.1221-1.0314.3668-1.4155.2442-.3853.5416-.6997.8914-.9439.349-.245.7161-.4285,1.1011-.5505.3841-.123.7161-.1834.9963-.1834,2.2021,0,3.8186-.6818,4.85-2.0449,1.0305-1.3634,1.5468-3.2508,1.5468-5.6628,0-1.9219-.0789-3.7397-.2361-5.4526-.1572-1.7123-.3236-3.3639-.4981-4.9551-.1754-1.59-.3406-3.154-.4981-4.6925-.1572-1.5379-.2358-3.0936-.2358-4.6666,0-1.2925.1745-2.56.5243-3.801.349-1.2404.8822-2.3769,1.5992-3.4083.7161-1.0305,1.59-1.9309,2.6213-2.7002,1.0308-.7685,2.2286-1.3631,3.5917-1.7826-1.3631-.4195-2.5609-1.0225-3.5917-1.8088-1.0314-.7866-1.9053-1.6951-2.6213-2.7264-.717-1.0308-1.2502-2.1581-1.5992-3.3818-.3498-1.2231-.5243-2.4987-.5243-3.8275,0-1.573.0786-3.1281.2358-4.6666.1575-1.5376.3228-3.1016.4981-4.6925.1745-1.5903.3409-3.2418.4981-4.9548.1572-1.7123.2361-3.5304.2361-5.4529,0-2.412-.5163-4.2994-1.5468-5.6628-1.0314-1.3631-2.6478-2.0446-4.85-2.0446-.2802,0-.6122-.0607-.9963-.1837-.385-.1221-.7521-.3055-1.1011-.5505-.3498-.2442-.6473-.5586-.8914-.9436-.2447-.3844-.3668-.8563-.3668-1.4158v-7.0259h2.7264c3.7045,0,6.8856.4457,9.5424,1.3372,2.6559.8911,4.85,2.1586,6.5802,3.8013,1.7302,1.6433,3.0057,3.6265,3.8275,5.9507.8209,2.3251,1.2321,4.9024,1.2321,7.7336,0,1.6084-.0965,3.2165-.2882,4.8238-.1926,1.6081-.4112,3.1984-.6553,4.7714-.245,1.573-.4639,3.146-.6556,4.719-.1923,1.5727-.2882,3.1287-.2882,4.6663,0,1.0141.0959,1.949.2882,2.8051.1917.8569.4981,1.5911.9176,2.2021.4195.6122.9873,1.093,1.704,1.442.7161.3498,1.5992.5243,2.6478.5243v9.0705c-2.0973,0-3.5482.6384-4.3518,1.9139-.8045,1.2764-1.2059,2.9623-1.2059,5.0596ZM183.4571,180.1357c0-6.0224,4.8879-10.9188,10.9188-10.9188h10.9188v21.8376c0,9.0421,7.1825,16.3782,16.3782,16.3782h21.8376v10.9188c0,6.0224-4.8964,10.9188-10.9188,10.9188h-38.2158c-6.0309,0-10.9188-4.8964-10.9188-10.9188v-38.2158Z" style="fill: url(#o);"/>
      <path d="M210.7541,152.8387c0-6.0309,4.8964-10.9188,10.9188-10.9188h38.2158c6.0224,0,10.9188,4.8879,10.9188,10.9188v38.2158c0,6.0224-4.8964,10.9188-10.9188,10.9188h-38.2158c-6.0224,0-10.9188-4.8964-10.9188-10.9188v-38.2158Z" style="fill: #fff;"/>
    </g>
  </g>
</svg>