<?xml version="1.0" encoding="UTF-8"?>
<svg xmlns="http://www.w3.org/2000/svg" width="160mm" height="160mm" xmlns:xlink="http://www.w3.org/1999/xlink" viewBox="0 0 453.54 453.54">
  <defs>
    <linearGradient id="n" data-name="Unbenannter Verlauf 44" x1="135.58" y1="119.88" x2="317.86" y2="119.88" gradientUnits="userSpaceOnUse">
      <stop offset="0" stop-color="#ee7159"/>
      <stop offset=".42" stop-color="#e62e27"/>
    </linearGradient>
  </defs>
  <g id="d" data-name="white">
    <g id="f" data-name="shield">
      <path id="g" data-name="bg" d="M227.54,377.43s.02,0,.03,0c22.5-2.4,80-45.4,98.9-95.7,28.7-52.9,34.6-152.1,36.3-157.6s5.4-10,10-13.3c4.7-3.3,10.7-5,18.1-5h42.9s0,.03.01.04c-3.18-12.11-12.03-22.68-24.21-27.74L243.57,8.73c-4.2-1.8-11.53-3.2-16.03-3.2h-.16c-4.6,0-11.67,1.4-15.87,3.2L45.61,78.13c-12.25,5.06-21.11,15.61-24.3,27.7h.02s42.98,0,42.98,0c7.4,0,13.4,1.7,18.1,5,4.7,3.4,8.4,7.8,10,13.3,1.7,5.5,7.7,104.7,36.3,157.6,18.89,50.28,76.15,93.26,98.67,95.7h.16Z" style="fill: #fff; isolation: isolate; opacity: .4;"/>
      <path id="h" data-name="bg-r" d="M326.31,281.73c28.7-52.9,34.6-152.1,36.3-157.6s5.4-10,10-13.3c4.7-3.3,10.7-5,18.1-5h42.9s0,.03.01.04c-3.18-12.11-12.03-22.68-24.21-27.74L243.41,8.73c-4.2-1.8-11.53-3.2-16.03-3.2v371.9s.02,0,.03,0c22.5-2.4,80-45.4,98.9-95.7Z" style="fill: #fff; isolation: isolate; opacity: .2;"/>
      <path id="i" data-name="v-shape" d="M227.41,377.43c22.5-2.4,80-45.4,98.9-95.7,28.7-52.9,34.6-152.1,36.3-157.6,1.7-5.5,5.4-10,10-13.3,4.7-3.3,10.7-5,18.1-5h42.9c1.7,5.2,2.4,11.5,1.5,30.1h0c-2.1,42.9-9.5,96-44.4,166.4-43.8,81.8-98,119.6-124.8,133.9-13.4,7-28,13.1-38.5,13.1h0c-10.5,0-24.9-6.1-38.3-13.1-26.9-14.3-81.1-52.2-124.8-133.9C29.51,231.93,22.01,178.93,19.91,135.93c-.8-18.6-.1-24.9,1.5-30.1h42.9c7.4,0,13.4,1.7,18.1,5,4.7,3.4,8.4,7.8,10,13.3,1.7,5.5,7.7,104.7,36.3,157.6,18.9,50.3,76.2,93.3,98.7,95.7h0Z" style="fill: #fff;"/>
    </g>
  </g>
  <g id="m" data-name="icon">
    <g>
      <path d="M315.13,84.3c4.24,4.92,3.45,12.09-1.78,16.02l-56.99,45.27c-3.74,3.56-9.47,3.67-13.64.53l-38.54-28.89-50.08,39.75c-4.92,4.24-12.09,3.45-16.02-1.78-3.93-4.59-3.14-11.75,1.78-15.71l56.98-45.59c4.06-3.24,9.79-3.33,13.96-.22l38.54,28.89,50.08-40.07c4.92-3.93,12.07-3.13,15.71,1.78h0Z" style="fill: url(#n);"/>
      <path d="M215.37,159.81v68.39c0,6.3-5.09,11.4-11.4,11.4s-11.4-5.09-11.4-11.4v-68.39c0-6.3,5.09-11.4,11.4-11.4s11.4,5.09,11.4,11.4ZM169.78,194v34.19c0,6.3-5.1,11.4-11.4,11.4s-11.4-5.09-11.4-11.4v-34.19c0-6.3,5.1-11.4,11.4-11.4s11.4,5.09,11.4,11.4ZM238.16,182.61c0-6.3,5.09-11.4,11.4-11.4s11.4,5.09,11.4,11.4v45.59c0,6.3-5.09,11.4-11.4,11.4s-11.4-5.09-11.4-11.4v-45.59ZM306.55,159.81v68.39c0,6.3-5.09,11.4-11.4,11.4s-11.4-5.09-11.4-11.4v-68.39c0-6.3,5.09-11.4,11.4-11.4s11.4,5.09,11.4,11.4Z" style="fill: #fff; isolation: isolate;"/>
    </g>
  </g>
</svg>