<?xml version="1.0" encoding="UTF-8"?>
<svg xmlns="http://www.w3.org/2000/svg" width="160mm" height="160mm" xmlns:xlink="http://www.w3.org/1999/xlink" viewBox="0 0 453.54 453.54">
  <defs>
    <linearGradient id="n" data-name="Unbenannter Verlauf 3" x1="121.59" y1="158.8" x2="331.86" y2="158.8" gradientUnits="userSpaceOnUse">
      <stop offset="0" stop-color="#ee7159"/>
      <stop offset=".2" stop-color="#e62e27"/>
    </linearGradient>
  </defs>
  <g id="g" data-name="color">
    <g id="i" data-name="shield">
      <path id="j" data-name="bg" d="M226.88,378.09s.02,0,.03,0c22.5-2.4,80-45.4,98.9-95.7,28.7-52.9,34.6-152.1,36.3-157.6s5.4-10,10-13.3c4.7-3.3,10.7-5,18.1-5h42.9s0,.03.01.04c-3.18-12.11-12.03-22.68-24.21-27.74L242.91,9.4c-4.2-1.8-11.53-3.2-16.03-3.2h-.16c-4.6,0-11.67,1.4-15.87,3.2L44.95,78.8c-12.25,5.06-21.11,15.61-24.3,27.7h.02s42.98,0,42.98,0c7.4,0,13.4,1.7,18.1,5,4.7,3.4,8.4,7.8,10,13.3,1.7,5.5,7.7,104.7,36.3,157.6,18.89,50.28,76.15,93.26,98.67,95.7h.16Z" fill="#0967ad" isolation="isolate" opacity=".4" stroke-width="0"/>
      <path id="k" data-name="bg-r" d="M325.65,282.4c28.7-52.9,34.6-152.1,36.3-157.6s5.4-10,10-13.3c4.7-3.3,10.7-5,18.1-5h42.9s0,.03.01.04c-3.18-12.11-12.03-22.68-24.21-27.74L242.75,9.4c-4.2-1.8-11.53-3.2-16.03-3.2v371.9s.02,0,.03,0c22.5-2.4,80-45.4,98.9-95.7Z" fill="#0967ad" isolation="isolate" opacity=".2" stroke-width="0"/>
      <path id="l" data-name="v-shape" d="M226.75,378.1c22.5-2.4,80-45.4,98.9-95.7,28.7-52.9,34.6-152.1,36.3-157.6,1.7-5.5,5.4-10,10-13.3,4.7-3.3,10.7-5,18.1-5h42.9c1.7,5.2,2.4,11.5,1.5,30.1h0c-2.1,42.9-9.5,96-44.4,166.4-43.8,81.8-98,119.6-124.8,133.9-13.4,7-28,13.1-38.5,13.1h0c-10.5,0-24.9-6.1-38.3-13.1-26.9-14.3-81.1-52.2-124.8-133.9C28.85,232.6,21.35,179.6,19.25,136.6c-.8-18.6-.1-24.9,1.5-30.1h42.9c7.4,0,13.4,1.7,18.1,5,4.7,3.4,8.4,7.8,10,13.3,1.7,5.5,7.7,104.7,36.3,157.6,18.9,50.3,76.2,93.3,98.7,95.7h0Z" fill="#0967ad" stroke-width="0"/>
    </g>
  </g>
  <g id="m" data-name="icon">
    <g>
      <path d="M190.11,174.54v-46.97h-22.52v128.82h55.21v-68.18h-19.02c-7.55,0-13.67-6.12-13.67-13.67Z" fill="#fff" isolation="isolate" stroke-width="0"/>
      <path d="M314.67,159.19c-.73,1.36-2.14,2.19-3.68,2.19h-91.3c-1.57,0-3.01-.88-3.72-2.28-.71-1.4-.58-3.08.35-4.35l18.26-25.04c.79-1.09,2.04-1.71,3.37-1.71s2.59.64,3.37,1.71l8.47,11.61,24.34-36.29c.79-1.38,2.09-2.08,3.47-2.08s2.7.7,3.47,1.86l33.39,50.09c.86,1.27.94,2.92.21,4.3Z" fill="#fff" stroke-width="0"/>
      <path d="M153.79,143.67c0,1.27-1.04,2.3-2.3,2.3h-13.8c-1.27,0-2.3-1.03-2.3-2.3v-16.1c-7.62,0-13.8,6.18-13.8,13.8v101.22c0,7.62,6.18,13.8,13.8,13.8v-16.1c0-1.27,1.03-2.3,2.3-2.3h13.8c1.27,0,2.3,1.03,2.3,2.3v16.1h13.8V127.57h-13.8v16.1ZM153.79,217.28c0,1.27-1.04,2.3-2.3,2.3h-13.8c-1.27,0-2.3-1.03-2.3-2.3v-13.8c0-1.27,1.03-2.3,2.3-2.3h13.8c1.27,0,2.3,1.04,2.3,2.3v13.8ZM153.79,180.47c0,1.27-1.04,2.3-2.3,2.3h-13.8c-1.27,0-2.3-1.04-2.3-2.3v-13.8c0-1.27,1.03-2.3,2.3-2.3h13.8c1.27,0,2.3,1.04,2.3,2.3v13.8ZM222.8,256.39h13.8v-16.1c0-1.27,1.03-2.3,2.3-2.3h13.8c1.27,0,2.3,1.03,2.3,2.3v16.1c7.62,0,13.8-6.18,13.8-13.8v-54.37h-46.01v68.18ZM236.6,203.48c0-1.27,1.04-2.3,2.3-2.3h13.8c1.27,0,2.3,1.03,2.3,2.3v13.8c0,1.27-1.03,2.3-2.3,2.3h-13.8c-1.27,0-2.3-1.03-2.3-2.3v-13.8ZM319.34,61.2h-108.52c-6.92,0-12.52,5.61-12.52,12.52v91.83c0,6.91,5.61,12.52,12.52,12.52h108.52c6.92,0,12.52-5.61,12.52-12.52v-91.83c0-6.92-5.61-12.52-12.52-12.52ZM227.28,77.9c6.92,0,12.52,5.61,12.52,12.52s-5.37,12.52-12.52,12.52-12.52-5.61-12.52-12.52,5.84-12.52,12.52-12.52ZM314.67,159.19c-.73,1.36-2.14,2.19-3.68,2.19h-91.3c-1.57,0-3.01-.88-3.72-2.28-.71-1.4-.58-3.08.35-4.35l18.26-25.04c.79-1.09,2.04-1.71,3.37-1.71s2.59.64,3.37,1.71l8.47,11.61,24.34-36.29c.79-1.38,2.09-2.08,3.47-2.08s2.7.7,3.47,1.86l33.39,50.09c.86,1.27.94,2.92.21,4.3Z" fill="url(#n)" stroke-width="0"/>
    </g>
  </g>
</svg>