<?xml version="1.0" encoding="UTF-8"?>
<svg xmlns="http://www.w3.org/2000/svg" width="160mm" height="160mm" xmlns:xlink="http://www.w3.org/1999/xlink" viewBox="0 0 453.54 453.54">
  <defs>
    <linearGradient id="n" data-name="Unbenannter Verlauf 6" x1="158.83" y1="242.47" x2="277.72" y2="173.83" gradientUnits="userSpaceOnUse">
      <stop offset="0" stop-color="#ee7159"/>
      <stop offset=".45" stop-color="#e62e27"/>
    </linearGradient>
  </defs>
  <g id="d" data-name="white">
    <g id="f" data-name="shield">
      <path id="g" data-name="bg" d="M227.54,377.43s.02,0,.03,0c22.5-2.4,80-45.4,98.9-95.7,28.7-52.9,34.6-152.1,36.3-157.6s5.4-10,10-13.3c4.7-3.3,10.7-5,18.1-5h42.9s0,.03.01.04c-3.18-12.11-12.03-22.68-24.21-27.74L243.57,8.73c-4.2-1.8-11.53-3.2-16.03-3.2h-.16c-4.6,0-11.67,1.4-15.87,3.2L45.61,78.13c-12.25,5.06-21.11,15.61-24.3,27.7h.02s42.98,0,42.98,0c7.4,0,13.4,1.7,18.1,5,4.7,3.4,8.4,7.8,10,13.3,1.7,5.5,7.7,104.7,36.3,157.6,18.89,50.28,76.15,93.26,98.67,95.7h.16Z" fill="#fff" isolation="isolate" opacity=".4" stroke-width="0"/>
      <path id="h" data-name="bg-r" d="M326.31,281.73c28.7-52.9,34.6-152.1,36.3-157.6s5.4-10,10-13.3c4.7-3.3,10.7-5,18.1-5h42.9s0,.03.01.04c-3.18-12.11-12.03-22.68-24.21-27.74L243.41,8.73c-4.2-1.8-11.53-3.2-16.03-3.2v371.9s.02,0,.03,0c22.5-2.4,80-45.4,98.9-95.7Z" fill="#fff" isolation="isolate" opacity=".2" stroke-width="0"/>
      <path id="i" data-name="v-shape" d="M227.41,377.43c22.5-2.4,80-45.4,98.9-95.7,28.7-52.9,34.6-152.1,36.3-157.6,1.7-5.5,5.4-10,10-13.3,4.7-3.3,10.7-5,18.1-5h42.9c1.7,5.2,2.4,11.5,1.5,30.1h0c-2.1,42.9-9.5,96-44.4,166.4-43.8,81.8-98,119.6-124.8,133.9-13.4,7-28,13.1-38.5,13.1h0c-10.5,0-24.9-6.1-38.3-13.1-26.9-14.3-81.1-52.2-124.8-133.9C29.51,231.93,22.01,178.93,19.91,135.93c-.8-18.6-.1-24.9,1.5-30.1h42.9c7.4,0,13.4,1.7,18.1,5,4.7,3.4,8.4,7.8,10,13.3,1.7,5.5,7.7,104.7,36.3,157.6,18.9,50.3,76.2,93.3,98.7,95.7h0Z" fill="#fff" stroke-width="0"/>
    </g>
  </g>
  <g id="m" data-name="icon">
    <g>
      <path d="M227.52,191.49c19.34,0,34.73-15.68,34.73-35.03s-15.68-35.03-34.73-35.03-34.73,15.68-34.73,35.03c-.3,19.34,15.39,35.03,34.73,35.03ZM244.36,202.27h-33.62c-26.44,0-47.87,20.11-47.87,44.9,0,4.99,4.28,8.99,9.57,8.99h110.22c5.29,0,9.57-4.01,9.57-8.99,0-24.79-21.42-44.9-47.87-44.9Z" fill="url(#n)" stroke-width="0"/>
      <path d="M162.87,137.59c14.88,0,26.95-12.07,26.95-26.95s-12.06-26.95-26.95-26.95-26.95,12.07-26.95,26.95,12.07,26.95,26.95,26.95ZM292.23,137.59c14.88,0,26.95-12.07,26.95-26.95s-12.06-26.95-26.95-26.95-26.95,12.07-26.95,26.95,12.06,26.95,26.95,26.95ZM305.67,148.37h-20.83c-4.31,0-8.38,1.02-12.08,2.78.2,1.77.54,3.49.54,5.31,0,11.36-4.31,21.63-11.17,29.64h67.27c3.29,0,5.95-2.83,5.95-6.3,0-17.35-13.27-31.43-29.68-31.43ZM182.24,151.1c-3.67-2.02-7.71-2.73-11.99-2.73h-20.82c-16.38,0-29.67,14.08-29.67,31.43,0,3.47,2.66,6.3,5.94,6.3h67.2c-6.87-8.01-11.17-18.29-11.17-29.64-.02-1.82.32-3.57.52-5.36Z" fill="#fff" isolation="isolate" stroke-width="0"/>
    </g>
  </g>
</svg>