<?xml version="1.0" encoding="UTF-8"?>
<svg id="g" data-name="color" xmlns="http://www.w3.org/2000/svg" width="598mm" height="180mm" xmlns:xlink="http://www.w3.org/1999/xlink" viewBox="0 0 1695.12 510.24">
  <defs>
    <linearGradient id="m" data-name="keyhole" x1="419.01" y1="189.28" x2="524.08" y2="249.94" gradientUnits="userSpaceOnUse">
      <stop offset="0" stop-color="#ee7159"/>
      <stop offset=".85" stop-color="#e62e27"/>
    </linearGradient>
    <linearGradient id="r" data-name="font-red" x1="1008.65" y1="507.62" x2="1645.98" y2="139.66" gradientUnits="userSpaceOnUse">
      <stop offset="0" stop-color="#ee7159"/>
      <stop offset=".3" stop-color="#e62e27"/>
    </linearGradient>
  </defs>
  <g id="h" data-name="logo-shield">
    <path id="i" data-name="bg" d="M476.78,378.09s.02,0,.03,0c22.5-2.4,80-45.4,98.9-95.7,28.7-52.9,34.6-152.1,36.3-157.6s5.4-10,10-13.3c4.7-3.3,10.7-5,18.1-5h42.9s0,.03.01.04c-3.18-12.11-12.03-22.68-24.21-27.74L492.81,9.4c-4.2-1.8-11.53-3.2-16.03-3.2h-.16c-4.6,0-11.67,1.4-15.87,3.2l-165.9,69.4c-12.25,5.06-21.11,15.61-24.3,27.7h.02s42.98,0,42.98,0c7.4,0,13.4,1.7,18.1,5,4.7,3.4,8.4,7.8,10,13.3,1.7,5.5,7.7,104.7,36.3,157.6,18.89,50.28,76.15,93.26,98.67,95.7h.16Z" fill="#0967ad" isolation="isolate" opacity=".4"/>
    <path id="j" data-name="bg-r" d="M575.55,282.4c28.7-52.9,34.6-152.1,36.3-157.6s5.4-10,10-13.3c4.7-3.3,10.7-5,18.1-5h42.9s0,.03.01.04c-3.18-12.11-12.03-22.68-24.21-27.74L492.65,9.4c-4.2-1.8-11.53-3.2-16.03-3.2v371.9s.02,0,.03,0c22.5-2.4,80-45.4,98.9-95.7Z" fill="#0967ad" isolation="isolate" opacity=".2"/>
    <path id="k" data-name="v-shape" d="M476.65,378.1c22.5-2.4,80-45.4,98.9-95.7,28.7-52.9,34.6-152.1,36.3-157.6,1.7-5.5,5.4-10,10-13.3,4.7-3.3,10.7-5,18.1-5h42.9c1.7,5.2,2.4,11.5,1.5,30.1h0c-2.1,42.9-9.5,96-44.4,166.4-43.8,81.8-98,119.6-124.8,133.9-13.4,7-28,13.1-38.5,13.1h0c-10.5,0-24.9-6.1-38.3-13.1-26.9-14.3-81.1-52.2-124.8-133.9-34.8-70.4-42.3-123.4-44.4-166.4-.8-18.6-.1-24.9,1.5-30.1h42.9c7.4,0,13.4,1.7,18.1,5,4.7,3.4,8.4,7.8,10,13.3,1.7,5.5,7.7,104.7,36.3,157.6,18.9,50.3,76.2,93.3,98.7,95.7h0Z" fill="#0967ad"/>
  </g>
  <g id="l" data-name="logo-icon">
    <path id="n" data-name="keyhole" d="M476.53,138c-26.7,0-48.4,21.7-48.4,48.5,0,19.3,11.4,35.9,27.7,43.7v60.3c0,11.5,9.3,20.8,20.8,20.8s20.8-9.3,20.8-20.8v-60.3c16.3-7.8,27.6-24.4,27.5-43.7,0-26.8-21.7-48.5-48.4-48.5ZM503.53,193.7h-18.7v18.7h-16.1v-18.7h-18.7v-16.1h18.7v-18.8h16.1v18.8h18.7v16.1Z" fill="url(#m)"/>
    <polygon id="o" data-name="cross" points="468.73 177.6 450.03 177.6 450.03 193.7 468.73 193.7 468.73 212.4 484.83 212.4 484.83 193.7 503.53 193.7 503.53 177.6 484.83 177.6 484.83 158.8 468.73 158.8 468.73 177.6" fill="#fff"/>
  </g>
  <g id="p" data-name="PV">
    <path d="M902.93,306.2v116.3h-70.9v-116.3l-110.8-189.5h62.5c6.2,0,11,1.4,14.7,4.3,3.6,2.9,6.6,6.5,8.8,11l43.2,89c3.5,7.1,6.7,13.7,9.6,19.7,3,6,5.6,11.9,7.8,17.9,2.1-6,4.6-12,7.6-18s6.1-12.5,9.4-19.5l42.8-89c.8-1.8,2-3.6,3.5-5.5,1.5-1.8,3.1-3.5,5-4.9,1.9-1.4,4.1-2.7,6.5-3.6,2.4-.9,5.1-1.3,8.1-1.3h62.9l-110.7,189.4h0Z" fill="#0967ad"/>
    <path d="M79.33,320.9v102.2H8.33V117.4h107.8c21.5,0,40,2.5,55.5,7.6,15.4,5.1,28.2,12.2,38.2,21.1,10,9,17.3,19.5,22.2,31.7,4.7,12.2,7.1,25.3,7.1,39.4,0,15.3-2.4,29.2-7.3,42-4.9,12.8-12.4,23.7-22.5,32.7-10.1,9.1-22.8,16.2-38.3,21.3s-33.7,7.6-54.9,7.6h-36.8v.1h0ZM79.33,267.5h36.9c18.5,0,31.7-4.4,39.9-13.2,8.1-8.8,12.2-21.1,12.2-36.9,0-7-1-13.3-3.1-19.1-2.1-5.7-5.3-10.7-9.6-14.8-4.3-4.2-9.6-7.3-16.2-9.6-6.6-2.3-14.2-3.3-23.2-3.3h-36.9v96.9h0Z" fill="#0967ad"/>
  </g>
  <path d="M1000.07,492.75V205.19h40.42c4.07,0,7.47.91,10.21,2.74,2.74,1.83,4.66,4.56,5.79,8.21l4.84,16c4.21-4.63,8.74-8.84,13.58-12.63,4.84-3.79,10.03-7.05,15.58-9.79,5.54-2.74,11.51-4.87,17.89-6.42,6.38-1.54,13.37-2.32,20.95-2.32,11.37,0,21.89,2.53,31.58,7.58s18.03,12.35,25.05,21.89c7.02,9.55,12.53,21.23,16.53,35.05,4,13.83,6,29.51,6,47.05,0,16.42-2.28,31.58-6.84,45.47-4.56,13.89-10.95,25.97-19.16,36.21-8.21,10.25-18.04,18.25-29.47,24-11.44,5.75-24.1,8.63-38,8.63-11.37,0-20.91-1.62-28.63-4.84-7.72-3.23-14.74-7.58-21.05-13.05v83.79h-65.26ZM1106.59,250.87c-4.77,0-9.09.46-12.95,1.37-3.86.91-7.44,2.21-10.74,3.89-3.3,1.68-6.35,3.83-9.16,6.42-2.81,2.6-5.62,5.58-8.42,8.95v92.63c4.91,5.47,10.24,9.3,16,11.47,5.75,2.18,11.79,3.26,18.1,3.26s11.58-1.19,16.63-3.58c5.05-2.38,9.44-6.21,13.16-11.47,3.72-5.26,6.63-12.1,8.74-20.53,2.11-8.42,3.16-18.66,3.16-30.74s-.84-21.19-2.53-29.05c-1.68-7.86-4.04-14.21-7.05-19.05-3.02-4.84-6.63-8.32-10.84-10.42-4.21-2.1-8.91-3.16-14.1-3.16ZM1243.42,423.5V108.35h65.26v119.99c8.14-8,17.37-14.42,27.68-19.26,10.31-4.84,22.42-7.26,36.31-7.26,11.37,0,21.89,2.46,31.58,7.37,9.68,4.91,18.03,12.1,25.05,21.58,7.02,9.47,12.53,21.09,16.53,34.84,4,13.76,6,29.4,6,46.94,0,16.42-2.28,31.58-6.84,45.47-4.56,13.89-10.95,25.97-19.16,36.21-8.21,10.25-18.04,18.25-29.47,24-11.44,5.75-24.1,8.63-38,8.63-6.46,0-12.25-.63-17.37-1.89-5.12-1.26-9.83-3.05-14.11-5.37-4.28-2.32-8.21-5.08-11.79-8.32-3.58-3.23-7.05-6.74-10.42-10.53l-2.32,10.95c-.98,4.49-2.77,7.58-5.37,9.26-2.6,1.68-6,2.53-10.21,2.53h-43.37ZM1349.94,250.87c-4.77,0-9.09.46-12.95,1.37-3.86.91-7.44,2.21-10.74,3.89-3.3,1.68-6.35,3.83-9.16,6.42-2.81,2.6-5.61,5.58-8.42,8.95v92.63c4.91,5.47,10.24,9.3,16,11.47,5.75,2.18,11.79,3.26,18.1,3.26s11.58-1.19,16.63-3.58c5.05-2.38,9.44-6.21,13.16-11.47,3.72-5.26,6.63-12.1,8.74-20.53,2.1-8.42,3.16-18.66,3.16-30.74s-.84-21.19-2.53-29.05c-1.68-7.86-4.04-14.21-7.05-19.05-3.02-4.84-6.63-8.32-10.84-10.42s-8.91-3.16-14.1-3.16ZM1527.19,310.66l-70.31-105.47h62.73c4.63,0,8.03.6,10.21,1.79,2.17,1.19,4.1,3.19,5.79,6l38.95,64.63c.84-2.53,1.89-4.98,3.16-7.37,1.26-2.38,2.66-4.91,4.21-7.58l27.79-48.63c1.82-3.23,3.86-5.51,6.11-6.84,2.24-1.33,4.98-2,8.21-2h59.79l-70.31,102.52,73.26,115.78h-62.73c-4.63,0-8.35-1.12-11.16-3.37-2.81-2.24-5.12-4.91-6.95-8l-38.95-66.94c-.7,2.39-1.55,4.63-2.53,6.74-.98,2.1-2.04,4.07-3.16,5.89l-32,54.31c-1.68,2.95-3.93,5.58-6.74,7.89-2.81,2.32-6.32,3.47-10.53,3.47h-58.1l73.26-112.84Z" fill="url(#r)"/>
</svg>