<?xml version="1.0" encoding="UTF-8"?>
<svg xmlns="http://www.w3.org/2000/svg" width="160mm" height="160mm" xmlns:xlink="http://www.w3.org/1999/xlink" viewBox="0 0 453.54 453.54">
  <defs>
    <linearGradient id="n" data-name="Unbenannter Verlauf 2" x1="127.4" y1="111.23" x2="337.01" y2="232.26" gradientUnits="userSpaceOnUse">
      <stop offset="0" stop-color="#ee7159"/>
      <stop offset=".84" stop-color="#e62e27"/>
    </linearGradient>
  </defs>
  <g id="g" data-name="color">
    <g id="i" data-name="shield">
      <path id="j" data-name="bg" d="M226.88,378.09s.02,0,.03,0c22.5-2.4,80-45.4,98.9-95.7,28.7-52.9,34.6-152.1,36.3-157.6s5.4-10,10-13.3c4.7-3.3,10.7-5,18.1-5h42.9s0,.03.01.04c-3.18-12.11-12.03-22.68-24.21-27.74L242.91,9.4c-4.2-1.8-11.53-3.2-16.03-3.2h-.16c-4.6,0-11.67,1.4-15.87,3.2L44.95,78.8c-12.25,5.06-21.11,15.61-24.3,27.7h.02s42.98,0,42.98,0c7.4,0,13.4,1.7,18.1,5,4.7,3.4,8.4,7.8,10,13.3,1.7,5.5,7.7,104.7,36.3,157.6,18.89,50.28,76.15,93.26,98.67,95.7h.16Z" fill="#0967ad" isolation="isolate" opacity=".4" stroke-width="0"/>
      <path id="k" data-name="bg-r" d="M325.65,282.4c28.7-52.9,34.6-152.1,36.3-157.6s5.4-10,10-13.3c4.7-3.3,10.7-5,18.1-5h42.9s0,.03.01.04c-3.18-12.11-12.03-22.68-24.21-27.74L242.75,9.4c-4.2-1.8-11.53-3.2-16.03-3.2v371.9s.02,0,.03,0c22.5-2.4,80-45.4,98.9-95.7Z" fill="#0967ad" isolation="isolate" opacity=".2" stroke-width="0"/>
      <path id="l" data-name="v-shape" d="M226.75,378.1c22.5-2.4,80-45.4,98.9-95.7,28.7-52.9,34.6-152.1,36.3-157.6,1.7-5.5,5.4-10,10-13.3,4.7-3.3,10.7-5,18.1-5h42.9c1.7,5.2,2.4,11.5,1.5,30.1h0c-2.1,42.9-9.5,96-44.4,166.4-43.8,81.8-98,119.6-124.8,133.9-13.4,7-28,13.1-38.5,13.1h0c-10.5,0-24.9-6.1-38.3-13.1-26.9-14.3-81.1-52.2-124.8-133.9C28.85,232.6,21.35,179.6,19.25,136.6c-.8-18.6-.1-24.9,1.5-30.1h42.9c7.4,0,13.4,1.7,18.1,5,4.7,3.4,8.4,7.8,10,13.3,1.7,5.5,7.7,104.7,36.3,157.6,18.9,50.3,76.2,93.3,98.7,95.7h0Z" fill="#0967ad" stroke-width="0"/>
    </g>
  </g>
  <g id="m" data-name="Icon new">
    <g>
      <path d="M281.02,152.4c0,18.17-5.9,34.95-16.19,48.56l50.46,50.14c4.95,4.95,4.95,12.94,0,17.89-4.95,4.95-12.94,4.95-17.89,0l-50.14-50.46c-13.61,10.29-30.4,16.19-48.56,16.19-45.47,0-82.32-36.85-82.32-82.32s36.85-82.32,82.32-82.32,82.32,36.85,82.32,82.32Z" fill="url(#n)" stroke-width="0"/>
      <path d="M237.69,119.15l-35.97-14.99c-.92-.38-2.47-.69-3.45-.69s-2.55.31-3.47.69l-35.97,14.99c-3.36,1.38-5.54,4.66-5.54,8.13,0,48.35,35.44,72.1,44.79,72.1s45.13-24.02,45.13-72.1c0-3.47-2.19-6.75-5.53-8.13ZM202.76,151.88v13.04c0,2.48-2.01,4.5-4.5,4.5s-4.5-2.01-4.5-4.5v-13.04c-3.54-1.69-5.99-5.26-5.99-9.44,0-5.79,4.7-10.49,10.49-10.49s10.49,4.7,10.49,10.49c0,4.18-2.45,7.76-5.99,9.44Z" fill="#fff" stroke-width="0"/>
    </g>
  </g>
</svg>