<?xml version="1.0" encoding="UTF-8"?>
<svg id="Ebene_1" xmlns="http://www.w3.org/2000/svg" xmlns:xlink="http://www.w3.org/1999/xlink" version="1.1" viewBox="0 0 453.5 453.5">
  <!-- Generator: Adobe Illustrator 30.1.0, SVG Export Plug-In . SVG Version: 2.1.1 Build 136)  -->
  <defs>
    <style>
      .st0 {
        fill: url(#Unbenannter_Verlauf);
      }

      .st1, .st2, .st3, .st4 {
        fill: #fff;
      }

      .st2, .st3, .st4 {
        isolation: isolate;
      }

      .st3 {
        opacity: .2;
      }

      .st4 {
        opacity: .4;
      }
    </style>
    <linearGradient id="Unbenannter_Verlauf" data-name="Unbenannter Verlauf" x1="190" y1="314.8" x2="295.8" y2="375.9" gradientTransform="translate(0 454) scale(1 -1)" gradientUnits="userSpaceOnUse">
      <stop offset="0" stop-color="#ee7159"/>
      <stop offset=".8" stop-color="#e62e27"/>
    </linearGradient>
  </defs>
  <g id="f">
    <g id="h">
      <path id="i" class="st4" d="M227.5,377.4h0c22.5-2.4,80-45.4,98.9-95.7,28.7-52.9,34.6-152.1,36.3-157.6s5.4-10,10-13.3c4.7-3.3,10.7-5,18.1-5h42.9s0,0,0,0c-3.2-12.1-12-22.7-24.2-27.7L243.6,8.7c-4.2-1.8-11.5-3.2-16-3.2h-.2c-4.6,0-11.7,1.4-15.9,3.2L45.6,78.1c-12.3,5.1-21.1,15.6-24.3,27.7h43c7.4,0,13.4,1.7,18.1,5,4.7,3.4,8.4,7.8,10,13.3,1.7,5.5,7.7,104.7,36.3,157.6,18.9,50.3,76.2,93.3,98.7,95.7h.2Z"/>
      <path id="j" class="st3" d="M326.3,281.7c28.7-52.9,34.6-152.1,36.3-157.6s5.4-10,10-13.3c4.7-3.3,10.7-5,18.1-5h42.9s0,0,0,0c-3.2-12.1-12-22.7-24.2-27.7L243.4,8.7c-4.2-1.8-11.5-3.2-16-3.2v371.9h0c22.5-2.4,80-45.4,98.9-95.7h0Z"/>
      <path id="k" class="st1" d="M227.4,377.4c22.5-2.4,80-45.4,98.9-95.7,28.7-52.9,34.6-152.1,36.3-157.6,1.7-5.5,5.4-10,10-13.3,4.7-3.3,10.7-5,18.1-5h42.9c1.7,5.2,2.4,11.5,1.5,30.1h0c-2.1,42.9-9.5,96-44.4,166.4-43.8,81.8-98,119.6-124.8,133.9-13.4,7-28,13.1-38.5,13.1h0c-10.5,0-24.9-6.1-38.3-13.1-26.9-14.3-81.1-52.2-124.8-133.9C29.5,231.9,22,178.9,19.9,135.9c-.8-18.6-.1-24.9,1.5-30.1h42.9c7.4,0,13.4,1.7,18.1,5,4.7,3.4,8.4,7.8,10,13.3,1.7,5.5,7.7,104.7,36.3,157.6,18.9,50.3,76.2,93.3,98.7,95.7h0Z"/>
    </g>
  </g>
  <g id="o">
    <g>
      <path class="st0" d="M194.6,65.8c0-7.3,5.9-13.2,13.2-13.2h39.6c7.3,0,13.2,5.9,13.2,13.2s-5.9,13.2-13.2,13.2h-6.6v14.2c-4.3-.7-8.7-1-13.2-1s-8.9.4-13.2,1v-14.2h-6.6c-7.3,0-13.2-5.9-13.2-13.2h0ZM290.8,102.6c5.2-5.2,13.5-5.2,18.6,0,5.2,5.2,5.2,13.5,0,18.6l-9.9,10c-4.8-7.5-10.8-14.1-17.7-19.7l9-8.9h0ZM237.5,184.5c0,5.5-4.4,9.9-9.9,9.9s-9.9-4.4-9.9-9.9v-52.8c0-5.5,4.4-9.9,9.9-9.9s9.9,4.4,9.9,9.9v52.8Z"/>
      <path class="st2" d="M141.8,177.9c0-47.4,38.4-85.8,85.8-85.8s85.8,38.4,85.8,85.8-38.4,85.8-85.8,85.8-85.8-38.4-85.8-85.8h0ZM237.5,131.8c0-5.5-4.4-9.9-9.9-9.9s-9.9,4.4-9.9,9.9v52.8c0,5.5,4.4,9.9,9.9,9.9s9.9-4.4,9.9-9.9v-52.8Z"/>
    </g>
  </g>
</svg>