<?xml version="1.0" encoding="UTF-8"?>
<svg xmlns="http://www.w3.org/2000/svg" width="160mm" height="160mm" xmlns:xlink="http://www.w3.org/1999/xlink" viewBox="0 0 453.54 453.54">
  <defs>
    <linearGradient id="n" data-name="Unbenannter Verlauf 4" x1="123.39" y1="244.8" x2="364.84" y2="105.4" gradientUnits="userSpaceOnUse">
      <stop offset="0" stop-color="#ee7159"/>
      <stop offset=".35" stop-color="#e62e27"/>
    </linearGradient>
  </defs>
  <g id="g" data-name="color">
    <g id="i" data-name="shield">
      <path id="j" data-name="bg" d="M226.88,378.09s.02,0,.03,0c22.5-2.4,80-45.4,98.9-95.7,28.7-52.9,34.6-152.1,36.3-157.6s5.4-10,10-13.3c4.7-3.3,10.7-5,18.1-5h42.9s0,.03.01.04c-3.18-12.11-12.03-22.68-24.21-27.74L242.91,9.4c-4.2-1.8-11.53-3.2-16.03-3.2h-.16c-4.6,0-11.67,1.4-15.87,3.2L44.95,78.8c-12.25,5.06-21.11,15.61-24.3,27.7h.02s42.98,0,42.98,0c7.4,0,13.4,1.7,18.1,5,4.7,3.4,8.4,7.8,10,13.3,1.7,5.5,7.7,104.7,36.3,157.6,18.89,50.28,76.15,93.26,98.67,95.7h.16Z" fill="#0967ad" isolation="isolate" opacity=".4" stroke-width="0"/>
      <path id="k" data-name="bg-r" d="M325.65,282.4c28.7-52.9,34.6-152.1,36.3-157.6s5.4-10,10-13.3c4.7-3.3,10.7-5,18.1-5h42.9s0,.03.01.04c-3.18-12.11-12.03-22.68-24.21-27.74L242.75,9.4c-4.2-1.8-11.53-3.2-16.03-3.2v371.9s.02,0,.03,0c22.5-2.4,80-45.4,98.9-95.7Z" fill="#0967ad" isolation="isolate" opacity=".2" stroke-width="0"/>
      <path id="l" data-name="v-shape" d="M226.75,378.1c22.5-2.4,80-45.4,98.9-95.7,28.7-52.9,34.6-152.1,36.3-157.6,1.7-5.5,5.4-10,10-13.3,4.7-3.3,10.7-5,18.1-5h42.9c1.7,5.2,2.4,11.5,1.5,30.1h0c-2.1,42.9-9.5,96-44.4,166.4-43.8,81.8-98,119.6-124.8,133.9-13.4,7-28,13.1-38.5,13.1h0c-10.5,0-24.9-6.1-38.3-13.1-26.9-14.3-81.1-52.2-124.8-133.9C28.85,232.6,21.35,179.6,19.25,136.6c-.8-18.6-.1-24.9,1.5-30.1h42.9c7.4,0,13.4,1.7,18.1,5,4.7,3.4,8.4,7.8,10,13.3,1.7,5.5,7.7,104.7,36.3,157.6,18.9,50.3,76.2,93.3,98.7,95.7h0Z" fill="#0967ad" stroke-width="0"/>
    </g>
  </g>
  <g id="m" data-name="icon">
    <g>
      <path d="M220.45,196.22v60.23h30.12v-60.23h-30.12ZM145.16,166.11h75.29v7.53h15.06v-11.29c0-6.24-5.06-11.27-11.27-11.29h-82.87c-6.21.03-11.27,5.06-11.27,11.29v56.47h-11.29c-2.09,0-3.76,1.67-3.76,3.76v3.76c.03,8.29,6.74,15.03,15.03,15.06h67.79v-22.59h-52.7v-52.7ZM348.9,78.3c-2.28-2.12-5.86-1.99-7.98.3l-20.48,22.06-9.03-9.03c-2.21-2.21-5.78-2.21-7.99,0s-2.21,5.78,0,7.99l13.18,13.18c1.06,1.07,2.49,1.65,4,1.65h.1c1.54-.03,2.99-.68,4.04-1.81l24.47-26.35c2.12-2.29,1.98-5.87-.31-7.98Z" fill="url(#n)" stroke-width="0"/>
      <path d="M257.16,180.95h-43.29c-4.68,0-8.47,4-8.47,8.68v73.41c0,4.68,3.79,8.47,8.47,8.47h43.29c4.68,0,8.47-3.79,8.47-8.47v-73.41c0-4.68-3.79-8.68-8.47-8.68ZM250.57,256.46h-30.12v-60.23h30.12v60.23ZM222.72,76.79c0-16.63,13.48-30.12,30.12-30.12s30.12,13.48,30.12,30.12-13.48,30.12-30.12,30.12-30.12-13.48-30.12-30.12ZM305.54,158.98c0,4.52-3.65,8.16-8.16,8.16h-55.7v-11.27c0-6.24-5.06-11.27-11.27-11.29h-27.66c5.82-15.41,20.71-26.38,38.16-26.38h23.86c22.52,0,40.77,18.26,40.77,40.77Z" fill="#fff" stroke-width="0"/>
    </g>
  </g>
</svg>