<?xml version="1.0" encoding="UTF-8"?>
<svg id="d" data-name="white" xmlns="http://www.w3.org/2000/svg" width="564mm" height="180mm" xmlns:xlink="http://www.w3.org/1999/xlink" viewBox="0 0 1598.74 510.24">
  <defs>
    <linearGradient id="j" data-name="font-red" x1="1006.37" y1="491.84" x2="1608.89" y2="143.98" gradientUnits="userSpaceOnUse">
      <stop offset="0" stop-color="#ee7159"/>
      <stop offset=".3" stop-color="#e62e27"/>
    </linearGradient>
    <linearGradient id="l" data-name="keyhole" x1="419.67" y1="188.62" x2="524.74" y2="249.28" gradientUnits="userSpaceOnUse">
      <stop offset="0" stop-color="#ee7159"/>
      <stop offset=".85" stop-color="#e62e27"/>
    </linearGradient>
  </defs>
  <g id="e" data-name="logo-shield">
    <path id="f" data-name="bg" d="M477.45,377.43s.02,0,.03,0c22.5-2.4,80-45.4,98.9-95.7,28.7-52.9,34.6-152.1,36.3-157.6s5.4-10,10-13.3c4.7-3.3,10.7-5,18.1-5h42.9s0,.03.01.04c-3.18-12.11-12.03-22.68-24.21-27.74L493.48,8.73c-4.2-1.8-11.53-3.2-16.03-3.2h-.16c-4.6,0-11.67,1.4-15.87,3.2l-165.9,69.4c-12.25,5.06-21.11,15.61-24.3,27.7h.02s42.98,0,42.98,0c7.4,0,13.4,1.7,18.1,5,4.7,3.4,8.4,7.8,10,13.3,1.7,5.5,7.7,104.7,36.3,157.6,18.89,50.28,76.15,93.26,98.67,95.7h.16Z" fill="#fff" isolation="isolate" opacity=".4" stroke-width="0"/>
    <path id="g" data-name="bg-r" d="M576.21,281.73c28.7-52.9,34.6-152.1,36.3-157.6s5.4-10,10-13.3c4.7-3.3,10.7-5,18.1-5h42.9s0,.03.01.04c-3.18-12.11-12.03-22.68-24.21-27.74L493.31,8.73c-4.2-1.8-11.53-3.2-16.03-3.2v371.9s.02,0,.03,0c22.5-2.4,80-45.4,98.9-95.7Z" fill="#fff" isolation="isolate" opacity=".2" stroke-width="0"/>
    <path id="h" data-name="v-shape" d="M477.31,377.43c22.5-2.4,80-45.4,98.9-95.7,28.7-52.9,34.6-152.1,36.3-157.6,1.7-5.5,5.4-10,10-13.3,4.7-3.3,10.7-5,18.1-5h42.9c1.7,5.2,2.4,11.5,1.5,30.1h0c-2.1,42.9-9.5,96-44.4,166.4-43.8,81.8-98,119.6-124.8,133.9-13.4,7-28,13.1-38.5,13.1h0c-10.5,0-24.9-6.1-38.3-13.1-26.9-14.3-81.1-52.2-124.8-133.9-34.8-70.4-42.3-123.4-44.4-166.4-.8-18.6-.1-24.9,1.5-30.1h42.9c7.4,0,13.4,1.7,18.1,5,4.7,3.4,8.4,7.8,10,13.3,1.7,5.5,7.7,104.7,36.3,157.6,18.9,50.3,76.2,93.3,98.7,95.7h0Z" fill="#fff" stroke-width="0"/>
  </g>
  <path d="M1082.47,200.34c9.26,0,18,.91,26.21,2.74,8.21,1.83,15.82,4.42,22.84,7.79h65.89v23.79c0,3.65-1.02,6.53-3.05,8.63-2.04,2.11-5.51,3.72-10.42,4.84l-16,3.58c1.96,6.32,2.95,12.84,2.95,19.58,0,10.95-2.28,20.77-6.84,29.47-4.56,8.7-10.81,16.1-18.74,22.21-7.93,6.1-17.3,10.81-28.1,14.1-10.81,3.3-22.39,4.95-34.74,4.95-6.88,0-13.33-.42-19.37-1.26-4.77,2.84-7.16,6.09-7.16,9.78s1.93,6.34,5.79,7.97c3.86,1.63,8.95,2.76,15.26,3.4s13.54.96,21.68.96,16.42.39,24.84,1.16c8.42.78,16.7,2.08,24.84,3.91,8.14,1.83,15.37,4.79,21.68,8.87,6.32,4.09,11.4,9.54,15.26,16.37,3.86,6.83,5.79,15.52,5.79,26.08,0,9.85-2.39,19.5-7.16,28.93-4.77,9.43-11.79,17.8-21.05,25.13-9.26,7.32-20.63,13.2-34.1,17.63-13.47,4.43-28.91,6.65-46.31,6.65s-31.89-1.62-44.31-4.84c-12.42-3.23-22.74-7.48-30.95-12.75-8.21-5.27-14.28-11.35-18.21-18.23-3.93-6.89-5.89-14.05-5.89-21.5,0-9.7,2.95-17.88,8.84-24.55,5.89-6.67,13.96-11.9,24.21-15.7-4.91-3.22-8.84-7.35-11.79-12.4s-4.42-11.42-4.42-19.13c0-3.22.56-6.62,1.68-10.19,1.12-3.57,2.88-7.04,5.26-10.41,2.38-3.36,5.4-6.58,9.05-9.67,3.65-3.08,8-5.82,13.05-8.2-11.37-6.03-20.32-14.03-26.84-24-6.53-9.96-9.79-21.54-9.79-34.74,0-10.95,2.32-20.8,6.95-29.58,4.63-8.77,10.98-16.21,19.05-22.31,8.07-6.11,17.58-10.81,28.53-14.1,10.95-3.3,22.8-4.95,35.58-4.95ZM1130.89,429.96c0-3.58-1.09-6.45-3.26-8.6-2.18-2.15-5.12-3.87-8.84-5.16-3.72-1.29-8.07-2.22-13.05-2.8-4.98-.57-10.35-.86-16.1-.86h-17.89c-6.18,0-12.28-.59-18.31-1.79-4.07,2.82-7.4,5.94-10,9.39-2.6,3.45-3.89,7.35-3.89,11.71,0,3.09.66,5.91,2,8.44,1.33,2.53,3.68,4.71,7.05,6.54,3.37,1.83,7.89,3.27,13.58,4.33,5.68,1.05,12.87,1.58,21.58,1.58,9.4,0,17.12-.58,23.16-1.72,6.03-1.15,10.84-2.72,14.42-4.73,3.58-2.01,6.07-4.41,7.47-7.2,1.4-2.8,2.11-5.84,2.11-9.14ZM1082.47,301.81c10.81,0,18.63-2.7,23.47-8.1,4.84-5.4,7.26-12.38,7.26-20.95s-2.42-15.79-7.26-20.84c-4.84-5.05-12.67-7.58-23.47-7.58s-18.63,2.53-23.47,7.58c-4.84,5.05-7.26,12-7.26,20.84,0,4.21.6,8.07,1.79,11.58,1.19,3.51,3.05,6.56,5.58,9.16,2.53,2.6,5.72,4.63,9.58,6.11,3.86,1.47,8.45,2.21,13.79,2.21ZM1302.25,425.8c-10.39,0-19.54-1.51-27.47-4.53-7.93-3.02-14.6-7.29-20-12.84-5.4-5.54-9.51-12.24-12.32-20.1-2.81-7.86-4.21-16.63-4.21-26.31v-112.84h-18.53c-3.37,0-6.25-1.08-8.63-3.26-2.39-2.17-3.58-5.37-3.58-9.58v-25.47l34.73-6.74,12.84-53.26c1.68-6.74,6.45-10.1,14.32-10.1h34.1v63.79h53.05v44.63h-53.05v108.42c0,5.05,1.23,9.23,3.68,12.53,2.45,3.3,6,4.95,10.63,4.95,2.38,0,4.38-.24,6-.74,1.61-.49,3.02-1.05,4.21-1.68,1.19-.63,2.32-1.19,3.37-1.68,1.05-.49,2.28-.74,3.68-.74,1.96,0,3.54.46,4.74,1.37,1.19.92,2.42,2.35,3.68,4.32l19.79,30.95c-8.42,6.32-17.89,11.05-28.42,14.21-10.53,3.16-21.4,4.74-32.63,4.74ZM1547.29,422.43c-4.07,0-7.47-.91-10.21-2.74-2.74-1.82-4.67-4.56-5.79-8.21l-5.05-16.63c-4.35,4.63-8.91,8.84-13.68,12.63-4.77,3.79-9.93,7.05-15.47,9.79-5.55,2.74-11.51,4.84-17.89,6.32-6.39,1.47-13.3,2.21-20.74,2.21-11.37,0-21.89-2.53-31.58-7.58-9.68-5.05-18.04-12.35-25.05-21.89-7.02-9.54-12.53-21.23-16.53-35.05-4-13.82-6-29.58-6-47.26,0-16.28,2.24-31.4,6.74-45.37,4.49-13.96,10.84-26.03,19.05-36.21,8.21-10.17,18.07-18.14,29.58-23.89,11.51-5.75,24.21-8.63,38.1-8.63,11.23,0,20.74,1.65,28.52,4.95,7.79,3.3,14.84,7.61,21.16,12.95v-110.52h65.26v315.14h-40.42ZM1481.19,375.7c4.77,0,9.08-.45,12.95-1.37,3.86-.91,7.4-2.21,10.63-3.89,3.23-1.68,6.28-3.79,9.16-6.32,2.88-2.53,5.72-5.47,8.53-8.84v-92.63c-5.05-5.47-10.42-9.3-16.1-11.47-5.68-2.17-11.68-3.26-18-3.26s-11.58,1.19-16.63,3.58c-5.05,2.39-9.44,6.21-13.16,11.47-3.72,5.26-6.63,12.1-8.74,20.53s-3.16,18.6-3.16,30.52.84,21.19,2.53,29.05c1.68,7.86,4.03,14.21,7.05,19.05,3.02,4.84,6.63,8.32,10.84,10.42,4.21,2.11,8.91,3.16,14.11,3.16Z" fill="url(#j)" stroke-width="0"/>
  <g id="k" data-name="logo-icon">
    <path id="m" data-name="keyhole" d="M477.2,137.33c-26.7,0-48.4,21.7-48.4,48.5,0,19.3,11.4,35.9,27.7,43.7v60.3c0,11.5,9.3,20.8,20.8,20.8s20.8-9.3,20.8-20.8v-60.3c16.3-7.8,27.6-24.4,27.5-43.7,0-26.8-21.7-48.5-48.4-48.5ZM504.2,193.03h-18.7v18.7h-16.1v-18.7h-18.7v-16.1h18.7v-18.8h16.1v18.8h18.7v16.1Z" fill="url(#l)" stroke-width="0"/>
    <polygon id="n" data-name="cross" points="469.4 176.93 450.7 176.93 450.7 193.03 469.4 193.03 469.4 211.73 485.5 211.73 485.5 193.03 504.2 193.03 504.2 176.93 485.5 176.93 485.5 158.13 469.4 158.13 469.4 176.93" fill="#fff" stroke-width="0"/>
  </g>
  <g id="o" data-name="PV">
    <path d="M903.6,305.53v116.3h-70.9v-116.3l-110.8-189.5h62.5c6.2,0,11,1.4,14.7,4.3,3.6,2.9,6.6,6.5,8.8,11l43.2,89c3.5,7.1,6.7,13.7,9.6,19.7,3,6,5.6,11.9,7.8,17.9,2.1-6,4.6-12,7.6-18s6.1-12.5,9.4-19.5l42.8-89c.8-1.8,2-3.6,3.5-5.5,1.5-1.8,3.1-3.5,5-4.9s4.1-2.7,6.5-3.6c2.4-.9,5.1-1.3,8.1-1.3h62.9l-110.7,189.4h0Z" fill="#fff" stroke-width="0"/>
    <path d="M80,320.23v102.2H9V116.73h107.8c21.5,0,40,2.5,55.5,7.6,15.4,5.1,28.2,12.2,38.2,21.1,10,9,17.3,19.5,22.2,31.7,4.7,12.2,7.1,25.3,7.1,39.4,0,15.3-2.4,29.2-7.3,42-4.9,12.8-12.4,23.7-22.5,32.7-10.1,9.1-22.8,16.2-38.3,21.3s-33.7,7.6-54.9,7.6h-36.8v.1h0ZM80,266.83h36.9c18.5,0,31.7-4.4,39.9-13.2,8.1-8.8,12.2-21.1,12.2-36.9,0-7-1-13.3-3.1-19.1-2.1-5.7-5.3-10.7-9.6-14.8-4.3-4.2-9.6-7.3-16.2-9.6-6.6-2.3-14.2-3.3-23.2-3.3h-36.9v96.9h0Z" fill="#fff" stroke-width="0"/>
  </g>
</svg>