<?xml version="1.0" encoding="UTF-8"?>
<svg id="h" data-name="color" xmlns="http://www.w3.org/2000/svg" width="695mm" height="180mm" xmlns:xlink="http://www.w3.org/1999/xlink" viewBox="0 0 1970.08 510.24">
  <defs>
    <linearGradient id="n" data-name="keyhole" x1="419.01" y1="189.28" x2="524.08" y2="249.94" gradientUnits="userSpaceOnUse">
      <stop offset="0" stop-color="#ee7159"/>
      <stop offset=".85" stop-color="#e62e27"/>
    </linearGradient>
    <linearGradient id="s" data-name="font-red" x1="1067" y1="539.41" x2="1873.56" y2="73.74" gradientUnits="userSpaceOnUse">
      <stop offset="0" stop-color="#ee7159"/>
      <stop offset=".3" stop-color="#e62e27"/>
    </linearGradient>
  </defs>
  <g id="i" data-name="logo-shield">
    <path id="j" data-name="bg" d="M476.78,378.09s.02,0,.03,0c22.5-2.4,80-45.4,98.9-95.7,28.7-52.9,34.6-152.1,36.3-157.6s5.4-10,10-13.3c4.7-3.3,10.7-5,18.1-5h42.9s0,.03.01.04c-3.18-12.11-12.03-22.68-24.21-27.74L492.81,9.4c-4.2-1.8-11.53-3.2-16.03-3.2h-.16c-4.6,0-11.67,1.4-15.87,3.2l-165.9,69.4c-12.25,5.06-21.11,15.61-24.3,27.7h.02s42.98,0,42.98,0c7.4,0,13.4,1.7,18.1,5,4.7,3.4,8.4,7.8,10,13.3,1.7,5.5,7.7,104.7,36.3,157.6,18.89,50.28,76.15,93.26,98.67,95.7h.16Z" fill="#0967ad" isolation="isolate" opacity=".4"/>
    <path id="k" data-name="bg-r" d="M575.55,282.4c28.7-52.9,34.6-152.1,36.3-157.6s5.4-10,10-13.3c4.7-3.3,10.7-5,18.1-5h42.9s0,.03.01.04c-3.18-12.11-12.03-22.68-24.21-27.74L492.65,9.4c-4.2-1.8-11.53-3.2-16.03-3.2v371.9s.02,0,.03,0c22.5-2.4,80-45.4,98.9-95.7Z" fill="#0967ad" isolation="isolate" opacity=".2"/>
    <path id="l" data-name="v-shape" d="M476.65,378.1c22.5-2.4,80-45.4,98.9-95.7,28.7-52.9,34.6-152.1,36.3-157.6,1.7-5.5,5.4-10,10-13.3,4.7-3.3,10.7-5,18.1-5h42.9c1.7,5.2,2.4,11.5,1.5,30.1h0c-2.1,42.9-9.5,96-44.4,166.4-43.8,81.8-98,119.6-124.8,133.9-13.4,7-28,13.1-38.5,13.1h0c-10.5,0-24.9-6.1-38.3-13.1-26.9-14.3-81.1-52.2-124.8-133.9-34.8-70.4-42.3-123.4-44.4-166.4-.8-18.6-.1-24.9,1.5-30.1h42.9c7.4,0,13.4,1.7,18.1,5,4.7,3.4,8.4,7.8,10,13.3,1.7,5.5,7.7,104.7,36.3,157.6,18.9,50.3,76.2,93.3,98.7,95.7h0Z" fill="#0967ad"/>
  </g>
  <g id="m" data-name="logo-icon">
    <path id="o" data-name="keyhole" d="M476.53,138c-26.7,0-48.4,21.7-48.4,48.5,0,19.3,11.4,35.9,27.7,43.7v60.3c0,11.5,9.3,20.8,20.8,20.8s20.8-9.3,20.8-20.8v-60.3c16.3-7.8,27.6-24.4,27.5-43.7,0-26.8-21.7-48.5-48.4-48.5ZM503.53,193.7h-18.7v18.7h-16.1v-18.7h-18.7v-16.1h18.7v-18.8h16.1v18.8h18.7v16.1Z" fill="url(#n)"/>
    <polygon id="p" data-name="cross" points="468.73 177.6 450.03 177.6 450.03 193.7 468.73 193.7 468.73 212.4 484.83 212.4 484.83 193.7 503.53 193.7 503.53 177.6 484.83 177.6 484.83 158.8 468.73 158.8 468.73 177.6" fill="#fff"/>
  </g>
  <g id="q" data-name="PV">
    <path d="M902.93,306.2v116.3h-70.9v-116.3l-110.8-189.5h62.5c6.2,0,11,1.4,14.7,4.3,3.6,2.9,6.6,6.5,8.8,11l43.2,89c3.5,7.1,6.7,13.7,9.6,19.7,3,6,5.6,11.9,7.8,17.9,2.1-6,4.6-12,7.6-18s6.1-12.5,9.4-19.5l42.8-89c.8-1.8,2-3.6,3.5-5.5,1.5-1.8,3.1-3.5,5-4.9,1.9-1.4,4.1-2.7,6.5-3.6,2.4-.9,5.1-1.3,8.1-1.3h62.9l-110.7,189.4h0Z" fill="#0967ad"/>
    <path d="M79.33,320.9v102.2H8.33V117.4h107.8c21.5,0,40,2.5,55.5,7.6,15.4,5.1,28.2,12.2,38.2,21.1,10,9,17.3,19.5,22.2,31.7,4.7,12.2,7.1,25.3,7.1,39.4,0,15.3-2.4,29.2-7.3,42-4.9,12.8-12.4,23.7-22.5,32.7-10.1,9.1-22.8,16.2-38.3,21.3s-33.7,7.6-54.9,7.6h-36.8v.1h0ZM79.33,267.5h36.9c18.5,0,31.7-4.4,39.9-13.2,8.1-8.8,12.2-21.1,12.2-36.9,0-7-1-13.3-3.1-19.1-2.1-5.7-5.3-10.7-9.6-14.8-4.3-4.2-9.6-7.3-16.2-9.6-6.6-2.3-14.2-3.3-23.2-3.3h-36.9v96.9h0Z" fill="#0967ad"/>
  </g>
  <path d="M1000.07,423.5v-218.31h40.42c4.07,0,7.47.91,10.21,2.74,2.74,1.83,4.66,4.56,5.79,8.21l3.79,12.63c4.21-3.93,8.56-7.58,13.05-10.95,4.49-3.37,9.3-6.21,14.42-8.53,5.12-2.32,10.66-4.14,16.63-5.47,5.96-1.33,12.45-2,19.47-2,11.93,0,22.49,2.07,31.68,6.21,9.19,4.14,16.95,9.89,23.26,17.26,6.32,7.37,11.08,16.14,14.31,26.31,3.23,10.18,4.84,21.23,4.84,33.16v138.73h-65.26v-138.73c0-10.66-2.46-18.98-7.37-24.95-4.91-5.96-12.14-8.95-21.68-8.95-7.16,0-13.89,1.55-20.21,4.63-6.32,3.09-12.35,7.23-18.1,12.42v155.57h-65.26ZM1337.73,201.82c14.45,0,27.68,2.25,39.68,6.74,12,4.49,22.32,11.02,30.95,19.58,8.63,8.56,15.37,19.05,20.21,31.47,4.84,12.42,7.26,26.49,7.26,42.21,0,4.92-.21,8.91-.63,12-.42,3.09-1.19,5.55-2.32,7.37-1.12,1.83-2.63,3.09-4.53,3.79-1.89.7-4.32,1.05-7.26,1.05h-125.89c2.11,18.25,7.65,31.47,16.63,39.68,8.98,8.21,20.56,12.32,34.74,12.32,7.58,0,14.1-.91,19.58-2.74,5.47-1.82,10.35-3.86,14.63-6.11,4.28-2.24,8.21-4.28,11.79-6.1,3.58-1.82,7.33-2.74,11.26-2.74,5.19,0,9.12,1.9,11.79,5.68l18.95,23.37c-6.74,7.72-14,14-21.79,18.84s-15.79,8.63-24,11.37-16.42,4.63-24.63,5.68c-8.21,1.05-16.04,1.58-23.47,1.58-15.3,0-29.65-2.49-43.05-7.47-13.4-4.98-25.12-12.38-35.16-22.21-10.04-9.82-17.97-22.03-23.79-36.63-5.83-14.59-8.74-31.58-8.74-50.95,0-14.59,2.49-28.42,7.47-41.47,4.98-13.05,12.14-24.49,21.47-34.31,9.33-9.82,20.63-17.61,33.89-23.37,13.26-5.75,28.24-8.63,44.95-8.63ZM1338.99,246.87c-12.49,0-22.25,3.55-29.26,10.63-7.02,7.09-11.65,17.3-13.89,30.63h81.47c0-5.19-.67-10.24-2-15.16-1.34-4.91-3.51-9.3-6.53-13.16-3.02-3.86-6.98-6.98-11.89-9.37-4.91-2.38-10.88-3.58-17.89-3.58ZM1448.04,205.19h52.21c4.63,0,8.63,1.05,12,3.16s5.4,4.84,6.11,8.21l21.89,97.89c1.68,7.44,3.23,14.67,4.63,21.68,1.4,7.02,2.66,13.97,3.79,20.84,1.96-6.87,4.03-13.79,6.21-20.74,2.17-6.95,4.32-14.21,6.42-21.79l27.37-98.1c.84-3.23,2.88-5.93,6.1-8.1,3.23-2.17,6.95-3.26,11.16-3.26h29.05c4.63,0,8.59,1.09,11.89,3.26,3.3,2.18,5.37,4.88,6.21,8.1l26.1,98.1c1.96,7.44,3.96,14.67,6,21.68,2.03,7.02,3.96,14.1,5.79,21.26,1.12-7.02,2.49-14,4.11-20.95,1.61-6.95,3.33-14.28,5.16-22l23.16-97.89c.7-3.37,2.7-6.1,6-8.21,3.3-2.1,7.05-3.16,11.26-3.16h49.68l-67.79,218.31h-53.05c-2.81,0-5.19-.84-7.16-2.53-1.97-1.68-3.51-4.49-4.63-8.42l-31.16-108.84c-1.4-4.91-2.74-9.75-4-14.53-1.26-4.77-2.39-9.54-3.37-14.31-.98,4.91-2.07,9.79-3.26,14.63-1.19,4.84-2.56,9.72-4.11,14.63l-31.58,108.42c-2.11,7.3-6.74,10.95-13.89,10.95h-50.52l-67.79-218.31ZM1949.06,252.98c-1.68,2.67-3.47,4.56-5.37,5.68-1.89,1.12-4.32,1.68-7.26,1.68s-6.18-.66-9.26-2c-3.09-1.33-6.42-2.77-10-4.32-3.58-1.54-7.61-2.98-12.1-4.32-4.49-1.33-9.62-2-15.37-2-8.28,0-14.63,1.58-19.05,4.74-4.42,3.16-6.63,7.54-6.63,13.16,0,4.07,1.44,7.44,4.32,10.1,2.88,2.67,6.7,5.02,11.47,7.05,4.77,2.04,10.17,3.97,16.21,5.79,6.03,1.83,12.21,3.86,18.53,6.1,6.32,2.25,12.49,4.88,18.53,7.89,6.03,3.02,11.44,6.74,16.21,11.16,4.77,4.42,8.59,9.79,11.47,16.1,2.88,6.32,4.32,13.89,4.32,22.74,0,10.81-1.97,20.77-5.89,29.89-3.93,9.12-9.79,16.98-17.58,23.58-7.79,6.6-17.4,11.72-28.84,15.37-11.44,3.65-24.6,5.47-39.47,5.47-7.44,0-14.88-.7-22.31-2.11-7.44-1.4-14.63-3.3-21.58-5.68-6.95-2.38-13.37-5.23-19.26-8.53-5.89-3.3-10.95-6.84-15.16-10.63l15.16-24c1.82-2.81,4-5.02,6.53-6.63,2.53-1.61,5.82-2.42,9.89-2.42,3.79,0,7.19.84,10.21,2.53,3.02,1.68,6.28,3.51,9.79,5.47,3.51,1.97,7.61,3.79,12.32,5.47,4.7,1.68,10.63,2.53,17.79,2.53,5.05,0,9.33-.53,12.84-1.58,3.51-1.05,6.32-2.49,8.42-4.32,2.1-1.82,3.65-3.86,4.63-6.1.98-2.24,1.47-4.56,1.47-6.95,0-4.35-1.47-7.93-4.42-10.74-2.95-2.81-6.81-5.23-11.58-7.26-4.77-2.03-10.21-3.93-16.32-5.68-6.1-1.75-12.32-3.75-18.63-6-6.32-2.24-12.53-4.95-18.63-8.1-6.11-3.16-11.55-7.16-16.32-12-4.77-4.84-8.63-10.77-11.58-17.79-2.95-7.02-4.42-15.51-4.42-25.47,0-9.26,1.79-18.07,5.37-26.42,3.58-8.35,8.95-15.68,16.1-22,7.16-6.32,16.14-11.33,26.95-15.05,10.8-3.72,23.44-5.58,37.89-5.58,7.86,0,15.47.7,22.84,2.1,7.37,1.4,14.28,3.37,20.74,5.89,6.45,2.53,12.35,5.51,17.68,8.95,5.33,3.44,10.03,7.19,14.1,11.26l-14.74,22.95Z" fill="url(#s)"/>
</svg>