<?xml version="1.0" encoding="UTF-8"?>
<svg xmlns="http://www.w3.org/2000/svg" width="160mm" height="160mm" xmlns:xlink="http://www.w3.org/1999/xlink" viewBox="0 0 453.54 453.54">
  <defs>
    <linearGradient id="n" data-name="Unbenannter Verlauf 9" x1="123.81" y1="227.27" x2="315.04" y2="116.86" gradientUnits="userSpaceOnUse">
      <stop offset="0" stop-color="#ee7159"/>
      <stop offset=".33" stop-color="#e62e27"/>
    </linearGradient>
  </defs>
  <g id="g" data-name="color">
    <g id="i" data-name="shield">
      <path id="j" data-name="bg" d="M226.88,378.09s.02,0,.03,0c22.5-2.4,80-45.4,98.9-95.7,28.7-52.9,34.6-152.1,36.3-157.6s5.4-10,10-13.3c4.7-3.3,10.7-5,18.1-5h42.9s0,.03.01.04c-3.18-12.11-12.03-22.68-24.21-27.74L242.91,9.4c-4.2-1.8-11.53-3.2-16.03-3.2h-.16c-4.6,0-11.67,1.4-15.87,3.2L44.95,78.8c-12.25,5.06-21.11,15.61-24.3,27.7h.02s42.98,0,42.98,0c7.4,0,13.4,1.7,18.1,5,4.7,3.4,8.4,7.8,10,13.3,1.7,5.5,7.7,104.7,36.3,157.6,18.89,50.28,76.15,93.26,98.67,95.7h.16Z" fill="#0967ad" isolation="isolate" opacity=".4" stroke-width="0"/>
      <path id="k" data-name="bg-r" d="M325.65,282.4c28.7-52.9,34.6-152.1,36.3-157.6s5.4-10,10-13.3c4.7-3.3,10.7-5,18.1-5h42.9s0,.03.01.04c-3.18-12.11-12.03-22.68-24.21-27.74L242.75,9.4c-4.2-1.8-11.53-3.2-16.03-3.2v371.9s.02,0,.03,0c22.5-2.4,80-45.4,98.9-95.7Z" fill="#0967ad" isolation="isolate" opacity=".2" stroke-width="0"/>
      <path id="l" data-name="v-shape" d="M226.75,378.1c22.5-2.4,80-45.4,98.9-95.7,28.7-52.9,34.6-152.1,36.3-157.6,1.7-5.5,5.4-10,10-13.3,4.7-3.3,10.7-5,18.1-5h42.9c1.7,5.2,2.4,11.5,1.5,30.1h0c-2.1,42.9-9.5,96-44.4,166.4-43.8,81.8-98,119.6-124.8,133.9-13.4,7-28,13.1-38.5,13.1h0c-10.5,0-24.9-6.1-38.3-13.1-26.9-14.3-81.1-52.2-124.8-133.9C28.85,232.6,21.35,179.6,19.25,136.6c-.8-18.6-.1-24.9,1.5-30.1h42.9c7.4,0,13.4,1.7,18.1,5,4.7,3.4,8.4,7.8,10,13.3,1.7,5.5,7.7,104.7,36.3,157.6,18.9,50.3,76.2,93.3,98.7,95.7h0Z" fill="#0967ad" stroke-width="0"/>
    </g>
  </g>
  <g id="m" data-name="icon">
    <g>
      <path d="M336.44,179.03c-8.29-19.44-20.01-62.62-30.16-77.06-15.87-22.52-41.9-36.39-70.12-36.39h-30.94c-43.36,0-78.83,35.48-78.83,79.21,0,23.41,10.21,44.39,26.4,58.95l-.37,73.06h105.24v-26.4h26.03c14.59,0,26.03-11.81,26.03-26.03v-26.77h12.83c11.38,0,17.78-9.86,13.9-18.56ZM220.11,160.79l-6.38-2.1c-2.41,2.01-5.16,3.6-8.16,4.73l-1.55,6.53c-.25,2.1-1.87,3.76-3.99,4.03-1.51.18-3.04.27-4.6.27s-3.09-.09-4.6-.27c-2.12-.27-3.94-1.94-4.19-4.03l-1.55-6.53c-2.79-1.13-5.54-2.73-7.96-4.73l-6.36,2.1c-2.03.68-4.28.11-5.57-1.6-.8-1.06-1.54-2.16-2.23-3.29l-.68-1.19c-.63-1.13-1.2-2.3-1.71-3.49-.83-2.16-.2-4.21,1.4-5.63l5-4.46c-.25-1.53-.59-3.11-.59-4.91,0-1.4.33-2.97.59-4.51l-5-4.46c-1.59-1.62-2.23-3.67-1.4-5.63.51-1.4,1.08-2.37,1.71-3.5l.68-1.18c.68-1.14,1.43-2.24,2.22-3.29,1.28-1.7,3.54-2.27,5.57-1.6l6.36,2.1c2.42-1.99,5.17-3.6,7.96-4.72l1.55-6.55c.25-2.09,2.07-3.76,4.19-4.02,1.51-.18,3.04-.28,4.6-.28s3.09.09,4.6.28c2.12.26,3.74,1.93,3.99,4.02l1.55,6.55c3,1.12,5.74,2.73,8.16,4.72l6.38-2.1c2.03-.67,4.28-.1,5.56,1.6.79,1.05,1.33,2.15,2.21,3.28l.7,1.21c.63,1.13,1.19,2.29,1.71,3.49.83,1.96.18,4.01-1.4,5.63l-5,4.46c.25,1.53.38,3.11.38,4.51,0,1.8-.14,3.38-.38,4.91l5,4.46c1.58,1.42,2.23,3.47,1.4,5.63-.52.99-1.08,2.37-1.71,3.49l-.7,1.22c-.88,1.13-1.42,2.21-2.21,3.27-1.28,1.71-3.54,2.28-5.56,1.6ZM301.5,180.66c-.27,2.12-1.94,3.74-4.03,3.99l-6.53,1.55c-1.13,3-2.73,5.74-4.73,8.16l2.1,6.38c.68,2.03.11,4.28-1.6,5.56-1.06.79-2.14,1.33-3.27,2.21l-1.22.7c-1.13.63-2.5,1.19-3.49,1.71-2.16.83-4.21.18-5.63-1.4l-4.46-5c-1.53.25-3.11.38-4.71.38s-3.18-.14-4.71-.38l-4.46,5c-1.62,1.58-3.67,2.23-5.63,1.4-1.19-.52-2.37-1.08-3.49-1.71l-1.22-.7c-1.13-.88-2.21-1.42-3.27-2.21-1.71-1.28-2.28-3.54-1.6-5.56l2.1-6.38c-2.01-2.41-3.6-5.16-4.73-8.16l-6.53-1.55c-2.1-.25-3.76-1.87-4.03-3.99-.18-1.51-.27-3.04-.27-4.6s.09-3.09.27-4.6c.27-2.12,1.94-3.94,4.03-4.19l6.53-1.55c1.13-2.79,2.73-5.54,4.73-7.95l-2.1-6.38c-.68-2.03-.11-4.28,1.6-5.56,1.06-.79,2.16-1.73,3.29-2.23l1.19-.68c1.13-.63,2.1-1.19,3.49-1.71,1.96-.83,4.01-.18,5.63,1.4l4.46,5c1.53-.25,3.11-.38,4.71-.38s3.18.14,4.71.38l4.46-5c1.42-1.58,3.47-2.23,5.63-1.4,1.19.52,2.37,1.08,3.49,1.71l1.19.68c1.13.5,2.23,1.44,3.29,2.23,1.71,1.28,2.28,3.54,1.6,5.56l-2.1,6.38c2,2.41,3.6,5.16,4.73,7.95l6.53,1.55c2.1.25,3.76,2.07,4.03,4.19.18,1.51.27,3.04.27,4.6s-.09,3.09-.27,4.6Z" fill="url(#n)" stroke-width="0"/>
      <path d="M227.88,155.93c-.88,1.13-1.42,2.21-2.21,3.27-1.28,1.71-3.54,2.28-5.56,1.6l-6.38-2.1c-2.41,2.01-5.16,3.6-8.16,4.73l-1.55,6.53c-.25,2.1-1.87,3.76-3.99,4.03-1.51.18-3.04.27-4.6.27s-3.09-.09-4.6-.27c-2.12-.27-3.94-1.94-4.19-4.03l-1.55-6.53c-2.79-1.13-5.54-2.73-7.96-4.73l-6.36,2.1c-2.03.68-4.28.11-5.57-1.6-.8-1.06-1.54-2.16-2.23-3.29l-.68-1.19c-.63-1.13-1.2-2.3-1.71-3.49-.83-2.16-.2-4.21,1.4-5.63l5-4.46c-.25-1.53-.59-3.11-.59-4.91,0-1.4.33-2.97.59-4.51l-5-4.46c-1.59-1.62-2.23-3.67-1.4-5.63.51-1.4,1.08-2.37,1.71-3.5l.68-1.18c.68-1.14,1.43-2.24,2.22-3.29,1.28-1.7,3.54-2.27,5.57-1.6l6.36,2.1c2.42-1.99,5.17-3.6,7.96-4.72l1.55-6.55c.25-2.09,2.07-3.76,4.19-4.02,1.51-.18,3.04-.28,4.6-.28s3.09.09,4.6.28c2.12.26,3.74,1.93,3.99,4.02l1.55,6.55c3,1.12,5.74,2.73,8.16,4.72l6.38-2.1c2.03-.67,4.28-.1,5.56,1.6.79,1.05,1.33,2.15,2.21,3.28l.7,1.21c.63,1.13,1.19,2.29,1.71,3.49.83,1.96.18,4.01-1.4,5.63l-5,4.46c.25,1.53.38,3.11.38,4.51,0,1.8-.14,3.38-.38,4.91l5,4.46c1.58,1.42,2.23,3.47,1.4,5.63-.52.99-1.08,2.37-1.71,3.49l-.7,1.22Z" fill="#fff" isolation="isolate" stroke-width="0"/>
      <path d="M195.44,125.4c-5.97,0-10.81,5.05-10.81,10.81,0,6.17,4.84,10.81,10.81,10.81s10.81-4.64,10.81-10.81c0-5.77-4.84-10.81-10.81-10.81Z" fill="#0967ad" opacity=".4" stroke-width="0"/>
      <path d="M301.5,171.47c.18,1.51.27,3.04.27,4.6s-.09,3.09-.27,4.6c-.27,2.12-1.94,3.74-4.03,3.99l-6.53,1.55c-1.13,3-2.73,5.74-4.73,8.16l2.1,6.38c.68,2.03.11,4.28-1.6,5.56-1.06.79-2.14,1.33-3.27,2.21l-1.22.7c-1.13.63-2.5,1.19-3.49,1.71-2.16.83-4.21.18-5.63-1.4l-4.46-5c-1.53.25-3.11.38-4.71.38s-3.18-.14-4.71-.38l-4.46,5c-1.62,1.58-3.67,2.23-5.63,1.4-1.19-.52-2.37-1.08-3.49-1.71l-1.22-.7c-1.13-.88-2.21-1.42-3.27-2.21-1.71-1.28-2.28-3.54-1.6-5.56l2.1-6.38c-2.01-2.41-3.6-5.16-4.73-8.16l-6.53-1.55c-2.1-.25-3.76-1.87-4.03-3.99-.18-1.51-.27-3.04-.27-4.6s.09-3.09.27-4.6c.27-2.12,1.94-3.94,4.03-4.19l6.53-1.55c1.13-2.79,2.73-5.54,4.73-7.95l-2.1-6.38c-.68-2.03-.11-4.28,1.6-5.56,1.06-.79,2.16-1.73,3.29-2.23l1.19-.68c1.13-.63,2.1-1.19,3.49-1.71,1.96-.83,4.01-.18,5.63,1.4l4.46,5c1.53-.25,3.11-.38,4.71-.38s3.18.14,4.71.38l4.46-5c1.42-1.58,3.47-2.23,5.63-1.4,1.19.52,2.37,1.08,3.49,1.71l1.19.68c1.13.5,2.23,1.44,3.29,2.23,1.71,1.28,2.28,3.54,1.6,5.56l-2.1,6.38c2,2.41,3.6,5.16,4.73,7.95l6.53,1.55c2.1.25,3.76,2.07,4.03,4.19Z" fill="#fff" isolation="isolate" stroke-width="0"/>
      <circle cx="263.92" cy="176.07" r="10.81" fill="#0967ad" opacity=".6" stroke-width="0"/>
    </g>
  </g>
</svg>