<?xml version="1.0" encoding="UTF-8"?>
<svg id="d" data-name="white" xmlns="http://www.w3.org/2000/svg" width="830mm" height="180mm" xmlns:xlink="http://www.w3.org/1999/xlink" viewBox="0 0 2352.76 510.24">
  <defs>
    <linearGradient id="j" data-name="font-red" x1="1118.28" y1="630.07" x2="2192.96" y2="9.6" gradientUnits="userSpaceOnUse">
      <stop offset="0" stop-color="#ee7159"/>
      <stop offset=".3" stop-color="#e62e27"/>
    </linearGradient>
    <linearGradient id="l" data-name="keyhole" x1="419.67" y1="188.62" x2="524.74" y2="249.28" gradientUnits="userSpaceOnUse">
      <stop offset="0" stop-color="#ee7159"/>
      <stop offset=".85" stop-color="#e62e27"/>
    </linearGradient>
  </defs>
  <g id="e" data-name="logo-shield">
    <path id="f" data-name="bg" d="M477.45,377.43s.02,0,.03,0c22.5-2.4,80-45.4,98.9-95.7,28.7-52.9,34.6-152.1,36.3-157.6s5.4-10,10-13.3c4.7-3.3,10.7-5,18.1-5h42.9s0,.03.01.04c-3.18-12.11-12.03-22.68-24.21-27.74L493.48,8.73c-4.2-1.8-11.53-3.2-16.03-3.2h-.16c-4.6,0-11.67,1.4-15.87,3.2l-165.9,69.4c-12.25,5.06-21.11,15.61-24.3,27.7h.02s42.98,0,42.98,0c7.4,0,13.4,1.7,18.1,5,4.7,3.4,8.4,7.8,10,13.3,1.7,5.5,7.7,104.7,36.3,157.6,18.89,50.28,76.15,93.26,98.67,95.7h.16Z" fill="#fff" isolation="isolate" opacity=".4" stroke-width="0"/>
    <path id="g" data-name="bg-r" d="M576.21,281.73c28.7-52.9,34.6-152.1,36.3-157.6s5.4-10,10-13.3c4.7-3.3,10.7-5,18.1-5h42.9s0,.03.01.04c-3.18-12.11-12.03-22.68-24.21-27.74L493.31,8.73c-4.2-1.8-11.53-3.2-16.03-3.2v371.9s.02,0,.03,0c22.5-2.4,80-45.4,98.9-95.7Z" fill="#fff" isolation="isolate" opacity=".2" stroke-width="0"/>
    <path id="h" data-name="v-shape" d="M477.31,377.43c22.5-2.4,80-45.4,98.9-95.7,28.7-52.9,34.6-152.1,36.3-157.6,1.7-5.5,5.4-10,10-13.3,4.7-3.3,10.7-5,18.1-5h42.9c1.7,5.2,2.4,11.5,1.5,30.1h0c-2.1,42.9-9.5,96-44.4,166.4-43.8,81.8-98,119.6-124.8,133.9-13.4,7-28,13.1-38.5,13.1h0c-10.5,0-24.9-6.1-38.3-13.1-26.9-14.3-81.1-52.2-124.8-133.9-34.8-70.4-42.3-123.4-44.4-166.4-.8-18.6-.1-24.9,1.5-30.1h42.9c7.4,0,13.4,1.7,18.1,5,4.7,3.4,8.4,7.8,10,13.3,1.7,5.5,7.7,104.7,36.3,157.6,18.9,50.3,76.2,93.3,98.7,95.7h0Z" fill="#fff" stroke-width="0"/>
  </g>
  <path d="M1138.89,251.92c-1.68,2.67-3.47,4.56-5.37,5.68-1.89,1.12-4.32,1.68-7.26,1.68s-6.18-.66-9.26-2c-3.09-1.33-6.42-2.77-10-4.32-3.58-1.54-7.62-2.98-12.1-4.32-4.49-1.33-9.62-2-15.37-2-8.28,0-14.63,1.58-19.05,4.74-4.42,3.16-6.63,7.54-6.63,13.16,0,4.07,1.44,7.44,4.32,10.1,2.88,2.67,6.7,5.02,11.47,7.05,4.77,2.04,10.17,3.97,16.21,5.79,6.03,1.83,12.21,3.86,18.53,6.1,6.32,2.25,12.49,4.88,18.53,7.89,6.03,3.02,11.44,6.74,16.21,11.16,4.77,4.42,8.59,9.79,11.47,16.1,2.88,6.32,4.32,13.89,4.32,22.74,0,10.81-1.97,20.77-5.89,29.89-3.93,9.12-9.79,16.98-17.58,23.58-7.79,6.6-17.4,11.72-28.84,15.37-11.44,3.65-24.6,5.47-39.47,5.47-7.44,0-14.88-.7-22.32-2.11-7.44-1.4-14.63-3.3-21.58-5.68-6.95-2.38-13.37-5.23-19.26-8.53-5.89-3.3-10.95-6.84-15.16-10.63l15.16-24c1.82-2.81,4-5.02,6.53-6.63,2.53-1.61,5.82-2.42,9.89-2.42,3.79,0,7.19.84,10.21,2.53,3.02,1.68,6.28,3.51,9.79,5.47,3.51,1.97,7.61,3.79,12.31,5.47,4.7,1.68,10.63,2.53,17.79,2.53,5.05,0,9.33-.53,12.84-1.58,3.51-1.05,6.32-2.49,8.42-4.32,2.11-1.82,3.65-3.86,4.63-6.1.98-2.24,1.47-4.56,1.47-6.95,0-4.35-1.47-7.93-4.42-10.74-2.95-2.81-6.81-5.23-11.58-7.26-4.77-2.03-10.21-3.93-16.32-5.68-6.11-1.75-12.32-3.75-18.63-6-6.32-2.24-12.53-4.95-18.63-8.1-6.1-3.16-11.54-7.16-16.31-12-4.77-4.84-8.63-10.77-11.58-17.79-2.95-7.02-4.42-15.51-4.42-25.47,0-9.26,1.79-18.07,5.37-26.42,3.58-8.35,8.95-15.68,16.1-22,7.16-6.32,16.14-11.33,26.95-15.05,10.81-3.72,23.44-5.58,37.89-5.58,7.86,0,15.47.7,22.84,2.11,7.37,1.4,14.28,3.37,20.74,5.89,6.45,2.53,12.35,5.51,17.68,8.95,5.33,3.44,10.03,7.19,14.1,11.26l-14.74,22.95ZM1284.14,200.76c14.45,0,27.68,2.25,39.68,6.74,12,4.49,22.31,11.02,30.95,19.58,8.63,8.56,15.37,19.05,20.21,31.47,4.84,12.42,7.26,26.49,7.26,42.21,0,4.92-.21,8.91-.63,12-.42,3.09-1.2,5.55-2.32,7.37-1.12,1.83-2.63,3.09-4.53,3.79-1.89.7-4.32,1.05-7.26,1.05h-125.89c2.1,18.25,7.65,31.47,16.63,39.68,8.98,8.21,20.56,12.32,34.74,12.32,7.58,0,14.1-.91,19.58-2.74,5.47-1.82,10.35-3.86,14.63-6.11,4.28-2.24,8.21-4.28,11.79-6.1,3.58-1.82,7.33-2.74,11.26-2.74,5.19,0,9.12,1.9,11.79,5.68l18.95,23.37c-6.74,7.72-14,14-21.79,18.84s-15.79,8.63-24,11.37c-8.21,2.74-16.42,4.63-24.63,5.68s-16.04,1.58-23.47,1.58c-15.3,0-29.65-2.49-43.05-7.47-13.4-4.98-25.12-12.38-35.16-22.21-10.04-9.82-17.97-22.03-23.79-36.63-5.83-14.59-8.74-31.58-8.74-50.95,0-14.59,2.49-28.42,7.47-41.47,4.98-13.05,12.14-24.49,21.47-34.31,9.33-9.82,20.63-17.61,33.89-23.37,13.26-5.75,28.24-8.63,44.94-8.63ZM1285.41,245.81c-12.49,0-22.25,3.55-29.26,10.63-7.02,7.09-11.65,17.3-13.89,30.63h81.47c0-5.19-.67-10.24-2-15.16-1.34-4.91-3.51-9.3-6.53-13.16-3.02-3.86-6.98-6.98-11.89-9.37-4.91-2.38-10.88-3.58-17.89-3.58ZM1419.71,422.43v-218.31h38.74c3.23,0,5.93.28,8.1.84,2.17.56,4,1.44,5.47,2.63,1.47,1.19,2.6,2.77,3.37,4.74.77,1.97,1.44,4.35,2,7.16l3.58,20.42c8-12.35,16.98-22.1,26.95-29.26,9.96-7.16,20.84-10.74,32.63-10.74,9.96,0,17.96,2.39,24,7.16l-8.42,48c-.56,2.95-1.68,5.02-3.37,6.21-1.68,1.19-3.93,1.79-6.74,1.79-2.39,0-5.19-.32-8.42-.95-3.23-.63-7.3-.95-12.21-.95-17.12,0-30.6,9.12-40.42,27.37v133.89h-65.26ZM1714.43,422.43h-59.37l-84.63-218.31h54.31c4.63,0,8.53,1.09,11.68,3.26,3.16,2.18,5.3,4.88,6.42,8.1l30.31,97.89c2.38,8,4.66,15.79,6.84,23.37,2.17,7.58,4.03,15.16,5.58,22.74,1.54-7.58,3.44-15.16,5.68-22.74,2.24-7.58,4.63-15.37,7.16-23.37l31.58-97.89c1.12-3.23,3.23-5.93,6.32-8.1,3.08-2.17,6.74-3.26,10.95-3.26h51.79l-84.63,218.31ZM1901.37,144.34c0,5.19-1.05,10.07-3.16,14.63-2.11,4.56-4.98,8.56-8.63,12-3.65,3.44-7.89,6.18-12.74,8.21-4.84,2.04-10,3.05-15.47,3.05s-10.32-1.02-14.95-3.05c-4.63-2.03-8.74-4.77-12.32-8.21-3.58-3.44-6.39-7.44-8.42-12-2.04-4.56-3.05-9.44-3.05-14.63s1.02-10.32,3.05-14.95c2.03-4.63,4.84-8.7,8.42-12.21,3.58-3.51,7.68-6.24,12.32-8.21,4.63-1.96,9.61-2.95,14.95-2.95s10.63.98,15.47,2.95c4.84,1.97,9.08,4.7,12.74,8.21,3.65,3.51,6.53,7.58,8.63,12.21,2.11,4.63,3.16,9.62,3.16,14.95ZM1893.79,204.13v218.31h-65.26v-218.31h65.26ZM2103.88,255.92c-1.97,2.39-3.86,4.28-5.68,5.68-1.83,1.4-4.42,2.1-7.79,2.1s-6.14-.77-8.74-2.32c-2.6-1.54-5.51-3.26-8.74-5.16-3.23-1.89-7.02-3.61-11.37-5.16-4.35-1.54-9.76-2.32-16.21-2.32-8,0-14.91,1.47-20.74,4.42-5.83,2.95-10.63,7.16-14.42,12.63-3.79,5.47-6.6,12.18-8.42,20.1-1.83,7.93-2.74,16.88-2.74,26.84,0,20.91,4.03,36.98,12.11,48.21,8.07,11.23,19.19,16.84,33.37,16.84,7.58,0,13.58-.95,18-2.84s8.17-4,11.26-6.32c3.09-2.32,5.93-4.45,8.53-6.42,2.59-1.96,5.86-2.95,9.79-2.95,5.19,0,9.12,1.9,11.79,5.68l18.95,23.37c-6.74,7.72-13.83,14-21.26,18.84-7.44,4.84-15.05,8.63-22.84,11.37s-15.61,4.63-23.47,5.68c-7.86,1.05-15.51,1.58-22.95,1.58-13.33,0-26.07-2.53-38.21-7.58-12.14-5.05-22.81-12.38-32-22-9.19-9.61-16.49-21.44-21.89-35.47-5.4-14.03-8.1-30.03-8.1-48,0-15.72,2.35-30.42,7.05-44.1,4.7-13.68,11.65-25.54,20.84-35.58,9.19-10.03,20.56-17.93,34.1-23.68,13.54-5.75,29.23-8.63,47.05-8.63s32.14,2.74,45.05,8.21c12.91,5.47,24.56,13.47,34.95,24l-17.26,22.95ZM2244.5,200.76c14.45,0,27.68,2.25,39.68,6.74,12,4.49,22.32,11.02,30.95,19.58,8.63,8.56,15.37,19.05,20.21,31.47,4.84,12.42,7.26,26.49,7.26,42.21,0,4.92-.21,8.91-.63,12-.42,3.09-1.19,5.55-2.32,7.37-1.12,1.83-2.63,3.09-4.53,3.79-1.89.7-4.32,1.05-7.26,1.05h-125.89c2.1,18.25,7.65,31.47,16.63,39.68,8.98,8.21,20.56,12.32,34.74,12.32,7.58,0,14.1-.91,19.58-2.74,5.47-1.82,10.35-3.86,14.63-6.11,4.28-2.24,8.21-4.28,11.79-6.1,3.58-1.82,7.33-2.74,11.26-2.74,5.19,0,9.12,1.9,11.79,5.68l18.95,23.37c-6.74,7.72-14,14-21.79,18.84s-15.79,8.63-24,11.37-16.42,4.63-24.63,5.68c-8.21,1.05-16.04,1.58-23.47,1.58-15.3,0-29.65-2.49-43.05-7.47-13.4-4.98-25.12-12.38-35.16-22.21-10.04-9.82-17.97-22.03-23.79-36.63-5.83-14.59-8.74-31.58-8.74-50.95,0-14.59,2.49-28.42,7.47-41.47,4.98-13.05,12.14-24.49,21.47-34.31,9.33-9.82,20.63-17.61,33.89-23.37,13.26-5.75,28.24-8.63,44.95-8.63ZM2245.76,245.81c-12.49,0-22.25,3.55-29.26,10.63-7.02,7.09-11.65,17.3-13.89,30.63h81.47c0-5.19-.67-10.24-2-15.16-1.34-4.91-3.51-9.3-6.53-13.16-3.02-3.86-6.98-6.98-11.89-9.37-4.91-2.38-10.88-3.58-17.89-3.58Z" fill="url(#j)" stroke-width="0"/>
  <g>
    <path d="M2132.2,134.33c0,5.87-1.01,11.27-3.03,16.23-2.02,4.95-4.87,9.24-8.55,12.86-3.67,3.62-8.1,6.44-13.28,8.46s-10.92,3.03-17.23,3.03h-31.51v-81.12h31.51c6.31,0,12.05,1.02,17.23,3.06,5.18,2.04,9.6,4.86,13.28,8.46,3.67,3.6,6.52,7.88,8.55,12.83,2.02,4.96,3.03,10.35,3.03,16.17ZM2112.94,134.33c0-4.01-.52-7.63-1.56-10.86-1.04-3.23-2.53-5.97-4.48-8.21-1.95-2.24-4.33-3.97-7.15-5.18-2.82-1.21-6.03-1.81-9.63-1.81h-12.58v52.17h12.58c3.6,0,6.81-.6,9.63-1.81,2.82-1.21,5.21-2.93,7.15-5.18,1.95-2.25,3.44-4.98,4.48-8.21,1.04-3.23,1.56-6.87,1.56-10.91Z" fill="#fff" stroke-width="0"/>
    <path d="M2165.94,116.29c3.82,0,7.32.59,10.49,1.78s5.9,2.91,8.18,5.18c2.28,2.26,4.06,5.04,5.34,8.32,1.28,3.29,1.92,7.01,1.92,11.16,0,1.3-.06,2.36-.17,3.17-.11.82-.32,1.47-.61,1.95-.3.48-.7.82-1.2,1-.5.19-1.14.28-1.92.28h-33.29c.56,4.83,2.02,8.32,4.4,10.49,2.38,2.17,5.44,3.26,9.19,3.26,2,0,3.73-.24,5.18-.72,1.45-.48,2.74-1.02,3.87-1.61s2.17-1.13,3.12-1.61c.95-.48,1.94-.72,2.98-.72,1.37,0,2.41.5,3.12,1.5l5.01,6.18c-1.78,2.04-3.7,3.7-5.76,4.98-2.06,1.28-4.18,2.28-6.35,3.01-2.17.72-4.34,1.22-6.51,1.5-2.17.28-4.24.42-6.21.42-4.05,0-7.84-.66-11.39-1.98s-6.64-3.28-9.3-5.87c-2.65-2.6-4.75-5.83-6.29-9.69-1.54-3.86-2.31-8.35-2.31-13.47,0-3.86.66-7.52,1.98-10.97,1.32-3.45,3.21-6.48,5.68-9.07,2.47-2.6,5.46-4.66,8.96-6.18,3.51-1.52,7.47-2.28,11.89-2.28ZM2166.27,128.2c-3.3,0-5.88.94-7.74,2.81-1.86,1.88-3.08,4.58-3.67,8.1h21.54c0-1.37-.18-2.71-.53-4.01-.35-1.3-.93-2.46-1.73-3.48-.8-1.02-1.85-1.85-3.15-2.48-1.3-.63-2.88-.95-4.73-.95Z" fill="#fff" stroke-width="0"/>
    <path d="M2237.09,129.82c-.45.71-.92,1.21-1.42,1.5s-1.14.45-1.92.45-1.63-.18-2.45-.53c-.82-.35-1.7-.73-2.64-1.14s-2.01-.79-3.2-1.14c-1.19-.35-2.54-.53-4.06-.53-2.19,0-3.87.42-5.04,1.25s-1.75,2-1.75,3.48c0,1.08.38,1.97,1.14,2.67s1.77,1.33,3.03,1.87c1.26.54,2.69,1.05,4.29,1.53,1.59.48,3.23,1.02,4.9,1.61,1.67.59,3.3,1.29,4.9,2.09,1.6.8,3.03,1.78,4.29,2.95s2.27,2.59,3.03,4.26c.76,1.67,1.14,3.67,1.14,6.01,0,2.86-.52,5.49-1.56,7.91-1.04,2.41-2.59,4.49-4.65,6.24-2.06,1.75-4.6,3.1-7.63,4.06-3.03.96-6.5,1.45-10.44,1.45-1.97,0-3.93-.19-5.9-.56-1.97-.37-3.87-.87-5.71-1.5-1.84-.63-3.54-1.38-5.09-2.25-1.56-.87-2.9-1.81-4.01-2.81l4.01-6.35c.48-.74,1.06-1.33,1.73-1.75.67-.43,1.54-.64,2.62-.64,1,0,1.9.22,2.7.67.8.45,1.66.93,2.59,1.45.93.52,2.01,1,3.26,1.45,1.24.45,2.81.67,4.7.67,1.34,0,2.47-.14,3.4-.42s1.67-.66,2.23-1.14c.56-.48.96-1.02,1.22-1.61.26-.59.39-1.21.39-1.84,0-1.15-.39-2.1-1.17-2.84-.78-.74-1.8-1.38-3.06-1.92-1.26-.54-2.7-1.04-4.31-1.5-1.61-.46-3.26-.99-4.93-1.59-1.67-.59-3.31-1.31-4.93-2.14-1.61-.84-3.05-1.89-4.31-3.17s-2.28-2.85-3.06-4.7c-.78-1.86-1.17-4.1-1.17-6.74,0-2.45.47-4.78,1.42-6.99.95-2.21,2.37-4.15,4.26-5.82s4.27-3,7.13-3.98c2.86-.98,6.2-1.48,10.02-1.48,2.08,0,4.09.19,6.04.56s3.78.89,5.48,1.56,3.27,1.46,4.68,2.37c1.41.91,2.65,1.9,3.73,2.98l-3.9,6.07Z" fill="#fff" stroke-width="0"/>
    <path d="M2268.04,91.57v46.71h2.56c1.08,0,1.9-.15,2.48-.45.57-.3,1.12-.83,1.64-1.61l10.91-16.26c.63-.96,1.38-1.67,2.25-2.12.87-.45,1.98-.67,3.31-.67h15.81l-14.92,20.54c-.71.97-1.47,1.82-2.31,2.56-.83.74-1.73,1.41-2.7,2,1.67,1.26,3.12,2.93,4.34,5.01l16.26,27.61h-15.59c-1.3,0-2.42-.21-3.37-.64-.95-.43-1.72-1.18-2.31-2.25l-10.91-20.43c-.52-.93-1.06-1.53-1.62-1.81-.56-.28-1.39-.42-2.5-.42h-3.34v25.55h-17.26v-83.34h17.26Z" fill="#fff" stroke-width="0"/>
  </g>
  <g id="k" data-name="logo-icon">
    <path id="m" data-name="keyhole" d="M477.2,137.33c-26.7,0-48.4,21.7-48.4,48.5,0,19.3,11.4,35.9,27.7,43.7v60.3c0,11.5,9.3,20.8,20.8,20.8s20.8-9.3,20.8-20.8v-60.3c16.3-7.8,27.6-24.4,27.5-43.7,0-26.8-21.7-48.5-48.4-48.5ZM504.2,193.03h-18.7v18.7h-16.1v-18.7h-18.7v-16.1h18.7v-18.8h16.1v18.8h18.7v16.1Z" fill="url(#l)" stroke-width="0"/>
    <polygon id="n" data-name="cross" points="469.4 176.93 450.7 176.93 450.7 193.03 469.4 193.03 469.4 211.73 485.5 211.73 485.5 193.03 504.2 193.03 504.2 176.93 485.5 176.93 485.5 158.13 469.4 158.13 469.4 176.93" fill="#fff" stroke-width="0"/>
  </g>
  <g id="o" data-name="PV">
    <path d="M903.6,305.53v116.3h-70.9v-116.3l-110.8-189.5h62.5c6.2,0,11,1.4,14.7,4.3,3.6,2.9,6.6,6.5,8.8,11l43.2,89c3.5,7.1,6.7,13.7,9.6,19.7,3,6,5.6,11.9,7.8,17.9,2.1-6,4.6-12,7.6-18s6.1-12.5,9.4-19.5l42.8-89c.8-1.8,2-3.6,3.5-5.5,1.5-1.8,3.1-3.5,5-4.9s4.1-2.7,6.5-3.6c2.4-.9,5.1-1.3,8.1-1.3h62.9l-110.7,189.4h0Z" fill="#fff" stroke-width="0"/>
    <path d="M80,320.23v102.2H9V116.73h107.8c21.5,0,40,2.5,55.5,7.6,15.4,5.1,28.2,12.2,38.2,21.1,10,9,17.3,19.5,22.2,31.7,4.7,12.2,7.1,25.3,7.1,39.4,0,15.3-2.4,29.2-7.3,42-4.9,12.8-12.4,23.7-22.5,32.7-10.1,9.1-22.8,16.2-38.3,21.3s-33.7,7.6-54.9,7.6h-36.8v.1h0ZM80,266.83h36.9c18.5,0,31.7-4.4,39.9-13.2,8.1-8.8,12.2-21.1,12.2-36.9,0-7-1-13.3-3.1-19.1-2.1-5.7-5.3-10.7-9.6-14.8-4.3-4.2-9.6-7.3-16.2-9.6-6.6-2.3-14.2-3.3-23.2-3.3h-36.9v96.9h0Z" fill="#fff" stroke-width="0"/>
  </g>
</svg>