<?xml version="1.0" encoding="UTF-8"?>
<svg xmlns="http://www.w3.org/2000/svg" xmlns:xlink="http://www.w3.org/1999/xlink" viewBox="0 0 453.5433 453.5433">
  <defs>
    <linearGradient id="n" data-name="keyhole" x1="179.8216" y1="284.8154" x2="302.0697" y2="73.0755" gradientUnits="userSpaceOnUse">
      <stop offset="0" stop-color="#ee7159"/>
      <stop offset=".85" stop-color="#e62e27"/>
    </linearGradient>
  </defs>
  <g id="d" data-name="white">
    <g id="f" data-name="shield">
      <path id="g" data-name="bg" d="M227.5447,377.4295c.0098.001.0201.0029.0299.0039,22.5-2.4,80-45.4,98.9-95.7,28.7-52.9,34.6-152.1,36.3-157.6s5.4-10,10-13.3c4.7-3.3,10.7-5,18.1-5h42.9c.0042.0129.0082.0262.0125.0392-3.1755-12.1116-12.0338-22.678-24.2125-27.7393L243.5746,8.7333c-4.2-1.7999-11.5299-3.2-16.0299-3.2h-.1608c-4.6.0001-11.6701,1.4001-15.8701,3.2002L45.6138,78.1334c-12.245,5.056-21.1113,15.6061-24.2982,27.7021l.0157-.0021h42.9826c7.4,0,13.4,1.7,18.1,5,4.7,3.4,8.4,7.8,10,13.3,1.7,5.5,7.7,104.7,36.3,157.6,18.8918,50.2782,76.1498,93.262,98.6701,95.6961h.1608Z" style="fill: #fff; isolation: isolate; opacity: .4;"/>
      <path id="h" data-name="bg-r" d="M326.3138,281.7335c28.7-52.9,34.6-152.1,36.3-157.6s5.4-10,10-13.3c4.7-3.3,10.7-5,18.1-5h42.9c.0042.0129.0082.0262.0125.0392-3.1755-12.1116-12.0338-22.678-24.2125-27.7393L243.4138,8.7333c-4.2-1.7999-11.5299-3.2-16.0299-3.2v371.8962c.0098.001.0201.0029.0299.0039,22.5-2.4,80-45.4,98.9-95.7Z" style="fill: #fff; isolation: isolate; opacity: .2;"/>
      <path id="i" data-name="v-shape" d="M227.4138,377.4335c22.5-2.4,80-45.4,98.9-95.7,28.7-52.9,34.6-152.1,36.3-157.6,1.7-5.5,5.4-10,10-13.3,4.7-3.3,10.7-5,18.1-5h42.9c1.7,5.2,2.4,11.5,1.5,30.1h0c-2.1,42.9-9.5,96-44.4,166.4-43.8,81.8-98,119.6-124.8,133.9-13.4,7-28,13.1-38.5,13.1h0c-10.5,0-24.9-6.1-38.3-13.1-26.9-14.3-81.1-52.2-124.8-133.9C29.5139,231.9334,22.0139,178.9334,19.9138,135.9334c-.8-18.6-.1-24.9,1.5-30.1h42.9c7.4,0,13.4,1.7,18.1,5,4.7,3.4,8.4,7.8,10,13.3,1.7,5.5,7.7,104.7,36.3,157.6,18.9,50.3,76.2,93.3,98.7,95.7h0Z" style="fill: #fff;"/>
    </g>
  </g>
  <g id="m" data-name="icon">
    <path d="M186.1728,179.9266c0,9.3348-7.5608,16.8956-16.8956,16.8956h-20.2747c-9.3306,0-16.8956-7.5608-16.8956-16.8956v-20.2747c0-9.3348,7.565-16.8956,16.8956-16.8956h20.2747c9.3348,0,16.8956,7.5608,16.8956,16.8956v20.2747ZM186.1728,247.5089c0,9.3348-7.5608,16.8956-16.8956,16.8956h-20.2747c-9.3306,0-16.8956-7.5608-16.8956-16.8956v-20.2747c0-9.3348,7.565-16.8956,16.8956-16.8956h20.2747c9.3348,0,16.8956,7.5608,16.8956,16.8956v20.2747ZM199.6893,159.652c0-9.3348,7.5608-16.8956,16.8956-16.8956h20.2747c9.3348,0,16.8956,7.5608,16.8956,16.8956v20.2747c0,9.3348-7.5608,16.8956-16.8956,16.8956h-20.2747c-9.3348,0-16.8956-7.5608-16.8956-16.8956v-20.2747ZM253.7551,247.5089c0,9.3348-7.5608,16.8956-16.8956,16.8956h-20.2747c-9.3348,0-16.8956-7.5608-16.8956-16.8956v-20.2747c0-9.3348,7.5608-16.8956,16.8956-16.8956h20.2747c9.3348,0,16.8956,7.5608,16.8956,16.8956v20.2747ZM267.2715,159.652c0-9.3348,7.5608-16.8956,16.8956-16.8956h20.2747c9.3348,0,16.8956,7.5608,16.8956,16.8956v20.2747c0,9.3348-7.5608,16.8956-16.8956,16.8956h-20.2747c-9.3348,0-16.8956-7.5608-16.8956-16.8956v-20.2747ZM321.3373,247.5089c0,9.3348-7.5608,16.8956-16.8956,16.8956h-20.2747c-9.3348,0-16.8956-7.5608-16.8956-16.8956v-20.2747c0-9.3348,7.5608-16.8956,16.8956-16.8956h20.2747c9.3348,0,16.8956,7.5608,16.8956,16.8956v20.2747ZM264.1343,71.2566c0,7.6749-2.4921,14.7626-6.8385,20.5114l21.3139,21.1787c2.0908,2.0908,2.0908,5.4657,0,7.5566s-5.4658,2.0908-7.5566,0l-21.1787-21.3139c-5.7488,4.3464-12.8407,6.8385-20.5114,6.8385-19.2062,0-34.7713-15.5652-34.7713-34.7713s15.5651-34.7713,34.7713-34.7713,34.7713,15.5651,34.7713,34.7713h0Z" style="fill: url(#n);"/>
    <path d="M245.8321,57.2121l-15.1934-6.3317c-.3886-.1605-1.0433-.2915-1.4573-.2915s-1.0771.1309-1.4657.2915l-15.1934,6.3317c-1.4192.5829-2.34,1.9683-2.34,3.434,0,20.4227,14.9696,30.4545,18.9189,30.4545s19.0626-10.1459,19.0626-30.4545c0-1.4657-.925-2.8511-2.3358-3.434h.0042ZM231.0779,71.037v5.508c0,1.0475-.849,1.9008-1.9008,1.9008s-1.9008-.849-1.9008-1.9008v-5.508c-1.4953-.7138-2.5301-2.2218-2.5301-3.9874,0-2.4456,1.9852-4.4309,4.4309-4.4309s4.4309,1.9852,4.4309,4.4309c0,1.7656-1.0349,3.2778-2.5301,3.9874Z" style="fill: #fff;"/>
  </g>
</svg>