<?xml version="1.0" encoding="UTF-8"?>
<svg xmlns="http://www.w3.org/2000/svg" width="160mm" height="160mm" xmlns:xlink="http://www.w3.org/1999/xlink" viewBox="0 0 453.54 453.54">
  <defs>
    <linearGradient id="o" data-name="keyhole" x1="122.64" y1="212.81" x2="300.05" y2="110.38" gradientUnits="userSpaceOnUse">
      <stop offset="0" stop-color="#ee7159"/>
      <stop offset=".85" stop-color="#e62e27"/>
    </linearGradient>
  </defs>
  <g id="h" data-name="color">
    <g id="j" data-name="shield">
      <path id="k" data-name="bg" d="M226.88,378.09s.02,0,.03,0c22.5-2.4,80-45.4,98.9-95.7,28.7-52.9,34.6-152.1,36.3-157.6s5.4-10,10-13.3c4.7-3.3,10.7-5,18.1-5h42.9s0,.03.01.04c-3.18-12.11-12.03-22.68-24.21-27.74L242.91,9.4c-4.2-1.8-11.53-3.2-16.03-3.2h-.16c-4.6,0-11.67,1.4-15.87,3.2L44.95,78.8c-12.25,5.06-21.11,15.61-24.3,27.7h.02s42.98,0,42.98,0c7.4,0,13.4,1.7,18.1,5,4.7,3.4,8.4,7.8,10,13.3,1.7,5.5,7.7,104.7,36.3,157.6,18.89,50.28,76.15,93.26,98.67,95.7h.16Z" fill="#0967ad" isolation="isolate" opacity=".4"/>
      <path id="l" data-name="bg-r" d="M325.65,282.4c28.7-52.9,34.6-152.1,36.3-157.6s5.4-10,10-13.3c4.7-3.3,10.7-5,18.1-5h42.9s0,.03.01.04c-3.18-12.11-12.03-22.68-24.21-27.74L242.75,9.4c-4.2-1.8-11.53-3.2-16.03-3.2v371.9s.02,0,.03,0c22.5-2.4,80-45.4,98.9-95.7Z" fill="#0967ad" isolation="isolate" opacity=".2"/>
      <path id="m" data-name="v-shape" d="M226.75,378.1c22.5-2.4,80-45.4,98.9-95.7,28.7-52.9,34.6-152.1,36.3-157.6,1.7-5.5,5.4-10,10-13.3,4.7-3.3,10.7-5,18.1-5h42.9c1.7,5.2,2.4,11.5,1.5,30.1h0c-2.1,42.9-9.5,96-44.4,166.4-43.8,81.8-98,119.6-124.8,133.9-13.4,7-28,13.1-38.5,13.1h0c-10.5,0-24.9-6.1-38.3-13.1-26.9-14.3-81.1-52.2-124.8-133.9C28.85,232.6,21.35,179.6,19.25,136.6c-.8-18.6-.1-24.9,1.5-30.1h42.9c7.4,0,13.4,1.7,18.1,5,4.7,3.4,8.4,7.8,10,13.3,1.7,5.5,7.7,104.7,36.3,157.6,18.9,50.3,76.2,93.3,98.7,95.7h0Z" fill="#0967ad"/>
    </g>
  </g>
  <g id="n" data-name="icon">
    <g>
      <path d="M308.27,76.35h-129.56c-6.51,0-11.78,5.27-11.78,11.78v135.45c0,9.75-7.91,17.67-17.67,17.67h147.23c13.01,0,23.56-10.55,23.56-23.56V88.12c0-6.5-5.26-11.78-11.78-11.78Z" fill="#fff" isolation="isolate"/>
      <path d="M131.59,111.68v111.9c0,9.75,7.91,17.67,17.67,17.67s17.67-7.91,17.67-17.67v-123.67h-23.56c-6.5,0-11.78,5.26-11.78,11.78ZM231.71,170.57h-35.34c-3.24,0-5.89,2.65-5.89,5.89s2.65,5.89,5.89,5.89h35.34c3.25,0,5.89-2.64,5.89-5.89s-2.65-5.89-5.89-5.89ZM255.27,182.35h35.34c3.25,0,5.89-2.64,5.89-5.89s-2.65-5.89-5.89-5.89h-35.34c-3.24,0-5.89,2.65-5.89,5.89s2.65,5.89,5.89,5.89ZM231.71,205.91h-35.34c-3.24,0-5.89,2.65-5.89,5.89s2.65,5.89,5.89,5.89h35.34c3.25,0,5.89-2.64,5.89-5.89s-2.65-5.89-5.89-5.89ZM290.6,205.91h-35.34c-3.25,0-5.89,2.64-5.89,5.89s2.64,5.89,5.89,5.89h35.34c3.25,0,5.89-2.64,5.89-5.89s-2.65-5.89-5.89-5.89ZM255.27,111.68h35.34c3.25,0,5.89-2.64,5.89-5.89s-2.65-5.89-5.89-5.89h-35.34c-3.24,0-5.89,2.65-5.89,5.89s2.65,5.89,5.89,5.89ZM290.6,135.24h-35.34c-3.25,0-5.89,2.64-5.89,5.89s2.64,5.89,5.89,5.89h35.34c3.25,0,5.89-2.64,5.89-5.89s-2.65-5.89-5.89-5.89ZM234.65,141.13c0,3.24-1.1,5.89-2.45,5.89h-39.26c-1.35,0-2.45-2.65-2.45-5.89v-35.34c0-3.24,1.1-5.89,2.45-5.89h39.26c1.35,0,2.45,2.65,2.45,5.89v35.34Z" fill="url(#o)"/>
    </g>
  </g>
</svg>