<?xml version="1.0" encoding="UTF-8"?>
<svg xmlns="http://www.w3.org/2000/svg" width="160mm" height="160mm" xmlns:xlink="http://www.w3.org/1999/xlink" viewBox="0 0 453.54 453.54">
  <defs>
    <linearGradient id="n" data-name="Unbenannter Verlauf 36" x1="119.74" y1="215.24" x2="335.36" y2="90.75" gradientUnits="userSpaceOnUse">
      <stop offset="0" stop-color="#ee7159"/>
      <stop offset=".39" stop-color="#e62e27"/>
    </linearGradient>
  </defs>
  <g id="d" data-name="white">
    <g id="f" data-name="shield">
      <path id="g" data-name="bg" d="M227.54,377.43s.02,0,.03,0c22.5-2.4,80-45.4,98.9-95.7,28.7-52.9,34.6-152.1,36.3-157.6s5.4-10,10-13.3c4.7-3.3,10.7-5,18.1-5h42.9s0,.03.01.04c-3.18-12.11-12.03-22.68-24.21-27.74L243.57,8.73c-4.2-1.8-11.53-3.2-16.03-3.2h-.16c-4.6,0-11.67,1.4-15.87,3.2L45.61,78.13c-12.25,5.06-21.11,15.61-24.3,27.7h.02s42.98,0,42.98,0c7.4,0,13.4,1.7,18.1,5,4.7,3.4,8.4,7.8,10,13.3,1.7,5.5,7.7,104.7,36.3,157.6,18.89,50.28,76.15,93.26,98.67,95.7h.16Z" fill="#fff" isolation="isolate" opacity=".4" stroke-width="0"/>
      <path id="h" data-name="bg-r" d="M326.31,281.73c28.7-52.9,34.6-152.1,36.3-157.6s5.4-10,10-13.3c4.7-3.3,10.7-5,18.1-5h42.9s0,.03.01.04c-3.18-12.11-12.03-22.68-24.21-27.74L243.41,8.73c-4.2-1.8-11.53-3.2-16.03-3.2v371.9s.02,0,.03,0c22.5-2.4,80-45.4,98.9-95.7Z" fill="#fff" isolation="isolate" opacity=".2" stroke-width="0"/>
      <path id="i" data-name="v-shape" d="M227.41,377.43c22.5-2.4,80-45.4,98.9-95.7,28.7-52.9,34.6-152.1,36.3-157.6,1.7-5.5,5.4-10,10-13.3,4.7-3.3,10.7-5,18.1-5h42.9c1.7,5.2,2.4,11.5,1.5,30.1h0c-2.1,42.9-9.5,96-44.4,166.4-43.8,81.8-98,119.6-124.8,133.9-13.4,7-28,13.1-38.5,13.1h0c-10.5,0-24.9-6.1-38.3-13.1-26.9-14.3-81.1-52.2-124.8-133.9C29.51,231.93,22.01,178.93,19.91,135.93c-.8-18.6-.1-24.9,1.5-30.1h42.9c7.4,0,13.4,1.7,18.1,5,4.7,3.4,8.4,7.8,10,13.3,1.7,5.5,7.7,104.7,36.3,157.6,18.9,50.3,76.2,93.3,98.7,95.7h0Z" fill="#fff" stroke-width="0"/>
    </g>
  </g>
  <g id="m" data-name="icon">
    <g>
      <path d="M304.58,63.13c14.16,0,25.68,11.49,25.68,25.68v128.39c0,14.16-11.51,25.68-25.68,25.68h-154.07c-14.18,0-25.68-11.51-25.68-25.68V88.81c0-14.18,11.49-25.68,25.68-25.68h154.07ZM304.58,114.49h-154.07v102.71h154.07v-102.71Z" fill="url(#n)" stroke-width="0"/>
      <path d="M182.62,197.94c-10.63,0-19.26-8.63-19.26-19.26v-64.19h12.84v25.68c0,3.53,2.89,6.42,6.42,6.42h12.84c3.53,0,6.42,2.89,6.42,6.42s-2.89,6.42-6.42,6.42h-12.84c-2.25,0-4.41-.4-6.42-1.08v20.34c0,3.53,2.89,6.42,6.42,6.42h38.52c3.53,0,6.42,2.89,6.42,6.42s-2.89,6.42-6.42,6.42h-38.52ZM285.33,140.16c3.53,0,6.42,2.89,6.42,6.42v12.84c0,3.53-2.89,6.42-6.42,6.42h-64.19c-3.53,0-6.42-2.89-6.42-6.42v-12.84c0-3.53,2.89-6.42,6.42-6.42h64.19ZM285.33,178.68c3.53,0,6.42,2.89,6.42,6.42v12.84c0,3.53-2.89,6.42-6.42,6.42h-38.52c-3.53,0-6.42-2.89-6.42-6.42v-12.84c0-3.53,2.89-6.42,6.42-6.42h38.52Z" fill="#fff" stroke-width="0"/>
    </g>
  </g>
</svg>