<?xml version="1.0" encoding="UTF-8"?>
<svg xmlns="http://www.w3.org/2000/svg" width="160mm" height="160mm" xmlns:xlink="http://www.w3.org/1999/xlink" viewBox="0 0 453.54 453.54">
  <defs>
    <linearGradient id="n" data-name="Unbenannter Verlauf 44" x1="112.91" y1="191.82" x2="257.55" y2="108.31" gradientUnits="userSpaceOnUse">
      <stop offset="0" stop-color="#ee7159"/>
      <stop offset=".42" stop-color="#e62e27"/>
    </linearGradient>
  </defs>
  <g id="g" data-name="color">
    <g id="i" data-name="shield">
      <path id="j" data-name="bg" d="M226.88,378.09s.02,0,.03,0c22.5-2.4,80-45.4,98.9-95.7,28.7-52.9,34.6-152.1,36.3-157.6s5.4-10,10-13.3c4.7-3.3,10.7-5,18.1-5h42.9s0,.03.01.04c-3.18-12.11-12.03-22.68-24.21-27.74L242.91,9.4c-4.2-1.8-11.53-3.2-16.03-3.2h-.16c-4.6,0-11.67,1.4-15.87,3.2L44.95,78.8c-12.25,5.06-21.11,15.61-24.3,27.7h.02s42.98,0,42.98,0c7.4,0,13.4,1.7,18.1,5,4.7,3.4,8.4,7.8,10,13.3,1.7,5.5,7.7,104.7,36.3,157.6,18.89,50.28,76.15,93.26,98.67,95.7h.16Z" fill="#0967ad" isolation="isolate" opacity=".4" stroke-width="0"/>
      <path id="k" data-name="bg-r" d="M325.65,282.4c28.7-52.9,34.6-152.1,36.3-157.6s5.4-10,10-13.3c4.7-3.3,10.7-5,18.1-5h42.9s0,.03.01.04c-3.18-12.11-12.03-22.68-24.21-27.74L242.75,9.4c-4.2-1.8-11.53-3.2-16.03-3.2v371.9s.02,0,.03,0c22.5-2.4,80-45.4,98.9-95.7Z" fill="#0967ad" isolation="isolate" opacity=".2" stroke-width="0"/>
      <path id="l" data-name="v-shape" d="M226.75,378.1c22.5-2.4,80-45.4,98.9-95.7,28.7-52.9,34.6-152.1,36.3-157.6,1.7-5.5,5.4-10,10-13.3,4.7-3.3,10.7-5,18.1-5h42.9c1.7,5.2,2.4,11.5,1.5,30.1h0c-2.1,42.9-9.5,96-44.4,166.4-43.8,81.8-98,119.6-124.8,133.9-13.4,7-28,13.1-38.5,13.1h0c-10.5,0-24.9-6.1-38.3-13.1-26.9-14.3-81.1-52.2-124.8-133.9C28.85,232.6,21.35,179.6,19.25,136.6c-.8-18.6-.1-24.9,1.5-30.1h42.9c7.4,0,13.4,1.7,18.1,5,4.7,3.4,8.4,7.8,10,13.3,1.7,5.5,7.7,104.7,36.3,157.6,18.9,50.3,76.2,93.3,98.7,95.7h0Z" fill="#0967ad" stroke-width="0"/>
    </g>
  </g>
  <g id="m" data-name="icon">
    <g>
      <path d="M244.57,218.74c14.17,0,25.66-11.49,25.66-25.66s-11.48-25.66-25.66-25.66-25.66,11.49-25.66,25.66,11.48,25.66,25.66,25.66ZM254.73,228.36h-20.32c-19.19,0-34.73,15.55-34.73,34.73,0,3.85,3.11,6.95,6.95,6.95h75.89c3.85,0,6.95-3.11,6.95-6.95,0-19.18-15.55-34.73-34.73-34.73Z" fill="#fff" stroke-width="0"/>
      <path d="M295.7,231.56h-14.8c9.21,7.56,14.98,18.86,14.98,31.53,0,2.57-.76,4.93-2,6.95h27.66c3.55,0,6.41-2.89,6.41-6.59,0-17.54-14.35-31.89-32.25-31.89ZM286.26,218.74c12.41,0,22.45-10.04,22.45-22.45s-10.04-22.45-22.45-22.45c-5.03,0-9.63,1.71-13.37,4.51,2.31,4.43,3.75,9.4,3.75,14.73,0,7.12-2.39,13.66-6.33,18.98,4.07,4.11,9.7,6.67,15.95,6.67Z" fill="#fff" stroke-width="0"/>
      <g>
        <path d="M190.17,169.8h-39.46c-2.73,0-4.93,2.22-4.93,4.93s2.21,4.93,4.93,4.93h39.46c2.72,0,4.93-2.21,4.93-4.93s-2.22-4.93-4.93-4.93Z" fill="#fff" stroke-width="0"/>
        <path d="M150.7,150.07h69.06c2.71,0,4.93-2.22,4.93-4.93s-2.22-4.93-4.93-4.93h-69.06c-2.73,0-4.93,2.22-4.93,4.93s2.21,4.93,4.93,4.93Z" fill="#fff" stroke-width="0"/>
        <path d="M150.7,120.47h69.06c2.71,0,4.93-2.22,4.93-4.93s-2.22-4.93-4.93-4.93h-69.06c-2.73,0-4.93,2.22-4.93,4.93s2.21,4.93,4.93,4.93Z" fill="#fff" stroke-width="0"/>
        <path d="M213.47,192.65c0-15.7,12.73-28.43,28.43-28.43.85,0,1.69.04,2.53.12v-73.46c0-10.9-8.85-19.73-19.73-19.73h-78.93c-10.9,0-19.73,8.83-19.73,19.73v118.39c0,10.9,8.83,19.73,19.73,19.73h78.93c6.47,0,12.2-3.13,15.8-7.95-15.05-.73-27.03-13.17-27.03-28.4ZM150.7,110.61h69.06c2.71,0,4.93,2.22,4.93,4.93s-2.22,4.93-4.93,4.93h-69.06c-2.73,0-4.93-2.22-4.93-4.93s2.21-4.93,4.93-4.93ZM150.7,140.2h69.06c2.71,0,4.93,2.22,4.93,4.93s-2.22,4.93-4.93,4.93h-69.06c-2.73,0-4.93-2.22-4.93-4.93s2.21-4.93,4.93-4.93ZM190.17,179.67h-39.46c-2.73,0-4.93-2.22-4.93-4.93s2.21-4.93,4.93-4.93h39.46c2.72,0,4.93,2.21,4.93,4.93s-2.22,4.93-4.93,4.93Z" fill="url(#n)" stroke-width="0"/>
      </g>
    </g>
  </g>
</svg>