<?xml version="1.0" encoding="UTF-8"?>
<svg id="Ebene_1" xmlns="http://www.w3.org/2000/svg" xmlns:xlink="http://www.w3.org/1999/xlink" version="1.1" viewBox="0 0 453.5 453.5">
  <!-- Generator: Adobe Illustrator 30.1.0, SVG Export Plug-In . SVG Version: 2.1.1 Build 136)  -->
  <defs>
    <style>
      .st0 {
        fill: url(#Unbenannter_Verlauf);
      }

      .st1, .st2, .st3 {
        fill: #fff;
      }

      .st2 {
        opacity: .2;
      }

      .st2, .st3 {
        isolation: isolate;
      }

      .st3 {
        opacity: .4;
      }
    </style>
    <linearGradient id="Unbenannter_Verlauf" data-name="Unbenannter Verlauf" x1="199" y1="221" x2="252.2" y2="313.2" gradientTransform="translate(0 454) scale(1 -1)" gradientUnits="userSpaceOnUse">
      <stop offset="0" stop-color="#ee7159"/>
      <stop offset=".8" stop-color="#e62e27"/>
    </linearGradient>
  </defs>
  <g id="f">
    <g id="h">
      <path id="i" class="st3" d="M227.5,377.4s0,0,0,0c22.5-2.4,80-45.4,98.9-95.7,28.7-52.9,34.6-152.1,36.3-157.6s5.4-10,10-13.3c4.7-3.3,10.7-5,18.1-5h42.9s0,0,0,0c-3.2-12.1-12-22.7-24.2-27.7L243.6,8.7c-4.2-1.8-11.5-3.2-16-3.2h-.2c-4.6,0-11.7,1.4-15.9,3.2L45.6,78.1c-12.2,5.1-21.1,15.6-24.3,27.7h0s43,0,43,0c7.4,0,13.4,1.7,18.1,5,4.7,3.4,8.4,7.8,10,13.3,1.7,5.5,7.7,104.7,36.3,157.6,18.9,50.3,76.1,93.3,98.7,95.7h.2,0Z"/>
      <path id="j" class="st2" d="M326.3,281.7c28.7-52.9,34.6-152.1,36.3-157.6s5.4-10,10-13.3c4.7-3.3,10.7-5,18.1-5h42.9s0,0,0,0c-3.2-12.1-12-22.7-24.2-27.7L243.4,8.7c-4.2-1.8-11.5-3.2-16-3.2v371.9s0,0,0,0c22.5-2.4,80-45.4,98.9-95.7h0Z"/>
      <path id="k" class="st1" d="M227.4,377.4c22.5-2.4,80-45.4,98.9-95.7,28.7-52.9,34.6-152.1,36.3-157.6,1.7-5.5,5.4-10,10-13.3,4.7-3.3,10.7-5,18.1-5h42.9c1.7,5.2,2.4,11.5,1.5,30.1h0c-2.1,42.9-9.5,96-44.4,166.4-43.8,81.8-98,119.6-124.8,133.9-13.4,7-28,13.1-38.5,13.1h0c-10.5,0-24.9-6.1-38.3-13.1-26.9-14.3-81.1-52.2-124.8-133.9C29.5,231.9,22,178.9,19.9,135.9c-.8-18.6-.1-24.9,1.5-30.1h42.9c7.4,0,13.4,1.7,18.1,5,4.7,3.4,8.4,7.8,10,13.3,1.7,5.5,7.7,104.7,36.3,157.6,18.9,50.3,76.2,93.3,98.7,95.7h0Z"/>
    </g>
  </g>
  <g id="o">
    <g>
      <path class="st0" d="M141.9,163.5c0-2.1-.4-3.8-1.2-5.1-.8-1.3-2.3-1.9-4.4-1.9v-9.1c1,0,1.9-.2,2.6-.5.7-.3,1.3-.8,1.7-1.4.4-.6.7-1.3.9-2.2.2-.9.3-1.8.3-2.8,0-1.5,0-3.1-.3-4.7-.2-1.6-.4-3.1-.7-4.7-.2-1.6-.5-3.2-.7-4.8-.2-1.6-.3-3.2-.3-4.8,0-2.8.4-5.4,1.2-7.7.8-2.3,2.1-4.3,3.8-6,1.7-1.6,3.9-2.9,6.6-3.8,2.7-.9,5.8-1.3,9.5-1.3h2.7v7c0,.6-.1,1-.4,1.4-.2.4-.5.7-.9.9-.3.2-.7.4-1.1.6-.4.1-.7.2-1,.2-2.2,0-3.8.7-4.9,2-1,1.4-1.5,3.3-1.5,5.7s0,3.7.2,5.5c.2,1.7.3,3.4.5,5,.2,1.6.3,3.2.5,4.7.2,1.5.2,3.1.2,4.7s-.2,2.6-.5,3.8c-.3,1.2-.9,2.4-1.6,3.4-.7,1-1.6,1.9-2.6,2.7-1,.8-2.3,1.4-3.6,1.8,1.4.4,2.6,1,3.6,1.8,1,.8,1.9,1.7,2.6,2.7.7,1,1.2,2.2,1.6,3.4.3,1.2.5,2.5.5,3.8s0,3.1-.2,4.7c-.2,1.5-.3,3.1-.5,4.7-.2,1.6-.3,3.2-.5,5-.2,1.7-.2,3.5-.2,5.5s.5,4.3,1.5,5.7c1,1.4,2.6,2,4.9,2s.6,0,1,.2c.4.1.8.3,1.1.6.3.2.6.6.9.9.2.4.4.9.4,1.4v7h-2.7c-3.7,0-6.9-.4-9.5-1.3-2.7-.9-4.9-2.2-6.6-3.8-1.7-1.7-3-3.6-3.8-6-.8-2.3-1.2-4.9-1.2-7.7s0-3.2.3-4.8c.2-1.6.4-3.2.7-4.8.2-1.6.5-3.1.7-4.7.2-1.6.3-3.1.3-4.7h0ZM311.5,229.4c0,1.5,0,3.1.3,4.7.2,1.6.4,3.1.7,4.7.2,1.6.5,3.2.7,4.8.2,1.6.3,3.2.3,4.8,0,2.8-.4,5.4-1.2,7.7-.8,2.3-2.1,4.3-3.8,6-1.7,1.7-3.9,2.9-6.6,3.8-2.7.9-5.8,1.3-9.5,1.3h-2.7v-7c0-.6.1-1,.4-1.4.2-.4.5-.7.9-.9.3-.2.7-.4,1.1-.6.4-.1.7-.2,1-.2,2.2,0,3.8-.7,4.9-2,1-1.4,1.5-3.3,1.5-5.7s0-3.7-.2-5.5c-.2-1.7-.3-3.4-.5-5-.2-1.6-.3-3.2-.5-4.7-.2-1.5-.2-3.1-.2-4.7s.2-2.6.5-3.8c.3-1.2.9-2.4,1.6-3.4.7-1,1.6-1.9,2.6-2.7,1-.8,2.2-1.4,3.6-1.8-1.4-.4-2.6-1-3.6-1.8-1-.8-1.9-1.7-2.6-2.7-.7-1-1.3-2.2-1.6-3.4-.3-1.2-.5-2.5-.5-3.8s0-3.1.2-4.7c.2-1.5.3-3.1.5-4.7.2-1.6.3-3.2.5-5,.2-1.7.2-3.5.2-5.5s-.5-4.3-1.5-5.7c-1-1.4-2.6-2-4.9-2s-.6,0-1-.2c-.4-.1-.8-.3-1.1-.6-.3-.2-.6-.6-.9-.9-.2-.4-.4-.9-.4-1.4v-7h2.7c3.7,0,6.9.4,9.5,1.3,2.7.9,4.9,2.2,6.6,3.8,1.7,1.6,3,3.6,3.8,6,.8,2.3,1.2,4.9,1.2,7.7s0,3.2-.3,4.8c-.2,1.6-.4,3.2-.7,4.8-.2,1.6-.5,3.1-.7,4.7-.2,1.6-.3,3.1-.3,4.7s0,1.9.3,2.8c.2.9.5,1.6.9,2.2.4.6,1,1.1,1.7,1.4.7.3,1.6.5,2.6.5v9.1c-2.1,0-3.5.6-4.4,1.9-.8,1.3-1.2,3-1.2,5.1h0ZM183.5,179.5c0-6,4.9-10.9,10.9-10.9h10.9v21.8c0,9,7.2,16.4,16.4,16.4h21.8v10.9c0,6-4.9,10.9-10.9,10.9h-38.2c-6,0-10.9-4.9-10.9-10.9v-38.2h0Z"/>
      <path class="st1" d="M210.8,152.2c0-6,4.9-10.9,10.9-10.9h38.2c6,0,10.9,4.9,10.9,10.9v38.2c0,6-4.9,10.9-10.9,10.9h-38.2c-6,0-10.9-4.9-10.9-10.9v-38.2h0Z"/>
    </g>
  </g>
</svg>