<?xml version="1.0" encoding="UTF-8"?>
<svg id="d" data-name="white" xmlns="http://www.w3.org/2000/svg" width="850mm" height="180mm" xmlns:xlink="http://www.w3.org/1999/xlink" viewBox="0 0 2409.45 510.24">
  <defs>
    <linearGradient id="j" data-name="font-red" x1="1138.58" y1="614.56" x2="2255.3" y2="-30.18" gradientUnits="userSpaceOnUse">
      <stop offset="0" stop-color="#ee7159"/>
      <stop offset=".3" stop-color="#e62e27"/>
    </linearGradient>
    <linearGradient id="l" data-name="keyhole" x1="419.67" y1="188.62" x2="524.74" y2="249.28" gradientUnits="userSpaceOnUse">
      <stop offset="0" stop-color="#ee7159"/>
      <stop offset=".85" stop-color="#e62e27"/>
    </linearGradient>
  </defs>
  <g id="e" data-name="logo-shield">
    <path id="f" data-name="bg" d="M477.45,377.43s.02,0,.03,0c22.5-2.4,80-45.4,98.9-95.7,28.7-52.9,34.6-152.1,36.3-157.6s5.4-10,10-13.3c4.7-3.3,10.7-5,18.1-5h42.9s0,.03.01.04c-3.18-12.11-12.03-22.68-24.21-27.74L493.48,8.73c-4.2-1.8-11.53-3.2-16.03-3.2h-.16c-4.6,0-11.67,1.4-15.87,3.2l-165.9,69.4c-12.25,5.06-21.11,15.61-24.3,27.7h.02s42.98,0,42.98,0c7.4,0,13.4,1.7,18.1,5,4.7,3.4,8.4,7.8,10,13.3,1.7,5.5,7.7,104.7,36.3,157.6,18.89,50.28,76.15,93.26,98.67,95.7h.16Z" fill="#fff" isolation="isolate" opacity=".4" stroke-width="0"/>
    <path id="g" data-name="bg-r" d="M576.21,281.73c28.7-52.9,34.6-152.1,36.3-157.6s5.4-10,10-13.3c4.7-3.3,10.7-5,18.1-5h42.9s0,.03.01.04c-3.18-12.11-12.03-22.68-24.21-27.74L493.31,8.73c-4.2-1.8-11.53-3.2-16.03-3.2v371.9s.02,0,.03,0c22.5-2.4,80-45.4,98.9-95.7Z" fill="#fff" isolation="isolate" opacity=".2" stroke-width="0"/>
    <path id="h" data-name="v-shape" d="M477.31,377.43c22.5-2.4,80-45.4,98.9-95.7,28.7-52.9,34.6-152.1,36.3-157.6,1.7-5.5,5.4-10,10-13.3,4.7-3.3,10.7-5,18.1-5h42.9c1.7,5.2,2.4,11.5,1.5,30.1h0c-2.1,42.9-9.5,96-44.4,166.4-43.8,81.8-98,119.6-124.8,133.9-13.4,7-28,13.1-38.5,13.1h0c-10.5,0-24.9-6.1-38.3-13.1-26.9-14.3-81.1-52.2-124.8-133.9-34.8-70.4-42.3-123.4-44.4-166.4-.8-18.6-.1-24.9,1.5-30.1h42.9c7.4,0,13.4,1.7,18.1,5,4.7,3.4,8.4,7.8,10,13.3,1.7,5.5,7.7,104.7,36.3,157.6,18.9,50.3,76.2,93.3,98.7,95.7h0Z" fill="#fff" stroke-width="0"/>
  </g>
  <path d="M1158.68,422.43c-4.07,0-7.47-.91-10.21-2.74-2.74-1.82-4.67-4.56-5.79-8.21l-5.05-16.63c-4.35,4.63-8.91,8.84-13.68,12.63-4.77,3.79-9.93,7.05-15.47,9.79-5.55,2.74-11.51,4.84-17.89,6.32-6.39,1.47-13.3,2.21-20.74,2.21-11.37,0-21.89-2.53-31.58-7.58-9.68-5.05-18.04-12.35-25.05-21.89-7.02-9.54-12.53-21.23-16.53-35.05-4-13.82-6-29.58-6-47.26,0-16.28,2.24-31.4,6.74-45.37,4.49-13.96,10.84-26.03,19.05-36.21,8.21-10.17,18.07-18.14,29.58-23.89,11.51-5.75,24.21-8.63,38.1-8.63,11.23,0,20.74,1.65,28.52,4.95,7.79,3.3,14.84,7.61,21.16,12.95v-110.52h65.26v315.14h-40.42ZM1092.58,375.7c4.77,0,9.08-.45,12.95-1.37,3.86-.91,7.4-2.21,10.63-3.89,3.23-1.68,6.28-3.79,9.16-6.32,2.88-2.53,5.72-5.47,8.53-8.84v-92.63c-5.05-5.47-10.42-9.3-16.1-11.47-5.68-2.17-11.68-3.26-18-3.26s-11.58,1.19-16.63,3.58c-5.05,2.39-9.44,6.21-13.16,11.47-3.72,5.26-6.63,12.1-8.74,20.53-2.11,8.42-3.16,18.6-3.16,30.52s.84,21.19,2.53,29.05c1.68,7.86,4.03,14.21,7.05,19.05,3.02,4.84,6.63,8.32,10.84,10.42,4.21,2.11,8.91,3.16,14.1,3.16ZM1343.09,200.76c14.45,0,27.68,2.25,39.68,6.74,12,4.49,22.32,11.02,30.95,19.58,8.63,8.56,15.37,19.05,20.21,31.47,4.84,12.42,7.26,26.49,7.26,42.21,0,4.92-.21,8.91-.63,12-.42,3.09-1.19,5.55-2.32,7.37-1.12,1.83-2.63,3.09-4.53,3.79-1.89.7-4.32,1.05-7.26,1.05h-125.89c2.11,18.25,7.65,31.47,16.63,39.68,8.98,8.21,20.56,12.32,34.74,12.32,7.58,0,14.1-.91,19.58-2.74,5.47-1.82,10.35-3.86,14.63-6.11,4.28-2.24,8.21-4.28,11.79-6.1,3.58-1.82,7.33-2.74,11.26-2.74,5.19,0,9.12,1.9,11.79,5.68l18.95,23.37c-6.74,7.72-14,14-21.79,18.84s-15.79,8.63-24,11.37-16.42,4.63-24.63,5.68c-8.21,1.05-16.04,1.58-23.47,1.58-15.3,0-29.65-2.49-43.05-7.47-13.4-4.98-25.12-12.38-35.16-22.21-10.04-9.82-17.97-22.03-23.79-36.63-5.83-14.59-8.74-31.58-8.74-50.95,0-14.59,2.49-28.42,7.47-41.47,4.98-13.05,12.14-24.49,21.47-34.31,9.33-9.82,20.63-17.61,33.89-23.37,13.26-5.75,28.24-8.63,44.95-8.63ZM1344.35,245.81c-12.49,0-22.25,3.55-29.26,10.63-7.02,7.09-11.65,17.3-13.89,30.63h81.47c0-5.19-.67-10.24-2-15.16-1.34-4.91-3.51-9.3-6.53-13.16-3.02-3.86-6.98-6.98-11.89-9.37-4.91-2.38-10.88-3.58-17.89-3.58ZM1591.07,422.43h-59.37l-84.63-218.31h54.31c4.63,0,8.53,1.09,11.68,3.26,3.16,2.18,5.3,4.88,6.42,8.1l30.31,97.89c2.38,8,4.66,15.79,6.84,23.37,2.17,7.58,4.03,15.16,5.58,22.74,1.54-7.58,3.44-15.16,5.68-22.74,2.24-7.58,4.63-15.37,7.16-23.37l31.58-97.89c1.12-3.23,3.23-5.93,6.32-8.1,3.08-2.17,6.74-3.26,10.95-3.26h51.79l-84.63,218.31ZM1778.01,144.34c0,5.19-1.05,10.07-3.16,14.63-2.11,4.56-4.98,8.56-8.63,12-3.65,3.44-7.89,6.18-12.74,8.21-4.84,2.04-10,3.05-15.47,3.05s-10.32-1.02-14.95-3.05c-4.63-2.03-8.74-4.77-12.32-8.21-3.58-3.44-6.39-7.44-8.42-12-2.04-4.56-3.05-9.44-3.05-14.63s1.02-10.32,3.05-14.95c2.03-4.63,4.84-8.7,8.42-12.21,3.58-3.51,7.68-6.24,12.32-8.21,4.63-1.96,9.61-2.95,14.95-2.95s10.63.98,15.47,2.95c4.84,1.97,9.08,4.7,12.74,8.21,3.65,3.51,6.53,7.58,8.63,12.21,2.11,4.63,3.16,9.62,3.16,14.95ZM1770.43,204.13v218.31h-65.26v-218.31h65.26ZM1980.52,255.92c-1.97,2.39-3.86,4.28-5.68,5.68-1.83,1.4-4.42,2.1-7.79,2.1s-6.14-.77-8.74-2.32c-2.6-1.54-5.51-3.26-8.74-5.16-3.23-1.89-7.02-3.61-11.37-5.16-4.35-1.54-9.76-2.32-16.21-2.32-8,0-14.91,1.47-20.74,4.42-5.83,2.95-10.63,7.16-14.42,12.63-3.79,5.47-6.6,12.18-8.42,20.1-1.83,7.93-2.74,16.88-2.74,26.84,0,20.91,4.03,36.98,12.11,48.21,8.07,11.23,19.19,16.84,33.37,16.84,7.58,0,13.58-.95,18-2.84s8.17-4,11.26-6.32c3.09-2.32,5.93-4.45,8.53-6.42,2.59-1.96,5.86-2.95,9.79-2.95,5.19,0,9.12,1.9,11.79,5.68l18.95,23.37c-6.74,7.72-13.83,14-21.26,18.84-7.44,4.84-15.05,8.63-22.84,11.37s-15.61,4.63-23.47,5.68c-7.86,1.05-15.51,1.58-22.95,1.58-13.33,0-26.07-2.53-38.21-7.58-12.14-5.05-22.81-12.38-32-22-9.19-9.61-16.49-21.44-21.89-35.47-5.4-14.03-8.1-30.03-8.1-48,0-15.72,2.35-30.42,7.05-44.1,4.7-13.68,11.65-25.54,20.84-35.58,9.19-10.03,20.56-17.93,34.1-23.68,13.54-5.75,29.23-8.63,47.05-8.63s32.14,2.74,45.05,8.21c12.91,5.47,24.56,13.47,34.95,24l-17.26,22.95ZM2121.14,200.76c14.45,0,27.68,2.25,39.68,6.74,12,4.49,22.32,11.02,30.95,19.58,8.63,8.56,15.37,19.05,20.21,31.47,4.84,12.42,7.26,26.49,7.26,42.21,0,4.92-.21,8.91-.63,12-.42,3.09-1.19,5.55-2.32,7.37-1.12,1.83-2.63,3.09-4.53,3.79-1.89.7-4.32,1.05-7.26,1.05h-125.89c2.1,18.25,7.65,31.47,16.63,39.68,8.98,8.21,20.56,12.32,34.74,12.32,7.58,0,14.1-.91,19.58-2.74,5.47-1.82,10.35-3.86,14.63-6.11,4.28-2.24,8.21-4.28,11.79-6.1,3.58-1.82,7.33-2.74,11.26-2.74,5.19,0,9.12,1.9,11.79,5.68l18.95,23.37c-6.74,7.72-14,14-21.79,18.84s-15.79,8.63-24,11.37-16.42,4.63-24.63,5.68c-8.21,1.05-16.04,1.58-23.47,1.58-15.3,0-29.65-2.49-43.05-7.47-13.4-4.98-25.12-12.38-35.16-22.21-10.04-9.82-17.97-22.03-23.79-36.63-5.83-14.59-8.74-31.58-8.74-50.95,0-14.59,2.49-28.42,7.47-41.47,4.98-13.05,12.14-24.49,21.47-34.31,9.33-9.82,20.63-17.61,33.89-23.37,13.26-5.75,28.24-8.63,44.95-8.63ZM2122.41,245.81c-12.49,0-22.25,3.55-29.26,10.63-7.02,7.09-11.65,17.3-13.89,30.63h81.47c0-5.19-.67-10.24-2-15.16-1.34-4.91-3.51-9.3-6.53-13.16-3.02-3.86-6.98-6.98-11.89-9.37-4.91-2.38-10.88-3.58-17.89-3.58ZM2390.18,251.92c-1.68,2.67-3.47,4.56-5.37,5.68-1.89,1.12-4.32,1.68-7.26,1.68s-6.18-.66-9.26-2c-3.09-1.33-6.42-2.77-10-4.32-3.58-1.54-7.61-2.98-12.1-4.32-4.49-1.33-9.62-2-15.37-2-8.28,0-14.63,1.58-19.05,4.74-4.42,3.16-6.63,7.54-6.63,13.16,0,4.07,1.44,7.44,4.32,10.1,2.88,2.67,6.7,5.02,11.47,7.05,4.77,2.04,10.17,3.97,16.21,5.79,6.03,1.83,12.21,3.86,18.53,6.1,6.32,2.25,12.49,4.88,18.53,7.89,6.03,3.02,11.44,6.74,16.21,11.16,4.77,4.42,8.59,9.79,11.47,16.1,2.88,6.32,4.32,13.89,4.32,22.74,0,10.81-1.97,20.77-5.89,29.89-3.93,9.12-9.79,16.98-17.58,23.58-7.79,6.6-17.4,11.72-28.84,15.37-11.44,3.65-24.6,5.47-39.47,5.47-7.44,0-14.88-.7-22.31-2.11-7.44-1.4-14.63-3.3-21.58-5.68-6.95-2.38-13.37-5.23-19.26-8.53-5.89-3.3-10.95-6.84-15.16-10.63l15.16-24c1.82-2.81,4-5.02,6.53-6.63,2.53-1.61,5.82-2.42,9.89-2.42,3.79,0,7.19.84,10.21,2.53,3.02,1.68,6.28,3.51,9.79,5.47,3.51,1.97,7.61,3.79,12.32,5.47,4.7,1.68,10.63,2.53,17.79,2.53,5.05,0,9.33-.53,12.84-1.58,3.51-1.05,6.32-2.49,8.42-4.32,2.1-1.82,3.65-3.86,4.63-6.1.98-2.24,1.47-4.56,1.47-6.95,0-4.35-1.47-7.93-4.42-10.74-2.95-2.81-6.81-5.23-11.58-7.26-4.77-2.03-10.21-3.93-16.32-5.68-6.1-1.75-12.32-3.75-18.63-6-6.32-2.24-12.53-4.95-18.63-8.1-6.11-3.16-11.55-7.16-16.32-12-4.77-4.84-8.63-10.77-11.58-17.79-2.95-7.02-4.42-15.51-4.42-25.47,0-9.26,1.79-18.07,5.37-26.42,3.58-8.35,8.95-15.68,16.1-22,7.16-6.32,16.14-11.33,26.95-15.05,10.8-3.72,23.44-5.58,37.89-5.58,7.86,0,15.47.7,22.84,2.11,7.37,1.4,14.28,3.37,20.74,5.89,6.45,2.53,12.35,5.51,17.68,8.95,5.33,3.44,10.03,7.19,14.1,11.26l-14.74,22.95Z" fill="url(#j)" stroke-width="0"/>
  <g id="k" data-name="logo-icon">
    <path id="m" data-name="keyhole" d="M477.2,137.33c-26.7,0-48.4,21.7-48.4,48.5,0,19.3,11.4,35.9,27.7,43.7v60.3c0,11.5,9.3,20.8,20.8,20.8s20.8-9.3,20.8-20.8v-60.3c16.3-7.8,27.6-24.4,27.5-43.7,0-26.8-21.7-48.5-48.4-48.5ZM504.2,193.03h-18.7v18.7h-16.1v-18.7h-18.7v-16.1h18.7v-18.8h16.1v18.8h18.7v16.1Z" fill="url(#l)" stroke-width="0"/>
    <polygon id="n" data-name="cross" points="469.4 176.93 450.7 176.93 450.7 193.03 469.4 193.03 469.4 211.73 485.5 211.73 485.5 193.03 504.2 193.03 504.2 176.93 485.5 176.93 485.5 158.13 469.4 158.13 469.4 176.93" fill="#fff" stroke-width="0"/>
  </g>
  <g id="o" data-name="PV">
    <path d="M903.6,305.53v116.3h-70.9v-116.3l-110.8-189.5h62.5c6.2,0,11,1.4,14.7,4.3,3.6,2.9,6.6,6.5,8.8,11l43.2,89c3.5,7.1,6.7,13.7,9.6,19.7,3,6,5.6,11.9,7.8,17.9,2.1-6,4.6-12,7.6-18s6.1-12.5,9.4-19.5l42.8-89c.8-1.8,2-3.6,3.5-5.5,1.5-1.8,3.1-3.5,5-4.9s4.1-2.7,6.5-3.6c2.4-.9,5.1-1.3,8.1-1.3h62.9l-110.7,189.4h0Z" fill="#fff" stroke-width="0"/>
    <path d="M80,320.23v102.2H9V116.73h107.8c21.5,0,40,2.5,55.5,7.6,15.4,5.1,28.2,12.2,38.2,21.1,10,9,17.3,19.5,22.2,31.7,4.7,12.2,7.1,25.3,7.1,39.4,0,15.3-2.4,29.2-7.3,42-4.9,12.8-12.4,23.7-22.5,32.7-10.1,9.1-22.8,16.2-38.3,21.3s-33.7,7.6-54.9,7.6h-36.8v.1h0ZM80,266.83h36.9c18.5,0,31.7-4.4,39.9-13.2,8.1-8.8,12.2-21.1,12.2-36.9,0-7-1-13.3-3.1-19.1-2.1-5.7-5.3-10.7-9.6-14.8-4.3-4.2-9.6-7.3-16.2-9.6-6.6-2.3-14.2-3.3-23.2-3.3h-36.9v96.9h0Z" fill="#fff" stroke-width="0"/>
  </g>
</svg>