<?xml version="1.0" encoding="UTF-8"?>
<svg xmlns="http://www.w3.org/2000/svg" width="873mm" height="180mm" xmlns:xlink="http://www.w3.org/1999/xlink" viewBox="0 0 2474.65 510.24">
  <defs>
    <linearGradient id="m" data-name="keyhole" x1="419.01" y1="189.28" x2="524.08" y2="249.94" gradientUnits="userSpaceOnUse">
      <stop offset="0" stop-color="#ee7159"/>
      <stop offset=".85" stop-color="#e62e27"/>
    </linearGradient>
    <linearGradient id="r" data-name="font-red" x1="1175.85" y1="628.31" x2="2356.23" y2="-53.19" gradientUnits="userSpaceOnUse">
      <stop offset="0" stop-color="#ee7159"/>
      <stop offset=".3" stop-color="#e62e27"/>
    </linearGradient>
  </defs>
  <g id="g" data-name="color">
    <g id="h" data-name="logo-shield">
      <path id="i" data-name="bg" d="M476.78,378.09s.02,0,.03,0c22.5-2.4,80-45.4,98.9-95.7,28.7-52.9,34.6-152.1,36.3-157.6s5.4-10,10-13.3c4.7-3.3,10.7-5,18.1-5h42.9s0,.03.01.04c-3.18-12.11-12.03-22.68-24.21-27.74L492.81,9.4c-4.2-1.8-11.53-3.2-16.03-3.2h-.16c-4.6,0-11.67,1.4-15.87,3.2l-165.9,69.4c-12.25,5.06-21.11,15.61-24.3,27.7h.02s42.98,0,42.98,0c7.4,0,13.4,1.7,18.1,5,4.7,3.4,8.4,7.8,10,13.3,1.7,5.5,7.7,104.7,36.3,157.6,18.89,50.28,76.15,93.26,98.67,95.7h.16Z" fill="#0967ad" isolation="isolate" opacity=".4" stroke-width="0"/>
      <path id="j" data-name="bg-r" d="M575.55,282.4c28.7-52.9,34.6-152.1,36.3-157.6s5.4-10,10-13.3c4.7-3.3,10.7-5,18.1-5h42.9s0,.03.01.04c-3.18-12.11-12.03-22.68-24.21-27.74L492.65,9.4c-4.2-1.8-11.53-3.2-16.03-3.2v371.9s.02,0,.03,0c22.5-2.4,80-45.4,98.9-95.7Z" fill="#0967ad" isolation="isolate" opacity=".2" stroke-width="0"/>
      <path id="k" data-name="v-shape" d="M476.65,378.1c22.5-2.4,80-45.4,98.9-95.7,28.7-52.9,34.6-152.1,36.3-157.6,1.7-5.5,5.4-10,10-13.3,4.7-3.3,10.7-5,18.1-5h42.9c1.7,5.2,2.4,11.5,1.5,30.1h0c-2.1,42.9-9.5,96-44.4,166.4-43.8,81.8-98,119.6-124.8,133.9-13.4,7-28,13.1-38.5,13.1h0c-10.5,0-24.9-6.1-38.3-13.1-26.9-14.3-81.1-52.2-124.8-133.9-34.8-70.4-42.3-123.4-44.4-166.4-.8-18.6-.1-24.9,1.5-30.1h42.9c7.4,0,13.4,1.7,18.1,5,4.7,3.4,8.4,7.8,10,13.3,1.7,5.5,7.7,104.7,36.3,157.6,18.9,50.3,76.2,93.3,98.7,95.7h0Z" fill="#0967ad" stroke-width="0"/>
    </g>
    <g id="l" data-name="logo-icon">
      <path id="n" data-name="keyhole" d="M476.53,138c-26.7,0-48.4,21.7-48.4,48.5,0,19.3,11.4,35.9,27.7,43.7v60.3c0,11.5,9.3,20.8,20.8,20.8s20.8-9.3,20.8-20.8v-60.3c16.3-7.8,27.6-24.4,27.5-43.7,0-26.8-21.7-48.5-48.4-48.5ZM503.53,193.7h-18.7v18.7h-16.1v-18.7h-18.7v-16.1h18.7v-18.8h16.1v18.8h18.7v16.1Z" fill="url(#m)" stroke-width="0"/>
      <polygon id="o" data-name="cross" points="468.73 177.6 450.03 177.6 450.03 193.7 468.73 193.7 468.73 212.4 484.83 212.4 484.83 193.7 503.53 193.7 503.53 177.6 484.83 177.6 484.83 158.8 468.73 158.8 468.73 177.6" fill="#fff" stroke-width="0"/>
    </g>
    <g id="p" data-name="PV">
      <path d="M902.93,306.2v116.3h-70.9v-116.3l-110.8-189.5h62.5c6.2,0,11,1.4,14.7,4.3,3.6,2.9,6.6,6.5,8.8,11l43.2,89c3.5,7.1,6.7,13.7,9.6,19.7,3,6,5.6,11.9,7.8,17.9,2.1-6,4.6-12,7.6-18s6.1-12.5,9.4-19.5l42.8-89c.8-1.8,2-3.6,3.5-5.5,1.5-1.8,3.1-3.5,5-4.9,1.9-1.4,4.1-2.7,6.5-3.6,2.4-.9,5.1-1.3,8.1-1.3h62.9l-110.7,189.4h0Z" fill="#0967ad" stroke-width="0"/>
      <path d="M79.33,320.9v102.2H8.33V117.4h107.8c21.5,0,40,2.5,55.5,7.6,15.4,5.1,28.2,12.2,38.2,21.1,10,9,17.3,19.5,22.2,31.7,4.7,12.2,7.1,25.3,7.1,39.4,0,15.3-2.4,29.2-7.3,42-4.9,12.8-12.4,23.7-22.5,32.7-10.1,9.1-22.8,16.2-38.3,21.3s-33.7,7.6-54.9,7.6h-36.8v.1h0ZM79.33,267.5h36.9c18.5,0,31.7-4.4,39.9-13.2,8.1-8.8,12.2-21.1,12.2-36.9,0-7-1-13.3-3.1-19.1-2.1-5.7-5.3-10.7-9.6-14.8-4.3-4.2-9.6-7.3-16.2-9.6-6.6-2.3-14.2-3.3-23.2-3.3h-36.9v96.9h0Z" fill="#0967ad" stroke-width="0"/>
    </g>
    <path d="M989.81,205.19h52.21c4.63,0,8.63,1.05,12,3.16s5.4,4.84,6.11,8.21l21.89,97.89c1.68,7.44,3.23,14.67,4.63,21.68,1.4,7.02,2.67,13.97,3.79,20.84,1.96-6.87,4.03-13.79,6.21-20.74,2.17-6.95,4.32-14.21,6.42-21.79l27.37-98.1c.84-3.23,2.87-5.93,6.1-8.1,3.23-2.17,6.95-3.26,11.16-3.26h29.05c4.63,0,8.59,1.09,11.89,3.26,3.3,2.18,5.37,4.88,6.21,8.1l26.1,98.1c1.96,7.44,3.96,14.67,6,21.68,2.03,7.02,3.96,14.1,5.79,21.26,1.12-7.02,2.49-14,4.1-20.95,1.61-6.95,3.33-14.28,5.16-22l23.16-97.89c.7-3.37,2.7-6.1,6-8.21,3.3-2.1,7.05-3.16,11.26-3.16h49.68l-67.79,218.31h-53.05c-2.81,0-5.19-.84-7.16-2.53-1.97-1.68-3.51-4.49-4.63-8.42l-31.16-108.84c-1.4-4.91-2.74-9.75-4-14.53-1.26-4.77-2.39-9.54-3.37-14.31-.98,4.91-2.07,9.79-3.26,14.63-1.19,4.84-2.56,9.72-4.11,14.63l-31.58,108.42c-2.11,7.3-6.74,10.95-13.89,10.95h-50.52l-67.79-218.31ZM1450.83,201.82c14.45,0,27.68,2.25,39.68,6.74,12,4.49,22.32,11.02,30.95,19.58,8.63,8.56,15.37,19.05,20.21,31.47,4.84,12.42,7.26,26.49,7.26,42.21,0,4.92-.21,8.91-.63,12-.42,3.09-1.19,5.55-2.32,7.37-1.12,1.83-2.63,3.09-4.53,3.79-1.89.7-4.32,1.05-7.26,1.05h-125.89c2.1,18.25,7.65,31.47,16.63,39.68,8.98,8.21,20.56,12.32,34.74,12.32,7.58,0,14.1-.91,19.58-2.74,5.47-1.82,10.35-3.86,14.63-6.11,4.28-2.24,8.21-4.28,11.79-6.1,3.58-1.82,7.33-2.74,11.26-2.74,5.19,0,9.12,1.9,11.79,5.68l18.95,23.37c-6.74,7.72-14,14-21.79,18.84s-15.79,8.63-24,11.37-16.42,4.63-24.63,5.68c-8.21,1.05-16.04,1.58-23.47,1.58-15.3,0-29.65-2.49-43.05-7.47-13.4-4.98-25.12-12.38-35.16-22.21-10.04-9.82-17.97-22.03-23.79-36.63-5.83-14.59-8.74-31.58-8.74-50.95,0-14.59,2.49-28.42,7.47-41.47,4.98-13.05,12.14-24.49,21.47-34.31,9.33-9.82,20.63-17.61,33.89-23.37,13.26-5.75,28.24-8.63,44.95-8.63ZM1452.1,246.87c-12.49,0-22.25,3.55-29.26,10.63-7.02,7.09-11.65,17.3-13.89,30.63h81.47c0-5.19-.67-10.24-2-15.16-1.34-4.91-3.51-9.3-6.53-13.16-3.02-3.86-6.98-6.98-11.89-9.37-4.91-2.38-10.88-3.58-17.89-3.58ZM1586.4,423.5V108.35h65.26v119.99c8.14-8,17.37-14.42,27.68-19.26s22.42-7.26,36.31-7.26c11.37,0,21.89,2.46,31.58,7.37,9.68,4.91,18.03,12.1,25.05,21.58,7.02,9.47,12.53,21.09,16.53,34.84,4,13.76,6,29.4,6,46.94,0,16.42-2.28,31.58-6.84,45.47-4.56,13.89-10.95,25.97-19.16,36.21-8.21,10.25-18.04,18.25-29.47,24-11.44,5.75-24.1,8.63-38,8.63-6.46,0-12.25-.63-17.37-1.89-5.12-1.26-9.83-3.05-14.1-5.37-4.28-2.32-8.21-5.08-11.79-8.32-3.58-3.23-7.05-6.74-10.42-10.53l-2.32,10.95c-.98,4.49-2.77,7.58-5.37,9.26-2.6,1.68-6,2.53-10.21,2.53h-43.37ZM1692.92,250.87c-4.77,0-9.09.46-12.95,1.37-3.86.91-7.44,2.21-10.74,3.89-3.3,1.68-6.35,3.83-9.16,6.42-2.81,2.6-5.61,5.58-8.42,8.95v92.63c4.91,5.47,10.24,9.3,16,11.47,5.75,2.18,11.79,3.26,18.1,3.26s11.58-1.19,16.63-3.58c5.05-2.38,9.44-6.21,13.16-11.47,3.72-5.26,6.63-12.1,8.74-20.53,2.1-8.42,3.16-18.66,3.16-30.74s-.84-21.19-2.53-29.05c-1.68-7.86-4.04-14.21-7.05-19.05-3.02-4.84-6.63-8.32-10.84-10.42-4.21-2.1-8.91-3.16-14.1-3.16ZM1988.06,256.98c-1.97,2.39-3.86,4.28-5.68,5.69-1.83,1.4-4.42,2.1-7.79,2.1s-6.14-.77-8.74-2.32c-2.6-1.54-5.51-3.26-8.74-5.16-3.23-1.89-7.02-3.61-11.37-5.16-4.35-1.54-9.76-2.32-16.21-2.32-8,0-14.91,1.47-20.74,4.42-5.83,2.95-10.63,7.16-14.42,12.63-3.79,5.47-6.6,12.18-8.42,20.1-1.83,7.93-2.74,16.88-2.74,26.84,0,20.91,4.03,36.98,12.11,48.21,8.07,11.23,19.19,16.84,33.37,16.84,7.58,0,13.58-.95,18-2.84s8.17-4,11.26-6.32c3.09-2.32,5.93-4.45,8.53-6.42,2.59-1.96,5.86-2.95,9.79-2.95,5.19,0,9.12,1.9,11.79,5.68l18.95,23.37c-6.74,7.72-13.83,14-21.26,18.84-7.44,4.84-15.05,8.63-22.84,11.37s-15.61,4.63-23.47,5.68c-7.86,1.05-15.51,1.58-22.95,1.58-13.33,0-26.07-2.53-38.21-7.58-12.14-5.05-22.81-12.38-32-22-9.19-9.61-16.49-21.44-21.89-35.47-5.4-14.03-8.1-30.03-8.1-48,0-15.72,2.35-30.42,7.05-44.1,4.7-13.68,11.65-25.54,20.84-35.58,9.19-10.03,20.56-17.93,34.1-23.68,13.54-5.75,29.23-8.63,47.05-8.63s32.14,2.74,45.05,8.21c12.91,5.47,24.56,13.47,34.95,24l-17.26,22.95ZM2185.94,423.5c-6.18,0-10.84-.84-14-2.53-3.16-1.68-5.79-5.19-7.89-10.53l-4.63-12c-5.47,4.63-10.74,8.7-15.79,12.21-5.05,3.51-10.28,6.49-15.68,8.95-5.4,2.46-11.16,4.28-17.26,5.47-6.11,1.19-12.88,1.79-20.32,1.79-9.97,0-19.02-1.3-27.16-3.91-8.14-2.61-15.05-6.44-20.74-11.51-5.68-5.07-10.07-11.37-13.16-18.9-3.09-7.53-4.63-16.23-4.63-26.08,0-7.74,1.96-15.7,5.89-23.87,3.93-8.16,10.74-15.59,20.42-22.28,9.68-6.69,22.74-12.28,39.16-16.79,16.42-4.51,37.12-6.76,62.1-6.76v-9.35c0-12.89-2.63-22.2-7.89-27.94-5.26-5.74-12.74-8.6-22.42-8.6-7.72,0-14.04.84-18.95,2.53-4.91,1.68-9.3,3.58-13.16,5.68-3.86,2.11-7.61,4-11.26,5.68-3.65,1.68-8,2.53-13.05,2.53-4.49,0-8.32-1.08-11.47-3.26-3.16-2.17-5.65-4.88-7.47-8.11l-11.79-20.42c13.19-11.65,27.82-20.31,43.89-26,16.07-5.68,33.29-8.53,51.68-8.53,13.19,0,25.08,2.14,35.68,6.42,10.59,4.28,19.58,10.25,26.95,17.89,7.37,7.65,13.02,16.74,16.95,27.26,3.93,10.53,5.89,22.04,5.89,34.53v136.41h-29.89ZM2111,383.71c8.42,0,15.79-1.47,22.1-4.42s12.7-7.72,19.16-14.32v-29.89c-13.05,0-23.79.85-32.21,2.55-8.42,1.7-15.09,3.82-20,6.37-4.91,2.55-8.32,5.45-10.21,8.71-1.89,3.26-2.84,6.79-2.84,10.61,0,7.51,2.03,12.78,6.11,15.82,4.07,3.05,10.03,4.57,17.89,4.57ZM2329.51,108.35v315.14h-65.26V108.35h65.26ZM2449.5,108.35v315.14h-65.26V108.35h65.26Z" fill="url(#r)" stroke-width="0"/>
  </g>
  <g id="s" data-name="icon">
    <g>
      <rect x="1934.57" y="66.98" width="280.94" height="99.42" rx="19.84" ry="19.84" fill="#0967ad" stroke-width="0"/>
      <g>
        <path d="M1971.41,142.26v-52.06h17.96c3.41,0,6.32.32,8.73.97s4.39,1.57,5.94,2.77c1.55,1.2,2.68,2.65,3.4,4.36.72,1.7,1.08,3.62,1.08,5.76,0,1.22-.18,2.39-.54,3.51-.36,1.12-.92,2.16-1.67,3.13-.76.97-1.72,1.85-2.88,2.65-1.17.79-2.55,1.46-4.16,2.02,7.15,1.61,10.73,5.47,10.73,11.59,0,2.21-.42,4.25-1.26,6.12-.84,1.87-2.06,3.49-3.67,4.84-1.61,1.36-3.59,2.42-5.94,3.19-2.35.77-5.04,1.15-8.06,1.15h-19.66ZM1981.1,112.74h7.74c3.29,0,5.78-.6,7.49-1.8s2.56-3.11,2.56-5.72-.77-4.64-2.3-5.8c-1.54-1.15-3.94-1.73-7.2-1.73h-8.28v15.05ZM1981.1,119.43v15.26h9.83c1.8,0,3.31-.22,4.52-.65s2.18-1.01,2.92-1.73c.73-.72,1.26-1.56,1.58-2.52.32-.96.49-1.98.49-3.06s-.18-2.14-.54-3.04c-.36-.9-.92-1.67-1.69-2.3-.77-.64-1.75-1.12-2.95-1.46-1.2-.34-2.65-.5-4.36-.5h-9.79Z" fill="#fff" stroke-width="0"/>
        <path d="M2065.55,90.2v7.7h-23.08v14.44h18.18v7.45h-18.18v14.72h23.08v7.74h-32.83v-52.06h32.83Z" fill="#fff" stroke-width="0"/>
        <path d="M2125.02,90.2v7.96h-15.66v44.1h-9.68v-44.1h-15.73v-7.96h41.08Z" fill="#fff" stroke-width="0"/>
        <path d="M2186.04,142.26h-7.49c-.84,0-1.53-.21-2.07-.63s-.93-.94-1.17-1.57l-3.89-10.62h-21.56l-3.89,10.62c-.19.55-.57,1.06-1.13,1.51-.56.46-1.25.68-2.07.68h-7.52l20.45-52.06h9.9l20.45,52.06ZM2152.35,122.6h16.6l-6.34-17.32c-.29-.77-.61-1.67-.95-2.72-.35-1.04-.69-2.18-1.03-3.4-.34,1.22-.67,2.36-.99,3.42-.32,1.06-.64,1.98-.95,2.77l-6.34,17.24Z" fill="#fff" stroke-width="0"/>
      </g>
    </g>
  </g>
</svg>