<?xml version="1.0" encoding="UTF-8"?>
<svg xmlns="http://www.w3.org/2000/svg" width="160mm" height="160mm" xmlns:xlink="http://www.w3.org/1999/xlink" viewBox="0 0 453.54 453.54">
  <defs>
    <linearGradient id="n" data-name="Unbenannter Verlauf 9" x1="140.88" y1="230.63" x2="296.1" y2="141.02" gradientUnits="userSpaceOnUse">
      <stop offset="0" stop-color="#ee7159"/>
      <stop offset=".6" stop-color="#e62e27"/>
    </linearGradient>
  </defs>
  <g id="d" data-name="white">
    <g id="f" data-name="shield">
      <path id="g" data-name="bg" d="M227.54,377.43s.02,0,.03,0c22.5-2.4,80-45.4,98.9-95.7,28.7-52.9,34.6-152.1,36.3-157.6s5.4-10,10-13.3c4.7-3.3,10.7-5,18.1-5h42.9s0,.03.01.04c-3.18-12.11-12.03-22.68-24.21-27.74L243.57,8.73c-4.2-1.8-11.53-3.2-16.03-3.2h-.16c-4.6,0-11.67,1.4-15.87,3.2L45.61,78.13c-12.25,5.06-21.11,15.61-24.3,27.7h.02s42.98,0,42.98,0c7.4,0,13.4,1.7,18.1,5,4.7,3.4,8.4,7.8,10,13.3,1.7,5.5,7.7,104.7,36.3,157.6,18.89,50.28,76.15,93.26,98.67,95.7h.16Z" fill="#fff" isolation="isolate" opacity=".4" stroke-width="0"/>
      <path id="h" data-name="bg-r" d="M326.31,281.73c28.7-52.9,34.6-152.1,36.3-157.6s5.4-10,10-13.3c4.7-3.3,10.7-5,18.1-5h42.9s0,.03.01.04c-3.18-12.11-12.03-22.68-24.21-27.74L243.41,8.73c-4.2-1.8-11.53-3.2-16.03-3.2v371.9s.02,0,.03,0c22.5-2.4,80-45.4,98.9-95.7Z" fill="#fff" isolation="isolate" opacity=".2" stroke-width="0"/>
      <path id="i" data-name="v-shape" d="M227.41,377.43c22.5-2.4,80-45.4,98.9-95.7,28.7-52.9,34.6-152.1,36.3-157.6,1.7-5.5,5.4-10,10-13.3,4.7-3.3,10.7-5,18.1-5h42.9c1.7,5.2,2.4,11.5,1.5,30.1h0c-2.1,42.9-9.5,96-44.4,166.4-43.8,81.8-98,119.6-124.8,133.9-13.4,7-28,13.1-38.5,13.1h0c-10.5,0-24.9-6.1-38.3-13.1-26.9-14.3-81.1-52.2-124.8-133.9C29.51,231.93,22.01,178.93,19.91,135.93c-.8-18.6-.1-24.9,1.5-30.1h42.9c7.4,0,13.4,1.7,18.1,5,4.7,3.4,8.4,7.8,10,13.3,1.7,5.5,7.7,104.7,36.3,157.6,18.9,50.3,76.2,93.3,98.7,95.7h0Z" fill="#fff" stroke-width="0"/>
    </g>
  </g>
  <g id="m" data-name="icon">
    <g>
      <path d="M119.25,190.15c-17.21-17.22-17.21-45.14,0-62.32l34.22-34.5c16.94-16.94,45.1-16.94,62.05,0,15.24,15.24,17.49,39.53,4.97,57.05l-.34.49c-3.14,4.36-9.23,5.39-13.59,2.26-4.39-3.14-5.42-9.23-2.29-13.59l.34-.49c6.98-9.78,5.88-23.16-2.62-31.66-9.57-9.57-25.14-9.57-34.74,0l-34.19,34.22c-9.6,9.33-9.6,25.14,0,34.74,8.47,8.5,21.88,9.6,31.63,2.62l.49-.61c4.39-2.86,10.48-1.86,13.59,2.53,3.14,4.39,2.13,10.48-2.26,13.62l-.49.34c-17.8,12.53-41.54,10.51-56.77-4.69h0ZM272.71,153.27l-25.11,25.11c-10.72,10.72-25.56,14.76-39.4,12.14-3.57,7.94-5.55,16.75-5.55,26.02,0,35.13,28.47,63.59,63.59,63.59s63.59-28.47,63.59-63.59c0-32.95-25.04-60.03-57.14-63.27Z" fill="url(#n)" stroke-width="0"/>
      <path d="M277.6,72.64c17.22,17.21,17.22,45.12,0,62.31l-34.22,34.22c-17.22,17.22-45.1,17.22-62.32,0-15.24-15.24-17.22-39.25-4.69-56.78l.34-.49c2.86-4.36,8.96-5.39,13.59-2.26,4.39,2.86,5.42,8.96,2.29,13.59l-.34.49c-6.98,9.51-5.88,23.16,2.62,31.66,9.57,9.57,25.14,9.57,34.74,0l34.19-34.22c9.6-9.6,9.6-25.42,0-34.74-8.47-8.49-21.88-9.6-31.63-2.62l-.49.34c-4.39,3.14-10.48,1.86-13.59-2.26-3.14-4.38-2.13-10.47,2.26-13.6l.49-.34c17.52-12.52,41.54-10.54,56.78,4.7h0ZM277.37,205.48v-25.97h-22.24v25.97h-25.83v22.24h25.83v25.83h22.24v-25.83h25.83v-22.24h-25.83Z" fill="#fff" isolation="isolate" stroke-width="0"/>
    </g>
  </g>
</svg>