<?xml version="1.0" encoding="UTF-8"?>
<svg id="h" data-name="color" xmlns="http://www.w3.org/2000/svg" width="718mm" height="180mm" xmlns:xlink="http://www.w3.org/1999/xlink" viewBox="0 0 2035.28 510.24">
  <defs>
    <linearGradient id="i" data-name="font-red" x1="1093.29" y1="515.14" x2="1928.59" y2="32.89" gradientUnits="userSpaceOnUse">
      <stop offset="0" stop-color="#ee7159"/>
      <stop offset=".3" stop-color="#e62e27"/>
    </linearGradient>
    <linearGradient id="o" data-name="keyhole" x1="419.01" y1="189.28" x2="524.08" y2="249.94" gradientUnits="userSpaceOnUse">
      <stop offset="0" stop-color="#ee7159"/>
      <stop offset=".85" stop-color="#e62e27"/>
    </linearGradient>
  </defs>
  <path d="M1081.39,426.46c-10.39,0-19.54-1.51-27.47-4.53-7.93-3.02-14.6-7.29-20-12.84-5.4-5.54-9.51-12.24-12.32-20.1-2.81-7.86-4.21-16.63-4.21-26.31v-112.84h-18.53c-3.37,0-6.25-1.08-8.63-3.26-2.39-2.17-3.58-5.37-3.58-9.58v-25.47l34.74-6.74,12.84-53.26c1.68-6.74,6.45-10.1,14.31-10.1h34.1v63.79h53.05v44.63h-53.05v108.42c0,5.05,1.23,9.23,3.68,12.53,2.45,3.3,6,4.95,10.63,4.95,2.38,0,4.38-.24,6-.74,1.61-.49,3.02-1.05,4.21-1.68,1.19-.63,2.32-1.19,3.37-1.68,1.05-.49,2.28-.74,3.68-.74,1.96,0,3.54.46,4.74,1.37,1.19.92,2.42,2.35,3.68,4.32l19.79,30.95c-8.42,6.32-17.89,11.05-28.42,14.21-10.53,3.16-21.4,4.74-32.63,4.74ZM1248.12,145c0,5.19-1.05,10.07-3.16,14.63-2.11,4.56-4.98,8.56-8.63,12-3.65,3.44-7.89,6.18-12.74,8.21-4.84,2.04-10,3.05-15.47,3.05s-10.32-1.02-14.95-3.05c-4.63-2.03-8.74-4.77-12.32-8.21-3.58-3.44-6.39-7.44-8.42-12-2.04-4.56-3.05-9.44-3.05-14.63s1.02-10.32,3.05-14.95c2.03-4.63,4.84-8.7,8.42-12.21,3.58-3.51,7.68-6.24,12.32-8.21,4.63-1.96,9.61-2.95,14.95-2.95s10.63.98,15.47,2.95c4.84,1.97,9.08,4.7,12.74,8.21,3.65,3.51,6.53,7.58,8.63,12.21s3.16,9.61,3.16,14.95ZM1240.54,204.79v218.31h-65.26v-218.31h65.26ZM1293.16,423.1v-218.31h40.42c4.07,0,7.47.91,10.21,2.74,2.74,1.83,4.67,4.56,5.79,8.21l3.58,11.79c3.65-3.79,7.44-7.26,11.37-10.42,3.93-3.16,8.17-5.89,12.74-8.21,4.56-2.32,9.47-4.14,14.74-5.47,5.26-1.33,11.05-2,17.37-2,13.19,0,24.1,3.4,32.74,10.21,8.63,6.81,15.19,15.89,19.68,27.26,3.65-6.74,8.1-12.49,13.37-17.26,5.26-4.77,10.95-8.63,17.05-11.58,6.11-2.95,12.56-5.12,19.37-6.53,6.8-1.4,13.58-2.1,20.31-2.1,12.49,0,23.58,1.86,33.26,5.58,9.68,3.72,17.79,9.12,24.31,16.21,6.53,7.09,11.47,15.79,14.84,26.1,3.37,10.32,5.05,22,5.05,35.05v138.73h-65.26v-138.73c0-22.59-9.68-33.89-29.05-33.89-8.84,0-16.18,2.91-22,8.74-5.83,5.83-8.74,14.21-8.74,25.16v138.73h-65.26v-138.73c0-12.49-2.46-21.26-7.37-26.31-4.91-5.05-12.14-7.58-21.68-7.58-5.89,0-11.47,1.33-16.74,4-5.26,2.67-10.21,6.25-14.84,10.74v157.89h-65.26ZM1749.14,201.42c14.45,0,27.68,2.25,39.68,6.74,12,4.49,22.32,11.02,30.95,19.58,8.63,8.56,15.37,19.05,20.21,31.47,4.84,12.42,7.26,26.49,7.26,42.21,0,4.92-.21,8.91-.63,12-.42,3.09-1.19,5.55-2.32,7.37-1.12,1.83-2.63,3.09-4.53,3.79-1.89.7-4.32,1.05-7.26,1.05h-125.89c2.1,18.25,7.65,31.47,16.63,39.68,8.98,8.21,20.56,12.32,34.74,12.32,7.58,0,14.1-.91,19.58-2.74,5.47-1.82,10.35-3.86,14.63-6.11,4.28-2.24,8.21-4.28,11.79-6.1,3.58-1.82,7.33-2.74,11.26-2.74,5.19,0,9.12,1.9,11.79,5.68l18.95,23.37c-6.74,7.72-14,14-21.79,18.84s-15.79,8.63-24,11.37-16.42,4.63-24.63,5.68c-8.21,1.05-16.04,1.58-23.47,1.58-15.3,0-29.65-2.49-43.05-7.47-13.4-4.98-25.12-12.38-35.16-22.21-10.04-9.82-17.97-22.03-23.79-36.63-5.83-14.59-8.74-31.58-8.74-50.95,0-14.59,2.49-28.42,7.47-41.47,4.98-13.05,12.14-24.49,21.47-34.31,9.33-9.82,20.63-17.61,33.89-23.37,13.26-5.75,28.24-8.63,44.95-8.63ZM1750.4,246.47c-12.49,0-22.25,3.55-29.26,10.63-7.02,7.09-11.65,17.3-13.89,30.63h81.47c0-5.19-.67-10.24-2-15.16-1.34-4.91-3.51-9.3-6.53-13.16-3.02-3.86-6.98-6.98-11.89-9.37-4.91-2.38-10.88-3.58-17.89-3.58ZM1884.71,423.1v-218.31h38.74c3.23,0,5.93.28,8.1.84,2.17.56,4,1.44,5.47,2.63,1.47,1.19,2.6,2.77,3.37,4.74.77,1.97,1.44,4.35,2,7.16l3.58,20.42c8-12.35,16.98-22.1,26.95-29.26,9.96-7.16,20.84-10.74,32.63-10.74,9.96,0,17.96,2.39,24,7.16l-8.42,48c-.56,2.95-1.68,5.02-3.37,6.21-1.68,1.19-3.93,1.79-6.74,1.79-2.39,0-5.19-.32-8.42-.95-3.23-.63-7.3-.95-12.21-.95-17.12,0-30.6,9.12-40.42,27.37v133.89h-65.26Z" fill="url(#i)"/>
  <g id="j" data-name="logo-shield">
    <path id="k" data-name="bg" d="M476.78,378.09s.02,0,.03,0c22.5-2.4,80-45.4,98.9-95.7,28.7-52.9,34.6-152.1,36.3-157.6s5.4-10,10-13.3c4.7-3.3,10.7-5,18.1-5h42.9s0,.03.01.04c-3.18-12.11-12.03-22.68-24.21-27.74L492.81,9.4c-4.2-1.8-11.53-3.2-16.03-3.2h-.16c-4.6,0-11.67,1.4-15.87,3.2l-165.9,69.4c-12.25,5.06-21.11,15.61-24.3,27.7h.02s42.98,0,42.98,0c7.4,0,13.4,1.7,18.1,5,4.7,3.4,8.4,7.8,10,13.3,1.7,5.5,7.7,104.7,36.3,157.6,18.89,50.28,76.15,93.26,98.67,95.7h.16Z" fill="#0967ad" isolation="isolate" opacity=".4"/>
    <path id="l" data-name="bg-r" d="M575.55,282.4c28.7-52.9,34.6-152.1,36.3-157.6s5.4-10,10-13.3c4.7-3.3,10.7-5,18.1-5h42.9s0,.03.01.04c-3.18-12.11-12.03-22.68-24.21-27.74L492.65,9.4c-4.2-1.8-11.53-3.2-16.03-3.2v371.9s.02,0,.03,0c22.5-2.4,80-45.4,98.9-95.7Z" fill="#0967ad" isolation="isolate" opacity=".2"/>
    <path id="m" data-name="v-shape" d="M476.65,378.1c22.5-2.4,80-45.4,98.9-95.7,28.7-52.9,34.6-152.1,36.3-157.6,1.7-5.5,5.4-10,10-13.3,4.7-3.3,10.7-5,18.1-5h42.9c1.7,5.2,2.4,11.5,1.5,30.1h0c-2.1,42.9-9.5,96-44.4,166.4-43.8,81.8-98,119.6-124.8,133.9-13.4,7-28,13.1-38.5,13.1h0c-10.5,0-24.9-6.1-38.3-13.1-26.9-14.3-81.1-52.2-124.8-133.9-34.8-70.4-42.3-123.4-44.4-166.4-.8-18.6-.1-24.9,1.5-30.1h42.9c7.4,0,13.4,1.7,18.1,5,4.7,3.4,8.4,7.8,10,13.3,1.7,5.5,7.7,104.7,36.3,157.6,18.9,50.3,76.2,93.3,98.7,95.7h0Z" fill="#0967ad"/>
  </g>
  <g id="n" data-name="logo-icon">
    <path id="p" data-name="keyhole" d="M476.53,138c-26.7,0-48.4,21.7-48.4,48.5,0,19.3,11.4,35.9,27.7,43.7v60.3c0,11.5,9.3,20.8,20.8,20.8s20.8-9.3,20.8-20.8v-60.3c16.3-7.8,27.6-24.4,27.5-43.7,0-26.8-21.7-48.5-48.4-48.5ZM503.53,193.7h-18.7v18.7h-16.1v-18.7h-18.7v-16.1h18.7v-18.8h16.1v18.8h18.7v16.1Z" fill="url(#o)"/>
    <polygon id="q" data-name="cross" points="468.73 177.6 450.03 177.6 450.03 193.7 468.73 193.7 468.73 212.4 484.83 212.4 484.83 193.7 503.53 193.7 503.53 177.6 484.83 177.6 484.83 158.8 468.73 158.8 468.73 177.6" fill="#fff"/>
  </g>
  <g id="r" data-name="PV">
    <path d="M902.93,306.2v116.3h-70.9v-116.3l-110.8-189.5h62.5c6.2,0,11,1.4,14.7,4.3,3.6,2.9,6.6,6.5,8.8,11l43.2,89c3.5,7.1,6.7,13.7,9.6,19.7,3,6,5.6,11.9,7.8,17.9,2.1-6,4.6-12,7.6-18s6.1-12.5,9.4-19.5l42.8-89c.8-1.8,2-3.6,3.5-5.5,1.5-1.8,3.1-3.5,5-4.9,1.9-1.4,4.1-2.7,6.5-3.6,2.4-.9,5.1-1.3,8.1-1.3h62.9l-110.7,189.4h0Z" fill="#0967ad"/>
    <path d="M79.33,320.9v102.2H8.33V117.4h107.8c21.5,0,40,2.5,55.5,7.6,15.4,5.1,28.2,12.2,38.2,21.1,10,9,17.3,19.5,22.2,31.7,4.7,12.2,7.1,25.3,7.1,39.4,0,15.3-2.4,29.2-7.3,42-4.9,12.8-12.4,23.7-22.5,32.7-10.1,9.1-22.8,16.2-38.3,21.3s-33.7,7.6-54.9,7.6h-36.8v.1h0ZM79.33,267.5h36.9c18.5,0,31.7-4.4,39.9-13.2,8.1-8.8,12.2-21.1,12.2-36.9,0-7-1-13.3-3.1-19.1-2.1-5.7-5.3-10.7-9.6-14.8-4.3-4.2-9.6-7.3-16.2-9.6-6.6-2.3-14.2-3.3-23.2-3.3h-36.9v96.9h0Z" fill="#0967ad"/>
  </g>
</svg>