<?xml version="1.0" encoding="UTF-8"?>
<svg xmlns="http://www.w3.org/2000/svg" width="160mm" height="160mm" xmlns:xlink="http://www.w3.org/1999/xlink" viewBox="0 0 453.54 453.54">
  <defs>
    <linearGradient id="n" data-name="Unbenannter Verlauf 5" x1="118.6" y1="199.05" x2="286.43" y2="102.15" gradientUnits="userSpaceOnUse">
      <stop offset="0" stop-color="#ee7159"/>
      <stop offset=".42" stop-color="#e62e27"/>
    </linearGradient>
    <linearGradient id="o" data-name="Unbenannter Verlauf 5" x1="265.45" y1="199.32" x2="301.71" y2="178.38" xlink:href="#n"/>
  </defs>
  <g id="g" data-name="color">
    <g id="i" data-name="shield">
      <path id="j" data-name="bg" d="M226.88,378.09s.02,0,.03,0c22.5-2.4,80-45.4,98.9-95.7,28.7-52.9,34.6-152.1,36.3-157.6s5.4-10,10-13.3c4.7-3.3,10.7-5,18.1-5h42.9s0,.03.01.04c-3.18-12.11-12.03-22.68-24.21-27.74L242.91,9.4c-4.2-1.8-11.53-3.2-16.03-3.2h-.16c-4.6,0-11.67,1.4-15.87,3.2L44.95,78.8c-12.25,5.06-21.11,15.61-24.3,27.7h.02s42.98,0,42.98,0c7.4,0,13.4,1.7,18.1,5,4.7,3.4,8.4,7.8,10,13.3,1.7,5.5,7.7,104.7,36.3,157.6,18.89,50.28,76.15,93.26,98.67,95.7h.16Z" fill="#0967ad" isolation="isolate" opacity=".4" stroke-width="0"/>
      <path id="k" data-name="bg-r" d="M325.65,282.4c28.7-52.9,34.6-152.1,36.3-157.6s5.4-10,10-13.3c4.7-3.3,10.7-5,18.1-5h42.9s0,.03.01.04c-3.18-12.11-12.03-22.68-24.21-27.74L242.75,9.4c-4.2-1.8-11.53-3.2-16.03-3.2v371.9s.02,0,.03,0c22.5-2.4,80-45.4,98.9-95.7Z" fill="#0967ad" isolation="isolate" opacity=".2" stroke-width="0"/>
      <path id="l" data-name="v-shape" d="M226.75,378.1c22.5-2.4,80-45.4,98.9-95.7,28.7-52.9,34.6-152.1,36.3-157.6,1.7-5.5,5.4-10,10-13.3,4.7-3.3,10.7-5,18.1-5h42.9c1.7,5.2,2.4,11.5,1.5,30.1h0c-2.1,42.9-9.5,96-44.4,166.4-43.8,81.8-98,119.6-124.8,133.9-13.4,7-28,13.1-38.5,13.1h0c-10.5,0-24.9-6.1-38.3-13.1-26.9-14.3-81.1-52.2-124.8-133.9C28.85,232.6,21.35,179.6,19.25,136.6c-.8-18.6-.1-24.9,1.5-30.1h42.9c7.4,0,13.4,1.7,18.1,5,4.7,3.4,8.4,7.8,10,13.3,1.7,5.5,7.7,104.7,36.3,157.6,18.9,50.3,76.2,93.3,98.7,95.7h0Z" fill="#0967ad" stroke-width="0"/>
    </g>
  </g>
  <g id="m" data-name="icon">
    <g>
      <path d="M122.98,112.37c0-8.64,7.01-15.65,15.65-15.65h135.63c8.64,0,15.65,7.01,15.65,15.65,0,4.92-2.31,9.55-6.26,12.52l-4.53,3.39c-21.71,2.09-39.91,16.3-47.7,35.8l-18.71,14.02c-3.72,2.77-8.8,2.77-12.52,0l-70.94-53.21c-3.94-2.97-6.26-7.6-6.26-12.52h0ZM227.31,185.4c0,13.86,4.92,26.6,13.11,36.51h-96.57c-11.52,0-20.87-9.36-20.87-20.87v-67.81l70.94,53.21c7.43,5.58,17.61,5.58,25.04,0l8.61-6.46c-.16,1.79-.26,3.59-.26,5.41Z" fill="url(#n)" stroke-width="0"/>
      <path d="M261.2,189.64c.46-1.11,1.54-1.83,2.74-1.83h11.86v-17.79c0-3.27,2.66-5.93,5.93-5.93h5.93c3.27,0,5.93,2.66,5.93,5.93v17.79h11.86c1.2,0,2.28.72,2.74,1.83.46,1.11.21,2.38-.64,3.23l-20.75,20.75c-1.16,1.16-3.03,1.16-4.19,0l-20.75-20.75c-.85-.86-1.11-2.12-.65-3.23Z" fill="url(#o)" stroke-width="0"/>
      <path d="M284.69,235.24c26.2,0,47.43-21.23,47.43-47.43s-21.23-47.43-47.43-47.43-47.43,21.23-47.43,47.43,21.23,47.43,47.43,47.43ZM261.2,189.64c.46-1.11,1.54-1.83,2.74-1.83h11.86v-17.79c0-3.27,2.66-5.93,5.93-5.93h5.93c3.27,0,5.93,2.66,5.93,5.93v17.79h11.86c1.2,0,2.28.72,2.74,1.83.46,1.11.21,2.38-.64,3.23l-20.75,20.75c-1.16,1.16-3.03,1.16-4.19,0l-20.75-20.75c-.85-.86-1.11-2.12-.65-3.23Z" fill="#fff" isolation="isolate" stroke-width="0"/>
    </g>
  </g>
</svg>