<?xml version="1.0" encoding="UTF-8"?>
<svg xmlns="http://www.w3.org/2000/svg" width="160mm" height="160mm" xmlns:xlink="http://www.w3.org/1999/xlink" viewBox="0 0 453.54 453.54">
  <defs>
    <linearGradient id="n" data-name="Unbenannter Verlauf 3" x1="153" y1="216.7" x2="294.6" y2="134.94" gradientUnits="userSpaceOnUse">
      <stop offset="0" stop-color="#ee7159"/>
      <stop offset=".35" stop-color="#e62e27"/>
    </linearGradient>
  </defs>
  <g id="g" data-name="color">
    <g id="i" data-name="shield">
      <path id="j" data-name="bg" d="M226.88,378.09s.02,0,.03,0c22.5-2.4,80-45.4,98.9-95.7,28.7-52.9,34.6-152.1,36.3-157.6s5.4-10,10-13.3c4.7-3.3,10.7-5,18.1-5h42.9s0,.03.01.04c-3.18-12.11-12.03-22.68-24.21-27.74L242.91,9.4c-4.2-1.8-11.53-3.2-16.03-3.2h-.16c-4.6,0-11.67,1.4-15.87,3.2L44.95,78.8c-12.25,5.06-21.11,15.61-24.3,27.7h.02s42.98,0,42.98,0c7.4,0,13.4,1.7,18.1,5,4.7,3.4,8.4,7.8,10,13.3,1.7,5.5,7.7,104.7,36.3,157.6,18.89,50.28,76.15,93.26,98.67,95.7h.16Z" fill="#0967ad" isolation="isolate" opacity=".4" stroke-width="0"/>
      <path id="k" data-name="bg-r" d="M325.65,282.4c28.7-52.9,34.6-152.1,36.3-157.6s5.4-10,10-13.3c4.7-3.3,10.7-5,18.1-5h42.9s0,.03.01.04c-3.18-12.11-12.03-22.68-24.21-27.74L242.75,9.4c-4.2-1.8-11.53-3.2-16.03-3.2v371.9s.02,0,.03,0c22.5-2.4,80-45.4,98.9-95.7Z" fill="#0967ad" isolation="isolate" opacity=".2" stroke-width="0"/>
      <path id="l" data-name="v-shape" d="M226.75,378.1c22.5-2.4,80-45.4,98.9-95.7,28.7-52.9,34.6-152.1,36.3-157.6,1.7-5.5,5.4-10,10-13.3,4.7-3.3,10.7-5,18.1-5h42.9c1.7,5.2,2.4,11.5,1.5,30.1h0c-2.1,42.9-9.5,96-44.4,166.4-43.8,81.8-98,119.6-124.8,133.9-13.4,7-28,13.1-38.5,13.1h0c-10.5,0-24.9-6.1-38.3-13.1-26.9-14.3-81.1-52.2-124.8-133.9C28.85,232.6,21.35,179.6,19.25,136.6c-.8-18.6-.1-24.9,1.5-30.1h42.9c7.4,0,13.4,1.7,18.1,5,4.7,3.4,8.4,7.8,10,13.3,1.7,5.5,7.7,104.7,36.3,157.6,18.9,50.3,76.2,93.3,98.7,95.7h0Z" fill="#0967ad" stroke-width="0"/>
    </g>
  </g>
  <g id="m" data-name="icon">
    <g>
      <g>
        <path d="M215.18,92.38h-51.71c-9.56,0-17.32,7.75-17.32,17.32v43.29c0,9.56,7.75,17.32,17.32,17.32h51.95c9.56,0,17.32-7.75,17.32-17.32v-43.29c0-9.55-7.77-17.32-17.56-17.32ZM210.23,130.6h-16.14v16.14c0,1.98-1.61,3.58-3.59,3.58s-3.59-1.6-3.59-3.58v-16.14h-16.14c-1.98,0-3.59-1.6-3.59-3.59s1.61-3.58,3.59-3.58h16.14v-16.14c0-1.98,1.61-3.59,3.59-3.59s3.59,1.6,3.59,3.59v16.14h16.14c1.98,0,3.59,1.6,3.59,3.58s-1.61,3.59-3.59,3.59Z" fill="#fff" stroke-width="0"/>
        <path d="M274.65,248.82c14.35,0,25.98-11.63,25.98-25.98v-43.29c0-14.35-11.63-25.98-25.98-25.98s-25.98,11.63-25.98,25.98v43.29c0,14.34,11.39,25.98,25.98,25.98Z" fill="#fff" stroke-width="0"/>
      </g>
      <path d="M250.03,75.06h-34.09l14.89-14.89c2.54-2.54,2.54-6.65,0-9.18s-6.65-2.54-9.18,0l-23.55,23.53-23.55-23.53c-2.54-2.54-6.65-2.54-9.18,0-2.54,2.54-2.54,6.65,0,9.18l14.89,14.89h-34.12c-9.56,0-17.32,7.75-17.32,17.07v77.68c0,10.04,7.75,17.8,17.32,17.8h94.43v-15.7c0-14.35,11.63-25.98,25.98-25.98.27,0,.54,0,.81.01v-53.58c0-9.55-7.77-17.32-17.32-17.32ZM215.42,170.3h-51.95c-9.56,0-17.32-7.75-17.32-17.32v-43.29c0-9.56,7.75-17.32,17.32-17.32h51.71c9.56,0,17.32,7.75,17.32,17.07v43.54h.24c0,9.56-7.76,17.32-17.32,17.32ZM250.06,140c-3.59,0-6.49-2.91-6.49-6.49s2.91-6.49,6.49-6.49,6.49,2.91,6.49,6.49-2.92,6.49-6.49,6.49ZM250.06,118.35c-3.59,0-6.49-2.91-6.49-6.49s2.9-6.25,6.49-6.25,6.5,2.65,6.5,6.25-2.92,6.49-6.49,6.49ZM322.27,211.77v11.07c0,24.06-17.93,43.97-41.13,47.13v9.15h10.82c4.92,0,8.89,4.11,8.65,9.08-.1,2.23-2.1,3.9-4.32,3.9h-43.29c-2.22,0-4.21-1.68-4.32-3.9-.24-4.97,3.72-9.08,8.65-9.08h10.82v-9.24c-23.82-3.29-41.13-24.91-41.13-49.18v-8.93c0-3.36,2.91-6.25,6.49-6.25s6.49,2.9,6.49,6.25l-.24,9.69c0,17.91,14.52,34.8,32.39,35.93,20.35,1.27,37.12-14.72,37.12-34.55v-11.07c0-3.36,2.9-6.25,6.49-6.25s6.49,2.9,6.49,6.25Z" fill="url(#n)" stroke-width="0"/>
    </g>
  </g>
</svg>