<?xml version="1.0" encoding="UTF-8"?>
<svg id="Ebene_1" xmlns="http://www.w3.org/2000/svg" xmlns:xlink="http://www.w3.org/1999/xlink" version="1.1" viewBox="0 0 2602.2 510.2">
  <!-- Generator: Adobe Illustrator 30.1.0, SVG Export Plug-In . SVG Version: 2.1.1 Build 136)  -->
  <defs>
    <style>
      .st0 {
        fill: url(#Unbenannter_Verlauf);
      }

      .st1 {
        fill: url(#Unbenannter_Verlauf_2);
      }

      .st2, .st3, .st4 {
        fill: #fff;
      }

      .st3 {
        opacity: .2;
      }

      .st3, .st4 {
        isolation: isolate;
      }

      .st4 {
        opacity: .4;
      }
    </style>
    <linearGradient id="Unbenannter_Verlauf" data-name="Unbenannter Verlauf" x1="419.7" y1="321.4" x2="524.7" y2="260.7" gradientTransform="translate(0 510) scale(1 -1)" gradientUnits="userSpaceOnUse">
      <stop offset="0" stop-color="#ee7159"/>
      <stop offset=".8" stop-color="#e62e27"/>
    </linearGradient>
    <linearGradient id="Unbenannter_Verlauf_2" data-name="Unbenannter Verlauf 2" x1="1144.9" y1="-172.8" x2="2420.3" y2="563.5" gradientTransform="translate(0 510) scale(1 -1)" gradientUnits="userSpaceOnUse">
      <stop offset="0" stop-color="#ee7159"/>
      <stop offset=".3" stop-color="#e62e27"/>
    </linearGradient>
  </defs>
  <g id="f">
    <g id="g">
      <path id="h" class="st4" d="M477.4,377.4s0,0,0,0c22.5-2.4,80-45.4,98.9-95.7,28.7-52.9,34.6-152.1,36.3-157.6s5.4-10,10-13.3c4.7-3.3,10.7-5,18.1-5h42.9s0,0,0,0c-3.2-12.1-12-22.7-24.2-27.7L493.5,8.7c-4.2-1.8-11.5-3.2-16-3.2h-.2c-4.6,0-11.7,1.4-15.9,3.2l-165.9,69.4c-12.2,5.1-21.1,15.6-24.3,27.7h0s43,0,43,0c7.4,0,13.4,1.7,18.1,5,4.7,3.4,8.4,7.8,10,13.3,1.7,5.5,7.7,104.7,36.3,157.6,18.9,50.3,76.1,93.3,98.7,95.7h.2,0Z"/>
      <path id="i" class="st3" d="M576.2,281.7c28.7-52.9,34.6-152.1,36.3-157.6s5.4-10,10-13.3c4.7-3.3,10.7-5,18.1-5h42.9s0,0,0,0c-3.2-12.1-12-22.7-24.2-27.7L493.3,8.7c-4.2-1.8-11.5-3.2-16-3.2v371.9s0,0,0,0c22.5-2.4,80-45.4,98.9-95.7h0Z"/>
      <path id="j" class="st2" d="M477.3,377.4c22.5-2.4,80-45.4,98.9-95.7,28.7-52.9,34.6-152.1,36.3-157.6s5.4-10,10-13.3c4.7-3.3,10.7-5,18.1-5h42.9c1.7,5.2,2.4,11.5,1.5,30.1h0c-2.1,42.9-9.5,96-44.4,166.4-43.8,81.8-98,119.6-124.8,133.9-13.4,7-28,13.1-38.5,13.1h0c-10.5,0-24.9-6.1-38.3-13.1-26.9-14.3-81.1-52.2-124.8-133.9-34.8-70.4-42.3-123.4-44.4-166.4-.8-18.6-.1-24.9,1.5-30.1h42.9c7.4,0,13.4,1.7,18.1,5,4.7,3.4,8.4,7.8,10,13.3,1.7,5.5,7.7,104.7,36.3,157.6,18.9,50.3,76.2,93.3,98.7,95.7h0Z"/>
    </g>
    <g id="l">
      <path id="n" class="st0" d="M477.2,137.3c-26.7,0-48.4,21.7-48.4,48.5s11.4,35.9,27.7,43.7v60.3c0,11.5,9.3,20.8,20.8,20.8s20.8-9.3,20.8-20.8v-60.3c16.3-7.8,27.6-24.4,27.5-43.7,0-26.8-21.7-48.5-48.4-48.5h0ZM504.2,193h-18.7v18.7h-16.1v-18.7h-18.7v-16.1h18.7v-18.8h16.1v18.8h18.7v16.1Z"/>
      <polygon id="o" class="st2" points="469.4 176.9 450.7 176.9 450.7 193 469.4 193 469.4 211.7 485.5 211.7 485.5 193 504.2 193 504.2 176.9 485.5 176.9 485.5 158.1 469.4 158.1 469.4 176.9"/>
    </g>
    <g id="p">
      <path class="st2" d="M903.6,305.5v116.3h-70.9v-116.3l-110.8-189.5h62.5c6.2,0,11,1.4,14.7,4.3,3.6,2.9,6.6,6.5,8.8,11l43.2,89c3.5,7.1,6.7,13.7,9.6,19.7,3,6,5.6,11.9,7.8,17.9,2.1-6,4.6-12,7.6-18s6.1-12.5,9.4-19.5l42.8-89c.8-1.8,2-3.6,3.5-5.5,1.5-1.8,3.1-3.5,5-4.9s4.1-2.7,6.5-3.6,5.1-1.3,8.1-1.3h62.9l-110.7,189.4h0Z"/>
      <path class="st2" d="M80,320.2v102.2H9V116.7h107.8c21.5,0,40,2.5,55.5,7.6,15.4,5.1,28.2,12.2,38.2,21.1,10,9,17.3,19.5,22.2,31.7,4.7,12.2,7.1,25.3,7.1,39.4s-2.4,29.2-7.3,42c-4.9,12.8-12.4,23.7-22.5,32.7-10.1,9.1-22.8,16.2-38.3,21.3s-33.7,7.6-54.9,7.6h-36.8q0,.1,0,.1ZM80,266.8h36.9c18.5,0,31.7-4.4,39.9-13.2,8.1-8.8,12.2-21.1,12.2-36.9s-1-13.3-3.1-19.1c-2.1-5.7-5.3-10.7-9.6-14.8-4.3-4.2-9.6-7.3-16.2-9.6-6.6-2.3-14.2-3.3-23.2-3.3h-36.9v96.9h0Z"/>
    </g>
    <path class="st1" d="M1135,251.9c-1.7,2.7-3.5,4.6-5.4,5.7-1.9,1.1-4.3,1.7-7.3,1.7s-6.2-.7-9.3-2c-3.1-1.3-6.4-2.8-10-4.3-3.6-1.5-7.6-3-12.1-4.3-4.5-1.3-9.6-2-15.4-2-8.3,0-14.6,1.6-19.1,4.7-4.4,3.2-6.6,7.5-6.6,13.2s1.4,7.4,4.3,10.1c2.9,2.7,6.7,5,11.5,7.1,4.8,2,10.2,4,16.2,5.8,6,1.8,12.2,3.9,18.5,6.1,6.3,2.2,12.5,4.9,18.5,7.9,6,3,11.4,6.7,16.2,11.2,4.8,4.4,8.6,9.8,11.5,16.1,2.9,6.3,4.3,13.9,4.3,22.7s-2,20.8-5.9,29.9c-3.9,9.1-9.8,17-17.6,23.6-7.8,6.6-17.4,11.7-28.8,15.4-11.4,3.6-24.6,5.5-39.5,5.5s-14.9-.7-22.3-2.1c-7.4-1.4-14.6-3.3-21.6-5.7-6.9-2.4-13.4-5.2-19.3-8.5-5.9-3.3-10.9-6.8-15.2-10.6l15.2-24c1.8-2.8,4-5,6.5-6.6,2.5-1.6,5.8-2.4,9.9-2.4s7.2.8,10.2,2.5c3,1.7,6.3,3.5,9.8,5.5,3.5,2,7.6,3.8,12.3,5.5,4.7,1.7,10.6,2.5,17.8,2.5s9.3-.5,12.8-1.6c3.5-1.1,6.3-2.5,8.4-4.3,2.1-1.8,3.6-3.9,4.6-6.1,1-2.2,1.5-4.6,1.5-6.9,0-4.3-1.5-7.9-4.4-10.7-2.9-2.8-6.8-5.2-11.6-7.3-4.8-2-10.2-3.9-16.3-5.7-6.1-1.8-12.3-3.8-18.6-6-6.3-2.2-12.5-4.9-18.6-8.1-6.1-3.2-11.5-7.2-16.3-12-4.8-4.8-8.6-10.8-11.6-17.8-2.9-7-4.4-15.5-4.4-25.5s1.8-18.1,5.4-26.4c3.6-8.3,8.9-15.7,16.1-22,7.2-6.3,16.1-11.3,26.9-15.1,10.8-3.7,23.4-5.6,37.9-5.6s15.5.7,22.8,2.1c7.4,1.4,14.3,3.4,20.7,5.9,6.5,2.5,12.3,5.5,17.7,8.9,5.3,3.4,10,7.2,14.1,11.3l-14.7,22.9h0ZM1186.8,422.4v-218.3h40.4c4.1,0,7.5.9,10.2,2.7,2.7,1.8,4.7,4.6,5.8,8.2l3.8,12.6c4.2-3.9,8.6-7.6,13.1-10.9,4.5-3.4,9.3-6.2,14.4-8.5,5.1-2.3,10.7-4.1,16.6-5.5,6-1.3,12.5-2,19.5-2,11.9,0,22.5,2.1,31.7,6.2,9.2,4.1,16.9,9.9,23.3,17.3,6.3,7.4,11.1,16.1,14.3,26.3,3.2,10.2,4.8,21.2,4.8,33.2v138.7h-65.3v-138.7c0-10.7-2.5-19-7.4-24.9-4.9-6-12.1-8.9-21.7-8.9s-13.9,1.5-20.2,4.6c-6.3,3.1-12.4,7.2-18.1,12.4v155.6h-65.3ZM1506,144.3c0,5.2-1.1,10.1-3.2,14.6-2.1,4.6-5,8.6-8.6,12-3.7,3.4-7.9,6.2-12.7,8.2-4.8,2-10,3.1-15.5,3.1s-10.3-1-14.9-3.1c-4.6-2-8.7-4.8-12.3-8.2-3.6-3.4-6.4-7.4-8.4-12-2-4.6-3.1-9.4-3.1-14.6s1-10.3,3.1-14.9c2-4.6,4.8-8.7,8.4-12.2,3.6-3.5,7.7-6.2,12.3-8.2,4.6-2,9.6-2.9,14.9-2.9s10.6,1,15.5,2.9c4.8,2,9.1,4.7,12.7,8.2,3.6,3.5,6.5,7.6,8.6,12.2,2.1,4.6,3.2,9.6,3.2,14.9ZM1498.4,204.1v218.3h-65.3v-218.3h65.3ZM1551,491.7V204.1h40.4c4.1,0,7.5.9,10.2,2.7,2.7,1.8,4.7,4.6,5.8,8.2l4.8,16c4.2-4.6,8.7-8.8,13.6-12.6s10-7.1,15.6-9.8c5.5-2.7,11.5-4.9,17.9-6.4,6.4-1.5,13.4-2.3,20.9-2.3,11.4,0,21.9,2.5,31.6,7.6,9.7,5.1,18,12.4,25.1,21.9,7,9.5,12.5,21.2,16.5,35.1,4,13.8,6,29.5,6,47s-2.3,31.6-6.8,45.5c-4.6,13.9-10.9,26-19.2,36.2-8.2,10.2-18,18.2-29.5,24-11.4,5.8-24.1,8.6-38,8.6s-20.9-1.6-28.6-4.8c-7.7-3.2-14.7-7.6-21.1-13.1v83.8h-65.3ZM1657.5,249.8c-4.8,0-9.1.5-12.9,1.4-3.9.9-7.4,2.2-10.7,3.9-3.3,1.7-6.4,3.8-9.2,6.4-2.8,2.6-5.6,5.6-8.4,8.9v92.6c4.9,5.5,10.2,9.3,16,11.5,5.8,2.2,11.8,3.3,18.1,3.3s11.6-1.2,16.6-3.6c5.1-2.4,9.4-6.2,13.2-11.5,3.7-5.3,6.6-12.1,8.7-20.5,2.1-8.4,3.2-18.7,3.2-30.7s-.8-21.2-2.5-29.1c-1.7-7.9-4-14.2-7.1-19.1-3-4.8-6.6-8.3-10.8-10.4-4.2-2.1-8.9-3.2-14.1-3.2h0ZM1794.3,491.7V204.1h40.4c4.1,0,7.5.9,10.2,2.7,2.7,1.8,4.7,4.6,5.8,8.2l4.8,16c4.2-4.6,8.7-8.8,13.6-12.6s10-7.1,15.6-9.8c5.5-2.7,11.5-4.9,17.9-6.4,6.4-1.5,13.4-2.3,20.9-2.3,11.4,0,21.9,2.5,31.6,7.6,9.7,5.1,18,12.4,25.1,21.9,7,9.5,12.5,21.2,16.5,35.1,4,13.8,6,29.5,6,47s-2.3,31.6-6.8,45.5c-4.6,13.9-10.9,26-19.2,36.2-8.2,10.2-18,18.2-29.5,24-11.4,5.8-24.1,8.6-38,8.6s-20.9-1.6-28.6-4.8c-7.7-3.2-14.7-7.6-21.1-13.1v83.8h-65.3ZM1900.9,249.8c-4.8,0-9.1.5-12.9,1.4-3.9.9-7.4,2.2-10.7,3.9-3.3,1.7-6.4,3.8-9.2,6.4-2.8,2.6-5.6,5.6-8.4,8.9v92.6c4.9,5.5,10.2,9.3,16,11.5,5.8,2.2,11.8,3.3,18.1,3.3s11.6-1.2,16.6-3.6c5.1-2.4,9.4-6.2,13.2-11.5,3.7-5.3,6.6-12.1,8.7-20.5,2.1-8.4,3.2-18.7,3.2-30.7s-.8-21.2-2.5-29.1c-1.7-7.9-4-14.2-7.1-19.1-3-4.8-6.6-8.3-10.8-10.4-4.2-2.1-8.9-3.2-14.1-3.2h0ZM2131.2,200.8c14.5,0,27.7,2.2,39.7,6.7,12,4.5,22.3,11,30.9,19.6,8.6,8.6,15.4,19.1,20.2,31.5,4.8,12.4,7.3,26.5,7.3,42.2s-.2,8.9-.6,12c-.4,3.1-1.2,5.5-2.3,7.4-1.1,1.8-2.6,3.1-4.5,3.8-1.9.7-4.3,1.1-7.3,1.1h-125.9c2.1,18.2,7.6,31.5,16.6,39.7,9,8.2,20.6,12.3,34.7,12.3s14.1-.9,19.6-2.7c5.5-1.8,10.3-3.9,14.6-6.1,4.3-2.2,8.2-4.3,11.8-6.1,3.6-1.8,7.3-2.7,11.3-2.7s9.1,1.9,11.8,5.7l18.9,23.4c-6.7,7.7-14,14-21.8,18.8s-15.8,8.6-24,11.4-16.4,4.6-24.6,5.7c-8.2,1.1-16,1.6-23.5,1.6-15.3,0-29.7-2.5-43.1-7.5-13.4-5-25.1-12.4-35.2-22.2-10-9.8-18-22-23.8-36.6-5.8-14.6-8.7-31.6-8.7-50.9s2.5-28.4,7.5-41.5c5-13.1,12.1-24.5,21.5-34.3,9.3-9.8,20.6-17.6,33.9-23.4,13.3-5.8,28.2-8.6,44.9-8.6h0ZM2132.4,245.8c-12.5,0-22.2,3.5-29.3,10.6-7,7.1-11.7,17.3-13.9,30.6h81.5c0-5.2-.7-10.2-2-15.2-1.3-4.9-3.5-9.3-6.5-13.2-3-3.9-7-7-11.9-9.4-4.9-2.4-10.9-3.6-17.9-3.6h0ZM2343.4,425.8c-10.4,0-19.5-1.5-27.5-4.5-7.9-3-14.6-7.3-20-12.8-5.4-5.5-9.5-12.2-12.3-20.1-2.8-7.9-4.2-16.6-4.2-26.3v-112.8h-18.5c-3.4,0-6.2-1.1-8.6-3.3-2.4-2.2-3.6-5.4-3.6-9.6v-25.5l34.7-6.7,12.8-53.3c1.7-6.7,6.5-10.1,14.3-10.1h34.1v63.8h53v44.6h-53v108.4c0,5.1,1.2,9.2,3.7,12.5,2.5,3.3,6,4.9,10.6,4.9s4.4-.2,6-.7c1.6-.5,3-1.1,4.2-1.7,1.2-.6,2.3-1.2,3.4-1.7,1.1-.5,2.3-.7,3.7-.7s3.5.5,4.7,1.4c1.2.9,2.4,2.4,3.7,4.3l19.8,30.9c-8.4,6.3-17.9,11.1-28.4,14.2-10.5,3.2-21.4,4.7-32.6,4.7h0ZM2568.6,251.9c-1.7,2.7-3.5,4.6-5.4,5.7-1.9,1.1-4.3,1.7-7.3,1.7s-6.2-.7-9.3-2c-3.1-1.3-6.4-2.8-10-4.3-3.6-1.5-7.6-3-12.1-4.3-4.5-1.3-9.6-2-15.4-2-8.3,0-14.6,1.6-19.1,4.7-4.4,3.2-6.6,7.5-6.6,13.2s1.4,7.4,4.3,10.1c2.9,2.7,6.7,5,11.5,7.1,4.8,2,10.2,4,16.2,5.8,6,1.8,12.2,3.9,18.5,6.1,6.3,2.2,12.5,4.9,18.5,7.9,6,3,11.4,6.7,16.2,11.2,4.8,4.4,8.6,9.8,11.5,16.1,2.9,6.3,4.3,13.9,4.3,22.7s-2,20.8-5.9,29.9c-3.9,9.1-9.8,17-17.6,23.6-7.8,6.6-17.4,11.7-28.8,15.4-11.4,3.6-24.6,5.5-39.5,5.5s-14.9-.7-22.3-2.1c-7.4-1.4-14.6-3.3-21.6-5.7-6.9-2.4-13.4-5.2-19.3-8.5-5.9-3.3-10.9-6.8-15.2-10.6l15.2-24c1.8-2.8,4-5,6.5-6.6,2.5-1.6,5.8-2.4,9.9-2.4s7.2.8,10.2,2.5c3,1.7,6.3,3.5,9.8,5.5,3.5,2,7.6,3.8,12.3,5.5,4.7,1.7,10.6,2.5,17.8,2.5s9.3-.5,12.8-1.6c3.5-1.1,6.3-2.5,8.4-4.3,2.1-1.8,3.6-3.9,4.6-6.1,1-2.2,1.5-4.6,1.5-6.9,0-4.3-1.5-7.9-4.4-10.7-2.9-2.8-6.8-5.2-11.6-7.3-4.8-2-10.2-3.9-16.3-5.7-6.1-1.8-12.3-3.8-18.6-6-6.3-2.2-12.5-4.9-18.6-8.1-6.1-3.2-11.5-7.2-16.3-12-4.8-4.8-8.6-10.8-11.6-17.8-2.9-7-4.4-15.5-4.4-25.5s1.8-18.1,5.4-26.4c3.6-8.3,8.9-15.7,16.1-22,7.2-6.3,16.1-11.3,26.9-15.1,10.8-3.7,23.4-5.6,37.9-5.6s15.5.7,22.8,2.1c7.4,1.4,14.3,3.4,20.7,5.9,6.5,2.5,12.3,5.5,17.7,8.9,5.3,3.4,10,7.2,14.1,11.3l-14.7,22.9h0Z"/>
  </g>
</svg>