<?xml version="1.0" encoding="UTF-8"?>
<svg xmlns="http://www.w3.org/2000/svg" width="160mm" height="160mm" xmlns:xlink="http://www.w3.org/1999/xlink" viewBox="0 0 453.54 453.54">
  <defs>
    <linearGradient id="n" data-name="Unbenannter Verlauf 11" x1="138.26" y1="237.14" x2="316.84" y2="134.05" gradientUnits="userSpaceOnUse">
      <stop offset="0" stop-color="#ee7159"/>
      <stop offset=".6" stop-color="#e62e27"/>
    </linearGradient>
  </defs>
  <g id="g" data-name="color">
    <g id="i" data-name="shield">
      <path id="j" data-name="bg" d="M226.88,378.09s.02,0,.03,0c22.5-2.4,80-45.4,98.9-95.7,28.7-52.9,34.6-152.1,36.3-157.6s5.4-10,10-13.3c4.7-3.3,10.7-5,18.1-5h42.9s0,.03.01.04c-3.18-12.11-12.03-22.68-24.21-27.74L242.91,9.4c-4.2-1.8-11.53-3.2-16.03-3.2h-.16c-4.6,0-11.67,1.4-15.87,3.2L44.95,78.8c-12.25,5.06-21.11,15.61-24.3,27.7h.02s42.98,0,42.98,0c7.4,0,13.4,1.7,18.1,5,4.7,3.4,8.4,7.8,10,13.3,1.7,5.5,7.7,104.7,36.3,157.6,18.89,50.28,76.15,93.26,98.67,95.7h.16Z" fill="#0967ad" isolation="isolate" opacity=".4" stroke-width="0"/>
      <path id="k" data-name="bg-r" d="M325.65,282.4c28.7-52.9,34.6-152.1,36.3-157.6s5.4-10,10-13.3c4.7-3.3,10.7-5,18.1-5h42.9s0,.03.01.04c-3.18-12.11-12.03-22.68-24.21-27.74L242.75,9.4c-4.2-1.8-11.53-3.2-16.03-3.2v371.9s.02,0,.03,0c22.5-2.4,80-45.4,98.9-95.7Z" fill="#0967ad" isolation="isolate" opacity=".2" stroke-width="0"/>
      <path id="l" data-name="v-shape" d="M226.75,378.1c22.5-2.4,80-45.4,98.9-95.7,28.7-52.9,34.6-152.1,36.3-157.6,1.7-5.5,5.4-10,10-13.3,4.7-3.3,10.7-5,18.1-5h42.9c1.7,5.2,2.4,11.5,1.5,30.1h0c-2.1,42.9-9.5,96-44.4,166.4-43.8,81.8-98,119.6-124.8,133.9-13.4,7-28,13.1-38.5,13.1h0c-10.5,0-24.9-6.1-38.3-13.1-26.9-14.3-81.1-52.2-124.8-133.9C28.85,232.6,21.35,179.6,19.25,136.6c-.8-18.6-.1-24.9,1.5-30.1h42.9c7.4,0,13.4,1.7,18.1,5,4.7,3.4,8.4,7.8,10,13.3,1.7,5.5,7.7,104.7,36.3,157.6,18.9,50.3,76.2,93.3,98.7,95.7h0Z" fill="#0967ad" stroke-width="0"/>
    </g>
  </g>
  <g id="m" data-name="icon">
    <g>
      <path d="M227.55,82.52c-56.94,0-103.08,46.14-103.08,103.08s46.14,103.08,103.08,103.08,103.08-46.14,103.08-103.08-46.14-103.08-103.08-103.08Z" fill="url(#n)" stroke-width="0"/>
      <path d="M227.51,129.44l3.78-6.53c2.33-4.07,7.52-5.44,11.6-3.12s5.44,7.52,3.12,11.6l-36.37,62.97h26.31c8.52,0,13.3,10.02,9.6,16.96h-77.1c-4.7,0-8.48-3.78-8.48-8.48s3.78-8.48,8.48-8.48h21.61l27.68-47.96-8.65-15c-2.33-4.07-.96-9.23,3.12-11.6,4.07-2.33,9.23-.96,11.6,3.12l3.7,6.53h0ZM194.8,220.05l-8.15,14.13c-2.33,4.07-7.52,5.44-11.6,3.12-4.07-2.33-5.44-7.52-3.12-11.6l6.07-10.47c6.82-2.12,12.39-.5,16.79,4.82h0ZM265,194.41h22.07c4.7,0,8.48,3.78,8.48,8.48s-3.78,8.48-8.48,8.48h-12.26l8.27,14.34c2.33,4.07.96,9.23-3.12,11.6-4.07,2.33-9.23.96-11.6-3.12-13.92-24.15-24.4-42.23-31.34-54.28-7.11-12.26-2.04-24.56,2.99-28.72,5.57,9.56,13.88,23.98,24.98,43.23h0Z" fill="#fff" stroke-width="0"/>
    </g>
  </g>
</svg>