<?xml version="1.0" encoding="UTF-8"?>
<svg xmlns="http://www.w3.org/2000/svg" width="160mm" height="160mm" xmlns:xlink="http://www.w3.org/1999/xlink" viewBox="0 0 453.54 453.54">
  <defs>
    <linearGradient id="n" data-name="Unbenannter Verlauf 8" x1="133.41" y1="204.01" x2="298.85" y2="108.49" gradientUnits="userSpaceOnUse">
      <stop offset="0" stop-color="#ee7159"/>
      <stop offset=".45" stop-color="#e62e27"/>
    </linearGradient>
  </defs>
  <g id="g" data-name="color">
    <g id="i" data-name="shield">
      <path id="j" data-name="bg" d="M226.88,378.09s.02,0,.03,0c22.5-2.4,80-45.4,98.9-95.7,28.7-52.9,34.6-152.1,36.3-157.6s5.4-10,10-13.3c4.7-3.3,10.7-5,18.1-5h42.9s0,.03.01.04c-3.18-12.11-12.03-22.68-24.21-27.74L242.91,9.4c-4.2-1.8-11.53-3.2-16.03-3.2h-.16c-4.6,0-11.67,1.4-15.87,3.2L44.95,78.8c-12.25,5.06-21.11,15.61-24.3,27.7h.02s42.98,0,42.98,0c7.4,0,13.4,1.7,18.1,5,4.7,3.4,8.4,7.8,10,13.3,1.7,5.5,7.7,104.7,36.3,157.6,18.89,50.28,76.15,93.26,98.67,95.7h.16Z" fill="#0967ad" isolation="isolate" opacity=".4" stroke-width="0"/>
      <path id="k" data-name="bg-r" d="M325.65,282.4c28.7-52.9,34.6-152.1,36.3-157.6s5.4-10,10-13.3c4.7-3.3,10.7-5,18.1-5h42.9s0,.03.01.04c-3.18-12.11-12.03-22.68-24.21-27.74L242.75,9.4c-4.2-1.8-11.53-3.2-16.03-3.2v371.9s.02,0,.03,0c22.5-2.4,80-45.4,98.9-95.7Z" fill="#0967ad" isolation="isolate" opacity=".2" stroke-width="0"/>
      <path id="l" data-name="v-shape" d="M226.75,378.1c22.5-2.4,80-45.4,98.9-95.7,28.7-52.9,34.6-152.1,36.3-157.6,1.7-5.5,5.4-10,10-13.3,4.7-3.3,10.7-5,18.1-5h42.9c1.7,5.2,2.4,11.5,1.5,30.1h0c-2.1,42.9-9.5,96-44.4,166.4-43.8,81.8-98,119.6-124.8,133.9-13.4,7-28,13.1-38.5,13.1h0c-10.5,0-24.9-6.1-38.3-13.1-26.9-14.3-81.1-52.2-124.8-133.9C28.85,232.6,21.35,179.6,19.25,136.6c-.8-18.6-.1-24.9,1.5-30.1h42.9c7.4,0,13.4,1.7,18.1,5,4.7,3.4,8.4,7.8,10,13.3,1.7,5.5,7.7,104.7,36.3,157.6,18.9,50.3,76.2,93.3,98.7,95.7h0Z" fill="#0967ad" stroke-width="0"/>
    </g>
  </g>
  <g id="m" data-name="icon">
    <g>
      <path d="M316.15,116.8h-59.14c-6.4,0-11.57,5.46-11.57,11.86v100.28c0,6.4,5.17,11.57,11.57,11.57h59.14c6.4,0,11.57-5.17,11.57-11.57v-100.28c0-6.4-5.17-11.86-11.57-11.86ZM307.15,219.94h-41.14v-82.28h41.14v82.28Z" fill="#fff" stroke-width="0"/>
      <path d="M266.01,137.65v82.28h41.14v-82.28h-41.14ZM163.16,96.51h102.85v10.29h20.57v-15.43c0-8.52-6.91-15.39-15.39-15.43h-113.21c-8.49.04-15.4,6.91-15.4,15.43v77.14h-15.43c-2.85,0-5.14,2.28-5.14,5.14v5.14c.04,11.33,9.2,20.53,20.53,20.57h92.61v-30.86h-72v-72Z" fill="url(#n)" stroke-width="0"/>
    </g>
  </g>
</svg>