<?xml version="1.0" encoding="UTF-8"?>
<svg id="d" data-name="white" xmlns="http://www.w3.org/2000/svg" xmlns:xlink="http://www.w3.org/1999/xlink" viewBox="0 0 1913.3858 510.2362">
  <defs>
    <linearGradient id="e" data-name="font-red" x1="1061.7495" y1="538.8296" x2="1825.4211" y2="97.9235" gradientUnits="userSpaceOnUse">
      <stop offset="0" stop-color="#ee7159"/>
      <stop offset=".3" stop-color="#e62e27"/>
    </linearGradient>
    <linearGradient id="l" data-name="keyhole" x1="419.6668" y1="188.6166" x2="524.7375" y2="249.276" gradientUnits="userSpaceOnUse">
      <stop offset="0" stop-color="#ee7159"/>
      <stop offset=".85" stop-color="#e62e27"/>
    </linearGradient>
  </defs>
  <path d="M1135.0329,251.9158c-1.6836,2.667-3.4727,4.5615-5.3682,5.6836-1.8945,1.125-4.3154,1.6836-7.2627,1.6836-3.0879,0-6.1768-.6641-9.2627-2-3.0889-1.332-6.4209-2.7695-9.999-4.3154-3.5791-1.542-7.6152-2.9795-12.1045-4.3154-4.4932-1.332-9.6152-2-15.3682-2-8.2822,0-14.6309,1.5791-19.0518,4.7373-4.4209,3.1572-6.6309,7.5449-6.6309,13.1572,0,4.0723,1.4375,7.4404,4.3154,10.1045,2.875,2.668,6.7002,5.0195,11.4727,7.0518,4.7695,2.0361,10.1738,3.9678,16.21,5.79,6.0332,1.8252,12.21,3.8613,18.5254,6.1045,6.3154,2.2471,12.4893,4.8779,18.5254,7.8945,6.0332,3.0195,11.4375,6.7363,16.21,11.1572,4.7695,4.4209,8.5947,9.7891,11.4727,16.1045,2.875,6.3154,4.3164,13.8945,4.3164,22.7354,0,10.8096-1.9678,20.7725-5.8945,29.8936-3.9307,9.125-9.7891,16.9824-17.5781,23.5781-7.7891,6.5986-17.4043,11.7197-28.8408,15.3672-11.4404,3.6484-24.5977,5.4736-39.4717,5.4736-7.4404,0-14.8779-.7041-22.3154-2.1055-7.4404-1.4004-14.6309-3.2959-21.5771-5.6836-6.9473-2.3848-13.3682-5.2266-19.2627-8.5254-5.8945-3.2959-10.9463-6.8418-15.1572-10.6318l15.1572-23.998c1.8223-2.8066,4-5.0166,6.5264-6.6318,2.5264-1.6113,5.8223-2.4209,9.8945-2.4209,3.7891,0,7.1904.8418,10.21,2.5264,3.0156,1.6836,6.2793,3.5098,9.7891,5.4736,3.5059,1.9668,7.6113,3.7891,12.3145,5.4727,4.7012,1.6846,10.6318,2.5264,17.7891,2.5264,5.0518,0,9.332-.5264,12.8418-1.5781,3.5059-1.0527,6.3154-2.4902,8.4199-4.3164,2.1055-1.8223,3.6484-3.8584,4.6318-6.1045.9805-2.2432,1.4736-4.5596,1.4736-6.9473,0-4.3486-1.4736-7.9268-4.4209-10.7363-2.9473-2.8057-6.8086-5.2266-11.5781-7.2627-4.7734-2.0332-10.2109-3.9277-16.3154-5.6836-6.1055-1.7539-12.3154-3.7539-18.6309-6-6.3154-2.2432-12.5254-4.9473-18.6309-8.1045-6.1045-3.1582-11.5449-7.1582-16.3145-12-4.7734-4.8418-8.6318-10.7695-11.5781-17.7881-2.9473-7.0166-4.4209-15.5059-4.4209-25.4727,0-9.2627,1.7891-18.0684,5.3682-26.4199,3.5781-8.3486,8.9463-15.6836,16.1045-21.999,7.1572-6.3154,16.1367-11.332,26.9453-15.0518,10.8057-3.7168,23.4365-5.5791,37.8936-5.5791,7.8574,0,15.4727.7041,22.8408,2.1055,7.3682,1.4043,14.2783,3.3682,20.7354,5.8945,6.4541,2.5264,12.3486,5.5098,17.6836,8.9463,5.332,3.4414,10.0322,7.1943,14.1045,11.2627l-14.7363,22.9473ZM1263.4431,425.8016c-10.3877,0-19.5449-1.5098-27.4727-4.5264-7.9307-3.0156-14.5977-7.2949-19.999-12.8408-5.4043-5.543-9.5088-12.2432-12.3154-20.1045-2.8086-7.8584-4.21-16.6309-4.21-26.3145v-112.8369h-18.5254c-3.3682,0-6.2461-1.085-8.6309-3.2627-2.3887-2.1748-3.5791-5.3682-3.5791-9.5791v-25.4727l34.7354-6.7363,12.8418-53.2607c1.6836-6.7363,6.4531-10.1045,14.3145-10.1045h34.1035v63.7861h53.0498v44.6299h-53.0498v108.416c0,5.0527,1.2275,9.2295,3.6846,12.5254,2.4531,3.2998,5.999,4.9473,10.6309,4.9473,2.3848,0,4.3848-.2432,6-.7363,1.6113-.4902,3.0156-1.0527,4.21-1.6846,1.1904-.6318,2.3154-1.1904,3.3682-1.6836,1.0527-.4902,2.2793-.7373,3.6846-.7373,1.9629,0,3.542.457,4.7363,1.3682,1.1904.915,2.4209,2.3525,3.6836,4.3154l19.7881,30.9463c-8.4199,6.3154-17.8936,11.0518-28.4189,14.21-10.5254,3.1572-21.4033,4.7363-32.6299,4.7363ZM1505.9538,422.4334c-6.1768,0-10.8408-.8418-13.999-2.5264-3.1582-1.6836-5.7891-5.1904-7.8945-10.5254l-4.6309-12c-5.4736,4.6318-10.7363,8.7041-15.7891,12.21-5.0527,3.5098-10.2822,6.4932-15.6836,8.9473-5.4043,2.457-11.1572,4.2793-17.2617,5.4736-6.1055,1.1904-12.8779,1.7891-20.3154,1.7891-9.9668,0-19.0186-1.3027-27.1562-3.9072-8.1416-2.6055-15.0518-6.4404-20.7363-11.5098-5.6836-5.0684-10.0713-11.3711-13.1572-18.9033-3.0879-7.5332-4.6309-16.2266-4.6309-26.0811,0-7.7432,1.9639-15.7002,5.8945-23.8672,3.9268-8.1641,10.7363-15.5918,20.4199-22.2822,9.6836-6.6875,22.7354-12.2822,39.1562-16.7881,16.4199-4.5068,37.1191-6.7598,62.1016-6.7598v-9.3486c0-12.8877-2.6309-22.2031-7.8945-27.9395-5.2627-5.7363-12.7354-8.6045-22.4199-8.6045-7.7197,0-14.0352.8418-18.9463,2.5264-4.9141,1.6836-9.2988,3.5781-13.1572,5.6836-3.8613,2.1055-7.6143,4-11.2627,5.6836-3.6504,1.6846-7.999,2.5264-13.0518,2.5264-4.4932,0-8.3154-1.085-11.4727-3.2627-3.1582-2.1748-5.6514-4.875-7.4736-8.1055l-11.7891-20.4199c13.1904-11.6475,27.8213-20.3145,43.8926-25.999,16.0684-5.6836,33.2949-8.5254,51.6816-8.5254,13.1904,0,25.085,2.1416,35.6826,6.4209,10.5947,4.2822,19.5781,10.2461,26.9463,17.8936,7.3682,7.6514,13.0156,16.7363,16.9463,27.2617,3.9277,10.5264,5.8945,22.0352,5.8945,34.5254v136.4141h-29.8936ZM1431.0105,382.6463c8.4209,0,15.7891-1.4736,22.1045-4.4209s12.6992-7.7168,19.1562-14.3154v-29.8936c-13.0518,0-23.7881.8525-32.209,2.5498-8.4199,1.6973-15.0879,3.8223-19.999,6.3711-4.9141,2.5488-8.3154,5.4502-10.21,8.707-1.8945,3.2559-2.8418,6.792-2.8418,10.6143,0,7.5059,2.0332,12.7793,6.1055,15.8213,4.0684,3.0459,10.0322,4.5664,17.8936,4.5664ZM1582.155,422.4334v-218.3057h38.7354c3.2266,0,5.9268.2832,8.1045.8418,2.1748.5625,4,1.4414,5.4736,2.6318,1.4736,1.1943,2.5957,2.7734,3.3682,4.7363.7695,1.9678,1.4375,4.3525,2,7.1582l3.5791,20.4199c7.999-12.3486,16.9795-22.1045,26.9453-29.2617,9.9639-7.1572,20.8418-10.7363,32.6309-10.7363,9.9629,0,17.9629,2.3877,23.998,7.1572l-8.4199,47.998c-.5625,2.9473-1.6846,5.0195-3.3682,6.21-1.6846,1.1943-3.9316,1.79-6.7373,1.79-2.3877,0-5.1934-.3164-8.4199-.9473-3.2305-.6318-7.2998-.9473-12.21-.9473-17.125,0-30.5977,9.124-40.4199,27.3662v133.8887h-65.2598ZM1832.6677,425.8016c-10.3877,0-19.5449-1.5098-27.4727-4.5264-7.9297-3.0156-14.5977-7.2949-19.999-12.8408-5.4043-5.543-9.5088-12.2432-12.3145-20.1045-2.8096-7.8584-4.2109-16.6309-4.2109-26.3145v-112.8369h-18.5254c-3.3682,0-6.2461-1.085-8.6309-3.2627-2.3877-2.1748-3.5791-5.3682-3.5791-9.5791v-25.4727l34.7354-6.7363,12.8418-53.2607c1.6836-6.7363,6.4531-10.1045,14.3145-10.1045h34.1045v63.7861h53.0498v44.6299h-53.0498v108.416c0,5.0527,1.2266,9.2295,3.6836,12.5254,2.4541,3.2998,6,4.9473,10.6309,4.9473,2.3848,0,4.3848-.2432,6-.7363,1.6113-.4902,3.0166-1.0527,4.21-1.6846,1.1914-.6318,2.3164-1.1904,3.3682-1.6836,1.0527-.4902,2.2803-.7373,3.6846-.7373,1.9639,0,3.542.457,4.7363,1.3682,1.1904.915,2.4209,2.3525,3.6846,4.3154l19.7881,30.9463c-8.4209,6.3154-17.8936,11.0518-28.4199,14.21-10.5254,3.1572-21.4033,4.7363-32.6299,4.7363Z" style="fill: url(#e);"/>
  <g id="f" data-name="logo-shield">
    <path id="g" data-name="bg" d="M477.4456,377.4295c.0098.001.0201.0029.0299.0039,22.5-2.4,80-45.4,98.9-95.7,28.7-52.9,34.6-152.1,36.3-157.6s5.4-10,10-13.3c4.7-3.3,10.7-5,18.1-5h42.9c.0042.0129.0082.0262.0125.0392-3.1755-12.1116-12.0338-22.678-24.2125-27.7393L493.4755,8.7333c-4.2-1.7999-11.5299-3.2-16.0299-3.2h-.1608c-4.6.0001-11.6701,1.4001-15.8701,3.2002l-165.9,69.3999c-12.245,5.056-21.1113,15.6061-24.2982,27.7021l.0157-.0021h42.9826c7.4,0,13.4,1.7,18.1,5,4.7,3.4,8.4,7.8,10,13.3,1.7,5.5,7.7,104.7,36.3,157.6,18.8918,50.2782,76.1498,93.262,98.6701,95.6961h.1608Z" style="fill: #fff; isolation: isolate; opacity: .4;"/>
    <path id="h" data-name="bg-r" d="M576.2147,281.7335c28.7-52.9,34.6-152.1,36.3-157.6s5.4-10,10-13.3c4.7-3.3,10.7-5,18.1-5h42.9c.0042.0129.0082.0262.0125.0392-3.1755-12.1116-12.0338-22.678-24.2125-27.7393L493.3147,8.7333c-4.2-1.7999-11.5299-3.2-16.0299-3.2v371.8962c.0098.001.0201.0029.0299.0039,22.5-2.4,80-45.4,98.9-95.7Z" style="fill: #fff; isolation: isolate; opacity: .2;"/>
    <path id="i" data-name="v-shape" d="M477.3147,377.4335c22.5-2.4,80-45.4,98.9-95.7,28.7-52.9,34.6-152.1,36.3-157.6,1.7-5.5,5.4-10,10-13.3,4.7-3.3,10.7-5,18.1-5h42.9c1.7,5.2,2.4,11.5,1.5,30.1h0c-2.1,42.9-9.5,96-44.4,166.4-43.8,81.8-98,119.6-124.8,133.9-13.4,7-28,13.1-38.5,13.1h0c-10.5,0-24.9-6.1-38.3-13.1-26.9-14.3-81.1-52.2-124.8-133.9-34.8-70.4-42.3-123.4-44.4-166.4-.8-18.6-.1-24.9,1.5-30.1h42.9c7.4,0,13.4,1.7,18.1,5,4.7,3.4,8.4,7.8,10,13.3,1.7,5.5,7.7,104.7,36.3,157.6,18.9,50.3,76.2,93.3,98.7,95.7h0Z" style="fill: #fff;"/>
  </g>
  <g id="k" data-name="logo-icon">
    <path id="m" data-name="keyhole" d="M477.1956,137.3333c-26.7,0-48.4,21.7-48.4,48.5,0,19.3,11.4,35.9,27.7,43.7v60.3c0,11.5,9.3,20.8,20.8,20.8s20.8-9.3,20.8-20.8v-60.3c16.3-7.8,27.6-24.4,27.5001-43.7,0-26.8-21.7-48.5-48.4-48.5ZM504.1956,193.0333h-18.7v18.7h-16.1v-18.7h-18.7v-16.1h18.7v-18.8h16.1v18.8h18.7v16.1Z" style="fill: url(#l);"/>
    <polygon id="n" data-name="cross" points="469.3956 176.9333 450.6956 176.9333 450.6956 193.0333 469.3956 193.0333 469.3956 211.7333 485.4956 211.7333 485.4956 193.0333 504.1956 193.0333 504.1956 176.9333 485.4956 176.9333 485.4956 158.1333 469.3956 158.1333 469.3956 176.9333" style="fill: #fff;"/>
  </g>
  <g id="o" data-name="PV">
    <path d="M903.5956,305.5333v116.3h-70.9v-116.3l-110.7999-189.5h62.5c6.2,0,11,1.4,14.7,4.3,3.6,2.9,6.6,6.5,8.8,11l43.2,89c3.5,7.1,6.7,13.7,9.6,19.7,3,6,5.6,11.9,7.8,17.9,2.1-6,4.6-12,7.6-18s6.1-12.5,9.4-19.5l42.8-89c.8-1.8,2-3.6,3.5-5.5,1.5-1.8,3.1-3.5,5-4.9s4.1-2.7,6.5-3.6c2.4-.9,5.1-1.3,8.1-1.3h62.9l-110.7,189.4h0Z" style="fill: #fff;"/>
    <path d="M79.9956,320.2333v102.2H8.9956V116.7333h107.8c21.5,0,40,2.5,55.5,7.6,15.4,5.1,28.2,12.2,38.2,21.1,10,9,17.3,19.5,22.2,31.7,4.7,12.2,7.1,25.3,7.1,39.4,0,15.3-2.4,29.2-7.3,42-4.9,12.8-12.4,23.7-22.5,32.7-10.1,9.1-22.8,16.2-38.3,21.3s-33.7,7.6-54.9,7.6h-36.8v.1h0ZM79.9956,266.8333h36.9c18.5,0,31.7-4.4,39.9-13.2,8.1-8.8,12.2-21.1,12.2-36.9,0-7-1-13.3-3.1-19.1-2.1-5.7-5.3-10.7-9.6-14.8-4.3-4.2-9.6-7.3-16.2-9.6-6.6-2.3-14.2-3.3-23.2-3.3h-36.9v96.9h0Z" style="fill: #fff;"/>
  </g>
</svg>