<?xml version="1.0" encoding="UTF-8"?>
<svg id="d" data-name="white" xmlns="http://www.w3.org/2000/svg" xmlns:xlink="http://www.w3.org/1999/xlink" viewBox="0 0 1955.9055 510.2362">
  <defs>
    <linearGradient id="k" data-name="keyhole" x1="419.6668" y1="188.6166" x2="524.7375" y2="249.276" gradientUnits="userSpaceOnUse">
      <stop offset="0" stop-color="#ee7159"/>
      <stop offset=".85" stop-color="#e62e27"/>
    </linearGradient>
    <linearGradient id="o" data-name="font-red" x1="1071.8757" y1="490.0644" x2="1854.0798" y2="38.4587" gradientUnits="userSpaceOnUse">
      <stop offset="0" stop-color="#ee7159"/>
      <stop offset=".3" stop-color="#e62e27"/>
    </linearGradient>
  </defs>
  <g id="e" data-name="logo-shield">
    <path id="f" data-name="bg" d="M477.4456,377.4295c.0098.001.0201.0029.0299.0039,22.5-2.4,80-45.4,98.9-95.7,28.7-52.9,34.6-152.1,36.3-157.6s5.4-10,10-13.3c4.7-3.3,10.7-5,18.1-5h42.9c.0042.0129.0082.0262.0125.0392-3.1755-12.1116-12.0338-22.678-24.2125-27.7393L493.4755,8.7333c-4.2-1.7999-11.5299-3.2-16.0299-3.2h-.1608c-4.6.0001-11.6701,1.4001-15.8701,3.2002l-165.9,69.3999c-12.245,5.056-21.1113,15.6061-24.2982,27.7021l.0157-.0021h42.9826c7.4,0,13.4,1.7,18.1,5,4.7,3.4,8.4,7.8,10,13.3,1.7,5.5,7.7,104.7,36.3,157.6,18.8918,50.2782,76.1498,93.262,98.6701,95.6961h.1608Z" style="fill: #fff; isolation: isolate; opacity: .4;"/>
    <path id="g" data-name="bg-r" d="M576.2147,281.7335c28.7-52.9,34.6-152.1,36.3-157.6s5.4-10,10-13.3c4.7-3.3,10.7-5,18.1-5h42.9c.0042.0129.0082.0262.0125.0392-3.1755-12.1116-12.0338-22.678-24.2125-27.7393L493.3147,8.7333c-4.2-1.7999-11.5299-3.2-16.0299-3.2v371.8962c.0098.001.0201.0029.0299.0039,22.5-2.4,80-45.4,98.9-95.7Z" style="fill: #fff; isolation: isolate; opacity: .2;"/>
    <path id="h" data-name="v-shape" d="M477.3147,377.4335c22.5-2.4,80-45.4,98.9-95.7,28.7-52.9,34.6-152.1,36.3-157.6,1.7-5.5,5.4-10,10-13.3,4.7-3.3,10.7-5,18.1-5h42.9c1.7,5.2,2.4,11.5,1.5,30.1h0c-2.1,42.9-9.5,96-44.4,166.4-43.8,81.8-98,119.6-124.8,133.9-13.4,7-28,13.1-38.5,13.1h0c-10.5,0-24.9-6.1-38.3-13.1-26.9-14.3-81.1-52.2-124.8-133.9-34.8-70.4-42.3-123.4-44.4-166.4-.8-18.6-.1-24.9,1.5-30.1h42.9c7.4,0,13.4,1.7,18.1,5,4.7,3.4,8.4,7.8,10,13.3,1.7,5.5,7.7,104.7,36.3,157.6,18.9,50.3,76.2,93.3,98.7,95.7h0Z" style="fill: #fff;"/>
  </g>
  <g id="j" data-name="logo-icon">
    <path id="l" data-name="keyhole" d="M477.1956,137.3333c-26.7,0-48.4,21.7-48.4,48.5,0,19.3,11.4,35.9,27.7,43.7v60.3c0,11.5,9.3,20.8,20.8,20.8s20.8-9.3,20.8-20.8v-60.3c16.3-7.8,27.6-24.4,27.5001-43.7,0-26.8-21.7-48.5-48.4-48.5ZM504.1956,193.0333h-18.7v18.7h-16.1v-18.7h-18.7v-16.1h18.7v-18.8h16.1v18.8h18.7v16.1Z" style="fill: url(#k);"/>
    <polygon id="m" data-name="cross" points="469.3956 176.9333 450.6956 176.9333 450.6956 193.0333 469.3956 193.0333 469.3956 211.7333 485.4956 211.7333 485.4956 193.0333 504.1956 193.0333 504.1956 176.9333 485.4956 176.9333 485.4956 158.1333 469.3956 158.1333 469.3956 176.9333" style="fill: #fff;"/>
  </g>
  <g id="n" data-name="PV">
    <path d="M903.5956,305.5333v116.3h-70.9v-116.3l-110.7999-189.5h62.5c6.2,0,11,1.4,14.7,4.3,3.6,2.9,6.6,6.5,8.8,11l43.2,89c3.5,7.1,6.7,13.7,9.6,19.7,3,6,5.6,11.9,7.8,17.9,2.1-6,4.6-12,7.6-18s6.1-12.5,9.4-19.5l42.8-89c.8-1.8,2-3.6,3.5-5.5,1.5-1.8,3.1-3.5,5-4.9s4.1-2.7,6.5-3.6c2.4-.9,5.1-1.3,8.1-1.3h62.9l-110.7,189.4h0Z" style="fill: #fff;"/>
    <path d="M79.9956,320.2333v102.2H8.9956V116.7333h107.8c21.5,0,40,2.5,55.5,7.6,15.4,5.1,28.2,12.2,38.2,21.1,10,9,17.3,19.5,22.2,31.7,4.7,12.2,7.1,25.3,7.1,39.4,0,15.3-2.4,29.2-7.3,42-4.9,12.8-12.4,23.7-22.5,32.7-10.1,9.1-22.8,16.2-38.3,21.3s-33.7,7.6-54.9,7.6h-36.8v.1h0ZM79.9956,266.8333h36.9c18.5,0,31.7-4.4,39.9-13.2,8.1-8.8,12.2-21.1,12.2-36.9,0-7-1-13.3-3.1-19.1-2.1-5.7-5.3-10.7-9.6-14.8-4.3-4.2-9.6-7.3-16.2-9.6-6.6-2.3-14.2-3.3-23.2-3.3h-36.9v96.9h0Z" style="fill: #fff;"/>
  </g>
  <path d="M1097.7419,106.6903v315.1426h-65.2598V106.6903h65.2598ZM1247.6247,200.16c16.5586,0,31.6465,2.5986,45.2617,7.7891,13.6113,5.1934,25.2949,12.6309,35.0508,22.3145,9.752,9.6836,17.3311,21.4395,22.7354,35.2607,5.4004,13.8252,8.1055,29.3672,8.1055,46.6299,0,17.4033-2.7051,33.0869-8.1055,47.0498-5.4043,13.9668-12.9834,25.8252-22.7354,35.5771-9.7559,9.7568-21.4395,17.2627-35.0508,22.5254-13.6152,5.2627-28.7031,7.8945-45.2617,7.8945-16.7031,0-31.8926-2.6318-45.5762-7.8945s-25.4727-12.7686-35.3672-22.5254c-9.8945-9.752-17.5449-21.6104-22.9453-35.5771-5.4043-13.9629-8.1055-29.6465-8.1055-47.0498,0-17.2627,2.7012-32.8047,8.1055-46.6299,5.4004-13.8213,13.0508-25.5771,22.9453-35.2607s21.6836-17.1211,35.3672-22.3145c13.6836-5.1904,28.873-7.7891,45.5762-7.7891ZM1247.6247,376.782c15.0156,0,26.0684-5.2959,33.1562-15.8936,7.0859-10.5947,10.6309-26.6992,10.6309-48.3135s-3.5449-37.6826-10.6309-48.208c-7.0879-10.5264-18.1406-15.7891-33.1562-15.7891-15.4395,0-26.7354,5.2627-33.8926,15.7891-7.1582,10.5254-10.7363,26.5967-10.7363,48.208s3.5781,37.7188,10.7363,48.3135c7.1572,10.5977,18.4531,15.8936,33.8926,15.8936ZM1552.0251,255.3143c-1.9668,2.3887-3.8613,4.2832-5.6836,5.6846-1.8252,1.4043-4.4209,2.1045-7.7891,2.1045-3.2305,0-6.1406-.7695-8.7363-2.3154-2.5986-1.543-5.5098-3.2627-8.7363-5.1572-3.2305-1.8945-7.0195-3.6123-11.3682-5.1582-4.3516-1.542-9.7559-2.3154-16.21-2.3154-7.999,0-14.9131,1.4736-20.7354,4.4209-5.8252,2.9473-10.6309,7.1572-14.4209,12.6309-3.7891,5.4736-6.5977,12.1768-8.4199,20.1045-1.8262,7.9307-2.7373,16.877-2.7373,26.8408,0,20.9131,4.0332,36.9814,12.1055,48.208,8.0684,11.2295,19.1895,16.8408,33.3662,16.8408,7.5791,0,13.5781-.9473,17.999-2.8418s8.1738-3.999,11.2627-6.3154c3.0859-2.3154,5.9277-4.4531,8.5264-6.4209,2.5947-1.9629,5.8584-2.9473,9.7891-2.9473,5.1904,0,9.1211,1.8955,11.7881,5.6846l18.9473,23.3672c-6.7373,7.7197-13.8252,13.999-21.2627,18.8408-7.4404,4.8418-15.0518,8.6318-22.8408,11.3682s-15.6143,4.6309-23.4727,5.6836c-7.8613,1.0527-15.5088,1.5791-22.9463,1.5791-13.335,0-26.0713-2.5264-38.209-7.5781-12.1406-5.0527-22.8076-12.3848-31.998-21.999-9.1934-9.6113-16.4922-21.4365-21.8936-35.4727-5.4043-14.0322-8.1045-30.0312-8.1045-47.9971,0-15.7168,2.3477-30.4199,7.0518-44.1035,4.7002-13.6836,11.6475-25.541,20.8408-35.5771,9.1904-10.0322,20.5586-17.9268,34.1035-23.6826,13.543-5.7529,29.2256-8.6309,47.0508-8.6309,17.1211,0,32.1367,2.7363,45.0508,8.21,12.9102,5.4736,24.5576,13.4727,34.9453,23.999l-17.2627,22.9453ZM1749.9079,421.8328c-6.1768,0-10.8408-.8418-13.999-2.5264-3.1582-1.6836-5.7891-5.1904-7.8945-10.5254l-4.6309-12c-5.4736,4.6318-10.7363,8.7041-15.7891,12.21-5.0527,3.5098-10.2822,6.4932-15.6836,8.9473-5.4043,2.457-11.1572,4.2793-17.2617,5.4736-6.1055,1.1904-12.8779,1.7891-20.3154,1.7891-9.9668,0-19.0186-1.3027-27.1562-3.9072-8.1416-2.6055-15.0518-6.4404-20.7363-11.5098-5.6836-5.0684-10.0713-11.3711-13.1572-18.9033-3.0879-7.5332-4.6309-16.2266-4.6309-26.0811,0-7.7432,1.9639-15.7002,5.8945-23.8672,3.9268-8.1641,10.7363-15.5918,20.4199-22.2822,9.6836-6.6875,22.7354-12.2822,39.1562-16.7881,16.4199-4.5068,37.1191-6.7598,62.1016-6.7598v-9.3486c0-12.8877-2.6309-22.2031-7.8945-27.9395-5.2627-5.7363-12.7354-8.6045-22.4199-8.6045-7.7197,0-14.0352.8418-18.9463,2.5264-4.9141,1.6836-9.2988,3.5781-13.1572,5.6836-3.8613,2.1055-7.6143,4-11.2627,5.6836-3.6504,1.6846-7.999,2.5264-13.0518,2.5264-4.4932,0-8.3154-1.085-11.4727-3.2627-3.1582-2.1748-5.6514-4.875-7.4736-8.1055l-11.7891-20.4199c13.1904-11.6465,27.8213-20.3145,43.8926-25.998,16.0684-5.6846,33.2949-8.5264,51.6816-8.5264,13.1904,0,25.085,2.1416,35.6826,6.4209,10.5947,4.2832,19.5781,10.2461,26.9463,17.8936,7.3682,7.6514,13.0156,16.7363,16.9463,27.2617,3.9277,10.5264,5.8945,22.0352,5.8945,34.5254v136.4141h-29.8936ZM1674.9646,382.0457c8.4209,0,15.7891-1.4736,22.1045-4.4209s12.6992-7.7168,19.1562-14.3154v-29.8936c-13.0518,0-23.7881.8525-32.209,2.5498-8.4199,1.6973-15.0879,3.8223-19.999,6.3711-4.9141,2.5488-8.3154,5.4502-10.21,8.707-1.8945,3.2559-2.8418,6.792-2.8418,10.6143,0,7.5059,2.0332,12.7793,6.1055,15.8213,4.0684,3.0459,10.0322,4.5664,17.8936,4.5664ZM1893.4734,106.6903v315.1426h-65.2598V106.6903h65.2598Z" style="fill: url(#o);"/>
</svg>