<?xml version="1.0" encoding="UTF-8"?>
<svg id="g" data-name="color" xmlns="http://www.w3.org/2000/svg" width="904mm" height="180mm" xmlns:xlink="http://www.w3.org/1999/xlink" viewBox="0 0 2562.52 510.24">
  <defs>
    <linearGradient id="h" data-name="font-red" x1="1122.53" y1="627.07" x2="2216.26" y2="-4.39" gradientUnits="userSpaceOnUse">
      <stop offset="0" stop-color="#ee7159"/>
      <stop offset=".3" stop-color="#e62e27"/>
    </linearGradient>
    <linearGradient id="n" data-name="keyhole" x1="419.01" y1="189.28" x2="524.08" y2="249.94" gradientUnits="userSpaceOnUse">
      <stop offset="0" stop-color="#ee7159"/>
      <stop offset=".85" stop-color="#e62e27"/>
    </linearGradient>
  </defs>
  <path d="M1004.76,423.1v-218.31h38.74c3.23,0,5.93.28,8.1.84,2.17.56,4,1.44,5.47,2.63,1.47,1.19,2.59,2.77,3.37,4.74.77,1.97,1.44,4.35,2,7.16l3.58,20.42c8-12.35,16.98-22.1,26.95-29.26,9.96-7.16,20.84-10.74,32.63-10.74,9.96,0,17.96,2.39,24,7.16l-8.42,48c-.56,2.95-1.68,5.02-3.37,6.21-1.68,1.19-3.93,1.79-6.74,1.79-2.39,0-5.19-.32-8.42-.95-3.23-.63-7.3-.95-12.21-.95-17.12,0-30.6,9.12-40.42,27.37v133.89h-65.26ZM1272.12,201.42c14.45,0,27.68,2.25,39.68,6.74,12,4.49,22.31,11.02,30.95,19.58,8.63,8.56,15.37,19.05,20.21,31.47,4.84,12.42,7.26,26.49,7.26,42.21,0,4.92-.21,8.91-.63,12-.42,3.09-1.2,5.55-2.32,7.37-1.12,1.83-2.63,3.09-4.53,3.79-1.89.7-4.32,1.05-7.26,1.05h-125.89c2.1,18.25,7.65,31.47,16.63,39.68,8.98,8.21,20.56,12.32,34.74,12.32,7.58,0,14.1-.91,19.58-2.74,5.47-1.82,10.35-3.86,14.63-6.11,4.28-2.24,8.21-4.28,11.79-6.1,3.58-1.82,7.33-2.74,11.26-2.74,5.19,0,9.12,1.9,11.79,5.68l18.95,23.37c-6.74,7.72-14,14-21.79,18.84s-15.79,8.63-24,11.37c-8.21,2.74-16.42,4.63-24.63,5.68s-16.04,1.58-23.47,1.58c-15.3,0-29.65-2.49-43.05-7.47-13.4-4.98-25.12-12.38-35.16-22.21-10.04-9.82-17.97-22.03-23.79-36.63-5.83-14.59-8.74-31.58-8.74-50.95,0-14.59,2.49-28.42,7.47-41.47,4.98-13.05,12.14-24.49,21.47-34.31,9.33-9.82,20.63-17.61,33.89-23.37,13.26-5.75,28.24-8.63,44.94-8.63ZM1273.38,246.47c-12.49,0-22.25,3.55-29.26,10.63-7.02,7.09-11.65,17.3-13.89,30.63h81.47c0-5.19-.67-10.24-2-15.16-1.33-4.91-3.51-9.3-6.53-13.16-3.02-3.86-6.98-6.98-11.89-9.37-4.91-2.38-10.88-3.58-17.89-3.58ZM1407.68,423.1v-218.31h40.42c4.07,0,7.47.91,10.21,2.74,2.74,1.83,4.67,4.56,5.79,8.21l3.58,11.79c3.65-3.79,7.44-7.26,11.37-10.42,3.93-3.16,8.17-5.89,12.74-8.21,4.56-2.32,9.47-4.14,14.74-5.47,5.26-1.33,11.05-2,17.37-2,13.19,0,24.1,3.4,32.74,10.21,8.63,6.81,15.19,15.89,19.68,27.26,3.65-6.74,8.1-12.49,13.37-17.26,5.26-4.77,10.95-8.63,17.05-11.58,6.11-2.95,12.56-5.12,19.37-6.53,6.8-1.4,13.58-2.1,20.31-2.1,12.49,0,23.58,1.86,33.26,5.58,9.68,3.72,17.79,9.12,24.31,16.21,6.53,7.09,11.47,15.79,14.84,26.1,3.37,10.32,5.05,22,5.05,35.05v138.73h-65.26v-138.73c0-22.59-9.68-33.89-29.05-33.89-8.84,0-16.18,2.91-22,8.74-5.83,5.83-8.74,14.21-8.74,25.16v138.73h-65.26v-138.73c0-12.49-2.46-21.26-7.37-26.31-4.91-5.05-12.14-7.58-21.68-7.58-5.89,0-11.47,1.33-16.74,4-5.26,2.67-10.21,6.25-14.84,10.74v157.89h-65.26ZM1867.45,201.42c16.56,0,31.65,2.6,45.26,7.79,13.61,5.19,25.29,12.63,35.05,22.31,9.75,9.68,17.33,21.44,22.74,35.26,5.4,13.83,8.1,29.37,8.1,46.63s-2.7,33.09-8.1,47.05c-5.4,13.97-12.98,25.83-22.74,35.58-9.76,9.76-21.44,17.26-35.05,22.53-13.61,5.26-28.7,7.89-45.26,7.89s-31.89-2.63-45.58-7.89-25.47-12.77-35.37-22.53c-9.89-9.75-17.55-21.61-22.95-35.58-5.4-13.96-8.11-29.65-8.11-47.05s2.7-32.8,8.11-46.63c5.4-13.82,13.05-25.58,22.95-35.26,9.89-9.68,21.68-17.12,35.37-22.31,13.68-5.19,28.87-7.79,45.58-7.79ZM1867.45,378.04c15.02,0,26.07-5.3,33.16-15.89,7.08-10.59,10.63-26.7,10.63-48.31s-3.55-37.68-10.63-48.21c-7.09-10.53-18.14-15.79-33.16-15.79s-26.74,5.26-33.89,15.79c-7.16,10.53-10.74,26.6-10.74,48.21s3.58,37.72,10.74,48.31c7.16,10.6,18.45,15.89,33.89,15.89ZM2091.01,426.46c-10.39,0-19.54-1.51-27.47-4.53-7.93-3.02-14.6-7.29-20-12.84-5.4-5.54-9.51-12.24-12.31-20.1-2.81-7.86-4.21-16.63-4.21-26.31v-112.84h-18.53c-3.37,0-6.25-1.08-8.63-3.26-2.39-2.17-3.58-5.37-3.58-9.58v-25.47l34.74-6.74,12.84-53.26c1.68-6.74,6.45-10.1,14.31-10.1h34.1v63.79h53.05v44.63h-53.05v108.42c0,5.05,1.23,9.23,3.68,12.53,2.45,3.3,6,4.95,10.63,4.95,2.38,0,4.38-.24,6-.74,1.61-.49,3.02-1.05,4.21-1.68,1.19-.63,2.32-1.19,3.37-1.68,1.05-.49,2.28-.74,3.68-.74,1.96,0,3.54.46,4.74,1.37,1.19.92,2.42,2.35,3.68,4.32l19.79,30.95c-8.42,6.32-17.89,11.05-28.42,14.21-10.53,3.16-21.4,4.74-32.63,4.74ZM2276.26,201.42c14.45,0,27.68,2.25,39.68,6.74,12,4.49,22.32,11.02,30.95,19.58,8.63,8.56,15.37,19.05,20.21,31.47,4.84,12.42,7.26,26.49,7.26,42.21,0,4.92-.21,8.91-.63,12-.42,3.09-1.19,5.55-2.32,7.37-1.12,1.83-2.63,3.09-4.53,3.79-1.89.7-4.32,1.05-7.26,1.05h-125.89c2.1,18.25,7.65,31.47,16.63,39.68,8.98,8.21,20.56,12.32,34.74,12.32,7.58,0,14.1-.91,19.58-2.74,5.47-1.82,10.35-3.86,14.63-6.11,4.28-2.24,8.21-4.28,11.79-6.1,3.58-1.82,7.33-2.74,11.26-2.74,5.19,0,9.12,1.9,11.79,5.68l18.95,23.37c-6.74,7.72-14,14-21.79,18.84s-15.79,8.63-24,11.37-16.42,4.63-24.63,5.68c-8.21,1.05-16.04,1.58-23.47,1.58-15.3,0-29.65-2.49-43.05-7.47-13.4-4.98-25.12-12.38-35.16-22.21-10.04-9.82-17.97-22.03-23.79-36.63-5.83-14.59-8.74-31.58-8.74-50.95,0-14.59,2.49-28.42,7.47-41.47,4.98-13.05,12.14-24.49,21.47-34.31,9.33-9.82,20.63-17.61,33.89-23.37,13.26-5.75,28.24-8.63,44.95-8.63ZM2277.53,246.47c-12.49,0-22.25,3.55-29.26,10.63-7.02,7.09-11.65,17.3-13.89,30.63h81.47c0-5.19-.67-10.24-2-15.16-1.34-4.91-3.51-9.3-6.53-13.16-3.02-3.86-6.98-6.98-11.89-9.37-4.91-2.38-10.88-3.58-17.89-3.58Z" fill="url(#h)" stroke-width="0"/>
  <g>
    <path d="M2199.27,134.99c0,5.86-1.01,11.27-3.03,16.23-2.02,4.95-4.87,9.24-8.55,12.86s-8.1,6.44-13.28,8.46c-5.18,2.02-10.92,3.03-17.23,3.03h-31.51v-81.12h31.51c6.31,0,12.05,1.02,17.23,3.06,5.18,2.04,9.6,4.86,13.28,8.46,3.67,3.6,6.52,7.88,8.55,12.83,2.02,4.96,3.03,10.35,3.03,16.17ZM2180.01,134.99c0-4.01-.52-7.63-1.56-10.86s-2.53-5.97-4.48-8.21c-1.95-2.25-4.33-3.97-7.15-5.18s-6.03-1.81-9.63-1.81h-12.58v52.17h12.58c3.6,0,6.81-.6,9.63-1.81,2.82-1.21,5.21-2.93,7.15-5.18,1.95-2.25,3.44-4.98,4.48-8.21,1.04-3.23,1.56-6.87,1.56-10.91Z" fill="#0967ad" stroke-width="0"/>
    <path d="M2233.01,116.95c3.82,0,7.32.59,10.49,1.78,3.17,1.19,5.9,2.91,8.18,5.18,2.28,2.26,4.06,5.04,5.35,8.32,1.28,3.28,1.92,7.01,1.92,11.16,0,1.3-.06,2.36-.17,3.17-.11.82-.32,1.47-.61,1.95s-.7.82-1.2,1c-.5.19-1.14.28-1.92.28h-33.29c.56,4.83,2.02,8.32,4.4,10.49,2.37,2.17,5.44,3.26,9.19,3.26,2,0,3.73-.24,5.18-.72,1.45-.48,2.74-1.02,3.87-1.61,1.13-.59,2.17-1.13,3.12-1.61s1.94-.72,2.98-.72c1.37,0,2.41.5,3.12,1.5l5.01,6.18c-1.78,2.04-3.7,3.7-5.76,4.98-2.06,1.28-4.18,2.28-6.35,3.01-2.17.72-4.34,1.22-6.51,1.5-2.17.28-4.24.42-6.21.42-4.05,0-7.84-.66-11.39-1.98-3.54-1.32-6.64-3.28-9.3-5.87-2.65-2.6-4.75-5.83-6.29-9.69-1.54-3.86-2.31-8.35-2.31-13.47,0-3.86.66-7.52,1.98-10.97,1.32-3.45,3.21-6.48,5.68-9.07,2.47-2.6,5.46-4.66,8.96-6.18,3.51-1.52,7.47-2.28,11.89-2.28ZM2233.34,128.87c-3.3,0-5.88.94-7.74,2.81-1.86,1.88-3.08,4.58-3.67,8.1h21.55c0-1.37-.18-2.71-.53-4.01-.35-1.3-.93-2.46-1.73-3.48-.8-1.02-1.85-1.85-3.15-2.48-1.3-.63-2.88-.95-4.73-.95Z" fill="#0967ad" stroke-width="0"/>
    <path d="M2304.16,130.48c-.45.71-.92,1.21-1.42,1.5-.5.3-1.14.45-1.92.45s-1.63-.18-2.45-.53c-.82-.35-1.7-.73-2.64-1.14s-2.01-.79-3.2-1.14c-1.19-.35-2.54-.53-4.06-.53-2.19,0-3.87.42-5.04,1.25s-1.75,2-1.75,3.48c0,1.08.38,1.97,1.14,2.67.76.71,1.77,1.33,3.03,1.86,1.26.54,2.69,1.05,4.29,1.53,1.6.48,3.23,1.02,4.9,1.61,1.67.59,3.3,1.29,4.9,2.09,1.6.8,3.03,1.78,4.29,2.95s2.27,2.59,3.03,4.26c.76,1.67,1.14,3.67,1.14,6.01,0,2.86-.52,5.49-1.56,7.91-1.04,2.41-2.59,4.49-4.65,6.24-2.06,1.74-4.6,3.1-7.63,4.06-3.03.96-6.5,1.45-10.44,1.45-1.97,0-3.94-.19-5.9-.56s-3.87-.87-5.71-1.5c-1.84-.63-3.54-1.38-5.09-2.25-1.56-.87-2.9-1.81-4.01-2.81l4.01-6.35c.48-.74,1.06-1.33,1.73-1.75.67-.43,1.54-.64,2.62-.64,1,0,1.9.22,2.7.67s1.66.93,2.59,1.45c.93.52,2.01,1,3.26,1.45,1.24.45,2.81.67,4.71.67,1.34,0,2.47-.14,3.4-.42s1.67-.66,2.23-1.14c.56-.48.96-1.02,1.22-1.61.26-.59.39-1.21.39-1.84,0-1.15-.39-2.1-1.17-2.84-.78-.74-1.8-1.38-3.06-1.92-1.26-.54-2.7-1.04-4.31-1.5-1.61-.46-3.26-.99-4.93-1.59-1.67-.59-3.31-1.31-4.93-2.14s-3.05-1.89-4.31-3.17c-1.26-1.28-2.28-2.85-3.06-4.7-.78-1.86-1.17-4.1-1.17-6.74,0-2.45.47-4.78,1.42-6.99.95-2.21,2.37-4.15,4.26-5.82,1.89-1.67,4.27-3,7.13-3.98,2.86-.98,6.2-1.48,10.02-1.48,2.08,0,4.09.19,6.04.56,1.95.37,3.78.89,5.48,1.56,1.71.67,3.27,1.46,4.68,2.37,1.41.91,2.65,1.9,3.73,2.98l-3.9,6.07Z" fill="#0967ad" stroke-width="0"/>
    <path d="M2335.11,92.23v46.71h2.56c1.08,0,1.9-.15,2.48-.45.58-.3,1.12-.83,1.64-1.61l10.91-16.26c.63-.96,1.38-1.67,2.25-2.12.87-.45,1.98-.67,3.31-.67h15.81l-14.92,20.54c-.71.97-1.48,1.82-2.31,2.56-.84.74-1.74,1.41-2.7,2,1.67,1.26,3.12,2.93,4.34,5.01l16.26,27.61h-15.59c-1.3,0-2.42-.21-3.37-.64-.95-.43-1.72-1.18-2.31-2.25l-10.91-20.43c-.52-.93-1.06-1.53-1.61-1.81s-1.39-.42-2.5-.42h-3.34v25.55h-17.26v-83.34h17.26Z" fill="#0967ad" stroke-width="0"/>
    <path d="M2402.25,176.47c-2.75,0-5.17-.4-7.26-1.2-2.1-.8-3.86-1.93-5.29-3.4-1.43-1.47-2.52-3.24-3.26-5.32-.74-2.08-1.11-4.4-1.11-6.96v-29.84h-4.9c-.89,0-1.65-.29-2.28-.86-.63-.58-.95-1.42-.95-2.53v-6.74l9.19-1.78,3.4-14.09c.45-1.78,1.71-2.67,3.79-2.67h9.02v16.87h14.03v11.8h-14.03v28.67c0,1.34.32,2.44.97,3.31.65.87,1.59,1.31,2.81,1.31.63,0,1.16-.06,1.59-.19.43-.13.8-.28,1.11-.45s.61-.32.89-.45.6-.2.97-.2c.52,0,.94.12,1.25.36.31.24.64.62.97,1.14l5.23,8.18c-2.23,1.67-4.73,2.92-7.52,3.76-2.78.83-5.66,1.25-8.63,1.25Z" fill="#0967ad" stroke-width="0"/>
    <path d="M2452.25,116.95c4.38,0,8.37.69,11.97,2.06s6.69,3.34,9.27,5.9c2.58,2.56,4.58,5.67,6.01,9.33,1.43,3.66,2.14,7.77,2.14,12.33s-.71,8.75-2.14,12.44c-1.43,3.69-3.43,6.83-6.01,9.41-2.58,2.58-5.67,4.56-9.27,5.96-3.6,1.39-7.59,2.09-11.97,2.09s-8.43-.7-12.05-2.09c-3.62-1.39-6.74-3.38-9.35-5.96-2.62-2.58-4.64-5.72-6.07-9.41-1.43-3.69-2.14-7.84-2.14-12.44s.71-8.68,2.14-12.33c1.43-3.66,3.45-6.76,6.07-9.33,2.62-2.56,5.73-4.53,9.35-5.9,3.62-1.37,7.64-2.06,12.05-2.06ZM2452.25,163.66c3.97,0,6.89-1.4,8.77-4.2,1.87-2.8,2.81-7.06,2.81-12.78s-.94-9.97-2.81-12.75c-1.88-2.78-4.8-4.18-8.77-4.18s-7.07,1.39-8.96,4.18c-1.89,2.78-2.84,7.03-2.84,12.75s.95,9.98,2.84,12.78c1.89,2.8,4.88,4.2,8.96,4.2Z" fill="#0967ad" stroke-width="0"/>
    <path d="M2491.11,193.89v-76.05h10.69c1.08,0,1.98.24,2.7.72.72.48,1.23,1.21,1.53,2.17l1.28,4.23c1.11-1.23,2.31-2.34,3.59-3.34,1.28-1,2.65-1.87,4.12-2.59s3.04-1.29,4.73-1.7c1.69-.41,3.54-.61,5.54-.61,3.01,0,5.79.67,8.35,2s4.77,3.27,6.62,5.79c1.86,2.52,3.31,5.61,4.37,9.27,1.06,3.66,1.59,7.8,1.59,12.44,0,4.34-.6,8.35-1.81,12.03-1.21,3.67-2.9,6.87-5.07,9.58-2.17,2.71-4.77,4.83-7.79,6.35s-6.38,2.28-10.05,2.28c-3.01,0-5.53-.43-7.57-1.28-2.04-.85-3.9-2-5.57-3.45v22.16h-17.26ZM2519.28,129.92c-1.26,0-2.4.12-3.42.36-1.02.24-1.97.58-2.84,1.03-.87.45-1.68,1.01-2.42,1.7-.74.69-1.48,1.48-2.23,2.37v24.5c1.3,1.45,2.71,2.46,4.23,3.03,1.52.58,3.12.86,4.79.86s3.06-.31,4.4-.95c1.34-.63,2.5-1.64,3.48-3.03.98-1.39,1.75-3.2,2.31-5.43.56-2.23.83-4.94.83-8.13s-.22-5.6-.67-7.68c-.45-2.08-1.07-3.76-1.87-5.04-.8-1.28-1.75-2.2-2.87-2.76-1.11-.56-2.36-.84-3.73-.84Z" fill="#0967ad" stroke-width="0"/>
  </g>
  <g id="i" data-name="logo-shield">
    <path id="j" data-name="bg" d="M476.78,378.09s.02,0,.03,0c22.5-2.4,80-45.4,98.9-95.7,28.7-52.9,34.6-152.1,36.3-157.6s5.4-10,10-13.3c4.7-3.3,10.7-5,18.1-5h42.9s0,.03.01.04c-3.18-12.11-12.03-22.68-24.21-27.74L492.81,9.4c-4.2-1.8-11.53-3.2-16.03-3.2h-.16c-4.6,0-11.67,1.4-15.87,3.2l-165.9,69.4c-12.25,5.06-21.11,15.61-24.3,27.7h.02s42.98,0,42.98,0c7.4,0,13.4,1.7,18.1,5,4.7,3.4,8.4,7.8,10,13.3,1.7,5.5,7.7,104.7,36.3,157.6,18.89,50.28,76.15,93.26,98.67,95.7h.16Z" fill="#0967ad" isolation="isolate" opacity=".4" stroke-width="0"/>
    <path id="k" data-name="bg-r" d="M575.55,282.4c28.7-52.9,34.6-152.1,36.3-157.6s5.4-10,10-13.3c4.7-3.3,10.7-5,18.1-5h42.9s0,.03.01.04c-3.18-12.11-12.03-22.68-24.21-27.74L492.65,9.4c-4.2-1.8-11.53-3.2-16.03-3.2v371.9s.02,0,.03,0c22.5-2.4,80-45.4,98.9-95.7Z" fill="#0967ad" isolation="isolate" opacity=".2" stroke-width="0"/>
    <path id="l" data-name="v-shape" d="M476.65,378.1c22.5-2.4,80-45.4,98.9-95.7,28.7-52.9,34.6-152.1,36.3-157.6,1.7-5.5,5.4-10,10-13.3,4.7-3.3,10.7-5,18.1-5h42.9c1.7,5.2,2.4,11.5,1.5,30.1h0c-2.1,42.9-9.5,96-44.4,166.4-43.8,81.8-98,119.6-124.8,133.9-13.4,7-28,13.1-38.5,13.1h0c-10.5,0-24.9-6.1-38.3-13.1-26.9-14.3-81.1-52.2-124.8-133.9-34.8-70.4-42.3-123.4-44.4-166.4-.8-18.6-.1-24.9,1.5-30.1h42.9c7.4,0,13.4,1.7,18.1,5,4.7,3.4,8.4,7.8,10,13.3,1.7,5.5,7.7,104.7,36.3,157.6,18.9,50.3,76.2,93.3,98.7,95.7h0Z" fill="#0967ad" stroke-width="0"/>
  </g>
  <g id="m" data-name="logo-icon">
    <path id="o" data-name="keyhole" d="M476.53,138c-26.7,0-48.4,21.7-48.4,48.5,0,19.3,11.4,35.9,27.7,43.7v60.3c0,11.5,9.3,20.8,20.8,20.8s20.8-9.3,20.8-20.8v-60.3c16.3-7.8,27.6-24.4,27.5-43.7,0-26.8-21.7-48.5-48.4-48.5ZM503.53,193.7h-18.7v18.7h-16.1v-18.7h-18.7v-16.1h18.7v-18.8h16.1v18.8h18.7v16.1Z" fill="url(#n)" stroke-width="0"/>
    <polygon id="p" data-name="cross" points="468.73 177.6 450.03 177.6 450.03 193.7 468.73 193.7 468.73 212.4 484.83 212.4 484.83 193.7 503.53 193.7 503.53 177.6 484.83 177.6 484.83 158.8 468.73 158.8 468.73 177.6" fill="#fff" stroke-width="0"/>
  </g>
  <g id="q" data-name="PV">
    <path d="M902.93,306.2v116.3h-70.9v-116.3l-110.8-189.5h62.5c6.2,0,11,1.4,14.7,4.3,3.6,2.9,6.6,6.5,8.8,11l43.2,89c3.5,7.1,6.7,13.7,9.6,19.7,3,6,5.6,11.9,7.8,17.9,2.1-6,4.6-12,7.6-18s6.1-12.5,9.4-19.5l42.8-89c.8-1.8,2-3.6,3.5-5.5,1.5-1.8,3.1-3.5,5-4.9,1.9-1.4,4.1-2.7,6.5-3.6,2.4-.9,5.1-1.3,8.1-1.3h62.9l-110.7,189.4h0Z" fill="#0967ad" stroke-width="0"/>
    <path d="M79.33,320.9v102.2H8.33V117.4h107.8c21.5,0,40,2.5,55.5,7.6,15.4,5.1,28.2,12.2,38.2,21.1,10,9,17.3,19.5,22.2,31.7,4.7,12.2,7.1,25.3,7.1,39.4,0,15.3-2.4,29.2-7.3,42-4.9,12.8-12.4,23.7-22.5,32.7-10.1,9.1-22.8,16.2-38.3,21.3s-33.7,7.6-54.9,7.6h-36.8v.1h0ZM79.33,267.5h36.9c18.5,0,31.7-4.4,39.9-13.2,8.1-8.8,12.2-21.1,12.2-36.9,0-7-1-13.3-3.1-19.1-2.1-5.7-5.3-10.7-9.6-14.8-4.3-4.2-9.6-7.3-16.2-9.6-6.6-2.3-14.2-3.3-23.2-3.3h-36.9v96.9h0Z" fill="#0967ad" stroke-width="0"/>
  </g>
</svg>