<?xml version="1.0" encoding="UTF-8"?>
<svg id="g" data-name="color" xmlns="http://www.w3.org/2000/svg" width="868mm" height="180mm" xmlns:xlink="http://www.w3.org/1999/xlink" viewBox="0 0 2460.47 510.24">
  <defs>
    <linearGradient id="h" data-name="font-red" x1="965.8" y1="319.05" x2="1151.2" y2="212" gradientUnits="userSpaceOnUse">
      <stop offset="0" stop-color="#ee7159"/>
      <stop offset=".3" stop-color="#e62e27"/>
    </linearGradient>
    <linearGradient id="i" data-name="font-red" x1="1141.71" y1="371.06" x2="1339.73" y2="256.73" xlink:href="#h"/>
    <linearGradient id="j" data-name="font-red" x1="1384.47" y1="369.13" x2="1576.8" y2="258.09" xlink:href="#h"/>
    <linearGradient id="k" data-name="font-red" x1="1582.23" y1="385.49" x2="1779.78" y2="271.43" xlink:href="#h"/>
    <linearGradient id="l" data-name="font-red" x1="1761.53" y1="319.05" x2="1946.93" y2="212" xlink:href="#h"/>
    <linearGradient id="m" data-name="font-red" x1="1884.05" y1="323.42" x2="2063.36" y2="219.89" xlink:href="#h"/>
    <linearGradient id="n" data-name="font-red" x1="2022.74" y1="379.88" x2="2248.31" y2="249.65" xlink:href="#h"/>
    <linearGradient id="o" data-name="font-red" x1="2259.81" y1="371.49" x2="2448.04" y2="262.82" xlink:href="#h"/>
    <linearGradient id="u" data-name="keyhole" x1="419.01" y1="189.28" x2="524.08" y2="249.94" gradientUnits="userSpaceOnUse">
      <stop offset="0" stop-color="#ee7159"/>
      <stop offset=".85" stop-color="#e62e27"/>
    </linearGradient>
  </defs>
  <g>
    <path d="M1091.13,107.95v315.14h-65.26V107.95h65.26Z" fill="url(#h)" stroke-width="0"/>
    <path d="M1241.01,201.42c16.56,0,31.65,2.6,45.26,7.79,13.61,5.19,25.29,12.63,35.05,22.31,9.75,9.68,17.33,21.44,22.74,35.26,5.4,13.83,8.11,29.37,8.11,46.63s-2.71,33.09-8.11,47.05c-5.4,13.97-12.98,25.83-22.74,35.58s-21.44,17.26-35.05,22.53c-13.61,5.26-28.7,7.89-45.26,7.89s-31.89-2.63-45.58-7.89c-13.68-5.26-25.47-12.77-35.37-22.53-9.89-9.75-17.54-21.61-22.95-35.58-5.4-13.96-8.1-29.65-8.1-47.05s2.7-32.8,8.1-46.63c5.4-13.82,13.05-25.58,22.95-35.26,9.89-9.68,21.68-17.12,35.37-22.31,13.68-5.19,28.87-7.79,45.58-7.79ZM1241.01,378.04c15.02,0,26.07-5.3,33.16-15.89,7.08-10.59,10.63-26.7,10.63-48.31s-3.55-37.68-10.63-48.21c-7.09-10.53-18.14-15.79-33.16-15.79s-26.74,5.26-33.89,15.79c-7.16,10.53-10.74,26.6-10.74,48.21s3.58,37.72,10.74,48.31c7.16,10.6,18.45,15.89,33.89,15.89Z" fill="url(#i)" stroke-width="0"/>
    <path d="M1545.41,256.58c-1.97,2.39-3.86,4.28-5.68,5.68-1.83,1.4-4.42,2.1-7.79,2.1s-6.14-.77-8.74-2.32c-2.6-1.54-5.51-3.26-8.74-5.16-3.23-1.89-7.02-3.61-11.37-5.16-4.35-1.54-9.76-2.32-16.21-2.32-8,0-14.91,1.47-20.74,4.42-5.83,2.95-10.63,7.16-14.42,12.63-3.79,5.47-6.6,12.18-8.42,20.1-1.83,7.93-2.74,16.88-2.74,26.84,0,20.91,4.03,36.98,12.11,48.21,8.07,11.23,19.19,16.84,33.37,16.84,7.58,0,13.58-.95,18-2.84s8.17-4,11.26-6.32c3.09-2.32,5.93-4.45,8.53-6.42,2.59-1.96,5.86-2.95,9.79-2.95,5.19,0,9.12,1.9,11.79,5.68l18.95,23.37c-6.74,7.72-13.83,14-21.26,18.84-7.44,4.84-15.05,8.63-22.84,11.37s-15.61,4.63-23.47,5.68c-7.86,1.05-15.51,1.58-22.95,1.58-13.33,0-26.07-2.53-38.21-7.58-12.14-5.05-22.81-12.38-32-22-9.19-9.61-16.49-21.44-21.89-35.47-5.4-14.03-8.1-30.03-8.1-48,0-15.72,2.35-30.42,7.05-44.1,4.7-13.68,11.65-25.54,20.84-35.58,9.19-10.03,20.56-17.93,34.1-23.68,13.54-5.75,29.23-8.63,47.05-8.63s32.14,2.74,45.05,8.21c12.91,5.47,24.56,13.47,34.95,24l-17.26,22.95Z" fill="url(#j)" stroke-width="0"/>
    <path d="M1743.3,423.1c-6.18,0-10.84-.84-14-2.53-3.16-1.68-5.79-5.19-7.89-10.53l-4.63-12c-5.47,4.63-10.74,8.7-15.79,12.21-5.05,3.51-10.28,6.49-15.68,8.95-5.4,2.46-11.16,4.28-17.26,5.47-6.11,1.19-12.88,1.79-20.32,1.79-9.97,0-19.02-1.3-27.16-3.91-8.14-2.61-15.05-6.44-20.74-11.51-5.68-5.07-10.07-11.37-13.16-18.9-3.09-7.53-4.63-16.23-4.63-26.08,0-7.74,1.96-15.7,5.89-23.87,3.93-8.16,10.74-15.59,20.42-22.28,9.68-6.69,22.74-12.28,39.16-16.79,16.42-4.51,37.12-6.76,62.1-6.76v-9.35c0-12.89-2.63-22.2-7.89-27.94-5.26-5.74-12.74-8.6-22.42-8.6-7.72,0-14.04.84-18.95,2.53-4.91,1.68-9.3,3.58-13.16,5.68-3.86,2.11-7.61,4-11.26,5.68-3.65,1.68-8,2.53-13.05,2.53-4.49,0-8.32-1.08-11.47-3.26-3.16-2.17-5.65-4.88-7.47-8.11l-11.79-20.42c13.19-11.65,27.82-20.31,43.89-26,16.07-5.68,33.29-8.53,51.68-8.53,13.19,0,25.08,2.14,35.68,6.42,10.59,4.28,19.58,10.25,26.95,17.89,7.37,7.65,13.02,16.74,16.95,27.26,3.93,10.53,5.89,22.04,5.89,34.53v136.41h-29.89ZM1668.35,383.31c8.42,0,15.79-1.47,22.1-4.42s12.7-7.72,19.16-14.32v-29.89c-13.05,0-23.79.85-32.21,2.55-8.42,1.7-15.09,3.82-20,6.37-4.91,2.55-8.32,5.45-10.21,8.71-1.89,3.26-2.84,6.79-2.84,10.61,0,7.51,2.03,12.78,6.11,15.82,4.07,3.05,10.03,4.57,17.89,4.57Z" fill="url(#k)" stroke-width="0"/>
    <path d="M1886.86,107.95v315.14h-65.26V107.95h65.26Z" fill="url(#l)" stroke-width="0"/>
    <path d="M2014.43,145c0,5.19-1.05,10.07-3.16,14.63-2.11,4.56-4.98,8.56-8.63,12-3.65,3.44-7.89,6.18-12.74,8.21-4.84,2.04-10,3.05-15.47,3.05s-10.32-1.02-14.95-3.05c-4.63-2.03-8.74-4.77-12.32-8.21-3.58-3.44-6.39-7.44-8.42-12-2.04-4.56-3.05-9.44-3.05-14.63s1.02-10.32,3.05-14.95c2.03-4.63,4.84-8.7,8.42-12.21,3.58-3.51,7.68-6.24,12.32-8.21,4.63-1.96,9.61-2.95,14.95-2.95s10.63.98,15.47,2.95c4.84,1.97,9.08,4.7,12.74,8.21,3.65,3.51,6.53,7.58,8.63,12.21s3.16,9.61,3.16,14.95ZM2006.85,204.79v218.31h-65.26v-218.31h65.26Z" fill="url(#m)" stroke-width="0"/>
    <path d="M2222.42,230.89c0,4.49-.84,8.77-2.53,12.84-1.68,4.07-3.65,7.58-5.89,10.53l-91.15,120.42h97.47v48.42h-172.62v-26.53c0-2.66.74-6,2.21-10s3.54-7.82,6.21-11.47l92-121.89h-94.52v-48.42h168.83v26.1Z" fill="url(#n)" stroke-width="0"/>
    <path d="M2353.77,201.42c14.45,0,27.68,2.25,39.68,6.74,12,4.49,22.32,11.02,30.95,19.58,8.63,8.56,15.37,19.05,20.21,31.47,4.84,12.42,7.26,26.49,7.26,42.21,0,4.92-.21,8.91-.63,12-.42,3.09-1.19,5.55-2.32,7.37-1.12,1.83-2.63,3.09-4.53,3.79-1.89.7-4.32,1.05-7.26,1.05h-125.89c2.1,18.25,7.65,31.47,16.63,39.68,8.98,8.21,20.56,12.32,34.74,12.32,7.58,0,14.1-.91,19.58-2.74,5.47-1.82,10.35-3.86,14.63-6.11,4.28-2.24,8.21-4.28,11.79-6.1,3.58-1.82,7.33-2.74,11.26-2.74,5.19,0,9.12,1.9,11.79,5.68l18.95,23.37c-6.74,7.72-14,14-21.79,18.84s-15.79,8.63-24,11.37-16.42,4.63-24.63,5.68c-8.21,1.05-16.04,1.58-23.47,1.58-15.3,0-29.65-2.49-43.05-7.47-13.4-4.98-25.12-12.38-35.16-22.21-10.04-9.82-17.97-22.03-23.79-36.63-5.83-14.59-8.74-31.58-8.74-50.95,0-14.59,2.49-28.42,7.47-41.47,4.98-13.05,12.14-24.49,21.47-34.31,9.33-9.82,20.63-17.61,33.89-23.37,13.26-5.75,28.24-8.63,44.95-8.63ZM2355.04,246.47c-12.49,0-22.25,3.55-29.26,10.63-7.02,7.09-11.65,17.3-13.89,30.63h81.47c0-5.19-.67-10.24-2-15.16-1.34-4.91-3.51-9.3-6.53-13.16-3.02-3.86-6.98-6.98-11.89-9.37-4.91-2.38-10.88-3.58-17.89-3.58Z" fill="url(#o)" stroke-width="0"/>
  </g>
  <g id="p" data-name="logo-shield">
    <path id="q" data-name="bg" d="M476.78,378.09s.02,0,.03,0c22.5-2.4,80-45.4,98.9-95.7,28.7-52.9,34.6-152.1,36.3-157.6s5.4-10,10-13.3c4.7-3.3,10.7-5,18.1-5h42.9s0,.03.01.04c-3.18-12.11-12.03-22.68-24.21-27.74L492.81,9.4c-4.2-1.8-11.53-3.2-16.03-3.2h-.16c-4.6,0-11.67,1.4-15.87,3.2l-165.9,69.4c-12.25,5.06-21.11,15.61-24.3,27.7h.02s42.98,0,42.98,0c7.4,0,13.4,1.7,18.1,5,4.7,3.4,8.4,7.8,10,13.3,1.7,5.5,7.7,104.7,36.3,157.6,18.89,50.28,76.15,93.26,98.67,95.7h.16Z" fill="#0967ad" isolation="isolate" opacity=".4" stroke-width="0"/>
    <path id="r" data-name="bg-r" d="M575.55,282.4c28.7-52.9,34.6-152.1,36.3-157.6s5.4-10,10-13.3c4.7-3.3,10.7-5,18.1-5h42.9s0,.03.01.04c-3.18-12.11-12.03-22.68-24.21-27.74L492.65,9.4c-4.2-1.8-11.53-3.2-16.03-3.2v371.9s.02,0,.03,0c22.5-2.4,80-45.4,98.9-95.7Z" fill="#0967ad" isolation="isolate" opacity=".2" stroke-width="0"/>
    <path id="s" data-name="v-shape" d="M476.65,378.1c22.5-2.4,80-45.4,98.9-95.7,28.7-52.9,34.6-152.1,36.3-157.6,1.7-5.5,5.4-10,10-13.3,4.7-3.3,10.7-5,18.1-5h42.9c1.7,5.2,2.4,11.5,1.5,30.1h0c-2.1,42.9-9.5,96-44.4,166.4-43.8,81.8-98,119.6-124.8,133.9-13.4,7-28,13.1-38.5,13.1h0c-10.5,0-24.9-6.1-38.3-13.1-26.9-14.3-81.1-52.2-124.8-133.9-34.8-70.4-42.3-123.4-44.4-166.4-.8-18.6-.1-24.9,1.5-30.1h42.9c7.4,0,13.4,1.7,18.1,5,4.7,3.4,8.4,7.8,10,13.3,1.7,5.5,7.7,104.7,36.3,157.6,18.9,50.3,76.2,93.3,98.7,95.7h0Z" fill="#0967ad" stroke-width="0"/>
  </g>
  <g id="t" data-name="logo-icon">
    <path id="v" data-name="keyhole" d="M476.53,138c-26.7,0-48.4,21.7-48.4,48.5,0,19.3,11.4,35.9,27.7,43.7v60.3c0,11.5,9.3,20.8,20.8,20.8s20.8-9.3,20.8-20.8v-60.3c16.3-7.8,27.6-24.4,27.5-43.7,0-26.8-21.7-48.5-48.4-48.5ZM503.53,193.7h-18.7v18.7h-16.1v-18.7h-18.7v-16.1h18.7v-18.8h16.1v18.8h18.7v16.1Z" fill="url(#u)" stroke-width="0"/>
    <polygon id="w" data-name="cross" points="468.73 177.6 450.03 177.6 450.03 193.7 468.73 193.7 468.73 212.4 484.83 212.4 484.83 193.7 503.53 193.7 503.53 177.6 484.83 177.6 484.83 158.8 468.73 158.8 468.73 177.6" fill="#fff" stroke-width="0"/>
  </g>
  <g id="x" data-name="PV">
    <path d="M902.93,306.2v116.3h-70.9v-116.3l-110.8-189.5h62.5c6.2,0,11,1.4,14.7,4.3,3.6,2.9,6.6,6.5,8.8,11l43.2,89c3.5,7.1,6.7,13.7,9.6,19.7,3,6,5.6,11.9,7.8,17.9,2.1-6,4.6-12,7.6-18s6.1-12.5,9.4-19.5l42.8-89c.8-1.8,2-3.6,3.5-5.5,1.5-1.8,3.1-3.5,5-4.9,1.9-1.4,4.1-2.7,6.5-3.6,2.4-.9,5.1-1.3,8.1-1.3h62.9l-110.7,189.4h0Z" fill="#0967ad" stroke-width="0"/>
    <path d="M79.33,320.9v102.2H8.33V117.4h107.8c21.5,0,40,2.5,55.5,7.6,15.4,5.1,28.2,12.2,38.2,21.1,10,9,17.3,19.5,22.2,31.7,4.7,12.2,7.1,25.3,7.1,39.4,0,15.3-2.4,29.2-7.3,42-4.9,12.8-12.4,23.7-22.5,32.7-10.1,9.1-22.8,16.2-38.3,21.3s-33.7,7.6-54.9,7.6h-36.8v.1h0ZM79.33,267.5h36.9c18.5,0,31.7-4.4,39.9-13.2,8.1-8.8,12.2-21.1,12.2-36.9,0-7-1-13.3-3.1-19.1-2.1-5.7-5.3-10.7-9.6-14.8-4.3-4.2-9.6-7.3-16.2-9.6-6.6-2.3-14.2-3.3-23.2-3.3h-36.9v96.9h0Z" fill="#0967ad" stroke-width="0"/>
  </g>
</svg>