<?xml version="1.0" encoding="UTF-8"?>
<svg id="d" data-name="white" xmlns="http://www.w3.org/2000/svg" width="772mm" height="180mm" xmlns:xlink="http://www.w3.org/1999/xlink" viewBox="0 0 2188.35 510.24">
  <defs>
    <linearGradient id="j" data-name="font-red" x1="1091.08" y1="536.15" x2="2047.33" y2="-15.94" gradientUnits="userSpaceOnUse">
      <stop offset="0" stop-color="#ee7159"/>
      <stop offset=".3" stop-color="#e62e27"/>
    </linearGradient>
    <linearGradient id="l" data-name="keyhole" x1="419.67" y1="188.62" x2="524.74" y2="249.28" gradientUnits="userSpaceOnUse">
      <stop offset="0" stop-color="#ee7159"/>
      <stop offset=".85" stop-color="#e62e27"/>
    </linearGradient>
  </defs>
  <g id="e" data-name="logo-shield">
    <path id="f" data-name="bg" d="M477.45,377.43s.02,0,.03,0c22.5-2.4,80-45.4,98.9-95.7,28.7-52.9,34.6-152.1,36.3-157.6s5.4-10,10-13.3c4.7-3.3,10.7-5,18.1-5h42.9s0,.03.01.04c-3.18-12.11-12.03-22.68-24.21-27.74L493.48,8.73c-4.2-1.8-11.53-3.2-16.03-3.2h-.16c-4.6,0-11.67,1.4-15.87,3.2l-165.9,69.4c-12.25,5.06-21.11,15.61-24.3,27.7h.02s42.98,0,42.98,0c7.4,0,13.4,1.7,18.1,5,4.7,3.4,8.4,7.8,10,13.3,1.7,5.5,7.7,104.7,36.3,157.6,18.89,50.28,76.15,93.26,98.67,95.7h.16Z" fill="#fff" isolation="isolate" opacity=".4" stroke-width="0"/>
    <path id="g" data-name="bg-r" d="M576.21,281.73c28.7-52.9,34.6-152.1,36.3-157.6s5.4-10,10-13.3c4.7-3.3,10.7-5,18.1-5h42.9s0,.03.01.04c-3.18-12.11-12.03-22.68-24.21-27.74L493.31,8.73c-4.2-1.8-11.53-3.2-16.03-3.2v371.9s.02,0,.03,0c22.5-2.4,80-45.4,98.9-95.7Z" fill="#fff" isolation="isolate" opacity=".2" stroke-width="0"/>
    <path id="h" data-name="v-shape" d="M477.31,377.43c22.5-2.4,80-45.4,98.9-95.7,28.7-52.9,34.6-152.1,36.3-157.6,1.7-5.5,5.4-10,10-13.3,4.7-3.3,10.7-5,18.1-5h42.9c1.7,5.2,2.4,11.5,1.5,30.1h0c-2.1,42.9-9.5,96-44.4,166.4-43.8,81.8-98,119.6-124.8,133.9-13.4,7-28,13.1-38.5,13.1h0c-10.5,0-24.9-6.1-38.3-13.1-26.9-14.3-81.1-52.2-124.8-133.9-34.8-70.4-42.3-123.4-44.4-166.4-.8-18.6-.1-24.9,1.5-30.1h42.9c7.4,0,13.4,1.7,18.1,5,4.7,3.4,8.4,7.8,10,13.3,1.7,5.5,7.7,104.7,36.3,157.6,18.9,50.3,76.2,93.3,98.7,95.7h0Z" fill="#fff" stroke-width="0"/>
  </g>
  <path d="M1025.43,422.43V107.29h65.26v119.99c8.14-8,17.37-14.42,27.68-19.26s22.42-7.26,36.31-7.26c11.37,0,21.89,2.46,31.58,7.37,9.68,4.91,18.03,12.1,25.05,21.58,7.02,9.47,12.53,21.09,16.53,34.84,4,13.76,6,29.4,6,46.94,0,16.42-2.28,31.58-6.84,45.47-4.56,13.89-10.95,25.97-19.16,36.21-8.21,10.25-18.04,18.25-29.47,24-11.44,5.75-24.1,8.63-38,8.63-6.46,0-12.25-.63-17.37-1.89-5.12-1.26-9.83-3.05-14.1-5.37-4.28-2.32-8.21-5.08-11.79-8.32-3.58-3.23-7.05-6.74-10.42-10.53l-2.32,10.95c-.98,4.49-2.77,7.58-5.37,9.26-2.6,1.68-6,2.53-10.21,2.53h-43.37ZM1131.95,249.81c-4.77,0-9.09.46-12.95,1.37-3.86.91-7.44,2.21-10.74,3.89-3.3,1.68-6.35,3.83-9.16,6.42-2.81,2.6-5.61,5.58-8.42,8.95v92.63c4.91,5.47,10.24,9.3,16,11.47,5.75,2.18,11.79,3.26,18.1,3.26s11.58-1.19,16.63-3.58c5.05-2.38,9.44-6.21,13.16-11.47,3.72-5.26,6.63-12.1,8.74-20.53,2.11-8.42,3.16-18.66,3.16-30.74s-.84-21.19-2.53-29.05c-1.68-7.86-4.04-14.21-7.05-19.05-3.02-4.84-6.63-8.32-10.84-10.42-4.21-2.1-8.91-3.16-14.1-3.16ZM1330.67,204.13v138.52c0,10.81,2.45,19.16,7.37,25.05,4.91,5.89,12.14,8.84,21.68,8.84,7.16,0,13.86-1.47,20.1-4.42,6.24-2.95,12.32-7.08,18.21-12.42v-155.57h65.26v218.31h-40.42c-8.14,0-13.47-3.65-16-10.95l-4-12.63c-4.21,4.07-8.56,7.76-13.05,11.05-4.49,3.3-9.3,6.1-14.42,8.42-5.12,2.32-10.63,4.14-16.53,5.47-5.89,1.33-12.35,2-19.37,2-11.93,0-22.49-2.07-31.68-6.21-9.19-4.14-16.95-9.93-23.26-17.37-6.32-7.44-11.09-16.21-14.31-26.31-3.23-10.1-4.84-21.19-4.84-33.26v-138.52h65.26ZM1590.44,425.8c-10.39,0-19.54-1.51-27.47-4.53-7.93-3.02-14.6-7.29-20-12.84-5.4-5.54-9.51-12.24-12.31-20.1-2.81-7.86-4.21-16.63-4.21-26.31v-112.84h-18.53c-3.37,0-6.25-1.08-8.63-3.26-2.39-2.17-3.58-5.37-3.58-9.58v-25.47l34.74-6.74,12.84-53.26c1.68-6.74,6.45-10.1,14.31-10.1h34.1v63.79h53.05v44.63h-53.05v108.42c0,5.05,1.23,9.23,3.68,12.53,2.45,3.3,6,4.95,10.63,4.95,2.38,0,4.38-.24,6-.74,1.61-.49,3.02-1.05,4.21-1.68,1.19-.63,2.32-1.19,3.37-1.68,1.05-.49,2.28-.74,3.68-.74,1.96,0,3.54.46,4.74,1.37,1.19.92,2.42,2.35,3.68,4.32l19.79,30.95c-8.42,6.32-17.89,11.05-28.42,14.21-10.53,3.16-21.4,4.74-32.63,4.74ZM1749.59,107.29v315.14h-65.26V107.29h65.26ZM1895.68,200.76c14.45,0,27.68,2.25,39.68,6.74,12,4.49,22.32,11.02,30.95,19.58,8.63,8.56,15.37,19.05,20.21,31.47,4.84,12.42,7.26,26.49,7.26,42.21,0,4.92-.21,8.91-.63,12-.42,3.09-1.19,5.55-2.32,7.37-1.12,1.83-2.63,3.09-4.53,3.79-1.89.7-4.32,1.05-7.26,1.05h-125.89c2.1,18.25,7.65,31.47,16.63,39.68,8.98,8.21,20.56,12.32,34.74,12.32,7.58,0,14.1-.91,19.58-2.74,5.47-1.82,10.35-3.86,14.63-6.11,4.28-2.24,8.21-4.28,11.79-6.1,3.58-1.82,7.33-2.74,11.26-2.74,5.19,0,9.12,1.9,11.79,5.68l18.95,23.37c-6.74,7.72-14,14-21.79,18.84s-15.79,8.63-24,11.37-16.42,4.63-24.63,5.68c-8.21,1.05-16.04,1.58-23.47,1.58-15.3,0-29.65-2.49-43.05-7.47-13.4-4.98-25.12-12.38-35.16-22.21-10.04-9.82-17.97-22.03-23.79-36.63-5.83-14.59-8.74-31.58-8.74-50.95,0-14.59,2.49-28.42,7.47-41.47,4.98-13.05,12.14-24.49,21.47-34.31,9.33-9.82,20.63-17.61,33.89-23.37,13.26-5.75,28.24-8.63,44.95-8.63ZM1896.94,245.81c-12.49,0-22.25,3.55-29.26,10.63-7.02,7.09-11.65,17.3-13.89,30.63h81.47c0-5.19-.67-10.24-2-15.16-1.34-4.91-3.51-9.3-6.53-13.16-3.02-3.86-6.98-6.98-11.89-9.37-4.91-2.38-10.88-3.58-17.89-3.58ZM2031.25,422.43v-218.31h38.74c3.23,0,5.93.28,8.1.84,2.17.56,4,1.44,5.47,2.63,1.47,1.19,2.6,2.77,3.37,4.74.77,1.97,1.44,4.35,2,7.16l3.58,20.42c8-12.35,16.98-22.1,26.95-29.26,9.96-7.16,20.84-10.74,32.63-10.74,9.96,0,17.96,2.39,24,7.16l-8.42,48c-.56,2.95-1.68,5.02-3.37,6.21-1.68,1.19-3.93,1.79-6.74,1.79-2.39,0-5.19-.32-8.42-.95-3.23-.63-7.3-.95-12.21-.95-17.12,0-30.6,9.12-40.42,27.37v133.89h-65.26Z" fill="url(#j)" stroke-width="0"/>
  <g id="k" data-name="logo-icon">
    <path id="m" data-name="keyhole" d="M477.2,137.33c-26.7,0-48.4,21.7-48.4,48.5,0,19.3,11.4,35.9,27.7,43.7v60.3c0,11.5,9.3,20.8,20.8,20.8s20.8-9.3,20.8-20.8v-60.3c16.3-7.8,27.6-24.4,27.5-43.7,0-26.8-21.7-48.5-48.4-48.5ZM504.2,193.03h-18.7v18.7h-16.1v-18.7h-18.7v-16.1h18.7v-18.8h16.1v18.8h18.7v16.1Z" fill="url(#l)" stroke-width="0"/>
    <polygon id="n" data-name="cross" points="469.4 176.93 450.7 176.93 450.7 193.03 469.4 193.03 469.4 211.73 485.5 211.73 485.5 193.03 504.2 193.03 504.2 176.93 485.5 176.93 485.5 158.13 469.4 158.13 469.4 176.93" fill="#fff" stroke-width="0"/>
  </g>
  <g id="o" data-name="PV">
    <path d="M903.6,305.53v116.3h-70.9v-116.3l-110.8-189.5h62.5c6.2,0,11,1.4,14.7,4.3,3.6,2.9,6.6,6.5,8.8,11l43.2,89c3.5,7.1,6.7,13.7,9.6,19.7,3,6,5.6,11.9,7.8,17.9,2.1-6,4.6-12,7.6-18s6.1-12.5,9.4-19.5l42.8-89c.8-1.8,2-3.6,3.5-5.5,1.5-1.8,3.1-3.5,5-4.9s4.1-2.7,6.5-3.6c2.4-.9,5.1-1.3,8.1-1.3h62.9l-110.7,189.4h0Z" fill="#fff" stroke-width="0"/>
    <path d="M80,320.23v102.2H9V116.73h107.8c21.5,0,40,2.5,55.5,7.6,15.4,5.1,28.2,12.2,38.2,21.1,10,9,17.3,19.5,22.2,31.7,4.7,12.2,7.1,25.3,7.1,39.4,0,15.3-2.4,29.2-7.3,42-4.9,12.8-12.4,23.7-22.5,32.7-10.1,9.1-22.8,16.2-38.3,21.3s-33.7,7.6-54.9,7.6h-36.8v.1h0ZM80,266.83h36.9c18.5,0,31.7-4.4,39.9-13.2,8.1-8.8,12.2-21.1,12.2-36.9,0-7-1-13.3-3.1-19.1-2.1-5.7-5.3-10.7-9.6-14.8-4.3-4.2-9.6-7.3-16.2-9.6-6.6-2.3-14.2-3.3-23.2-3.3h-36.9v96.9h0Z" fill="#fff" stroke-width="0"/>
  </g>
</svg>