<?xml version="1.0" encoding="UTF-8"?>
<svg xmlns="http://www.w3.org/2000/svg" width="160mm" height="160mm" xmlns:xlink="http://www.w3.org/1999/xlink" viewBox="0 0 453.54 453.54">
  <defs>
    <linearGradient id="n" data-name="Unbenannter Verlauf 36" x1="103.18" y1="184.24" x2="262.34" y2="92.34" gradientUnits="userSpaceOnUse">
      <stop offset="0" stop-color="#ee7159"/>
      <stop offset=".39" stop-color="#e62e27"/>
    </linearGradient>
  </defs>
  <g id="d" data-name="white">
    <g id="f" data-name="shield">
      <path id="g" data-name="bg" d="M227.54,377.43s.02,0,.03,0c22.5-2.4,80-45.4,98.9-95.7,28.7-52.9,34.6-152.1,36.3-157.6s5.4-10,10-13.3c4.7-3.3,10.7-5,18.1-5h42.9s0,.03.01.04c-3.18-12.11-12.03-22.68-24.21-27.74L243.57,8.73c-4.2-1.8-11.53-3.2-16.03-3.2h-.16c-4.6,0-11.67,1.4-15.87,3.2L45.61,78.13c-12.25,5.06-21.11,15.61-24.3,27.7h.02s42.98,0,42.98,0c7.4,0,13.4,1.7,18.1,5,4.7,3.4,8.4,7.8,10,13.3,1.7,5.5,7.7,104.7,36.3,157.6,18.89,50.28,76.15,93.26,98.67,95.7h.16Z" fill="#fff" isolation="isolate" opacity=".4" stroke-width="0"/>
      <path id="h" data-name="bg-r" d="M326.31,281.73c28.7-52.9,34.6-152.1,36.3-157.6s5.4-10,10-13.3c4.7-3.3,10.7-5,18.1-5h42.9s0,.03.01.04c-3.18-12.11-12.03-22.68-24.21-27.74L243.41,8.73c-4.2-1.8-11.53-3.2-16.03-3.2v371.9s.02,0,.03,0c22.5-2.4,80-45.4,98.9-95.7Z" fill="#fff" isolation="isolate" opacity=".2" stroke-width="0"/>
      <path id="i" data-name="v-shape" d="M227.41,377.43c22.5-2.4,80-45.4,98.9-95.7,28.7-52.9,34.6-152.1,36.3-157.6,1.7-5.5,5.4-10,10-13.3,4.7-3.3,10.7-5,18.1-5h42.9c1.7,5.2,2.4,11.5,1.5,30.1h0c-2.1,42.9-9.5,96-44.4,166.4-43.8,81.8-98,119.6-124.8,133.9-13.4,7-28,13.1-38.5,13.1h0c-10.5,0-24.9-6.1-38.3-13.1-26.9-14.3-81.1-52.2-124.8-133.9C29.51,231.93,22.01,178.93,19.91,135.93c-.8-18.6-.1-24.9,1.5-30.1h42.9c7.4,0,13.4,1.7,18.1,5,4.7,3.4,8.4,7.8,10,13.3,1.7,5.5,7.7,104.7,36.3,157.6,18.9,50.3,76.2,93.3,98.7,95.7h0Z" fill="#fff" stroke-width="0"/>
    </g>
  </g>
  <g id="m" data-name="icon">
    <g>
      <path d="M259.54,91.59c0-8.44-6.85-15.29-15.29-15.29h-112.15c-8.44,0-15.29,6.85-15.29,15.29v112.15c0,8.44,6.85,15.29,15.29,15.29h72.95l54.49-54.51v-72.94Z" fill="url(#n)" stroke-width="0"/>
      <g>
        <path d="M157.27,188.6c-1.75,3.06-5.67,4.08-8.7,2.33-3.06-1.75-4.08-5.67-2.33-8.7l4.56-7.87c5.13-1.56,9.34-.35,12.62,3.63l-6.15,10.61Z" fill="#fff" stroke-width="0"/>
        <path d="M201.52,171.43h-57.96c-3.5,0-6.37-2.87-6.37-6.37s2.87-6.37,6.37-6.37h16.25l20.84-36.07-6.53-11.28c-1.75-3.06-.7-6.95,2.33-8.7,3.06-1.75,6.95-.7,8.7,2.33l2.84,4.91,2.84-4.91c1.75-3.06,5.67-4.08,8.7-2.33,3.06,1.75,4.08,5.67,2.33,8.7l-27.34,47.35h19.79c6.44,0,10.04,7.55,7.23,12.74h0Z" fill="#fff" stroke-width="0"/>
        <path d="M232.78,171.43h0s-9.24,0-9.24,0l6.24,10.8c1.75,3.06.7,6.95-2.33,8.7-3.06,1.75-6.95.7-8.7-2.33-10.48-18.13-18.32-31.77-23.58-40.81-5.32-9.24-1.53-18.48,2.26-21.6,4.17,7.23,10.42,18.07,18.77,32.5h16.57c3.5,0,6.37,2.87,6.37,6.37s-2.87,6.37-6.37,6.37Z" fill="#fff" stroke-width="0"/>
      </g>
      <path d="M242.73,276.76c-2.1,2.1-4.72,3.66-7.58,4.49l-40.82,12.01c-2.68.8-5.59.06-7.56-2.2-1.98-1.69-2.72-4.59-1.93-7.3l12.01-40.81c.84-2.87,2.39-5.48,4.5-7.58l79.72-79.74,41.13,41.12-79.46,80Z" fill="#fff" stroke-width="0"/>
      <path d="M300.08,136.61c7.97-7.96,20.9-7.96,28.87,0l12.55,12.56c7.97,7.96,7.97,20.88,0,28.85l-19.31,18.73-41.13-41.12,19.02-19.02Z" fill="#fff" isolation="isolate" opacity=".7" stroke-width="0"/>
    </g>
  </g>
</svg>