<?xml version="1.0" encoding="UTF-8"?>
<svg xmlns="http://www.w3.org/2000/svg" xmlns:xlink="http://www.w3.org/1999/xlink" viewBox="0 0 453.54 453.54">
  <defs>
    <linearGradient id="n" data-name="Unbenannter Verlauf 6" x1="156.88" y1="187.97" x2="280.96" y2="116.33" gradientUnits="userSpaceOnUse">
      <stop offset="0" stop-color="#ee7159"/>
      <stop offset=".54" stop-color="#e62e27"/>
    </linearGradient>
  </defs>
  <g id="g" data-name="color">
    <g id="i" data-name="shield">
      <path id="j" data-name="bg" d="M226.88,378.09s.02,0,.03,0c22.5-2.4,80-45.4,98.9-95.7,28.7-52.9,34.6-152.1,36.3-157.6s5.4-10,10-13.3c4.7-3.3,10.7-5,18.1-5h42.9s0,.03.01.04c-3.18-12.11-12.03-22.68-24.21-27.74L242.91,9.4c-4.2-1.8-11.53-3.2-16.03-3.2h-.16c-4.6,0-11.67,1.4-15.87,3.2L44.95,78.8c-12.25,5.06-21.11,15.61-24.3,27.7h.02s42.98,0,42.98,0c7.4,0,13.4,1.7,18.1,5,4.7,3.4,8.4,7.8,10,13.3,1.7,5.5,7.7,104.7,36.3,157.6,18.89,50.28,76.15,93.26,98.67,95.7h.16Z" style="fill: #0967ad; isolation: isolate; opacity: .4;"/>
      <path id="k" data-name="bg-r" d="M325.65,282.4c28.7-52.9,34.6-152.1,36.3-157.6s5.4-10,10-13.3c4.7-3.3,10.7-5,18.1-5h42.9s0,.03.01.04c-3.18-12.11-12.03-22.68-24.21-27.74L242.75,9.4c-4.2-1.8-11.53-3.2-16.03-3.2v371.9s.02,0,.03,0c22.5-2.4,80-45.4,98.9-95.7Z" style="fill: #0967ad; isolation: isolate; opacity: .2;"/>
      <path id="l" data-name="v-shape" d="M226.75,378.1c22.5-2.4,80-45.4,98.9-95.7,28.7-52.9,34.6-152.1,36.3-157.6,1.7-5.5,5.4-10,10-13.3,4.7-3.3,10.7-5,18.1-5h42.9c1.7,5.2,2.4,11.5,1.5,30.1h0c-2.1,42.9-9.5,96-44.4,166.4-43.8,81.8-98,119.6-124.8,133.9-13.4,7-28,13.1-38.5,13.1h0c-10.5,0-24.9-6.1-38.3-13.1-26.9-14.3-81.1-52.2-124.8-133.9C28.85,232.6,21.35,179.6,19.25,136.6c-.8-18.6-.1-24.9,1.5-30.1h42.9c7.4,0,13.4,1.7,18.1,5,4.7,3.4,8.4,7.8,10,13.3,1.7,5.5,7.7,104.7,36.3,157.6,18.9,50.3,76.2,93.3,98.7,95.7h0Z" style="fill: #0967ad;"/>
    </g>
  </g>
  <g id="m" data-name="icon">
    <g>
      <path d="M209.67,118.9c-1.62-6.21-1.66-5.34,0-11.55.82-3.1-.03-6.41-2.28-8.66-3.37-3.43-3.94-3.85-4.72-6.47-.27-.87-.54-1.99-.96-3.55-.21-.78-.48-1.5-.87-2.17-1.14-2.02-3.04-3.52-5.33-4.15-3.85-1.05-5-1.26-6.41-2.41-.54-.45-1.14-1.05-2.26-1.9-.15-.42-.9-.93-1.2-1.47-.75-.78-1.63-1.32-2.56-2.02-.24.15-.45.06-.69-.03-.93-.36-1.96-.6-2.98-.6-.68,0-1.36.08-2.05.25,0,0,0,.01,0,.02-.07.02-.14,0-.22.03-3.07.84-4.39,1.23-5.96,1.23-1.31,0-2.62-.41-5.66-1.24-.48-.2-1.26-.29-2.01-.29-1.03,0-2.03.24-2.99.6-.24.09-.46.18-.69.03-.93.69-1.81,1.23-2.56,2.02-4.51,4.54-3.76,4.09-9.86,5.78-3.05.84-5.43,3.25-6.22,6.32-.62,2.35-.93,3.7-1.33,4.69-.67,1.72-1.55,2.47-4.35,5.33-.56.54-1.03,1.17-1.41,1.87-1.16,2.02-1.49,4.45-.87,6.8,1.66,6.21,1.62,5.34,0,11.55-.62,2.31-.29,4.75.87,6.78.39.68.85,1.31,1.41,1.87,3.33,3.41,3.94,3.84,4.73,6.46.26.87.54,1.99.95,3.54.79,3.12,3.17,5.53,6.22,6.36,2.16.58,3.03.81,3.52.96s.6.24,1.26.54v34.43l19.26-9.63,19.26,9.63v-34.43c1.28-.6.45-.34,4.78-1.5,2.28-.62,4.19-2.13,5.33-4.17.38-.68.68-1.41.88-2.19.41-1.56.69-2.68.95-3.56.78-2.63,1.37-3.04,4.72-6.45,2.26-2.26,3.12-5.57,2.29-8.65ZM171.45,131.7c-1.33,0-2.63-.13-3.89-.39-2.51-.51-4.84-1.51-6.89-2.9-2.05-1.38-3.82-3.15-5.2-5.2-2.07-3.07-3.28-6.77-3.28-10.77s1.21-7.7,3.29-10.77c1.38-2.05,3.15-3.82,5.2-5.2,2.05-1.38,4.38-2.38,6.89-2.9,1.26-.27,2.56-.39,3.88-.39,10.64,0,19.26,8.61,19.26,19.26s-8.6,19.26-19.26,19.26ZM298.79,162.18l-54.35,54.05c-.93.87-1.44,2.11-1.44,3.4v18.75h18.76c1.28,0,2.51-.51,3.42-1.42l54.05-54.35-20.43-20.43ZM233.37,113.19v38.52h38.52l-38.52-38.52Z" style="fill: url(#n);"/>
      <path d="M190.71,112.44c0,10.65-8.6,19.26-19.26,19.26-1.33,0-2.63-.13-3.89-.39-2.51-.51-4.84-1.51-6.89-2.9-2.05-1.38-3.82-3.15-5.2-5.2-2.07-3.07-3.28-6.77-3.28-10.77s1.21-7.7,3.29-10.77c1.38-2.05,3.15-3.82,5.2-5.2,2.05-1.38,4.38-2.38,6.89-2.9,1.26-.27,2.56-.39,3.88-.39,10.64,0,19.26,8.61,19.26,19.26ZM180.4,228.75h3.73c1.47,0,2.75-.94,3.2-2.29l5.49-16.44c.98-2.96,3.72-4.95,6.85-4.95s5.87,1.99,6.85,4.97l4.18,12.53c5.94-4.89,16.29-2.93,19.86,4.25.56,1.1,1.68,1.79,2.82,1.88l9.63.05v-9.11c0-1.28.51-2.51,1.42-3.42l27.47-27.28v-37.23h-38.52v-38.52h-24.93c.02,1.31.43,2.66,1.23,5.71.83,3.08-.04,6.4-2.29,8.65-3.36,3.41-3.94,3.82-4.72,6.45-.26.87-.54,2-.95,3.56-.2.78-.5,1.52-.88,2.19-1.14,2.03-3.04,3.54-5.33,4.17-4.32,1.17-3.5.9-4.78,1.5v34.43l-19.26-9.63-15.13,7.56v75.05c0,7.97,6.47,14.45,14.45,14.45h86.67c7.98,0,14.45-6.47,14.45-14.45v-22.63l-6.71,6.76c-.9.91-2.13,1.42-3.43,1.42l-28.38-.03c-4.84-.09-9.19-2.79-11.38-7.16-.87-1.75-2.43-1.96-3.07-1.96s-2.18.19-3.01,1.84l-2.33,4.63c-.8,1.65-2.75,2.68-4.29,2.68h-.33c-1.96-.15-3.63-1.43-4.23-3.31l-5.07-15.17-3.19,9.6c-1.78,5.3-7.01,8.88-12.34,8.88h-3.73c-2.67,0-4.82-2.14-4.82-4.82s2.15-4.82,4.82-4.82ZM327.41,163.57l-9.6-9.6c-2.97-3.01-7.82-3.01-10.83,0l-8.2,8.2,20.43,20.43,8.2-8.2c3.02-3,3.02-7.85,0-10.83Z" style="fill: #fff; isolation: isolate;"/>
    </g>
  </g>
</svg>