<?xml version="1.0" encoding="UTF-8"?>
<svg id="d" data-name="white" xmlns="http://www.w3.org/2000/svg" xmlns:xlink="http://www.w3.org/1999/xlink" viewBox="0 0 2494.4882 510.2362">
  <defs>
    <linearGradient id="k" data-name="keyhole" x1="419.6668" y1="188.6166" x2="524.7375" y2="249.276" gradientUnits="userSpaceOnUse">
      <stop offset="0" stop-color="#ee7159"/>
      <stop offset=".85" stop-color="#e62e27"/>
    </linearGradient>
    <linearGradient id="o" data-name="font-red" x1="1146.1762" y1="652.9262" x2="2307.4684" y2="-17.5461" gradientUnits="userSpaceOnUse">
      <stop offset="0" stop-color="#ee7159"/>
      <stop offset=".3" stop-color="#e62e27"/>
    </linearGradient>
  </defs>
  <g id="e" data-name="logo-shield">
    <path id="f" data-name="bg" d="M477.4456,377.4295c.0098.001.0201.0029.0299.0039,22.5-2.4,80-45.4,98.9-95.7,28.7-52.9,34.6-152.1,36.3-157.6s5.4-10,10-13.3c4.7-3.3,10.7-5,18.1-5h42.9c.0042.0129.0082.0262.0125.0392-3.1755-12.1116-12.0338-22.678-24.2125-27.7393L493.4755,8.7333c-4.2-1.7999-11.5299-3.2-16.0299-3.2h-.1608c-4.6.0001-11.6701,1.4001-15.8701,3.2002l-165.9,69.3999c-12.245,5.056-21.1113,15.6061-24.2982,27.7021l.0157-.0021h42.9826c7.4,0,13.4,1.7,18.1,5,4.7,3.4,8.4,7.8,10,13.3,1.7,5.5,7.7,104.7,36.3,157.6,18.8918,50.2782,76.1498,93.262,98.6701,95.6961h.1608Z" style="fill: #fff; isolation: isolate; opacity: .4;"/>
    <path id="g" data-name="bg-r" d="M576.2147,281.7335c28.7-52.9,34.6-152.1,36.3-157.6s5.4-10,10-13.3c4.7-3.3,10.7-5,18.1-5h42.9c.0042.0129.0082.0262.0125.0392-3.1755-12.1116-12.0338-22.678-24.2125-27.7393L493.3147,8.7333c-4.2-1.7999-11.5299-3.2-16.0299-3.2v371.8962c.0098.001.0201.0029.0299.0039,22.5-2.4,80-45.4,98.9-95.7Z" style="fill: #fff; isolation: isolate; opacity: .2;"/>
    <path id="h" data-name="v-shape" d="M477.3147,377.4335c22.5-2.4,80-45.4,98.9-95.7,28.7-52.9,34.6-152.1,36.3-157.6,1.7-5.5,5.4-10,10-13.3,4.7-3.3,10.7-5,18.1-5h42.9c1.7,5.2,2.4,11.5,1.5,30.1h0c-2.1,42.9-9.5,96-44.4,166.4-43.8,81.8-98,119.6-124.8,133.9-13.4,7-28,13.1-38.5,13.1h0c-10.5,0-24.9-6.1-38.3-13.1-26.9-14.3-81.1-52.2-124.8-133.9-34.8-70.4-42.3-123.4-44.4-166.4-.8-18.6-.1-24.9,1.5-30.1h42.9c7.4,0,13.4,1.7,18.1,5,4.7,3.4,8.4,7.8,10,13.3,1.7,5.5,7.7,104.7,36.3,157.6,18.9,50.3,76.2,93.3,98.7,95.7h0Z" style="fill: #fff;"/>
  </g>
  <g id="j" data-name="logo-icon">
    <path id="l" data-name="keyhole" d="M477.1956,137.3333c-26.7,0-48.4,21.7-48.4,48.5,0,19.3,11.4,35.9,27.7,43.7v60.3c0,11.5,9.3,20.8,20.8,20.8s20.8-9.3,20.8-20.8v-60.3c16.3-7.8,27.6-24.4,27.5001-43.7,0-26.8-21.7-48.5-48.4-48.5ZM504.1956,193.0333h-18.7v18.7h-16.1v-18.7h-18.7v-16.1h18.7v-18.8h16.1v18.8h18.7v16.1Z" style="fill: url(#k);"/>
    <polygon id="m" data-name="cross" points="469.3956 176.9333 450.6956 176.9333 450.6956 193.0333 469.3956 193.0333 469.3956 211.7333 485.4956 211.7333 485.4956 193.0333 504.1956 193.0333 504.1956 176.9333 485.4956 176.9333 485.4956 158.1333 469.3956 158.1333 469.3956 176.9333" style="fill: #fff;"/>
  </g>
  <g id="n" data-name="PV">
    <path d="M903.5956,305.5333v116.3h-70.9v-116.3l-110.7999-189.5h62.5c6.2,0,11,1.4,14.7,4.3,3.6,2.9,6.6,6.5,8.8,11l43.2,89c3.5,7.1,6.7,13.7,9.6,19.7,3,6,5.6,11.9,7.8,17.9,2.1-6,4.6-12,7.6-18s6.1-12.5,9.4-19.5l42.8-89c.8-1.8,2-3.6,3.5-5.5,1.5-1.8,3.1-3.5,5-4.9s4.1-2.7,6.5-3.6c2.4-.9,5.1-1.3,8.1-1.3h62.9l-110.7,189.4h0Z" style="fill: #fff;"/>
    <path d="M79.9956,320.2333v102.2H8.9956V116.7333h107.8c21.5,0,40,2.5,55.5,7.6,15.4,5.1,28.2,12.2,38.2,21.1,10,9,17.3,19.5,22.2,31.7,4.7,12.2,7.1,25.3,7.1,39.4,0,15.3-2.4,29.2-7.3,42-4.9,12.8-12.4,23.7-22.5,32.7-10.1,9.1-22.8,16.2-38.3,21.3s-33.7,7.6-54.9,7.6h-36.8v.1h0ZM79.9956,266.8333h36.9c18.5,0,31.7-4.4,39.9-13.2,8.1-8.8,12.2-21.1,12.2-36.9,0-7-1-13.3-3.1-19.1-2.1-5.7-5.3-10.7-9.6-14.8-4.3-4.2-9.6-7.3-16.2-9.6-6.6-2.3-14.2-3.3-23.2-3.3h-36.9v96.9h0Z" style="fill: #fff;"/>
  </g>
  <path d="M1152.1032,421.8328c-6.1777,0-10.8418-.8418-13.999-2.5264-3.1582-1.6836-5.7891-5.1904-7.8945-10.5254l-4.6318-12c-5.4727,4.6318-10.7363,8.7041-15.7881,12.21-5.0527,3.5098-10.2822,6.4932-15.6836,8.9473-5.4043,2.457-11.1572,4.2793-17.2627,5.4736-6.1045,1.1904-12.877,1.7891-20.3145,1.7891-9.9668,0-19.0186-1.3027-27.1562-3.9072-8.1416-2.6055-15.0527-6.4404-20.7363-11.5098-5.6836-5.0684-10.0723-11.3711-13.1572-18.9033-3.0889-7.5332-4.6309-16.2266-4.6309-26.0811,0-7.7432,1.9629-15.7002,5.8936-23.8672,3.9277-8.1641,10.7363-15.5918,20.4209-22.2822,9.6836-6.6875,22.7354-12.2822,39.1553-16.7881,16.4209-4.5068,37.1201-6.7598,62.1025-6.7598v-9.3486c0-12.8877-2.6318-22.2031-7.8945-27.9395s-12.7363-8.6045-22.4199-8.6045c-7.7197,0-14.0352.8418-18.9463,2.5264-4.9141,1.6836-9.2988,3.5781-13.1572,5.6836-3.8613,2.1055-7.6152,4-11.2627,5.6836-3.6514,1.6846-8,2.5264-13.0518,2.5264-4.4932,0-8.3154-1.085-11.4736-3.2627-3.1572-2.1748-5.6504-4.875-7.4727-8.1055l-11.7891-20.4199c13.1904-11.6465,27.8213-20.3145,43.8926-25.998,16.0684-5.6846,33.2939-8.5264,51.6816-8.5264,13.1904,0,25.084,2.1416,35.6826,6.4209,10.5947,4.2832,19.5781,10.2461,26.9463,17.8936,7.3672,7.6514,13.0156,16.7363,16.9463,27.2617,3.9277,10.5264,5.8945,22.0352,5.8945,34.5254v136.4141h-29.8936ZM1077.1599,382.0457c8.4199,0,15.7881-1.4736,22.1035-4.4209s12.7002-7.7168,19.1572-14.3154v-29.8936c-13.0518,0-23.7881.8525-32.209,2.5498s-15.0879,3.8223-19.999,6.3711c-4.9141,2.5488-8.3154,5.4502-10.21,8.707-1.8945,3.2559-2.8418,6.792-2.8418,10.6143,0,7.5059,2.0322,12.7793,6.1045,15.8213,4.0693,3.0459,10.0332,4.5664,17.8945,4.5664ZM1237.988,421.8328v-173.4648l-14.3154-2.9473c-4.9141-1.1221-8.877-2.875-11.8936-5.2637-3.0195-2.3848-4.5264-5.8945-4.5264-10.5254v-25.6826h30.7354v-12.4209c0-12.4893,2-23.7881,6-33.8926,4-10.1055,9.7529-18.7363,17.2617-25.8936,7.5068-7.1582,16.6641-12.7002,27.4727-16.6309,10.8057-3.9277,23.085-5.8945,36.8408-5.8945,5.332,0,10.2793.3154,14.8398.9473s9.2969,1.6514,14.2109,3.0527l-1.2637,31.7881c-.1406,2.2461-.7363,4.1045-1.7891,5.5781s-2.3516,2.668-3.8945,3.5791c-1.5469.9141-3.2637,1.5791-5.1582,2s-3.7559.6309-5.5781.6309c-5.7559,0-10.877.5625-15.3672,1.6846-4.4941,1.125-8.2461,3.125-11.2627,6-3.0195,2.8779-5.2988,6.667-6.8418,11.3672-1.5459,4.7041-2.3154,10.6318-2.3154,17.7891v10.3154h51.3652v44.6289h-49.2607v173.2549h-65.2598ZM1390.4011,421.8328v-173.4648l-14.3145-2.9473c-4.9141-1.1221-8.8779-2.875-11.8945-5.2637-3.0195-2.3848-4.5264-5.8945-4.5264-10.5254v-25.6826h30.7354v-3.1582c0-13.1895,2.2803-25.6465,6.8418-37.3662,4.5596-11.7168,11.6113-21.8936,21.1572-30.5254,9.542-8.6309,21.7158-15.4727,36.5244-20.5244,14.8057-5.0527,32.4521-7.5791,52.9453-7.5791,6.3154,0,12.8408.3154,19.5771.9473,6.7373.6318,12.5586,1.5791,17.4736,2.8418l-2.1055,33.0518c-.2832,3.5088-2.0361,5.8252-5.2627,6.9463-3.2305,1.125-6.668,1.6846-10.3154,1.6846-14.5977,0-26.667,1.125-36.209,3.3682-9.5459,2.2461-17.0879,5.5791-22.6299,9.999-5.5459,4.4209-9.4043,9.9307-11.5791,16.5264-2.1777,6.5977-3.2627,14.1768-3.2627,22.7354v1.0527h138.5195v217.8838h-65.2598v-173.2549h-71.1543v173.2549h-65.2607ZM1712.9109,106.6903v315.1426h-65.2598V106.6903h65.2598ZM1840.4792,143.741c0,5.1943-1.0527,10.0723-3.1582,14.6309-2.1055,4.5625-4.9834,8.5625-8.6309,12-3.6514,3.4404-7.8945,6.1768-12.7363,8.21-4.8418,2.0361-10,3.0527-15.4727,3.0527-5.3359,0-10.3154-1.0166-14.9473-3.0527-4.6309-2.0332-8.7363-4.7695-12.3154-8.21-3.5781-3.4375-6.3877-7.4375-8.4199-12-2.0361-4.5586-3.0527-9.4365-3.0527-14.6309,0-5.332,1.0166-10.3154,3.0527-14.9463,2.0322-4.6318,4.8418-8.7002,8.4199-12.21,3.5791-3.5068,7.6846-6.2432,12.3154-8.21,4.6318-1.9639,9.6113-2.9473,14.9473-2.9473,5.4727,0,10.6309.9834,15.4727,2.9473,4.8418,1.9668,9.085,4.7031,12.7363,8.21,3.6475,3.5098,6.5254,7.5781,8.6309,12.21,2.1055,4.6309,3.1582,9.6143,3.1582,14.9463ZM1832.9001,203.5281v218.3047h-65.2598v-218.3047h65.2598ZM2036.2536,421.8328c-6.1768,0-10.8408-.8418-13.999-2.5264-3.1582-1.6836-5.7891-5.1904-7.8945-10.5254l-4.6309-12c-5.4736,4.6318-10.7363,8.7041-15.7891,12.21-5.0527,3.5098-10.2822,6.4932-15.6836,8.9473-5.4043,2.457-11.1572,4.2793-17.2617,5.4736-6.1055,1.1904-12.8779,1.7891-20.3154,1.7891-9.9668,0-19.0186-1.3027-27.1562-3.9072-8.1416-2.6055-15.0518-6.4404-20.7363-11.5098-5.6836-5.0684-10.0713-11.3711-13.1572-18.9033-3.0879-7.5332-4.6309-16.2266-4.6309-26.0811,0-7.7432,1.9639-15.7002,5.8945-23.8672,3.9268-8.1641,10.7363-15.5918,20.4199-22.2822,9.6836-6.6875,22.7354-12.2822,39.1562-16.7881,16.4199-4.5068,37.1191-6.7598,62.1016-6.7598v-9.3486c0-12.8877-2.6309-22.2031-7.8945-27.9395-5.2627-5.7363-12.7354-8.6045-22.4199-8.6045-7.7197,0-14.0352.8418-18.9463,2.5264-4.9141,1.6836-9.2988,3.5781-13.1572,5.6836-3.8613,2.1055-7.6143,4-11.2627,5.6836-3.6504,1.6846-7.999,2.5264-13.0518,2.5264-4.4932,0-8.3154-1.085-11.4727-3.2627-3.1582-2.1748-5.6514-4.875-7.4736-8.1055l-11.7891-20.4199c13.1904-11.6465,27.8213-20.3145,43.8926-25.998,16.0684-5.6846,33.2949-8.5264,51.6816-8.5264,13.1904,0,25.085,2.1416,35.6826,6.4209,10.5947,4.2832,19.5781,10.2461,26.9463,17.8936,7.3682,7.6514,13.0156,16.7363,16.9463,27.2617,3.9277,10.5264,5.8945,22.0352,5.8945,34.5254v136.4141h-29.8936ZM1961.3103,382.0457c8.4209,0,15.7891-1.4736,22.1045-4.4209s12.6992-7.7168,19.1562-14.3154v-29.8936c-13.0518,0-23.7881.8525-32.209,2.5498-8.4199,1.6973-15.0879,3.8223-19.999,6.3711-4.9141,2.5488-8.3154,5.4502-10.21,8.707-1.8945,3.2559-2.8418,6.792-2.8418,10.6143,0,7.5059,2.0332,12.7793,6.1055,15.8213,4.0684,3.0459,10.0322,4.5664,17.8936,4.5664ZM2189.0827,425.201c-10.3877,0-19.5449-1.5098-27.4727-4.5264-7.9297-3.0156-14.5977-7.2949-19.999-12.8408-5.4043-5.543-9.5088-12.2432-12.3145-20.1045-2.8096-7.8584-4.2109-16.6309-4.2109-26.3145v-112.8369h-18.5254c-3.3682,0-6.2461-1.085-8.6309-3.2627-2.3877-2.1748-3.5791-5.3682-3.5791-9.5791v-25.4717l34.7354-6.7363,12.8418-53.2607c1.6836-6.7363,6.4531-10.1045,14.3145-10.1045h34.1045v63.7861h53.0498v44.6289h-53.0498v108.416c0,5.0527,1.2266,9.2295,3.6836,12.5254,2.4541,3.2998,6,4.9473,10.6309,4.9473,2.3848,0,4.3848-.2432,6-.7363,1.6113-.4902,3.0166-1.0527,4.21-1.6846,1.1914-.6318,2.3164-1.1904,3.3682-1.6836,1.0527-.4902,2.2803-.7373,3.6846-.7373,1.9639,0,3.542.457,4.7363,1.3682,1.1904.915,2.4209,2.3525,3.6846,4.3154l19.7881,30.9463c-8.4209,6.3154-17.8936,11.0518-28.4199,14.21-10.5254,3.1572-21.4033,4.7363-32.6299,4.7363ZM2374.3347,200.16c14.4531,0,27.6826,2.2461,39.6816,6.7363,12,4.4932,22.3154,11.0186,30.9463,19.5781,8.6309,8.5615,15.3672,19.0508,20.209,31.4717,4.8428,12.4199,7.2637,26.4922,7.2637,42.208,0,4.915-.2109,8.9141-.6318,12-.4209,3.0889-1.1943,5.5459-2.3154,7.3682-1.125,1.8252-2.6318,3.0879-4.5264,3.7891-1.8945.7041-4.3154,1.0527-7.2627,1.0527h-125.8887c2.1045,18.2461,7.6475,31.4717,16.6309,39.6816,8.9795,8.2109,20.5576,12.3154,34.7354,12.3154,7.5781,0,14.1045-.9111,19.5771-2.7363,5.4736-1.8223,10.3486-3.8584,14.6309-6.1055,4.2793-2.2432,8.2109-4.2793,11.7891-6.1045,3.5791-1.8223,7.332-2.7373,11.2627-2.7373,5.1904,0,9.1211,1.8955,11.7891,5.6846l18.9463,23.3672c-6.7363,7.7197-13.999,13.999-21.7881,18.8408s-15.7891,8.6318-23.999,11.3682-16.4199,4.6309-24.6309,5.6836c-8.21,1.0527-16.0352,1.5791-23.4717,1.5791-15.2988,0-29.6504-2.4932-43.0508-7.4736-13.4043-4.9795-25.124-12.3838-35.1562-22.209-10.0361-9.8223-17.9668-22.0322-23.7881-36.6299-5.8262-14.5947-8.7363-31.5771-8.7363-50.9453,0-14.5947,2.4893-28.4189,7.4727-41.4717,4.9805-13.0518,12.1377-24.4883,21.4727-34.3135,9.332-9.8223,20.6309-17.6113,33.8936-23.3672,13.2627-5.7529,28.2422-8.6309,44.9453-8.6309ZM2375.5974,245.2098c-12.4932,0-22.2451,3.5459-29.2617,10.6309-7.0195,7.0889-11.6504,17.2988-13.8936,30.6299h81.4697c0-5.1904-.668-10.2422-2-15.1562-1.3359-4.9111-3.5098-9.2959-6.5264-13.1582-3.0195-3.8574-6.9834-6.9795-11.8945-9.3672-4.9141-2.3848-10.877-3.5791-17.8936-3.5791Z" style="fill: url(#o);"/>
</svg>