<?xml version="1.0" encoding="UTF-8"?>
<svg xmlns="http://www.w3.org/2000/svg" xmlns:xlink="http://www.w3.org/1999/xlink" viewBox="0 0 453.5433 453.5433">
  <defs>
    <linearGradient id="n" data-name="keyhole" x1="175.2531" y1="260.5165" x2="279.8495" y2="79.3501" gradientUnits="userSpaceOnUse">
      <stop offset="0" stop-color="#ee7159"/>
      <stop offset=".85" stop-color="#e62e27"/>
    </linearGradient>
  </defs>
  <g id="d" data-name="white">
    <g id="f" data-name="shield">
      <path id="g" data-name="bg" d="M227.5447,377.4295c.0098.001.0201.0029.0299.0039,22.5-2.4,80-45.4,98.9-95.7,28.7-52.9,34.6-152.1,36.3-157.6s5.4-10,10-13.3c4.7-3.3,10.7-5,18.1-5h42.9c.0042.0129.0082.0262.0125.0392-3.1755-12.1116-12.0338-22.678-24.2125-27.7393L243.5746,8.7333c-4.2-1.7999-11.5299-3.2-16.0299-3.2h-.1608c-4.6.0001-11.6701,1.4001-15.8701,3.2002L45.6138,78.1334c-12.245,5.056-21.1113,15.6061-24.2982,27.7021l.0157-.0021h42.9826c7.4,0,13.4,1.7,18.1,5,4.7,3.4,8.4,7.8,10,13.3,1.7,5.5,7.7,104.7,36.3,157.6,18.8918,50.2782,76.1498,93.262,98.6701,95.6961h.1608Z" style="fill: #fff; isolation: isolate; opacity: .4;"/>
      <path id="h" data-name="bg-r" d="M326.3138,281.7335c28.7-52.9,34.6-152.1,36.3-157.6s5.4-10,10-13.3c4.7-3.3,10.7-5,18.1-5h42.9c.0042.0129.0082.0262.0125.0392-3.1755-12.1116-12.0338-22.678-24.2125-27.7393L243.4138,8.7333c-4.2-1.7999-11.5299-3.2-16.0299-3.2v371.8962c.0098.001.0201.0029.0299.0039,22.5-2.4,80-45.4,98.9-95.7Z" style="fill: #fff; isolation: isolate; opacity: .2;"/>
      <path id="i" data-name="v-shape" d="M227.4138,377.4335c22.5-2.4,80-45.4,98.9-95.7,28.7-52.9,34.6-152.1,36.3-157.6,1.7-5.5,5.4-10,10-13.3,4.7-3.3,10.7-5,18.1-5h42.9c1.7,5.2,2.4,11.5,1.5,30.1h0c-2.1,42.9-9.5,96-44.4,166.4-43.8,81.8-98,119.6-124.8,133.9-13.4,7-28,13.1-38.5,13.1h0c-10.5,0-24.9-6.1-38.3-13.1-26.9-14.3-81.1-52.2-124.8-133.9C29.5139,231.9334,22.0139,178.9334,19.9138,135.9334c-.8-18.6-.1-24.9,1.5-30.1h42.9c7.4,0,13.4,1.7,18.1,5,4.7,3.4,8.4,7.8,10,13.3,1.7,5.5,7.7,104.7,36.3,157.6,18.9,50.3,76.2,93.3,98.7,95.7h0Z" style="fill: #fff;"/>
    </g>
  </g>
  <g id="m" data-name="icon">
    <path d="M227.5513,104.573c5.4331,0,9.804,4.371,9.804,9.804v6.4543c5.2697.6536,10.5393,2.2876,15.6865,3.7174,5.2288,1.4298,8.2926,6.822,6.822,12.0508-1.4298,5.2288-6.822,8.2926-12.0508,6.822-3.8808-1.0621-7.7615-2.2059-11.724-2.9821-5.9641-1.1438-12.9087-.6128-18.5051,1.8383-5.0246,2.1651-9.1504,7.3939-3.4723,11.0295,5.3922,3.4723,12.1733,4.8612,18.2192,6.6177,7.1079,2.0017,16.1358,4.5752,22.9169,9.1913,8.8236,6.0458,12.9495,15.8499,10.9887,26.3892-1.8383,10.1717-8.9462,16.8711-17.443,20.3025-3.5131,1.4298-7.3939,1.9608-11.438,2.7778v6.9037c0,5.4331-4.371,9.804-9.804,9.804s-9.804-4.371-9.804-9.804l-.3676-7.8841c-6.2092-1.4706-12.6636-3.5948-19.0362-5.6782-5.1471-1.7157-7.9249-7.2713-6.2501-12.3776,1.7157-5.1471,6.9037-7.9249,12.3776-6.2501,6.2501,2.0425,12.6227,4.4935,19.077,5.4739,7.7207,1.1438,13.8891.4494,17.9332-1.1847,5.4331-2.1651,8.0066-8.6194,2.6961-12.2959-5.4739-3.7174-12.5002-5.188-18.7502-6.9445-6.8628-1.9608-15.4005-4.371-21.8548-8.4968-8.8645-5.6782-13.358-15.1554-11.438-25.5722,1.7974-9.9266,9.5181-16.5035,17.6473-20.0166,2.4919-1.0621,5.188-1.92,7.5981-2.5736v-7.3122c0-5.4331,4.7386-9.804,9.804-9.804h.3676Z" style="fill: #fff;"/>
    <path d="M122.9749,169.9333c0-57.7621,46.8143-104.5764,104.5764-104.5764s104.5764,46.8143,104.5764,104.5764-46.8143,104.5764-104.5764,104.5764-104.5764-46.8143-104.5764-104.5764ZM237.3554,114.3771c0-5.4331-4.371-9.804-10.1717-9.804-5.0654,0-9.804,4.371-9.804,9.804v7.3122c-2.4102.6536-5.1063,1.5115-7.5981,2.5736-8.1292,3.5131-15.8499,10.09-17.6473,20.0166-1.92,10.4168,2.5736,19.894,11.438,25.5722,6.4543,4.1259,14.992,6.536,21.8548,8.4968.9804.2859,2.0425.531,3.0638.817,5.3922,1.4706,11.0704,2.6553,15.6865,6.1275,5.3105,3.6765,2.737,10.1308-2.6961,12.2959-4.0442,1.634-10.2125,2.3285-17.9332,1.1847-5.2697-.817-10.4985-2.5736-15.6456-4.3301-1.1438-.3676-2.2876-.7762-3.4314-1.1438-5.4739-1.6749-10.6619,1.1029-12.3776,6.2501-1.6749,5.1063,1.103,10.6619,6.2501,12.3776,6.3726,2.0834,12.827,4.2076,19.4038,5.6782v7.8841c0,5.4331,4.371,9.804,9.804,9.804s9.804-4.371,9.804-9.804v-6.9037c4.0442-.817,7.9249-1.3481,11.438-2.7778,8.4968-3.4314,15.6048-10.1308,17.443-20.3025,1.9608-10.5394-2.1651-20.3434-10.9887-26.3892-6.7811-4.6161-15.809-7.1896-22.9169-9.1913-1.0213-.3268-2.0834-.6128-3.5131-.8987-4.8203-1.3889-10.2125-2.8595-14.7061-5.719-5.6782-3.6357-1.5523-8.8645,3.4723-11.0295,5.5965-2.451,12.541-2.9821,18.5051-1.8383,3.268.6128,6.4543,1.5115,9.5998,2.4102.7353.2043,1.4298.4085,2.1242.5719,5.2288,1.4706,10.621-1.5932,12.0508-6.822,1.4706-5.2288-1.5932-10.621-6.822-12.0508-.8579-.2451-1.6749-.4902-2.5327-.7353-4.3301-1.2255-8.7419-2.451-13.1538-2.9821v-6.4543Z" style="fill: url(#n); isolation: isolate;"/>
  </g>
</svg>