<?xml version="1.0" encoding="UTF-8"?>
<svg id="Logos" xmlns="http://www.w3.org/2000/svg" viewBox="0 0 495.95 551.41">
  <defs>
    <style>
      .cls-1 {
        fill: #da3826;
      }
    </style>
  </defs>
  <path class="cls-1" d="M346.13,206.3l-24.54,24.54c40.66,40.66,40.66,106.58,0,147.24-40.66,40.66-106.58,40.66-147.24,0-40.66-40.66-40.66-106.58,0-147.24l-.02-.02,64.86-64.86,8.76-8.76.03.02v-49.08l-98.16,98.16c-54.21,54.21-54.21,142.1,0,196.32,54.21,54.21,142.1,54.21,196.32,0,54.21-54.21,54.21-142.1,0-196.32Z"/>
  <path class="cls-1" d="M309.74,194.54c7.05-7.05,7.05-18.47,0-25.52-7.05-7.05-18.47-7.05-25.52,0-7.05,7.05-7.05,18.47,0,25.52,7.05,7.05,18.47,7.05,25.52,0Z"/>
</svg>