<svg xmlns="http://www.w3.org/2000/svg" x="0" y="0" version="1.1" viewBox="3.08 0.11 39.46 39.46">
  
  <g transform="matrix(.39458 0 0 .39458 1.082 .105)">
    <circle cx="55.069" cy="50" r="50" fill="#D71E00"/>
    <path fill="#C21A00" d="M90.429 14.641c19.529 19.529 19.529 51.19 0 70.718-19.529 19.53-51.192 19.53-70.72 0l70.72-70.718z"/>
    <path fill="#FFF" d="M59.608 49.99L74.668 81.859 61.838 81.859 46.789 49.99 61.838 18.14 74.668 18.14z"/>
    <path fill="#B7B7B7" d="M74.668 81.859L89.718 49.99 74.668 18.14 68.258 31.7 76.898 49.99 68.258 68.291z"/>
    <path fill="#FFF" d="M33.239 49.99L48.299 81.859 35.469 81.859 20.419 49.99 35.469 18.14 48.299 18.14z"/>
    <path fill="#B7B7B7" d="M48.659 46.04L55.069 32.47 48.299 18.14 41.879 31.71z"/>
    <path fill="#B7B7B7" d="M41.879 68.291L48.299 81.859 55.069 67.529 48.659 53.961z"/>
  </g>
  
</svg>