<svg xmlns="http://www.w3.org/2000/svg" viewBox="0.17 1.25 11.17 8.99"><path fill="#34a19b" d="M3.55 1.25c-.647 0-1.23.16-1.74.481A3.3 3.3 0 0 0 .6 3.021a3.9 3.9 0 0 0-.43 1.83c0 .594.117 1.14.35 1.65q.351.761.981 1.26.63.5 1.44.641l-1.12.41q-.27.1-.27.41 0 .18.13.32.14.15.33.15.21 0 .451-.12.1-.05.2-.09a1 1 0 0 1 .23-.03q.27 0 .471.07.2.08.511.25.41.23.791.35.38.12.991.12.38 0 .841-.15t.781-.39.32-.501a.44.44 0 0 0-.14-.32.41.41 0 0 0-.48-.09 3 3 0 0 0-.19.13 3 3 0 0 1-.18.15q-.19.14-.4.22t-.501.08q-.33 0-.601-.1a5 5 0 0 1-.631-.27q-.29-.15-.501-.24a1.8 1.8 0 0 0-.451-.11l.761-.28a3.1 3.1 0 0 0 1.38-.66q.6-.502.931-1.24a3.8 3.8 0 0 0 .34-1.62 3.8 3.8 0 0 0-.44-1.83 3.24 3.24 0 0 0-1.2-1.29 3.2 3.2 0 0 0-1.74-.482zm0 .951q.681 0 1.21.35.54.34.841.951.3.6.3 1.35t-.3 1.36q-.3.6-.841.951-.531.34-1.21.34-.681 0-1.22-.34a2.4 2.4 0 0 1-.831-.951q-.3-.611-.3-1.36 0-.761.3-1.36.3-.61.831-.951.541-.34 1.22-.34m7.15.791a1.75 1.75 0 0 0-1 .32 1.86 1.86 0 0 0-.661.791v-.511a.46.46 0 0 0-.14-.34.44.44 0 0 0-.34-.14.46.46 0 0 0-.34.14.48.48 0 0 0-.13.34v4.28q0 .21.13.35.13.13.34.13t.34-.14a.46.46 0 0 0 .14-.34v-2.41q0-.46.18-.831A1.6 1.6 0 0 1 9.7 4.04q.3-.22.611-.22.12 0 .33.07.18.06.27.06.18 0 .3-.12.13-.13.13-.37 0-.2-.19-.33a.74.74 0 0 0-.451-.14z"/></svg>