<?xml version="1.0" encoding="UTF-8"?>
<svg xmlns="http://www.w3.org/2000/svg" xmlns:xlink="http://www.w3.org/1999/xlink" width="512px" height="512px" viewBox="0 0 512 512" version="1.1">
<defs>
<clipPath id="clip1">
  <path d="M 75 71.496094 L 440.503906 71.496094 L 440.503906 267 L 75 267 Z M 75 71.496094 "/>
</clipPath>
<clipPath id="clip2">
  <path d="M 71.496094 245 L 437 245 L 437 440.503906 L 71.496094 440.503906 Z M 71.496094 245 "/>
</clipPath>
</defs>
<g id="surface1">
<path style=" stroke:none;fill-rule:nonzero;fill:rgb(25.882354%,52.156866%,95.686275%);fill-opacity:1;" d="M 512 256 C 512 114.613281 397.386719 0 256 0 C 114.613281 0 0 114.613281 0 256 C 0 397.386719 114.613281 512 256 512 C 397.386719 512 512 397.386719 512 256 Z M 512 256 "/>
<g clip-path="url(#clip1)" clip-rule="nonzero">
<path style=" stroke:none;fill-rule:nonzero;fill:rgb(100%,100%,100%);fill-opacity:1;" d="M 423.960938 255.066406 C 415.589844 255.066406 408.421875 248.753906 407.542969 240.296875 C 399.550781 162.804688 334.394531 104.371094 256.003906 104.371094 C 192.488281 104.371094 136.726562 143.019531 114.167969 200.445312 L 214.425781 200.445312 L 206.3125 192.367188 C 203.5625 189.636719 202.015625 185.917969 202.015625 182.042969 C 202.015625 178.164062 203.5625 174.445312 206.3125 171.714844 C 212.058594 166.007812 221.332031 166.007812 227.078125 171.714844 L 262.066406 206.535156 C 264.820312 209.269531 266.367188 212.988281 266.367188 216.867188 C 266.367188 220.746094 264.820312 224.46875 262.066406 227.199219 L 227.078125 262.023438 C 221.335938 267.726562 212.066406 267.726562 206.324219 262.023438 C 203.570312 259.289062 202.023438 255.566406 202.023438 251.6875 C 202.023438 247.808594 203.570312 244.089844 206.324219 241.355469 L 214.378906 233.339844 L 92.957031 233.339844 C 87.894531 233.339844 82.371094 230.648438 79.234375 226.6875 C 76.089844 222.707031 74.78125 216.675781 75.992188 211.773438 C 96.40625 129.179688 170.4375 71.496094 256.003906 71.496094 C 351.394531 71.496094 430.675781 142.628906 440.417969 236.941406 C 441.347656 245.96875 434.742188 254.050781 425.664062 254.976562 C 425.097656 255.035156 424.53125 255.066406 423.960938 255.066406 Z M 423.960938 255.066406 "/>
</g>
<g clip-path="url(#clip2)" clip-rule="nonzero">
<path style=" stroke:none;fill-rule:nonzero;fill:rgb(100%,100%,100%);fill-opacity:1;" d="M 86.339844 256.816406 C 95.527344 255.996094 103.523438 262.488281 104.453125 271.515625 C 104.730469 274.28125 105.089844 277.027344 105.519531 279.738281 C 117.214844 353.84375 180.507812 407.609375 256.003906 407.609375 C 319.546875 407.609375 375.324219 368.953125 397.867188 311.476562 L 297.519531 311.476562 L 305.695312 319.613281 C 308.449219 322.347656 309.996094 326.066406 309.996094 329.945312 C 309.996094 333.824219 308.449219 337.542969 305.695312 340.28125 C 299.953125 345.984375 290.683594 345.984375 284.941406 340.28125 L 249.945312 305.453125 C 247.195312 302.71875 245.644531 298.996094 245.644531 295.117188 C 245.644531 291.238281 247.195312 287.519531 249.945312 284.785156 L 284.933594 249.960938 C 290.679688 244.257812 299.953125 244.257812 305.699219 249.960938 C 308.453125 252.695312 310 256.414062 310 260.289062 C 310 264.167969 308.453125 267.886719 305.699219 270.621094 L 297.703125 278.582031 L 419.078125 278.582031 C 424.140625 278.582031 429.671875 281.273438 432.800781 285.234375 C 435.945312 289.214844 437.253906 295.207031 436.042969 300.128906 C 415.652344 382.777344 341.621094 440.503906 256.003906 440.503906 C 164.132812 440.503906 87.121094 375.035156 72.882812 284.84375 C 72.359375 281.519531 71.925781 278.179688 71.582031 274.832031 C 70.660156 265.808594 77.273438 257.742188 86.339844 256.816406 Z M 86.339844 256.816406 "/>
</g>
</g>
</svg>
