<svg width="512" height="512" xmlns="http://www.w3.org/2000/svg" version="1.1" xml:space="preserve">

 <g>
  <title>Layer 1</title>
  <g id="Group-Copy">
   <path fill="#24292e" class="st0" d="m80.3,80.8l3.9,372.4c-31.4,3.9 -54.9,-11.8 -54.9,-43.1l-3.9,-309.7c0,-98 90.2,-121.5 145.1,-82.3l278.3,160.7c39.2,27.4 47,78.4 27.4,113.7c-3.9,-27.4 -15.7,-43.1 -39.2,-58.8l-313.6,-176.5c-23.5,-15.6 -43.1,-11.7 -43.1,23.6" id="Shape"/>
   <path fill="#24292e" class="st0" d="m56.8,472.8c23.5,7.8 47,3.9 66.6,-7.8l321.5,-188.2c19.6,27.4 15.7,54.9 -7.8,70.6l-270.6,156.8c-39.2,19.6 -90.1,0 -109.7,-31.4" id="Shape_00000114049535938561773820000018271523940913105341_"/>
   <path fill="#ffc230" d="m150.9,363l192.1,-109.7l-188.2,-105.9l-3.9,215.6z" id="Shape_00000165935924413286433040000003668002807793862576_"/>
  </g>
  <text transform="matrix(1.1731 0 0 1.1731 -46.7166 -67.3743)" xml:space="preserve" text-anchor="start" font-family="Noto Sans JP" font-size="112" id="svg_1" y="430.99998" x="258.33499" stroke-width="0" fill="#ffc230">DV</text>
 </g>
</svg>