<svg width="1024" height="1024" viewBox="0 0 1024 1024" fill="none" xmlns="http://www.w3.org/2000/svg">
<g clip-path="url(#clip0_21_3)">
<mask id="mask0_21_3" style="mask-type:luminance" maskUnits="userSpaceOnUse" x="0" y="0" width="1024" height="1024">
<path d="M0 0H1024V1024H0V0Z" fill="white"/>
</mask>
<g mask="url(#mask0_21_3)">
<path d="M175.302 175.943L182.824 890.492C122.651 898.014 77.5216 867.927 77.5216 807.755L70 213.55C70 25.5112 242.996 -19.6183 348.298 55.5975L882.33 363.982C957.546 416.633 972.589 514.413 934.981 582.107C927.46 529.456 904.895 499.37 859.765 469.284L258.039 130.813C212.91 100.727 175.302 108.249 175.302 175.943Z" fill="#24292E"/>
<path d="M130.173 928.101C175.302 943.144 220.432 935.622 258.04 913.058L874.809 552.022C912.417 604.673 904.896 657.324 859.766 687.41L340.777 988.273C265.561 1025.88 167.781 988.273 130.173 928.101Z" fill="#24292E"/>
<path d="M310.69 717.496L679.247 506.892L318.212 303.809L310.69 717.496Z" fill="#FFC230"/>
</g>
<path d="M491.844 881.083V838.536L598.522 670.472H635.204V729.363H613.494L546.243 835.792V837.788H697.839V881.083H491.844ZM614.492 926V868.107L615.491 849.267V670.472H666.147V926H614.492ZM782.495 870.852L782.62 807.095H790.355L851.742 734.354H912.754L830.282 830.676H817.68L782.495 870.852ZM734.334 926V670.472H787.486V926H734.334ZM854.113 926L797.717 842.529L833.151 804.973L916.373 926H854.113Z" fill="#FFC230"/>
</g>
<defs>
<clipPath id="clip0_21_3">
<rect width="1024" height="1024" fill="white"/>
</clipPath>
</defs>
</svg>
