<svg xmlns="http://www.w3.org/2000/svg" xml:space="preserve" viewBox="0.01 13.26 512 485.36"><path d="M474-312.2c-18.4-22.4-45.1-39.3-75.8-49.8-3.9 14.8-11.4 29.3-22.6 43l-17.8 21.7c11.8 4.6 22.1 11.4 29.4 20.3 21.3 26 8.7 59.3-28.3 74.3s-84.2 6.1-105.6-19.9l-35.8-43.6h-57.9l-28.9 35.3 35.9 43.6c49 59.8 157.5 80.2 242.4 45.7 84.9-34.4 114-110.8 65-170.6" style="fill:#70caf2" transform="matrix(.8819 0 0 1.25276 73.007 655.001)"/><path d="M317.6-468.4c-84.9-34.5-193.4-14-242.4 45.7-18.4 22.4-25.8 47.1-23.4 71.1 20.1-5 41.7-7.7 64.3-7.7h35.6c-.2-9.5 3-19.2 10.3-28.1 21.4-26 68.6-34.9 105.6-19.9s49.6 48.3 28.3 74.3L260-289.3l28.9 35.3h57.9l35.7-43.7c49.1-59.7 20-136.2-64.9-170.7" style="fill:#b4e3f9" transform="matrix(.8819 0 0 1.25276 54.168 621.044)"/><path d="M190.9-153.9 173-175.6c-11.6 4.9-25.1 7.8-39.7 7.8-42.7 0-77.3-24.4-77.3-54.4 0-30.1 34.6-54.4 77.3-54.4h71.6l28.9-35.3-28.8-35.3h-71.6c-98 0-177.5 55.9-177.5 124.9S35.4-97.4 133.4-97.4c36.7 0 70.8-7.8 99.1-21.3-16.2-9.6-30.4-21.4-41.6-35.2" style="fill:#3f79ad" transform="matrix(.8819 0 0 1.25276 38.903 620.511)"/></svg>