<svg xmlns="http://www.w3.org/2000/svg" xml:space="preserve" viewBox="0 0 512 512"><path d="M160 0h192c88.4 0 160 71.6 160 160v192c0 88.4-71.6 160-160 160H160C71.6 512 0 440.4 0 352V160C0 71.6 71.6 0 160 0"/><path d="m335.4 321.8-69 91.9h71.9l32.9-43.8 32.9 43.8H476L338.3 230h-71.9zm43.6-58.2 25.1-33.6H476l-60.9 81.5zM36 98.2v237.4h67.1v-63.1h36.7c33 0 74.9-7.2 96.7-40q12.9-19.65 12.9-46.5 0-27.15-12.9-46.8c-8.6-13.3-20.8-23.5-36.6-30.5-15.6-7-33.7-10.5-55.4-10.5zm166.8 174.5s-27.4 11.5-63.6 11.1l38.8 51.8h71.9zm-99.7-52.1h37.3c14 0 24.4-3.1 31.2-9.2 7-6.1 10.5-14.6 10.5-25.4q0-16.65-10.5-25.8c-6.8-6.1-17.2-9.2-31.2-9.2h-37.3z" style="fill-rule:evenodd;clip-rule:evenodd;fill:#fafafa"/></svg>