<svg xmlns="http://www.w3.org/2000/svg" fill="none" viewBox="0 0 400 400">
<path d="M400 0H0V400H400V0Z" fill="black"/>
<path d="M289.774 286.281C298.208 300.311 305.087 304.975 319.156 306.646V320.677H249.743L184.722 212.204H168.476V283.327C168.476 302.371 173.179 305.014 193.194 306.685V320.716H88.4141V306.685C108.43 305.014 113.132 302.332 113.132 283.327V124.408C113.132 105.053 109.051 102.721 88.4141 101.05V87.0195H196.265C261.286 87.0195 295.254 100.7 295.254 148.776C295.254 185.154 277.571 202.527 241.931 208.512L289.774 286.281ZM177.843 109.717C172.207 109.717 168.476 113.72 168.476 119.744V189.507H195.371C223.198 189.507 239.755 179.48 239.755 148.776C239.755 117.723 223.198 109.717 196.304 109.717H177.843Z" fill="white"/>
<path d="M250.756 95.3379H149.629V191.879H250.756V95.3379Z" fill="white"/>
<path d="M237.742 112.205C232.262 122.349 240.734 170.153 240.734 170.153C240.851 172.679 239.141 174.895 236.653 175.439C236.653 175.439 184.807 175.672 167.629 189.974" fill="black"/>
</svg>