<?xml version="1.0" encoding="UTF-8" standalone="no"?>
<!DOCTYPE svg PUBLIC "-//W3C//DTD SVG 20010904//EN" "http://www.w3.org/TR/2001/REC-SVG-20010904/DTD/svg10.dtd">
<svg version="1.0" xmlns="http://www.w3.org/2000/svg" width="988.000000pt" height="988.000000pt" viewBox="0 0 988.000000 988.000000" preserveAspectRatio="xMidYMid meet">
<metadata>
Created by potrace 1.11, written by Peter Selinger 2001-2013
</metadata>
<rect width="100%" height="100%" fill="#fff"/>
<g transform="translate(0.000000,988.000000) scale(0.100000,-0.100000)" fill="#000000" stroke="none">
<path d="M0 4940 l0 -4940 4940 0 4940 0 0 4940 0 4940 -4940 0 -4940 0 0 -4940z m9480 0 l0 -4540 -4540 0 -4540 0 0 4540 0 4540 4540 0 4540 0 0 -4540z"/>
<path d="M2182 7558 l3 -173 111 -11 c214 -23 313 -53 385 -121 56 -52 83 -111 99 -213 8 -55 10 -641 8 -2235 l-3 -2160 -22 -63 c-57 -168 -153 -225 -440 -261 l-138 -17 -3 -172 -2 -172 1295 0 1295 0 0 174 0 174 -86 7 c-259 21 -409 87 -465 202 -54 112 -53 82 -56 1141 l-4 982 203 -2 202 -3 801 -1337 800 -1337 858 0 857 -1 0 173 0 173 -73 12 c-227 35 -391 133 -530 314 -42 55 -1237 1985 -1288 2080 -8 14 -5 18 13 22 441 87 725 216 933 424 172 171 276 389 331 687 26 141 27 567 1 702 -90 476 -330 770 -777 954 -253 105 -515 160 -990 211 -71 7 -633 12 -1713 15 l-1607 4 2 -173z m3671 -523 c-38 -146 -13 -605 58 -1080 17 -110 33 -228 36 -261 5 -60 4 -63 -30 -100 l-35 -38 -168 -8 c-705 -31 -1246 -141 -1500 -303 l-57 -37 54 61 c179 200 1654 1828 1656 1827 1 -1 -5 -28 -14 -61z"/>
</g>
</svg>