<svg xmlns="http://www.w3.org/2000/svg" xml:space="preserve" id="Layer_1" x="0" y="0" version="1.1" viewBox="0 0 512 512"><style>.st1{fill:#27b1ff}</style><path d="M304 240h208v32H304z" style="fill:#ffd600"/><path d="m53.6 51.9 91.7 193.7L0 465.3 217.9 512l60.5-265.6V0z" class="st1"/><path d="M224 320c53 0 96-28.7 96-64s-43-64-96-64-96 28.7-96 64 43 64 96 64m-8-64c39.8 0 72-10.7 72-24s-32.2-24-72-24-72 10.7-72 24 32.2 24 72 24" style="fill-rule:evenodd;clip-rule:evenodd;fill:#ffd600"/><path d="M145.3 243.9 119.4 192l159.1-27.7v79.6z" class="st1"/></svg>