<svg xmlns="http://www.w3.org/2000/svg" xmlns:xlink="http://www.w3.org/1999/xlink" version="1.1" id="Layer_1" x="0px" y="0px" style="enable-background:new 0 0 1920 1080;" xml:space="preserve" viewBox="762.04 306.21 401.81 459.59">
<style type="text/css">
	.st0{fill:#FEFEFE;}
	.st1{fill:#6DB653;}
</style>
<g>
	
	<path class="st1" d="M962.86,420.95c52.13,0,104.27,0,156.4,0c10.34,0,14.29,3.85,13.74,14.34c-1.15,21.76-2.65,43.5-3.95,65.25   c-2.45,41.02-4.84,82.04-7.29,123.06c-1.65,27.56-3.17,55.14-5.18,82.67c-0.66,9.09-0.13,18.37-2.71,27.25   c-4.62,15.89-15.62,25.12-31.1,30.06c-7.01,2.24-14.01,2.12-21.1,2.12c-69.12,0.02-138.25,0.31-207.37-0.18   c-19.52-0.14-38.4-11.46-43.69-32.65c-2.58-10.33-2.1-21.14-2.74-31.77c-2.07-34.04-4.33-68.06-6.44-102.09   c-1.25-20.08-2.28-40.18-3.54-60.27c-2.11-33.7-4.33-67.38-6.48-101.08c-0.3-4.66-0.56-9.23,3.16-13.08c2.82-2.91,6-3.7,9.87-3.69   C857.26,420.98,910.06,420.95,962.86,420.95z"/>
	<path class="st1" d="M962.25,392.98c-61.96,0-123.92-0.01-185.88,0.02c-3.37,0-6.8,0.07-9.6-1.97c-2.88-2.1-4.81-4.8-4.73-8.82   c0.2-8.82-0.02-17.65,0.04-26.48c0.09-11.44,9.18-20.45,20.72-20.46c31.81-0.04,63.63-0.05,95.44,0.05   c3.55,0.01,5.82-0.65,7.19-4.44c1.56-4.32,4.04-8.32,6.16-12.44c4.09-7.94,10.79-12.08,19.54-12.12   c34.14-0.16,68.29-0.13,102.43-0.02c8.63,0.03,15.23,4.16,19.45,11.67c2.43,4.32,4.76,8.77,6.42,13.41   c1.24,3.47,3.27,3.94,6.41,3.93c30.98-0.08,61.96-0.05,92.94-0.05c12.57,0,20.61,5.4,24.67,16.93c0.68,1.94,0.29,4.28,0.3,6.44   c0.03,6.66,0.01,13.32,0.01,19.99c0,9.54-4.85,14.36-14.63,14.36C1086.83,392.99,1024.54,392.98,962.25,392.98z"/>
	<path class="st0" d="M1043.97,491.95c-1.3,4.31-3.67,7.25-5.52,10.43c-6.34,10.87-12.72,21.72-19.06,32.59   c-1.48,2.54-3.04,4.4-6.56,4.2c-15.92-0.92-31.86-1.58-47.79-2.37c-0.23-0.01-0.45-0.39-0.95-0.85c3.67-3.41,8.24-5.36,12.51-7.6   c4.05-2.13,4.89-4.04,2.95-8.5c-7.91-18.24-17.55-35.23-32.58-48.7c1.6-1.76,3.36-1.07,4.91-1.07c15.8-0.03,31.61,0.03,47.41,0.06   c6.05,0.01,10.46,2.92,13.53,7.91c4.08,6.63,8.13,13.28,11.89,20.09c1.51,2.74,2.6,3.09,5.33,1.4   C1034.32,496.89,1038.48,493.93,1043.97,491.95z"/>
	<path class="st0" d="M875.62,638.11c-8.67-16.31-16.96-31.76-25.1-47.28c-2.8-5.35-1.77-10.7,1.14-15.7   c3.76-6.45,7.51-12.91,11.63-19.14c1.81-2.73,1.19-3.99-1.31-5.44c-4.36-2.53-8.6-5.25-12.7-7.78c11.2,0,22.22-0.06,33.24,0.02   c5.83,0.04,11.65,0.44,17.48,0.44c2.31,0,3.81,0.73,4.77,2.77c7,14.8,14.01,29.59,20.98,44.39c0.11,0.22-0.14,0.61-0.37,1.54   c-4.72-2.87-9.54-5.3-13.77-8.52c-3.14-2.39-4.76-1.51-6.87,1.04c-12.62,15.24-22.96,31.71-27.95,51.12   C876.63,636.18,876.26,636.73,875.62,638.11z"/>
	<path class="st0" d="M997.95,687.53c-4.01-3.79-5.57-7.62-7.73-11c-6.86-10.76-13.55-21.63-20.36-32.42   c-1.21-1.92-2.02-3.53-0.62-5.89c7.95-13.38,15.75-26.85,23.6-40.28c0.5-0.85,1.02-1.71,3.26-1.68c0,5.34-0.01,10.73,0,16.11   c0.01,2.02-0.16,4.13,2.77,4.36c17.63,1.37,35.19,1.77,52.47-2.99c0.64-0.18,1.27-0.41,1.92-0.55c2.48-0.5,5.28-3.59,7.14-1.47   c1.38,1.57-1.6,4.28-2.7,6.43c-6.48,12.66-13.09,25.26-19.63,37.9c-3.17,6.13-8.17,9.45-15.05,9.85   c-7.13,0.41-14.27,0.96-21.41,1.04c-3.55,0.04-4.77,1.33-4.52,4.72C997.47,676.54,997.64,681.43,997.95,687.53z"/>
	<path class="st0" d="M928.28,468.79c5.76-0.28,10.77,1.86,15.26,5.15c5.81,4.25,10.58,9.6,15.26,15.04   c1.54,1.8,1.66,3.17,0.36,5.28c-9.99,16.24-19.92,32.52-29.65,48.91c-2.01,3.39-3.45,4.42-7.25,2.06   c-11.41-7.09-23.05-13.8-34.71-20.47c-3.44-1.97-4.2-3.57-1.79-7.24c8.46-12.9,16.66-25.98,24.67-39.17   C914.61,471.49,920.49,468.55,928.28,468.79z"/>
	<path class="st0" d="M1074.28,583.98c-0.68,11.35-6.36,18.12-14.99,22.52c-6.37,3.25-13.48,4.6-20.34,6.54   c-1.8,0.51-3.04-0.08-4.06-1.86c-9.83-17.28-20.48-34.07-31.18-50.82c-1.66-2.61-0.71-3.79,1.47-5.14   c12.4-7.67,24.8-15.35,37.1-23.19c2.33-1.49,3.4-0.39,4.38,1.27c8.64,14.69,17.29,29.37,25.75,44.17   C1073.69,579.71,1074.51,582.38,1074.28,583.98z"/>
	<path class="st0" d="M953.01,630.07c-0.55,11.62-1.27,23.23-1.57,34.85c-0.1,3.74-1.61,4.48-4.85,4.25   c-16.41-1.17-32.83-2.14-49.24-3.37c-8.47-0.64-16.49-9.9-17.16-19.99c-0.67-10.23,3.25-19.52,6.78-28.84   c0.77-2.03,2.57-1.65,4.26-1.48c18.2,1.86,36.47,2.33,54.73,3.06c7.28,0.29,7.28,0.16,7.16,7.52c-0.02,1.33,0,2.66,0,3.99   C953.09,630.07,953.05,630.07,953.01,630.07z"/>
</g>
</svg>