<svg xmlns="http://www.w3.org/2000/svg" xml:space="preserve" id="svg18759" x="0" y="0" version="1.1" viewBox="0 34.1 512 443.7"><style>.st1{fill:#500}.st4{fill:#fd5}.st5{fill:#d4aa00}.st6{fill:#fc0}</style><g id="layer1"><path id="path18985" d="m0 368.6 218.5 109.2 279.9-139.9-34.1-17.1v6.8l-245.8 123L27.3 355V191.1l191.1 95.6 273.1-136.5-150.2-75.1L314 88.7V61.4l-41-20.5L0 177.5z" style="fill:maroon"/><path id="path18989" d="m27.3 191.1-13.7-6.8v177.5l13.7-6.8z" class="st1"/><linearGradient id="path19177_00000083776662028762316580000015356417200628202391_" x1="-8.581" x2="-12.193" y1="521.216" y2="513.991" gradientTransform="matrix(3.7795 0 0 -3.7795 136.197 2329.032)" gradientUnits="userSpaceOnUse"><stop offset="0" style="stop-color:#fea"/><stop offset="1" style="stop-color:#fff6d5"/></linearGradient><path id="path19177" d="M218.5 450.6V286.7L27.3 191.1V355z" style="fill:url(#path19177_00000083776662028762316580000015356417200628202391_)"/><linearGradient id="path19215_00000014631756907018746220000017781283977920492702_" x1="59.333" x2="62.946" y1="524.828" y2="517.603" gradientTransform="matrix(3.7795 0 0 -3.7795 136.197 2329.032)" gradientUnits="userSpaceOnUse"><stop offset="0" style="stop-color:#fea"/><stop offset="1" style="stop-color:#fff6d5"/></linearGradient><path id="path19215" d="m218.5 450.6 245.8-122.9V163.8L218.5 286.7z" style="fill:url(#path19215_00000014631756907018746220000017781283977920492702_)"/><path id="path19285" d="M382.3 252.6c-15.1 0-27.3 6.1-27.3 13.7 0 3.6 2.9 7.1 8 9.7l38.6-19.3c-5.1-2.7-12.1-4.1-19.3-4.1" class="st4"/><path id="path19290" d="M286.7 368.6c-15.1 0-27.3 6.1-27.3 13.7 0 3.6 2.9 7.1 8 9.7l38.6-19.3c-5.1-2.6-12-4.1-19.3-4.1" class="st4"/><path id="path21320" d="M327.7 314c-15.1 0-27.3 6.1-27.3 13.7 0 3.6 2.9 7.1 8 9.7L347 318c-5.1-2.5-12.1-4-19.3-4" class="st4"/><path id="path21322" d="M409.6 204.8c-15.1 0-27.3 6.1-27.3 13.7 0 3.6 2.9 7.1 8 9.7l38.6-19.3c-5.1-2.7-12.1-4.1-19.3-4.1" class="st4"/><path id="path917" d="M457.4 41c-30.2 0-54.6 12.2-54.6 27.3s24.5 27.3 54.6 27.3c30.2 0 54.6-12.2 54.6-27.3S487.5 41 457.4 41M471 54.6c7.5 0 13.7 3.1 13.7 6.8 0 3.8-6.1 6.8-13.7 6.8-7.5 0-13.7-3.1-13.7-6.8.1-3.7 6.2-6.8 13.7-6.8" class="st5"/><path id="path580" d="m368.6 88.7 41-20.5 27.3 13.7-41 20.5z" class="st6"/><path id="path1049" d="M402.8 61.4v6.8h6.8v-6.8z" class="st5"/><path id="path1051" d="M512 61.4v6.8h-6.8v-6.8z" class="st5"/><path id="path582" d="M457.4 34.1c-30.2 0-54.6 12.2-54.6 27.3s24.5 27.3 54.6 27.3c30.2 0 54.6-12.2 54.6-27.3s-24.5-27.3-54.6-27.3M471 47.8c7.5 0 13.7 3.1 13.7 6.8 0 3.8-6.1 6.8-13.7 6.8-7.5 0-13.7-3.1-13.7-6.8.1-3.8 6.2-6.8 13.7-6.8" class="st6"/><path id="path584" d="M314 61.4 122.9 157l27.3 13.7 13.7-6.8 27.3 13.7 27.3-13.7-27.3-13.7 13.7-6.8 41 20.5 13.7-6.8-41-20.5 13.7-6.8 27.3 13.7 27.3-13.7-27.3-13.7L314 88.7z" style="fill:#2b0000"/><path id="path802" d="M259.4 116.1v27.3l27.3-13.7z" class="st1"/><path id="path804" d="M218.5 136.5v13.7l27.3 13.7 13.7-6.8z" class="st1"/><path id="path915" d="M191.1 150.2v27.3l27.3-13.7z" class="st1"/><path id="path973" d="m395.9 102.4 6.8 3.4 34.1-17.1-6.8-3.4z" class="st5"/></g></svg>