<svg xmlns:dc="http://purl.org/dc/elements/1.1/" xmlns:cc="http://creativecommons.org/ns#" xmlns:rdf="http://www.w3.org/1999/02/22-rdf-syntax-ns#" xmlns:svg="http://www.w3.org/2000/svg" xmlns="http://www.w3.org/2000/svg" xml:space="preserve" version="1.1" viewBox="5.57 182.54 989.43 682.93">
	<g>
		<title>background</title>
		<rect fill="none" id="background" height="1002" width="1002" y="-1" x="-1"/>
	</g>
	<g>
		<title>Logo</title>
		<g transform="rotate(180, 500, 500)" id="Logo">
			<path fill="#d52c24" fill-rule="nonzero" d="m297.932983,754.697327l94.921478,-112.637756c4.070251,-5.356079 -1.323608,-9.318115 -1.323608,-9.318115c-38.036346,-20.90564 -65.558197,-52.496582 -89.100891,-88.672119c-4.674866,-7.17749 -9.716095,-1.963806 -9.716095,-1.963806l-120.275864,91.781738c0,0 -5.17041,3.097839 -0.644852,9.22229c35.218735,47.657104 67.212173,81.266846 118.368866,112.995789c0,0 3.875427,3.721558 7.770966,-1.40802" id="path14"/>
			<path fill="#c82624" fill-rule="nonzero" d="m129.558426,571.200745l142.147659,-70.021576c6.754456,-2.668335 3.374603,-8.93515 3.374603,-8.93515c-19.637634,-47.623718 -31.603806,-87.829376 -40.835999,-136.544037c-1.546982,-8.156067 -6.977859,-5.542755 -6.977859,-5.542755l-159.891731,70.746643c0,0 -4.79388,1.828888 -2.792,8.10434c7.097748,22.288879 43.264374,111.264069 57.782486,140.34201c0,0 2.543396,4.408875 7.192841,1.850525" id="path16"/>
			<path fill="#ac1f22" fill-rule="nonzero" d="m50.023781,346.267395c32.514511,-10.204071 168.945808,-42.224426 168.945808,-42.224426c8.177597,-2.566925 5.741135,-8.817566 5.741135,-8.817566c-9.414307,-75.529892 -7.370712,-133.172134 -7.370712,-153.087189c0,-8.829453 -6.307632,-7.531418 -6.307632,-7.531418c-35.417801,0 -199.098537,0 -199.098537,0c-8.652871,0 -6.754372,7.944672 -6.754372,7.944672c1.625522,25.157928 8.743865,96.751602 36.195668,199.391281c0,0 1.364868,6.613159 8.648659,4.324646" id="path18"/>
			<path fill="#d52c24" fill-rule="nonzero" d="m701.495056,754.697327l-94.916138,-112.637756c-4.070251,-5.356079 1.323547,-9.318115 1.323547,-9.318115c38.036377,-20.90564 65.558289,-52.496582 89.101013,-88.672119c4.673767,-7.17749 9.715942,-1.963806 9.715942,-1.963806l120.275879,91.781738c0,0 5.170471,3.097839 0.644897,9.22229c-35.219788,47.657104 -67.212158,81.266846 -118.368835,112.995789c0,0 -3.875427,3.721558 -7.776245,-1.40802" id="path20"/>
			<path fill="#df3d3c" fill-rule="nonzero" d="m499.720886,658.287842c15.973938,0 45.555298,-1.55603 59.519592,-3.915771c7.291199,-1.231079 9.095642,3.679382 9.095642,3.679382l59.746094,127.229004c0,0 4.000366,4.787598 -4.367798,7.906921c-44.596008,16.627319 -68.316467,24.277466 -123.99353,24.277466c-55.019379,0 -79.406006,-7.650146 -124.007233,-24.277466c-8.362885,-3.119324 -4.367798,-7.906921 -4.367798,-7.906921l59.747192,-127.229004c0,0 1.803253,-4.910461 9.099854,-3.679382c13.959961,2.359741 43.545563,3.915771 59.527985,3.915771" id="path22"/>
			<path fill="#c82624" fill-rule="nonzero" d="m869.874878,571.200745l-142.147644,-70.021576c-6.754517,-2.668396 -3.379883,-8.93515 -3.379883,-8.93515c19.643005,-47.62381 31.60907,-87.829376 40.84137,-136.544037c1.546936,-8.156128 6.973572,-5.542816 6.973572,-5.542816l159.895203,70.746704c0,0 4.794556,1.828888 2.792297,8.10434c-7.101868,22.288879 -43.263977,111.26413 -57.782043,140.34201c0,0 -2.543396,4.408875 -7.19281,1.850525" id="path24"/>
			<path fill="#ac1f22" fill-rule="nonzero" d="m949.408936,346.267395c-32.518555,-10.204071 -168.946228,-42.224426 -168.946228,-42.224426c-8.176575,-2.566925 -5.740173,-8.817566 -5.740173,-8.817566c9.413269,-75.529892 7.366577,-133.172134 7.366577,-153.087189c0,-8.829453 6.307556,-7.531418 6.307556,-7.531418c35.422058,0 199.102722,0 199.102722,0c8.652954,0 6.754395,7.944672 6.754395,7.944672c-1.625366,25.157928 -8.74823,96.751602 -36.196045,199.391281c0,0 -1.364868,6.613159 -8.648804,4.324646" id="path26"/>
		</g>
	</g>
</svg>