<svg xmlns="http://www.w3.org/2000/svg" xmlns:xlink="http://www.w3.org/1999/xlink" viewBox="2.32 1.26 60.32 60.85"><defs><linearGradient xlink:href="#a" id="d" x1="104" x2="200" y1="44" y2="268" gradientTransform="translate(-202.746 -217.02)scale(.26458)" gradientUnits="userSpaceOnUse"/><linearGradient id="a"><stop offset="0" style="stop-color:#faf8f6;stop-opacity:1"/><stop offset="1" style="stop-color:#f1f0e9;stop-opacity:1"/></linearGradient><filter id="c" width="1.024" height="1.024" x="-.012" y="-.012" style="color-interpolation-filters:sRGB"><feGaussianBlur stdDeviation="1.12"/></filter><filter id="b" width="1.096" height="1.096" x="-.048" y="-.048" style="color-interpolation-filters:sRGB"><feGaussianBlur stdDeviation="4.48"/></filter></defs><g transform="translate(-130.052 -144.325)"><circle cx="122.752" cy="122.752" r="112" style="display:inline;opacity:.1;fill:#000;fill-opacity:1;stroke:none;stroke-width:1;stroke-linecap:round;stroke-linejoin:round;stroke-miterlimit:4;stroke-dasharray:none;stroke-opacity:1;filter:url(#b);enable-background:new" transform="translate(130.052 144.325)scale(.26458)"/><circle cx="122.752" cy="120.752" r="112" style="display:inline;opacity:.1;fill:#000;fill-opacity:1;stroke:none;stroke-width:1;stroke-linecap:round;stroke-linejoin:round;stroke-miterlimit:4;stroke-dasharray:none;stroke-opacity:1;filter:url(#c);enable-background:new" transform="translate(130.052 144.325)scale(.26458)"/><circle cx="162.53" cy="175.745" r="30.162" style="display:inline;opacity:.1;fill:#000;fill-opacity:1;stroke:none;stroke-width:.26458329;stroke-linecap:round;stroke-linejoin:round;stroke-miterlimit:4;stroke-dasharray:none;stroke-opacity:1;enable-background:new"/><circle cx="-162.53" cy="-175.745" r="29.633" style="display:inline;opacity:1;fill:url(#d);fill-opacity:1;stroke:none;stroke-width:.26458332;stroke-linecap:round;stroke-linejoin:round;stroke-miterlimit:4;stroke-dasharray:none;stroke-opacity:1;enable-background:new" transform="scale(-1)"/><path d="M132.896 178.31a29.775 29.775 0 0 0 29.628 27.069 29.775 29.775 0 0 0 29.64-27.068z" style="display:inline;opacity:.1;fill:#fff;fill-opacity:1;stroke:none;stroke-width:2.82222199;stroke-linecap:round;stroke-linejoin:round;stroke-miterlimit:4;stroke-dasharray:none;stroke-opacity:1;enable-background:new"/><g style="display:inline;enable-background:new"><path d="M20.618 17.742v9.181l8.931 5.954-8.931 5.954v9.181L43.32 32.877z" class="st1" style="fill:#20aa73" transform="translate(137.13 150.4)scale(.66107)"/><path d="M55.388 59.232v-9.181l-8.931-5.954 8.931-5.954v-9.181L32.685 44.097z" class="st2" style="fill:#4a93dd" transform="translate(137.13 150.4)scale(.66107)"/><path d="M64.776 23.074a30.35 30.35 0 0 1 4.147 15.348c0 16.845-13.656 30.5-30.5 30.5-9.922 0-18.734-4.741-24.304-12.077L7.53 61.238c7.005 9.461 18.243 15.607 30.892 15.607 21.186 0 38.423-17.236 38.423-38.423 0-7.215-2.002-13.97-5.476-19.744z" class="st1" style="fill:#20aa73" transform="translate(137.13 150.4)scale(.66107)"/><path d="M7.922 38.423c0-16.845 13.656-30.5 30.5-30.5 9.826 0 18.561 4.652 24.139 11.868l6.596-4.397C62.142 6.053 50.976 0 38.423 0 17.236 0 0 17.236 0 38.423c0 7.12 1.954 13.789 5.343 19.513l6.594-4.396a30.34 30.34 0 0 1-4.015-15.117" class="st2" style="fill:#4a93dd" transform="translate(137.13 150.4)scale(.66107)"/></g><path d="M162.53 146.112a29.633 29.633 0 0 0-29.634 29.633l.011.31a29.633 29.633 0 0 1 29.623-29.414 29.633 29.633 0 0 1 29.622 29.324l.011-.22a29.633 29.633 0 0 0-29.633-29.633" style="display:inline;opacity:.3;fill:#fff;fill-opacity:1;stroke:none;stroke-width:.26458332;stroke-linecap:round;stroke-linejoin:round;stroke-miterlimit:4;stroke-dasharray:none;stroke-opacity:1;enable-background:new"/><path d="M162.53 205.379a29.633 29.633 0 0 1-29.634-29.634l.011-.31a29.633 29.633 0 0 0 29.623 29.414 29.633 29.633 0 0 0 29.622-29.323l.011.22a29.633 29.633 0 0 1-29.633 29.633" style="display:inline;opacity:.2;fill:#000;fill-opacity:1;stroke:none;stroke-width:.26458332;stroke-linecap:round;stroke-linejoin:round;stroke-miterlimit:4;stroke-dasharray:none;stroke-opacity:1;enable-background:new"/></g></svg>