<svg xmlns="http://www.w3.org/2000/svg" fill="none" viewBox="0 0.94 29.9 24.11">
<g clip-path="url(#clip0)">
<path fill-rule="evenodd" clip-rule="evenodd" d="M16.1997 14.7623C15.7753 14.1962 15.5631 13.9132 15.3029 13.812C15.0751 13.7233 14.8222 13.7233 14.5943 13.812C14.3342 13.9132 14.1219 14.1962 13.6975 14.7623L7.85488 22.5553C7.25119 23.3605 6.94934 23.7632 6.95639 24.1001C6.96252 24.3934 7.10005 24.6684 7.33101 24.8492C7.59642 25.057 8.09961 25.057 9.106 25.057H20.7913C21.7977 25.057 22.3009 25.057 22.5663 24.8492C22.7972 24.6684 22.9347 24.3934 22.9409 24.1001C22.9479 23.7632 22.6461 23.3605 22.0424 22.5553L16.1997 14.7623ZM11.9591 2.5068C11.9591 1.95946 11.9591 1.68579 12.0656 1.47673C12.1593 1.29284 12.3088 1.14333 12.4927 1.04964C12.7018 0.943115 12.9755 0.943115 13.5228 0.943115H16.375C16.9223 0.943115 17.196 0.943115 17.4051 1.04964C17.589 1.14333 17.7385 1.29284 17.8322 1.47673C17.9387 1.68579 17.9387 1.95946 17.9387 2.5068V8.67682L22.2993 4.31464C22.6864 3.92741 22.8799 3.7338 23.1031 3.66126C23.2994 3.59746 23.5109 3.59746 23.7073 3.66126C23.9305 3.7338 24.124 3.92741 24.5111 4.31464L26.5283 6.33256C26.9151 6.71954 27.1085 6.91302 27.181 7.13612C27.2448 7.33237 27.2448 7.54375 27.181 7.74C27.1085 7.96309 26.9151 8.15658 26.5283 8.54355L22.1669 12.9065H28.3341C28.8815 12.9065 29.1551 12.9065 29.3642 13.0131C29.5481 13.1068 29.6976 13.2563 29.7913 13.4402C29.8978 13.6492 29.8978 13.9229 29.8978 14.4702V17.3246C29.8978 17.8719 29.8978 18.1456 29.7913 18.3546C29.6976 18.5385 29.5481 18.688 29.3642 18.7817C29.1551 18.8882 28.8815 18.8882 28.3341 18.8882H1.56369C1.01635 18.8882 0.742675 18.8882 0.533618 18.7817C0.349726 18.688 0.200217 18.5385 0.10652 18.3546C0 18.1456 0 17.8719 0 17.3246V14.4702C0 13.9229 0 13.6492 0.10652 13.4402C0.200217 13.2563 0.349726 13.1068 0.533618 13.0131C0.742675 12.9065 1.01635 12.9065 1.56369 12.9065H7.73084L3.36944 8.54364C2.9826 8.15667 2.78918 7.96319 2.71671 7.74009C2.65296 7.54384 2.65296 7.33245 2.7167 7.13621C2.78918 6.91311 2.98259 6.71962 3.36943 6.33264L5.38663 4.31472C5.77372 3.9275 5.96726 3.73389 6.19045 3.66135C6.38677 3.59754 6.59826 3.59754 6.79459 3.66134C7.01778 3.73388 7.21132 3.92749 7.59841 4.31471L11.9591 8.67692V2.5068Z" fill="#4B73FF"/>
</g>
<defs>
<clipPath id="clip0">
<rect width="172" height="24.1139" fill="white" transform="translate(0 0.943115)"/>
</clipPath>
</defs>
</svg>