<svg xmlns="http://www.w3.org/2000/svg" xmlns:xlink="http://www.w3.org/1999/xlink" id="verse4_-_even" data-name="verse4 - even" viewBox="62.97 195.7 97.58 97.58">
    <defs>
        <style> .cls-2, .cls-7, .cls-10 { stroke-width: 0px; } .cls-14 {
            stroke: #073c8c;
            stroke-miterlimit: 10; } .cls-2 { fill: none;
            } .cls-14 { fill: #308be3; } .cls-17 { clip-path: url(#clippath); }
            .cls-7 { fill: #d6e9fb; } .cls-10 { fill: #073c8c; } </style>
        <clipPath id="clippath">
            <path class="cls-2" d="M125.36,255.64c.6-.59,1.55-.64,2.2-.11l13.37,10.89c3.27,2.72,3.5,7.65.48,10.66-2.86,2.85-7.46,2.79-10.26,0-.15-.15-.3-.32-.45-.49l-11.02-13.2c-.55-.65-.5-1.62.1-2.22l5.58-5.54h0Z"/>
        </clipPath>
    </defs>
    <g>
        <circle class="cls-14" cx="111.76" cy="244.49" r="48.29"/>
        <g>
            <g id="Brush">
                <path class="cls-7" d="M85.95,234.39c-1.62-1.71-4.33-1.8-6.05-.19h0c-1.72,1.61-1.81,4.31-.19,6.02l9.86,10.44.49.52,27.18-25.42-6.18-6.54-3.92-4.15-8.03-8.5c-1.62-1.71-4.33-1.8-6.05-.19h0c-1.72,1.61-1.81,4.31-.19,6.02l7.98,8.45c1.1,1.16,1.04,2.99-.13,4.09h0c-1.17,1.09-3.01,1.04-4.11-.13l-3.84-4.06c-1.62-1.71-4.33-1.8-6.05-.19h0c-1.72,1.61-1.81,4.31-.19,6.02l5.75,6.09c1.1,1.16,1.04,2.99-.13,4.09h0c-1.17,1.09-3.01,1.04-4.11-.13l-2.14-2.27"/>
                <g>
                    <g id="g2716">
                        <g id="g2722">
                            <g id="path2724">
                                <path class="cls-10" d="M122.83,259.42c-.21,0-.43-.08-.59-.24l-1.81-1.8c-.85-.85-1.32-1.98-1.32-3.18s.47-2.33,1.32-3.18l11.18-11.13c1.41-1.41,2.19-3.28,2.19-5.27s-.78-3.86-2.19-5.27l-3.39-3.38c-.81-.8-1.88-1.24-3.02-1.24s-2.21.44-3.02,1.24c-.33.33-.86.33-1.19,0-.33-.33-.33-.86,0-1.19,1.12-1.12,2.62-1.73,4.2-1.73s3.08.62,4.2,1.73l3.39,3.38c1.73,1.73,2.69,4.02,2.69,6.46,0,2.44-.95,4.74-2.69,6.46l-11.18,11.13c-.53.53-.83,1.24-.83,1.99,0,.75.29,1.46.83,1.99l1.81,1.8c.33.33.33.86,0,1.19-.16.16-.38.25-.6.25Z"/>
                            </g>
                        </g>
                        <g>
                            <path class="cls-7" d="M100.18,235.45l-11.54,11.48c-1.79,1.78-1.79,4.67,0,6.45l.46.46h0l4.13,4.11c1.79,1.78,4.69,1.78,6.48,0l1.68-1.67,5.08-5.05,3.52-3.5,5.68-5.65,8.11-8.07c1.79-1.78,1.79-4.67,0-6.45l-4.59-4.57c-1.79-1.78-4.69-1.78-6.48,0l-12.52,12.46"/>
                            <path class="cls-10" d="M96.48,260.12c-1.39,0-2.78-.53-3.84-1.58l-4.59-4.57c-1.03-1.02-1.59-2.38-1.59-3.82,0-1.44.57-2.8,1.59-3.82l11.54-11.48s.02-.02.03-.03l12.49-12.43c2.11-2.1,5.55-2.1,7.67,0l4.59,4.57c1.03,1.02,1.59,2.38,1.59,3.82,0,1.44-.57,2.8-1.59,3.82l-24.06,23.94c-1.06,1.05-2.44,1.58-3.83,1.58ZM100.74,236.08l-11.5,11.45c-.71.7-1.1,1.64-1.1,2.63s.39,1.93,1.1,2.63l4.59,4.57c1.46,1.45,3.84,1.45,5.3,0l24.06-23.94c.71-.7,1.1-1.64,1.1-2.63,0-.99-.39-1.93-1.1-2.63l-4.59-4.57c-1.46-1.45-3.84-1.45-5.3,0l-12.52,12.46s-.02.02-.03.03Z"/>
                        </g>
                    </g>
                    <path class="cls-10" d="M116.4,242.07c-.45,0-.82-.36-.84-.81l-.35-10.38c-.02-.46.35-.85.81-.87.46-.02.85.35.87.81l.35,10.38c.02.46-.35.85-.81.87,0,0-.02,0-.03,0Z"/>
                    <path class="cls-10" d="M110.8,236.88c-.45,0-.82-.36-.84-.81l-.35-10.47c-.02-.46.35-.85.81-.87,0,0,.02,0,.03,0,.45,0,.82.36.84.81l.35,10.47c.02.46-.35.85-.81.87,0,0-.02,0-.03,0Z"/>
                    <path class="cls-10" d="M106.87,251.68c-.45,0-.82-.36-.84-.81l-.37-11.16c-.02-.46.35-.85.81-.87.46-.01.85.35.87.81l.37,11.16c.02.46-.35.85-.81.87,0,0-.02,0-.03,0Z"/>
                    <path class="cls-10" d="M101.19,246.3c-.45,0-.82-.36-.84-.81l-.35-10.49c-.02-.46.35-.85.81-.87.46-.02.85.35.87.81l.35,10.49c.02.46-.35.85-.81.87,0,0-.02,0-.03,0Z"/>
                    <path class="cls-10" d="M96.64,260.12c-.45,0-.82-.36-.84-.81l-.35-10.39c-.02-.46.35-.85.81-.87.46-.02.85.35.87.81l.35,10.39c.02.46-.35.85-.81.87,0,0-.02,0-.03,0Z"/>
                    <circle class="cls-10" cx="116.05" cy="227.83" r=".83"/>
                    <circle class="cls-10" cx="96.18" cy="245.61" r=".83"/>
                </g>
            </g>
            <g>
                <g id="path2732">
                    <path class="cls-10" d="M125.36,255.64c.6-.59,1.55-.64,2.2-.11l13.37,10.89c3.27,2.72,3.5,7.65.48,10.66-2.86,2.85-7.46,2.79-10.26,0-.15-.15-.3-.32-.45-.49l-11.02-13.2c-.55-.65-.5-1.62.1-2.22l5.58-5.54h0Z"/>
                </g>
                <g class="cls-17">
                    <rect class="cls-7" x="118.21" y="259.87" width="12.75" height="1.45" transform="translate(-147.78 164.42) rotate(-45)"/>
                </g>
            </g>
        </g>
    </g>
</svg>