<?xml version="1.0" encoding="UTF-8"?><svg id="Layer_2" xmlns="http://www.w3.org/2000/svg" width="259.01265363247785" height="100" xmlns:xlink="http://www.w3.org/1999/xlink" viewBox="0 0 259.01265363247785 100"><defs><linearGradient id="linear-gradient" x1="21.412169287130382" y1="905.092985640854749" x2="21.412169287130386" y2="855.073855220088149" gradientTransform="translate(0 -816)" gradientUnits="userSpaceOnUse"><stop offset="0" stop-color="#00004c"/><stop offset=".300000019073486" stop-color="#00004c" stop-opacity=".600000023841858"/><stop offset=".600000038146973" stop-color="#00004c" stop-opacity=".200000002980232"/><stop offset=".8" stop-color="#00004c" stop-opacity="0"/></linearGradient><linearGradient id="linear-gradient-2" x1="74.473782614610172" y1="846.443931749945477" x2="124.492907195811455" y2="846.443931749945477" gradientTransform="translate(0 -816)" gradientUnits="userSpaceOnUse"><stop offset="0" stop-color="#00004c"/><stop offset=".300000019073486" stop-color="#00004c" stop-opacity=".600000023841858"/><stop offset=".600000038146973" stop-color="#00004c" stop-opacity=".200000002980232"/><stop offset=".8" stop-color="#00004c" stop-opacity="0"/></linearGradient></defs><g id="Layer_1-2"><path d="M151.741283475070304,61.155756545658733l5.817072767658829-4.094908610197308.880209579716393.229623444880417c1.722158317896174,2.640640418281691,3.903563525551363,3.903557685984197,6.659009826706097,3.903557685984197,2.755446301153825,0,4.286265373973038-1.415995671244673,4.286265373973038-3.252965711581055s-1.148105545264116-3.061614787371582-7.079984195795987-5.58744932278023c-6.659009826706097-2.755452140720081-9.070038479241703-5.817066928091663-9.070038479241703-10.868733079125377,0-5.051666151031895,5.128202433020306-9.911978458070735,12.323004190823667-9.911978458070735s9.605818731204636,2.25794148964269,12.284731670154542,6.199768776512428l-5.778800246990613,4.286259534406781-.880209579715483-.191350924209473c-1.339456469475408-1.99004844387855-3.138159828708922-3.138153989142666-5.587449322779321-3.138153989142666s-3.597395039335424,1.186375146149658-3.597395039335424,2.755452140720081c0,1.569076994572242.727131176174225,2.334480691413773,6.965178312923854,5.01339363036459,6.888633271585604,2.985072665816915,9.223116882782961,6.123232494526746,9.223116882782961,10.63910963424496,0,4.515877139720033-5.434370919237153,11.174892805993295-13.011862846328768,11.174892805993295-7.577491927090705,0-10.332949907377952-2.372750292299315-13.394564694749533-7.194795918236196h0l-.038284199802547.038278360236291Z" style="fill:#00004c;"/><path d="M182.16608042457392,78.14771627974369l5.778800246990613-12.208186628817202-9.22311688278387-20.780711537197931h9.491001169198171l3.827018484214932,14.006889988051626h.114805882873043l4.362810415310378-14.006887068268043h9.031754279439156l-14.695748643555817,33.027173606466022h-8.72559747235573l.038272520669125-.038278360234472Z" style="fill:#00004c;"/><path d="M208.151545275695753,45.120548512843015h7.921932933977587v3.482586236677889c1.990054283444806-2.946803064931373,4.47761629818342-4.439340857730713,7.615776126893252-4.439340857730713,4.898578988140798,0,7.88364873417413,3.138153989142666,7.88364873417413,8.802139593908578v14.389591836472391h-8.11328385818797v-11.863757301063742c0-3.367777434021264-1.033299662391073-4.515882979285379-3.138159828708922-4.515882979285379s-4.056630249960108,2.104860166316939-4.056630249960108,5.62571600388037v10.79219095757071h-8.11328385818797v-22.273246410213687.000002919783583Z" style="fill:#00004c;"/><path d="M235.514727437828697,56.333710919721852c0-6.926905792255639,4.936863187942436-12.131647427046119,12.284719991020211-12.131647427046119s8.72559747235573,1.913509242107466,11.174898645559551,6.199768776514247l-6.046684533404914,3.367777434021264h-.459246889759015c-1.339456469475408-2.219671888757148-2.717173780485609-2.946803064931373-4.439332098381783-2.946803064931373-2.602367897612567,0-4.630683022593075,2.028320964545856-4.630683022593075,5.472637600340022,0,3.444316635792347,1.990054283444806,5.472637600338203,4.668967222395622,5.472637600338203,2.678912938949907,0,3.214704870046262-.803676217510656,4.47761629818342-2.908536383829414l.459246889759925-.11481172243839,6.008423691869211,3.406044115123223c-2.449301173203821,4.247992853304822-6.544192264699632,6.199768776514247-11.327965369967387,6.199768776514247-7.500946885753365,0-12.169914108148078-5.013396550148173-12.169914108148078-12.01683570460591h-.000046716533689Z" style="fill:#00004c;"/><path d="M30.386527924591064,83.658626400751018l12.43781007369671-21.35476430982817c-2.985075585600498-4.707233903496672-6.773824468929888-8.878681715465063-11.098353604221302-12.322998351257411C23.153462405469327,56.792951969913702,11.748947614489225,60.811321378338107.00000057597299,60.811321378338107H.00000057597299c15.614235123615799,0,28.893989555817825,12.705700199678176,28.893989555817825,28.281664262516642h0c0-1.875236721436522.459241050192759-3.750479282442029,1.454268191914707-5.472637600338203l.038269600885542.038278360234472Z" style="fill:#1088ff;"/><path d="M30.386527924591064,83.658626400751018l12.43781007369671-21.35476430982817c-2.985075585600498-4.707233903496672-6.773824468929888-8.878681715465063-11.098353604221302-12.322998351257411C23.153462405469327,56.792951969913702,11.748947614489225,60.811321378338107.00000057597299,60.811321378338107H.00000057597299c15.614235123615799,0,28.893989555817825,12.705700199678176,28.893989555817825,28.281664262516642h0c0-1.875236721436522.459241050192759-3.750479282442029,1.454268191914707-5.472637600338203l.038269600885542.038278360234472Z" style="fill:url(#linear-gradient);"/><path d="M124.339828792269145,39.150400261425602c-15.499424861068292-.076539201771084-28.128585858975384-12.743972720347301-28.128585858975384-28.281667182300225h0c0,1.875239641221924-.459241050191849,3.750477822552057-1.454268191914707,5.47263614044823l-12.43781007369671,21.354762849938197c2.985075585600498,4.707233903496672,6.773821549146305,8.878681715463244,11.098353604221302,12.322998351255592,8.495979867042479-6.773821549146305,19.24990414351214-10.830463478239835,30.9223105203655-10.830463478239835h0v-.038266681101959Z" style="fill:#1088ff;"/><path d="M124.339828792269145,39.150400261425602c-15.499424861068292-.076539201771084-28.128585858975384-12.743972720347301-28.128585858975384-28.281667182300225h0c0,1.875239641221924-.459241050191849,3.750477822552057-1.454268191914707,5.47263614044823l-12.43781007369671,21.354762849938197c2.985075585600498,4.707233903496672,6.773821549146305,8.878681715463244,11.098353604221302,12.322998351255592,8.495979867042479-6.773821549146305,19.24990414351214-10.830463478239835,30.9223105203655-10.830463478239835h0v-.038266681101959Z" style="fill:url(#linear-gradient-2);"/><path d="M50.631456290041569,10.868732349179481c0-6.008418947221799-4.860312307038839-10.868732349179481-10.868733079125377-10.868732349179481s-10.868733079125377,4.860313401957683-10.868733079125377,10.868732349179481c0,15.53769519189882-12.590891397021551,28.166856189805912-28.090316258089842,28.243398311360579H.076540370824659l-.076540370824659,21.660924036696088h0c11.748946884543329,0,23.153462405469327-4.05664192909353,31.68771479318093-10.830463478239835,11.519325053528519-9.146574761229203,18.90547481575868-23.268273551935636,18.90547481575868-39.112127740756478h0l.038266681101959.038268870939646Z" style="fill:#1088ff;"/><path d="M93.417524111470811,49.980863739665438c-11.519327973312102,9.146571841445621-18.905468976191514,23.268273551935636-18.905468976191514,39.112127740756478,0,10.907008519578085,4.860312307038839,10.830463478239835,10.830463478239835,10.86873599890896h0c5.970151171200996,0,10.907002680010009-4.860312307038839,10.907002680010009-10.868730159341794,0-15.499424861067382,12.552621796136918-28.128585858974475,28.052046657204301-28.243397581414683l.07654504133825-21.699193637581629c-11.672406376854269,0-22.426330653323021,4.094908610195489-30.9223105203655,10.830463478239835h0l-.038278360235381-.000005839567166Z" style="fill:#1088ff;"/><path d="M96.211242933293761,10.868732349179481c0-3.750478552497952-1.913509242107466-7.386145382555696-5.396098398568938-9.376195286324219-5.204747474357646-3.023344639026618-11.825484780395527-1.262916081543153-14.848832886664241,3.90355878090304l-33.180249090225516,56.907766247164545-12.4378100736958,21.35476430982817c-.995024221939275,1.722158317896174-1.454268191914707,3.597395039334515-1.454268191914707,5.472637600340022,0,3.750479282443848,1.913509242106556,7.386146842447488,5.396095478785355,9.376201125891384,1.683888717010632.995027141723767,3.559128358232556,1.454262352348451,5.396095478785355,1.492534873017576h.114811722439299c3.712206761774723,0,7.309604720892821-1.951781762776591,9.337922765656913-5.396098398568938l33.180249090224606-56.90776369235391,12.4378100736958-21.354762849936378c.995027141722858-1.722158317896174,1.454268191915617-3.597396499226306,1.454268191915617-5.47263614044823h0l.000005839566256-.000006569513062Z" style="fill:#1088ff;"/></g></svg>