<svg xmlns="http://www.w3.org/2000/svg" xml:space="preserve" viewBox="0 0 512 512"><path d="M425.5 512h-339C38.7 512 0 473.3 0 425.5v-339C0 38.7 38.7 0 86.5 0h339C473.3 0 512 38.7 512 86.5v339c0 47.8-38.7 86.5-86.5 86.5" style="fill:#fff"/><path d="M297.4 213.7c0 18.9-10.3 30.3-32.3 30.3h-36.4v-59.9h36.4c22 0 32.3 11.7 32.3 29.6zm-162.6-78.5 35.2 49v192.5h58.7v-91.1h14.1l50.1 91.2h66.2l-55.6-95.6c15.5-3.8 29.3-12.8 39-25.5s14.9-28.3 14.5-44.4c0-42-29.5-76-88.5-76H134.8z" style="fill:#ff4654;stroke:#ff4654;stroke-width:.1022"/></svg>