<svg xmlns="http://www.w3.org/2000/svg" xml:space="preserve" id="svg8" x="0" y="0" version="1.1" viewBox="0 0 512 512"><style>.st1{fill:#fff}</style><circle cx="256" cy="256" r="256" style="fill:#fff;stroke:#000;stroke-width:3;stroke-miterlimit:10"/><g id="layer1" transform="translate(-36.692 -10.593)"><g id="g2275"><g id="text817" transform="rotate(-45)"><path id="path819" d="m148 429.9-3.8 147.6h-3.7l-25-119.2-148.8-59.2-17.2 178.5H-56l-19.7-49.3-15.9-48.6-6.5-65.9-28.7-49.2 19.6-26.4-26.4-26.9 21.2-18.5-24.1-49.9 42.5-38.4c27.3-16.7 53.8-6.1 81.9-14.8 46.7-14.4 81.7-20.1 126.3 56.7 8.5 14.6 36.3 17.7 46.2 35.8-9.9 17.4-23.1 32.7-39.7 46-16.6 13.1-35.3 24.4-56.1 33.7-20.7 9.3-43.2 17.2-67.2 23.8zM80.8 272c-68.8 49.6-71.1-1.2-97.1-41.6l-14.4 155.3C31.5 364.2 62.9 317.8 80.8 272"/></g><ellipse id="path2115" cx="247.2" cy="198.9" rx="3.7" ry="10.5"/><ellipse id="ellipse2117" cx="216.9" cy="207.8" rx="3.7" ry="10.5" transform="rotate(-45.001 216.872 207.768)"/><path id="path2119" d="m384.7 222.3-8.8-24.3 8.8-4.2 8 27.4z"/><path id="path2121" d="m444.1 286.7 16.6-19.8 8.1 5.5-19.8 20.7z"/><path id="path2123" d="M201.5 168.5c-.4 3.2-7.1 4.9-14.9 4-7.8-1-13.9-4.4-13.4-7.6z" class="st1"/><path id="path2126" d="M216.8 165.1c2.6 2 8.5-1.4 13.4-7.6s6.9-12.8 4.3-14.8z" class="st1"/><path id="path2128" d="M153.7 175.6 251 293.9c33-52.6 20.1-105.3-2.2-157.9" style="fill:none;stroke:gray;stroke-width:1.4173;stroke-linecap:round;stroke-miterlimit:11.3386"/></g><path id="path902" d="M239 220.6c6 9.9 8.2 29.2 8.2 53.1" style="fill:none;stroke:#ccc;stroke-width:.75;stroke-linecap:round;stroke-miterlimit:11.3386"/><path id="path904" d="M225.7 131.6c-8.1 19.1-26.2 22.5-49.2 21.7" style="fill:none;stroke:#4d4d4d;stroke-width:.75;stroke-linecap:round;stroke-miterlimit:11.3386"/></g></svg>