<svg xmlns="http://www.w3.org/2000/svg" xmlns:xlink="http://www.w3.org/1999/xlink" xml:space="preserve" viewBox="0 0 512 512"><defs><ellipse id="a" cx="256" cy="256" rx="253.8" ry="247.2"/></defs><use xlink:href="#a" style="overflow:visible;fill:#fff"/><clipPath id="b"><use xlink:href="#a" style="overflow:visible"/></clipPath><path d="M215.9 689.4c-.2-.7-.4-31.4-.4-68.2v-66.9h-2.4c-1.3 0-8.3-.4-15.5-.9-64.5-4.4-123.8-16.1-181.8-36.2L4 513l-.2-58.6-.2-58.6 15.9 7.4c51 24 96.8 37.7 146.9 44.5 14 2 36 3.9 43.6 3.9h6.5v-70.4c0-66.3 0-70.4-1.5-70.8-.9-.2-7-1.5-13.7-2.6-55.6-10-98.3-23.8-128.4-41.4-44.5-26.2-67.1-65.8-70-121.9C.3 89.7 14 48.2 45.6 16.6c20.9-20.9 44-34.7 76.1-45.3 24.6-8.1 66.1-15.3 88.7-15.3h5.2l.2-52.3.2-52.3 36.2-.2 36.2-.2v51.4c0 40.3.2 51.4 1.1 51.7.7.2 8.1.9 16.8 1.7 44.9 4.1 93.7 12.4 141 24l22.7 5.4v56.7c0 31.2-.2 56.7-.7 56.7-.4 0-4.8-1.7-10-3.7C408.7 74.6 347.2 60.2 298 57.4l-9.6-.7v130.8l8.7 1.5c57.1 9.8 89.8 18.5 120.3 32.3C473.9 246.6 502 285.8 509 349c1.3 12.2 1.1 41.9-.4 53.8-11.8 90.5-78.7 138.9-207.1 149.8-5.7.4-10.9.9-11.8.9-1.3 0-1.5 3.9-1.5 68.7v68.7h-36c-31.7-.2-35.9-.4-36.3-1.5m90.9-240.5c31.6-3.5 51.9-17.4 58.4-40.1 4.8-17 2.2-41.6-6.1-54.5-10.7-16.6-29.4-25.1-66.9-30.3l-3.7-.4V450h5.2c2.6-.2 8.5-.6 13.1-1.1m-90.5-331.3c0-32.5-.2-59.1-.7-59.3-1.3-.9-19.8 2.2-26.6 4.4-18.5 5.9-32.7 16.8-39.2 30.5-3.9 8.1-5 13.5-4.8 23.8.2 27 14.2 44.9 42.5 54.3 5.7 2 22.5 5.4 26.2 5.4h2.8v-59.1z" style="clip-path:url(#b);fill:#2962ff"/></svg>