<svg viewBox="0 0 1230 219" xmlns="http://www.w3.org/2000/svg"><linearGradient id="prefix__a" gradientTransform="matrix(1 0 0 -1 0 220)" gradientUnits="userSpaceOnUse" x1="28.07" x2="186.26" y1="6.01" y2="164.21"><stop offset="0" stop-color="#25316a"/><stop offset=".08" stop-color="#293268"/><stop offset=".16" stop-color="#353564"/><stop offset=".24" stop-color="#493b5d"/><stop offset=".32" stop-color="#654352"/><stop offset=".4" stop-color="#8a4d45"/><stop offset=".48" stop-color="#b75a35"/><stop offset=".55" stop-color="#eb6923"/><stop offset=".56" stop-color="#f26b21"/><stop offset="1" stop-color="#9c9c9c"/></linearGradient><g fill="#25316a"><path d="M380.15 186.64H342.8L319 130.3h-26.46v56.34h-36.39V32.34h67.54c12.88 0 23.3 2.08 31.27 6.24s13.8 9.85 17.5 17.08 5.55 15.42 5.55 24.6c0 8.04-1.14 14.85-3.41 20.43-2.28 5.58-5.36 10.28-9.23 14.08-3.88 3.8-8.24 7.02-13.07 9.66zm-61.47-83.77c6.83 0 12.32-2.17 16.48-6.51s6.24-9.5 6.24-15.47-2.13-11.37-6.4-15.32-9.36-5.92-15.26-5.92h-27.21v43.22h26.14zM403.3 32.34h36.39v154.3H403.3zM468.08 186.64V32.34h59.01c11.24 0 21.38 1.99 30.41 5.97 9.03 3.99 16.16 9.8 21.4 17.45s7.84 16.98 7.84 28.01c0 10.24-2.26 18.99-6.78 26.25s-10.88 12.83-19.1 16.7c-8.22 3.88-17.91 5.82-29.08 5.82h-27.21v54.1h-36.5zM504.25 105h26.46c6.48 0 11.83-2.3 16.06-6.89s6.35-10.02 6.35-16.27-2.26-11.79-6.78-15.95-9.83-6.24-15.95-6.24h-26.14zM605.63 186.64V32.34h110.02l-.21 30.3h-73.2v31.48h62.43v29.66h-62.64v32.23l74.27.11v30.52zM881.26 32.34h36.29v154.3h-32.76l-68.83-99.02v99.02h-36.39V32.34h36.39l65.31 94.12V32.34zM1011.77 30.21c11.95 0 22.6 2.36 31.96 7.1s16.91 11.24 22.68 19.53 9.21 17.73 10.35 28.33h-38.09c-.86-5.13-2.47-9.59-4.85-13.39s-5.51-6.78-9.39-8.91-8.48-3.2-13.82-3.2c-6.19 0-11.59 1.55-16.22 4.64s-8.2 8.22-10.73 15.37-3.78 16.7-3.78 28.65c0 18.22 2.79 31.27 8.37 39.16 5.58 7.9 13.03 11.85 22.36 11.85 5.34 0 9.94-1.28 13.82-3.84s7-5.99 9.39-10.3c2.38-4.31 4-8.98 4.85-14.03h38.09c-1 7.62-2.79 14.89-5.39 21.82s-6.35 13.11-11.26 18.52-11.29 9.64-19.16 12.7c-7.86 3.05-17.59 4.59-29.19 4.59-14.66 0-27.36-3.43-38.09-10.3-10.75-6.87-19.06-16.38-24.97-28.54-5.9-12.17-8.86-26.21-8.86-42.15s2.92-29.59 8.75-41.19c5.84-11.59 14.14-20.56 24.92-26.89s23.53-9.5 38.26-9.5zM1164.68 30.21c11.95 0 22.6 2.36 31.96 7.1s16.91 11.24 22.68 19.53 9.21 17.73 10.35 28.33h-38.09c-.86-5.13-2.47-9.59-4.85-13.39s-5.51-6.78-9.39-8.91-8.48-3.2-13.82-3.2c-6.19 0-11.59 1.55-16.22 4.64s-8.2 8.22-10.73 15.37-3.78 16.7-3.78 28.65c0 18.22 2.79 31.27 8.37 39.16 5.58 7.9 13.03 11.85 22.36 11.85 5.34 0 9.94-1.28 13.82-3.84s7-5.99 9.39-10.3c2.38-4.31 4-8.98 4.85-14.03h38.09c-1 7.62-2.79 14.89-5.39 21.82s-6.35 13.11-11.26 18.52-11.29 9.64-19.16 12.7c-7.86 3.05-17.59 4.59-29.19 4.59-14.66 0-27.36-3.43-38.09-10.3-10.75-6.87-19.06-16.38-24.97-28.54-5.9-12.17-8.86-26.21-8.86-42.15s2.92-29.59 8.75-41.19c5.84-11.59 14.14-20.56 24.92-26.89s23.53-9.5 38.26-9.5z"/></g><path d="M163 91.81V32.53L107.16.3 51.33 32.53v59.29L0 121.45v64.47l55.83 32.23 51.33-29.63 51.33 29.63 55.83-32.23v-64.47l-51.33-29.63zm-60.33 83.59l-42.33-24.44V102.2l42.33 24.44zM64.73 94.34l42.44-24.51 42.44 24.51-42.44 24.51zm46.95 32.29l42.33-24.44v48.76l-42.33 24.44zM60.34 37.71l46.84-27.04 46.84 27.04v48.77l-46.84-27.04-46.84 27.04zm-4.5 170.04L9 180.71v-54.08l42.33-24.44v53.96l46.94 27.1-42.44 24.51zm149.5-27.03l-46.84 27.04-42.45-24.51 46.94-27.1v-53.96l42.33 24.44v54.08z" fill="url(#prefix__a)"/></svg>