<svg width="100%" height="32" viewBox="0 0 191 67" fill="none" xmlns="http://www.w3.org/2000/svg">
    <path d="M64.303 31.683C64.303 43.2338 58.1199 53.3374 48.8861 58.8749C48.5328 59.0856 48.0809 59.0176 47.799 58.7187L37.1688 47.4023C36.7306 46.9369 36.9208 46.1759 37.5256 45.9686C43.4606 43.9336 47.7276 38.3077 47.7276 31.683C47.7276 23.2577 40.8277 16.4461 32.3719 16.5854C24.0927 16.7247 17.5325 23.6518 17.5325 31.931V58.0154C17.5325 58.7051 16.7783 59.123 16.1871 58.7628C7.16054 53.2694 1.09637 43.3901 0.95708 32.0839C0.739653 14.6931 14.7909 0.247854 32.1816 0.00664622C49.8849 -0.237959 64.3098 14.0375 64.3098 31.683H64.303ZM189.636 38.0495H185.44C185.27 38.0495 185.121 38.1549 185.06 38.3111L179.787 52.1789L174.311 38.3077C174.25 38.1515 174.1 38.0495 173.934 38.0495H169.527C169.235 38.0495 169.038 38.3485 169.154 38.6169L177.355 57.9713L176.866 59.2181C176.159 60.9711 175.197 61.6879 173.543 61.6879C173.101 61.6879 172.734 61.6132 172.469 61.535C172.218 61.4603 171.967 61.6472 171.967 61.9087V65.3978C171.967 65.571 172.079 65.7273 172.242 65.7816C172.622 65.9141 173.377 66.118 174.392 66.118C177.406 66.118 179.41 64.2529 181.316 59.6801L190.013 38.6169C190.125 38.3485 189.928 38.0529 189.636 38.0529V38.0495ZM101.184 31.8665H97.2704C97.1175 31.8665 96.9748 31.9548 96.9069 32.0907L86.9969 51.795L77.087 32.0907C77.0191 31.9548 76.8764 31.8665 76.7235 31.8665H72.5584C72.3342 31.8665 72.1508 32.0499 72.1508 32.2741V58.1921C72.1508 58.4163 72.3342 58.5998 72.5584 58.5998H76.7405C76.9647 58.5998 77.1482 58.4163 77.1482 58.1921V42.1773L85.3017 58.3348C85.3696 58.4707 85.5123 58.559 85.6652 58.559H87.9618C88.1147 58.559 88.2574 58.4741 88.3253 58.3348L96.5977 41.987V58.1887C96.5977 58.4129 96.7812 58.5964 97.0054 58.5964H101.187C101.412 58.5964 101.595 58.4129 101.595 58.1887V32.2707C101.595 32.0465 101.412 31.8631 101.187 31.8631L101.184 31.8665ZM124.921 48.3366C124.921 54.2139 120.155 58.9803 114.277 58.9803C108.4 58.9803 103.633 54.2139 103.633 48.3366C103.633 42.4592 108.4 37.6928 114.277 37.6928C120.155 37.6928 124.921 42.4592 124.921 48.3366ZM120.256 48.3366C120.256 45.0344 117.579 42.3573 114.277 42.3573C110.975 42.3573 108.298 45.0344 108.298 48.3366C108.298 51.6387 110.975 54.3158 114.277 54.3158C117.579 54.3158 120.256 51.6387 120.256 48.3366ZM137.576 37.6962C134.501 37.6962 132.361 39.4662 131.593 40.448H131.447V38.4606C131.447 38.2364 131.264 38.0529 131.039 38.0529H127.387C127.163 38.0529 126.98 38.2364 126.98 38.4606V58.1887C126.98 58.4129 127.163 58.5964 127.387 58.5964H131.512C131.736 58.5964 131.919 58.4129 131.919 58.1887V47.0965C131.919 44.1477 133.835 42.0855 136.655 42.0855C139.475 42.0855 141.313 44.1477 141.313 47.0965V58.1887C141.313 58.4129 141.496 58.5964 141.721 58.5964H145.838C146.062 58.5964 146.246 58.4129 146.246 58.1887V46.7738C146.246 41.3449 142.764 37.6962 137.583 37.6962H137.576ZM168.196 42.7174C168.58 43.3629 169.932 45.809 169.541 48.9311C169.483 49.3863 169.398 49.7804 169.317 50.0998C169.269 50.2798 169.11 50.4021 168.923 50.4021H153.383C153.652 51.4179 154.807 54.7574 159.132 54.7574C161.214 54.7574 162.801 53.8674 163.535 53.035C163.626 52.9331 163.755 52.8719 163.891 52.8719H168.155C168.461 52.8719 168.661 53.1947 168.518 53.4665C167.588 55.2432 165.869 57.0132 163.446 58.097C162.135 58.6847 160.698 58.9837 159.172 58.9837C157.188 58.9837 155.344 58.5081 153.693 57.5772C150.873 55.9873 148.291 52.8617 148.291 48.3366C148.298 47.4702 148.42 44.7014 150.353 42.0821C150.615 41.7288 151.739 40.2578 153.73 39.1197C155.384 38.1752 157.199 37.6928 159.125 37.6928C163.348 37.6928 166.548 39.969 168.189 42.7174H168.196ZM164.707 46.5768C164.54 45.7716 163.368 41.8817 159.135 41.8817C156.169 41.8817 153.93 43.825 153.302 46.5768H164.707ZM136.084 19.3848C136.156 19.1266 135.959 18.8684 135.69 18.8684H131.627C131.447 18.8684 131.284 18.9703 131.203 19.13C130.228 21.1072 128.193 22.4696 125.838 22.4696C122.536 22.4696 119.859 19.7925 119.859 16.4903C119.859 13.1882 122.536 10.5111 125.838 10.5111C128.25 10.5111 130.329 11.9413 131.274 13.9967C131.352 14.1632 131.518 14.2719 131.702 14.2719H135.728C135.993 14.2719 136.186 14.0205 136.122 13.7623C136.084 13.6128 136.054 13.4973 136.054 13.4973C134.763 9.07743 130.679 5.8466 125.838 5.8466C119.907 5.8466 115.11 10.6979 115.194 16.65C115.279 22.439 120.212 27.219 125.998 27.134C130.802 27.0627 134.831 23.8081 136.078 19.3848H136.084ZM102.794 27.134C97.1039 27.0287 92.4598 22.3846 92.3545 16.6942C92.2424 10.6538 97.1617 5.73789 103.199 5.85C108.889 5.95531 113.533 10.5994 113.639 16.2899C113.751 22.3303 108.831 27.2461 102.794 27.134ZM108.974 16.6874C109.083 13.2289 106.26 10.4058 102.801 10.5145C99.6689 10.613 97.1209 13.1644 97.019 16.2967C96.9103 19.7551 99.7334 22.5783 103.192 22.4696C106.324 22.371 108.872 19.8197 108.974 16.6874ZM72.1474 26.3425V0.410925C72.1474 0.186704 72.3308 0.00324561 72.555 0.00324561H83.8816C86.6946 -0.0103436 91.923 1.97027 91.923 8.25867C91.923 12.6106 89.1236 16.0928 83.7865 16.4903L92.7859 26.0639C93.0305 26.3255 92.8471 26.7501 92.4904 26.7501H87.2348C87.1023 26.7501 86.9732 26.6924 86.8848 26.5973L77.6306 16.4937H77.3758V26.3459C77.3758 26.5701 77.1924 26.7535 76.9681 26.7535H72.5517C72.3274 26.7535 72.144 26.5701 72.144 26.3459L72.1474 26.3425ZM77.3758 12.3456H81.901C83.5623 12.3456 84.8159 11.9923 85.6618 11.2958C86.5043 10.596 86.9256 9.63119 86.9256 8.40137C86.9256 7.17155 86.5417 6.28824 85.7773 5.61218C85.0095 4.93952 83.8986 4.59639 82.4412 4.59639H77.3758V12.3456ZM176.193 10.2427H179.013V19.7687C179.013 26.0775 184.36 27.1374 186.422 27.1374C187.39 27.1374 188.128 26.937 188.743 26.8011C188.929 26.7603 189.062 26.5939 189.062 26.4036V23.0845C189.062 22.8229 188.821 22.6292 188.566 22.687C187.207 23.0029 184.228 23.0063 184.228 19.3916V10.2427H188.658C188.882 10.2427 189.065 10.0592 189.065 9.83502V6.61099C189.065 6.38677 188.882 6.20331 188.658 6.20331H184.228V0.407524C184.228 0.0881788 183.878 -0.105474 183.606 0.0609938L179.213 2.79921C179.094 2.87395 179.023 3.00306 179.023 3.14574V6.20331H176.196C175.972 6.20331 175.789 6.38677 175.789 6.61099V9.83502C175.789 10.0592 175.972 10.2427 176.196 10.2427H176.193ZM138.204 26.7501H142.597C142.821 26.7501 143.005 26.5667 143.005 26.3425V18.5525H143.246L150.588 26.6618C150.638 26.7196 150.713 26.7501 150.788 26.7501H156.224C156.58 26.7501 156.764 26.3255 156.523 26.0639L147.577 16.4937L155.704 6.87596C155.928 6.61098 155.738 6.20671 155.391 6.20671H150.312C150.173 6.20671 150.037 6.26786 149.949 6.37657L143.297 14.3262H143.001V0.410925C143.001 0.0915794 142.648 -0.10547 142.38 0.0643944L137.987 2.80941C137.868 2.88415 137.797 3.01326 137.797 3.15594V26.3459C137.797 26.5701 137.98 26.7535 138.204 26.7535V26.7501ZM154.42 16.4903C154.426 15.624 154.549 12.8552 156.482 10.2359C156.743 9.88258 157.868 8.41156 159.859 7.27346C161.513 6.32902 163.327 5.8466 165.254 5.8466C169.476 5.8466 172.677 8.12278 174.318 10.8712C174.702 11.5167 176.054 13.9627 175.663 17.0848C175.605 17.5401 175.52 17.9342 175.439 18.2535C175.391 18.4336 175.231 18.5559 175.045 18.5559H159.505C159.774 19.5717 160.929 22.9112 165.254 22.9112C167.336 22.9112 168.923 22.0211 169.657 21.1888C169.748 21.0868 169.877 21.0257 170.013 21.0257H174.277C174.583 21.0257 174.783 21.3484 174.64 21.6202C173.709 23.397 171.99 25.167 169.568 26.2507C168.257 26.8385 166.82 27.1374 165.294 27.1374C163.31 27.1374 161.466 26.6618 159.815 25.7309C156.995 24.141 154.413 21.0155 154.413 16.4903H154.42ZM159.427 14.7305H170.832C170.666 13.9254 169.493 10.0355 165.26 10.0355C162.295 10.0355 160.056 11.9787 159.427 14.7305Z" fill="#DE3341" ></path>
</svg>