<svg
    width="48"
    height="45"
    fill="none"
    xmlns="http://www.w3.org/2000/svg"
>
    <g clip-path="url(#svg976337059_556_a)">
        <path
            d="M12.56 24.188v19.763a.668.668 0 0 1-1.019.566C4.702 40.355.108 32.87.001 24.304-.161 11.13 10.484.186 23.659.002 37.07-.184 48 10.632 48 24c0 8.75-4.684 16.407-11.68 20.6a.665.665 0 0 1-.825-.12l-8.054-8.572a.665.665 0 0 1 .27-1.085c4.496-1.541 7.728-5.804 7.728-10.823 0-6.383-5.227-11.544-11.634-11.437-6.273.104-11.244 5.352-11.244 11.625Z"
            fill="#D83240"
        />
    </g>
    <defs>
        <clipPath id="svg976337059_556_a">
            <path
                fill="#fff"
                d="M0 0h48v44.693H0z"
            />
        </clipPath>
    </defs>
</svg>
