<svg xmlns="http://www.w3.org/2000/svg" xml:space="preserve" id="Layer_1" x="0" y="0" version="1.1" viewBox="0 0 512 512"><style>.st0,.st1{fill-rule:evenodd;clip-rule:evenodd;fill:#37beff}.st1{fill:#404f54}</style><path d="M512 364.1 256 216.3V58.4l256 147.9z" class="st0"/><path d="m0 364.1 256-147.9V58.4L0 206.3z" class="st1"/><path d="M256 0c97.8 0 177.1 79.3 177.1 177.1S353.8 354.2 256 354.2 78.9 274.9 78.9 177.1 158.2 0 256 0" style="fill-rule:evenodd;clip-rule:evenodd;fill:#ccc"/><path d="M256 0c97.8 0 177.1 79.3 177.1 177.1S353.8 354.2 256 354.2c-56.1-37.8-79.4-113.9-79.4-177S199.8 37.9 256 0" style="fill-rule:evenodd;clip-rule:evenodd;fill:#e5e5e5"/><path d="M512 206.3 256 354.2V512l256-147.9z" class="st0"/><path d="m0 206.3 256 147.9V512L0 364.1z" class="st1"/></svg>