<svg xmlns="http://www.w3.org/2000/svg" xml:space="preserve" id="Layer_1" x="0" y="0" version="1.1" viewBox="0 0 512 512"><style>.st0{fill:#d35400}.st2{fill:#fff}</style><path d="M50.712-.374C22.875-.374.008 22.492.008 50.329V459.93c0 27.837 22.867 51.698 50.704 51.698h409.601c27.837 0 50.703-22.867 50.703-51.698V50.33c0-27.837-22.866-50.703-50.703-50.703z" class="st0"/><path d="M-11.8 1020.4c-2.8 0-5.1 2.2-5.1 4.9v39.6c0 2.7 2.3 4.9 5.1 4.9h41.2c2.8 0 5.2-2.2 5.2-4.9v-39.6c0-2.7-2.3-4.9-5.2-4.9z" style="fill:#e67e22" transform="translate(168.025 -10144.972)scale(9.94178)"/><path d="m452.523 491.744-63.628-.994-114.33-191.877h-35.791V255.13h33.802c6.96 0 14.913-.994 21.872-3.976 6.96-2.983 13.919-6.96 19.884-11.93q8.948-8.948 14.912-23.86c3.977-9.942 5.966-22.867 5.966-37.78q0-8.947-2.983-20.877c-1.988-7.954-4.97-14.913-9.942-22.866-4.97-6.96-11.93-12.925-21.872-17.896s-21.872-6.959-36.784-6.959l.994-45.732c15.907 0 30.82 2.983 46.726 7.953 14.913 4.971 28.831 12.925 40.762 22.867q17.894 14.911 29.825 35.79c7.953 13.918 10.936 29.825 10.936 47.72 0 26.843-5.965 49.71-18.89 67.605-11.93 18.89-28.83 32.808-49.708 41.755z" class="st0"/><path d="m462.464 491.744-63.627-.994-114.33-191.877h-35.791V255.13h33.802c6.96 0 14.913-.994 21.872-3.976 6.96-2.983 13.918-6.96 19.884-11.93q8.948-8.948 14.912-23.86c3.977-9.942 5.965-22.867 5.965-37.78q0-8.947-2.982-20.877c-1.989-7.954-4.971-14.913-9.942-22.866-4.97-6.96-11.93-12.925-21.872-17.896-8.948-4.97-21.872-6.959-36.785-6.959H.171V63.253h274.394c15.906 0 30.82 2.983 46.726 7.953s28.831 12.925 40.761 22.867q17.895 14.911 29.826 35.79c7.953 13.918 10.936 29.825 10.936 47.72 0 26.843-5.965 49.71-18.89 67.605-11.93 18.89-28.83 32.808-49.709 41.755z" class="st2"/><path d="M143.333 127.785h59.65v363.87h-59.65z" class="st0"/><path d="M153.275 127.785h59.65v363.87h-59.65z" class="st2"/></svg>