<svg xmlns="http://www.w3.org/2000/svg" xml:space="preserve" viewBox="0 0 512 512"><path d="M-1712.6 1790.5h169c33 0 59.8 26.8 59.8 59.8v169c0 33-26.8 59.8-59.8 59.8h-169c-33 0-59.8-26.8-59.8-59.8v-169c0-33.1 26.8-59.8 59.8-59.8" style="fill:#f60" transform="translate(3145.263 -3177.408)scale(1.7746)"/><path d="M-1639.2 1906.9c-16.7-4.4-29.5-17.9-33.3-35.1-1.1-5.1-.8-15.2.5-20.5 4.3-16.3 16.3-28.5 32.4-33 5.2-1.4 14.2-1.7 20.4-.6 13.8 2.5 27.3 13.7 32.8 27.1 2.6 6.6 3.3 9.9 3.2 17.8 0 6.1-.2 8.3-1.3 11.9-4.6 16.1-17.1 28.4-33 32.4-5.9 1.5-15.9 1.5-21.7 0m7.5-24.9c-.9-.6-11.7-1.2-12-.7-.4.7 3.8 10.7 5.5 13.2.9 1.2 2.7 3.1 4 4.1l2.5 1.9.3-9.1c.1-5.8 0-9.2-.3-9.4m11.5 15c2.2-2 3.4-4.2 5.9-10.3 1.3-3.2 1.9-5.4 1.6-5.6-.6-.4-9.1.2-11.4.7-1.2.3-1.2.4-1.2 9 0 4.8.2 8.9.4 9.1.3.5 2.5-.9 4.7-2.9m-23.8-.9c.2-.2-.2-1.5-.9-2.9-1.7-3.3-3.1-7.7-3.6-11l-.4-2.6-3.6-.7c-2-.4-5.1-1.2-6.9-1.8s-3.4-1-3.5-.9c-.3.3 2 4.7 4.3 8.1 2.5 3.7 6.4 7.5 10.5 10.2 3.2 2 3.5 2.1 4.1 1.6m38.7-4c1.4-1 3.7-3.1 5-4.7 2.4-2.7 7.3-10.8 6.9-11.2-.3-.3-11.5 3.2-13.1 4.1-.6.3-1.2 1.4-1.5 2.7-.2 1.1-1.3 4.4-2.5 7.3s-2 5.4-1.8 5.7c.3.5 2.8-.9 7-3.9m-25.7-25c.1-5.3 0-9.8-.3-10s-3.8-.6-7.9-.8l-7.4-.4.3 8.8c.2 4.9.5 9.2.7 9.7.2.6 1.6 1.1 4 1.5 3.6.6 8.7 1 9.8.9.4-.1.7-3.9.8-9.7m15.7 8.8c2.1-.3 3.8-.9 4-1.3s.6-3.3.9-6.3c.6-5.3.4-10.6-.5-12-.3-.4-2.4-.4-7.4 0l-7.1.6v9.8c0 5.4.1 9.9.3 10.1.4.2 4.9-.2 9.8-.9m-35.3-2.7c-.5-1.5-.6-15.5-.1-16.9.3-1-.1-1.3-5.9-2.7-3.4-.9-6.5-1.7-6.8-1.8-.7-.3-2.5 8.5-2.5 12.6 0 4.4 1.8 6 9.7 8.5 5.2 1.7 6.1 1.7 5.6.3m51.7-.4c4-1.3 7.7-4.7 8.4-7.7.6-2.5 0-6.3-1.5-10.9-.7-2.1-1.1-2.6-1.8-2.3-.5.2-3.4 1.1-6.4 1.9-4 1.1-5.5 1.7-5.3 2.3.4 1.2.2 14.7-.3 16.6l-.4 1.7 2.2-.3c1.2-.2 3.5-.8 5.1-1.3m-32.3-21.9c.1-.4.2-6.4.1-13.4l-.1-12.7-3.8 3.6c-2.9 2.7-4.3 4.6-5.9 8-2.2 4.6-4.9 13.3-4.2 14 1.2 1.1 13.5 1.6 13.9.5m17 .2c1.4-.2 2.8-.6 3-.8.5-.5-3-11.3-5-15-1.7-3.2-7.7-10.2-8.7-10.2-.6 0-.7 25.6-.1 26.2.5.4 7.5.4 10.8-.2m-35.5-3.5c1.4-5.4 2.4-8.7 4.2-13.3 1-2.7 1.7-4.8 1.5-4.8-1.3 0-7.7 4.2-10.7 7-4.2 3.9-7.7 9.3-6.8 10.3.6.6 8.9 3.1 10.5 3.2.4-.1 1-1.1 1.3-2.4m48.4 1.5c4.3-.9 6.9-1.8 6.9-2.5 0-1.1-5.9-9-8.5-11.4-2.4-2.2-8.8-6.3-9.9-6.3-.2 0 .3 1.2 1 2.8 1.4 3 3.6 9.9 4.6 15.1.4 1.7.9 3.2 1.3 3.2.4-.1 2.5-.4 4.6-.9" style="fill:#fff" transform="translate(3145.263 -3177.408)scale(1.7746)"/></svg>