<svg xmlns="http://www.w3.org/2000/svg" viewBox="0 0 48 48"><defs><linearGradient id="a" x1="23.299" x2="24.13" y1="47.874" y2=".989" gradientUnits="userSpaceOnUse"><stop stop-color="#197cf1"/><stop offset="1" stop-color="#21c9fb"/></linearGradient></defs><circle cx="24" cy="24" r="24" fill="url(#a)"/><path fill="#ecf0f1" d="m29.295 35.989-5.124-10.057q-.473.066-.978.097a16 16 0 0 1-2.246-.018 32 32 0 0 1-1.284-.13v8.266l3.678 1.171v.668h-9.664v-.668l2.993-1.171V13.823l-2.993-1.172v-.667h9.16q2.115 0 3.757.487c1.095.316 2.02.765 2.766 1.352a5.74 5.74 0 0 1 1.724 2.116c.39.815.584 1.718.584 2.72q0 2.195-1.14 3.904-1.122 1.692-3.335 2.586l4.735 9.243 2.391.926v.668h-5.027m-5.986-22.293H19.66v10.462q.668.08 1.252.13.6.031 1.172.032 6.28 0 6.281-5.402c0-1.748-.434-3.052-1.302-3.92q-1.301-1.302-3.757-1.302"/></svg>