<svg xmlns="http://www.w3.org/2000/svg" xml:space="preserve" viewBox="0 13.88 512.01 484.23"><g fill="#f7f7f7"><path d="M235.3 16.33c-18.13 6.14-27.62 12-38.5 23.99-10.6 11.72-18.69 27.9-18.69 37.1 0 3.35-3.35 6.7-9.49 9.21-32.92 13.95-44.64 50.77-25.67 79.79 9.21 13.67 25.67 21.76 44.36 22.04h13.11v25.11h-31.8c-41.29 0-49.1-4.18-57.19-29.29-7.53-23.71-9.49-49.66-5.86-72.53 3.35-21.76 14.51-44.92 22.6-46.87 5.86-1.67 6.97-8.93 1.95-12s-20.37 15.9-27.34 34.04c-8.93 23.43-9.21 72.53-.28 98.2 5.3 15.34 5.58 18.97 2.51 27.34s-2.79 10.32 2.79 17.58c11.17 15.05 8.66 18.96-12.54 20.63-30.69 2.23-29.02-4.46-28.18 116.89l.84 102.66H55.08c-12 0-22.04 5.58-22.04 12.55 0 1.12-1.95 3.63-4.74 5.58-12.83 9.49-3.91 9.76 229.32 9.76 207.28 0 229.6-.56 231.27-4.46 1.12-3.07-.28-5.02-3.91-5.86-3.07-.84-5.58-3.63-5.58-6.14 0-8.09-6.14-11.44-21.76-11.44-13.39 0-14.79-.56-12.83-5.02 1.39-2.51 2.51-49.1 2.51-102.94 0-97.64 0-98.48-6.14-104.62-4.74-4.46-10.6-6.42-23.16-7.25-15.33-1.11-16.72-1.66-16.72-7.8 0-3.63 2.51-9.21 5.58-12.28 6.42-6.42 6.97-13.67 1.67-20.92-3.07-4.46-3.07-6.7 1.39-16.74 7.25-16.46 11.72-49.94 9.76-71.7-1.95-21.48-11.44-49.38-17.3-51.61-6.97-2.51-7.25.84-1.39 12.55 13.11 25.39 14.23 67.51 2.79 101.83-8.65 26.22-15.9 29.85-58.59 29.85h-33.2v-25.1h13.67c7.53 0 17.3-1.39 21.76-3.07 9.49-3.63 22.32-15.34 27.62-25.39 4.74-8.93 5.02-32.08.84-43.24-3.91-10.88-18.69-25.39-29.01-28.73-6.97-2.23-9.21-5.02-12-15.62-6.42-23.71-23.43-42.4-49.1-53.56-11.99-5.31-37.93-6.71-50.49-2.52m50.5 13.11c19.25 8.37 40.17 33.48 40.17 48.54 0 2.23-3.91 5.3-8.37 6.97-7.81 2.51-9.21 1.95-20.64-9.21-22.88-22.88-57.19-23.43-80.63-1.39-10.04 9.76-12.55 10.6-20.92 9.21-8.65-1.67-9.49-2.51-7.81-10.04 2.23-12 16.74-31.52 28.73-38.78 22.32-13.95 45.76-15.62 69.47-5.3m-2.23 46.31c4.18 3.35 10.6 10.32 14.23 15.9 6.14 9.49 6.97 9.76 12.55 6.14 19.81-14.23 56.63 6.42 59.42 33.2 1.95 15.9-2.51 27.06-15.06 37.94l-9.49 8.37H166.96l-10.88-10.88c-18.69-18.69-18.13-44.36 1.12-61.38 11.16-9.76 18.69-12.28 32.36-10.88 8.93.84 9.49 1.39 9.49 11.16 0 13.95 4.46 13.67 8.65-.84 3.91-13.11 15.34-26.5 27.62-32.08 11.98-5.58 38.48-3.63 48.25 3.35m-37.11 120.24c5.86 6.97 6.7 10.6 6.97 30.41v22.87l-23.99.84c-22.6 1.12-24.27 1.67-31.25 9.49-4.46 5.3-7.53 6.97-8.37 4.74-1.95-6.42-9.21-11.72-16.18-12-3.63-.28-9.21-.84-12.28-1.12s-13.11-.84-22.32-1.12c-15.06-.28-16.74-.84-16.74-6.14 0-3.07 3.63-9.49 8.09-13.95 8.09-8.09 8.37-8.09 43.24-8.09h35.17v-33.46h15.34c13.4 0 16.46 1.11 22.32 7.53m14.51-5.86c-.84.84-3.35 1.12-5.3.28-2.23-.84-1.39-1.67 1.67-1.67 3.07-.28 4.75.55 3.63 1.39m43.24 14.23.84 16.18 35.99.84c33.76.56 36.55 1.12 42.13 7.25 3.35 3.63 6.97 10.04 8.09 13.95l1.67 7.25h-24.55c-28.18 0-41.29 3.63-43.8 11.44-1.67 5.3-2.23 5.3-8.37-1.39-6.7-7.25-18.97-10.6-34.87-9.76-20.37 1.12-19.53 2.23-19.53-24.27 0-32.08 3.63-37.1 25.67-37.38h15.9zm-179.66 13.11c1.67 8.09-4.18 12-9.76 6.7-3.91-3.91-3.91-5.58-.84-9.21 4.46-5.3 9.48-4.18 10.6 2.51m276.75-2.23c3.07 3.35 2.79 5.02-.84 8.93-4.46 4.18-5.02 4.18-9.49 0-3.63-3.91-3.91-5.58-.84-8.93 1.95-2.51 4.46-4.46 5.58-4.46s3.63 1.95 5.59 4.46m-220.4 51.05c3.91 7.53 3.91 188.31 0 195.84-2.79 5.02-6.42 5.3-51.05 5.3-33.76 0-49.38-1.12-51.61-3.35-4.74-4.74-4.74-195.01 0-199.75 2.23-2.23 17.85-3.35 51.61-3.35 44.64.01 48.26.29 51.05 5.31m127.78-1.95c4.74 4.74 4.74 195.01 0 199.75s-100.15 4.74-104.9 0c-4.74-4.74-4.74-195.01 0-199.75s100.15-4.74 104.9 0m128.33 96.81c.56 70.58-.28 99.87-2.51 102.39-4.18 5.3-97.36 5.58-102.39.56-4.74-4.74-4.74-195.01 0-199.75 2.51-2.51 17.02-3.35 53.84-2.79l50.22.84zm33.19 122.19c1.12 2.79-44.08 3.63-212.58 4.18-117.73.56-214.54 0-215.37-1.39-.56-1.12-.28-3.35.56-4.74 2.79-4.47 426-2.52 427.39 1.95"/><path d="M218.29 128.48c-2.23 5.86.56 12.55 5.3 12.55 5.86 0 10.6-6.97 8.65-12.28-2.24-5.57-12-5.85-13.95-.27m32.36 0c-3.07 3.63-3.07 5.3.84 8.93 5.86 5.86 13.67 2.51 12.55-5.3s-8.37-9.77-13.39-3.63m31.8-.28c-2.51 6.7 1.12 13.39 6.42 12.28 6.7-1.12 6.7-14.51 0-15.62-2.51-.57-5.58 1.11-6.42 3.34M96.37 276.61c-4.74 5.02 3.91 6.7 31.8 6.7 25.11 0 30.41-.84 30.41-4.18s-5.3-4.18-30.13-4.18c-16.73-.01-31.24.83-32.08 1.66m-11.44 22.32c-5.3 5.3-6.14 31.8-1.12 36.83 2.23 2.23 16.46 3.35 46.03 3.35 48.26 0 48.26 0 48.26-23.16 0-20.09-3.35-21.48-49.66-21.48-31.79 0-39.88.84-43.51 4.46m84.26 18.42.84 10.6H88.84v-22.6l39.89.84 39.62.84zm-71.98 39.89c0 3.35 5.3 4.18 30.69 4.18s30.69-.84 30.69-4.18-5.3-4.18-30.69-4.18-30.69.83-30.69 4.18m-10.6 19.81c-5.02 3.35-6.14 6.97-6.14 18.97 0 7.81 1.39 15.9 3.07 17.58 2.23 2.23 2.23 3.63 0 4.74-4.18 2.79-3.91 30.41.28 34.59 4.74 4.74 86.2 4.74 90.95 0 4.18-4.18 4.46-25.67.56-32.92-1.95-3.63-1.95-5.86 0-6.97 1.39-.84 2.79-8.37 2.79-16.74 0-22.04-3.35-23.71-48.82-23.71-28.46-.01-37.67.83-42.69 4.46m82.58 17.57c.56 5.58-.56 10.32-2.79 11.72-4.18 2.79-66.4 3.35-73.09.84-4.46-1.67-6.42-17.85-2.51-21.76 1.12-.84 18.97-1.39 39.62-1.12l37.94.84zm-3.91 29.85c2.79 1.12 4.46 5.02 4.46 11.16 0 12-2.79 12.83-46.03 11.72l-33.48-.84-.83-7.81c-1.95-15.62-.84-15.9 36.83-15.9 18.96 0 36.54.84 39.05 1.67m59.42-147.86c-5.58 5.58.84 6.7 30.97 6.14 19.25-.56 32.64-1.95 32.64-3.63 0-3.06-60.54-5.57-63.61-2.51m-13.11 23.44c-7.53 7.53-7.81 27.9-.56 34.31 4.46 3.91 12 4.74 46.87 4.74 28.73 0 42.96-1.12 45.19-3.35 1.95-1.95 3.35-9.76 3.35-17.58 0-22.6-2.51-23.71-49.66-23.71-35.98.01-40.17.57-45.19 5.59m85.93 17.57.84 10.6-41.29-.84c-40.73-.84-41.29-.84-42.13-7.25-2.23-14.23-.84-14.79 41.85-13.95l39.89.84zm-72.82 37.11c-5.58 5.58.84 6.7 30.97 6.14 19.25-.56 32.64-1.95 32.64-3.63 0-3.07-60.54-5.58-63.61-2.51m-10.32 21.48c-5.58 2.79-7.25 5.86-7.81 15.9-.56 6.7.56 15.06 2.51 18.69 2.79 5.02 2.79 7.25.28 9.76-4.18 4.18-4.46 22.88-.56 30.41 2.79 5.02 6.42 5.3 46.87 5.3 30.69 0 45.19-1.12 47.43-3.35 4.18-4.18 4.46-25.67.56-32.92-1.95-3.63-1.95-5.86 0-6.97 1.39-.84 2.79-8.37 2.79-16.74 0-22.04-3.35-23.71-48.82-23.71-23.44 0-38.79 1.4-43.25 3.63m83.14 18.41c.56 5.58-.56 10.32-2.79 11.72-5.86 3.91-73.09 3.07-77-.84-3.63-3.63-4.46-16.74-1.39-20.09 1.12-.84 19.53-1.39 41.01-1.12l39.34.84zm-.84 40.73v11.16l-37.38.84c-39.34.84-44.92-.56-44.92-11.72 0-11.72 4.46-13.11 44.64-12.28l37.66.84zm54.4-156.22c0 3.63 4.46 4.18 31.52 3.63 18.41-.56 31.25-1.95 31.25-3.63s-12.83-3.07-31.25-3.63c-27.06-.56-31.52 0-31.52 3.63m-11.72 18.41c-3.91 2.23-5.02 6.42-5.02 18.69 0 8.93 1.39 17.58 3.35 19.53 4.74 4.74 86.2 4.74 90.95 0 1.95-1.95 3.35-9.76 3.35-17.58 0-22.6-2.51-23.71-49.1-23.71-21.21 0-41.02 1.39-43.53 3.07m83.7 19.81.84 10.6h-81.18v-9.21c0-5.3.84-10.32 1.95-11.44 1.12-.84 18.97-1.39 39.62-1.12l37.94.84zm-70.03 37.38c-5.3 5.3.56 6.7 30.41 6.7 24.55 0 32.08-.84 31.25-3.63-1.4-3.63-58.03-6.42-61.66-3.07m-12.55 22.32c-5.02 3.35-6.14 6.97-6.14 18.97 0 7.81 1.39 15.9 3.07 17.58 2.23 2.23 2.23 3.63 0 4.74-4.18 2.79-3.91 30.41.28 34.59 2.23 2.23 16.74 3.35 47.15 3.35 37.38 0 44.08-.56 45.47-4.46 2.51-6.97 1.95-25.95-1.12-31.8-1.95-3.63-1.95-5.86 0-6.97 1.39-.84 2.79-8.37 2.79-16.74 0-22.04-3.35-23.71-48.82-23.71-28.45-.02-37.66.82-42.68 4.45m82.58 18.41c1.12 13.11-1.12 13.95-45.47 12.83l-33.48-.84-.84-7.81c-1.95-15.9-1.39-16.18 40.45-15.34l38.5.84zm-.84 39.89v11.16H344.1l-.84-7.81c-1.95-15.9-1.39-16.18 40.45-15.34l38.5.84v11.15zM381.77 55.94c-2.79 3.07-2.79 5.3-.56 7.53 4.18 4.18 12.28.56 11.16-5.3-1.12-6.41-6.14-7.53-10.6-2.23M56.2 122.06c-14.23 6.97-13.95 29.57.56 36.27 16.18 7.25 33.2-9.21 26.5-25.39-1.67-4.46-6.42-9.21-10.04-11.16-8.09-3.63-8.93-3.63-17.02.28m17.3 17.3c0 4.74-1.95 9.21-5.02 11.16-4.18 2.51-6.14 1.95-10.32-3.35-7.25-8.93-3.07-18.13 7.81-16.74 6.13.56 7.53 2.23 7.53 8.93m366.85-17.02c-3.91 1.95-7.81 7.25-9.49 12.55-5.02 18.13 14.79 32.08 30.69 21.48 9.76-6.42 9.49-23.99-.56-31.8-8.64-6.69-11.15-6.97-20.64-2.23m18.42 14.78c1.95 7.25-2.79 15.06-8.93 15.06-1.95 0-5.86-3.35-8.65-7.25-4.46-7.25-4.46-7.53 1.39-12.55 7.82-6.14 13.95-4.18 16.19 4.74M58.71 195.99c.56 2.79 2.79 5.02 5.02 5.02s4.46-2.23 5.02-5.02c.56-3.35-.84-4.74-5.02-4.74s-5.58 1.39-5.02 4.74m407.59 27.34c-3.91 3.07-4.46 5.02-1.95 8.93 4.74 7.81 13.39 6.42 14.51-2.23 1.11-8.93-5.03-12-12.56-6.7M20.21 270.48c-2.79 7.25 1.12 13.39 7.81 12.28 4.74-.56 6.42-2.79 6.42-7.81s-1.67-7.25-6.42-7.81c-3.62-.57-6.97.83-7.81 3.34m457.25 73.37c-5.02 1.95-4.46 14.51.84 16.74 6.42 2.51 14.23-6.42 10.6-12.28-3.35-5.3-6.42-6.69-11.44-4.46M21.61 368.68c-4.46 5.58 0 13.67 7.53 13.67 9.76 0 7.81-17.85-1.95-18.13-1.12-.01-3.35 1.95-5.58 4.46M.68 490.03c-2.79 4.74 3.63 10.04 7.53 6.14 3.35-3.35 1.12-9.21-3.07-9.21-1.39 0-3.34 1.4-4.46 3.07m502.17 0c-2.79 4.74 3.63 10.04 7.53 6.14 3.35-3.35 1.12-9.21-3.07-9.21-1.4 0-3.35 1.4-4.46 3.07"/></g></svg>