<svg xmlns="http://www.w3.org/2000/svg" version="1.0" viewBox="36.13 36.34 440.71 440.63"><path d="M239 36.6c-73.2 6.7-136.7 46.9-173.6 110.1-15.2 26.1-24.8 55.7-28.5 88.3-1.6 14.6-.6 43.2 2 58.5C56 390.8 133.2 464.1 231 476c10.9 1.3 40.1 1.3 51 0 58-7 111.1-36.6 147.1-81.7 23.1-28.9 39.2-65.2 45.4-102.3 2.2-13.1 3.1-44.8 1.6-58-5-43.6-21.5-83.2-48.4-116.5-3.5-4.4-11.8-13.2-18.3-19.5-33.1-32.1-73.7-52.2-119.9-59.5-9.7-1.5-41.4-2.7-50.5-1.9m30.3 23.1c.6.9-32.5 206.9-33.3 207.6-.3.3-24.5-36-53.9-80.5-29.3-44.5-53.2-81-53-81.2s3.7-2.9 7.8-6c30-23 64.6-36.2 105.1-40 7.3-.6 26.9-.6 27.3.1m38.2 6.2c12.8 3.4 30.6 10.1 29.9 11.3-.3.4-1.8.8-3.3.8-8.6 0-28.8 8.2-40.9 16.6l-6.3 4.4.6-3.3c.3-1.7 1.4-8.8 2.5-15.7 2.7-16.8 2.8-17 4.8-17 .9 0 6.7 1.3 12.7 2.9m56.7 35.6c8.9 1.8 23.4 8.8 30.7 14.8 35.1 29.2 35.3 83.4.3 112.2-28 23.2-69.2 22-95.6-2.6-11.9-11.1-19.2-24.2-22.2-39.7-7.4-38.6 17.5-76.3 56-84.7 8.3-1.8 21.9-1.8 30.8 0m-237.9 42.6c7.6 11.6 13.7 21.2 13.5 21.4-.1.2-3-.2-6.3-.7-7.8-1.3-25.3-.4-33.5 1.7-3.6 1-10.3 3.5-14.9 5.6-4.6 2.2-8.6 3.9-8.8 3.9-.9 0 10.8-21.2 15.8-28.8 7.2-10.7 18.3-24.2 19.8-24.2.4 0 6.8 9.5 14.4 21.1m10.1 44.9c11.5 2.9 18.9 7.3 28.1 16.5 13.1 13 18.6 25.9 18.6 43.5 0 17.7-5.7 31.8-18 44-12.7 12.6-24.9 17.6-46.2 18.8l-12.6.7 11.7 42c6.5 23.1 12.7 45.3 13.8 49.2 1.2 4.2 1.6 7.3 1 7.3-1.9 0-29.4-28.7-35.1-36.7-27.3-38.4-40.1-79.7-38.4-123.7.6-16 2.4-22.9 8.5-33.1 9.6-16 23.9-25.7 43.7-29.9 5.5-1.1 17.8-.4 24.9 1.4m309.9 12.7c6 20.5 8.2 38.5 7.5 62.1-.3 9.5-.8 17.5-1.1 17.8-.5.6-193.9-1.6-194.5-2.1-.5-.4 7.7-51.6 8.6-53.7.6-1.4 1.8-.3 6.4 5.5 13.7 17.8 34.1 30.6 56 35.1 8.9 1.8 27.5 2.1 36.4.5 19.9-3.5 37.8-13.2 52.4-28.5 11.4-11.9 21.2-29.4 23.5-41.7.4-2 1.1-3.7 1.5-3.7s1.9 3.9 3.3 8.7M219 284.5c8.6 13 13.5 21.3 14.4 24.8 3.5 12.1 37.6 142.6 37.6 143.6 0 1.4-26.6 1.5-38 .1-20.3-2.6-42-8.8-60.2-17.3-7.3-3.4-9.7-5-10.1-6.8-.8-3-25.5-91.8-26.3-94.2-.4-1.2 0-1.7 1.3-1.7 1 0 6.1-1.5 11.5-3.3 25.4-8.8 44.8-28.7 53-54.3 1.8-5.7 3.4-10.4 3.6-10.4.1 0 6.1 8.8 13.2 19.5m123.8 20c.5.5 1.7 57.3 2.3 105.5l.3 23.4-6.9 3.3c-12.6 5.8-42.9 15.1-43.9 13.4-.5-.8-38.6-145.5-38.6-146.6 0-.9 86 .1 86.8 1m105 1.1c.8.6-6.3 21.7-10.7 31.4-9.4 21-21.7 39.2-38.1 56.4-9 9.4-28 25.6-30.1 25.6-.5 0-.9-6.5-.9-15.8 0-19.7-.9-68.4-1.5-85.9L366 304l40.8.6c22.4.4 40.9.8 41 1"/></svg>