<?xml version="1.0" encoding="UTF-8"?>
<svg version="1.1" xmlns="http://www.w3.org/2000/svg" width="500" height="500">
<path d="M0 0 C165 0 330 0 500 0 C500 165 500 330 500 500 C335 500 170 500 0 500 C0 335 0 170 0 0 Z " fill="#3E2544" transform="translate(0,0)"/>
<path d="M0 0 C0.77794922 -0.00067474 1.55589844 -0.00134949 2.35742188 -0.00204468 C22.3820571 0.02546451 41.24856524 2.39510849 60.4375 8.25 C61.55125 8.58 62.665 8.91 63.8125 9.25 C69.6894336 11.16639139 74.24374951 13.63423689 78.4375 18.25 C83.15039108 27.67578215 78.21712718 41.59574912 75.28515625 50.875 C65.96852028 78.71897972 65.96852028 78.71897972 58.4375 86.25 C54.85435014 85.8857131 52.11014771 84.69641357 48.9375 83.0625 C36.81059439 77.49551783 24.02123981 73.72195558 10.625 73.625 C9.41759155 73.608927 9.41759155 73.608927 8.18579102 73.5925293 C2.61649397 73.72614575 -1.95717353 75.03146936 -6.5625 78.25 C-9.33658002 82.23774002 -10.17780208 85.4301337 -9.5625 90.25 C-8.13628316 92.96126384 -8.13628316 92.96126384 -6.5625 95.25 C-6.5625 95.91 -6.5625 96.57 -6.5625 97.25 C-5.98395264 97.53665527 -5.40540527 97.82331055 -4.80932617 98.11865234 C-2.7266959 99.1673222 -0.66818349 100.24975555 1.38671875 101.3515625 C9.17544069 105.5033916 16.95902104 109.5452811 25 113.1875 C39.58696973 119.90191963 52.64097618 128.36591449 64.4375 139.25 C65.26765625 139.98734375 66.0978125 140.7246875 66.953125 141.484375 C79.88948551 153.54071098 86.72231609 169.45024292 87.62841797 186.93383789 C87.69191783 190.20408059 87.71897862 193.46994958 87.69824219 196.74072266 C87.68751054 198.7480284 87.69821152 200.75443969 87.7109375 202.76171875 C87.68761427 214.57493697 86.2198887 225.20493134 82.1875 236.3125 C81.87594971 237.17883057 81.56439941 238.04516113 81.2434082 238.93774414 C73.04685882 261.1885043 58.20820675 278.31580931 36.61181641 288.30419922 C30.70944287 290.87165881 24.6831416 292.72372897 18.4375 294.25 C17.78910156 294.41226074 17.14070313 294.57452148 16.47265625 294.74169922 C-2.09298202 299.19469513 -21.56909737 297.85549479 -40.35498047 295.51464844 C-42.40076577 295.26938951 -44.45235551 295.07393814 -46.50390625 294.8828125 C-60.28178251 293.45096534 -74.22706389 289.41968368 -85.5625 281.25 C-86.35011719 280.693125 -87.13773438 280.13625 -87.94921875 279.5625 C-96.45241553 273.26591792 -102.19551007 266.35096978 -105.5625 256.25 C-107.35886189 234.81613654 -103.22766113 212.98832091 -90.5625 195.25 C-89.58893841 194.2242428 -88.59697693 193.21429118 -87.5625 192.25 C-83.36288203 193.73817631 -79.95147361 195.84630078 -76.25 198.3125 C-59.84760091 209.00411044 -43.73160167 218.31629671 -23.625 218.5625 C-22.83931641 218.59150391 -22.05363281 218.62050781 -21.24414062 218.65039062 C-15.87688523 218.70877918 -12.75876729 217.90812003 -8.5625 214.25 C-5.81583709 210.21359973 -5.84940702 205.96122105 -6.5625 201.25 C-11.34679811 190.76134645 -25.0874293 186.41956874 -35 181.8125 C-59.45248849 170.43041111 -82.51674645 155.01126842 -92.32421875 128.703125 C-93.88312047 124.25724927 -95.34049902 119.80077962 -96.5625 115.25 C-96.75827637 114.52321045 -96.95405273 113.7964209 -97.15576172 113.04760742 C-98.84971441 105.82828628 -98.93477831 98.59519902 -98.93310547 91.22045898 C-98.93745826 89.08299744 -98.97383309 86.94764256 -99.01171875 84.81054688 C-99.11705761 72.11895215 -96.82378445 60.27315219 -90.8125 48.9375 C-90.46815918 48.27218262 -90.12381836 47.60686523 -89.76904297 46.92138672 C-86.67348235 41.12301738 -83.01629493 36.09215924 -78.5625 31.25 C-77.83675781 30.43273437 -77.11101562 29.61546875 -76.36328125 28.7734375 C-56.07344649 7.10858914 -28.78406567 0.02238794 0 0 Z " fill="#FA7084" transform="translate(251.5625,116.75)"/>
<path d="M0 0 C14.04469439 0 26.8262087 3.48299281 40 8 C40.63341309 8.20963379 41.26682617 8.41926758 41.91943359 8.63525391 C90.15742512 24.69809702 125.66117578 60.52070588 148.1953125 105.109375 C154.8621074 118.76447132 158.95850166 133.15932218 162 148 C162.33837891 149.45986328 162.33837891 149.45986328 162.68359375 150.94921875 C164.79078055 161.136377 164.16570777 171.65247012 164 182 C158.06 182 152.12 182 146 182 C145.87625 179.15375 145.7525 176.3075 145.625 173.375 C143.45173842 131.56016681 125.39187165 91.47992716 95.17578125 62.234375 C68.34348298 38.15843442 35.63562977 23.09080425 0 18 C0 12.06 0 6.12 0 0 Z " fill="#F86F83" transform="translate(318,18)"/>
<path d="M0 0 C25.59421927 3.45090597 47.24963518 12.19878468 67 29 C68.42119141 30.18335938 68.42119141 30.18335938 69.87109375 31.390625 C78.24139369 38.66157475 84.71135117 46.8957234 91 56 C91.60714844 56.87398437 92.21429688 57.74796875 92.83984375 58.6484375 C105.07335218 77.66391745 110.23229722 100.69946726 110 123 C104.06 123 98.12 123 92 123 C91.690625 118.66875 91.690625 118.66875 91.375 114.25 C89.28349047 91.63671831 80.69738563 69.6704699 65 53 C64.55962402 52.5148291 64.11924805 52.0296582 63.66552734 51.52978516 C46.61333337 32.80499337 24.30907925 23.7021297 0 18 C0 12.06 0 6.12 0 0 Z " fill="#F86F84" transform="translate(324,71)"/>
</svg>
