<svg xmlns="http://www.w3.org/2000/svg" xmlns:xlink="http://www.w3.org/1999/xlink" version="1.1" viewBox="12.49 9.71 85.51 45.88">
    <defs>
        <path d="M70.9167028,0 L17.6240255,0 C7.89435457,0 0,7.91186331 0,17.6711364 L0,52.929741 C0,56.8502745 3.17194863,60.0256801 7.07421001,60.0256801 L17.2489731,60.0256801 L17.2489731,51.7803221 L26.7825324,51.7803221 L26.7825324,60.0256801 L44.1388699,60.0256801 L44.1388699,51.7803221 L53.6733328,51.7803221 L53.6733328,60.0256801 L63.8422217,60.0256801 C67.0080248,60.0256801 69.6812894,57.946211 70.5841263,55.0690379 L57.1183919,42.9803787 L8.16095804,42.9803787 L8.16095804,19.2082575 C8.16095804,12.4758176 13.5960538,7.01852555 20.308135,7.01852555 L62.7613479,7.01852555 L62.7613479,26.658359 L62.7613479,20.7541715 L70.9167028,28.0765497 L70.9167028,0" id="path-1"/>
        <linearGradient x1="-1.64788671%" y1="74.2786669%" x2="164.346338%" y2="3.98374061%" id="linearGradient-3">
            <stop stop-color="#68CBB0" offset="0%"/>
            <stop stop-color="#9E7DC5" offset="100%"/>
        </linearGradient>
        <polyline id="path-4" points="0 0 0 5.90418755 8.15535485 13.2247528 8.15535485 7.32237823 0 1.03055043e-14"/>
        <linearGradient x1="-267.121377%" y1="223.824636%" x2="281.798868%" y2="-221.520176%" id="linearGradient-6">
            <stop stop-color="#42BE9A" offset="0%"/>
            <stop stop-color="#8160B6" offset="100%"/>
        </linearGradient>
        <path d="M9.53446295,3.19353519 L9.53446295,0 L0,0 L0,3.19353519 C0,5.83502299 2.13463521,7.97522639 4.76723147,7.97522639 C7.39982774,7.97522639 9.53446295,5.83502299 9.53446295,3.19353519 Z" id="path-7"/>
        <linearGradient x1="-91.4407583%" y1="101.206847%" x2="1143.19431%" y2="-415.481295%" id="linearGradient-9">
            <stop stop-color="#68CBB0" offset="0%"/>
            <stop stop-color="#9E7DC5" offset="100%"/>
        </linearGradient>
        <path d="M9.53355921,3.19353519 L9.53355921,0 L0,0 L0,3.19353519 C0,5.83502299 2.13373147,7.97522639 4.76632773,7.97522639 C7.398924,7.97522639 9.53355921,5.83502299 9.53355921,3.19353519 Z" id="path-10"/>
        <linearGradient x1="-317.319177%" y1="195.743276%" x2="917.423452%" y2="-321.038853%" id="linearGradient-12">
            <stop stop-color="#68CBB0" offset="0%"/>
            <stop stop-color="#9E7DC5" offset="100%"/>
        </linearGradient>
    </defs>
    <g id="Glyph+Text-Light" stroke="none" stroke-width="1" fill="none" fill-rule="evenodd">
        <g id="Group" transform="translate(-0, -0)">
            
            <g id="g8-copy-2" transform="translate(0, 0)">
                <g id="g8-copy" transform="translate(49, 34) scale(-1, 1) rotate(-180) translate(-49, -34)translate(-0, 0)">
                    <g id="g10" transform="translate(0, 0)">
                        <g id="g36-Clipped" transform="translate(-0, 0)">
                            <mask id="mask-2" fill="white">
                                <use xlink:href="#path-1"/>
                            </mask>
                            <g id="path38"/>
                            <g id="g36" mask="url(#mask-2)" fill="url(#linearGradient-3)" fill-rule="nonzero">
                                <path d="M70.9167028,0 L17.6240255,0 C7.89435457,0 0,7.91186331 0,17.6711364 L0,52.929741 C0,56.8502745 3.17194863,60.0256801 7.07421001,60.0256801 L17.2489731,60.0256801 L17.2489731,51.7803221 L26.7825324,51.7803221 L26.7825324,60.0256801 L44.1388699,60.0256801 L44.1388699,51.7803221 L53.6733328,51.7803221 L53.6733328,60.0256801 L63.8422217,60.0256801 C67.0080248,60.0256801 69.6812894,57.946211 70.5841263,55.0690379 L57.1183919,42.9803787 L8.16095804,42.9803787 L8.16095804,19.2082575 C8.16095804,12.4758176 13.5960538,7.01852555 20.308135,7.01852555 L62.7613479,7.01852555 L62.7613479,26.658359 L62.7613479,20.7541715 L70.9167028,28.0765497 L70.9167028,0" id="path48"/>
                            </g>
                        </g>
                        <polyline id="path50" fill="#100F0D" fill-rule="nonzero" points="83.2120932 58.290674 47.0660856 25.8439758 43.2206695 29.1448385 28.0540953 29.1448385 46.8862412 12.4085567 98 58.290674 83.2120932 58.290674"/>
                        <g id="g54-Clipped" transform="translate(62.7613, 20.7542)">
                            <mask id="mask-5" fill="white">
                                <use xlink:href="#path-4"/>
                            </mask>
                            <g id="path56"/>
                            <g id="g54" mask="url(#mask-5)" fill="url(#linearGradient-6)" fill-rule="nonzero">
                                <polyline id="path66" points="0 0 0 5.90418755 8.15535485 13.2247528 8.15535485 7.32237823 0 1.03055043e-14"/>
                            </g>
                        </g>
                        <polyline id="path68" fill="#100F0D" fill-rule="nonzero" points="62.7613479 26.658359 62.7613479 31.9432382 70.9167028 39.2715993 70.9167028 33.9789243 62.7613479 26.658359"/>
                        <g id="g72-Clipped" transform="translate(17.2472, 60.0248)">
                            <mask id="mask-8" fill="white">
                                <use xlink:href="#path-7"/>
                            </mask>
                            <g id="path74"/>
                            <g id="g72" mask="url(#mask-8)" fill="url(#linearGradient-9)" fill-rule="nonzero">
                                <path d="M9.53446295,3.19353519 L9.53446295,0 L0,0 L0,3.19353519 C0,5.83502299 2.13463521,7.97522639 4.76723147,7.97522639 C7.39982774,7.97522639 9.53446295,5.83502299 9.53446295,3.19353519" id="path84"/>
                            </g>
                        </g>
                        <g id="g88-Clipped" transform="translate(44.138, 60.0248)">
                            <mask id="mask-11" fill="white">
                                <use xlink:href="#path-10"/>
                            </mask>
                            <g id="path90"/>
                            <g id="g88" mask="url(#mask-11)" fill="url(#linearGradient-12)" fill-rule="nonzero">
                                <path d="M9.53355921,3.19353519 L9.53355921,0 L0,0 L0,3.19353519 C0,5.83502299 2.13373147,7.97522639 4.76632773,7.97522639 C7.398924,7.97522639 9.53355921,5.83502299 9.53355921,3.19353519" id="path100"/>
                            </g>
                        </g>
                        <polyline id="path102" fill="#100F0D" fill-rule="nonzero" points="23.276019 28.8013725 12.4934903 28.8013725 12.4934903 38.6051539 23.276019 38.6051539 23.276019 28.8013725"/>
                        <path d="M23.276019,16.040829 L22.2674445,16.040829 C16.8694021,16.040829 12.4934903,20.4301949 12.4934903,25.844701 L23.276019,25.844701 L23.276019,16.040829" id="path104" fill="#100F0D" fill-rule="nonzero"/>
                        <polyline id="path106" fill="#100F0D" fill-rule="nonzero" points="37.565061 17.3531426 37.565061 16.0398319 26.7816286 16.0398319 26.7816286 25.844973 28.0089083 25.844973 37.565061 17.3531426"/>
                    </g>
                </g>
            </g>
        </g>
    </g>
</svg>