<?xml version="1.0" encoding="UTF-8"?>
<svg xmlns="http://www.w3.org/2000/svg" xmlns:xlink="http://www.w3.org/1999/xlink" width="512px" height="512px" viewBox="0 0 512 512" version="1.1">
<defs>
<filter id="alpha" filterUnits="objectBoundingBox" x="0%" y="0%" width="100%" height="100%">
  <feColorMatrix type="matrix" in="SourceGraphic" values="0 0 0 0 1 0 0 0 0 1 0 0 0 0 1 0 0 0 1 0"/>
</filter>
<mask id="mask0">
  <g filter="url(#alpha)">
<rect x="0" y="0" width="512" height="512" style="fill:rgb(0%,0%,0%);fill-opacity:0.2;stroke:none;"/>
  </g>
</mask>
<clipPath id="clip1">
  <rect x="0" y="0" width="512" height="512"/>
</clipPath>
<g id="surface5" clip-path="url(#clip1)">
<path style=" stroke:none;fill-rule:nonzero;fill:rgb(0%,0%,0%);fill-opacity:1;" d="M 179.699219 128 C 167.792969 128 155.941406 137.730469 158.207031 149.332031 L 191.519531 320 L 131.820312 438.5 C 127.570312 446.632812 126.777344 451.59375 129.890625 458.667969 C 132.863281 465.417969 140.542969 469.332031 148.53125 469.332031 L 363.46875 469.332031 C 371.457031 469.332031 379.136719 465.417969 382.109375 458.667969 C 385.222656 451.59375 384.429688 446.632812 380.179688 438.5 L 320.480469 320 L 353.792969 149.332031 C 356.058594 137.730469 344.207031 128 332.300781 128 Z M 179.699219 128 "/>
</g>
<mask id="mask1">
  <g filter="url(#alpha)">
<rect x="0" y="0" width="512" height="512" style="fill:rgb(0%,0%,0%);fill-opacity:0.2;stroke:none;"/>
  </g>
</mask>
<clipPath id="clip2">
  <rect x="0" y="0" width="512" height="512"/>
</clipPath>
<g id="surface8" clip-path="url(#clip2)">
<path style=" stroke:none;fill-rule:nonzero;fill:rgb(0%,0%,0%);fill-opacity:1;" d="M 64 64 L 448 64 C 459.78125 64 469.332031 73.550781 469.332031 85.332031 L 469.332031 384 C 469.332031 395.78125 459.78125 405.332031 448 405.332031 L 64 405.332031 C 52.21875 405.332031 42.667969 395.78125 42.667969 384 L 42.667969 85.332031 C 42.667969 73.550781 52.21875 64 64 64 Z M 64 64 "/>
</g>
<mask id="mask2">
  <g filter="url(#alpha)">
<rect x="0" y="0" width="512" height="512" style="fill:rgb(0%,0%,0%);fill-opacity:0.101961;stroke:none;"/>
  </g>
</mask>
<clipPath id="clip3">
  <rect x="0" y="0" width="512" height="512"/>
</clipPath>
<g id="surface11" clip-path="url(#clip3)">
<path style=" stroke:none;fill-rule:nonzero;fill:rgb(0%,0%,0%);fill-opacity:1;" d="M 122.605469 160 C 119.441406 160.011719 116.351562 160.960938 113.730469 162.730469 C 106.398438 167.664062 104.460938 177.609375 109.394531 184.9375 L 142.792969 234.582031 C 110.984375 262.464844 89.613281 301.859375 85.355469 346.25 C 84.570312 362.675781 101.917969 362.667969 101.917969 362.667969 L 409.667969 362.667969 C 409.667969 362.667969 427.511719 362.664062 426.644531 345.417969 C 422.203125 301.347656 400.878906 262.25 369.25 234.542969 L 402.605469 184.9375 C 407.539062 177.609375 405.601562 167.664062 398.269531 162.730469 C 394.753906 160.359375 390.4375 159.480469 386.269531 160.292969 C 382.105469 161.105469 378.433594 163.539062 376.0625 167.0625 L 343.292969 215.769531 C 317.722656 200.691406 287.894531 192 256.019531 192 C 224.132812 192 194.300781 200.699219 168.730469 215.792969 L 135.9375 167.0625 C 133.566406 163.539062 129.894531 161.105469 125.730469 160.292969 C 124.699219 160.09375 123.652344 159.996094 122.605469 160 Z M 122.605469 160 "/>
</g>
<mask id="mask3">
  <g filter="url(#alpha)">
<rect x="0" y="0" width="512" height="512" style="fill:rgb(0%,0%,0%);fill-opacity:0.101961;stroke:none;"/>
  </g>
</mask>
<clipPath id="clip4">
  <rect x="0" y="0" width="512" height="512"/>
</clipPath>
<g id="surface14" clip-path="url(#clip4)">
<path style=" stroke:none;fill-rule:nonzero;fill:rgb(100%,100%,100%);fill-opacity:1;" d="M 64 53.332031 C 52.179688 53.332031 42.667969 62.847656 42.667969 74.667969 L 42.667969 85.332031 C 42.667969 73.515625 52.179688 64 64 64 L 448 64 C 459.820312 64 469.332031 73.515625 469.332031 85.332031 L 469.332031 74.667969 C 469.332031 62.847656 459.820312 53.332031 448 53.332031 Z M 64 53.332031 "/>
</g>
<mask id="mask4">
  <g filter="url(#alpha)">
<rect x="0" y="0" width="512" height="512" style="fill:rgb(0%,0%,0%);fill-opacity:0.2;stroke:none;"/>
  </g>
</mask>
<clipPath id="clip5">
  <rect x="0" y="0" width="512" height="512"/>
</clipPath>
<g id="surface17" clip-path="url(#clip5)">
<path style=" stroke:none;fill-rule:nonzero;fill:rgb(0%,0%,0%);fill-opacity:1;" d="M 170.667969 266.667969 C 158.882812 266.667969 149.332031 276.21875 149.332031 288 C 149.332031 299.78125 158.882812 309.332031 170.667969 309.332031 C 182.449219 309.332031 192 299.78125 192 288 C 192 276.21875 182.449219 266.667969 170.667969 266.667969 Z M 341.332031 266.667969 C 329.550781 266.667969 320 276.21875 320 288 C 320 299.78125 329.550781 309.332031 341.332031 309.332031 C 353.117188 309.332031 362.667969 299.78125 362.667969 288 C 362.667969 276.21875 353.117188 266.667969 341.332031 266.667969 Z M 341.332031 266.667969 "/>
</g>
<mask id="mask5">
  <g filter="url(#alpha)">
<rect x="0" y="0" width="512" height="512" style="fill:rgb(0%,0%,0%);fill-opacity:0.2;stroke:none;"/>
  </g>
</mask>
<clipPath id="clip6">
  <rect x="0" y="0" width="512" height="512"/>
</clipPath>
<g id="surface20" clip-path="url(#clip6)">
<path style=" stroke:none;fill-rule:nonzero;fill:rgb(100%,100%,100%);fill-opacity:1;" d="M 122.605469 149.332031 C 119.441406 149.347656 116.351562 150.296875 113.730469 152.0625 C 107.785156 156.230469 105.390625 163.875 107.894531 170.6875 C 108.953125 167.488281 110.996094 164.699219 113.730469 162.730469 C 116.351562 160.960938 119.441406 160.011719 122.605469 160 C 123.652344 159.996094 124.699219 160.09375 125.730469 160.292969 C 129.894531 161.105469 133.566406 163.539062 135.9375 167.0625 L 168.730469 215.792969 C 194.300781 200.699219 224.132812 192 256.019531 192 C 287.894531 192 317.722656 200.691406 343.292969 215.769531 L 376.0625 167.0625 C 378.433594 163.539062 382.105469 161.105469 386.269531 160.292969 C 390.4375 159.480469 394.753906 160.359375 398.269531 162.730469 C 401.105469 164.660156 403.246094 167.449219 404.375 170.6875 C 406.824219 163.8125 404.316406 156.152344 398.269531 152.0625 C 394.753906 149.691406 390.4375 148.8125 386.269531 149.625 C 382.105469 150.4375 378.433594 152.875 376.0625 156.394531 L 343.292969 205.105469 C 317.722656 190.027344 287.894531 181.332031 256.019531 181.332031 C 224.132812 181.332031 194.300781 190.03125 168.730469 205.125 L 135.9375 156.394531 C 133.566406 152.875 129.894531 150.4375 125.730469 149.625 C 124.699219 149.425781 123.652344 149.328125 122.605469 149.332031 Z M 373.6875 227.9375 L 369.25 234.542969 C 399.753906 261.265625 420.628906 298.597656 426.0625 340.75 C 426.527344 339.023438 426.761719 337.050781 426.644531 334.75 C 422.414062 292.78125 402.859375 255.34375 373.6875 227.9375 Z M 138.355469 227.980469 C 109.015625 255.566406 89.410156 293.300781 85.355469 335.582031 C 85.25 337.792969 85.492188 339.679688 85.957031 341.332031 C 91.273438 298.957031 112.167969 261.429688 142.792969 234.582031 Z M 138.355469 227.980469 "/>
</g>
</defs>
<g id="surface1">
<use xlink:href="#surface5" mask="url(#mask0)"/>
<path style=" stroke:none;fill-rule:nonzero;fill:rgb(80.000001%,80.000001%,80.000001%);fill-opacity:1;" d="M 179.699219 117.332031 C 167.792969 117.332031 155.941406 127.0625 158.207031 138.667969 L 191.519531 309.332031 L 131.820312 427.832031 C 127.570312 435.964844 126.777344 440.929688 129.890625 448 C 132.863281 454.75 140.542969 458.667969 148.53125 458.667969 L 363.46875 458.667969 C 371.457031 458.667969 379.136719 454.75 382.109375 448 C 385.222656 440.929688 384.429688 435.964844 380.179688 427.832031 L 320.480469 309.332031 L 353.792969 138.667969 C 356.058594 127.0625 344.207031 117.332031 332.300781 117.332031 Z M 179.699219 117.332031 "/>
<use xlink:href="#surface8" mask="url(#mask1)"/>
<path style=" stroke:none;fill-rule:nonzero;fill:rgb(89.411765%,89.411765%,89.411765%);fill-opacity:1;" d="M 42.667969 352 L 42.667969 373.332031 C 42.667969 385.152344 52.179688 394.667969 64 394.667969 L 448 394.667969 C 459.820312 394.667969 469.332031 385.152344 469.332031 373.332031 L 469.332031 352 Z M 42.667969 352 "/>
<use xlink:href="#surface11" mask="url(#mask2)"/>
<path style=" stroke:none;fill-rule:nonzero;fill:rgb(2.745098%,43.921569%,38.82353%);fill-opacity:1;" d="M 64 53.332031 C 52.179688 53.332031 42.667969 62.847656 42.667969 74.667969 L 42.667969 352 L 469.332031 352 L 469.332031 74.667969 C 469.332031 62.847656 459.820312 53.332031 448 53.332031 Z M 64 53.332031 "/>
<use xlink:href="#surface14" mask="url(#mask3)"/>
<path style="fill:none;stroke-width:3;stroke-linecap:round;stroke-linejoin:miter;stroke:rgb(18.82353%,86.666667%,50.588238%);stroke-opacity:1;stroke-miterlimit:4;" d="M 15.199951 21 L 11.500122 15.499878 " transform="matrix(10.666667,0,0,10.666667,0,0)"/>
<path style="fill:none;stroke-width:3;stroke-linecap:round;stroke-linejoin:miter;stroke:rgb(18.82353%,86.666667%,50.588238%);stroke-opacity:1;stroke-miterlimit:4;" d="M 32.799683 21 L 36.499878 15.499878 " transform="matrix(10.666667,0,0,10.666667,0,0)"/>
<path style=" stroke:none;fill-rule:nonzero;fill:rgb(18.82353%,86.666667%,50.588238%);fill-opacity:1;" d="M 256.027344 181.332031 C 166.894531 181.332031 93.664062 249.035156 85.359375 335.582031 C 84.574219 352.007812 101.914062 352 101.914062 352 L 409.664062 352 C 409.664062 352 427.5 351.996094 426.636719 334.75 C 417.949219 248.59375 344.871094 181.332031 256.027344 181.332031 Z M 256.027344 181.332031 "/>
<use xlink:href="#surface17" mask="url(#mask4)"/>
<path style=" stroke:none;fill-rule:nonzero;fill:rgb(100%,100%,100%);fill-opacity:1;" d="M 170.667969 256 C 182.449219 256 192 265.550781 192 277.332031 C 192 289.117188 182.449219 298.667969 170.667969 298.667969 C 158.882812 298.667969 149.332031 289.117188 149.332031 277.332031 C 149.332031 265.550781 158.882812 256 170.667969 256 Z M 170.667969 256 "/>
<path style=" stroke:none;fill-rule:nonzero;fill:rgb(100%,100%,100%);fill-opacity:1;" d="M 341.332031 256 C 353.117188 256 362.667969 265.550781 362.667969 277.332031 C 362.667969 289.117188 353.117188 298.667969 341.332031 298.667969 C 329.550781 298.667969 320 289.117188 320 277.332031 C 320 265.550781 329.550781 256 341.332031 256 Z M 341.332031 256 "/>
<use xlink:href="#surface20" mask="url(#mask5)"/>
</g>
</svg>
