<svg xmlns="http://www.w3.org/2000/svg" xml:space="preserve" viewBox="0 0 512 512"><path d="M-246.7 305.2H35.8c63.4 0 114.8 56.1 114.8 125.2V692c0 69.1-51.4 125.2-114.8 125.2h-282.5c-63.4 0-114.8-56.1-114.8-125.2V430.5c0-69.2 51.4-125.3 114.8-125.3" style="fill:#10b981" transform="translate(361.47 -305.25)"/><path d="M-176.6 702c0 26.2-21.3 47.5-47.5 47.5s-47.5-21.3-47.5-47.5 21.3-47.5 47.5-47.5 47.5 21.3 47.5 47.5M55.9 422.9c0 26.2-21.3 47.5-47.5 47.5s-47.5-21.3-47.5-47.5 21.3-47.5 47.5-47.5 47.5 21.3 47.5 47.5m-211.2-48.1c-16.6 0-32.1 3.1-46.5 9.4q-21.75 9.15-37.8 25.2t-25.5 37.8c-6.1 14.5-9.1 30-9.1 46.5s3 32.1 9.1 46.5q9.45 21.75 25.5 38.1 16.05 16.05 37.8 25.5c14.5 6.3 30 9.4 46.5 9.4H-56c6.5 0 12.1 1 16.8 3.1s7 6.5 7 13.3c0 6.5-2.3 12.1-7 16.8s-10.3 7-16.8 7h-101.3c10 13.7 16.1 30.3 16.1 48.4 0 17.3-5.5 33.4-14.7 46.8H-56c16.3 0 31.7-3 46.2-9.1Q11.95 730.05 28 714q16.05-16.5 25.5-37.8c6.3-14.5 9.4-30 9.4-46.5 0-16.3-3.1-31.4-9.4-45.1-6.3-13.8-14.8-25.5-25.5-35.3-10.7-9.7-23.3-17.3-37.8-22.7q-21.75-8.4-46.2-8.4h-99.4c-6.5 0-12.1-2.3-16.8-7-4.7-4.9-7-10.7-7-17.5 0-6.5 2.3-12.1 7-16.8s10.3-7 16.8-7h95.6c-9.4-13.4-14.9-29.6-14.9-47 0-17.9 6-34.5 15.9-48.2h-96.5z" style="fill:#fff" transform="translate(361.47 -305.25)"/></svg>