<svg xmlns="http://www.w3.org/2000/svg" id="Layer_1" version="1.1" viewBox="22.4 0 979.2 1024">
  <!-- Generator: Adobe Illustrator 29.2.1, SVG Export Plug-In . SVG Version: 2.1.0 Build 116)  -->
  <defs>
    <style>
      .st0 {
        fill: #01a71c;
      }
    </style>
  </defs>
  <path class="st0" d="M668.42,647.83c-39.02-1.19-72.43,27.76-76.8,66.56-.33,1.29.44,2.6,1.73,2.94.22.06.45.08.68.08h149.08c1.33.01,2.42-1.06,2.43-2.39,0-.11,0-.21-.02-.32-3.05-39.64-37.43-69.45-77.1-66.86Z"/>
  <path class="st0" d="M987.97,147.88l-316.24,355.09c-3.61,3.91-9.71,4.15-13.62.54-.19-.17-.36-.35-.54-.54l-161.43-166.55c-2.82-3.52-2.82-8.53,0-12.05l53.31-68.37c3.1-4.32,9.12-5.32,13.45-2.21.85.61,1.6,1.36,2.21,2.21l90.35,99.99c3.42,4.08,9.5,4.6,13.58,1.18.43-.36.82-.75,1.18-1.18L922.01,10.84c2.17-3.15,1.36-7.47-1.79-9.63-1.07-.74-2.33-1.16-3.63-1.21H29.93c-4.16,0-7.53,3.37-7.53,7.53v1008.94c0,4.16,3.37,7.53,7.53,7.53h963.76c4.16,0,7.53-3.37,7.53-7.53V152.4c1.25-3.66-.71-7.64-4.37-8.88-3.66-1.25-7.64.71-8.88,4.37ZM295.27,911.66c-63.27,3.19-125.29-18.42-172.88-60.24-3.11-3.53-3.11-8.82,0-12.35l37.65-52.71c2.57-4.47,8.28-6,12.75-3.43.07.04.13.08.2.12,34.39,31.88,79.6,49.54,126.49,49.39,49.39,0,73.49-22.89,73.49-46.98,0-74.69-243.35-23.49-243.35-182.51,0-70.17,60.24-128.6,160.23-128.6,57.38-2.04,113.56,16.79,158.12,53.01,3.48,3.62,3.48,9.34,0,12.95l-37.04,51.5c-3.09,4.13-8.94,4.98-13.07,1.89-.17-.12-.33-.25-.49-.39-32.86-26.11-73.68-40.15-115.65-39.76-38.55,0-60.24,17.17-60.24,42.47,0,67.16,242.75,22.29,242.75,180.71,0,76.5-55.12,134.93-169.26,134.93h.3ZM825.94,764.99c.17,4.49-3.33,8.26-7.82,8.43-.2,0-.41,0-.61,0h-222.87c-1.49.16-2.57,1.49-2.41,2.98,0,.01,0,.02,0,.03,7.49,43.17,46.69,73.48,90.35,69.87,27.64-.59,54.49-9.39,77.1-25.3,3.44-2.89,8.57-2.43,11.46,1.01.21.25.41.52.59.8l27.11,39.45c2.34,3.63,1.56,8.44-1.81,11.14-35.78,26.11-79.2,39.67-123.48,38.55-87.69,4.89-162.74-62.23-167.63-149.92-.28-5.04-.32-10.09-.12-15.13-2.51-88.29,67.03-161.89,155.32-164.4,2.44-.07,4.88-.08,7.32-.04,93.67,0,157.21,70.17,157.21,172.88l.3,9.64Z"/>
</svg>