<svg xmlns="http://www.w3.org/2000/svg" viewBox="0 4.57 64 54.86"><path d="M64 34.286a17.03 17.03 0 0 1-4.406 11.428 14.86 14.86 0 0 1-10.558 4.572h-2.179v-6.857h2.179a8 8 0 0 0 5.468-2.31 10.18 10.18 0 0 0 2.639-6.833 11.44 11.44 0 0 0-11.429-11.429c-.377 0-2.312.242-3.49.394a1.136 1.136 0 0 1-1.221-.764l-.466-1.357a14.1 14.1 0 0 0-11.716-9.632 13.666 13.666 0 0 0-14.73 16.779l.489 2.087a1.143 1.143 0 0 1-.783 1.355l-2.054.62a6.79 6.79 0 0 0-4.886 6.518 4.6 4.6 0 0 0 .947 2.808 5.54 5.54 0 0 0 4.089 1.764h5.25v6.857h-5.25a12.24 12.24 0 0 1-9.68-4.652A11.5 11.5 0 0 1 0 38.857a13.57 13.57 0 0 1 6.944-11.884 20 20 0 0 1-.087-1.83A20.563 20.563 0 0 1 45.844 16 18.307 18.307 0 0 1 64 34.286m-31.077-2.163a1.143 1.143 0 0 0-1.846 0l-8.592 11.775a1.143 1.143 0 0 0 .923 1.816h5.163v12.572a1.143 1.143 0 0 0 1.143 1.143h4.572a1.143 1.143 0 0 0 1.143-1.143V45.714h5.163a1.143 1.143 0 0 0 .923-1.816z" style="stroke-width:2.28572;fill:#45a1ff;fill-opacity:1"/></svg>