<svg xmlns="http://www.w3.org/2000/svg" xml:space="preserve" viewBox="95.08 6.26 14.95 13.36"><path fill-rule="evenodd" clip-rule="evenodd" fill="#62d84e" d="M102.59 6.26c-4.09-.02-7.48 3.33-7.51 7.43a7.5 7.5 0 0 0 2.35 5.52c.53.5 1.35.55 1.93.1.85-.66 1.94-1.06 3.2-1.06 1.25 0 2.35.4 3.2 1.06.58.45 1.4.39 1.94-.11a7.48 7.48 0 0 0 2.33-5.44c-.02-4.13-3.34-7.48-7.44-7.5m-.05 11.24c-2.22 0-3.73-1.67-3.73-3.73 0-2.07 1.52-3.76 3.73-3.76 2.22 0 3.73 1.7 3.73 3.76.01 2.06-1.51 3.73-3.73 3.73"/></svg>