<svg xmlns="http://www.w3.org/2000/svg" xmlns:xlink="http://www.w3.org/1999/xlink" version="1.1" id="Layer_1" x="0px" y="0px" enable-background="new 0 0 132 20" xml:space="preserve" viewBox="0.5 0.5 131 19.12">
	<path fill-rule="evenodd" clip-rule="evenodd" fill="#000000" d="M32.02,6.39c-1.42,0-2.63,0.5-3.61,1.3V6.52h-3.29v12.83h3.43v-8.2   c0.47-0.66,1.66-1.59,3.11-1.59c0.52,0,0.99,0.04,1.37,0.21V6.48C32.7,6.42,32.36,6.39,32.02,6.39"/>
	<path fill-rule="evenodd" clip-rule="evenodd" fill="#000000" d="M2.16,15.44c0.87,0.79,2.21,1.27,3.5,1.27c0.92,0,1.63-0.45,1.63-1.08   c0-1.93-6.19-1.24-6.19-5.37c0-2.46,2.37-3.99,4.9-3.99c1.66,0,3.48,0.63,4.32,1.3l-1.61,2.49C8.06,9.56,7.19,9.17,6.27,9.17   c-0.95,0-1.74,0.37-1.74,1.03c0,1.67,6.19,1.01,6.19,5.45c0,2.46-2.4,3.97-5.08,3.97c-1.77,0-3.64-0.61-5.14-1.72L2.16,15.44z"/>
	<path fill-rule="evenodd" clip-rule="evenodd" fill="#000000" d="M23.66,12.82c0-3.57-2.5-6.56-6.03-6.56c-3.79,0-6.22,3.12-6.22,6.69   c0,4.02,2.87,6.66,6.69,6.66c1.98,0,4-0.82,5.24-2.3l-1.95-1.96c-0.61,0.66-1.77,1.48-3.21,1.48c-1.82,0-3.27-1.24-3.45-3.04h8.85   C23.63,13.51,23.66,13.16,23.66,12.82z M14.88,11.28c0.16-1.16,1.32-2.25,2.74-2.25c1.4,0,2.42,1.11,2.53,2.25H14.88z"/>
	<polygon fill-rule="evenodd" clip-rule="evenodd" fill="#000000" points="41.19,14.35 44.69,6.52 48.25,6.52 42.38,19.35 40,19.35   34.13,6.52 37.69,6.52"/>
	<path fill-rule="evenodd" clip-rule="evenodd" fill="#000000" d="M51.13,0.5c1.24,0,2.24,0.95,2.24,2.19c0,1.24-1,2.2-2.24,2.2   c-1.24,0-2.24-0.95-2.24-2.2C48.89,1.45,49.89,0.5,51.13,0.5"/>
	<rect x="49.42" y="6.52" fill-rule="evenodd" clip-rule="evenodd" fill="#000000" width="3.43" height="12.83"/>
	<path fill-rule="evenodd" clip-rule="evenodd" fill="#000000" d="M67,16.73c-1.5,2.01-3.4,2.88-5.8,2.88c-3.95,0-6.85-2.96-6.85-6.66   c0-3.73,2.98-6.69,6.88-6.69c2.21,0,4.19,1.03,5.37,2.57l-2.42,2.14c-0.68-0.9-1.71-1.53-2.95-1.53c-1.98,0-3.45,1.56-3.45,3.52   c0,2.01,1.45,3.49,3.53,3.49c1.4,0,2.5-0.85,3.06-1.69L67,16.73z"/>
	<path fill-rule="evenodd" clip-rule="evenodd" fill="#000000" d="M79.44,17.31c-1.24,1.48-3.27,2.3-5.24,2.3c-3.82,0-6.69-2.64-6.69-6.66   c0-3.57,2.42-6.69,6.22-6.69c3.53,0,6.03,2.99,6.03,6.56c0,0.34-0.03,0.69-0.08,0.98h-8.85c0.18,1.8,1.63,3.04,3.45,3.04   c1.45,0,2.61-0.82,3.21-1.48L79.44,17.31z M76.25,11.28c-0.11-1.14-1.13-2.25-2.53-2.25c-1.42,0-2.58,1.08-2.74,2.25H76.25z"/>
	<path fill-rule="evenodd" clip-rule="evenodd" fill="#000000" d="M81.12,19.35V6.52h3.29v1.03c0.97-0.79,2.19-1.3,3.61-1.3   c1.77,0,3.37,0.79,4.43,2.06c0.84,1,1.32,2.3,1.32,4.5v6.53h-3.42v-6.8c0-1.27-0.29-1.93-0.76-2.41   c-0.45-0.45-1.13-0.71-1.92-0.71c-1.45,0-2.63,0.93-3.11,1.59v8.33H81.12z"/>
	<path fill-rule="evenodd" clip-rule="evenodd" fill="#62D84E" d="M102.59,6.26c-4.09-0.02-7.48,3.33-7.51,7.43   c-0.02,2.17,0.89,4.14,2.35,5.52c0.53,0.5,1.35,0.55,1.93,0.1c0.85-0.66,1.94-1.06,3.2-1.06c1.25,0,2.35,0.4,3.2,1.06   c0.58,0.45,1.4,0.39,1.94-0.11c1.44-1.37,2.33-3.3,2.33-5.44C110.01,9.63,106.69,6.28,102.59,6.26 M102.54,17.5   c-2.22,0-3.73-1.67-3.73-3.73c0-2.07,1.52-3.76,3.73-3.76c2.22,0,3.73,1.7,3.73,3.76C106.28,15.83,104.76,17.5,102.54,17.5"/>
	<polygon fill-rule="evenodd" clip-rule="evenodd" fill="#000000" points="116.79,19.35 114.24,19.35 109.15,6.52 112.57,6.52 115.36,13.85   118.09,6.52 120.95,6.52 123.66,13.85 126.48,6.52 129.9,6.52 124.81,19.35 122.26,19.35 119.52,12.05"/>
	<path fill="#000000" d="M129.94,17.9h-0.29v0.54h-0.24v-1.49h0.6c0.27,0,0.48,0.21,0.48,0.48c0,0.19-0.12,0.36-0.3,0.43l0.34,0.58h-0.27   L129.94,17.9z M129.65,17.68H130c0.13,0,0.23-0.11,0.23-0.25c0-0.14-0.1-0.25-0.23-0.25h-0.35V17.68z"/>
	<path fill="#000000" d="M129.9,16.35c0.76,0,1.38,0.62,1.38,1.38c0,0.76-0.62,1.38-1.38,1.38s-1.38-0.62-1.38-1.38   C128.52,16.97,129.14,16.35,129.9,16.35 M129.9,16.13c-0.88,0-1.6,0.71-1.6,1.6s0.71,1.6,1.6,1.6c0.88,0,1.6-0.71,1.6-1.6   S130.79,16.13,129.9,16.13L129.9,16.13z"/>
</svg>