<svg xmlns="http://www.w3.org/2000/svg" xml:space="preserve" id="Layer_1" x="0" y="0" version="1.1" viewBox="0 0 512 512"><style>.st0{fill:#fff}.st1{fill:#d66b1d}</style><g id="a83994c9-5a8e-43c2-9b75-ad1ec357cca0"><circle cx="256" cy="256" r="252.1" class="st0"/><path d="M256 7.8c137.1 0 248.2 111.1 248.2 248.2 0 65.8-26.2 129-72.7 175.5-96.9 96.9-254.1 96.9-351.1 0s-96.9-254.1 0-351.1C126.9 33.8 190.1 7.6 256 7.8m0-7.8C114.6 0 0 114.6 0 256s114.6 256 256 256 256-114.6 256-256S397.4 0 256 0" class="st1"/><circle cx="256" cy="256" r="222" style="fill:#24292e"/><path d="M190 220.4v76.2l66 38.1 66-38.1v-76.2l-66-38.1z" class="st1"/><path d="M354 112.3v34.6l30 17.3 30-17.3v-34.6L384 95zm-258 0v34.6l30 17.3 30-17.3v-34.6L126 95zm0 251.6v34.6l30 17.4 30-17.4v-34.6l-30-17.3zm258 0v34.6l30 17.4 30-17.4v-34.6l-30-17.3z" class="st0"/><path d="m411.7 156-27.5 15.9-24.6-14.2-46.9 46.9-7.6-4.4 46.9-46.9-4-2.3v-41.7l11.7-6.7c-62.5-42.7-144.8-42.7-207.3 0l11.7 6.7V151l-4.4 2.5 46.9 46.9-7.6 4.4-46.9-46.8-24.2 14-27.6-16c-38.8 60.5-38.8 138.1 0 198.7l27.5-15.9 24.6 14.2 43.1-43.1 7.6 4.4-43.1 43 4 2.3v41.7l-11.7 6.7c62.5 42.7 144.8 42.7 207.3 0l-11.7-6.7v-41.7l3.6-2.1-43.1-43.1 7.6-4.4 43.1 43.1 24.9-14.4 27.5 15.9c38.9-60.4 38.9-138 .2-198.6M255 261.7l-6-6 6-6 6 6z" style="fill:none"/><path d="M441 255.4c0 35.4-10.1 70.1-29.2 99.9l5.2 3c40.1-62.7 40.1-143 0-205.7l-5.2 3c19.1 29.7 29.2 64.4 29.2 99.8M255.3 69.6c37.2 0 73.5 11.2 104.2 32.2l5.8-3.3c-66-46.5-154-46.5-219.9 0l5.8 3.3c30.6-21 66.9-32.2 104.1-32.2M69.6 255.4c0-35.4 10.1-70.1 29.2-99.9l-5.2-3c-40.1 62.7-40.1 143 0 205.7l5.2-3c-19.1-29.8-29.3-64.4-29.2-99.8m185.7 185.7c-37.2 0-73.5-11.2-104.2-32.2l-5.8 3.3c66 46.5 154 46.5 219.9 0l-5.8-3.3c-30.6 21-66.9 32.2-104.1 32.2m-49.8-240.9-47.1-47.1-7.6 4.4 47.1 47.1zm102.6 114.5 43.3 43.4 7.6-4.4-43.3-43.3zm-113.6-4.6-43.3 43.4 7.6 4.4 43.3-43.4zm117.8-105.7 47.1-47.2-7.6-4.4-47.1 47.2zm-63.288 51.212 6.01-6.01 6.01 6.01-6.01 6.01z" class="st1"/></g></svg>