<svg xmlns="http://www.w3.org/2000/svg" width="463" height="512"><path d="M100.621 2.719C60.258 13.019 25.68 42.703 10.47 80.113c-11.301 27.801-12.094 65.934-1.985 95.711 7.766 22.875 24.301 46.77 42.485 61.387 10.402 8.363 40.648 26.277 89.515 53.008l24.387 13.34-39.16.578c-37.813.558-39.55.707-50.441 4.312-26.926 8.903-51.29 29.113-62.461 51.809C3.785 378.594.902 392.313 1.766 412.793c.828 19.469 4.347 32.445 13.062 48.102 10.438 18.753 34.473 38.335 57.277 46.668l10.223 3.734 135.035.379c153.657.433 144.457 1.062 170.98-11.711 29.466-14.188 51.06-35.79 63.762-63.793 14.184-31.27 14.81-72.078 1.614-105.621-5.203-13.215-12.203-25.246-21.489-36.906-14.98-18.817-27.484-27.27-98.484-66.579l-32.86-18.187 38.489-.809c36.73-.77 38.996-.976 49.742-4.535 31.059-10.285 57.363-34.805 67.711-63.117 6.914-18.922 8.227-43.176 3.379-62.48-7.703-30.645-29.766-56.653-59.64-70.286C383.323-.218 387.694-.008 243.52.105 120.59.2 109.723.398 100.62 2.72m17.59-.422C68.859 5.992 25.824 40.844 8.66 91.02c-4.641 13.574-6.278 27.468-5.43 46.125 1.59 34.988 16.078 66.44 42.628 92.558 11.762 11.57 17.618 15.547 44.91 30.516 33.528 18.383 35.536 19.5 56.293 31.289 18.91 10.738 23.125 13.445 21.743 13.957-.348.129-19.633.676-42.852 1.207-43.48 1.004-44.316 1.11-61.219 7.793-21.73 8.594-43.574 30.668-54.27 54.836-8.456 19.11-9.94 50.363-3.3 69.554 10.898 31.524 35.934 57.196 64.61 66.266 15.917 5.035 35.343 5.652 161.976 5.129l121.594-.504 12.66-3.758c36.465-10.828 63.96-34.14 81.187-68.847 9.645-19.426 13.133-37.602 11.957-62.286-1.82-38.293-18.804-72.183-49.722-99.226-8.688-7.594-15.988-12.074-50.453-30.934-13.16-7.199-32.672-18.047-43.364-24.101-10.691-6.055-20.03-11.012-20.757-11.012-2.668 0-1.22-2.531 1.894-3.316 1.77-.442 18.395-.828 36.942-.86 39.187-.062 46.703-.984 63.984-7.855 19.805-7.88 41.195-28.215 51.797-49.254 7.418-14.719 9.402-24.195 9.402-44.914-.004-20.66-1.957-29.903-9.52-45.008-11.992-23.969-34.937-43.719-60.828-52.367l-11.257-3.762-127.36-.21c-70.047-.118-130.21 0-133.695.26m3.52 29.552C98.59 36.57 84.3 42.715 70.022 54.074c-22.359 17.797-36.25 46.48-36.25 74.86 0 42.14 20.164 75.41 59.301 97.851 15.063 8.64 44.582 24.992 66.653 36.926 5.418 2.93 19.761 10.937 31.875 17.797 12.113 6.86 22.718 12.469 23.57 12.469 1.894 0 1.672 6.367 1.992-56.262.149-29.012.82-53.88 1.492-55.262 3.153-6.476 4.953-6.629 79.067-6.629 76.96 0 79.164-.203 95.328-8.785 11.672-6.2 19.883-13.976 26.472-25.062 7.88-13.254 11.11-24.364 11.11-38.215 0-35.278-25.54-65.285-60.63-71.242-8.796-1.497-241.167-2.125-248.273-.672m-8.37 4.234c-20.41 4.371-40.094 15.535-53.5 30.344-9.465 10.453-15.032 20.05-20.008 34.488-3.258 9.465-3.77 13.242-3.848 28.492-.106 21.098 1.976 30.102 11.375 49.227 9.277 18.875 24.266 33.672 46.91 46.312 8.902 4.97 30.434 17.063 47.848 26.875 44.558 25.106 70.89 39.125 72.125 38.395.578-.34 1.054-24.496 1.054-53.68 0-58.11-.156-56.969 8.457-61.422 3.45-1.781 14.735-2.101 74.207-2.101 77.336 0 78.844-.14 95.207-8.836 32.618-17.332 45.364-58.012 28.82-91.969-4.484-9.195-19.718-24.156-30.206-29.66-17-8.918-14.246-8.758-147.637-8.652-101.61.078-122.594.43-130.805 2.187m133.903 185.809c-.422 2.125-.766 26.46-.758 54.074.008 27.617-.406 51.52-.91 53.117-2.203 6.934-3.977 7.094-78.906 7.094-77.942 0-79.477.152-96.317 9.512-35.7 19.835-47.637 66.957-25.59 101.046 10.203 15.778 25.63 26.664 44.703 31.54 10.422 2.663 15.926 2.78 129.454 2.78 97.23 0 120.468-.363 129.132-2.019 65.098-12.45 99.782-77.512 74.14-139.07-7.28-17.48-18.444-31.945-33.796-43.79-7.156-5.519-36.289-22.304-73.883-42.562-8.515-4.59-26.336-14.472-39.597-21.968-13.266-7.493-24.747-13.622-25.508-13.622-.766 0-1.738 1.739-2.164 3.868m1.828 52.785c0 58.976.168 57.754-8.457 62.21-3.45 1.782-14.735 2.102-74.207 2.102-77.184 0-78.895.16-94.953 8.715-21.946 11.692-33.961 30.695-35.836 56.692-1.95 27.058 12.12 51.761 37.039 65.027 17.16 9.137 14.18 8.969 151.523 8.457 138.059-.52 129.887.039 150.516-10.29 27.633-13.835 44.441-34.566 51.89-64.003 6.262-24.75.84-55.55-13.812-78.441-10.602-16.563-25.063-28.88-49.008-41.743-6.965-3.742-22.797-12.609-35.183-19.703-23.457-13.441-77.547-42.863-78.793-42.863-.395 0-.72 24.226-.72 53.84" style="stroke:none;fill-rule:evenodd;fill:#20ae6b;fill-opacity:1"/><path d="M118.21 2.297C68.86 5.992 25.825 40.844 8.66 91.02c-4.64 13.574-6.277 27.468-5.43 46.125 1.59 34.988 16.079 66.44 42.63 92.558 11.761 11.57 17.617 15.547 44.91 30.516 33.527 18.383 35.535 19.5 56.293 31.289 18.91 10.738 23.125 13.445 21.742 13.957-.348.129-19.633.676-42.852 1.207-43.48 1.004-44.316 1.11-61.219 7.793-21.73 8.594-43.574 30.668-54.27 54.836-8.456 19.11-9.94 50.363-3.3 69.554 10.898 31.524 35.934 57.196 64.61 66.266 15.917 5.035 35.343 5.652 161.976 5.129l121.594-.504 12.66-3.758c36.465-10.828 63.96-34.14 81.187-68.847 9.645-19.426 13.133-37.602 11.957-62.286-1.82-38.293-18.804-72.183-49.722-99.226-8.688-7.594-15.988-12.074-50.453-30.934-13.16-7.199-32.672-18.047-43.364-24.101-10.691-6.055-20.03-11.012-20.757-11.012-2.668 0-1.22-2.531 1.894-3.316 1.77-.442 18.395-.828 36.942-.86 39.187-.062 46.703-.984 63.984-7.855 19.805-7.88 41.195-28.215 51.797-49.254 7.418-14.719 9.402-24.195 9.402-44.914-.004-20.66-1.957-29.903-9.52-45.008-11.992-23.969-34.937-43.719-60.828-52.367l-11.257-3.762-127.36-.21c-70.047-.118-130.21 0-133.695.26m3.52 29.552C98.59 36.57 84.3 42.715 70.022 54.074c-22.359 17.797-36.25 46.48-36.25 74.86 0 42.14 20.164 75.41 59.301 97.851 15.063 8.64 44.582 24.992 66.653 36.926 5.418 2.93 19.761 10.937 31.875 17.797 12.113 6.86 22.718 12.469 23.57 12.469 1.894 0 1.672 6.367 1.992-56.262.149-29.012.82-53.88 1.492-55.262 3.153-6.476 4.953-6.629 79.067-6.629 76.96 0 79.164-.203 95.328-8.785 11.672-6.2 19.883-13.976 26.472-25.062 7.88-13.254 11.11-24.364 11.11-38.215 0-35.278-25.54-65.285-60.63-71.242-8.796-1.497-241.167-2.125-248.273-.672M247.262 221.89c-.422 2.125-.766 26.46-.758 54.074.008 27.617-.406 51.52-.91 53.117-2.203 6.934-3.977 7.094-78.906 7.094-77.942 0-79.477.152-96.317 9.512-35.7 19.835-47.637 66.957-25.59 101.046 10.203 15.778 25.63 26.664 44.703 31.54 10.422 2.663 15.926 2.78 129.454 2.78 97.23 0 120.468-.363 129.132-2.019 65.098-12.45 99.782-77.512 74.14-139.07-7.28-17.48-18.444-31.945-33.796-43.79-7.156-5.519-36.289-22.304-73.883-42.562-8.515-4.59-26.336-14.472-39.597-21.968-13.266-7.493-24.747-13.622-25.508-13.622-.766 0-1.738 1.739-2.164 3.868" style="stroke:none;fill-rule:evenodd;fill:#06f583;fill-opacity:1"/></svg>