<svg xmlns="http://www.w3.org/2000/svg" fill="none" viewBox="0 0 29.57 32">
<path fill-rule="evenodd" clip-rule="evenodd" d="M15.097 1.76346C14.2324 1.90673 13.3746 2.0729 12.5136 2.26516C11.9465 2.39124 11.382 2.50761 10.8217 2.65347C10.3063 2.79247 9.77876 2.90802 9.27123 3.07976C8.78169 3.23642 8.3016 3.40313 7.82361 3.59491C6.88272 3.97304 6.01128 4.50503 5.24494 5.1691C4.76621 5.57352 4.33729 6.03345 3.96722 6.5392C3.7124 6.9023 3.48425 7.2834 3.28454 7.67949C3.07808 8.07235 2.96489 8.5075 2.95377 8.95117C2.94901 10.2358 3.72822 11.3107 4.63244 12.1107C4.93367 12.3676 5.24596 12.6098 5.56566 12.839C6.52988 13.5209 7.54668 14.1251 8.60649 14.6461C9.68693 15.1809 10.7858 15.6957 11.8879 16.1853C12.9356 16.6495 13.9987 17.0404 15.0791 17.4145C15.3919 17.5152 15.7048 17.6208 16.0144 17.7294C16.9968 18.0703 17.9907 18.3783 18.9582 18.7402C19.566 18.9703 20.2043 19.1802 20.8121 19.4651C21.4566 19.7373 22.0702 20.0774 22.6427 20.4796C23.018 20.7569 23.3328 21.1079 23.568 21.511C23.8048 21.9146 23.938 22.3706 23.9557 22.8383C23.9696 23.284 23.8512 23.7238 23.6155 24.1023C23.0077 25.0889 21.95 25.7578 20.9313 26.2094C19.4144 26.8751 17.8594 27.4504 16.2746 27.9323C15.3656 28.2099 14.4634 28.481 13.5513 28.7247C12.6376 28.9801 11.7059 29.2323 10.7858 29.4739C9.86525 29.7134 8.94365 29.9318 8.01987 30.1407C7.49446 30.261 6.95894 30.3749 6.43352 30.4857C6.1175 30.5575 5.80784 30.6229 5.49025 30.6957C4.8287 30.8403 4.17029 30.9912 3.50085 31.1378C2.74908 31.3087 1.99363 31.4793 1.23447 31.6495C1.02028 31.698 0.795546 31.7603 0.581354 31.813C0.384554 31.8584 -0.347171 32.0315 0.198339 31.9988C0.952752 31.9566 2.96852 31.7761 7.27497 31.1779C8.84025 30.9088 10.4076 30.6778 11.9665 30.414C13.9185 30.0837 15.852 29.6944 17.776 29.2196C18.3246 29.0867 18.867 28.9421 19.4182 28.788C19.7786 28.6815 20.1341 28.5738 20.4844 28.4578C21.9975 27.9746 24.4227 27.1199 24.9924 26.8583C27.1881 25.8612 28.5508 25.1094 29.2598 23.3278C29.5113 22.684 29.6099 21.9905 29.5479 21.302C29.4733 20.6711 29.2721 20.0618 28.9565 19.5105C28.6436 19.0016 28.2575 18.5415 27.8106 18.1452C27.0166 17.4017 26.1266 16.7679 25.1644 16.2607C24.8943 16.1117 24.6205 15.9732 24.3409 15.8421C23.9906 15.6754 23.6413 15.5213 23.2947 15.3649C22.7983 15.1528 22.2987 14.9664 21.7912 14.787C20.4744 14.3227 19.145 13.9068 17.8171 13.4573C17.0706 13.2003 16.332 12.9276 15.6114 12.6098C15.3017 12.4816 14.9989 12.3373 14.704 12.1859C14.3537 12.0092 14.0104 11.8176 13.6742 11.6111C13.2601 11.3505 12.5837 10.902 12.7705 10.2935C12.903 9.86249 13.3566 9.6953 13.7301 9.53885C14.0769 9.40058 14.4323 9.28516 14.7942 9.19333C15.8868 8.90604 17.0047 8.70611 18.1004 8.46371C18.4243 8.38851 18.7535 8.31807 19.078 8.24211C19.9487 8.07301 20.8053 7.83784 21.6403 7.53864C22.3462 7.2532 23.2499 6.78898 23.5089 5.98892C23.8872 4.82383 23.4646 3.56216 22.8458 2.57567C22.621 2.22431 22.3921 1.87636 22.1563 1.52846C21.8355 1.05917 21.4752 0.617096 21.1228 0.168405C21.0653 0.0918144 20.9835 0.0370902 20.8908 0.0132561C20.798 -0.010578 20.6999 -0.0020993 20.6127 0.0372942C20.3974 0.115409 19.8097 0.826833 15.097 1.76346Z" fill="#CC0000"/>




</svg>