<?xml version="1.0" encoding="utf-8"?>
<!-- Generator: Adobe Illustrator 21.0.0, SVG Export Plug-In . SVG Version: 6.00 Build 0)  -->
<svg version="1.1" id="Calque_1" xmlns="http://www.w3.org/2000/svg" xmlns:xlink="http://www.w3.org/1999/xlink" x="0px" y="0px"
	 viewBox="0 0 105.1 80" style="enable-background:new 0 0 105.1 80;" xml:space="preserve">
<style type="text/css">
	.st0{fill:#1792A0;}
	.st1{fill:none;}
	.st2{fill:#5DB1B5;}
</style>
<g id="lables">
</g>
<g>
	<circle class="st0" cx="41.7" cy="48" r="3"/>
	<circle class="st0" cx="65.5" cy="48.7" r="3"/>
	<g>
		<path class="st1" d="M68.7,40.2c-0.4-2.5-3.9-2.6-6.2-2.9c-2.3-0.3-2.8,3.7-3.7,9.1c-0.9,5.4,3.7,6.3,8.1,6.3
			c4.4,0,2.6-7.9,2.6-7.9S69.1,42.7,68.7,40.2z"/>
		<path class="st1" d="M42.9,37.3c-2.3,0.3-5.8,0.4-6.2,2.9c-0.4,2.5-0.8,4.6-0.8,4.6s-1.8,7.9,2.6,7.9c4.4,0,8.9-0.9,8.1-6.3
			C45.7,41,45.2,37.1,42.9,37.3z"/>
		<path class="st2" d="M57.7,6c1.1,1.1,1.9,2.4,2,4c0.1,1.3,0.7,2.5,1.7,3.4c0.7,0.6,1.4,1.3,2,2c1.1,1.2,1.7,2.6,2.3,4.1
			c0.4,1,0.6,2,1,3.1c0-0.1,0-0.2,0-0.2c0-2,0-3.9-0.1-5.9c-0.1-2.4-0.9-4.5-2.5-6.3c-1.7-2-3.8-3.6-6.2-4.8c-0.5-0.2-1-0.4-1.5-0.7
			C56.9,5.2,57.3,5.6,57.7,6z"/>
		<circle class="st0" cx="52.7" cy="56.9" r="3.5"/>
		<path class="st0" d="M68,25.5C68,25.5,68,25.5,68,25.5c0,0,0-0.1,0-0.1c-0.3,0-0.5-0.1-0.8-0.2c-1-0.4-1.6-1.1-2.1-2
			c-0.1-0.2-0.2-0.4-0.3-0.6c-0.2-0.4-0.3-0.8-0.5-1.2c-0.2-0.4-0.3-0.8-0.5-1.2c-0.6-1.6-1.6-3-2.8-4.2c-1.8-1.6-3.8-3.1-5.9-4.3
			c-0.3-0.2-0.6-0.3-0.9-0.5c-0.4-0.2-0.9-0.4-1.4-0.5c0,0,0,0,0,0c0,0,0,0,0,0c-0.3,0-0.5-0.1-0.8-0.1c-1.2,0-2.3,0.5-3.1,1.2l0,0
			l0,0c-0.3,0.2-0.2,0.2-0.7,0.8l-7.9,9.2c2.6,2.4,10.9,8.7,26,9.6C66.8,29.4,67.1,27.3,68,25.5z"/>
		<path class="st0" d="M78.9,13.8c-2,1.4-3.9,3-5.4,4.9c-1.4,1.7-2.5,3.6-3.4,5.7c-0.8,1.9-1.3,3.9-1.6,5.9c0,0,0,0.1,0,0.1
			c-0.1,1.1-0.2,2.2-0.2,3.3c0,0.3,0,0.6,0,0.9c-1,0.1-1.9,0.1-2.9,0.2c-0.4,0-0.8,0-1.2,0c-10.1,0-19.3-3.3-26.9-8.8
			c-0.6-0.4-1.2-0.9-1.7-1.3c0-0.1-0.1-0.2-0.1-0.3c-2-4.8-5.6-8.9-10.2-11.5c-0.2-0.1-0.3-0.2-0.5-0.3c8.8,13.1,8.8,25.1,8.8,25.1
			l0,0c0,0,0,0,0,0c-1.3,2.1-2.9,3.9-4.7,5.5c0.2,2.5,0.8,4.9,1.8,7.1c1.7,4.1,4.5,7.5,8,10.1c2.1-1.5,4.4-2.7,6.9-3.5
			c0.4-3.6,3.5-6.4,7.2-6.4s6.8,2.8,7.2,6.4c2.5,0.8,4.8,2,6.9,3.5c2.9-2.1,5.4-4.9,7.1-8.2c0.3-0.6,0.6-1.2,0.9-1.9
			c0.9-2.1,1.5-4.4,1.8-6.8C74.7,42,73,40.1,71.7,38c0,0,0,0,0,0c0-0.7,0.3-12.5,9-25.3C80.1,13,79.5,13.4,78.9,13.8z M38.5,52.7
			c-4.4,0-2.6-7.9-2.6-7.9s0.4-2.1,0.8-4.6c0.4-2.5,3.9-2.6,6.2-2.9c2.3-0.3,2.8,3.7,3.7,9.1C47.5,51.9,42.9,52.8,38.5,52.7z
			 M66.9,52.7c-4.4,0-8.9-0.9-8.1-6.3c0.9-5.4,1.4-9.4,3.7-9.1c2.3,0.3,5.8,0.4,6.2,2.9c0.4,2.5,0.8,4.6,0.8,4.6
			S71.3,52.7,66.9,52.7z"/>
		<path class="st2" d="M24.7,12.7C24.7,12.7,24.7,12.7,24.7,12.7c-0.2,1.4-0.3,2.8-0.3,4.3c0,6.2,2,12,5.4,16.7
			c1.1,1.5,2.3,2.9,3.7,4.1l0,0C33.5,37.8,34.3,25.7,24.7,12.7z"/>
		<path class="st2" d="M80.8,13.4c0-0.3-0.1-0.5-0.1-0.8c0,0,0,0,0,0c-9.8,12.7-9,24.6-9,25.3c1.4-1.3,2.7-2.8,3.9-4.3
			c0.1-0.1,0.2-0.3,0.3-0.4c1.1-1.5,2-3.1,2.7-4.8C80,25.3,80.9,21.7,81,18c0-0.3,0-0.7,0-1C81,15.8,81,14.6,80.8,13.4z"/>
		<path class="st2" d="M64.9,33.3c0.2,0,1.2,0,1.4,0c0.1-0.6,0.1-1.2,0.2-1.8c-15.5-1.6-23.4-7.2-26-9.6l-2.3,2.7
			C45.7,30.1,54.9,33.3,64.9,33.3z"/>
	</g>
	<g>
		<path class="st0" d="M22.6,72.2c0.2,0.3,0.3,0.6,0.3,1c0,0.3-0.1,0.6-0.2,0.8c-0.1,0.3-0.3,0.5-0.6,0.7c-0.2,0.2-0.5,0.3-0.8,0.4
			c-0.3,0.1-0.6,0.1-0.9,0.1c-0.3,0-0.6,0-0.9-0.1c-0.3-0.1-0.6-0.2-0.8-0.4c-0.3-0.2-0.6-0.5-0.7-0.9l1-0.6c0,0.1,0,0.2,0.1,0.3
			c0.1,0.1,0.1,0.2,0.2,0.2c0.1,0.1,0.3,0.2,0.5,0.2C20,74,20.2,74,20.4,74c0.2,0,0.4,0,0.6-0.1c0.2-0.1,0.3-0.1,0.5-0.2
			c0.2-0.2,0.3-0.4,0.3-0.5c0-0.1,0-0.2-0.1-0.4c-0.1-0.1-0.2-0.2-0.4-0.3c-0.1-0.1-0.5-0.2-1-0.2c-0.6-0.1-1-0.2-1.3-0.3
			c-0.4-0.2-0.7-0.4-0.9-0.7c-0.2-0.3-0.3-0.6-0.3-1c0-0.3,0.1-0.6,0.2-0.8c0.1-0.3,0.3-0.5,0.6-0.7c0.2-0.2,0.5-0.3,0.8-0.4
			c0.3-0.1,0.6-0.1,0.9-0.1c0.3,0,0.6,0,0.9,0.1c0.3,0.1,0.6,0.2,0.8,0.4c0.3,0.2,0.6,0.5,0.7,0.9l-1,0.6c0-0.2-0.1-0.4-0.3-0.5
			c-0.1-0.1-0.3-0.2-0.5-0.2c-0.2-0.1-0.4-0.1-0.6-0.1c-0.2,0-0.4,0-0.6,0.1c-0.2,0.1-0.3,0.1-0.5,0.2C19.1,69.8,19,70,19,70.2
			c0,0.1,0,0.3,0.1,0.4c0.1,0.1,0.2,0.2,0.4,0.3c0.1,0,0.2,0.1,0.4,0.1c0.2,0,0.3,0.1,0.5,0.1c0.6,0.1,1.1,0.2,1.4,0.3
			C22.1,71.6,22.4,71.9,22.6,72.2z"/>
		<path class="st0" d="M29.5,72.3h-2.9v2.8h-1.2v-6.8h1.2v2.8h2.9v-2.8h1.2l0,6.8h-1.2V72.3z"/>
		<path class="st0" d="M34.8,74.2l-0.4,0.9h-1.3l3.2-6.8l3,6.8H38l-0.4-0.9H34.8z M36.2,71.1L35.3,73H37L36.2,71.1z"/>
		<path class="st0" d="M45.1,75.1l-2.3-3v3h-1.2l0-6.8h2.5c0.3,0,0.6,0.1,0.9,0.2c0.3,0.1,0.6,0.3,0.8,0.5c0.2,0.2,0.4,0.4,0.5,0.7
			c0.1,0.3,0.2,0.5,0.2,0.8c0,0.4-0.1,0.8-0.4,1.2c-0.2,0.3-0.5,0.5-0.9,0.6c-0.1,0-0.3,0.1-0.4,0.1c-0.2,0-0.3,0.1-0.4,0.1l2.1,2.8
			H45.1z M42.8,69.4v1.8h1c0.4,0,0.7-0.1,1-0.2c0.2-0.1,0.3-0.2,0.4-0.3c0.1-0.1,0.2-0.3,0.2-0.5c0-0.2-0.1-0.4-0.3-0.6
			c-0.2-0.2-0.5-0.3-0.9-0.3H42.8z"/>
		<path class="st0" d="M49,75.1v-6.8h4.3v1.2h-3.1v1.6h2.4v1.2h-2.4v1.7h3.1v1.2H49z"/>
		<path class="st2" d="M61.5,72l1.2-3.7h1.2l-2.3,7l-1.8-4.1L58,75.3l-2.4-7h1.2l1.2,3.7l1.7-3.8L61.5,72z"/>
		<path class="st2" d="M69.1,75.2c-0.6,0-1.2-0.2-1.7-0.5c-0.5-0.3-0.9-0.7-1.3-1.3c-0.3-0.5-0.5-1.1-0.5-1.7c0-0.6,0.2-1.2,0.5-1.7
			s0.7-1,1.3-1.3c0.5-0.3,1.1-0.5,1.7-0.5c0.6,0,1.2,0.2,1.7,0.5c0.5,0.3,0.9,0.7,1.3,1.3c0.3,0.5,0.5,1.1,0.5,1.7
			c0,0.6-0.2,1.2-0.5,1.7c-0.3,0.5-0.7,1-1.3,1.3C70.2,75,69.7,75.2,69.1,75.2z M69.1,69.4c-0.4,0-0.8,0.1-1.1,0.3
			c-0.3,0.2-0.6,0.5-0.8,0.8c-0.2,0.4-0.3,0.7-0.3,1.2c0,0.4,0.1,0.8,0.3,1.2s0.5,0.6,0.8,0.8c0.3,0.2,0.7,0.3,1.1,0.3
			s0.8-0.1,1.1-0.3c0.3-0.2,0.6-0.5,0.8-0.8c0.2-0.4,0.3-0.7,0.3-1.2c0-0.4-0.1-0.8-0.3-1.2c-0.2-0.4-0.5-0.6-0.8-0.8
			C69.8,69.5,69.5,69.4,69.1,69.4z"/>
		<path class="st2" d="M78.1,75.2c-0.6,0-1.2-0.2-1.7-0.5c-0.5-0.3-0.9-0.7-1.3-1.3c-0.3-0.5-0.5-1.1-0.5-1.7c0-0.6,0.2-1.2,0.5-1.7
			s0.7-1,1.3-1.3c0.5-0.3,1.1-0.5,1.7-0.5c0.6,0,1.2,0.2,1.7,0.5c0.5,0.3,0.9,0.7,1.3,1.3c0.3,0.5,0.5,1.1,0.5,1.7
			c0,0.6-0.2,1.2-0.5,1.7c-0.3,0.5-0.7,1-1.3,1.3C79.3,75,78.7,75.2,78.1,75.2z M78.1,69.4c-0.4,0-0.8,0.1-1.1,0.3
			c-0.3,0.2-0.6,0.5-0.8,0.8c-0.2,0.4-0.3,0.7-0.3,1.2c0,0.4,0.1,0.8,0.3,1.2c0.2,0.4,0.5,0.6,0.8,0.8c0.3,0.2,0.7,0.3,1.1,0.3
			s0.8-0.1,1.1-0.3c0.3-0.2,0.6-0.5,0.8-0.8c0.2-0.4,0.3-0.7,0.3-1.2c0-0.4-0.1-0.8-0.3-1.2c-0.2-0.4-0.5-0.6-0.8-0.8
			C78.9,69.5,78.5,69.4,78.1,69.4z"/>
		<path class="st2" d="M86.1,75.1h-2.1v-6.8h2.1c0.5,0,0.9,0.1,1.3,0.3c0.4,0.2,0.8,0.4,1.1,0.8c0.3,0.3,0.5,0.7,0.6,1.1
			c0.1,0.4,0.2,0.8,0.2,1.3c0,0.4-0.1,0.9-0.2,1.3c-0.1,0.4-0.4,0.8-0.6,1.1c-0.3,0.3-0.7,0.6-1.1,0.8C87,75,86.6,75.1,86.1,75.1z
			 M85.1,73.9h1c0.3,0,0.6-0.1,0.9-0.2c0.3-0.1,0.5-0.3,0.7-0.5c0.2-0.2,0.3-0.4,0.4-0.7c0.1-0.3,0.2-0.6,0.2-0.9
			c0-0.3-0.1-0.6-0.2-0.9c-0.1-0.3-0.2-0.5-0.4-0.7c-0.4-0.4-0.9-0.7-1.6-0.7h-1V73.9z"/>
	</g>
	<polygon class="st2" points="67.8,74.1 69.1,70.5 70.2,74.1 	"/>
	<polygon class="st2" points="69.3,74 70.2,71.4 71,74 	"/>
</g>
</svg>
