<svg xmlns="http://www.w3.org/2000/svg" xml:space="preserve" id="Layer_1" x="0" y="0" version="1.1" viewBox="0 0 512 512"><style>.st0{fill-rule:evenodd;clip-rule:evenodd;fill:#279ceb}</style><path d="M105.5.3c-2.3.1-4.2.4-4.2.7s-1.3.5-2.8.5-2.8.2-2.8.5-.9.5-2 .5-2 .2-2 .5-.9.5-2 .5c-1.2 0-2 .2-2 .6 0 .3-.6.5-1.6.3s-1.7 0-1.8.5c-.1.4-.8.7-1.5.7s-1.4.3-1.5.6c-.2.3-.9.5-1.6.3-.8-.2-1.2 0-1.2.5 0 .4-.5.7-1.3.7-.7 0-1.3.2-1.3.5s-.6.5-1.3.5-1.3.2-1.3.5-.6.5-1.3.5-1.3.2-1.3.5-.5.5-1 .5c-.6 0-1 .2-1 .5s-.5.5-1 .5c-.6 0-1 .2-1 .5s-.5.5-1 .5c-.6 0-1 .2-1 .5 0 .4-.3.4-1 0-.8-.4-1-.3-.9.4 0 .5-.3.9-.8.8-.5 0-.9.2-.9.5 0 .6-3.4 2.4-4.4 2.4-.3 0-.8.5-1.2 1-.4.6-1.1 1-1.5 1s-1.1.5-1.5 1c-.4.6-1.1 1-1.5 1s-1.1.5-1.5 1c-.4.6-1.1 1-1.4 1-.4 0-1.6.9-2.7 2s-2.2 2-2.5 2-.6.3-.6.6-.4.4-.8.3c-.4-.2-.7-.1-.5.2.4.6-11.4 12.4-12 12-.3-.2-.3.1-.2.5.2.4 0 .8-.3.8s-.6.3-.6.6-.7 1.2-1.5 2-1.5 1.7-1.5 2-.2.5-.5.3-.5.1-.5.6-.5 1.3-1 1.7-1 1.1-1 1.5-.5 1.1-1 1.5c-.6.4-1 1.1-1 1.5s-.5 1.1-1 1.5c-.6.4-1 1.1-1 1.5s-.5 1.1-1.1 1.7c-.6.5-.9 1.2-.7 1.5s0 .7-.5.9c-.4.2-.7.7-.7 1.1.1.5-.2.8-.8.8-.7-.1-.8.1-.4.5.8.8.7 1.6-.1 1.2-.5-.2-.6.1-.5 1 .1.7 0 1.2-.3 1.2s-.6.5-.6 1c0 .6-.2 1-.5 1s-.5.5-.5 1-.2 1-.5 1-.5.6-.5 1.3-.2 1.3-.5 1.3-.5.6-.5 1.3-.2 1.3-.5 1.3-.5.6-.5 1.3-.3 1.3-.7 1.3c-.5 0-.6.4-.5 1.3.1.7 0 1.3-.3 1.3s-.6.7-.6 1.5-.2 1.5-.5 1.5-.5.8-.5 1.8-.2 1.8-.5 1.8-.5.8-.5 1.8-.2 1.8-.5 1.8-.5 1-.5 2.3-.2 2.3-.5 2.3-.5 1.2-.5 2.8c0 1.8-.2 2.9-.6 3-.9.3-.9 308.8 0 309.1.4.1.6 1.2.6 3 0 1.5.2 2.8.5 2.8s.5 1 .5 2.3.2 2.3.5 2.3.5.8.5 1.8.2 1.8.5 1.8.5.8.5 1.8.2 1.8.5 1.8.5.7.5 1.5.2 1.5.5 1.5.5.6.5 1.3.2 1.3.5 1.3.5.6.5 1.3.2 1.3.5 1.3.5.6.5 1.3.2 1.3.5 1.3.5.6.5 1.3.2 1.3.5 1.3.5.5.5 1c0 .6.2 1 .5 1s.5.5.5 1c0 .6.2 1 .5 1s.5.5.5 1c0 .6.3 1 .6 1s.4.4.3.8c-.2.4 0 .9.4 1.1s.6.6.4 1 0 .7.2.7c.3 0 1 1.1 1.7 2.4.6 1.3 1.6 2.9 2.1 3.4s.9 1.3.9 1.7.2.7.4.7.8.6 1.1 1.4c.4.8 1.1 1.8 1.6 2.2.5.5.9 1.1.9 1.4s1.1 1.7 2.4 3.2c5.2 5.6 16.4 16.9 16.7 16.9.2 0 1.2.9 2.4 2s2.4 2 2.7 2 .9.5 1.3 1c.4.6 1.1 1 1.5 1s1.1.5 1.5 1c.4.6 1.1 1 1.5 1s1.1.5 1.5 1c.4.6 1.1 1 1.6 1s.9.2.9.5.7.7 1.5 1 1.5.8 1.5 1.1.4.5.9.4c.6-.1.9.2.8.7-.1.7.1.8.9.4.7-.4 1-.3 1 0s.5.5 1 .5c.6 0 1 .2 1 .5s.5.5 1 .5c.6 0 1 .2 1 .5s.5.5 1 .5c.6 0 1 .2 1 .5s.6.5 1.3.5 1.3.2 1.3.5.6.5 1.3.5 1.3.2 1.3.5.6.5 1.3.5 1.3.3 1.3.7c0 .5.4.6 1.3.5.7-.1 1.3 0 1.3.3s.7.6 1.5.6 1.6.3 1.7.7c.2.4.8.6 1.8.5s1.6 0 1.6.3.9.6 2.1.6c1.3 0 2 .2 1.8.5s.6.5 2 .5c1.3 0 2.3.2 2.3.5s1.2.5 2.8.5c1.8 0 2.9.2 3 .6.3.9 308.8.9 309.1 0 .1-.4 1.2-.6 3-.6 1.5 0 2.8-.2 2.8-.5s1-.5 2.3-.5 2.3-.2 2.3-.5.8-.5 1.8-.5 1.8-.2 1.8-.5.8-.5 1.8-.5 1.8-.2 1.8-.5.7-.5 1.5-.5 1.5-.3 1.5-.6.5-.5 1.3-.3c.9.2 1.3 0 1.3-.5 0-.4.5-.7 1.3-.7.7 0 1.3-.2 1.3-.5s.6-.5 1.3-.5 1.3-.2 1.3-.5.6-.5 1.3-.5 1.3-.2 1.3-.5.5-.5 1-.5c.6 0 1-.2 1-.5s.5-.5 1-.5c.6 0 1-.2 1-.5s.5-.5 1-.5c.6 0 1-.2 1-.5s.3-.4.8-.2c.4.2.9-.1 1.1-.5s.6-.7 1-.5c.4.1.8-.1 1-.6s.6-.7 1-.6 1-.2 1.4-.7 1.1-1 1.6-1 .9-.2.9-.5.3-.5.8-.5.8-.2.8-.5.3-.5.7-.5 1-.5 1.4-1c.4-.6 1.1-1 1.5-1s1.1-.5 1.5-1c.4-.6 1-1 1.3-1s1.5-.9 2.7-2 2.3-2 2.6-2 .5-.2.5-.5.3-.5.8-.5c.4 0 .8-.2.8-.5 0-.5 10-10.5 11.7-11.8.6-.4 1.1-1 1.1-1.4s.9-1.6 2-2.8 2-2.4 2-2.7.5-.9 1-1.3c.6-.4 1-1.1 1-1.5s.4-1.1.9-1.6 1.2-1.5 1.6-2.2c.4-.8.9-1.4 1.1-1.4s.4-.5.4-1c0-.6.2-1 .5-1s.7-.7 1-1.5.8-1.5 1.1-1.5.5-.3.3-.8 0-.8.5-.8c.6 0 .7-.3.5-1-.1-.6-.1-1 .2-1s.5-.5.5-1c0-.6.2-1 .5-1s.5-.5.5-1c0-.6.2-1 .5-1s.5-.5.5-1c0-.6.2-1 .5-1s.5-.6.5-1.3.2-1.3.5-1.3.5-.6.5-1.3.2-1.3.5-1.3.5-.6.5-1.3.3-1.3.7-1.3c.5 0 .6-.4.5-1.3-.1-.7 0-1.3.3-1.3s.6-.7.6-1.5.2-1.5.5-1.5.5-.8.5-1.8.2-1.8.5-1.8.5-.8.5-1.8.2-1.9.5-2.1.5-1.2.5-2.3.2-2 .5-2 .5-1.2.5-2.8c0-1.8.2-2.9.6-3 .5-.2.6-31.5.6-154.6s-.1-154.4-.6-154.5c-.4-.1-.6-1.2-.6-3 0-1.5-.2-2.8-.5-2.8s-.5-1.1-.5-2.3c0-1.4-.2-2.2-.5-2s-.5-.5-.5-1.8c0-1.1-.2-2.1-.5-2.1s-.5-.8-.5-1.8-.2-1.8-.5-1.8-.5-.7-.5-1.5-.3-1.5-.6-1.5-.5-.5-.3-1.3c.2-.9 0-1.3-.5-1.3-.4 0-.7-.5-.7-1.3 0-.7-.2-1.3-.5-1.3s-.5-.6-.5-1.3-.2-1.3-.5-1.3-.5-.6-.5-1.3-.2-1.3-.5-1.3-.5-.5-.5-1-.2-1-.5-1-.5-.5-.5-1c0-.6-.2-1-.5-1s-.6-.9-.8-2-.6-2-.9-1.9-.5-.3-.5-.7c.1-.5-.2-1-.7-1.1-.4-.2-.7-.5-.5-.7.1-.2-.2-.9-.7-1.5-.6-.6-1-1.4-1-1.8s-.5-1-1-1.4c-.6-.4-1-1.1-1-1.5s-.5-1.1-1-1.5c-.6-.4-1-1.1-1-1.5s-.5-1.1-1-1.5c-.6-.4-1-1.1-1-1.4 0-.4-.9-1.6-2-2.7s-2-2.1-2-2.3c0-.4-14.7-15.1-15.1-15.1-.2 0-1.2-.9-2.3-2s-2.3-2-2.7-2-1-.5-1.4-1c-.4-.6-1.1-1-1.5-1s-1.1-.4-1.6-.9-1.5-1.2-2.2-1.6c-.8-.4-1.4-.9-1.4-1.1s-.4-.4-.8-.4-1.1-.3-1.6-.8c-.4-.4-1.2-.8-1.8-.8-.5 0-1-.3-1-.8s-.3-.6-.8-.5c-.4.2-.9-.1-1.1-.6s-.6-.7-1-.6-.7 0-.7-.2c0-.3-.5-.5-1-.5-.6 0-1-.2-1-.5s-.5-.5-1-.5c-.6 0-1-.2-1-.5s-.5-.5-1-.5c-.6 0-1-.2-1-.5s-.6-.5-1.3-.5-1.3-.2-1.3-.5-.6-.5-1.3-.5-1.3-.2-1.3-.5-.6-.5-1.3-.5-1.3-.2-1.3-.5-.6-.5-1.3-.5-1.3-.2-1.3-.5-.7-.5-1.5-.5-1.5-.2-1.5-.5-.8-.5-1.8-.5-1.8-.2-1.8-.5-.9-.5-2-.5-2-.2-2-.5-.9-.5-2-.5-2-.2-2-.5-1.2-.5-2.8-.5c-1.8 0-2.9-.2-3-.6C410.3.2 119-.3 105.5.3m298.5 20c1.5.3 4.4.7 6.4 1.1 40.7 6.8 74.1 41.3 80.8 83.3 1 6 .9 296.7 0 302.7-6.8 43-40.7 77-83.8 83.8-6.1 1-296.7 1-302.7 0-42-6.7-76.3-40-83.2-80.8-.3-2-.8-4.8-1.1-6.4-.6-3.7-.6-292.4 0-296.1.3-1.5.7-4.4 1.1-6.4 1.6-9.6 7.2-24.8 11.7-31.8.7-1.1 1.6-2.6 2-3.3.6-1.2 2.5-3.9 6.6-9.1 1.8-2.4 13.2-13.8 15.6-15.6 5.3-4 8-6 9.1-6.6.7-.4 2.2-1.3 3.3-2 6.8-4.4 22.1-10.1 31.5-11.7 1.8-.3 4.5-.8 5.9-1 3.4-.6 293.2-.7 296.8-.1M242.4 86.5c-1.7.2-5 .7-7.4 1s-5.2.8-6.1 1c-1 .2-3.1.7-4.6 1-38.2 7.8-68.2 31.4-78.1 61.2-7.1 21.4-5 49.6 5 67.9 5.8 10.6 11.7 17.1 24.5 27.4 6.4 5.1 25.2 15.2 36.6 19.7 2.3.9 4.8 1.9 5.6 2.3s2.3.9 3.3 1.3c1 .3 2.3.8 2.8 1s1.8.7 2.8 1 2.3.8 2.8 1.1c1.2.5 11.2 3.7 20 6.4 28.1 8.7 44.2 18.2 49.6 29.5 4.6 9.6 4.5 22.9-.1 32.7-1.8 3.7-10.3 13.3-11.9 13.3-.3 0-1.5.6-2.7 1.4-16.3 10.9-57.5 10.6-83.1-.7-1-.4-2.6-1.2-3.7-1.6-10.4-4.6-19.9-10.3-29-17.6-5-4-5.5-4.2-7-2.3-.6.7-3 3.4-5.3 6-7.7 8.5-9.4 10.3-9.6 10.6-.1.1-2.2 2.4-4.6 5.1s-4.8 5.3-5.4 5.9-2.5 2.8-4.4 4.8c-1.8 2.1-4.1 4.6-5 5.6-2.2 2.5-1.9 3 5.5 9.1 1 .8 1.9 1.6 2 1.8 1.1 1.3 16.4 12.3 17.2 12.3.2 0 .9.4 1.7.9 1.3.9 8.2 4.7 10.8 6 1.3.6 3.4 1.6 9.6 4.3 8.5 3.7 25 8.4 35.9 10.3 7.7 1.3 9.4 1.6 14 2.1 19.7 2.1 39.1 2 56.3-.5 9.6-1.3 17.5-3.1 25.9-5.6 54.8-16.9 82.6-60.9 72.7-115-.7-3.7-2.9-12-3.8-14.3-6-15-15.5-28-27.1-36.8-1.5-1.2-2.9-2.3-3.1-2.4-.4-.5-4.6-3.3-8.5-5.6-4.4-2.7-22.9-11.8-23.9-11.8-.4 0-1-.2-1.2-.4-.3-.2-2.4-1.2-4.8-2.1s-4.8-1.9-5.4-2.1c-1.3-.6-10.9-3.7-21.8-7.1-10-3.2-23.5-7.9-28.4-10-.8-.4-3.6-1.5-6.1-2.6-17.4-7.3-25-16.4-25-29.7 0-11.6 5.8-20.1 17.4-25.7 3-1.5 3.6-1.7 7.3-2.8 13.1-3.7 33-3.9 46.6-.5 9.6 2.4 12.2 3.3 18.2 5.6 8.6 3.4 19 9.4 27.4 15.8 3.9 2.9 3 3.3 10.4-5.2.5-.6 2.1-2.4 3.6-4.1s3-3.4 3.4-3.9 1.9-2.2 3.3-3.9 3.5-4 4.6-5.3 2.8-3.1 3.7-4.1 3.5-4 5.8-6.7l4.2-4.9-2.5-2.3c-1.4-1.3-3.5-3.1-4.7-4.1s-2.5-2-2.8-2.3c-6-5.5-24.4-16-35.2-20.2-2.4-.9-4.8-1.9-5.2-2.1-.5-.3-1.3-.5-1.9-.5s-1.1-.2-1.3-.5-.8-.5-1.3-.5c-.6 0-1.4-.2-1.9-.5-1-.6-5.1-1.6-13.2-3.4-9.3-2.1-10-2.2-23.3-3.8-5.1-.6-35.7-.5-40.1.1" class="st0"/><path d="M107.7 21.2c-45.3 5.5-81.2 41.5-86.5 87.1-1.2 10-1.2 285.5 0 295.5 1.4 12 4.1 21.3 9.5 32.3 10.6 21.7 29.6 39.4 52.2 48.5.7.3 1.7.7 2.2 1 .5.2 1.3.5 1.8.5s1.1.2 1.4.4c.6.5 4.6 1.7 11 3.1 8.2 1.9 6.1 1.8 156.7 1.8 117.4 0 147.5-.1 150.6-.7 3.7-.6 5.4-1 10.6-2.2 2.5-.6 7.8-2.2 9.7-3 .6-.3 1.7-.7 2.3-.9 13.1-5.2 27.3-15.2 36.9-25.9 4.3-4.8 11.7-15 11.7-16.1 0-.3.2-.6.4-.7.4-.2 5.3-10 6.3-12.6.2-.6.7-1.7.9-2.3.8-2 2.4-7.2 3-9.6 1.4-5.9 1.6-7.2 2.3-10.8.5-3.1.7-33.2.7-150.8 0-158.5.2-148-2.3-158.5-.3-1.3-.7-3.1-.8-4-.2-.9-.5-1.8-.7-2-.3-.2-.5-.8-.5-1.5s-.2-1.4-.5-1.5c-.3-.2-.5-.8-.5-1.3 0-.6-.2-1.4-.5-1.9-.2-.5-.7-1.5-1-2.2-7.5-18.6-20.7-34.6-38.4-46.5-1.7-1.2-3.4-2.1-3.7-2.1s-.6-.2-.7-.4c-.2-.4-7.5-4.1-11.7-5.9-6.8-3-17.3-5.7-26.4-6.7-9.3-1.2-287-1.2-296-.1m171.4 64.2c12.3 1.2 17.1 1.9 26.5 3.9 8.4 1.8 20.5 5.4 24.2 7.4 1.1.6 2.4 1 2.9 1s1 .2 1 .5.3.5.7.5c4.5 0 30.3 16.5 39.4 25.2 3.1 3 3.4 2.1-2.9 9.3-1.5 1.7-3.5 4-4.5 5.1s-2.8 3.3-4.1 4.7-3.6 4.1-5.1 5.9-3 3.5-3.3 3.8-1.8 2.1-3.3 3.9c-2.6 3.1-3.6 4.2-8.3 9.4-2.1 2.3-2.7 2.3-5.8-.5-1.1-1-2.7-2.2-3.5-2.7s-1.5-1-1.5-1.3c0-.2-.2-.4-.5-.4s-1.9-.9-3.6-2.1-4.3-2.7-5.7-3.5-3.4-1.9-4.4-2.4c-2.5-1.4-11.4-5-15.6-6.3-31-9.7-62.7-6.1-75.4 8.5-2 2.3-2.5 3.1-3.6 5.9-.3.7-.8 1.9-1.1 2.6-1.5 3.7-1.6 12.8-.1 16.6 2.5 6.3 4.7 9.3 10 13.2 3.8 2.8 15.6 9 17.3 9 .5 0 .9.2.9.5s.4.5.9.5 1.1.2 1.4.4 1.4.7 2.5 1.1 2.6.9 3.3 1.2c1.4.6 2.4 1 5.1 1.9 1 .3 4.4 1.5 7.7 2.6 3.2 1.1 10 3.3 15.1 4.9s9.7 3.1 10.2 3.3c.6.2 2.5.9 4.4 1.5 1.8.6 4.3 1.5 5.5 2.1 1.2.5 2.4 1 2.6 1 .3 0 1.5.5 2.7 1.1s2.7 1.3 3.2 1.5c3.9 1.5 17.6 8.2 19.8 9.8.7.5 1.5 1 1.7 1 .4 0 7.6 4.6 8 5.1.1.2.6.6 1.1.8 5.8 3.3 19.1 17.1 22.9 23.9.5.9 1.6 2.9 2.5 4.3 1.5 2.6 3.5 6.7 4.4 8.8.2.6.7 1.7.9 2.3.3.6.8 2.1 1.1 3.2s.8 2.5 1 3.1.7 2.4 1 4.1.8 4 1 5.1c1.7 7.9 2 30.4.6 37.6-.3 1.5-.8 4-1.1 5.4s-.7 3.3-.8 4.2c-.2.9-.5 1.8-.7 1.9-.3.2-.5.8-.5 1.4s-.2 1.4-.4 1.6-.7 1.4-1.1 2.5-1.1 3.1-1.7 4.4-1.3 2.9-1.6 3.6c-4.5 10-15.3 23.5-25.4 31.6-4 3.2-9.9 7.4-10.5 7.4-.2 0-1 .5-1.9 1.1-2.6 1.9-11.7 6.3-17.6 8.6-3.1 1.2-6.1 2.4-6.7 2.6s-2.1.7-3.3 1c-1.3.3-2.7.8-3.2 1.1s-1.5.5-2.1.5c-.7 0-1.4.2-1.5.5-.2.3-1.1.6-2.2.7-1.1.2-3.1.5-4.5.8-19.8 4.4-51.7 5.3-75 2.1-9.8-1.4-18.9-3.3-28.9-6.3-2-.6-4-1.2-4.6-1.5-.6-.2-2.5-.9-4.4-1.5-5-1.7-14-5.5-17.9-7.6-1-.5-2.8-1.5-4.1-2.2s-2.4-1.3-2.6-1.4c-.5-.5-3.3-2.1-4.2-2.4-.5-.2-.9-.5-.9-.7s-.2-.5-.5-.5c-2.1 0-24.6-17.9-25.2-20-.2-.6 9.5-12.1 13.4-15.9.4-.4 2.5-2.7 4.6-5.1s4.2-4.7 4.6-5.1 1.7-1.8 2.8-3.1 3.1-3.5 4.4-4.9 3.6-4 5.1-5.8c3-3.5 3.4-3.7 5-2.3 2.3 2 3.2 2.6 6.3 5.1 8.5 6.6 19.6 12.9 30.2 17.2.7.3 1.7.7 2.2 1 .5.2 1.3.5 1.9.5s1.1.2 1.3.5.8.5 1.3.5c.6 0 1.4.2 1.9.5s1.9.7 3.2 1.1c1.3.3 3 .8 3.9 1.1s2.2.5 2.9.5 1.5.2 1.6.4c.2.2 1.6.6 3.2.8s4.6.6 6.5.8c11.9 1.6 28.7 1.1 38.2-1.1 4.4-1 4.8-1.2 8.2-2.7 1-.4 2.4-1 3.1-1.3 6.9-2.9 14.5-10 17.4-16.2 2.1-4.6 2.6-6.1 3.2-11 2.4-20.1-7.6-33.5-32.2-43.1-.6-.2-1.7-.7-2.4-1s-1.8-.7-2.4-1c-.6-.2-1.7-.7-2.4-.9-2.2-.9-6.2-2.2-12-4-14.1-4.4-26.8-8.7-30-10-.7-.3-1.8-.7-2.4-1-.6-.2-1.7-.6-2.3-.9-4.5-1.7-7.1-2.9-17-7.8-4.8-2.3-9.9-5-11.4-6-1.5-.9-2.8-1.7-3-1.7-.4 0-6.2-3.9-7.9-5.3-.7-.6-2.1-1.6-3.1-2.3-13.2-9.7-28.2-31.2-28.2-40.3 0-.6-.2-1.3-.5-1.4-.3-.2-.6-1.1-.7-2.2-.2-1.1-.5-3.2-.9-4.7-1.9-9.4-1.5-35.4.6-37.6.3-.3.5-1.2.5-2.1s.2-1.8.5-2 .5-.9.5-1.6.2-1.7.5-2.1c.3-.5 1-2.3 1.6-4 2.9-7.6 9-17.6 14.5-23.6.3-.3 1.5-1.6 2.7-2.9 6.5-7.1 18.8-15.9 28.8-20.6 2.1-1 4.2-2 4.7-2.3s1.2-.5 1.7-.5c.4 0 .8-.2.8-.5s.5-.5 1-.5c.6 0 1.4-.2 1.9-.5 7.5-3.8 25.5-8 42.4-9.7 5.9-.8 27.5-.8 33.6-.2" style="fill-rule:evenodd;clip-rule:evenodd;fill:#171c28"/><path d="M105.5.2c.8.1 2 .1 2.8 0s.1-.2-1.4-.2-2.2.1-1.4.2m298.1 0c.8.1 2 .1 2.8 0s.1-.2-1.4-.2c-1.6 0-2.2.1-1.4.2M97.7.9c0 .3.8.5 1.8.5s1.8-.2 1.8-.5-.8-.5-1.8-.5-1.8.2-1.8.5m312.9 0c0 .3.8.5 1.8.5s1.8-.2 1.8-.5-.8-.5-1.8-.5-1.8.2-1.8.5m-318 1c0 .3.7.5 1.5.5s1.5-.2 1.5-.5-.7-.5-1.5-.5-1.5.2-1.5.5m323.7 0c0 .3.7.5 1.5.5s1.5-.2 1.5-.5-.7-.5-1.5-.5-1.5.2-1.5.5M88.5 3c0 .3.7.5 1.5.5s1.5-.2 1.5-.5-.7-.6-1.5-.6-1.5.3-1.5.6m331.9 0c0 .3.7.5 1.5.5s1.5-.2 1.5-.5-.7-.5-1.5-.5c-.9-.1-1.5.2-1.5.5m-335 1c0 .3.5.5 1 .5.6 0 1-.2 1-.5s-.5-.5-1-.5-1 .2-1 .5m339.1 0c0 .3.5.5 1 .5.6 0 1-.2 1-.5s-.5-.5-1-.5c-.6 0-1 .2-1 .5M82.1 5c-.2.3.2.5.7.5.6 0 1.1-.2 1.1-.5s-.3-.5-.7-.5c-.5 0-1 .2-1.1.5M428 5c0 .3.5.5 1 .5.6 0 1-.2 1-.5s-.5-.5-1-.5-1 .2-1 .5M78.7 6c0 .3.4.5 1 .5.5 0 1.1-.2 1.3-.5s-.3-.5-1-.5-1.3.2-1.3.5m352.4 0c0 .3.5.5 1 .5.6 0 1-.2 1-.5s-.5-.5-1-.5-1 .2-1 .5M76.2 7c0 .3.5.5 1 .5.6 0 1-.2 1-.5s-.5-.5-1-.5c-.6 0-1 .3-1 .5m357.5 0c0 .3.5.5 1.1.5s.9-.2.7-.5-.6-.5-1.1-.5c-.4 0-.7.3-.7.5M73.6 8.1c0 .3.5.5 1 .5.6 0 1-.2 1-.5s-.5-.5-1-.5-1 .2-1 .5m362.6 0c0 .3.5.5 1 .5.6 0 1-.2 1-.5s-.5-.5-1-.5-1 .2-1 .5m-364.6 1c0 .3.3.5.8.5.4 0 .8-.2.8-.5s-.3-.5-.8-.5-.8.2-.8.5m367.2 0c0 .3.3.5.8.5.4 0 .8-.2.8-.5s-.3-.5-.8-.5-.8.2-.8.5m-374.5 3c-1.6.8-2.9 1.7-2.9 2 0 .9 1 .8 1.4-.2.2-.4.6-.7 1-.5.4.1.7 0 .7-.2 0-.3.5-.5 1-.5s1-.2 1-.5.5-.5 1-.5 1-.2 1-.5c0-.8-1-.6-4.2.9m379.1-1c0 .3.5.5 1 .5.6 0 1 .2 1 .5s.5.5 1 .5c.6 0 1 .2 1 .5s.2.4.5.2.9.1 1.2.6c.4.5.9.8 1.1.5.5-.5-1-1.7-3.8-3-2.3-.9-3-1-3-.3M56.6 16.4c-1.9 1.2-3.9 2.5-4.4 3s-1.5 1.1-2.2 1.5c-1.6.8-2.7 2-2.3 2.4.2.2.7-.2 1.3-.8.5-.6 1.3-1.1 1.7-1.1s1.1-.5 1.5-1c.4-.6 1.1-1 1.5-1s1.1-.5 1.5-1c.4-.6 1-1 1.2-1 1.1 0 4.4-1.8 4.4-2.4 0-1.1-.4-.9-4.2 1.4M451.1 15c0 .4.4.8 1 .8.5 0 1.3.3 1.8.8.4.4 1.1.8 1.6.8.4 0 .8.2.8.4s.6.8 1.4 1.1c.8.4 1.8 1.1 2.2 1.6.5.5 1.1.9 1.5.9s1.1.5 1.6 1.1 1.1 1 1.3.8c.3-.3-1.7-2.4-2.4-2.4-.2 0-.7-.3-1.1-.7-3-2.9-9.7-6.5-9.7-5.2m-343.9 5.4c-1.4.3-4.1.7-5.9 1-9.4 1.6-24.7 7.3-31.5 11.7-1.1.7-2.6 1.6-3.3 2-1.2.6-3.9 2.5-9.1 6.6-2.4 1.8-13.8 13.2-15.6 15.6-4 5.3-6 8-6.6 9.1-.4.7-1.3 2.2-2 3.3-4.5 6.9-10.1 22.1-11.7 31.8-.3 2-.8 4.8-1.1 6.4-.6 3.7-.6 292.4 0 296.1.3 1.5.7 4.4 1.1 6.4 7 40.8 41.2 74.1 83.2 80.8 6 1 296.7.9 302.7 0 43-6.8 77-40.7 83.8-83.8 1-6.1 1-296.7 0-302.7-6.7-42-40.1-76.4-80.8-83.3-2-.3-4.8-.8-6.4-1.1-3.6-.6-293.4-.5-296.8.1m296.5.8c9.1 1.1 19.6 3.7 26.4 6.7 4.2 1.8 11.5 5.5 11.7 5.9.1.2.4.4.7.4s1.9 1 3.7 2.1c17.7 11.9 30.8 27.9 38.4 46.5.3.7.7 1.7 1 2.2.2.5.5 1.3.5 1.9s.2 1.1.5 1.3.5.9.5 1.5c0 .7.2 1.3.5 1.5.2.2.6 1 .7 2 .2.9.5 2.7.8 4 2.5 10.5 2.3 0 2.3 158.5 0 117.6-.1 147.8-.7 150.8-.6 3.6-.9 4.8-2.3 10.8-.6 2.4-2.2 7.7-3 9.6-.3.6-.7 1.7-.9 2.3-1 2.6-6 12.4-6.3 12.6-.2.1-.4.4-.4.7 0 1.1-7.3 11.2-11.7 16.1-9.6 10.8-23.8 20.7-36.9 25.9-.6.3-1.7.7-2.3.9-4.4 1.8-12.4 3.9-20.4 5.3-3.1.5-33.2.7-150.6.7-150.7 0-148.5 0-156.7-1.8-6.3-1.4-10.4-2.6-11-3.1-.3-.2-.9-.4-1.4-.4s-1.3-.2-1.8-.5c-.5-.2-1.5-.7-2.2-1-22.5-9.1-41.6-26.8-52.2-48.5-5.4-11-8.1-20.3-9.5-32.3-1.2-10-1.2-285.5 0-295.5 5.4-45.5 41.2-81.6 86.5-87.1 9.1-1.1 286.8-1.1 296.1 0m61.7 2.5c0 .5 3.7 3.9 3.9 3.7.1-.2-.5-1.1-1.6-2.1-1.6-1.8-2.3-2.2-2.3-1.6M43.9 25.5c-.9.9-1.5 1.7-1.4 1.8.2.2 1.1-.5 2.1-1.6 2.3-2.1 1.6-2.4-.7-.2m-4.1 3.6c0 .3-.3.5-.6.5-.9 0-10.8 10.2-10.6 10.8.1.3 2.6-1.8 5.5-4.8 6.1-6.1 7-7.1 6.2-7.1-.2.1-.5.3-.5.6m431.8.3c3.1 3.7 11.7 11.8 11.7 10.9 0-.8-11.1-11.8-11.8-11.8-.4.1-.3.3.1.9M25.1 44.3c-.9 1-1.5 2.1-1.3 2.4s.4.2.6-.2c.1-.4.9-1.4 1.7-2.1s1.5-1.5 1.5-1.7c-.1-.7-1-.1-2.5 1.6m459.3-1.6c0 .5 3.7 3.9 3.9 3.7s-.5-1.1-1.6-2.1c-1.7-1.8-2.3-2.2-2.3-1.6M22 48.3c-.9 1.1-.3 1.6.7.6.4-.4.8-.9.8-1.1-.1-.5-.8-.3-1.5.5m466.5-.5c0 .5 1.6 1.9 1.9 1.6.2-.2-.1-.6-.5-1.1-.9-.8-1.4-1-1.4-.5M20.3 51c-1.7 2-3.2 4.3-2.9 4.6.4.4 1.9-1.1 1.9-1.9 0-.3.5-1 1.1-1.5s1-1.2.9-1.5c-.1-.4-.5-.3-1 .3m470.2-.4c0 .4.5 1.1 1 1.5.6.4 1 1 1 1.4 0 .8 1.5 2.4 1.9 2 .3-.3-1.4-2.9-3-4.7-.7-.7-.9-.7-.9-.2M15.8 57.3c-.4.6-.6 1.2-.4 1.3.4.4 1.9-1.2 1.9-1.9 0-.8-.8-.6-1.5.6m478.8-.6c0 .3.4 1 .9 1.6s.9 1.3.9 1.6.3.7.6.8c.4.1.6-.2.6-.6s-.2-.8-.4-.8-.7-.7-1.1-1.5c-.5-1.5-1.5-2.1-1.5-1.1M14.2 60.1c0 .5.2.8.6.7.3-.1.6-.4.6-.7s-.2-.6-.6-.7-.6.2-.6.7M13 62.5c-.2.6-.3 1.3-.4 1.4 0 .1-.5.9-1 1.6s-1 1.7-1 2.1-.2.9-.5 1.1-.5.6-.5 1.1c0 .4.2.7.5.7s.5-.5.5-1c0-.6.2-1 .5-1s.5-.5.5-1c0-.6.2-1 .5-1s.5-.5.5-1c0-.6.3-1 .6-1s.4-.3.3-.7c-.2-.4.1-.9.5-1 .4-.2.6-.5.4-.8-.5-1-1.1-.7-1.4.5m484.5-.7c-.3.6.5 1.2.9.7.5-.5.4-1.2-.2-1.2-.2 0-.6.3-.7.5m1.5 2.7c.2.9.6 1.7.8 1.8s.4.6.4 1.2c0 .5.2 1 .5 1s.5.5.5 1c0 .6.2 1 .5 1 .6 0 .7-.8.1-1.9-.2-.5-1-2-1.6-3.3-1.2-2.8-1.7-3.1-1.2-.8M8.6 72.4c0 .4.2.8.5.8s.5-.3.5-.8c0-.4-.2-.8-.5-.8s-.5.3-.5.8m493.7 0c0 .4.2.8.5.8s.5-.3.5-.8c0-.4-.2-.8-.5-.8s-.5.3-.5.8M7.5 74.7c0 .6.2 1 .5 1s.5-.5.5-1c0-.6-.2-1-.5-1-.2-.1-.5.4-.5 1m495.8 0c0 .6.2 1 .5 1s.5-.5.5-1c0-.6-.2-1-.5-1-.2-.1-.5.4-.5 1M6.5 77.2c0 .6.2 1 .5 1s.5-.5.5-1c0-.6-.2-1-.5-1s-.5.5-.5 1m497.9 0c0 .6.2 1 .5 1s.5-.5.5-1c0-.6-.2-1-.5-1s-.5.5-.5 1M5.5 79.8c0 .6.2 1 .5 1s.5-.5.5-1c0-.6-.2-1-.5-1s-.5.4-.5 1m499.9 0c0 .6.2 1 .5 1s.5-.5.5-1c0-.6-.2-1-.5-1s-.5.4-.5 1M4.8 81.7c-.5.5-.4 2.2.2 2.2.3 0 .5-.6.5-1.3 0-1.3-.1-1.5-.7-.9m501.6.9c0 .7.2 1.3.5 1.3s.5-.4.5-1c0-.5-.2-1.1-.5-1.3s-.5.2-.5 1M3.8 85.2c-.5.5-.4 2.2.2 2.2.3 0 .5-.6.5-1.3 0-1.3-.1-1.4-.7-.9m241.6.3c-16.9 1.8-34.8 5.9-42.4 9.7-.5.2-1.4.5-1.9.5-.6 0-1 .2-1 .5s-.3.5-.8.5c-.4 0-1.2.2-1.7.5s-2.6 1.3-4.7 2.3c-10 4.7-22.3 13.5-28.8 20.6-1.2 1.3-2.4 2.6-2.7 2.9-5.5 6-11.7 16-14.5 23.6-.6 1.7-1.4 3.5-1.6 4-.3.5-.5 1.5-.5 2.1 0 .7-.2 1.4-.5 1.6s-.5 1.1-.5 2-.2 1.9-.5 2.1c-2.1 2.2-2.5 28.2-.6 37.6.3 1.5.7 3.7.9 4.7.2 1.1.5 2.1.7 2.2.3.2.5.8.5 1.4 0 9.1 15 30.6 28.2 40.3 1 .7 2.3 1.8 3.1 2.3 1.7 1.4 7.6 5.3 7.9 5.3.2 0 1.5.8 3 1.7s6.6 3.6 11.4 6c10 4.9 12.6 6 17 7.8.6.2 1.7.6 2.3.9.6.2 1.7.7 2.4 1 3.2 1.3 15.9 5.6 30 10 5.9 1.8 9.9 3.2 12 4 .7.3 1.8.7 2.4.9s1.7.7 2.4 1 1.8.7 2.4 1c24.6 9.6 34.6 23 32.2 43.1-.6 4.9-1 6.4-3.2 11-2.9 6.2-10.5 13.3-17.4 16.2-.7.3-2.1.9-3.1 1.3-3.4 1.5-3.9 1.6-8.2 2.7-9.4 2.2-26.3 2.7-38.2 1.1-2-.3-4.9-.6-6.5-.8s-3.1-.6-3.2-.8c-.2-.2-.9-.4-1.6-.4s-2-.2-2.9-.5-2.6-.7-3.9-1.1c-1.3-.3-2.7-.8-3.2-1.1s-1.3-.5-1.9-.5-1.1-.2-1.3-.5-.8-.5-1.3-.5c-.6 0-1.4-.2-1.9-.5-.5-.2-1.5-.7-2.2-1-10.6-4.3-21.6-10.6-30.2-17.2-3.2-2.4-4-3.1-6.3-5.1-1.6-1.4-2.1-1.2-5 2.3-1.5 1.8-3.8 4.4-5.1 5.8s-3.3 3.6-4.4 4.9-2.3 2.7-2.8 3.1c-.4.4-2.5 2.7-4.6 5.1s-4.2 4.7-4.6 5.1c-3.9 3.8-13.6 15.3-13.4 15.9.6 2.1 23.1 20 25.2 20 .3 0 .5.2.5.5 0 .2.4.6.9.7.9.3 3.7 1.9 4.2 2.4.1.1 1.3.8 2.6 1.4 1.3.7 3.1 1.6 4.1 2.2 3.9 2.1 12.9 6 17.9 7.6 1.8.6 3.8 1.3 4.4 1.5 2.4 1 12.6 3.7 18.7 5.1 15.6 3.4 26.5 4.4 47.4 4.4 19.5 0 29.3-.9 42.5-3.8 1.4-.3 3.4-.7 4.5-.8 1.1-.2 2.1-.5 2.2-.7.2-.3.8-.5 1.5-.5s1.7-.2 2.1-.5c.5-.3 1.9-.7 3.2-1.1 1.3-.3 2.8-.8 3.3-1 .6-.2 3.6-1.4 6.7-2.6 5.9-2.3 14.9-6.7 17.6-8.6.9-.6 1.7-1.1 1.9-1.1.6 0 6.5-4.2 10.5-7.4 10.1-8.1 20.9-21.5 25.4-31.6.3-.7 1-2.3 1.6-3.6s1.3-3.2 1.7-4.4c.4-1.1.8-2.3 1.1-2.5s.4-1 .4-1.6.2-1.3.5-1.4c.2-.2.6-1 .7-1.9.2-.9.5-2.8.8-4.2s.8-3.8 1.1-5.4c1.4-7.3 1.1-29.7-.6-37.6-.2-1.1-.7-3.4-1-5.1s-.8-3.5-1-4.1-.7-1.9-1-3.1c-.3-1.1-.8-2.6-1.1-3.2s-.7-1.7-.9-2.3c-.8-2.2-2.9-6.3-4.4-8.8-.8-1.4-1.9-3.3-2.5-4.3-3.8-6.7-17.1-20.6-22.9-23.9-.5-.3-.9-.6-1.1-.8-.4-.5-7.6-5.1-8-5.1-.2 0-.9-.4-1.7-1-2.2-1.5-15.8-8.3-19.8-9.8-.6-.2-2-.9-3.2-1.5s-2.4-1.1-2.7-1.1-1.4-.4-2.6-1c-1.2-.5-3.7-1.5-5.5-2.1s-3.8-1.3-4.4-1.5-5.2-1.7-10.2-3.3c-5.1-1.6-11.9-3.8-15.1-4.9s-6.7-2.3-7.7-2.6c-2.7-.9-3.7-1.3-5.1-1.9-.7-.3-2.2-.8-3.3-1.2s-2.3-.8-2.5-1.1c-.3-.2-.9-.4-1.4-.4s-.9-.2-.9-.5-.4-.5-.9-.5c-1.6 0-13.5-6.2-17.3-9-5.2-3.9-7.5-6.9-10-13.2-1.5-3.8-1.4-13 .1-16.6.3-.7.8-1.9 1.1-2.6 1.1-2.8 1.6-3.6 3.6-5.9 12.7-14.6 44.4-18.1 75.4-8.5 4.2 1.3 13.1 4.9 15.6 6.3 1 .6 3 1.6 4.4 2.4s4 2.3 5.7 3.5 3.3 2.1 3.6 2.1.5.2.5.4.7.8 1.5 1.3 2.4 1.7 3.5 2.7c3 2.7 3.7 2.8 5.8.5 4.6-5.2 5.6-6.3 8.3-9.4 1.5-1.8 3.1-3.6 3.3-3.9.3-.3 1.8-2 3.3-3.8s3.8-4.4 5.1-5.9c1.3-1.4 3.1-3.6 4.1-4.7s3-3.4 4.5-5.1c6.3-7.2 6-6.3 2.9-9.3-9.1-8.8-34.9-25.2-39.4-25.2-.4 0-.7-.2-.7-.5s-.4-.5-1-.5c-.5 0-1.9-.5-2.9-1-3.8-1.9-15.9-5.6-24.2-7.4-9.4-2-14.3-2.7-26.5-3.9-6.1-.5-27.7-.5-33.7.2m262 .7c0 .7.2 1.3.5 1.3s.5-.6.5-1.3-.2-1.3-.5-1.3c-.2 0-.5.6-.5 1.3m-224.8.2c13.3 1.6 14 1.7 23.3 3.8 8.1 1.8 12.2 2.8 13.2 3.4.5.3 1.3.5 1.9.5s1.1.2 1.3.5.8.5 1.3.5c.6 0 1.4.2 1.9.5s2.8 1.2 5.2 2.1c10.8 4.1 29.2 14.7 35.2 20.2.3.3 1.6 1.3 2.8 2.3s3.3 2.8 4.7 4.1l2.5 2.3-4.2 4.9c-2.3 2.7-4.9 5.7-5.8 6.7s-2.5 2.8-3.7 4.1c-1.1 1.3-3.2 3.6-4.6 5.3s-2.9 3.4-3.3 3.9-2 2.2-3.4 3.9c-1.5 1.7-3.1 3.5-3.6 4.1-7.4 8.6-6.6 8.2-10.4 5.2-8.4-6.4-18.8-12.4-27.4-15.8-6-2.4-8.6-3.2-18.2-5.6-13.7-3.5-33.5-3.3-46.6.5-3.7 1.1-4.3 1.3-7.3 2.8-11.7 5.7-17.4 14.2-17.4 25.7 0 13.3 7.6 22.3 25 29.7 2.5 1.1 5.3 2.2 6.1 2.6 5 2.1 18.4 6.8 28.4 10 10.9 3.5 20.5 6.6 21.8 7.1.6.2 3 1.2 5.4 2.1s4.6 1.9 4.8 2.1c.3.2.8.4 1.2.4 1 0 19.5 9.1 23.9 11.8 3.8 2.3 8 5.1 8.5 5.6.1.2 1.5 1.3 3.1 2.4 11.6 8.8 21.2 21.7 27.1 36.8 6.3 15.8 7.4 43.7 2.3 62-8.8 32-34.2 55.9-71.2 67.4-10.8 3.3-21.4 5.4-34.8 6.7-8.9.9-27.2 1.1-35.1.5-17.4-1.4-24.7-2.5-39.1-6-13-3.1-26.5-8.3-38-14.6-2.3-1.2-4.7-2.6-5.5-3.2-.7-.5-1.5-.9-1.7-.9-.7 0-16.1-10.9-17.2-12.3-.1-.2-1.1-1-2-1.8-7.4-6.1-7.7-6.6-5.5-9.1.9-1 3.2-3.5 5-5.6s3.8-4.2 4.4-4.8 3-3.3 5.4-5.9c2.4-2.7 4.5-5 4.6-5.1.3-.3 1.9-2.1 9.6-10.6 2.3-2.6 4.7-5.3 5.3-6 1.5-1.9 2-1.7 7 2.3 9.1 7.3 18.5 13 29 17.6 1.1.5 2.7 1.2 3.7 1.6 25.6 11.3 66.8 11.6 83.1.7 1.2-.8 2.4-1.4 2.7-1.4 1.6 0 10.1-9.6 11.9-13.3 4.7-9.8 4.7-23 .1-32.7-5.4-11.3-21.5-20.9-49.6-29.5-8.7-2.7-18.8-5.9-20-6.4-.6-.2-1.8-.7-2.8-1.1-1-.3-2.3-.8-2.8-1-.6-.2-1.8-.7-2.8-1s-2.5-.9-3.3-1.3-3.4-1.4-5.6-2.3c-11.4-4.5-30.2-14.6-36.6-19.7-8.3-6.7-10.7-8.8-16.5-15.4-18.7-21.1-22.9-60.8-9.4-88.8 12.3-25.6 40.3-45.3 74.4-52.3 1.5-.3 3.6-.8 4.6-1s3.8-.7 6.1-1c2.4-.3 5.7-.8 7.4-1 4.4-.7 35-.8 40.2-.2M2.4 89.8c0 .7.2 1.3.5 1.3s.5-.6.5-1.3-.2-1.3-.5-1.3-.5.6-.5 1.3m506.1.3c0 .9.2 1.4.5 1.2s.5-.9.5-1.6-.2-1.2-.5-1.2-.5.7-.5 1.6M1.7 92.9c-.5.5-.4 2.7.2 2.7.3 0 .5-.7.5-1.5 0-1.6-.1-1.8-.7-1.2m507.8 1.2c0 .9.2 1.6.5 1.6s.5-.6.5-1.2c0-.7-.2-1.4-.5-1.6s-.5.3-.5 1.2M.4 99.5c0 1 .2 1.8.5 1.8s.5-.8.5-1.8-.2-1.8-.5-1.8-.5.8-.5 1.8m510.1 0c0 1 .2 1.8.5 1.8s.5-.8.5-1.8-.2-1.8-.5-1.8-.5.8-.5 1.8m1.2 7.4c0 1.8.1 2.6.2 1.7s.1-2.4 0-3.3c-.1-1-.2-.2-.2 1.6M0 107.2c0 1.7.1 2.3.2 1.4s.1-2.3 0-3.1-.2 0-.2 1.7m0 297.6c0 1.7.1 2.3.2 1.4s.1-2.3 0-3.1-.2 0-.2 1.7m511.7.5c0 2 .1 2.7.2 1.7.1-1.1.1-2.7 0-3.6-.1-1-.2-.1-.2 1.9M.4 412.4c0 1 .2 1.8.5 1.8s.5-.8.5-1.8-.2-1.8-.5-1.8-.5.9-.5 1.8m510.1 0c0 1 .2 1.8.5 1.8s.5-.8.5-1.8-.2-1.8-.5-1.8-.5.9-.5 1.8M1.4 417.5c0 .7.2 1.4.5 1.6s.5-.3.5-1.2-.2-1.6-.5-1.6-.5.5-.5 1.2m508.1.3c0 .8.2 1.5.5 1.5s.5-.7.5-1.5-.2-1.5-.5-1.5-.5.7-.5 1.5m-.7 2.9c-.5.5-.4 2.7.2 2.7.3 0 .5-.7.5-1.5 0-1.6-.1-1.8-.7-1.2M2.4 422.2c0 .7.2 1.3.5 1.3s.5-.6.5-1.3-.2-1.3-.5-1.3-.5.6-.5 1.3m1 3.3c0 .5.2 1.1.5 1.3s.5-.3.5-1-.2-1.3-.5-1.3c-.2 0-.5.4-.5 1m504 .3c0 .7.2 1.3.5 1.3s.5-.6.5-1.3-.2-1.3-.5-1.3c-.2 0-.5.6-.5 1.3M4.5 429.1c0 .5.2 1.1.5 1.3s.5-.3.5-1-.2-1.3-.5-1.3-.5.4-.5 1m501.9.3c0 .7.2 1.2.5 1s.5-.8.5-1.3-.2-1-.5-1-.5.6-.5 1.3M5.5 432.2c0 .6.2 1 .5 1s.5-.5.5-1c0-.6-.2-1-.5-1s-.5.4-.5 1m499.9 0c0 .6.2 1 .5 1s.5-.5.5-1c0-.6-.2-1-.5-1-.3-.1-.5.4-.5 1M6.5 434.4c0 .4.2.9.5 1.1s.5-.2.5-.7c0-.6-.2-1.1-.5-1.1s-.5.3-.5.7m497.9.3c0 .6.2 1 .5 1s.5-.5.5-1c0-.6-.2-1-.5-1s-.5.5-.5 1M7.5 437.3c0 .6.2 1 .5 1s.5-.5.5-1c0-.6-.2-1-.5-1-.2 0-.5.4-.5 1m495.8 0c0 .6.2 1 .5 1s.5-.5.5-1c0-.6-.2-1-.5-1-.2 0-.5.4-.5 1M8.6 439.6c0 .4.2.8.5.8s.5-.3.5-.8c0-.4-.2-.8-.5-.8s-.5.4-.5.8m493.7 0c0 .4.2.8.5.8s.5-.3.5-.8c0-.4-.2-.8-.5-.8s-.5.4-.5.8M9.6 442c0 .4.2.9.4 1.2s.7 1.3 1.1 2.3c1.1 2.8 2.6 5.2 3.2 4.8.3-.2.2-.5-.3-.8-.4-.2-.7-.8-.5-1.2s0-.8-.3-.8-.6-.5-.6-1c0-.6-.2-1-.5-1s-.5-.5-.5-1c0-.6-.2-1-.5-1s-.5-.5-.5-1c0-.6-.2-1-.5-1s-.5.2-.5.5m491.7.4c0 .6-.2 1-.5 1s-.5.5-.5 1c0 .6-.2 1-.5 1s-.5.4-.5 1c0 .5-.2 1.1-.5 1.2s-.3.5-.1.9c.3.5.8 0 1.6-1.8.6-1.4 1.4-2.9 1.6-3.4.6-1.2.6-1.9-.1-1.9-.3 0-.5.4-.5 1m-487.1 8.9c0 .6 2.3 4.4 2.7 4.4.3 0 .4-.2.3-.4s-.6-1.2-1.1-2.3c-.7-1.5-1.9-2.6-1.9-1.7m481.9 1.3c-.3.8-.7 1.5-1 1.5s-.5.3-.5.8c0 1.4.8.8 2-1.3 1.3-2.4 1.3-2.5.6-2.5-.3 0-.8.7-1.1 1.5m-478.8 3.9c0 .5 2.2 3.5 2.7 3.7.2.1.4.4.4.8 0 .9 2.5 3.6 2.9 3.2.2-.2-.2-.8-.8-1.3s-1.1-1.2-1.1-1.4c0-.3-.4-.9-.9-1.5-.5-.5-1.2-1.6-1.6-2.4-.7-1.2-1.6-1.9-1.6-1.1m475.7 1.1c-.4.8-1.1 1.8-1.6 2.2-.5.5-.9 1.1-.9 1.5s-.5 1.1-1.1 1.6-1 1.1-.8 1.3c.4.4 2.4-1.8 2.4-2.6 0-.3.5-1 1.2-1.6 1.1-1 2.4-3 2.4-3.6 0-.7-.9 0-1.6 1.2m-6.7 9.5c-1.1 1.1-1.8 2.2-1.7 2.4.3.3 3.9-3.4 3.9-4.1s-.1-.6-2.2 1.7m-462.9-1.4c0 .5 4.7 5 4.9 4.7.1-.1-.8-1.3-2-2.6-2.1-2.2-2.9-2.8-2.9-2.1m5.1 5.9c0 .7 11.1 11.8 11.8 11.8.8 0 .2-.8-6-7-5.3-5.3-5.8-5.8-5.8-4.8M477 477c-4.9 4.8-6.1 6.4-5.1 6.4.3 0 9.8-9.5 10.9-10.9 2-2.6-1-.3-5.8 4.5m-434.6 7.7c0 .5 3.6 3.8 4.1 3.8.3 0-.4-.9-1.5-2-2-2-2.6-2.4-2.6-1.8m424.4 1.8c-1.1 1.1-1.8 2-1.5 2 .5 0 4.3-3.3 4.3-3.8-.1-.7-.9-.1-2.8 1.8m-419.3 2.3c0 .5 2.7 2.7 3.3 2.7.3 0 .9.5 1.3 1 .4.6.9 1 1.2 1 .2 0 1.1.4 1.8 1 1.5 1.1 5.1 3.1 5.5 3.1.9 0 0-1.2-1.3-1.6-.8-.3-1.5-.7-1.5-1s-.4-.5-.9-.5-1.2-.5-1.6-1c-.4-.6-1.1-1-1.5-1s-1.1-.5-1.5-1c-.4-.6-1.1-1-1.5-1s-1.1-.5-1.5-1c-1-1-1.8-1.3-1.8-.7m415.4.7c-.4.6-1.1 1-1.5 1s-1.1.5-1.5 1c-.4.6-1 1-1.4 1s-.7.2-.7.5-.3.5-.8.5c-.4 0-.8.2-.8.5s-.4.5-.8.5c-.9 0-2.5 1.4-2.1 1.9.3.3 6.7-3.8 6.9-4.5.1-.2.4-.4.8-.4.7 0 3.4-2.2 3.4-2.7 0-.6-.8-.3-1.5.7m-11.5 7c-.6.6-.4 1.2.4 1.2.4 0 .8-.3.8-.8 0-.8-.6-1-1.2-.4m-389.8 1.2c-.2.3-.3.7-.2.7 4.1 2.3 7.1 3.3 7.1 2.4 0-.3-.5-.5-1-.5s-1-.2-1-.5-.5-.5-1-.5-1-.2-1-.5-.2-.4-.5-.2-.8-.1-1.2-.6c-.6-.7-.9-.8-1.2-.3m387.8.3c-.2.5-.6.7-1.1.6-.4-.2-.8-.1-.8.2s-.5.5-1 .5c-.6 0-1 .2-1 .5s-.5.5-1 .5c-.6 0-1 .2-1 .5 0 1 3.9-.3 7.1-2.4.1-.1 0-.4-.3-.7q-.6-.6-.9.3m-377.8 4.8c0 .3.3.5.8.5.4 0 .8-.2.8-.5s-.3-.5-.8-.5-.8.3-.8.5m367.2 0c0 .3.3.5.8.5.4 0 .8-.2.8-.5s-.3-.5-.8-.5-.8.3-.8.5m-365.2 1.1c0 .3.5.5 1 .5.6 0 1-.2 1-.5s-.5-.5-1-.5-1 .2-1 .5m362.6 0c0 .3.5.5 1 .5.6 0 1-.2 1-.5s-.5-.5-1-.5-1 .2-1 .5m-360 1c0 .3.5.5 1 .5.6 0 1-.2 1-.5s-.5-.5-1-.5c-.6 0-1 .2-1 .5m357.5 0c0 .3.5.5 1 .5.6 0 1-.2 1-.5s-.5-.5-1-.5c-.6 0-1 .2-1 .5m-355 1c0 .3.5.5 1 .5.6 0 1-.2 1-.5s-.5-.5-1-.5-1 .2-1 .5m352.4 0c0 .3.5.5 1 .5.6 0 1-.2 1-.5s-.5-.5-1-.5-1 .2-1 .5m-349.3 1c0 .3.5.5 1 .5.6 0 1-.2 1-.5s-.5-.5-1-.5-1 .3-1 .5m346.2 0c0 .3.5.5 1 .5.6 0 1-.2 1-.5s-.5-.5-1-.5-1 .3-1 .5M85.4 508c0 .3.5.5 1 .5.6 0 1-.2 1-.5s-.5-.5-1-.5c-.5-.1-1 .2-1 .5m339.1 0c0 .3.5.5 1 .5.6 0 1-.2 1-.5s-.5-.5-1-.5c-.6-.1-1 .2-1 .5m-336 1c0 .3.6.5 1.3.5s1.4-.2 1.6-.5-.3-.5-1.2-.5c-1 0-1.7.2-1.7.5m332.4 0c0 .3.6.5 1.3.5s1.3-.2 1.3-.5-.6-.5-1.3-.5c-.8 0-1.3.2-1.3.5m-328.3 1c0 .3.7.5 1.5.5s1.5-.2 1.5-.5-.7-.5-1.5-.5-1.5.2-1.5.5m323.7 0c0 .3.7.5 1.5.5s1.5-.2 1.5-.5-.7-.5-1.5-.5-1.5.2-1.5.5m-318.6 1c0 .3.8.5 1.8.5s1.8-.2 1.8-.5-.8-.5-1.8-.5-1.8.3-1.8.5m312.9 0c0 .3.8.5 1.8.5s1.8-.2 1.8-.5-.8-.5-1.8-.5-1.8.3-1.8.5m-305.1.9c.8.1 2 .1 2.8 0s.1-.2-1.4-.2-2.2.1-1.4.2m298.1 0c.8.1 2 .1 2.8 0s.1-.2-1.4-.2c-1.6 0-2.2.1-1.4.2" class="st0"/></svg>