<svg xmlns="http://www.w3.org/2000/svg" data-name="Layer 1" viewBox="0 0 125 120"><path d="M106.005 59.534C106.17 37.822 90.77 18.65 69.83 14.281c-23.32-4.864-42.465 8.486-49.303 22.143 1.496-1.844 2.75-3.609 4.22-5.168 17.4-18.433 45.54-20.042 64.938-3.748 13.388 11.246 18.33 30.053 12.13 46.166-7.616 19.795-28.798 31.48-50.545 27.796-11.997-2.032-21.763-7.901-29.348-17.453 6.734 12.66 25.422 24.221 45.797 20.546 22.327-4.028 38.119-22.685 38.286-45.029" style="fill:none"/><path d="M120.607 51.96c-2.621-5.288-6.295-9.231-10.665-12.978-7.1-6.089-7.907-9.55-10.354-19.016C96.926 9.672 82.658.736 72.207 2.97c-8 1.709-15.812 2.159-23.76.265-.84-.2-1.732-.224-2.603-.263-4.226-.191-7.663 1.347-10.286 4.7a39 39 0 0 0-4.112 6.434c-3.048 6.018-7.723 10.29-13.653 13.362-2.71 1.404-5.386 2.923-7.893 4.656-3.861 2.67-7.016 5.962-7.62 10.941-.44 3.628.673 6.976 2.378 10.049 3.136 5.648 4.678 11.585 4.058 17.443 0 2.42-.065 4.244.012 6.062.265 6.259 1.73 11.986 7.25 15.851 2.095 1.468 4.321 2.74 6.674 3.698 6.899 2.81 12.456 7.145 16.246 13.645.506.869 1.244 1.614 1.937 2.36 3.146 3.388 7.006 5.095 11.668 4.942 3.474-.114 6.794-.942 9.924-2.357 9.367-4.236 18.844-7.888 29.125-9.538 7.274-1.167 12.017-6.128 14.537-13.107.823-2.282 1.23-4.647 1.577-7.017.692-4.716 2.985-8.284 7.15-10.645.947-.537 1.317-1.159 2.2-1.8 3.165-2.295 5.046-5.387 5.611-9.26.588-4.03-.229-7.817-2.02-11.432M76.776 7.375c.042-.297.385-.153.589-.154 5.882-.036 10.351 2.403 13.236 7.593.11.196.166.426.223.647.029.114-.023.226-.178.273-.257.04-.476-.088-.655-.273-.398-.413-.809-.817-1.168-1.263-2.354-2.915-5.4-4.713-9.001-5.64-.844-.218-1.676-.486-2.51-.743-.235-.073-.577-.152-.536-.44m-56.46 36.468c-.322.869-.623 1.75-1.02 2.586-2.6 5.472-3.085 11.169-1.914 17.063.275 1.383.466 2.782.675 4.176.059.394.183.949-.265 1.09-.462.146-.492-.453-.636-.75-4.173-8.544-3.75-16.763 1.79-24.6.21-.298.506-.54.788-.778.146-.122.345-.125.523.068.237.347.205.755.06 1.145m1.606 40.173c7.585 9.552 17.351 15.42 29.348 17.453 21.747 3.683 42.93-8.001 50.545-27.796 6.2-16.113 1.258-34.92-12.13-46.166-19.398-16.294-47.539-14.685-64.937 3.748-1.471 1.56-2.725 3.324-4.221 5.168C27.365 22.767 46.509 9.417 69.83 14.281c20.94 4.368 36.339 23.54 36.175 45.253-.167 22.344-15.959 41.001-38.286 45.029-20.375 3.675-39.063-7.887-45.797-20.546m36.03-24.997h.074c0-4.868.072-9.738-.015-14.605-.18-10.094 8.464-13.3 15.645-10.928 1.402.463 2.717 1.093 3.74 2.202.949 1.029 1.076 2.283.353 3.304-.697.984-1.615 1.173-3.005.571-1.036-.448-2.028-1.01-3.085-1.398-2.634-.968-5.624-.127-7.116 1.917-.643.881-.815 1.909-.934 2.947-.231 2.006-.143 4.022-.144 6.034-.006 8.52.008 17.04-.007 25.559-.01 5.195-2.745 9.107-7.602 10.384-4.192 1.102-8.254.702-11.65-2.38-1.02-.925-1.18-2.25-.582-3.2.645-1.02 1.633-1.309 2.851-.78 1.333.58 2.546 1.45 4.03 1.659 4.384.617 7.459-1.288 7.45-6.057-.01-5.076-.002-10.152-.002-15.229m22.5-5.429a5 5 0 0 1 4.946 4.983 4.98 4.98 0 0 1-5.024 5.017 5.003 5.003 0 0 1-4.96-4.968c-.015-2.76 2.291-5.063 5.039-5.032m-39.006 10a4.986 4.986 0 0 1-4.953-5.09c.045-2.723 2.302-4.93 5.02-4.909 2.71.021 4.948 2.264 4.969 4.978.021 2.766-2.258 5.038-5.036 5.02m64.412 20.412c-2.545 9.162-8.314 15.032-17.658 17.223-.354.083-.737.07-1.105.06-.19-.006-.341-.136-.346-.398.053-.417.347-.7.714-.897.818-.436 1.629-.896 2.48-1.258 5.574-2.37 9.716-6.312 12.75-11.5.71-1.217 1.496-2.39 2.265-3.573.217-.334.492-.831.92-.64.443.197.068.666-.02.983" style="fill:#2e2f71"/></svg>