<svg version="1.1" id="svg2" xmlns="http://www.w3.org/2000/svg" xmlns:svg="http://www.w3.org/2000/svg" viewBox="0 -0.03 42.45 42.05">
  <defs id="defs2"/>
  <path d="m 17.323,23.806008 c -3.007,0.498 -6.417,1.06 -6.561,3.696 a 2.79,2.79 0 0 0 1.82,2.271 5.375,5.375 0 0 0 5.115,-0.769 c 1.553,-1.21 2.215,-3.204 1.877,-5.633 -0.647,0.171 -1.431,0.3 -2.251,0.435 z m 14.797,-8.36 a 2.769,2.769 0 0 0 -1.82,-2.265 4.777,4.777 0 0 0 -2.065,-0.335 5.43,5.43 0 0 0 -3.05,1.104 c -1.554,1.204 -2.215,3.198 -1.877,5.626 0.647,-0.164 1.438,-0.3 2.251,-0.435 3.043,-0.498 6.417,-1.06 6.561,-3.695 z" id="path1" style="fill:#d93914;fill-rule:nonzero"/>
  <path d="M 21.214,8.0048057e-6 C 9.5000001,8.0048057e-6 0.00100008,9.400008 7.8981685e-8,20.998008 -9.9992102e-4,32.595008 9.4940001,41.998008 21.21,42.000008 c 11.715,0.003 21.215,-9.396 21.219,-20.993 C 42.4262,15.424759 40.189566,10.075785 36.218,6.153008 32.222083,2.2061988 26.830461,-0.004855 21.214,8.0048057e-6 Z M 24.567,25.885008 c 0.956,0.805 2.877,1.025 4.517,0.52 1.08983,-0.251602 1.976582,-1.040747 2.353,-2.094 0.12,-0.444 0.521,-0.756 0.985,-0.769 0.202,0.01 0.403,0.01 0.605,0 0.719,-0.064 1.568,-0.142 1.855,0.264 0.634,0.982 0.159,2.321 -1.366,3.88 -1.646623,1.373401 -3.705825,2.155679 -5.849,2.222 -2.061694,0.172635 -4.117402,-0.395362 -5.798,-1.602 -0.879326,1.962229 -2.470925,3.517371 -4.453,4.351 -1,0.424 -2.07,0.665 -3.158,0.712 -1.228192,0.06412 -2.455618,-0.139945 -3.597,-0.598 -1.933648,-0.692724 -3.3386762,-2.380749 -3.6689999,-4.408 -0.3256703,-1.800757 0.403118,-3.629713 1.878,-4.713 1.8199999,-1.695 5.6609999,-2.378 8.7549999,-2.934 0.610789,-0.104225 1.219868,-0.21824 1.827,-0.342 0,-1.175 -0.223,-2.642 -1.094,-3.31 -0.956,-0.806 -2.877,-1.026 -4.517,-0.52 -1.087671,0.255131 -1.972828,1.042482 -2.353,2.093 -0.12,0.445 -0.52,0.76 -0.985,0.776 -0.201055,-0.01496 -0.402945,-0.01496 -0.6039999,0 -0.72,0.071 -1.569,0.142 -1.856,-0.256 -0.633,-0.99 -0.151,-2.329 1.366,-3.881 1.6557699,-1.382793 3.7286429,-2.168265 5.8849999,-2.23 2.064652,-0.168222 4.121939,0.402361 5.805,1.61 0.87377,-1.965273 2.463654,-3.523689 4.446,-4.358 2.154736,-0.9412829 4.59529,-0.987331 6.784,-0.128 1.9341,0.687521 3.340254,2.373832 3.669,4.4 0.331082,1.803878 -0.398463,3.638229 -1.878,4.722 -1.813,1.695 -5.662,2.378 -8.755,2.927 -0.654,0.12 -1.28,0.228 -1.827,0.342 -0.05,1.196 0.158,2.663 1.029,3.332 v -0.007 z" id="path2" style="fill:#d93914;fill-rule:nonzero"/>
</svg>