<svg xmlns="http://www.w3.org/2000/svg" width="164.434" height="121.486"><defs><linearGradient id="a" x2="1" y1=".5" y2=".5" gradientUnits="objectBoundingBox"><stop offset="0" stop-color="#e3156a"/><stop offset="1" stop-color="#91187f"/></linearGradient></defs><g data-name="Group 46"><g data-name="Group 45"><g data-name="Group 42"><path fill="url(#a)" d="M-1461.505 851.181a70.2 70.2 0 0 1-30.587-17.439 70.25 70.25 0 0 1-30.74 17.481 50 50 0 0 0-.882 9.351 49.745 49.745 0 0 0 30.936 45.848 49.54 49.54 0 0 0 32.08-46.3 50 50 0 0 0-.807-8.941m-32.907 36.595h-.009l-18.858-18.857 5.8-5.813 13.07 13.07 20.44-20.446 5.805 5.8Zm32.907-36.595a70.2 70.2 0 0 1-30.587-17.439 70.25 70.25 0 0 1-30.74 17.481 50 50 0 0 0-.882 9.351 49.745 49.745 0 0 0 30.936 45.848 49.54 49.54 0 0 0 32.08-46.3 50 50 0 0 0-.807-8.941m-32.907 36.595h-.009l-18.858-18.857 5.8-5.813 13.07 13.07 20.44-20.446 5.805 5.8Zm2.319-54.034a70.25 70.25 0 0 1-30.74 17.481 50 50 0 0 0-.882 9.351 49.745 49.745 0 0 0 30.936 45.848 49.54 49.54 0 0 0 32.08-46.3 50 50 0 0 0-.807-8.94 70.2 70.2 0 0 1-30.586-17.44Zm-2.319 54.034h-.009l-18.858-18.857 5.8-5.813 13.07 13.07 20.44-20.446 5.805 5.8Zm32.907-36.595a70.2 70.2 0 0 1-30.587-17.439 70.25 70.25 0 0 1-30.74 17.481 50 50 0 0 0-.882 9.351 49.745 49.745 0 0 0 30.936 45.848 49.54 49.54 0 0 0 32.08-46.3 50 50 0 0 0-.807-8.941m-32.907 36.595h-.009l-18.858-18.857 5.8-5.813 13.07 13.07 20.44-20.446 5.805 5.8Zm32.907-36.595a70.2 70.2 0 0 1-30.587-17.439 70.25 70.25 0 0 1-30.74 17.481 50 50 0 0 0-.882 9.351 49.745 49.745 0 0 0 30.936 45.848 49.54 49.54 0 0 0 32.08-46.3 50 50 0 0 0-.807-8.941m-32.907 36.595h-.009l-18.858-18.857 5.8-5.813 13.07 13.07 20.44-20.446 5.805 5.8Z" data-name="Path 170" transform="translate(1536.779 -799.554)"/></g><g data-name="Group 44"><g data-name="Group 43"><path fill="url(#a)" d="M-1365.831 827.564a13 13 0 0 0-1.9-2.387 10 10 0 0 0-.7-.64 12.57 12.57 0 0 0-7.488-3.04h-95.881a12.57 12.57 0 0 0-7.488 3.04 7 7 0 0 0-.687.64 12.3 12.3 0 0 0-1.9 2.37 12.7 12.7 0 0 0-1.879 6.662v5l-1.589 1.639-.274.29a82.04 82.04 0 0 1-38.151 22.35c-.366.1-.737.2-1.111.29l-1.617.4-.357 1.622q-.187.88-.363 1.778a67 67 0 0 0-1.192 12.612 66.5 66.5 0 0 0 12.037 38.276 66.74 66.74 0 0 0 27.909 22.956c.96.424 1.929.824 2.915 1.206l.927.357.932-.34a71 71 0 0 0 3.75-1.46 66.93 66.93 0 0 0 31.877-28.445h71.364a12.63 12.63 0 0 0 8.225-3.035c.257-.212.486-.425.723-.662a13.3 13.3 0 0 0 1.9-2.382 12.65 12.65 0 0 0 1.879-6.654v-65.8a12.74 12.74 0 0 0-1.861-6.643m-105.859.009q.329-.025.673-.025h94.334q.342 0 .67.025h1l-.161.145-46.692 41.311a2.983 2.983 0 0 1-3.946 0l-46.691-41.311-.162-.145Zm-5.975 6.636a6.5 6.5 0 0 1 .494-2.516l40.03 35.431-2.857 2.524q-.218-1.478-.511-2.932c-.05-.315-.109-.619-.178-.935l-.346-1.639-1.626-.4-1.173-.3a82.2 82.2 0 0 1-33.833-18.366Zm-6.874 103.054a61.95 61.95 0 0 1-38.5-57.075 62 62 0 0 1 1.105-11.634 87.3 87.3 0 0 0 38.251-21.767 87.3 87.3 0 0 0 38.066 21.713 62 62 0 0 1 1.01 11.135 61.67 61.67 0 0 1-39.932 57.628m39.56-30.6a66.6 66.6 0 0 0 5.73-27.024c0-.835-.017-1.658-.051-2.49l6.737-5.967 6.748 5.967a2.983 2.983 0 0 0 3.946 0l6.746-5.967 39.92 35.311.187.171Zm74.941-6.654a6.5 6.5 0 0 1-.492 2.507l-40-35.389 40.012-35.406a6.6 6.6 0 0 1 .483 2.49Z" data-name="Path 171" transform="translate(1528.394 -821.497)"/></g></g></g></g></svg>