<svg xmlns="http://www.w3.org/2000/svg" data-name="图层 1" viewBox="0 0 377.44 377.44">
 <title>Sipeed</title>

 <g>
  <title>Layer 1</title>
  <rect x="0" y="0" id="svg_11" fill="#e34548" rx="38.17" height="377.44" width="377.44"/>
  <polygon id="svg_12" fill="#fff7f0" points="307.05999755859375,247.05999755859375 225.42999267578125,329.0199890136719 103.94000244140625,329.0199890136719 103.94000244140625,274.989990234375 244.6999969482422,274.989990234375 244.6999969482422,219.13999938964844 159.1199951171875,219.13999938964844 77.16000366210938,137.17999267578125 159.13999938964844,55.220001220703125 280.54998779296875,55.220001220703125 280.54998779296875,109.26000213623047 139.77999877929688,109.26000213623047 139.77999877929688,165.10000610351562 225.10000610351562,165.10000610351562 307.05999755859375,247.05999755859375 "/>
  <path id="svg_13" fill="#fff7f0" d="m93.59,65.42a25.77,25.77 0 1 0 -27.78,27.78a25.86,25.86 0 0 0 27.78,-27.78zm-27.05,12.5a10.49,10.49 0 1 1 11.77,-11.77a10.5,10.5 0 0 1 -11.77,11.77z"/>
 </g>
</svg>