<svg xmlns="http://www.w3.org/2000/svg" fill="none" viewBox="4 7 32 26"><path fill="#494be4" fill-rule="evenodd" d="M4.008 17.375a5.86 5.86 0 0 1 1.647-4.41l3.629-3.72a7.5 7.5 0 0 1 2.532-1.706A4.24 4.24 0 0 1 13.882 7h12.236c.728 0 1.438.189 2.066.54a7.5 7.5 0 0 1 2.532 1.705l3.629 3.72a5.86 5.86 0 0 1 1.647 4.41 5.86 5.86 0 0 1-1.647 4.411l-8.75 8.97A7.36 7.36 0 0 1 20 32.993a7.36 7.36 0 0 1-5.595-2.239l-8.75-8.969a5.86 5.86 0 0 1-1.647-4.41m9.874-6.513H25.43c.984 0 1.927.4 2.623 1.113l3.629 3.72a1.965 1.965 0 0 1 0 2.73 1.85 1.85 0 0 1-2.664 0l-2.525-2.588a3.67 3.67 0 0 0-2.623-1.114h-2.952c-.31 0-.465.384-.246.609l4.39 4.5a3.87 3.87 0 0 1 0 5.378l-2.745 2.815a3.646 3.646 0 0 1-5.246 0l-8.75-8.97a1.965 1.965 0 0 1 0-2.73 1.85 1.85 0 0 1 2.663 0l7.378 7.562a1.85 1.85 0 0 0 2.664 0 1.965 1.965 0 0 0 0-2.731l-7.54-7.729a1.72 1.72 0 0 1 .001-2.394.55.55 0 0 1 .396-.171Z" clip-rule="evenodd"/></svg>