<svg xmlns="http://www.w3.org/2000/svg" width="1000" height="1000" viewBox="0 0 937.5 937.5"><g transform="translate(0 -114.862)"><circle cx="-739.798" cy="114.143" r="431.25" style="fill:#ffc107;fill-opacity:1;stroke-width:10.48156548" transform="rotate(-120)"/><path fill="none" d="M-427.771-63.976a360.3 360.3 0 0 1 0 360.297M-472.58-20.016a299.98 299.98 0 0 1 0 272.378m-47.884-233.873a240.17 240.17 0 0 1 0 195.368" style="fill:#000;fill-opacity:0;fill-rule:evenodd;stroke:#fff;stroke-width:34.99999619;stroke-linecap:round;stroke-linejoin:miter;stroke-miterlimit:4;stroke-dasharray:none;stroke-opacity:1" transform="rotate(-120)"/><path d="m580.047 420.343-114.36 98.912H357.453v127.287h106.594l116 100.34z" style="fill:#c8c8c8;fill-opacity:1;fill-rule:evenodd;stroke:#fff;stroke-width:33.33299637;stroke-linecap:round;stroke-linejoin:round;stroke-miterlimit:4;stroke-dasharray:none;stroke-opacity:1"/><path fill="none" d="M780.777 405.493a360.3 360.3 0 0 1 0 360.297m-44.741-316.337a299.98 299.98 0 0 1 0 272.378m-47.884-233.873a240.17 240.17 0 0 1 0 195.368" style="fill:#000;fill-opacity:0;fill-rule:evenodd;stroke:#fff;stroke-width:34.99999619;stroke-linecap:round;stroke-linejoin:miter;stroke-miterlimit:4;stroke-dasharray:none;stroke-opacity:1"/><path fill="none" d="M583.007-875.875a360.3 360.3 0 0 1 0 360.297m-44.741-316.337a299.98 299.98 0 0 1 0 272.378M490.383-793.41a240.17 240.17 0 0 1 0 195.368" style="fill:#000;fill-opacity:0;fill-rule:evenodd;stroke:#fff;stroke-width:34.99999619;stroke-linecap:round;stroke-linejoin:miter;stroke-miterlimit:4;stroke-dasharray:none;stroke-opacity:1" transform="rotate(120)"/></g></svg>