<svg xmlns="http://www.w3.org/2000/svg" xml:space="preserve" id="svg77" x="0" y="0" version="1.1" viewBox="0 0 512 512"><style>.st0{fill:#2d2b70}</style><g id="g912" transform="translate(-55.564 2)scale(.54781)"><g id="g1866"><path id="path46" d="M973.4 697.4c0 .2 0 .2-.4.4.2-.3.2-.7.2-1.1.1.2.2.4.2.7" class="st0"/><path id="path48" d="M973.1 696.7c0 .4 0 .7-.2 1.1.4-.2.4-.2.4-.4.1-.3 0-.5-.2-.7" class="st0"/><path id="path50" d="M973.4 697.4c0 .2 0 .2-.4.4.2-.3.2-.7.2-1.1.1.2.2.4.2.7" class="st0"/><path id="path52" d="M973.4 697.4c0 .2 0 .2-.4.4.2-.3.2-.7.2-1.1.1.2.2.4.2.7" class="st0"/><linearGradient id="path54_00000076591225294429058470000002896575903554448777_" x1="1830.323" x2="1830.323" y1="-497.621" y2="-687.513" gradientTransform="matrix(.5478 0 0 -.5478 -284.393 196.567)" gradientUnits="userSpaceOnUse"><stop offset="0" style="stop-color:#f58020"/><stop offset="1" style="stop-color:#fdeb01"/></linearGradient><path id="path54" d="M867.8 571.9c-70.3 58.6-156.4 95.3-247.4 105.3-34.1-66.1-51.8-139.3-51.6-213.7 109.3-.1 215.2 38.3 299 108.4" style="fill:url(#path54_00000076591225294429058470000002896575903554448777_)"/><linearGradient id="path56_00000069367884746409567430000002568472382764728215_" x1="1557.377" x2="2024.683" y1="-331.647" y2="-331.647" gradientTransform="matrix(.5478 0 0 -.5478 -284.393 196.567)" gradientUnits="userSpaceOnUse"><stop offset="0" style="stop-color:#ffc50d"/><stop offset="1" style="stop-color:#fdeb01"/></linearGradient><path id="path56" d="M1019 338.3C986.2 220.5 908.5 120.2 802.5 59.1c-87.9 50.6-157 128.5-196.6 221.9-24.6 57.7-37.2 119.8-37.1 182.5 166.7.1 320.7 89 404.4 233.2.2.2.3.4.2.7 62.8-108.7 79.2-238.1 45.6-359.1" style="fill:url(#path56_00000069367884746409567430000002568472382764728215_)"/><linearGradient id="path58_00000158004497817456360770000000002385456113920419_" x1="1344.099" x2="1344.099" y1="321.831" y2="-557.51" gradientTransform="matrix(.5478 0 0 -.5478 -284.393 196.567)" gradientUnits="userSpaceOnUse"><stop offset="0" style="stop-color:#3fc6f1"/><stop offset="1" style="stop-color:#4063ae"/></linearGradient><path id="path58" d="M802.4 868.2c-223.4 129-509.1 52.5-638.3-170.9-6.8-11.5-12.8-23.2-18.4-35.3-1.7-3.7-2.8-6.1-3-6.8l-.2-.2c-23.8-52.8-37.6-109.7-40.4-167.6-.2-1.9-.3-3.9-.2-5.8v-.2c-.4-5.8-.4-11.9-.4-17.9 0-8 .2-16 .7-24 1.7-34.2 7.2-68.2 16.4-101.2C173.2 141.1 354-3.6 568.6-3.6c82.1-.2 162.8 21.5 233.8 62.7-87.9 50.6-157 128.5-196.6 221.9-92.4 217.3-8 469.4 196.6 587.2" style="fill:url(#path58_00000158004497817456360770000000002385456113920419_)"/><circle id="circle60" cx="423.6" cy="237.7" r="105.2" style="fill:#fff"/><path id="path62" d="M423.7 172.3c-36.1-.1-65.4 29.1-65.5 65.2s29.1 65.4 65.2 65.5 65.4-29.1 65.5-65.2v-.2c.1-1.7-.1-3.4-.3-5-18.3 10.5-41.7 4.1-52.2-14.3-3.3-5.7-5-12.2-5-18.8 0-9.1 3.3-18 9.4-24.9-5.6-1.4-11.4-2.2-17.1-2.3" style="fill:#231f20"/><g id="g66"><linearGradient id="path64_00000168118222111748673680000006879297407760600201_" x1="2352.595" x2="1952.537" y1="-723.977" y2="-505.108" gradientTransform="matrix(.5478 0 0 -.5478 -284.393 196.567)" gradientUnits="userSpaceOnUse"><stop offset="0" style="stop-color:#fff"/><stop offset="1" style="stop-color:#fff;stop-opacity:0"/></linearGradient><path id="path64" d="M973.1 694.1v2.6c-83.6-144.2-237.7-233-404.4-233.2-.1-62.7 12.5-124.9 37.2-182.5 142.4 27.9 260.4 114.6 321.8 230.8 29.8 56.2 45.4 118.8 45.4 182.3" style="fill:url(#path64_00000168118222111748673680000006879297407760600201_)"/></g><linearGradient id="path68_00000159449489726022343110000016655612650200783294_" x1="736.026" x2="838.601" y1="-1282.783" y2="-1147.23" gradientTransform="matrix(.5478 0 0 -.5478 -284.393 196.567)" gradientUnits="userSpaceOnUse"><stop offset="0" style="stop-color:#3fc6f1"/><stop offset="1" style="stop-color:#4063ae"/></linearGradient><path id="path68" d="M123.9 930.9c96.2-84.1 37-234.7 21.9-268.8 5.6 12.1 11.7 23.8 18.4 35.3 35.5 61.6 84.6 114.2 143.6 153.7-65.3 70.5-183.9 79.8-183.9 79.8" style="fill:url(#path68_00000159449489726022343110000016655612650200783294_)"/><g id="g72"><linearGradient id="path70_00000007422103675738432120000016882951071281223837_" x1="2083.195" x2="1459.25" y1="-1096.901" y2="-911.168" gradientTransform="matrix(.5478 0 0 -.5478 -284.393 196.567)" gradientUnits="userSpaceOnUse"><stop offset="0" style="stop-color:#fff"/><stop offset="1" style="stop-color:#fff;stop-opacity:0"/></linearGradient><path id="path70" d="M802.5 868.2c-223.5 129-509.3 52.5-638.3-171-37-64-58.2-135.9-62-209.7-.2-1.9-.3-3.9-.2-5.8v-.2c-.4-5.8-.4-11.9-.4-17.9 0-8 .2-16 .7-24 1.7-34.2 7.2-68.2 16.4-101.2 7.7 28.3 18.2 55.7 31.4 82 78.8 159 241.1 259.6 418.7 259.7 17.3 0 34.5-.9 51.7-2.8 40.9 79.8 104.1 146.2 182 190.9" style="fill:url(#path70_00000007422103675738432120000016882951071281223837_)"/></g></g></g></svg>