<svg xmlns="http://www.w3.org/2000/svg" xmlns:xlink="http://www.w3.org/1999/xlink" version="1.1" viewBox="27.66 27.66 456.68 456.68">
<defs>
<linearGradient id="linear0" gradientUnits="userSpaceOnUse" x1="5" y1="50" x2="95" y2="50">
<stop offset="0" style="stop-color:rgb(0%,56.470588%,60%);stop-opacity:1;"/>
<stop offset="1" style="stop-color:rgb(0%,65.882353%,60%);stop-opacity:0.898039;"/>
</linearGradient>
<linearGradient id="linear1" gradientUnits="userSpaceOnUse" x1="37" y1="50" x2="63" y2="50">
<stop offset="0" style="stop-color:rgb(0%,56.470588%,60%);stop-opacity:1;"/>
<stop offset="1" style="stop-color:rgb(0%,65.882353%,60%);stop-opacity:0.898039;"/>
</linearGradient>
</defs>
<g id="surface1">
<path style="fill-rule:nonzero;fill:url(#linear0);stroke-width:1;stroke-linecap:butt;stroke-linejoin:round;stroke:rgb(8.627451%,8.627451%,11.372549%);stroke-opacity:1;stroke-miterlimit:4;" d="M 21.499634 5.500031 C 12.635803 5.500031 5.500031 12.635803 5.500031 21.499634 L 5.500031 78.500366 C 5.500031 87.364197 12.635803 94.499969 21.499634 94.499969 L 78.500366 94.499969 C 87.364197 94.499969 94.499969 87.364197 94.499969 78.500366 L 94.499969 21.499634 C 94.499969 12.635803 87.364197 5.500031 78.500366 5.500031 Z M 37.687683 16.687775 L 46.718597 32.312775 C 47.784424 32.115936 48.877716 31.999969 50 31.999969 C 51.122284 31.999969 52.215576 32.115936 53.281403 32.312775 L 62.312317 16.687775 L 72.687531 22.687531 L 63.656616 38.312531 C 65.077972 39.971924 66.191864 41.899109 66.937256 44.000244 L 84.999847 44.000244 L 84.999847 55.999756 L 66.937256 55.999756 C 66.191864 58.100891 65.077972 60.028076 63.656616 61.687469 L 72.687531 77.312469 L 62.312317 83.312225 L 53.281403 67.687225 C 52.215576 67.884064 51.122284 68.000031 50 68.000031 C 48.877716 68.000031 47.784424 67.884064 46.718597 67.687225 L 37.687683 83.312225 L 27.312469 77.312469 L 36.343384 61.687469 C 34.922028 60.028076 33.808136 58.100891 33.062744 55.999756 L 15.000153 55.999756 L 15.000153 44.000244 L 33.062744 44.000244 C 33.808136 41.899109 34.922028 39.971924 36.343384 38.312531 L 27.312469 22.687531 Z M 37.687683 16.687775 " transform="matrix(5.12,0,0,5.12,0,0)"/>
<path style="fill-rule:nonzero;fill:url(#linear1);stroke-width:1;stroke-linecap:butt;stroke-linejoin:miter;stroke:rgb(8.627451%,8.627451%,11.372549%);stroke-opacity:1;stroke-miterlimit:4;" d="M 62.000275 50 C 62.000275 56.627655 56.627655 62.000275 50 62.000275 C 43.372345 62.000275 37.999725 56.627655 37.999725 50 C 37.999725 43.372345 43.372345 37.999725 50 37.999725 C 56.627655 37.999725 62.000275 43.372345 62.000275 50 Z M 62.000275 50 " transform="matrix(5.12,0,0,5.12,0,0)"/>
</g>
</svg>