<svg xmlns="http://www.w3.org/2000/svg" xml:space="preserve" viewBox="31.65 0 448.68 511.99"><path d="M269.34.16c-.11.11-6.66.55-14.52.98-14.74.76-21.4 1.31-27.84 2.4-2.07.33-5.57.87-7.64 1.09-2.07.33-5.57.98-7.64 1.53s-5.79 1.31-8.08 1.75c-5.13.76-22.16 6.44-32.32 10.81-48.48 20.53-78.5 48.91-93.35 88.55-2.73 7.32-6.88 25.44-7.64 33.74-.66 6.11-.66 34.39-.11 37.67.22 1.53.76 5.46 1.2 8.73 2.4 19.22 10.15 39.2 20.96 54.37 23.26 32.64 64.2 53.61 146.08 75.01 23.47 6.11 43.13 14.08 50.44 20.53 4.48 3.93 7.97 10.37 8.19 15.29.55 9.5-3.49 15.94-12.77 20.31-12.45 5.79-42.03 6.55-68.46 1.64-10.59-1.86-28.61-7.86-40.07-13.21-12.77-5.9-39.52-23.58-42.47-28.06-.44-.66-2.29-2.62-4.15-4.26l-3.49-3.17-24.57 25c-13.54 13.65-34.72 35.16-47.06 47.82L31.65 421.6l6.22 6c31.88 30.35 67.15 50.55 117.7 67.47 12.12 4.15 27.73 8.52 34.28 9.61 1.53.33 4.48.98 6.55 1.53 3.71.87 14.96 2.84 22.93 3.82 19.65 2.62 67.36 2.62 87.89 0 77.74-10.04 133.42-49.46 151.76-107.11 7.21-22.82 8.52-55.57 3.28-85.71-1.2-6.99-5.57-18.78-10.59-28.82-14.96-30.02-35.7-49.13-74.79-68.67-15.83-7.97-52.95-20.85-69.66-24.24-10.15-1.97-37.89-11.03-47.27-15.29-14.74-6.77-20.42-13.32-20.2-23.69.11-8.73 7.97-16.6 19.65-19.98 6.44-1.86 32.21-2.62 40.72-1.09 14.41 2.4 36.14 9.39 47.49 15.07 7.97 4.15 22.05 14.52 31.23 23.15l7.97 7.42 47.38-47.6c42.47-42.69 47.28-47.82 45.96-49.46-4.15-5.13-6.22-7.53-9.28-10.59-27.51-27.62-57.21-44.65-101.43-58.3-27.73-8.63-48.15-12.34-77.52-13.87-6.55-.44-14.3-.87-17.14-1.09-2.71-.21-5.22-.21-5.44 0"/></svg>