<svg width="1024" height="1024" viewBox="0 0 1024 1024" fill="none" xmlns="http://www.w3.org/2000/svg">
<g clip-path="url(#clip0_21_135)">
<path fill-rule="evenodd" clip-rule="evenodd" d="M1023.53 512C1023.53 652.843 973.803 773.547 874.347 874.112C871.008 878.081 867.293 881.717 863.254 884.971C847.094 900.849 829.726 915.449 811.307 928.64C725.078 992.213 625.451 1024 512.47 1024C399.318 1024 299.862 992.213 214.102 928.64C191.249 912.428 169.914 894.177 150.358 874.112C73.0883 797.312 25.6429 708.075 8.02159 606.421C4.56559 586.581 2.26159 566.443 1.19492 545.984C0.244922 523.26 0.244922 500.506 1.19492 477.781C1.19492 476.672 1.49359 475.563 2.13359 474.475C9.51492 348.885 58.9229 240.384 150.358 148.949C250.923 49.6427 371.627 0 512.47 0C653.782 0 774.422 49.6427 874.347 148.949C973.803 250.133 1023.53 371.157 1023.53 512Z" fill="#EEEEEE"/>
<path fill-rule="evenodd" clip-rule="evenodd" d="M919.424 200.64L813.675 306.389C751.83 368.235 746.411 422.059 746.411 516.949C746.411 601.643 759.851 679.125 822.891 742.144C868.886 788.16 912.576 831.616 912.576 831.616C900.52 846.384 887.762 860.566 874.347 874.112C871.008 878.08 867.293 881.717 863.254 884.971C851.463 896.621 839.004 907.577 825.942 917.781L743.104 834.923C669.462 761.28 610.923 754.197 513.643 754.197C420.31 754.197 356.8 762.795 288.448 831.147C259.226 860.385 230.035 889.654 200.875 918.955C182.941 905.288 166.055 890.298 150.358 874.112C137.384 861.161 125.018 847.614 113.302 833.515C113.302 833.515 159.552 787.008 203.712 742.848C269.12 677.461 279.723 601.621 279.723 516.949C279.723 434.347 266.155 357.269 206.08 297.195C164.374 255.467 106.667 198.059 106.667 198.059C120.238 180.839 134.82 164.44 150.336 148.949C163.933 135.654 178.119 122.976 192.854 110.955L288.939 207.019C350.315 268.395 428.992 284.203 513.643 284.203C600.832 284.203 679.254 267.328 743.104 203.477C782.358 164.203 834.198 112.597 834.198 112.597C848.184 124.031 861.584 136.164 874.347 148.949C890.71 165.632 905.728 182.869 919.424 200.64Z" fill="#3A3F51"/>
<path fill-rule="evenodd" clip-rule="evenodd" d="M372.011 538.197C370.53 529.545 369.816 520.778 369.878 512C369.878 508.693 369.984 505.536 370.134 502.549C370.134 502.251 370.219 501.931 370.368 501.611C372.416 466.837 386.112 436.779 411.435 411.435C439.296 383.915 472.747 370.133 511.766 370.133C550.955 370.133 584.384 383.893 612.096 411.435C639.616 439.445 653.398 472.96 653.398 512C653.398 551.04 639.638 584.469 612.096 612.331C611.136 613.419 610.112 614.464 609.024 615.381C604.523 619.743 599.71 623.771 594.624 627.435C570.71 645.056 543.083 653.867 511.766 653.867C480.448 653.867 452.907 645.056 429.142 627.413C422.78 622.951 416.852 617.901 411.435 612.331C390.038 591.083 376.896 566.357 372.011 538.197Z" fill="#00CCFF"/>
<path d="M745.451 282.091L674.624 351.253M145.792 153.557L338.731 345.813M738.133 743.573L869.419 879.445M878.165 152.917L745.472 282.112M153.173 876.949L282.304 747.605" stroke="#00CCFF" stroke-width="9.45067" stroke-miterlimit="1"/>
<path d="M745.451 282.091L665.451 363.285M278.891 286.123L360.085 367.083M281.963 747.968L361.024 665.813M653.397 659.221L738.517 743.936" stroke="#00CCFF" stroke-width="33.0453" stroke-miterlimit="1"/>
<path d="M505.844 936.083V893.536L612.522 725.472H649.204V784.363H627.494L560.243 890.792V892.788H711.839V936.083H505.844ZM628.492 981V923.107L629.491 904.267V725.472H680.147V981H628.492ZM749.332 981V725.472H803.357V838.139H806.726L898.681 725.472H963.437L868.612 839.886L964.56 981H899.929L829.933 875.944L803.357 908.384V981H749.332Z" fill="#FFC230"/>
</g>
<defs>
<clipPath id="clip0_21_135">
<rect width="1024" height="1024" fill="white"/>
</clipPath>
</defs>
</svg>
