<svg xmlns="http://www.w3.org/2000/svg" width="512" height="512"><path d="M512 256a256 256 0 0 1-256 256A256 256 0 0 1 0 256a256 256 0 0 1 512 0" style="fill:#2066af"/><path d="M190.715 236c3.53 4.635 5.5 12.195 5.5 21.05 0 10.045-3.185 18.3-8.855 22.85-4.295 3.435-10.825 5.325-18.555 5.325-11 0-19.675-3.615-24.145-10.05-3.355-4.725-5-11-5-18.645 0-11 3-19.33 8.685-23.795 4.46-3.605 11.5-5.585 19.585-5.585 10.225 0 18.39 3.185 22.765 8.855m-34.965 6.615c-1.81 2.835-2.665 7.38-2.665 13.5 0 13.4 4.635 19.5 14.95 19.5 10.135 0 14.78-6.105 14.78-19.33 0-13.41-4.555-19.42-14.78-19.42-5.585 0-9.97 2.065-12.285 5.76m59.98 42.57H203.5v-57.305h28.61c10.045 0 13.575 1.03 17.35 5.245a19.5 19.5 0 0 1 5.155 13.4c0 6-2.4 11.595-6.355 14.95-3.35 2.83-6.45 3.69-12.97 3.69h-19.58zm16.58-30.235c3.265 0 5.15-.43 6.44-1.635 1.545-1.29 2.5-4.035 2.5-7.215 0-3.78-1.54-6.525-4.205-7.475a14.4 14.4 0 0 0-4.47-.5H215.71v16.84zm75.93-27.065H296v23.455h-22.055V227.9h-12.2v57.3h12.2v-23.625H296V285.2h12.2zm58.435 8.1c3.53 4.635 5.5 12.195 5.5 21.05 0 10.045-3.175 18.3-8.85 22.85-4.305 3.41-10.805 5.3-18.56 5.3-11 0-19.67-3.615-24.135-10.05-3.355-4.725-5-11-5-18.645 0-11 3-19.33 8.68-23.795 4.465-3.605 11.5-5.585 19.595-5.585 10.22 0 18.38 3.185 22.76 8.855m-34.96 6.615c-1.805 2.835-2.665 7.38-2.665 13.5 0 13.4 4.635 19.5 14.94 19.5 10.14 0 14.775-6.105 14.775-19.33 0-13.41-4.55-19.42-14.775-19.42-5.58 0-9.965 2.065-12.28 5.76M82.08 285.2h30.89c8.67 0 12.345-.53 15.235-2.36 4.55-2.8 7.44-8.585 7.44-14.8 0-5.075-1.75-10.24-4.375-12.87-3.415-3.5-8.055-4.815-16.64-4.815h-9.365c-4.2 0-7.3-.18-9.045-.96-2.1-.97-3.325-3.07-3.325-5.695 0-3.065 1.5-5.345 3.94-5.96 1.84-.43 3.97-.43 9.5-.5h27.655V226.8H103.5c-6.83 0-9.895.26-12.5 1.225-6.04 2.1-10.16 8.58-10.16 16 0 5.085 2 9.815 5.5 12.875 3.065 2.625 7.62 3.85 14.62 3.85h12.465c2.805 0 5.075.35 6.31 1.05a6.74 6.74 0 0 1 3.765 6.24 6.09 6.09 0 0 1-2.89 5.34c-1.5.97-4.03 1.405-8.665 1.405H82.08zm295.5 0h30.92c8.67 0 12.345-.53 15.24-2.36 4.55-2.8 7.435-8.585 7.435-14.8 0-5.075-1.745-10.24-4.37-12.87-3.425-3.5-8.06-4.815-16.65-4.815h-9.365c-4.21 0-7.31-.18-9.055-.96-2.11-.97-3.335-3.07-3.335-5.695 0-3.065 1.5-5.345 3.945-5.96 1.835-.43 3.975-.43 9.5-.5H429.5V226.8h-30.45c-6.835 0-9.895.26-12.5 1.225-6.045 2.1-10.16 8.58-10.16 16 0 5.085 2 9.815 5.5 12.875 3.065 2.625 7.62 3.85 14.625 3.85h12.465c2.805 0 5.085.35 6.305 1.05a6.72 6.72 0 0 1 3.765 6.215 6.1 6.1 0 0 1-2.885 5.34c-1.5.97-4.025 1.405-8.675 1.405H377.6z" style="fill:#000"/></svg>