<svg xmlns="http://www.w3.org/2000/svg" xml:space="preserve" id="Layer_1" x="0" y="0" version="1.1" viewBox="0.04 23.5 511.99 465"><style>.st1{fill:#1b8812}.st2{fill:#ffbc51}.st3{fill:#ffe0b0}.st4{fill:#cb651a}</style><path d="M126 149.7C240.3 13.5 461 95.2 458.9 273c-.8 114-109.5 203.1-221.4 181.5C96.9 429.6 34.6 259.3 126 149.7" style="fill:#ff7b00"/><path d="M511.9 63c.6 1.4-1 2.5-2.2 2.4-1.1.1-1.6.4-2.5.5-2.2 0-4.3.4-6.5.3-.5.2-1.1.4-1.7.4-13.5.2-27 2.5-40.1 5.7-5.3 1.5-10.4 3.3-15.7 4.8-7.7 2.8-14.7 7.5-22.8 9.4-15.7 4.9-32.3 6.1-48.7 6-9 .3-17.6-2.7-26.5-3.4-6.7-.4-12.3-4.3-18.8-5.7-1.8-.3-3.2-.7-4.2-1.3-2.7-.5-5.3-1.6-7.9-2.1-1.3-.4-3-.3-4.2-.9-.3.1-.5.1-.8.1-.8 0-1.2-.4-1.4-1-.4-.5-.6-1.2-.2-1.8.6-.9 1.8-1 2.6-1.4 3.3-1.4 6.2-3.8 9.7-4.9.1-.1.4-.2.5-.3.6-.4 1.3-.7 2-.8 2.5-.9 4.9-2 7.2-3.1 5.9-3 11.9-6 18.2-8 4.8-2.1 9.6-3.7 14-6.6 3.3-1.5 6.8-2.7 9.5-5.2 8.4-5.7 18-9.5 27.3-13.8 14.5-4.6 30.1-7.2 45.2-4.2 14 1.7 28.7 5.8 38.8 16.1 2.3 2.4 8.6 6.5 11.8 10.7 1.3.9 2.6 1.9 4 2.5 2.5.6 4.6 2.2 6.9 3.4.7.3 1.7.1 2.2.6 1.7.1 3.6.4 4.3 1.6" class="st1"/><path d="M11.7 372.4c-5.6-13.2-7.3-27.8-4.3-41.9 1.7-7.7 2-15.7 4.3-23.2 2.7-9.8 17-11.4 21.7-2.2 2 3.4 1.7 7.6.4 11.2-1.4 10-4.1 20.1-4.1 30.2.1 6 1.9 11.8 4.2 17.3 5.2 14.6-16.1 23-22.2 8.6" class="st2"/><path d="M118.3 477.9c-10.3-1.9-21-2.7-29.8-9-7.8-4-16.5-6.3-22.8-12.7-15.2-11.8-20.8-12.8-29.7-31.8-21.7-33.4-24.9-37.8-29.9-78.5-1.4-11.9-.8-24 1.2-35.9 1.1-12 4.6-31 20.5-29 5.5 1.1 9.6 5.7 10.9 11 .9 4-.1 7.9-1.1 11.7.6 4-2 7.3-2 11.2-.4 13.2-.4 26.4 1.5 39.4 3.1 13.7 5.1 27.9 10.2 41.1 3.6 6.7 7.1 13.5 11.8 19.6 3.6 3.9 9 7.3 8.6 13.3 5.7 3.4 11 7.6 16.1 12.1 3.2 2.2 7.1 3.4 10.7 4.9 8.2 4.3 12.8 7.6 22.5 8.1 20.7.8 19 25.8 1.3 24.5" class="st2"/><path d="M175.6 469.3c-20.3 3.3-41.8 8.1-61.8 1.4-6.7-3.4-16.5-5.7-18.5-13.9-2.1-7.9 5.4-16 13.5-14.4 6.9 2 12.6 7.5 20.2 7.6 10.4 1.3 23.3-.7 32.4-2.2 8-1.4 16.4-2.1 23.5-6.5 13.7-7.2 25 13 11.4 20.8-6.5 3.5-13.5 5.9-20.7 7.2" class="st2"/><path d="M163.3 476.9c-11.6 1.9-23.5.6-35.1-1.1-10.7-1.1-28.5-6.3-22.7-20.4 2.6-5.7 9.9-8.8 15.6-6 1.8.9 3.6 1.5 5.5 2 8.6 1.5 17.3 2.7 26 2.6 15.3 0 28.4-8.4 40.9-16.1 5.7-3.1 11.5-5.8 17-9.3 8.8-5.3 20.4 4.1 17 13.8-2.2 7-10.2 9.4-16.1 12.8-15.5 8.3-30 19.6-48.1 21.7" class="st2"/><path d="M158.9 479.1c-15.3 2.5-31 2.4-45.9-2.5-11.5-3.6-19.6-5.6-28.5-14.4-10.2-5.5-20.1-11.8-26.8-21.6-3.6-4.5-6.7-9.3-10.1-14-8.9-12.7 9.5-26.3 19.1-14 5 6.7 9.4 14 15.4 19.9 5.5 5.2 13.2 7.3 18.8 12.4 6.1-2.1 10.7 2.9 15.8 4.9 6.9 2.1 14.2 2.8 21.3 4.1 10 1.5 16.4-8.3 25.2.6 15.5 4.5 11.4 25-4.3 24.6M90.6 300.9c-5.9-2.9-13.3-2.4-19.6-4.7-7-2.2-12.2-3.6-19.5-1.9-5.6.6-10.7 2.7-14.8 6.7-2.7 4.1-10.1 8.6-15 8.5C11.5 309.3 7 297.1 12 289c5.3-9.5 14.6-16.7 24.7-20.7 7-3.2 14.8-3.2 22.1-1.2.4.3.7.6 1.1.8 1.1.9 2.2 1.8 3.4 2.7.8.6 1.5 1.1 2.2 1.6.5.4 1.1.7 1.6 1.1.6.4 1.2.8 1.8 1.1.8.4 1.5.9 2.2 1.3 1.1.7 2.2 1.4 3.4 2.1.1.1.1.1.2.1.2.3.5.6.7.8 1.8 2 3.4 4 5.2 6 1.2 1.3 2.3 2.5 3.5 3.9.4.4.7.8 1 1.1 1.2 2 2.4 4.1 3.6 6.1s2.4 3.9 3.6 5.8c-.6 0-1.2-.3-1.7-.7M67 270.2c-.9-.6-1.8-1.3-2.7-1.9.1 0 .4.1.5.1.4.2.8.4 1.1.7.1 0 .1.1.1.1.3.3.6.7 1 1l.1.1c0 .1 0 0-.1-.1" class="st2"/><path d="M110.1 334.2c-6.5-9.3-14.2-17.8-21.7-26.4-6.7-4.4-14.5-6.8-21.7-10.3-9.3-3-21.2-5.4-18.2-18.2 3-8.1 9.3-9.1 16.1-7.6.3.2.6.4.8.6.5.4 1.1.7 1.6 1.1.6.4 1.2.8 1.8 1.1.8.4 1.5.9 2.2 1.3 1.1.7 2.2 1.4 3.4 2.1.1.1.1.1.3.1.2.3.5.6.7.8 1.8 2 3.4 4 5.2 6 1.2 1.3 2.3 2.5 3.5 3.9.4.4.7.8 1 1.1 1.2 2 2.4 4.1 3.6 6.1 2 3.4 4.1 6.7 6.3 10 2.2 3.2 4.5 6.3 7.1 9.2 1.4 1.5 2.9 3.1 4.4 4.6.1.2.1.4.2.6.6 1.9 1.3 3.8 2.1 5.6.8 1.7 1.5 3.4 2.5 5 .7 1.2 1.5 2.4 2.3 3.6.6.9 1.3 1.9 2 2.7.4.5.8 1 1.3 1.5-2.6-.5-5.1-1.9-6.8-4.5" class="st2"/><path d="M136.9 377.2c-7.5.6-12.8-6-17.7-10.9-15.1-14.5-22.9-33.8-30.4-52.9-4.3-7.2-7.2-15.4-2-20.7.6 1.1 1.3 2.1 1.8 3.2 2 3.4 4.1 6.7 6.3 10 2.2 3.2 4.5 6.3 7.1 9.2 1.4 1.5 2.9 3.1 4.4 4.6.1.2.1.4.2.6.6 1.9 1.3 3.8 2.1 5.6.8 1.7 1.5 3.4 2.5 5 .7 1.2 1.5 2.4 2.3 3.6.6.9 1.3 1.9 2 2.7 1 1.1 1.9 2.3 2.9 3.4 1.1 1.1 2.2 2.2 3.3 3.2 2.4 2.2 4.7 4.5 7.1 6.6 1.6 1.4 3.4 2.7 5.2 3.8.9.5 1.8 1.1 2.7 1.5.8.4 1.5.7 2.3 1 1.5.6 3 1.1 4.6 1.6.7.2 1.3.4 2 .7 4.1 6.3.6 16.1-7.1 17.9-.3.2-1 .3-1.6.3" class="st2"/><path d="M165.3 373c-19.1 1.5-35.1-4-48.2-18.1-6.7-7-17.2-15.5-14.9-26.3.8-2.8 2.7-5 5-6.5l1.5 3.9c.8 1.7 1.5 3.4 2.5 5 .7 1.2 1.5 2.4 2.3 3.6.6.9 1.3 1.9 2 2.7 1 1.1 1.9 2.3 2.9 3.4 1.1 1.1 2.2 2.2 3.3 3.2 2.4 2.2 4.7 4.5 7.1 6.6 1.6 1.4 3.4 2.7 5.2 3.8.9.5 1.8 1.1 2.7 1.5.8.4 1.5.7 2.3 1 1.5.6 3 1.1 4.6 1.6 1.1.4 2.2.7 3.4 1.1.8.2 1.7.6 2.5.7 1 .2 1.9.4 2.9.6l1.8.3h-.2l3.9.6c1.3.1 2.7.3 4.1.4 2.4.1 4.8.3 7.1.4h.6c.6.3 1.1.5 1.7.7l3.6 1.5c.6.2 1.1.5 1.7.7-1.2 3.4-3.9 6.4-8 7.4-1 .1-2.2.2-3.4.2" class="st2"/><path d="M211.8 389.8c-7.1.6-11.7-5.7-18.2-7.6-12.3-5.3-25.7-7.7-38.8-10-10.5-2.7-24.5-2.4-30.9-12.6-2.4-4.1-1.8-9.3 1-12.9 1.3 1.3 2.7 2.5 4.1 3.8 1.6 1.4 3.4 2.7 5.2 3.8.9.5 1.8 1.1 2.7 1.5.8.4 1.5.7 2.3 1 1.5.6 3 1.1 4.6 1.6 1.1.4 2.2.7 3.4 1.1.8.2 1.7.6 2.5.7 1 .2 1.9.4 2.9.6.6.1 1.3.2 1.9.4-.1 0-.2 0-.3-.1l3.9.6c1.3.1 2.7.3 4.1.4 2.4.1 4.8.3 7.1.4h.6c.6.3 1.1.5 1.7.7l3.6 1.5c1.6.7 3.2 1.3 4.8 2 3.5 1.4 7.1 2.7 10.7 3.9h.2-.1c.1 0 .2.1.4.1h-.1c.1 0 .1.1.2.1h-.1c.9.3 1.8.6 2.7.8 1.8.6 3.6 1.1 5.3 1.6h-.1c.1 0 .1.1.3.1h.1c2.2.6 4.4 1.1 6.7 1.3 2.3.3 4.6.4 6.9.4 1.5 0 2.9-.1 4.3-.1.3 0 .6-.1.8-.1.1 0 .2-.1.4-.1.6.3 1.1.6 1.7.9.8.4 1.5.7 2.3 1.1.5 5.6-2.9 11.6-8.7 13-.9-.1-1.5 0-2.1.1" class="st2"/><path d="M217.5 422.9c-3.9-2.2-5.3-6.6-6.3-10.7-4.1-11.3-4.7-17.5-16.5-22.7-5-3.2-10.1-6.5-15.8-8.5-6.5-2.9-15.6-2.1-19.4-9.2-2-3.3-1.9-6.9-.6-10 1.1.1 2.1.2 3.1.3 2.4.1 4.8.3 7.2.4h.6c.6.3 1.1.5 1.7.7l3.6 1.5c1.6.7 3.2 1.3 4.8 2 3.5 1.4 7.1 2.7 10.7 3.9h.1-.1c.1 0 .1 0 .1.1h-.1c.1 0 .1 0 .1.1h.1c.1 0 .1.1.2.1.9.3 1.8.6 2.7.8 1.8.6 3.6 1.2 5.5 1.6 2.2.6 4.5 1.1 6.8 1.3 2.3.3 4.6.4 6.9.4 1.1 0 2.2 0 3.3-.1 2 1.4 3.8 2.9 5.3 4.8 6.3 7.7 9.6 17.4 12.6 26.7 1.5 4.1 2.2 8.8-.4 12.7-1.6 2.7-4.3 4.6-7.4 5.3-2.9.6-6.1.2-8.8-1.5M191 370.5q0 .15 0 0" class="st2"/><path d="M219.1 390.4c.2-.2.4-.4.4-.5-.1.2-.3.4-.4.5m1.1 54.1c-5.9-4.6-5.3-13-.7-18.3 2.9-6.8 4.6-15.5.4-22-5-4.9-10.4-9.6-16.5-12.8-5-3.9-6-11.8-1.8-16.6.3-.3.6-.6.8-.9 1.2.3 2.5.5 3.7.6 2.3.3 4.6.4 6.9.4 1.5 0 2.9-.1 4.3-.1.3 0 .6-.1.8-.1.1 0 .2-.1.4-.1.6.3 1.1.6 1.7.8 1.8.9 3.6 1.6 5.5 2.1 1.5 1.3 2.9 2.7 4.3 3.9 7.4 5.6 13.3 13.3 15 22.6 3.2 11.4-1.4 39.6-14.5 42.8-3 .7-6.4.1-10.3-2.3" class="st2"/><path d="M236.5 415.2c-6.4.8-12.3-4.3-13-10.7-.1-1.2-.6-2.4-1.4-3.3-4.3-4.7-9.4-8.6-14.1-12.8-9.7 3.4-19-8.2-13.9-17 1.6.5 3.3 1.1 4.9 1.5.1 0 .1.1.3.1.1 0 .1.1.3.1 2.2.6 4.3 1.1 6.5 1.3 2.3.3 4.6.4 6.9.4 1.5 0 2.9-.1 4.3-.1.3 0 .6-.1.8-.1.1 0 .2-.1.4-.1.6.3 1.1.6 1.7.9 3 1.5 6.4 2.5 9.7 2.9.8.1 1.5.1 2.2-.1.8.6 1.5 1.3 2.2 1.8 10.6 7.6 21.1 30.7 3.1 35-.3.1-.6.1-.9.2" class="st2"/><path d="M199.5 373.1h-.1c.1 0 .2.1.3.1 0-.1-.1-.1-.2-.1m2 96.7c-9.4-2.5-11.3-16.2-3.2-21.2 5.8-3.6 10.7-8.6 15.1-13.9 3.4-5.5 4.9-11.9 6.2-18.2-.4-2.8-2.1-5.3-3.5-7.8-3.3-5.4-.9-13.2 4.7-16.1 11.9-6.3 19.4 7.9 21.8 17.6 2.4 9.1-1.5 18.4-4.3 27-3.4 10.4-11.4 18.4-19.4 25.5-4.7 4.1-10.6 9.4-17.4 7.1" class="st2"/><path d="M182.5 478.5c-3.2.4-6.3.4-9.5.4-7.7.8-16.1 2.9-23.1-1.5-6.7-4.4-12.8-15.3-9.5-23.2 2.9-6.9 12.3-9.2 18.1-4.5 6.6-5.3 14.4-1 20.8 1.9 5-.5 9-3.6 13.4-5.9 2.4-1.2 4.8-2.2 7.1-3.4 1.5-2.6 4.1-4.3 7.1-5 5.5-6.2 15.1-8.1 20.5-.8 6.5 9.3-1.5 16.5-8.8 21.7-7.9 11.8-22 18.9-36.1 20.3" class="st2"/><path d="M163.2 464.9c-4 .5-7.9-1.1-11-3.4-2.2-.4-4.6-1.5-6.2-3-2.9.4-5.8.1-8.6-.6-2.5-.6-4.9-1.8-7-3.4-5.5 3.8-13 1.5-16.8-3.7-1.5 7.4-9.7 11.8-16.8 9.5-9.7-2.8-15.2-12.1-22-18.9-12.1-12.5-20.3-27.8-27-43.7-5.4-13.3-12.2-23.8-11.3-37.6-3.1-8.5-9.8-20.3-1.3-27.7-.2-.4-.4-.8-.6-1.1l-.1-.1c-2.5-4.2-1.8-9.8 1.4-13.5-1.8-6.7-4.6-13.5-4.4-20.5.1-8.1 9.2-13.9 16.5-10.4.8-8.8 8.6-14.7 16.6-14.9.2.1.4.4.6.5.5.4 1.1.7 1.6 1.1.6.4 1.2.8 1.8 1.1.8.4 1.5.9 2.2 1.3 1.1.7 2.2 1.4 3.4 2.1.1.1.1.1.2.1.2.3.5.6.7.8 1.8 2 3.4 4 5.2 6 1.2 1.3 2.3 2.5 3.5 3.9.4.4.7.8 1 1.1 1.2 2 2.4 4.1 3.6 6.1 2 3.4 4.1 6.7 6.3 10 2.2 3.2 4.5 6.3 7.1 9.2 1.4 1.5 2.9 3.1 4.4 4.6.1.2.1.4.2.6.6 1.9 1.3 3.8 2.2 5.6.7 1.7 1.5 3.4 2.5 5 .7 1.2 1.5 2.4 2.3 3.6.6.9 1.3 1.9 2.1 2.7 1 1.1 1.9 2.3 2.9 3.4.8.9 1.8 1.8 2.6 2.7 4.9 7.9 9.7 15.9 14.5 24 3.9-5.7 8.9-7.5 14.3-7 .8.2 1.6.4 2.5.6l1.8.3h.1-.3c.4.1.6.1 1 .1 7.9 2.2 16 7.7 22.2 11.1 13.6 9.4 28.1 16.9 36.5 31.3 2 3.7 3.6 7.7 6 11.2 2.5 3.2 2.5 7.1 1.9 10.6 3.2 16.8-5.7 34.4-24.6 24.3-2.5 10.1-15.1 12.6-23 7.2-1.5 3.9-5 6.8-9.1 7.8-.4-.2-1 0-1.6 0" class="st2"/><path d="M111.9 478.9c-10.9-2.4-21.7-5.7-31.3-11.8-7.7-3.3-14.9-7.5-20.5-13.8-4.8-4.2-10.3-7.4-14.8-12-4.3-3.7-7.5-8.6-10.8-13.2-4.3-6.6-9.4-12.9-12.3-20.3-2.3-6.7-5.3-13.2-7.3-20-2.5-6.6-5.7-13.5-5-20.6 1.3-9.8 14.3-14.5 21.1-7 2.7 2.7 3.6 6.6 4.6 10.2 1.5 5.5 3.3 10.9 5.3 16.2.5 2.6 2.5 4 4 6 2.7 4.3 4.6 9 7.8 13 6.2 10.9 21.2 15.4 24.1 28.3 5.8 6.3 17.4 6 20.2 15.1 7.9 5.7 21.3 4.2 26.5 11.1 6.2 8.1-1.5 21-11.6 18.8" class="st2"/><path d="M152 480.6c-18.1 4.3-37 2.3-54-5-20.5-6.9-5.6-35.1 10.7-21.2 13.5 5.3 29.7 7.3 43.1.8 17.1-5.1 25.5 20.5.2 25.4" class="st2"/><path d="M168.5 479.2c-22.3 5.7-46.4 5.8-67.6-4.1-18.6-6.4-11.4-30.7 7.3-23.8 4.3 1.8 9 2.7 13.5 3.9 5.7 1.9 11.6 3.3 17.7 2.7 7.6.2 15.6-5.6 22.9-1.6 8.3-1.8 17-4 23.7-9.3 11.5-10.4 27.3 6.1 16.3 17.1-9.2 8.4-21.7 12.5-33.8 15.1" class="st2"/><path d="M185.2 478.1c-17.6 4.5-36.9 6.8-54.5.9-10.9-4.7-8.4-21.9 3.6-22.7 17.2 1.8 34.5-.7 51.1-5.5 2.8-4.4 8.4-6.5 13.4-5.1 13.6-15.3 33.9 8.3 14.4 20.9-8.6 5.1-18.2 9-28 11.5M16.6 397.5c-.5-1.1-1-2.1-1.5-3.2-1.5-3.4-3.1-6.7-4.6-10.2l-1.8-3.9c-.6-1.4-1.2-2.8-1.8-4.1-1.7-6.2-3.1-12.6-4.4-18.9 0-.2-.1-.5-.1-.7v-.4c-.1-2.3-.4-4.6-.6-6.9-.2-2.2-.4-4.5-.6-6.7-.1-.9-.1-1.8-.1-2.7-.1-.6-.1-1.3-.1-2 0-1.1 0-2.1-.1-3.2 0-.8.1-1.5.1-2.2v-.5c1.2-4.2 4.1-7.4 9.9-8.1 16-.6 12.6 17.1 14.7 27.8 1.8 8.8 3.9 17.6 6.4 26.2 6 11.3.5 19.6-6.5 21.3-3 .7-6.1.3-8.9-1.6m-14.1-41" class="st2"/><path d="M29.6 422.6c-.8-1.1-1.5-2.2-2.4-3.3-.1-.2-.3-.4-.4-.6-.4-.6-.8-1.2-1.3-1.8-.5-.9-.9-1.9-1.3-2.9-1.5-3.3-3.1-6.5-4.6-9.8s-3-6.6-4.6-9.9c-1.5-3.4-3.1-6.7-4.6-10.2-.1-.3-.2-.6-.4-.8-2-6.7-3.6-13.5-5.5-20.2-.8-3.2-1.7-6.4-2.3-9.7-.1-1.4-.3-2.9-.4-4.3-.2-2.2-.4-4.5-.6-6.7-.1-.9-.1-1.8-.1-2.7-.1-.6-.1-1.3-.1-2 0-1.1 0-2.1-.1-3.2 0-.8.1-1.5.1-2.2.1-.8.1-1.8.1-2.7.1-.8.1-1.5.1-2.3.1-1.5.2-3.2.4-4.7.2-2.2.4-4.3.6-6.5 1.5-5.4 4.1-10.6 7.7-15.4 6.1-8.3 20.4-3.9 21 6.3-.7 13.4-10.5 10.1-6.4 36.9 2.3 11.6 5.5 23 8.9 34.4 3 9.3 5.6 19 11.7 26.9 5.8 8.2.1 16.8-7.3 18.6-2.6.7-5.6.4-8.2-1.2" class="st2"/><path d="M18.5 396.6c-9.2-17.4-18.2-50.5-17-73.1 0-.3.1-.6.1-.8.1-1 .1-2 .3-2.9.2-1.6.4-3.2.8-4.7 1.3-7.4 5.4-13.5 8.3-20.2 2-7.2 5-13.9 10.8-18.7 11.5-10.4 27.3 6.1 16.3 17.1-4.5 3.7-4.3 10.3-7.4 15.1-2.7 5-5.4 10-5.7 15.8-1 10.7 1.6 21.2 4.1 31.4s4.8 20.5 10 29.7c4.3 8.3-1.2 15.6-8.1 17.2-4.3.9-9.4-.5-12.5-5.9" class="st2"/><path d="M2.8 340.6c-.7-1.6-1.3-3.2-1.8-4.9v-1.1c0-.8.1-1.5.1-2.2.1-.8.1-1.8.1-2.7.1-.8.1-1.5.1-2.3.1-1.5.2-3.2.4-4.7.4-3.8.6-7.6 1-11.4.2-2.2.4-4.5.6-6.7.1-.4.1-.6.3-.9.3-1 .6-2 .8-3 .1-.6.4-1.2.6-1.8.4-1.1.7-2.2 1.1-3.2.6-1.6 1.1-3.3 1.6-4.9.3-.8.6-1.8.8-2.7.4-1 .7-1.9 1.1-2.9.4-1.1.8-2.2 1.3-3.4 4-5 8.9-9.2 14.7-12.3 9.1-4.8 23.5-9.5 27.3 4 1.9 7.3-3.9 13.9-10.9 14.9-5.8 1.5-10.7 5-13.9 10.1-6.9 9.6-7.7 22.9-3 33.6 2.9 8.1-2.3 14.2-8.6 15.6-5.2 1.3-11-.6-13.7-7.1" class="st2"/><path d="M8 348.6c-3.6-1.8-5.8-4.8-7-8.6v-.4c-.1-.6-.1-1.3-.1-2 0-1.1 0-2.1-.1-3.2 0-.8.1-1.5.1-2.2.1-.8.1-1.8.1-2.7.1-.8.1-1.5.1-2.3.1-1.5.2-3.2.4-4.7.4-3.8.6-7.6 1-11.4.1-.4.1-.9.1-1.4 2.7-9.4 7.4-18.3 12.1-26.8 5.1-7.9 13.3-13.1 20.1-19.4 11.7-10.6 32.6.4 25.9 16.2-3 6.9-10.9 12.5-18.2 8.5-3.3 2.7-6.9 5.3-8.9 9.3-4.1 8.2-8.7 16.5-9.6 25.8-.3 3.2-.6 6.4-.4 9.5 1.3 3 1.3 6.6-.1 9.6-1.5 3.4-4.6 5.7-8.1 6.6-2.3.9-4.9.7-7.4-.4" class="st2"/><path d="M11.2 318.4c-4.6-3.3-7.1-7.2-8.2-11.4.1-.8.1-1.6.2-2.5.1-.4.1-.6.3-.9.3-1 .6-2 .8-3 .1-.6.4-1.2.6-1.8.4-1.1.7-2.2 1.1-3.2.6-1.6 1.1-3.3 1.6-4.9.3-.8.6-1.8.8-2.7.4-1 .7-1.9 1.1-2.9.6-1.6 1.2-3.2 1.9-4.8.1-.3.2-.6.4-.8 6-7.9 14.1-14.4 21.1-17.4 9.2-3.4 23.6-8.3 32.7-3.2 1.5 1.3 2.9 2.6 4.3 3.9.5.7 1 1.5 1.4 2.3 2.4 5.9-.8 13.1-6.7 15.3-2.7 1.2-6.5.9-8.9-.1-12.8.8-24 8.6-29 20.3 6.4 7.3 1 17.4-6.7 19.2-3 .8-5.9.4-8.8-1.4" class="st2"/><path d="M14.8 322.7c-6.9-.1-10.7-3.4-12.4-8.3.1-1.1.1-2 .3-3.1.2-2.2.4-4.5.6-6.7.1-.4.1-.6.3-.9.3-1 .6-2 .8-3 .1-.6.4-1.2.6-1.8.4-1.1.7-2.2 1.1-3.2.6-1.6 1.1-3.3 1.6-4.9.3-.8.6-1.8.8-2.7.4-1 .7-1.9 1.1-2.9.6-1.6 1.2-3.2 1.9-4.8.4-.8.7-1.6 1.1-2.5 7.5-10.1 18.3-17.5 29.9-22.2l3-1.2c.1.1.1.1.3.1.8.4 1.7.4 2.5.4.6 0 1.1-.1 1.6-.1.8-.1 1.7-.1 2.5-.2.6-.1 1.1-.1 1.8-.2.1 0 .1.1.2.1 2 .6 4.1 1.3 6 2 1.3.4 2.5.8 3.8 1.1l9 8.1c2.1 2 4.2 3.9 6.4 5.8-2.3 5.5-8.3 9.4-15.6 6.3-3.3-1.8-6.8-2.7-10.4-1.1-12.6 4.1-24.3 13.7-27.9 26.9-.5 2-.3 3.9 0 6 .8 5.9-3.6 11.4-9.1 12.7-.8.1-1.3.3-1.8.3" class="st2"/><path d="M75.1 298.8c-5.1-4.9-16.3-20.4-23.8-17.6-1.4 14.3-20.6 14.9-24 1.1-6.7-20.6 23.6-30.1 38.6-22.7.1.1.2.1.3.1 2.2 2 4.6 4.1 6.8 6.2 2.4 2.2 4.8 4.4 7.3 6.6 2.9 2.5 5.8 5 8.7 7.6 1.8 1.6 3.4 3.3 5 5.1.2.3.4.5.6.8 3.1 7.1-2 14.5-8.6 16.1-3.6.9-7.5.1-10.9-3.3" class="st2"/><path d="M100.7 307.5c-4.8-.5-7.4-4.5-10-7.9-6.5-5.1-12.1-11.2-18.7-16.3-5.3-4.8-14.3-4.1-17.9-10.8-3.2-5.5-1-13.1 4.7-16.1.1-.1.3-.1.4-.2.3.1.6.2.8.3 1.3.4 2.5.8 3.8 1.1l9 8.1c2.4 2.2 4.8 4.4 7.3 6.6 2.9 2.5 5.8 5 8.7 7.6 1.8 1.6 3.4 3.3 5 5.1.9 1.1 1.8 2.2 2.6 3.4.2.4.4.6.6 1 .3.4.5.8.8 1.3 1.1 1.9 2.2 3.9 3.3 5.7.3.5.6 1 .8 1.5.3.6.6 1.1 1 1.7.1.6.2 1.3.6 1.8 1.1 1.8 2.2 3.5 3.4 5.3-.6.2-1.1.4-1.6.5-1.5.5-3 .6-4.6.3" class="st2"/><path d="M109.8 338.2c-7-4.1-8-20.6-12.4-28.4-3.9-8.4-10-15.4-16.6-21.8-3.2-3.2-6.4-6.5-10-9.3-3.8-1.4-7-4.3-7.9-8.6-1-4 .3-8.1 2.9-10.9 2.4 2.2 4.8 4.3 7.2 6.6 2.4 2.2 4.8 4.4 7.3 6.6 2.9 2.5 5.8 5 8.7 7.6 1.8 1.6 3.4 3.3 5 5.1.9 1.1 1.8 2.2 2.6 3.4.2.3.4.6.6.8.3.5.6.9.8 1.4 1.1 2 2.2 4 3.4 6 .2.4.5.8.7 1.3.3.6.6 1.1 1 1.7.1.6.2 1.3.6 1.8 1.5 2.3 2.9 4.6 4.5 6.9l1.8 2.7c.2.4.4.6.6.9l.9 1.5c.6 1 1.3 1.9 1.9 2.8q1.2 1.95 2.7 3.9c1.3 1.8 2.7 3.7 4.1 5.5 2 2.7 4.1 5.4 6.1 8.1.1.1.1.1.2.3-1.8 2.7-4.6 4.8-7.8 5.5s-6.3.4-8.9-1.4" class="st2"/><path d="M129 360.1c-16.8-1.8-25.4-38.4-35.1-51-4-6.5-9-12.3-13.1-18.8-3.2-6-1.1-11.5 2.9-14.7 1.8 1.5 3.4 3 5.1 4.6 1.8 1.6 3.4 3.3 5 5.1.9 1.1 1.8 2.2 2.6 3.4.2.4.4.6.6 1 .3.4.5.8.7 1.3l3.3 5.7c.3.5.6 1.1.8 1.5.3.6.6 1.1 1 1.7.1.6.2 1.3.6 1.8 1.5 2.3 2.9 4.6 4.5 6.9l1.8 2.7c.2.4.4.6.6.9l.9 1.5c.6 1 1.3 1.9 1.9 2.8q1.2 1.95 2.7 3.9c1.4 1.8 2.7 3.7 4.1 5.5 2 2.7 4.1 5.4 6.1 8.1 1.1 1.5 2.2 3.1 3.3 4.6l3.6 5.1c1.5 2.1 3.2 4.2 5 6 .8.8 1.8 1.7 2.7 2.5-1.3 3.8-4.6 6.7-8.6 7.7-.9.1-2 .3-3 .2" class="st2"/><path d="M185.1 397c-22.6-4.4-41.4-18.4-58-33.7-8.3-6.9-16.8-13.7-23.6-22.2-8.8-11.8 2.8-23.1 12.3-20.9 1.3 1.8 2.7 3.6 4 5.5 2 2.7 4.1 5.4 6.1 8.1 1.1 1.5 2.2 3.1 3.3 4.6l3.6 5.1c1.5 2.1 3.2 4.2 5 6 1.8 1.9 3.9 3.6 6.2 4.9 2.5 1.5 5.1 2.7 8 3.2.6.1 1.1.1 1.6 0 .7-.1 1.4-.6 1.9-1.1 3.8 3.2 7.7 6.1 12.1 8.3 6 3.2 12.1 6.5 18.8 8.1 3.9.7 7.7 1.8 10.1 5.2 5.3 6.7.7 16.8-6.9 18.7-1.4.5-2.9.5-4.5.2M165 485.2c-1.2.1-2.5.1-3.6.1-.7 0-1.4.1-2.2.1h-4.1c-2 0-4-.1-6-.1-.7 0-1.4-.1-2.1-.1-11.6-2.4-23.1-5.5-34.4-9.3-20.3-8-39.6-18.4-57.7-30.6-5.7-4.3-11.9-8.6-17.8-13.1 0 0 0-.1-.1-.1-.6-.7-1.1-1.5-1.6-2.2l-3-3.9c-.8-1.1-1.7-2.2-2.5-3.3-.8-1.2-1.7-2.4-2.6-3.6-.1-.2-.3-.4-.4-.6-.4-.6-.8-1.2-1.3-1.8-.5-.9-.9-1.9-1.3-2.9-1.5-3.3-3.1-6.5-4.6-9.8s-3-6.6-4.6-9.9c-.4-.9-.8-1.8-1.3-2.7 4.8-6.7 16.6-7.9 20.8 2.3 1.5 5.7 5.7 9.9 9.8 13.9 22.2 18.9 47.5 34.3 74.5 45.4 14 4.8 28.5 8.4 43.1 10.8 11.3 2.1 12.2 15.2 5.5 20.9-.7.4-1.6.4-2.5.5M15.7 409.5h.1c.2.4.4.8.6 1.3-.2-.4-.4-.8-.7-1.3" class="st2"/><path d="M176.3 483.3c-.1 0-.3.1-.4.1h-.1.1c-.1 0-.1 0-.2.1h.1c-.1 0-.1 0-.2.1h.1c-.8.2-1.8.4-2.7.6h.1-.2c-.2.1-.4.1-.7.1h.1c-.7.1-1.3.2-2 .4-.5.1-1.1.2-1.5.3-1.3.1-2.5.3-3.9.4-1.2.1-2.5.1-3.6.1-.7 0-1.4.1-2.2.1H155c-2 0-4-.1-6-.1-2-.1-4.1-.1-6.1-.2-1.3-.1-2.5-.1-3.8-.1-.9-.1-1.8-.1-2.7-.1-9.8-2.2-19.6-5.2-29-8.5-2.9-1-5.5-2.9-6.9-5.6-5.3-8.8 4.1-20.4 13.8-17 38.2 14 63 15.2 99.6-4.5 3.6-1.8 7.2-3.6 10.9-5 14.6-5.3 22.9 16.1 8.6 22.1-3.2 1.5-6.4 3-9.5 4.6-1.5.5-2.9 1-4.4 1.5-1.6.5-3.2 1-4.8 1.4-1.4.4-2.9.8-4.3 1.2-1.3.4-2.6.7-3.9 1.1-.5.1-.9.4-1.3.7-.2.1-.4.1-.6.1-3.1.7-6.2 1.3-9.3 2-3.3.8-6.6 1.5-9.8 2.5h.1c-.7.2-1.3.4-2 .6-.4.1-.6.2-1 .3-2.2-.1-4.3.3-6.3.7" class="st2"/><path d="M210.1 474.9c-.1 0-.1 0-.2.1.1-.1.1-.1.2-.1m-33.6 8.4h.1c0-.1 0 0-.1 0" class="st2"/><path d="M176.3 483.3c.1 0 .2-.1.4-.1-.2.1-.5.1-.7.1h.1-.4.1l-2.7.6h-.1c-.2.1-.4.1-.7.1h.1c-.7.1-1.3.2-2 .4-.5.1-1.1.2-1.5.3-1.3.1-2.5.3-3.9.4-1.2.1-2.5.1-3.6.1-.7 0-1.4.1-2.2.1h-4.1c-2 0-4-.1-6-.1-2-.1-4.1-.1-6.1-.2-1.3-.1-2.5-.1-3.8-.1-.6 0-1.1-.1-1.6-.1-2.7-.6-5.3-1.3-8-2.2-9.5-2.6-18.6-6.2-27.1-11-5.9-2.6-9-9.8-6.2-15.8 3.2-7.4 12.8-8.9 18.9-4.2 7.9 4.2 16.3 7.2 25 9.3 13.4 3.9 27.1 2.1 40.4-1.3 11-2.5 21.9-5.8 32.2-10.4 3.6-1.8 7.4-3.5 10.1-6.6 5.5-7 13-14.6 21.9-7.7 8 6.9 3.9 15.8-2.8 21.8-3.4 4.1-7.6 7.7-12.3 10.4q-5.4 3-11.1 5.4c-1.3.4-2.7.8-4 1.2-1.4.4-2.9.8-4.3 1.2h-.3c-1.3.4-2.5.6-3.8 1-.5.1-.9.4-1.3.7-.2.1-.4.1-.6.1-3.1.7-6.2 1.3-9.3 2-3.3.8-6.5 1.5-9.8 2.5-.6.2-1.3.4-2 .6-.4.1-.6.2-1 .3-1.8.4-3.9.8-5.9 1.2" class="st2"/><path d="M210 474.9s-.1 0-.1.1c0-.1.1-.1.1-.1m-34.1 8.5q.15 0 0 0m51.2-24.3c-4.3-3.5-5.6-9.8-3.4-14.9 2.7-5.4 8-8.8 10.7-14.2 2.7-5.7 4.6-11.8 7-17.6 2.5-8.5 4.4-17.4 15.6-16.1 17.2 4.2 6.8 23.6 2.7 34.4-2.5 7.4-6.1 14-10.9 20.1-3.6 8.3-13.6 14.9-21.7 8.3" class="st2"/><path d="M241.4 442.9c-12.1-6.3-5-16.8-1.8-26.1.4-2.9-.6-6-.9-8.9-.9-6.4 4.4-12.3 10.7-13 16.6-1.1 15.8 23.6 11 34.1-3 9.1-8 18.1-19 13.9" class="st2"/><path d="M233.7 461.7c-6.4-.1-11.8-5.9-11.4-12.3.1-7 7-10.4 10.6-15.6 2.8-3.9 2.9-8.8 3.9-13.4 1.3-6 2.2-12 .5-17.9-21.7-18.8 12.2-38 21.3-11.4 3.6 5.4 6 11.8 6.4 18.4.1 3.4-.4 6.7-1.3 10-1.1 4.6-4.6 8.2-5 12.9-1.3 9.5-14.5 29.9-25 29.3" class="st2"/><path d="M241.2 445.5c-11.9-4.5-8.3-15-4.7-24.2 2.7-6.2 4-12.8 3-19.6-3.6-4.5-7.5-9.3-9.2-14.8-2.5-9.5 8.2-17.8 16.9-13.5 8.3 5.1 17.5 13.4 20.2 23.1 2 8.8-.8 28.5-8.8 33.5-2.3 8.6-6.4 18.5-17.4 15.5M48.4 335.8c-7.4 1-13.7-5-15.4-11.8-2-6.2-4.4-14 .4-19.6 10.1-10.9 23-2.5 24.1 10.7 7.8 8.1 1.7 20.3-9.1 20.7m24.5-47.2c-.8-3-2.7-5.3-5.8-6-7.6 4-16.5 4.2-24.8 5.6-8.2 2.2-19.1-1.2-20.1-10.8-.1-12 11.1-20.1 23.3-22.6.8.4 1.6.4 2.5.4.6 0 1.1-.1 1.6-.1.8-.1 1.7-.1 2.5-.2 1.5-.1 2.9-.4 4.3-.6.8.1 1.8.2 2.6.4.7.1 1.4.1 2 .2 3.3.8 6.3 2 8.8 3.9 11.5 2.9 21.5 9.7 25 21.5 2.9 8.1-2.3 14.2-8.6 15.7-4.8.9-10.6-1-13.3-7.4" class="st2"/><path d="M85.2 306.8c-4.8-8-8.2-17.2-14.7-23.9-5-2.8-10.4-4.6-15.4-7.2-4.3-.9-8.1-4.3-9.1-8.8s.8-9.3 4.3-12.1c.7-.1 1.4-.1 2.1-.1 1.5-.1 2.9-.4 4.3-.6.8.1 1.8.2 2.6.4 2 .2 3.9.4 6 .5.7.1 1.4.1 2.1.1 3.9 1.8 7.7 4 11.5 5.4 14.2 6.5 19.8 22.3 27.3 34.9 4.3 8.3-1.3 15.6-8 17.2-4.8 1.1-10-.4-13-5.8" class="st2"/><path d="M116.5 353.4c-6.9-1.1-10.2-8-12.1-14-2.2-6.6-4.8-13-7.6-19.3-2.7-5.5-5.3-10.9-8.5-16.1-2.2-3.3-4.6-6.7-5.4-10.7-2.2-10.3 7.4-16.1 14.9-14 .8 1.6 1.7 3.2 2.6 4.7 1.9 3.2 3.9 6.4 5.7 9.6.8 1.5 1.5 3.1 2.4 4.6.9 1.8 1.9 3.4 3 5.1 1.5 2.2 3.3 4.2 5.3 6 .6.6 1.3 1.2 2 1.8 2.8 6.2 5.3 12.6 7.5 19 .6 1.5 1 3 1.7 4.4 5.5 6.7.7 16.8-6.9 18.7-1.4.5-3 .5-4.6.2" class="st2"/><path d="M89 305.8c-3.4-.8-6-3.3-8.2-5.9-3.4-1.1-6.3-3.2-7.9-6.6-3.4-2.6-7.3-4.6-10.9-7.1-21.8-2.2-19.6-30.8.6-31.5.8.1 1.5.1 2.3.1 2 .1 3.9.3 5.9.3h1.8c.1.1.4.1.6.1 1.3.4 2.5 1 3.8 1.5-.1 0-.1-.1-.1-.1 2.2.9 4.3 1.9 6.5 2.8.1 0 .1.1.1.1.4.3.7.6 1 .8 1.3 1 2.5 2 3.6 3.1l.6.6c2 2.2 3.9 4.6 5.5 7 0 .1.1.1.1.1 0 .3 0 .6.1.8.3 1.1.8 2 1.4 2.8.6 1.4 1.3 2.8 2 4.2.9 1.7 1.8 3.4 2.7 5 1.5 2.5 3.1 5 4.5 7.5.6 6.6-3.2 12.8-9.5 14.3-1.9.6-4.1.6-6.5.1" class="st2"/><path d="M244.2 403.9c-6.9 1.9-11.4-4.3-17-7.1-1.1.7-2.4 1.3-3.7 1.5-11.3 10-24.1-4.2-35.3-7.3-10.9 3.9-20.4-8.1-28.7-13.6-5.7-3.2-10.9-7.1-15.8-11.4-3.5-3.1-8.3-5.3-9.5-10.2-12.7-11.7-25.6-23.1-37.9-35.1-7-7.1-18.4-13-17.8-24.4-6.7-12.8 11.4-24 20.1-12.5 2 2.9 4.3 5.6 6.7 8.1.4.6.6 1.1 1 1.8.8 1.5 1.5 3.1 2.4 4.6.9 1.8 1.9 3.4 3 5.1 1.5 2.2 3.3 4.2 5.3 6 1.3 1.3 2.7 2.5 4 3.8 1.1 1.2 2.1 2.3 3.1 3.5 1.1 1.2 2.2 2.2 3.4 3.3 1.3 1.3 2.8 2.4 4.3 3.4.1 0 .1.1.1.1.7.7 1.4 1.4 2.2 2 .9.8 1.8 1.8 2.8 2.6.4.4.8.8 1.3 1.2 1.7 1.4 3.4 2.7 5 4.1.4.3.7.6 1.1.8 1 .7 2 1.4 2.9 2.1.8.6 1.5 1.1 2.2 1.6.5.4 1 .6 1.5 1l3.3 2.1c.6.4 1.1.7 1.6 1.1 1.3.7 2.6 1.5 3.9 2.2 2.4 1.8 4.7 3.7 7 5.6 1.6 0 3.2.1 4.8.4.8.3 1.6.6 2.5.8 1.2.4 2.4.6 3.6.9 1.8.4 3.4.8 5.2 1.1.1 0 .4.1.5 0 .1.1.1.1.3.1.8.4 1.8.8 2.7 1.2.4.1.7.3 1.1.4.6.2 1.1.4 1.6.6 2.1.8 4.3 1.5 6.6 2 .1 0 .4.1.5.1 1.8.6 3.4 1.1 5.2 1.6 10.1 2 21 3.5 29.3 10.2 4.2.8 8.3 2 11.8 4.6 8.7 2.8 18.6 11.2 15.7 21.2-1.2 4.1-4.8 7.2-8.9 8.2-1.9.8-3.5.8-5 .6" class="st2"/><path d="M231.6 388.3c-1.1-1.8-3.3-2.5-5.2-2.7-11.8 8.4-25.1-7.2-15.8-17.9 9.2-9.8 26.3-6.2 35.6 1.8 21 17.5-4.2 37.9-14.6 18.8" class="st2"/><path d="M254.3 405.3c-4.8-.1-9.3-3.4-10.7-7.9-5.6-5.5-10.6-10.8-18.5-12.1-3.5-.7-7.2-1.5-10.8-1.3-6 2.2-13.3-.5-15.6-6.7-5.7-25.7 35.5-16.8 47.7-8.6 6.9 5.4 14.6 10.9 18.8 18.7.1.5.4 1 .5 1.5.2.7.5 1.3.8 2v.1c1.1 6.2-2.8 12.8-8.9 14.2-1.1.1-2.1.1-3.3.1" class="st2"/><path d="M223.5 466.3c-3.1.1-6.3-1.5-8.5-3.9-2.7-.6-5.6-1.8-7.5-3.9-5.2-5.1-4.1-14.5 2.2-18.3 2.1-4.3 6.8-5 10.7-6.5 4.2-1.7 7.3-5.5 11.4-7 1.5-2.4 3.4-4.3 6.1-5.3l1.8-.6c-.1-4.2 1.5-8.1 2.2-12.2-.2-3 .1-6.2 1.8-8.8 6-9.9 21.3-5.7 22.2 5.6.7 6.5-.9 13-1.6 19.5-1 5.9-.1 13.1-5.7 16.9-4 2.7-5.5 7.9-8.6 11.5-3.9 5.4-10.4 7.5-16.4 9.7-3.2 1.9-6.5 3.3-10.1 3.3m-47 16.5c-4.8.6-9.5 1.7-14.1 2.7-.7 0-1.5.1-2.2.1-1.5.1-3.1.1-4.6.3-.4 0-.6.1-1 .1h-.1c-.6.1-1.1.1-1.7.1-.9.1-1.8.2-2.7.4-.5.1-1 .1-1.4.3-.1.1-.4.1-.5.1-13.6-.5-26.8-5-39.8-8.6-13.9-6.6-4.8-27.1 9.5-21.8.7-.4 1.5-.6 2.2-.8 4.2-1 8.4.4 11.3 3.4 15.4.6 31.2 3.9 46.3-.6 9.7-10.2 20.3-3.4 21.3 5.7.8 6.7-3.7 14.7-17.6 17.9-1.4.1-3.1.4-4.9.7m-18.2 3h.2z" class="st2"/><path d="M198.1 482.5c-2.2.6-4.6 1.1-6.9 1.5h-.1c-1.1.1-2.2.2-3.2.4-1.4.1-2.9.2-4.3.3-2.1.1-4.1.2-6.2.3-2.3.1-4.6.1-6.9.2-3.4.1-6.8.2-10.2.4-1.5.1-3.1.1-4.6.3-.4 0-.6.1-1 .1h-.1c-.4 0-.8.1-1.3.1-4.5-.5-8.9-1.2-13-3.2-10.9-3.4-13.3-19-2-23.5 3.2-1.3 7-1.3 10.4-1.7 8.2-1.1 19.4-5.4 24.3 4 8.1-.8 15.8-3.3 23.3-6.4 6.9-3 12.3-10.7 20.7-6.9 2.8-4.2 5.3-8.6 8.8-12.2 1.2-5.1 6.1-9.2 11.4-9.1 1.5-10.4 13.3-15.7 21.4-8.6 6.2 5.5 5.3 14.9 2.9 22.4-.1.1-.2.4-.3.5-.8 1.7-1.8 3.4-2.6 5-.1.1-.1.2-.1.4l-.2.2c-.5.5-.9 1-1.4 1.5-1.1 1.1-2.1 2.2-3.2 3.3-.7.8-1.4 1.5-2.1 2.2-.1.1-.2.1-.3.2s-.1.2-.2.3l-.4.4c-.8.9-1.8 1.8-2.7 2.8-1.1 1.1-2.2 2.1-3.4 3-3.9 3-8.1 5.6-12.3 8.3-.8.4-1.5.8-2.3 1.3 0 0-.1 0-.1.1-1.4.7-2.9 1.5-4.3 2.2.1 0 .1-.1.1-.1h-.1c-.3.1-.6.3-.8.4-1 .4-2 .8-2.9 1.3-.8.4-1.5.7-2.2 1-.3.1-.6.3-.9.4-2.2.8-4.5 1.7-6.7 2.6.1 0 .1 0 .1-.1-2.5.8-4.9 1.8-7.4 2.5-.7.2-1.4.4-2 .6-1.3.4-2.6.6-3.9 1-.3.2-.5.2-.8.3m-14.5 2.2h.1zm47-14.7" class="st2"/><path d="M234.6 446.6c-3.8-5.2-2.7-12.8 2.5-16.5 1.7-1.5 4.3-2.3 5.3-4.3 2.7-9.3.6-19.3 14-20.1 16.9 1.6 11.4 23.6 5.6 33.7-5.8 8.2-19.2 17.9-27.4 7.2" class="st2"/><path d="M241.7 440.4c-.9-3.8.2-7.6 2.6-10.4 1.3-4.8 2-9.8 3.2-14.7.4-1.5 1.1-2.9.9-4.6 0-6.5 6-11.6 12.3-11.4 4.3.1 7.4 2.2 9.2 5.2.1.4.2.8.4 1.3-.1 2-.4 4.1-.4 6.2-.1 2.2 0 4.5.1 6.8 0 .8 0 1.7-.1 2.5v.1c-.1.2-.1.5-.1.7-.8 2.8-1.6 5.5-2.5 8.3-.2.6-.4 1.3-.6 2-.3.3-.5.6-.8.9-.4.6-.8 1.2-1.1 1.8-.4.8-.8 1.5-1.3 2.3-.8 1.5-1.5 2.9-2.3 4.3-.8 1.7-1.8 3.4-2.6 5-.1.1-.1.2-.1.4l-.2.2c-.5.5-.9 1-1.4 1.5l-.4.4c-.2.1-.4.1-.6.1-5.8 1.1-11.7-1.3-14.2-8.9" class="st2"/><path d="M250.6 430.4c-8.1-9.5 1.5-13.3-1.5-21.1-6-6.4-9.3-15.2-1.3-21.5 7.9-5 14.7-1 19.4 5.7.1.3.1.6.2.9.4 1.6.8 3.3 1.2 4.9.6 2.1 1.1 4.2 1.6 6.4-.1 2-.4 4.1-.4 6.2-.1 2.2 0 4.5.1 6.8 0 .8 0 1.7-.1 2.5v.1c-.1.2-.1.5-.1.7-.8 2.8-1.7 5.5-2.5 8.3-.1.3-.1.6-.3.8-1.5 1.3-3.3 2.3-5.2 2.7-3.5.8-7.3-.1-11.1-3.4m-110.4-74.7c-9.8-.6-13.3-11.9-19.4-18-11.3-11.2-22.3-22.7-31.4-35.8-9-14-1-23.7 7.4-24.3.3.5.6 1.1.8 1.5.9 1.7 1.8 3.4 2.7 5 1.9 3.2 3.9 6.4 5.7 9.6.8 1.5 1.5 3.1 2.4 4.6.9 1.8 1.9 3.4 3 5.1 1.5 2.2 3.3 4.2 5.3 6 1.3 1.3 2.7 2.5 4 3.8 1.1 1.2 2.1 2.3 3.2 3.5s2.2 2.2 3.4 3.3c1.4 1.3 2.8 2.4 4.3 3.4.1 0 .1.1.1.1.7.7 1.5 1.4 2.2 2 .9.8 1.8 1.8 2.8 2.6.4.4.8.8 1.3 1.2 1.7 1.4 3.4 2.7 5 4.1.4.3.7.6 1.1.8 1 .7 2 1.4 2.9 2.1.8.6 1.5 1.1 2.2 1.6.5.4 1 .6 1.5 1 .3.1.6.4.8.6 2.7 6.6-1.8 14.2-8.3 15.8-.9.4-2 .5-3 .4" class="st2"/><path d="M189.6 379.3c-15.6-4.8-30.6-12.2-43.3-22.6-19.8-12.9-35.5-30.1-52.2-46.2-6-4.7-10.4-13.3-4.8-20.1 3-3.7 8.2-5.3 12.8-3.9 1.4 2.4 2.9 4.7 4.2 7.1.8 1.5 1.5 3.1 2.4 4.6.9 1.8 1.9 3.4 3 5.1 1.5 2.2 3.3 4.2 5.3 6 1.4 1.3 2.7 2.5 4 3.8 1.1 1.2 2.1 2.4 3.2 3.5 1.1 1.2 2.2 2.2 3.4 3.3 1.4 1.3 2.8 2.4 4.3 3.4.1 0 .1.1.1.1.7.7 1.5 1.4 2.2 2 .9.8 1.8 1.8 2.8 2.6.4.4.8.8 1.3 1.2 1.7 1.4 3.4 2.7 5 4.1.4.3.7.6 1.1.8 1 .7 2 1.4 2.9 2.1.8.6 1.5 1.1 2.2 1.6.5.4 1 .6 1.5 1l3.3 2.1c.5.4 1.1.7 1.5 1-.1 0-.1-.1-.1-.1.1 0 .1.1.1.1.1 0 .1.1.1.1s-.1 0-.1-.1c1.6.9 3.3 1.9 4.9 2.8 2.3 1.3 4.7 2.7 7.2 3.9 2 .9 4 1.8 6 2.3 1.2.4 2.4.6 3.6.9 1.8.4 3.4.8 5.2 1.1.1 0 .4.1.6 0 .1.1.1.1.3.1.8.4 1.8.8 2.7 1.2.4.1.7.3 1.1.4.6.2 1.1.4 1.6.6 2.1.8 4.3 1.5 6.6 2 .8.1 1.6.3 2.5.4l1.8.3c.1 0 .4.1.5.1 8.3 5.7 5 19-4.1 21.2-2.3.8-4.4.8-6.7.1" class="st2"/><path d="M139.1 487.5c-7.6.5-14.7-3.2-22-4.6-2.6 1.4-5.3-.8-7.9-.9-3.9-.8-7.9-2-11.1-4.5-2-1-4.2-1.1-6.3-1.8-2.9-.8-5.3-2.9-7.7-4.6-4.6-2.2-9.5-4.2-13.5-7.6-2.9-3-6.8-4.6-10.2-6.9-2.5-1.8-4.3-4.3-6.8-6.2-2.7-1.9-5.3-3.8-7.6-6.1-5.6-6-9.7-13.4-16.3-18.5-3.6-4.3-5-10.2-8.8-14.6-2.4-3.4-5.1-6.7-6.9-10.6-1.3-3.1-2.5-6.3-3.9-9.4-2-7.2-4-14.2-6.2-21.3-.9-4.7 6.1-6.7 7.6-2 1.7 5.5 3.6 11.1 5.7 16.5 2.7 6.5 7.2 11.8 10.4 17.9 2.7 5.4 5.3 10.8 8.3 16 2.6 3.8 6 7 9 10.4 3.6 3.8 5.7 9.1 10 12.2 5-.8 8 5.7 11.8 8.1 1.8 1.3 3.6 2.5 5.3 3.8 3.5 2.2 5.6 6.2 9.7 7.4 4.4-3.2 10 3 14.2 4.4 3.3 1.8 6.7 2.9 10 4.6 3 .8 6.2 1.2 9 2.7 3.1 2 6.8 2.5 10.3 3.5 4.6 2.1 9.8 2.2 14.6 3.8 4.3 1.3 4.3 7.2.1 8.1-.3.1-.5.2-.8.2" class="st3"/><path d="M171.5 486.4c-5.9 1.3-12 1-17.9 1.1-6.3 2-13 .5-19.4-.2-7-.4-14-2.1-20.5-4.3-3.2-1.3-8.9-2.2-7.2-6.9-1-2.5.8-5.3 3.4-5.4 2.2-.1 4 1.4 5.7 2.5 2.7 1.5 6.1 1.3 9.1 2 6.5 1.3 13 3.2 19.6 3.5 4.2.4 9.3-1.5 13 1.1 4.2-.1 8.6 0 12.7-.9 5-.9 6.5 6.5 1.7 7.7-.1-.3-.2-.3-.2-.2" class="st3"/><path d="M199.7 481.1c-3.7.9-7.4 1.7-11.2 2.4-7.2 1.4-14.6 2.1-21.9 2.5-6.2-.1-12.8 1.3-18.8-.3-5.7-2.9 1.1-11.2 5.5-7.2 15.1.1 30.2-1.3 44.9-5 5-1.1 6.5 6.4 1.5 7.6.1 0 0 0 0 0" class="st3"/><path d="M190.8 483.8c-6.4 1.3-39.8 6.8-42.6 1.4-3.4-4.3 3.9-10.4 7.1-5.6 18.9 0 37.7-3.2 55.5-9.4 2-.7 4.3.4 5 2.5.7 2-.4 4.3-2.5 5-5.5 1.9-11.1 3.6-16.7 4.9-1.9.4-3.8.8-5.8 1.2" class="st3"/><path d="M198.6 481.9c-8.3 1.5-16.7 4.1-25.2 3.2-5.1-.5-4.6-8.2.6-7.9 6.5.8 12.9-1.2 19.3-2.3 5.5-1.1 10.9-2.4 16.1-4 6.3-2 12.5-4.3 18.7-6.6 2-.7 4.3.5 5 2.5.7 2.1-.4 4.3-2.5 5-9.3 3.6-18.6 6.9-28.2 9.3-1.2.3-2.5.6-3.8.8" class="st3"/><path d="M183.5 484.4c-5.6 1.9-8.5-6-2.7-7.6 8.6-1.1 17-2.4 25.3-4.9 5.1-1.5 10.2-3.4 15.2-5.3 2-1.3 5-1 6.2 1.3 2.5 6.5-8.5 7.2-12.5 9.3-4.4 1.5-8.9 2.9-13.5 3.9q-9 2.25-18 3.3M73.3 459.8c-5.8-4.8-12.8-8.1-18.8-12.8-3.4-2.8-12.9-6-8.1-11.6 1.8-1.7 4.4-1.1 6 .7 6.2 4 12.2 8.4 18.5 12.3 2.7 1.5 5.3 3.3 7.6 5.4 2.7 2.5.8 6.2-1.8 6.9-1.1.3-2.3 0-3.4-.9" class="st3"/><path d="M72.3 460.4c-9.3-7-18.8-13.9-27.9-21.2-3.9-3.4 1.3-9.3 5.2-6 9 7.4 18.7 14.2 27.9 21.2 2.7 2.5.9 6.2-1.8 6.8-1.1.4-2.3.2-3.4-.8" class="st3"/><path d="M78.5 464.8c-5-2.9-9.3-6.8-14.5-9.4-4.6-2.3-1.1-9.3 3.5-7.1 5.5 2.7 10.1 6.7 15.4 9.9 3.2 2.2 1.5 6.5-1.4 7.2-.9.2-2 .1-3-.6M7.3 362.2c-2.1.4-4.3-1-4.6-3.1-.6-3.2-2-7.9 2.4-8.8 2.1-.4 4.3 1 4.6 3.1.6 3.1 2 7.9-2.2 8.8-.1-.1-.2-.1-.2 0" class="st3"/><path d="M6.3 375.6c-3.6-9.2-5-19.1-5.8-29-.3-5.1 7.5-5.6 7.9-.4.2 2.5.4 5 .7 7.6 1.1 6.5 2.1 13.2 4.7 19.3.8 2.6-.8 4.6-2.9 5-1.7.4-3.7-.3-4.6-2.5" class="st3"/><path d="M10 374.3c-6 .9-5.4-8.6-6.7-12.5-1.1-5.4-1.8-10.9-2.5-16.3-.4-2.7-.5-5.3-.7-8-.3-5.1 7.5-5.6 7.9-.4.6 6.9 1.3 13.9 2.5 20.8.8 4 1.6 7.9 2.6 11.8.5 2-1 4.1-2.9 4.6z" class="st3"/><path d="M4.4 342.7c-4.4.1-4.5-4.8-4.3-8.1.1-3.3 0-8.6 4.6-8.3 4.8.6 3.4 5.5 3.3 8.8.3 2.9.6 6.7-2.7 7.5-.4 0-.6.1-.9.1m5.9 43.2c-3.7-6.2-4.3-13.7-6-20.7-.9-5 6.7-6.6 7.7-1.5 1.2 5.7 2.2 11.5 4.3 17 .5.8 1 1.8.8 2.8-.1 1.8-1.5 3.2-3.1 3.5-1.3.4-2.7.1-3.7-1.1m107.8-62.7c-3.2-6.3-15.4-15.5-14.5-22.1.9-4.4 7.6-3.9 7.8.6 2.2 3.4 5 6.3 7.5 9.5 2 2.5 4.1 4.9 5.7 7.6 1.8 2.7-.1 5.5-2.5 6-1.3.4-2.9 0-4-1.6" class="st3"/><path d="M207.5 366.5c-3.2-.5-5.8-2.7-9-3.2-5.5-.6-10.7-2.5-16.3-2.7-3.4-.3-6.5-1.8-9.1-3.9-7.5-1.1-14.4-4.2-21.1-7.7-5.4-3.4-11.4-5.7-16.5-9.5-1.4-1.1-2.2-2.6-3.1-4.1-1.2-1.1-2.7-1.8-3.9-2.8-6-4.6-11.3-10.1-15.5-16.5-4.9-5.4-10-10.9-12.7-17.7-1.6-3.8 3.2-7.6 6.3-4.6 3.4 3.6 6.2 7.9 9.7 11.4 3.6 3.9 6.7 8.1 9.9 12.2 2.9 1.8 5.6 4 8.4 6.1 3.4 3.3 6.6 6.6 10.8 8.8 4.1 3.1 8.1 5.7 12.6 8.1 1.2.8 2.4 1.6 3.4 2.5 1.5.3 2.8.8 4.1 1.6 2.5 2 5.4 2.9 8.4 3.9 3.3.8 5.3 4.1 8.8 4.3 6.3.3 12.3 2.4 18.5 3.1 3 .7 5.6 2.7 8.7 3.2 4 1.4 2.9 6.8-.4 7.6-.4.2-1.2.2-2-.1" class="st3"/><path d="M87.3 467.9c-2.1.4-4.3-1-4.6-3.1-.8-4.5-1.5-9-1.4-13.6.2-9.2 4.6-11.4 7.8-18.3.6-4.8 3.6-8.8 5-13.3-.1-6-1.5-9.1 2.7-14.3 2.7-4.9 8.3-6.9 11.6-11.3 4.3-4.1 9.8-6.6 13.3-11.6 6.7-7.4 3.7-7.8 6.9-15.4 2.3-3.9 5.3-7.2 7.4-11.2 1.7-4.7 4.1-9.1 7.4-12.9.3-4.7 7.4-5 8.1-.4.5 4.2-3.9 6.7-5.5 10.2-1.3 2.2-2.1 4.7-3.2 7.1-2.1 3.8-4.8 7.2-7.3 10.9-1 2-.8 4.1-1.3 6.2-1.2 4.9-5 8.5-8 12.3-4.3 5.4-10.9 8.2-15.3 13.5-3.6 2.6-7.1 5.4-9.2 9.5 0 3.6 1.1 7.4-.4 10.9-.8 2.4-2.2 4.5-3.2 6.8-.9 2.4-1.1 5-2.2 7.4-2 4.2-6 7.4-6.5 12.3-.4 4.6.4 9 1.1 13.5.4 2-.9 4.1-2.9 4.6-.1.2-.2.2-.3.2" class="st3"/><path d="M130.7 479.7c-7.8-2.9 1.4-12.5 1.7-17.7.6-11.4-5.5-22.1-5.7-33.4-.4-6.5 1.8-12.8 2.1-19.2.2-2.8 1.3-5.5 1.8-8.2.4-2.7.4-5.3.9-7.9.9-5.3 4.8-9.7 5-15.1-.9-4.7-1.5-9.3.5-13.9 1-5.3 4.2-9.5 7.8-13.3 2-2.2 1.1-6.5 4.5-7.6 2.2-.8 4.8.7 5.2 3 .2 2.1-.8 4-1.5 6-2 4.8-7.2 7.6-8.1 12.9-2.9 6.5.6 10.4-.9 16.8-1 4.9-4.3 9.1-5 14.1-.4 6.8-2.6 13.2-3 19.9-.9 4.9-1.8 9.8-1.3 14.8 1.8 13.5 10.4 28.2 2.2 41.2-1.1 2.6-1.5 6.8-4.4 7.5-.5.3-1.1.3-1.8.1" class="st3"/><path d="M192.3 476.4c-2.9-1-3-4.2-2-6.7 1.1-3.9 1.5-7.9 1.1-11.9-1.4-6.5-5-12.1-6.5-18.7-1-2.8-3.2-4.8-4.6-7.4-1-2.1-1.1-4.6-2-6.7-1.3-2.8-3.9-4.7-5.1-7.6-1-2.2-1.8-4.4-2.7-6.7-1.5-4.3-5-7.6-6.7-11.8-2.5-4.4-2.9-9.5-.8-14 .8-1.9-.3-3.6-1.1-5.3-1.5-4.8-5.4-8.5-8.6-12.3-3.6-4.1-3.5-9.8-3.6-14.9-3.2-4.7 3.4-11.5 7.1-5.7 1.7 4.6 0 10 2 14.6 1.8 2.4 3.9 4.5 5.6 7 2.1 2.3 3.9 4.9 4.7 7.9 1.1 2.3 2.3 4.8 2.1 7.5-1.1 7.5-3.4 6.9 1.1 14.4 3.3 4.3 5.6 9.1 7.4 14.2 1 2.9 3.4 5 5 7.7 1.6 2.5 2 5.5 2.8 8.4 1.5 2.1 3.2 4.1 4.2 6.5 1.9 5.2 3.4 10.5 5.8 15.5 2 4.8 2.1 10.1 1.5 15.3-.7 3.4-1 9.7-4.6 10.6-.5.3-1.3.2-2.1.1" class="st3"/><path d="M245 451.8c-9.1-6.3-3.2-11.3-14.5-15.3-2.9-1.5-4.2-4.6-6.1-7.2-2.9-2.4-6.1-4.4-9.3-6.5-2.7-1.9-4-5-5.4-7.9-1.1-1.5-2.5-2.8-3.7-4.2-7.3-5.6-8.7-4.6-14-13.3-3-4.6-8.7-6.5-11.7-10.9-2-3.5-2.8-7.6-5.3-10.8-4.8-4.7-8.5-9.9-11.8-15.6-3.1-.1-4.3-3.2-3.6-5.9-1.8-2.5-.3-6.5 2.9-6.7 2.2-.1 4 1.7 4.5 3.7 2.9 4.6 5.6 9.1 8.7 13.5 6.5 6.5 8 9.3 11.4 17.7 1.4 1.8 3.7 2.6 5.4 4.1 4.1 3.2 7 7.6 10 11.8 4 3 8.7 5.2 11.7 9.3 2.8 2.3 3.3 6.2 5.7 8.6 2.5 1.4 4.8 3.2 7.1 4.8 3.3 1.8 5 5.2 7.2 8.1 3.1 1.4 6.4 2.8 8.8 5.4 2.1 2.3 3.1 5.3 4.1 8.1 1.1 1.1 2.2 2 3.3 2.9 2.7 2.5.9 6.2-1.8 6.9q-1.95.75-3.6-.6M25.9 412.1c-6.7-7.9 14.5-13.3 18.1-18 1.5-4.1 5-6.5 9.2-7.4 4.5-1.6 9.3-2.4 13.7-4.1C75.3 378 82.7 372 91.4 368c6.5-3 13.7-3.9 20.3-6.2 5.7-2.9 11.8-5.6 16.3-10.2 3-3.6 6-8 10.9-9.3 3.5-.4 9-2.7 10.2 2.2.4 2.1-1 4.2-3.2 4.6-9.5.4-9.1 6.5-16 11.3-5.6 4-11.8 7.5-18.2 9.7-6.7 2-14 3.1-20.1 6.7-6.1 2.7-11.2 7.1-17 10.4-6.6 4.8-15.1 4.9-22.4 8.3-2.9 7.4-11.3 9.7-17.6 13.5-1.9 1.2-3.5 3.6-5.5 4.1-.9.1-2-.1-3.2-1" class="st3"/><path d="M136.6 346.2c-4.8 0-10.6 2.2-14.7-1.5-8.8 2.3-17.3 7.1-26.6 7.6-3.6.3-7.2-.8-10.9-1-4.1.3-8.3-.1-12.5.2-5 .4-9.1 3.2-13.7 5-5 2.1-10.4 3.2-15.5 5.1-3.9 1.3-8 .8-11.9 1.7-8.6 3.9-11.4 2.8-20.1 2.6-12.6-.6-7.4-13.9-.7-8 8.5.2 10.4 1.5 18.5-2.1 3.6-1.1 7.5-.6 11.1-1.4 3.3-1 6.5-2.3 9.8-3 8.9-2.6 16.8-8.7 26.6-7.7 2.7.2 5.5-.1 8.2-.1 3.2-.1 6.2.9 9.4 1 7.6-.3 14.9-3.5 22.1-6.1 3.6-1.5 8.3-2.5 11.5.6 2 .4 4.1-.3 6-.4 2.6-.4 5.2-.1 7.7.5 2.1-.4 4.2 1 4.6 3.2.4 2.1-1.1 4.2-3.1 4.6-.1 0-.1.1-.2.1-1.9.1-3.7-.8-5.6-.9" class="st3"/><path d="M135.3 346.1c-4.8-2.7-9.5-5.9-14.5-8.3-3.2-.8-6.5.5-9.7.3-9.3-.4-17.9-3.5-26.8-6-4.8-2.2-10-3.6-14.7-6.2-4.8-2.9-8.1-8.4-13.7-10.1-6.2-1.1-11.6-4.3-17.4-6.5-2.9-2-6.5-2.7-9.4-4.6-1.6-1.3-2.6-3.2-4.4-4.3-5-1.8-10.6-2.6-14.7-6.1-3.8-3.4 1.3-9.3 5.2-6 1.5 1.1 3.6 1.5 5.3 2.5 6 1.3 10 2.8 13.8 7.7 2.9.9 5.7 2.4 8.4 3.8 3 .8 5.7 2.3 8.5 3.7 3.3 1.4 6.8 1.5 10 3.1 5 2.3 8.3 6.9 12.8 10 4.6 2.1 9.5 3.9 14.2 5.7 8.4 2 17 5.7 25.7 5 9.2-2.3 15.7 4 23.2 8.1 6.9-1.5 6 8 1.7 9-1 .4-2.2.1-3.5-.8m81 20c-3.5-.6-7.8.6-10.9-1.6-1.2-1.1-1.3-2.9-.3-4.1.9-1.1 2.7-1.3 3.9-.5 2.6.4 5.2.1 7.8.4 3.5.4 3.4 5 .6 5.7-.4.1-.7.1-1.1.1" class="st3"/><path d="M217.2 366.8c-3-.1-6-.3-9-.9-1-.2-1.9-.5-2.7-1.2-1.6-1.6-.7-4.6 1.5-5 .8-.1 1.5 0 2.1.4 2.7.6 5.6.7 8.4.8 3.5.4 3.4 5 .5 5.7-.2.2-.5.2-.8.2" class="st3"/><path d="M223.7 365.7c-3.4-.1-6.7.1-10 0-1.2.6-2.6 0-3.9-.1-2.7.1-4.3-2.9-2.5-5 1.5-1.6 3.8-.8 5.7-.8 3.7.3 7.5-.1 11.2.1 3.5.4 3.4 5 .5 5.7-.4.1-.6.2-1 .1" class="st3"/><path d="M227.1 367c-4.5-1.1-9.1-.7-13.5-1.8-3.7-.9-2.6-6.5 1.2-5.7 4.5 1.1 9.1.7 13.5 1.8 3.2.8 2.8 5 .1 5.7-.4 0-.8.1-1.3 0m3.2 103.3c-2.5-.4-3.2-4-1.1-5.3 2.3-.8 4.8-3.3 6.8-.6.8 1.3.6 3.2-.8 4.1-1.1.6-2.2 1.4-3.4 1.8z" class="st3"/><path d="M226.9 470.4c-1.1-1.1-1-3.2.3-4.1 1.2-.9 2.6-1.4 3.8-2.3 1.8-1 3.2-2.4 5-3.4 2.5-1.3 4.9-2.7 7.3-4.3 2.9-3.7 7.9 0 4.8 3.5-3.2 3.1-7.4 4.4-10.8 7.1-.8.6-1.7 1.1-2.6 1.7-1.4.8-3.2 2.3-4.8 2.7-1.1.2-2.1 0-3-.9" class="st3"/><path d="M245.9 461.5c-2.2.5-4.1-1.9-3.3-4 1.1-2.2 3.6-3.5 5.3-5.3 1.9-1.8 5-5.1 7.4-2.5 2.1 2.7-.6 4.5-2.7 6-1.5 1.5-3.2 2.9-4.8 4.3-.4.7-1.1 1.3-1.9 1.5" class="st3"/><path d="M251.4 455.8c-2.5-.1-3.6-3.6-1.7-5.1.6-.5 1.3-1 1.8-1.5 1-1.5 2.6-2.8 4.4-1.8 1.3.7 2.1 2.5 1.3 3.9-1.2 1.7-2.9 4-5 4.5-.2-.1-.5 0-.8 0" class="st3"/><path d="M254.2 449.9c-1.2-1.1-1.3-2.9-.3-4.1.2-.3.5-.5.7-.8 2.2-2.9 6.8.4 4.7 3.4-.6 1-1.6 1.9-2.7 2.1-.8.2-1.6.1-2.4-.6M101.5 298.5c-.2-.4-.4-.7-.5-1.1-2.3-.6-3.2-3.6-3.8-5.7-.6-1.2-1.3-2.5-1.3-3.8.1-1.9 2.2-3.2 3.9-2.5 1.8.7 2.3 2.7 3.3 4.2 1.7 2.7 6.6 8.5 1.4 10.2-1.2.1-2.4-.3-3-1.3" class="st3"/><path d="M104.6 299.6c-1.9.2-2.8-1.1-3.4-2.6-2.2-3.2-4.8-6.6-5.1-10.6-1.6-3.9 3.9-6.2 5.4-2.3.8 3.4 3.6 5.9 4.6 9.3 1.7 2.2 2.1 5.4-.9 6.1-.3 0-.5.1-.6.1M3.8 337.9c-1.5-.4-2-2.1-2-3.6-1.6-1.8-.8-4.7-.6-6.9.1-5.3.4-10.5 1.5-15.6.4-3.8 6-3.4 5.8.4-.5 3.6-.4 5.4-.6 8.6-.7 4.3 0 8.8-.3 13.1.4 1.8-.6 3.7-2.2 4.1-.5 0-1 0-1.6-.1" class="st3"/><path d="M2.2 334.3c-2.3 0-1.9-2.9-1.8-4.5.1-4.1.8-8.1 1.1-12.2.1-1.8.4-3.5.3-5.3.2-2.7.7-5.3 1.3-7.9.4-2.7.4-5.9 2.5-8 .5-.9 1.5-1.5 2.5-.9 1.1.6.7 2 .5 3-.5 2.6-1.1 5.1-1.3 7.7.1 3.3.5 6.7.1 10-.4 2-1.1 3.9-1.1 6-.3 2.4-.3 4.8-.7 7.2-.2 1.1-.4 2.4-1.3 3.2-.6.6-1 1.4-1.8 1.5-.2.2-.2.2-.3.2" class="st3"/><path d="M6.9 314.9c-1.5.1-1.8-1.5-1.6-2.7.1-4 .8-7.9 1.2-11.8.1-2.2.2-4.6.7-6.7.3-1.3 1.1-2.7 1.5-3.9s.6-2.4.9-3.6c.4-1.3 2.3-1.4 2.9-.1.2.4.1.9 0 1.3-.5 2.4-1.3 4.6-2.2 6.8-.6 2.7-.5 5.5-.8 8.3-.2 2.6-.8 5.1-.8 7.7-.4 1.5.6 4.3-1.4 4.8-.2-.1-.3-.1-.4-.1" class="st3"/><path d="M6.3 302.1c-2-.5-1.5-3-1-4.6.4-1.3.6-2.6.8-3.9.6-3.5 2.5-6.6 3.6-9.9.9-1.8 2.2-3.4 2.9-5.2.4-.8 1.3-1.1 2.1-.7 1.5.8.5 2.5 0 3.6-.6 1.4-1.7 2.5-2.2 3.9-.6 2-1.5 3.8-2.3 5.6-1.2 2.9-1.3 6-2.2 8.9.6.9-.1 2.1-1 2.3z" class="st3"/><path d="M8 299.1c-2.1 0-1.7-2.7-1.5-4.1.4-3.5 2.2-6.7 3-10.1.7-2.3 2.2-4.2 3.2-6.4.5-.8 1.1-1.4 1.8-1.9 1.8-1.1 3.4 1.5 1.7 2.6-1 .7-1.3 1.9-1.8 2.9s-1.2 1.8-1.7 2.9c-.4 1.1-.6 2.2-1 3.4-.9 2.8-2.3 5.5-2.3 8.5.2 1-.1 2-1.1 2.2-.1-.1-.2 0-.3 0" class="st3"/><path d="M6.2 303.2c-.6.4-1.4.4-1.9-.1-1.3-1.3-.4-3.4-.1-4.9 1.1-3.4 1.7-7 3.4-10.1.8-1.3 1.1-2.8 1.6-4.1.4-1.2 1.3-2.1 2-3.2.6-1.3.9-2.5 1.6-3.7.8-1.3 2.4-3.5 3.9-2 .5.4.8 1 .6 1.6-.3 1.1-1.3 1.8-1.8 2.6-.7 1.2-1.1 2.6-1.8 3.8-1.1 2-1.9 4.1-2.7 6.3-.6 1.5-1.4 2.8-1.7 4.4-.2 1.9-.4 8.8-2.7 9.4z" class="st3"/><path d="M9.6 292.6c-.6-3.9 2-7.5 3-11.2.4-2 1.5-3.7 2.7-5.4.4-.8.6-1.6 1.1-2.4.6-1.3 1.9-2 2.7-3.1.8-1.2 1.5-2.5 2.9-3 1.8-.8 3.2 1.8 1.4 2.7-1.3.6-1.6 2.2-2.7 3-1.1.9-1.9 2-2.3 3.4-.6 1.3-1.6 2.4-2.2 3.7-.7 2.4-1.5 4.6-2.5 6.9-.5 1.3-1 2.8-1.1 4.2.1.4.1.8-.1 1.2s-.6.7-1 .8c-.8.4-1.7 0-1.9-.8" class="st3"/><path d="M13.7 283.1c-2.7-.1-1.5-4.1-.6-5.5 1.3-2 2.5-4.1 4.1-5.8 1.2-1.1 2.2-2.2 3.3-3.4 1.9-1.6 3.9-3.3 5.8-4.8 1.2-.8 2.6-2.9 4.1-1.4.6.6.5 1.6-.1 2.2-2.2 1.8-4.4 3.6-6.7 5.4-.9.7-1.7 1.6-2.5 2.5-1.5 1.4-2.9 2.9-3.9 4.8-.8 1.2-1.8 2.2-2 3.7v.8c.1.8-.5 1.4-1.2 1.6-.1-.2-.2-.1-.3-.1" class="st3"/><path d="M14.9 278.7c-1.1-.7-.7-2 0-2.8.9-1.7 1.8-3.4 3.2-4.8 1.6-1.8 3.3-3.6 5.3-5 1.8-1.7 3.5-3.5 5.6-4.8 3.1-1.6 6-3.6 9-5.2 1.1-.5 2.1-1 3.2-1.4.4-.1.8-.2 1.2-.1 1.3.4 1.4 2.3.1 2.8-2.3 1-4.6 2.1-6.7 3.6-2.6 1.5-5.5 2.7-7.6 4.8-1.8 1.8-3.8 3.4-5.7 5-1 1.2-2.1 2.2-3.1 3.4-1.1 1.1-1.7 4.3-3.3 4.7-.4.1-.7.1-1.2-.2" class="st3"/><path d="M39.9 256.8c-.9-2.8 5.9-3.4 7.8-3.7.8 0 1.5.6 1.6 1.5 0 1.4-1.1 1.6-2.2 1.8-.3.1-.6.1-.9.1-1.5.3-3 .6-4.3 1.3-.9.1-1.7-.3-2-1" class="st3"/><path d="M76.5 257.2c-1.1-.3-2-.9-3-1.4-2.7-.4-5.3.4-7.9-.4-2-.3-4.1 0-6.1 0-1.3-.2-2.6-.1-3.9.1-4.4.6-8.9.8-13.2 2.2-2 .4-2.7-2.7-.6-3 5.3-1.6 10.7-1.8 16.1-2.5 2.4.4 4.8.1 7.2.1 2.4.6 4.8.3 7.3.4 1.6-.1 2.9.6 4.3 1.4 1 .2 1.9.9 1.6 2-.1.6-.6 1.1-1.2 1.2-.1-.1-.4-.1-.6-.1" class="st3"/><path d="M79.5 258.9c-2.2-.8-4.4-1.8-6.5-2.9-1.3-.6-1.2-2.7.3-3 1.1-.1 1.9.8 2.9 1.1 1.5.9 3.2 1.3 4.7 2 1.4.8.8 2.6-.4 2.9-.3.1-.7.1-1-.1" class="st3"/><path d="M84.9 262.9c-.9-.9-2.2-1.3-3.2-2.1-.7-.6-1.3-1.3-2-1.8-1.3-.8-2.7-1.4-4.2-2-2-.1-2-2.9-.1-3.2 1.2 0 2.2.8 3.3 1.1 2 .7 3.6 2.1 5.1 3.6 1.1.8 2.5 1.3 3.4 2.3.8 1.1.1 2.3-.8 2.5-.5.1-1 0-1.5-.4" class="st3"/><path d="M90.2 269.7c-2.2-2.2-3.9-5.2-6.1-7.4-1.7-1.4-4.5-1.9-5.2-4.2-.1-.8.4-1.6 1.2-1.8.8-.1 1.5.3 1.8 1 1.7 1.3 3.8 2 5.2 3.6.6.6 1 1.3 1.5 2 1.2 1.7 2.5 3.2 3.9 4.8.8 1.1.1 2.3-.8 2.5-.5.2-1 0-1.5-.5" class="st3"/><path d="M93.2 275.7c-.4-1.3-1.1-2.5-1.7-3.8-1.1-2.9-2.5-5.7-5.3-7.3-1.4-.7-2.5-2.9-.6-3.6.8-.3 1.6.1 1.9.8 2.2 1.4 4.2 3.3 5.3 5.7s2.2 4.8 3.2 7.2c.4 1.1-.4 1.8-1.1 2-.6.2-1.3-.1-1.7-1" class="st3"/><path d="M99.4 288.2c-.6-1.3-1.1-2.5-1.8-3.8-1-2.2-2-4.4-3.4-6.5-1.1-1.7 1.4-3.4 2.5-1.8.6.9 1.1 1.8 1.7 2.7 1.2 2.3 2.2 4.7 3.3 7 .6 1.3 1.2 2.8-.6 3.3-.7.4-1.5-.1-1.7-.9" class="st3"/><path d="M98.8 287c-1.2-2.9-1.9-6.1-3.3-9-.6-1.1-1.6-1.8-2.2-2.8-.8-1.7-2-3.3-2.7-5-.3-.8.2-1.7 1-2 1-.4 1.9.4 2.1 1.3.4.8.8 1.5 1.3 2.3.6 1.3 1.3 2.5 2.3 3.4 1.3 1.5 1.9 3.4 2.5 5.2.5 1.4.9 2.8 1.4 4.2.5 1.1 1.1 2.7-.5 3.3-.1 0-.1 0-.1.1-.7.2-1.5-.3-1.8-1" class="st3"/><path d="M96.6 285.7c-.9-3.4-2.5-6.5-4-9.5-1.5-3.4-3.2-6.9-5.4-10-.6-.8-1.5-1.8-1.1-2.9.6-1.6 3.1-1.3 3.2.5 3 4.1 5 8.8 7.2 13.5 1.2 2.5 2.3 4.9 3 7.5.4 1.1-.4 1.8-1.1 2-.8 0-1.5-.2-1.8-1.1" class="st3"/><path d="M98.4 291c-1.8-4-3.6-8.1-5.1-12.2-.6-1.7-1.2-3.4-1.8-5-.3-.8.1-1.7 1-2 .8-.3 1.7.1 2 1 1.9 5.7 4.1 11.4 6.7 16.8.5 1.1-.2 2-1.1 2.2-.6.2-1.3 0-1.7-.8M234 367.8c-2.2-.6-4.5-.7-6.7-1.3-4.3-1.2-8.7-2.5-13.2-2.8-.7.8-1.9.9-2.6.1-.8-.1-1.7-.1-2.2-.8-.7-.8-.4-2.2.6-2.5 1.4-.4 2.9.1 4.3.1 2.7.2 5.3.7 7.8 1.3 4.1 1.3 8.3 2.1 12.6 2.8 1.7.4 1.5 2.7.1 3-.2.1-.4.2-.7.1" class="st3"/><path d="M239.3 367.9c-2.7-.6-5-2.2-7.7-2.5-3.2-.6-6.5-.1-9.7-1-1.6-.3-2.9-2.5-1.2-3.5.7-.4 1.5-.1 2 .5 3.6.8 7.6.3 11.2 1.3 2.1.4 3.9 1.8 6 2.1 1.7.4 1.5 2.7.1 3-.2.1-.4.1-.7.1" class="st3"/><path d="M247.5 369.6c-1.9-1.1-4.2-1.5-6.3-2.2-4.8-1.6-9.7-2.7-14.7-3.5-.6.3-1.2-.1-1.8-.4-1.4-.7-1-2.8.6-2.9.6-.1 1.3.1 1.9.2 4.7.8 9.4 1.7 14 3.2.5.2 1.5.5 2.7.8l.4.4c.1.1.3.1.4.2s.1.1.2.1c.2.1.5.3.7.4.3.2.6.4 1 .6.6.4 1.3.7 2 1.1.5.2 1 .4 1.4.7 0 .3-.1.6-.3.8-.2.4-.6.6-1 .6-.5.2-.9.2-1.2-.1" class="st3"/><path d="M250.8 374.2c-1.5-1.1-2.5-2.5-4-3.4-3.4-1.8-7.1-2.3-10.7-3.3-2-.5-4-1.1-6-1.2-2 .1-2.2-2.9-.1-3.1.8-.2 1.5.1 2.4.2 2.4.5 4.7 1.1 7.1 1.8 2.9.8 6.1 1.4 8.8 2.9 1.7.8 2.8 2.3 4.2 3.5.4.3.7.6.8 1.1.2.8-.4 1.6-1.2 1.8-.5.1-.9 0-1.3-.3" class="st3"/><path d="M257.8 379.9c-2.7-2.3-5.4-4.7-7.9-7.2s-5.7-4.6-9.3-4.6c-2 .4-2.6-2.6-.6-3 1.7-.3 3.3.2 4.8.8.2.1.4.3.6.4.3.2.6.4 1 .6.6.4 1.3.7 2 1.1.4.2.8.4 1.1.6 1.8 1.3 3.4 3 4.9 4.6 1.7 1.7 3.5 3.2 5.3 4.7.6.6.7 1.5.1 2.2-.2.2-.5.4-.8.5-.4-.2-.9-.4-1.2-.7" class="st3"/><path d="M246.4 369.5c-.1-.8.4-1.6 1.2-1.8s1.7.4 1.8 1.2-.4 1.6-1.2 1.8-1.6-.4-1.8-1.2" class="st3"/><path d="M262.3 384.3c-1-1.9-1.9-3.9-3.4-5.4s-3-2.4-4.6-3.6c-2.7-1.8-5.1-3.9-7.6-5.9-1.2-.7-1.6-2.2-.6-2.9.1.1.2.1.3.1.6.4 1.3.7 2 1.1s1.5.7 2.2 1c.1 0 .1 0 .1.1 3.4 2.9 7.4 5.1 10.7 8.3 1.6 1.7 2.7 3.9 3.7 5.9.4.8.1 1.7-.7 2.1-.1.1-.2.1-.4.1-.5.1-1.3-.2-1.7-.9" class="st3"/><path d="M264 388.8c-1.6-3.4-3.3-6.7-5.5-9.7-1.9-2.5-4.6-4.2-6.8-6.5-1-1.1-3.2-2.6-1.7-4.1l.6.3c.4.1.7.3 1.1.4.5.2 1 .4 1.5.5 3.1 3.2 7 5.5 9.2 9.5 1.5 2.7 3.1 5.4 4.4 8.3.4.8.1 1.7-.7 2.1-.1.1-.2.1-.3.1-.7.1-1.5-.3-1.8-.9" class="st3"/><path d="M262.6 386.5c-.6-2.6-1.8-5.1-3.4-7.2-2.9-3.6-7.1-5.7-10.4-8.8-1.1-.9-2.4-2.3-2.1-3.7.6.4 1.2.6 1.8.9.7.4 1.5.7 2.2 1 .4.1.7.3 1.1.4.2.1.5.2.7.3 5.4 4.4 10.8 7.2 12.9 15.2.3 1.6 2 4.8-.4 5.4-2 .3-2-2.1-2.4-3.5m-4.7 61.3c-1.8-.3-1.6-2.1-.8-3.3.8-1.5 1.3-3.2 2-4.8.9-1.8 3.6-.5 2.7 1.4-.8 1.8-1.3 3.7-2.3 5.5-.1.6-.6 1.1-1.2 1.3-.1-.1-.2-.1-.4-.1" class="st3"/><path d="M256.2 448.2c-.8-.1-1.5-.8-1.5-1.8.1-1 .9-1.7 1.3-2.6 1.8-3.3 3.7-6.6 5.7-9.8.4-1.1 1.3-2.2 2.6-1.6 1.7.9.4 2.7-.4 3.9 1.1 1.7-1.3 3.2-1.8 4.7-1 1.8-1.6 3.9-2.7 5.7 0 .9-.8 1.8-1.8 2-.3.1-.9 0-1.4-.5" class="st3"/><path d="M257.3 448.2c-1.5-.6-1.1-2.1-.4-3.2 1.5-3.6 3.6-7.1 5.4-10.6.6-1.3.8-3.5 2.7-2.9.8.3 1.2 1.2.9 2-.9 3.2-2.8 5.9-4.3 8.8-.8 1.5-1.3 3-2.1 4.5-.3.7-.8 1.4-1.5 1.5-.1 0-.4-.1-.7-.1" class="st3"/><path d="M258.2 443.4c-.1-.8.4-1.6 1.2-1.8s1.7.4 1.8 1.2-.4 1.6-1.2 1.8c-.7.2-1.7-.4-1.8-1.2" class="st3"/><path d="M258 448.7c-1.9.2-2.2-1.8-1.3-3.1 1.3-2.8 2.4-5.7 4.3-8.2 1.8-2.3 2.6-5 3.5-7.8.7-1.9 3.5-.9 2.9 1.1-.7 1.8-1.1 3.7-2 5.5-.9 2-2.4 3.6-3.5 5.5-1.1 1.8-1.7 3.8-2.6 5.7-.1.6-.6 1.1-1.3 1.3q.15 0 0 0" class="st3"/><path d="M262 440c-2.1-1.3.4-3.6.8-5.3.6-1.5 1.2-3.2 1.8-4.8.8-1.9 1.5-3.7 2.4-5.5s3.6-.5 2.7 1.4c-1.2 2.8-2.2 5.3-3.3 8-.7 1.9-1.5 3.8-2.5 5.6-.2.4-.6.7-1.1.8-.1 0-.5 0-.8-.2m4-45c-.6-1.9-1.2-3.9-2.1-5.6-1.8-.3-2.2-3.9 0-4 2.5.1 3.6 4.9 4.5 6.9.4 1.5 2 4.2-.4 4.8-1.3.2-1.9-1-2-2.1" class="st3"/><path d="M266.5 399.5c-1-4.3-3.2-8.3-4.1-12.6-.4-2.1 2.6-2.9 3.1-.8.1 2.4 1.5 4.5 2.2 6.7.6 1.8 1.3 3.7 1.8 5.6.2.8-.1 1.7-1 2h-.1c-.8.3-1.7-.1-1.9-.9" class="st3"/><path d="M269.8 409.4c-2.2-.3-1.1-2.8-1.5-4.3-.9-5-2.8-9.9-3.8-14.9-.2-.8.4-1.7 1.2-1.8s1.6.4 1.8 1.2c.4 1.8.8 3.6 1.3 5.4.5 2.3 4.8 13.6 1.3 14.4z" class="st3"/><path d="M269.2 418.7c-.8-.1-1.5-.8-1.4-1.7.1-2.9.3-5.8 0-8.8-.4-4.3-.8-8.6-1-13-.1-2 2.9-2.2 3.1-.1.1 6.2 1.4 12.5 1.1 18.7-.3 1.5.6 4.3-1.3 4.8-.1 0-.3.1-.5.1" class="st3"/><path d="M268.7 425.9c-.8-.1-1.5-.8-1.4-1.7.1-2.5.3-5 .3-7.5 0-2-.1-4.1.1-6.2.1-.8.8-1.5 1.7-1.4 1.8.1 1.4 2 1.3 3.2 0 2 .1 3.9 0 5.9s-.2 4.1-.3 6.2c0 .7-.6 1.3-1.2 1.4-.2.1-.3.1-.5.1m-4 2.5c-1.8-.3-3.5-.6-5.2-1-1.3-.2-2.5-.8-3.3-1.9s-1.1-2.6-2.3-3.2c-1.8-1.1-4.1-.8-6-1.8-1.3-.5-2.5-1.4-3.8-1.8-1.5-.4-2.9-.4-4.4-.7-2-.3-3.4-1.7-5.2-2.5-1.5-.6-3.2-.8-4.8-1.3-2.7-.8-4.6-2.9-6.1-5.1-.4-.6-.8-1.1-1.5-1.4-1.8-.8-3.9-1.1-5.7-1.9-1.6-.8-3.2-1.8-4.8-2.5-2.2-.8-4.6-1.5-6.8-2.7-1.9-1.1-3.8-2.3-5.7-3.3-2.1.8-3.2-2.3-1-2.9 1.3-.7 2.5.3 3.7.9 2 1.1 3.9 2.3 5.9 3.3 1.8.8 3.6 1.2 5.3 2 1.6.7 3.1 1.7 4.6 2.5 2.2.8 4.6 1.2 6.6 2.4 2.5 1.8 3.5 5.3 6.7 6 2 .6 4.1.8 5.9 1.8 1.1.5 1.9 1.3 3.1 1.6 1.8.4 3.7.4 5.5 1 1.4.4 2.6 1.3 3.9 1.8 2.5.8 5.2.8 7.2 2.6 1.3.9 1.5 2.5 2.5 3.6 2 .9 4.3 1 6.5 1.4.8.1 1.3 1.1 1.2 1.8-.1.6-.6 1.1-1.2 1.2-.4.1-.6.1-.8.1m3.1-27.1c-2.2.1-4.2.6-6.3 1.1-1.2.3-2.4.6-3.6.8-2.5.5-4.8.1-7.3-.1-1.8-.1-3.6-.2-5.5-.6-2-.6-3.6-1.8-5.6-2.5-2.9-1.2-5.9-1.9-8.5-3.6-3.3-1.3-4.9-4.7-8-6.2-1.1-.6-2.2 0-3.4-.5-1.5-.7-3.2-1.3-4.8-1.8-2.5-.5-3.9-2.7-5.6-4.2-2-1.5-4.3-2.3-6.5-3.6-1.8-.9-2.8-2.9-4.3-4.1-1.8-1.3-4.1-1.8-6-2.8-1.8-.9-3.2-2.5-5-3.4-1.3-.5-2.7-.1-3.9-.6-1.9-.6-3.4-1.9-4.6-3.4-2.8-3.6-6.5-6.3-10-9.3-1.9-.4-1.5-3.4.6-3.2.7.1 1.2.6 1.8 1 1.4 1.3 2.9 2.5 4.3 3.6 3 2.2 4.9 5.5 7.9 7.7 1 .6 2.1.6 3.2.7 1.3.1 2.7.6 3.7 1.4 1.1.7 2 1.5 3 2.2 1.8 1.1 3.9 1.5 5.7 2.5 2 1 3.2 2.9 4.8 4.4 1.5 1.1 3.4 1.8 5 2.7 2.1 1 3.7 2.7 5.3 4.4 2.1 1.2 4.6 1.5 6.8 2.7 1.1-.1 2.2 0 3.2.5 2.3 1 4 2.9 5.7 4.8 1.6 1.3 3.5 2.2 5.3 3.2 2.5.9 5 1.7 7.3 2.9 1.1.5 2 1.2 3.2 1.5 1.7.4 3.4.4 5.2.6 3.5.6 7.1.5 10.4-.8 2.1-.6 4.3-.8 6.4-1.1.8-.1 1.6.6 1.6 1.5.1.8-.5 1.4-1.2 1.6zm-79.5-14.5c-.1-.8.4-1.6 1.2-1.8s1.7.4 1.8 1.2-.4 1.6-1.2 1.8-1.7-.3-1.8-1.2" class="st3"/><path d="M225.9 395.3c-2.5-.4-4-2.5-6.3-3.2-1.3-.4-2.7-.4-4.1-.4-2.2-.1-4.2-1.2-6.5-1.1-3.9.4-7.4-.8-11-1.9-1.1-.4-2.3-.3-3.4-.5-2-.6-3.6-1.9-5.5-2.7-.4.6-1.2 1.1-1.9.7-2-.8-4.1-1.9-5-3.9-.8-1.5 1.1-2.9 2.5-1.8 1.8.8 3.6 1.3 5.5 2.1 1.9.7 3.5 1.9 5.4 2.6 2.8 0 5.4 1.2 8.1 1.8 2.1.7 4.3.4 6.6.5 1.7 0 3.2.7 4.8 1 1.5.1 3.1.1 4.6.4 2.7.3 4.4 2.7 6.9 3.3 1.7.4 1.5 2.7.1 3-.3.1-.5.1-.8.1m37.8 2.6c-5.9-2.5-12.9-3.8-17.1-8.9-2.2-2.9-5.1-5.3-7.4-8.1-.9-1.2-1.7-2.5-2.9-3.4-1.7-1.2-3.6-2.1-5.3-3.3-2-1.3-3.4-3.3-5.5-4.6-2-1.1-4.3-2-6-3.7-1.5-1.4.5-3.6 2-2.3.4.4.7.6 1.1 1 1.8 1.2 3.9 1.9 5.7 3.2 1.5 1.1 2.7 2.5 4.1 3.6s2.7 1.8 4.2 2.6c2.3 1.3 3.9 3.3 5.4 5.4 2 2.4 4.5 4.3 6.4 6.9 3.2 4.6 9 5.9 14 7.9.8.4 1.7.6 2.5.9 1.5.6 1.2 2.7-.1 2.9-.6 0-.8 0-1.1-.1m-44.8 70.3c-1-1.3-2.3-2.4-3.3-3.7-3.4-5.2-5.5-11.1-9-16.3-2.1-3.1-4.8-5.7-6.4-9.2-1.9-4.3-2.9-8.9-5.3-13-2.1-3.5-5.7-5.6-8.3-8.7-2.4-2.5-3.6-5.9-5.7-8.7-1.8-2.2-3.9-4.1-5.7-6.4-1.4-1.7-2.9-3.8-4.3-5.3-1-1.1-2.9-1.8-2.4-3.5.1-1.1 1-2.3 2.2-1.9.8.3 1.3 1.2.9 2 2.5 2 4.3 4.7 6.4 7.2 1.5 2 3.4 3.7 5 5.7 2.2 2.7 3.4 6.2 5.7 8.7 1.5 1.7 3.2 3.2 4.8 4.7 5.2 4.3 6.5 11.2 9 17.2 2 4.7 6.1 8.1 8.4 12.6 2.2 4.3 4.3 8.6 6.8 12.8 1.1 1.4 2.5 2.5 3.5 3.9.7 1.1-.1 2.2-1 2.4-.2.3-.8.2-1.3-.5" class="st3"/><path d="M209.1 448.6c-.5-.2-.7-.7-.9-1.2-.8-2.1-2-4.1-2.7-6.1-1.5-4.5-.6-9.3-1.8-13.8-1.3-4-4.6-6.9-6.2-10.8-2.4-4.6-4.1-9.5-6.3-14-1.5-3-3-6-4.6-8.9-1-2-2.5-4-2-6.3.3-1.4 2.2-2.3 3.2-1 .4.6.4 1.4-.1 2 1.3 3.9 3.7 7.2 5.4 10.9 2.8 5.3 4.7 11.1 7.5 16.4 1.3 2.8 3.2 5.3 4.8 7.9 2.2 3.7 1.9 8.5 2.2 12.6.2 2.6 1 5 2.2 7.4.5 1.1 1 2.2 1.4 3.3.4.9-.4 1.8-1.1 2-.3-.2-.6-.2-1-.4" class="st3"/><path d="M235.2 463.7c-1.3-1.5-2.3-3.2-3.6-4.7-1.8-1.8-3.9-3-5.5-4.9-2.6-3-4.6-6.6-7.5-9.4-4.3-4.4-10.8-7.9-11.7-14.6-.4-2 2.6-2.6 3-.6.6 4.6 4.6 7.4 7.9 10.2 2.7 2.4 5.3 4.9 7.3 7.9 1.3 1.7 2.4 3.4 3.9 5 1.3 1.3 2.7 2.2 4 3.4 1.6 1.4 2.8 3.2 4.1 4.9.8.8 1.4 2 .4 2.9-.2.1-.4.3-.6.4-.7.1-1.3-.1-1.7-.5m-74.3 17.8c-.9.1-1.6-.7-1.7-1.6-.4-2.4-1-4.8-1.2-7.2-.1-2.5-.1-4.9-.4-7.4-.7-9.2-3.1-18.1-5.8-26.9-2.1-5.8-3.4-11.8-5.3-17.7-1-3.2-2.2-6.2-3.2-9.4-1.1-4.6-1.3-9.3-1.8-13.9-1.1-7-2.4-10.7 1.5-17.3 1-1.8 3.6-.5 2.7 1.4-1.1 1.9-2 3.9-2.3 6-.3 3.4.8 6.7 1.1 10.1.4 4.4.6 8.8 1.6 13.2 2 6.2 4.3 12.3 5.7 18.7 4.3 13.5 8.8 27.3 8.8 41.7 0 1.8.4 3.6.7 5.5.4 1.4 1.8 4.2-.4 4.8.2-.1.1-.1 0 0" class="st3"/><path d="M144.3 385.1c-.8.1-1.6-.6-1.6-1.5.1-1.1.6-2.1.7-3.2.4-2.5-.1-5-.1-7.6-.1-2 .1-4 .1-6-.1-2.2-.1-4.6.3-6.7.5-2.2 1.6-4.4 2.7-6.5 1-1.4 3.4-5.7 5.3-3.8.8 1 .1 2.1-.7 2.7-1.2 1.2-2.1 2.7-2.8 4.2-2.6 4.4-1.4 9.7-1.9 14.6 0 3.7.8 7.5-.1 11.2-.2 1-.4 2.2-1.5 2.5-.2.1-.4.1-.4.1m26.9 11.4c-1.3-3.2-2.2-6.5-3.1-9.7-.2-.8.4-1.7 1.2-1.8 1.6-.3 1.9 1.5 2.2 2.7.4 1.2.7 2.4 1.1 3.6.4 1.3.8 2.6 1.3 3.9.5 1.1-.2 2-1.1 2.2-.6 0-1.3-.2-1.6-.9m35.7 34.5c-.1-.8.4-1.6 1.2-1.8s1.7.4 1.8 1.2-.4 1.6-1.2 1.8-1.7-.4-1.8-1.2" class="st3"/><path d="M206.4 429.6c-.4-.9-.9-1.8-1.3-2.7-.8-1.8 1.8-3.2 2.7-1.4.5 1.1 1.3 2.1 1.5 3.2.1.9-.4 1.6-1.2 1.8-.7.3-1.4 0-1.7-.9M179 479.8c-.8-.1-1.3-1-1.2-1.8.7-2.8.4-5.6.4-8.5.1-4.9 1.4-9.7 1.1-14.7-.4-9.1-4.6-17.4-8.7-25.3-.9-1.4-1.6-2.9-2.2-4.6-1.7-4.7-3.2-9.5-3.8-14.5-.3-2.2-.6-4.4-.8-6.6-.2-2.3-1.1-5 .5-7 .8-1.1 2.5-2.4 3.5-.9.5.7.3 1.6-.4 2.2-.4.3-.7.6-.8 1.1-.1 1.8.3 3.5.4 5.3.7 7.2 2.2 14.1 4.8 20.8 1.8 3.6 3.9 7 5.4 10.7 2.1 4.6 4.1 9.3 4.7 14.4 1.1 5.9.1 11.8-.6 17.8-.4 2.1.8 11.1-1.8 11.7 0-.1-.2-.1-.5-.1m-20.4-35.2c-.8.1-1.5-.6-1.6-1.5-.3-3.2-.8-6.5-.8-9.5.1-4.8.9-9.5.4-14.4-.5-3.2-1.1-6.2-2.2-9.2-.4-.8-.9-1.5-1.3-2.3-.5-1-.6-2.1-.8-3.2-1.3-5.6-1.5-11.4-2.7-17-1.1-5.7-2.3-11.3-2.8-17-.9-5.1-.8-10.2 2-14.8.5-.8 1-2 2-2.2 1.8-.4 2.8 2.3 1.1 3.1-2.3 3.7-2.8 7.8-2.1 12.1.6 5 1.3 10 2.4 15 1.7 7.4 2 15.1 3.7 22.5 2.7 4.5 3.8 9.7 4.1 14.9.3 4.1-.5 8.4-.6 12.5.1 3.2.5 6.3.8 9.5.1.8-.5 1.4-1.2 1.6-.3-.1-.4-.1-.4-.1" class="st3"/><path d="M160.7 457.1c-.8.1-1.7-.4-1.8-1.2-.4-2.4-1-4.8-1.1-7.2s-.4-4.8-.3-7.2c0-.8.8-1.5 1.7-1.4 1 .1 1.5 1.1 1.4 2 .1 2.9.2 5.7.5 8.6.2 1.5.5 3.1.8 4.6.1.8-.4 1.6-1.1 1.8z" class="st3"/><path d="M160 461.6c-1.8-.8-1.4-4.1-1.6-5.8-.1-2 2.9-2.2 3.1-.1.1 1.2.1 2.4.4 3.6 1.1.9.4 2.4-.7 2.7-.5-.2-.8-.2-1.2-.4" class="st3"/><path d="M163.3 481.6c-.8.1-1.7-.4-1.8-1.2-.3-1.8-.4-3.5-.6-5.3-.6-5-.4-10-.9-15-.3-2.9-.6-5.7-1.1-8.6-.4-2 2.6-2.6 3-.6 1.5 7.9 1.3 15.8 2 23.8.1 1.4.3 2.9.5 4.3.3 1.1.1 2.4-1.1 2.6m-24.2-26.5c-2.2-.6-.8-3.4-.6-4.9 1-2.6 1.3-5.4 2.3-7.9 1.1-2.2 2.9-4.1 3.9-6.5.6-1.5 1.1-3.2 1.1-4.8-.1-2.6-.2-5.3.2-7.8.1-.8 1.1-1.3 1.8-1.2 2.2.6.7 3.2 1 4.8.5 8.3-.8 10.2-5.1 17-1 2.5-1.3 5.2-2.2 7.7-.4 1.3-.2 3.4-1.6 3.8-.3-.1-.5-.1-.8-.2m-49.9 11.5c-.8-.1-1.5-.8-1.4-1.7.3-2.5.8-5 1.8-7.4 1.1-2.7 3-5 5.2-6.9 1.8-1.8 2.9-4.1 5-5.7 1.8-1.4 3.9-2.3 5.7-3.6 1.9-1.6 3.6-3.6 4.9-5.6 1.4-2.6 2.3-5.3 2.9-8.1.4-4.6.2-9.3.3-13.8.1-1.8.3-3.4.8-5 .7-1.8 1.8-3.4 2.5-5.1 1.1-2.5 1-5.2 2-7.6 1.3-3 4.1-5.1 5.6-8.1 1.2-2.1 1.9-4.5 3.2-6.6.8-1.2 1.5-2.6 2.8-3.1 1.9-.6 2.9 2.1 1.1 2.9-1.7 2-2.5 4.4-3.5 6.7-.8 1.8-1.8 3.4-2.9 4.8-1.3 1.8-3.1 3.3-3.6 5.5-.5 2-.6 4-1.4 5.8-.8 2.3-2.4 4.3-3.1 6.6-.6 2.6-.4 5.4-.4 8.1-.1 2.7 0 5.4-.1 8.1-.2 3.3-1.6 6.5-2.9 9.5-1.4 2.7-3.5 5.1-5.7 7.2-2 1.7-4.3 2.5-6.2 4.1-1.5 1.1-2.3 2.7-3.4 4.1-2.2 2.3-4.8 4.3-5.8 7.4-.6 1.8-1.1 3.5-1.4 5.4 0 .9-.4 2-1.3 2.2-.4 0-.5 0-.7-.1" class="st3"/><path d="M113.4 483.4c-2.9-5.2-5.5-10.9-6-16.8-.2-4.9.4-10.2 1-15.1.4-2.5 1.6-4.8 2-7.2.6-2.3-.3-5 1.1-7 .5-.7 1.4-.9 2.2-.4.8.6.9 1.7.2 2.4-.1.8-.1 1.5-.1 2.3.1 3.5-1.3 6.7-2.2 10-.4 2.1-.5 4.3-.6 6.4-.2 2.7-.6 5-.4 7.5.2 5.8 2.8 11.2 5.5 16.3.7 1.1-.1 2.2-1 2.4-.6-.1-1.3-.2-1.7-.8m15.5-12.6c-3.5-2.8-4.1-7.6-5.5-11.7s-2.5-8.5-2.3-12.8c1.5-10.2 1.7-20.9 6-30.4.8-1.7 3.2-5.2 4.9-2.7.5 1-.2 1.9-1.1 2.3-1.1 1.4-1.8 2.9-2.3 4.6-2 6.4-2.9 13-3.6 19.6-.1 3.3-1.3 6.6-.8 9.9.4 3.6 1.5 7 2.7 10.5 1.1 2.9 1.5 6.5 4.1 8.5 1.1 1 .4 2.5-.7 2.7-.5 0-1-.1-1.4-.5" class="st3"/><path d="M121.7 437c-.6-3.6-.5-7.4-.8-11.1-.5-3.1-1.3-6.1-1.8-9.2-.7-4.4-.8-9-.8-13.5.1-2.1 3.2-2 3.1.1-.1 5.2.1 10.4 1.2 15.5.4 2.3 1.1 4.6 1.4 7 .2 2.5.1 5 .4 7.6-.1 1.5 1.3 4.2-.8 4.8-.9.2-1.8-.4-1.9-1.2m-54.1 12.4c-.8-.3-1.3-1.2-1-2 1.3-3 3.2-5.7 4.8-8.4 1.3-2.3 2.9-4.6 5.2-6 2-1.5 4.5-2 6.8-2.9 2.5-1.3 5-2.6 7.6-3.9 1.4-.6 2.7-3.1 4.3-1.5 1.3 1.5-.8 2.9-2 3.6-2.5 1.5-5.1 2.8-7.7 4.1-1.6.9-3.5 1.2-5.2 1.9-3.4 1.3-5.3 4.5-7 7.4-1.3 2-2.7 4.2-3.7 6.3-.2.6-.7 1.2-1.3 1.4-.2.1-.5.1-.8 0m-31.1-26.7c-.4-.9.1-1.8.9-2.2 1.5-1.2 2.5-2.7 3.7-4.2 2.9-3.1 3.2-7.4 5.2-10.9 1.1-2.1 2.9-3.8 4.6-5.5 1.5-1.6 2.6-3.5 4.3-5 2.1-1.9 4.4-3.4 6.6-5.3.6-.6 1.6-.5 2.2.1s.5 1.6-.1 2.2c-1.9 1.6-3.9 3.1-5.9 4.7-1.9 1.5-3.1 3.6-4.8 5.4-1.1 1.1-2.2 2.2-3.2 3.4-2.7 3.3-2.7 7.9-5.3 11.2-1.1 1.3-4.2 6.3-6.6 6.9-.6.2-1.1 0-1.6-.8m72.3-26.7c-.8-.3-1.3-1.2-1-2 .5-1.2.9-2.3 1.3-3.5 1.3-3.4 2.7-6.9 3.9-10.4 1.5-4.2 1.8-8.8 4.1-12.6 1-1.3 2.3-2.3 3.6-3.3 1.1-.8 2.3-1.5 3.5-2.3.7-.4 1.7-.3 2.2.4.4.7.3 1.7-.4 2.2-1.3.8-2.7 1.6-3.9 2.7-.9.8-1.9 1.5-2.6 2.5-.7 1.2-1 2.6-1.4 3.9-.8 3.6-1.8 7.2-3.1 10.6-.8 2.5-1.8 4.8-2.7 7.2-.7 1.3-1 4.3-2.5 4.7-.4 0-.7 0-1-.1" class="st3"/><path d="M62.9 444c-.8-.1-1.5-.8-1.4-1.7.3-3.4.6-6.9 1.7-10.1 1.8-4.7 4.1-9.4 7.5-13 2.2-2.2 4.8-4 6.4-6.7 1.2-2 1.8-4.3 3.2-6.2 1.4-2 2.9-3.9 4.1-6 1.3-2.2 2-4.6 3.1-6.9.8-1.4 1.8-2.7 2.7-4.1 2.6-3.9 5.1-8.2 9.4-10.5 3.6-2 6.9-4.3 10.2-6.5 2.1-1.4 4.3-2.5 6.4-3.9.1-2.9 3.9-1.5 3.3.9-.4 1-1.4 1.5-2.2 2.1-1.5.9-2.9 1.8-4.4 2.7-2.8 1.6-5.3 3.7-8.1 5.4-2.2 1.3-4.6 2.4-6.5 4.2-3 3.3-5.3 7.2-7.9 10.9-1.4 2.7-2.2 5.7-3.9 8.3-1.3 2.2-3 4.1-4.3 6.3-1.3 2.4-2.1 5-3.9 7-1.6 2-3.7 3.6-5.6 5.5-1.3 1.3-2.2 2.9-3.2 4.6-1.9 3.5-3.8 7.2-4.3 11.1-.2 1.8-.4 3.5-.6 5.3-.1.7-.6 1.3-1.2 1.4-.3-.1-.4-.1-.5-.1" class="st3"/><path d="M75.3 419.7c-.4 0-.8-.1-1.1-.4-1.9-1.9 2-3.9 3.2-5 1.9-1.5 3-3.9 5.5-4.7 2.7-1 5.3-2.5 8-3.4 2.2-.8 4.6-1.3 6.9-1.9.3-.1.7-.2 1.1-.3 1.4-.4 2.9-1 3.4.8.2 1-.6 1.8-1.5 1.9-1.1.4-2.2.7-3.4.9-3.4.8-6.8 1.8-9.9 3.4-1.6.9-3.6 1.2-5 2.5-1.3 1.6-2.7 3.1-4.5 4.3-.9.6-1.5 1.8-2.5 2-.1-.2-.2-.1-.2-.1M63.5 436c-.8-.3-1.3-1.2-1-2 .6-1.4 1-2.8 1.4-4.3 1.1-4.3 1.7-8.7 1.9-13.2 0-3.2-.1-6.3 0-9.5.1-4 .2-8.1 2.2-11.7 2-3.7 4.3-7.4 6.9-10.8.6-.6.8-1.4 1.7-1.6 1.3-.4 2.5 1.2 1.7 2.4-.4.5-.8.9-1.2 1.4-2.9 4.2-6 8.4-7.6 13.3-.6 2.7-.5 5.9-.6 8.6-.1 4.8.3 9.5-.5 14.2-.5 4.1-1.4 8.2-2.9 12.1-.2.5-.6.8-1.1 1-.3.2-.6.1-.9.1" class="st3"/><path d="M48.4 433.2c-1.2-1.4.6-2.6 1.6-3.4 1.9-1.6 4.2-2.7 6.2-4.3 1.6-1.6 2.1-4 3.6-5.6l1.8-1.8c1.9-2.1 2.9-4.7 4.2-7.2.9-1.8 3.6-.5 2.7 1.4-.6 1.1-1.1 2.2-1.7 3.4-1.2 2.6-3.2 4.8-5.2 6.7-1.1 1.8-1.8 3.6-3.2 5.1-1.1 1.1-2.5 2-3.7 2.7-1.1.7-2.2 1.6-3.2 2.3-.6.5-1.1 1.1-1.8 1.2-.4 0-.8 0-1.3-.5m47.4-63c-.6-.6-.5-1.6.1-2.2 1.3-1.3 2.7-2.5 3.9-3.9 2-2.5 2.8-5.7 4.6-8.3 2.5-3.1 5.9-5.2 8.2-8.4 2.9-2.7 6.6-4.3 9.8-6.6 1.3-.8 2.7-1.4 4.2-1.2 1.9.3 4.1 1.4 4.3 3.4.3 2.2-2.9 2.5-3.1.3-.9-.7-2.2-1-3.2-.3-1.5 1-3 2-4.6 2.9-1.5 1-3.2 1.9-4.6 3-1.5 1.3-2.4 2.9-3.9 4.2-1.2 1.1-2.5 2.1-3.6 3.2-2.4 2.3-2.9 5.7-4.9 8.3-1.3 2.2-3.3 3.8-5.1 5.5-.2.1-.4.3-.6.4-.5.3-1.1.1-1.5-.3" class="st3"/><path d="M96.2 362.3c-3.2.6-6.5.1-9.6.4-2 .1-3.9.3-5.8-.1-2.7-.3-5.6.3-8.3-.6-6.8-3.4-.6-6.9-15.1-5.3-.8.1-1.6-.6-1.6-1.5-.1-.8.6-1.5 1.5-1.6 2.3-.3 4.6-.4 6.9-.4 4.6.1 6.1 2 8.6 5.4 2 1.2 4.5.8 6.7.8 1.4 0 2.7.4 4.1.4 3.8-.2 7.6-.1 11.4-.4 2.8-.5 5.5-1.1 8.3-1.8.9-1.6 3.4-.5 2.8 1.3-.4 1.1-1.5 1.6-2.6 1.8-.8.2-1.7.4-2.5.6-1.8.4-3.4.7-4.8 1" class="st3"/><path d="M54.4 388.2c-.6-.6-.7-1.5-.1-2.2 1.2-1.3 2.4-2.7 3.5-4.1 1.3-1.7 2.2-3.6 3.5-5.3 1.3-1.5 2.7-3 3.9-4.6 1.8-2.2 1.3-5.7 3.6-7.6 1.8-.9 3.8-1.4 5.6-2.2 2-.7 4.2-1.7 6.4-1 1.9.7.9 3.5-1.1 2.9-.3-.1-.6 0-.8 0-2.9.5-5.5 2-8.3 2.9-.1.1-.2.3-.3.4-.8 2.2-1.3 4.6-2.7 6.5-1.8 2.4-4.1 4.4-5.5 7.1-1.5 2.6-3.5 4.8-5.5 7-.2.2-.5.4-.8.5-.4.1-1 0-1.4-.3" class="st3"/><path d="M89.5 362.5c-3.5.3-7.1.8-10.5 1.5-.8.1-1.7-.4-1.8-1.2-.2-1.7 1.4-2 2.9-2.1.4-.1.9-.1 1.3-.2 2.7-.5 5.3-.8 8.1-1 .8-.1 1.6.6 1.6 1.5.1.8-.5 1.4-1.2 1.6-.3-.1-.3-.1-.4-.1m-27.7 11.6c-2.4-.4-4.6-1.4-6.9-2.1-3.2-1.1-5.9-3.2-8.2-5.6-.7-1.1-1.7-1.9-2.9-2.1-3-.7-6.2-1.1-9.3-1.2-.8 0-1.5-.6-1.6-1.5-.1-.8.6-1.6 1.5-1.6 2.4 0 4.8.2 7.1.6 2.6.4 5.5.8 7.2 3.2 1.3 1.6 2.9 2.9 4.6 4 1.6.9 3.4 1.5 5.1 2 1.5.4 3.1 1.4 4.6 1.1.8-.2 1.7.1 2 1 .4 1.3-.5 1.9-1.5 2.1-.8.1-1.3.1-1.7.1" class="st3"/><path d="M17.4 388c-.5-.7-.3-1.6.4-2.2 1.9-1.4 3.8-2.7 5.6-4.1 2.1-1.5 3.1-3.9 5-5.5 3.2-2.5 6.5-4.8 10-6.7 2.9-1.7 6-3 9.4-3.2.7-.6 1.7-.6 2.3.1.6.6.5 1.6-.1 2.2-.9.8-2 .8-3.2 1-.7.1-1.3.1-2 .3-2.5.8-4.8 2.3-7.2 3.6-2.9 2-6.1 3.7-8.4 6.4-2.2 3.8-6.2 6-9.7 8.6-.1.1-.4.2-.5.2-.5.1-1.2-.2-1.6-.7" class="st3"/><path d="M31 405.2c-.8-.1-1.5-.8-1.4-1.7.3-2 .5-4 1.1-6 .8-3.2 2.7-6 3.9-9 .3-.8.2-1.5-.2-2.3s-.4-1.6-.5-2.5c-.3-2.9.2-5.8.4-8.8-.1-.8.4-1.5 1.3-1.7 1.6-.2 2.1 1.4 1.8 2.7-.2 1.8-.4 3.6-.5 5.3 0 1.2 0 2.3.3 3.5.6 1.3.9 2.6.6 4-.9 3.6-3.5 6.5-4.3 10.2-.3 1.2-.5 2.6-.6 3.7-.1 1-.3 2.2-1.3 2.5-.2.1-.4.1-.6.1m16.8-52.7c-.2-.6 0-1.3.5-1.7-3.8-2-8.2-1.7-12.3-2-1.8-.1-3.4-.6-5.1-.3-2.5.3-4.9-.1-7.4-.2-1.2 0-2.4.2-3.6-.1-1.1-.2-2-.8-3.1-1.1-6.5-1.1-7.9-1-11.5-6.9-1.1-1.7 1.4-3.4 2.6-1.8 1.3 1.8 2.5 4.2 4.8 4.7 1.3.4 2.8.4 4.1.7 1.5.3 2.8 1.2 4.3 1.3 2.5-.1 5 .1 7.5.2 1.5.1 3.2-.4 4.7-.1 3.6.7 7.4.2 11.1 1 2.6.5 6.9 1.5 7.9 4.3.2 1.1-.8 1.9-1.7 2.4-.3.1-.6.3-.8.4-.8.4-1.7.1-2-.8m16.7-32.9-7.8-2.7c-2.9-.9-5.7-2.4-8.8-2.9-2.6-.3-5.2 0-7.8-.4-1.8-.3-3.9-.7-5.7-.4-3.4.8-6.8.8-10.2.8-3.2.5-6.4 1.5-9.7.9-2-.3-3.8-1-5.7-1.5-.7.5-1.7.3-2.2-.4-.6-.6-.7-1.6-.1-2.2.8-.8 2-.6 2.9-.4 1.9.4 3.7 1.1 5.7 1.5 2.8.4 5.5-.4 8.3-.9 1.8-.3 3.6.1 5.5-.1 2.1-.1 4.1-.5 6.2-.8 2.3-.4 4.5.5 6.8.6 2.9.2 6-.1 8.8.8 4.9 1.8 9.9 3.5 14.9 5.2 1.5.6 1.2 2.7-.1 2.9-.4.2-.7.2-1 0" class="st3"/><path d="M86.8 347.2c-1-.1-1.5-.9-2-1.6-1.4-1.8-3.4-2.9-5.3-4.1-3.7-2.1-7.4-3.3-11.4-4.7-4-1.6-8.1-2.9-12.3-3.6-2.7-.5-5-2-7.4-3.2-2-.8-4-1.4-6.1-1.9-1.3-.3-2.5-.7-3.7-.5-3.6.4-7.1 1.8-10.7 1.6-2.5-.4-5 .4-7.4.8-1.6.4-2.8 1.6-4.4 2-1.8.4-3.6 1.2-5 2.5-1 1.6-1.3 6.5-4 5.4-1.6-.9-.5-2.5.1-3.6.6-2.3 1.5-4.5 3.8-5.5 1.4-.9 3-1.4 4.6-1.9 2.5-1.7 5.3-2.3 8.2-2.8 1.6-.4 3.3-.2 5-.1 1.9-.1 3.6-.6 5.5-1 1.8-.4 3.5-.8 5.3-.8 1.9.1 3.7.8 5.6 1.2 3.8.7 6.9 3.2 10.5 4.3 1.8.5 3.7.8 5.5 1.3 3.2.7 6 2.1 9.1 3.2 6 2.2 12.7 4.4 17 9.4 1.8.4 1.7 3.1.1 3.5-.3.1-.4.1-.6.1" class="st3"/><path d="M47.2 347.8c-3.7.7-7.2-1.5-10.5-2.7-3.7-1.4-6-4.8-9-7.1-3.4-1.6-7.4-2.2-10.3-4.9-.6-.6-.7-1.5-.1-2.2.9-1 2-.4 2.8.4 3.3 2.5 7.9 2.5 11 5.4 2.3 2.4 4.6 4.8 7.8 6 2.6.8 5 2.6 7.9 2.1 1.8-.3 2.3 2.5.4 3" class="st3"/><path d="M54.7 350.3c-3.3-2-7.2-3.3-10.9-4.1-2-.5-1.3-3.4.6-3 3.2.6 6.2 1.8 9.1 3 1.4.8 4.5 1.7 3.4 3.8-.2.4-.6.6-.9.6-.4 0-.9-.1-1.3-.3" class="st3"/><path d="M67.9 348.9c-5 .6-10 1.6-14.9 1.1-2.6-.4-5.4-.4-7.7-1.8q-.9-.6-1.5-1.5c-.8-1.1.3-2.7 1.6-2.4.6.1 1 .7 1.3 1.1.6.5 1.4.6 2.2.8.4-.4.9-.7 1.5-.6 1.5.4 3.2.8 4.7 1.1 1.5.2 2.9 0 4.3-.1 2.2-.4 4.3-.6 6.5-1.1 1.2-.3 2.7-.6 3.6.6.8 1.1.2 2.5-1 2.7-.2.1-.4.2-.6.1m2-12.7c-4.1-1.8-8.3-3.8-11.8-6.8-1.4-1.5-2.6-3.2-4.3-4.5-1.6-1.1-3.2-2.2-4.5-3.5-2.2-2.3-5.2-3.1-8.1-4.1-3-1.1-6-3.2-9.3-2.9-2 .4-2.6-2.6-.6-3 4.5-.7 8.4 2.2 12.6 3.5 3.9.8 6.8 3.3 9.5 5.9 1.3.9 2.6 1.7 3.7 2.8 1.5 1.3 2.5 3 4 4.3 3.2 2.2 6.6 4.1 10.2 5.5 1.4.7.8 2.6-.4 2.9-.3.1-.7 0-1-.1m37.2-3c-1.9.5-3.6-.8-5.4-1.5-2.2-.9-4.3-2-6.5-3-2.8-1.2-5.9-1.4-8.7-2.6-2.9-1.1-3.6-4.3-5.3-6.5-3.2-4.2-7.5-7.4-10.5-11.8-4.3-7.2-4.3-7.6-12.1-11.3-2.9-1.5-4.1-5-6.9-6.7-3.5-1.9-7.6-3.5-9.4-7.4-2.2-5-3.2-10.7-3.9-16.1-.3-3.4-.6-6.9-.6-10.4 0-.8.6-1.5 1.5-1.6.8-.1 1.6.6 1.6 1.5 0 3.8.4 7.6.7 11.4.8 4.5 1.6 9 3.2 13.3 1 2.8 3.6 4.3 6.1 5.5 1.7.8 3.4 1.8 4.8 3.2 1.1 1.1 2 2.5 3.1 3.6 2 2 5 2.5 7.2 4.1 4.7 2.9 6.2 8.7 10 12.5 2.1 2.5 4.6 4.5 6.7 7.1 1.8 1.9 2.8 4.4 4.4 6.4 2.7 1.5 6 1.6 8.8 2.8 2.9 1.3 5.8 2.8 8.8 3.9.6.2 1 .4 1.5.6.9-.3 2 .1 2.2 1.1 0 1-.5 1.7-1.3 1.9m15.4.5c-.8.1-1.5-.5-1.7-1.2-4.1-2.6-9.5-2.9-13-6.4-2.6-2.9-6.6-3.9-9.3-6.7-3.6-3.8-6.4-8.2-8.6-12.9-1.2-1.9-2.9-3.4-4.1-5.3q-1.05-1.95-1.8-3.9c-1.6-3.9-1.9-8.1-3.8-11.8-2-3.2-4.1-6.2-6.2-9.3-1.3-1.8-3.2-3.1-4.8-4.7-3.6-4-7.9-7.6-10.5-12.5-.9-1.5-1.9-3-3.1-4.3-.6-.6-.5-1.6.1-2.2s1.6-.5 2.2.1c2.2 2.3 3.5 5.3 5.3 7.8 2.5 3.3 5.6 6 8.3 9.1 2.5 2.1 4.9 4.3 6.6 7.2 1.7 2.7 3.8 5.3 5.3 8.1 2 4.8 2.5 10.1 5 14.7 1.2 2 3.1 3.5 4.1 5.5 2.1 4.6 4.8 8.8 8.3 12.5 1.8 1.9 4.4 2.7 6.5 4.2 1.1.8 2.1 1.9 3.2 2.7 2.9 2.3 6.8 2.7 10.1 4.4 1.3.8 3.4 1.5 3.4 3.3-.1.8-.6 1.3-1.3 1.5 0 .1-.2.1-.2.1" class="st3"/><path d="M100.4 295.6c-2.5-2.4-5.4-4.1-7.8-6.7-2.6-2.2-4.2-5.5-7.3-6.9-6.6-2-9.8-8.8-15.5-12.3-1.4.6-2.2-.8-2.8-1.9s.5-2.5 1.7-2.2c2.5.9 4.5 2.7 6.5 4.3 2.7 2.4 5 5.2 7.8 7.5 1.4 1.1 3.2 1.3 4.8 2.3 1.1.6 1.9 1.4 2.7 2.2 2.4 2.8 4.9 5.5 7.8 7.7 1.5 1.1 2.9 2.2 4.2 3.4 1.1 1 .4 2.5-.7 2.7-.4.4-.9.3-1.4-.1m-17.6-1.3c-2-1.2-3.6-2.7-5-4.5-.8-.9-1.4-2-2.5-2.5-3.6-1.3-7.4-2.6-10.7-4.6-3.2-1.4-6.8-2.1-9.9-3.9-1-.6-2-1.4-2.9-2-3.9-2.2-8.2-4.1-11.2-7.4-.5-1.2-.1-3.4 1.5-3.2.9.1 1.5 1 1.4 1.8 2.9 2.2 6.2 4.1 9.4 5.7 1.8 1 3.2 2.4 5 3.2 3 1.2 6.2 2 9 3.5 2.7 1.6 5.7 2.5 8.6 3.6 3.5.8 4.8 4.6 7.6 6.6 1.1.8 2.9 1.5 2 3.2-.2.4-.6.6-.9.6-.6.2-1.1.1-1.4-.1M99.3 332c-1.3-2.1-2.7-4.3-3.9-6.5-2-3.5-4.3-6.9-6-10.7-1.7-3.2-1.9-6.9-2.8-10.4-.3-1-.6-2-1.1-2.8-.7-.9-1.5-2.4-.3-3.2 2-1.1 2.9 1.7 3.6 3 1.2 3 1.5 6.2 2.2 9.3.8 2.5 2 4.8 3.2 7 2.6 4.1 4.8 8.3 7.4 12.5.7 1.1-.1 2.2-1 2.4-.2.2-.9 0-1.3-.6m-52.7-41.4c-2.7-1.3-4.3-3.9-6.9-5.4-2.4-1.3-5.2-1.5-7.6-2.9-2.3-1.5-5-1.8-7.5-2.8-1.8-.7-3.5-1.5-5-2.6-.8-.8-1.3-2.5.1-3.2.8-.4 1.9 0 2.2.9 3 2.1 6.7 2.7 10 4 2.9 1.8 6.3 2.2 9.3 3.9 2.6 1.4 4.1 4.1 6.8 5.4 1.4.8.8 2.6-.4 2.9-.2 0-.6 0-1-.2" class="st3"/><path d="M67.3 315.3c-2.3-1.9-4.6-3.8-6.7-6-2.7-2.9-3.9-6.8-6-10.1-1.7-2.5-3.7-4.7-5.8-6.8-1.3-1.3-3.1-2.4-3.4-4.3-.4-2 2.6-2.6 3-.6.9 1.6 2.7 2.6 3.9 4.1 1.2 1.3 2.3 2.7 3.4 4 2.7 3.2 3.9 7.3 6.3 10.7 2.1 2.5 4.8 4.5 7.3 6.7 1.1 1 .4 2.5-.7 2.7-.4 0-.9 0-1.3-.4m-33.8-56.7c-.1-.8.4-1.7 1.2-1.8.7-.1 1.5-.2 2.1-.6 1.4-.7 3.6-3.2 4.9-1.1.6 1.1-.3 2-1.3 2.4-1.3.8-2.5 1.8-4 2.1-.1 0-.2.1-.4.1-1 .4-2.2.4-2.5-1.1" class="st3"/><path d="M71.3 255.8c-1.1-1.7-3.1-1.3-4.8-1.2-1.6-.1-3.2-.1-4.8-.4-1.1-.2-1.8-.8-2.9-1-1.3 0-2.5.4-3.8.6-1.5.4-2.9.3-4.4.1-2.2.4-4.3 1.2-6.4 2-.2.4-.6.8-1.1.8-1.1.4-2.1.8-3.2 1.2-3.2.9-6 2.5-8.9 3.9-1.2.5-2.2 1.5-3.1 2.3-.6.8-1.8 1.2-2.6.4-3.4-3.6 10.5-8.8 13-10 2.9-1.1 5.9-2.1 8.8-3.1 1.4-.4 2.9-1 4.3-.6 2.7.4 5.3-1.1 7.9-.7.9.2 1.8.7 2.6 1 1.3.3 2.7.2 4.1.4 1.9-.1 3.9-.4 5.6.7.6.4 1.2 1 1.7 1.5.8 1.1.1 2.3-.8 2.5-.2.1-.7 0-1.2-.4" class="st3"/><path d="M17.5 274.6c-.7-.4-.9-1.5-.4-2.2 1.6-2.4 3.6-4.4 5.7-6.3 1.8-1.4 7.8-8.8 9.4-4.6.1.8-.4 1.6-1.2 1.8-2 .7-3.2 2.5-4.8 3.8-1.1 1-2.1 2-3.1 2.9s-1.9 2-2.7 3.1c-.4.7-1.1 1.5-1.8 1.7-.3 0-.7 0-1.1-.2" class="st3"/><path d="M19.1 273.6c-3.3-2 4.3-7.3 5.5-9.1 1.4-1.5 3.6.5 2.3 2-.8.8-1.6 1.8-2.5 2.6-.9 1-2.1 1.8-2.8 2.9-.3.7-.8 1.5-1.6 1.7-.2.1-.5 0-.9-.1" class="st3"/><path d="M13.1 283.8c-.6.1-1.4-.2-1.7-.8-.1-.4-.1-.7-.1-1 .2-1.4.4-2.8 1.1-4.1.4-.9 1.1-1.6 1.8-2.4.7-1 1.2-2 2-2.9 3-3.5 5.4-7.6 9.3-10.2 1.8-1 3.4-2.7 5.5-2.7 2 .3 1.8 2.9-.1 3.2-.3 2-2.7 2.4-3.9 3.8-1.7 1.8-3.4 3.6-5.1 5.5-.5.8-.7 2-1.8 2.2-.6.9-1.3 1.8-1.9 2.8-.6 1.3-.6 3.4-2.2 3.7-.2.2-.4.4-.6.4-.1.1-.3.1-.4.1-.5.8-.6 2.2-1.7 2.5-.1-.1-.2-.1-.2-.1m61 38.4c-1.5-2.9-4.6-4.4-6.7-6.9-2.5-.8-1-4.6 1.3-3 2.6 2.9 6.4 4.9 8.1 8.5.5 1.1-.2 2-1.1 2.2-.5.2-1.2-.1-1.6-.8" class="st3"/><path d="M85.2 328.3c-2.6-.8-4.8-2.2-7-3.8-2.4-1.4-4.4-3.4-6.5-5.1-1.7-1.3-3.1-2.9-4.4-4.5-.6-.6-.5-1.6.1-2.2s1.7-.5 2.2.1c.8 1 1.6 2 2.5 2.8 3.4 3.1 7 5.8 10.9 8.3 1.1.6 2.2 1 3.3 1.4 1.5.6 1.1 2.7-.1 2.9-.3.2-.6.1-1 .1M72 337.2c-1-.6-2.4-1.1-2.7-2.3-.1-.8.4-1.7 1.2-1.8q.9-.15 1.5.6c.6.4 1.1.6 1.7 1 1.3.9.6 2.5-.6 2.8-.3 0-.7 0-1.1-.3M53.6 351c-5.5-.6-2.5-6.2-.2-3.2 1.2.1 2.2.6 2 2-.1.6-.6 1.1-1.2 1.2zm-10-4.4-3-.9c-1.5-.4-3.1-.6-4.6-1.1-1.3-.6-3.4-1.9-2.1-3.4 1.1-1.2 2.2 0 3.2.6 2.6.7 5.3 1.2 7.9 2.1 1.9-.1 2.3 2.7.4 3.1-.1 0-.1 0-.2.1-.5 0-1.1-.1-1.6-.5m20.2 27c-2.2 0-2-3.3.2-3.1.6-.1 1.3-.5 2-.9 1.5-.8 2.9-1.7 3.9.1.3.8-.3 1.8-1.1 2-1.3.5-2.6 1.5-4 1.8-.3 0-.7.1-1 .1m165.9 22.2c-2.8-1.2-5-3.4-7.5-5-.8 0-1.5-.5-1.6-1.3-.3-1.9 1.9-2.3 3.2-1.4 2.5 1.5 4.6 3.7 7.3 4.9 1.4.8.8 2.6-.4 2.9-.2.1-.5 0-1-.1" class="st3"/><path d="M232.5 397.1c-2.2-.6-4.5-1.1-6.5-2.3-1.6-1-3-2.3-4.6-3.5-.6-.6-.7-1.5-.1-2.2.6-.6 1.5-.7 2.2-.1 1.3 1.1 2.7 2.2 4.1 3.2 1.7 1 3.6 1.4 5.5 1.9 1.7.4 1.5 2.7.1 3zm35 2.6c-.7.1-1.4-.2-1.7-.8-.7-.5-1.5-.9-2.2-1.4-1.7-1.2 0-3.6 1.8-2.6 1.2 1 3.5 1.5 3.5 3.4-.2.7-.7 1.3-1.4 1.4m-5.4-12.8c-1.1-2.7-3.2-4.8-4.1-7.4-.4-1.4 1.5-2.4 2.5-1.5 1.5 2.5 3.1 4.9 4.3 7.6.5 1.1-.2 2-1.1 2.2-.5 0-1.2-.2-1.6-.9" class="st3"/><path d="M263.6 389c-1.3-2.5-2.5-4.9-4.1-7.2-2.1-.7-1.1-4.1 1.1-3.2 1 .6 1.6 1.6 2.2 2.5 1.3 2 2.5 4.2 3.5 6.4.4.8.1 1.7-.7 2.1-.1.1-.2.1-.4.1-.5.3-1.3 0-1.6-.7" class="st3"/><path d="M266.7 393.6c-.4-2-.8-3.9-1.9-5.6-.9-1.6-2.1-2.9-3.4-4.3-.4-.4-.5-1.1-.3-1.5.4-1.1 1.9-1.4 2.6-.5 2.5 2.5 4.6 5.5 5.4 8.9.3 1.4 1.4 3.7-.6 4.3-.8.1-1.6-.4-1.8-1.3" class="st3"/><path d="M270.3 403.4c-.8.1-1.6-.4-1.8-1.2-.3-1.5-.6-3-1-4.5-.5-1.8-1.1-3.4-1.8-5.1-.6-2-4.2-8.5-.8-9 .8-.1 1.6.6 1.6 1.5 0 1.9 1 3.6 1.6 5.4.9 2.4 1.9 4.7 2.5 7.2.4 1.3.6 2.7.9 4 .1.8-.4 1.6-1.1 1.8z" class="st3"/><path d="M269.8 402.8c-1.1-.2-1.3-1.3-1.3-2.2-.4-2.2-.8-4.3-1.5-6.5-.3-.9-.8-2-.5-2.9.8-2 3.8-.8 3.2 1.2.8 2.2 1.3 4.4 1.7 6.7.4 1.3.6 3.4-.8 3.7z" class="st3"/><path d="M269.7 411.6c-2 0-1.8-2.3-1.5-3.6.1-1 .1-2 .1-2.9.1-4-.7-7.9-1.5-11.8-.4-1.1-.2-2.5 1.1-2.7.8-.1 1.6.4 1.8 1.2 1.1 5.1 2 10.3 1.7 15.6-.1.8-.2 1.5-.3 2.3.1.8-.3 1.8-1.1 2-.2-.2-.2-.2-.3-.1" class="st3"/><path d="M270 416.3c-.8-.1-1.3-1-1.2-1.8.4-1.9.7-3.8 1-5.7.2-2-.1-4-.5-6-.1-1.5-1.5-4.1.7-4.6.8-.1 1.7.4 1.8 1.2.8 3.9 1.7 7.9.7 11.9-.5 1.4-.1 4.6-1.8 5-.2.1-.4.1-.7 0" class="st3"/><path d="M268 424.7c-.8-.1-1.3-1-1.2-1.8.6-4 1.5-8 2.1-11.9.4-1.7.1-6.4 2.6-6 2 .6.8 2.8.7 4.2-.4 2.5-.7 4.8-1.2 7.2-.5 2.3-.8 4.7-1.3 7.1-.1.6-.6 1.1-1.2 1.2-.1.1-.3.1-.5 0" class="st3"/><path d="M264.2 431.4c-1-1.2.1-2.1.8-3 1.8-4.3 2.2-9 3.9-13.3.4-1.3 1.3-3.4 2.9-2.6 1.1.6 1.3 2.5.1 3-1.3 3.2-2.1 6.6-2.9 9.9-.3 1.5-1.5 5.9-3.4 6.4-.3.2-.8.1-1.4-.4" class="st3"/><path d="M260.7 441.4c-1.2-.8-.6-2.1.1-3 1.3-2.7 2.2-5.6 3.9-8.1 2.5-4.3 2.5-9.5 3.4-14.4.1-.9.6-1.9 1.6-2.1.8-.1 1.6.4 1.8 1.2-.9 4.1-1.2 8.2-2.2 12.2-.7 3-2.7 5.4-3.9 8.1-.7 1.4-1.8 5.7-3.6 6.2-.4.2-.8.2-1.1-.1m-55.1-14.3c-.8.1-1.6-.4-1.8-1.3v-.4c-.9-1.4-1.8-2.9-2.5-4.4-.4-.8-.1-1.7.7-2.1 2.1-.8 2.5 2 3.4 3.2.6 1 1.3 1.9 1.7 3 .1.8-.4 1.6-1.1 1.8-.2.2-.2.2-.4.2" class="st3"/><path d="M203.3 422.8c-.4 0-.7-.2-1-.5-1.4-1.5-2.2-3.4-3.2-5.1-.8-1.8 1.8-3.2 2.8-1.4.8 1.5 1.4 3.2 2.7 4.4.8.8.2 2.3-.8 2.5-.2.1-.4.1-.5.1m6.2 31.5c-.9-2.8-2.2-5.5-2.7-8.5-.4-2 2.6-2.6 3-.6.5 2.8 1.7 5.4 2.6 8.1.3.8-.1 1.7-1 2-.1 0-.1 0-.1.1-.7.1-1.5-.4-1.8-1.1" class="st3"/><path d="M212.9 458.3c-.6-1.9-1.3-3.7-2-5.6-.8-2.1-2-3.9-2.7-6-.4-2.4 3.2-2.7 3.2-.3 1.8 3.5 3.2 7.2 4.4 10.9.3.8-.1 1.7-1 2-.1 0-.1 0-.1.1-.7.1-1.6-.4-1.8-1.1m-23 21.2c-1.1-.2-1.5-1.5-1.1-2.5.6-2.2.6-4.8 2.2-6.6.4-.3.8-.5 1.1-.7 2.2-.8 3.2 2.2.9 3-.7 1.4-.8 3-1.2 4.6-.1.9-.6 2-1.4 2.2 0 .1-.2.1-.5 0" class="st3"/><path d="M190.5 479.2c-3.4-.4 0-9 1.8-10 .7-.5 1.8-.3 2.2.4.3.5.4 1.1.1 1.5-.6 1-1 2.1-1.8 2.9-.5 1.2-.7 2.5-.7 3.7 0 .7-.6 1.3-1.2 1.4-.1.1-.3.1-.4.1m-31.4-26.4c-1.8-2.9-1.1-6.5-1.3-9.7 0-1.8-.1-3.5-.3-5.3 0-1.4-.3-3.6 1.7-3.5 1.3.1 1.5 1.5 1.4 2.6 0 1.9.3 3.8.3 5.7.2 2.8-.4 5.9.7 8.4.7 1.1 0 2.1-1 2.4-.5.1-1.1 0-1.5-.6" class="st3"/><path d="M160.4 456.9c-.8.1-1.7-.4-1.8-1.2-.3-1.4-.6-2.9-.8-4.3-.7-3.3-.8-6.6-.9-10 0-2 0-3.9.4-5.7-.1-2-.2-4.1.4-6.1 1.1-1.8 3.1-.7 3.1 1.1.8 4.6.8 9.3.8 13.9 0 2.5.1 5 .2 7.6 0 .5-.1.8-.4 1.2.1 1.2.9 3.1-1 3.5m-14.8-34.5c-.1-1.2-.1-2.5-.2-3.6-.1-.8.6-1.6 1.5-1.6 2.5.1 1.5 3.6 1.8 5.3.1 1.5 1.5 4.1-.7 4.6-2.3.2-2.1-3.2-2.4-4.7m-32.3 16.9c-2.4-.4-1.1-3.4-.9-5 .6-1.5.9-4.9 3.2-4 1.8 1 .1 2.9-.1 4.3-.3 1.1-.5 2.2-.5 3.3-.1.7-.6 1.3-1.2 1.4z" class="st3"/><path d="M112.2 446.1c-.8-.1-1.4-1-1.2-1.8.4-2.6.8-5.1 1.8-7.5.6-2.7.8-5.4 1.4-8 .5-2 3.4-1.3 3 .6-.8 2.9-.8 5.9-1.6 8.7-.5 1.3-.9 2.7-1.2 4-.2 1.3-.1 3.6-1.5 4zm62.4-73.2c-2.6-1.4-5.3-2.6-7.1-5-1.5-1.4-3.2-2.5-4.5-4.1-1.1-1.3-2.1-2.9-2.9-4.3-1.1-1.8-2-3.7-2.8-5.7-.6-1.3-1.5-2.3-1.5-3.7-.1-2.6 3.9-2.2 3.2.4 2.2 4.3 3.9 8.8 7.2 12.3 1.3 1.3 2.9 2.2 4.1 3.6 1.5 2 4 2.7 6 4.1 1.3.8.6 2.5-.6 2.8-.3-.1-.7-.1-1.1-.4" class="st3"/><path d="M299.4 126.1c.9-.1 1.9-.2 2.8-.3.4 0 .9-.1 1.4 0 1.6-2.2-3.8-4.3-5.5-4.2-1.1 2.5-3.9.6-5.9 1.2 0 .7-.2 1.3-.7 1.8 2 2.1 5.2 1.6 7.9 1.5m-3.2 6.9c-6.7.1-15.8-5.5-11.2-13 3.5-5.9 14.5-3.9 19.8-1.5 4.5 1 8.1 4.1 6.8 9-2.1 5.9-10.3 5.4-15.4 5.5" class="st4"/><path d="M389.7 240.6c-3.2-14.2-9.7-27.1-14.9-40.5-1.9-4.9-3-10-5.5-14.7-2.3-4.6-5.1-8.9-7.6-13.4-2.5-4.8-4.8-10.2-9-13.7-4.1-3.4-7-8.1-11.5-11.1-18.6-11.9-18.3-20.1-43.6-18.4-6.7 3.9-11.6-9.7 2.7-8.1 16.7-.9 25.5 3.2 37.5 14.4 4.3 3.6 9.5 5.9 13.3 10 3.6 4.6 8.4 8.1 11.8 12.8 3.5 5.3 5.8 11.1 9.3 16.5 4.6 7.1 7 15 8.8 23.1 4.1 14.2 8.7 28.3 8.7 43.1" class="st4"/><path d="M288.4 126.8c-.5-7.4-9-9.9-14-13.9-12.6-8.3-28.2-7.1-42.6-6.7-22.4 1.7-45.4 4.8-65.6 15.4-1.1.6-2.1 1.4-3.2 2 7.7-8.1 18.2-12.9 28.3-17.2 15.7-6.3 32.9-8.3 49.7-8.4 12.8-.2 26.3.7 37.4 8 5 3.6 10.7 6 14.7 10.9 9.3 14.4-3.9 17.6-4.7 9.9" class="st4"/><path d="M170.2 207c3.4-9.7 6.2-19.7 11.4-28.6 7-11 14.2-21.8 24.2-30.4 18.6-15.1 41.6-25 65.2-28.9 5.4-.8 26.9-.8 23.9 8.1-3.7 6.8-7.9-3.9-27.8.7-21.2 4.9-42.5 13.8-58.6 28.7-9.5 8.8-17.7 18.8-25.5 29-4.5 6.9-8.4 14.4-12.8 21.4" class="st4"/><path d="M282.9 295.5c3.6-17.6 5-35.5 7.6-53.2 3.3-17.2 7.4-34.3 8.5-51.9.8-20.4-.2-41.2-4.7-61.2-3.8-10.9 6.5-11.9 7.2-5.4 8.1 36.7 7.6 75-1.6 111.5-4.6 20.4-8.4 41.2-17 60.2" class="st4"/><path d="M299 124.9c-2.8-2.4-1.2-5.1.5-7.6 4.6-9.5 28.8-16.8 39-17 9.8-.8 18.1 5 25.5 10.6 2.1 1.4 4.3 2.8 6.6 4.1-2.5-.8-5-1.6-7.4-2.7-6.7-2.9-13.5-7-21-6.4-11.6 1-22.4 6.7-32.5 12-3.8 2.1-5.1 10.8-10.7 7" class="st4"/><path d="M291.9 126c-.8-1.3-.8-3-.8-4.6 0-1.1.4-2 1.1-2.7.4-3.9-.9-7.5-1.3-11.3-.4-4.6-.5-9.1-2-13.5-.1-.5-.3-1-.5-1.4 1 1.5 2.1 2.8 3.2 4.2.1.2.3.4.4.6 0 0 0 .1.1.1.1.2.2.4.4.6 0 .1.1.1.1.1.2.6.4 1.2.7 1.8s.4 1.3.8 2c.1.1.2.3.3.4.1.2.2.5.4.7.1.1.2.3.4.4.1.2.2.4.4.6 0 .1.1.1.1.1v.1c.2.5.6.8 1.1 1 1.8 6.5 4.1 13.1 2.5 19.9-.4 1.8-2.1 2.8-3.7 2.8-1.7.1-3-.6-3.7-1.9" class="st4"/><path d="M329.6 174.4c-4.1-15.6-14.8-37.2-29.1-45.6-7.4.3-8.3-12.7.6-9.5 10.1 6.6 17.6 15.5 21.9 27.1 4.1 8.8 6.4 18.4 6.6 28" class="st4"/><circle cx="288.1" cy="127.1" r="4" class="st4"/><path d="M263 154.9c6.5-8.3 12.2-17.6 21-23.7 4.1-2.8 8-6.3 12.8-7.9 4.5-1.6 7.7 4.6 3.2 6.7-14.2 4.7-25.4 15.8-37 24.9" class="st4"/><path d="M290.9 124.6c-.8-.5-1.4-1.2-1.7-2-17.7-2.7-36-7.1-54-4.8-2.2.3-4.6.6-6.9.8 2.9-1.1 6-2.1 9-3 18.5-5 38.7-3.6 57.3.1 6.1 1.9 1.7 11.8-3.7 8.9" class="st4"/><path d="M289.1 114.9c-.4-.5-.6-1.1-.7-1.8q-.15-.45 0-.9c-.8-2.7-1.5-5.4-3.6-7.4-1.7-2.6-4.2-4.4-5.8-7 1.5 1.3 3.4 2 5.1 3.2 1.3 1 2.5 2 3.7 3 2 1.5 3.2 3.9 4 6.2.6 1.7 2.1 3.9.1 5.3-1 .5-2.2.2-2.8-.6m12.4 1.1c-3.4-1.4.8-5.5 2-7.2 3-3.2 7.4-5.1 11.6-6.2-3.4 2.2-6.7 4.7-9 7.9-.7 1.1-1.3 2.2-2 3.3-.4 1.3-1.1 2.7-2.6 2.2m1.4 8.9c-2.3-1.9-.7-4.9 1.7-5.7 2.9-1.3 5.9-2.7 9-3.6 6-1.4 12.3-.3 17.9 1.9 2 .8 3.8 2 5.4 3.4-.8-.3-1.7-.7-2.5-1-5.9-1.6-12.3-1.5-18.2.1-3 1.1-5.9 2.8-8.7 4.2-1.4 1-3.2 1.9-4.6.7" class="st4"/><path d="M290.9 112.5c-1.3-.8-2-2.2-2.2-3.6-.1-.5-.1-1 .1-1.5-.8-3.1-1.3-6.2-2.5-9.2-1.9-2.9-3.8-5.9-6.4-8.2-3.2-3.5-7.6-5.3-11.3-8 2.1.9 4.4 1.1 6.5 2 5.2 1.5 9.7 4.6 13.4 8.6 1 1.5 2.1 2.8 3.2 4.2.1.1.1.2.2.3 1.3 2.7 2.2 5.5 3 8.4.8 2.1 1.8 4.7-.1 6.5-.6.6-1.5 1-2.3 1-.6-.1-1.1-.2-1.6-.5" class="st4"/><path d="M297.2 74c0 .1 0 .2-.1.4 0-.2.1-.3.1-.4" style="fill:#ae4a00"/><path d="M295.9 128.9c-.8-.2-1.5-.4-2.2-.6-.6-.2-1.3-.4-2-.7-.2-.1-.4-.1-.6-.3-.4-.2-.6-.4-.9-.6-.6-.4-1.2-.8-1.8-1.3-.1-.1-.1-.1-.3-.2l-.4-.4c-.1-.1-.2-.3-.4-.5-.1-.2-.2-.5-.3-.7s-.1-.4-.2-.6c.1-.9.1-1.8.3-2.7.1-1 .2-2 .4-3 .1-1 .3-1.9.4-2.8.4-1.4.7-2.7 1.2-4.1.4-1.3.9-2.7 1.4-4 .5-1.5 1.1-2.9 1.5-4.4.2-.6.5-1.3.7-2 .4-.9.7-1.9.7-2.9 0-.2 0-.4-.1-.6.6-2.2 1.1-4.5 1.5-6.7.6-3.1.8-6.2 1.3-9.3l.6-3.9V76c0-.3.1-.5.1-.8V75c0-.1.1-.3.1-.4s0-.2.1-.3c0-.1 0-.2.1-.3.3-1.5.6-2.9 1-4.3.5-1.5 1.1-3 1.8-4.6.7-1.8 1.3-3.6 1.8-5.5.5-1.8.9-3.7 1.2-5.5.3-1.5.6-3.2 1-4.7.6-1.7 1.2-3.3 1.7-5 .5-1.9.8-3.8 1.1-5.7 0-.1 0-.3.1-.4s.1-.1.1-.3c.1-.5.4-1.1.5-1.5s.2-.9.3-1.3V35c0-.1 0-.2.1-.3v-.4c.1-.6.2-1.1.4-1.6.1-.6.2-1.2.4-1.8.1-.2.1-.4.1-.6.1-.3.2-.6.3-.8 0-.1.1-.1.1-.2v.1c.1-.6.4-1.1.6-1.5s.6-1.1.8-1.5l.8-.8c.1-.2.4-.4.5-.6.1-.1.4-.2.5-.4l1.5-.6c.1 0 .1-.1.2-.1.5-.1 1.1-.2 1.5-.4h1.2c.8.2 1.6.4 2.5.6 1.1.3 2.1.5 3.1.8.1.1.4.1.5.2.4.2.8.4 1.2.7.4.4.8.8 1.2 1.1.3.4.6.8.9 1.1l.2.2c.1.1.1.3.2.4.2.4.4.8.6 1.1 0 .1.1.1.1.2.1.3.2.5.3.8.1.2.1.4.2.6.1.4.2.8.3 1.1.1.2.1.5.1.7 0 .5-.1 1.1-.1 1.5v.1c-.1 1-.4 1.9-.6 2.9 0-.1 0-.1.1-.2-.3 1-.6 1.9-.8 2.9-.4 2-.9 4.1-1.3 6-1.3 3.2-2.4 6.5-3.5 9.9-1.6 4.8-1.9 9.7-3 14.6-2.5 10.8-5.8 21.5-7.3 32.5-1.2 6.5-1 12.7-2.2 19.1-.2 1.1-.6 2.2-1.2 2.9.1.2.1.4.1.7-.6.4-1.3.8-2 1.2-.3.1-.6.3-.8.4-.6.2-1.3.4-1.8.7-.6 0-1.2 0-1.8.1s-1.2.1-1.8.1c-.4 0-.8-.1-1.3-.1-.6 0-1.1 0-1.7.1-.8.6-1 .5-1.2.4m8.9-.7c-.1 0-.1.1-.1.1 0-.1.1-.1.1-.1m.8-.3s-.1 0 0 0q-.15 0 0 0m21.6-96.1s.1 0 0 0c.1 0 0 0 0 0m.3 3.6v.1zm0-.2s0-.1 0 0q0-.15 0 0m0-.2" class="st1"/><path d="M295.9 128.9c-.8-.2-1.5-.4-2.2-.6-.6-.2-1.3-.4-2-.7-.2-.1-.4-.1-.6-.3-.4-.2-.6-.4-.9-.6-.6-.4-1.2-.8-1.8-1.3-.1-.1-.1-.1-.3-.2l-.4-.4c-.1-.1-.2-.3-.4-.5-.1-.2-.2-.5-.3-.7-.2-.6-.4-1.3-.6-1.9.1-.6.1-1.1.2-1.6.3-2 .1-4.5 2-5.9 2.2-1.8 5.7-.6 6.3 2.1.3.8 0 1.8.1 2.7.1.7.3 1.4.1 2.2 1 .2 1.8.5 2.8.4 2-.2 3.9 1 4.4 2.9.5 1.8-.2 3.2-1.4 4.2-.5.1-1 .1-1.5.1-.4 0-.8-.1-1.3-.1-.6 0-1.1 0-1.7.1-.1.3-.3.2-.5.1" class="st1"/><path d="M298.7 124.8c0-1.3.6-2.4 1.5-3.1.4-.5.6-1.1.6-1.6.1-.8.1-1.6.1-2.4.2-1.5 1.2-2.7 2.2-3.8 2.1-1.8 5.7-.6 6.3 2.1.4 1.6 0 3.2-.3 4.7-.2 1.3.3 2.7-.2 4.1-.1.4-.4.8-.6 1.3l-.1.1c-.8.6-1.6 1.1-2.5 1.5-.3.1-.6.3-.8.4-.6.2-1.3.4-1.8.7-.5 0-1 0-1.5.1-1.7-.7-3-2.1-2.9-4.1m6.1 3.4c-.1 0-.1.1-.1.1 0-.1.1-.1.1-.1m.8-.3s-.1 0 0 0q-.15 0 0 0" class="st1"/></svg>