<svg xmlns="http://www.w3.org/2000/svg" width="256" height="256" fill="none"><path fill="#618AFF" d="M256 0H0v256h256z"/><path fill="#fff" d="M186.81 62.58a93.4 93.4 0 0 0-29.44-18.18 82.4 82.4 0 0 0-29.17-5.75h-.06A82.4 82.4 0 0 0 99 44.41a93.4 93.4 0 0 0-29.49 18.17c-14.6 13.3-32 37.85-32 79.24a5.83 5.83 0 0 0 2.92 5c.18.1 17.58 10.36 20.88 30.37 2.27 13.76 11.59 24.32 27 30.56a76.3 76.3 0 0 0 21.7 5.15 5.84 5.84 0 0 0 4.354-1.572 5.82 5.82 0 0 0 1.836-4.248v-41.33a41.1 41.1 0 0 0 11.76 1.67c4.16.018 8.299-.586 12.28-1.79v41.5A5.827 5.827 0 0 0 146 213h.36a76.3 76.3 0 0 0 21.7-5.15c15.36-6.23 24.68-16.8 27-30.56a42.9 42.9 0 0 1 11.51-22.51 47.6 47.6 0 0 1 9.38-7.85 5.83 5.83 0 0 0 2.92-5c-.06-41.5-17.46-66.04-32.06-79.35m-58.68-12.26h.06c11.88 0 29.16 4.28 44.68 15.87l-10.24 19.58H93.42l-10-19.55c15.5-11.62 32.82-15.9 44.71-15.9m-55.32 125c-3.31-20-17.38-32.15-23.6-36.62C50 106.29 62.59 86 74.33 74.12L84 93l.05 24.59a56.2 56.2 0 0 0 6.21 25.7A46.6 46.6 0 0 0 104.48 160v40.41c-9.98-1.88-28.81-7.75-31.67-25.07zm27.8-37.46a44.5 44.5 0 0 1-4.89-20.35v-20.1h64.58l-.18 19.22a48.15 48.15 0 0 1-5 21c-4.13 8.25-12.21 18.08-27.25 18.08-15.63.04-23.79-11.15-27.26-17.83zm82.89 37.46c-1.59 9.6-8.17 16.85-19.57 21.54a64 64 0 0 1-12.1 3.55v-40.67a46.5 46.5 0 0 0 13.73-16.84 59.9 59.9 0 0 0 6.21-26.15L172 93l9.91-19c11.77 11.89 24.44 32.18 25.2 64.67-6.22 4.51-20.29 16.62-23.6 36.67z"/></svg>