<svg xmlns="http://www.w3.org/2000/svg" viewBox="0 -0.01 235.73 266.18"><title>logo</title><path d="M104.61,44.13A28,28,0,0,1,106.29,41,27.9,27.9,0,0,0,104.61,44.13Z" style="fill:none"/><path d="M147.77,54.1a41.44,41.44,0,0,0-2.55-4.55c-6.25-9.61-13.93-17.1-26.27-24.33-.73.89-1.46,1.75-2.18,2.61l-.4.47-1.77,2.06c-2.39,2.78-4.65,5.41-6.53,8l-.08.1q-.86,1.19-1.61,2.37l-.09.14a28,28,0,0,0-1.68,3.16l.55.23c5.25,2.36,22.83,11.16,28.47,25.37L135,73.23c6.3,2.6,13,7.77,14.73,11.87A41.34,41.34,0,0,0,147.77,54.1Z" style="fill:#ff7f2f"/><path d="M106.38,40.82q.74-1.18,1.61-2.37l.08-.1c1.88-2.58,4.14-5.22,6.53-8l1.77-2.06.4-.47c.73-.85,1.46-1.72,2.18-2.61-17.21-8.94-31.59-3-45-25.22C64.13,17.2,62.12,28.26,61.81,38.28a68.23,68.23,0,0,1,10.52-.85c10.57,0,19.65,2.5,27.35,4.85a46.58,46.58,0,0,1,4.93,1.84A27.9,27.9,0,0,1,106.29,41Z" style="fill:#ff9e16"/><path d="M78.74,99.61v0h0l0,0Z" style="fill:#6d6e71"/><path d="M5.31,63.29c17.54,8.5,15.4,14.26,24.05,29.33,2-2.34,4.07-4.51,6.13-6.48a79.19,79.19,0,0,1,7.37-6.28,71.68,71.68,0,0,1,7.68-5,78.38,78.38,0,0,1,8.12-4c.89-.38,1.82-.74,2.77-1.07s1.82-.6,2.76-.87l.27-.07A138.1,138.1,0,0,1,61.77,43.4C58.69,43.45,23.06,48,5.31,63.29Z" style="fill:#ff9e16"/><path d="M103.08,49a41.47,41.47,0,0,0-4.88-1.85c-11-3.34-22.33-6.13-36.43-3.73a138.1,138.1,0,0,0,2.68,25.43c1.17-.33,2.45-.64,3.87-.93l.27-.06c1.28-.26,2.68-.5,4.17-.71l.16,0,.36-.05c1.34-.18,2.76-.32,4.23-.43h.18l.46,0c1.39-.09,2.82-.14,4.34-.15h.86l1.46,0,1.23,0,1.5.1,1.17.09,1.46.16.17,0,1,.13,1.46.24.24,0,.9.16c.45.09.89.19,1.33.3l.13,0,.26.06.82.2c.45.12.89.25,1.33.39l.16,0,.24.07.74.23c.51.17,1,.36,1.57.59l.17.07.65.25c.73.31,1.44.65,2.1,1l.05,0,.16.09,3.28,1.79c6.43-2,14.6-2.09,22-1C125,61.79,113.14,53.49,103.08,49Z" style="fill:#ff7f2f"/><path d="M79.47,128.25l0,0a41.81,41.81,0,0,1-.71-28.57,41.34,41.34,0,0,0-26,17.25Q52,118,51.37,119.08t-1.27,2.3a73.86,73.86,0,0,0-3.42,7.75q-.74,2-1.35,4t-1.11,4.16q.5-2.12,1.11-4.16-.62,2-1.11,4.16a85,85,0,0,0-2.05,19c1.88.31,3.68.57,5.45.82l1.33.18c1.7.22,3.37.41,5,.57H54c1.63.15,3.2.26,4.74.34l1.15.06c1.46.06,2.9.11,4.29.11h.18c.72,0,1.42,0,2.12,0l1.08,0q1.57-.06,3.08-.17a68.74,68.74,0,0,0,19.53-4.33,42.73,42.73,0,0,0,8.15-4.13A41.71,41.71,0,0,1,79.47,128.25Z" style="fill:#ff7f2f"/><path d="M32.13,97.2v0l0,0C17.67,117.51,20.1,128.33,0,141.61c14.73,7,26.81,11.35,37.12,13.65a89.31,89.31,0,0,1,2.16-19.12,71.64,71.64,0,0,1,2.65-8.79,78.46,78.46,0,0,1,3.65-8.28,46.81,46.81,0,0,1,3-5l.17-.22A131.71,131.71,0,0,1,32.13,97.2Z" style="fill:#ff9e16"/><path d="M51.37,119.08q-.67,1.12-1.27,2.3a73.89,73.89,0,0,0-3.42,7.75,73.86,73.86,0,0,1,3.42-7.75Q50.7,120.2,51.37,119.08Z" style="fill:#fff"/><path d="M99.41,74.39l-.67-.26c-.44-.18-.88-.35-1.35-.51l-.84-.26c-.43-.13-.86-.27-1.3-.38l-.94-.22c-.43-.1-.86-.2-1.3-.29l-1-.18-1.31-.22-1.06-.13-1.34-.15-1.1-.09-1.34-.09-1.14,0-1.34,0h-.87c-1.32,0-2.64.05-4,.14l-.6,0c-1.33.1-2.64.23-3.93.4l-.48.07c-1.32.18-2.62.4-3.86.65l-.28.06c-1.3.27-2.56.57-3.75.91a41.49,41.49,0,0,0-4.93,1.73C50.13,80,41.41,86.28,32.14,97.18c.83,1,1.64,1.89,2.44,2.79-.8-.9-1.62-1.83-2.44-2.79v0a131.71,131.71,0,0,0,16.61,16.62l0,0c-1.56-1.27-3.12-2.62-4.71-4.09,1.6,1.47,3.17,2.81,4.73,4.08a46.19,46.19,0,0,1,28.95-19.1l3.4-.69.06-.13A20.69,20.69,0,0,1,82.28,92a43,43,0,0,1,4.52-6.25,42.35,42.35,0,0,1,5.14-5,32.25,32.25,0,0,1,9-5.29l.29-.18Q100.35,74.79,99.41,74.39ZM37.58,103.26l-.66-.73,1.2,1.27Z" style="fill:#ff7f2f"/><path d="M140.13,226.82a28,28,0,0,1-1.22,3.37A27.9,27.9,0,0,0,140.13,226.82Z" style="fill:none"/><path d="M96,223.06a41.44,41.44,0,0,0,3.17,4.14c7.54,8.63,16.21,15,29.45,20.37.6-1,1.2-1.94,1.79-2.89l.33-.53,1.46-2.29c2-3.09,3.84-6,5.33-8.84l.06-.11q.68-1.3,1.25-2.57l.07-.15a28,28,0,0,0,1.22-3.37l-.58-.15c-5.53-1.59-24.18-7.81-31.77-21.08l-1.88-3.28c-6.6-1.68-13.92-5.86-16.26-9.66A41.34,41.34,0,0,0,96,223.06Z" style="fill:#ff7f2f"/><path d="M138.85,230.34q-.57,1.27-1.25,2.57l-.06.11c-1.49,2.82-3.36,5.75-5.33,8.84l-1.46,2.29-.33.53c-.6.95-1.2,1.91-1.79,2.89,18.3,6.42,31.7-1.45,48.11,18.6,7.28-18.41,7.71-29.65,6.6-39.62a68.23,68.23,0,0,1-10.3,2.33c-10.46,1.49-19.81.3-27.76-.93a46.58,46.58,0,0,1-5.14-1.13,27.9,27.9,0,0,1-1.22,3.37Z" style="fill:#ff9e16"/><path d="M157.9,168.21h0l0,0v0Z" style="fill:#6d6e71"/><path d="M235.73,193.8c-18.57-5.94-17.27-11.94-28-25.63-1.7,2.61-3.39,5-5.15,7.28a79.19,79.19,0,0,1-6.41,7.26,71.68,71.68,0,0,1-6.89,6.06,78.38,78.38,0,0,1-7.47,5.11c-.83.5-1.7,1-2.59,1.45s-1.72.85-2.61,1.25l-.25.11a138.1,138.1,0,0,1,6.25,24.79C185.69,221,220.33,211.48,235.73,193.8Z" style="fill:#ff9e16"/><path d="M141,221.8a41.47,41.47,0,0,0,5.09,1.14c11.32,1.76,23,2.91,36.59-1.46a138.1,138.1,0,0,0-6.25-24.79c-1.12.49-2.34,1-3.7,1.47l-.26.1c-1.23.44-2.59.87-4,1.29l-.15,0-.35.1c-1.3.37-2.69.71-4.12,1l-.17,0-.45.1c-1.36.29-2.78.54-4.28.76l-.51.08-.33,0-1.45.18-1.23.13-1.5.12-1.17.07-1.47,0H150l-1.48,0h-.24l-.91,0c-.46,0-.91-.06-1.36-.1h-.13l-.27,0-.84-.08c-.47-.05-.92-.12-1.37-.2l-.16,0-.25,0-.77-.12c-.53-.1-1-.22-1.64-.36l-.18,0-.68-.16c-.77-.21-1.51-.44-2.22-.69l-.05,0-.17-.06L133.8,199c-6.08,2.94-14.16,4.14-21.61,4.1C117.42,212.23,130.37,218.76,141,221.8Z" style="fill:#ff7f2f"/><path d="M153.12,140l0,0a41.81,41.81,0,0,1,4.75,28.18,41.34,41.34,0,0,0,23.27-20.75q.57-1.16,1.07-2.36t.93-2.46a73.86,73.86,0,0,0,2.29-8.16q.45-2.06.77-4.16t.51-4.28q-.19,2.17-.51,4.28.32-2.11.51-4.28a85,85,0,0,0-.66-19.1c-1.91,0-3.73,0-5.51,0h-1.34c-1.72,0-3.4.07-5,.14h-.11c-1.64.08-3.2.2-4.74.33l-1.15.11c-1.46.14-2.88.3-4.26.5l-.18,0c-.71.1-1.4.22-2.09.34l-1.07.17q-1.55.28-3,.61a68.74,68.74,0,0,0-18.72,7,42.73,42.73,0,0,0-7.48,5.24A41.71,41.71,0,0,1,153.12,140Z" style="fill:#ff7f2f"/><path d="M204.38,164v0l0,0c11.42-22.2,7.48-32.56,25.5-48.56-15.57-4.81-28.14-7.44-38.68-8.26a89.31,89.31,0,0,1,.57,19.23,71.64,71.64,0,0,1-1.38,9.07,78.46,78.46,0,0,1-2.44,8.72,46.81,46.81,0,0,1-2.25,5.41l-.14.25A131.71,131.71,0,0,1,204.38,164Z" style="fill:#ff9e16"/><path d="M182.24,145.09q.5-1.2.93-2.46a73.89,73.89,0,0,0,2.29-8.16,73.86,73.86,0,0,1-2.29,8.16Q182.74,143.89,182.24,145.09Z" style="fill:#fff"/><path d="M141,196.13l.7.16c.46.11.93.22,1.41.31l.87.14c.44.07.88.14,1.34.19l1,.09c.44,0,.88.08,1.33.1l1,0,1.33,0,1.07,0,1.35,0,1.1-.07,1.34-.1,1.13-.12,1.33-.16.86-.12c1.31-.19,2.61-.43,3.9-.7l.59-.13c1.3-.29,2.59-.6,3.84-1l.47-.14c1.28-.37,2.53-.77,3.73-1.19l.27-.1c1.25-.45,2.45-.93,3.58-1.43a41.49,41.49,0,0,0,4.63-2.41c9.81-5.93,17.55-13.36,25.18-25.46-1-.84-1.89-1.64-2.81-2.42.92.78,1.86,1.58,2.81,2.42v0a131.71,131.71,0,0,0-18.79-14.1l0,0c1.72,1,3.46,2.15,5.25,3.38-1.79-1.23-3.53-2.33-5.26-3.37a46.19,46.19,0,0,1-26,23l-3.26,1.17,0,.14a20.69,20.69,0,0,1-.83,2,43,43,0,0,1-3.59,6.83,42.35,42.35,0,0,1-4.38,5.69,32.25,32.25,0,0,1-8.15,6.51l-.26.22Q140,195.87,141,196.13Zm57.12-37.33.76.62-1.36-1.09Z" style="fill:#ff7f2f"/></svg>