<svg xmlns="http://www.w3.org/2000/svg" fill="none" viewBox="0.83 0.33 29.48 50.67"><g fill="white"><path d="m17.632 33.9831c-1.8609 0-3.7243-.0629-5.5816.0194-1.7001.075-2.68502-.6365-3.26098-2.2264-.77319-2.132-1.7436-4.1926-2.52767-6.3222-.34848-.9463-.87846-1.2851-1.83919-1.1786-.50699.0557-1.04302.0436-1.54274-.0556-1.26202-.2493-2.01948-1.0092-2.0461-2.3426-.0242-1.2342.89177-2.2687 2.2155-2.345 1.49313-.0871 2.99836-.0665 4.49391-.006 1.06479.0423 1.80047.605 2.20823 1.648.90264 2.3063 1.90334 4.5738 2.78174 6.8885.3219.847.7333 1.2064 1.6771 1.1798 2.3244-.0678 4.6524-.0738 6.9756.0036.9583.0314 1.337-.3497 1.6541-1.1858.8578-2.2675 1.7956-4.5048 2.7418-6.7373.6607-1.5572 1.8186-2.1271 3.1702-1.6431 1.389.4973 1.9227 1.6577 1.3068 3.2875-1.2221 3.2319-2.5204 6.436-3.8321 9.6328-.4198 1.0237-1.3298 1.383-2.3921 1.3842-2.0679.0037-4.1346 0-6.2025 0z"/><path d="m15.1935 13.6855c0-2.2953 0-4.5907 0-6.88485 0-1.24024-.0266-2.48049.006-3.71952.0424-1.58268 1.2003-2.805983 2.5458-2.745483 1.3673.061709 2.3462 1.161593 2.3571 2.733383.0206 3.04798.0061 6.09595.0061 9.14277v1.8912c1.0442-.9958 1.8464-1.74 2.6244-2.5083 1.187-1.1725 2.7201-1.3347 3.7159-.3727 1.0672 1.0309 1.0382 2.42-.1924 3.6759-2.2046 2.2494-4.4322 4.4758-6.7045 6.6562-1.279 1.227-2.5277 1.1737-3.82-.0895-2.2143-2.1659-4.4068-4.3536-6.58113-6.5582-1.26565-1.2838-1.32857-2.6003-.24805-3.6493 1.0285-.9995 2.50348-.9087 3.70258.3218.7417.7611 1.3709 1.6335 2.0509 2.4563.1791-.1161.357-.2311.5361-.3473z"/><path d="m17.5784 51.0001c-2.8241-.15-5.3929-1.0466-7.5443-3.0032-1.1132-1.0127-1.28744-2.4381-.41867-3.4327.76597-.8773 2.31107-.9208 3.36867-.0944 3.2875 2.57 6.1419 2.5809 9.3084.0363 1.1894-.9559 2.5737-.9341 3.4642.0532.8361.9269.6522 2.437-.3956 3.4437-2.1635 2.0787-4.8231 2.8568-7.7815 2.9959z"/><path d="m12.3733 36.4465c1.5125.0024 2.6825 1.1362 2.6692 2.5858-.0121 1.3854-1.3019 2.6039-2.7225 2.5712-1.3515-.0302-2.56635-1.2269-2.59055-2.5482-.02662-1.4544 1.14705-2.6124 2.64385-2.61z"/><path d="m25.6538 39.0393c-.0121 1.3601-1.2063 2.5459-2.5857 2.5664-1.4605.0218-2.668-1.1785-2.6487-2.6329.0206-1.5343 1.1423-2.5773 2.714-2.5241 1.4484.0496 2.5338 1.164 2.5217 2.5918z"/></g></svg>