<svg xmlns="http://www.w3.org/2000/svg" xml:space="preserve" width="16.845" height="15.78" style="clip-rule:evenodd;fill-rule:evenodd;stroke-linejoin:round;stroke-miterlimit:2"><path d="M.881-.667h.262q.021 0 .041.008a.11.11 0 0 1 .056.057.1.1 0 0 1 .008.041v.596a.1.1 0 0 1-.005.032.1.1 0 0 1-.037.051.1.1 0 0 1-.028.016v.041H.195V.134A.1.1 0 0 1 .167.118.1.1 0 0 1 .145.095Q.135.082.13.067A.1.1 0 0 1 .125.035v-.596a.1.1 0 0 1 .008-.041.1.1 0 0 1 .056-.057.1.1 0 0 1 .041-.008h.262l-.03-.03a.3.3 0 0 1-.049-.059.1.1 0 0 1-.007-.034.1.1 0 0 1 .007-.034.08.08 0 0 1 .046-.047.1.1 0 0 1 .068 0q.016.007.029.019l.131.131.13-.131a.09.09 0 0 1 .096-.019q.016.007.028.019a.1.1 0 0 1 .019.028.1.1 0 0 1 .007.034.1.1 0 0 1-.007.034.3.3 0 0 1-.049.059z" style="fill-rule:nonzero" transform="matrix(15 0 0 15 -1.875 13.155)"/><path d="M.265.07.352.031h.691l.064.039v.035H.265Zm.361-.702L.481-.777A.02.02 0 0 1 .476-.79q0-.006.005-.012a.02.02 0 0 1 .012-.005q.008 0 .013.005l.17.17h.021l.17-.17q.005-.006.012-.005.007 0 .013.005a.02.02 0 0 1 .005.012.02.02 0 0 1-.005.013l-.145.145.017.002.014.005.01.011a.03.03 0 0 1 .004.017l-.031.026H.61L.581-.597a.03.03 0 0 1 .004-.017l.01-.011.014-.005z" style="fill:#e5e5e5;fill-rule:nonzero" transform="matrix(15 0 0 15 -1.875 13.155)"/><path d="M1.143-.597q.014 0 .024.011a.03.03 0 0 1 .011.025v.596a.04.04 0 0 1-.011.025.03.03 0 0 1-.024.01H.23A.03.03 0 0 1 .206.06.04.04 0 0 1 .195.035v-.596q0-.015.011-.025A.03.03 0 0 1 .23-.597z" style="fill:#ccc;fill-rule:nonzero" transform="matrix(15 0 0 15 -1.875 13.155)"/><path d="M1.073-.491q.015 0 .027.005l.022.015.015.022a.07.07 0 0 1 0 .055l-.015.022-.022.015-.027.006a.1.1 0 0 1-.028-.005l-.022-.015-.015-.023a.07.07 0 0 1 0-.055l.015-.022.022-.015a.1.1 0 0 1 .028-.005" style="fill:#f03a17;fill-rule:nonzero" transform="matrix(15 0 0 15 -1.875 13.155)"/><path d="M1.073-.281a.07.07 0 0 1 .049.021l.015.022a.07.07 0 0 1 0 .055l-.015.022-.022.015-.027.005a.1.1 0 0 1-.028-.005l-.022-.015-.015-.022a.07.07 0 0 1 0-.055l.015-.022.022-.015a.1.1 0 0 1 .028-.006" style="fill:#757575;fill-rule:nonzero" transform="matrix(15 0 0 15 -1.875 13.155)"/><path d="M.932-.526q.015 0 .025.01t.01.025v.456a.04.04 0 0 1-.01.025.03.03 0 0 1-.025.01H.3a.03.03 0 0 1-.024-.01.04.04 0 0 1-.011-.025v-.456q0-.015.011-.025A.03.03 0 0 1 .3-.526z" style="fill:#383838;fill-rule:nonzero" transform="matrix(15 0 0 15 -1.875 13.155)"/></svg>
