<svg xmlns="http://www.w3.org/2000/svg" xml:space="preserve" viewBox="44.7 -0.03 422.6 512.03"><path d="m352.1.7-262 57.7C63.6 64.3 44.7 87.8 44.7 115v332.8c0 23.7 17.7 43.5 41 46.2l137.5 18 121.1-120.5L467 265.7l-2.2-190.4c-.3-23.2-21.8-40.4-44.4-35.5L390 46.4l.2-14.4c.3-20.4-18.4-35.6-38.1-31.3" style="fill:#c02223"/><path d="M390.4 46.3v301.9l76.9-82.8-2.2-196.7c-.2-20-18.7-34.7-38.2-30.4z" style="fill:#882425"/><linearGradient id="a" x1="291.877" x2="304.067" y1="125.154" y2="227.245" gradientTransform="matrix(1.4556 0 0 -1.4548 -94.406 694.55)" gradientUnits="userSpaceOnUse"><stop offset="0" style="stop-color:#dcf1f3"/><stop offset="1" style="stop-color:#c2c2c9"/></linearGradient><path d="m223.2 512 205.7-53.6 38.4-192.9z" style="fill:url(#a)"/><linearGradient id="b" x1="205.908" x2="225.274" y1="178.073" y2="450.816" gradientTransform="matrix(1.4539 0 0 -1.4539 -93.959 694.194)" gradientUnits="userSpaceOnUse"><stop offset="0" style="stop-color:#dcf1f3"/><stop offset="1" style="stop-color:#c2c2c9"/></linearGradient><path d="M284.4 212.5s-23.5-30.6-40.9-38.9c-11.1-5.2-27.5-7.2-40.4-.8-19 9.5-21 36.2-3.5 46.8 4.1 2.6 9.7 4.8 16.9 6.5 38.7 8.9 102.6 27.3 94.8 101.5 0 0-4.5 69.6-77.7 77.6-12.9 1.4-26 .5-38.5-2.5-17.4-3.8-48.1-11.7-63.1-21l-2.8-79.4h7.4s14.6 35.3 56.1 52.4c7.7 3.1 16.1 4.3 24.3 3.1 10.3-1.5 22.4-7.1 27.3-23.8 0 0 8.3-24.4-34.7-37.8-34.4-10.8-66.8-21.8-80.2-58.1-6.3-17.2-7.4-36.2-3.1-54.5 5.7-23.8 22-57.3 68-71.7 0 0 60.5-16.4 102 5.8l-1.8 94.8z" style="fill:url(#b)"/></svg>