<?xml version="1.0" encoding="UTF-8" standalone="no"?><!DOCTYPE svg PUBLIC "-//W3C//DTD SVG 1.1//EN" "http://www.w3.org/Graphics/SVG/1.1/DTD/svg11.dtd"><svg width="4167px" height="4167px" version="1.1" xmlns="http://www.w3.org/2000/svg" xmlns:xlink="http://www.w3.org/1999/xlink" xml:space="preserve" xmlns:serif="http://www.serif.com/" style="fill-rule:evenodd;clip-rule:evenodd;stroke-linejoin:round;stroke-miterlimit:2;"><g transform="matrix(1,0,0,1,-8618.379741,-0)"><g id="Stoat---Round-Light" serif:id="Stoat - Round Light" transform="matrix(1,0,0,1,8618.379741,0)"><rect x="0" y="0" width="4166.667" height="4166.667" style="fill:none;"/><clipPath id="_clip1"><rect x="0" y="0" width="4166.667" height="4166.667"/></clipPath><g clip-path="url(#_clip1)"><g transform="matrix(1,0,0,1,-4350.751494,0)"><circle cx="6434.085" cy="2083.333" r="2083.333" style="fill:white;"/><clipPath id="_clip2"><circle cx="6434.085" cy="2083.333" r="2083.333"/></clipPath><g clip-path="url(#_clip2)"><path d="M7046.146,4166.667L5048.317,4166.667C5048.317,4166.667 4975.093,3290.065 5031.977,2875.301C5106.117,2334.709 5393.364,1790.629 5393.364,1790.629C5443.694,1937.858 5518.684,2037.74 5640.412,2047.884C5368.971,1808.948 5465.224,1452.634 5544.338,1212.81C5572.349,1127.899 5630.169,1034.521 5723.825,1008.823C5938.89,949.813 6351.608,1397.015 6351.608,1397.015C6336.66,1334.149 6297.546,1260.374 6242.614,1194.652C6640.907,1140.46 6962.804,1200.691 7196.489,1409.976C7321.641,1522.06 7405.957,1662.85 7461.571,1748.352C7559.853,1899.456 7640.737,2080.642 7594.398,2390.76C7594.398,2390.76 7615.427,2475.803 7675.576,2560.871C7787.952,2719.804 7708.523,2797.788 7650.085,2872.798C7585.587,2955.588 7398.257,3068.358 7235.096,3097.766C7080.103,3125.7 6976.544,3083.01 6588.585,3010.376C6160.51,2930.231 6121.992,2925.686 5932.825,2794.963C5642.306,2594.204 5617.174,2214.028 5617.174,2214.028C5524.801,2535.399 5758.633,2836.835 5956.751,2996.25C6147.983,3150.123 6339.407,3343.412 6459.758,3534.027C6483.311,3343.381 6584.394,3206.037 6750.728,3113.552C6625.096,3531.572 6796.869,3850.154 7046.146,4166.667ZM7687.841,2709.781C7690.667,2689.262 7685.838,2601.698 7488.802,2638.107C7301.078,2672.795 7292.135,2730.275 7293.728,2770.483C7296.414,2838.313 7413.667,2942.295 7528.424,2905.818C7642.097,2869.686 7681.257,2757.601 7687.841,2709.781ZM6625.563,2096.159C6543.881,2096.159 6477.566,2164.184 6477.566,2247.971C6477.566,2331.759 6543.881,2399.784 6625.563,2399.784C6707.245,2399.784 6773.561,2331.759 6773.561,2247.971C6773.561,2164.184 6707.245,2096.159 6625.563,2096.159ZM7503.685,2297.356C7509.1,2304.905 7520.047,2301.685 7527.108,2296.549C7527.108,2296.549 7563.785,2269.644 7569.953,2188.773C7576.121,2107.903 7507.933,2060.41 7464.145,2055.85C7435.835,2052.902 7417.16,2061.132 7409.392,2074.829C7403.158,2085.821 7403.886,2105.159 7408.837,2114.999C7414.028,2125.316 7490.213,2278.575 7503.685,2297.356ZM5767.451,1841.603C5731.456,1794.966 5716.282,1735.606 5715.257,1667.598C5761.112,1714.282 5815.402,1732.85 5878.742,1721.253C5831.634,1668.288 5793.038,1610.641 5784.832,1536.279C5849.864,1575.279 5920.385,1598.809 6006.801,1577.543C5959.156,1544.989 5925.949,1508.826 5917.16,1466.558C6035.249,1502.646 6133.116,1500.818 6204.581,1449.484C6096.488,1321.627 5894.97,1146.462 5785.226,1155.138C5707.896,1161.251 5664.487,1195.18 5605.089,1431.312C5552.265,1641.311 5589.019,1842.687 5688.888,1861.658C5745.754,1872.461 5767.451,1841.603 5767.451,1841.603Z" style="fill:rgb(40,32,56);"/><path d="M7033.82,1218.234C7136.313,1120.84 7246.68,1023.648 7329.595,1022.264C7472.625,1019.876 7442.756,1338.46 7427.216,1556.263C7427.216,1556.263 7307.462,1394.84 7194.749,1314.362C7128.719,1267.215 7033.82,1218.234 7033.82,1218.234Z" style="fill:rgb(40,32,56);"/></g></g></g></g></g></svg>