<svg xmlns="http://www.w3.org/2000/svg" viewBox="70.08 3.8 372.45 500.24"><path d="M257.242 22.34c-17.48.02-179.867 241.215-175.16 303.226 4.711 62.012 67.195 172.805 170.211 172.801 103.008-.008 176.996-65.656 178.871-162.238 1.871-96.582-156.437-313.809-173.922-313.79m0 0" style="stroke:none;fill-rule:nonzero;fill:#333d4d;fill-opacity:1"/><path d="M232.352 488.953c-46.567-12-62.989-23.156-62.989-23.156-17.515-11.813-33.027-25.04-42.734-38.649-7.02-9.847-16.871-30.691-20.406-41.671-19.082-59.848 5.25-127.543 41.988-167.473 22.926-23.883 53.55-32.348 88.527-36.879 40.762-5.281 78.086 2.445 104.254 28.617 17.098 14.242 20.797 26.121 20.516 48.082.086 8.957-.047 9.785-1.867 11.61-1.692 1.691-2.743 1.937-7.739 1.796-3.297-.093-10.765-1.453-17.39-3.164-13.903-3.593-18.766-4.363-22.793-3.609-2.688.504-3.485 1.352-7.055 7.5-2.215 3.809-4.992 7.563-6.176 8.336-3.183 2.086-8.242 1.52-17.152-1.922-13.797-5.328-19.77-5.047-25.414 1.2-3.828 4.238-5.79 8.109-8.496 16.761-4.32 13.797-4.715 27.043-1.11 37.262 5.91 12.808 14.688 23.25 24.473 33.027 7.57 7.32 20.281 17.945 55.984 44.047 29.247 21.383 46.38 32.258 46.38 35.547 0 3.242-19.075 15.332-35.852 23.426-14.149 6.828-27.531 10.843-42.227 14.714-22.125 4.676-44.547 6.165-62.722 4.598m0 0" style="stroke:none;fill-rule:nonzero;fill:#5f6e82;fill-opacity:1"/><path d="M242.492 503.844a895 895 0 0 0-8.633-.89c-13.593-1.352-29.023-4.75-42.605-9.376-66.973-22.812-112.313-78.707-119.852-147.75-2.59-23.71-1.453-41.21 4.121-63.406 12.293-48.957 48.094-116.766 98.38-186.344 33.136-45.851 70.605-88.418 81.035-92.05 2.773-.97 6.015 1.046 15.113 9.398 21.719 19.933 58.898 66.101 88.863 110.336 54.418 80.328 83.617 148.543 83.617 195.332 0 51.703-19.437 99.195-54.554 133.32-28.598 27.781-64.11 44.563-106.489 50.313-6.742.918-33.902 1.691-38.996 1.117m50.332-19.012c15.95-4.242 26.715-8.113 40.16-14.434 17.2-8.086 36.317-20.859 36.317-24.27 0-.523-1.406-2.444-3.125-4.273-6.414-6.816-12.488-10.675-63.692-48.687-14.629-11.578-30.59-23.387-43.359-39.516-1.945-17.226.133-47.527 14.852-57.918 2.273-1.445 3.3-1.703 6.734-1.703 4.086 0 7.09.817 19.531 5.305 10.309 3.719 12.688 2.543 19.738-9.766 2.477-4.32 5.399-6.23 9.555-6.246 1.543-.004 8.719 1.457 15.953 3.254 22.27 5.524 26.895 5.664 29.356.906 1.617-3.125 1.136-18.18-.77-24.113-2.004-6.238-6.047-13.86-10.445-19.691-2.16-2.864-4.414-6.164-5.016-7.344-1.625-3.18-11.234-15.79-15.898-20.852-17.922-19.472-43.883-31.922-73.422-35.222-7.715-.86-26.465-.375-35.02.906-43.02 6.441-75.957 27.203-99.238 62.555-27.781 46.832-39.633 94.89-24.344 141.48 3.313 9.95 11.938 27.66 17.938 36.828 9.355 14.293 21.207 26.09 39.297 39.117 2.863 2.067 6.68 4.485 8.48 5.383 1.801.895 4.617 2.535 6.254 3.653 7.637 5.195 26.63 11.89 40.781 14.378 15.786 3.47 25.352 2.844 36.34 2.883 11.48.168 21.989-.277 33.043-2.613m0 0" style="stroke:none;fill-rule:nonzero;fill:#2a323d;fill-opacity:1"/></svg>