<svg xmlns="http://www.w3.org/2000/svg" xml:space="preserve" viewBox="0 0 1297 512"><path fill="none" d="M1298 305v208c-332.36 0-664.72 0-997.86-.368.733-.788 2.224-1.43 3.763-1.58 2.471-.24 5.039.189 7.453-.264 12.278-2.305 24.594-4.484 36.749-7.335 9.47-2.222 18.95-4.773 28.025-8.227 15.29-5.819 29.842-13.093 43.746-21.99 16.852-10.784 31.016-24.328 43.535-39.487 10.51-12.726 18.228-27.363 25.224-42.49 7.265-15.709 12.115-32.014 16.273-48.62 1.606-6.415 2.175-13.094 3.114-19.667 1.7-11.903 4.647-23.81 4.706-35.727.125-25.152 2.193-50.411-1.743-75.475-2.635-16.777-4.56-33.735-8.432-50.23-4.235-18.045-11.373-35.199-20.05-51.716-9.334-17.767-20.915-33.789-35.672-47.27-8.86-8.095-18.62-15.249-28.277-22.418-13.26-9.843-28.36-16.461-43.75-21.872-13.001-4.571-26.669-7.396-40.194-10.285-10.44-2.23-21.122-3.319-31.675-5.047-1.056-.173-1.96-1.266-2.935-1.932h998c0 87.36 0 174.72-.379 262.747-.769.164-1.436-.3-1.509-.845-1.568-11.75-6.942-21.756-14.978-30.112-11.124-11.565-24.734-16.475-41.08-15.014-10.13.906-18.348 4.466-24.99 11.785-2.933 3.23-5.19 7.073-8.362 11.483v-21.65h-36.294v180.323h36.582v-69.812c1.003 1.406 1.48 1.987 1.865 2.625 12.362 20.5 32.211 24.407 51.718 17.962 20.568-6.796 31.845-22.484 35.51-43.728.118-.678 1.255-1.18 1.917-1.764m-232-29.48c0-1.834.108-3.674-.018-5.498-.716-10.412 5.69-18.979 15.947-21.6 10.703-2.735 23.068 5.998 23.07 16.928.004 26.66.001 53.321.001 79.981v5.31h37.75c.109-.84.231-1.325.227-1.81-.319-32.259-.368-64.524-1.13-96.772-.259-10.917-5.817-19.786-14.657-26.478-9.534-7.217-20.165-8.812-31.838-7.699-15.908 1.518-27.046 9.318-34.192 23.75-6.503-17.082-19.62-24.735-36.803-24.407-16.914.322-29.976 8.116-36.297 25.213l-1.177-.738v-22.427h-34.56v131.345H990c0-27.366-.157-54.352.165-81.332.05-4.17 1.924-8.476 3.623-12.432 2.698-6.284 13.707-10.507 22.285-7.826 8.03 2.51 12.923 9.185 12.925 18.156.005 25.994.002 51.988.002 77.982v5.533h37zm-381.06 39.594c1.515-11.46 2.875-22.924-2.312-33.91-9.439-19.987-27.693-26.998-47.261-32.252-11.716-3.145-23.715-5.799-34.83-10.472-12.306-5.175-12.255-21.256-1.825-28.33 7.539-5.114 16.365-6.288 25.035-4.97 11.226 1.706 21.67 5.044 23.435 18.735.146 1.138 1.975 2.924 3.05 2.945 11.114.218 22.232.134 33.263.134 1.7-10.698-3.912-25.89-12.742-34.706-9.487-9.472-20.845-14.94-34.143-17.491-15.577-2.987-30.582-2.18-45.573 2.654-13.578 4.378-24.678 11.918-32.218 24.247-8.4 13.737-9.023 28.464-3.29 42.907 4.524 11.396 14.413 18.58 25.51 23.187 8.019 3.328 16.629 5.243 25 7.7 8.721 2.56 17.584 4.69 26.174 7.625 6.096 2.083 12.133 5.006 14.747 11.586 3.28 8.257-.366 16.535-8.263 21.44-8.543 5.304-17.889 5.338-27.229 4.699-8.357-.571-16.321-3.399-21.352-10.508-3.176-4.489-4.883-10.018-7.22-15.02h-35.3c.498 4.587.61 8.87 1.476 12.993 3.018 14.372 10.578 25.583 23.163 33.55 11.45 7.25 24.087 10.308 37.257 10.988 9.221.476 18.588.075 27.763-1.006 9.748-1.148 19.156-4.434 27.264-10.052 9.292-6.44 16.724-14.693 20.42-26.673m173.434 4.902c-2.184-.555-4.631-.656-6.507-1.743-7.894-4.576-11.753-11.796-11.812-20.754-.158-24.32-.054-48.642-.054-72.963v-5.16h-37c0 29.709-.23 59.025.185 88.332.087 6.196 1.44 12.872 4.073 18.447 11.214 23.742 28.747 28.676 52.505 24.814 3.741-.608 7.401-2.392 10.821-4.168 8.019-4.165 13.387-10.915 17.69-18.909v22.71h35.485V219.296H887v5.693c0 22.49.103 44.979-.092 67.466-.037 4.176-.727 8.524-2.054 12.478-4.201 12.524-15.241 16.958-26.48 15.082M779.19 219.15h-23.328v-30.762H717.83v30.715h-17.824c0 8.837-.125 17.142.14 25.435.038 1.182 1.9 3.209 3.035 3.296 4.836.37 9.717.157 14.819.157 0 7.128-.095 14.445.019 21.759.275 17.75.135 35.53 1.158 53.24.702 12.158 8.029 21.113 18.928 25.755 12.595 5.364 26.033 4.535 39.356 2.098 4.478-.819 5.243-3.63 4.464-7.175-1.665-7.573-3.647-15.076-5.549-22.812-1.024.315-1.772.576-2.535.774-12.133 3.145-17.841-1.213-17.841-13.61v-60.39h23.855c0-9.512 0-18.656-.665-28.481" style="fill:#000;fill-opacity:0"/><path fill="#F4E7DF" d="M299.531 1c1.444.666 2.348 1.759 3.404 1.932 10.553 1.728 21.235 2.817 31.675 5.047 13.525 2.89 27.193 5.714 40.195 10.285 15.39 5.41 30.49 12.029 43.749 21.872 9.657 7.17 19.416 14.323 28.277 22.418 14.757 13.481 26.338 29.503 35.672 47.27 8.677 16.517 15.815 33.671 20.05 51.716 3.872 16.495 5.797 33.453 8.432 50.23 3.936 25.064 1.868 50.323 1.743 75.475-.06 11.917-3.005 23.824-4.706 35.727-.939 6.573-1.508 13.252-3.114 19.666-4.158 16.607-9.008 32.912-16.273 48.62-6.996 15.128-14.714 29.765-25.224 42.49-12.519 15.16-26.683 28.704-43.535 39.488-13.904 8.897-28.456 16.171-43.746 21.99-9.076 3.454-18.555 6.005-28.025 8.227-12.155 2.85-24.471 5.03-36.749 7.335-2.414.453-4.982.024-7.453.264-1.539.15-3.03.792-4.223 1.58-28.034.368-56.388.368-84.892 0-1.66-.788-3.151-1.43-4.69-1.58-2.47-.239-5.033.182-7.45-.259-12.436-2.269-24.93-4.331-37.221-7.24-9.463-2.24-18.757-5.333-27.943-8.568-16.124-5.679-31.35-13.292-45.42-23.031-6.53-4.52-13.095-9.133-18.934-14.48-14.335-13.126-27.557-27.347-36.724-44.69-6.488-12.275-13.279-24.564-18.003-37.55-4.76-13.084-7.507-26.957-10.43-40.636-2.23-10.437-3.315-21.116-5.041-31.665C2.759 301.878 1.666 300.974 1 300c0-28.354 0-56.708.368-85.212.788-1.328 1.427-2.476 1.594-3.69 1.06-7.726 1.772-15.509 3.075-23.192 1.352-7.966 2.948-15.917 4.979-23.734 2.334-8.98 4.928-17.925 8.005-26.676 5.67-16.125 13.272-31.358 23.023-45.423 4.525-6.527 9.13-13.097 14.475-18.936 13.125-14.336 27.348-27.556 44.69-36.724 12.274-6.49 24.563-13.281 37.548-18.005 13.085-4.76 26.958-7.507 40.637-10.43 10.439-2.232 21.12-3.318 31.673-5.046C212.122 2.759 213.026 1.666 214 1zm34.753 438.865 4.724.272c0-17.756 0-34.948-.193-52.887-1.562.261-3.124.522-4.88 1.7.059 16.684.117 33.37.349 50.915m-96.163-73.807v-37.672c-2.024.641-3.523 1.116-5.214 2.514v37.53c2.142-.625 3.573-1.042 5.214-2.372m76.973 17.686c-1.104.739-3.16 1.466-3.17 2.218-.187 15.333-.14 30.67-.14 46.339 1.713-.08 2.984-.14 5.056-.581.062-15.28.136-30.559.14-45.838.001-.64-.64-1.282-1.886-2.138m12.67-8.57-4.52-.258c-.135 1.16-.309 1.967-.31 2.773-.015 22.153-.026 44.307.03 66.46.003.994.641 1.987 1.9 3.23 2.042.225 3.438.022 3.42-2.727-.152-22.888-.186-45.777-.52-69.478m-187.13 82.81c.167-.334.334-.669.692-1.915-.197-16.934-4.813-32.657-12.66-48.005-1.837 1.199-3.17 2.07-4.6 3.002 7.102 14.186 11.238 28.813 11.912 44.323.137 3.16 1.898 2.952 4.655 2.595m75.641-347.234c1.687 14.98 8.336 26.811 21.626 34.588 1.284.751 1.886 2.666 2.805 4.04-1.443.75-2.81 1.765-4.343 2.203-4.935 1.41-10.963 1.278-14.687 4.167-7.564 5.869-14.466 4.247-21.952 1.12-1.224-.512-2.53-.833-3.805-1.217-6.045-1.819-8.895.614-8.181 6.988.2 1.794.44 3.583.653 5.312-7.439 2.232-8.185 3.544-6.846 11.316 1.151 6.683 2.261 13.373 3.364 19.909-5.205 3.116-5.61 3.91-4.642 9.452 1.06 6.068 2.05 12.156 3.403 18.16.397 1.763 1.8 4.552 2.962 4.668 4.61.46 4.315 3.87 4.932 6.796.549 2.605.944 5.244 1.347 7.878.603 3.939 2.928 5.8 6.844 5.806 3.783.004 7.566 0 11.698 0l-.29 5.275c-4.001-.843-7.561-1.605-11.126-2.342-9.409-1.948-18.267 2.745-21.362 11.305-3.236 8.954.46 18.303 9.29 22.718 3.85 1.926 7.874 3.875 12.04 4.708 5.502 1.099 5.658 4.498 5.364 9.206-11.14 0-22.096-.003-33.052.001-14.033.006-19.496 5.202-20.451 19.344-2.256 33.398-4.542 66.794-6.804 100.191-.795 11.75-1.558 23.502-2.35 35.487h43.105v-5.249h-37.071l.35-7.095c.62-12.794 1.88-13.69 14.68-10.464.485.123.985.199 1.454.362 6.684 2.32 13.424 2.073 20.187.436 7.277-1.761 14.461-4.164 21.838-5.187 11.053-1.531 16.617-8.105 19.258-18.169.633-2.413 1.508-4.776 1.977-7.218 1.119-5.82.838-11.747-3.879-15.752-6.269-5.323-10.496-11.915-14.384-18.93-4.825-8.707-12.584-12.703-22.284-12.6-5.46.059-10.901 1.18-16.366 1.647-5.376.46-10.772.697-16.678 1.065.89-14.081 1.794-26.999 2.488-39.928.332-6.17 3.152-10.332 9.773-12.494 13.256.046 26.512.091 39.82.898.269 1.302.566 2.598.801 3.906 1.24 6.9 4.991 9.54 11.237 6.757 5.678-2.53 11.612-5.432 15.986-9.666 3.924-3.799 7.919-4.703 12.572-5.188 3.34 7.279 4.975 8.038 12.49 5.814 6.527-1.931 13.083-3.786 19.52-5.981 2.984-1.018 4.951-.721 7.53 1.413 4.053 3.354 8.611 6.26 13.325 8.62 7.44 3.722 10.906 1.731 13.564-6.552 15.305.028 30.61.056 46.353.58 5.603 2.194 7.357 6.606 7.573 12.273 1.606 42.13 3.32 84.254 4.989 126.38.063 1.599.008 3.202.008 5.348h-77.31v4.964h83.438c-.636-12.832-1.347-25.279-1.853-37.734-1.36-33.468-2.575-66.942-3.971-100.409-.452-10.826-6.8-16.783-17.597-16.848-12-.073-24-.01-36-.033-1.723-.004-3.446-.163-5.218-.252.338-5.578.556-10.545 7.467-9.645l-.298 4.075c9.225 0 18.04.225 26.84-.058 10.59-.342 20.73.158 27.573 10.232 31.884-65.048-3.274-153.368-75.542-175.638l-11.95 15.015c1.687.506 3.273.667 4.515 1.406 9.728 5.781 19.285 6.148 29.928 1.585 7.005-3.004 14.042 3.938 13.836 11.855-.036 1.377.607 3.3 1.622 4.085 4.257 3.293 5.085 7.618 4.34 12.485-.63 4.098-1.898 8.133-2.147 12.24-.177 2.92.905 5.907 1.363 8.874.518 3.353 1.641 6.787 1.3 10.06-.652 6.254-1.939 12.47-3.407 18.596-.631 2.632-1.765 5.802-3.749 7.3-3.166 2.392-4.097 5.212-4.659 8.764-.487 3.077-1.652 6.046-3.233 9.033l-4.552-1.483c.94-4.596 1.886-8.894 2.684-13.22.536-2.904.495-5.797 4.57-6.595 1.31-.257 2.683-2.888 3.077-4.645a280 280 0 0 0 3.74-20.121c.238-1.602-.319-4.394-1.374-4.927-4.227-2.135-2.944-5.267-2.361-8.494.859-4.751 1.529-9.537 2.382-14.29 1.3-7.24.501-8.687-6.596-11.057.23-1.908.483-3.875.703-5.846.63-5.63-2.367-8.248-7.757-6.664-3.994 1.174-8.037 2.28-11.875 3.859-3.892 1.602-6.95 1.58-10.348-1.473-2.235-2.009-5.519-3.095-8.516-3.955-4.745-1.361-9.643-2.187-15.996-3.57 1.728-2.484 2.637-4.933 4.398-6.137 11.953-8.174 18.626-19.42 19.5-33.76.547-8.965.276-17.996.048-26.989-.344-13.569-11.274-24.14-24.88-24.237a2266 2266 0 0 0-33.997.003c-13.378.105-24.225 10.405-24.754 23.852-.327 8.314.023 16.655-.14 25.608.071.427.143.854.103 2.084m4.72 27.69-5.886-8.625c-42.937 15.962-71.873 45.162-84.437 89.221-10.338 36.252-4.906 70.82 14.491 103.154.685-.798.816-1.558.871-2.324 1.088-14.904 9.689-22.87 24.732-22.89 6.031-.008 12.062-.001 18.093-.001-1.033-1.456-2.149-2.103-3.296-2.687-16.592-8.452-19.178-29.688-4.164-40.679 5.33-3.902 6.36-7.287 4.556-12.633-.53-1.573-1.73-2.921-2.626-4.37-1.865-3.01-4.458-5.802-5.438-9.077-1.754-5.858-2.72-11.98-3.659-18.045-.637-4.117-.692-8.2 2.386-11.834 1.077-1.272 1.337-3.712 1.116-5.514-.582-4.77-1.666-9.476-2.485-14.22-.851-4.932.329-9.14 4.147-12.662 1.065-.982 1.728-2.88 1.789-4.39.323-7.975 7.532-13.406 15.222-11.203 3.999 1.146 7.939 2.498 11.95 3.594 1.37.374 3.104.774 4.28.262 5.243-2.286 10.346-4.897 16.518-7.885-2.685-2.32-5.19-4.486-8.16-7.191m-76.886 209.352c1.193-4.949-.886-8.758-3.67-12.74-21.188-30.292-29.387-64.146-23.994-100.438 6.847-46.07 31.002-81.15 71.78-104.215 7.467-4.225 15.498-7.453 23.056-11.04l-1.663-16.818C163.354 114.378 103.3 163.65 96.974 245.893c-2.776 36.092 23.503 108.66 45.962 118.249.385-5.179.767-10.312 1.172-16.349m270.85-73.552c-.04-13.777 1.576-27.8-.41-41.29-8.158-55.422-37.966-95.906-87.544-121.791-6.402-3.343-13.32-5.7-20.68-8.802-.236 4.686.284 8.509-.76 11.842-1.668 5.337.503 7.248 5.068 9.14 76.551 31.726 109.92 121.222 72.511 194.9-5.832 11.487-2.127 22.721-1.666 34.305 3.51-3.675 6.39-7.484 8.99-11.475 13.117-20.124 21.048-42.186 24.491-66.829m-51.977 58.394c-3.923-6.763-10.194-9.265-17.392-7.883-10.301 1.978-20.482 4.69-30.587 7.54-5.895 1.664-9.273 7.114-8.986 12.897.276 5.578 4.147 9.982 9.798 11.88 3.231 1.086 6.457 2.522 9.291 4.396 9.144 6.048 20.97 6.15 29.446-.298 8.039-6.116 12.192-15.718 8.43-28.532M279.324 361.5v69.617l5.37-.381v-89.853h-5.37zm110.737 60.976c-3.067 11.572-5.019 23.276-4.572 35.715l4.157-.273c1.857-11.237 2.994-21.993 5.535-32.406 2.533-10.383 6.473-20.423 9.876-30.857l-4.784-2.478a6987 6987 0 0 0-10.212 30.3m8.828 7.904c-3.434 8.885-5.95 17.88-3.642 27.846l5.229-.385c-2.336-13.947 2.946-25.507 9.59-36.939l-4.72-3.049c-2.21 4.205-4.207 8.005-6.457 12.527M273.82 379.5v-24.575h-4.966v46.608l4.965-.319zm-154.11 51.678c3.922 8.468 6.468 17.258 5.838 26.743h5.197c1.166-11.168-2.16-21.027-7.235-31.524-1.612 1.623-2.853 2.872-3.8 4.781m125.157 11.472-4.874-3.775-2.087 4.166c3.423 4.103 6.905 7.497 9.393 11.508 1.987 3.204 3.898 4.469 8.634 2.627-3.703-4.936-7.123-9.495-11.066-14.526m-22.083-103.106v16.807h5.063v-22.376h-5.063zm43.096 117.794 4.53.811 3.74-17.36-5.241-2.455c-1.132 6.504-2.14 12.29-3.029 19.004m-7.148-6.453v6.934h5.094v-17.653l-5.107.952c0 3.237 0 6.052.013 9.767"/><path fill="#C48259" d="M1298 304.531c-.662 1.053-1.8 1.555-1.916 2.233-3.666 21.244-14.943 36.932-35.511 43.728-19.507 6.445-39.356 2.538-51.718-17.962-.385-.638-.862-1.22-1.865-2.625v69.812h-36.582V219.395h36.294v21.65c3.172-4.411 5.43-8.253 8.361-11.484 6.643-7.32 14.862-10.88 24.99-11.785 16.347-1.46 29.957 3.449 41.08 15.014 8.037 8.356 13.411 18.362 14.98 30.112.072.544.74 1.009 1.508 1.304.379 13.148.379 26.502.379 40.325m-49.696 13.406c2.897-4.476 6.508-8.652 8.547-13.49 4.548-10.788 4.236-22.328 1.819-33.43-1.302-5.979-4.159-12.569-8.403-16.775-11.383-11.28-34.042-8.788-40.23 10.134-4.352 13.31-3.937 26.496-.247 40.103 4.504 16.606 24.778 23.711 38.514 13.458"/><path fill="none" d="M213.531 1c-.505.666-1.41 1.759-2.464 1.932-10.552 1.728-21.234 2.814-31.673 5.045-13.679 2.924-27.552 5.67-40.637 10.43-12.985 4.725-25.274 11.517-37.548 18.006C83.867 45.58 69.644 58.8 56.519 73.137c-5.346 5.839-9.95 12.41-14.475 18.936-9.75 14.065-17.352 29.298-23.023 45.423-3.077 8.751-5.671 17.695-8.005 26.676-2.031 7.817-3.627 15.768-4.979 23.734-1.303 7.683-2.014 15.466-3.075 23.192-.167 1.214-.806 2.362-1.594 3.221C1 143.073 1 72.146 1 1zM1 300.469c.666.505 1.759 1.41 1.932 2.464 1.726 10.55 2.811 21.228 5.041 31.665 2.923 13.679 5.67 27.552 10.43 40.636 4.724 12.986 11.515 25.275 18.003 37.55 9.167 17.343 22.39 31.564 36.724 44.69 5.839 5.347 12.404 9.96 18.934 14.48 14.07 9.74 29.296 17.352 45.42 23.031 9.186 3.235 18.48 6.328 27.943 8.568 12.29 2.909 24.785 4.971 37.22 7.24 2.418.441 4.981.02 7.452.26 1.538.149 3.028.79 4.22 1.58C143.073 513 72.146 513 1 513z" style="fill:#000;fill-opacity:0"/><path fill="#C48259" d="M1066 276.016V350.7h-37v-5.533c0-25.994.003-51.988-.002-77.982-.002-8.97-4.896-15.646-12.925-18.156-8.578-2.68-19.587 1.542-22.285 7.826-1.699 3.956-3.573 8.262-3.623 12.432-.322 26.98-.165 53.966-.165 81.332h-37.676V219.273h34.559V241.7l1.177.738c6.321-17.097 19.383-24.89 36.297-25.213 17.183-.328 30.3 7.325 36.803 24.407 7.146-14.432 18.284-22.232 34.192-23.75 11.673-1.113 22.304.482 31.838 7.699 8.84 6.692 14.398 15.56 14.656 26.478.763 32.248.812 64.513 1.13 96.772.005.485-.117.97-.227 1.81H1105v-5.31c0-26.66.003-53.32-.001-79.98-.002-10.93-12.367-19.664-23.07-16.929-10.258 2.621-16.663 11.188-15.947 21.6.126 1.824.018 3.664.018 5.994m-381.228 39.478c-3.53 11.599-10.96 19.852-20.253 26.292-8.108 5.618-17.516 8.904-27.264 10.052-9.175 1.08-18.542 1.482-27.763 1.006-13.17-.68-25.806-3.737-37.257-10.987-12.585-7.968-20.145-19.179-23.163-33.55-.866-4.124-.978-8.407-1.477-12.994h35.3c2.338 5.002 4.045 10.531 7.221 15.02 5.031 7.11 12.995 9.937 21.352 10.508 9.34.639 18.686.605 27.229-4.7 7.897-4.904 11.544-13.182 8.263-21.44-2.614-6.58-8.65-9.502-14.747-11.585-8.59-2.935-17.453-5.065-26.174-7.625-8.371-2.457-16.981-4.372-25-7.7-11.097-4.607-20.986-11.791-25.51-23.187-5.733-14.443-5.11-29.17 3.29-42.907 7.54-12.33 18.64-19.869 32.218-24.247 14.991-4.834 29.996-5.641 45.573-2.654 13.298 2.55 24.656 8.019 34.143 17.491 8.83 8.816 14.441 24.008 12.742 34.706-11.03 0-22.15.084-33.262-.134-1.076-.021-2.905-1.807-3.051-2.945-1.766-13.69-12.21-17.03-23.435-18.735-8.67-1.318-17.496-.144-25.035 4.97-10.43 7.074-10.481 23.155 1.825 28.33 11.115 4.673 23.114 7.327 34.83 10.472 19.568 5.254 37.822 12.265 47.26 32.252 5.188 10.986 3.828 22.45 2.145 34.291m174.026 4.558c10.815 1.839 21.855-2.595 26.056-15.12 1.327-3.953 2.017-8.301 2.054-12.477.195-22.487.092-44.977.092-67.466v-5.693h36.759v131.325h-35.485v-22.71c-4.303 7.994-9.671 14.744-17.69 18.909-3.42 1.776-7.08 3.56-10.821 4.168-23.758 3.862-41.29-1.072-52.505-24.814-2.634-5.575-3.986-12.251-4.073-18.447-.414-29.307-.185-58.623-.185-88.332h37v5.16c0 24.321-.104 48.643.054 72.963.059 8.958 3.918 16.178 11.812 20.754 1.876 1.087 4.323 1.188 6.932 1.78M779.522 219.49c.333 9.485.333 18.629.333 28.141H756v60.389c0 12.397 5.708 16.755 17.84 13.61.764-.198 1.512-.46 2.536-.774 1.902 7.736 3.884 15.239 5.549 22.812.779 3.545.014 6.356-4.464 7.175-13.323 2.437-26.761 3.266-39.356-2.098-10.9-4.642-18.226-13.597-18.928-25.755-1.023-17.71-.883-35.49-1.158-53.24-.114-7.314-.019-14.63-.019-21.759-5.102 0-9.983.213-14.819-.157-1.136-.087-2.997-2.114-3.035-3.296-.265-8.293-.14-16.598-.14-25.435h17.824v-30.715h38.032v30.762c8.127 0 15.727 0 23.66.34"/><path fill="#5B3A24" d="M166.26 308.174c-5.722 2.24-8.542 6.403-8.874 12.573-.694 12.929-1.597 25.847-2.488 39.928 5.906-.368 11.302-.606 16.678-1.065 5.465-.467 10.906-1.588 16.366-1.647 9.7-.103 17.459 3.893 22.284 12.6 3.888 7.015 8.115 13.607 14.384 18.93 4.717 4.005 4.998 9.932 3.88 15.752-.47 2.442-1.345 4.805-1.978 7.218-2.641 10.064-8.205 16.638-19.258 18.17-7.377 1.022-14.561 3.425-21.838 5.186-6.763 1.637-13.503 1.885-20.187-.436-.47-.163-.969-.24-1.453-.362-12.802-3.226-14.06-2.33-14.682 10.464-.104 2.146-.21 4.291-.35 7.095h37.072v5.25H142.71c.793-11.986 1.556-23.738 2.351-35.488 2.262-33.397 4.548-66.793 6.804-100.19.955-14.143 6.418-19.34 20.451-19.345 10.956-.004 21.912 0 33.052 0 .294-4.709.138-8.108-5.363-9.207-4.167-.833-8.19-2.782-12.041-4.708-8.83-4.415-12.526-13.764-9.29-22.718 3.095-8.56 11.953-13.253 21.362-11.305 3.565.737 7.125 1.499 11.125 2.342l.29-5.274c-4.131 0-7.914.003-11.697-.001-3.916-.005-6.24-1.867-6.844-5.806-.403-2.634-.798-5.273-1.347-7.878-.617-2.926-.323-6.336-4.932-6.796-1.162-.116-2.565-2.905-2.962-4.668-1.353-6.004-2.342-12.092-3.403-18.16-.969-5.542-.563-6.336 4.642-9.452-1.103-6.536-2.213-13.226-3.364-19.91-1.339-7.77-.593-9.083 6.846-11.315-.214-1.729-.452-3.518-.653-5.312-.714-6.374 2.136-8.807 8.181-6.988 1.275.384 2.581.705 3.805 1.216 7.486 3.128 14.388 4.75 21.952-1.119 3.724-2.889 9.752-2.756 14.687-4.167 1.532-.438 2.9-1.452 4.343-2.203-.919-1.374-1.521-3.289-2.805-4.04-13.29-7.777-19.939-19.607-21.414-35.149.106-1.09 0-1.618-.107-2.147-.045-8.33-.395-16.67-.068-24.984.53-13.447 11.376-23.747 24.754-23.852 11.332-.089 22.665-.084 33.996-.003 13.607.098 24.537 10.668 24.881 24.237.228 8.993.5 18.024-.047 26.99-.875 14.338-7.548 25.585-19.5 33.759-1.762 1.204-2.67 3.653-4.399 6.137 6.353 1.383 11.251 2.209 15.996 3.57 2.997.86 6.28 1.946 8.516 3.955 3.399 3.053 6.456 3.075 10.348 1.473 3.838-1.58 7.881-2.685 11.875-3.859 5.39-1.584 8.387 1.033 7.757 6.664-.22 1.97-.473 3.938-.703 5.846 7.097 2.37 7.896 3.818 6.596 11.057-.853 4.753-1.523 9.539-2.382 14.29-.583 3.227-1.866 6.36 2.36 8.494 1.056.533 1.613 3.325 1.375 4.927a280 280 0 0 1-3.74 20.12c-.394 1.758-1.767 4.39-3.076 4.646-4.076.798-4.035 3.69-4.57 6.595-.799 4.326-1.744 8.624-2.685 13.22 1.148.374 2.85.928 5.167 1.733 8.34 4.71 12.48 11.326 11.506 20.296-1.02 9.39-6.672 15.145-15.692 17.697-.934.264-1.81.733-2.714 1.107-6.958-.159-7.176 4.808-7.514 10.386 1.772.09 3.495.248 5.219.252 12 .023 24-.04 35.999.033 10.797.065 17.145 6.022 17.597 16.848 1.396 33.467 2.611 66.94 3.97 100.409.507 12.455 1.218 24.902 1.854 37.734h-83.437v-4.964h77.309c0-2.146.055-3.75-.008-5.347-1.669-42.127-3.383-84.252-4.989-126.38-.216-5.668-1.97-10.08-8.015-12.882-1.053-.817-1.662-1.205-2.274-1.206-13.87-.042-27.742-.068-41.612.01-.986.006-1.966.835-2.95 1.28-1.733 8.227-5.198 10.218-12.64 6.495-4.713-2.358-9.27-5.265-13.324-8.62-2.579-2.133-4.546-2.43-7.53-1.412-6.437 2.195-12.993 4.05-19.52 5.981-7.515 2.224-9.15 1.465-12.49-5.814-4.653.485-8.648 1.389-12.572 5.188-4.374 4.234-10.308 7.136-15.986 9.666-6.246 2.782-9.997.143-11.237-6.757-.235-1.308-.532-2.604-1.057-4.643-.699-.938-1.14-1.31-1.583-1.313a5527 5527 0 0 0-38.134-.069c-.25 0-.498.744-.746 1.142m72.51-243.515c-14.14 3.244-19.79 14.213-16.3 32.555 8.733-10.575 19.814-11.138 31.83-8.571 4.352.93 8.889 1.34 13.346 1.366 10.25.063 14.024-3.926 14.037-14.195.001-1.495-.177-3.015.034-4.48.585-4.077-.671-6.695-4.541-7.328.19-.218.39-.43.558-.665.017-.023-.146-.257-.228-.258-2.312-.043-4.624-.09-6.936-.091a4674 4674 0 0 0-30.741.05c-.139 0-.272.807-1.059 1.617m29.785 182.88c.64.153 1.28.438 1.92.44 14.991.03 29.984.058 44.976-.026 1.156-.006 2.308-.845 3.824-1.97l2.646-13.904c-10.573-5.513-14.267-11.15-12.974-19.359 1.31-8.32 6.543-12.42 18.685-14.41l3.902-23.893c-1.855-.14-2.995-.298-4.134-.299-17.967-.014-35.935-.047-53.902.013-7.722.026-11.52 3.933-11.532 11.756-.035 20.795-.02 41.59.002 62.386.002 1.038.262 2.075.438 3.38 2.115-1.794 3.842-3.26 6.15-4.115m-69.013-.162c.62.203 1.238.583 1.858.584 15.165.042 30.33.065 45.495.005 1.058-.004 2.113-.671 3.85-.943l4.086 5.229 1.317-1.095c0-21.641.02-43.282-.01-64.923-.013-8.26-3.912-12.096-12.314-12.114-17.664-.037-35.329-.017-52.993-.001-1.3.001-2.601.16-4.46.282l4.035 24.03c11.228 1.533 16.866 5.663 18.218 13.926 1.635 9.988-3.783 15.939-12.842 19.55 1.134 5.074 2.217 9.918 3.76 15.47M268.257 95.55c-4.471-.417-8.945-.808-13.413-1.258-4.464-.45-8.943-1.5-13.38-1.336-11.863.438-21.495 12.499-18.879 23.11 4.184 16.968 17.924 28.485 34.481 28.904 16.862.426 30.848-9.974 36.062-26.817 3.018-9.75.883-16.67-6.99-23.08-2.713-2.208-5.097-3.667-8.814-1.388-2.256 1.382-5.438 1.254-9.067 1.865m31.874 197.187c7.791-2.407 15.614-4.716 23.365-7.249 8.77-2.865 13.213-10.233 11.01-17.882-2.371-8.228-9.722-12.201-18.953-9.937-14.546 3.569-29.045 7.327-43.565 11-8.826 2.233-17.653 4.459-27.023 6.825l9.41 31.172c15.424-4.7 30.204-9.202 45.756-13.929m-106.34 125.585c12.03-2.566 15.118-5.474 16.188-16.57.239-2.472-.951-5.454-2.36-7.634-2.85-4.41-6.716-8.183-9.398-12.676-3.372-5.647-8.02-8.344-14.371-7.962-9.857.593-19.698 1.467-30.08 2.263l-2.898 42.8c4.434.284 8.602-.22 12.246.931 10.175 3.215 20.006 2.068 30.672-1.152m-30.472 11.776c8.128 2.979 16.285 2.67 24.532.427 5.938-1.615 11.88-3.493 17.948-4.292 9.265-1.221 14.197-6.4 16.215-15.096.525-2.262 1.476-4.44 1.857-6.719.763-4.567.236-8.676-3.105-12.53-4.955-5.717-9.827-11.639-13.774-18.064-4.905-7.985-11.745-11.865-20.707-11.318-10.543.644-21.033 2.17-31.714 3.332-1 2.511-.163 4.145 2.974 4.418 1.986.173 3.992.67 5.95.52 5.298-.409 10.586-1.007 15.86-1.672 11.788-1.485 17.883 1.628 23.88 11.909 1.735 2.972 3.732 6.03 6.312 8.218 5.154 4.372 6.279 9.6 4.624 15.711-1.88 6.946-3.554 14.155-12.056 16.213-4.688 1.135-9.414 2.125-14.07 3.376-7.573 2.035-15.074 2.118-22.687.113-3.183-.838-6.534-1.217-9.83-1.393-4.076-.217-6.32 1.484-5.098 5.669 4.209.337 8.135.652 12.889 1.178m27.94-145.673 12.047 4.784c-.275-2.647-.43-4.267-.613-5.884-.749-6.658 2.104-9.977 8.742-9.277 4.578.482 9.044 1.968 13.583 2.898 4.745.973 9.517 1.817 13.725 2.613l3.509-9.91c-13.956-3.044-28.055-6.15-42.17-9.186-7.653-1.646-13.618 1.102-16.156 7.302-2.528 6.177-.105 12.11 7.334 16.66m79.53-21.106c8.702-2.216 17.429-4.336 26.078-6.738 1.489-.414 2.645-2.027 3.955-3.087l-.845-1.548c-9.453 0-18.908-.083-28.358.103-1.228.024-2.624 1.245-3.61 2.24-6.782 6.843-11.291 6.884-17.892.145-.99-1.011-2.334-2.35-3.537-2.373-9.76-.193-19.527-.109-29.332-.109v6.607c8.185 1.789 16.248 3.113 24.041 5.365 9.718 2.808 19.186 3.283 29.5-.605m-44.608 38.343c-2.064-4.1.898-4.458 3.912-5.443l2.138 6.65 13.954-4.063c-1.108-3.766-2.387-7.21-3.09-10.77-.62-3.137-2.202-4.05-5.19-3.828-6.012.446-11.716-.327-17.41-2.89-3.649-1.641-8.119-1.457-13.001-2.213 2.098 12.206 3.916 23.013 5.889 33.79.154.844 1.395 1.488 2.131 2.224.605-1.014 1.794-2.076 1.716-3.034-.388-4.742-1.11-9.456-1.74-14.378l4.826-1.764 3.027 15.89c5.973-1.63 3.103-5.966 2.838-10.171m42.578-141.172c-8.708 2.392-17.089 2.038-24.968-2.876-.808-.504-1.855-.984-2.755-.925-7.311.487-14.473 1.591-20.895 6.561 7.046 2.238 14.135 4.675 21.373 5.258 6.674.538 12.862.946 17.58 6.98 4.444-6.077 10.436-7.115 17.05-6.78 7.763.394 14.437-3.216 21.405-6.09-9.204-4.059-18.13-9.29-28.79-2.128m-75.179 65.634c7.586-1.9 11.144-7.092 9.42-13.746-1.798-6.941-8.186-9.336-17.701-6.534 1.042 5.865 2.194 11.732 3.089 17.638.439 2.902 1.878 3.565 5.192 2.642m130.366.004 4.504.505 3.892-20.768c-9.757-2.795-15.62-.514-17.732 6.667-1.732 5.886 1.553 11.08 9.336 13.596m-15.463 76.715 1.145-7.308-18.637 5.78-.188 1.435 15.722 9.297c.744-3.588 1.241-5.984 1.958-9.204M286.968 80.95l-1.657 6.672 8.887 7.068c1.257-10.464.62-20.822-7.181-24.616 0 3.477 0 6.736-.049 10.876m-37.062 73.815c6.16 2.31 12.32 2.497 18.465-.04 2.517-1.04 4.322-2.505 3.256-5.135H244.86c1.895 2.121 3.11 3.482 5.046 5.175m-33.784 13.881-23.425-8.725 1.868 10.405c7.184-.52 14.028-1.014 21.557-1.68m88.435-1.758-2.99 1.454.298 1.524c5.034 0 10.072.122 15.101-.03 7.235-.218 7.813-.955 7.644-9.164a2912 2912 0 0 0-20.053 6.216m-46.547 69.606v-52.317l-.69.004v66.643l.69.01z"/><path fill="none" d="M1247.938 318.014c-13.37 10.176-33.644 3.071-38.148-13.535-3.69-13.607-4.105-26.792.248-40.103 6.187-18.922 28.846-21.413 40.229-10.134 4.244 4.206 7.1 10.796 8.403 16.775 2.417 11.102 2.73 22.642-1.819 33.43-2.04 4.838-5.65 9.014-8.913 13.567" style="fill:#000;fill-opacity:0"/><path d="M213.69 511.386c-1.256-.548-4.458-1.032-7.115-1.076-8.916-.148-45.27-8.095-60.862-13.304-20.22-6.755-36.413-14.58-52.572-25.403-15.455-10.353-34.706-28.418-45.287-42.497-7.533-10.024-23.4-39.685-28.56-53.384-3.836-10.19-10.075-36.242-13.858-57.868-2.922-16.704-3.028-18.85-3.015-60.74.012-38.857.27-44.985 2.447-58.279 8.065-49.216 19.21-79.816 39.76-109.162C56.95 72.075 75.254 53.96 91.417 43.368c11.114-7.283 38.196-20.979 49.138-24.85 10.784-3.816 40.424-10.543 56.565-12.84 7.228-1.027 14.17-2.355 15.427-2.95 1.358-.641 19.684-.92 45.138-.687 40.36.37 43.882.572 60.565 3.463 36.64 6.351 66.952 15.644 86.269 26.446 12.498 6.99 34.56 24.183 46.897 36.549 17.416 17.457 31.829 40.573 42.645 68.4 5.692 14.64 9.518 30.423 13.216 54.508 5.059 32.953 5.474 39.14 4.949 73.815-.457 30.21-.805 34.885-4.068 54.743-10.921 66.46-35.575 112.569-77.367 144.696-18.216 14.003-45.864 27.776-69.516 34.63-11.385 3.3-38.94 9.191-52.052 11.13-10.485 1.55-92.294 2.377-95.533.965m-82.313-54.75c1.453-4.577-3.87-26.64-7.27-30.139-.474-.486-1.813.17-2.978 1.456-2.065 2.282-2.053 2.521.473 9.675 1.424 4.035 2.872 10.45 3.217 14.257.569 6.273.873 6.922 3.249 6.922 1.57 0 2.897-.87 3.31-2.17m9.84.742c.073-1.143.206-1.143.667 0 .433 1.074 6.083 1.429 22.765 1.429h22.188v-6.857h-37.974l.771-6.57c1.416-12.072 2.17-12.677 12.448-10 9.402 2.45 18.22 2.13 32.377-1.172 20.997-4.897 22.236-5.336 26.192-9.292 4.579-4.579 8.467-16.09 8.467-25.068 0-5.79-.34-6.529-5.789-12.545-3.183-3.515-7.621-9.306-9.861-12.867-9.774-15.54-15.728-18.271-35.528-16.298-6.734.67-14.499 1.376-17.254 1.566l-5.01.346.74-14.329c1.4-27.12 1.852-29.931 5.366-33.445l3.167-3.167h41.226l1.217 4.52c1.453 5.395 3.849 8.055 7.237 8.035 3.286-.019 13.727-5.384 20.377-10.47 6.436-4.924 11.229-6.415 12.62-3.928 1.74 3.107 4.468 5.271 6.647 5.271 1.176 0 8.117-1.813 15.426-4.028l13.29-4.028 8.59 5.746c12.54 8.387 18.178 9.004 21.14 2.313l1.519-3.431h23.199c23 0 23.222.023 25.957 2.758 1.517 1.517 3.031 3.96 3.365 5.428.65 2.855 5.204 114.023 5.202 126.942l-.002 7.713h-76.563v6.857h84.726l-.649-6c-.357-3.3-1.449-26.311-2.427-51.137-3.408-86.532-3.445-87.137-5.508-91.126-3.76-7.272-5.4-7.68-32.482-8.088l-24.44-.368.766-3.054c.96-3.822 2.662-5.923 4.8-5.923 1.13 0 1.422.72.925 2.285-.707 2.226-.205 2.285 19.386 2.285 22.238 0 25.74.768 32.245 7.064l3.636 3.519 1.876-4.434c7.687-18.178 10.266-33.324 9.392-55.156-.724-18.08-3.73-31.355-10.812-47.738-12.447-28.792-36.686-53.614-63.722-65.252-13.248-5.703-12.136-5.857-18.884 2.622-3.298 4.146-5.541 7.935-4.984 8.42.557.487 3.805 2.05 7.218 3.476 7.375 3.082 16.657 3.293 24.7.562 4.131-1.402 6.084-1.552 8.124-.622 3.277 1.492 7.242 7.724 7.248 11.39.002 1.48 1.35 4.292 2.997 6.249 2.795 3.321 2.933 4.015 2.08 10.45-1.115 8.426-1.102 14.539.056 25.864 1.173 11.465-1.49 24.149-6.357 30.273-1.867 2.349-3.686 5.6-4.043 7.224-.982 4.476-2.856 10.38-3.295 10.38-2.988 0-3.659-1.566-2.6-6.068 2.796-11.883 3.335-13.358 4.885-13.358 2.506 0 3.946-3.673 6.394-16.302l2.25-11.601-2.468-3.337c-2.462-3.33-2.463-3.36-.526-15.166 2.164-13.182 1.862-15.517-2.248-17.39-2.32-1.056-2.835-2.109-2.835-5.793 0-2.476-.312-5.315-.693-6.31-.957-2.494-6.63-2.31-14.734.479-8.423 2.898-10.217 2.866-15.29-.27-2.274-1.405-8.506-3.621-13.848-4.926l-9.714-2.37 8.158-7.93c4.663-4.532 9.441-10.493 11.15-13.909 3.998-7.988 5.668-20.685 4.88-37.088-.7-14.55-2.315-19.403-8.371-25.151-6.291-5.971-9.727-6.631-34.505-6.631-22.698 0-22.778.009-28.873 3.193-4.44 2.319-7.05 4.71-9.539 8.735-3.3 5.338-3.442 6.128-3.863 21.46-.802 29.19 3.182 39.165 21.531 53.902 2.522 2.025 2.563 2.247.67 3.631-1.109.811-4.154 1.826-6.767 2.257-2.614.43-8.029 2.351-12.035 4.27l-7.283 3.487-8.405-2.473c-4.623-1.36-9.684-2.473-11.246-2.473-3.609 0-5.653 3.665-4.84 8.676.499 3.071.19 3.926-1.62 4.5-1.23.39-2.981 1.847-3.892 3.237-1.457 2.225-1.404 4.006.447 14.872l2.103 12.344-2.687 2.687c-2.849 2.85-2.839 2.213-.267 16.534 1.835 10.224 3.295 13.781 6.087 14.843 2.12.806 2.866 2.43 4.038 8.786.792 4.288 1.948 8.44 2.571 9.225.709.894 4.07 1.428 8.991 1.428 7.23 0 7.86.193 7.86 2.408 0 1.834-.477 2.218-2 1.612-1.1-.438-5.857-1.06-10.57-1.383-7.668-.524-8.986-.302-12.509 2.107-5.467 3.737-8.5 9.385-8.5 15.825 0 9.608 5.832 16.137 17.93 20.075 6.817 2.218 9.935 4.553 9.935 7.439 0 1.846-1.847 2.052-21.48 2.394-18.506.323-21.924.665-24.676 2.47-6.71 4.403-7.009 6.336-11.479 74.468-2.268 34.567-4.46 65.164-4.872 67.992l-.748 5.143-.955-8c-.525-4.4-1.765-10.827-2.755-14.284-2.286-7.978-8.431-22.866-9.42-22.818-.412.02-1.728.777-2.924 1.682-2.113 1.6-2.069 1.91 1.57 11.105 3.801 9.6 7.99 27.133 8.017 33.553.008 1.937.358 3.866.777 4.285 1.311 1.311 4.948.83 5.042-.667m113.95.455c1.101-.7-.066-2.928-4.572-8.726-3.328-4.283-7.17-8.518-8.537-9.411-2.24-1.464-2.61-1.394-3.733.704-1.071 2.002-.34 3.458 5.203 10.368 6.205 7.733 8.443 9.092 11.638 7.065m9.375-8.862c0-8.499-.245-9.741-1.807-9.142-.994.382-2.537.694-3.428.694-1.264 0-1.621 2.012-1.621 9.142v9.142h6.856zm8.338.98c1.651-8.139 1.646-8.973-.06-10.285-3.61-2.775-4.552-1.547-6.01 7.834-1.214 7.798-1.191 9.42.145 10.267 3.243 2.053 4.17.83 5.925-7.817m117.363 7.999c0-2.513 4.772-29.105 6.1-33.997.854-3.142 3.297-11.029 5.43-17.526 3.79-11.55 3.827-11.848 1.668-13.427-1.214-.888-2.496-1.615-2.848-1.615-1.036 0-11.395 31.852-13.193 40.567-.908 4.4-1.996 12.242-2.418 17.427l-.767 9.428h3.014c1.657 0 3.014-.386 3.014-.857m10.284-4.8c0-8.39 1.92-15.868 6.315-24.604 3.656-7.266 3.79-7.905 1.948-9.303-1.088-.826-2.54-1.518-3.226-1.538-1.756-.051-9.17 16.46-10.655 23.731-2.397 11.725-1.46 17.37 2.884 17.37 2.516 0 2.734-.452 2.734-5.657m-71.992-42.46v-36.446h-5.713v35.768c0 36.13.335 39.187 4.138 37.727 1.293-.496 1.575-7.14 1.575-37.05m11.202 3.643c-.19-14.404-.693-26.536-1.117-26.958-.424-.423-1.838-.43-3.142-.016-2.283.724-2.371 1.507-2.362 20.959.005 11.113.334 22.906.73 26.206.647 5.38 1.006 5.999 3.479 5.999h2.757zm-22.63-5.74c0-13.16-.467-24.218-1.039-24.572s-1.857-.328-2.857.055c-1.58.607-1.817 3.802-1.817 24.573v23.875h5.714zm-31.996-22.921v-45.71h-6.856v91.42h6.856zm-10.284-7.428v-23.426h-6.857v46.852h6.857zm-38.375-10.407c1.552-.595 1.807-3.497 1.807-20.544V327.44l-2.856 1.301-2.857 1.302v19.243c0 10.924.453 19.243 1.05 19.243.576 0 1.862-.312 2.856-.694m114.578-3.98c9.523-4.61 15.115-15.127 13.666-25.701-1.205-8.789-6.914-14.177-15.02-14.176-4.762 0-18.436 2.992-31.767 6.95-6.294 1.868-8.193 3-9.995 5.955-4.45 7.3-2.007 16.156 5.43 19.678 2.384 1.13 7.92 3.77 12.302 5.868 9.712 4.65 17.788 5.104 25.384 1.426m-206.56-15.942c.081-7.088-.214-7.945-5.71-16.57-16.172-25.382-22.82-47.135-22.883-74.879-.069-30.232 8.179-57.94 24.467-82.2 7.621-11.351 24.168-27.639 36.208-35.641 9.332-6.202 31.835-18.067 34.268-18.067 1.37 0 .268-15.972-1.215-17.596-1.3-1.422-16.74 4.159-28.136 10.17-25.173 13.275-48.341 35.733-63.381 61.435-6.957 11.889-14.273 30.614-17.81 45.585-4.15 17.56-4.378 43.523-.535 60.795 7.775 34.941 25.576 72.262 38.748 81.234l4.35 2.964.773-4.878c.425-2.683.81-8.241.857-12.352m83.505-2.81v-11.999h-5.714v23.998h5.714zm158.96 2c10.332-13.898 19.583-33.677 24.452-52.28 3.829-14.633 5.72-41.875 4.006-57.708-5.258-48.559-29.75-88.914-70.363-115.94-9.815-6.53-30.24-16.926-36.032-18.339-2.957-.721-2.971-.69-3.71 8.044-.407 4.822-.488 9.176-.178 9.677s6.35 3.79 13.422 7.309c66.946 33.31 96.898 111.164 68.778 178.777-7.38 17.745-7.648 18.729-7.6 27.89.052 9.743 1.148 17.998 2.39 17.998.44 0 2.615-2.443 4.834-5.428m-240.095-27.93c0-4.827 2.872-11.718 6.323-15.168 4.808-4.809 10.649-6.323 24.378-6.323 11.984 0 14.034-.942 8.438-3.873-4.545-2.38-10.18-8.611-12.227-13.517-3.686-8.839-1.126-17.36 7.808-25.987 6.877-6.64 7.007-10.182.753-20.548-3.57-5.917-4.927-9.784-6.442-18.356-1.894-10.712-1.887-10.932.518-16.21 2.348-5.154 2.375-5.677.728-14.28-2.218-11.595-2.2-11.888 1.081-16.722 1.535-2.261 3.313-6.005 3.952-8.32 2.666-9.657 7.599-11.334 21.777-7.405l7.92 2.195 8.343-3.999c4.59-2.199 8.545-4.2 8.79-4.445.247-.246-2.45-3.577-5.993-7.403-3.542-3.826-6.44-7.442-6.44-8.034 0-2.096-3.858-1.02-14.61 4.073-29.49 13.97-49.124 32.966-62.59 60.556-17.17 35.178-18.801 73.095-4.613 107.185 7.125 17.12 12.106 23.942 12.106 16.58" style="fill:#f4e7df;fill-opacity:1;stroke-width:1.14273"/><path d="M213.12 511.387c-.943-.617-3.888-1.13-6.545-1.14-8.627-.031-45.024-7.95-60.862-13.24-31.582-10.552-56.463-25.244-78.018-46.069-6.893-6.66-15.822-16.484-19.84-21.832-7.534-10.024-23.402-39.685-28.56-53.384-3.837-10.19-10.076-36.242-13.859-57.868-2.925-16.721-3.027-18.806-2.996-60.74.033-44.806.285-48.244 5.633-76.782 2.736-14.603 9.926-39.223 15.287-52.346 13.604-33.3 39.986-66.219 67.896-84.72 10.272-6.81 41.576-22.386 51.014-25.384 12.548-3.985 30.522-8.198 50.852-11.918l19.426-3.555h43.995c42.657-.002 44.534.092 61.708 3.082 36.748 6.398 66.972 15.668 86.269 26.46 12.546 7.015 34.589 24.208 46.859 36.548 16.741 16.837 29.917 37.28 40.547 62.915 6.989 16.853 10.845 31.855 15.65 60.875l4.299 25.973.034 38.853c.033 37.174-.105 39.741-3.209 59.422-5.42 34.374-11.528 55.089-23.756 80.562-19.289 40.183-46.727 67.576-88.416 88.272-13.12 6.513-22.58 10.248-35.252 13.92-11.812 3.424-39.87 9.437-52.167 11.181-11.412 1.62-93.718 2.404-95.99.915m-81.858-55.24c.894-3.559-.814-13.552-3.735-21.864-2.975-8.466-3.761-9.243-6.398-6.33-2.065 2.282-2.053 2.521.473 9.675 1.424 4.035 2.872 10.45 3.217 14.257.565 6.233.884 6.922 3.202 6.922 1.742 0 2.79-.86 3.241-2.66m9.956 1.231c.072-1.143.205-1.143.666 0 .433 1.074 6.083 1.429 22.765 1.429h22.188v-6.857h-37.974l.771-6.57c1.424-12.14 1.919-12.526 12.804-10.001 10.534 2.443 17.436 2.175 32.398-1.256 17.887-4.103 22.129-5.706 26.244-9.915 4.293-4.391 8.038-15.74 8.038-24.36 0-5.788-.343-6.53-5.766-12.52-3.171-3.501-8.017-9.879-10.769-14.171-9.084-14.173-15.461-16.928-34.743-15.008-6.68.665-14.399 1.365-17.154 1.555l-5.01.346.74-14.329c1.4-27.12 1.852-29.931 5.366-33.445l3.167-3.167h41.207l1.141 4.135c1.387 5.02 4.29 8.435 7.175 8.435 2.932 0 14.776-6.1 20.854-10.738 2.748-2.098 6.422-4.172 8.165-4.61 2.658-.666 3.61-.23 5.908 2.706 1.506 1.925 3.7 3.5 4.875 3.5s8.116-1.813 15.425-4.028l13.29-4.028 8.429 5.638c12.409 8.3 18.405 8.964 21.326 2.364l1.494-3.374h23.199c23 0 23.222.023 25.957 2.758 1.517 1.517 3.032 3.96 3.366 5.428.659 2.9 5.199 113.444 5.199 126.602v8.053h-76.563v6.857h84.777l-.65-5.428c-.357-2.986-1.201-19.313-1.876-36.282-3.95-99.341-4.148-102.762-6.17-106.674-3.625-7.008-8.28-8.117-34.21-8.145l-22.692-.026.787-3.136c1.438-5.73 6.317-8.603 6.317-3.72 0 2.196.762 2.285 19.463 2.285 21.491 0 25.134.81 31.532 7l3.571 3.457 3.497-8.399c1.923-4.62 4.609-13.786 5.968-20.37 3.412-16.519 2.744-41.024-1.557-57.108-10.26-38.37-33.619-67.906-66.474-84.055-6.913-3.398-13.79-6.316-15.28-6.485-2.14-.242-3.896 1.228-8.356 6.993-3.105 4.014-5.228 7.658-4.718 8.098.511.439 3.595 1.91 6.854 3.27 7.187 2.999 17.11 3.246 24.82.619 4.21-1.435 6.067-1.57 8.206-.595 3.343 1.523 7.32 7.725 7.325 11.426.002 1.48 1.35 4.29 2.994 6.244 2.823 3.355 2.938 3.97 2.063 11.021-1.104 8.911-1.088 13.742.084 25.298 1.116 10.999-1.568 24.466-5.904 29.618-1.591 1.891-3.894 6.773-5.117 10.849s-2.414 7.41-2.647 7.41c-3.001 0-3.701-1.568-2.707-6.069 2.31-10.462 3.385-13.357 4.957-13.357 2.506 0 3.947-3.673 6.395-16.302l2.249-11.601-2.443-3.304c-2.438-3.298-2.439-3.325-.484-16.018l1.958-12.715-3.554-2.967c-2.883-2.407-3.553-3.824-3.553-7.512 0-7.839-3.697-9.037-15.427-5.001-8.372 2.88-10.226 2.86-15.107-.156-2.172-1.342-8.403-3.571-13.847-4.954l-9.9-2.514 8.228-7.922c9.76-9.398 13.442-16.532 15.307-29.651 1.769-12.439.684-32.103-2.12-38.442-2.674-6.045-9.052-11.825-14.812-13.425-2.374-.66-13.975-1.201-25.78-1.205-23.793-.007-26.97.67-33.77 7.194-6.678 6.404-7.457 8.973-7.978 26.31-.862 28.701 3.293 39.092 21.506 53.78 2.512 2.026 2.552 2.247.658 3.631-1.109.811-4.086 1.824-6.616 2.252s-7.954 2.346-12.053 4.264l-7.451 3.487-8.388-2.467c-4.613-1.358-9.666-2.468-11.228-2.468-3.609 0-5.653 3.665-4.84 8.676.499 3.071.191 3.926-1.62 4.5-1.23.39-2.98 1.847-3.891 3.237-1.458 2.225-1.404 4.006.447 14.872l2.103 12.344-2.687 2.687c-2.85 2.85-2.84 2.213-.268 16.534 1.809 10.073 3.15 13.294 6.092 14.635 1.96.893 2.97 2.52 3.48 5.596.394 2.386 1.321 6.395 2.06 8.909l1.345 4.57 8.285.337c7.5.304 8.285.559 8.285 2.693 0 1.787-.484 2.165-2 1.562-1.1-.438-5.856-1.06-10.57-1.383-7.668-.524-8.985-.302-12.508 2.107-5.402 3.693-8.313 9.1-8.392 15.587-.118 9.795 5.694 16.37 18.012 20.376 6.696 2.177 9.744 4.513 9.744 7.465 0 1.962-1.291 2.11-18.57 2.136-10.212.015-20.625.502-23.14 1.083-5.35 1.235-9.18 5.214-10.77 11.192-.625 2.347-2.968 32.035-5.208 65.975s-4.409 64.021-4.82 66.85l-.747 5.142-.869-7.12c-.477-3.917-1.652-10.181-2.61-13.922-1.938-7.563-8.613-24.117-9.702-24.06-.384.02-1.649.757-2.81 1.637-2.035 1.54-1.985 1.934 1.327 10.534 4.315 11.206 6.714 20.544 7.725 30.074.433 4.085 1.008 7.813 1.276 8.285.814 1.427 4.919.959 5.015-.572m113.761-.265c.713-1.858-9.83-15.88-13.359-17.769-1.648-.882-2.379-.656-3.273 1.015-.936 1.748-.183 3.41 4.018 8.871 7.346 9.55 11.08 11.883 12.614 7.883m9.563-8.142c0-8.499-.245-9.741-1.807-9.142-.994.382-2.537.694-3.428.694-1.264 0-1.621 2.012-1.621 9.142v9.142h6.856zm8.259.6c1.854-7.919 1.86-8.57.073-9.905-3.685-2.753-4.603-1.568-6.065 7.834-1.213 7.798-1.19 9.42.146 10.266 2.842 1.798 3.83.413 5.846-8.194m117.442 8.379c.002-6.272 5.78-33.2 9.96-46.407 5.201-16.44 5.304-17.033 3.202-18.57-1.195-.873-2.488-1.588-2.876-1.588-.98 0-12.413 35.88-13.653 42.853-.56 3.142-1.382 9.956-1.83 15.141l-.812 9.428h3.004c1.653 0 3.005-.386 3.005-.857m10.284-6.036c0-7.234 2.785-17.084 7.411-26.213 2.622-5.174 2.635-5.347.513-6.672-1.199-.748-2.629-1.36-3.178-1.36-1.776 0-9.153 17.704-10.56 25.343-.752 4.08-1.014 9.302-.582 11.606.652 3.472 1.266 4.189 3.591 4.189 2.668 0 2.805-.337 2.805-6.893m-71.992-41.102v-36.568h-5.713v35.806c0 19.693.342 36.148.761 36.567.42.42 1.705.762 2.857.762 1.988 0 2.095-1.87 2.095-36.567m11.264 3.523c-.224-14.403-.755-26.534-1.179-26.958s-1.838-.432-3.142-.018c-2.276.722-2.372 1.524-2.372 19.934 0 10.55.33 22.343.734 26.206.68 6.505.943 7.024 3.55 7.024h2.817zm-22.691-5.741c0-13.162-.468-24.22-1.04-24.573-.571-.353-1.857-.328-2.857.055-1.58.607-1.817 3.802-1.817 24.573v23.875h5.714zm-31.997-22.922v-45.71h-6.856v91.42h6.856zm-10.284-7.428v-23.426h-6.857v46.852h6.857zm-38.375-10.407c1.552-.595 1.807-3.497 1.807-20.544v-19.851l-2.856 1.301-2.857 1.302v19.243c0 10.924.453 19.243 1.05 19.243.576 0 1.862-.312 2.856-.694m117.46-5.676c7.18-5.042 10.604-11.849 10.59-21.056-.007-5.23-.616-8.328-2.057-10.472-2.527-3.757-8.43-6.669-13.521-6.669-4.175 0-34.12 7.318-37.628 9.195-2.997 1.604-5.615 7.076-5.615 11.735 0 5.944 3.699 9.5 16.423 15.784 10.955 5.41 11.983 5.695 19.238 5.321 6.302-.324 8.536-1.006 12.57-3.839m-210.083-3.503c.4-2.916.727-8.208.727-11.76 0-5.804-.587-7.378-5.795-15.553-16.308-25.594-22.854-47.178-22.858-75.373-.003-17.654 2.135-30.993 7.58-47.279 12.551-37.545 36.007-63.232 75.767-82.97 12.912-6.411 12.98-6.467 12.284-9.948-.385-1.926-.7-5.51-.7-7.966 0-2.662-.614-4.7-1.521-5.047-2.493-.957-20.33 6.067-31.2 12.286-47.053 26.922-78.242 76.932-81.156 130.135-.806 14.715.464 26.196 4.814 43.52 7.501 29.876 20.654 57.662 33.323 70.4 6.268 6.302 7.82 6.223 8.735-.445m84.146-13.553v-11.999h-5.714v23.998h5.714zm159.7.84c11.12-14.996 22.227-41.13 25.97-61.11 2.668-14.237 2.756-46.512.163-59.675-8.782-44.573-31.468-78.906-68.703-103.977-8.27-5.568-30.884-17.053-36.107-18.339-2.958-.727-2.971-.699-3.71 8.038-.407 4.822-.44 9.254-.071 9.85.368.596 5.063 3.113 10.435 5.595 41.056 18.968 71.029 57.405 79.91 102.477 2.654 13.467 2.646 37.479-.016 50.998-1.932 9.804-6.574 23.755-12.605 37.877-2.369 5.546-2.931 8.713-2.943 16.57-.015 10.215.918 18.295 2.11 18.267.389-.01 2.894-2.966 5.567-6.57M146.84 319.173c0-4.827 2.872-11.718 6.323-15.168 4.808-4.809 10.649-6.323 24.378-6.323 11.984 0 14.034-.942 8.438-3.873-4.545-2.38-10.18-8.611-12.227-13.517-3.66-8.774-1.523-16.166 7.397-25.598 7.222-7.636 7.388-10.621 1.164-20.937-3.57-5.917-4.927-9.784-6.442-18.356-1.881-10.642-1.873-10.962.436-16.03 2.235-4.906 2.274-5.641.751-14.281-2.11-11.981-2.101-12.125 1.14-16.901 1.535-2.261 3.313-6.005 3.952-8.32 2.666-9.657 7.599-11.334 21.777-7.405l7.92 2.195 8.343-3.999c4.59-2.199 8.545-4.2 8.79-4.445.247-.246-2.45-3.577-5.993-7.403-3.542-3.826-6.44-7.442-6.44-8.034 0-2.335-4.77-.791-17.812 5.764-15.266 7.673-23.671 13.61-35.2 24.864-31.572 30.823-45.593 81.248-34.519 124.149 3.2 12.396 14.761 37.882 16.654 36.712.644-.398 1.17-1.79 1.17-3.094" style="fill:#f4e7df;fill-opacity:1;stroke-width:1.14273"/><path d="M135.327 357.065c-15.053-15.357-30.273-51.627-35.975-85.726-8.888-53.157 19.843-115.303 68.639-148.463 12.081-8.21 39.464-21.125 40.997-19.336.211.247.684 3.814 1.05 7.928l.666 7.479-10.932 5.015c-23.137 10.613-46.014 28.92-59.056 47.257-12.006 16.881-20.407 37.731-24.25 60.184-2.8 16.356-1.777 43.637 2.203 58.723 3.07 11.64 11.886 30.933 20.125 44.044 4.25 6.763 4.608 7.949 4.484 14.856-.075 4.128-.5 9.049-.945 10.934l-.809 3.429z" style="fill:#f4e7df;fill-opacity:1;stroke-width:1.14273"/><path d="M140.841 312.929c-5.678-10.805-11.815-29.63-13.508-41.435-2.982-20.791.569-45.852 9.654-68.138 12.609-30.926 37.352-55.578 69.527-69.27l8.244-3.508 1.714 2.704c.943 1.486 3.862 4.901 6.486 7.588l4.773 4.885-8.163 3.782-8.163 3.781-7.424-2.096c-10.926-3.084-15.48-2.794-19.518 1.245-1.837 1.837-3.34 4.565-3.34 6.063s-1.259 4.428-2.797 6.514c-3.957 5.363-4.37 8.612-2.479 19.51 1.57 9.05 1.54 9.832-.53 13.89-2.714 5.32-2.71 6.886.06 20.312 1.694 8.209 3.19 12.179 6.27 16.653 5.746 8.342 5.428 11.124-2.187 19.112-7.038 7.383-9.267 13.236-8.164 21.437.844 6.278 5.544 13.314 11.456 17.153l4.4 2.856-13.013.626c-7.408.356-14.245 1.279-15.87 2.142-6.956 3.694-10.994 9.417-12.382 17.55l-.805 4.714z" style="fill:#f4e7df;fill-opacity:1;stroke-width:1.14273"/><path d="M253.115 249.56c-1.641-2.228-2.811-2.321-27.506-2.205l-25.792.122-1.348-5.839c-1.636-7.087-1.711-10.235-.245-10.235 2.306 0 9.096-7.134 10.32-10.842 2.974-9.01-2.723-18.742-12.427-21.23l-5.51-1.411-1.39-9.256c-.765-5.09-1.676-10.436-2.023-11.879l-.631-2.623 31.662.338 31.663.338 2.756 3.206 2.756 3.206v35.361c0 19.449-.128 35.342-.285 35.319-.157-.024-1.057-1.09-2-2.37m9.38-34.027c.33-35.193.355-35.514 2.934-38.094 2.563-2.563 3.066-2.606 34.106-2.939l31.504-.338-.763 4.909c-.42 2.7-1.278 8.035-1.907 11.856l-1.143 6.948-5.597 1.434c-3.835.983-6.67 2.656-9.003 5.313-6.968 7.936-5.585 17.627 3.474 24.351l5.194 3.855-1.116 5.858c-.614 3.222-1.619 6.501-2.233 7.287-.832 1.064-7.424 1.428-25.863 1.428-20.74 0-25.164.294-27.333 1.812l-2.587 1.812zm-12.266 75.842c-2.635-8.597-3.96-14.677-3.32-15.237 1.626-1.423 69.563-18.452 73.613-18.452 11.755 0 18.01 13.325 10.35 22.05-2.672 3.043-5.71 4.594-14.57 7.433-14.838 4.756-60.147 18.5-61.01 18.506-.373.003-2.652-6.432-5.063-14.3" style="fill:#f4e7df;fill-opacity:1;stroke-width:1.14273"/><path d="M129.129 73.135h281.112v385.1H129.129z" style="fill:#f4e7df;fill-opacity:1"/><path d="M78.848 151.983h92.561V460.52H78.848zm95.99-101.703h237.688v314.251H174.838z" style="fill:#f4e7df;fill-opacity:1"/><path d="M273.113 190.836h183.98v162.268h-183.98z" style="fill:#f4e7df;fill-opacity:1"/><path fill="#f4e6de" d="M251.873 1.452c66.39-1.25 131.71 24.58 179.73 70.23 8.81 8.51 17.42 17.08 24.79 26.89.4.52.8 1.04 1.21 1.58 33.19 42.96 52.06 95.13 53.79 149.42l.12 3.47c.78 43.38-9.75 86.31-30.12 124.53-.35.65-.69 1.3-1.04 1.97-9.39 17.76-21.28 33.87-34.84 48.68-1.8 2-3.53 4.03-5.25 6.1-38.67 44.08-98.48 70.65-155.87 77.25-.81.1-1.61.19-2.43.29-8.37.87-16.74.95-25.14.96h-2.32c-14.2-.02-28.09-.93-42.11-3.25-1.42-.23-1.42-.23-2.86-.47-60.44-10.54-119.25-45.21-155.86-94.81-1.28-1.71-2.59-3.4-3.91-5.08-24.12-31.22-39.95-69.79-46.37-108.64-.17-.97-.33-1.94-.49-2.94-10.28-65.64 5.31-135.2 44.49-189.06a258 258 0 0 1 17.97-21.79c1.78-1.94 3.47-3.93 5.15-5.96 41.55-47.36 106.11-74.37 168.05-78.88 4.43-.26 8.87-.34 13.31-.49"/><path fill="#57351d" d="M255 29.223c2.13-.02 4.26-.04 6.39-.08 3.09-.06 6.18-.08 9.27-.09.94-.03 1.88-.05 2.85-.07 7.97.02 13.48 2.61 19.44 7.84.62.72 1.24 1.44 1.88 2.19.95 1.08.95 1.08 1.93 2.18 3.6 5.26 3.93 10.57 3.89 16.78.01.79.01 1.59.01 2.4 0 1.68 0 3.35-.01 5.02-.01 2.54 0 5.08.01 7.62 0 1.63 0 3.26-.01 4.9.01.75.01 1.49.02 2.27-.11 11.69-4.66 23.19-12.56 31.88-2.7 2.37-5.73 4.13-8.87 5.86-2.57 2.29-2.57 4.31-2.85 7.65.8.01 1.6.03 2.42.04 8.31.36 15.24 1.93 22.58 5.96l1.55 1.7c1.39 1.55 1.39 1.55 3.61 1.26 1.22-.29 1.22-.29 2.46-.58 1.33-.31 1.33-.31 2.68-.63 2.53-.7 4.98-1.5 7.45-2.37 3.54-1.24 6.46-1.83 10.25-1.38l3 2c.31 4.17-.02 7.94-1 12 .76.1 1.52.21 2.31.31 2.95.76 4.03 1.15 5.69 3.69.42 3.57-.1 6.62-.94 10.06-.92 3.93-1.47 7.8-1.87 11.82-.11 1.09-.22 2.18-.34 3.3-.18 2.84-.18 2.84 1.64 4.2 1.51 1.62 1.51 1.62 1.81 5.13-.2 5.2-1.14 10.26-2.11 15.37-.25 1.42-.25 1.42-.51 2.87-.17.91-.34 1.81-.51 2.74-.16.82-.31 1.64-.46 2.48-.71 2.03-.71 2.03-3.71 4.03h-4l-.15 2.16c-.49 6.26-1 12.15-3.85 17.84l7 1c.11-.98.22-1.95.33-2.96.16-1.27.32-2.54.48-3.85.23-1.9.23-1.9.46-3.83.71-3.26 1.01-4.52 3.73-6.36h2c2.62-4.79 3.48-9.89 4.62-15.19l.7-3.04c1.32-6.06 2.06-11.57 1.68-17.77-.98-1.35-1.98-2.68-3-4-.44-4.87.15-9.19 1-14 1.25-6.98 1.25-6.98 1-14-1.42-1.87-2.98-3.48-4.62-5.14-1.69-2.27-1.81-3.69-1.94-6.48-.2-3.47-.41-4.33-2.44-7.38-4.13-2.75-7.05-3.52-12-3-3.29 1-6.5 2.05-9.68 3.35-2.87 1.1-4.74 1.81-7.76 1l-2.56-1.35c-1.33-.52-2.66-1.02-3.99-1.51-.71-.26-1.41-.53-2.14-.8-.72-.27-1.44-.54-2.18-.81-1.11-.42-1.11-.42-2.25-.84-1.81-.68-3.63-1.36-5.44-2.04.84-.97 1.69-1.94 2.56-2.94 3.64-4.23 7.04-8.63 10.44-13.06 14.2 1.48 28.12 11.25 39 20 .59.47 1.18.95 1.79 1.43 22.44 18.16 37.49 41.12 46.21 68.57.21.64.42 1.28.64 1.94 3.74 11.87 3.75 23.99 3.8 36.31.01 1.22.01 1.22.01 2.46.08 14.83-1.92 28.24-7.14 42.23-.32.88-.64 1.77-.97 2.68-.77 2.13-1.55 4.26-2.34 6.38-4.08 0-5.16-1.76-7.99-4.49-5.39-4.04-11.57-3.84-18-3.92l-2.87-.06c-3.01-.06-6.01-.11-9.02-.15l-6.13-.12c-5-.1-9.99-.18-14.99-.26v-4h-6l-1 10 4.49-.06c5.52-.08 11.03-.12 16.54-.16 2.39-.02 4.77-.05 7.15-.08 3.43-.05 6.86-.07 10.29-.09l3.23-.06c7.24-.01 10.66 1 15.94 6.01 4.09 5.04 4.47 8.42 4.6 14.79.04 1.3.07 2.61.1 3.95.02.7.03 1.4.05 2.12.31 13.79.85 27.56 1.55 41.33.78 15.72 1.46 31.45 2.05 47.18l.27 7.03c.13 3.32.25 6.63.37 9.95.04.95.08 1.91.11 2.89.33 9.08.26 18.09.26 27.2h-87v-6h81l-.94-19.81c-.74-15.91-1.36-31.82-1.72-47.74-.15-6.12-.36-12.2-.84-18.3-.7-9.15-.85-18.31-1.05-27.48-.11-4.52-.23-9.04-.38-13.55-.05-1.4-.09-2.79-.13-4.19-.05-1.91-.14-3.83-.22-5.74-.04-1.08-.09-2.16-.13-3.27-.73-3.62-2.02-5.31-4.59-7.92-3.05-1.87-5.31-2.25-8.86-2.23h-2.91l-3.12.03c-1.06.01-2.12.01-3.21.01-3.39.01-6.77.04-10.15.07-2.3.01-4.59.01-6.88.02-5.63.02-11.25.06-16.87.1-.46 1.13-.91 2.27-1.38 3.44-1.62 3.56-1.62 3.56-3.62 4.56-4.6.37-7.38-.32-11.38-2.56-.95-.54-1.91-1.07-2.9-1.63-2.63-1.75-4.51-3.58-6.66-5.87-2.4-2.2-3.36-2.95-6.66-2.89-3.23.78-6.27 1.81-9.4 2.95-2.08.69-4.17 1.36-6.26 2.01-1.38.44-2.76.9-4.13 1.36-4 1.32-7.41 1.99-11.61 1.63-2.56-1.85-2.98-2.94-4-6-3.4.07-6.67.28-10 1-2.1 2.21-2.1 2.21-4 5-6.96 4.91-15.21 10.33-24 9-4.08-3.54-4.38-6.82-5-12-6.02-.1-12.03-.17-18.04-.22-2.05-.02-4.09-.05-6.14-.08-2.94-.05-5.88-.07-8.83-.09l-2.76-.06c-5.56-.01-8.9.6-13.23 4.45-1.78 2.92-2.3 5.28-2.5 8.68-.06.92-.12 1.84-.19 2.79-.05.98-.11 1.97-.16 2.98-.07 1.02-.13 2.03-.2 3.08-.2 3.24-.39 6.48-.58 9.72-.13 2.2-.27 4.4-.4 6.59-.33 5.39-.66 10.77-.97 16.16 2.57-.14 5.14-.28 7.71-.43.72-.04 1.44-.08 2.19-.12 3.7-.22 7.2-.54 10.79-1.51 10.67-2.67 20.69-1.2 30.23 4.13 5.03 3.66 7.83 9.12 10.8 14.46 2.31 4.13 4.78 7.21 8.28 10.47 1.1 1.21 2.18 2.44 3.25 3.69.75.87.75.87 1.51 1.76 3.85 4.84 2.69 11.71 2.24 17.55-.9 3.31-2.25 6.06-4 9-.42.73-.84 1.46-1.28 2.22-3.9 6.54-6.73 9.14-14.22 11.22-.75.21-1.5.42-2.27.64-32.04 8.83-32.04 8.83-45.78 4.9-3.49-.99-6.28-1.19-9.89-1.1-1.05.01-2.1.03-3.18.05-.79.02-1.57.05-2.38.07l.03 2.38.03 3.18c.01 1.04.02 2.07.04 3.13-.1 3.31-.1 3.31-1.1 10.31h40v6h-46c0-12.37 0-12.37.39-17.52.09-1.17.18-2.33.27-3.54.1-1.23.19-2.47.29-3.74.1-1.35.2-2.69.31-4.03.21-2.86.43-5.72.65-8.58q.87-11.415 1.71-22.83c.06-.77.12-1.55.18-2.35 1.44-19.39 2.7-38.79 3.94-58.2.12-1.82.12-1.82.24-3.68l.42-6.72c.19-2.94.39-5.87.6-8.81.06-1 .11-2 .17-3.03.1-1.46.1-1.46.21-2.94.05-.86.1-1.72.16-2.61.98-5.18 4.43-8.79 8.42-12.01 4.45-2.07 8.53-1.78 13.37-1.7 1.49 0 1.49 0 3.01.01 3.15.02 6.31.05 9.47.09 2.15.02 4.29.03 6.44.04q7.875.06 15.75.15c-.5-4.45-.5-4.45-1-9l-3.13-.06c-7.35-.91-16.23-5.01-21.17-10.49-4.5-6.48-4.68-11.62-3.7-19.45 2.56-5.96 7.12-9.57 13-12 7.49-.92 14.73 1.28 22 3v-5c-1.12.03-2.24.07-3.4.11-1.47.02-2.94.05-4.41.08-.74.02-1.48.05-2.24.07-5.5.08-5.5.08-7.64-1.53-1.51-2-1.8-3.2-2.09-5.67-.1-.75-.2-1.5-.31-2.27-.19-1.57-.38-3.14-.55-4.72-.31-2.55-.31-2.55-1.36-6.07-2.39-1.51-2.39-1.51-5-2-2.33-2.32-2.47-3.37-3.07-6.54-.18-.91-.35-1.82-.53-2.76-.17-.95-.35-1.91-.53-2.89-.18-.93-.36-1.87-.55-2.83-.95-5.06-1.68-9.83-1.32-14.98 1.37-1.94 1.37-1.94 3-3h2c-.12-.63-.24-1.26-.37-1.91-.55-2.88-1.09-5.77-1.63-8.65-.19-.99-.38-1.98-.58-3-2.53-13.63-2.53-13.63-.23-17.38 2.35-1.38 4.12-1.13 6.81-1.06-.1-.84-.19-1.69-.29-2.55-.11-1.1-.22-2.2-.34-3.32-.11-1.1-.23-2.19-.35-3.31l-.02-2.82c2-2 2-2 3.89-2.12 5.39.56 9.99 1.75 15.11 3.56 4.83 1.54 4.83 1.54 9.62.59 1.61-1.08 3.19-2.2 4.74-3.35 6.49-4.12 15.09-4.89 22.64-4.68-.14-2.41-.14-2.41-1-5-2.05-1.62-2.05-1.62-4.63-2.81-5.33-2.98-8.75-6.32-12.37-11.19-.47-.62-.95-1.23-1.44-1.87-7.13-10.21-7.05-22.44-6.95-34.4.01-2.49 0-4.97-.02-7.46 0-1.61 0-3.21.01-4.82-.01-.73-.01-1.46-.02-2.21.11-8.12 2.63-14.45 8.42-20.24 10.03-7.67 21.53-6.28 33.61-6.35"/><path fill="#58371f" d="M255 29.223c2.13-.02 4.26-.04 6.39-.08 3.09-.06 6.18-.08 9.27-.09.94-.03 1.88-.05 2.85-.07 7.97.02 13.48 2.61 19.44 7.84.93 1.08.93 1.08 1.88 2.19.63.72 1.27 1.44 1.93 2.18 3.6 5.26 3.93 10.57 3.89 16.78.01.79.01 1.59.01 2.4 0 1.68 0 3.35-.01 5.02-.01 2.54 0 5.08.01 7.62 0 1.63 0 3.26-.01 4.9.01.75.01 1.49.02 2.27-.11 11.69-4.66 23.19-12.56 31.88-2.7 2.37-5.73 4.13-8.87 5.86-2.54 1.92-2.54 1.92-2.85 7.65l13 1v4c-8.36 1.04-8.36 1.04-12.06.81-3.62.23-5.97 1.49-9.11 3.22-5.63 2.99-12.38 2.75-18.48 1.37-5.82-1.87-5.82-1.87-8.35-4.4-7.8-.71-16.21.99-23 5l-1 2c.87.18.87.18 1.76.37.78.16 1.56.33 2.36.51.77.16 1.53.32 2.32.49 2.56.63 2.56.63 5.34 1.68 3.88 1.14 7.53 1.16 11.53 1.2 7.31.22 12.19 1.62 17.69 6.75l5-4v3h70c0 7.88 0 7.88-.88 12.06-.18.88-.36 1.76-.54 2.66-.19.9-.39 1.8-.58 2.72s-.38 1.84-.58 2.79c-.47 2.26-.94 4.52-1.42 6.77-.61.05-1.22.1-1.85.16-1.21.11-1.21.11-2.44.23-.8.07-1.59.15-2.41.22-4.47.76-7.34 3.06-9.94 6.66-2.59 5.19-2.3 11.4-.74 16.93 2.44 5 6.45 6.87 11.38 8.8-.14 2.06-.29 4.13-.44 6.19-.12 1.72-.12 1.72-.25 3.48-.31 3.33-.31 3.33-1.31 8.33l-52 1 31 1v1c-.9-.01-1.81-.01-2.74-.02-3.37-.01-6.75.02-10.12.06-1.46.02-2.91.02-4.37 0-8.47-.31-8.47-.31-16.15 2.55-1.8 1.87-1.8 1.87-3.3 3.83-1.32 1.58-1.32 1.58-4.02 2.47l-2.43-.08c-.8.01-1.61.02-2.44.02-2.43-.83-2.43-.83-4.6-3.83-2.23-2.76-2.7-2.97-6.43-3.77q-2.055-.06-4.11-.03c-.72-.02-1.45-.03-2.2-.05-2.3-.03-4.6-.03-6.9-.02-1.57-.02-3.14-.04-4.71-.07-3.82-.05-7.65-.06-11.48-.06.08.63.17 1.25.25 1.9.16 1.22.16 1.22.31 2.48.16 1.21.16 1.21.32 2.46.12 2.16.12 2.16-.88 4.16l3 1c-3.02.95-4.96 1-8.01.22-1.14-.27-1.14-.27-2.3-.55l-4.7-1.2c-9.71-2.36-9.71-2.36-18.93.28-3.75 4.09-4.34 6.63-4.2 12.28.17 2.38.56 4.65 1.14 6.97l-5 1c-3.42-5.13-2.75-11.03-2-17 2.56-5.96 7.12-9.57 13-12 7.49-.92 14.73 1.28 22 3v-5c-1.12.03-2.24.07-3.4.11-1.47.02-2.94.05-4.41.08-.74.02-1.48.05-2.24.07-5.5.08-5.5.08-7.64-1.53-1.51-2-1.8-3.2-2.09-5.67-.1-.75-.2-1.5-.31-2.27-.19-1.57-.38-3.14-.55-4.72-.31-2.55-.31-2.55-1.36-6.07-2.39-1.51-2.39-1.51-5-2-2.33-2.32-2.47-3.37-3.07-6.54-.18-.91-.35-1.82-.53-2.76-.17-.95-.35-1.91-.53-2.89-.18-.93-.36-1.87-.55-2.83-.95-5.06-1.68-9.83-1.32-14.98 1.37-1.94 1.37-1.94 3-3h2c-.12-.63-.24-1.26-.37-1.91-.55-2.88-1.09-5.77-1.63-8.65-.19-.99-.38-1.98-.58-3-2.53-13.63-2.53-13.63-.23-17.38 2.35-1.38 4.12-1.13 6.81-1.06-.1-.84-.19-1.69-.29-2.55-.11-1.1-.22-2.2-.34-3.32-.11-1.1-.23-2.19-.35-3.31-.01-.93-.01-1.86-.02-2.82 2-2 2-2 3.89-2.12 5.39.56 9.99 1.75 15.11 3.56 4.83 1.54 4.83 1.54 9.62.59 1.61-1.08 3.19-2.2 4.74-3.35 6.49-4.12 15.09-4.89 22.64-4.68-.14-2.41-.14-2.41-1-5-2.05-1.62-2.05-1.62-4.63-2.81-5.33-2.98-8.75-6.32-12.37-11.19-.47-.62-.95-1.23-1.44-1.87-7.13-10.21-7.05-22.44-6.95-34.4.01-2.49 0-4.97-.02-7.46 0-1.61 0-3.21.01-4.82l-.02-2.21c.11-8.12 2.63-14.45 8.42-20.24 10.03-7.67 21.53-6.28 33.61-6.35"/><path fill="#daae95" d="M213.388 103.573c1.66 1.79 1.66 1.79 3.06 4.19.51.82 1.01 1.64 1.53 2.49l1.41 2.32c2.19 2.88 4.43 5.47 7 8-1.34.49-1.34.49-2.7.99-1.76.65-1.76.65-3.55 1.32-1.16.43-2.32.86-3.52 1.3-2.84 1.22-4.8 2.54-7.23 4.39-4.58-.22-13.63-1.63-17-5-5.68-.56-8.57.41-13 4-1.14 2.28-1.13 3.78-1.25 6.31-.37 3.8-.67 4.6-3.25 7.69-.82.66-1.65 1.32-2.5 2-1.57 1.57-1.17 3.13-1.19 5.31.04 5.07.79 9.86 1.75 14.83 1.19 7.79 1.19 7.79-1.03 10.96-.51.63-1.01 1.25-1.53 1.9-1.49 7.07.5 14.87 1.75 21.88.16.91.31 1.83.47 2.77.98 5.09 1.94 8.61 5.78 12.35l3 2c.69 2.12.69 2.12 1 5 .21 1.3.41 2.6.62 3.94-.01 2.09-.01 2.09-.62 4.06-2.09 1.75-4.3 3-6.67 4.36-4.79 3.36-7.19 9.01-8.33 14.64-.68 7.93 1.67 13.9 5.56 20.75 3.94 3.63 8.67 5.86 13.44 8.25v1l-2.55.04c-3.15.07-6.3.14-9.46.22-1.35.04-2.71.06-4.07.09-12.23.11-12.23.11-22.61 5.9-5.76 6.85-6.99 11.91-7.31 20.75h-2c-11.39-22.94-19.58-43.95-19.45-69.81.01-2.49-.02-4.98-.05-7.48-.06-14.59 2.4-28.55 7.62-42.21l.89-2.35c9.18-23.38 24.95-44.04 44.99-59.15.8-.6 1.6-1.21 2.42-1.83 27.55-19.98 27.55-19.98 38.58-18.17"/><path fill="#d9ae95" d="M300.388 104.573c14.2 1.48 28.12 11.25 39 20 .59.47 1.18.95 1.79 1.43 22.44 18.16 37.49 41.12 46.21 68.57.32.96.32.96.64 1.94 3.74 11.87 3.75 23.99 3.8 36.31 0 .81.01 1.63.02 2.46.07 14.83-1.93 28.24-7.15 42.23-.32.88-.64 1.77-.97 2.68-.77 2.13-1.55 4.26-2.34 6.38-4.08 0-5.16-1.76-7.99-4.49-5.39-4.04-11.56-3.84-18-3.92l-2.87-.06c-3-.06-6.01-.11-9.02-.15l-6.13-.12c-5-.1-9.99-.18-14.99-.26v-4l-4-1c1.1-.36 2.19-.73 3.32-1.1 1.46-.51 2.91-1.02 4.37-1.52 1.08-.36 1.08-.36 2.18-.72 6.22-2.21 8.82-5.11 12.42-10.64 2.05-5.84 1.65-12.99-.91-18.52-3.5-3.68-7.14-6.67-11.38-9.5h3c.11-.98.22-1.95.33-2.96.16-1.27.32-2.54.48-3.85.15-1.27.3-2.53.46-3.83.71-3.26 1.01-4.52 3.73-6.36h2c2.62-4.79 3.48-9.89 4.62-15.19.35-1.5.35-1.5.7-3.04 1.32-6.06 2.07-11.57 1.68-17.77-.98-1.35-1.98-2.68-3-4-.44-4.87.16-9.19 1-14 1.25-6.98 1.25-6.98 1-14-1.41-1.87-2.98-3.48-4.62-5.14-1.69-2.27-1.8-3.69-1.94-6.48-.2-3.47-.41-4.33-2.44-7.38-4.13-2.75-7.05-3.52-12-3-3.29 1-6.5 2.05-9.68 3.35-2.86 1.1-4.74 1.81-7.75 1-.85-.45-1.7-.89-2.57-1.35-1.32-.52-2.65-1.02-3.99-1.51-.7-.26-1.41-.53-2.14-.8-.72-.27-1.44-.54-2.18-.81-.74-.28-1.48-.56-2.25-.84-1.81-.68-3.63-1.36-5.44-2.04.85-.97 1.69-1.94 2.56-2.94 3.64-4.23 7.05-8.63 10.44-13.06"/><path fill="#593721" d="M287.388 127.573c6.45.54 12.33 2.33 17 7 5.06-.33 10-1.94 14.75-3.62 3.55-1.24 6.46-1.83 10.25-1.38l3 2c.31 4.17-.02 7.94-1 12 .76.1 1.53.21 2.31.31 2.96.76 4.03 1.15 5.69 3.69.42 3.57-.1 6.62-.94 10.06-.92 3.92-1.47 7.8-1.87 11.82-.11 1.09-.22 2.18-.33 3.3-.19 2.84-.19 2.84 1.63 4.2 1.51 1.62 1.51 1.62 1.81 5.13-.2 5.2-1.14 10.26-2.11 15.37-.17.94-.33 1.89-.5 2.87-.18.9-.35 1.81-.52 2.74-.15.82-.31 1.64-.46 2.48-.71 2.03-.71 2.03-3.71 4.03h-4c-.07 1.07-.07 1.07-.15 2.16-.49 6.26-1 12.15-3.85 17.84.57.14 1.14.27 1.72.41 6.97 1.94 11.54 5.28 15.44 11.42 2.07 5.36 1.92 12.32-.11 17.66-3.95 6.6-9 9.79-16.24 12.26-1.23.43-2.46.86-3.73 1.3-3.08.95-3.08.95-5.08.95l-1 10 4.49-.06c5.52-.08 11.03-.12 16.54-.16 2.39-.02 4.77-.05 7.16-.08 3.43-.05 6.86-.07 10.29-.09l3.22-.06c7.24-.01 10.67 1 15.94 6.01 4.1 5.04 4.47 8.42 4.61 14.79l.09 3.95c.02.7.03 1.4.05 2.12.31 13.79.86 27.56 1.55 41.33.78 15.72 1.46 31.45 2.05 47.18l.27 7.03c.13 3.32.25 6.63.37 9.95l.12 2.89c.32 9.08.25 18.09.25 27.2h-87v-6h81l-.94-19.81c-.74-15.91-1.36-31.82-1.72-47.74-.15-6.12-.36-12.2-.84-18.3-.7-9.15-.85-18.31-1.05-27.48-.11-4.52-.23-9.04-.38-13.55-.05-1.4-.09-2.79-.13-4.19-.05-1.91-.14-3.83-.22-5.74-.06-1.62-.06-1.62-.13-3.27-.73-3.62-2.02-5.31-4.59-7.92-3.05-1.87-5.31-2.25-8.86-2.23h-2.91l-3.12.03c-1.06.01-2.12.01-3.21.01-3.38.01-6.77.04-10.15.07-2.29.01-4.59.01-6.88.02-5.63.02-11.25.06-16.87.1-.45 1.13-.91 2.27-1.38 3.44-1.62 3.56-1.62 3.56-3.62 4.56-4.6.37-7.37-.32-11.38-2.56-1.43-.81-1.43-.81-2.9-1.63-2.63-1.75-4.51-3.58-6.66-5.87-2.45-2.27-3.38-2.96-6.76-2.85-3.2.77-6.21 1.78-9.3 2.91-2.33.76-4.66 1.51-7 2.25-1.58.53-1.58.53-3.19 1.08-2.8.67-4.15.67-6.81-.33v-2l-4-1 1-4v3c7.47-1.9 14.83-3.88 22.12-6.38 6.08-2.07 12.2-3.89 18.38-5.62 7.5-2.1 14.89-4.38 22.26-6.92 2.92-.97 5.83-1.79 8.8-2.58 5.34-1.58 8.95-3.93 11.82-8.88 1.16-4.87 1.28-8.86-1-13.37-2.28-3.5-4.31-4.99-8.38-6.25-8.31-.88-15.73.91-23.68 3.19-1.98.57-3.96 1.12-5.94 1.67-2.61.71-5.22 1.44-7.83 2.16a428 428 0 0 1-13.67 3.54c-1.27.31-2.53.62-3.83.94-2.83.46-4.4.5-7.05-.5.99-1.49.99-1.49 2-3-.95.11-1.9.22-2.87.34-10.9 1.09-20.38-.29-31.01-2.72-1.54-.33-3.09-.66-4.64-1-11-2.38-11-2.38-13.48-3.62v-7c4.61-.15 9.21-.26 13.82-.33 1.57-.03 3.14-.07 4.7-.12 2.26-.08 4.52-.11 6.77-.14l2.11-.09c2.81 0 4.96.11 7.1 2.03 1.22 1.5 2.37 3.08 3.5 4.65 3.46 1.19 6.48.94 10 0 2.79-2 4.91-4.28 7-7l-1-3h53l1-13 1-5c-.72-.08-1.44-.17-2.19-.25-4.5-1.2-6.92-3.53-9.62-7.25-1.93-5.68-2.65-12.08-.24-17.73 2.38-3.53 5.04-6.22 9.05-7.77 3.02-.22 5.98-.18 9 0 .12-.94.24-1.89.37-2.86.16-1.28.33-2.57.51-3.89.16-1.25.32-2.51.49-3.8.78-5.5 1.72-10.97 2.63-16.45-35.14.5-35.14.5-71 1v-3l-5 4c-.38-.42-.76-.84-1.15-1.28-5.3-4.93-10.2-5.21-17.12-5.32-7.85-.21-14.46-2.53-21.73-5.4.98-2.54 1.51-3.75 3.99-5.01.77-.22 1.53-.45 2.32-.68.81-.23 1.62-.47 2.46-.72l2.23-.59c.85-.23 1.69-.45 2.56-.69 9.15-1.17 9.15-1.17 12.5 1.07.64.53 1.28 1.07 1.94 1.62 8.95 3.47 17.39 2.8 26.1-1.03 1.86-.83 1.86-.83 2.9-1.97 2.53-.07 5.03-.09 7.56-.06a929 929 0 0 1 7.44.06v-2c-.99-.5-.99-.5-2-1"/><path fill="#cf9a78" d="M207.388 73.573c.5 9.41.5 9.41 1 19-1.33.53-2.66 1.07-4.03 1.62-11.75 4.81-22.55 10.11-32.97 17.38-.56.38-1.11.76-1.68 1.16-31.74 22.12-51.87 55.63-59.02 93.31-5.81 32.74-1.35 66.3 14.7 95.53.53.97.53.97 1.06 1.96 4.06 7.86 4.06 7.86 9.69 14.57 4.07 4.73 2.48 11.56 2.06 17.35-.07 1.26-.14 2.52-.21 3.82q-.27 4.65-.6 9.3c-5.5-1.83-8.52-7.54-12-12-.74-.92-1.48-1.85-2.24-2.8-14.47-18.59-23.85-39.48-29.76-62.2-.31-1.15-.62-2.3-.93-3.49-5.48-21.84-5.52-48.61-.07-70.51.33-1.5.67-3 1-4.5 6.44-27.84 20.69-53.49 40.53-73.98 1.53-1.58 3.03-3.17 4.53-4.77 16.22-16.99 36.21-29.06 57.94-37.75 1.06-.42 1.06-.42 2.14-.86 3.08-1.2 5.52-2.14 8.86-2.14m99 1c7.53 2.06 14.36 4.78 21.38 8.19 1.52.73 1.52.73 3.07 1.48 7.31 3.6 14.03 7.41 20.55 12.33 1.05.76 2.11 1.52 3.19 2.3 15.5 11.45 29.35 25.5 39.81 41.7.42.65.84 1.29 1.28 1.96 10.46 16.29 18.06 33.93 22.23 52.84.45 2.04.95 4.06 1.45 6.08 8.12 37.07.19 78.22-17.96 111.12-.58 1.07-1.15 2.13-1.75 3.23-4.12 7.37-8.87 14.26-14.25 20.77h-1c-1.65-17.93-2.56-31.95 6.83-47.9 15.55-28.05 13.96-66.87 5.82-96.85-6.81-23.61-18.8-43.43-35.65-61.25-.7-.75-1.39-1.5-2.11-2.27-13.65-14.22-30.25-23.87-48.08-31.9-1.96-.9-3.88-1.87-5.81-2.83z"/><path fill="#f2e5dd" d="M274.582 148.46h3.94c1.43.01 2.85.01 4.28.02h4.36c3.83 0 7.66.01 11.5.02 3.9.02 7.81.02 11.72.02 7.67.02 15.34.03 23.01.05.02 4.16-.03 7.99-.88 12.06-.27 1.32-.27 1.32-.55 2.67-.28 1.34-.28 1.34-.57 2.71-.29 1.38-.29 1.38-.58 2.8-.47 2.25-.94 4.51-1.42 6.76-.61.06-1.22.11-1.85.16-.81.08-1.61.15-2.44.23-.8.08-1.6.15-2.42.22-4.46.76-7.34 3.06-9.93 6.67-2.59 5.18-2.31 11.4-.74 16.92 2.43 5 6.45 6.88 11.38 8.8-.14 2.11-.29 4.21-.44 6.32-.08 1.17-.16 2.34-.25 3.55-.31 3.13-.31 3.13-1.31 6.13-1.02.01-1.02.01-2.06.01-7.08.02-14.15.07-21.22.15-2.64.02-5.28.03-7.92.04-3.8.01-7.59.05-11.38.1-1.18-.01-2.37-.01-3.59-.02-6.39-.09-6.39-.09-11.49 3.27-.44.81-.89 1.62-1.34 2.45h-2c-.14-9.52-.25-19.05-.31-28.58-.04-4.42-.08-8.85-.15-13.27-.06-4.28-.1-8.55-.11-12.82-.01-1.63-.04-3.26-.07-4.88-.27-14.35-.27-14.35 3.55-18.94 4.23-3.44 5.9-3.63 11.28-3.62"/><path fill="#f3e6dd" d="M182.388 148.573q12.36-.135 24.72-.21c3.83-.02 7.66-.05 11.48-.09 3.7-.05 7.39-.07 11.09-.08 1.41-.01 2.82-.02 4.22-.04 1.98-.03 3.96-.03 5.93-.03l3.41-.03c4.75.72 7.81 3.14 11.15 6.48.19 2.41.25 4.7.23 7.11v2.22c0 2.42-.02 4.85-.03 7.27-.01 1.68-.01 3.36-.01 5.04-.01 4.42-.03 8.84-.05 13.26-.02 4.52-.03 9.03-.04 13.54-.02 8.85-.06 17.71-.1 26.56-3-1-3-1-5-4-2.42-.48-2.42-.48-5.28-.43l-3.33-.06c-1.19-.01-2.39-.02-3.62-.02l-3.69-.06c-3.9-.05-7.8-.08-11.7-.12-2.65-.03-5.29-.07-7.93-.1-6.48-.09-12.97-.15-19.45-.21-.32-1.6-.64-3.2-.96-4.79-.18-.89-.36-1.78-.54-2.7-1.14-5.75-1.14-5.75-.5-8.51 1.9-1.41 3.89-2.52 5.95-3.67 3.31-2.15 4.89-4.59 6.05-8.33.77-5.05.61-8.78-1.69-13.38-3.74-4.24-6.41-6.58-11.99-7.73-.81-.17-1.62-.34-2.45-.51-.62-.13-1.23-.25-1.87-.38-.68-3.21-1.34-6.42-2-9.62-.19-.91-.38-1.81-.58-2.74-.18-.89-.36-1.77-.54-2.68-.26-1.21-.26-1.21-.51-2.44-.42-2.87-.39-5.63-.37-8.52"/><path fill="#f2e5dd" d="M284.388 64.573c2.17 1.71 2.17 1.71 4.19 3.81l2.04 2.08c3.99 4.75 4.27 8.67 4.14 14.75-1.13 10.22-5.74 18.58-13.37 25.36-2.55 2-5.09 3.58-8 5-.63.32-1.26.64-1.91.96-8.3 3.47-19.02 3.64-27.57.94-11.1-5.27-18.96-12.76-23.33-24.28-1.72-5.84-2.87-11.51.13-17.08 1.75-2.37 3.61-4.45 5.68-6.54.49-.55.99-1.1 1.5-1.67 4.79-4.44 10.47-3.77 16.68-3.6 3.28.23 6.51.62 9.76 1.05 3.56.38 7.11.4 10.68.41l2.2.03c3.49.01 6.04-.17 9.39-1.29 3.2-1.07 4.64-1.07 7.79.07"/><path fill="#f1e4dc" d="M330.326 237.136c4.71 3.75 6.76 7.01 7.5 13-.76 6-2.97 9.45-7.66 13.24-3.1 2.09-6.47 3.11-10.03 4.2-.78.25-1.57.5-2.38.76-6.16 1.94-12.38 3.66-18.61 5.34-5.32 1.45-10.54 3.11-15.76 4.9-6.24 2.13-12.52 4.09-18.87 5.87-.76.22-1.51.43-2.29.65-3.44.95-6.24 1.48-9.84 1.48-1.32-4.02-2.63-8.04-3.94-12.06-.37-1.14-.74-2.27-1.13-3.44-1.78-5.5-3.4-10.73-3.93-16.5 6.96-2.44 13.95-4.31 21.12-6.03 1.14-.28 2.28-.56 3.46-.84 3.62-.88 7.24-1.76 10.86-2.63 3.62-.88 7.23-1.75 10.85-2.63 2.24-.55 4.49-1.09 6.73-1.63 5.7-1.38 11.32-2.89 16.92-4.65 5.57-1.6 11.75-1.63 17 .97"/><path fill="#58361f" d="M215.388 237.573c4.15.79 8.29 1.58 12.44 2.38 1.16.22 2.33.44 3.53.67 5.06.97 10.11 1.95 15.13 3.1 7.08 1.54 13.76.78 20.9-.15-.86 2.82-.86 2.82-3 6-3.28 1.49-6.67 2.16-10.19 2.88-1.41.31-1.41.31-2.85.64-2.31.51-4.63 1.01-6.96 1.48 1.31 7.16 3.1 14 5.32 20.92 1.28 4.16 1.94 7.67 1.68 12.08 1.98.5 1.98.5 4 1 .5 1.98.5 1.98 1 4-5.49.37-5.49.37-7.81-1.31-1.19-1.69-1.19-1.69-2.19-4.69-2-1.21-2-1.21-4-2l1-4c-1.81.28-3.63.58-5.44.88-1.01.16-2.02.32-3.06.49-.82.21-1.65.41-2.5.63-.5.99-.5.99-1 2h-2l-2-7h-4c.25.83.25.83.5 1.67.56 2.6.6 4.93.56 7.58-.01.89-.02 1.78-.02 2.7-.02.68-.03 1.35-.04 2.05l-5 2c-.06-.72-.12-1.45-.18-2.2-.43-4.97-.89-9.89-1.82-14.8-2.47.5-2.47.5-5 1 .14.55.29 1.09.44 1.65 1.38 5.6 1.74 10.59 1.56 16.35-1.98.5-1.98.5-4 1l-3-14-4-1v-4h-2v-3l-3.12-.06c-4.47-.54-8.22-2.32-12.19-4.32-.61-.3-1.22-.6-1.85-.92-3.01-1.56-5.74-2.99-7.84-5.7v-2l4-1-1-2c-1.25-3.74-1.62-7.13-1-11 2.01-3.8 4.08-7.09 8-9 6.36-.61 12.23.48 18.38 2 1.56.38 3.13.75 4.71 1.12 1.02.26 1.02.26 2.06.51 2.03.47 2.03.47 4.85.37l-2-1Z"/><path fill="#eee1d8" d="M188.826 358.01c3.49 3.49 6 7.36 8.56 11.56 2.64 4.24 5.03 6.99 9 10 2.72 5.45.23 11.03-1.54 16.42-2.78 4.93-7.03 6.6-12.29 8.07-1.8.43-3.61.85-5.42 1.26l-2.7.67c-8.5 1.99-16.13 2.24-24.6.09-4.75-.99-9.61-1.2-14.45-1.51-.32-15.75.67-31.3 2-47 .58.01 1.16.01 1.76.02 2.64.02 5.29.03 7.93.04 1.37.02 1.37.02 2.76.03 1.33.01 1.33.01 2.69.01.81.01 1.62.01 2.46.02 20.72-.98 20.72-.98 23.84.32"/><path fill="#ebded5" d="M360.591 308.339c3.1 2.13 5.37 3.74 6.8 7.23 1.18 7.84.64 14.9-3.38 21.81-4.23 5.71-8.71 9.37-15.62 11.19-9.03.86-15.41.2-22.88-5-2.75-1.75-4.63-2.54-7.69-3.43-4.22-1.3-6.59-3.1-9.43-6.57-1.89-3.78-1.6-7.88-1-12 1.33-3.27 3.04-5.08 6-7 3.62-1.31 7.2-2.3 10.95-3.17 3.13-.58 3.13-.58 5.05-2.83 2.68-.59 2.68-.59 5.87-1.06 4.15-.6 4.15-.6 8.24-1.47 6.11-1.5 11.67-.87 17.09 2.3"/><path fill="#5e3e27" d="m311.388 275.573 4 1v7l1.86-.03c6.39-.09 12.78-.15 19.17-.19 2.39-.02 4.77-.05 7.16-.08 3.43-.05 6.86-.07 10.29-.09l3.22-.06c7.24-.01 10.67 1 15.94 6.01 4.1 5.04 4.47 8.42 4.61 14.79l.09 3.95c.02.7.03 1.4.05 2.12.31 13.79.86 27.56 1.55 41.33.78 15.72 1.46 31.45 2.05 47.18l.27 7.03c.13 3.32.25 6.63.37 9.95l.12 2.89c.32 9.08.25 18.09.25 27.2h-87v-6h81l-.94-19.81c-.74-15.91-1.36-31.82-1.72-47.74-.15-6.12-.36-12.2-.84-18.3-.7-9.15-.85-18.31-1.05-27.48-.11-4.52-.23-9.04-.38-13.55-.05-1.4-.09-2.79-.13-4.19-.05-1.91-.14-3.83-.22-5.74-.04-1.08-.09-2.16-.13-3.27-.73-3.62-2.02-5.31-4.59-7.92-3.05-1.87-5.31-2.25-8.86-2.23h-2.91c-1.55.02-1.55.02-3.12.03-1.06.01-2.12.01-3.21.01-3.38.01-6.77.04-10.15.07-2.29.01-4.59.01-6.88.02-5.63.02-11.25.06-16.87.1l-3 7-3-1c-.42-7.25.56-13.17 3-20"/><path fill="#55321a" d="M287.388 127.573c6.45.54 12.33 2.33 17 7 5.06-.33 10-1.94 14.75-3.62 3.55-1.24 6.46-1.83 10.25-1.38l3 2c.31 4.17-.02 7.94-1 12 .78.1 1.57.21 2.38.31 2.62.69 2.62.69 4.62 3.69-.38 3.19-.38 3.19-1 6h-3l-1-5c-35.14.5-35.14.5-71 1v-3l-5 4c-.38-.42-.76-.84-1.15-1.28-5.3-4.93-10.2-5.21-17.12-5.32-7.85-.21-14.46-2.53-21.73-5.4.98-2.54 1.51-3.75 3.99-5.01.77-.22 1.53-.45 2.32-.68.81-.23 1.62-.47 2.46-.72l2.23-.59c.85-.23 1.69-.45 2.56-.69 9.15-1.17 9.15-1.17 12.5 1.07.64.53 1.28 1.07 1.94 1.62 8.95 3.47 17.39 2.8 26.1-1.03 1.86-.83 1.86-.83 2.9-1.97 2.53-.07 5.03-.09 7.56-.06a929 929 0 0 1 7.44.06v-2c-.99-.5-.99-.5-2-1"/><path fill="#f0e3db" d="M238.828 34.444c1.34 0 1.34 0 2.71-.01.96 0 1.92 0 2.92.01.99 0 1.98-.01 3-.01 2.09 0 4.18 0 6.27.01 3.21 0 6.42 0 9.63-.01 2.04 0 4.07 0 6.1.01.96-.01 1.93-.01 2.92-.01.89 0 1.78.01 2.7.01h2.38c1.93.13 1.93.13 3.93 1.13.08 2.9.14 5.79.19 8.69.02.81.05 1.63.07 2.47.06 4.74.02 8.13-3.26 11.84-6.64 4.31-14.74 4.02-22.35 2.54-.67-.18-1.34-.36-2.02-.54-8.57-2.18-18.63-2.78-26.44 1.75-2.44 1.66-4.06 3.08-5.83 5.45-.45.6-.9 1.19-1.36 1.8h-2c-1.01-20.68-1.01-20.68 5-28 4.7-4.44 8.86-7.12 15.44-7.13"/><path fill="#e9dcd3" d="m180.826 345.323 2.2-.06c6.02-.05 10.81 1.17 15.55 5.15 4.4 5.09 7.66 10.29 10.87 16.19 2.12 3.25 4.47 5.42 7.38 7.97 3.62 3.48 5.3 5.61 5.56 10.69-.45 5.02-1.87 9.61-3.62 14.31-.24.64-.47 1.27-.71 1.92-1.98 4.72-4.31 6.56-8.67 9.08-3.52 1.19-3.52 1.19-7.38 2.14-.7.17-1.39.34-2.11.52-1.46.36-2.93.71-4.4 1.06-2.21.52-4.41 1.08-6.62 1.63-10.93 2.68-20.5 3.93-31.49.65-4.32-.46-8.65-.75-13-1v-6c5.38-2.69 12.24-.94 17.74.53 14.36 2.97 29.68-2 43.26-6.53 1.12-2.12 1.12-2.12 2-5 .26-.64.52-1.28.79-1.95 2.25-5.87 3.67-11.82 2.21-18.05-1.74-2.34-3.63-4.07-5.84-5.96-2.36-2.23-3.75-4.41-5.34-7.23-3.25-5.71-6.37-9.82-12.82-11.81-2.82-.17-5.54-.23-8.36-.2-1.19.01-1.19.01-2.4.01-2.52.01-5.03.04-7.55.06-1.71.02-3.42.02-5.13.03-4.19.02-8.37.06-12.56.1l-1-5c1.16-.13 2.32-.27 3.51-.4l4.62-.54c.76-.08 1.52-.17 2.3-.26 3.22-.38 6.41-.77 9.6-1.35 3.82-.58 7.55-.67 11.41-.7"/><path fill="#583720" d="M183.388 164.573c3.01 3.01 2.6 5.82 3 10 .84-.01.84-.01 1.69-.03 6.12.24 9.23 2 13.68 6.14 3.64 4.22 4.12 7.84 4.02 13.28-.78 5.24-3.67 9.05-7.51 12.55-1.88 1.06-1.88 1.06-4.88 2.06.14 1.92.29 3.83.44 5.75.08 1.07.16 2.13.24 3.23.27 3.21.27 3.21 1.32 7.02l52 1v1l-3.75.08c-4.57.09-9.14.19-13.71.29-1.98.05-3.97.09-5.95.13-2.84.05-5.68.12-8.52.18-1.34.03-1.34.03-2.71.05-4-.29-4-.29-7.36 1.27-2.31.29-4.62.51-6.94.69-1.9.16-1.9.16-3.84.32-3.22-.01-3.22-.01-5.22-2.01-.64-3.62-1.16-7.23-1.59-10.88-.33-2.56-.33-2.56-1.41-6.12-2.39-1.51-2.39-1.51-5-2-2.32-2.32-2.47-3.37-3.07-6.54-.17-.91-.35-1.82-.53-2.76-.17-.95-.35-1.91-.52-2.89-.28-1.4-.28-1.4-.56-2.83-.94-5.06-1.68-9.83-1.32-14.98 1.38-1.94 1.38-1.94 3-3h2c.12-.7.25-1.4.38-2.12.66-3.06 1.59-5.93 2.62-8.88"/><path fill="#eee1d8" d="M206.33 240.76c1.01.22 2.02.44 3.06.67 3.19.71 6.37 1.42 9.56 2.14 2.18.49 4.35.97 6.53 1.45 5.3 1.17 10.61 2.36 15.91 3.55l-2 3c-.4 2.33-.74 4.66-1 7-6.6.38-12.39.57-18.56-2-5.74-2.38-11.28-2.85-17.44-2-2.68 2.68-2.39 4.39-2.63 8.13-.07 1.09-.15 2.19-.22 3.32-.05.84-.1 1.68-.15 2.55-8.01-1.24-14.04-3.67-19.5-9.81-1.86-3.94-2.36-6.91-1.5-11.19 6.43-12.17 16.29-9.47 27.94-6.81"/><path fill="#58361e" d="M360.591 308.339c3.1 2.13 5.37 3.74 6.8 7.23 1.18 7.84.64 14.9-3.38 21.81-4.23 5.71-8.71 9.37-15.62 11.19-9.03.86-15.41.2-22.88-5-2.75-1.75-4.63-2.54-7.69-3.43-4.22-1.3-6.59-3.1-9.43-6.57-1.89-3.78-1.6-7.88-1-12 1.33-3.27 3.04-5.08 6-7 3.62-1.31 7.2-2.3 10.95-3.17 3.13-.58 3.13-.58 5.05-2.83 2.68-.59 2.68-.59 5.87-1.06 4.15-.6 4.15-.6 8.24-1.47 6.11-1.5 11.67-.87 17.09 2.3m-21.2 5.23c-1.52.35-3.04.65-4.57.94-10.9 1.73-10.9 1.73-20.68 6.38-2.16 3.31-2.56 4.81-1.75 8.68 3.25 4.51 6.61 5.7 11.72 7.18 3.6 1.3 6.24 3.51 9.28 5.82 5.07 1.7 10.86 1.95 16.03.39 5.14-2.65 10.72-7.79 12.64-13.33.65-4.06.93-7.97.33-12.06-2.53-3.34-4.04-4.68-8-6-5.49-.4-9.95-.27-15 2"/><path fill="#ecdfd6" d="M204.388 258.573c4.98-.38 8.33-.02 12.94 1.94 7.44 2.97 15.15 2.87 23.06 3.06.67 2.1 1.34 4.21 2 6.31.37 1.17.74 2.35 1.12 3.55.88 3.14.88 3.14.88 6.14-.85.19-1.71.39-2.59.59-1.1.26-2.21.52-3.35.79-1.1.25-2.2.51-3.34.77-.9.28-1.79.56-2.72.85l-1 2h-2l-2-7h-4c.25.83.25.83.5 1.67.56 2.6.6 4.93.56 7.58-.01.89-.02 1.78-.02 2.7-.02.68-.03 1.35-.04 2.05l-5 2c-.06-.72-.12-1.45-.18-2.2-.43-4.97-.89-9.89-1.82-14.8l-5 1c.14.55.29 1.09.44 1.65 1.38 5.6 1.74 10.59 1.56 16.35-1.98.5-1.98.5-4 1-2.87-12.58-4.87-25.14-6-38"/><path fill="#efe1d9" d="M214.388 230.573c4.61-.15 9.21-.26 13.82-.33 1.57-.03 3.14-.07 4.7-.12 2.26-.08 4.52-.11 6.77-.14l2.11-.09c2.81 0 4.96.1 7.1 2.03 1.22 1.51 2.37 3.08 3.5 4.65 2.43.93 2.43.93 4.94.75 1.22.02 1.22.02 2.46.05 2.93-.62 2.93-.62 4.89-3.82 2.77-2.99 5.17-3.39 9.19-3.55 3.63-.02 7.26.07 10.9.19 1.51.04 3.02.06 4.54.09 3.69.06 7.39.17 11.08.29v4c-1.1.29-2.21.58-3.35.88-.74.2-1.48.39-2.24.59l-5.01 1.32c-4.84 1.27-9.68 2.56-14.5 3.88-2.03.55-4.06 1.09-6.09 1.64-.95.27-1.91.54-2.89.81-.92.25-1.83.49-2.78.74-1.2.33-1.2.33-2.42.67-6.53 1.13-12.48.35-18.87-1.03-.74-.15-1.48-.3-2.24-.46-1.54-.32-3.09-.65-4.63-.98-2.37-.5-4.74-.99-7.11-1.48-1.51-.32-3.01-.63-4.52-.95-.71-.15-1.42-.3-2.14-.45-4.98-1.06-4.98-1.06-7.21-2.18z"/><path fill="#ecded5" d="M243.45 131.948c.64.54 1.28 1.07 1.94 1.62 8.95 3.48 17.39 2.81 26.1-1.02 1.86-.83 1.86-.83 2.9-1.98 8.28-.06 15.42 1.8 23 5v3c-9.06 3.49-16.88 5.56-26.66 5.67-5.36.54-9.22 3-13.34 6.33l-1.15-1.27c-5.3-4.93-10.2-5.22-17.12-5.32-7.85-.21-14.46-2.54-21.73-5.41.98-2.54 1.51-3.75 3.99-5.01.76-.22 1.53-.44 2.32-.67.81-.24 1.62-.48 2.45-.72.74-.2 1.48-.39 2.24-.6.84-.22 1.69-.45 2.56-.68 9.15-1.18 9.15-1.18 12.5 1.06"/><path fill="#593720" d="M329.388 264.573v3c.99.5.99.5 2 1-1.56.65-3.12 1.3-4.69 1.94-.87.36-1.74.72-2.63 1.09-2.56.93-5 1.51-7.68 1.97v5c-.5-.99-.5-.99-1-2-2.02-.65-2.02-.65-4-1-1.3 5.78-2.12 11.05-2 17-.5 1.49-.5 1.49-1 3l2 1c-1 1-1 1-3.73 1.22-3.59-.24-5.53-1.03-8.65-2.78-.95-.54-1.91-1.07-2.9-1.63-2.63-1.75-4.51-3.58-6.66-5.87-2.45-2.27-3.38-2.96-6.76-2.85-3.2.77-6.21 1.78-9.3 2.91-2.33.76-4.66 1.51-7 2.25-1.05.36-2.1.71-3.19 1.08-2.8.67-4.15.67-6.81-.33v-2l-4-1 1-4v3c7.47-1.9 14.83-3.88 22.12-6.38 6.97-2.37 14.01-4.39 21.09-6.38 5.42-1.53 10.78-3.17 16.1-4.99 12.48-4.25 12.48-4.25 17.69-4.25"/><path fill="#4f2913" d="M279.388 322.573h5v94h-5z"/><path fill="#58361f" d="M181.388 374.573c2.61 1.5 4.87 2.87 7 5 .69 6.93.69 6.93-1.77 10.73-4.91 3.45-9.5 2.92-15.35 2.77-1.1 0-2.2.01-3.33.01-8.02-.1-8.02-.1-10.36-1.92-1.49-1.98-1.59-3.13-1.57-5.59 0-.68-.01-1.36-.02-2.06.53-2.58 1.27-3.4 3.4-4.94 2.56-.66 2.56-.66 5.44-1.06 6.04-.87 10.31-3.59 16.56-2.94"/><path fill="#5f412b" d="M324.388 358.573h6v76h-6z"/><path fill="#5a3922" d="M405.388 377.573c1.68.29 3.34.62 5 1-.68 2.97-1.61 5.73-2.71 8.57-4.44 11.69-8.02 23.13-10.29 35.43-.19.97-.37 1.94-.56 2.95-.57 3.97-.8 7.92-1 11.93-.05.78-.09 1.56-.13 2.37-.11 1.92-.21 3.83-.31 5.75h-6c-.97-22.56 4.87-46.84 15-67z"/><path fill="#502d14" d="M379.388 433.573h1v6h2v5h-86v-4c40.1-.5 40.1-.5 81-1z"/><path fill="#56331b" d="M350.326 320.698c1.75 3.08 1.47 5.41 1.06 8.88-3.07 5.53-3.07 5.53-6 7-1.66.12-3.33.17-5 .18-1.33.02-1.33.02-2.68.05-2.32-.23-2.32-.23-4.32-2.23-.82-.31-1.65-.62-2.5-.94-2.5-1.06-2.5-1.06-4.5-4.06-.34-2.74-.52-4.3 1.16-6.55 5.83-4.6 16.25-6.12 22.78-2.33"/><path fill="#ecdfd6" d="M326.826 180.448c1.17 0 1.17 0 2.37-.01 2.19.13 2.19.13 5.19 1.13-.48 7.6-2 14.68-4 22-7.2.49-7.2.49-10.87-1.74-3.68-3.9-4.64-6.72-4.52-12.22.71-3.65 2.77-5.47 5.39-8.04 2.36-1.17 3.82-1.13 6.44-1.12"/><path fill="#f0e3da" d="M192.388 180.573c3.13 1.44 5.14 3.09 7 6 1.06 4.22 1.06 8.08-1.07 11.94-1.74 2.17-3.44 3.81-5.93 5.06-2.67.13-5.32.04-8 0q-.765-3.81-1.5-7.62c-.14-.72-.29-1.43-.43-2.17-.8-4.13-1.23-7.97-1.07-12.21 3.54-1.77 7.15-1.63 11-1"/><path fill="#5e3f29" d="M312.388 367.573h6v51h-6z"/><path fill="#61422c" d="M267.388 336.573h6v50h-6z"/><path fill="#5a3821" d="m120.388 393.573 3 1c1.28 2.62 1.28 2.62 2.5 6 .65 1.78.65 1.78 1.3 3.6.4 1.12.79 2.24 1.2 3.4.44 1.17.44 1.17.88 2.37 3.51 9.78 6.34 21.08 6.18 31.51-.01.78-.02 1.56-.02 2.36-.02.58-.03 1.16-.04 1.76h-6c-.1-1.11-.2-2.23-.3-3.38-1.34-14.1-3.78-27.16-9.65-40.17-.92-2.15-1.56-4.16-2.05-6.45z"/><path fill="#522e14" d="M336.388 371.573h5v55h-5z"/><path fill="#5a3921" d="M187.279 129.456c7.65.79 14.79 2.85 22.11 5.12-.99.49-.99.49-2 1l1 3h-2v2c.95.12 1.9.24 2.87.37 3.13.63 3.13.63 5.13 2.63h-24l-1-4h-2v-2h-4c-.13-2.88-.13-2.88 0-6 2-2 2-2 3.89-2.12"/><path fill="#5f402b" d="M230.388 310.573h6v41h-6z"/><path fill="#6c503d" d="M136.388 434.573h1v10h44c-1.23-1.46-1.23-1.46-4.97-1.11-1.77 0-3.54 0-5.32.01-.93 0-1.86.01-2.82.01-2.98 0-5.97.01-8.95.03-2.02 0-4.04.01-6.06.01-4.96.01-9.92.03-14.88.05l1-7 1 3h42v6h-46z"/><path fill="#57341d" d="m410.388 403.573 4 2c-.58 3.66-1.6 6.44-3.38 9.69-5.19 10.23-6.03 18.94-5.62 30.31h-6c-.67-15.53 1.65-27.53 10-41z"/><path fill="#e6d8cf" d="m311.388 275.573-3 16c-7.9-1.13-7.9-1.13-12.38-4.44-1.28-.92-1.28-.92-2.58-1.87-2.04-1.69-2.04-1.69-3.04-3.69 2.94-1.01 5.87-2 8.81-3 .84-.29 1.67-.57 2.53-.87 1.2-.4 1.2-.4 2.43-.82.74-.25 1.48-.5 2.24-.76 1.99-.55 1.99-.55 4.99-.55"/><path fill="#583721" d="M116.407 413.787c1.98.79 1.98.79 3.68 4.36.54 1.55 1.06 3.11 1.55 4.68.4 1.21.4 1.21.8 2.44 2.12 6.92 2.64 13.07 1.95 20.31h-6l-.08-2.64c-.35-7.43-1.35-13.78-3.98-20.74-.91-2.54-1.48-4.98-1.94-7.62 2-1 2-1 4.02-.79"/><path fill="#e4d7cd" d="M286.388 39.573c3.75 1.2 5.42 3.5 7.23 6.92 1.4 3.79 1.19 7.53 1.02 11.52-.02.82-.04 1.65-.05 2.5-.05 2.02-.12 4.04-.2 6.06-1.32-.88-2.63-1.78-3.94-2.69-.73-.5-1.46-1-2.21-1.51-2.39-2.32-2.59-3.49-2.85-6.8.08-2.79.22-5.53.44-8.31.05-.74.1-1.48.16-2.25.12-1.81.26-3.63.4-5.44"/><path fill="#e9dcd3" d="M244.388 122.573c.68.16 1.37.32 2.07.49 8.14 1.41 16.81.81 24.93-.49-.19 2.31-.19 2.31-1 5-4.05 3.19-7.37 3.41-12.44 3.38l-3.87.02c-3.88-.42-6.35-1.45-9.69-3.4z"/><path fill="#e8dbd2" d="m346.388 322.573 1 1c-.6 6.6-.6 6.6-3 9-6.04.71-9.1-.8-14-4l1-3c2.11-.95 2.11-.95 4.75-1.69l2.61-.76c2.65-.55 4.95-.72 7.64-.55"/><path fill="#dfd1c7" d="M326.388 135.573c.04 2.33.04 4.67 0 7-1 1-1 1-3.32 1.11-1 0-2-.01-3.03-.01-1.08-.01-2.16-.01-3.27-.01l-3.44-.03c-1.14 0-2.28-.01-3.46-.01-2.83-.01-5.65-.03-8.48-.05 1-2 1-2 3.7-3l3.42-1c1.18-.35 2.36-.69 3.57-1.05 1.09-.31 2.19-.63 3.31-.95l2.28-.7c3.12-.96 5.39-1.3 8.72-1.3"/><path fill="#58361e" d="M237.388 425.573c7 3.11 11.54 8.25 15 15v4c-2.28.3-2.28.3-5 0-1.84-2.05-1.84-2.05-3.5-4.75-2.48-3.83-4.65-6.68-8.5-9.25z"/><path fill="#522f14" d="M220.388 315.573h5v24h-5z"/><path fill="#e2d4cb" d="M189.388 135.573c21.43 4.43 21.43 4.43 25 8q-5.97.045-11.94.06c-1.7.02-1.7.02-3.44.03-1.08 0-2.16 0-3.27.01-1.5.01-1.5.01-3.03.01-2.32-.11-2.32-.11-3.32-1.11-.04-2.33-.04-4.67 0-7"/><path fill="#64442f" d="M257.388 426.573h6v19h-6z"/><path fill="#e5d8cf" d="m181.388 380.573 2 2-1 4-20 1v-4c.69-.13 1.37-.27 2.08-.4 1.35-.27 1.35-.27 2.73-.54 1.34-.26 1.34-.26 2.71-.52 8.11-1.76 8.11-1.76 11.48-1.54"/><path fill="#543119" d="m268.388 425.573 5 1c-.13.63-.27 1.26-.4 1.91-1.11 5.35-2 10.65-2.6 16.09h-5c-.39-6.98.37-12.52 3-19"/><path fill="#dbcdc3" d="M399.388 408.573c.88 3.1.99 4.91 0 8l4 1c-.2.64-.41 1.29-.62 1.95-2.19 7.35-3.03 14.4-3.38 22.05h-1l-1-11-1 6h-1c-.24-6.44.65-12.21 2-18.5.19-.92.38-1.84.58-2.78.47-2.24.94-4.48 1.42-6.72"/><path fill="#e1d3c9" d="M120.388 421.573c1.48.99 1.48.99 3 2h2l2-2c1.32 6.43 2.25 12.43 2 19l-3-3-1 6h-1c-.04-.67-.07-1.33-.11-2.02-.5-6.96-1.84-13.31-3.89-19.98"/><path fill="#b19f95" d="M268.388 148.573h65v7l-.88-1.94c-.95-2.21-.95-2.21-3.12-3.06-1.94-.12-3.88-.18-5.83-.21l-3.7-.06c-1.33-.01-2.67-.03-4.01-.05l-4.09-.06-10.78-.15c-3.67-.05-7.34-.11-11-.16-7.2-.11-14.39-.21-21.59-.31z"/><path fill="#c7b6ac" d="M221.388 277.573h2c.94 3.16 1.11 5.97 1.06 9.25-.01.89-.02 1.78-.02 2.7-.02.68-.03 1.35-.04 2.05l-5 2v-11h3z"/><path fill="#694a33" d="M224.388 379.573h2c.08 2.29.14 4.58.19 6.88.03 1.27.07 2.55.1 3.86-.09 1.08-.19 2.15-.29 3.26l-3 2v-4h-2v-3h3z"/><path fill="#694a34" d="M122.388 432.573h2v13h-6l1-8h1v6h2z"/><path fill="#63432e" d="M329.388 321.573c2.47 1.15 4.05 2.05 6 4-1.67.04-3.33.04-5 0l-1-1v6l2 1v2c-1.94-.56-1.94-.56-4-2-.94-3.44-.94-3.44-1-7 1.44-1.94 1.44-1.94 3-3"/><path fill="#decfc6" d="M188.013 180.51c1.23.01 1.23.01 2.48.03.94.01.94.01 1.9.03-.34.66-.66 1.32-1 2-2.33.41-4.66.75-7 1-.34 1.32-.66 2.64-1 4h-2v-6c2.4-1.2 3.94-1.1 6.62-1.06"/><path fill="#dccec4" d="M319.7 318.76c.56.27 1.11.54 1.69.81h-3c-1.74 3.23-2.89 6.52-4 10h-2c-.48-4.11-.32-5.58 2.25-8.93 2.75-2.07 2.75-2.07 5.06-1.88"/><path fill="#cebeb4" d="M174.388 382.573c-4.46 1.49-4.46 1.49-9 3l2 2h-5v-4c1.62-.36 3.25-.71 4.88-1.06.9-.2 1.8-.4 2.74-.6 2.38-.34 2.38-.34 4.38.66"/><path fill="#4f2808" d="m168.388 353.573 16 2v1c-8.41.5-8.41.5-17 1Z"/><path fill="#dbcdc3" d="M271.388 122.573c-.38 2.44-.38 2.44-1 5-.99.5-.99.5-2 1v-2h-2v-2l-3-1c2.93-.98 4.96-1.08 8-1"/><path fill="#e1d3c9" d="m226.388 38.573 4 1-6 6-3-1Z"/><path fill="#dbcdc3" d="M134.388 425.573c1.49.99 1.49.99 3 2 .38 3.5.38 3.5 0 7l-3 2c-.19-1.65-.38-3.29-.56-4.94-.11-.91-.21-1.83-.32-2.77l-.12-2.29Z"/><path fill="#c9b9af" d="M399.388 408.573c.88 3.1.99 4.91 0 8l4 1-1 3h-4c-1.46-4.52-.27-7.52 1-12"/><path fill="#ccbcb2" d="M327.388 214.573h1v16l-4-1z"/><path fill="#f3e6dd" d="M220.388 284.573h3v7l-3 1z"/><path fill="#d4c5bb" d="M340.388 324.573h-3v2h-4v3l-3-1c1-3 1-3 3.31-4.25 2.79-.78 4.02-.74 6.69.25"/><path fill="#b4a297" d="M306.388 229.573h8v2l-8 1z"/></svg>