<svg xmlns="http://www.w3.org/2000/svg" xml:space="preserve" id="Layer_1" x="0" y="0" version="1.1" viewBox="0 82.4 512.01 347.3"><style>.st1{fill:#5d4695}</style><path d="M149 391.9c-24.3 0-46.9-12.9-58.8-34l-39.9-69c-12.4-21-12.4-46.9 0-67.9l39.9-69c12.4-21 34.5-34 58.8-34h17.8l20.5-35.6h-58.8c-24.3 0-46.9 12.9-58.8 34L9.3 220.9c-12.4 21-12.4 46.9 0 67.9l60.4 104.6c12.4 21 34.5 34 58.8 34h58.8l-20.5-35.6H149z" style="fill:#bc4094"/><path d="M502.7 222.6 442.3 118c-12.4-21-34.5-34-58.8-34H262.2c-24.3 0-46.9 12.9-58.8 34l-1.1 1.6-59.3 103c-5.9 9.7-8.6 21-9.2 32.4v.5c0 12.4 2.7 24.8 9.2 35.6l59.3 103 1.1 1.6c12.4 21 34.5 34 58.8 34h121.4c24.3 0 46.9-12.9 58.8-34l60.4-104.6c12.3-21.1 12.3-47.5-.1-68.5" class="st1"/><path d="m467.1 281.9-48 83c-9.7 16.7-27.5 27-46.9 27h-95.9c-19.4 0-37.2-10.2-46.9-27l-.5-1.1-47.5-82c-4.9-8.6-7.5-18.3-7-28v-.5c0-8.6 2.7-17.8 7-25.3l47.5-82 .5-1.1c9.7-16.7 27.5-27 46.9-27h95.9c19.4 0 37.2 10.2 46.9 27l48 83c9.7 16.8 9.7 37.3 0 54" class="st1"/><path d="M234.2 147.6c-2.7 2.7-5.4 5.9-7.5 9.7l-.5 1.1-43.1 75c-4.3 7-6.5 15.1-6.5 23.2v.5c0 8.6 2.2 17.8 6.5 25.9l43.1 75 .5 1.1c2.2 3.2 4.3 6.5 7 9.2l75-110.5z" style="fill:#e8e0ec"/><path d="M463.9 240.4c-1.1-6.5-2.7-12.9-5.9-18.3l-43.7-76c-8.6-15.1-25.3-24.8-42.6-24.8h-87.9c-9.2 0-17.8 2.7-25.3 7L334 239.9h130v.5z" style="fill:#fff"/><path d="M257.9 384.3c7.5 4.9 16.7 7.5 25.9 7.5h87.9c17.8 0 34-9.2 42.6-24.8l43.7-76c3.2-5.9 4.9-11.9 5.9-18.3H333.4z" style="fill:#bb9ac9"/></svg>