<svg xmlns="http://www.w3.org/2000/svg" width="2500" height="2500" viewBox="0 0 192.756 192.756"><g fill-rule="evenodd" clip-rule="evenodd"><path fill="none" d="M0 0h192.756v192.756H0z"/><path d="M96.002 70.865c28.458 0 56.917 4.982 77.404 12.889-17.873-9.417-45.885-15.502-77.404-15.502-31.762 0-59.981 6.153-77.821 15.708 20.451-8.043 49.085-13.095 77.821-13.095m-72.94 21.277c1.236 3.299 2.509 6.631 3.715 10.586h.033c1.307-3.955 2.612-7.288 3.952-10.586l3.23.619-7.079 15.913c-.791 1.754-2.544 5.225-6.291 5.225h-1.58v-2.543h.995c1.752 0 3.162-.721 4.675-5.498l-5.466-13.029zm16.74 1.992h.035c.995-1.306 2.854-2.062 4.538-2.062 1.823 0 3.368.723 4.228 2.062 1.202-1.168 3.058-2.028 4.743-2.062 3.231 0 4.916 1.96 4.984 5.257v9.383h-3.815V98.02c0-1.65-.585-3.368-2.476-3.368-1.821 0-2.955 1.065-2.955 3.575v8.523H45.27v-8.73c0-1.992-.895-3.368-2.511-3.368-1.822 0-2.922 1.202-2.922 3.644v8.455h-3.815V92.417h3.781v1.717zm25.228 0h.071c.961-1.306 2.818-2.062 4.537-2.062 1.787 0 3.333.723 4.192 2.062 1.203-1.168 3.061-2.028 4.744-2.062 3.265 0 4.948 1.96 4.984 5.257v9.383h-3.783V98.02c0-1.65-.583-3.368-2.473-3.368-1.822 0-2.991 1.065-2.991 3.575v8.523h-3.814v-8.73c0-1.992-.859-3.368-2.509-3.368-1.788 0-2.922 1.202-2.922 3.644v8.455h-3.815V92.417h3.779zm27.638 10.278c.413.139.822.207 1.272.207 1.408 0 2.921-.479 3.849-1.135l1.1 1.994c-1.96 1.168-3.988 1.615-5.638 1.615-.205 0-.377 0-.583-.035zm0-12.306c.103-.033.24-.033.343-.033 3.95 0 5.842 2.784 6.051 6.392v1.481h-6.395v-2.062h2.818c.137-2.201-.654-3.678-2.544-3.678h-.274zm-2.889 7.839c-.067 2.164 1.136 3.881 2.889 4.467v2.646c-4.022-.273-6.979-3.266-6.979-7.77 0-4.261 3.06-7.044 6.979-7.183v2.099c-1.995.17-2.854 1.823-2.854 3.678h2.854v2.062zm16.364-7.528h3.779v1.958h-3.779v7.047c0 2.338.721 3.369 1.992 3.369.822 0 1.309-.24 1.822-.516l.652 1.891c-1.1.619-2.475.928-3.746.928-3.129 0-4.502-1.65-4.502-4.572v-8.146h-2.029v-1.958h2.029v-3.439l3.781-.859zm10.447 2.543h.035l.789-1.133c.447-.586 1.273-1.754 2.475-1.754.859 0 1.754.48 2.578 1.307l-1.441 2.648c-.617-.346-1.033-.518-1.824-.518-1.305 0-2.576 1.066-2.576 4.161v7.08h-3.816V92.417h3.781v2.543zm7.701-2.543h3.816v14.331h-3.816zm17.906 13.579c-1.205.684-2.785 1.098-4.057 1.098-5.98 0-7.902-4.537-7.902-7.459 0-3.987 3.023-7.562 8.109-7.562 1.135 0 2.543.308 3.713.996l-.93 2.201c-.824-.345-1.684-.618-2.543-.618-2.131 0-4.328 1.477-4.328 4.812 0 2.854 1.648 5.051 4.363 5.051.895 0 1.857-.203 2.818-.721zm8.287-13.923c3.848.033 7.523 2.715 7.523 7.355 0 4.436-3.059 7.666-7.523 7.666v-2.129c2.746 0 3.467-3.027 3.467-5.537 0-2.371-.82-5.223-3.467-5.223zm-7.529 7.355c0-4.64 3.678-7.355 7.492-7.355h.037v2.132h-.037c-2.578 0-3.439 2.852-3.439 5.223 0 2.51.723 5.537 3.439 5.537h.037v2.129h-.037c-4.468 0-7.492-3.231-7.492-7.666m20.484-5.294h.07c.963-1.306 2.816-2.062 4.502-2.062 1.822 0 3.369.723 4.227 2.062 1.207-1.168 3.059-2.028 4.744-2.062 3.229 0 4.914 1.96 4.984 5.257v9.383h-3.816V98.02c0-1.65-.549-3.368-2.439-3.368-1.855 0-2.99 1.065-2.99 3.575v8.523h-3.816v-8.73c0-1.992-.893-3.368-2.508-3.368-1.824 0-2.922 1.202-2.922 3.644v8.455h-3.814V92.417h3.779v1.717z"/><path fill="#00a0e2" d="M123.912 88.291c0-1.098.926-2.197 2.197-2.197 1.307 0 2.338 1.099 2.338 2.197 0 1.238-.857 2.406-2.266 2.406-1.343 0-2.269-1.168-2.269-2.406m40.799-20.106c-3.4-5.776-31.621-3.231-56.953.17.617.034 1.199.07 1.82.102 21-2.198 44.857-3.64 47.502.999 2.854 5.02-11.342 10.14-26.326 17.014.1.31.273.961.273 1.272 0 .172 0 .377-.035.584 21.897-8.042 37.158-14.23 33.719-20.141"/><path d="M184.406 92.417h-.789v1.993h-.344v-1.993h-.793v-.275h1.926zm2.68 1.993h-.34v-1.787l-.689.894h-.069l-.685-.894v1.787h-.344v-2.268h.309l.755.927.756-.927h.307zM16.497 90.114c-.893-.619-2.061-1.169-3.263-1.169-1.686 0-2.58.963-2.58 2.131 0 1.306 1.375 2.304 3.747 4.194 2.68 2.131 4.124 3.816 4.124 6.291 0 2.508-2.405 5.43-6.943 5.43-2.097 0-4.399-.619-5.913-1.992l1.48-2.305c1.064.791 2.301 1.617 4.09 1.617 1.647 0 3.128-.895 3.128-2.787 0-2.199-2.683-3.676-4.297-4.914-1.961-1.582-3.575-2.818-3.575-5.464 0-2.716 2.717-4.882 6.358-4.882 2.27 0 4.126.826 5.052 1.752z"/><path fill="#808183" d="M49.766 112.721h4.566l-.15.562h-.566q-.555 0-.674.406l-.824 2.918h3.689l.801-2.828a.5.5 0 0 0 .017-.139.3.3 0 0 0-.143-.26q-.146-.097-.485-.098h-.655l.145-.562h4.54l-.153.562h-.546q-.345 0-.52.137-.172.138-.28.535l-1.865 6.604a.3.3 0 0 0-.013.09c0 .086.036.156.108.201q.16.1.428.1h.761l-.156.545h-4.474l.158-.545h.648q.45-.002.598-.492l.883-3.129h-3.671l-.906 3.131a.6.6 0 0 0-.02.139c0 .111.042.201.125.26q.122.092.38.092h.83l-.144.545h-4.451l.145-.545h.453a.84.84 0 0 0 .453-.115q.184-.12.232-.285l1.937-6.852a.28.28 0 0 0-.015-.188.3.3 0 0 0-.171-.168.8.8 0 0 0-.343-.059h-.824zm12.482 3.992q.399-.53.859-.529.23.002.385.176.152.177.152.486 0 .749-.667 1.346-.486.437-1.553.631.237-1.342.824-2.11m1.535 1.982q.8-.346 1.158-.82.357-.472.356-.947 0-.567-.446-.938-.445-.369-1.253-.369-1.105 0-2.061.508a3.9 3.9 0 0 0-1.508 1.383q-.552.877-.552 1.834 0 1.078.662 1.701.661.624 1.813.623.815 0 1.521-.316.702-.317 1.437-1.08l-.42-.309q-.636.61-1.077.814a2.1 2.1 0 0 1-.897.205q-.542 0-.867-.334-.325-.336-.325-.961 0-.15.025-.375 1.632-.269 2.434-.619m6.986-1.998q.185.234.185.811a5.2 5.2 0 0 1-.353 1.818q-.338.858-.773 1.223-.437.365-.817.365-.361 0-.553-.252-.194-.25-.194-.859 0-1.312.611-2.326.612-1.01 1.376-1.01.333 0 .518.23m.019-.701q-.346-.252-.91-.252-.822 0-1.608.498-.783.498-1.283 1.387a3.77 3.77 0 0 0-.498 1.865q0 1.014.557 1.594.557.583 1.416.582.5 0 .948-.229.447-.226.925-.799.044.515.291.771.25.256.699.256 1.315 0 2.427-2.021l-.48-.246q-.755 1.371-1.229 1.371-.083 0-.123-.047c-.04-.047-.042-.076-.042-.133q0-.119.126-.551l1.252-4.246-1.609.123-.344.867q-.172-.537-.515-.79m4.693-.094 2.478-.105-.605 2.543q.616-1.415 1.125-1.92.71-.675 1.62-.676.523.001.834.277.31.279.31.721a1 1 0 0 1-.267.707.83.83 0 0 1-.619.283.74.74 0 0 1-.519-.195.61.61 0 0 1-.212-.469q0-.157.051-.354a.4.4 0 0 0 .019-.102q-.001-.064-.059-.115a.23.23 0 0 0-.143-.049q-.252-.001-.594.246-.343.245-.783 1.062-.593 1.125-.927 2.273l-.421 1.463-1.68.07.883-3.139q.257-.885.258-1.402 0-.361-.172-.486-.175-.123-.741-.117zm8.163-1.898h1.662l-.542 1.916h1.309l-.194.617h-1.287l-1.029 3.648a1 1 0 0 0-.05.312q0 .178.075.271a.25.25 0 0 0 .202.092q.501 0 1.464-1.389l.463.271q-.627 1-1.313 1.463-.69.465-1.321.463-.555 0-.879-.293a.98.98 0 0 1-.321-.762q0-.36.121-.791l.929-3.287H81.73l.195-.617h1.181zm7.694 2.785q.218.272.219.865 0 .988-.36 1.877-.358.89-.876 1.326c-.257.213-.522.32-.804.32a.77.77 0 0 1-.612-.262q-.228-.26-.229-.797 0-.924.387-1.871t.919-1.404q.381-.325.759-.324.377 0 .597.27m-3.474-3.506h.261q.305 0 .433.09.13.09.13.258 0 .106-.032.211l-1.464 5.174q-.089.322-.088.693 0 .555.284 1.016.283.46.804.703c.521.243.757.242 1.233.242a3.93 3.93 0 0 0 3.439-1.959 3.83 3.83 0 0 0 .558-1.984q0-.97-.539-1.537-.536-.568-1.386-.568-.536 0-.979.207-.443.208-.998.758l1.145-3.971-2.628.105zm9.497 3.43q.4-.53.861-.529a.5.5 0 0 1 .385.176q.153.177.152.486 0 .749-.666 1.346-.489.437-1.556.631.24-1.342.824-2.11m1.537 1.982q.8-.346 1.156-.82.359-.472.357-.947a1.17 1.17 0 0 0-.445-.938q-.445-.369-1.254-.369c-.734 0-1.424.17-2.06.508a3.9 3.9 0 0 0-1.507 1.383q-.554.877-.554 1.834 0 1.078.662 1.701.659.624 1.814.623.816 0 1.52-.316.706-.317 1.438-1.08l-.42-.309q-.636.61-1.076.814a2.1 2.1 0 0 1-.896.205q-.545 0-.869-.334-.325-.336-.325-.961 0-.15.024-.375 1.634-.269 2.435-.619m6.985-1.998q.185.234.186.811-.017.96-.354 1.818c-.337.858-.48.98-.773 1.223q-.436.365-.814.365-.363 0-.557-.252-.19-.25-.191-.859-.002-1.312.609-2.326.613-1.01 1.379-1.01.33 0 .515.23m.019-.701q-.346-.252-.91-.252-.823 0-1.607.498a3.8 3.8 0 0 0-1.283 1.387 3.77 3.77 0 0 0-.5 1.865q.001 1.014.559 1.594.558.583 1.414.582.5 0 .949-.229.447-.226.924-.799.044.515.291.771.248.256.699.256 1.317 0 2.428-2.021l-.48-.246q-.756 1.371-1.23 1.371-.083 0-.123-.047-.042-.047-.041-.133 0-.119.127-.551l1.252-4.246-1.609.123-.342.867q-.172-.537-.518-.79m6.164-1.992h1.662l-.541 1.916h1.309l-.195.617h-1.287l-1.029 3.648a1 1 0 0 0-.051.312q0 .178.076.271a.25.25 0 0 0 .203.092q.5 0 1.463-1.389l.461.271q-.625 1-1.314 1.463-.687.465-1.318.463-.556 0-.879-.293a.98.98 0 0 1-.322-.762q0-.36.123-.791l.928-3.287h-1.203l.195-.617h1.18zm11.233 2.412q.272.302.271.842 0 .968-.426 2.084-.423 1.118-.898 1.551a1.1 1.1 0 0 1-.75.285q-.444.001-.713-.293-.272-.291-.271-.832 0-.697.342-1.842.344-1.143.879-1.697.391-.398.875-.398a.89.89 0 0 1 .691.3m-2.645-.334a3.53 3.53 0 0 0-1.354 1.305 3.4 3.4 0 0 0-.514 1.783q-.001 1.095.762 1.799.76.7 1.99.701c1.127 0 2.029-.359 2.719-1.084q1.035-1.084 1.037-2.457-.002-1.088-.766-1.799t-1.977-.709q-1.055 0-1.897.461m9.219-.162h1.162l-.164.617h-1.174l-1.277 4.527q-.383 1.363-1.01 2.404-.716.093-1.541.295-.276.07-.334.07-.099 0-.098-.096c0-.037.021-.096.072-.176q.472-.763.76-1.443.552-1.281.754-1.986l1.014-3.596h-1.152l.213-.617h1.113q.975-3.41 3.076-3.41.548 0 .859.271.313.27.312.668-.001.334-.236.568a.8.8 0 0 1-.578.232q-.322 0-.506-.176-.182-.177-.227-.602-.034-.364-.166-.365-.174 0-.318.32-.222.525-.554 2.495m7.273-1.916h1.66l-.539 1.916h1.309l-.197.617h-1.287l-1.029 3.648a1 1 0 0 0-.049.312q-.001.178.074.271a.25.25 0 0 0 .203.092q.5 0 1.463-1.389l.461.271q-.625 1-1.312 1.463-.689.465-1.322.463-.553 0-.877-.293a1 1 0 0 1-.32-.762q0-.36.119-.791l.93-3.287h-1.201l.193-.617h1.18zm4.479-1.301 2.836-.105-1.4 4.949q.73-1.168 1.385-1.549.652-.376 1.312-.377.59.001.961.346.369.346.369.877 0 .463-.201 1.043l-.711 2.457a.8.8 0 0 0-.045.264q0 .108.055.164c.055.056.084.055.143.055q.532 0 1.262-1.424l.52.156q-.51 1.09-1.143 1.566-.634.474-1.285.475-.525 0-.826-.266c-.301-.266-.301-.414-.301-.709q0-.426.283-1.365.41-1.344.496-1.736.086-.39.086-.598a.46.46 0 0 0-.119-.336.4.4 0 0 0-.316-.123q-.594-.001-1.383.982-.791.982-1.193 2.41l-.463 1.635-1.676.053 2.191-7.754a.6.6 0 0 0 .033-.186.3.3 0 0 0-.146-.262q-.144-.097-.504-.098h-.389zm10.193 4.01q.401-.53.863-.529.23.002.383.176c.104.119.152.279.152.486q0 .749-.666 1.346-.489.437-1.555.631.238-1.342.823-2.11m1.537 1.982q.802-.346 1.156-.82.36-.472.359-.947-.001-.567-.445-.938-.446-.369-1.256-.369-1.102 0-2.059.508a3.9 3.9 0 0 0-1.51 1.383q-.55.877-.551 1.834 0 1.078.662 1.701.658.624 1.814.623.813 0 1.52-.316.703-.317 1.436-1.08l-.418-.309q-.637.61-1.078.814c-.441.204-.594.205-.896.205q-.541 0-.867-.334-.326-.336-.326-.961.001-.15.025-.375 1.636-.269 2.434-.619m8.159-5.974h2.809l3.15 6.119 1.113-4.311q.076-.268.076-.439 0-.373-.268-.6c-.268-.227-.418-.225-.715-.225h-.27l.156-.545h3.195l-.166.545q-.503.027-.766.258-.372.335-.529.906l-1.807 7.064h-.713l-3.629-6.963-1.439 4.84a2.2 2.2 0 0 0-.096.553q0 .456.332.734c.332.278.541.283.959.291l-.137.545h-3.59l.145-.545q.625-.025 1.014-.336.39-.313.547-.869l1.684-5.656q.063-.211.062-.305a.43.43 0 0 0-.211-.379q-.212-.139-.746-.139h-.322zm11.689 3.992q.399-.53.861-.529.23.002.383.176.154.177.154.486-.001.749-.67 1.346-.486.437-1.553.631.238-1.342.825-2.11m1.535 1.982q.802-.346 1.156-.82.36-.472.359-.947a1.17 1.17 0 0 0-.445-.938q-.445-.369-1.256-.369-1.102 0-2.059.508a3.9 3.9 0 0 0-1.508 1.383q-.555.877-.553 1.834-.001 1.078.662 1.701.658.624 1.812.623.815 0 1.521-.316.703-.317 1.438-1.08l-.422-.309q-.636.61-1.078.814-.437.205-.895.205-.542 0-.869-.334-.323-.336-.324-.961 0-.15.025-.375 1.636-.269 2.436-.619m4.569-4.691h1.662l-.541 1.916h1.309l-.195.617h-1.287l-1.031 3.648a1.1 1.1 0 0 0-.051.312q0 .178.076.271a.25.25 0 0 0 .203.092q.5 0 1.465-1.389l.461.271q-.626 1-1.314 1.463-.688.465-1.318.463-.556 0-.879-.293a.97.97 0 0 1-.322-.762q0-.36.121-.791l.928-3.287h-1.201l.195-.617h1.18z"/></g></svg>