<svg xmlns:inkscape="http://www.inkscape.org/namespaces/inkscape" xmlns:sodipodi="http://sodipodi.sourceforge.net/DTD/sodipodi-0.dtd" xmlns:xlink="http://www.w3.org/1999/xlink" xmlns="http://www.w3.org/2000/svg" xmlns:svg="http://www.w3.org/2000/svg" version="1.1" id="svg1" sodipodi:docname="syncplay.svg" inkscape:version="1.4.2 (f4327f4, 2025-05-13)" viewBox="0.17 0.41 255.99 255.89">
  <defs id="defs1">
    <linearGradient id="linearGradient1" inkscape:collect="always">
      <stop style="stop-color:#ffd200;stop-opacity:1;" offset="0" id="stop1"/>
      <stop style="stop-color:#ff006a;stop-opacity:1;" offset="1" id="stop2"/>
    </linearGradient>
    <linearGradient inkscape:collect="always" xlink:href="#linearGradient1" id="linearGradient2" x1="37.658077" y1="37.849617" x2="218.67366" y2="218.86519" gradientUnits="userSpaceOnUse"/>
  </defs>
  <sodipodi:namedview id="namedview1" pagecolor="#ffffff" bordercolor="#000000" borderopacity="0.25" inkscape:showpageshadow="2" inkscape:pageopacity="0.0" inkscape:pagecheckerboard="0" inkscape:deskcolor="#d1d1d1" inkscape:zoom="3.1523438" inkscape:cx="128" inkscape:cy="128" inkscape:window-width="1920" inkscape:window-height="1009" inkscape:window-x="1912" inkscape:window-y="-8" inkscape:window-maximized="1" inkscape:current-layer="g1"/>
  <g inkscape:groupmode="layer" inkscape:label="Image" id="g1">
    <path style="fill:url(#linearGradient2)" d="m 94.663205,256.10253 c -64.934521,-6.45747 -94.5167216,-26.17692 -94.4946676,-62.99 0.0062,-10.28825 2.946572,-29.11323 6.475685,-41.45842 C 24.329523,89.789164 82.610165,40.887615 170.2579,14.370771 193.82236,7.2416052 221.84217,2.1410192 243.41322,1.0539402 l 12.75,-0.64253995 -0.006,6.90446995 c -0.007,8.4461868 -2.19366,23.1785448 -5.03182,33.9044698 -8.20838,31.021028 -27.18303,55.873653 -52.32808,68.53829 -4.32618,2.17894 -8.39166,3.96171 -9.03439,3.96171 -0.64273,0 -1.95198,-1.32617 -2.90946,-2.94705 -7.63156,-12.919373 -27.13139,-26.587452 -44.54672,-31.224355 -10.68836,-2.84582 -28.65369,-2.830651 -39.4172,0.03328 C 53.047855,92.844011 30.139398,148.8682 56.308595,193.49913 c 4.30616,7.34405 18.73329,21.73044 26.21854,26.1445 8.37446,4.93843 20.493605,8.93732 31.173785,10.28626 26.58462,3.3577 55.26856,-8.8304 70.90155,-30.12679 3.32991,-4.53624 3.84815,-4.82861 12.22459,-6.8965 15.42489,-3.80795 30.08246,-12.1058 40.79857,-23.09663 5.06401,-5.19384 8.77993,-6.50643 9.9306,-3.50784 2.587,6.7416 -1.98774,23.28681 -9.98781,36.1224 -16.01537,25.69561 -43.71623,43.71509 -78.9052,51.32805 -8.45295,1.82875 -13.86762,2.20865 -35,2.45559 -13.75,0.16068 -26.800005,0.11314 -29.000015,-0.10564 z M 107.4238,214.71314 c -12.395785,-3.24831 -19.816335,-7.55248 -29.296195,-16.9928 -13.90958,-13.85155 -19.74607,-28.73586 -18.62588,-47.5 2.25419,-37.75961 37.87857,-65.442814 74.725475,-58.068098 13.14897,2.631699 23.72667,8.237538 32.95332,17.464188 19.81267,19.81266 24.32027,47.89966 11.73224,73.10391 -4.98709,9.98537 -16.98608,21.60626 -27.74954,26.87514 -14.50782,7.1018 -29.48192,8.85382 -43.73942,5.11766 z m 24.59981,-38.60095 c 30.51906,-17.38471 31.2217,-17.94434 29.77363,-23.71391 -0.81589,-3.25075 -57.8372,-37.67794 -62.405495,-37.67794 -6.14569,0 -6.22854,0.52397 -6.22854,39.39377 0,31.11685 0.18146,35.14926 1.65499,36.77749 3.49017,3.85659 6.792835,2.54465 37.205415,-14.77941 z m 65.61876,-3.14185 c 1.47611,-5.83263 2.50881,-13.99671 2.49826,-19.75 -0.0102,-5.55781 -2.73681,-20.91753 -4.36618,-24.59587 -0.54339,-1.22669 0.32926,-1.99159 3.77225,-3.30648 11.61452,-4.43563 36.9532,-24.35472 45.11652,-35.466737 3.34793,-4.557244 5.85408,-5.20635 7.58854,-1.965475 1.9284,3.603258 0.53719,20.955512 -2.51224,31.334562 -8.18158,27.84683 -23.50244,47.00267 -43.35671,54.20939 -8.4658,3.07292 -9.61905,3.0123 -8.74044,-0.45939 z" id="path1"/>
  </g>
</svg>