<svg xmlns="http://www.w3.org/2000/svg" xml:space="preserve" width="322" height="462"><path d="M2460.002 4603.999c-81.006-21.001-172.998-68.999-239.004-123.999-72.002-60-150.996-176.001-182.002-267.002-26.992-76.997-25-22.998-20.996-795 2.002-482.998 2.998-498.999 22.002-517.998 20-20 32.998-20 577.998-20 555 0 558.994 0 577.998 21.001 17.998 20 19.004 46.001 22.002 525l2.998 503.999H2192.004l-6.006 22.998C2155.999 4066 2218.997 4241 2323 4336c204.004 184 517.998 134 657.002-103.002l35-58.999 76.992 30c43.008 17.002 78.008 35 78.008 40s-17.002 38.999-37.002 75C3058 4452.998 2908.996 4566 2755.002 4605c-74.004 18.999-222.002 17.998-295-1.001M2678.996 3696c75-38.999 87.002-142.002 23.008-202.002-20-18.999-20-18.999 33.994-202.998 30-102.002 52.002-186.001 50-188.003-2.002-1.997-80-1.997-172.998-.996L2443 3105l52.998 183.999 52.998 183.999-28.994 34.004c-50 55.996-35 152.998 27.998 186.997 35 18.999 95 20 130.996 2.001" style="fill:#00a185;fill-opacity:1" transform="matrix(.1 0 0 -.1 0 462)"/><path d="M2570.998 3666c-27.998-16.001-50-52.002-50.996-83.003 0-11.997 13.994-37.998 30-55.996 17.002-19.004 30-42.002 30-51.001s-20-88.003-45-173.999c-25-86.001-45-160-45-164.004 0-5 57.998-7.998 128.994-7.998h128.008L2698.996 3296c-26.992 91.997-48.994 172.998-48.994 180 0 6.997 13.994 27.998 30 46.001 47.002 50.996 37.998 112.998-20 142.998-35 17.999-57.002 19-89.004 1.001" style="fill:#fff;fill-opacity:1" transform="matrix(.1 0 0 -.1 0 462)"/><path d="M1148 3597.998 1145.002 3025l-572.998-2.998L.002 3020V0h2990v2840h-460c-507.998 0-502.998-1.001-532.998 62.002C1983.996 2931 1980.998 3016 1978.996 3535c-.996 330 2.002 607.998 6.006 617.998 7.002 16.001-17.002 17.002-414.004 17.002h-420.996zM1477.004 2620c93.994-57.002 106.992-231.001 41.992-552.998l-20-97.998 47.002-87.002c102.998-190 280-447.002 366.006-530l33.994-32.002 60 12.002c32.002 5.996 124.004 12.002 204.004 12.002 128.994.996 150-1.006 192.002-21.006 115.996-52.998 116.992-190.996 1.992-292.002C2352.004 985 2283 965 2218 975c-67.998 10.996-177.002 67.998-255.996 134.004L1890.002 1170l-141.006-35c-163.994-42.002-360.996-105-511.992-165l-106.006-42.002L1090.002 845C988.996 640 870.998 470.996 792.004 417.002c-43.008-30-104.004-44.004-146.006-32.998-37.998 8.994-97.002 65-117.002 110.996-68.994 152.002 69.004 320 405 490.996l95 49.004 57.002 135c77.998 184.004 172.998 454.004 225 634.004 37.998 133.994 41.006 152.998 29.004 180-41.006 98.994-101.006 290.996-111.006 354.995-16.992 113.999 4.004 203.999 63.008 258.003 48.994 45.996 130.996 55.996 185 22.998" style="fill:#00a185;fill-opacity:1" transform="matrix(.1 0 0 -.1 0 462)"/><path d="M1377.004 1562.002c-37.002-114.004-90-262.002-116.006-330C1223 1137.998 1215.002 1110 1228 1115c77.002 30 329.004 112.002 422.002 137.002 62.998 15.996 117.998 32.002 122.002 35 3.994 2.002-18.008 37.002-50 77.002-78.008 96.992-158.008 212.998-221.006 318.994-28.994 47.998-52.998 87.002-53.994 87.002-1.006 0-32.002-94.004-70-207.998m722.998-361.006-24.004-6.992 31.006-22.002c48.994-35 115-62.002 150.996-62.002 25 0 42.002 7.998 62.998 30.996 54.004 58.008 36.006 69.004-105.996 68.008-49.003-1.006-101.005-4.004-115-8.008M865.002 790c-117.002-67.998-215-165.996-215-215 0-22.002 27.998-55 47.002-55 16.992 0 100 94.004 145.996 167.002 42.998 65 80.996 132.998 75 132.998-2.002 0-25-14.004-52.998-30m1365.997 3336c-5.996-25-10.996-70-10.996-100v-56h770v83.999c0 46.001-2.998 91.001-6.006 100-5 13.999-47.998 16.001-373.994 16.001h-367.998zM570.002 3595l-385-385h775v385c0 212.002-1.006 385-2.998 385-1.006 0-175-172.999-387.002-385" style="fill:#00a185;fill-opacity:1" transform="matrix(.1 0 0 -.1 0 462)"/><path d="M2570.998 3666c-27.998-16.001-50-52.002-50.996-83.003 0-11.997 13.994-37.998 30-55.996 17.002-19.004 30-42.002 30-51.001s-20-88.003-45-173.999c-25-86.001-45-160-45-164.004 0-5 57.998-7.998 128.994-7.998h128.008L2698.996 3296c-26.992 91.997-48.994 172.998-48.994 180 0 6.997 13.994 27.998 30 46.001 47.002 50.996 37.998 112.998-20 142.998-35 17.999-57.002 19-89.004 1.001" style="fill:#fff;fill-opacity:1" transform="matrix(.1 0 0 -.1 0 462)"/><path d="M2570.998 3666c-27.998-16.001-50-52.002-50.996-83.003 0-11.997 13.994-37.998 30-55.996 17.002-19.004 30-42.002 30-51.001s-20-88.003-45-173.999c-25-86.001-45-160-45-164.004 0-5 57.998-7.998 128.994-7.998h128.008L2698.996 3296c-26.992 91.997-48.994 172.998-48.994 180 0 6.997 13.994 27.998 30 46.001 47.002 50.996 37.998 112.998-20 142.998-35 17.999-57.002 19-89.004 1.001" style="fill:#fff;fill-opacity:1" transform="matrix(.1 0 0 -.1 0 462)"/><path d="M2570.998 3666c-27.998-16.001-50-52.002-50.996-83.003 0-11.997 13.994-37.998 30-55.996 17.002-19.004 30-42.002 30-51.001s-20-88.003-45-173.999c-25-86.001-45-160-45-164.004 0-5 57.998-7.998 128.994-7.998h128.008L2698.996 3296c-26.992 91.997-48.994 172.998-48.994 180 0 6.997 13.994 27.998 30 46.001 47.002 50.996 37.998 112.998-20 142.998-35 17.999-57.002 19-89.004 1.001" style="fill:#fff;fill-opacity:1" transform="matrix(.1 0 0 -.1 0 462)"/><path d="M2570.998 3666c-27.998-16.001-50-52.002-50.996-83.003 0-11.997 13.994-37.998 30-55.996 17.002-19.004 30-42.002 30-51.001s-20-88.003-45-173.999c-25-86.001-45-160-45-164.004 0-5 57.998-7.998 128.994-7.998h128.008L2698.996 3296c-26.992 91.997-48.994 172.998-48.994 180 0 6.997 13.994 27.998 30 46.001 47.002 50.996 37.998 112.998-20 142.998-35 17.999-57.002 19-89.004 1.001" style="fill:#fff;fill-opacity:1" transform="matrix(.1 0 0 -.1 0 462)"/><path d="M134.197 212.819c-2.5 6.6.6 26.6 4.2 27.3 2.199.4 3-5.1 2.6-18.8l-.3-10.5-2.7-.3c-2.201-.299-3.001.201-3.8 2.3" style="fill:#00a185;fill-opacity:1"/></svg>