<svg xmlns="http://www.w3.org/2000/svg" xmlns:xlink="http://www.w3.org/1999/xlink" width="1100" height="1100" preserveAspectRatio="none"><defs><path id="a" fill="none" stroke="#000" stroke-linecap="round" stroke-linejoin="round" stroke-width="9" d="M907 857.65q111.6-111.45 137.6-258.2 7.9-44.6 7.9-92.45t-7.9-92.4q-26-146.75-137.6-258.2-140.6-140-337.15-145.1v101.15q150.85 7.1 259.8 115.8 116.55 116.2 116.55 280.6 0 164.2-116.55 280.6-27.35 27.3-57.55 50.1V617.9l-77.95-77.5-45.9 45.8v409q65.5-11.6 123.85-40.1 22.1-10.8 43.2-24 48.45-30.35 91.7-73.45m-708.95 0Q52.5 712.35 52.5 507q0-205.3 145.55-350.6 140.6-140 337.15-145.1v101.15q-150.85 7.1-259.8 115.8-116.55 116.2-116.55 280.6 0 164.2 116.55 280.6 27.35 27.3 57.55 50.1V617.9l77.95-77.5 45.9 45.8v409q-65.5-11.6-123.85-40.1-22.1-10.8-43.2-24-48.5-30.35-91.7-73.45"/></defs><circle cx="550" cy="550" r="510.561" style="fill:#fff;stroke-width:7.57133"/><use xlink:href="#a" width="100%" height="100%" style="display:inline" transform="translate(43.893 87.938)scale(.91719)"/><path fill="#424242" d="M572.977 45.7v101.15q150.85 7.1 259.8 115.8 116.55 116.2 116.55 280.6 0 164.2-116.55 280.6-27.35 27.3-57.55 50.1V652.3l-77.95-77.5-45.9 45.8v409q65.5-11.6 123.85-40.1 22.1-10.8 43.2-24 48.45-30.35 91.7-73.45 111.6-111.45 137.6-258.2 7.9-44.6 7.9-92.45t-7.9-92.4q-26-146.75-137.6-258.2-140.6-140-337.15-145.1m-34.65 101.15V45.7q-196.55 5.1-337.15 145.1-145.55 145.3-145.55 350.6 0 205.35 145.55 350.65 43.2 43.1 91.7 73.45 21.1 13.2 43.2 24 58.35 28.5 123.85 40.1v-409l-45.9-45.8-77.95 77.5v221.65q-30.2-22.8-57.55-50.1-116.55-116.4-116.55-280.6 0-164.4 116.55-280.6 108.95-108.7 259.8-115.8" style="display:inline" transform="translate(42.004 58.288)scale(.91427)"/><g style="display:inline"><path fill="#1976d2" d="M617.482 564.994q-80.116 14.216-138.358 0v437.499q54.848 17.564 138.358 0zm-.413-13.62v-64.57h172.432v-125.61H310.5v125.61h168.809v64.57q58.058 13.62 137.761 0" style="display:inline;stroke-width:.917189"/></g></svg>