<svg xmlns="http://www.w3.org/2000/svg" xmlns:xlink="http://www.w3.org/1999/xlink" xml:space="preserve" id="svg48" x="0" y="0" version="1.1" viewBox="0 0 512 512"><style>.st2{fill-rule:evenodd;clip-rule:evenodd;fill:#161616}</style><g id="Logo" transform="translate(-243.095 -716.725)scale(.63732)"><g id="Kreis" transform="matrix(1.44936 0 0 1.50279 387.258 1039.34)"><linearGradient id="ellipse2_00000164508553991098987500000012226510708014340486_" x1="-22.496" x2="-21.429" y1="324.015" y2="324.015" gradientTransform="matrix(0 0 0 0 3701.64 -63.41)" gradientUnits="userSpaceOnUse"><stop offset="0" style="stop-color:#272727"/><stop offset="1" style="stop-color:#6c6c6c"/></linearGradient><ellipse id="ellipse2" cx="273.1" cy="324" rx="277.1" ry="267.3" style="fill-rule:evenodd;clip-rule:evenodd;fill:url(#ellipse2_00000164508553991098987500000012226510708014340486_)"/><defs><circle id="SVGID_1_" cx="273.1" cy="324" r="256"/></defs><clipPath id="SVGID_00000173154433467549755930000003003605049338957971_"><use xlink:href="#SVGID_1_" style="overflow:visible"/></clipPath><g id="g18" style="clip-path:url(#SVGID_00000173154433467549755930000003003605049338957971_)"><g id="Shadow" transform="matrix(1.10322 0 0 1.064 -5.583 50.579)"><path id="path7" d="m149.9 438.6 248.8 248.8 297.9-175.9L382.1 197z" class="st2"/><g id="g11" transform="translate(-4.221 .776)"><path id="path9" d="m205.4 173.4 295.8 295.8 111-97.4L299.6 59.2l-2.9 72z" class="st2"/></g><g id="g15" transform="translate(-85.388 27.851)"><path id="path13" d="m308.5 140.1 295.8 295.8 2.9-65.7L294.6 57.5l-3.3 75.5z" class="st2"/></g></g></g></g><g id="g23" transform="translate(406.537 1149.69)scale(1.471)"><path id="path21" d="M256.1 217.6c32.2 0 60.4-13.5 78.2-27.6 18.1-14.3 44.3-11.4 58.9 6.4 24 29.1 38.4 66 38.4 106.1 0 65.7-40.5 146.7-96.9 175.1-24.2 12.2-49.4 18-78.6 18h-.1c-29.2 0-54.3-5.8-78.6-18-56.4-28.4-96.9-109.5-96.9-175.1 0-40.1 14.4-77 38.4-106.1 14.6-17.8 40.8-20.6 58.9-6.4 17.9 14.1 46.1 27.6 78.3 27.6" style="fill-rule:evenodd;clip-rule:evenodd;fill:#ffcb76"/></g><g id="Flame-2" transform="matrix(.96572 0 0 .89175 164.497 436.391)"><path id="path25" d="M602 819.1c-2.6-3.7-2.6-8.8 0-12.5s7.1-5.2 11.1-3.5c20.4 8.1 47 20.7 67.7 37.6 43 35.1 54.8 58.6 64.4 82.8 11.4 28.6 13 58.2 10.6 78.9-6.9 59.2-51.4 108.2-114.6 108.2-63.3 0-113.6-48.5-114.6-108.2-.6-36 11.1-64.7 23.9-85.2 3.2-5.1 9.2-7.2 14.5-5.1s8.7 7.9 8.1 14c-1.8 12.9-3 26.4-2.4 37.2 2.1 36.5 23.7 45.9 46 45.7 23.8-.2 47.8-20.4 39.2-71.9-7.7-45.1-34.8-90.4-53.9-118" style="fill-rule:evenodd;clip-rule:evenodd;fill:#ff6f00"/><defs><path id="SVGID_00000126320604333460962620000004599271963134376108_" d="M602 819.1c-2.6-3.7-2.6-8.8 0-12.5s7.1-5.2 11.1-3.5c20.4 8.1 47 20.7 67.7 37.6 43 35.1 54.8 58.6 64.4 82.8 11.4 28.6 13 58.2 10.6 78.9-6.9 59.2-51.4 108.2-114.6 108.2-63.3 0-113.6-48.5-114.6-108.2-.6-36 11.1-64.7 23.9-85.2 3.2-5.1 9.2-7.2 14.5-5.1s8.7 7.9 8.1 14c-1.8 12.9-3 26.4-2.4 37.2 2.1 36.5 23.7 45.9 46 45.7 23.8-.2 47.8-20.4 39.2-71.9-7.7-45.1-34.8-90.4-53.9-118"/></defs><clipPath id="SVGID_00000152966717745388160320000012987869077087764392_"><use xlink:href="#SVGID_00000126320604333460962620000004599271963134376108_" style="overflow:visible"/></clipPath><g id="g34" style="clip-path:url(#SVGID_00000152966717745388160320000012987869077087764392_)"><g id="g32" transform="matrix(1.28784 -.2706 .28594 1.59598 247.349 825.209)"><path id="path30" d="M255.9 30.8c26.2 12.4 54.4 41.1 62.2 78.1 12.9 61.5-23.2 78.5-54.2 77.1-49.7-2.4-66.5-41.8-33.2-89.1 20.6-29.4 1.4-77.4 25.2-66.1" style="fill-rule:evenodd;clip-rule:evenodd;fill:#ffd100"/></g></g></g><g id="Hut" transform="translate(393.566 1149.06)scale(1.521)"><path id="path37" d="M226.3 419.2c-5.9 0-11.1-2-15.1-5.2-2.4-1.9-3.3-5.2-2.3-8.1s3.8-4.9 6.9-4.9c14.8-.1 40.3-.1 40.3-.1s25.5 0 40.3.1c3.1 0 5.8 1.9 6.9 4.9 1 2.9.1 6.2-2.3 8.1-4 3.3-9.3 5.2-15.1 5.2zm-11.7-31.6c-3.2 0-6.3-1.3-8.6-3.6s-3.6-5.4-3.6-8.6v-13.8c0-4.4-2.9-8.2-7.2-9.4-14.7-4.1-25.5-17.3-25.5-33 0-18.9 15.8-34.3 35.4-34.3 7.5 0 14.2-4.7 16.7-11.8 3.4-9.8 13.2-20.9 34.1-20.9h.2c20.9 0 30.7 11.1 34.1 20.9 2.5 7.1 9.2 11.8 16.7 11.8 19.5 0 35.4 15.4 35.4 34.3 0 15.6-10.8 28.8-25.5 33-4.2 1.2-7.2 5-7.2 9.4v13.8c0 3.2-1.3 6.3-3.6 8.6s-5.4 3.6-8.6 3.6z" class="st2"/></g></g></svg>