<svg xmlns="http://www.w3.org/2000/svg" width="24" height="24"><defs><marker id="a" orient="auto" refX="0" refY="0" style="overflow:visible"><path d="m5.77 0-8.65 5V-5Z" style="fill:#ececec;fill-opacity:1;fill-rule:evenodd;stroke:#ececec;stroke-width:1pt;stroke-opacity:1" transform="scale(-.4)"/></marker></defs><g style="display:inline"><g transform="translate(-.184 -.184)scale(.04913)"><g transform="rotate(-90 209.482 -206.548)"><rect width="20.981" height="72.394" x="-329.532" y="3.765" ry="11.038" style="fill:#3f51b5;fill-opacity:1;fill-rule:evenodd;stroke-width:.92328"/><rect width="20.981" height="72.394" x="-280.149" y="3.81" ry="11.038" style="fill:#3f51b5;fill-opacity:1;fill-rule:evenodd;stroke-width:.92328"/><rect width="20.981" height="72.394" x="-230.765" y="3.825" ry="11.038" style="fill:#3f51b5;fill-opacity:1;fill-rule:evenodd;stroke-width:.92328"/><rect width="20.981" height="72.394" x="-181.382" y="3.795" ry="11.038" style="fill:#3f51b5;fill-opacity:1;fill-rule:evenodd;stroke-width:.92328"/><rect width="20.981" height="72.394" x="-378.915" y="3.75" ry="11.038" style="fill:#3f51b5;fill-opacity:1;fill-rule:evenodd;stroke-width:.92328"/><rect width="20.981" height="72.394" x="-131.999" y="3.78" ry="11.038" style="fill:#3f51b5;fill-opacity:1;fill-rule:evenodd;stroke-width:.92328"/></g><g transform="translate(0 415.5)"><rect width="20.981" height="72.394" x="163.547" y="3.765" ry="11.038" style="fill:#3f51b5;fill-opacity:1;fill-rule:evenodd;stroke-width:.92328"/><rect width="20.981" height="72.394" x="212.93" y="3.797" ry="11.038" style="fill:#3f51b5;fill-opacity:1;fill-rule:evenodd;stroke-width:.92328"/><rect width="20.981" height="72.394" x="262.313" y="3.825" ry="11.038" style="fill:#3f51b5;fill-opacity:1;fill-rule:evenodd;stroke-width:.92328"/><rect width="20.981" height="72.394" x="311.696" y="3.774" ry="11.038" style="fill:#3f51b5;fill-opacity:1;fill-rule:evenodd;stroke-width:.92328"/><rect width="20.981" height="72.394" x="361.08" y="3.773" ry="11.038" style="fill:#3f51b5;fill-opacity:1;fill-rule:evenodd;stroke-width:.92328"/><rect width="20.981" height="72.394" x="114.164" y="3.75" ry="11.038" style="fill:#3f51b5;fill-opacity:1;fill-rule:evenodd;stroke-width:.92328"/></g><rect width="367.5" height="367.5" x="64.353" y="64.15" ry="50.743" style="fill:#3f51b5;fill-opacity:1;stroke-width:.786126"/><rect width="20.981" height="72.394" x="163.547" y="3.765" ry="11.038" style="fill:#3f51b5;fill-opacity:1;fill-rule:evenodd;stroke-width:.92328"/><rect width="20.981" height="72.394" x="212.93" y="3.797" ry="11.038" style="fill:#3f51b5;fill-opacity:1;fill-rule:evenodd;stroke-width:.92328"/><rect width="20.981" height="72.394" x="262.313" y="3.825" ry="11.038" style="fill:#3f51b5;fill-opacity:1;fill-rule:evenodd;stroke-width:.92328"/><rect width="20.981" height="72.394" x="311.696" y="3.774" ry="11.038" style="fill:#3f51b5;fill-opacity:1;fill-rule:evenodd;stroke-width:.92328"/><rect width="20.981" height="72.394" x="361.08" y="3.773" ry="11.038" style="fill:#3f51b5;fill-opacity:1;fill-rule:evenodd;stroke-width:.92328"/><rect width="20.981" height="72.394" x="114.164" y="3.75" ry="11.038" style="fill:#3f51b5;fill-opacity:1;fill-rule:evenodd;stroke-width:.92328"/><g transform="rotate(-90 1.467 1.467)"><rect width="20.981" height="72.394" x="-329.532" y="3.765" ry="11.038" style="fill:#3f51b5;fill-opacity:1;fill-rule:evenodd;stroke-width:.92328"/><rect width="20.981" height="72.394" x="-280.149" y="3.81" ry="11.038" style="fill:#3f51b5;fill-opacity:1;fill-rule:evenodd;stroke-width:.92328"/><rect width="20.981" height="72.394" x="-230.765" y="3.825" ry="11.038" style="fill:#3f51b5;fill-opacity:1;fill-rule:evenodd;stroke-width:.92328"/><rect width="20.981" height="72.394" x="-181.382" y="3.795" ry="11.038" style="fill:#3f51b5;fill-opacity:1;fill-rule:evenodd;stroke-width:.92328"/><rect width="20.981" height="72.394" x="-378.915" y="3.75" ry="11.038" style="fill:#3f51b5;fill-opacity:1;fill-rule:evenodd;stroke-width:.92328"/><rect width="20.981" height="72.394" x="-131.999" y="3.78" ry="11.038" style="fill:#3f51b5;fill-opacity:1;fill-rule:evenodd;stroke-width:.92328"/></g></g><g transform="translate(-.594 -2.223)scale(.04913)"><ellipse cx="369.153" cy="173.733" rx="33.563" ry="33.75" style="fill:#ececec;stroke-width:.731655"/><g style="fill:#3f51b5;fill-opacity:1" transform="translate(673.745 -47.18)"><ellipse cx="-304.592" cy="220.913" rx="11.988" ry="11.458" style="fill:#3f51b5;fill-opacity:1;stroke-width:.468805"/></g></g><text xml:space="preserve" x="196.745" y="351.821" style="font-size:30px;line-height:1.25;font-family:&quot;Cascadia Code PL&quot;;-inkscape-font-specification:&quot;Cascadia Code PL&quot;;fill:#e6e6e6;stroke-width:.75" transform="translate(-.594 -2.223)scale(.04913)"><tspan x="196.745" y="351.821" style="fill:#e6e6e6;stroke-width:.75">0101110</tspan><tspan x="196.745" y="389.321" style="fill:#e6e6e6;stroke-width:.75">0111010</tspan><tspan x="196.745" y="426.821" style="fill:#e6e6e6;stroke-width:.75">0101110</tspan></text><g style="fill:#e6e6e6"><path d="M-351.737 442.825h79.125v3.375h-79.125z" style="fill:#e6e6e6;stroke-width:.396341" transform="matrix(.05992 0 0 .04913 25.655 -13.753)"/><path d="M-351.727 454.313h59.438v3.375h-59.438z" style="fill:#e6e6e6;stroke-width:.343512" transform="matrix(.05992 0 0 .04913 25.655 -13.753)"/><path d="M-287.906 454.266h25.5v3.375h-25.5z" style="fill:#e6e6e6;stroke-width:.225" transform="matrix(.05992 0 0 .04913 25.655 -13.753)"/><path d="M-301.737 465.806h19.688v3.375h-19.688z" style="fill:#e6e6e6;stroke-width:.1977" transform="matrix(.05992 0 0 .04913 25.655 -13.753)"/><path d="M-351.737 465.825h46.313v3.375h-46.313z" style="fill:#e6e6e6;stroke-width:.303222" transform="matrix(.05992 0 0 .04913 25.655 -13.753)"/><path d="M-351.766 476.813h59.063v3.375h-59.063z" style="fill:#e6e6e6;stroke-width:.342427" transform="matrix(.05992 0 0 .04913 25.655 -13.753)"/><path d="M-351.938 487.726h21v3.375h-21z" style="fill:#e6e6e6;stroke-width:.204184" transform="matrix(.05992 0 0 .04913 25.655 -13.753)"/></g><text xml:space="preserve" x="91.795" y="199.222" style="font-size:28px;line-height:1.25;font-family:&quot;Cascadia Code PL&quot;;-inkscape-font-specification:&quot;Cascadia Code PL&quot;;fill:#e6e6e6;stroke-width:.75" transform="translate(-.594 -2.223)scale(.04913)"><tspan x="91.795" y="199.222" style="font-size:28px;fill:#e6e6e6;stroke-width:.75">{</tspan></text><text xml:space="preserve" x="92.387" y="286.264" style="font-size:30px;line-height:1.25;font-family:&quot;Cascadia Code PL&quot;;-inkscape-font-specification:&quot;Cascadia Code PL&quot;;fill:#e6e6e6;stroke-width:.75" transform="translate(-.594 -2.223)scale(.04913)"><tspan x="92.387" y="286.264" style="fill:#e6e6e6;stroke-width:.75">}</tspan></text><path d="M173.32 385.127c-23.614-.358-40.682 5.295-53.927-16.59-6.298-10.405-2.398-29.22-3.19-55.862" style="fill:none;stroke:#ececec;stroke-width:3.49875;stroke-linecap:butt;stroke-linejoin:miter;stroke-miterlimit:4;stroke-dasharray:none;stroke-dashoffset:0;stroke-opacity:1;marker-start:url(#a)" transform="translate(-.594 -2.223)scale(.04913)"/></g></svg>