<svg xmlns="http://www.w3.org/2000/svg" xml:space="preserve" id="Calque_1" x="0" y="0" version="1.1" viewBox="1.49 14.36 509.04 483.16"><style>.st4{fill-rule:evenodd;clip-rule:evenodd;fill:#b7bdd2}</style><g transform="translate(295.473 -10.776)scale(1.30256)"><linearGradient id="SVGID_1_" x1="-1277.564" x2="-1276.699" y1="619.433" y2="619.433" gradientTransform="scale(229.0611 -229.0611)rotate(90 -328.757 947.538)" gradientUnits="userSpaceOnUse"><stop offset="0" style="stop-color:#4b69b6"/><stop offset="1" style="stop-color:#435ea5"/></linearGradient><circle cx="-149.6" cy="214.6" r="76.1" style="fill:url(#SVGID_1_);fill-rule:evenodd;clip-rule:evenodd"/></g><g transform="translate(295.473 -10.776)scale(1.30256)"><linearGradient id="SVGID_00000173119616044842645010000018170336070743425456_" x1="-1277.564" x2="-1276.699" y1="619.433" y2="619.433" gradientTransform="scale(229.0611 -229.0611)rotate(90 -328.757 947.538)" gradientUnits="userSpaceOnUse"><stop offset="0" style="stop-color:#5773bb"/><stop offset="1" style="stop-color:#3a5290"/></linearGradient><path d="M-149.6 138.5c42 0 76.1 34.1 76.1 76.1s-34.1 76.1-76.1 76.1-76.1-34.1-76.1-76.1 34.1-76.1 76.1-76.1m0 4.8c39.4 0 71.3 32 71.3 71.3s-32 71.3-71.3 71.3-71.3-31.9-71.3-71.3 31.9-71.3 71.3-71.3" style="fill-rule:evenodd;clip-rule:evenodd;fill:url(#SVGID_00000173119616044842645010000018170336070743425456_)"/></g><circle cx="-149.6" cy="214.6" r="57" style="fill-rule:evenodd;clip-rule:evenodd;fill:#4dcaed" transform="translate(295.473 -10.776)scale(1.30256)"/><g transform="translate(295.473 -10.776)scale(1.30256)"><linearGradient id="SVGID_00000018929752625409573960000018444748600461060511_" x1="-1277.561" x2="-1276.696" y1="619.396" y2="619.396" gradientTransform="scale(157.4792 -157.4792)rotate(90 -328.71 947.156)" gradientUnits="userSpaceOnUse"><stop offset="0" style="stop-color:#22b2e7"/><stop offset="1" style="stop-color:#177a9e"/></linearGradient><circle cx="-149.6" cy="214.6" r="52.3" style="fill-rule:evenodd;clip-rule:evenodd;fill:url(#SVGID_00000018929752625409573960000018444748600461060511_)"/></g><circle cx="-149.6" cy="214.6" r="39.2" class="st4" transform="translate(295.473 -10.776)scale(1.30256)"/><g transform="translate(295.473 -10.776)scale(1.30256)"><linearGradient id="SVGID_00000095323593069601683160000006668851309279763364_" x1="-1277.569" x2="-1276.704" y1="619.522" y2="619.522" gradientTransform="scale(412.0207 -412.0207)rotate(90 -328.67 948.059)" gradientUnits="userSpaceOnUse"><stop offset="0" style="stop-color:#4b69b6"/><stop offset="1" style="stop-color:#435ea5"/></linearGradient><path d="M-58.6 75.4c2.1 1.3 4 2.7 5.6 4.2 20.2 18.7 30.1 37.1 35.7 62.6 4.9 22.6 7.3 33.5-4.6 41.7-16 11.1 17.1 58.6 23.6 72.3-8.5 10.9-19.7 10.7-25.5 13.7-3.3 1.7-1.9 7.9-1.4 12.7.5 4.7 4.8 7.6 2.5 11.3-2.1 3.3-10.2 3.5-13.6 5.7 3.4 3.7 10.8 7.4 9.8 12.2-.8 3.7-9.1 3.1-12.4 11.5-1.7 4.5-.8 12.9-4.4 17.2-5.4 6.4-11 9.3-19 10.1-4.3.5-8.6 0-12.7-1.3-13.3-4.4-25.7-10.7-36.8-18.5 4.6.8 9.5 1.5 14.8 2.1 15.2 1.7 22.8.2 30.1-8.4 3.1-3.7 2.4-11.1 3.9-15.1 2.8-7.4 10.2-6.9 10.9-10.1.9-4.2-5.7-7.5-8.6-10.7 3.1-2 10.1-2.2 12-5 2.1-3.2-1.7-5.8-2.2-9.9-.5-4.2-1.7-9.7 1.2-11.2 5.2-2.7 15-2.5 22.5-12.1-5.7-12.1-34.8-53.8-20.7-63.6 10.4-7.2 8.3-16.8 4-36.7-4.9-22.5-13.7-38.6-31.4-55.1-3.8-3.5-9.5-6.5-15.8-8.7 10.2-4.8 21.2-8.5 32.5-10.9" style="fill-rule:evenodd;clip-rule:evenodd;fill:url(#SVGID_00000095323593069601683160000006668851309279763364_)"/></g><path d="M-26.4 72.7c3 .1 6 .3 9.1.5 78.1 7.1 135.7 76.2 128.6 154.3-6.5 72-65.9 126.6-136.3 129.1 1-.8 2-1.6 2.9-2.6 6-6.2 7.2-13.6 8.2-21.3.5-3.9 3.4-4.1 5.9-5.6 10.7-6.2 6.2-20.5 6.2-20.5 3.1-2.4 5.4-5.9 6.1-9.8 1-5.4-2.7-10.1-3.5-16.3 1.5-.4 3-.9 4.5-1.3 12.1-4 28.6-13.6 22.4-26.6-6.9-14.4-16.6-28-22.9-43-2.5-5.9-5.3-11.8-4.3-17.2 11.8-8.5 14.2-22.2 12.5-34.7-4.7-32.9-17.3-62.7-39.4-85" style="fill-rule:evenodd;clip-rule:evenodd;fill:#d1d1e0" transform="translate(295.473 -10.776)scale(1.30256)"/><g transform="translate(295.473 -10.776)scale(1.30256)"><linearGradient id="SVGID_00000016798262513760073760000016866132397764073601_" x1="-1277.57" x2="-1276.705" y1="619.476" y2="619.476" gradientTransform="scale(309.831 -309.831)rotate(90 -328.465 948.103)" gradientUnits="userSpaceOnUse"><stop offset="0" style="stop-color:#a7b1cd"/><stop offset=".46" style="stop-color:#c8cbdc"/><stop offset="1" style="stop-color:#d1d2e0"/></linearGradient><path d="M6.3 93.6c19.1 7.2 36.6 18.1 50.7 32.7 26.9 27.8 42.9 68.2 35.1 105.9-7.3 35.7-38.3 65.4-58.8 74.5-9.8 4.4-17.8 3.7-17.7 2.5s1.3-3.7 7.4-11.1c22-26.5 35-65.3 15.6-95.5-3.9-6.1-8.7-11.3-14.1-15.7 4.4-8.2 5.1-17.8 3.9-26.9-3.2-24.2-10.5-46.7-22.1-66.4" style="fill-rule:evenodd;clip-rule:evenodd;fill:url(#SVGID_00000016798262513760073760000016866132397764073601_)"/></g><g transform="translate(295.473 -10.776)scale(1.30256)"><linearGradient id="SVGID_00000082337533641583670750000009305790811494690449_" x1="-1277.588" x2="-1276.723" y1="619.514" y2="619.514" gradientTransform="scale(363.1509 -363.1509)rotate(72.249 -214.14 1184.337)" gradientUnits="userSpaceOnUse"><stop offset="0" style="stop-color:#b7bdd2"/><stop offset="1" style="stop-color:#607bb6"/></linearGradient><path d="M-33.6 19.4c-69.1 37.7-116 111-116 195.2 0 13.3 1.2 26.4 3.4 39.1-1.1.1-2.3.2-3.4.2-21.6 0-39.2-17.6-39.2-39.2 0-65 23.8-124.6 63.2-170.3 27.3-15.5 58.6-24.5 92-25" style="fill-rule:evenodd;clip-rule:evenodd;fill:url(#SVGID_00000082337533641583670750000009305790811494690449_)"/></g><path d="M-125.7 44.2c28.2-15.9 60.8-24.9 95.4-24.9C77.5 19.3 165 106.8 165 214.6 165 319 70.2 415.2-70.7 384.4l-.3-.3c84.3 9 146.5-25.4 180.1-75.6l.2-.3c18-26.8 28.5-59 28.5-93.7 0-92.8-75.4-168.1-168.2-168.1-60.8 0-114 32.3-143.6 80.7 11.1-30.6 27.5-58.7 48.3-82.9" style="fill-rule:evenodd;clip-rule:evenodd;fill:#94a2c1" transform="translate(295.473 -10.776)scale(1.30256)"/><path d="M256.136 14.363c140.416 0 254.39 113.974 254.39 254.39 0 54.447-19.8 107.331-55.36 148.362 31.002-41.422 49.238-92.742 49.238-148.362-.13-137.029-111.239-248.137-248.268-248.137-50.149 0-96.91 14.849-135.857 40.51 3.777-4.82 7.555-9.64 11.592-14.199a254.2 254.2 0 0 1 49.237-21.231h.13l1.824-.521 1.954-.521 1.954-.521 1.823-.522h.13l1.824-.52c.651-.13 1.303-.391 1.954-.522l1.824-.52.26-.13 1.693-.392h.261l1.954-.39 1.954-.391h.26l1.563-.39.391-.131 1.693-.39h.13l1.954-.392h.13l1.694-.39.39-.13 1.564-.261.39-.13 1.824-.391 1.824-.26.39-.131 1.433-.26.521-.13 1.563-.261h.261l1.954-.26h.26l1.694-.261.52-.13 1.433-.13h.522l1.823-.261 1.824-.26h.52l1.434-.131h.65l1.434-.13h.39l1.824-.13h.39l1.434-.13h.65l1.303-.131h.521l1.954-.13 1.954-.13h10.681z" class="st4"/></svg>