<svg fill="none" xmlns="http://www.w3.org/2000/svg" viewBox="0 0 150 150">
<g clip-path="url(#clip0_1443_72)">
<rect width="150" height="150" fill="#F43F85"/>
<path fill-rule="evenodd" clip-rule="evenodd" d="M51.3033 114.604C53.2758 113.345 55.1061 111.993 56.79 110.541C58.4719 109.096 59.6529 107.858 60.3269 106.829C60.9988 105.801 60.4217 105.522 58.5956 105.99C56.7653 106.459 56.116 105.265 56.6457 102.418C57.1734 99.5708 58.6677 95.7643 61.1204 91.0005C63.5752 86.2387 66.8957 80.8463 71.0818 74.8232C75.2679 68.8001 80.2002 62.7544 85.8806 56.6841C86.3608 56.1232 86.5525 55.5172 86.4577 54.8619C86.3608 54.2107 86.097 53.5308 85.6642 52.8323C85.2313 52.1318 84.6542 51.456 83.9328 50.8007C83.2114 50.1495 82.4653 49.5886 81.6965 49.1203C86.5072 49.0299 91.1756 49.0977 95.6997 49.3298C100.222 49.564 104.313 49.9153 107.972 50.3816C108.932 50.4761 109.775 49.9153 110.499 48.7012C111.222 47.4892 111.774 46.0409 112.16 44.3585C112.543 42.6781 112.712 41.0203 112.665 39.3872C112.615 37.7541 112.255 36.5646 111.583 35.8148C111.001 35.2561 109.27 34.9069 106.382 34.7651C103.495 34.6254 99.9085 34.6254 95.6276 34.7651C91.3425 34.9048 86.6988 35.2335 81.6965 35.747C76.6901 36.2606 71.8073 36.8913 67.042 37.637C62.2767 38.3847 57.9216 39.2722 53.9745 40.2993C50.0275 41.3264 47.0451 42.448 45.0231 43.6601C44.446 43.9394 44.0132 44.6872 43.7246 45.9012C43.4361 47.1153 43.4113 48.3294 43.6525 49.5435C43.8916 50.7575 44.4213 51.7374 45.2395 52.4852C46.0557 53.2329 47.2842 53.3253 48.9228 52.7666C51.9052 51.7395 55.6585 50.9445 60.1826 50.3857C64.7047 49.8249 69.5669 49.4531 74.765 49.2661C72.743 50.8541 70.4325 53.235 67.8355 56.4088C65.2365 59.5847 62.5405 63.1796 59.7498 67.1937C56.959 71.2097 54.2652 75.4374 51.6661 79.8705C49.067 84.3056 46.7071 88.5333 44.5924 92.5473C42.4735 96.5613 40.7896 100.158 39.5385 103.332C38.2853 106.504 37.6608 108.84 37.6608 110.333C37.6608 110.612 37.9721 111.103 38.5986 111.804C39.2232 112.504 40.0167 113.205 40.9813 113.903C41.9418 114.604 43.0012 115.212 44.1575 115.726C44.7932 116.007 45.3996 116.212 45.9772 116.34H48.0739C48.8195 116.082 49.896 115.503 51.3033 114.604Z" fill="white"/>
</g>
<defs>
<clipPath id="clip0_1443_72">
<rect width="150" height="150" rx="32" fill="white"/>
</clipPath>
</defs>
</svg>