<svg data-name="Layer 1" xmlns="http://www.w3.org/2000/svg" viewBox="0 0 1000 1000"><path d="M956.79 609L770.15 818.13l163.4-310.45A74.81 74.81 0 00942 478l25.9 76.92A55 55 0 01956.79 609zM674.54 925.29a55.08 55.08 0 01-51.47 17.32l-259.79-50.68 335.38-17a74.44 74.44 0 0026.52-6.38l-50.64 56.76zM165.46 825.08L77.79 564.71l186.37 294a75.12 75.12 0 0014.47 16.69l-71.67-14a55 55 0 01-41.5-36.35zm-122.25-450l186.64-209.14-163.4 310.45a75 75 0 00-8.4 29.71l-25.9-76.92a55 55 0 0111.06-54.06zM325.46 58.79a55.05 55.05 0 0151.47-17.34l259.8 50.69-335.38 17a74.82 74.82 0 00-26.52 6.38l50.63-56.74zm503.39 268l76.93 121.36a46 46 0 011.85 45.85L830 641.58v-303a64.72 64.72 0 00-1.12-11.84zm-657.7 330.5L94.22 535.93A45.94 45.94 0 0192.38 490L170 342.5v303a64.8 64.8 0 001.12 11.84zm629.52-11.84a36 36 0 01-17.87 31L518 829.76a35.94 35.94 0 01-35.9 0l-264.89-153.3a35.94 35.94 0 01-17.88-31V338.62a35.92 35.92 0 0117.88-31l264.84-153.3a35.9 35.9 0 0135.9 0L782.8 307.61a35.93 35.93 0 0117.87 31v306.84zM711.1 141l91.77 144.77c-1.74-1.25-3.52-2.45-5.4-3.54L532.63 129c-1.24-.71-2.49-1.38-3.76-2l141.19-7.16a45.92 45.92 0 0141 21.24zm-408.27-2.61l162.44-8.24-262.74 152.1c-.4.24-.78.5-1.18.74l63.24-120.15a46 46 0 0138.24-24.43zM288.9 843.05l-91.77-144.78a62.7 62.7 0 005.4 3.54l264.84 153.31c1.24.71 2.49 1.39 3.76 2l-141.19 7.16a46 46 0 01-41-21.24zm408.27 2.61l-162.44 8.24 262.74-152.09c.4-.22.79-.49 1.18-.73l-63.24 120.14a46 46 0 01-38.24 24.44zM834.54 159l87.67 260.36-186.37-294a74.5 74.5 0 00-14.49-16.69l71.69 14a55 55 0 0141.5 36.33zm161.08 386.55L862.31 149.64a84.36 84.36 0 00-63.66-55.76L382.54 12.7a84.51 84.51 0 00-78.93 26.58L21.35 355.62a84.34 84.34 0 00-17 82.9L137.7 834.43a84.33 84.33 0 0063.65 55.76l416.12 81.18a83.62 83.62 0 0016 1.54 84.63 84.63 0 0063-28.12l282.18-316.34a84.35 84.35 0 0017-82.9z" fill="#fff"/></svg>