<?xml version="1.0" encoding="utf-8"?>
<!-- Generator: Adobe Illustrator 27.6.0, SVG Export Plug-In . SVG Version: 6.00 Build 0)  -->
<svg version="1.1" id="Layer_1" xmlns="http://www.w3.org/2000/svg" xmlns:xlink="http://www.w3.org/1999/xlink" x="0px" y="0px"
	 viewBox="0 0 841.9 595.3" style="enable-background:new 0 0 841.9 595.3;" xml:space="preserve">
<style type="text/css">
	.st0{fill:#FFFFFF;}
</style>
<g>
	<path class="st0" d="M744.2,233.3L634.5,48.4c-4.5-7.6-12.8-12.2-21.8-12.2H236.2c-8.7,0-16.8,4.4-21.4,11.6L97.6,233.1
		c-6.1,9.6-4.6,22.1,3.8,30.1l301.5,289c9.8,9.4,25.5,9.4,35.3,0l301.9-289.4C748.2,255,749.9,242.9,744.2,233.3z M589.2,284.7
		c-0.4,18.9-56.9,34.7-132.3,38.6v88.3h-71.2v-88.3c-75.3-3.8-131.8-19.6-132.3-38.6l0-39.5c0.4-18.9,56.9-34.7,132.3-38.6v-36
		H278.4v-51.9h285.7v51.9H456.9v36c75.3,3.8,131.8,19.6,132.3,38.6L589.2,284.7z"/>
	<path class="st0" d="M456.9,272.3c-11.5,0.6-23.4,0.9-35.6,0.9c-12.2,0-24.1-0.3-35.6-0.9v-37.7c-64,3.3-114.5,15.2-128.4,30.3
		c16.4,17.8,83.6,31.2,164,31.2c80.4,0,147.6-13.4,164-31.2c-13.9-15.1-64.4-27-128.4-30.3V272.3z"/>
</g>
</svg>
