<?xml version="1.0" encoding="utf-8"?>
<!-- Generator: Adobe Illustrator 27.6.0, SVG Export Plug-In . SVG Version: 6.00 Build 0)  -->
<svg version="1.1" id="Layer_1" xmlns="http://www.w3.org/2000/svg" xmlns:xlink="http://www.w3.org/1999/xlink" x="0px" y="0px"
	 viewBox="0 0 841.9 214.6" style="enable-background:new 0 0 841.9 214.6;" xml:space="preserve">
<style type="text/css">
	.st0{fill-rule:evenodd;clip-rule:evenodd;fill:#FFFFFF;}
	.st1{fill:#FFFFFF;}
</style>
<g>
	<path class="st0" d="M78.4,24.6h117.3c2.8,0,5.4,1.5,6.8,3.9l34.2,58.7c1.8,3,1.2,6.9-1.3,9.4l-94.1,91.8c-3,3-7.9,3-11,0
		L36.4,96.6c-2.6-2.5-3.1-6.5-1.2-9.5l36.5-58.8C73.1,26,75.7,24.6,78.4,24.6z M180.5,50.8v16.5h-33.4v11.4
		c23.5,1.2,41.1,6.2,41.2,12.2l0,12.5c-0.1,6-17.7,11-41.2,12.2v28h-22.2v-28c-23.5-1.2-41.1-6.2-41.2-12.2l0-12.5
		c0.1-6,17.7-11,41.2-12.2V67.2H91.5V50.8H180.5z M136,107c25,0,46-4.2,51.1-9.9c-4.3-4.8-20.1-8.6-40-9.6v12
		c-3.6,0.2-7.3,0.3-11.1,0.3s-7.5-0.1-11.1-0.3v-12c-19.9,1-35.7,4.8-40,9.6C90.1,102.8,111,107,136,107z"/>
	<path class="st1" d="M282.4,56.4l27.1-3v26h23.5V102h-23.7v35c0,8.3,3.5,12.4,10.5,12.4c4.5,0,8.3-0.8,11.3-2.3l6.2,22.6
		c-6.2,2.4-12.7,3.8-19.6,4.1c-10.9,0.5-19.6-2.1-26-7.7c-6.3-5.8-9.4-15.5-9.4-29.2v-35h-16.6V79.4h16.6V56.4z"/>
	<path class="st1" d="M434.6,134.2h-68.4c0.8,4.8,3.3,8.7,7.7,11.9c4.4,3,10.2,4.5,17.5,4.5c10.4,0,18.5-2.4,24.1-7.3l15.3,16.9
		c-9.3,9.2-22.6,13.7-39.9,13.7c-16.6,0-29.4-4.5-38.6-13.4c-9-8.9-13.6-21-13.6-36.2c0-14.3,4.5-25.9,13.4-34.6
		c8.9-8.9,20.9-13.4,36-13.4c16.4,0,29,5,37.7,15.1C434.5,101.5,437.5,115.7,434.6,134.2z M366.2,114.4h44.1
		c-0.3-4.8-2.5-8.4-6.8-10.9c-4.3-2.6-9.4-4-15.4-4c-5.4,0-10,1.3-13.9,4C370.2,106.1,367.6,109.8,366.2,114.4z"/>
	<path class="st1" d="M457.2,56.4l27.1-3v26h23.5V102h-23.7v35c0,8.3,3.5,12.4,10.5,12.4c4.5,0,8.3-0.8,11.3-2.3l6.2,22.6
		c-6.2,2.4-12.7,3.8-19.6,4.1c-10.9,0.5-19.6-2.1-26-7.7c-6.3-5.8-9.4-15.5-9.4-29.2v-35h-16.6V79.4h16.6V56.4z"/>
	<path class="st1" d="M522.3,40h27.3v50.3c6.7-8.7,16.1-13,28.2-13c24.7,0,37.1,14.9,37.1,44.6v49.9h-27.1v-49.7
		c0-6.4-1.6-11.4-4.9-14.9c-3.1-3.5-7.4-5.3-12.8-5.3c-5.9,0-10.9,2-14.9,6c-3.9,4-5.8,9.6-5.8,16.8v47.1h-27.1V40z"/>
	<path class="st1" d="M721.3,134.2H653c0.8,4.8,3.3,8.7,7.7,11.9c4.4,3,10.2,4.5,17.5,4.5c10.4,0,18.5-2.4,24.1-7.3l15.3,16.9
		c-9.3,9.2-22.6,13.7-39.9,13.7c-16.6,0-29.4-4.5-38.6-13.4c-9-8.9-13.6-21-13.6-36.2c0-14.3,4.5-25.9,13.4-34.6
		c8.9-8.9,20.9-13.4,36-13.4c16.4,0,29,5,37.7,15.1C721.3,101.5,724.2,115.7,721.3,134.2z M653,114.4h44.1
		c-0.3-4.8-2.5-8.4-6.8-10.9c-4.3-2.6-9.4-4-15.4-4c-5.4,0-10,1.3-13.9,4C657,106.1,654.4,109.8,653,114.4z"/>
	<path class="st1" d="M732.6,79h25.2l2.1,10.2c5.9-8.3,14.2-12.4,24.9-12.4c8.8,0,16.4,2.8,22.8,8.5l-11.3,21.5
		c-4.4-3.1-9.4-4.7-14.9-4.7c-6.1,0-11.3,1.9-15.4,5.8c-4.1,3.8-6.2,9-6.2,15.6v48.4h-27.1V79z"/>
</g>
</svg>
