<svg xmlns="http://www.w3.org/2000/svg" width="44" height="60" fill="none"><path fill="#EED9C3" fill-rule="evenodd" d="m8.69 35.492 4.458-15.443h17.835l4.459 15.443z" clip-rule="evenodd"/><ellipse cx="27.785" cy="27.881" fill="#353535" rx="1.26" ry="1.243"/><path fill="#A78347" fill-rule="evenodd" d="M19.446 26.469a.79.79 0 0 0-.797-.786h-3.757a.79.79 0 0 0-.796.785v2.434c0 .65.535 1.178 1.194 1.178h1.368c.74 0 1.448-.29 1.971-.805a2.73 2.73 0 0 0 .817-1.944z" clip-rule="evenodd"/><path fill="#E3B261" fill-rule="evenodd" d="M35 5.29 43.852.76 39 18.76l-4 4zm-26.149 0L.001.76l4.85 18 4 4z" clip-rule="evenodd"/><path fill="#E3B261" fill-rule="evenodd" d="M35.442 13.503s-6.688-4.398-13.376-4.398c-6.689 0-13.377 4.398-13.377 4.398v13.193l1.784 3.519c1.28-4.863 7.071-6.889 11.103-3.884l.49.365.49-.365c4.03-3.005 9.823-.979 11.102 3.884l1.784-3.519z" clip-rule="evenodd"/><path fill="#D4D4D4" fill-rule="evenodd" d="m17.607 33.294-3.567 20.67-4.919-3.519 4.027-14.953z" clip-rule="evenodd"/><path fill="#D5D5D5" fill-rule="evenodd" d="m26.524 33.294 3.567 20.67 4.919-3.519-4.027-14.953z" clip-rule="evenodd"/><path fill="#E6E6E6" fill-rule="evenodd" d="M8.69 26.697 5.121 39.89l4.459 8.796 3.567-13.193zm26.752 0 3.567 13.193-4.459 8.796-3.567-13.193zm-17.835 6.597-4.013 21.55 8.472 4.397 8.471-4.398-4.013-21.55-4.126-2.034-.332-.164z" clip-rule="evenodd"/><path fill="#353535" fill-rule="evenodd" d="M23.664 34.173h-3.122v1.1c0 .408.165.8.457 1.088s.69.45 1.103.45h.002c.414 0 .81-.162 1.103-.45s.457-.68.457-1.088z" clip-rule="evenodd"/></svg>