<?xml version="1.0" encoding="UTF-8" standalone="no"?>
<!-- Generator: Adobe Illustrator 15.0.0, SVG Export Plug-In  -->

<svg
   xmlns:dc="http://purl.org/dc/elements/1.1/"
   xmlns:cc="http://creativecommons.org/ns#"
   xmlns:rdf="http://www.w3.org/1999/02/22-rdf-syntax-ns#"
   xmlns:svg="http://www.w3.org/2000/svg"
   xmlns="http://www.w3.org/2000/svg"
   xmlns:sodipodi="http://sodipodi.sourceforge.net/DTD/sodipodi-0.dtd"
   xmlns:inkscape="http://www.inkscape.org/namespaces/inkscape"
   version="1.1"
   x="0px"
   y="0px"
   width="167"
   height="31"
   viewBox="-12.832 -7.5 167 31"
   overflow="visible"
   enable-background="new -12.832 -7.5 350 75"
   xml:space="preserve"
   id="svg3675"
   inkscape:version="0.91 r13725"
   sodipodi:docname="Thread-wordmark-wht.svg"
   style="overflow:visible"><metadata
   id="metadata3693"><rdf:RDF><cc:Work
       rdf:about=""><dc:format>image/svg+xml</dc:format><dc:type
         rdf:resource="http://purl.org/dc/dcmitype/StillImage" /><dc:title></dc:title></cc:Work></rdf:RDF></metadata><sodipodi:namedview
   pagecolor="#ffffff"
   bordercolor="#666666"
   borderopacity="1"
   objecttolerance="10"
   gridtolerance="10"
   guidetolerance="10"
   inkscape:pageopacity="0"
   inkscape:pageshadow="2"
   inkscape:window-width="1280"
   inkscape:window-height="658"
   id="namedview3691"
   showgrid="false"
   inkscape:zoom="2.12"
   inkscape:cx="51.287054"
   inkscape:cy="37.5"
   inkscape:window-x="-8"
   inkscape:window-y="-8"
   inkscape:window-maximized="1"
   inkscape:current-layer="svg3675" />
<defs
   id="defs3677">
</defs>
<path
   d="m 19.581063,0.477063 3.806051,0 0,9.560605 11.479982,0 0,-9.560605 3.836711,0 0,22.956899 -3.836711,0 0,-9.557538 -11.479982,0 0,9.557538 -3.806051,0 0,-22.956899 z"
   id="path3679"
   inkscape:connector-curvature="0"
   style="fill:#ffffff" />
<path
   d="m 63.928597,23.433962 -4.431535,-7.641227 -6.482753,0 0,7.641227 -3.807072,0 0,-22.956899 11.479983,0 c 2.094657,0 3.894456,0.7496611 5.391733,2.246428 1.501367,1.5039212 2.249494,3.2980996 2.249494,5.392245 0,1.590794 -0.45327,3.034415 -1.356237,4.334952 -0.884569,1.278563 -2.00625,2.193282 -3.375774,2.747223 l 4.732011,8.236051 -4.39985,0 z M 60.68722,4.3122409 l -7.672911,0 0,7.6448051 7.672911,0 c 1.034297,0 1.928065,-0.378664 2.678236,-1.124236 0.750173,-0.751706 1.125769,-1.657227 1.125769,-2.716563 0,-1.0342974 -0.375596,-1.92551 -1.125769,-2.678237 C 62.615795,4.6878379 61.722028,4.3122409 60.68722,4.3122409 Z"
   id="path3681"
   inkscape:connector-curvature="0"
   style="fill:#ffffff" />
<path
   d="m 94.113307,0.477063 0,3.8351779 -11.478445,0 0,5.7571111 11.478445,0 0,3.807072 -11.478445,0 0,5.72185 11.478445,0 0,3.835688 -15.27683,0 0,-22.956899 15.27683,0 z"
   id="path3683"
   inkscape:connector-curvature="0"
   style="fill:#ffffff" />
<path
   d="m 119.49294,19.580387 -10.58622,0 -1.95821,3.853575 -4.28335,0 11.51729,-23.519017 11.5219,23.519017 -4.28335,0 -1.92806,-3.853575 z m -8.69801,-3.813203 6.77709,0 -3.38957,-7.254389 -3.38752,7.254389 z"
   id="path3685"
   inkscape:connector-curvature="0"
   style="fill:#ffffff" />
<path
   d="m 133.7738,0.477063 7.63816,0 c 1.56883,0 3.04413,0.3035439 4.43613,0.9065431 1.3869,0.6091315 2.60823,1.437489 3.65582,2.4845615 1.04656,1.0470726 1.86878,2.2658466 2.47945,3.653256 0.60912,1.3914974 0.90858,2.8657804 0.90858,4.4351104 0,1.5632 -0.29946,3.040548 -0.90858,4.431535 -0.61016,1.390985 -1.42522,2.608226 -2.46413,3.654277 -1.03736,1.049628 -2.25612,1.874409 -3.65581,2.480475 -1.40069,0.606575 -2.88213,0.910119 -4.45094,0.910119 l -7.63817,0 0,-22.955877 z m 7.63816,19.121211 c 1.05985,0 2.05429,-0.199298 2.9782,-0.598912 0.92495,-0.393993 1.73746,-0.944869 2.43244,-1.65416 0.696,-0.702136 1.24126,-1.521296 1.63781,-2.446235 0.39655,-0.92494 0.59738,-1.907113 0.59738,-2.941921 0,-1.037364 -0.20083,-2.019537 -0.59738,-2.948053 -0.39655,-0.92494 -0.9464,-1.7369453 -1.65059,-2.446747 -0.70877,-0.7026476 -1.52435,-1.2560782 -2.44981,-1.653138 -0.92544,-0.3965488 -1.90711,-0.5968671 -2.94805,-0.5968671 l -3.83415,0 0,15.2860331 3.83415,0 z"
   id="path3687"
   inkscape:connector-curvature="0"
   style="fill:#ffffff" />
<path
   d="m 3.6593273,23.433962 -3.8280231,0 0,-19.1283644 -5.7489348,0 c -1.7052616,0 -3.1018693,1.3909866 -3.1018693,3.1003363 0,1.7062841 1.3966077,3.0972701 3.1018693,3.0972701 l 0,3.829556 c -3.8208695,0 -6.9314264,-3.106468 -6.9314264,-6.926315 0,-3.8218914 3.1105569,-6.929382 6.9309154,-6.929382 l 5.7489344,0 0,-1.9377741 c 0,-3.1785215 2.5872752,-5.766309 5.7698853,-5.766309 3.1754559,0 5.7596659,2.5877875 5.7596659,5.766309 0,3.1785219 -2.58421,5.7663087 -5.7596659,5.7663087 l -1.9418622,0 0,19.1283644 z m 0,-22.956899 1.9418613,0 c 1.069047,0 1.9341975,-0.8687278 1.9341975,-1.9377741 0,-1.0690457 -0.8651505,-1.9377736 -1.9341975,-1.9377736 -1.0721116,0 -1.9418613,0.8687279 -1.9418613,1.9377736 l 0,1.9377741 z"
   id="path3689"
   inkscape:connector-curvature="0"
   style="fill:#ffffff" />
</svg>