<svg xmlns="http://www.w3.org/2000/svg" xml:space="preserve" style="enable-background:new 0 0 512 512" viewBox="0 0 512 512"><linearGradient id="a" x1="108.739" x2="469.621" y1="438.027" y2="101.414" gradientTransform="matrix(1 0 0 -1 0 512)" gradientUnits="userSpaceOnUse"><stop offset="0" style="stop-color:#1b91f3"/><stop offset="1" style="stop-color:#0b68cb"/></linearGradient><path d="M212.2 94.8c16.2-56.4 86.4-83.9 158-83.9 49.5 0 93.9 15.7 124.3 40.5-18.2.9-36.1 4.4-53.2 10.6 24.6 9.1 45.7 23.2 61.4 40.6-11.8-2-23.8-2.9-35.8-2.7 29.5 42.7 45.2 93.3 45.1 145.2 0 141.4-114.6 256-256 256-139.2 0-256-116.6-256-256 0-22 2.9-44.8 8.6-66.1 1.5-4.5 3.6-8.8 6.3-10.3 3.5-2 6.6 3.9 7.1 5.8 3.7 14 8.8 27.7 15 40.8-.5-29.3 12-55.9 29.2-79 11.5-15.4 22.1-29.6 27-70.6.3-2.8 2.9-4.7 5.6-3.9C136 74 155.9 136.1 152.9 188c20.6 2.9 20.5-18.6 20.5-18.6-6.6-20.2-2.2-57.8 38.8-74.6" style="fill:url(#a)"/><radialGradient id="b" cx="-50.549" cy="651.694" r=".731" gradientTransform="matrix(117.9299 271.4495 260.0389 -112.9726 -163416.281 87556.172)" gradientUnits="userSpaceOnUse"><stop offset=".53" style="stop-color:#0b4186;stop-opacity:0"/><stop offset="1" style="stop-color:#0b4186;stop-opacity:.45"/></radialGradient><path d="M503.6 179.9c6.2 140.8-109.5 262.2-250.7 262.2C120.8 442.1 12.6 340 2.8 210.3 1 222.5.1 234.7 0 247c1 138.7 117.5 254.1 256 254.1 141.4 0 256-114.6 256-256 0-22.5-2.9-44.4-8.4-65.2" style="opacity:.9;fill:url(#b);enable-background:new"/><radialGradient id="c" cx="-46.953" cy="653.088" r=".731" gradientTransform="matrix(-38.9504 -49.8596 -82.5065 64.4542 52317.73 -44313.125)" gradientUnits="userSpaceOnUse"><stop offset="0" style="stop-color:#ef3acc;stop-opacity:0"/><stop offset="1" style="stop-color:#ef3acc;stop-opacity:.64"/></radialGradient><path d="M249.8 113.4c-2.8-4.9-15.5-12.1-21.1-13.4 21.1-67.5 128.4-88.2 194.1-76.3 27.3 5 61.4 19.9 71.7 27.6-30.5-24.7-74.9-40.4-124.3-40.4-71.6 0-141.8 27.5-157.9 83.9h-.1c-41 16.8-45.3 54.4-38.8 74.7 6.3-24.2 36.3-53.8 76.4-56.1" style="fill:url(#c)"/><linearGradient id="d" x1="196.893" x2="326.749" y1="323.69" y2="468.248" gradientTransform="matrix(1 0 0 -1 0 512)" gradientUnits="userSpaceOnUse"><stop offset="0" style="stop-color:#0f5db0"/><stop offset="1" style="stop-color:#0f5db0;stop-opacity:0"/></linearGradient><path d="M324.1 66.8c-57.5 11.3-76.3 15-95.5 33.3 21.6-57.2 76.8-68.8 142.5-42.7-15.6 3.2-31.3 6.4-47 9.4" style="fill:url(#d)"/><radialGradient id="e" cx="-49.813" cy="652.405" r=".731" gradientTransform="matrix(200.5003 -415.9102 -513.7714 -247.6768 345333.938 141252.5)" gradientUnits="userSpaceOnUse"><stop offset=".02" style="stop-color:#094188"/><stop offset=".97" style="stop-color:#0b4186;stop-opacity:0"/></radialGradient><path d="M13.9 171.2c-15.7 64.3-3.6 139.9 67.8 203.4-21.2-23.2-47.2-109 10.1-170.3 3.9-4.1 10.5-1.1 10.7 4.5 4.7 127.4 107.5 205.2 226 190.6-36.7-2.1-158.1-44.6-67.8-61.4 47.2-8.8 121.2-22.6 121.2-89 0-107.7-83.3-139.2-133.7-134.5-34.6 3.2-65.3 25.1-74.8 55 3.6 11.8-10.9 20-20.5 18.6C156 136.1 136 74 98.7 61.8c-2.6-.9-5.3 1.1-5.6 3.9-4.9 41.1-15.5 55.3-27 70.6-17.2 23-29.7 49.6-29.1 78.9q-9.45-19.65-15-40.8c-.4-1.6-2.7-6-5.5-6.2-1.4 0-2.2 1.4-2.6 3" style="fill:url(#e)"/><linearGradient id="f" x1="350.344" x2="289.966" y1="252.959" y2="104.708" gradientTransform="matrix(1 0 0 -1 0 512)" gradientUnits="userSpaceOnUse"><stop offset="0" style="stop-color:#e247c4;stop-opacity:0"/><stop offset="1" style="stop-color:#e247c4;stop-opacity:.64"/></linearGradient><path d="M228.9 344.5c69.5 56.4 209.3 14.1 209.3-123.1-56.4 85.5-128.3 144.5-209.3 123.1" style="fill:url(#f)"/><linearGradient id="g" x1="50.467" x2="103.663" y1="360.82" y2="146.719" gradientTransform="matrix(1 0 0 -1 0 512)" gradientUnits="userSpaceOnUse"><stop offset=".1" style="stop-color:#ef3acc"/><stop offset="1" style="stop-color:#ef3acc;stop-opacity:0"/></linearGradient><path d="M91.8 204.2c.6-.7 1.4-1.2 2.3-1.6.9-.3 1.8-.4 2.8-.3-51.2 62.5-9.9 172.3 18.5 199.2 1.6 4.5-26.9-18.9-30.8-24.3-21.7-18.3-52.6-109 7.2-173" style="fill:url(#g)"/><linearGradient id="h" x1="255.996" x2="255.996" y1="330.18" y2="113.681" gradientTransform="matrix(1 0 0 -1 0 512)" gradientUnits="userSpaceOnUse"><stop offset="0" style="stop-color:#fff"/><stop offset=".91" style="stop-color:#bee1fe"/><stop offset="1" style="stop-color:#96cefd"/></linearGradient><path d="M256 349.7c69.5 0 125.9-46 125.9-102.7S325.5 144.2 256 144.2c-59.3 0-125.9 38.6-125.9 104.2 0 101.4 107.2 159.8 198.5 150.9-6.9-.8-49.7-3.1-78.6-35.8-2.6-2.9-7.1-8.1-5.1-11.4 2.1-3.3 7.7-2.4 11.1-2.4" style="fill:url(#h)"/><path d="m368.2 200.3-99.5 95.2c-8.8 6.3-18.2 6.7-27.5 1l-97.6-95.9c2.8-4.5 5.9-8.7 9.4-12.7l10.2 9.6c25.6 24 46.3 43.4 75.6 68.4 13.2 11.2 17.3 11 30.2 0 33.4-28.5 57.8-50.1 89.6-78.5q5.25 6 9.6 12.9" style="opacity:.6;fill:#fff;enable-background:new"/><defs><filter id="i" width="318.2" height="288.5" x="100.9" y="128.4" filterUnits="userSpaceOnUse"><feColorMatrix values="1 0 0 0 0 0 1 0 0 0 0 0 1 0 0 0 0 0 1 0"/></filter></defs><mask id="j" width="318.2" height="288.5" x="100.9" y="128.4" maskUnits="userSpaceOnUse"><path d="M428.1 258.5c0 77.6-77.1 140.4-172.1 140.4-4.6 0-12.3-1.2-15.1 3.4s3.4 11.6 6.9 15.6c37.2 42 91.1 47.3 105.2 48.7l2.2.2C230.4 479 83.9 399.2 83.9 260.6c-.1-23.1 6.3-45.7 18.5-65.3L236.5 317c9.5 8.7 25.6 8.7 35.1 0l136.6-124.1c12.8 19.6 19.9 41.9 19.9 65.6" style="fill:#fff;filter:url(#i)"/></mask><g style="mask:url(#j)"><linearGradient id="k" x1="260.045" x2="260.045" y1="207.668" y2="116.972" gradientTransform="matrix(1 0 0 -1 0 512)" gradientUnits="userSpaceOnUse"><stop offset="0" style="stop-color:#bce0fd"/><stop offset="1" style="stop-color:#88ccfc"/></linearGradient><path d="M100.9 128.4h318.2V417H100.9z" style="opacity:.7;fill:url(#k);enable-background:new"/><path d="M226.8 290.3c-18.5-19.3-74.1-83.4-74.1-83.4l4.3.2 86.9 64.9c6.5 4.7 15.8 4.7 22.2-.1l85.2-64.7 4.5-.4s-53.7 62.6-74.3 83.2c-20.4 20.7-36.2 19.6-54.7.3" style="fill-rule:evenodd;clip-rule:evenodd;fill:#458fcd"/></g><path d="M273.7 92.8c13.5-4.2 12.3-17.6 12.3-17.6s-6.7-7.9-20.1-3.5c-12.5 4.1-14.4 13-14.4 13s6.8 13 22.2 8.1" style="fill:#fff"/></svg>