<svg xmlns:inkscape="http://www.inkscape.org/namespaces/inkscape" xmlns:sodipodi="http://sodipodi.sourceforge.net/DTD/sodipodi-0.dtd" xmlns="http://www.w3.org/2000/svg" xmlns:svg="http://www.w3.org/2000/svg" fill="none" version="1.1" id="svg6" sodipodi:docname="ticky logo.svg" inkscape:version="1.4 (86a8ad7, 2024-10-11)" inkscape:export-filename="ticky logo.png" inkscape:export-xdpi="900" inkscape:export-ydpi="900" viewBox="1 33.88 198 132.25">
  <defs id="defs6"/>
  <sodipodi:namedview id="namedview6" pagecolor="#ffffff" bordercolor="#000000" borderopacity="0.25" inkscape:showpageshadow="2" inkscape:pageopacity="0.0" inkscape:pagecheckerboard="0" inkscape:deskcolor="#d1d1d1" inkscape:zoom="2.0745501" inkscape:cx="111.59046" inkscape:cy="74.473979" inkscape:window-width="1920" inkscape:window-height="1009" inkscape:window-x="-8" inkscape:window-y="-8" inkscape:window-maximized="1" inkscape:current-layer="svg6"/>
  <g id="g1" transform="matrix(0.89583788,0,0,0.89583788,0.99999966,33.877345)">
    <path d="m 53.556364,55.171775 c 7.851,-7.77 20.514,-7.703 28.284,0.148 l 52.714996,53.270995 c 4.251,4.296 10.215,6.439 16.228,5.831 l 7.119,-0.719 -28.432,28.135 c -7.851,7.77 -20.515,7.703 -28.284,-0.148 l -15.298996,-15.46 c -3.593,-3.631 -3.562,-9.488 0.069,-13.081 l 1.244,-1.231 c 2.944,-2.914 2.969,-7.663 0.055,-10.607 v 0 c -2.913,-2.943995 -7.662,-2.968995 -10.606,-0.055 l -36.251,35.872 c -7.851,7.77 -20.514,7.703 -28.2839,-0.148 l -6.3304999,-6.397 c -7.7695,-7.851 -7.7031,-20.515 0.1483,-28.284 z" fill="#ec3eac" id="path1"/>
    <path d="m 84.653364,58.162775 34.465996,34.83 11.606,11.727995 -12.794,12.661 c -7.852,7.77 -20.514996,7.703 -28.283996,-0.148 l -3.869,-3.91 1.422,-1.406 c 2.944,-2.914 2.969,-7.663 0.055,-10.607 v 0 c -2.913,-2.943995 -7.662,-2.968995 -10.606,-0.055 l -36.399,36.019 c -7.77,7.688 -20.301,7.623 -27.9894,-0.147 v 0 c -2.0233,-2.044 -2.006,-5.342 0.0386,-7.365 z" fill="#c92c9d" id="path2"/>
    <path d="m 102.23836,75.933775 10.551,10.662 -27.010996,26.727995 c 0,0 7.383,-5.898 1.477,-12.013 -4.168,-4.315995 -9.895,-0.759 -9.895,-0.759 z" fill="#af2282" id="path3"/>
    <path d="m 167.46636,92.449775 c -7.851,7.769995 -20.515,7.702995 -28.284,-0.148 l -52.715996,-53.271 c -4.25,-4.295 -10.215,-6.439 -16.227,-5.831 l -7.119,0.72 28.432,-28.1360001 c 7.851,-7.769 20.513996,-7.703 28.283996,0.148 l 15.298,15.4600001 c 3.594,3.632 3.563,9.488 -0.068,13.082 l -1.244,1.231 c -2.944,2.913 -2.969,7.662 -0.056,10.606 v 0 c 2.914,2.944 7.662,2.969 10.607,0.056 l 36.251,-35.873 c 7.851,-7.7700001 20.514,-7.7030001 28.284,0.148 l 6.33,6.397 c 7.769,7.852 7.703,20.515 -0.148,28.284 z" fill="#ec3eac" id="path4"/>
    <path d="m 136.36836,89.458775 -34.466,-34.83 -11.605996,-11.728 12.794996,-12.661 c 7.851,-7.769 20.514,-7.703 28.284,0.148 l 3.868,3.91 -1.421,1.407 c -2.944,2.913 -2.969,7.662 -0.056,10.606 v 0 c 2.914,2.944 7.662,2.969 10.607,0.056 l 36.399,-36.02 c 7.769,-7.6880001 20.301,-7.6230001 27.989,0.147 v 0 c 2.023,2.045 2.006,5.342 -0.039,7.366 z" fill="#c92c9d" id="path5"/>
    <path d="m 118.78436,71.688775 -10.551,-10.662 27.01,-26.729 c 0,0 -7.382,5.898 -1.477,12.013 4.169,4.316 9.896,0.759 9.896,0.759 z" fill="#af2282" id="path6"/>
  </g>
</svg>