<svg xmlns="http://www.w3.org/2000/svg" xmlns:xlink="http://www.w3.org/1999/xlink" version="1.1" xml:space="preserve" viewBox="31.99 187.98 936.03 624.04">

<defs>
</defs>

<g transform="matrix(5.2407 0 0 5.2407 500.0032 500.0021)" id="251604">
<g style="">
		<g transform="matrix(6.2943 0 0 -6.2943 0.0014 -29.7683)" id="869873">
<path style="stroke: none; stroke-width: 1; stroke-dasharray: none; stroke-linecap: butt; stroke-dashoffset: 0; stroke-linejoin: miter; stroke-miterlimit: 4; is-custom-font: none; font-file-url: none; fill: rgb(16,15,13); fill-rule: nonzero; opacity: 1;" transform=" translate(4.7295, 0.001)" d="m 0 0 l -4.729 -4.73 L -9.459 0 l 4.73 4.728 Z" stroke-linecap="round"/>
</g>
		<g transform="matrix(6.2943 0 0 -6.2943 0.0014 29.7656)" id="756993">
<path style="stroke: none; stroke-width: 1; stroke-dasharray: none; stroke-linecap: butt; stroke-dashoffset: 0; stroke-linejoin: miter; stroke-miterlimit: 4; is-custom-font: none; font-file-url: none; fill: rgb(16,15,13); fill-rule: nonzero; opacity: 1;" transform=" translate(4.7295, 0)" d="m 0 0 l -4.729 -4.73 L -9.459 0 l 4.73 4.73 Z" stroke-linecap="round"/>
</g>
		<g transform="matrix(6.2943 0 0 -6.2943 -59.5356 -29.769)" id="87521">
<path style="stroke: none; stroke-width: 1; stroke-dasharray: none; stroke-linecap: butt; stroke-dashoffset: 0; stroke-linejoin: miter; stroke-miterlimit: 4; is-custom-font: none; font-file-url: none; fill: rgb(16,15,13); fill-rule: nonzero; opacity: 1;" transform=" translate(4.7295, 0.0005)" d="m 0 0 l -4.73 -4.73 L -9.459 0 l 4.729 4.729 Z" stroke-linecap="round"/>
</g>
		<g transform="matrix(6.2943 0 0 -6.2943 59.5352 -29.769)" id="549218">
<path style="stroke: none; stroke-width: 1; stroke-dasharray: none; stroke-linecap: butt; stroke-dashoffset: 0; stroke-linejoin: miter; stroke-miterlimit: 4; is-custom-font: none; font-file-url: none; fill: rgb(16,15,13); fill-rule: nonzero; opacity: 1;" transform=" translate(4.7295, 0.0005)" d="m 0 0 l -4.729 -4.73 L -9.459 0 l 4.73 4.729 Z" stroke-linecap="round"/>
</g>
</g>
</g>
</svg>