<svg xmlns:dc="http://purl.org/dc/elements/1.1/" xmlns:cc="http://creativecommons.org/ns#" xmlns:rdf="http://www.w3.org/1999/02/22-rdf-syntax-ns#" xmlns:svg="http://www.w3.org/2000/svg" xmlns="http://www.w3.org/2000/svg" xmlns:sodipodi="http://sodipodi.sourceforge.net/DTD/sodipodi-0.dtd" xmlns:inkscape="http://www.inkscape.org/namespaces/inkscape" version="1.1" id="svg8" inkscape:version="0.92.4 (5da689c313, 2019-01-14)" sodipodi:docname="ting logo.svg" viewBox="0 0 58.21 37.76">
  <defs id="defs2"/>
  <sodipodi:namedview id="base" pagecolor="#ffffff" bordercolor="#666666" borderopacity="1.0" inkscape:pageopacity="0.0" inkscape:pageshadow="2" inkscape:zoom="1.979899" inkscape:cx="-39.041548" inkscape:cy="101.20868" inkscape:document-units="mm" inkscape:current-layer="layer1" showgrid="false" inkscape:window-width="1920" inkscape:window-height="1017" inkscape:window-x="-8" inkscape:window-y="176" inkscape:window-maximized="1"/>
  <metadata id="metadata5">
    <rdf:RDF>
      <cc:Work rdf:about="">
        <dc:format>image/svg+xml</dc:format>
        <dc:type rdf:resource="http://purl.org/dc/dcmitype/StillImage"/>
        <dc:title/>
      </cc:Work>
    </rdf:RDF>
  </metadata>
  <g inkscape:label="Layer 1" inkscape:groupmode="layer" id="layer1" transform="translate(-72.722619,-80.693863)">
    <g id="g4532" transform="matrix(3.6380208,0,0,3.6380208,72.722619,68.943056)" style="fill:#00aaee;fill-opacity:1">
      <path id="path4518" class="t" d="M 4.66,5.05 C 4.16,5.05 3.8,4.64 3.8,4.14 c 0,-0.5 0.36,-0.91 0.86,-0.91 0.5,0 0.86,0.41 0.86,0.91 0,0.5 -0.36,0.91 -0.86,0.91 z m 5.57,6.19 H 9.35 C 9.18,11.24 9.04,11.1 9.04,10.93 V 7.24 C 9.04,6.96 8.92,6.75 8.56,6.75 8.06,6.75 7.7,7.23 7.7,7.9 v 3.02 c 0,0.17 -0.14,0.31 -0.31,0.31 H 6.51 C 6.34,11.23 6.2,11.09 6.2,10.92 V 5.88 C 6.2,5.71 6.34,5.57 6.51,5.57 h 0.67 c 0.19,0 0.29,0.12 0.32,0.28 L 7.58,6.22 C 8.02,5.74 8.51,5.49 9.11,5.49 c 0.87,0 1.43,0.58 1.43,1.46 v 3.98 c 0.01,0.17 -0.13,0.31 -0.31,0.31 z m 3.29,2.37 c -1.24,0 -2.43,-0.41 -2.47,-1.76 0,-0.17 0.14,-0.34 0.31,-0.33 l 0.83,0.03 c 0.19,0.01 0.24,0.12 0.29,0.29 0.12,0.47 0.59,0.59 1.07,0.59 0.75,0 1.1,-0.3 1.1,-0.68 0,-0.4 -0.15,-0.51 -0.72,-0.51 h -1.21 c -0.61,0 -1.38,-0.19 -1.38,-1.06 0,-0.37 0.2,-0.68 0.46,-0.92 -0.48,-0.36 -0.77,-0.93 -0.77,-1.65 0,-1.35 0.88,-2.11 2.24,-2.11 0.25,0 0.48,0.05 0.72,0.05 h 1.38 c 0.27,0 0.36,0.12 0.36,0.33 v 0.37 c 0,0.26 -0.06,0.3 -0.22,0.34 l -0.3,0.07 c 0.17,0.29 0.32,0.58 0.32,0.96 0,1.29 -0.85,2.12 -2.25,2.12 -0.19,0 -0.37,-0.02 -0.54,-0.06 -0.04,0.08 -0.07,0.12 -0.07,0.22 0,0.2 0.19,0.22 0.37,0.22 h 1.09 c 1.14,0 1.87,0.51 1.87,1.56 0,1.48 -1.41,1.93 -2.48,1.93 z M 13.3,6.63 c -0.44,0 -0.78,0.13 -0.78,0.97 0,0.89 0.35,1.02 0.78,1.02 0.39,0 0.79,-0.17 0.79,-1.02 C 14.08,6.75 13.72,6.63 13.3,6.63 Z" inkscape:connector-curvature="0" style="fill:#00aaee;fill-opacity:1"/>
      <path id="path4520" class="t" d="M 5.12,5.57 H 2.41 V 3.91 C 2.41,3.73 2.27,3.6 2.1,3.6 H 1.22 C 1.04,3.6 0.9,3.74 0.9,3.91 V 5.56 H 0.31 C 0.14,5.57 0,5.71 0,5.88 V 6.39 C 0,6.56 0.14,6.7 0.31,6.7 H 0.9 v 3.17 c 0,0.89 0.38,1.44 1.35,1.44 0.41,0 0.85,-0.07 1.12,-0.16 0.15,-0.05 0.22,-0.16 0.2,-0.31 L 3.43,10.11 C 3.4,9.92 3.28,9.85 3.1,9.9 3.01,9.92 2.86,9.93 2.76,9.93 2.55,9.93 2.41,9.79 2.41,9.48 V 6.71 h 1.52 v 4.22 c 0,0.17 0.14,0.31 0.31,0.31 h 0.88 c 0.17,0 0.31,-0.14 0.31,-0.31 V 5.88 C 5.44,5.71 5.3,5.57 5.12,5.57 Z" inkscape:connector-curvature="0" style="fill:#00aaee;fill-opacity:1"/>
    </g>
  </g>
</svg>