<svg xmlns="http://www.w3.org/2000/svg" xmlns:svg="http://www.w3.org/2000/svg" version="1.1" id="svg1" xml:space="preserve" viewBox="0 0 490 512"><defs id="defs1"/><g id="layer1" transform="translate(-42.946746,-126.71433)"><path style="fill:#f6d2a2;stroke-width:1.33057" d="m 49.499761,620.40199 c 0.936736,19.65778 20.802111,10.40105 29.434848,4.36826 8.632687,-6.03283 10.401005,-0.93673 11.649081,-12.48207 0.766407,-7.53236 1.079105,-15.1046 0.936736,-22.67422 -13.107416,-1.34121 -26.265424,2.01317 -37.132156,9.46568 -5.40875,3.95177 -15.497107,16.43384 -4.992255,20.80211" id="path414"/><path style="fill:#010101;fill-opacity:1;stroke-width:1.33057" d="m 59.693273,634.65238 c -1.943978,0.0251 -3.866633,-0.40031 -5.616343,-1.24808 -4.075534,-2.35248 -6.547699,-6.73669 -6.449283,-11.44159 -2.615891,-1.30259 -4.381544,-3.85461 -4.680915,-6.76057 0.754438,-7.00679 4.559869,-13.32301 10.401055,-17.26548 11.220668,-7.72527 24.831026,-11.1914 38.380183,-9.77696 l 1.024189,19.34644 c 0.235353,9.59753 -0.31129,14.12356 -6.224038,15.60221 -2.219361,0.6866 -4.323007,1.70445 -6.240331,3.01639 -5.984913,4.62107 -13.09414,7.5656 -20.594517,8.52764 z m -4.160724,-33.59683 c -4.703545,3.24787 -7.863615,8.2881 -8.736484,13.93769 0.261001,1.98385 1.635253,3.64174 3.536636,4.26447 h 1.040533 v 1.14428 c -0.306261,3.67367 1.355846,7.2356 4.368216,9.36052 3.388786,3.23671 16.089262,-1.12432 22.153984,-6.44923 2.170128,-1.52221 4.55318,-2.71305 7.07327,-3.53669 2.703696,-0.93538 4.352125,-2.0435 4.352125,-7.5922 l 0.01509,-20.80342 c -13.284284,-0.14735 -24.848477,3.42092 -33.804523,9.67458 z" id="path415"/><path style="fill:#010101;stroke-width:1.33057" d="m 49.499761,622.2741 c -1.005883,0.31531 -2.075685,-0.24239 -2.392356,-1.24808 -0.315313,-1.00457 0.2434,-2.07568 1.248077,-2.39235 h 1.248076 c 2.198089,-0.50963 4.1913,-1.66985 5.72009,-3.32779 0.632034,-0.83288 1.818909,-0.99658 2.651848,-0.36459 0.832939,0.63203 0.99658,1.81886 0.364596,2.6518 v 0 c -1.966607,2.25934 -4.581191,3.85732 -7.488458,4.57716 h -1.351873 z" id="path416"/><path style="fill:#6ad7e5;stroke-width:1.33057;fill-opacity:1" d="M 94.84816,386.47895 C 19.647162,365.67684 75.605517,269.67373 136.45233,308.9907 Z" id="path417"/><path style="fill:#6ad7e5;stroke-width:1.33057;fill-opacity:1" d="m 428.93498,301.81363 c 59.49499,-41.60422 113.26853,52.00654 44.10168,76.24018 z" id="path418"/><path style="fill:#010101;stroke-width:1.33057" d="m 472.20372,380.34237 -45.76489,-79.04903 1.35187,-0.93668 c 15.57827,-12.48741 37.16675,-14.29696 54.60648,-4.57717 16.40458,9.60804 26.01524,27.62127 24.85899,46.59778 -1.04048,10.40106 -6.65683,28.18677 -33.59547,37.44485 z m -40.77259,-78.0085 42.43711,73.43269 c 15.74594,-4.26981 27.41634,-17.53689 29.6437,-33.69932 1.11104,-17.57546 -7.78245,-34.27674 -22.98687,-43.1649 -15.54765,-8.9135 -34.93804,-7.55896 -49.09394,3.43153 z" id="path419"/><path style="fill:#010101;stroke-width:1.33057" d="m 457.33065,350.07463 c 10.40101,-5.20121 17.16163,-12.37697 11.12884,-23.8185 -6.03279,-11.44154 -16.01735,-9.46563 -26.00327,-4.26448 z" id="path424"/><path style="fill:#010101;stroke-width:1.33057" d="m 97.968351,360.06055 c -10.401055,-5.20121 -17.161678,-12.37697 -11.12884,-23.81851 6.032788,-11.44153 16.017349,-9.46567 26.003269,-4.26447 z" id="path425"/><path style="fill:#f6d2a2;stroke-width:1.33057" d="m 525.66592,617.90583 c -0.93673,19.65778 -20.80211,10.40106 -29.43485,4.36827 -8.63268,-6.03279 -10.401,-0.93674 -11.64908,-12.48207 -0.7664,-7.53236 -1.0791,-15.1046 -0.93542,-22.67417 13.10741,-1.34122 26.26542,2.01312 37.13215,9.46562 5.40875,3.95313 15.49847,16.43385 4.99231,20.80211" id="path427"/><path style="fill:#010101;stroke-width:1.33057" d="m 95.784897,388.66371 h -1.45562 C 72.903129,382.63093 59.693273,369.94131 57.19712,352.98723 55.392846,334.18632 64.374188,315.9815 80.391536,305.97431 97.84992,294.92925 120.28462,295.67172 136.97393,307.84642 l 1.45562,0.93669 z m 10.401053,-87.16147 c -8.535577,0.0101 -16.883577,2.50415 -24.027404,7.17712 -14.826501,9.20085 -23.166505,26.0006 -21.529895,43.37249 2.288559,15.08197 13.937691,26.52351 32.971433,32.24365 L 133.1246,309.71849 c -14.16827,-8.86075 -26.93865,-8.21625 -26.93865,-8.21625 z" id="path428"/><path style="fill:#010101;stroke-width:1.33057" d="m 515.47241,631.73973 c -7.14911,-0.77702 -13.9829,-2.91275 -19.86668,-7.04682 -1.91738,-1.31194 -4.02097,-2.54931 -6.24038,-3.23721 -4.16068,-1.45567 -5.72009,-2.92452 -6.24033,-10.62183 v -5.20121 c -0.5642,-5.91038 -0.73714,-11.85265 -0.52024,-17.78566 v -2.49615 h 1.56072 c 13.54916,-1.41439 27.15956,2.05174 38.38023,9.77701 5.84119,3.94247 9.64662,10.26 10.40106,17.26543 -0.29922,2.90596 -2.06508,5.45798 -4.68097,6.76062 0.0986,4.7049 -2.37239,9.08911 -6.44923,11.44154 -1.97858,0.92607 -4.166,1.31994 -6.34418,1.14428 z m -30.26774,-42.85356 c -0.0704,5.20785 0.1383,10.41569 0.62404,15.60221 v 5.20121 c 0,6.34413 0.93674,6.55303 3.74423,7.59221 2.51873,0.82363 4.90314,2.01448 7.07327,3.53663 6.05809,5.33694 14.17853,7.70133 22.15399,6.44928 3.01237,-2.12627 4.67427,-5.68684 4.36821,-9.36057 v -1.24802 h 1.04054 c 1.90138,-0.62274 3.27583,-2.28062 3.53663,-4.26447 -0.87418,-5.64828 -4.03294,-10.68982 -8.73648,-13.9377 -9.85421,-6.93759 -21.77611,-10.31325 -33.80443,-9.57078 z" id="path430"/><path id="path431" style="fill:#6ad7e5;stroke-width:1.33057;fill-opacity:1" d="m 280.09323,262.08152 -0.10547,0.002 c -81.12868,6.44793 -156.43293,25.27277 -184.412108,108.48242 -26.940002,80.2971 -1.351953,162.57159 -4.679687,244.53321 -0.30908,7.61451 -0.806517,15.50938 -1.392578,23.61523 H 491.55026 c -0.81818,-13.3552 -1.73711,-26.51245 -2.49805,-39.32227 -5.51255,-85.60205 6.65704,-173.07668 -26.31445,-254.10156 -37.027,-72.80865 -107.33974,-83.20898 -182.64453,-83.20898 z"/><path style="fill:#ffffff;stroke-width:1.33057" d="m 293.30361,363.07694 c 13.52125,78.52873 141.87175,57.83042 123.462,-21.42615 -16.53759,-71.04032 -127.93537,-51.38249 -123.462,21.42615" id="path432"/><path style="fill:#010101;stroke-width:1.33057" d="m 354.35802,414.35433 c -7.99537,0.0352 -15.94021,-1.26673 -23.50712,-3.84802 -21.0017,-6.94821 -36.24068,-25.21157 -39.31691,-47.11672 -1.41308,-17.00196 4.48795,-33.8004 16.22625,-46.18134 11.1315,-11.42021 25.79039,-18.749 41.60417,-20.80206 14.49388,-2.29389 29.34035,0.26603 42.2282,7.28087 13.90576,8.12179 23.70008,21.77339 26.9387,37.5486 5.71079,20.11687 -0.49887,41.7319 -16.0174,55.75076 -13.41876,11.4269 -30.52984,17.59809 -48.15589,17.36791 z m -59.18229,-51.48498 c 2.90465,20.55594 17.21352,37.68699 36.92456,44.20542 46.1227,15.42409 95.52702,-19.35534 83.0008,-64.90374 -15.34343,-67.98465 -123.66522,-50.90057 -119.92536,20.69832 z" id="path433"/><path style="fill:#ffffff;stroke-width:1.33057" d="m 139.88522,375.8703 c 17.47433,68.33527 126.89488,50.75715 122.83796,-17.78566 -4.88851,-82.17053 -139.58314,-66.67206 -122.83796,17.78566" id="path434"/><path style="fill:#010101;stroke-width:1.33057" d="m 198.34103,420.90736 c -11.12622,0.084 -22.09806,-2.59728 -31.9323,-7.8011 -14.23837,-7.71597 -24.49706,-21.15469 -28.18672,-36.92457 -5.53915,-21.72682 2.10098,-44.68976 19.55403,-58.7672 21.03359,-16.04929 49.0447,-19.62052 73.43268,-9.36053 19.90259,8.70194 32.90626,28.20669 33.28413,49.92557 2.687,44.77284 -39.2266,62.92783 -66.15182,62.92783 z m -56.3748,-45.4535 c 7.48977,30.08146 37.71894,45.93779 67.92014,40.93884 65.55056,-13.09977 63.2185,-85.90514 20.28318,-104.6983 -23.18647,-9.73176 -49.8085,-6.32019 -69.79225,8.94538 -16.23163,13.16731 -23.40337,34.52024 -18.41107,54.81408 z" id="path435"/><path style="fill:#ffffff;stroke-width:1.33057" d="m 308.38558,457.83192 c 1.0006,10.82952 1.0006,21.72683 0,32.55635 -3.04566,3.85466 -7.35534,6.50777 -12.16937,7.48841 -6.01549,-0.92341 -11.14881,-4.84194 -13.62499,-10.40106 -0.66795,-12.27845 -0.35505,-24.5915 0.93673,-36.82076 z" id="path436"/><path style="fill:#010101;stroke-width:1.33057" d="m 296.83894,499.43609 c -6.72205,-1.04445 -12.42615,-5.48991 -15.08197,-11.75287 -0.86357,-8.40252 -0.86357,-16.87161 0,-25.27549 0,-3.84797 0.62404,-7.90485 0.72778,-11.85667 v -3.12019 l 28.08298,8.63274 c -0.0251,4.06527 -0.0151,8.13286 0.52024,12.16937 1.10319,7.60513 0.70178,15.27392 0,22.88307 -2.20206,3.59653 -5.76666,6.14725 -9.88076,7.07333 l -3.22399,1.24807 c -0.37466,0.002 0.1916,-0.001 -1.14428,-0.001 z m 0.1051,-3.84797 2.9126,-1.14428 c 3.13483,-0.75444 5.85582,-2.69309 7.59225,-5.40875 0.82495,-6.90963 0.82495,-13.89248 0,-20.80211 0,-3.22394 0,-6.34413 -0.52029,-9.46568 l -20.80206,-6.34413 c 0,3.22399 0,6.44929 -0.62403,9.56943 -0.92211,8.04727 -1.02585,16.1664 -0.3128,24.235 2.31491,4.96087 6.48187,8.10213 11.75433,9.36052 z" id="path437"/><ellipse style="fill:#010101;stroke-width:1.33057" cx="170.0489" cy="364.63635" rx="18.513512" ry="20.074268" id="ellipse437"/><ellipse style="fill:#ffffff;stroke-width:1.33057" cx="178.4738" cy="369.2135" rx="4.3682523" ry="5.0960727" id="ellipse438"/><ellipse style="fill:#010101;stroke-width:1.33057" cx="325.026" cy="359.64401" rx="18.20216" ry="20.074268" id="ellipse439"/><ellipse style="fill:#ffffff;stroke-width:1.33057" cx="333.24356" cy="364.22119" rx="4.2644682" ry="5.0960727" id="ellipse440"/><path style="fill:#ffffff;stroke-width:1.33057" d="m 256.37905,456.2712 c -8.1125,19.55398 4.47201,58.66205 26.4184,29.85124 -0.66794,-12.27845 -0.35504,-24.59155 0.93674,-36.82076 z" id="path440"/><path style="fill:#010101;stroke-width:1.33057" d="m 267.71679,498.29181 c -1.90269,0.0201 -3.77345,-0.48579 -5.40875,-1.45562 -8.84159,-5.0961 -14.35414,-26.00326 -8.11245,-41.60417 l 31.20312,-8.73653 c 0.0151,4.83284 0.0845,9.678 -0.72784,14.45798 -1.46743,8.61448 -0.67447,17.47342 0,25.89816 -3.42087,6.37471 -9.76233,10.65381 -16.95408,11.44018 z m -10.29726,-40.45989 c -4.47201,12.16938 -0.93669,31.20317 6.86442,35.67654 5.61629,3.22394 11.85668,-2.39241 16.22625,-8.0087 -0.79165,-8.16304 -0.79165,-16.3833 0,-24.54629 0,-3.01644 0,-6.24038 0.62404,-9.36057 z" id="path441"/><path style="fill:#f6d2a2;stroke-width:1.33057" d="m 258.7714,418.6188 c -13.09544,1.24672 -22.70082,12.87191 -21.45541,25.96867 0.24088,2.52406 0.88217,4.99361 1.90138,7.31546 10.40106,18.7224 33.49172,-1.66452 47.84591,0 16.53759,0 30.16394,17.47433 43.47759,3.12019 14.76927,-16.0174 -6.34413,-31.20316 -22.88307,-38.58777 z" id="path442"/><path style="fill:#231f20;stroke-width:1.33057" d="m 318.78664,462.92803 c -5.28766,-0.44054 -10.4423,-1.88811 -15.18577,-4.26447 -5.14398,-2.54006 -10.71773,-4.09153 -16.43384,-4.57717 -5.95696,-0.003 -11.84471,1.27468 -17.26543,3.74423 -11.64913,4.05687 -24.85899,8.63268 -32.34744,-4.78472 -3.77747,-6.79124 -3.77747,-15.05139 0,-21.84259 4.10349,-7.9395 11.91657,-13.29238 20.80211,-14.24908 l 50.02931,-2.18476 c 12.27317,5.20115 26.31466,14.66552 28.70701,25.69057 1.46231,10.87342 -6.16721,20.87528 -17.04058,22.33759 -0.42042,0.0583 -0.84224,0.10108 -1.26537,0.13025 z m -31.20448,-12.58587 c 6.14991,0.49887 12.14941,2.15821 17.68192,4.88851 9.36052,3.95177 16.74654,6.96821 24.23495,-1.14428 3.47543,-3.19336 5.08278,-7.93815 4.26447,-12.58582 -2.07966,-9.56947 -15.28956,-18.30596 -26.10706,-22.88313 l -48.3661,1.97592 c -7.55766,0.92607 -14.17189,5.51787 -17.68192,12.27317 -3.12819,5.66421 -3.12819,12.53789 0,18.20216 5.92899,10.401 16.53764,6.96816 27.87538,3.12014 5.69349,-2.54534 11.862,-3.85728 18.09836,-3.84667 z" id="path443"/><path style="fill:#010101;stroke-width:1.33057" d="m 256.37905,417.89097 c -1.14428,-26.00327 48.57369,-29.331 54.39758,-7.48841 5.82519,21.84259 -52.00523,26.83485 -54.39758,7.48841 z" id="path444"/><path style="fill:#010101;stroke-width:1.33057" d="m 525.66592,619.77795 h -1.97591 c -2.9126,-0.92608 -5.45934,-2.74629 -7.28086,-5.20121 -0.63204,-0.83294 -0.4682,-2.01976 0.36459,-2.6518 0.83289,-0.63203 2.01977,-0.46819 2.6518,0.3646 1.52884,1.65924 3.52336,2.81815 5.72009,3.32779 h 1.24808 c 1.1483,0.20115 1.91737,1.29595 1.71647,2.44425 -0.20116,1.14961 -1.29601,1.91732 -2.44426,1.71642 z" id="path445"/><path id="path446" style="fill:#010101;stroke-width:1.33057" d="m 279.26315,260.72996 c -50.44581,3.95178 -84.77058,11.85583 -112.85351,25.58593 -34.99391,16.60015 -61.40966,47.1301 -72.808597,84.14649 -17.474326,52.11033 -12.897564,105.88213 -8.529297,157.88867 3.044355,28.94779 4.294958,58.05862 3.744141,87.16211 -0.282995,7.46801 -0.749864,15.21307 -1.31836,23.20117 h 3.759766 c 0.598862,-8.23503 1.115999,-16.21028 1.40625,-23.92773 0.561479,-29.24189 -0.689175,-58.49063 -3.744141,-87.57813 -4.26447,-51.27875 -8.839644,-104.63704 8.425781,-156.01953 28.084287,-83.72863 104.426857,-100.57755 182.748047,-107.23438 35.47025,-1.26135 70.89534,3.55698 104.73828,14.24805 33.19502,11.7223 60.43819,36.04742 75.82617,67.71094 23.9223,58.24686 24.54493,121.90104 24.54493,183.06055 0,23.09067 0.52173,47.01523 1.66601,69.68945 0.41513,6.96817 1.35156,14.14491 1.35156,21.42578 0.39976,6.13952 0.80271,12.3539 1.1836,18.625 h 4.03125 c -0.37245,-6.12983 -0.76591,-12.20322 -1.1543,-18.20508 -0.52029,-7.17712 -1.35156,-14.35446 -1.35156,-21.42773 -1.66452,-23.29957 -1.66406,-47.11641 -1.66406,-70.20703 -0.4165,-61.57601 -0.72823,-125.23214 -24.85938,-184.51953 -37.6524,-73.74539 -110.87832,-84.14529 -185.14258,-83.625 z"/><path style="fill:#547ea8;fill-opacity:1;stroke:none;stroke-width:3.07702;stroke-dasharray:none" d="m 182.49643,261.93735 c 2.13538,9.98541 6.80784,12.39507 11.18733,15.81413 9.88503,7.71712 18.11078,7.85677 23.32637,8.88514 16.20105,3.19457 39.87055,5.24013 67.22373,5.24013 34.27619,0 49.90083,-1.98693 67.03263,-4.47689 11.7731,-1.71341 19.17415,-3.98195 24.56042,-7.0597 5.43108,-3.10364 8.58416,-6.37822 11.57345,-10.78315 3.00925,-4.43445 4.64556,-11.70822 5.04179,-18.76082 0.46065,-8.20946 -3.01901,-16.12512 -4.11989,-13.66975 -3.45014,7.69519 -6.99819,10.25034 -15.48398,14.25501 -9.24949,4.36505 -15.51441,5.80674 -15.51441,5.80674 0,0 -12.28795,-114.32415 -16.1926,-124.65289 -2.07187,-5.48051 -6.69646,-5.59668 -8.56586,-5.78994 -2.93417,-0.30325 -7.22127,1.65446 -12.35881,4.20729 -11.61252,5.77023 -21.40774,7.37762 -34.6177,7.8876 -10.07865,0.38924 -18.84878,-0.65708 -31.77646,-4.38612 -8.93839,-2.57832 -8.73251,-3.84994 -13.91617,-5.79794 -1.83942,-0.69192 -7.32054,-1.9043 -9.46889,-0.16947 -2.33236,1.88398 -4.51818,6.5568 -5.09942,10.14689 -1.80468,11.14901 -12.81499,102.33492 -14.77632,115.7833 0,0 -5.91133,-1.31426 -11.23203,-4.4262 -3.10857,-1.81821 -6.58974,-5.06191 -8.60915,-7.45592 -2.45979,-2.91622 -2.91878,-7.7904 -3.947,-6.11934 -4.87754,7.92703 -6.06064,17.13472 -4.26703,25.5221 z" id="path447"/><path style="fill:#ffeb82;fill-opacity:1;stroke:none;stroke-width:3.07702;stroke-dasharray:none" d="m 286.66363,165.72297 6.45567,13.8259 15.73477,1.60493 -11.82594,10.48449 2.61639,14.57374 -12.28287,-7.75132 -12.13734,7.14292 1.63072,-13.13789 -10.39939,-11.58441 14.05944,-0.74619 z" id="path448"/><path style="fill:#38638e;fill-opacity:1;stroke:none;stroke-width:3.07702;stroke-dasharray:none" d="m 213.83854,229.00288 -3.2869,25.41413 c 0,0 17.8087,4.88463 27.85276,6.37767 15.82353,2.35212 35.51143,3.96982 51.50902,3.96228 12.82499,-0.0101 30.86356,-1.93885 43.5845,-3.56626 9.17245,-1.17656 23.82595,-4.00251 23.82595,-4.00251 l -3.0963,-27.95584 c 0,0 -18.01896,4.48307 -30.23912,5.80774 -10.18135,1.10284 -28.98552,2.30314 -39.226,2.17918 -10.51597,-0.13628 -23.64506,-1.03123 -34.07513,-2.37752 -13.1654,-1.69982 -36.84878,-5.83887 -36.84878,-5.83887 z" id="path449"/><path d="m -325.73127,321.73376 c -0.67352,0.69491 -1.86138,2.31407 -1.86138,2.31407 0.71819,1.68906 0.6976,3.77124 -0.30851,5.72264 -0.4505,1.1087 -0.81605,2.64534 -0.81235,3.41478 0.0155,3.02363 2.19903,5.72502 5.37279,6.64766 0.97503,0.28344 2.33823,0.94096 3.02928,1.46089 0.69104,0.51992 1.29444,0.9555 1.341,0.9679 0.0466,0.0123 0.68617,-0.4133 1.4211,-0.94568 0.73492,-0.53236 2.13371,-1.19978 3.10834,-1.48311 3.17306,-0.92243 5.35617,-3.62429 5.37176,-6.64766 0.004,-0.76944 -0.36132,-2.30608 -0.81183,-3.41478 -1.64033,-4.03689 -0.31729,-5.82651 -0.31729,-5.82651 -0.47465,-0.85302 -1.16865,-1.52325 -1.8526,-2.2102 l -1.1958,0.60978 c -1.45643,0.74255 -3.82204,0.61069 -4.91649,0.0997 l -0.74104,-0.34623 -0.71521,0.34623 c -1.08723,0.52613 -3.45954,0.64279 -4.91597,-0.0997 z" id="path450" style="fill:#f9c436;fill-opacity:1" transform="matrix(5.0289158,0,0,5.0289158,1785.5568,-1098.6043)"/><path id="path451" style="fill:#f9c436;fill-opacity:1;stroke-width:1.23832" d="m -299.27294,321.73376 c -0.67352,0.69491 -1.86138,2.31407 -1.86138,2.31407 0.71819,1.68906 0.6976,3.77124 -0.30851,5.72264 -0.4505,1.1087 -0.81605,2.64534 -0.81235,3.41478 0.0155,3.02363 2.19903,5.72502 5.37279,6.64766 0.97503,0.28344 2.33823,0.94096 3.02928,1.46089 0.69104,0.51992 1.29444,0.9555 1.341,0.9679 0.0466,0.0123 0.68617,-0.4133 1.4211,-0.94568 0.73492,-0.53236 2.13371,-1.19978 3.10834,-1.48311 3.17306,-0.92243 5.35617,-3.62429 5.37176,-6.64766 0.004,-0.76944 -0.36132,-2.30608 -0.81183,-3.41478 -1.64033,-4.03689 -0.31729,-5.82651 -0.31729,-5.82651 -0.47465,-0.85302 -1.16865,-1.52325 -1.8526,-2.2102 l -1.1958,0.60978 c -1.45643,0.74255 -3.82204,0.61069 -4.91649,0.0997 l -0.74104,-0.34623 -0.71521,0.34623 c -1.08723,0.52613 -3.45954,0.64279 -4.91597,-0.0997 z" transform="matrix(5.0289158,0,0,5.0289158,1652.5001,-1098.6043)"/><path id="path452" style="fill:#e2a827;fill-opacity:1;stroke-width:6.22741" d="m 147.48182,519.36769 c -3.38707,3.49464 -9.36072,11.63726 -9.36072,11.63726 3.61171,8.49414 3.50817,18.96525 -1.55147,28.77868 -2.26553,5.57556 -4.10385,13.30319 -4.08524,17.17264 0.0779,15.20558 11.05873,28.79064 27.01931,33.43052 4.90334,1.4254 11.75876,4.73201 15.23399,7.34669 3.47518,2.61464 6.50963,4.80513 6.74378,4.86749 0.23434,0.0619 3.45069,-2.07845 7.14659,-4.75574 3.69585,-2.6772 10.73025,-6.0336 15.63158,-7.45844 15.95705,-4.63882 26.93573,-18.22625 27.01413,-33.43052 0.0201,-3.86945 -1.81705,-11.59708 -4.08263,-17.17264 -8.24908,-20.30118 -1.59562,-29.30103 -1.59562,-29.30103 -2.38698,-4.28977 -5.87705,-7.6603 -9.31657,-11.11491 l -6.01358,3.06653 c -7.32426,3.73422 -19.22072,3.07111 -24.72461,0.50138 l -3.72663,-1.74116 -3.59673,1.74116 c -5.46759,2.64587 -17.39774,3.23254 -24.722,-0.50138 z m 34.23354,11.01353 c 0,0 4.22178,1.84908 7.58838,2.9574 6.03349,1.98632 8.73085,2.08036 14.41534,0.50415 10.33186,-2.86452 12.0172,-2.87951 11.29424,-0.1041 -1.85864,7.13608 -0.37667,18.29947 3.81499,28.72934 7.85159,19.53648 2.88785,32.2437 -15.10923,38.67744 -9.42198,3.36822 -7.9211,3.45391 -22.41433,9.62062 -4.65301,-1.96812 -9.74166,-5.51028 -21.26568,-9.62585 -17.99627,-6.427 -22.96132,-19.13452 -15.10922,-38.67221 4.19135,-10.42987 5.67367,-21.59326 3.81498,-28.72934 -0.72285,-2.77581 0.96239,-2.76082 11.29424,0.1041 5.68444,1.57636 8.38441,1.48212 14.41796,-0.50415 3.19451,-1.0517 7.25833,-2.9574 7.25833,-2.9574 z m 1.13307,14.83635 c -7.67846,-0.30978 -15.44788,2.97255 -21.30209,9.9299 -11.30012,13.42937 -4.33583,36.00437 12.67936,41.10203 7.11475,2.13151 15.56504,0.63078 22.7236,-4.03847 11.05376,-7.20985 14.38537,-24.92114 6.65286,-35.3666 -5.48922,-7.41504 -13.07528,-11.31702 -20.75373,-11.62686 z m -1.08892,8.34463 5.35867,10.89143 13.06401,1.26558 -9.81815,8.25888 2.17259,11.48137 -10.19758,-6.10711 -10.078,5.6263 1.35398,-10.34826 -8.6357,-9.12687 11.67362,-0.58733 z"/></g></svg>