<svg xmlns="http://www.w3.org/2000/svg" xmlns:xlink="http://www.w3.org/1999/xlink" xml:space="preserve" viewBox="0 0 512 512"><defs><path id="a" d="M0 0h512v512H0z"/></defs><clipPath id="b"><use xlink:href="#a" style="overflow:visible"/></clipPath><g style="clip-path:url(#b)"><path d="M441.6 0H70.4C32 0 0 32 0 70.4v371.2C0 480 32 512 70.4 512h371.2c38.4 0 70.4-32 70.4-70.4V70.4C512 32 480 0 441.6 0" style="fill:#3e63dd"/><path d="M243.2 406.4v-60.8c0-3.2 0-6.4-3.2-9.6l-64-64c-3.2-3.2-3.2-3.2-6.4-3.2h-64c6.4-16 12.8-32 25.6-44.8 9.6-12.8 19.2-19.2 35.2-22.4H208c3.2 0 3.2 0 6.4-3.2 25.6-32 57.6-57.6 99.2-76.8 22.4-9.6 44.8-16 70.4-16h28.8v41.6c0 22.4-9.6 44.8-19.2 64-16 35.2-41.6 64-70.4 86.4-3.2 0-3.2 3.2-3.2 6.4v32c0 16-6.4 32-19.2 41.6-6.4 6.4-12.8 9.6-22.4 12.8-16 6.4-25.6 9.6-35.2 16m92.8-208c0-12.8-9.6-22.4-22.4-22.4s-25.6 9.6-25.6 22.4 12.8 25.6 25.6 25.6 22.4-12.8 22.4-25.6m-144 160c-19.2 22.4-44.8 32-73.6 38.4 3.2-32 9.6-57.6 35.2-76.8z" style="fill:#fdfdfe"/></g></svg>