<svg xmlns="http://www.w3.org/2000/svg" xml:space="preserve" id="Calque_1" x="0" y="0" version="1.1" viewBox="0 9.18 512.1 493.73"><style>.st0{fill:#ffc3b8}.st1{opacity:.5;fill:#fd9a95;enable-background:new}.st2{fill:#318bc3}.st4{fill:#fff}.st5{fill:#1b1a44}</style><path d="M45 53.1h-8.6C16.3 53.1 0 69.4 0 89.4v94.4c0 20.1 16.3 36.4 36.4 36.4H45v8.4c0 16.8 13.6 30.4 30.4 30.4h108.5V53.1zm430.6 0H328.2V259h108.5c16.8 0 30.4-13.6 30.4-30.4v-8.4h8.6c20.1 0 36.4-16.3 36.4-36.4V89.4c-.1-20-16.4-36.3-36.5-36.3" class="st0"/><path d="M45 53.1h-8.6C16.3 53.1 0 69.4 0 89.4v94.4c0 20.1 16.3 36.4 36.4 36.4H45v8.4c0 16.8 13.6 30.4 30.4 30.4h108.5V53.1zm430.6 0H328.2V259h108.5c16.8 0 30.4-13.6 30.4-30.4v-8.4h8.6c20.1 0 36.4-16.3 36.4-36.4V89.4c-.1-20-16.4-36.3-36.5-36.3" class="st1"/><path d="m344 84.4-51.6-51.6c-5.8-5.8-15.2-5.8-21 0l-5 5L241.6 13c-5.1-5.1-13.3-5.1-18.4 0L169 67.2c-5.1 5.1-5.1 13.3 0 18.4l54.2 54.2c5.1 5.1 13.3 5.1 18.4 0l6.3-6.3 23.5 23.5c5.8 5.8 15.2 5.8 21 0l51.6-51.6c5.8-5.8 5.8-15.2 0-21" class="st0"/><path d="M345.1 502.8H169.5c-29.9 0-54.1-24.2-54.1-54.1l-.1-341c0-29.9 24.2-54.1 54.1-54.1H345c29.9 0 54.1 24.2 54.1 54.1l.1 341c0 29.9-24.3 54.1-54.1 54.1" class="st0"/><path d="M115.3 386.3v62.4c0 29.9 24.2 54.1 54.1 54.1H345c29.9 0 54.1-24.2 54.1-54.1v-62.4z" class="st2"/><path d="M115.3 259h283.8v127.3H115.3z" style="fill:#79cde3"/><path d="m257.3 358 73.5-99h-147z" class="st4"/><path d="m257.3 294.7 36.6-35.7h-73.2z" class="st2"/><ellipse cx="202.8" cy="163.4" class="st5" rx="20.4" ry="27.8"/><ellipse cx="152" cy="212.2" class="st1" rx="25.2" ry="18.3"/><path d="m186.9 216 .9 24.9c.3 8.1 7.1 14.4 15.2 14.1 1.4 0 2.7-.3 4-.7l6.5-2.1c7.7-2.5 12-10.7 9.5-18.4q-.6-1.95-1.8-3.6l-13.8-20.8c-6.3-9.3-20.9-4.6-20.5 6.6m140.6 0-.9 24.9c-.3 8.1-7.1 14.4-15.2 14.1-1.4 0-2.7-.3-4-.7l-6.5-2.1c-7.7-2.5-12-10.7-9.5-18.4q.6-1.95 1.8-3.6l13.8-20.8c6.3-9.3 20.9-4.6 20.5 6.6" class="st4"/><ellipse cx="311.6" cy="163.4" class="st5" rx="20.4" ry="27.8"/><ellipse cx="362.4" cy="212.2" class="st1" rx="25.2" ry="18.3"/><path d="m257.3 274.8-31.1 41.6 31.1 41.6 31-41.6z" class="st2"/><circle cx="179.7" cy="444.6" r="58.3" class="st0"/><circle cx="332.7" cy="444.6" r="58.3" class="st0"/><circle cx="201.6" cy="343" r="43.3" class="st0"/><circle cx="312.9" cy="343" r="43.3" class="st0"/><path d="M179.7 409.5c11 0 20.6-7.8 22.8-18.6-14.5-6.2-31-6.2-45.5 0 2.1 10.8 11.6 18.6 22.7 18.6M152.8 422c7.1-8.5 7.3-20.7.4-29.4-14.1 7.2-24.6 19.8-29.3 34.9 9.7 5.3 21.8 3 28.9-5.5m53.3-29.4c-8 10-6.3 24.7 3.7 32.6 7.3 5.8 17.3 6.7 25.5 2.2-4.5-15-15.1-27.6-29.2-34.8m-4.5-75.7c8.2 0 15.3-5.8 16.9-13.8-10.8-4.6-23-4.6-33.8 0 1.6 8 8.7 13.8 16.9 13.8m-20 9.3c5.3-6.3 5.4-15.4.3-21.8-10.5 5.3-18.3 14.7-21.7 25.9 7.2 3.9 16.1 2.2 21.4-4.1m39.7-21.8c-5.9 7.5-4.7 18.3 2.8 24.3 5.4 4.3 12.9 5 19 1.7-3.5-11.3-11.4-20.7-21.8-26m91.6 12.5c-8.2 0-15.3-5.8-16.9-13.8 10.8-4.6 23-4.6 33.8 0-1.6 8-8.7 13.8-16.9 13.8m19.9 9.3c-5.3-6.3-5.4-15.4-.3-21.8 10.5 5.3 18.3 14.7 21.7 25.9-7.1 3.9-16.1 2.2-21.4-4.1m-39.6-21.8c5.9 7.5 4.7 18.3-2.8 24.3-5.4 4.3-12.9 5-19 1.7 3.5-11.3 11.3-20.7 21.8-26m39.5 105.1c11 0 20.6-7.8 22.8-18.6-14.5-6.2-31-6.2-45.5 0 2.2 10.8 11.7 18.6 22.7 18.6M305.9 422c7.1-8.5 7.3-20.7.4-29.4-14.1 7.2-24.6 19.8-29.3 34.9 9.7 5.3 21.8 3 28.9-5.5m53.3-29.4c-8 10-6.3 24.7 3.7 32.6 7.3 5.8 17.3 6.7 25.5 2.2-4.6-15-15.1-27.6-29.2-34.8" class="st4"/><path d="M291.2 163.4c0 123.5 77.5 102.6 78.1 107.4s0 21.1 0 26-166.5 40.1-146.1-133.4z" class="st0"/><linearGradient id="SVGID_1_" x1="680.159" x2="680.159" y1="-76.681" y2="-166.87" gradientTransform="matrix(1 0 0 -1 -384.65 93.66)" gradientUnits="userSpaceOnUse"><stop offset="0" style="stop-color:#fd9a95;stop-opacity:0"/><stop offset="1" style="stop-color:#fd9a95"/></linearGradient><path d="M291.2 163.4c0 123.5 77.5 102.6 78.1 107.4s0 21.1 0 26-166.5 40.1-146.1-133.4z" style="opacity:.5;fill:url(#SVGID_1_)"/></svg>