<svg xmlns="http://www.w3.org/2000/svg" xml:space="preserve" viewBox="28.1 0.03 455.8 512.05"><linearGradient id="a" x1="-703.648" x2="-702.748" y1="88.326" y2="88.326" gradientTransform="matrix(-123.1042 -544.0433 611.0961 -138.2768 -140291.61 -370126.344)" gradientUnits="userSpaceOnUse"><stop offset="0" style="stop-color:#f76237"/><stop offset="1" style="stop-color:#ff754f"/></linearGradient><path d="m285.4 7.9 167.4 96.7c19.3 11.1 31.1 31.7 31.1 53.9v191.3c0 22.2-11.9 42.8-31.1 53.9L273 507.5c-10.5 6.1-23.4 6.1-33.9 0L59.2 403.6a62.24 62.24 0 0 1-31.1-53.9V158.4c0-22.2 11.9-42.8 31.1-53.9L226.6 7.9c18.2-10.5 40.6-10.5 58.8 0" style="fill-rule:evenodd;clip-rule:evenodd;fill:url(#a)"/><linearGradient id="b" x1="-706.733" x2="-705.833" y1="91.828" y2="91.828" gradientTransform="rotate(-90 -65313.881 -50472.158)scale(164.4193)" gradientUnits="userSpaceOnUse"><stop offset="0" style="stop-color:#fff;stop-opacity:.5"/><stop offset="1" style="stop-color:#fff;stop-opacity:.38"/></linearGradient><path d="m274.9 250.2 137.5 77c8 4.3 10.9 14.3 6.6 22.2-1.5 2.8-3.8 5.1-6.6 6.6l-137.5 77c-11.4 6.4-25.3 6.4-36.7 0l-137.5-77c-8-4.3-10.9-14.3-6.6-22.2 1.5-2.8 3.8-5.1 6.6-6.6l137.5-77c11.3-6.4 25.2-6.4 36.7 0" style="fill-rule:evenodd;clip-rule:evenodd;fill:url(#b)"/><linearGradient id="c" x1="-707.417" x2="-706.518" y1="92.349" y2="92.349" gradientTransform="rotate(-90.211 -58045.335 -44658.577)scale(145.9394)" gradientUnits="userSpaceOnUse"><stop offset="0" style="stop-color:#fff;stop-opacity:.75"/><stop offset="1" style="stop-color:#fff;stop-opacity:.56"/></linearGradient><path d="m274.9 164.6 137.5 77c7.9 4.3 10.9 14.3 6.6 22.2-1.5 2.8-3.8 5.1-6.6 6.6l-137.5 77c-11.4 6.4-25.3 6.4-36.7 0l-137.5-77c-7.9-4.3-10.9-14.3-6.6-22.2 1.5-2.8 3.8-5.1 6.6-6.6l137.5-77c11.3-6.4 25.2-6.4 36.7 0" style="fill-rule:evenodd;clip-rule:evenodd;fill:url(#c)"/><linearGradient id="d" x1="-707.428" x2="-706.528" y1="92.332" y2="92.332" gradientTransform="rotate(-90 -58509.23 -45198.309)scale(146.9314)" gradientUnits="userSpaceOnUse"><stop offset="0" style="stop-color:#fff"/><stop offset="1" style="stop-color:#fff;stop-opacity:.75"/></linearGradient><path d="m273.9 79 137.5 77c7.9 4.3 10.9 14.3 6.6 22.2-1.5 2.8-3.8 5.1-6.6 6.6l-137.5 77c-11.4 6.4-25.3 6.4-36.7 0l-137.5-77c-7.9-4.3-10.9-14.3-6.6-22.2 1.5-2.8 3.8-5.1 6.6-6.6l137.5-77c11.4-6.4 25.3-6.4 36.7 0" style="fill-rule:evenodd;clip-rule:evenodd;fill:url(#d)"/></svg>