<svg xmlns="http://www.w3.org/2000/svg" xml:space="preserve" viewBox="0 0 512 512"><g transform="scale(.46875)"><circle cx="546.1" cy="546.1" r="527" style="fill:#191919"/><circle cx="509" cy="567.6" r="20.1" fill="#dbdbdb" transform="rotate(-30 508.975 567.592)"/><path fill="#dbdbdb" d="m640.5 398.8-53.5 68c12.5 9.8 25 21.8 33.4 36.4s12.6 31.4 14.8 47.1l85.7-12.3c-3.7-26.8-11.9-52.8-26.3-77.7-14.3-24.7-32.7-45-54.1-61.5m103.4-137-53.5 68c30.3 23.3 58.2 52.6 78.5 87.7s31.7 74 36.7 111.8l85.7-12.3c-6.4-48.9-22-97-48.2-142.4s-60-82.9-99.2-112.8M483.4 780.4c-53.1 30.6-118.4 30.6-171.5 0s-85.7-87.2-85.7-148.5 32.7-117.9 85.7-148.5l85.7 148.5z"/><path fill="#dbdbdb" d="M273.1 73.3C11.9 224-77.5 558 73.3 819.2 224 1080.3 558 1169.8 819.2 1019s350.7-484.7 199.9-745.9C868.2 11.9 534.3-77.5 273.1 73.3m32.1 55.6c230.5-133 525.1-54.1 658.2 176.3 133 230.5 54.1 525.1-176.3 658.2-230.5 133-525.1 54.1-658.2-176.3C-4.2 556.6 74.8 261.9 305.2 128.9"/></g></svg>