<svg xmlns="http://www.w3.org/2000/svg" xml:space="preserve" id="Layer_1" x="0" y="0" version="1.1" viewBox="0 82.54 512 346.92"><style>.st0{fill:#53bcea}.st1{fill:#3793d3}.st2{fill:#adadad}</style><path d="M194.39 111.37c-27.63 15.79-50.36 28.95-50.6 29.07-.48.6 43.78 25.84 45.22 25.84.6 0 13.64-7.06 28.71-15.67l27.51-15.79v-26.08c0-14.47-.12-26.2-.36-26.2-.11 0-22.84 12.92-50.48 28.83" class="st0"/><path d="M265.57 108.26v25.72l4.55 2.87c9.21 5.98 50.72 29.43 52.04 29.43 1.44 0 42.35-23.09 44.26-25 .72-.72-98.21-58.74-100.25-58.74-.36 0-.6 11.61-.6 25.72" class="st1"/><path d="M233.15 165.44c-11.48 6.7-21.17 12.68-21.29 13.4-.48 1.44 41.87 25.84 44.26 25.36 2.51-.36 44.02-23.93 44.14-25 0-.96-43.54-26.08-44.98-25.96-.6 0-10.52 5.62-22.13 12.2" class="st2"/><path d="M60.77 188.17c-27.51 15.79-49.64 29.19-49.05 29.67 1.91 2.03 42.83 25 44.26 25 1.67 0 50.96-27.99 54.43-30.86 1.79-1.67 2.03-4.55 2.03-27.39 0-14-.36-25.48-.84-25.36-.59-.01-23.44 13.03-50.83 28.94" class="st0"/><path d="M132.79 185.06v26.2l27.39 15.79c15.19 8.73 28.11 15.79 28.95 15.79 1.32 0 39.48-21.29 43.42-24.28 1.56-1.2-4.9-5.38-40.79-25.96-23.45-13.52-46.3-26.56-50.84-29.07l-8.13-4.67z" class="st1"/><path d="M328.01 187.69c-27.16 15.79-49.53 29.07-49.53 29.55-.12.6 9.81 6.82 21.89 13.88l22.02 12.68 3.59-2.15c2.03-1.2 14.12-8.13 26.92-15.55s24.04-14 24.88-14.59c1.08-.96 1.44-7.78 1.44-26.8 0-14.12-.36-25.6-.84-25.48-.6-.01-23.21 12.79-50.37 28.46" class="st0"/><path d="M399.55 185.18v26.32l26.44 15.19c14.59 8.37 27.51 15.55 28.59 15.79 1.79.48 47.49-24.52 46.41-25.36-.24-.24-89.24-51.2-100.49-57.66-.59-.24-.95 11.37-.95 25.72" class="st1"/><path d="M99.53 242.48c-17.71 10.29-21.65 12.92-20.34 14.12 2.15 2.15 41.99 24.88 43.42 24.88 1.32 0 41.03-22.73 43.42-24.88 1.08-.96-3.47-4.19-20.22-13.76-11.96-6.94-22.37-12.68-23.09-12.8-.7-.12-11.11 5.5-23.19 12.44m267.12-.24c-11.84 6.82-21.65 12.8-21.77 13.4-.24.48 9.69 6.7 22.01 13.64l22.25 12.68 21.66-12.44c11.96-6.94 22.01-12.92 22.61-13.4.72-.72-42.83-26.44-44.62-26.44-.36 0-10.29 5.62-22.14 12.56" class="st2"/><path d="m.24 261.98.36 26.44 55.03 31.7c30.26 17.35 55.38 31.58 55.86 31.58.6 0 .84-11.72.72-25.96l-.36-25.96-49.64-28.47c-27.28-15.79-52.52-30.26-55.99-32.18L0 235.42z" class="st1"/><path d="m455.42 267.6-55.75 32.06-.12 25.96c0 14.36.36 26.08.72 26.08s25.72-14.36 56.22-31.94L512 287.94v-26.2c0-14.36-.12-26.08-.36-26.08-.12 0-25.48 14.36-56.22 31.94m-261.27-2.27c-27.04 15.55-49.53 28.59-49.88 28.95-.24.36 9.69 6.46 22.13 13.64l22.73 12.92 27.99-15.91 27.99-16.03.12-26.08c0-14.24-.36-25.96-.84-25.96-.59 0-23.08 12.8-50.24 28.47" class="st0"/><path d="M265.57 261.86v25.12l3.35 2.27c1.79 1.2 14.59 8.85 28.59 16.75l25.36 14.6 22.25-12.8c17.59-10.05 21.89-13.04 20.7-14.12-2.15-2.03-97.85-56.82-99.17-56.82-.6 0-1.08 10.77-1.08 25" class="st1"/><path d="M233.27 319.52c-11.48 6.58-21.29 12.44-21.77 12.92-.72.6 38.52 24.28 43.54 26.2 1.2.48 45.22-24.76 45.22-25.84-.12-1.2-42.59-25.36-44.5-25.36-.84 0-11 5.38-22.49 12.08" class="st2"/><path d="m133.02 339.38.36 26.08 51.44 29.67c28.35 16.27 53.47 30.74 55.99 32.06l4.43 2.27v-52.28l-55.39-31.94c-30.5-17.47-55.87-31.82-56.34-31.82-.37 0-.61 11.72-.49 25.96" class="st1"/><path d="M324.19 343.69c-28.71 16.63-53.59 31.1-55.39 32.3l-3.23 2.03v25.72c0 14.12.24 25.72.6 25.72s25.72-14.36 56.22-31.94l55.63-32.06V339.5c0-14.36-.36-26.08-.84-25.96-.6 0-24.4 13.64-52.99 30.15" class="st0"/></svg>