<svg xmlns="http://www.w3.org/2000/svg" xmlns:xlink="http://www.w3.org/1999/xlink" xmlns:serif="http://www.serif.com/" version="1.1" xml:space="preserve" style="fill-rule:evenodd;clip-rule:evenodd;stroke-linejoin:round;stroke-miterlimit:2;" viewBox="0 0 453.27 513.08">
    <g id="full-rgb" transform="matrix(7.21127,0,0,7.21127,0,0)">
        <g id="logoMark">
            <path id="logoMark_PathItem_" d="M28.961,9.106L7.388,24.743L10.188,52.475L28.961,61.418L51.306,47.445L51.306,19.963L28.961,9.106Z" style="fill:white;fill-rule:nonzero;"/>
            <path id="logoMark_CompoundPathItem_" d="M51.304,47.443L32.538,58.269L28.958,58.269L10.192,47.433L10.192,25.772L11.977,22.668L28.958,12.87L32.538,12.87L49.508,22.668L51.304,25.771L51.304,25.159L62.856,18.485L30.805,0L0,17.78L0,53.36L30.805,71.15L62.535,52.83L51.304,44.63L51.304,47.443Z" style="fill:rgb(0,149,213);fill-rule:nonzero;"/>
            <path id="logoMark_PathItem_2" d="M38.403,29.124L30.816,33.504L23.218,29.124L30.816,24.744L38.403,29.124Z" style="fill:rgb(174,173,174);fill-rule:nonzero;"/>
            <path id="logoMark_CompoundPathItem_2" d="M32.539,49.519L51.304,38.683L51.304,34.542L32.539,45.367L32.539,49.519ZM49.509,22.668L41.921,27.058L32.964,21.879L32.539,21.64L32.539,25.74L38.403,29.124L32.539,32.508L32.539,36.608L51.304,25.772L49.509,22.668ZM10.193,38.683L18.662,43.572L18.703,43.593L28.958,49.519L28.958,45.367L10.193,34.532L10.193,38.683ZM19.565,27.059L11.978,22.669L10.193,25.772L18.662,30.671L18.703,30.692L28.958,36.608L28.958,32.435L23.218,29.124L28.958,25.813L28.958,21.641L28.262,22.045L19.565,27.059Z" style="fill:rgb(0,149,213);fill-rule:nonzero;"/>
            <path id="logoMark_PathItem_3" d="M32.539,12.87L32.539,25.74L30.816,24.744L28.958,25.813L28.958,12.87L32.539,12.87Z" style="fill:rgb(0,149,213);fill-rule:nonzero;"/>
            <path id="logoMark_PathItem_4" d="M32.539,32.508L32.539,58.269L28.958,58.269L28.958,32.435L30.816,33.504L32.539,32.508Z" style="fill:rgb(0,149,213);fill-rule:nonzero;"/>
            <path id="logoMark_PathItem_5" d="M0,17.78L11.977,22.668L28.958,12.87L32.539,12.87L49.509,22.668L51.304,25.159L62.856,18.485L30.805,0L0,17.78Z" style="fill:rgb(49,190,236);fill-rule:nonzero;"/>
            <path id="logoMark_PathItem_6" d="M0,53.359L10.192,47.433L10.192,25.772L11.977,22.668L0,17.78L0,53.359Z" style="fill:rgb(49,190,236);fill-rule:nonzero;"/>
        </g>
        <g id="type">
        </g>
    </g>
</svg>