<svg xmlns="http://www.w3.org/2000/svg" xml:space="preserve" id="Layer_1" x="0" y="0" version="1.1" viewBox="0 0 512 512"><style>.st0{fill:#011627}</style><path d="M206.702 140.222c-20.611-11.827-37.306-2.143-37.306 21.616v175.313c0 23.786 16.695 33.444 37.306 21.643l153.194-87.868c20.61-11.827 20.61-30.983 0-42.81z" class="st0"/><path d="M253.904.02C201.7.441 150.478 17.031 107.51 47.564 57.82 82.807 22.367 135.01 7.656 194.038-9.727 263.888 2.84 336.41 41.814 396.127L3.899 440.762l159.517 28.972-54.874-152.453-35.27 41.698c-26.22-46.487-33.76-100.78-20.637-153.51 12.065-48.446 41.116-91.23 81.81-120.095 40.11-28.522 89.19-42.148 138.244-38.312l3.625-46.25c-7.488-.581-14.95-.872-22.41-.793m94.615 42.254 54.874 152.453 35.27-41.698c26.22 46.487 33.76 100.78 20.637 153.51-12.065 48.446-41.117 91.23-81.81 120.095-40.11 28.549-89.19 42.148-138.244 38.312l-3.625 46.25c59.796 4.841 119.671-11.828 168.804-46.726 49.689-35.243 85.143-87.445 99.907-146.712 17.383-69.85 4.815-142.372-34.158-202.088l37.915-44.662z" class="st0"/></svg>