<svg width="155" height="155" viewBox="0 0 155 155" fill="none" xmlns="http://www.w3.org/2000/svg">
<g clip-path="url(#clip0_3754_863)">
<rect width="155" height="155" rx="21.1364" fill="black"/>
<g clip-path="url(#clip1_3754_863)">
<path opacity="0.88" d="M74.0077 118.256L72.1062 125.649" stroke="#C0FF58" stroke-width="0.197872"/>
<path opacity="0.88" d="M90.6064 122.338L82.6427 135.467" stroke="#C0FF58" stroke-width="0.197872"/>
<path opacity="0.88" d="M86.0308 115.073L80.4011 121.097" stroke="#C0FF58" stroke-width="0.197872"/>
<path opacity="0.88" d="M88.9866 115.809L90.3539 120.729" stroke="#C0FF58" stroke-width="0.197872"/>
<path opacity="0.88" d="M76.2437 116.227L85.0195 113.787" stroke="#C0FF58" stroke-width="0.197872"/>
<path opacity="0.88" d="M77.8428 108.017L84.7291 111.004" stroke="#C0FF58" stroke-width="0.197872"/>
<path opacity="0.88" d="M83.4247 102.57L86.5586 109.075" stroke="#C0FF58" stroke-width="0.197872"/>
<path opacity="0.88" d="M98.1759 95.8497L90.4518 109.285" stroke="#C0FF58" stroke-width="0.197872"/>
<path opacity="0.88" d="M43.9222 74.0579L32.0977 78.6498" stroke="#C0FF58" stroke-width="0.197872"/>
<path opacity="0.88" d="M43.4915 61.5074L25.2843 56.4528" stroke="#C0FF58" stroke-width="0.197872"/>
<path opacity="0.88" d="M44.3325 59.6235L36.9376 51.4524" stroke="#C0FF58" stroke-width="0.197872"/>
<path opacity="0.88" d="M60.0538 53.7567L52.7468 50.6013" stroke="#C0FF58" stroke-width="0.197872"/>
<path opacity="0.88" d="M60.2535 55.5393L57.1365 57.7515" stroke="#C0FF58" stroke-width="0.197872"/>
<path opacity="0.88" d="M51.2839 37.1952L44.5696 34.1329" stroke="#C0FF58" stroke-width="0.197872"/>
<path opacity="0.88" d="M52.2148 39.9849L37.2488 49.0284" stroke="#C0FF58" stroke-width="0.197872"/>
<path opacity="0.88" d="M65.6155 34.6537L58.2561 37.1308" stroke="#C0FF58" stroke-width="0.197872"/>
<path opacity="0.88" d="M56.1098 24.4613L54.9858 34.422" stroke="#C0FF58" stroke-width="0.197872"/>
<path opacity="0.88" d="M76.2305 19.0868L66.7048 27.5649" stroke="#C0FF58" stroke-width="0.197872"/>
<path opacity="0.88" d="M69.9176 45.7067L62.7426 53.3373" stroke="#C0FF58" stroke-width="0.197872"/>
<path opacity="0.88" d="M70.6601 42.3508L67.6189 35.6445" stroke="#C0FF58" stroke-width="0.197872"/>
<path opacity="0.88" d="M46.2852 76.1445L44.129 82.3483" stroke="#C0FF58" stroke-width="0.197872"/>
<path opacity="0.88" d="M32.7577 70.8243L30.3425 77.2895" stroke="#C0FF58" stroke-width="0.197872"/>
<path opacity="0.88" d="M27.5544 78.6839L21.3955 75.3427" stroke="#C0FF58" stroke-width="0.197872"/>
<path opacity="0.88" d="M51.3143 67.0494L49.3475 70.1657" stroke="#C0FF58" stroke-width="0.197872"/>
<path opacity="0.88" d="M28.6493 81.9374L26.45 86.2243" stroke="#C0FF58" stroke-width="0.197872"/>
<path opacity="0.88" d="M49.3302 86.446L37.5421 93.4393" stroke="#C0FF58" stroke-width="0.197872"/>
<path opacity="0.88" d="M30.755 104.452L22.4502 95.5742" stroke="#C0FF58" stroke-width="0.197872"/>
<path opacity="0.88" d="M58.4007 103.5L48.8286 107.276" stroke="#C0FF58" stroke-width="0.197872"/>
<path opacity="0.88" d="M48.9131 98.986L46.5032 105.695" stroke="#C0FF58" stroke-width="0.197872"/>
<path opacity="0.88" d="M55.0103 111.121L49.1364 109.869" stroke="#C0FF58" stroke-width="0.197872"/>
<path opacity="0.88" d="M42.2404 108.487L33.3647 106.295" stroke="#C0FF58" stroke-width="0.197872"/>
<path opacity="0.88" d="M42.814 111.282L37.5347 114.275" stroke="#C0FF58" stroke-width="0.197872"/>
<path opacity="0.88" d="M47.1936 112.485L50.4849 128.811" stroke="#C0FF58" stroke-width="0.197872"/>
<path opacity="0.88" d="M103.147 94.0815L113.681 100.746" stroke="#C0FF58" stroke-width="0.197872"/>
<path opacity="0.88" d="M104.945 81.8691L108.559 82.6786" stroke="#C0FF58" stroke-width="0.197872"/>
<path opacity="0.88" d="M108.774 73.1174L121.173 72.4707" stroke="#C0FF58" stroke-width="0.197872"/>
<path opacity="0.88" d="M110.527 60.9885L107.666 71.6672" stroke="#C0FF58" stroke-width="0.197872"/>
<path opacity="0.88" d="M113.029 60.4495L122.061 70.6428" stroke="#C0FF58" stroke-width="0.197872"/>
<path opacity="0.88" d="M114.056 58.4814L125.396 60.8117" stroke="#C0FF58" stroke-width="0.197872"/>
<path opacity="0.88" d="M128.318 61.932L136.103 79.981" stroke="#C0FF58" stroke-width="0.197872"/>
<path opacity="0.88" d="M113.46 56.9168L128.814 50.3494" stroke="#C0FF58" stroke-width="0.197872"/>
<path opacity="0.88" d="M111.778 55.803L112.408 50.019" stroke="#C0FF58" stroke-width="0.197872"/>
<path opacity="0.88" d="M116.994 47.4558L116.149 44.214" stroke="#C0FF58" stroke-width="0.197872"/>
<path opacity="0.88" d="M124.121 43.0618L118.297 48.4324" stroke="#C0FF58" stroke-width="0.197872"/>
<path opacity="0.88" d="M97.0492 54.0005L109.159 57.1397" stroke="#C0FF58" stroke-width="0.197872"/>
<path opacity="0.88" d="M102.287 63.5695L109.166 59.7472" stroke="#C0FF58" stroke-width="0.197872"/>
<path opacity="0.88" d="M102.444 43.2522L110.066 56.196" stroke="#C0FF58" stroke-width="0.197872"/>
<path opacity="0.88" d="M99.8943 43.2955L95.6864 50.4472" stroke="#C0FF58" stroke-width="0.197872"/>
<path opacity="0.88" d="M109.208 28.7767L102.627 38.7502" stroke="#C0FF58" stroke-width="0.197872"/>
<path opacity="0.88" d="M108.571 28.0728L102.204 28.9728" stroke="#C0FF58" stroke-width="0.197872"/>
<path opacity="0.88" d="M100.732 28.1518L99.4076 23.0258" stroke="#C0FF58" stroke-width="0.197872"/>
<path opacity="0.88" d="M111.597 83.7039L116.916 86.0759" stroke="#C0FF58" stroke-width="0.197872"/>
<path opacity="0.88" d="M108.73 90.2888L117.135 87.9021" stroke="#C0FF58" stroke-width="0.197872"/>
<path opacity="0.88" d="M115.982 99.9584L119.694 90.3044" stroke="#C0FF58" stroke-width="0.197872"/>
<path opacity="0.88" d="M117.033 101.779L128.319 104.676" stroke="#C0FF58" stroke-width="0.197872"/>
<path opacity="0.88" d="M98.59 105.22L91.5311 110.651" stroke="#C0FF58" stroke-width="0.197872"/>
<path opacity="0.88" d="M108.929 110.99L91.9171 112.391" stroke="#C0FF58" stroke-width="0.197872"/>
<path opacity="0.88" d="M111.426 124.495L103.915 121.153" stroke="#C0FF58" stroke-width="0.197872"/>
<path opacity="0.88" d="M111.389 61.2075C112.894 61.2075 114.114 59.9761 114.114 58.457C114.114 56.938 112.894 55.7065 111.389 55.7065C109.884 55.7065 108.664 56.938 108.664 58.457C108.664 59.9761 109.884 61.2075 111.389 61.2075Z" fill="#C0FF58"/>
<path opacity="0.88" d="M94.7641 55.5957C96.2691 55.5957 97.4891 54.3642 97.4891 52.8452C97.4891 51.3262 96.2691 50.0947 94.7641 50.0947C93.2591 50.0947 92.0391 51.3262 92.0391 52.8452C92.0391 54.3642 93.2591 55.5957 94.7641 55.5957Z" fill="#C0FF58"/>
<path opacity="0.88" d="M46.1086 64.1262C47.6136 64.1262 48.8336 62.8948 48.8336 61.3757C48.8336 59.8567 47.6136 58.6252 46.1086 58.6252C44.6036 58.6252 43.3835 59.8567 43.3835 61.3757C43.3835 62.8948 44.6036 64.1262 46.1086 64.1262Z" fill="#C0FF58"/>
<path opacity="0.88" d="M29.6666 82.474C31.1716 82.474 32.3916 81.2425 32.3916 79.7235C32.3916 78.2045 31.1716 76.973 29.6666 76.973C28.1616 76.973 26.9415 78.2045 26.9415 79.7235C26.9415 81.2425 28.1616 82.474 29.6666 82.474Z" fill="#C0FF58"/>
<path opacity="0.88" d="M123.846 75.1578C125.351 75.1578 126.571 73.9264 126.571 72.4073C126.571 70.8883 125.351 69.6569 123.846 69.6569C122.341 69.6569 121.121 70.8883 121.121 72.4073C121.121 73.9264 122.341 75.1578 123.846 75.1578Z" fill="#C0FF58"/>
<path opacity="0.88" d="M101.143 43.7392C102.648 43.7392 103.868 42.5078 103.868 40.9888C103.868 39.4697 102.648 38.2383 101.143 38.2383C99.6375 38.2383 98.4175 39.4697 98.4175 40.9888C98.4175 42.5078 99.6375 43.7392 101.143 43.7392Z" fill="#C0FF58"/>
<path opacity="0.88" d="M71.9594 46.9325C73.4644 46.9325 74.6845 45.701 74.6845 44.182C74.6845 42.6629 73.4644 41.4315 71.9594 41.4315C70.4544 41.4315 69.2344 42.6629 69.2344 44.182C69.2344 45.701 70.4544 46.9325 71.9594 46.9325Z" fill="#C0FF58"/>
<path opacity="0.88" d="M35.2867 118.425C36.7917 118.425 38.0117 117.194 38.0117 115.675C38.0117 114.156 36.7917 112.924 35.2867 112.924C33.7817 112.924 32.5616 114.156 32.5616 115.675C32.5616 117.194 33.7817 118.425 35.2867 118.425Z" fill="#C0FF58"/>
<path opacity="0.88" d="M49.8176 99.5021C51.3226 99.5021 52.5426 98.2707 52.5426 96.7517C52.5426 95.2326 51.3226 94.0012 49.8176 94.0012C48.3126 94.0012 47.0925 95.2326 47.0925 96.7517C47.0925 98.2707 48.3126 99.5021 49.8176 99.5021Z" fill="#C0FF58"/>
<path opacity="0.88" d="M42.2351 35.6769C43.7987 35.6769 45.0663 34.3976 45.0663 32.8194C45.0663 31.2412 43.7987 29.9618 42.2351 29.9618C40.6715 29.9618 39.4039 31.2412 39.4039 32.8194C39.4039 34.3976 40.6715 35.6769 42.2351 35.6769Z" fill="#C0FF58"/>
<path opacity="0.88" d="M77.1912 32.3006C78.7548 32.3006 80.0223 31.0212 80.0223 29.443C80.0223 27.8648 78.7548 26.5854 77.1912 26.5854C75.6275 26.5854 74.36 27.8648 74.36 29.443C74.36 31.0212 75.6275 32.3006 77.1912 32.3006Z" fill="#C0FF58"/>
<path opacity="0.88" d="M54.8962 41.584C56.9107 41.584 58.5438 39.9357 58.5438 37.9024C58.5438 35.8691 56.9107 34.2208 54.8962 34.2208C52.8817 34.2208 51.2487 35.8691 51.2487 37.9024C51.2487 39.9357 52.8817 41.584 54.8962 41.584Z" fill="#C0FF58"/>
<path opacity="0.88" d="M114.215 45.055C116.23 45.055 117.863 43.4067 117.863 41.3735C117.863 39.3402 116.23 37.6919 114.215 37.6919C112.201 37.6919 110.568 39.3402 110.568 41.3735C110.568 43.4067 112.201 45.055 114.215 45.055Z" fill="#C0FF58"/>
<path opacity="0.88" d="M120.496 90.386C122.51 90.386 124.143 88.7377 124.143 86.7044C124.143 84.6711 122.51 83.0228 120.496 83.0228C118.481 83.0228 116.848 84.6711 116.848 86.7044C116.848 88.7377 118.481 90.386 120.496 90.386Z" fill="#C0FF58"/>
<path opacity="0.88" d="M110.138 84.6819C111.069 84.6819 111.824 83.9198 111.824 82.9797C111.824 82.0397 111.069 81.2776 110.138 81.2776C109.206 81.2776 108.451 82.0397 108.451 82.9797C108.451 83.9198 109.206 84.6819 110.138 84.6819Z" fill="#C0FF58"/>
<path opacity="0.88" d="M67.0349 35.7246C67.9663 35.7246 68.7213 34.9625 68.7213 34.0225C68.7213 33.0824 67.9663 32.3203 67.0349 32.3203C66.1035 32.3203 65.3485 33.0824 65.3485 34.0225C65.3485 34.9625 66.1035 35.7246 67.0349 35.7246Z" fill="#C0FF58"/>
<path opacity="0.88" d="M51.457 51.7325C52.3884 51.7325 53.1434 50.9705 53.1434 50.0304C53.1434 49.0903 52.3884 48.3282 51.457 48.3282C50.5257 48.3282 49.7706 49.0903 49.7706 50.0304C49.7706 50.9705 50.5257 51.7325 51.457 51.7325Z" fill="#C0FF58"/>
<path opacity="0.88" d="M23.8524 57.6518C24.7838 57.6518 25.5388 56.8898 25.5388 55.9497C25.5388 55.0096 24.7838 54.2476 23.8524 54.2476C22.921 54.2476 22.166 55.0096 22.166 55.9497C22.166 56.8898 22.921 57.6518 23.8524 57.6518Z" fill="#C0FF58"/>
<path opacity="0.88" d="M56.3525 24.7273C57.2839 24.7273 58.039 23.9652 58.039 23.0251C58.039 22.0851 57.2839 21.323 56.3525 21.323C55.4212 21.323 54.6661 22.0851 54.6661 23.0251C54.6661 23.9652 55.4212 24.7273 56.3525 24.7273Z" fill="#C0FF58"/>
<path opacity="0.88" d="M65.4907 30.29C66.4221 30.29 67.1771 29.528 67.1771 28.5879C67.1771 27.6478 66.4221 26.8857 65.4907 26.8857C64.5594 26.8857 63.8043 27.6478 63.8043 28.5879C63.8043 29.528 64.5594 30.29 65.4907 30.29Z" fill="#C0FF58"/>
<path opacity="0.88" d="M88.2316 115.909C90.2461 115.909 91.8792 114.26 91.8792 112.227C91.8792 110.194 90.2461 108.546 88.2316 108.546C86.2172 108.546 84.5841 110.194 84.5841 112.227C84.5841 114.26 86.2172 115.909 88.2316 115.909Z" fill="#C0FF58"/>
<path opacity="0.88" d="M47.2926 76.3888C49.307 76.3888 50.9401 74.7405 50.9401 72.7072C50.9401 70.6739 49.307 69.0256 47.2926 69.0256C45.2781 69.0256 43.645 70.6739 43.645 72.7072C43.645 74.7405 45.2781 76.3888 47.2926 76.3888Z" fill="#C0FF58"/>
<path opacity="0.88" d="M43.909 85.9138C44.9325 85.9138 45.7622 85.0763 45.7622 84.0432C45.7622 83.0101 44.9325 82.1726 43.909 82.1726C42.8854 82.1726 42.0557 83.0101 42.0557 84.0432C42.0557 85.0763 42.8854 85.9138 43.909 85.9138Z" fill="#C0FF58"/>
<path opacity="0.88" d="M50.7381 87.7183C51.7616 87.7183 52.5913 86.8808 52.5913 85.8478C52.5913 84.8147 51.7616 83.9772 50.7381 83.9772C49.7145 83.9772 48.8848 84.8147 48.8848 85.8478C48.8848 86.8808 49.7145 87.7183 50.7381 87.7183Z" fill="#C0FF58"/>
<path opacity="0.88" d="M36.02 96.3273C37.0436 96.3273 37.8733 95.4898 37.8733 94.4568C37.8733 93.4237 37.0436 92.5862 36.02 92.5862C34.9965 92.5862 34.1667 93.4237 34.1667 94.4568C34.1667 95.4898 34.9965 96.3273 36.02 96.3273Z" fill="#C0FF58"/>
<path opacity="0.88" d="M61.3728 56.3834C62.3964 56.3834 63.2261 55.5459 63.2261 54.5128C63.2261 53.4797 62.3964 52.6422 61.3728 52.6422C60.3493 52.6422 59.5195 53.4797 59.5195 54.5128C59.5195 55.5459 60.3493 56.3834 61.3728 56.3834Z" fill="#C0FF58"/>
<path opacity="0.88" d="M20.1104 76.0457C21.1339 76.0457 21.9637 75.2082 21.9637 74.1751C21.9637 73.1421 21.1339 72.3046 20.1104 72.3046C19.0868 72.3046 18.2571 73.1421 18.2571 74.1751C18.2571 75.2082 19.0868 76.0457 20.1104 76.0457Z" fill="#C0FF58"/>
<path opacity="0.88" d="M33.332 70.8061C34.3556 70.8061 35.1853 69.9686 35.1853 68.9355C35.1853 67.9024 34.3556 67.0649 33.332 67.0649C32.3085 67.0649 31.4788 67.9024 31.4788 68.9355C31.4788 69.9686 32.3085 70.8061 33.332 70.8061Z" fill="#C0FF58"/>
<path opacity="0.88" d="M115.274 103.384C116.297 103.384 117.127 102.547 117.127 101.514C117.127 100.481 116.297 99.6431 115.274 99.6431C114.25 99.6431 113.421 100.481 113.421 101.514C113.421 102.547 114.25 103.384 115.274 103.384Z" fill="#C0FF58"/>
<path opacity="0.88" d="M100.167 105.998C101.191 105.998 102.021 105.16 102.021 104.127C102.021 103.094 101.191 102.256 100.167 102.256C99.144 102.256 98.3142 103.094 98.3142 104.127C98.3142 105.16 99.144 105.998 100.167 105.998Z" fill="#C0FF58"/>
<path opacity="0.88" d="M110.054 112.028C110.684 112.028 111.195 111.512 111.195 110.876C111.195 110.24 110.684 109.724 110.054 109.724C109.424 109.724 108.913 110.24 108.913 110.876C108.913 111.512 109.424 112.028 110.054 112.028Z" fill="#C0FF58"/>
<path opacity="0.88" d="M112.427 126.147C113.057 126.147 113.568 125.632 113.568 124.996C113.568 124.359 113.057 123.844 112.427 123.844C111.797 123.844 111.286 124.359 111.286 124.996C111.286 125.632 111.797 126.147 112.427 126.147Z" fill="#C0FF58"/>
<path opacity="0.88" d="M82.2393 137.44C82.8695 137.44 83.3804 136.925 83.3804 136.289C83.3804 135.652 82.8695 135.137 82.2393 135.137C81.609 135.137 81.0981 135.652 81.0981 136.289C81.0981 136.925 81.609 137.44 82.2393 137.44Z" fill="#C0FF58"/>
<path opacity="0.88" d="M50.5218 130.832C51.1521 130.832 51.6629 130.316 51.6629 129.68C51.6629 129.044 51.1521 128.528 50.5218 128.528C49.8916 128.528 49.3807 129.044 49.3807 129.68C49.3807 130.316 49.8916 130.832 50.5218 130.832Z" fill="#C0FF58"/>
<path opacity="0.88" d="M90.7278 122.817C91.358 122.817 91.8689 122.301 91.8689 121.665C91.8689 121.029 91.358 120.513 90.7278 120.513C90.0976 120.513 89.5867 121.029 89.5867 121.665C89.5867 122.301 90.0976 122.817 90.7278 122.817Z" fill="#C0FF58"/>
<path opacity="0.88" d="M79.6051 122.966C80.2353 122.966 80.7462 122.45 80.7462 121.814C80.7462 121.178 80.2353 120.662 79.6051 120.662C78.9749 120.662 78.464 121.178 78.464 121.814C78.464 122.45 78.9749 122.966 79.6051 122.966Z" fill="#C0FF58"/>
<path opacity="0.88" d="M76.6318 108.697C77.262 108.697 77.7729 108.182 77.7729 107.546C77.7729 106.909 77.262 106.394 76.6318 106.394C76.0016 106.394 75.4907 106.909 75.4907 107.546C75.4907 108.182 76.0016 108.697 76.6318 108.697Z" fill="#C0FF58"/>
<path opacity="0.88" d="M83.0568 102.617C83.687 102.617 84.1979 102.102 84.1979 101.466C84.1979 100.83 83.687 100.314 83.0568 100.314C82.4265 100.314 81.9156 100.83 81.9156 101.466C81.9156 102.102 82.4265 102.617 83.0568 102.617Z" fill="#C0FF58"/>
<path opacity="0.88" d="M107.618 91.6735C108.249 91.6735 108.76 91.1578 108.76 90.5217C108.76 89.8856 108.249 89.37 107.618 89.37C106.988 89.37 106.477 89.8856 106.477 90.5217C106.477 91.1578 106.988 91.6735 107.618 91.6735Z" fill="#C0FF58"/>
<path opacity="0.88" d="M129.428 106.105C130.058 106.105 130.569 105.589 130.569 104.953C130.569 104.317 130.058 103.801 129.428 103.801C128.798 103.801 128.287 104.317 128.287 104.953C128.287 105.589 128.798 106.105 129.428 106.105Z" fill="#C0FF58"/>
<path opacity="0.88" d="M103.949 82.5865C104.579 82.5865 105.09 82.0708 105.09 81.4347C105.09 80.7986 104.579 80.283 103.949 80.283C103.319 80.283 102.808 80.7986 102.808 81.4347C102.808 82.0708 103.319 82.5865 103.949 82.5865Z" fill="#C0FF58"/>
<path opacity="0.88" d="M101.727 65.3672C102.357 65.3672 102.868 64.8516 102.868 64.2155C102.868 63.5794 102.357 63.0637 101.727 63.0637C101.097 63.0637 100.586 63.5794 100.586 64.2155C100.586 64.8516 101.097 65.3672 101.727 65.3672Z" fill="#C0FF58"/>
<path opacity="0.88" d="M129.599 50.9861C130.229 50.9861 130.74 50.4705 130.74 49.8344C130.74 49.1983 130.229 48.6826 129.599 48.6826C128.969 48.6826 128.458 49.1983 128.458 49.8344C128.458 50.4705 128.969 50.9861 129.599 50.9861Z" fill="#C0FF58"/>
<path opacity="0.88" d="M136.231 82.2526C136.862 82.2526 137.372 81.737 137.372 81.1009C137.372 80.4648 136.862 79.9491 136.231 79.9491C135.601 79.9491 135.09 80.4648 135.09 81.1009C135.09 81.737 135.601 82.2526 136.231 82.2526Z" fill="#C0FF58"/>
<path opacity="0.88" d="M112.469 50.0552C113.099 50.0552 113.61 49.5396 113.61 48.9035C113.61 48.2674 113.099 47.7517 112.469 47.7517C111.839 47.7517 111.328 48.2674 111.328 48.9035C111.328 49.5396 111.839 50.0552 112.469 50.0552Z" fill="#C0FF58"/>
<path opacity="0.88" d="M117.249 49.7183C117.879 49.7183 118.39 49.2026 118.39 48.5666C118.39 47.9305 117.879 47.4148 117.249 47.4148C116.619 47.4148 116.108 47.9305 116.108 48.5666C116.108 49.2026 116.619 49.7183 117.249 49.7183Z" fill="#C0FF58"/>
<path opacity="0.88" d="M124.731 43.3272C125.362 43.3272 125.873 42.8115 125.873 42.1754C125.873 41.5393 125.362 41.0237 124.731 41.0237C124.101 41.0237 123.59 41.5393 123.59 42.1754C123.59 42.8115 124.101 43.3272 124.731 43.3272Z" fill="#C0FF58"/>
<path opacity="0.88" d="M56.4248 59.5497C57.055 59.5497 57.5659 59.0341 57.5659 58.398C57.5659 57.7619 57.055 57.2462 56.4248 57.2462C55.7946 57.2462 55.2837 57.7619 55.2837 58.398C55.2837 59.0341 55.7946 59.5497 56.4248 59.5497Z" fill="#C0FF58"/>
<path opacity="0.88" d="M51.7179 67.7322C52.3481 67.7322 52.859 67.2166 52.859 66.5805C52.859 65.9444 52.3481 65.4287 51.7179 65.4287C51.0877 65.4287 50.5768 65.9444 50.5768 66.5805C50.5768 67.2166 51.0877 67.7322 51.7179 67.7322Z" fill="#C0FF58"/>
<path opacity="0.88" d="M25.7371 88.3331C26.3673 88.3331 26.8782 87.8174 26.8782 87.1813C26.8782 86.5452 26.3673 86.0295 25.7371 86.0295C25.1068 86.0295 24.5959 86.5452 24.5959 87.1813C24.5959 87.8174 25.1068 88.3331 25.7371 88.3331Z" fill="#C0FF58"/>
<path opacity="0.88" d="M21.8903 95.8074C22.5205 95.8074 23.0314 95.2918 23.0314 94.6557C23.0314 94.0196 22.5205 93.5039 21.8903 93.5039C21.26 93.5039 20.7491 94.0196 20.7491 94.6557C20.7491 95.2918 21.26 95.8074 21.8903 95.8074Z" fill="#C0FF58"/>
<path opacity="0.88" d="M77.0417 19.4977C77.672 19.4977 78.1829 18.9821 78.1829 18.346C78.1829 17.7099 77.672 17.1942 77.0417 17.1942C76.4115 17.1942 75.9006 17.7099 75.9006 18.346C75.9006 18.9821 76.4115 19.4977 77.0417 19.4977Z" fill="#C0FF58"/>
<path opacity="0.88" d="M101.088 30.3362C101.719 30.3362 102.23 29.8206 102.23 29.1845C102.23 28.5484 101.719 28.0327 101.088 28.0327C100.458 28.0327 99.9474 28.5484 99.9474 29.1845C99.9474 29.8206 100.458 30.3362 101.088 30.3362Z" fill="#C0FF58"/>
<path opacity="0.88" d="M55.9952 112.536C56.6254 112.536 57.1363 112.02 57.1363 111.384C57.1363 110.748 56.6254 110.232 55.9952 110.232C55.365 110.232 54.8541 110.748 54.8541 111.384C54.8541 112.02 55.365 112.536 55.9952 112.536Z" fill="#C0FF58"/>
<path opacity="0.88" d="M59.4507 104.365C60.0809 104.365 60.5918 103.849 60.5918 103.213C60.5918 102.577 60.0809 102.062 59.4507 102.062C58.8205 102.062 58.3096 102.577 58.3096 103.213C58.3096 103.849 58.8205 104.365 59.4507 104.365Z" fill="#C0FF58"/>
<path opacity="0.88" d="M45.7542 112.817C47.7687 112.817 49.4018 111.168 49.4018 109.135C49.4018 107.102 47.7687 105.453 45.7542 105.453C43.7397 105.453 42.1067 107.102 42.1067 109.135C42.1067 111.168 43.7397 112.817 45.7542 112.817Z" fill="#C0FF58"/>
<path opacity="0.88" d="M99.9633 96.2675C101.978 96.2675 103.611 94.6192 103.611 92.5859C103.611 90.5526 101.978 88.9043 99.9633 88.9043C97.9488 88.9043 96.3158 90.5526 96.3158 92.5859C96.3158 94.6192 97.9488 96.2675 99.9633 96.2675Z" fill="#C0FF58"/>
<path opacity="0.88" d="M127.118 63.1097C128.142 63.1097 128.972 62.2722 128.972 61.2391C128.972 60.206 128.142 59.3685 127.118 59.3685C126.095 59.3685 125.265 60.206 125.265 61.2391C125.265 62.2722 126.095 63.1097 127.118 63.1097Z" fill="#C0FF58"/>
<path opacity="0.88" d="M36.0731 51.7258C37.0967 51.7258 37.9264 50.8883 37.9264 49.8552C37.9264 48.8221 37.0967 47.9846 36.0731 47.9846C35.0496 47.9846 34.2198 48.8221 34.2198 49.8552C34.2198 50.8883 35.0496 51.7258 36.0731 51.7258Z" fill="#C0FF58"/>
<path opacity="0.88" d="M107.158 74.7518C108.089 74.7518 108.844 73.9897 108.844 73.0497C108.844 72.1096 108.089 71.3475 107.158 71.3475C106.227 71.3475 105.472 72.1096 105.472 73.0497C105.472 73.9897 106.227 74.7518 107.158 74.7518Z" fill="#C0FF58"/>
<path opacity="0.88" d="M31.855 107.197C32.7864 107.197 33.5414 106.434 33.5414 105.494C33.5414 104.554 32.7864 103.792 31.855 103.792C30.9236 103.792 30.1686 104.554 30.1686 105.494C30.1686 106.434 30.9236 107.197 31.855 107.197Z" fill="#C0FF58"/>
<path opacity="0.88" d="M71.7806 129.047C72.712 129.047 73.4671 128.285 73.4671 127.345C73.4671 126.405 72.712 125.643 71.7806 125.643C70.8493 125.643 70.0942 126.405 70.0942 127.345C70.0942 128.285 70.8493 129.047 71.7806 129.047Z" fill="#C0FF58"/>
<path opacity="0.88" d="M102.433 122.125C103.364 122.125 104.119 121.363 104.119 120.422C104.119 119.482 103.364 118.72 102.433 118.72C101.502 118.72 100.747 119.482 100.747 120.422C100.747 121.363 101.502 122.125 102.433 122.125Z" fill="#C0FF58"/>
<path opacity="0.88" d="M74.6953 118.427C75.6267 118.427 76.3817 117.665 76.3817 116.725C76.3817 115.785 75.6267 115.023 74.6953 115.023C73.7639 115.023 73.0089 115.785 73.0089 116.725C73.0089 117.665 73.7639 118.427 74.6953 118.427Z" fill="#C0FF58"/>
<path opacity="0.88" d="M99.1572 23.22C99.7874 23.22 100.298 22.7043 100.298 22.0683C100.298 21.4322 99.7874 20.9165 99.1572 20.9165C98.527 20.9165 98.0161 21.4322 98.0161 22.0683C98.0161 22.7043 98.527 23.22 99.1572 23.22Z" fill="#C0FF58"/>
<path opacity="0.88" d="M109.599 28.9342C110.23 28.9342 110.74 28.4186 110.74 27.7825C110.74 27.1464 110.23 26.6307 109.599 26.6307C108.969 26.6307 108.458 27.1464 108.458 27.7825C108.458 28.4186 108.969 28.9342 109.599 28.9342Z" fill="#C0FF58"/>
<path d="M91.5776 39.8683L57.9594 81.9467L73.3921 82.0571L61.626 115.613L96.0645 71.9788L80.3232 72.0366L91.5776 39.8683Z" fill="#C0FF58"/>
</g>
</g>
<defs>
<clipPath id="clip0_3754_863">
<rect width="155" height="155" fill="white"/>
</clipPath>
<clipPath id="clip1_3754_863">
<rect width="120" height="122.857" fill="white" transform="translate(17.5 14.9999)"/>
</clipPath>
</defs>
</svg>
