<svg xmlns="http://www.w3.org/2000/svg" xml:space="preserve" viewBox="66.5 2.55 379 506.9"><path d="M356.9 24.3V311L259 367.4c-2 1-4.3 1-6.3 0L154.8 311V24.3L85.4 64.4c-11.7 6.8-18.9 19.3-18.9 32.9V384c.1 13.5 7.3 26 18.9 32.9l151.7 87.6c11.7 6.6 26.1 6.6 37.8 0l151.7-87.6c11.7-6.8 18.9-19.3 18.9-32.9V97.3c-.1-13.5-7.3-26-18.9-32.9z" style="fill:#2d2e83"/><linearGradient id="a" x1="-48.484" x2="-45.166" y1="649.639" y2="649.639" gradientTransform="matrix(114.2 0 0 -114.2 5603.4 74455.648)" gradientUnits="userSpaceOnUse"><stop offset="0" style="stop-color:#0d0d27"/><stop offset=".02" style="stop-color:#10102f"/><stop offset=".1" style="stop-color:#1a1b4d"/><stop offset=".19" style="stop-color:#232365"/><stop offset=".28" style="stop-color:#282976"/><stop offset=".38" style="stop-color:#2c2d80"/><stop offset=".5" style="stop-color:#2d2e83"/><stop offset=".62" style="stop-color:#2c2d80"/><stop offset=".72" style="stop-color:#282976"/><stop offset=".81" style="stop-color:#232365"/><stop offset=".9" style="stop-color:#1a1b4d"/><stop offset=".98" style="stop-color:#10102f"/><stop offset="1" style="stop-color:#0d0d27"/></linearGradient><path d="M356.9 24.3V311L259 367.4c-2 1-4.3 1-6.3 0L154.8 311V24.3L85.4 64.4c-11.7 6.8-18.9 19.3-18.9 32.9V384c.1 13.5 7.3 26 18.9 32.9l151.7 87.6c11.7 6.6 26.1 6.6 37.8 0l151.7-87.6c11.7-6.8 18.9-19.3 18.9-32.9V97.3c-.1-13.5-7.3-26-18.9-32.9z" style="fill:url(#a)"/><path d="M445.5 97.3c-.1-13.5-7.3-26-18.9-32.9L325.7 6c-7.8-4.6-17.5-4.6-25.2 0-7.8 4.5-12.6 12.9-12.6 21.9v221c.1 13.5 7.3 26 18.9 32.9l119.8 69.4c11.7 6.8 18.9 19.3 18.9 32.9zm-379 0c.1-13.5 7.3-26 18.9-32.9L186.6 6c7.8-4.6 17.5-4.6 25.2 0 7.8 4.5 12.6 12.9 12.6 21.9v221c-.1 13.5-7.3 26-18.9 32.9L85.8 351.2c-11.7 6.8-18.9 19.3-18.9 32.9-.1-.1-.4-286.8-.4-286.8" style="fill:#1fc2d7"/></svg>