<svg xmlns="http://www.w3.org/2000/svg" width="52" height="39"><defs><clipPath id="a"><path fill="#fff" d="M0 .77h336.91v61.64H0z"/></clipPath><clipPath id="b"><path fill="#fff" d="M0 .77h336.91v61.64H0z"/></clipPath><clipPath id="c"><path fill="#fff" d="M0 .77h336.91v61.64H0z"/></clipPath><clipPath id="e"><path fill="#fff" d="M0 .77h336.91v61.64H0z"/></clipPath><clipPath id="f"><path fill="#fff" d="M0 .77h336.91v61.64H0z"/></clipPath><linearGradient id="d" x1=".51" x2="1.29" y1=".43" y2="1"><stop offset="0" stop-color="#AC79FF"/><stop offset="1" stop-color="#784CBF"/></linearGradient></defs><g class="layer"><path fill="#ac79ff" d="M0 8.92V.01h12.97z" clip-path="url(#a)"/><path fill="#ac79ff" d="m15.39 38.9 36.46-27.55L37.4 38.9H15.38z" clip-path="url(#b)"/><path fill="#784cbf" d="m0 8.92 12.97 9.72V0L0 8.91z" clip-path="url(#c)"/><path fill="url(#d)" d="M28.36 29.18 0 8.92 15.4 38.9z" clip-path="url(#e)"/><path fill="#784cbf" d="m38.37 21.88 13.49-10.53L38.37.01v21.88z" clip-path="url(#f)"/></g></svg>