<svg xmlns="http://www.w3.org/2000/svg" xmlns:xlink="http://www.w3.org/1999/xlink" version="1.1" id="Layer_1" x="0px" y="0px" style="enable-background:new 0 0 637.5 720;" xml:space="preserve" viewBox="0 0 637.5 720">
<g>
		<path d="M346.6,128.8l114,65.8c4.1,2.3,4.2,8.8,0,11c0,0-135.5,78.2-135.5,78.2c-4.1,2.4-8.9,2.2-12.8,0l-135.4-78.2    c-4.1-2.3-4.3-8.8,0-11l113.9-65.8l0-128.8L0,167.9v335.8l0-1.5v1.5l111.6-64.4l0-131.6c-0.1-4.7,5.5-8,9.6-5.5l135.5,78.2    c4.1,2.4,6.4,6.7,6.4,11.1l0,156.4c0.1,4.7-5.4,8-9.5,5.5l-114-65.8L27.9,552.1L318.7,720l290.8-167.9L498,487.7l-114,65.8    c-4,2.4-9.7-0.7-9.5-5.5c0,0,0-156.4,0-156.4c0-4.7,2.6-8.9,6.4-11.1l135.4-78.2c4-2.5,9.7,0.7,9.6,5.5v131.6l111.6,64.4V167.9    L346.6,0V128.8z" fill="white"/>
	</g>
</svg>