<svg xmlns="http://www.w3.org/2000/svg" xmlns:xlink="http://www.w3.org/1999/xlink" xml:space="preserve" id="Layer_1" x="0" y="0" version="1.1" viewBox="51.8 1.8 408.48 508.32"><style>.st0,.st1,.st2{fill-rule:evenodd;clip-rule:evenodd}.st0{fill:#5bdafd;stroke:#341b06;stroke-width:6.5742;stroke-linecap:round;stroke-linejoin:round;stroke-miterlimit:10}.st1{fill:#341b06}.st2{fill:#fff}.st4,.st5{stroke:#341b06;stroke-linecap:round;stroke-linejoin:round;stroke-miterlimit:10}.st4{fill-rule:evenodd;clip-rule:evenodd;fill:#fbf8d7;stroke-width:6.5742}.st5{fill:none;stroke-width:4.7812}.st11,.st6{stroke:#341b06;stroke-width:6.5742;stroke-linecap:round;stroke-linejoin:round;stroke-miterlimit:10}.st6{fill-rule:evenodd;clip-rule:evenodd;fill:#fff}.st11{fill:none}.st14{fill:#fff}.st15{font-family:&quot;Calibri-Bold&quot;}.st16{font-size:8.0733px}</style><g id="UpSnap-Gopher"><g id="Ear-Right"><path d="M355.2 45.3c-1.2-9 12.5-27.9 31.1-25.9 18.6 1.9 25.9 16.3 24.9 27.1s-9.4 24.6-18.7 27.1-36-19.3-37.3-28.3" class="st0"/><path id="inside" d="M395.7 46.5c.4 0 1.3 4.9-.4 6.3-1.9 1.7-7.5 6.9-11.4 7.2-4 .4-9-.9-7.9-6.7s2.6-5.2 4.1-1.8c1.4 3.4 2.2 5.6 7.9 2.5 5.6-3 6.4-7.5 7.7-7.5" class="st1"/><path id="light" d="M380.9 22.3s10.5 1.9 18.5 10.8c4.5 5 7.9 15.1 4.9 25.4 5.6-7.3 6.6-21.1-2.4-29.5-9.5-8.8-21-6.7-21-6.7" class="st2"/></g><g id="Body"><path id="Body1" d="M246.1 5.3c-22.4 1.2-96.9 2.5-148.9 69.9C59.6 123.9 61 196.5 62.9 264.9c2 71.7 15 144.7 32.7 174.6 18.4 31.1 52.1 41.9 72.7 44.1 49.8 5.2 102.2 6.2 147.6-.2 44.8-6.3 85.2-20 108.8-50.5 20.2-26.2 24.1-44.3 22.3-98.1-1-30.3-7.8-51.9-8-80.5-.3-34.9-3.5-73.8-10-96.8C415.6 111.1 404.4 84 370 50 335.1 15.5 285 3.3 246.1 5.3" class="st0"/><path id="Shadow-Left" d="M101.5 74.6c-8.2 41-11 108.1-6.6 180.1 4.5 73 18.5 135.2 40.4 173.9 19.9 35.2 43.8 49.4 58.9 54.3-17.6-1.2-36.7-2.6-52.2-8.5-26.2-10.1-44.8-27.1-56.5-67.1-8.8-30.1-17.1-78-20.1-155.7-2.2-55.4.1-100.1 14-136.7 7-18.7 15.4-32.8 22.1-40.3" style="fill-rule:evenodd;clip-rule:evenodd;fill:#55bcd9"/><path id="light1" d="M311 17.7c4 1.2 30.8 10.1 51.2 28.7s39.6 43.3 48 64.2 23.1 56.6 25 114.5c1.5 37.6 2.4 52.3 4.4 67.7 4.5 32.6 11.8 95.5-6.7 122.2 9.8-34.6 8.9-67.1 7.2-86-1.8-19.7-8.3-58.3-9.2-88.2-.8-28-1.5-57.8-13-97-12.3-41.6-23.5-61.2-51.3-87.6-23.8-22.8-44.1-34.3-55.6-38.5" class="st2"/></g><g id="Ear-Left"><path d="M80.8 52.6c-9.3.8-22.7 8.1-25 21.6-2.6 15.1 1.7 25.8 16.8 35.1 10.4 6.4 29-2.7 36.3-14.5 8.2-13.1 1.3-27.4-3.9-32.9-5.3-5.5-13-10.3-24.2-9.3" class="st0"/><path id="light2" d="M102.2 62.1c-8.7-11.6-19.2-11.8-25.4-11 6.3 1.3 16.6 6.6 21.5 14.1 4.6 7.1 6.1 22.6 1.2 28.6 10.2-10.3 8.1-24.4 2.7-31.7" class="st2" transform="translate(4.252 5.151)scale(.98912)"/><path d="M79.5 83s.9 7 5.7 6.8c5.4-.2 6.4-6.8 7.8-6.6 1.7.2 0 6-1.8 7.7-1.8 1.8-7.3 3.8-11.1.5S76.2 86 77 84.9c.9-1.1 2.5-1.9 2.5-1.9" class="st1"/></g><g id="Foot-Right"><path d="M388.2 463.1s25 2.3 32.1 7.7c6.1 4.7 4.1 14.7-11.7 17.3-15.6 2.6-48.3-8.6-52.9-12.8 9.6-2.3 32.5-12.2 32.5-12.2" class="st4"/><path d="M422.1 481.1s-7.5-1.3-10.1-2.7" class="st5"/></g><g id="Foot-Left"><path d="M153.09 481.098s-24 2.8-31.1 8.2c-6.1 4.7-4.1 14.7 11.7 17.3 15.6 2.6 49.9-16.7 54.6-20.9-11.8-.7-35.2-4.6-35.2-4.6" class="st4"/><path d="M122.49 500.098s6.1-3.5 9.3-4" class="st5"/></g><g id="Eye-Left"><path id="Eye" d="M239.3 119.8c.3-26.3-24.2-39.5-40.2-38.8-19.1.8-38.7 14.9-38.5 39.8.2 19.8 15.6 37.9 39.4 38 24.4.1 39.1-21.6 39.3-39" class="st6"/><ellipse id="Eyeball" cx="514.4" cy="299.6" class="st1" rx="5.1" ry="4.7" transform="matrix(1.51613 0 0 1.61404 -594.349 -371.989)"/></g><g id="Eye-Right"><path d="M353.2 70c-21.8 0-39.9 14.6-39.9 36.3s15.4 39.1 39.5 39.1c24.2 0 38.8-20.5 38.8-39.1S373.5 70 353.2 70" class="st6"/><ellipse cx="-4.9" cy="-.5" class="st1" rx="10.7" ry="10.5" transform="matrix(.73077 0 0 .7647 368.924 106.009)"/></g><g id="Mouth"><path d="M264 176.6s-.6 33.8 3.6 34.8c4.3 1 33.9-.6 34.1-4.8.1-4.1-3.2-28.9-4.4-31.6-1.1-2.7-33.3 1.6-33.3 1.6" class="st6"/><path d="M281.1 178.7s1.3 13.5 1.6 16.4c.5 4.5 1.4 12.9 1.7 15.5" style="fill:none;stroke:#341b06;stroke-width:4.9008;stroke-linecap:round;stroke-linejoin:round;stroke-miterlimit:10"/><path d="M277.8 135.7c-12.9.2-30.7 6.4-35.6 18.7-3.9 9.9 4.4 23.9 34.7 24.4s38.5-12.4 37.5-21.8c-.9-9.8-12.3-21.7-36.6-21.3" class="st4"/></g><path id="Blush" d="M177.9 164.4c-8.6.2-15.7 6.4-15.5 11.6s8 11.2 17.3 11.2c9.3-.1 18.4-4.8 17.5-12.2-.9-7.5-8.5-10.8-19.3-10.6m199.2-18.8c-5.2.7-13.5 4.2-13.5 8.9-.1 5.2 5 10 13.4 10.9 10 1.2 17.8-2.1 19.2-7.3 1.4-5.1-1.8-10.3-5.2-11.5-3.7-1.3-8.8-1.6-13.9-1" style="fill-rule:evenodd;clip-rule:evenodd;fill:#ffbaab"/><g id="Package"><path id="Fill-brown-darker" d="m272.2 191.2 62.8 22-1.3 114.5-62.6-26z" style="fill-rule:evenodd;clip-rule:evenodd;fill:#957240"/><path id="Fill-brown" d="m274.1 189.9 94.4-7.9 57.9 23.2-2 113.8-90.3 8.8 1.2-113.8z" style="fill-rule:evenodd;clip-rule:evenodd;fill:#d4a35c"/><path id="Package-outline" d="M368.7 182.2c2.8.2 56.1 20.9 57 22.8 1.3 2.8.4 112.1-1.5 113.6-1.4 1.1-86.4 9.7-90 9.4-3.2-.3-62-25-62.6-25.7-.9-1 0-112.7 1-113.8.7-.9 93.2-6.5 96.1-6.3" class="st11"/><path id="Line-left" d="m272.6 191.5 62.2 21.8-.6 113.8" class="st11"/><path id="Line-Top" d="m334.5 213.6 89.7-7.3" class="st11"/></g><g id="QR"><path d="m344.4 262.6.3 50.3 47.1-3.8.1-51.5z" class="st2"/><g id="QR1" transform="matrix(.17242 -.01748 -.0006 .17425 1357.158 1068.807)"><defs><path id="SVGID_1_" d="M-5899.3-5223.7h289.9v338.3h-289.9z"/></defs><clipPath id="SVGID_00000134962519407945201390000016451387592007564679_"><use xlink:href="#SVGID_1_" style="overflow:visible"/></clipPath><g style="clip-path:url(#SVGID_00000134962519407945201390000016451387592007564679_)"><g id="Ebene-1"><path d="M-6640.9-5223.9c0 7.2-6 12.1-12.1 12.1h-241.6c-7.2 0-12.1-6-12.1-12.1v-241.6c0-7.2 6-12.1 12.1-12.1h241.6c7.2 0 12.1 6 12.1 12.1zm-3.6-265.7H-6903c-8.5 0-15.7 7.2-15.7 15.7v305.6c0 9.7 7.2 16.9 15.7 16.9h257.3c8.5 0 15.7-7.2 15.7-15.7v-306.8c1.2-8.5-6.1-15.7-14.5-15.7" style="fill:#55bcd9" transform="translate(1019.43 265.936)"/><g transform="matrix(5.80179 .58184 .02012 5.74078 -7895.47 -6925.41)"><image xlink:href="82DD45A7.png" id="_Image2" width="185" height="235" style="overflow:visible" transform="translate(342.95 256.583)scale(.2725)"/></g><path d="M-5832.725-5179.627v13.8c0 4.7-4.1 8.8-8.8 8.8h-13.8c-5 0-8.8-3.8-8.8-8.8v-13.8c0-4.7 4.1-8.8 8.8-8.8h13.8c5.1 0 8.8 3.8 8.8 8.8m-23.5 28.8h16c7.5 0 13.8-6.3 13.8-13.8v-16c0-7.8-6.3-14.1-14.1-14.1h-16c-7.5 0-13.8 6.3-13.8 13.8v16c0 7.9 6.3 14.1 14.1 14.1"/><path d="M-5838.925-5176.777v8.5c0 2.5-2.5 5-5.3 5h-8.1c-3.1 0-5.3-2.2-5.3-5.3v-8.1c0-2.8 2.5-5.3 5.3-5.3h8.5c2.7-.2 4.9 2 4.9 5.2m194.3-2.85v13.8c0 4.7-4.1 8.8-8.8 8.8h-13.8c-5 0-8.8-3.8-8.8-8.8v-13.8c0-4.7 4.1-8.8 8.8-8.8h13.8c5 0 8.8 3.8 8.8 8.8m-23.5 28.8h16c7.5 0 13.8-6.3 13.8-13.8v-16c0-7.8-6.3-14.1-14.1-14.1h-16c-7.5 0-13.8 6.3-13.8 13.8v16c0 7.9 6.2 14.1 14.1 14.1"/><path d="M-5650.925-5176.777v8.5c0 2.5-2.5 5-5.3 5h-8.1c-3.1 0-5.3-2.2-5.3-5.3v-8.1c0-2.8 2.5-5.3 5.3-5.3h8.5c2.7-.2 4.9 2 4.9 5.2m-181.8 185.15v13.8c0 4.7-4.1 8.8-8.8 8.8h-13.8c-5 0-8.8-3.8-8.8-8.8v-13.8c0-4.7 4.1-8.8 8.8-8.8h13.8c5.1.1 8.8 3.8 8.8 8.8m-23.5 28.9h16c7.5 0 13.8-6.3 13.8-13.8v-16c0-7.8-6.3-14.1-14.1-14.1h-16c-7.5 0-13.8 6.3-13.8 13.8v16c0 7.8 6.3 14.1 14.1 14.1"/><path d="M-5838.925-4988.777v8.5c0 2.5-2.5 5-5.3 5h-8.1c-3.1 0-5.3-2.2-5.3-5.3v-8.1c0-2.8 2.5-5.3 5.3-5.3h8.5c2.7-.1 4.9 2.1 4.9 5.2"/><text class="st14 st15 st16" transform="translate(-5844.174 -4902.142)scale(5.7387)">P</text><text class="st14 st15 st16" transform="translate(-5822.66 -4902.142)scale(5.7387)">A</text><text class="st14 st15 st16" transform="translate(-5795.127 -4902.142)scale(5.7387)">C</text><text class="st14 st15 st16" transform="translate(-5770.604 -4902.142)scale(5.7387)">K</text><text class="st14 st15 st16" transform="translate(-5745.27 -4902.142)scale(5.7387)">A</text><text class="st14 st15 st16" transform="translate(-5717.765 -4902.142)scale(5.7387)">G</text><text class="st14 st15 st16" transform="translate(-5688.238 -4902.142)scale(5.7387)">E</text></g></g></g></g><g id="Arm-Left"><path id="Fill" d="M180.7 253.3s47.7 15.9 62.6 18.8c8.6 1.7 19.5-2.6 25.1-.4 4.9 1.9 8.7 8.7 8.4 13.7-.2 4.9-4 13.2-8.9 16.6-5.7 4-25.5 7.7-25.5 7.7l-33.9-2.5-45.7-15.2-29.3-18.5c15.5-3.3 31.5-8.7 47.2-20.2" style="fill-rule:evenodd;clip-rule:evenodd;fill:#fbf8d7"/><path id="Outline" d="M180.1 253.9s42.5 18.1 63.1 18.1c14 0 27.6-5.4 31.1 5.5 5.2 16.6-6.3 26.7-17.4 28.9-20.4 4-45.6 2.9-70-5.5s-38.3-14.9-52.4-26" class="st11"/><path d="M275.5 283.4s-4.5 3.7-13.4 3.5" class="st5"/></g><g id="Arm-Right"><path id="Fill1" d="M426.2 217.9s30.4 9.1 30.8 32.7c-.7 19.3-12.5 30.3-31.3 36-21.9-.6-16.5-24.7.4-32.9.1-7.6.1-35.8.1-35.8" class="st4"/><path d="M413.5 275.7s6.2-1 10.7-3.2" class="st5"/></g></g></svg>