<svg id="b" xmlns="http://www.w3.org/2000/svg" viewBox="0 0 436.13 418.33"><g id="c"><path d="M359.87,206.33v197.24c0,8.55-7.01,14.48-15.49,14.48h-22.49v-250.67h55.98l-81.47-116.82-81.47,116.82h55.98v85.88c-11.86-15.87-21.96-33.16-37.01-46.42l-62.02-.96c-6.74-2.06-11.98-5.73-14.41-12.56-3.8-10.68,1.39-15.76,7.08-23.84C204.25,113.03,243.69,58.69,285.4,3.61c6.53-4.81,15.45-4.81,21.98,0,126.3,173.42,77.16,106.83,126.3,173.42,4.46,9.33,2.96,19.81-5.9,25.74-1.44.96-7.14,3.56-8.43,3.56h-59.48Z" style="fill:#f48734;"/><path d="M131.8,180.52c-3.26,18.5.34,36.23,18.13,45.31,14.09,7.2,32.64,1.38,47.98,4,30.28,31.48,52.3,73.06,60.7,116.12,2.73,13.99,6.82,41.59,3.61,54.95-4.7,19.53-34.03,23.45-45.13,6.51-6.12-9.34-3.25-16.9-4.18-26.79-8.8-94-76.32-163.75-170.44-174.26-11.46-1.28-23.13,1.57-32.95-6.03-18.31-14.17-8.31-42.62,13.98-44.9,6.79-.7,16.96.35,23.97.99,29.33,2.69,57.95,11.41,84.33,24.1Z" style="fill:#f59b5d;"/><path d="M20.73,242.53c9.17-1.41,23,.54,32.27,2.24,51.56,9.44,95.95,46.81,113.96,95.87,8.39,22.87,22.78,82.06-19.52,77.41-24.11-2.65-20.08-27.34-22.97-43.96-7.09-40.83-43.14-74.92-84.11-80.75-12.57-1.79-24.32,1.4-33.89-9.09-12.93-14.17-4.82-38.78,14.26-41.72Z" style="fill:#f6b686;"/><path d="M35.76,334.44c57.48-6.86,64.35,80.42,7.69,83.6-52.69,2.96-59.56-77.41-7.69-83.6Z" style="fill:#f9c49c;"/></g></svg>