<svg xmlns:inkscape="http://www.inkscape.org/namespaces/inkscape" xmlns:sodipodi="http://sodipodi.sourceforge.net/DTD/sodipodi-0.dtd" xmlns:xlink="http://www.w3.org/1999/xlink" xmlns="http://www.w3.org/2000/svg" xmlns:svg="http://www.w3.org/2000/svg" xmlns:rdf="http://www.w3.org/1999/02/22-rdf-syntax-ns#" xmlns:cc="http://creativecommons.org/ns#" xmlns:dc="http://purl.org/dc/elements/1.1/" id="svg4510" version="1.1" sodipodi:docname="webmin-favicon.svg" inkscape:version="1.1 (c68e22c387, 2021-05-23)" viewBox="6.38 11.95 179.47 165.51">
  
  
  
  <g transform="translate(-14.719235,-1.5882154)" id="layer1">
    <g id="g831" transform="matrix(0.96858756,0,0,0.96858756,5.9030527,0.8418819)">
      
      <path id="path4596" d="m 143.15191,182.81687 c -3.32932,-0.3344 -6.55525,-1.27688 -9.6922,-2.83172 -1.99351,-0.98809 -2.77472,-1.44118 -17.11259,-9.92503 l -9.28163,-5.49203 -12.49617,6.9775 c -13.34467,7.45127 -14.623656,8.12666 -16.871992,8.90953 -2.816527,0.98069 -4.399052,1.25441 -7.885632,1.36389 -2.855088,0.0896 -3.608857,0.0479 -5.655616,-0.31358 -5.284995,-0.93329 -10.193872,-2.93064 -14.200614,-5.77802 -2.021163,-1.43633 -5.563145,-5.1809 -6.939227,-7.33612 -3.769424,-5.90369 -5.561745,-12.58002 -5.258419,-19.58743 0.0611,-1.41142 0.164626,-2.88549 0.230065,-3.2757 0.09878,-0.58904 0.06065,-0.73032 -0.224699,-0.83233 -1.403199,-0.50158 -4.134868,-1.81303 -5.742379,-2.75687 -2.534499,-1.48811 -4.082995,-2.70454 -6.380019,-5.01185 -7.124281,-7.15623 -10.113447,-16.26591 -8.515453,-25.9514 0.865294,-5.24457 2.751124,-9.98853 5.51628,-13.876661 1.33106,-1.871624 4.169846,-4.757668 6.049583,-6.150291 1.36318,-1.009926 14.632545,-9.207912 22.517296,-13.911475 L 54.38309,75.14351 54.255027,59.936211 c -0.139578,-16.574826 -0.10126,-17.560253 0.828452,-21.305627 1.32905,-5.35411 4.003455,-9.946511 8.351579,-14.341054 5.135519,-5.190342 10.270916,-8.025804 16.557063,-9.141833 3.183531,-0.565197 8.714071,-0.434708 11.909075,0.280986 5.044646,1.13002 9.933234,3.39425 14.273064,6.610798 l 1.22936,0.911176 1.79229,-1.389976 c 4.82581,-3.742551 9.54389,-5.891289 15.34397,-6.988043 2.90528,-0.549368 8.62916,-0.601151 11.19739,-0.101301 6.40412,1.246425 11.74766,4.247633 16.61442,9.331519 4.87624,5.093803 7.63632,10.498763 8.79313,17.219278 0.40527,2.354334 0.41958,5.658481 0.0925,21.342529 -0.15965,7.655867 -0.19512,12.569463 -0.0915,12.673977 0.30212,0.3047 5.48271,3.375235 13.86141,8.215659 12.61521,7.287875 13.32631,7.765433 16.50394,11.083534 4.07438,4.254488 6.74714,9.630957 7.98754,16.067607 0.56105,2.91141 0.61232,8.5349 0.10033,11.00147 -1.05823,5.09798 -3.11174,9.34012 -6.62755,13.69115 -3.46705,4.29072 -8.69493,8.01308 -14.03595,9.99389 l -1.64742,0.61098 -0.0333,4.9246 c -0.0366,5.40522 -0.2208,6.79361 -1.41948,10.69947 -1.86393,6.07353 -5.89774,11.88865 -10.67709,15.39202 -2.12351,1.55659 -5.81759,3.43724 -8.6013,4.37896 -4.70245,1.59078 -9.08512,2.15277 -13.40499,1.71889 z m 7.51725,-20.02251 c 3.20063,-1.11994 5.27341,-3.23727 6.66581,-6.80907 0.62024,-1.5911 0.76501,-4.10072 0.33748,-5.85079 -1.07573,-4.4036 -3.04085,-5.98498 -18.95872,-15.25687 -14.65685,-8.53735 -15.13819,-8.84347 -16.84943,-10.71582 -1.82426,-1.99599 -2.54928,-3.80405 -2.54928,-6.3573 0,-1.94807 0.50884,-3.59898 1.66058,-5.38762 1.13027,-1.75534 2.07486,-2.62858 3.73812,-3.45579 1.75991,-0.87529 3.52308,-1.16738 5.35297,-0.88676 2.98154,0.45722 2.99311,0.46311 19.07842,9.73321 6.59283,3.79949 12.61821,7.18919 13.38977,7.53266 2.48474,1.10618 5.05816,1.68119 7.56449,1.69025 2.10243,0.008 2.24927,-0.0182 3.44275,-0.60538 2.35554,-1.15888 4.99956,-4.37069 5.81348,-7.06192 0.77065,-2.54811 0.65027,-5.44538 -0.3145,-7.56857 -0.86643,-1.90684 -2.92985,-3.83301 -6.7053,-6.25934 -1.55228,-0.99759 -14.03508,-8.338142 -22.09265,-12.991663 -6.61013,-3.817575 -7.71654,-4.725455 -8.89196,-7.29639 -1.24375,-2.720353 -1.23399,-2.53697 -1.04728,-19.672483 0.0919,-8.433237 0.10675,-16.573501 0.0331,-18.089478 -0.23937,-4.921186 -0.94631,-7.097678 -2.99733,-9.228112 -4.05923,-4.216368 -11.77209,-4.446635 -15.61885,-0.466295 -1.78097,1.842829 -2.82218,4.081055 -3.53704,7.603402 -0.3418,1.684126 -0.37816,2.927153 -0.53926,18.43885 -0.13279,12.785063 -0.23282,17.006286 -0.43238,18.246618 -0.6918,4.299853 -3.65802,7.610455 -7.5958,8.477638 -5.99826,1.320944 -11.345404,-2.348514 -12.364977,-8.48542 -0.230897,-1.389814 -0.247458,-3.765376 -0.115948,-16.630843 0.08439,-8.255182 0.09052,-16.2956 0.01375,-17.867594 -0.245767,-5.029163 -0.936044,-7.173447 -2.99909,-9.316356 -4.059234,-4.216368 -11.77209,-4.446635 -15.618836,-0.466295 -1.777846,1.839588 -2.814667,4.065516 -3.54161,7.603402 -0.350385,1.705267 -0.378788,2.758928 -0.509804,18.914078 -0.09267,11.426651 -0.206471,17.403948 -0.342676,17.99873 -0.807264,3.525196 -2.648485,6.103255 -5.656661,7.920408 -0.676951,0.408926 -3.495526,2.112619 -6.263505,3.785983 -2.767976,1.673365 -7.832687,4.690138 -11.254913,6.70394 -9.010197,5.30203 -11.349905,6.87946 -13.02623,8.7822 -1.432022,1.62543 -2.127618,3.66624 -2.130804,6.25154 -0.0037,2.90793 1.269954,5.81114 3.589152,8.18193 2.79384,2.85601 6.092398,3.24158 11.750889,1.37362 2.274,-0.75068 4.232857,-1.78605 11.529424,-6.09395 7.244097,-4.27693 8.459491,-4.9804 14.012027,-8.11025 4.161101,-2.34551 5.41445,-2.87521 7.568806,-3.19875 3.800943,-0.57083 7.004476,0.91357 9.196697,4.26142 1.325203,2.02378 1.772226,3.60105 1.675006,5.91008 -0.0648,1.53926 -0.156045,1.93286 -0.748242,3.22812 -0.710509,1.55405 -2.174097,3.34365 -3.521262,4.30561 -1.129426,0.80649 -3.845888,2.39478 -13.17648,7.70418 -10.411667,5.92458 -12.734721,7.31103 -15.46407,9.22937 -3.342782,2.34947 -4.636635,3.95871 -5.404667,6.72201 -0.47749,1.71797 -0.305462,4.76243 0.355289,6.2876 1.069733,2.46923 3.460234,5.03268 5.689902,6.10156 1.206776,0.57853 2.904869,1.02687 3.889308,1.02687 1.878838,0 5.481706,-1.10739 8.189137,-2.51704 1.912121,-0.99555 9.287486,-5.12309 17.751652,-9.93451 10.634156,-6.04495 11.008566,-6.21046 14.091526,-6.22963 3.06799,-0.0191 4.95129,0.66073 9.88237,3.56719 23.2914,13.72845 25.90897,15.15835 28.69953,15.67754 1.5628,0.29077 3.71246,0.10865 5.3082,-0.44972 z" style="opacity:1;fill:#118911;fill-opacity:1;stroke:#109510;stroke-width:1.97864;stroke-linecap:round;stroke-linejoin:round;stroke-miterlimit:4;stroke-dasharray:none;stroke-opacity:1;paint-order:stroke fill markers" inkscape:connector-curvature="0"/>
    </g>
  </g>
</svg>