<svg xmlns="http://www.w3.org/2000/svg" xml:space="preserve" viewBox="0 0 512 512"><linearGradient id="a" x1="36.924" x2="475.076" y1="802.588" y2="549.62" gradientTransform="translate(0 -420.104)" gradientUnits="userSpaceOnUse"><stop offset="0" style="stop-color:#10e7ff"/><stop offset=".103" style="stop-color:#33d5ff"/><stop offset=".255" style="stop-color:#60bdff"/><stop offset=".408" style="stop-color:#86aaff"/><stop offset=".56" style="stop-color:#a39aff"/><stop offset=".71" style="stop-color:#b790ff"/><stop offset=".858" style="stop-color:#c489ff"/><stop offset="1" style="stop-color:#c887ff"/></linearGradient><path d="M256 512 37.8 384V128L256 0l218.2 128v256zM68.3 366l187.3 110 187.3-110V146L256 36.1 68.3 146z" style="fill:url(#a)"/><linearGradient id="b" x1="172.52" x2="389.841" y1="714.582" y2="589.111" gradientTransform="translate(0 -420.104)" gradientUnits="userSpaceOnUse"><stop offset="0" style="stop-color:#10e7ff"/><stop offset=".103" style="stop-color:#33d5ff"/><stop offset=".255" style="stop-color:#60bdff"/><stop offset=".408" style="stop-color:#86aaff"/><stop offset=".56" style="stop-color:#a39aff"/><stop offset=".71" style="stop-color:#b790ff"/><stop offset=".858" style="stop-color:#c489ff"/><stop offset="1" style="stop-color:#c887ff"/></linearGradient><path d="m350.1 186.4-76.5 134.4 24.9 43.8 101.4-178.3c0 .1-49.8.1-49.8.1m-85.5 0-76.5 134.4 24.9 43.8 101.4-178.3c0 .1-49.8.1-49.8.1m-152.5 0 101.4 178.3 24.9-43.8-76.5-134.4c0-.1-49.8-.1-49.8-.1m0 0 101.4 178.3 24.9-43.8-76.5-134.4c0-.1-49.8-.1-49.8-.1m152.5 0-76.5 134.4 24.9 43.8 101.4-178.3c0 .1-49.8.1-49.8.1" style="fill:url(#b)"/></svg>