<svg xmlns="http://www.w3.org/2000/svg" xmlns:cc="http://creativecommons.org/ns#" xmlns:dc="http://purl.org/dc/elements/1.1/" xmlns:inkscape="http://www.inkscape.org/namespaces/inkscape" xmlns:rdf="http://www.w3.org/1999/02/22-rdf-syntax-ns#" xmlns:sodipodi="http://sodipodi.sourceforge.net/DTD/sodipodi-0.dtd" inkscape:version="1.0.2 (e86c870879, 2021-01-15, custom)" sodipodi:docname="VeraCrypt_Logo.svg" version="1.1" xml:space="preserve" viewBox="-0.07 0.36 368.37 213.14"><title>VeraCrypt logo</title><metadata><rdf:RDF><cc:Work rdf:about=""><dc:format>image/svg+xml</dc:format><dc:type rdf:resource="http://purl.org/dc/dcmitype/StillImage"/><dc:title/></cc:Work></rdf:RDF></metadata><sodipodi:namedview bordercolor="#666666" borderopacity="1" fit-margin-bottom="0" fit-margin-left="0" fit-margin-right="0" fit-margin-top="0" gridtolerance="10" guidetolerance="10" inkscape:current-layer="g4144" inkscape:cx="148.07729" inkscape:cy="-212.3024" inkscape:document-rotation="0" inkscape:pageopacity="0" inkscape:pageshadow="2" inkscape:window-height="1014" inkscape:window-maximized="1" inkscape:window-width="1920" inkscape:window-x="0" inkscape:window-y="36" inkscape:zoom="0.80580595" objecttolerance="10" pagecolor="#ffffff" showgrid="false"/><g transform="matrix(1.25 0 0 -1.25 -21.7 1041)" inkscape:groupmode="layer" inkscape:label="VeraCrypt"><g transform="translate(41.9 790)"><path d="m0 0-24.6 42.5 49.1 0.013z" style="fill:#20acd9" inkscape:connector-curvature="0"/></g><g transform="translate(41.9 790)"><path d="m0 0 24.5 42.5 24.5-42.5z" style="fill:#27a7d4" inkscape:connector-curvature="0"/></g><g transform="translate(66.5 747)"><path d="m0 0-24.6 42.5 49.1 0.013z" style="fill:#259ed2" inkscape:connector-curvature="0"/></g><g transform="translate(66.5 747)"><path d="m0 0 24.5 42.5 24.5-42.5z" style="fill:#2a8ece" inkscape:connector-curvature="0"/></g><g transform="translate(91 705)"><path d="m0 0-24.6 42.5 49.1 0.013z" style="fill:#3088c8" inkscape:connector-curvature="0"/></g><g transform="translate(91 705)"><path d="m0 0 24.5 42.5 24.5-42.5z" style="fill:#357abe" inkscape:connector-curvature="0"/></g><g transform="translate(116 662)"><path d="m0 0-24.6 42.5 49.1 0.013z" style="fill:#3a6db3" inkscape:connector-curvature="0"/></g><g transform="translate(116 662)"><path d="m0 0 24.5 42.5 24.5-42.5z" style="fill:#22697d" inkscape:connector-curvature="0"/></g><g transform="translate(165 662)"><path d="m0 0-24.6 42.5 49.1 0.013z" style="fill:#3a9ab1" inkscape:connector-curvature="0"/></g><g transform="translate(140 705)"><path d="m0 0 24.5 42.5 24.5-42.5z" style="fill:#3aa6ae" inkscape:connector-curvature="0"/></g><g transform="translate(189 705)"><path d="m0 0-24.6 42.5 49.1 0.013z" style="fill:#3bacac" inkscape:connector-curvature="0"/></g><g transform="translate(165 747)"><path d="m0 0 24.5 42.5 24.6-42.5z" style="fill:#3daaa0" inkscape:connector-curvature="0"/></g><g transform="translate(214 747)"><path d="m0 0-24.6 42.5 49.1 0.013z" style="fill:#3faa8d" inkscape:connector-curvature="0"/></g><g transform="translate(189 790)"><path d="m0 0 24.5 42.5 24.5-42.5z" style="fill:#40ab86" inkscape:connector-curvature="0"/></g><g transform="translate(189 705)"><path d="m0 0-24.6 42.5 49.1 0.013z" style="fill:#2f6b54" inkscape:connector-curvature="0"/></g><g transform="translate(165 747)"><path d="m0 0 24.5 42.5 24.5-42.5z" style="fill:#44b496" inkscape:connector-curvature="0"/></g><g transform="translate(214 747)"><path d="m0 0-24.6 42.5 49.1 0.013z" style="fill:#52b89b" inkscape:connector-curvature="0"/></g><g transform="translate(189 790)"><path d="m0 0 24.5 42.5 24.5-42.5z" style="fill:#5cba9d" inkscape:connector-curvature="0"/></g><g transform="translate(238 790)"><path d="m0 0-24.6 42.5 49.1 0.013z" style="fill:#6fc0a6" inkscape:connector-curvature="0"/></g><g transform="translate(238 790)"><path d="m0 0 24.5 42.5 24.6-42.5z" style="fill:#88c9b2" inkscape:connector-curvature="0"/></g><g transform="translate(287 790)"><path d="m0 0-24.5 42.5 49.1-6e-3z" style="fill:#99d0bb" inkscape:connector-curvature="0"/></g><g transform="translate(189 705)"><path d="m0 0 24.8 42.4 24.3-42.7z" style="fill:#37a084" inkscape:connector-curvature="0"/></g><g transform="translate(214 662)"><path d="m0 0 24.5 42.5 24.6-42.5z" style="fill:#35896c" inkscape:connector-curvature="0"/></g><g transform="translate(263 662)"><path d="m0 0-24.6 42.5 49.1 0.013z" style="fill:#379b7f" inkscape:connector-curvature="0"/></g><g transform="translate(263 662)"><path d="m0 0 24.5 42.5 24.5-42.5z" style="fill:#3bad91" inkscape:connector-curvature="0"/></g><g transform="translate(214 662)"><path d="m0 0-24.6 42.5 49.1 0.013z" style="fill:#368f74" inkscape:connector-curvature="0"/></g></g></svg>