<svg xmlns="http://www.w3.org/2000/svg" id="Layer_2" data-name="Layer 2" viewBox="0 1.86 78.48 48.06">
  <defs>
    <style>
      .cls-1 {
        fill: #0066b3;
      }

      .cls-2 {
        fill: #231f20;
      }
    </style>
  </defs>
  <g id="Layer_1-2" data-name="Layer 1">
    <g>
      <path class="cls-1" d="m16.82,2.51s-4.89-1.92-9.84,2.06C6.98,4.57,1.09,8.52.01,25.17c0,0-.33,2.77,2.12,3.18,0,0,2.46.48,2.79-1.6.32-2.08.26-12.58,4.92-17.97,0,0,.45-.68,1.69-1.21,1.03-.64,1.85-1.8,2.46-2.72,0,0,.91-1.21,2.84-2.33"/>
      <path class="cls-1" d="m25.65,2.12s-4.35-1.38-9.03,2.19c0,0-5.56,3.4-6.85,16.89,0,0-.48,3.33-.22,5.02,0,0,.21,1.97,2.25,2.15,0,0,2.45.19,2.6-2.11.15-2.29.21-3.23.21-3.23,0,0,.39-8.97,4.03-13.52l.88.66s1.24-4.71,6.13-8.06h0Z"/>
      <path class="cls-1" d="m34.47,2.12s-5.82-1.36-10.03,3.22c0,0-4.18,3.73-5.41,12.99,0,0-.52,4.98-.61,7.4,0,0-.04,2.35,2.21,2.65,0,0,2.33.14,2.48-2.32,0,0,.15-11.34,4.35-16.53l1.04.65s1.82-5.24,5.97-8.05h0Z"/>
      <path class="cls-1" d="m41.17,2s-5.86-.24-9.3,5.67c0,0-3.97,5.79-3.96,17.65,0,0-.24,2.81,1.96,3.07,0,0,2.61.16,2.61-2.82,0,0,.12-11.7,4.58-16.43,0,0,3.95,4.74,4.28,15.91,0,0,.14,7.65,1.56,11.87,0,0,1.29-4.73,1.55-11.29,0,0-.11-1.2.93-2.04,0,0,.68-.34.55-1.53,0,0-.96-9.74-4.2-15.26,0,0,6.88-.45,8.24,13.31,0,0,.01,2.01,1.13,3.26,0,0,.82.58.9,1.99,0,0,.2,1.95-.38,8.24,0,0-.14,1.38.47,3.34,0,0,1.7-4.7,1.25-9.31,0,0-.22-3.74,1.64-5,0,0-.16-10.44-4.31-16.15,0,0-3.29-4.74-9.5-4.48h0Z"/>
      <path class="cls-1" d="m61.66,49.27s4.89,1.92,9.84-2.06c0,0,5.88-3.95,6.96-20.6,0,0,.33-2.77-2.12-3.18,0,0-2.46-.48-2.79,1.6-.32,2.08-.26,12.58-4.92,17.96,0,0-.45.68-1.69,1.21-1.03.64-1.85,1.8-2.46,2.72,0,0-.91,1.21-2.84,2.33"/>
      <path class="cls-1" d="m52.83,49.66s4.35,1.38,9.03-2.2c0,0,5.56-3.4,6.85-16.89,0,0,.48-3.33.22-5.02,0,0-.21-1.97-2.25-2.15,0,0-2.45-.19-2.6,2.1-.15,2.29-.21,3.23-.21,3.23,0,0-.39,8.97-4.03,13.52l-.88-.66s-1.24,4.71-6.13,8.06h0Z"/>
      <path class="cls-1" d="m44,49.66s5.82,1.36,10.03-3.22c0,0,4.18-3.73,5.41-12.99,0,0,.52-4.98.61-7.4,0,0,.04-2.35-2.21-2.65,0,0-2.33-.14-2.48,2.32,0,0-.15,11.34-4.35,16.53l-1.04-.65s-1.82,5.24-5.97,8.05h0Z"/>
      <path class="cls-1" d="m37.31,49.79s5.86.24,9.3-5.67c0,0,3.97-5.79,3.96-17.65,0,0,.24-2.81-1.96-3.07,0,0-2.61-.16-2.61,2.82,0,0-.12,11.7-4.58,16.43,0,0-3.95-4.74-4.28-15.91,0,0-.14-7.65-1.56-11.87,0,0-1.29,4.73-1.55,11.29,0,0,.11,1.2-.93,2.04,0,0-.69.34-.55,1.53,0,0,.96,9.74,4.2,15.26,0,0-6.88.45-8.24-13.31,0,0-.01-2.01-1.13-3.26,0,0-.82-.58-.9-1.99,0,0-.2-1.95.38-8.24,0,0,.14-1.38-.47-3.34,0,0-1.7,4.7-1.25,9.31,0,0,.22,3.74-1.64,5,0,0,.16,10.44,4.31,16.16,0,0,3.29,4.74,9.5,4.48h0Z"/>
      
      
      
      
      
      
      
      
      
      
      
      
      
      
      
      
      
      
      
      
      
      
    </g>
  </g>
</svg>