<svg xmlns="http://www.w3.org/2000/svg" xml:space="preserve" viewBox="121.21 0 269.58 512.01"><path d="M2175.6 938.2c-3.7-626.9-81.6-945.9-382.1-1524.6-111.3-215.1-267.1-519.3-348.7-671.4C1251.9-1625 1174-2059 1229.7-2426.3c144.7-979.3 1012.7-1539.4 1810.2-1168.5 582.4 270.8 864.3 760.4 868 1502.3 0 563.8-230 1313.2-504.5 1632.2L3310.7-349l-3.7-485.9c0-793.8-92.7-1075.7-322.7-997.8-148.4 55.6-166.9 189.2-100.2 741.9 133.5 1072-14.8 1843.6-437.7 2307.3-274.5 293-270.8 293-270.8-278.3" style="fill:#eb0505" transform="matrix(.1 0 0 -.1 0 141)"/></svg>