<svg xmlns="http://www.w3.org/2000/svg" width="512" height="512"><mask id="a"><path fill="#fff" d="M80.848 32.904a16.15 16.15 0 0 0-8.043 2.076 15.92 15.92 0 0 0-8.03 13.836v414.342a15.92 15.92 0 0 0 8.03 13.836 15.96 15.96 0 0 0 7.906 2.102 16.07 16.07 0 0 0 8.107-2.21l350.58-207.171a15.95 15.95 0 0 0 7.827-13.727 15.95 15.95 0 0 0-7.827-13.726L88.818 35.09a16.1 16.1 0 0 0-7.97-2.186"/></mask><mask id="b"><path fill="#fff" d="M80.848 32.904a16.15 16.15 0 0 0-8.043 2.076 15.92 15.92 0 0 0-8.03 13.836v414.342a15.92 15.92 0 0 0 8.03 13.836 15.96 15.96 0 0 0 7.906 2.102 16.07 16.07 0 0 0 8.107-2.21l350.58-207.171a15.95 15.95 0 0 0 7.827-13.727 15.95 15.95 0 0 0-7.827-13.726L88.818 35.09a16.1 16.1 0 0 0-7.97-2.186"/></mask><path fill="url(#gradient)" d="M0 0h512v512H0z" mask="url(#a)"/><g mask="url(#b)"><path d="m233.73 643.617-3.546-2 465.43-826.535 3.546 1.996m-468.976 824.54-3.543-1.997 465.425-826.535 3.547 1.996m-468.976 824.54-3.543-1.997L688.52-188.91l3.546 1.996Zm0 0" style="stroke:none;fill-rule:nonzero;fill:#ef8a57;fill-opacity:1"/><path d="m223.094 637.625-3.547-1.996 465.43-826.535 3.543 1.996Zm0 0" style="stroke:none;fill-rule:nonzero;fill:#ef8a57;fill-opacity:1"/><path d="m219.547 635.629-3.547-2 465.43-826.535 3.547 2Zm-3.547-2-3.547-1.996L677.88-194.902l3.55 1.996Zm-3.547-1.996-3.547-1.996 465.426-826.535 3.547 1.996Zm-3.547-1.996-3.547-1.996 465.43-826.536 3.543 1.997Zm-3.547-1.996-3.547-1.996 465.43-826.536 3.547 1.996Zm0 0" style="stroke:none;fill-rule:nonzero;fill:#ef8a57;fill-opacity:1"/><path d="m201.813 625.645-3.543-2 465.425-826.532 3.547 1.996Zm0 0" style="stroke:none;fill-rule:nonzero;fill:#ef8a57;fill-opacity:1"/><path d="m198.27 623.645-3.547-1.997 465.425-826.535 3.547 2Zm-3.547-1.997-3.547-1.996 465.426-826.535 3.546 1.996Zm-3.547-1.996-3.547-1.996 465.426-826.535 3.547 1.996Zm-3.547-1.996-3.547-2 465.43-826.531 3.543 1.996ZM184.082 615.656l-3.547-1.996 465.43-826.535 3.547 2Zm0 0" style="stroke:none;fill-rule:nonzero;fill:#ef8a57;fill-opacity:1"/><path d="m180.535 613.66-3.547-1.996 465.43-826.539 3.547 2Zm-3.547-1.996-3.547-1.996 465.43-826.54 3.547 1.997Zm-3.547-1.996-3.543-1.996 465.426-826.54 3.547 1.997Zm0 0" style="stroke:none;fill-rule:nonzero;fill:#ef8a57;fill-opacity:1"/><path d="m169.898 607.672-3.546-2 465.425-826.535 3.547 1.996Zm-3.546-2-3.547-1.996 465.43-826.535 3.542 1.996Zm-3.547-1.996-3.547-1.996 465.43-826.54 3.546 2Zm-3.547-1.996-3.547-1.996 465.426-826.54 3.55 1.997Zm0 0" style="stroke:none;fill-rule:nonzero;fill:#ef8a57;fill-opacity:1"/><path d="m155.71 599.684-3.546-2L617.59-228.852l3.547 1.997Zm-3.546-2-3.547-1.996 465.43-826.536 3.543 1.996Zm0 0" style="stroke:none;fill-rule:nonzero;fill:#ef8a57;fill-opacity:1"/><path d="m148.617 595.688-3.547-1.997L610.5-232.844l3.547 1.996Zm0 0" style="stroke:none;fill-rule:nonzero;fill:#ef8a57;fill-opacity:1"/><path d="m145.07 593.691-3.543-1.996L606.953-234.84l3.547 1.996Zm-3.543-1.996-3.547-1.996L603.41-236.84l3.543 2Zm-3.547-1.996-3.546-2 465.425-826.535 3.551 1.996Zm-3.546-2-3.547-1.996 465.426-826.535 3.546 1.996Zm-3.547-1.996-3.547-1.996 465.43-826.535 3.543 1.996Zm-3.547-1.996-3.547-1.996 465.43-826.535 3.547 1.996Zm-3.547-1.996-3.547-2 465.43-826.535 3.547 2Zm-3.547-2-3.543-1.996L582.125-248.82l3.55 1.996Zm-3.543-1.996-3.547-1.996 465.426-826.535 3.543 1.996Zm-3.547-1.996-3.547-1.996 465.426-826.535 3.547 1.996Zm-3.547-1.996-3.546-2L571.488-254.81l3.547 1.997Zm0 0" style="stroke:none;fill-rule:nonzero;fill:#ef8a57;fill-opacity:1"/><path d="m106.063 571.723-3.547-1.996 465.43-826.532 3.542 1.996Zm-3.547-1.996-3.547-1.997 465.43-826.539 3.546 2.004Zm-3.547-1.997-3.547-1.996 465.426-826.539 3.55 1.996Zm-3.547-1.996-3.547-2L557.305-262.8l3.543 1.996Zm-3.547-2-3.543-1.996 465.426-826.535 3.547 1.996Zm0 0" style="stroke:none;fill-rule:nonzero;fill:#ef8a57;fill-opacity:1"/><path d="m88.332 561.738-3.547-1.996 465.426-826.535 3.547 1.996Zm-3.547-1.996-3.547-1.996 465.43-826.539 3.543 2Zm-3.547-1.996-3.547-1.996 465.43-826.54 3.547 1.997Zm-3.547-1.996-3.546-2L539.57-272.785l3.551 1.996Zm0 0" style="stroke:none;fill-rule:nonzero;fill:#ef8a57;fill-opacity:1"/><path d="m74.145 553.75-3.547-1.996 465.43-826.535 3.542 1.996Zm-3.547-1.996-3.547-1.996 465.43-826.535 3.546 1.996Zm-3.547-1.996-3.547-1.996 465.43-826.54 3.546 2Zm-3.547-1.996-3.543-2 465.43-826.535 3.543 1.996Zm-3.544-2-3.546-1.996L521.84-282.77l3.55 1.997Zm0 0" style="stroke:none;fill-rule:nonzero;fill:#ef8a57;fill-opacity:1"/><path d="m56.414 543.766-3.547-1.996 465.426-826.536 3.547 1.996Zm0 0" style="stroke:none;fill-rule:nonzero;fill:#ef8a57;fill-opacity:1"/><path d="m52.867 541.77-3.547-1.997 465.426-826.535 3.547 1.996Zm0 0" style="stroke:none;fill-rule:nonzero;fill:#ef8a57;fill-opacity:1"/><path d="m49.32 539.773-3.547-1.996 465.43-826.535 3.543 1.996Zm-3.547-1.996-3.546-2 465.43-826.535 3.546 2Zm-3.546-2-3.547-1.996 465.43-826.535 3.546 1.996Zm-3.547-1.996-3.543-1.996L500.563-294.75l3.546 1.996Zm-3.543-1.996-3.547-1.996 465.426-826.535 3.546 1.996Zm-3.547-1.996-3.547-2 465.426-826.531 3.547 1.996Zm-3.547-2-3.547-1.996 465.43-826.535 3.543 2Zm-3.547-1.996-3.547-1.996 465.43-826.535 3.547 1.996Zm-3.547-1.996-3.547-1.996 465.426-826.54 3.55 2Zm-3.547-1.996-3.547-2 465.426-826.535 3.547 1.996Zm-3.547-2.001-3.546-1.995 465.43-826.535 3.542 1.996Zm-3.546-1.995-3.543-1.996L472.19-310.727l3.547 1.997Zm0 0" style="stroke:none;fill-rule:nonzero;fill:#ef8a57;fill-opacity:1"/><path d="m6.766 515.809-3.547-1.996 465.426-826.54 3.546 2Zm0 0" style="stroke:none;fill-rule:nonzero;fill:#ef8a57;fill-opacity:1"/><path d="m3.219 513.813-3.547-1.997 465.43-826.539 3.543 1.996Zm-3.547-1.997-3.547-2 465.426-826.535 3.55 1.996Zm0 0" style="stroke:none;fill-rule:nonzero;fill:#ef8a57;fill-opacity:1"/><path d="m-3.875 509.816-3.547-1.996 465.426-826.535 3.547 1.996Zm0 0" style="stroke:none;fill-rule:nonzero;fill:#ef8a57;fill-opacity:1"/><path d="m-7.422 507.82-3.547-1.996 465.43-826.535 3.543 1.996Zm0 0" style="stroke:none;fill-rule:nonzero;fill:#ef8a57;fill-opacity:1"/><path d="m-10.969 505.824-3.547-1.996 465.43-826.539 3.547 2Zm0 0" style="stroke:none;fill-rule:nonzero;fill:#ef8a57;fill-opacity:1"/><path d="m-14.516 503.828-3.546-2 465.43-826.535 3.546 1.996Zm-3.546-2-3.543-1.996L443.82-326.703l3.547 1.996Zm-3.543-1.996-3.547-1.996L440.273-328.7l3.547 1.996Zm-3.547-1.996-3.547-1.996 465.426-826.535 3.546 1.996Zm0 0" style="stroke:none;fill-rule:nonzero;fill:#ef8a57;fill-opacity:1"/><path d="m-28.7 495.84-3.546-1.996 465.43-826.535 3.543 1.996Zm0 0" style="stroke:none;fill-rule:nonzero;fill:#ef8a57;fill-opacity:1"/><path d="m-32.246 493.844-3.547-2 465.43-826.535 3.547 2Zm0 0" style="stroke:none;fill-rule:nonzero;fill:#ef8a57;fill-opacity:1"/><path d="m-35.793 491.844-3.547-1.996 465.43-826.535 3.547 1.996Zm-3.547-1.996-3.547-1.996 465.43-826.536 3.547 1.996Zm0 0" style="stroke:none;fill-rule:nonzero;fill:#ef8a57;fill-opacity:1"/><path d="m-42.887 487.852-3.543-1.997L418.996-340.68l3.547 1.996Zm0 0" style="stroke:none;fill-rule:nonzero;fill:#ef8a57;fill-opacity:1"/><path d="m-46.43 485.855-3.547-2 465.426-826.53 3.547 1.995Zm-3.547-2-3.546-1.996 465.425-826.535 3.547 2Zm0 0" style="stroke:none;fill-rule:nonzero;fill:#ef8a57;fill-opacity:1"/><path d="m-53.523 481.86-3.547-1.997 465.425-826.535 3.547 1.996Zm0 0" style="stroke:none;fill-rule:nonzero;fill:#ef8a57;fill-opacity:1"/><path d="m-57.07 479.863-3.547-1.996 465.43-826.535 3.542 1.996Zm-3.547-1.996-3.547-2 465.43-826.531 3.546 1.996Zm0 0" style="stroke:none;fill-rule:nonzero;fill:#ef8a57;fill-opacity:1"/><path d="m-64.164 475.867-3.547-1.996 465.43-826.535 3.547 2Zm0 0" style="stroke:none;fill-rule:nonzero;fill:#ef8a57;fill-opacity:1"/><path d="m-67.71 473.871-3.548-1.996 465.43-826.54 3.547 2Zm0 0" style="stroke:none;fill-rule:nonzero;fill:#ef8a57;fill-opacity:1"/><path d="m-71.258 471.875-3.543-1.996 465.426-826.54 3.547 1.997Zm0 0" style="stroke:none;fill-rule:nonzero;fill:#ef8a57;fill-opacity:1"/><path d="m-74.8 469.879-3.548-1.996 465.426-826.54 3.547 1.997Zm0 0" style="stroke:none;fill-rule:nonzero;fill:#ef8a57;fill-opacity:1"/><path d="m-78.348 467.883-3.547-2 465.426-826.535 3.547 1.996Zm0 0" style="stroke:none;fill-rule:nonzero;fill:#ef8a57;fill-opacity:1"/><path d="m-81.895 465.883-3.546-1.996 465.43-826.535 3.542 1.996Zm-3.546-1.996-3.547-1.996 465.43-826.536 3.546 1.997Zm-3.547-1.997-3.547-1.995 465.43-826.54 3.546 2Zm-3.547-1.995-3.547-2 465.43-826.536 3.547 1.996Zm0 0" style="stroke:none;fill-rule:nonzero;fill:#ef8a57;fill-opacity:1"/><path d="m-96.082 457.895-3.547-1.997 465.43-826.535 3.547 1.996Zm-3.547-1.997-3.543-1.996 465.426-826.535 3.547 1.996Zm0 0" style="stroke:none;fill-rule:nonzero;fill:#ef8a57;fill-opacity:1"/><path d="m-103.172 453.902-3.547-1.996 465.426-826.535 3.547 1.996Zm0 0" style="stroke:none;fill-rule:nonzero;fill:#ef8a57;fill-opacity:1"/><path d="m-106.719 451.906-3.547-1.996L355.16-376.629l3.547 2Zm0 0" style="stroke:none;fill-rule:nonzero;fill:#ef8a57;fill-opacity:1"/><path d="m-110.266 449.91-3.546-2 465.425-826.535 3.547 1.996Zm0 0" style="stroke:none;fill-rule:nonzero;fill:#ef8a57;fill-opacity:1"/><path d="m-113.812 447.91-3.547-1.996L348.07-380.62l3.542 1.996Zm-3.548-1.996-3.546-1.996 465.43-826.535 3.546 1.996Zm-3.546-1.996-3.547-1.996 465.43-826.535 3.546 1.996Zm-3.547-1.996-3.543-2L337.43-386.61l3.547 1.996Zm0 0" style="stroke:none;fill-rule:nonzero;fill:#ef8a57;fill-opacity:1"/><path d="m-127.996 439.922-3.547-1.996L333.883-388.61l3.547 2Zm0 0" style="stroke:none;fill-rule:nonzero;fill:#ef8a57;fill-opacity:1"/><path d="m-131.543 437.926-3.547-1.996 465.426-826.535 3.547 1.996Zm-3.547-1.996-3.547-1.996L326.79-392.602l3.547 1.997Zm-3.547-1.996-3.547-1.996 465.43-826.536 3.543 1.996Zm-3.547-1.996-3.546-2L319.7-396.595l3.546 1.996Zm-3.546-2-73.168-41.204 465.425-826.53 73.172 41.202Zm0 0" style="stroke:none;fill-rule:nonzero;fill:#ef8a57;fill-opacity:1"/></g><g mask="url(#a)"><path d="M60.648 18.965 16.195 82.973l57.801-39.285-13.351-24.723z" style="stroke:none;fill-rule:nonzero;fill:#ef8a57;fill-opacity:1"/><path d="m81.613 0-7.617 43.688 55.777 15.05L94.602 0z" style="stroke:none;fill-rule:nonzero;fill:#ef7f48;fill-opacity:1"/><path d="M73.316 0 60.645 18.965l13.351 24.723L81.613 0z" style="stroke:none;fill-rule:nonzero;fill:#ef8a57;fill-opacity:1"/><path d="m119.766 32.516 10.007 26.222 50.29 4.938-60.297-31.164z" style="stroke:none;fill-rule:nonzero;fill:#ef7f48;fill-opacity:1"/><path d="M119.766 32.512 96.539 0h-1.937l35.171 58.738-10.007-26.222z" style="stroke:none;fill-rule:nonzero;fill:#ef8a57;fill-opacity:1"/><path d="m178.18 37.883 1.882 25.793-60.296-31.164 58.418 5.367z" style="stroke:none;fill-rule:nonzero;fill:#ef7f48;fill-opacity:1"/><path d="M0 99.469v14.148l84.582 11.965-68.387-42.61v-.003z" style="stroke:none;fill-rule:nonzero;fill:#ef8a57;fill-opacity:1"/><path d="m74 43.684 10.582 81.898-6.098-55.805-4.488-26.09z" style="stroke:none;fill-rule:nonzero;fill:#ef7f48;fill-opacity:1"/><path d="m74 43.684 10.582 81.898-68.387-42.61 57.801-39.284z" style="stroke:none;fill-rule:nonzero;fill:#ef8a57;fill-opacity:1"/><path d="M129.773 58.734 78.484 69.777l89.782 33.598-38.493-44.637z" style="stroke:none;fill-rule:nonzero;fill:#ef7f48;fill-opacity:1"/><path d="M129.773 58.734 78.484 69.777l-4.488-26.09 55.777 15.051z" style="stroke:none;fill-rule:nonzero;fill:#ef8a57;fill-opacity:1"/><path d="m180.066 63.676-11.8 39.699 24.992-7.504-13.196-32.195z" style="stroke:none;fill-rule:nonzero;fill:#ef7f48;fill-opacity:1"/><path d="m180.066 63.676-11.8 39.699-38.493-44.637 50.29 4.938z" style="stroke:none;fill-rule:nonzero;fill:#ef8a57;fill-opacity:1"/><path d="m193.86 35.36-.602 60.511-13.196-32.195 13.801-28.317z" style="stroke:none;fill-rule:nonzero;fill:#ef7f48;fill-opacity:1"/><path d="m84.582 125.582-21.453 28.395-5.629-37.762z" style="stroke:none;fill-rule:nonzero;fill:#ef8a57;fill-opacity:1"/><path d="M84.582 125.582 0 113.617v5.086l63.129 35.274z" style="stroke:none;fill-rule:nonzero;fill:#ef7f48;fill-opacity:1"/><path d="M78.484 69.777 57.5 116.215l44.453 48.043z" style="stroke:none;fill-rule:nonzero;fill:#ef8a57;fill-opacity:1"/><path d="M78.484 69.777 57.5 116.215l27.082 9.367z" style="stroke:none;fill-rule:nonzero;fill:#ef7f48;fill-opacity:1"/><path d="m168.27 103.375-66.317 60.883 50.363-53.574 15.95-7.309z" style="stroke:none;fill-rule:nonzero;fill:#ef8a57;fill-opacity:1"/><path d="m168.27 103.375-66.317 60.883-23.469-94.48 89.782 33.597z" style="stroke:none;fill-rule:nonzero;fill:#ed6d2d;fill-opacity:1"/><path d="m193.258 95.867-40.942 14.817 49.329 3.75-8.387-18.563z" style="stroke:none;fill-rule:nonzero;fill:#ec6521;fill-opacity:1"/><path d="m193.258 95.867-40.942 14.817 15.95-7.309 24.992-7.504z" style="stroke:none;fill-rule:nonzero;fill:#ed6d2d;fill-opacity:1"/><path d="m221.23 77.297-19.585 37.137 68.421 13.46-48.832-50.593z" style="stroke:none;fill-rule:nonzero;fill:#ec6521;fill-opacity:1"/><path d="m221.23 77.297-19.585 37.137-8.387-18.563 27.976-18.57z" style="stroke:none;fill-rule:nonzero;fill:#ed6d2d;fill-opacity:1"/><path d="m377.45 126.309-83.419 27.015 91.653-21.539-8.23-5.476z" style="stroke:none;fill-rule:nonzero;fill:#ec6521;fill-opacity:1"/><path d="m57.504 116.215-16.438 84.89 64.895-2.648L57.5 116.215z" style="stroke:none;fill-rule:nonzero;fill:#ed6d2d;fill-opacity:1"/><path d="m57.504 116.215-16.438 84.89 22.063-47.128-5.629-37.762z" style="stroke:none;fill-rule:nonzero;fill:#ec6521;fill-opacity:1"/><path d="m101.957 164.258 4.004 34.199 18.05 4.934-22.058-39.133z" style="stroke:none;fill-rule:nonzero;fill:#ed6d2d;fill-opacity:1"/><path d="m101.957 164.258 4.004 34.199L57.5 116.215l44.453 48.043z" style="stroke:none;fill-rule:nonzero;fill:#ec6521;fill-opacity:1"/><path d="m152.316 110.684-28.304 92.707 75.515-20.895z" style="stroke:none;fill-rule:nonzero;fill:#ed6d2d;fill-opacity:1"/><path d="m152.316 110.684-28.304 92.707-22.059-39.133z" style="stroke:none;fill-rule:nonzero;fill:#ec6521;fill-opacity:1"/><path d="m201.645 114.43-2.118 68.066 66.391-22.625-64.273-45.437z" style="stroke:none;fill-rule:nonzero;fill:#ed6d2d;fill-opacity:1"/><path d="m201.645 114.43-2.118 68.066-47.21-71.812 49.328 3.75z" style="stroke:none;fill-rule:nonzero;fill:#ec6521;fill-opacity:1"/><path d="m270.063 127.89-4.145 31.981 8.746 8.469-4.598-40.445z" style="stroke:none;fill-rule:nonzero;fill:#ed6d2d;fill-opacity:1"/><path d="m270.063 127.89-4.145 31.981-64.273-45.437 68.421 13.46z" style="stroke:none;fill-rule:nonzero;fill:#ec6521;fill-opacity:1"/><path d="m294.027 153.328-19.363 15.012 106.617 8.11-87.25-23.126z" style="stroke:none;fill-rule:nonzero;fill:#ed6d2d;fill-opacity:1"/><path d="m294.027 153.328-19.363 15.012-4.598-40.445 23.965 25.43z" style="stroke:none;fill-rule:nonzero;fill:#ec6521;fill-opacity:1"/><path d="m385.684 131.785-4.403 44.664-87.25-23.125z" style="stroke:none;fill-rule:nonzero;fill:#ed6d2d;fill-opacity:1"/><path d="m41.066 201.105-24.761 24.051 95.89 8.899z" style="stroke:none;fill-rule:nonzero;fill:#ec6521;fill-opacity:1"/><path d="m105.96 198.457 6.235 35.598 13.782-21.293z" style="stroke:none;fill-rule:nonzero;fill:#f25f15;fill-opacity:1"/><path d="m105.96 198.457 6.235 35.598-71.129-32.95z" style="stroke:none;fill-rule:nonzero;fill:#f1570a;fill-opacity:1"/><path d="m124.016 203.387 1.96 9.375 55.524 38.605-57.488-47.976z" style="stroke:none;fill-rule:nonzero;fill:#f25f15;fill-opacity:1"/><path d="m124.016 203.387 1.96 9.375-20.015-14.305 18.05 4.934z" style="stroke:none;fill-rule:nonzero;fill:#f1570a;fill-opacity:1"/><path d="M199.527 182.492 181.5 251.367l74.55-27.187-56.523-41.684z" style="stroke:none;fill-rule:nonzero;fill:#f25f15;fill-opacity:1"/><path d="M199.527 182.492 181.5 251.367l-57.488-47.976 75.515-20.895z" style="stroke:none;fill-rule:nonzero;fill:#f1570a;fill-opacity:1"/><path d="m265.918 159.875-9.867 64.305-8.86 9.074 18.727-73.383z" style="stroke:none;fill-rule:nonzero;fill:#f25f15;fill-opacity:1"/><path d="m265.918 159.875-9.867 64.305-56.524-41.684 66.391-22.625z" style="stroke:none;fill-rule:nonzero;fill:#f1570a;fill-opacity:1"/><path d="m274.664 168.34-27.473 64.914 97.477-13.176z" style="stroke:none;fill-rule:nonzero;fill:#f25f15;fill-opacity:1"/><path d="m274.664 168.34-27.473 64.914 18.727-73.383z" style="stroke:none;fill-rule:nonzero;fill:#f1570a;fill-opacity:1"/><path d="m381.281 176.45-36.613 43.628 41.621 30.168z" style="stroke:none;fill-rule:nonzero;fill:#f25f15;fill-opacity:1"/><path d="m381.281 176.45-36.613 43.628-70.004-51.738z" style="stroke:none;fill-rule:nonzero;fill:#f1570a;fill-opacity:1"/><path d="m387.035 160.707-.746 89.54 25.477-.88-24.73-88.656z" style="stroke:none;fill-rule:nonzero;fill:#f25f15;fill-opacity:1"/><path d="m387.035 160.707-.746 89.54-5.008-73.798 5.754-15.738z" style="stroke:none;fill-rule:nonzero;fill:#f1570a;fill-opacity:1"/><path d="m444.664 199.16-32.898 50.207 37.035-50.066z" style="stroke:none;fill-rule:nonzero;fill:#f25f15;fill-opacity:1"/><path d="m444.664 199.16-32.898 50.207-24.73-88.656z" style="stroke:none;fill-rule:nonzero;fill:#f1570a;fill-opacity:1"/><path d="m0 281.723 68.941-26.172-52.636-30.395L0 253.012z" style="stroke:none;fill-rule:nonzero;fill:#f25f15;fill-opacity:1"/><path d="m112.191 234.05-43.25 21.5 53.61-14.76-10.356-6.735z" style="stroke:none;fill-rule:nonzero;fill:#f1570a;fill-opacity:1"/><path d="m112.191 234.05-43.25 21.5-52.636-30.394 95.89 8.899z" style="stroke:none;fill-rule:nonzero;fill:#f25f15;fill-opacity:1"/><path d="m125.977 212.762-3.426 28.027 63.726 24.543z" style="stroke:none;fill-rule:nonzero;fill:#f1570a;fill-opacity:1"/><path d="m125.977 212.762-3.426 28.027-10.356-6.734z" style="stroke:none;fill-rule:nonzero;fill:#df520b;fill-opacity:1"/><path d="m181.5 251.363 4.777 13.969 32.582.102-37.359-14.067z" style="stroke:none;fill-rule:nonzero;fill:#c64a0c;fill-opacity:1"/><path d="m181.5 251.363 4.777 13.969-60.3-52.57 55.523 38.605z" style="stroke:none;fill-rule:nonzero;fill:#df520b;fill-opacity:1"/><path d="m256.055 224.18-37.196 41.254 63.04-10.407-25.848-30.847z" style="stroke:none;fill-rule:nonzero;fill:#c64a0c;fill-opacity:1"/><path d="m256.055 224.18-37.196 41.254-37.359-14.067 74.55-27.187z" style="stroke:none;fill-rule:nonzero;fill:#df520b;fill-opacity:1"/><path d="m247.188 233.254 34.71 21.773 30.946-8.047-65.653-13.726z" style="stroke:none;fill-rule:nonzero;fill:#c64a0c;fill-opacity:1"/><path d="m247.188 233.254 34.71 21.773-25.847-30.847-8.86 9.074z" style="stroke:none;fill-rule:nonzero;fill:#df520b;fill-opacity:1"/><path d="m344.668 220.074-31.824 26.906 68.886 7.961-37.062-34.863z" style="stroke:none;fill-rule:nonzero;fill:#c64a0c;fill-opacity:1"/><path d="m344.668 220.074-31.824 26.906-65.653-13.726 97.477-13.176z" style="stroke:none;fill-rule:nonzero;fill:#df520b;fill-opacity:1"/><path d="m386.293 250.246-4.563 4.695-11.34 18.692 15.9-23.387z" style="stroke:none;fill-rule:nonzero;fill:#c64a0c;fill-opacity:1"/><path d="m386.293 250.246-4.563 4.695-37.062-34.863 41.621 30.168z" style="stroke:none;fill-rule:nonzero;fill:#df520b;fill-opacity:1"/><path d="m411.766 249.371-41.375 24.262 105.015-22.13-63.64-2.136z" style="stroke:none;fill-rule:nonzero;fill:#c64a0c;fill-opacity:1"/><path d="m411.766 249.371-41.375 24.262 15.898-23.387 25.477-.879z" style="stroke:none;fill-rule:nonzero;fill:#df520b;fill-opacity:1"/><path d="m448.8 199.305 26.606 52.199-63.64-2.137 37.035-50.066z" style="stroke:none;fill-rule:nonzero;fill:#c64a0c;fill-opacity:1"/><path d="m68.941 255.547-59.84 37.547 70.91-10.418-11.07-27.125z" style="stroke:none;fill-rule:nonzero;fill:#df520b;fill-opacity:1"/><path d="M0 281.723v10.437l9.102.934 59.824-37.54z" style="stroke:none;fill-rule:nonzero;fill:#c64a0c;fill-opacity:1"/><path d="m122.55 240.79-42.538 41.886 79.324 46.367z" style="stroke:none;fill-rule:nonzero;fill:#df520b;fill-opacity:1"/><path d="m122.55 240.79-42.538 41.886-11.07-27.125z" style="stroke:none;fill-rule:nonzero;fill:#c64a0c;fill-opacity:1"/><path d="m186.285 265.332-26.95 63.711-.89-8.758 27.832-54.953z" style="stroke:none;fill-rule:nonzero;fill:#b4450d;fill-opacity:1"/><path d="m186.285 265.332-26.95 63.711-36.784-88.254 63.726 24.543z" style="stroke:none;fill-rule:nonzero;fill:#c64a0c;fill-opacity:1"/><path d="m218.863 265.434-60.418 54.851 90.575-25.418-30.16-29.433z" style="stroke:none;fill-rule:nonzero;fill:#b4450d;fill-opacity:1"/><path d="m218.863 265.434-60.418 54.851 27.832-54.953 32.582.102z" style="stroke:none;fill-rule:nonzero;fill:#a73f0b;fill-opacity:1"/><path d="m281.902 255.023-32.882 39.844 58.78 15.508-25.902-55.348z" style="stroke:none;fill-rule:nonzero;fill:#b4450d;fill-opacity:1"/><path d="m281.902 255.023-32.882 39.844-30.16-29.433 63.038-10.407z" style="stroke:none;fill-rule:nonzero;fill:#a73f0b;fill-opacity:1"/><path d="m312.844 246.977-5.043 63.398 32.562-3.5-27.52-59.895z" style="stroke:none;fill-rule:nonzero;fill:#b4450d;fill-opacity:1"/><path d="m312.844 246.977-5.043 63.398-25.903-55.348 30.946-8.047z" style="stroke:none;fill-rule:nonzero;fill:#a73f0b;fill-opacity:1"/><path d="m381.73 254.941-41.367 51.934 53.078-21.16z" style="stroke:none;fill-rule:nonzero;fill:#b4450d;fill-opacity:1"/><path d="m381.73 254.941-41.367 51.934-27.52-59.895z" style="stroke:none;fill-rule:nonzero;fill:#a73f0b;fill-opacity:1"/><path d="m370.395 273.625 23.046 12.09 23.489 3.41-46.54-15.492z" style="stroke:none;fill-rule:nonzero;fill:#b4450d;fill-opacity:1"/><path d="m370.395 273.625 23.046 12.09-11.71-30.774-11.34 18.692z" style="stroke:none;fill-rule:nonzero;fill:#a73f0b;fill-opacity:1"/><path d="m475.406 251.504-58.476 37.621 49.297 13.293z" style="stroke:none;fill-rule:nonzero;fill:#b4450d;fill-opacity:1"/><path d="m475.406 251.504-58.476 37.621-46.54-15.492z" style="stroke:none;fill-rule:nonzero;fill:#a73f0b;fill-opacity:1"/><path d="M80.008 282.676 21.64 325.53l68.879 11.336-10.508-54.191z" style="stroke:none;fill-rule:nonzero;fill:#b4450d;fill-opacity:1"/><path d="M80.008 282.676 21.64 325.53 9.1 293.094l70.91-10.418z" style="stroke:none;fill-rule:nonzero;fill:#a73f0b;fill-opacity:1"/><path d="m159.336 329.035-68.816 7.832 57.12 16.375 11.696-24.199z" style="stroke:none;fill-rule:nonzero;fill:#b4450d;fill-opacity:1"/><path d="m159.336 329.035-68.816 7.832-10.508-54.191 79.324 46.367z" style="stroke:none;fill-rule:nonzero;fill:#a73f0b;fill-opacity:1"/><path d="m158.445 320.285-10.804 32.957 31.75-24.816z" style="stroke:none;fill-rule:nonzero;fill:#b4450d;fill-opacity:1"/><path d="m158.445 320.285-10.804 32.957 11.695-24.199z" style="stroke:none;fill-rule:nonzero;fill:#a73f0b;fill-opacity:1"/><path d="m249.023 294.867-69.632 33.559 64.98 23.582 4.649-57.14z" style="stroke:none;fill-rule:nonzero;fill:#94390b;fill-opacity:1"/><path d="m249.023 294.867-69.632 33.559-20.946-8.14 90.575-25.419z" style="stroke:none;fill-rule:nonzero;fill:#802f07;fill-opacity:1"/><path d="m307.8 310.375-63.429 41.633 72.45-10.543z" style="stroke:none;fill-rule:nonzero;fill:#94390b;fill-opacity:1"/><path d="m307.8 310.375-63.429 41.633 4.649-57.14z" style="stroke:none;fill-rule:nonzero;fill:#802f07;fill-opacity:1"/><path d="m340.363 306.875-23.543 34.59 31.774 17.617z" style="stroke:none;fill-rule:nonzero;fill:#94390b;fill-opacity:1"/><path d="m340.363 306.875-23.543 34.59-9.02-31.09z" style="stroke:none;fill-rule:nonzero;fill:#802f07;fill-opacity:1"/><path d="m393.445 285.715-44.851 73.367 22.656-23.332 22.191-50.035z" style="stroke:none;fill-rule:nonzero;fill:#94390b;fill-opacity:1"/><path d="m393.445 285.715-44.851 73.367-8.23-52.207 53.077-21.16z" style="stroke:none;fill-rule:nonzero;fill:#802f07;fill-opacity:1"/><path d="m416.93 289.125-45.68 46.625 53.68 5.016z" style="stroke:none;fill-rule:nonzero;fill:#94390b;fill-opacity:1"/><path d="m416.93 289.125-45.68 46.625 22.191-50.035z" style="stroke:none;fill-rule:nonzero;fill:#802f07;fill-opacity:1"/><path d="m21.64 325.523 12.489 68.618 60.715-29.465L21.64 325.53z" style="stroke:none;fill-rule:nonzero;fill:#94390b;fill-opacity:1"/><path d="m90.52 336.867 4.324 27.809 56.312 42.418z" style="stroke:none;fill-rule:nonzero;fill:#802f07;fill-opacity:1"/><path d="m90.52 336.867 4.324 27.809L21.64 325.53z" style="stroke:none;fill-rule:nonzero;fill:#94390b;fill-opacity:1"/><path d="m147.645 353.242 3.511 53.852 38.832 16.414-42.347-70.266z" style="stroke:none;fill-rule:nonzero;fill:#802f07;fill-opacity:1"/><path d="m147.645 353.242 3.511 53.852-60.636-70.227 57.12 16.375z" style="stroke:none;fill-rule:nonzero;fill:#94390b;fill-opacity:1"/><path d="m179.387 328.426 10.601 95.082 43.645-43.043-54.242-52.04z" style="stroke:none;fill-rule:nonzero;fill:#802f07;fill-opacity:1"/><path d="m179.387 328.426 10.601 95.082-42.347-70.266 31.75-24.816z" style="stroke:none;fill-rule:nonzero;fill:#94390b;fill-opacity:1"/><path d="m244.367 352.016-10.734 28.449 48.578 22.668-37.84-51.125z" style="stroke:none;fill-rule:nonzero;fill:#802f07;fill-opacity:1"/><path d="m244.367 352.016-10.734 28.449-54.242-52.04 64.98 23.583z" style="stroke:none;fill-rule:nonzero;fill:#94390b;fill-opacity:1"/><path d="m316.82 341.465-34.61 61.668 27.43-15.168z" style="stroke:none;fill-rule:nonzero;fill:#802f07;fill-opacity:1"/><path d="m316.82 341.465-34.61 61.668-37.839-51.125z" style="stroke:none;fill-rule:nonzero;fill:#802106;fill-opacity:1"/><path d="m94.852 364.676-65.66 77.84 76.878-6.223-11.226-71.617z" style="stroke:none;fill-rule:nonzero;fill:#771f07;fill-opacity:1"/><path d="m94.852 364.676-65.66 77.84 4.937-48.375 60.715-29.465z" style="stroke:none;fill-rule:nonzero;fill:#802106;fill-opacity:1"/><path d="m151.148 407.102-45.078 29.191 25.985 13.406 19.101-42.605z" style="stroke:none;fill-rule:nonzero;fill:#771f07;fill-opacity:1"/><path d="m151.148 407.102-45.078 29.191-11.226-71.617 56.312 42.418z" style="stroke:none;fill-rule:nonzero;fill:#802106;fill-opacity:1"/><path d="m189.988 423.508-57.933 26.191 36.156 3.719z" style="stroke:none;fill-rule:nonzero;fill:#771f07;fill-opacity:1"/><path d="m189.988 423.508-57.933 26.191 19.101-42.605z" style="stroke:none;fill-rule:nonzero;fill:#802106;fill-opacity:1"/><path d="m233.637 380.465-65.426 72.953 50.5-26.316 14.922-46.637z" style="stroke:none;fill-rule:nonzero;fill:#771f07;fill-opacity:1"/><path d="m233.637 380.465-65.426 72.953 21.777-29.91 43.645-43.043z" style="stroke:none;fill-rule:nonzero;fill:#802106;fill-opacity:1"/><path d="m282.21 403.133-63.5 23.969 14.923-46.637z" style="stroke:none;fill-rule:nonzero;fill:#771f07;fill-opacity:1"/><path d="m106.07 436.293-56.19 46.066 92.617 5.868z" style="stroke:none;fill-rule:nonzero;fill:#802106;fill-opacity:1"/><path d="m106.07 436.293-56.19 46.066-20.69-39.843z" style="stroke:none;fill-rule:nonzero;fill:#771f07;fill-opacity:1"/><path d="m132.05 449.7 10.446 38.527-36.426-51.934 25.985 13.406z" style="stroke:none;fill-rule:nonzero;fill:#802106;fill-opacity:1"/><path d="m218.71 427.11-20.562 55.265-29.937-28.957 50.5-26.316z" style="stroke:none;fill-rule:nonzero;fill:#771f07;fill-opacity:1"/></g></svg>
