<svg xmlns:inkscape="http://www.inkscape.org/namespaces/inkscape" xmlns:sodipodi="http://sodipodi.sourceforge.net/DTD/sodipodi-0.dtd" xmlns="http://www.w3.org/2000/svg" xmlns:svg="http://www.w3.org/2000/svg" version="1.1" id="svg1" xml:space="preserve" inkscape:version="1.4 (e7c3feb100, 2024-10-09)" sodipodi:docname="vinchin-logo.svg" viewBox="0.02 0 142.68 135.85"><sodipodi:namedview id="namedview1" pagecolor="#ffffff" bordercolor="#000000" borderopacity="0.25" inkscape:showpageshadow="2" inkscape:pageopacity="0.0" inkscape:pagecheckerboard="0" inkscape:deskcolor="#d1d1d1" inkscape:document-units="mm" inkscape:zoom="1.5623016" inkscape:cx="396.85039" inkscape:cy="414.77267" inkscape:window-width="1920" inkscape:window-height="1011" inkscape:window-x="0" inkscape:window-y="0" inkscape:window-maximized="1" inkscape:current-layer="layer1"><inkscape:page x="0" y="0" width="142.70328" height="135.85432" id="page2" margin="0" bleed="0"/></sodipodi:namedview><defs id="defs1"/><g inkscape:label="Camada 1" inkscape:groupmode="layer" id="layer1" transform="translate(-25.658867,-39.086403)"><path style="display:inline;fill:#008080;stroke:#ececec" d="m 113.03799,173.81681 c 0.0423,-0.29523 -1.90499,-5.59351 -4.32727,-11.77396 -2.42229,-6.18044 -5.45045,-13.91607 -6.72926,-17.19029 -1.27881,-3.27422 -3.777233,-9.64407 -5.552063,-14.15521 -1.77483,-4.51115 -3.64441,-9.27365 -4.15462,-10.58333 -0.51022,-1.30969 -2.33275,-5.95313 -4.05006,-10.31875 -1.71732,-4.36563 -3.56244,-9.0686 -4.10027,-10.451054 -0.53783,-1.38244 -2.1471,-5.4901 -3.57616,-9.12812 -1.42906,-3.63802 -4.69744,-11.9724 -7.26306,-18.52083 -9.34564,-23.85358 -10.80267,-27.55251 -11.62067,-29.50104 l -0.83304,-1.98438 h -17.32687 -17.32686 l 0.0344,0.92604 c 0.0189,0.50932 1.58391,4.85511 3.47781,9.65729 1.8939,4.80219 3.88424,9.86235 4.42299,11.24479 0.53875,1.38245 2.08055,5.31151 3.42622,8.73125 1.34567,3.41974 3.19148,8.12271 4.1018,10.45105 0.91032,2.32833 2.82321,7.20989 4.25088,10.84791 1.42767,3.63802 4.69641,11.972404 7.26386,18.520844 2.56746,6.54843 6.0263,15.35906 7.68631,19.57916 1.66001,4.22011 3.90323,9.93511 4.98494,12.7 1.08171,2.7649 2.6458,6.75349 3.47576,8.86354 0.82997,2.11006 3.1115,7.94006 5.07008,12.95557 1.95858,5.01551 3.68865,9.27286 3.8446,9.46076 0.22743,0.27403 3.69353,0.32818 17.51363,0.2736 17.084293,-0.0675 17.230743,-0.0726 17.306963,-0.60484 z m 7.20995,-8.85592 c 0.27493,-0.65484 3.36556,-8.69156 6.86807,-17.85937 3.5025,-9.16782 6.53765,-17.08547 6.74477,-17.5948 0.42276,-1.03956 2.18668,-5.6369 6.34476,-16.53645 1.55441,-4.07459 3.22183,-8.42037 3.70537,-9.6573 0.48354,-1.23692 1.96847,-5.106454 3.29985,-8.598954 1.33137,-3.4925 2.88587,-7.54063 3.45443,-8.99584 1.38395,-3.54216 11.89655,-30.96691 14.84632,-38.73035 1.29286,-3.40264 2.35065,-6.35238 2.35065,-6.55499 0,-0.82122 -1.43489,-0.89756 -15.50569,-0.82497 -13.72483,0.0708 -14.12674,0.0874 -14.6035,0.60198 -0.26963,0.29104 -1.99295,4.45823 -3.82959,9.26042 -1.83664,4.80218 -5.1202,13.37468 -7.29681,19.05 -2.17661,5.67531 -6.12397,15.97421 -8.77192,22.88645 -2.64795,6.91224 -6.82654,17.804404 -9.28576,24.204804 -2.45923,6.40039 -4.47132,11.89073 -4.47132,12.20075 0,0.31002 1.89203,5.4913 4.20452,11.51396 2.31248,6.02266 5.47891,14.28404 7.03652,18.35862 1.55761,4.07458 3.00684,7.68351 3.22052,8.01983 0.55474,0.87311 1.11323,0.62714 1.68881,-0.74379 z" id="path1" sodipodi:nodetypes="sssssssssscccsssssssssssssssssssssssssssssssssss" inkscape:export-filename="path1.svg" inkscape:export-xdpi="96" inkscape:export-ydpi="96"/></g></svg>