<svg xmlns="http://www.w3.org/2000/svg" xml:space="preserve" style="enable-background:new 0 0 512 512" viewBox="0 0 512 512"><defs><filter id="a" width="507.3" height="504.4" x="2.3" y="3.8" filterUnits="userSpaceOnUse"><feColorMatrix values="1 0 0 0 0 0 1 0 0 0 0 0 1 0 0 0 0 0 1 0"/></filter></defs><mask id="b" width="507.3" height="504.4" x="2.3" y="3.8" maskUnits="userSpaceOnUse"><path d="M362.2 506c8 3.1 17.1 2.9 25.2-1l104.4-50.2c11-5.3 17.9-16.4 17.9-28.6V85.7c0-12.2-7-23.3-17.9-28.6L387.3 6.9c-10.6-5.1-23-3.8-32.2 2.9-1.3 1-2.6 2-3.8 3.2L151.5 195.4l-87-66.1c-8.1-6.2-19.4-5.6-27 1.2L9.6 155.9c-9.2 8.4-9.2 22.9 0 31.2L85 256 9.5 324.9c-9.2 8.4-9.2 22.9 0 31.2l27.9 25.4c7.5 6.8 18.9 7.3 27 1.2l87-66.1 199.8 182.3c3.3 3.2 7 5.6 11 7.1M383 140.9 231.4 256 383 371.1z" style="fill-rule:evenodd;clip-rule:evenodd;fill:#fff;filter:url(#a)"/></mask><g style="mask:url(#b)"><path d="M491.7 57.2 387.2 6.9c-12.1-5.8-26.5-3.4-36 6.1L9.2 324.9c-9.2 8.4-9.2 22.9 0 31.2l27.9 25.4c7.5 6.8 18.9 7.3 27 1.2L476 70.3c13.8-10.5 33.7-.6 33.7 16.7v-1.2c0-12.2-7-23.3-18-28.6" style="fill:#0065a9"/><path d="m491.7 454.8-104.5 50.3c-12.1 5.8-26.5 3.4-36-6.1L9.2 187.1c-9.2-8.4-9.2-22.9 0-31.2l27.9-25.4c7.5-6.8 18.9-7.3 27-1.2L476 441.7c13.8 10.5 33.7.6 33.7-16.7v1.2c0 12.2-7 23.3-18 28.6" style="fill:#007acc"/><path d="M387.3 505.1c-12.1 5.8-26.5 3.4-36-6.1 11.7 11.7 31.7 3.4 31.7-13.1V26.2c0-16.5-20-24.8-31.7-13.1 9.5-9.5 23.9-11.9 36-6.1l104.4 50.2c11 5.3 18 16.4 18 28.6v340.6c0 12.2-7 23.3-18 28.6z" style="fill:#1f9cf0"/><g style="opacity:.25"><linearGradient id="c" x1="255.846" x2="255.846" y1="510.193" y2="5.807" gradientTransform="matrix(1 0 0 -1 0 514)" gradientUnits="userSpaceOnUse"><stop offset="0" style="stop-color:#fff"/><stop offset="1" style="stop-color:#fff;stop-opacity:0"/></linearGradient><path d="M361.9 506c8 3.1 17.1 2.9 25.2-1l104.4-50.2c11-5.3 17.9-16.4 17.9-28.6V85.7c0-12.2-7-23.3-17.9-28.6L387 6.9c-10.6-5.1-23-3.8-32.2 2.9-1.3 1-2.6 2-3.8 3.2L151.2 195.4l-87-66.1c-8.1-6.2-19.4-5.6-27 1.2L9.3 155.9c-9.2 8.4-9.2 22.9 0 31.2L84.7 256 9.2 324.9c-9.2 8.4-9.2 22.9 0 31.2l27.9 25.4c7.5 6.8 18.9 7.3 27 1.2l87-66.1L351 498.9c3.2 3.2 6.9 5.6 10.9 7.1m20.8-365.1L231 256l151.6 115.1V140.9z" style="fill-rule:evenodd;clip-rule:evenodd;fill:url(#c)"/></g></g></svg>