<svg xmlns="http://www.w3.org/2000/svg" fill="none" viewBox="0.5 3.02 80 24.65">
<path fill-rule="evenodd" clip-rule="evenodd" d="M68.5744 23.8268C71.2336 23.8268 73.3892 21.6777 73.3892 19.0268C73.3892 16.3758 71.2336 14.2268 68.5744 14.2268C65.9153 14.2268 63.7596 16.3758 63.7596 19.0268C63.7596 21.6777 65.9153 23.8268 68.5744 23.8268ZM68.5744 21.9068C70.1699 21.9068 71.4633 20.6173 71.4633 19.0268C71.4633 17.4362 70.1699 16.1468 68.5744 16.1468C66.9789 16.1468 65.6855 17.4362 65.6855 19.0268C65.6855 20.6173 66.9789 21.9068 68.5744 21.9068Z" fill="#DC0000"/>
<path fill-rule="evenodd" clip-rule="evenodd" d="M57.9818 23.8268C59.0657 23.8268 60.066 23.4697 60.8707 22.8671C60.8706 23.4939 60.6697 24.074 60.3285 24.5467C59.8041 25.2735 58.9484 25.7467 57.9818 25.7467C57.0152 25.7467 56.1595 25.2735 55.6351 24.5467H53.4701C54.1532 26.3691 55.9155 27.6667 57.9818 27.6667C60.0481 27.6667 61.8104 26.3691 62.4935 24.5467C62.6894 24.0239 62.7966 23.4578 62.7966 22.8668V14.2268H60.8707V15.1864C60.066 14.5838 59.0657 14.2268 57.9818 14.2268C55.3227 14.2268 53.167 16.3758 53.167 19.0268C53.167 21.6777 55.3227 23.8268 57.9818 23.8268ZM57.9818 21.9068C59.5773 21.9068 60.8707 20.6173 60.8707 19.0268C60.8707 17.4362 59.5773 16.1468 57.9818 16.1468C56.3863 16.1468 55.0929 17.4362 55.0929 19.0268C55.0929 20.6173 56.3863 21.9068 57.9818 21.9068Z" fill="#DC0000"/>
<path d="M78.8151 9.66675H80.5003V11.3467H78.8151V9.66675Z" fill="#DC0000"/>
<path d="M76.4077 9.66675H78.0929V11.3467H76.4077V9.66675Z" fill="#DC0000"/>
<path d="M78.8151 12.0667H80.5003V13.7467H78.8151V12.0667Z" fill="#DC0000"/>
<path d="M78.8151 14.4668H80.5003V16.1468H78.8151V14.4668Z" fill="#DC0000"/>
<path d="M76.4077 12.0667H78.0929V13.7467H76.4077V12.0667Z" fill="#DC0000"/>
<path d="M74.0003 9.66675H75.6855V11.3467H74.0003V9.66675Z" fill="#DC0000"/>
<path d="M35.2257 3.02176C29.3279 3.01017 24.5508 3.02636 18.6696 3.02636C17.9607 2.99996 17.3784 3.12765 16.9582 3.46603C16.5313 3.80987 16.3716 4.20631 16.1801 4.5451C16.1769 4.55078 16.1737 4.55652 16.1706 4.56228L13.5713 9.448C13.5111 9.54747 13.4545 9.64238 13.3986 9.74131C13.3396 9.63839 13.2731 9.52999 13.2277 9.44923C13.2273 9.4486 13.2267 9.44766 13.2264 9.44707L10.6805 4.6804C10.6708 4.66219 10.6603 4.64438 10.6492 4.62702C10.4379 4.29801 10.3343 3.97583 9.99598 3.60778C9.65766 3.23972 9.07552 3.02636 8.42693 3.02636H2.22128C2.21433 3.02637 2.20737 3.02647 2.20042 3.02668C1.66078 3.04144 1.10862 3.23945 0.757777 3.72284C0.453643 4.14187 0.430307 4.73255 0.62646 5.26213C0.64219 5.34791 0.672381 5.43039 0.715743 5.50605L10.5918 23.1761C11.1944 24.2957 12.2241 24.9918 13.3255 24.9827C14.4186 24.9736 15.459 24.2619 16.0906 23.0641L22.4591 11.9099V23.2669C22.4591 23.625 22.5511 23.999 22.8046 24.312C23.0581 24.6249 23.4903 24.8259 23.9125 24.8259H31.142C31.9112 24.8259 32.5705 24.2788 32.5705 23.44V12.846L38.3337 22.9184C38.919 24.0169 39.8434 24.7045 40.8484 24.8108C41.8609 24.918 42.8684 24.419 43.5336 23.5225C43.5535 23.4957 43.5717 23.4676 43.5879 23.4385L53.6438 5.39344L53.6334 5.41154C53.9502 4.87768 53.8705 4.18753 53.5346 3.74369C53.1986 3.29986 52.652 3.04354 52.0514 3.04354L45.7758 3.02176C45.7531 3.02167 45.7304 3.02255 45.7077 3.02453C45.1547 3.07152 44.6461 3.34493 44.3712 3.68141C44.0963 4.0179 43.9898 4.3026 43.7956 4.60094C43.7858 4.61596 43.7765 4.6313 43.7677 4.64696L41.1454 9.36608L40.9392 9.68548C40.9132 9.54375 40.8671 9.40823 40.8097 9.28662L40.8094 9.28599C40.7197 9.09637 40.7105 9.10808 40.6278 8.97304C40.545 8.838 40.4338 8.65868 40.3019 8.44777C40.0382 8.02596 39.6926 7.47821 39.3388 6.92045C38.6313 5.80493 37.9219 4.69394 37.7026 4.37634C37.698 4.36961 37.6933 4.36297 37.6885 4.35639C37.4935 4.09231 37.3844 3.7712 36.9659 3.44699C36.5474 3.12278 35.9979 3.02175 35.2263 3.02175L35.2257 3.02176Z" fill="#fff"/>
<path d="M42.9421 23.038C41.8749 24.4763 40.0172 24.3931 39.0283 22.5104L33.0012 11.9769C32.7418 11.5126 32.7255 11.0312 33.4465 11.0312C35.2814 11.0312 38.1105 11.0272 39.9462 11.0312C40.454 11.0317 40.6245 10.9683 40.94 10.7763C41.177 10.6327 41.3646 10.4326 41.5274 10.2085L41.8322 9.73654L44.4673 4.99496C44.926 4.28999 44.9686 3.83624 45.7996 3.76562L52.078 3.78754C52.8412 3.78754 53.3267 4.43894 52.9979 4.99293L42.9421 23.038Z" fill="#000095"/>
<path d="M23.2559 11.6793V23.2412C23.2559 23.6841 23.4917 24.0301 23.9393 24.0301H31.169C31.4994 24.0301 31.8277 23.7476 31.8277 23.4142V11.1847C31.8277 10.6677 32.0022 10.3754 32.7547 10.373L38.9811 10.377C39.581 10.377 40.4998 10.3506 40.1407 9.58933C40.051 9.39963 37.4453 5.2934 37.0963 4.78781C36.6096 4.12874 36.6644 3.76562 35.2532 3.76562C35.2532 3.76562 27.9915 3.76969 27.9566 3.77417C27.0073 3.81366 26.9813 4.26999 26.4971 4.99826L24.0018 9.24616C23.4856 10.1739 23.2879 10.1352 23.2559 11.6793Z" fill="#009500"/>
<path d="M1.41387 5.10471L11.2959 22.7855C12.2927 24.6374 14.3807 24.7143 15.4483 22.6567L25.61 4.85907C25.9836 4.22472 25.6499 3.76286 25.1006 3.77021H18.6959C17.4331 3.71463 17.2888 4.16832 16.8765 4.8979L14.2742 9.78956C14.1323 10.0172 13.7449 10.8343 13.4168 10.8371C13.1115 10.8146 12.7188 10.0422 12.5818 9.79855L10.0278 5.01725C9.5298 4.24189 9.52452 3.77021 8.45326 3.77021H2.2477C1.53096 3.78983 0.985777 4.29788 1.41387 5.10471Z" fill="#DC0000"/>
</svg>