<svg xmlns="http://www.w3.org/2000/svg" xml:space="preserve" id="svg900" x="0" y="0" version="1.1" viewBox="0 0 512 512"><style>.st0{fill:#2f855a}</style><g id="g16"><g id="g40" transform="translate(503.84 367.52)"><path id="path42" d="M2.6-111.5c0 5.3-.2 10.6-.5 15.8-1.5 23.2-6 45.4-13.2 66.4-32.5 94.7-119.6 164-223.7 170.4-5.2.4-10.5.5-15.8.5s-10.6-.2-15.8-.5c-127.2-7.8-229-109.6-236.8-236.8-.4-5.3-.5-10.6-.5-15.8 0-5.3.2-10.6.5-15.8 7.8-127.2 109.6-229 236.8-236.9 5.3-.4 10.5-.5 15.8-.5s10.6.2 15.8.5v68.1h-31.7v-27.4c-104.7 7.7-188.4 91.5-196.2 196.2h24.5v31.7h-24.5C-454.9 9-371.1 92.8-266.5 100.5V72.6h31.7v27.9c77.3-5.7 143.3-53 175.6-119.5 11.4-23.5 18.6-49.4 20.6-76.7h-.1l14.8-31.7h26c.3 5.3.5 10.6.5 15.9" class="st0"/></g><g id="g44" transform="translate(504.275 431.237)"><path id="path46" d="m7.7-256.3-28.5-13.8-7.8 16.2-16.1 33.4-63.4 131.6-.1.1h-62.5v-.2l24.6-51.1 6.3-13.1.3-.7 32.1-66.5 12.3-25.5 3.8-7.9 19.6-40.7-9.6-4.6-16-7.7 83.4-38.8z" class="st0"/></g><g id="g48" transform="translate(258.565 361.214)"><path id="path50" d="M-66.7-89.7-98-24.5-155-143l-16-33.4h62.6l16.1 33.4z" class="st0"/></g><g id="g52" transform="translate(320.925 367.387)"><path id="path54" d="m-47.2-111.2-41.6 86.3h-62.7l31.4-65.1 32.1-66.7 9.4-19.6 9.5 19.6 15.5 32.1z" class="st0"/></g><g id="g56" transform="translate(383.766 359.833)"><path id="path58" d="m-27.6-86.5-6.3 13.1-24.7 51.1v.1l-42.2-87.7-15.2-31.6-16-33.4h61.9z" class="st0"/></g></g></svg>