<svg xmlns="http://www.w3.org/2000/svg" xml:space="preserve" id="Layer_1" x="0" y="0" version="1.1" viewBox="0 0 512 512"><style>.st1{fill:#2e2e2e}</style><path d="M282.2 510.7C411.3 497.6 512 388.5 512 256 512 114.6 397.4 0 256 0S0 114.6 0 256c0 96.3 53.2 180.2 131.8 223.9 48.9-15.9 95.4-36.3 105.7-58.9 6.8-14.9-4.2-30-14-43.5-6.5-8.9-12.5-17.1-12.5-24 0-32.9 89.5-43.5 89.5-43.5h31s-83 10.5-79 43.5c1.3 11.1 10.2 19.9 20.3 30 10.2 10.1 21.6 21.5 27.7 37.5 14.8 38.7-11.2 79.6-18.3 89.7" style="fill-rule:evenodd;clip-rule:evenodd;fill:#f2f2f2"/><path d="M348.2 206c1.7-2.7 5.8-2.7 7.5 0l60.7 98.2c1.7 2.7-.4 6-3.7 6H291.3c-3.3 0-5.4-3.4-3.7-6zm-183.5-22.7c1.9-3.3 6.6-3.3 8.5 0l69.1 119.6c1.9 3.3-.5 7.4-4.2 7.4H99.9c-3.8 0-6.1-4.1-4.2-7.4z" class="st1"/><path d="M266.2 155c2.3-4 8.1-4 10.4 0L361 301.2c2.3 4-.6 9-5.2 9H187c-4.6 0-7.5-5-5.2-9zm-117.8-39.6c-8.6 0-15.5 10.7-15.5 23.9H164c0-13.2-7-23.9-15.6-23.9" class="st1"/><path d="M123.1 115.4c-15 0-27.1 10.7-27.1 23.9h54.2c0-13.2-12.1-23.9-27.1-23.9" class="st1"/><path d="M134.3 106c-8.8 0-15.9 9.4-15.9 21h31.8c0-11.6-7.1-21-15.9-21M276 67c-11.6 0-21 13-21 29h42c0-16-9.4-29-21-29" class="st1"/><path d="M250 79c-12.1 0-22 7.6-22 17h44c0-9.4-9.9-17-22-17" class="st1"/><path d="M255 63c-9.4 0-17 9.4-17 21h34c0-11.6-7.6-21-17-21m141.5 76c-8.6 0-15.5 9-15.5 20h31c0-11-6.9-20-15.5-20" class="st1"/><path d="M365 138c-12.1 0-22 9.4-22 21h44c0-11.6-9.9-21-22-21" class="st1"/><path d="M377 127c-12.7 0-23 9.4-23 21h46c0-11.6-10.3-21-23-21M113.6 421.2c0-1.7 1.3-3 3-3h6.7c1.7 0 3 1.3 3 3v4.6c0 1.7-1.3 3-3 3h-6.7c-1.7 0-3-1.3-3-3z" class="st1"/><path d="M117.4 394.3c1.5-1.2 3.6-1.2 5.1 0l21.9 18.1c2.9 2.4 1.2 7.1-2.5 7.1H98c-3.8 0-5.4-4.7-2.5-7.1z" class="st1"/><path d="M117.2 382.1c1.5-1.5 4-1.5 5.5 0l19.8 18.8c2.6 2.5.9 6.9-2.8 6.9H100c-3.6 0-5.4-4.4-2.8-6.9z" class="st1"/><path d="M116.9 370.4c1.6-1.9 4.5-1.9 6.1 0l16 19.2c2.2 2.6.3 6.6-3.1 6.6h-32c-3.4 0-5.2-4-3.1-6.6zm230.7 26.8c0-1.7 1.3-3 3-3h6.7c1.7 0 3 1.3 3 3v4.6c0 1.7-1.3 3-3 3h-6.7c-1.7 0-3-1.3-3-3z" class="st1"/><path d="M351.4 370.3c1.5-1.2 3.6-1.2 5.1 0l21.9 18.1c2.9 2.4 1.2 7.1-2.5 7.1H332c-3.8 0-5.4-4.7-2.5-7.1z" class="st1"/><path d="M351.2 358.1c1.5-1.5 4-1.5 5.5 0l19.8 18.8c2.6 2.5.9 6.9-2.8 6.9H334c-3.6 0-5.4-4.4-2.8-6.9z" class="st1"/><path d="M350.9 346.4c1.6-1.9 4.5-1.9 6.1 0l16 19.2c2.2 2.6.3 6.6-3.1 6.6h-32c-3.4 0-5.2-4-3.1-6.6z" class="st1"/></svg>