<svg xmlns="http://www.w3.org/2000/svg" width="682.667" height="682.667" version="1.0" viewBox="0 0 512 512"><path d="M398.6 37.6c-20.9 1.9-38 3.5-38.1 3.6-.1.2-4.3 22.8-9.5 50.3-5.1 27.5-9.6 50.8-10 51.9s-3.7-13.1-8-34.3c-4.1-19.9-7.9-36.9-8.4-37.6-.6-.8-12.3-7.3-26-14.5l-25-13.1-11.5 1.1c-6.4.5-25.5 2.2-42.5 3.5-17.1 1.4-31.1 2.7-31.2 2.8s-4.1 19.4-9 42.9c-4.9 23.4-9.1 42.5-9.3 42.2-.2-.2-2.7-12.8-5.6-28l-5.1-27.5-26.6-13.7-26.7-13.7-46.3 3.8c-25.5 2.1-47.4 4-48.9 4.3l-2.5.5 35.8 169.2c19.6 93.1 38.5 182.4 41.9 198.5l6.3 29.4 26.8 13.4L146 486l44.3-3.6c24.3-2 44.5-4 44.9-4.3.3-.3 5.1-21.4 10.5-46.8s10.1-45.9 10.4-45.5c.4.4 3.7 15.5 7.4 33.7 3.7 18.1 7 33.3 7.3 33.7.4.3 12.6 6.7 27.2 14.1l26.5 13.5 47-4c25.9-2.1 47.3-4.2 47.6-4.6.8-.9 82.3-411.1 81.8-411.6-.2-.2-12.2-6.3-26.6-13.5-25-12.5-26.6-13.1-32-13-3.2.1-22.9 1.7-43.7 3.5m74.7 11c13.8 6.9 25.3 12.7 25.4 12.8.2.2-16.4 84.2-36.8 186.7s-38.6 194.6-40.6 204.6c-3.5 18.2-3.5 18.3-6.2 18.3-1.4.1-22.3 1.8-46.5 3.8l-43.8 3.8-26.4-13.4c-14.5-7.3-26.4-13.6-26.4-14-.1-2.3-14.8-72.4-15.4-72.9-.3-.3-.9-.3-1.3 0-.3.4-5.3 22.6-11 49.4s-10.5 48.8-10.6 48.9-19.7 1.8-43.6 3.7l-43.3 3.6-26.2-13.1c-14.3-7.1-26.2-13.1-26.3-13.2-.4-.3-83.4-393.9-83.1-394.1.2-.1 21.5-1.8 47.4-3.9l47.1-3.8 25.9 13 25.9 13 5.7 30.7c3.1 16.9 5.9 31 6.2 31.3s.9.2 1.2-.1c.4-.4 4.9-20.8 10.1-45.4 5.1-24.5 9.5-44.8 9.6-45 .2-.1 18.9-1.8 41.6-3.7l41.3-3.4 25.1 13.1 25.1 13.2 8.1 39.4c4.9 24 8.5 39.6 9.3 39.9.6.2 1.2 0 1.2-.4 0-1.1 20.2-107.8 20.5-108.2s74.6-7 80.3-7.1c4.8-.1 7.3.9 30.5 12.5"/><path d="M399 43.2c-18.4 1.6-33.6 3.1-33.9 3.4-1.1 1.1-42 226.4-43.2 237.8-.7 6.9-1.4 12.5-1.5 12.3-.1-.1-.7-3.8-1.3-8.2s-12-59.9-25.3-123.4L269.6 49.7l-7.1.6c-40.3 3.2-69.1 5.9-69.7 6.5-.8.8-41 202.9-43.8 220.2-1.1 6.3-2.2 14.6-2.6 18.5l-.8 7-1.7-15.5c-1.5-12.6-41.1-224.9-42.4-227-.4-.7-85.4 6.6-86.2 7.3-.6.7 80.6 384.8 81.6 385.9.7.7 79.7-5.5 80.6-6.4.3-.3 10.9-48.6 23.6-107.4 21.2-98.5 24.4-115.1 26.7-137.9l.8-8 .8 7.5c.4 4.1 1.4 12.2 2.2 18 1.8 13.5 42.4 228.2 43.3 229.3.9.9 85.2-6.2 86.4-7.3.4-.3 18.5-90.2 40.3-199.6C423.3 132 441.3 41.9 441.5 41.2c.6-1.7-2.9-1.5-42.5 2m40-.9c0 1-78.9 397-79.2 397.1-.8.7-83 7.1-83.3 6.5-.4-.6-6.2-30.8-30.9-161.4-10.4-54.9-14.6-81.3-14.6-92.4q0-4.2-1.5-4.8c-.9-.3-1.8-.4-2-.2-.2.3-1.3 9.4-2.5 20.4-1.1 11-3.2 25.4-4.6 32-9.1 44.2-44.1 204.6-44.8 205.2-.9 1-75.9 7.2-76.8 6.4C97.6 450 17.2 69.5 18.1 69c1.2-.8 80.8-7.4 81.5-6.8.7.8 38.9 200.8 40.8 214.1.8 5.6 1.8 13.8 2.1 18.2.9 11.9 1.4 14.5 3 14.5.9 0 1.6-1.5 1.9-4.3 2.9-23.8 7.6-49.5 25.7-140.5 11.6-58.1 21.1-105.8 21.2-105.9.4-.4 73.1-6.2 73.4-5.9.7.7 47.6 224.7 48.9 233.6.7 5.2 1.4 11.4 1.4 13.8 0 2.9.5 4.5 1.5 4.9.9.3 1.8.4 2 .1.2-.2 1.1-7.3 2-15.8 1.5-14.8 41.9-238.6 43.4-240.2.7-.8 72.1-7.3 72.1-6.5"/></svg>