<svg xmlns="http://www.w3.org/2000/svg" class="icon__svg" fill="none" viewBox="2 10 35.84 20.42"><path fill-rule="evenodd" clip-rule="evenodd" d="M22.0423 15.6812C21.9856 15.7472 21.9292 15.8128 21.8728 15.8779L20.9525 16.9402L19.8689 16.0444C18.1614 14.6326 16.4882 14.6104 15.1229 15.1164C13.6446 15.6643 12.6129 16.7996 12.3328 17.5246L11.8807 18.6946L10.6588 18.4041C10.5055 18.3677 10.0242 18.315 9.35139 18.3771C8.69974 18.4372 7.96554 18.5969 7.28979 18.9079C6.62085 19.2157 6.03447 19.659 5.61145 20.2844C5.19336 20.9025 4.87468 21.7866 4.87468 23.0817C4.87468 24.9284 5.77535 25.9762 6.99906 26.6306C8.30851 27.3309 9.95435 27.5362 11.063 27.4881L11.0942 27.4868H19.8832C20.677 27.4868 21.3205 28.1292 21.3205 28.9217C21.3205 29.7142 20.677 30.3567 19.8832 30.3567H11.1554C9.7012 30.4148 7.52156 30.1658 5.64169 29.1605C3.66203 28.1018 2 26.1741 2 23.0817C2 21.29 2.45013 19.8299 3.22912 18.6782C4.0032 17.5339 5.04218 16.7821 6.08635 16.3015C7.12371 15.8241 8.19035 15.6021 9.08677 15.5194C9.46851 15.4841 9.83857 15.4725 10.18 15.4814C11.013 14.2212 12.4435 13.0482 14.1225 12.4259C16.0306 11.7187 18.329 11.696 20.5595 13.0247C21.0174 12.5404 21.5974 11.999 22.3193 11.5195C23.6451 10.6387 25.404 9.98505 27.7811 10.0003C30.7364 10.0192 32.9744 10.9402 34.5918 12.4125C36.1841 13.8618 37.0642 15.7435 37.5207 17.5191C38.0828 19.7057 37.9721 22.7703 36.553 25.391C35.0807 28.11 32.2684 30.2161 27.7708 30.4219C26.9778 30.4582 26.3055 29.8458 26.2692 29.0542C26.2328 28.2625 26.8462 27.5913 27.6392 27.555C31.1639 27.3937 33.048 25.829 34.0242 24.0262C35.0536 22.1251 35.1435 19.817 34.7362 18.2325C34.3733 16.8206 33.7158 15.4988 32.655 14.5332C31.6193 13.5905 30.0886 12.885 27.7626 12.8701C25.9681 12.8586 24.7687 13.3396 23.9118 13.9088C23.1047 14.4449 22.561 15.0776 22.0423 15.6812Z" fill="#FF8200"/><path d="M4.87468 23.0813C4.87468 24.9279 5.77535 25.9758 6.99906 26.6302C8.30851 27.3304 9.95435 27.5358 11.063 27.4877L11.0942 27.4863H19.8832C20.677 27.4863 21.3205 28.1288 21.3205 28.9213C21.3205 29.7138 20.677 30.3562 19.8832 30.3562H11.1554C9.7012 30.4143 7.52156 30.1653 5.64169 29.16C3.66203 28.1014 2 26.1736 2 23.0813C2 21.2896 4.87468 21.2348 4.87468 23.0813Z" fill="url(#paint0_linear)"/><defs><linearGradient id="paint0_linear" x1="21" y1="29" x2="5.5" y2="29" gradientUnits="userSpaceOnUse"><stop offset="0.052689" stop-color="white"/><stop offset="1" stop-color="white" stop-opacity="0"/></linearGradient></defs></svg>