<svg xmlns="http://www.w3.org/2000/svg" width="38.844" height="37.926" fill="none" style="max-height:500px" viewBox="8.424 15.686 38.844 37.926"><path fill="#fff" stroke="#000" stroke-linecap="round" stroke-linejoin="round" stroke-width="2.8" d="M43.3 30.1v-9.8a1.4 1.4 0 0 0-1.4-1.4h-28a1.4 1.4 0 0 0-1.4 1.4v9.8c0 16.8 15.4 21 15.4 21s15.4-4.2 15.4-21"/><path fill="#fff" stroke="#D6FB41" stroke-linecap="round" stroke-linejoin="round" stroke-width="2.8" d="m20.9 34.3 4.2 4.2 9.8-9.8"/><path fill="#000" d="m60.07 45.5-4.29-21.87h5.82l2.16 14.19.36 2.46h.24l3.3-16.65h6.12l3.3 16.65h.27l.27-2.07 2.16-14.58h5.85L81.4 45.5h-7.68l-2.55-12.45-.33-1.83h-.21l-.33 1.83-2.58 12.45zm34.35.3q-2.76 0-4.59-1.05-1.8-1.05-2.73-2.91-.9-1.89-.9-4.38v-.33q0-2.61.99-4.44t2.73-2.79q1.77-.96 4.05-.96 2.55 0 4.32.96 1.8.93 2.73 2.64t.93 3.96v2.22H91.57v.75q0 1.05.75 1.71.75.63 1.92.63 1.05 0 1.71-.42.66-.45.78-1.17h5.04q-.09 1.68-1.05 2.94-.96 1.23-2.58 1.95-1.62.69-3.72.69m-2.85-10.44v.15h5.16v-.15q0-1.29-.72-1.89-.69-.63-1.86-.63-1.14 0-1.86.66-.72.63-.72 1.86m23.309 10.44q-1.53 0-2.79-.66-1.23-.66-1.83-1.86h-.24l-.3 2.22h-5.01V23.63h5.31v7.86h.24q.6-1.2 1.83-1.86 1.26-.69 2.79-.69 2.22 0 3.57 1.02 1.35.99 1.98 2.79t.63 4.23v.78q0 4.29-1.68 6.18-1.68 1.86-4.5 1.86m-2.16-4.29q1.29 0 1.98-.72.72-.75.72-2.07v-2.67q0-1.32-.72-2.07-.69-.75-1.98-.75-1.23 0-1.95.75-.72.72-.72 2.07v2.64q0 1.38.72 2.1t1.95.72"/><path fill="#D6FB41" d="M133.77 45.8q-3.24 0-5.52-1.17-2.28-1.2-3.51-3.36-1.2-2.16-1.2-5.04v-.27q0-3.87 1.35-6.69 1.35-2.85 3.93-4.38 2.58-1.56 6.21-1.56 2.94 0 5.16 1.02 2.22.99 3.48 2.79t1.35 4.23h-5.85q-.18-1.44-1.38-2.31-1.17-.87-2.97-.87-2.13 0-3.39.99-1.26.96-1.62 3.03l-.57 3.15q-.45 2.61.81 4.11 1.26 1.47 3.72 1.47 1.83 0 2.94-.75a3.63 3.63 0 0 0 1.5-2.1H144q-.45 2.46-1.86 4.2-1.41 1.71-3.57 2.61t-4.8.9m11.863-.3 3.87-21.87h5.37l-1.32 7.56h.33q.69-1.05 1.89-1.62 1.23-.6 2.61-.6 2.85 0 4.23 1.95 1.41 1.92.78 5.46l-1.62 9.12h-5.4l1.59-9.03q.3-1.59-.3-2.43t-1.98-.84q-1.26 0-2.01.81-.75.78-.99 2.07l-1.62 9.42zm27.966.3q-3.57 0-5.64-1.98-2.04-1.98-2.04-5.49v-.24q0-2.76.99-4.8.99-2.07 2.91-3.18 1.92-1.14 4.62-1.14 2.61 0 4.41 1.05 1.83 1.02 2.64 2.91.84 1.86.48 4.38l-.21 1.41h-10.71q0 .09-.03.21v.21q-.18 1.2.6 1.95.78.72 2.13.72 1.02 0 1.71-.39.72-.39.96-1.14h5.07q-.42 2.55-2.49 4.05-2.07 1.47-5.4 1.47m-1.92-10.59-.06.3h5.37q.09-1.32-.6-1.98-.66-.69-1.95-.69t-1.95.69q-.66.66-.81 1.68m19.819 10.59q-3.6 0-5.64-1.98-2.01-1.98-2.01-5.25v-.24q0-2.85.99-4.95 1.02-2.1 2.91-3.24 1.92-1.17 4.62-1.17 3.42 0 5.49 1.74 2.1 1.74 2.19 4.71h-5.13q-.06-1.11-.78-1.62-.69-.51-1.77-.51-1.26 0-1.95.66-.69.63-.87 1.8l-.39 2.4q-.27 1.59.42 2.46t2.1.87q1.05 0 1.74-.54t.9-1.44h5.16q-.12 1.89-1.17 3.3-1.02 1.41-2.76 2.22-1.74.78-4.05.78m9.594-.3 3.84-21.87h5.4l-2.1 11.79 6.39-6.15h6.6l-7.17 6.42 4.35 9.81h-5.85l-2.7-6.54-2.64 2.31-.75 4.23z"/></svg>