<?xml version="1.0" encoding="UTF-8" standalone="no"?><!DOCTYPE svg PUBLIC "-//W3C//DTD SVG 1.1//EN" "http://www.w3.org/Graphics/SVG/1.1/DTD/svg11.dtd"><svg width="100%" height="100%" viewBox="0 0 1080 1080" version="1.1" xmlns="http://www.w3.org/2000/svg" xmlns:xlink="http://www.w3.org/1999/xlink" xml:space="preserve" xmlns:serif="http://www.serif.com/" style="fill-rule:evenodd;clip-rule:evenodd;stroke-linejoin:round;stroke-miterlimit:2;"><g><g id="Background"><path d="M0,727.767l0,-88.594c0.694,-2.042 3.674,-2.733 4.368,-4.775c5.82,-17.119 -3.948,-20.169 30.306,-88.63c49.027,-97.986 211.823,-266.993 355.767,-306.812c14.948,-4.135 110.344,-36.367 141.633,38.167c19.876,47.347 -3.993,108.492 5.936,108.414c36.31,-0.286 249.771,-91.629 270.483,29.946c8,46.958 -21.614,87.788 -5.641,98.494c50.511,33.857 141.832,40.061 142.174,154.72c0.712,238.664 -481.734,394.688 -790.146,234.613c-114.335,-59.343 -138.731,-130.591 -144.049,-146.12c-7.629,-22.279 -5.51,-22.764 -6.331,-24.625c-0.885,-2.006 -3.616,-2.791 -4.501,-4.798l152.411,90.139c18.789,18.897 111.751,112.389 321.988,85.316c76.608,-9.865 183.329,-52.401 231.536,-104.376c63.437,-68.394 69.872,-163.101 9.079,-222.889c-22.872,-22.494 -53.09,-53.688 -147.707,-75.406c-142.309,-32.665 -258.174,10.875 -279.124,18.747c-189.594,71.246 -215.228,218.335 -135.773,298.608l-152.411,-90.139l400.623,47.735c40.514,-60.874 -30.914,-99.791 -77.143,-63.622c-61.583,48.183 23.243,131.8 77.143,63.622l-400.623,-47.735l459.779,-27.567c17.838,-25.774 -9.556,-29.513 -18.755,-26.774c-28.098,8.364 -15.369,53.125 18.755,26.774l-459.779,27.567Z" style="fill:#f44336;fill-opacity:1;"/><path d="M286.569,624.344c118.437,-95.536 247.139,-48.264 284.2,23.719c96.957,188.321 -255.721,304.037 -322.537,138.142c-38.726,-96.151 29.063,-151.431 38.338,-161.862l114.054,151.157c40.514,-60.874 -30.914,-99.791 -77.143,-63.622c-61.583,48.183 23.243,131.8 77.143,63.622l-114.054,-151.157l173.21,75.856c17.838,-25.774 -9.556,-29.513 -18.755,-26.774c-28.098,8.364 -15.369,53.125 18.755,26.774l-173.21,-75.856Z" style="fill:#212121;fill-opacity:1;"/><path d="M1080,343.859l0,97.032c-2.687,6.498 -4.083,5.56 -5.314,12.852c-10.631,63.001 -77.811,58.065 -81.736,25.213c-4.493,-37.603 46.96,-147.495 -67.418,-244.202c-73.368,-62.033 -178.948,-42.418 -197.963,-46.221c-30.034,-6.006 -38.131,-65.889 16.939,-73.232c194.232,-25.9 263.278,86.347 283.08,105.923c7.597,7.511 38.494,61.986 46.936,105.611c0.777,4.015 -0.025,8.315 1.227,12.208c0.656,2.038 3.593,2.778 4.249,4.815Z" style="fill:#ff9700;fill-opacity:1;"/><path d="M882.449,282.038c38.692,37.414 57.049,58.852 48.781,133.716c-4.704,42.595 -66.019,61.528 -65.703,8.259c0.079,-13.377 8.626,-59.619 -27.949,-88.808c-38.366,-30.618 -106.235,6.308 -98.007,-50.516c3.724,-25.719 27.034,-26.57 30.26,-26.688c72.154,-2.634 79.085,3.529 112.617,24.037Z" style="fill:#ff9800;fill-opacity:0.99;"/></g></g></svg>