<?xml version="1.0" encoding="UTF-8"?>
<svg id="Layer_1" xmlns="http://www.w3.org/2000/svg" xmlns:xlink="http://www.w3.org/1999/xlink" version="1.1" viewBox="0 0 181.8 176.8">
  <!-- Generator: Adobe Illustrator 29.8.1, SVG Export Plug-In . SVG Version: 2.1.1 Build 2)  -->
  <defs>
    <style>
      .st0 {
        fill: url(#linear-gradient1);
      }

      .st1 {
        fill: url(#linear-gradient);
      }

      .st2 {
        fill: #fff;
      }
    </style>
    <linearGradient id="linear-gradient" x1="152.9" y1="100.2" x2="75.1" y2="3.9" gradientTransform="translate(0 178.1) scale(1 -1)" gradientUnits="userSpaceOnUse">
      <stop offset="0" stop-color="#fff" stop-opacity="0"/>
      <stop offset=".7" stop-color="#fff"/>
    </linearGradient>
    <linearGradient id="linear-gradient1" x1="16.8" y1="78.6" x2="96.7" y2="158.5" gradientTransform="translate(0 178.1) scale(1 -1)" gradientUnits="userSpaceOnUse">
      <stop offset="0" stop-color="#fff" stop-opacity="0"/>
      <stop offset=".7" stop-color="#fff"/>
    </linearGradient>
  </defs>
  <path class="st2" d="M90.9,131.2h-.1c-18.7,0-31.8-11.1-37.4-25.9h126.8c1-5.6,1.5-11.2,1.5-17C181.8,42.2,148.5,0,90.9,0v45.5c18.8,0,31.7,11.2,37.3,25.9H1.5c-1,5.6-1.5,11.2-1.5,17,0,46.2,33.3,88.4,90.8,88.4h.1v-45.5h0Z"/>
  <g>
    <path class="st1" d="M90.8,176.7c2,0,3.9,0,5.8-.1,11.7-.6,22.3-2.9,31.7-6.7s17.8-9,24.8-15.3,12.9-13.7,17.4-21.8c4.1-7.4,7.1-15.4,9-23.7h-52.9c-1.1,2.2-2.3,4.4-3.8,6.4-2,2.7-4.3,5.2-6.9,7.3s-5.6,3.9-8.8,5.3c-3.2,1.4-6.8,2.4-10.6,2.9-1.9.2-3.8.4-5.8.4-11.9,0-21.5-4.5-28.4-11.6l-34.4,34.4c15.3,14,36.5,22.8,62.7,22.8Z"/>
    <path class="st0" d="M90.8,0C42,0,10.7,30.3,2.3,67.7h52.7c6.3-12.9,18.7-22.2,35.8-22.2s24.2,5.8,31.1,14.6l34.7-34.7C141.1,9.9,118.8,0,90.8,0Z"/>
  </g>
</svg>