<?xml version="1.0" encoding="UTF-8"?>
<svg id="Layer_1" xmlns="http://www.w3.org/2000/svg" xmlns:xlink="http://www.w3.org/1999/xlink" version="1.1" viewBox="0 0 238.7 232.1">
  <!-- Generator: Adobe Illustrator 29.8.1, SVG Export Plug-In . SVG Version: 2.1.1 Build 2)  -->
  <defs>
    <style>
      .st0 {
        fill: url(#linear-gradient1);
      }

      .st1 {
        fill: url(#linear-gradient);
      }

      .st2 {
        fill: #1d1c1c;
      }
    </style>
    <linearGradient id="linear-gradient" x1="-111.7" y1="466.5" x2="-129.7" y2="444.2" gradientTransform="translate(834.9 2750.5) scale(5.7 -5.7)" gradientUnits="userSpaceOnUse">
      <stop offset="0" stop-color="#1d1c1c" stop-opacity="0"/>
      <stop offset=".4" stop-color="#1d1c1c" stop-opacity=".7"/>
      <stop offset=".7" stop-color="#1d1c1c"/>
    </linearGradient>
    <linearGradient id="linear-gradient1" x1="-143.2" y1="461.5" x2="-124.7" y2="480" xlink:href="#linear-gradient"/>
  </defs>
  <path id="path564" class="st2" d="M119.4,172.3h-.2c-24.5,0-41.7-14.6-49.1-34h166.6c1.3-7.3,2-14.7,2-22.3C238.7,55.4,195,0,119.4,0v59.8c24.7,0,41.7,14.7,49,34H2c-1.3,7.3-2,14.7-2,22.3,0,60.7,43.7,116.1,119.2,116.1h.2v-59.8h0Z"/>
  <path id="path566" class="st1" d="M119.2,232.1c2.6,0,5.1,0,7.6-.2,15.3-.8,29.3-3.9,41.7-8.8,12.4-5,23.3-11.8,32.6-20.1,9.3-8.3,16.9-18,22.9-28.6,5.4-9.7,9.3-20.2,11.8-31.2h-69.4c-1.4,2.9-3.1,5.7-5,8.3-2.6,3.6-5.6,6.8-9.1,9.6-3.4,2.8-7.3,5.2-11.6,7-4.3,1.8-8.9,3.1-13.9,3.8-2.4.3-5,.5-7.6.5-15.6,0-28.3-5.9-37.3-15.3l-45.1,45.1c20.1,18.3,47.9,29.9,82.4,29.9h0Z"/>
  <path id="path568" class="st0" d="M119.2,0C55.2,0,14,39.8,3,89h69.2c8.3-16.9,24.6-29.2,47-29.2s31.8,7.6,40.8,19.2l45.5-45.5C185.2,13.1,156,0,119.2,0h0Z"/>
</svg>