<?xml version="1.0" encoding="UTF-8"?>
<svg xmlns="http://www.w3.org/2000/svg" xmlns:xlink="http://www.w3.org/1999/xlink" width="512px" height="315px" viewBox="0 0 512 315" version="1.1">
<g id="surface1">
<path style=" stroke:none;fill-rule:nonzero;fill:rgb(32.549021%,64.705884%,100%);fill-opacity:1;" d="M 406.273438 2.535156 L 479.121094 2.535156 C 497.015625 2.535156 511.074219 16.554688 511.074219 34.398438 L 511.074219 107.042969 C 511.074219 135.082031 476.566406 149.101562 457.394531 128.710938 L 384.546875 56.066406 C 364.097656 36.949219 378.15625 2.535156 406.273438 2.535156 Z M 406.273438 2.535156 "/>
<path style=" stroke:none;fill-rule:nonzero;fill:rgb(100%,0%,34.117648%);fill-opacity:1;" d="M 246.519531 178.417969 L 194.117188 178.417969 C 163.445312 178.417969 139.160156 152.925781 137.882812 122.339844 L 137.882812 33.125 C 137.882812 15.28125 123.824219 1.261719 105.933594 1.261719 L 33.082031 1.261719 C 4.964844 1.261719 -9.09375 35.671875 11.355469 54.789062 L 39.472656 82.828125 L 77.816406 121.0625 L 79.09375 122.339844 L 85.484375 128.710938 L 189.003906 231.945312 L 197.953125 240.867188 L 200.507812 243.414062 L 238.847656 281.652344 L 261.855469 304.589844 C 282.304688 324.984375 315.53125 310.964844 315.53125 282.925781 L 315.53125 210.277344 C 315.53125 192.4375 301.472656 178.417969 283.582031 178.417969 Z M 246.519531 178.417969 "/>
<path style=" stroke:none;fill-rule:nonzero;fill:rgb(63.921571%,30.588236%,100%);fill-opacity:1;" d="M 442.058594 178.417969 L 389.660156 178.417969 C 358.984375 178.417969 334.703125 152.925781 333.425781 122.339844 L 333.425781 33.125 C 333.425781 15.28125 319.367188 1.261719 301.472656 1.261719 L 228.625 1.261719 C 200.507812 1.261719 186.449219 35.671875 206.898438 54.789062 L 235.015625 82.828125 L 273.355469 121.0625 L 274.636719 122.339844 L 281.023438 128.710938 L 384.546875 231.945312 L 393.492188 240.867188 L 396.050781 243.414062 L 434.390625 281.652344 L 457.394531 304.589844 C 477.84375 324.984375 511.074219 310.964844 511.074219 282.925781 L 511.074219 210.277344 C 511.074219 192.4375 497.015625 178.417969 479.121094 178.417969 Z M 442.058594 178.417969 "/>
</g>
</svg>
