<svg xmlns="http://www.w3.org/2000/svg" version="1.1" viewBox="0 0 115.16 115.16">
  <title>Reproduced Mark</title>
  <desc>SVG built from supplied path data; compatible with Inkscape.</desc>

  <g>
    <path d="M115.14,57.57c0,44.51-13.06,57.57-57.57,57.57S0,102.08,0,57.57,13.06,0,57.57,0s57.57,13.06,57.57,57.57" fill="#FFE505"/>
    <path d="M57.58 0C13.06 0 0 13.06 0 57.58s13.06 57.58 57.58 57.58 57.58-13.06 57.58-57.58S102.1 0 57.58 0ZM89.5 65l-3.35 5.24C79.19 81.12 75.4 84.21 70.81 84.21c-4.85 0-7.49-2.38-13.97-12.87l-3.79-6.13c-.79-1.32-2.2-.75-1.85.75l.66 2.69c2.34 9.47-1.15 15.56-7.01 15.56-4.54 0-8.15-2.51-16-14.41l-3.26-4.94c-4.98-7.54-6.83-11.46-6.83-16.57 0-6.43 4.67-11.68 11.85-11.68 5.51 0 9.03 2.47 12.12 8.5l.79 1.54c.62 1.15 1.67 1.06 2.07 0l.57-1.5c2.2-5.77 5.77-8.55 11.37-8.55s9.34 2.78 11.5 8.55l.57 1.54c.4 1.01 1.54 1.1 2.07 0l.79-1.59c3.04-6.08 6.48-8.5 11.99-8.5 7.18 0 11.9 5.24 11.9 11.68 0 5.11-1.98 9.03-6.87 16.7Z" fill="#292527"/>
  </g>
</svg>