<svg xmlns="http://www.w3.org/2000/svg" xml:space="preserve" viewBox="23.6 81.5 464.7 348.9"><path d="M467.2 89h-82.3c-7.6 0-13.7 6.1-13.7 13.7V290c0 7.6-6.1 13.7-13.7 13.7h-41.1c-7.6 0-13.7-6.1-13.7-13.7V102.7c0-7.6-6.1-13.7-13.7-13.7h-65.8c-7.6 0-13.7 6.1-13.7 13.7V290c0 7.6-6.1 13.7-13.7 13.7h-41.1c-7.6 0-13.7-6.1-13.7-13.7V102.7c0-7.6-6.1-13.7-13.7-13.7H44.8c-7.6 0-13.7 6.1-13.7 13.7v233.4c0 45.5 35 82.8 79.4 86.5v.3h356.6c7.6 0 13.7-6.1 13.7-13.7V102.7c.1-7.6-6-13.7-13.6-13.7z" style="fill:#4caf50;stroke:#fff;stroke-width:15;stroke-linejoin:round"/></svg>