<svg xmlns="http://www.w3.org/2000/svg" xml:space="preserve" id="Layer_1" x="0" y="0" version="1.1" viewBox="0 0 905 905"><style>.st1{fill:none;stroke:#fce187;stroke-width:30;stroke-linecap:round;stroke-linejoin:round}</style><g id="LOGO_2"><circle cx="452.5" cy="452.5" r="432.2" style="fill:#636;stroke:#636;stroke-width:34.45;stroke-linecap:round;stroke-linejoin:round"/><path d="M550.6 542.1V388.6c0-54.2-43.9-98.2-98.1-98.2h-.1.1c-54.2 0-98.2 43.9-98.2 98.1v153.6" class="st1"/><path d="M632.8 620V392.9c.1-99.6-80.6-180.3-180.2-180.4h-.2.1c-99.6-.1-180.3 80.6-180.4 180.2V620" class="st1"/><path d="M713.2 691.7V401.5c0-144.1-116.6-260.8-260.8-260.8h.1c-144.1 0-260.8 116.6-260.8 260.8v290.1m260.8-297.8v340.4" class="st1"/></g></svg>