<svg xmlns="http://www.w3.org/2000/svg" xmlns:xlink="http://www.w3.org/1999/xlink" xml:space="preserve" id="Layer_1" x="0" y="0" version="1.1" viewBox="0 0 512 512"><style>.st1,.st2{fill-rule:evenodd;clip-rule:evenodd;fill:#d03143}.st2{fill:#fff}</style><defs><path id="SVGID_1_" d="M256 512C114.6 512 0 397.4 0 256S114.6 0 256 0s256 114.6 256 256-114.6 256-256 256"/></defs><clipPath id="SVGID_00000088101075290921535060000014535131967131708332_"><use xlink:href="#SVGID_1_" style="overflow:visible"/></clipPath><g style="clip-path:url(#SVGID_00000088101075290921535060000014535131967131708332_)"><path d="M.009-.01h511.987v511.962H.01z" class="st1"/><path d="M346.007 275.643c4.173 14.693 15.632 32.62 4.304 62.437-.903 2.329-2.984 3.962-5.46 4.316s-4.923-.706-6.392-2.742c-1.531-2.194-3.027-3.74-4.226-4.814-.513-.46-1.277-.526-1.91-.22-.632.36-.975 1.03-.882 1.73 1.601 11.362-.58 20.055-3.144 28.662-.687 2.316-2.65 4.107-5.013 4.562a6.42 6.42 0 0 1-6.319-2.42c-.994-1.302-1.721-1.696-2.163-1.834a.5.5 0 0 0-.267.069c-.052.057-.103.114-.097.222-1.834 28.806-39.898 41.156-54.035 58.375a6.67 6.67 0 0 1-5.397 2.522c-2.064-.05-4.017-1.027-5.249-2.696-10.316-13.92-30.43-20.519-40.565-46.93-.13-.373-.523-.622-.956-.599s-.74.367-.827.751c-.37 2.137-2.015 3.801-4.159 4.299-2.146.443-4.31-.414-5.546-2.191-14.745-21.437-22.486-23.073-25.073-59.232-.024-.433-.312-.743-.75-.827-.385-.088-.806.153-1.005.49-1.119 2.34-3.701 3.73-6.274 3.329-2.57-.347-4.636-2.404-5.103-4.983-2.753-16.507 1.064-28.98 4.044-41.896 5.98 1.19 13.201 2.258 19.524 2.778 4.622 34.691 36.487 59.581 72.766 58.182 31.026-1.218 62.64-25.26 65.78-63.85 6.288-.13 17.561.607 24.394 2.51" class="st2"/><path d="M396.958 283.425c3.337 1.462 7.214.568 9.559-2.218s2.58-6.797.531-9.829c-14.393-21.652-43.866-45.344-88.566-51.964 5.008-.1 10.424.025 14.114-1.065 1.212-.361 2.43-.669 3.057-1.834a3.32 3.32 0 0 0-.143-3.529c-12.4-20.469-24.707-62.826-26.291-96.137a364 364 0 0 1 8.33 18.821c.397 1.045 1.204 1.877 2.189 2.36 4.093 1.864 15.714 6.494 29.404 4.606 3.598-.479 6.487-3.275 7.043-6.887s-1.335-7.153-4.63-8.728c-15.066-7.006-28.09-21.673-46.75-35.566-26.852-19.964-60.43 8.493-106.354 108.022-.826 1.789-.141 3.89 1.505 4.896 18.742 10.883 52.665 13.1 71.41 14.762.108-.013.074.155.08.209-.047.06-.101.067-.209.08-15.665.865-49.729 3.466-73.23-5.219-3.48-1.28-7.25-1.327-10.706-.1-17.986 6.159-41.907 12.418-75.924 13.103-3.428.077-6.394 2.228-7.545 5.419s-.235 6.792 2.37 8.995c42.301 36.69 90.071 34.655 156.59 26.917 59.423-6.847 104.161 1.95 134.166 14.886m-141.934 35.768c9.723 0 19.052-3.7 26.016-.3 8.936 4.3 9.855 4.7 15.111 2.9 12.352-4-18.001 24-40.208 24s-56.106-25-43.755-21.1c7.752 2.4 8.935-1.3 18.396-5.7 6.832-3 15.11.2 24.44.2" class="st2"/><path d="M229.08 339.235c5.813 0 13.635-4.65 25.261-4.65 11.627 0 18.18 4.65 22.725 4.65-.951.951-7.082 14.903-22.725 14.903s-24.31-13.74-25.261-14.903" class="st1"/></g></svg>