<svg xmlns="http://www.w3.org/2000/svg" width="316" height="128" fill="none"><path fill="#E445DE" d="M183.283 75.515c5.369.07 9.28-3.005 8.647-4.778-.769-2.125-4.16-.411-8.873-2.208-.916-.751-.215-2.958.406-4.438a24.3 24.3 0 0 0 3.358-12.386c0-13.092-10.219-23.705-22.823-23.705s-22.822 10.613-22.822 23.705c0 3.968.938 7.69 2.6 10.977l-.012-.011s2.578 4.896.984 5.929c-4.612 1.667-7.924.035-8.682 2.137-.633 1.773 3.278 4.849 8.648 4.778-4.544 3.3-8.648 2.97-8.716 5.648-.067 2.759 7.823 5.001 15.215.563-3.538 4.99-6.771 6.011-5.391 9.182 1.073 2.477 8.93.868 15-6.693l-.011.024s.022-.035.079-.106l.339-.423c.565-.669 1.65-1.737 2.758-1.737s2.182 1.068 2.747 1.737c.113.153.226.294.339.435a1 1 0 0 1 .068.106l-.012-.024c6.082 7.561 13.927 9.17 15.001 6.692 1.379-3.181-1.854-4.191-5.392-9.181 7.392 4.438 15.283 2.195 15.215-.564-.012-2.7-4.126-2.371-8.67-5.659"/><path fill="#f7f7f7" fill-rule="evenodd" d="M223.995 60c0 33.136-26.862 59.998-59.999 59.998-11.369 0-21.999-3.162-31.059-8.654l-2.11 2.109a4 4 0 0 1-5.656.001l-12.203 12.203a8 8 0 1 1-11.313-11.313l12.203-12.203-.001-.001a4 4 0 0 1 0-5.657l1.436-1.435c-7.108-9.86-11.296-21.966-11.296-35.049C103.997 26.862 130.86 0 163.996 0s59.999 26.863 59.999 60m-59.999 43.999c24.3 0 44-19.7 44-44s-19.7-44-44-44-43.999 19.7-43.999 44 19.699 44 43.999 44m91.996-51.288V42.084h9.521v-4.483c0-5.155 1.599-9.369 4.809-12.667 3.21-3.286 8.056-4.935 14.561-4.935 1.416 0 2.832.061 4.26.171 1.416.11 2.795.208 4.138.281v11.873a50 50 0 0 0-5.822-.342c-2.173 0-3.711.501-4.651 1.515-.939 1.014-1.403 2.712-1.403 5.094v3.469h10.973v10.65h-10.973v47.286H265.5V52.71zm-203.47-7.173 13.548 54.46h17.467L105.032 20H87.785L74.688 75.131h-.22L60.81 20H44.344l-13.89 54.447h-.22L17.576 20H0l21.165 79.998h17.808l13.33-54.46zm195.47 54.471V20.012h-16v79.997zM300.003 20v13.105h15.987V20zm15.974 22.07v57.928H299.99V42.07z" clip-rule="evenodd"/><path fill="#fff" fill-rule="evenodd" d="M183.995 99.205C198.244 91.923 208 77.1 208 60c0-24.3-19.7-44-44-44-17.101 0-31.923 9.756-39.205 24.005 32.506.422 58.778 26.694 59.2 59.2" clip-rule="evenodd" opacity=".3"/></svg>