<svg xmlns="http://www.w3.org/2000/svg" xml:space="preserve" viewBox="0 0 512 512"><path d="M1003 2195.6c-170.3-16.2-342.8-77.5-491.1-174.5-124.3-81.2-152.3-114.4-152.3-181.1 0-133.6 146.9-367.9 397.9-634.6 142.7-151.6 341.3-329.2 362.7-324.5 41.8 9.4 375.7 335.6 500.7 488.9 197.8 243.1 288.9 441.9 242.6 530.5-35.2 67.4-252.9 199.1-412.9 249.5-131.9 41.8-305.1 59.6-447.6 45.8m-811-494.4C88.9 1542.8 36.8 1386.5 11.4 1160.9 3 1086.3 6 1043.8 30.3 890.7c30.3-190.7 138.5-411.2 268.9-547 55.6-57.8 60.5-59.3 128.2-36.4 82.2 27.8 169.8 88.3 305.8 211.6l79.5 71.8-43.3 53.4C568 891.7 355.7 1242.6 275.7 1459.6c-43.6 117.9-61 236.5-42.3 285.7 12.5 33.2 1 20.9-41.4-44.1m1811 26.9c10.1-49.7-2.7-141.2-33-233.5-65.2-199.8-283.9-571.8-484.7-824.5l-63.2-79.5 68.4-63c89.3-82.2 151.3-131.4 218.3-173 52.9-33 128.2-62 160.7-62 19.9 0 90.3 73.1 147.1 153 88.1 123.5 152.8 273.6 185.5 429.6 21.2 100.9 22.9 316.7 3.4 417.1-16 82.4-49.9 189.5-82.9 262.3-24.9 54.4-86.4 159.9-113.4 194.4-13.8 17.2-13.8 17.2-6.2-20.9M1021.2 254.7c-92.8-47.2-235.7-97.7-314.7-111.5-27.8-4.7-74.8-7.4-105.1-5.9-65.2 3.2-62.3 0 42.3-49.5 86.9-41 159.5-65.1 258-85.8 110.7-23.4 318.6-23.6 427.6-.5C1446.9 26.4 1585.4 78 1663.4 126l23.1 14.3-53.1-2.7c-105.8-5.4-259.8 37.4-425.4 118.1-49.9 24.4-93.3 43.8-96.5 43.1-2.9-.6-43.8-20.5-90.3-44.1" style="fill:#107c10" transform="translate(-1.202 3.625)scale(.23106)"/></svg>