<svg xmlns="http://www.w3.org/2000/svg" viewBox="0 0 440.104 552.999"><path fill="#0A323D" d="m125.48 540.64-5.332 3.091-5.333 3.091-5.332 3.09-5.333 3.091-6.442-3.841-6.442-3.84-6.442-3.84-6.442-3.841-6.442-3.84-6.442-3.84-6.442-3.841 5.333-3.09 6.442 3.84 6.442 3.84 5.332-3.09 5.333-3.091 5.332-3.091 5.333-3.09 6.442 3.84 6.442 3.841 6.442 3.841 6.442 3.84 6.442 3.84zm-11.774-.749 5.332-3.091-6.442-3.84-6.442-3.84-6.442-3.841-5.332 3.091-5.333 3.09-5.332 3.091 6.442 3.84 6.442 3.841 6.442 3.84 5.332-3.091zm22.444-5.431-6.442-3.841-6.442-3.84-6.442-3.841-6.442-3.84-6.442-3.84 5.333-3.091 5.333-3.091 5.333-3.09 5.333-3.091 6.442 3.841-5.333 3.09-5.333 3.091-5.333 3.09 6.442 3.841 6.442 3.84 6.442 3.84 6.442 3.841zm47.99-27.82-5.333 3.09-5.333 3.091-5.332 3.09-5.333 3.091-6.442-3.841-6.442-3.84-6.442-3.84-6.442-3.841-6.442-3.84 5.333-3.091 5.332-3.09 5.333-3.091 5.333-3.09 5.333-3.091 6.442 3.841 6.442 3.84 6.442 3.841 6.442 3.84 6.442 3.84zm-11.775-.75 5.332-3.091-6.441-3.84-6.443-3.84-6.441-3.841-5.333 3.091-5.333 3.09-5.332 3.091 6.442 3.84 6.442 3.841 6.442 3.84 5.332-3.091zm43.775-17.79-5.333 3.09-5.332 3.09-5.333 3.091-5.333 3.091-6.441-3.841-6.443-3.84-6.441-3.84-6.443-3.841-6.441-3.84 5.332-3.091 6.442 3.841 6.442 3.84 6.442 3.841 6.442 3.84 5.332-3.091-6.441-3.84-6.443-3.84-6.441-3.841 5.332-3.091 6.442 3.841 6.442 3.841 6.442 3.84 5.333-3.091-6.442-3.84-6.442-3.841-6.442-3.84-6.442-3.84 5.332-3.091 6.442 3.84 6.442 3.841 6.442 3.84 6.442 3.84 6.442 3.841zm31.99-18.54-5.332 3.091-5.333 3.09-5.333 3.091-5.332 3.09-6.442-3.84 5.332-3.091 5.333-3.09 5.332-3.091 5.333-3.09-6.442-3.84-5.332 3.09-5.333 3.091-5.333 3.09-5.332 3.091-6.442-3.841-6.442-3.84-6.442-3.841 5.332-3.09 5.333-3.091 5.332-3.09 5.333-3.091 5.333-3.09 6.441 3.84-5.332 3.091-5.332 3.09-5.333 3.091-5.333 3.09 6.442 3.841 5.333-3.091 5.332-3.09 5.333-3.091 5.333-3.09 6.441 3.84 6.443 3.84 6.441 3.841zm25.55-22.38 5.333-3.091 6.442 3.84-5.333 3.091-5.332 3.091-5.333 3.09-5.332 3.091-5.333 3.09-6.442-3.84-6.442-3.84-6.442-3.841-6.442-3.84-6.442-3.841 5.333-3.09 5.332-3.091 5.333-3.09 5.332-3.091 5.333-3.091 6.442 3.841 6.442 3.841 6.442 3.84-5.333 3.091-5.332 3.09-5.333 3.091-5.332 3.09 6.442 3.84 5.332-3.09 5.333-3.091zm-18.216-4.59 5.332-3.091-6.442-3.84-5.332 3.09-5.333 3.091-5.332 3.09 6.442 3.841 5.332-3.091zm35.326 2.25-6.441-3.84-6.443-3.84-6.441-3.841-6.443-3.841-6.441-3.84 5.332-3.09 5.332-3.091 5.333-3.091 5.333-3.09 6.441 3.84-5.332 3.091-5.332 3.09-5.333 3.091 6.442 3.84 6.442 3.841 6.442 3.84 6.442 3.841zm47.99-27.82-5.332 3.091-5.333 3.09-5.332 3.091-5.333 3.09-6.442-3.84 5.333-3.091 5.332-3.09 5.333-3.091 5.332-3.09-6.442-3.84-5.332 3.09-5.333 3.091-5.332 3.09-5.333 3.091-6.442-3.841-6.442-3.84-6.442-3.841 5.333-3.09 5.332-3.091 5.333-3.09 5.332-3.091 5.333-3.09 6.442 3.84-5.333 3.091-5.332 3.09-5.333 3.091-5.332 3.09 6.442 3.841 5.332-3.091 5.333-3.09 5.332-3.091 5.333-3.09 6.442 3.84 6.442 3.84 6.442 3.841zm44.88-10.86-5.333 3.091-5.333 3.091-5.332 3.09-5.332 3.091-6.443-3.84 5.333-3.091 5.333-3.09 5.332-3.091 5.333-3.091-6.441-3.84-5.333 3.09-5.332 3.091-5.333 3.091-5.333 3.09-6.441-3.84-6.443-3.84-6.441-3.841-6.443-3.84-6.441-3.841 5.332-3.09 6.442 3.84 6.442 3.841 6.442 3.84 6.442 3.84 5.332-3.09 5.333-3.091 5.333-3.09-6.442-3.84-6.442-3.841-6.442-3.841-6.442-3.84 5.332-3.09 6.442 3.84 6.442 3.84 6.442 3.841 6.442 3.84 6.442 3.841 6.441 3.84 6.442 3.84zm19.12-26.22-6.442-3.841-6.442-3.84-6.442-3.84-6.442-3.841-5.332 3.091-5.333 3.09-5.333 3.091 6.442 3.84 6.442 3.841 6.442 3.84 6.442 3.84-5.332 3.091-6.442-3.841-6.442-3.84-6.442-3.84-6.442-3.841-6.442-3.84 5.332-3.091 5.333-3.09 5.332-3.091 5.333-3.09 5.333-3.091 6.441 3.841 6.443 3.84 6.441 3.841 6.443 3.84 6.441 3.84zm12.66-30.06-6.442-3.841-5.332 3.091-5.333 3.09-5.332 3.091 6.441 3.84 6.443 3.841 6.441 3.84 5.333-3.091 5.333-3.09 5.332-3.091-6.442-3.84 5.333-3.09 6.442 3.84 6.442 3.84-5.333 3.091-5.332 3.09-5.333 3.091-5.332 3.09-5.333 3.091-6.442-3.841-6.442-3.84-6.442-3.84-6.442-3.841-6.442-3.84 5.332-3.091 5.333-3.09 5.333-3.091 5.332-3.09 5.333-3.091 6.442 3.841 6.442 3.84zm-109.4-202.69L204.53 88.193l-.17-58.699 101.52 58.993zm.67 234.82-101.52-58.99-.16-58.7 101.51 58.99z"/><path fill="#0A323D" d="m255.46 352.81-101.52-59-.16-58.7 101.51 59zm-.34-117.4-101.51-59-.17-58.72 101.52 58.99z"/><path fill="#0A323D" d="m204.21 323.6-101.52-58.99-.17-58.7 101.52 58.99zm-50.92 88.19L51.773 352.8l-.167-58.7 101.514 58.99z"/><path fill="#0A323D" d="M152.96 294.39 51.44 235.4l-.166-58.73 101.516 59z"/><path fill="#0A323D" d="m101.68 265.18-101.514-59L0 147.48l101.52 59zm.67 234.82L.832 441.01l-.166-58.7L102.18 441.3z"/><path fill="#267D91" d="M305.88 88.487 204.36 29.494 255.44 0l101.52 58.994zm.66 234.823-101.51-58.99 51.08-29.5 101.51 59z"/><path fill="#267D91" d="m255.29 294.11-101.51-59 51.08-29.49 101.51 58.99zm-.33-117.43-101.52-58.99 51.09-29.497 101.51 58.997z"/><path fill="#267D91" d="m204.04 264.9-101.52-58.99 51.09-29.5 101.51 59zm-50.92 88.19L51.606 294.1l51.084-29.49 101.52 58.99z"/><path fill="#267D91" d="m152.79 235.67-101.516-59 51.086-29.49 101.51 58.99z"/><path fill="#267D91" d="M101.52 206.48 0 147.48l51.107-29.51 101.513 59zm.66 234.82L.666 382.31l51.107-29.51 101.517 58.99z"/><path fill="#71D2E2" d="m356.96 58.994.16 58.696-51.08 29.5-.16-58.703zm.66 234.826.17 58.7-51.08 29.49-.17-58.7zm-51.25-29.21.17 58.7-51.08 29.5-.17-58.7zm-.33-117.42.17 58.72-51.09 29.5-.16-58.73zm-50.92 88.22.17 58.7-51.08 29.49-.17-58.7zm-50.91 88.19.16 58.7-51.08 29.49-.17-58.7zm-.34-117.43.17 58.73-51.08 29.49-.17-58.72zm-51.25-29.2.17 58.7-51.11 29.51-.16-58.7zm.67 234.82.16 58.7-51.1 29.51-.17-58.7z"/></svg>