<svg xmlns="http://www.w3.org/2000/svg" xmlns:xlink="http://www.w3.org/1999/xlink" xml:space="preserve" id="svg2" x="0" y="0" version="1.1" viewBox="0 0 512 512"><style>.st3{fill:#0b898a}</style><g id="layer2"><radialGradient id="rect888_00000161632345147113658290000016242858003779006859_" cx="-190.479" cy="240.862" r="206" gradientTransform="matrix(1.7339 -1.7906 -2.0518 -1.987 1097.968 413.575)" gradientUnits="userSpaceOnUse"><stop offset="0" style="stop-color:#fff"/><stop offset="1" style="stop-color:#b6b4b4"/></radialGradient><path id="rect888" d="M113 2h286c61.3 0 111 49.7 111 111v286c0 61.3-49.7 111-111 111H113C51.7 510 2 460.3 2 399V113C2 51.7 51.7 2 113 2z" style="fill-rule:evenodd;clip-rule:evenodd;fill:url(#rect888_00000161632345147113658290000016242858003779006859_);stroke:#434342;stroke-width:4;stroke-linecap:round"/></g><g id="layer1"><path id="path7210-8" d="m108.5 457.6-8.3-9.3 94.1-103.7 36.3 43.4-46.4 70z"/><path id="path42-1" d="M168.7 53.4c-9.3 0-17.7 2.2-24.7 6.9-14.3 9.5-20.7 27.7-20.7 51 .1 48.4 25.5 121.6 71.9 198.1l32.8-45.5c-36.5-61.8-55-117.4-55-149.2 0-11.7 2.8-19.6 7.5-23.4 3.5-2.9 8.3-4.4 14.5-4.4 4.5 0 9.7.8 15.4 2.4 18.3 5.1 67.6 14.8 144.9 95.6l.2-.2c-68.2-86-139-131-186.8-131.3"/><path id="path30-0" d="M297.5 209.7v-3.1zm-84.2 118.7 29.4 38.3 112.1-157h-55.7zm-7.8.1L295 204.7l.9-1.3h70.9l-124 173.8z"/><path id="path7073" d="m366.9 203.4-2.7-10.9-7.9 10.9"/><path id="path14245" d="m228.1 263.8-1-10.1-2.9 3.7z"/><path id="path34-0" d="M131.2 436.6h64.6l31.9-44.5-33.4-42.8z"/><path id="path3256-1" d="M205.5 328.5c75.7 109.4 124 129.3 178.5 129.7 35.6-5.9 44.4-24.5 44.7-54.5 0-4.2-.1-19.5-.5-24h-.2c-2.3 5.1-4.3 22.4-8.9 27.5-1.2 1.5-2.6 3-4.1 4.4-.5.4-1 .7-1.5 1.1s-1 .8-1.5 1.1-.9.6-1.4.9c-1.1.6-2.1 1.1-3 1.4l-.9.3c-1.6.5-2.9.8-3.8 1-1.7.3-3.4.5-5.3.5-38.7.5-88.3-29.2-154.7-121.8z"/><path id="path26-4" d="m297.5 206.6-88.1 121.9 33.3 43.5 118-165.4z"/></g><g id="g8" transform="matrix(1.33333 0 0 -1.33333 -294.776 336.962)"><path id="path10" d="M607.9-119.5H244.5v370.1h363.4z" style="fill:none"/><g id="g1026" transform="matrix(2.75576 0 0 2.8064 -376.59 -476.593)"><g id="g977"><g id="g12"><defs><path id="SVGID_1_" d="M-770.2-493.5h2116.4V853.6H-770.2z"/></defs><clipPath id="SVGID_00000028305799529024353080000012516540709530577064_"><use xlink:href="#SVGID_1_" style="overflow:visible"/></clipPath><g id="g14" style="clip-path:url(#SVGID_00000028305799529024353080000012516540709530577064_)"><g id="g28" transform="translate(297.11 206.728)"><path id="path30" d="m-.4 1.7-.2-.3L-25-31.7C-4.4-61 9.2-67.6 24-67.7c0 0 4.8.6 6.7 1.8 4 2.6 5.8 7.6 5.8 14.1 0 1.1-.1 2.3-.2 3.5h-.1c-.6-1.4-1.9-3.1-3.2-4.5-.3-.4-.7-.8-1.1-1.2-.1-.1-.3-.2-.4-.3s-.3-.2-.4-.3-.3-.2-.4-.2c-.3-.2-.6-.3-.8-.4-.1 0-.2-.1-.2-.1-.4-.1-.8-.2-1-.3-.5-.1-.9-.1-1.4-.1-8.9-.1-19.9 5.5-33.9 22.1L18.9 1.7z" class="st3"/></g><g id="g40" transform="translate(348.472 139.638)"><path id="path42" d="M-86.4 108.9c-2.5 0-4.8-.6-6.7-1.8-3.9-2.5-5.6-7.4-5.6-13.6 0-12.9 7.3-32.4 20-52.8l9 11.8c-10 16.4-15.5 31.5-15.5 40 0 3.1.8 5.2 2 6.3q1.5 1.2 3.9 1.2c1.2 0 2.6-.2 4.2-.7 5-1.3 19.1-6.9 40.2-28.4h.1c-18.6 23-38.6 37.9-51.6 38" class="st3"/></g></g></g></g></g><g id="g36" transform="matrix(2.75576 0 0 2.8064 318.949 -64.566)"><path id="path7210" d="M-1.5-6.8h-6.8l23.9 30.6 10.1-12.7L13.2-6.8z" class="st3"/></g></g></svg>