<svg xmlns="http://www.w3.org/2000/svg" xmlns:xlink="http://www.w3.org/1999/xlink" xml:space="preserve" id="svg905" x="0" y="0" version="1.1" viewBox="0 0 48 48"><style>.st2{fill:none;stroke:#242424;stroke-width:2.9091;stroke-linecap:round;stroke-linejoin:round;stroke-miterlimit:5.8182}</style><defs><path id="SVGID_1_" fill="#000" d="M37.1 48H10.9C4.9 48 0 43.1 0 37.1V10.9C0 4.9 4.9 0 10.9 0H37c6.1 0 11 4.9 11 10.9V37c0 6.1-4.9 11-10.9 11"/></defs><clipPath id="SVGID_00000053531319190878613080000007783264110321077418_" fill="#000"><use xlink:href="#SVGID_1_" style="overflow:visible"/></clipPath><g style="clip-path:url(#SVGID_00000053531319190878613080000007783264110321077418_)"><path id="rect913" d="M0 0h48v48H0z" style="fill:#e6e6e6"/><g id="g940" transform="translate(6.545 6.545)scale(1.45455)"><circle id="circle899" cx="12" cy="5" r="3" fill="#000" class="st2"/><path id="line901" fill="#000" d="M12 22V8" class="st2"/><path id="path903" fill="#000" d="M5 12H2c0 5.5 4.5 10 10 10s10-4.5 10-10h-3" class="st2"/></g></g></svg>