<svg xmlns="http://www.w3.org/2000/svg" xml:space="preserve" id="svg841" x="0" y="0" version="1.1" viewBox="0 0 512 512"><style>.st1{fill:#46bb5c}</style><g id="layer1" transform="translate(14.315 -28.766)"><circle id="path1404_00000168837372976549077490000005625265257550997166_" cx="241.7" cy="284.8" r="77.8" class="st1" style="opacity:.8157" transform="rotate(-45.001 241.686 284.768)"/><path d="M75.3 90.2C-32.1 182.1-44.7 343.6 47 451c83.8 98.1 227.4 118.5 335.2 47.7l-59.6-69.8c-68.8 38.6-155.4 23.2-206.6-36.8-59.3-69.4-51.1-173.7 18.2-233l.1-.1c69.4-59.3 173.8-51.1 233.1 18.3 51.3 60 52.9 147.9 4 209.8L431 457c86.8-95.4 89.1-240.5 5.3-338.5C344.5 11 182.9-1.7 75.4 90.1z" class="st1"/></g></svg>