<svg xmlns="http://www.w3.org/2000/svg" xml:space="preserve" id="Layer_1" x="0" y="0" version="1.1" viewBox="0 0 512 512"><style>.st0{fill:#0071bc}</style><path d="M103.32.7c-4.1.96-7.37 3.65-10.38 8.52-1.54 2.5-20.19 34.67-41.4 71.51-21.27 36.85-39.92 69.14-41.4 71.77-1.54 2.63-2.56 5-2.31 5.25.64.64 25.95 15.25 26.47 15.25.26 0 18.65-31.66 40.95-70.36 22.3-38.64 40.63-70.36 40.69-70.49.06-.06 37.1-.13 82.21-.13h82.15V0l-87.28.06c-48.05.07-88.42.32-89.7.64" class="st0"/><path d="M136.51 60.56c-5.57 1.99-5.32 1.6-42.16 65.43-19.29 33.45-35.12 61-35.12 61.26 0 .45 26.91 16.15 27.17 15.76.06-.13 14.67-25.38 32.36-56.13L150.99 91h129.32V59.6h-70.62c-58.44.06-71.13.19-73.18.96" class="st0"/><path d="M169.77 122.01c-1.73.83-3.84 2.18-4.61 3.01s-25.31 43-54.6 93.75c-40.37 69.91-53.31 92.85-53.64 94.97-.51 3.4.06 6.79 1.67 9.87 4.17 8.07 105.48 182.63 106.82 184.1.96.96 2.88 2.31 4.36 3.01 2.63 1.28 3.97 1.28 110.6 1.28h107.97l3.33-1.67c1.86-.9 4.04-2.56 4.87-3.72 3.08-4.04 20.31-34.54 19.8-35.05-.26-.26-6.28-3.78-13.33-7.82-8.65-5.06-13.01-7.24-13.52-6.79-.38.32-3.72 5.77-7.37 12.11l-6.6 11.53-95.09-.13-95.09-.19-47.29-82.02-47.36-82.02 1.09-1.92c.64-1.03 22.04-38.06 47.48-82.21l46.33-80.23h189.87l47.1 81.57c25.89 44.79 47.1 82.09 47.1 82.79 0 1.22-48.7 86.44-50.82 88.88-.9 1.09-5.83 1.15-86.06 1.15-46.78 0-85.23-.19-85.35-.51-.19-.26 22.04-39.09 49.34-86.32s50.5-87.6 51.58-89.71c4.42-8.65 1.28-18.39-7.11-22.04l-3.2-1.35-72.6.13-72.6.19v30.76l57.22.19c31.53.06 57.16.38 57.03.64-.13.32-23.26 40.43-51.46 89.26l-51.2 88.69-.26 4.29c-.13 2.37.06 5.32.51 6.6 1.03 3.08 4.61 7.05 7.95 8.84l2.63 1.41h216.6l2.56-1.41c1.41-.77 3.46-2.31 4.55-3.52 1.15-1.15 16.08-26.4 33.19-56.13 22.88-39.6 31.34-54.85 31.78-57.03.64-3.46.06-7.18-1.6-10.38-2.88-5.57-104.51-181.28-105.86-183.08-.9-1.15-3.08-2.76-4.87-3.72l-3.27-1.6H172.97z" class="st0"/></svg>