<svg xmlns="http://www.w3.org/2000/svg" viewBox="0 0 77 31"><path d="m13.2 25.2.6-3.1c9.8 6.2 22.4 6.2 32.2 0l.6 3.1c-9.8 7.7-23.6 7.7-33.4 0M52 10.9c1.1.2 2.3.1 3.3-.5.8-.5 1.3-1.3 1.5-2.2s.3-1.7.4-2.6H61V7q-.15 1.8-.9 3.3c-.4.8-1.1 1.5-1.8 2-.2.1-.4.3-.6.4.2.3.4.7.5 1 1 1.8 2 3.5 3.1 5.3l.3.6c.1.2.1.4.1.6h-4.2l-3.3-6-2.2.2v5.9h-4.1V.5H52zM12.2 5.5c0 .2-.1.4-.2.7L9.9 9.8c-1.3 2.2-2.6 4.4-3.8 6.6 0 .1-.1.2-.1.3h6.2v3.6H0c0-.2.1-.4.2-.6.6-1.1 1.2-2.1 1.8-3.1s1.1-1.9 1.7-2.9c.8-1.4 1.6-2.8 2.4-4.1.1-.1.1-.2.2-.4H.5V5.5zM6.5 4.1c-.6.1-1.1-.1-1.5-.5-.6-.5-.9-1.4-.6-2.2C4.6.7 5.3.1 6.1 0c.7-.2 1.5.1 2 .6.6.6.7 1.4.5 2.2-.3.8-1 1.3-1.8 1.3q-.15.15-.3 0m38.5 6c-.4-1.4-1.2-2.7-2.4-3.6Q40.95 5.3 39 5.3c-1.1-.1-2.3.1-3.4.5-.1 0-.3.1-.4.1V.5h-4.1v18.9c.6.2 1.2.3 1.8.4 1 .3 2 .5 3.1.7 1.6.2 3.2 0 4.8-.5 2.4-.7 4.2-2.7 4.5-5.2.2-1.5.2-3.2-.3-4.7M41.1 15c-.3 1-1.1 1.8-2.1 2-1.2.3-2.5.2-3.6-.2 0 0-.1 0-.1-.1V9.4c1.4-1 3.3-1 4.7-.1.5.4.8.9 1 1.5.4 1.3.5 2.8.1 4.2M27.3 6.5c-1-.4-2.1-.7-3.2-.9q-2.25-.45-4.5-.3C18.3 5.4 17 6 16 7c-.9 1-1.6 2.2-1.8 3.5q-.3 1.5-.3 3 0 1.95.9 3.6c.5.9 1.2 1.7 2.1 2.2 2 1.1 4.3 1.5 6.5 1.1 1.6-.2 3.1-.7 4.7-1V6.9c-.2-.1-.5-.3-.8-.4m-3.2 10.3c-1.4.5-2.9.6-4.3 0-.7-.3-1.2-.8-1.5-1.6-.5-1.6-.5-3.2.1-4.8.4-1 1.4-1.7 2.4-1.8s2.1 0 3 .5c.1 0 .1.1.2.1zM75.6 6.3c-1.2-.4-2.4-.7-3.7-.9-1.2-.2-2.5-.2-3.8 0-2.3.4-4.1 2.1-4.8 4.3-.5 1.7-.7 3.5-.4 5.3.2 1.6 1 3.1 2.3 4.1.3.2.7.5 1 .6.8.4 1.8.7 2.7.8q1.65.3 3.3 0c1.6-.3 3.2-.7 4.7-1V6.9c-.4-.2-.8-.4-1.3-.6M73 16.8c-.2.1-.3.1-.5.1-.8.2-1.6.3-2.5.3-1 0-1.9-.5-2.5-1.3-.3-.4-.5-.9-.6-1.4-.2-1.2-.2-2.4.2-3.6.3-1.2 1.4-2.1 2.6-2.2 1.1-.2 2.2 0 3.2.6z" style="fill:#01672c;fill-opacity:1"/></svg>