<svg xmlns="http://www.w3.org/2000/svg" xml:space="preserve" id="Layer_1" x="0" y="0" version="1.1" viewBox="0 25.6 512 460.8"><style>.st0{fill:#ca2317}.st0,.st2,.st7{fill-rule:evenodd;clip-rule:evenodd}.st2{fill:#e54011}.st7{fill:#009ec6}</style><g id="Page-1"><g id="logo"><g id="Shape"><path d="m351 186 121.2-37.2-71.8 45.6z" class="st0"/><path d="m423.8 276.6-24.4-82.2 71.8-45.6-21.5 73.8z" style="fill-rule:evenodd;clip-rule:evenodd;fill:#e84f83" transform="translate(1)"/><path d="m507.6 126.4-13.4 22.4-43.6 73.8 21.5-73.8z" class="st0"/><path d="m512 140.9-33.7 34.6 16-26.7zM358.3 163l99.1-9.9-68.9 21.2z" class="st2"/><path d="m362.1 219.1 38.4-24.7 24.4 82.2-12.9 26.2z" class="st0"/><path d="M303.8 316.7 285.5 93 411 302.8z" style="fill-rule:evenodd;clip-rule:evenodd;fill:#b7dff2" transform="translate(1)"/><path d="m252.8 374 52-57.2 107.2-14z" class="st2"/><path d="M-1 486.4 251.8 374l52-57.2-82.5-8.4z" style="fill-rule:evenodd;clip-rule:evenodd;fill:#ffce33" transform="translate(1)"/><path d="m8.6 394.6 129.9-19.8 40.4-32.5-19.8-8.7z" style="fill-rule:evenodd;clip-rule:evenodd;fill:#d6b12d" transform="translate(1)"/><path d="m55.4 288.5 123.5 53.8 42.4-34z" style="fill-rule:evenodd;clip-rule:evenodd;fill:#ffde85" transform="translate(1)"/><path d="m277.2 174.1-15.7 2.6-39.2 131.6 42.4-26.7z" class="st7"/><path d="m299.2 258.9-35.5 22.7L285.5 93z" style="fill-rule:evenodd;clip-rule:evenodd;fill:#5eafce" transform="translate(1)"/><path d="m165.2 191.8 111-17.7 4.9-43.9z" style="fill-rule:evenodd;clip-rule:evenodd;fill:#045972" transform="translate(1)"/><path d="m153.3 88.9 96.5 58.1 31.4-16.9.9-6.1z" style="fill-rule:evenodd;clip-rule:evenodd;fill:#5a8591" transform="translate(1)"/><path d="M173.2 25.6 261 118l22.1 6.1 3.5-31.1z" class="st7"/><path d="m221.3 308.3 77.9-49.4 4.6 57.8z" style="fill-rule:evenodd;clip-rule:evenodd;fill:#f39804" transform="translate(1)"/></g></g></g></svg>