<svg xmlns="http://www.w3.org/2000/svg" width="490" height="322" viewBox="0 0 490 322" fill="none">
<g clip-path="url(#clip0_626_57)">
<g clip-path="url(#clip1_626_57)">
<path d="M369 0H70C31.3401 0 0 31.3401 0 70V88C0 126.66 31.3401 158 70 158H369C407.66 158 439 126.66 439 88V70C439 31.3401 407.66 0 369 0Z" fill="#F98800"/>
<path d="M331.552 58.0224L190.602 226.001C171.431 248.847 174.411 282.907 197.257 302.078L205.684 309.148C228.53 328.318 262.591 325.338 281.761 302.492L422.711 134.514C441.881 111.668 438.901 77.6073 416.055 58.4372L407.629 51.3665C384.783 32.1964 350.722 35.1764 331.552 58.0224Z" fill="#F98800"/>
<path d="M490 274.5C490 300.734 468.734 322 442.5 322C416.266 322 395 300.734 395 274.5C395 248.266 416.266 227 442.5 227C468.734 227 490 248.266 490 274.5Z" fill="#020045"/>
</g>
</g>
<defs>
<clipPath id="clip0_626_57">
<rect width="2269" height="322" fill="white"/>
</clipPath>
<clipPath id="clip1_626_57">
<rect width="2269" height="322" fill="white"/>
</clipPath>
</defs>
</svg>