<svg width="160" height="160" xmlns="http://www.w3.org/2000/svg" fill="none">
 <g>
  <path stroke="null" id="svg_1" fill="black" d="m77.77641,0.42146c8.25008,-0.31709 24.94679,0.77406 38.30399,12.76765c10.95668,9.83841 14.73253,28.07814 12.17937,42.22111c-2.34107,12.96444 -7.85766,23.57181 -5.69622,33.3933c2.16028,9.82161 7.65832,14.66392 12.33467,16.69671c4.51873,1.96441 8.88564,1.37451 8.05468,5.10748c-0.83212,3.73181 -6.48199,5.10748 -10.60784,5.10748c-2.26226,0 -9.10352,-0.5899 -12.1388,-2.55432c-3.58694,-2.32137 -4.38661,-4.40168 -5.75185,-6.07404c-0.23179,-0.28394 -0.6409,-0.08692 -0.58643,0.27583c0.62235,4.1131 2.33759,11.09459 5.12023,15.42326c2.25183,3.5035 3.18247,6.05781 8.34094,10.37952c5.15963,4.32055 7.56908,8.24938 2.55316,11.03201c-4.45615,2.47087 -14.14262,-2.58561 -19.83884,-8.83928c-5.12753,-5.629 -8.69708,-12.57225 -10.10891,-17.08982c-0.75471,-2.41524 -1.5108,-6.57007 -2.26586,-9.96926c-0.09921,-0.44619 -0.71113,-0.37434 -0.72434,0.08344c-0.25068,8.64922 -1.61024,16.90903 -3.59795,25.76454c-1.43118,6.37536 -4.91092,14.14262 -8.05375,18.85722c-3.83229,5.74837 -9.52132,7.54242 -13.75009,5.97089c-3.38204,-1.25746 -0.98209,-5.53165 0,-9.23217c0.98221,-3.69936 2.94708,-11.4388 4.27025,-19.91765c1.19766,-7.67454 1.51463,-15.27144 0.98128,-22.46965c-0.03303,-0.43924 -0.70765,-0.50646 -0.84429,-0.08808c-1.10227,3.37601 -3.18003,8.97256 -4.69582,12.37639c-3.16149,7.09855 -5.50106,10.21379 -11.98339,17.67741c-5.82962,6.71378 -22.59621,16.20671 -24.74976,6.87603c-0.58932,-2.55316 2.49811,-3.67154 5.34541,-5.89324c4.27999,-3.33892 7.85661,-9.26462 11.24769,-16.49992c3.0449,-6.49705 4.59256,-12.78202 4.82933,-16.79429c0.02237,-0.38709 -0.46335,-0.53312 -0.68134,-0.21325c-1.40951,2.06756 -3.48507,4.86526 -5.77097,7.18547c-3.81861,3.87668 -8.05398,7.86693 -12.96571,9.82207c-7.89718,3.14306 -15.95046,0.98163 -15.36172,-4.71459c0.49209,-4.75748 5.80412,-3.77237 12.41684,-10.98681c6.4821,-7.07154 8.64215,-12.5726 9.03503,-18.66205c0.31384,-4.87163 -4.45186,-16.43398 -6.87452,-21.60682c-3.86312,-8.25019 -6.71795,-31.66462 4.9108,-46.75062c14.53551,-18.85687 32.01705,-18.46573 37.12476,-18.66193zm-22.67525,32.97562c-5.40822,0 -8.11251,4.15123 -8.11262,9.27157c0,5.12057 3.00468,9.27157 8.11262,9.27157c5.10794,0 8.11262,-4.151 8.11262,-9.27157c-0.00012,-5.12034 -2.7044,-9.27157 -8.11262,-9.27157zm44.03996,0c-5.40822,0 -8.11251,4.15123 -8.11262,9.27157c0,5.12057 3.00468,9.27157 8.11262,9.27157c5.10794,0 8.11274,-4.151 8.11274,-9.27157c0,-5.12034 -2.70452,-9.27157 -8.11274,-9.27157z" clip-rule="evenodd" fill-rule="evenodd"/>
 </g>
</svg>