<svg xmlns="http://www.w3.org/2000/svg" xml:space="preserve" id="svg5" x="0" y="0" version="1.1" viewBox="0 0 512 512"><style>.st0{fill:#fdbe36}</style><g id="layer1" transform="translate(2395.593 912.905)"><g id="g9724" transform="translate(-162.747 -401.708)scale(.99986)"><path id="path1240" d="m-2157.6-74.2-74.8-75v-212l74.8-75 74.8-75h211.4l74.8 75 74.8 75v212l-74.7 75-74.7 75h-211.4z"/><path id="path1244" d="m-2153.7-79.6-72.7-72.7v-205.8l72.7-72.7 72.7-72.7h205.8l72.7 72.7 72.7 72.7v205.8l-72.7 72.7-72.7 72.7H-2081z" class="st0"/><path id="path1867" d="M-2070.5-338.3c-1.7-.1-5.6-.4-7.4-.6-16.7-2.1-27.8-8.8-32-19.4-.8-2.1-1.1-3.2-1-5.1 0-1.3.1-1.7.3-2.6 2.2-8.2 13.6-15.6 35-22.8 12.1-4 24.6-7.3 53.6-14 12-2.8 18.5-4.3 23.3-5.7l1.7-.5.4-1c1.2-2.8 3.1-6.2 3.9-6.9l.6-.5-.5-1.5c-1.9-5.5-1.7-11.4.4-16.8 2-5.1 5.9-9.4 10.5-11.7.4-.2.7-.4.7-.4 0-.1-5.9-20.6-5.9-20.6s-3.5-.2-7.8-.3c-10-.4-9.8-.4-10.1-.7-.6-.5-.3-1.5.4-1.7.5-.1 18.4.6 18.7.7.2.1.5.8 1 1.7.4.9 2.7 5.6 5.1 10.4l4.3 8.8h5.4l5-10.3c3.4-7 5.1-10.4 5.3-10.5s1.8-.2 8.9-.5c10.8-.4 9.9-.4 10.3 0 .5.5.4 1.2-.1 1.6-.2.1-2.5.2-8.9.5-4.8.2-8.7.4-8.8.4-.1.1-5.9 20.4-5.9 20.5 0 0 .3.2.7.4 3.9 2 7.5 5.7 9.6 9.9 1.7 3.5 2.5 6.8 2.5 10.8 0 3.1-.5 5.8-1.4 8.3l-.4.9.6.5c.7.6 2 2.7 3.4 5.6.6 1.1 1.1 2.1 1.2 2.1.2.1 4 1.1 7.6 2 3.8 1 8.6 2.1 17.9 4.2 26.6 6.1 39.4 9.5 51.3 13.4 21.5 7.2 32.9 14.6 35.1 22.8.2.9.3 1.4.3 2.6 0 2.3-.4 3.8-1.8 6.7-2.6 5.3-6.9 9.6-13 12.7-2.2 1.1-3.3 1.5-5.8 2.4-4.7 1.6-9.4 2.5-15.6 3.1-2.6.2-10.6.3-13.6.2-11.8-.7-23-3.1-29.4-6.2-1.7-.9-2.1-1.1-4.4-3-12.3-10.1-23.1-20.1-29.5-27.1-.8-.9-1.5-1.6-1.5-1.6l-.7 1.4c-.3.8-.7 1.5-.8 1.6-.3.3-5.9 1.3-9.8 1.7-9.8 1.1-20.1.9-30-.6-1.6-.2-2-.3-2.2-.5-.1-.1-.6-1-1.1-2-.8-1.7-.9-1.7-1-1.5-.1.1-.8.9-1.6 1.8-1.8 2-9.2 9.4-12.1 12.1-7.5 6.9-18.5 16.3-20.6 17.5-4.9 2.9-14.8 5.6-25.2 6.6-5.2.7-10.5.9-15.1.7"/><path id="path1865" d="M-1975.5-327.8c-10-.5-18.6-2-25.9-4.4l-1.8-.6v-.4c0-1 .5-5 1-7.7.3-1.8 1-5.1 1.1-5.2 0 0 .7.1 1.5.3 6.2 1.7 14.5 2.9 22.7 3.4 2.8.2 10 .2 12.7 0 6.6-.4 12.8-1.3 18-2.6.8-.2 1.6-.4 1.7-.4.3 0 1.7 7.8 2 11.5.1.8.1 1.5.2 1.7 0 .2-.1.3-.8.5-5.2 1.8-11.9 3.1-19.6 3.7-2.5.2-10.2.3-12.8.2"/><path id="path1863" d="M-1975.3-281.1c-1.7-.2-3.5-.8-5.2-1.7-1.2-.6-4.9-3.1-6.7-4.6-1.8-1.4-5.3-4.8-6.6-6.5-1.2-1.5-2.2-3-3-4.2-.3-.5-.7-1.1-.8-1.2-.2-.2-.1-.2 1.2.1 11.6 2.8 26.1 3.5 38.7 2.1 2-.2 4.9-.7 6.6-1 .7-.2 1.4-.3 1.4-.3.1 0-1 1.6-1.8 2.7-2.3 3.2-5.7 6.6-9 9.1-1.9 1.4-4.9 3.4-6 3.9-1.3.6-2.5 1-3.9 1.3-.9.4-3.8.5-4.9.3"/><path id="path1861" d="M-1950.2-167.6c-1.3-.2-2.1-1-2.3-2.4-.1-.8-1.5-79.7-1.4-80.7.1-1.3.7-2.1 1.7-2.5.6-.2 4-.4 11.5-.4h5.4l.5.3c.3.1.7.4.8.6.7.9.6-1.6 1.3 39.2.8 44 .8 43.3.5 44-.4 1-1.2 1.5-2.5 1.7-.5.1-3.3.1-6.3.2-3 0-6.2.1-7 .1s-1.8-.1-2.2-.1"/><path id="path1859" d="M-2004.9-166.7c-1.5-.4-2.1-1.1-2.2-2.9-.1-.6-.4-18.9-.8-40.7-.7-43-.7-40.2-.1-41.2.4-.6 1.1-.9 2.3-1 1.6-.2 14.7-.3 15.4-.2 1.7.3 2.3 1.2 2.3 3.7 0 .8.4 19.1.7 40.5.6 35.4.7 39 .5 39.6-.2.9-.6 1.4-1.4 1.7-.6.3-.7.3-3.7.4-4.4.1-12.8.2-13 .1"/><path id="path1857" d="M-1882.9-61.5c-.6-.2-1-.5-1.3-1.1l-.2-.5v-43.8h-7c-6.8 0-7 0-7.5-.3-.6-.3-1-.6-1.2-1.3-.2-.5-.2-1.1-.2-6.1 0-3.6 0-5.9.1-6.5.2-1.1.5-1.7 1.2-2.1l.5-.3h48.4l.5.3c1.2.7 1.2 1 1.2 8.3 0 5.7 0 5.9-.3 6.4-.3.6-.6.9-1.2 1.2-.4.2-1 .2-7.4.2h-7v21.7c0 23.9 0 22.5-.7 23.2-.8.7-.5.7-9.3.7-6.5.2-8.2.1-8.6 0"/><path id="path1855" d="M-1939.7-61.5c-.7-.2-1-.5-1.3-1.1l-.3-.6V-107h-6.7c-4.1 0-6.9 0-7.2-.1-.7-.2-1.3-.6-1.6-1.2l-.3-.5v-6.4c0-7.1 0-7.1.7-7.8.8-.7-.9-.7 25.2-.7 15.6 0 23.9 0 24.1.1.7.2 1.1.6 1.5 1.2l.3.6v12.8l-.3.6c-.3.6-.4.7-1 1l-.6.3h-14v44l-.3.5c-.2.3-.5.6-.8.8l-.5.3h-8.2c-6.9.2-8.4.1-8.7 0"/><path id="path1853" d="M-2089.2-61.5c-.7-.2-1-.5-1.3-1.1l-.3-.6v-28.9c0-20 0-29.1.1-29.5.2-.8.6-1.4 1.2-1.7l.5-.3h8c8.9 0 8.7 0 9.7.7.3.2.7.6.9.9s2.3 3.9 4.6 8.1c2.3 4.1 4.3 7.7 4.6 8l.4.5h1.8l.4-.5c.2-.3 2.2-3.8 4.4-7.9s4.2-7.7 4.4-8 .7-.8 1-1.1c1-.8.8-.8 9.8-.8h8.1l.5.3c.6.3.9.7 1.1 1.4.1.5.2 4.1.2 29.4s0 28.9-.2 29.4c-.2.7-.5 1.1-1.1 1.4l-.5.3h-7.8c-8.6 0-8.5 0-9.2-.7-.7-.8-.7.1-.7-17.1 0-9 0-15.6-.1-15.6s-1.3 2.3-2.8 5c-2.4 4.4-2.8 5.1-3.4 5.7-.5.5-.9.8-1.4 1-.7.3-.8.3-3.8.3-3.5 0-3.9-.1-4.9-.9-.8-.6-1.1-1.1-4-6.5l-2.6-4.7-.1 15.8-.1 15.8-.3.7c-.2.5-.4.7-.9 1l-.5.3h-7.6c-6.3.1-7.7 0-8.1-.1"/><path id="path1849" d="M-1999.1-53.6c-.7-.2-1.2-.5-1.5-1.1l-.3-.5v-3c0-3 0-3-.3-3.1-.1 0-1-.2-2-.4-4.1-.8-7-1.9-9.3-3.6-2.5-1.8-4.3-5-5.2-9l-.3-1.2v-17.1c0-16.1 0-17.2.2-18.3.9-5.3 3.4-8.5 8.1-10.8 4.7-2.2 11.7-3.3 20.2-3.1 5.6.1 9.3.6 12.9 1.6 7.9 2.3 11.6 6.4 12.2 13.9.2 1.8.2 31.6 0 33.3-.6 6-3 9.6-8.1 12.2-2 1-4.3 1.7-7.1 2.2-.8.1-1.5.3-1.6.3-.2.1-.2.1-.3 3 0 2.9 0 3-.3 3.5-.3.6-.9 1-1.6 1.2-.7.1-15.1.1-15.7 0"/><path id="path1847" d="m-1802.4-79.6 72.7-72.7v-205.8l-72.7-72.7-72.7-72.7H-2081l-72.7 72.7-72.7 72.7v205.8l72.8 72.8 72.8 72.8h205.8z" class="st0"/><path id="path1492" d="M-1964-349.6c6.3-.4 10.4-1 15.4-2.2 1.3-.3 2.1-.6 2.1-.7 0-.2-1.1-3.5-1.8-5.3-1-2.7-3.1-7.5-3.3-7.8-.1-.1-.4-.1-.8 0-5.5 1.1-10.5 1.7-16.1 2-2.8.1-9.8.1-12.5 0-4.2-.2-9.3-.8-12.5-1.3-.5-.1-1-.1-1.1-.1-.5.5-4.8 11.6-4.6 11.8s4.9 1.3 7.5 1.8c5 .9 11.3 1.6 16 1.8 3.2.2 9.3.1 11.7 0z" style="fill:#fff;stroke:#fff;stroke-width:.7499;stroke-miterlimit:11.337"/><path id="path1486" d="M-1962.1-304.9c6.6-.5 11.9-1.4 16.4-2.8l1.4-.4.4-1.2c.7-2.4 1.3-5.2 1.7-7.5.2-1.5.5-4.6.5-5.4v-.5l-1.3.4c-16.7 4.8-40.7 4.5-58.7-.9l-1.5-.5.1 1.4c.2 3.5.7 7.1 1.6 10.5.7 2.8.4 2.5 2.5 3.1 7.5 2.3 16.4 3.7 25.9 4 2 .1 8.7 0 11-.2" style="fill:#fff"/><path id="path1490" d="M-2061.3-338.3c6.3-.4 11.9-1.1 17-2.2 7.6-1.7 12.5-3.6 15.6-6 4.4-3.4 14.2-11.9 20.4-17.7 2.7-2.5 8.6-8.4 10.3-10.4.8-.9 1.6-1.8 1.8-2l.4-.4 1 1.9 1 1.9.7.1c1 .2 4.5.7 6.4.9 8.6.9 18 .9 26.2-.2 3.6-.5 8.7-1.4 8.8-1.6 1-2.3 1.3-2.9 1.3-2.9s.5.5 1.1 1.2c6.6 7.3 15.9 15.9 28.3 26.2 4 3.4 4.7 3.8 6.9 4.8 8.5 3.8 23.2 6.2 36 5.9 17.7-.4 30.7-5.2 37.6-13.8 1.6-2 3-4.6 3.9-6.9.7-1.9.8-2.4.8-4.5 0-1.7 0-2-.3-2.9-.6-2-1.6-3.7-3.2-5.6-6.2-7.3-19.7-13.7-42.8-20.4-9.1-2.6-22-5.8-39.8-9.9-14.7-3.4-26-6.1-26.4-6.5l-1-2c-1.4-2.8-2.7-4.9-3.4-5.6l-.6-.5.4-1.2c1.6-4.5 1.8-9.5.6-14.2-1.6-6.3-5.7-11.7-11.2-14.6l-.9-.5 3-10.3c1.6-5.7 3-10.3 3-10.3s3.9-.2 8.7-.3c5.8-.2 8.7-.4 8.9-.4.2-.1.4-.3.5-.6l.2-.4-.2-.4c-.2-.3-.3-.5-.6-.6s-2.5-.1-9.2.2c-4.9.2-9 .4-9.2.4s-.5.2-.6.3-2.5 4.9-5.2 10.5l-5 10.2-.8-.1c-.5 0-1.3-.1-1.8-.1s-1.3 0-1.8.1l-.8.1-5-10.3c-2.8-5.6-5.1-10.4-5.3-10.5-.3-.3.5-.3-10.2-.7-9.1-.3-9-.3-9.4.2-.3.4-.2.8.1 1.3.4.4-.7.4 9.9.8l8 .3 2.9 10c1.6 5.5 2.9 10.1 2.9 10.3.1.4.1.4-.7.8-4.9 2.5-8.9 7.3-10.8 12.9-.9 2.7-1.2 4.7-1.2 7.8 0 2.9.4 5.3 1.3 8l.4 1.2-.6.6c-.9.8-2.6 3.8-3.8 6.7l-.5 1.2-1.4.4c-5.9 1.6-11.8 3.1-24 5.9-20.7 4.7-31.5 7.4-40.9 10.1-23.6 6.7-37.6 13.3-44 20.7-1.6 1.9-2.6 3.6-3.2 5.6-.4 1.4-.5 3.6-.2 5.1.7 3.7 3.3 8.2 6.6 11.5 6.8 6.8 18.1 10.7 32.8 11.5 1.8 0 8.6 0 10.3-.1"/><path id="path1488" d="M-1963.3-327.9c7.6-.5 13.6-1.5 19.4-3.4 1.4-.5 1.8-.6 1.8-.8 0-.4-.4-3.7-.6-5.3-.3-2.4-1.4-7.9-1.5-8.1 0 0-.6.1-1.3.3-11.7 3.1-28.4 3.7-42.9 1.5-3.9-.6-8.6-1.5-11.4-2.3-.7-.2-1.2-.3-1.3-.3-.2.3-1.3 5.9-1.6 8.4-.2 1.4-.6 4.6-.6 4.9s6.8 2.2 10.6 3c4.7 1 12.1 1.9 16.8 2 3 .3 10.3.3 12.6.1"/><path id="path1484" d="M-1970.3-281.2c3-.6 5.6-1.9 10-5.2 3.1-2.4 6.4-5.6 8.7-8.5.7-.9 2.3-3.3 2.3-3.4 0 0-.4 0-.8.1-1.8.4-5.8 1-8.9 1.3-7.2.7-15.8.7-23.3 0-4.8-.5-10-1.3-14-2.3-.7-.2-1.3-.3-1.3-.2 0 0 .2.5.6 1.1 2.7 4.4 6.2 8.2 10.4 11.4 1.8 1.4 5.1 3.6 6.3 4.2 1.3.6 3.1 1.3 4.3 1.5 1.3.3 4.3.3 5.7 0"/><path id="path1482" d="M-1936.6-167.7c2.3-.1 2.6-.1 3.1-.3 1-.4 1.5-1.2 1.6-2.5.1-1.2-1.3-79.9-1.4-80.7-.2-1.6-1-2.3-2.5-2.5-.4 0-4 0-8.1.1-8.1.1-8.1.2-9 .8-.5.4-.8 1.1-.9 2-.1 1.1 1.3 80.9 1.4 81.3.2.7.6 1.3 1 1.5.9.5 1 .6 6.9.5 3-.1 6.6-.2 7.9-.2"/><path id="path1480" d="M-1994.6-166.7c3-.1 5.7-.2 5.9-.2.8-.2 1.5-.7 1.8-1.3.3-.5.3-.7.3-2.3 0-1-.3-19.3-.7-40.7-.8-43.5-.6-39.8-1.5-40.7-.3-.3-.7-.5-1.2-.7-.6-.2-1.2-.2-8.4-.1-8.2.1-8.5.2-9.3.7-.2.1-.5.5-.7.8-.3.5-.3.7-.4 2.3 0 1 .3 19.3.6 40.7.6 32.3.7 39.1.9 39.5.4 1.3 1.1 1.8 2.5 2 .9.2 1.4.2 10.2 0"/><path id="path1478" d="M-1865.7-61.6c.7-.4 1.2-1 1.3-1.9.1-.4.1-8.6.1-22.1V-107h6.8c4.2 0 7 0 7.2-.1.6-.2 1.2-.6 1.5-1.1l.3-.5v-6.3c0-6.9 0-7.1-.6-7.8-.2-.2-.5-.4-.8-.6l-.5-.2h-24c-19.7 0-24 0-24.4.2-.6.2-1.1.6-1.4 1.2-.3.5-.3.5-.3 7v6.5l.3.6c.2.4.5.7.8.9l.6.3h14v43.6l.3.6c.4.8.9 1.2 1.9 1.4h16.2z"/><path id="path1476" d="M-1922.6-61.5c.3-.1.7-.4.8-.6.7-.8.7.5.7-23.2V-107h6.8c4.2 0 7 0 7.2-.1.6-.2 1.2-.6 1.5-1.1l.3-.5v-13l-.3-.6c-.2-.5-.4-.6-1-.9l-.7-.3h-24c-26.1 0-24.4 0-25.2.6-.8.7-.8.7-.8 7.8 0 7 0 6.8.7 7.6.7.7.8.7 8.3.7h6.8v21.2c0 13 0 21.5.1 22 .2 1.4.8 2.1 2 2.4.2 0 3.9.1 8.3.1 7.8-.2 8-.2 8.5-.4"/><path id="path1474" d="M-2073.2-61.5c.6-.3.9-.6 1.2-1.2l.2-.5.1-15.8.1-15.8 2.7 5c3.8 7.1 3.8 7.1 8 7.2 3.4.1 4.6-.1 5.7-1 .7-.6 1-1 3.8-6.3l2.5-4.7.1 15.8c.1 14.9.1 15.8.3 16.2.3.6.7 1 1.3 1.3.5.2 1.1.2 8.3.2h7.8l.6-.3c.4-.2.7-.5.9-.8l.3-.6v-59l-.3-.5c-.2-.4-.5-.6-1-.9l-.7-.3h-16.2l-.6.3c-.7.3-1.7 1.2-2.2 2.1-.2.3-2.1 3.8-4.3 7.8s-4.1 7.4-4.3 7.6c-.3.4-.4.4-1.2.4-.9 0-1.1-.1-1.5-.7-.1-.2-2-3.6-4.2-7.5s-4.2-7.5-4.5-7.9c-.6-.9-1.1-1.3-1.9-1.7l-.5-.3h-16.2l-.7.3c-.5.2-.7.4-1 .9l-.3.5v29.5c0 28.4 0 29.5.2 29.9.4.7.9 1 1.7 1.3.2 0 3.7.1 7.7.1 7.1-.4 7.7-.4 8.1-.6"/><path id="path1470" d="M-1990.2-124.9h-2.4c-5.6.1-8.6.4-12.1 1.3-6.9 1.7-10.9 4.9-12.5 9.7-.5 1.4-.8 3.1-.9 4.7-.2 1.9-.2 31.2 0 32.7.5 5.2 2.7 9.3 6.1 11.5 2.2 1.5 5.7 2.7 9.7 3.4l1.1.2v5.8l.3.7c.4.8 1 1.2 2 1.3.4.1 3.9.1 7.9.1 6.6 0 7.2 0 7.7-.2.6-.2 1.3-.9 1.5-1.5.1-.3.2-1.6.2-3.3 0-1.6.1-2.9.1-2.9l1.4-.2c8.2-1.4 13.1-5 14.8-10.7.7-2.5.7-1.3.7-19.8 0-11.5 0-17.1-.1-17.8-.4-3-1.1-5.1-2.2-6.9-2.1-3.3-5.7-5.5-11.1-6.8-3.5-.9-6.9-1.3-12.2-1.3m-.6 17c1.3 0 2.6.1 3.1.2 2.2.4 3.4 1.5 3.7 3.3.1.8.1 23.7 0 24.7-.1.9-.5 1.6-1.1 2.2-.5.6-1.1.8-2.2 1.1-.6.1-1.5.2-3.6.2-3 0-4.2-.1-5.4-.5-.9-.3-1.8-1.2-2.1-2.1-.2-.6-.2-.7-.2-13.2 0-12.4 0-12.6.2-13.2.5-1.3 1.5-2 3.2-2.4.8-.3 2.7-.3 4.4-.3"/></g></g></svg>