<svg xmlns="http://www.w3.org/2000/svg" xmlns:xlink="http://www.w3.org/1999/xlink" version="1.1" viewBox="0 0 114.55 75.27">
<defs>
<clipPath id="clip1">
  <path d="M 349 17 L 359.5 17 L 359.5 28 L 349 28 Z M 349 17 "/>
</clipPath>
<clipPath id="clip2">
  <path d="M 57 3 L 115 3 L 115 75.269531 L 57 75.269531 Z M 57 3 "/>
</clipPath>
</defs>
<g id="surface1">
<path style=" stroke:none;fill-rule:nonzero;fill:rgb(94.139099%,36.083984%,15.696716%);fill-opacity:1;" d="M 40.515625 64.472656 C 40.527344 64.875 40.820313 64.742188 41.039063 64.738281 C 46.308594 65.164063 51.539063 65.019531 56.683594 63.632813 C 64.355469 62.113281 71.171875 58.835938 76.710938 53.28125 C 84.53125 45.441406 85.914063 35.082031 80.253906 26.476563 C 74.722656 18.066406 66.464844 13.777344 56.863281 11.707031 C 51.636719 10.371094 46.351563 9.839844 40.976563 10.621094 C 35.492188 10.773438 30.300781 12.195313 25.328125 14.410156 C 23.550781 15.199219 22.003906 15.242188 20.261719 14.320313 C 17.667969 12.945313 14.972656 11.765625 11.953125 10.328125 C 12.890625 13.261719 13.664063 15.820313 14.527344 18.347656 C 15.027344 19.816406 14.769531 21.054688 13.75 22.1875 C 13.132813 22.875 12.53125 23.578125 11.953125 24.296875 C 5.542969 32.277344 5.238281 42.011719 11.347656 50.222656 C 16.902344 57.679688 24.75 61.527344 33.570313 63.632813 C 35.847656 64.175781 38.144531 64.851563 40.550781 64.488281 Z M 57.828125 70.796875 C 52.738281 71.550781 47.644531 72.265625 42.476563 71.941406 C 30.140625 71.164063 18.992188 67.449219 9.714844 58.929688 C -1.800781 48.351563 -3.261719 32.359375 6.304688 20.105469 C 7.117188 19.066406 7.171875 18.25 6.769531 17.085938 C 5.402344 13.101563 4.167969 9.074219 2.820313 5.082031 C 2.28125 3.480469 2.40625 2.058594 3.671875 0.914063 C 5.007813 -0.296875 6.480469 -0.203125 8.070313 0.578125 C 12.558594 2.796875 17.089844 4.917969 21.589844 7.117188 C 22.398438 7.515625 23.097656 7.671875 23.992188 7.316406 C 34.90625 2.972656 46.136719 2.339844 57.597656 4.515625 C 63.230469 5.753906 68.507813 7.933594 73.59375 10.617188 C 75.585938 12.117188 77.65625 13.527344 79.5625 15.128906 C 92.367188 25.871094 94.296875 42.507813 84.257813 55.265625 C 81.351563 58.960938 77.699219 61.816406 73.875 64.476563 C 68.8125 67.3125 63.429688 69.339844 57.828125 70.796875 "/>
<g clip-path="url(#clip2)" clip-rule="nonzero">
<path style=" stroke:none;fill-rule:nonzero;fill:rgb(10.594177%,52.539063%,76.171875%);fill-opacity:1;" d="M 57.828125 70.800781 C 63.429688 69.339844 68.8125 67.308594 73.875 64.476563 C 74.167969 64.589844 74.484375 64.839844 74.753906 64.792969 C 79.6875 63.996094 84.613281 63.101563 89.152344 60.890625 C 91.003906 59.984375 92.605469 60.105469 94.386719 61.050781 C 96.921875 62.398438 99.554688 63.5625 102.515625 64.980469 C 101.808594 62.761719 101.363281 60.835938 100.582031 59.0625 C 99.316406 56.195313 99.78125 54.035156 101.925781 51.597656 C 109.40625 43.09375 109.472656 32.335938 102.058594 23.742188 C 94.617188 15.113281 84.6875 11.507813 73.59375 10.617188 C 68.507813 7.933594 63.230469 5.753906 57.597656 4.515625 C 75.058594 1.46875 91.164063 4.164063 104.6875 16.378906 C 116.539063 27.085938 117.753906 42.640625 108.070313 55.324219 C 107.359375 56.253906 107.316406 57.011719 107.660156 58.027344 C 108.980469 61.960938 110.226563 65.917969 111.539063 69.855469 C 112.097656 71.53125 112.238281 73.128906 110.785156 74.40625 C 109.339844 75.675781 107.757813 75.375 106.171875 74.601563 C 101.90625 72.527344 97.605469 70.527344 93.375 68.382813 C 92.152344 67.765625 91.164063 67.699219 89.871094 68.199219 C 79.71875 72.117188 69.257813 72.917969 58.5625 71.078125 C 58.308594 71.03125 58.070313 70.894531 57.828125 70.800781 "/>
</g>
<path style=" stroke:none;fill-rule:nonzero;fill:rgb(10.594177%,52.539063%,76.171875%);fill-opacity:1;" d="M 40.550781 64.488281 C 37.761719 62.410156 34.949219 60.378906 32.488281 57.878906 C 20.476563 45.679688 21.035156 27.617188 33.785156 16.132813 C 36.046875 14.097656 38.519531 12.375 40.976563 10.621094 C 46.351563 9.839844 51.636719 10.371094 56.867188 11.707031 C 51.574219 13.175781 46.53125 15.175781 42.019531 18.390625 C 26.980469 29.113281 27.15625 46.714844 42.382813 57.199219 C 46.773438 60.21875 51.65625 62.074219 56.683594 63.632813 C 51.542969 65.019531 46.308594 65.164063 41.039063 64.738281 C 40.863281 64.648438 40.691406 64.558594 40.515625 64.46875 "/>
<path style=" stroke:none;fill-rule:nonzero;fill:rgb(96.09375%,54.881287%,14.109802%);fill-opacity:1;" d="M 56.78125 53.71875 C 51.503906 53.523438 46.304688 51.371094 42.359375 46.574219 C 40.550781 44.371094 40.570313 42.230469 42.347656 40.835938 C 44.089844 39.476563 45.964844 39.90625 47.765625 42.078125 C 52.867188 48.25 62.371094 48.230469 67.507813 42.039063 C 69.257813 39.929688 71.257813 39.496094 72.960938 40.855469 C 74.671875 42.222656 74.640625 44.472656 72.878906 46.609375 C 69.136719 51.144531 63.597656 53.726563 56.78125 53.71875 "/>
<path style=" stroke:none;fill-rule:nonzero;fill:rgb(10.594177%,52.539063%,76.171875%);fill-opacity:1;" d="M 53.15625 29.0625 C 53.152344 31.949219 50.792969 34.332031 47.910156 34.367188 C 44.914063 34.402344 42.507813 32.015625 42.519531 29.019531 C 42.535156 26.023438 44.949219 23.675781 47.957031 23.730469 C 50.855469 23.785156 53.164063 26.148438 53.15625 29.0625 "/>
<path style=" stroke:none;fill-rule:nonzero;fill:rgb(10.594177%,52.539063%,76.171875%);fill-opacity:1;" d="M 72.691406 29 C 72.703125 32 70.46875 34.320313 67.519531 34.367188 C 64.53125 34.410156 62.070313 31.960938 62.101563 28.980469 C 62.132813 26.058594 64.503906 23.726563 67.4375 23.730469 C 70.414063 23.734375 72.679688 26.007813 72.691406 29 "/>
</g>
</svg>