<svg xmlns="http://www.w3.org/2000/svg" xml:space="preserve" viewBox="87.58 2.6 336.7 506.87"><path d="M214.6 201.3c-1.4-3.9-2.2-6.4-3.3-8.8-23.7-55.4-47.4-110.7-71-166.1-6.5-15.3-.9-23.8 15.8-23.8H328c12.4 0 16.5 3.3 19.8 15.3 25.1 91.5 50.3 183 75.4 274.5 3.6 13-1.9 20.1-15.2 20.2h-98c1.2 4.5 1.8 7.8 2.8 10.9 17.9 55.9 35.9 111.7 53.9 167.6 1.8 5.6 2.4 11.3-2.5 14.9-3.4 2.4-8.6 3.8-12.8 3.4-3.3-.4-6.7-3.9-9.3-6.7-36.8-40.7-73.4-81.5-110-122.2-45.9-51.3-92-102.6-138.1-153.8-1.6-1.8-3.4-3.7-4.6-5.8-4.3-7.7-.7-16.5 7.9-18.6 3.5-.9 7.3-1 11-1 32.1-.1 64.2 0 96.3 0zm33-177.8h-70.4c-2.2 0-4.9-.5-6.5.5-2.2 1.3-5.2 4-5.1 5.9.2 2.4 2.8 5.5 5.1 6.6 2.7 1.3 6.3.8 9.5.8 43 0 85.9.1 128.9-.1 6.4 0 9.7 1.8 11.5 8.3 17.7 65.4 35.7 130.7 53.7 196.1 3.9 14.3 7.9 28.5 11.8 42.8 1.2 4.5 3.4 8.1 8.7 6.8 5.1-1.3 6-5.3 4.5-10-.3-.9-.4-1.9-.6-2.9-22.5-81.8-45.1-163.5-67.5-245.3-1.9-6.9-5.2-9.7-12.4-9.7-23.8.4-47.5.2-71.2.2m-70.8 198.6c-14.1 0-28.1.1-42.2 0-4.7 0-8.9 1-8.9 6.4 0 5.3 4.1 6.7 8.8 6.7h83.7c4.6 0 8.7-1.1 8.8-6.6.1-5.6-4-6.6-8.7-6.6-13.8.2-27.6.1-41.5.1m151.8 217.5c-1.1-3.8-1.6-6.2-2.4-8.5-7-22-14.1-44.1-21.2-66.1-.7-2.1-1.1-4.8-2.6-6-2-1.6-5.7-3.5-7.4-2.7-2.2 1.1-3.5 4.6-4.4 7.3-.5 1.3.7 3.3 1.2 4.9 7.1 22.3 14.3 44.5 21.5 66.8.7 2.1.9 4.7 2.4 6.1 1.9 1.8 5.1 4 7.1 3.5 2.3-.4 4.1-3.6 5.8-5.3" style="fill:#4d77bd"/></svg>