<svg xmlns="http://www.w3.org/2000/svg" fill="none" viewBox="15.84 15.86 831.54 224.4">
<path fill-rule="evenodd" clip-rule="evenodd" d="M165.906 62.664C150.851 53.9586 134.05 51.0237 118.057 53.1742C119.786 51.6647 120.879 49.4425 120.879 46.9648C120.879 45.3661 120.423 43.8739 119.636 42.6109C136.912 40.8902 154.87 44.3787 171.053 53.7359C173.515 55.1593 174.358 58.3118 172.937 60.7773C171.516 63.2427 168.368 64.0874 165.906 62.664ZM104.435 46.9648C104.435 50.5466 106.719 53.5942 109.907 54.7271C90.6345 59.503 73.2541 71.822 62.5431 90.4016C49.8732 112.38 49.445 138.073 59.1398 159.56C58.7196 159.493 58.2887 159.459 57.8499 159.459C54.3547 159.459 51.3689 161.643 50.1793 164.723C38.7387 140.131 39.0557 110.526 53.6286 85.247C65.2629 65.0654 83.824 51.3861 104.568 45.4826C104.481 45.9634 104.435 46.4588 104.435 46.9648ZM56.3564 175.791C63.4748 186.591 73.1418 195.94 85.0917 202.85C87.5535 204.273 90.7018 203.429 92.1231 200.963C93.5444 198.498 92.7003 195.346 90.2386 193.922C79.9972 188 71.6602 180.042 65.4444 170.852C64.2071 173.832 61.2728 175.927 57.8499 175.927C57.3399 175.927 56.8407 175.881 56.3564 175.791Z" fill="url(#paint0_linear_7939_23660)"/>
<path fill-rule="evenodd" clip-rule="evenodd" d="M57.833 163.376C55.479 163.376 53.5705 165.287 53.5705 167.644C53.5705 170.002 55.479 171.913 57.833 171.913C60.1872 171.913 62.0956 170.002 62.0956 167.644C62.0956 165.287 60.1872 163.376 57.833 163.376ZM45.6523 167.644C45.6523 160.907 51.1058 155.445 57.833 155.445C64.5602 155.445 70.0137 160.907 70.0137 167.644C70.0137 174.382 64.5602 179.843 57.833 179.843C51.1058 179.843 45.6523 174.382 45.6523 167.644Z" fill="#C631BC"/>
<path fill-rule="evenodd" clip-rule="evenodd" d="M37.6237 74.406C65.8317 25.9362 127.888 9.38718 176.447 37.465C178.341 38.56 180.762 37.9102 181.856 36.0137C182.948 34.1171 182.3 31.6922 180.406 30.5972C127.937 0.258012 60.8447 18.2627 30.5514 70.8119L30.5436 70.8255C33.433 70.8644 35.9952 72.2604 37.6237 74.406ZM30.6241 88.9373C30.5561 88.9388 30.4878 88.9396 30.4194 88.9396C27.5969 88.9396 25.0764 87.6446 23.4179 85.6153C3.84991 135.388 23.0526 193.34 70.7047 220.895C72.5984 221.989 75.0197 221.34 76.1129 219.443C77.2062 217.547 76.5575 215.122 74.6638 214.027C30.5869 188.54 12.7441 135.021 30.6241 88.9373Z" fill="url(#paint1_linear_7939_23660)"/>
<path fill-rule="evenodd" clip-rule="evenodd" d="M30.4362 73.5746C26.9721 73.5746 24.1638 76.3871 24.1638 79.8568C24.1638 83.3262 26.9721 86.1383 30.4362 86.1383C33.9004 86.1383 36.7086 83.3262 36.7086 79.8568C36.7086 76.3871 33.9004 73.5746 30.4362 73.5746ZM18.6211 79.8568C18.6211 73.3213 23.9109 68.0234 30.4362 68.0234C36.9616 68.0234 42.2513 73.3213 42.2513 79.8568C42.2513 86.3921 36.9616 91.6895 30.4362 91.6895C23.9109 91.6895 18.6211 86.3921 18.6211 79.8568Z" fill="#ED3795"/>
<path fill-rule="evenodd" clip-rule="evenodd" d="M112.673 42.6255C110.319 42.6255 108.41 44.5368 108.41 46.8945C108.41 49.2522 110.319 51.1636 112.673 51.1636C115.027 51.1636 116.935 49.2522 116.935 46.8945C116.935 44.5368 115.027 42.6255 112.673 42.6255ZM100.492 46.8945C100.492 40.1571 105.945 34.6953 112.673 34.6953C119.4 34.6953 124.853 40.1571 124.853 46.8945C124.853 53.632 119.4 59.0938 112.673 59.0938C105.945 59.0938 100.492 53.632 100.492 46.8945Z" fill="#F7579F"/>
<path fill-rule="evenodd" clip-rule="evenodd" d="M152.258 86.4931C129.304 73.2209 99.9548 81.0973 86.7029 104.085C73.4516 127.073 81.3154 156.466 104.269 169.739C107.109 171.381 108.082 175.019 106.442 177.864C104.802 180.708 101.17 181.683 98.3299 180.04C69.6961 163.483 59.8858 126.814 76.4172 98.137C92.9487 69.4603 129.562 59.6345 158.196 76.191C161.036 77.8334 162.01 81.4708 160.37 84.3154C158.73 87.1608 155.098 88.1354 152.258 86.4931Z" fill="url(#paint2_linear_7939_23660)"/>
<path d="M238.195 209.231V237.714H124.617V215.218L188.561 139.203H126.248V110.72H235.478V133.216L171.533 209.231H238.195ZM520.518 237.714L520.156 170.407L487.55 225.197H471.609L439.184 172.222V237.714H406.035V110.72H435.561L480.123 184.014L523.598 110.72H553.125L553.486 237.714H520.518ZM634.296 203.97H614.732V237.714H578.865V110.72H636.832C648.307 110.72 658.27 112.652 666.72 116.525C675.171 120.272 681.692 125.714 686.284 132.853C690.876 139.865 693.168 148.156 693.168 157.708C693.168 166.897 690.994 174.943 686.647 181.836C682.417 188.613 676.321 193.929 668.351 197.802L695.703 237.714H657.301L634.296 203.97ZM656.938 157.708C656.938 151.784 655.063 147.185 651.323 143.92C647.582 140.654 642.021 139.021 634.658 139.021H614.732V176.212H634.658C642.021 176.212 647.582 174.644 651.323 171.495C655.063 168.231 656.938 163.631 656.938 157.708ZM776.902 240.255C763.497 240.255 751.424 237.415 740.673 231.727C730.049 226.04 721.653 218.185 715.493 208.143C709.452 198.101 706.436 186.798 706.436 174.217C706.436 161.636 709.452 150.333 715.493 140.292C721.653 130.25 730.049 122.395 740.673 116.707C751.424 111.02 763.497 108.18 776.902 108.18C790.307 108.18 802.324 111.02 812.95 116.707C823.703 122.395 832.089 130.25 838.13 140.292C844.29 150.333 847.371 161.636 847.371 174.217C847.371 186.798 844.29 198.101 838.13 208.143C832.089 218.185 823.703 226.04 812.95 231.727C802.324 237.415 790.307 240.255 776.902 240.255ZM776.902 210.501C783 210.58 789.007 209.013 794.295 205.966C799.481 202.945 803.591 198.709 806.608 193.266C809.625 187.706 811.137 181.356 811.137 174.217C811.137 167.078 809.625 160.792 806.608 155.349C803.591 149.789 799.481 145.489 794.295 142.468C789.007 139.421 783 137.854 776.902 137.933C770.803 137.854 764.797 139.421 759.512 142.468C754.286 145.526 750.019 149.989 747.194 155.349C744.178 160.792 742.665 167.078 742.665 174.217C742.665 181.356 744.178 187.706 747.194 193.266C750.21 198.709 754.322 202.945 759.512 205.966C764.797 209.013 770.803 210.58 776.902 210.501Z" fill="url(#paint3_linear_7939_23660)"/>
<path fill-rule="evenodd" clip-rule="evenodd" d="M321.872 240.246C308.467 240.246 296.393 237.407 285.643 231.719C275.018 226.032 266.623 218.176 260.464 208.135C254.422 198.094 251.406 186.791 251.406 174.209C251.406 161.628 254.422 150.325 260.464 140.284C266.623 130.242 275.018 122.386 285.643 116.698C296.393 111.012 308.467 108.172 321.872 108.172C335.276 108.172 347.295 111.012 357.919 116.698C368.671 122.386 377.057 130.242 383.098 140.284C389.258 150.325 392.337 161.628 392.337 174.209C392.337 186.791 389.258 198.094 383.098 208.135C377.057 218.176 368.671 226.032 357.919 231.719C347.295 237.407 335.276 240.246 321.872 240.246ZM353.798 150.333C355.727 155.24 355.971 160.81 354.486 165.917C358.353 166.48 361.895 168.738 364.385 172.231C366.876 175.723 368.126 180.195 367.881 184.722C367.69 189.118 365.992 193.315 363.072 196.604C360.228 199.707 356.469 201.439 352.566 201.439H295.641C293.023 201.439 290.442 200.786 288.069 199.534C285.696 198.282 283.577 196.45 281.856 194.164C280.135 191.879 278.858 189.193 278.106 186.281C277.355 183.354 277.149 180.312 277.499 177.31C277.843 174.308 278.749 171.414 280.135 168.847C281.521 166.28 283.359 164.085 285.542 162.407C287.725 160.729 290.179 159.622 292.761 159.141C295.34 158.664 297.998 158.835 300.496 159.64C301.075 157.281 302.108 155.095 303.512 153.254C304.916 151.412 306.663 149.971 308.62 149.036C310.576 148.101 312.695 147.693 314.806 147.848C316.951 148.012 319.019 148.724 320.811 149.916C322.831 145.063 326.363 141.289 330.693 139.357C335.021 137.425 339.822 137.488 344.115 139.53C348.409 141.57 351.868 145.426 353.798 150.333Z" fill="url(#paint4_linear_7939_23660)"/>














<defs>
<linearGradient id="paint0_linear_7939_23660" x1="135.664" y1="32.1709" x2="49.8049" y2="182.967" gradientUnits="userSpaceOnUse">
<stop stop-color="#FB67A3"/>
<stop offset="0.397" stop-color="#E72690"/>
<stop offset="1" stop-color="#C630BB"/>
</linearGradient>
<linearGradient id="paint1_linear_7939_23660" x1="134.314" y1="3.09682" x2="24.5961" y2="194.633" gradientUnits="userSpaceOnUse">
<stop stop-color="#FB67A3"/>
<stop offset="0.397" stop-color="#E72690"/>
<stop offset="1" stop-color="#C630BB"/>
</linearGradient>
<linearGradient id="paint2_linear_7939_23660" x1="131.874" y1="67.8373" x2="77.8223" y2="161.317" gradientUnits="userSpaceOnUse">
<stop stop-color="#FB67A3"/>
<stop offset="0.397" stop-color="#E72690"/>
<stop offset="1" stop-color="#C630BB"/>
</linearGradient>
<linearGradient id="paint3_linear_7939_23660" x1="489.624" y1="112.285" x2="489.624" y2="317.846" gradientUnits="userSpaceOnUse">
<stop stop-color="#4E1E91"/>
<stop offset="1" stop-color="#42197B"/>
</linearGradient>
<linearGradient id="paint4_linear_7939_23660" x1="489.626" y1="112.283" x2="489.626" y2="317.843" gradientUnits="userSpaceOnUse">
<stop stop-color="#4E1E91"/>
<stop offset="1" stop-color="#42197B"/>
</linearGradient>
<linearGradient id="paint5_linear_7939_23660" x1="489.625" y1="112.286" x2="489.625" y2="317.846" gradientUnits="userSpaceOnUse">
<stop stop-color="#4E1E91"/>
<stop offset="1" stop-color="#42197B"/>
</linearGradient>
<linearGradient id="paint6_linear_7939_23660" x1="489.624" y1="112.283" x2="489.624" y2="317.843" gradientUnits="userSpaceOnUse">
<stop stop-color="#4E1E91"/>
<stop offset="1" stop-color="#42197B"/>
</linearGradient>
<linearGradient id="paint7_linear_7939_23660" x1="489.624" y1="112.283" x2="489.624" y2="317.843" gradientUnits="userSpaceOnUse">
<stop stop-color="#4E1E91"/>
<stop offset="1" stop-color="#42197B"/>
</linearGradient>
<linearGradient id="paint8_linear_7939_23660" x1="489.627" y1="112.286" x2="489.627" y2="317.846" gradientUnits="userSpaceOnUse">
<stop stop-color="#4E1E91"/>
<stop offset="1" stop-color="#42197B"/>
</linearGradient>
<linearGradient id="paint9_linear_7939_23660" x1="489.624" y1="112.286" x2="489.624" y2="317.846" gradientUnits="userSpaceOnUse">
<stop stop-color="#4E1E91"/>
<stop offset="1" stop-color="#42197B"/>
</linearGradient>
<linearGradient id="paint10_linear_7939_23660" x1="489.624" y1="112.286" x2="489.624" y2="317.846" gradientUnits="userSpaceOnUse">
<stop stop-color="#4E1E91"/>
<stop offset="1" stop-color="#42197B"/>
</linearGradient>
<linearGradient id="paint11_linear_7939_23660" x1="489.626" y1="112.283" x2="489.626" y2="317.843" gradientUnits="userSpaceOnUse">
<stop stop-color="#4E1E91"/>
<stop offset="1" stop-color="#42197B"/>
</linearGradient>
<linearGradient id="paint12_linear_7939_23660" x1="489.626" y1="112.283" x2="489.626" y2="317.843" gradientUnits="userSpaceOnUse">
<stop stop-color="#4E1E91"/>
<stop offset="1" stop-color="#42197B"/>
</linearGradient>
<linearGradient id="paint13_linear_7939_23660" x1="489.627" y1="112.283" x2="489.627" y2="317.843" gradientUnits="userSpaceOnUse">
<stop stop-color="#4E1E91"/>
<stop offset="1" stop-color="#42197B"/>
</linearGradient>
<linearGradient id="paint14_linear_7939_23660" x1="489.624" y1="112.286" x2="489.624" y2="317.846" gradientUnits="userSpaceOnUse">
<stop stop-color="#4E1E91"/>
<stop offset="1" stop-color="#42197B"/>
</linearGradient>
<linearGradient id="paint15_linear_7939_23660" x1="489.627" y1="112.286" x2="489.627" y2="317.846" gradientUnits="userSpaceOnUse">
<stop stop-color="#4E1E91"/>
<stop offset="1" stop-color="#42197B"/>
</linearGradient>
<linearGradient id="paint16_linear_7939_23660" x1="489.626" y1="112.286" x2="489.626" y2="317.846" gradientUnits="userSpaceOnUse">
<stop stop-color="#4E1E91"/>
<stop offset="1" stop-color="#42197B"/>
</linearGradient>
<linearGradient id="paint17_linear_7939_23660" x1="489.627" y1="112.286" x2="489.627" y2="317.846" gradientUnits="userSpaceOnUse">
<stop stop-color="#4E1E91"/>
<stop offset="1" stop-color="#42197B"/>
</linearGradient>
<linearGradient id="paint18_linear_7939_23660" x1="489.626" y1="112.286" x2="489.626" y2="317.846" gradientUnits="userSpaceOnUse">
<stop stop-color="#4E1E91"/>
<stop offset="1" stop-color="#42197B"/>
</linearGradient>
</defs>
</svg>