<svg xmlns="http://www.w3.org/2000/svg" width="114" height="26" fill="none"><path fill="#0b5cff" d="M23.698 25.292H3.595c-1.33 0-2.59-.697-3.203-1.889a3.48 3.48 0 0 1 .63-4.068L15.01 5.361H4.992A4.985 4.985 0 0 1 0 .374h18.519c1.328 0 2.59.698 3.202 1.89a3.48 3.48 0 0 1-.63 4.068L7.104 20.305h11.602c2.76 0 4.992 2.23 4.992 4.987M103.258 0a9.66 9.66 0 0 0-7.241 3.234A9.7 9.7 0 0 0 88.777 0c-5.35 0-9.71 4.561-9.71 9.889v15.403c2.759 0 4.99-2.23 4.99-4.987V9.838c0-2.57 1.994-4.749 4.55-4.851a4.746 4.746 0 0 1 4.923 4.732v10.586a4.985 4.985 0 0 0 4.991 4.987V9.838c0-2.57 1.994-4.749 4.549-4.851a4.746 4.746 0 0 1 4.924 4.732v10.586a4.985 4.985 0 0 0 4.991 4.987V9.89c-.017-5.33-4.378-9.89-9.727-9.89m-54.38 12.833c0 7.081-5.759 12.834-12.846 12.834s-12.845-5.753-12.845-12.834S28.962 0 36.032 0s12.846 5.753 12.846 12.833m-4.992 0c0-4.323-3.527-7.846-7.854-7.846s-7.854 3.523-7.854 7.846 3.527 7.847 7.854 7.847 7.854-3.523 7.854-7.847m32.676 0c0 7.081-5.758 12.834-12.845 12.834S50.87 19.914 50.87 12.833 56.646 0 63.716 0s12.846 5.753 12.846 12.833m-4.992 0c0-4.323-3.526-7.846-7.853-7.846-4.328 0-7.855 3.523-7.855 7.846s3.527 7.847 7.854 7.847c4.328 0 7.854-3.523 7.854-7.847"/></svg>