<svg xmlns="http://www.w3.org/2000/svg" xml:space="preserve" id="圖層_1" x="0" y="0" version="1.1" viewBox="0 0 512 512"><style>.st1{fill:#a9d1f3}</style><path d="M427.1 65.6 369 130.3c34.4 30.9 56 75.8 56 125.7s-21.6 94.8-56 125.7l58.1 64.7C479.2 399.5 512 331.6 512 256s-32.8-143.5-84.9-190.4M84.9 446.4l58.1-64.7c-34.4-30.9-56-75.8-56-125.7s21.6-94.8 56-125.7L84.9 65.6C32.8 112.5 0 180.4 0 256s32.8 143.5 84.9 190.4" style="fill:#213040"/><path d="M310.7 32.8 256 98.5l-54.7-65.7zm0 380.7L256 479.2l-54.7-65.7z" class="st1"/><circle cx="256" cy="256" r="81.2" class="st1"/></svg>